<svg width="110" height="29" fill="none" xmlns="http://www.w3.org/2000/svg"><path fill-rule="evenodd" clip-rule="evenodd" d="M0 0h9.885c3.806 0 6.934 3.096 6.934 6.863v15.274c0 3.767-3.128 6.834-6.934 6.834H0V0zm7.17 23.013a2.324 2.324 0 0 0 2.331-2.307V8.294c0-1.285-1.062-2.307-2.33-2.307v17.026zM18.855 0h7.317v28.97h-7.317V0zm36.322 0H47.86v28.97h7.317V0zm39.775 0v28.97H110v-6.132h-7.553V0h-7.495zm-38.24 0v6.425h4.367v22.546h7.73V6.425h4.367V0H56.712zm29.86 0h-9.088l-5.901 28.97H78.9l.886-5.314h4.278l.915 5.315h7.495L86.572 0zm-5.99 17.815 1.476-9.58 1.475 9.58h-2.95zM44.998 6.863v2.92h-7.111V7.36c0-.701-.59-1.285-1.299-1.285-.708 0-1.298.584-1.298 1.285v14.835c0 .701.59 1.285 1.298 1.285.708 0 1.298-.584 1.298-1.285v-4.322h-1.298v-5.49h8.41v9.754c0 3.767-3.128 6.863-6.934 6.863h-2.951c-3.806 0-6.934-3.096-6.934-6.863V6.863C28.179 3.096 31.307 0 35.113 0h2.95c3.807 0 6.934 3.096 6.934 6.863z" fill="#00000D"/></svg>