<svg width="181" height="60" viewBox="0 0 181 60" fill="none" xmlns="http://www.w3.org/2000/svg">
<path fill-rule="evenodd" clip-rule="evenodd" d="M0 17H9.885C13.691 17 16.819 20.096 16.819 23.863V39.137C16.819 42.904 13.691 45.971 9.885 45.971H0V17ZM7.17 40.013C7.78464 40.0149 8.37499 39.7732 8.81185 39.3408C9.24871 38.9084 9.49651 38.3206 9.501 37.706V25.294C9.501 24.009 8.439 22.987 7.171 22.987V40.013H7.17ZM18.855 17H26.172V45.97H18.855V17ZM55.177 17H47.86V45.97H55.177V17ZM94.952 17V45.97H110V39.838H102.447V17H94.952ZM56.712 17V23.425H61.079V45.971H68.809V23.425H73.176V17H56.712ZM86.572 17H77.484L71.583 45.97H78.9L79.786 40.656H84.064L84.979 45.971H92.474L86.572 17ZM80.582 34.815L82.058 25.235L83.533 34.815H80.583H80.582ZM44.998 23.863V26.783H37.887V24.36C37.887 23.66 37.297 23.075 36.588 23.075C35.88 23.075 35.29 23.66 35.29 24.36V39.196C35.29 39.897 35.88 40.481 36.588 40.481C37.296 40.481 37.886 39.897 37.886 39.196V34.874H36.588V29.384H44.998V39.138C44.998 42.905 41.87 46.001 38.064 46.001H35.113C31.307 46.001 28.179 42.905 28.179 39.138V23.863C28.179 20.096 31.307 17 35.113 17H38.063C41.87 17 44.997 20.096 44.997 23.863H44.998Z" fill="#00000D"/>
<circle cx="141.015" cy="31.9851" r="24.0149" fill="url(#paint0_linear_1_2)"/>
<circle cx="141.015" cy="31.9851" r="24.0149" fill="url(#paint1_radial_1_2)"/>
<circle cx="141.015" cy="31.9851" r="24.0149" fill="url(#paint2_radial_1_2)"/>
<circle cx="141.015" cy="31.9851" r="24.0149" fill="url(#paint3_radial_1_2)"/>
<mask id="mask0_1_2" style="mask-type:luminance" maskUnits="userSpaceOnUse" x="116" y="7" width="50" height="49">
<circle cx="141.015" cy="31.9851" r="24.0149" fill="white"/>
</mask>
<g mask="url(#mask0_1_2)">
<circle cx="141.015" cy="31.9851" r="24.0149" fill="url(#paint4_radial_1_2)" fill-opacity="0.5"/>
<rect x="129.346" y="53.6471" width="57.398" height="52.5335" transform="rotate(-56.5217 129.346 53.6471)" fill="url(#paint5_radial_1_2)" fill-opacity="0.5"/>
<g style="mix-blend-mode:soft-light">
<rect x="106.345" y="27.588" width="38.39" height="37.7135" fill="url(#paint6_radial_1_2)" fill-opacity="0.4"/>
</g>
<ellipse cx="152.98" cy="12.8497" rx="17.1936" ry="14.4134" transform="rotate(-165 152.98 12.8497)" fill="url(#paint7_radial_1_2)"/>
</g>
<g filter="url(#filter0_f_1_2)">
<ellipse cx="141.015" cy="8.57205" rx="3.84009" ry="0.716434" fill="black" fill-opacity="0.1"/>
</g>
<path d="M159.88 23.5679C159.78 24.2678 159.48 24.7677 159.03 25.0677C158.48 25.3676 157.88 25.5676 156.93 25.5676H156.08C152.981 25.3676 152.331 28.6671 152.681 31.0668C152.931 32.5665 153.481 34.1663 154.38 35.2661C155.18 36.116 156.38 36.6659 157.38 35.816C158.23 35.1162 158.48 33.5164 158.48 32.5665C158.48 30.9168 157.88 28.3672 155.83 28.3672C155.23 28.3672 154.68 28.6171 154.23 29.217C153.88 29.667 153.73 30.5168 153.73 31.3667H153.331C153.081 29.367 154.03 27.7173 156.13 27.6673C158.63 27.6673 160.129 29.667 160.129 32.1666C160.129 34.6662 158.58 37.0159 156.03 37.0159C154.68 37.0159 153.63 36.5159 152.831 35.5161C152.031 34.5662 151.681 33.0165 151.681 31.0168C151.681 28.5172 152.081 27.0674 152.831 25.8676C153.63 24.7177 154.68 24.1678 156.18 24.1678H157.43C158.23 24.2678 158.78 24.1678 159.08 24.1178C159.33 23.9678 159.58 23.8179 159.63 23.5679H159.88Z" fill="white"/>
<path d="M145.132 34.5162L147.931 28.3172L148.181 27.7672H150.481V28.0672H150.281C149.981 28.0672 149.631 28.4171 149.631 28.7671V33.9163V35.966C149.631 36.3659 149.981 36.6659 150.281 36.6659H150.481V36.9159H148.931H147.281V36.6659H147.531C147.831 36.6659 148.181 36.3659 148.181 35.966V33.9163V29.317L144.782 36.9159H144.582L141.232 29.167V35.916C141.232 36.3159 141.532 36.6159 141.832 36.6159H142.082V36.8659H140.532H139.733V36.6159H139.983C140.333 36.6159 140.632 36.3159 140.632 35.916V28.7671C140.632 28.4171 140.432 28.0672 139.933 28.0672C139.533 28.0672 139.083 28.4671 138.833 29.0171L135.633 36.116C135.333 36.7159 134.933 36.9159 134.383 36.9159H133.634L133.484 35.966C133.833 36.216 134.083 36.3659 134.183 36.4159C134.583 36.6159 134.883 36.3659 134.983 36.066L135.383 35.1661L132.484 29.167C132.134 28.5171 131.884 28.2172 131.434 28.1172V27.8172H133.084H134.333V28.1172H134.083C133.833 28.1172 133.734 28.4671 133.933 28.8171L136.133 33.5164L138.183 28.9671C138.433 28.5171 138.233 28.1672 137.883 28.1172V27.7672H142.082L145.132 34.5162Z" fill="white"/>
<path d="M128.834 28.825V28.4751H124.685V28.825V33.9164V35.966C124.685 36.366 124.985 36.6659 125.285 36.6659H125.535V36.9159H123.985H122.335V36.6659H122.585C122.935 36.6659 123.235 36.366 123.235 35.966V33.9164V28.825C123.235 28.4251 122.935 28.1172 122.585 28.1172H122.335V27.8173H123.985H124.235H125.585H127.984H129.184H129.634H131.184V28.1172H130.934C130.584 28.1172 130.284 28.4751 130.284 28.825V33.9164V35.966C130.284 36.366 130.584 36.6659 130.934 36.6659H131.184V36.9159H129.634H127.984V36.6659H128.234C128.534 36.6659 128.834 36.366 128.834 35.966V33.9164V28.825Z" fill="white"/>
<path d="M141.683 3.93437L142.165 4.26872L142.075 4.56724L142.299 4.6979L145.384 2.61636L150.416 2.47552L148.969 0.92274C148.816 0.792317 148.323 0.546227 147.576 0.605251C145.491 0.727097 143.102 2.41178 141.683 3.93437Z" fill="url(#paint8_linear_1_2)"/>
<path d="M153.13 7.60449C152.181 7.7136 150.633 7.01795 149.977 6.65649C149.897 6.90504 149.865 7.62282 150.38 8.50552C150.894 9.38822 152.422 10.0113 153.122 10.2126C155.14 9.61152 159.78 8.24216 162.189 7.57321C166.317 5.70855 169.642 5.06129 170.917 4.96068C172.191 4.86007 173.277 5.0736 173.708 5.12502C173.418 4.52098 172.697 3.03341 172.13 1.9155C169.376 1.14972 166.626 2.05075 165.248 2.45879C163.869 2.86682 158.133 6.0126 156.52 6.69564C154.907 7.37868 154.079 7.49538 153.13 7.60449Z" fill="url(#paint9_linear_1_2)"/>
<path d="M150.003 3.1921L148.97 3.10266C148.794 3.75776 148.439 5.14508 148.442 5.62355C148.446 6.10201 148.734 6.61215 148.876 6.78618C149.424 7.41258 150.501 8.64124 150.425 8.54465C150.33 8.42392 150.234 7.74758 150.236 7.23446C150.239 6.72134 150.81 4.7527 150.871 4.44863C150.921 4.20538 150.908 3.83304 150.896 3.67727L150.003 3.1921Z" fill="url(#paint10_linear_1_2)"/>
<path fill-rule="evenodd" clip-rule="evenodd" d="M150.904 4.1302C150.911 3.95091 150.904 3.77309 150.896 3.67725L150.003 3.19208L148.97 3.10264C148.93 3.24994 148.882 3.43424 148.83 3.63691C149.612 3.69295 150.308 3.88459 150.904 4.1302Z" fill="#132153"/>
<path d="M154.399 7.97452C153.614 7.78 153.13 7.43345 152.93 7.23558C151.756 8.6106 152.615 10.2953 152.802 10.4943C152.989 10.6933 153.235 11.1013 155.063 11.5127C156.89 11.9241 160.546 11.1226 164.215 10.491C167.884 9.85935 170.946 9.66037 173.542 10.0539C176.137 10.4474 178.84 11.2884 180.141 11.8839C179.901 10.478 179.321 7.56297 178.912 7.15068C178.401 6.63533 175.801 5.64373 171.918 5.73651C168.036 5.82929 158.49 7.82249 157.265 8.00471C156.04 8.18693 155.183 8.16904 154.399 7.97452Z" fill="url(#paint11_linear_1_2)"/>
<path fill-rule="evenodd" clip-rule="evenodd" d="M153.111 7.39068C153.097 7.59568 153.079 7.79746 153.061 7.99675C152.986 8.81287 152.916 9.58724 153.155 10.3705C153.228 10.611 153.301 10.8024 153.37 10.9535C153.066 10.7894 152.938 10.6458 152.845 10.5421C152.83 10.5251 152.816 10.5091 152.802 10.4943C152.615 10.2953 151.756 8.6106 152.93 7.23558C152.975 7.28073 153.036 7.33362 153.111 7.39068Z" fill="#C98500"/>
<path d="M152.738 4.81419C152.907 5.14285 153.302 5.45363 153.088 6.53912C152.875 7.62461 152.524 8.59272 152.692 9.64803C152.789 10.2506 152.924 10.5671 153.025 10.7119L153.126 10.8107C153.101 10.8004 153.066 10.77 153.025 10.7119L151.181 8.91244C151.01 8.72649 150.637 8.08339 150.714 7.32501C150.81 6.37702 151.018 5.76217 151.124 4.94162C151.209 4.28519 151.215 3.92284 151.207 3.82372L151.92 4.19486L152.738 4.81419Z" fill="url(#paint12_linear_1_2)"/>
<path fill-rule="evenodd" clip-rule="evenodd" d="M153.021 5.30562C152.967 5.18285 152.903 5.083 152.845 4.99165C152.805 4.93011 152.768 4.87242 152.738 4.81418L151.92 4.19485L151.207 3.82371C151.211 3.87867 151.211 4.01457 151.196 4.23667C151.92 4.55006 152.56 4.94367 153.021 5.30562Z" fill="#A66D00"/>
<path d="M142.113 5.19412L142.113 4.49893C143.506 3.19209 146.372 1.59796 148.219 1.70864C150.066 1.81932 150.29 2.31455 150.508 2.55379L152.784 4.85333C152.038 4.24258 150.474 3.1977 148.336 3.19546C146.199 3.19322 143.831 4.06406 142.627 5.05676C142.002 5.5718 142.181 5.08852 142.248 4.93685C142.226 4.98055 142.184 5.06148 142.113 5.19412Z" fill="url(#paint13_linear_1_2)"/>
<path d="M140.168 6.00009C140.118 6.0003 140.069 5.98464 140.027 5.95525C139.986 5.92586 139.954 5.88417 139.937 5.83586C139.791 5.45357 139.707 5.04971 139.687 4.63993C139.706 4.26574 139.866 3.91337 140.132 3.65546C140.399 3.39754 140.753 3.25376 141.12 3.25376C141.488 3.25376 141.841 3.39754 142.108 3.65546C142.374 3.91337 142.534 4.26574 142.553 4.63993C142.536 5.01341 142.463 5.38201 142.336 5.73309C142.313 5.79299 142.267 5.84132 142.21 5.86809C142.152 5.89486 142.087 5.89803 142.027 5.87695C141.967 5.85587 141.917 5.81215 141.888 5.75481C141.859 5.69748 141.852 5.63091 141.87 5.56887C141.978 5.2704 142.041 4.95737 142.059 4.63993C142.043 4.39681 141.938 4.16881 141.763 4.00222C141.589 3.83562 141.359 3.74291 141.12 3.74291C140.881 3.74291 140.651 3.83562 140.477 4.00222C140.302 4.16881 140.197 4.39681 140.181 4.63993C140.203 4.98905 140.277 5.33268 140.402 5.65854C140.413 5.68949 140.418 5.72243 140.417 5.75546C140.416 5.7885 140.408 5.82098 140.395 5.85103C140.381 5.88109 140.362 5.90813 140.338 5.93059C140.315 5.95306 140.287 5.97052 140.256 5.98195C140.228 5.99358 140.199 5.99973 140.168 6.00009Z" fill="url(#paint14_linear_1_2)"/>
<path d="M142.497 6.00006H139.743C139.237 6.00006 138.753 6.17056 138.395 6.47408C138.038 6.77759 137.836 6.92545 137.568 7.58219L137.239 9.01846C137.239 9.0545 137.249 9.09006 137.267 9.12247C137.286 9.15488 137.313 9.1833 137.346 9.20559C137.38 9.22788 137.418 9.24346 137.46 9.25116C137.501 9.25886 137.544 9.25849 137.586 9.25005C137.921 9.18193 138.218 9.07708 138.426 8.84405C138.439 8.8302 138.455 8.81897 138.473 8.81125C138.492 8.80353 138.512 8.79952 138.533 8.79952C138.553 8.79952 138.574 8.80353 138.592 8.81125C138.611 8.81897 138.627 8.8302 138.639 8.84405C138.778 8.99872 138.957 9.1839 139.162 9.27049C139.367 9.35709 139.593 9.46216 139.821 9.46282C140.05 9.46347 140.276 9.47909 140.482 9.39367C140.688 9.30825 140.868 9.18379 141.008 9.02991C141.021 9.0152 141.038 9.00327 141.057 8.99506C141.077 8.98685 141.098 8.98258 141.12 8.98258C141.142 8.98258 141.163 8.98685 141.183 8.99506C141.202 9.00327 141.219 9.0152 141.232 9.02991C141.372 9.18379 141.552 9.30825 141.758 9.39367C141.963 9.47909 142.19 9.46347 142.418 9.46282C142.647 9.46216 142.873 9.41679 143.078 9.27049C143.283 9.1839 143.462 8.99872 143.601 8.84405C143.613 8.8302 143.629 8.81897 143.648 8.81125C143.666 8.80353 143.687 8.79952 143.707 8.79952C143.728 8.79952 143.748 8.80353 143.766 8.81125C143.785 8.81897 143.801 8.8302 143.814 8.84405C144.022 9.07708 144.319 9.18193 144.654 9.25005C144.696 9.25849 144.739 9.25886 144.78 9.25116C144.821 9.24346 144.86 9.22788 144.894 9.20559C144.927 9.1833 144.954 9.15488 144.972 9.12247C144.991 9.09006 145.001 9.0545 145.001 9.01846L144.672 7.61204C144.433 6.92545 144.202 6.77759 143.845 6.47408C143.487 6.17056 143.003 6.00006 142.497 6.00006Z" fill="#DD4242"/>
<path d="M142.497 5.82098H139.743C139.237 5.82098 138.753 5.99147 138.395 6.29499C138.038 6.59851 137.836 6.74637 137.568 7.4031L137.239 8.83938C137.239 8.87541 137.249 8.91097 137.267 8.94338C137.286 8.97579 137.313 9.00422 137.346 9.02651C137.38 9.0488 137.418 9.06438 137.46 9.07208C137.501 9.07978 137.544 9.0794 137.586 9.07097C137.921 9.00284 138.218 8.83829 138.426 8.60526C138.439 8.59141 138.455 8.58019 138.473 8.57247C138.492 8.56475 138.512 8.56073 138.533 8.56073C138.553 8.56073 138.574 8.56475 138.592 8.57247C138.611 8.58019 138.627 8.59141 138.639 8.60526C138.778 8.75993 138.957 8.88541 139.162 8.972C139.367 9.0586 139.593 9.10397 139.821 9.10462C140.05 9.10528 140.276 9.06119 140.482 8.97578C140.688 8.89036 140.868 8.76589 141.008 8.61202C141.021 8.5973 141.038 8.58538 141.057 8.57717C141.077 8.56895 141.098 8.56468 141.12 8.56468C141.142 8.56468 141.163 8.56895 141.183 8.57717C141.202 8.58538 141.219 8.5973 141.232 8.61202C141.372 8.76589 141.552 8.89036 141.758 8.97578C141.963 9.06119 142.19 9.10528 142.418 9.10462C142.647 9.10397 142.873 9.0586 143.078 8.972C143.283 8.88541 143.462 8.75993 143.601 8.60526C143.613 8.59141 143.629 8.58019 143.648 8.57247C143.666 8.56475 143.687 8.56073 143.707 8.56073C143.728 8.56073 143.748 8.56475 143.766 8.57247C143.785 8.58019 143.801 8.59141 143.814 8.60526C144.022 8.83829 144.319 9.00284 144.654 9.07097C144.696 9.0794 144.739 9.07978 144.78 9.07208C144.821 9.06438 144.86 9.0488 144.894 9.02651C144.927 9.00422 144.954 8.97579 144.972 8.94338C144.991 8.91097 145.001 8.87541 145.001 8.83938L144.672 7.43295C144.433 6.74637 144.202 6.59851 143.845 6.29499C143.487 5.99147 143.003 5.82098 142.497 5.82098Z" fill="url(#paint15_radial_1_2)"/>
<path d="M142.557 5.52246H139.683C139.178 5.52246 138.592 5.82098 138.335 5.99648C137.978 6.29999 137.777 6.59711 137.657 7.14103L137.299 8.4479C137.299 8.48393 137.249 8.61246 137.267 8.64487C137.286 8.67728 137.313 8.7057 137.346 8.72799C137.38 8.75028 137.418 8.76586 137.46 8.77356C137.501 8.78126 137.544 8.78089 137.586 8.77245C137.921 8.70433 138.218 8.53978 138.426 8.30674C138.439 8.29289 138.455 8.28167 138.473 8.27395C138.492 8.26623 138.512 8.26221 138.533 8.26221C138.553 8.26221 138.574 8.26623 138.592 8.27395C138.611 8.28167 138.627 8.29289 138.639 8.30674C138.778 8.46141 138.957 8.5869 139.162 8.67349C139.367 8.76008 139.592 8.80546 139.821 8.80611C140.05 8.80676 140.276 8.76268 140.482 8.67726C140.688 8.59184 140.868 8.46738 141.007 8.3135C141.021 8.29879 141.038 8.28686 141.057 8.27865C141.077 8.27044 141.098 8.26617 141.12 8.26617C141.142 8.26617 141.163 8.27044 141.183 8.27865C141.202 8.28686 141.219 8.29879 141.232 8.3135C141.372 8.46738 141.552 8.59184 141.758 8.67726C141.963 8.76268 142.19 8.80676 142.418 8.80611C142.647 8.80546 142.873 8.76008 143.078 8.67349C143.283 8.5869 143.462 8.46141 143.601 8.30674C143.613 8.29289 143.629 8.28167 143.648 8.27395C143.666 8.26623 143.686 8.26221 143.707 8.26221C143.728 8.26221 143.748 8.26623 143.766 8.27395C143.785 8.28167 143.801 8.29289 143.814 8.30674C144.022 8.53978 144.319 8.70433 144.654 8.77245C144.696 8.78089 144.739 8.78126 144.78 8.77356C144.821 8.76586 144.86 8.75028 144.894 8.72799C144.927 8.7057 144.954 8.67728 144.972 8.64487C144.991 8.61246 144.941 8.48393 144.941 8.4479L144.583 7.16429C144.344 6.53741 144.262 6.29999 143.905 5.99648C143.547 5.69296 143.062 5.52246 142.557 5.52246Z" fill="url(#paint16_radial_1_2)"/>
<path d="M142.497 5.82098H139.743C139.237 5.82098 138.753 5.98217 138.395 6.26914C138.038 6.5561 137.836 6.77622 137.586 7.35126L137.239 8.67474C137.239 8.70881 137.249 8.74243 137.267 8.77307C137.286 8.80371 137.313 8.83058 137.346 8.85166C137.38 8.87273 137.418 8.88746 137.46 8.89475C137.501 8.90203 137.544 8.90167 137.586 8.8937C137.921 8.82928 138.218 8.67371 138.426 8.45339C138.439 8.44029 138.455 8.42968 138.473 8.42238C138.492 8.41509 138.512 8.41129 138.533 8.41129C138.553 8.41129 138.574 8.41509 138.592 8.42238C138.611 8.42968 138.627 8.44029 138.639 8.45339C138.778 8.59962 138.957 8.71826 139.162 8.80013C139.367 8.882 139.593 8.9249 139.821 8.92552C140.05 8.92613 140.276 8.88445 140.482 8.8037C140.688 8.72294 140.868 8.60526 141.008 8.45978C141.021 8.44587 141.038 8.43459 141.057 8.42683C141.077 8.41906 141.098 8.41502 141.12 8.41502C141.142 8.41502 141.163 8.41906 141.183 8.42683C141.202 8.43459 141.219 8.44587 141.232 8.45978C141.372 8.60526 141.552 8.72294 141.758 8.8037C141.963 8.88445 142.19 8.92613 142.418 8.92552C142.647 8.9249 142.873 8.882 143.078 8.80013C143.283 8.71826 143.462 8.59962 143.601 8.45339C143.613 8.44029 143.629 8.42968 143.648 8.42238C143.666 8.41509 143.687 8.41129 143.707 8.41129C143.728 8.41129 143.748 8.41509 143.766 8.42238C143.785 8.42968 143.801 8.44029 143.814 8.45339C144.022 8.67371 144.319 8.82928 144.654 8.8937C144.696 8.90167 144.739 8.90203 144.78 8.89475C144.821 8.88746 144.86 8.87273 144.894 8.85166C144.927 8.83058 144.954 8.80371 144.972 8.77307C144.991 8.74243 145.001 8.70881 145.001 8.67474L144.654 7.35126C144.463 6.86578 144.202 6.5561 143.845 6.26914C143.487 5.98217 143.003 5.82098 142.497 5.82098Z" fill="url(#paint17_radial_1_2)"/>
<ellipse cx="142.554" cy="7.11853" rx="1.71717" ry="1.4395" transform="rotate(-165 142.554 7.11853)" fill="url(#paint18_radial_1_2)"/>
<path d="M142.497 5.82098H139.743C139.237 5.82098 138.753 5.98217 138.395 6.26914C138.038 6.5561 137.836 6.77622 137.586 7.35126L137.239 8.67474C137.239 8.70881 137.249 8.74243 137.267 8.77307C137.286 8.80371 137.313 8.83058 137.346 8.85166C137.38 8.87273 137.418 8.88746 137.46 8.89475C137.501 8.90203 137.544 8.90167 137.586 8.8937C137.921 8.82928 138.218 8.67371 138.426 8.45339C138.439 8.44029 138.455 8.42968 138.473 8.42238C138.492 8.41509 138.512 8.41129 138.533 8.41129C138.553 8.41129 138.574 8.41509 138.592 8.42238C138.611 8.42968 138.627 8.44029 138.639 8.45339C138.778 8.59962 138.957 8.71826 139.162 8.80013C139.367 8.882 139.593 8.9249 139.821 8.92552C140.05 8.92613 140.276 8.88445 140.482 8.8037C140.688 8.72294 140.868 8.60526 141.008 8.45978C141.021 8.44587 141.038 8.43459 141.057 8.42683C141.077 8.41906 141.098 8.41502 141.12 8.41502C141.142 8.41502 141.163 8.41906 141.183 8.42683C141.202 8.43459 141.219 8.44587 141.232 8.45978C141.372 8.60526 141.552 8.72294 141.758 8.8037C141.963 8.88445 142.19 8.92613 142.418 8.92552C142.647 8.9249 142.873 8.882 143.078 8.80013C143.283 8.71826 143.462 8.59962 143.601 8.45339C143.613 8.44029 143.629 8.42968 143.648 8.42238C143.666 8.41509 143.687 8.41129 143.707 8.41129C143.728 8.41129 143.748 8.41509 143.766 8.42238C143.785 8.42968 143.801 8.44029 143.814 8.45339C144.022 8.67371 144.319 8.82928 144.654 8.8937C144.696 8.90167 144.739 8.90203 144.78 8.89475C144.821 8.88746 144.86 8.87273 144.894 8.85166C144.927 8.83058 144.954 8.80371 144.972 8.77307C144.991 8.74243 145.001 8.70881 145.001 8.67474L144.654 7.35126C144.463 6.86578 144.202 6.5561 143.845 6.26914C143.487 5.98217 143.003 5.82098 142.497 5.82098Z" fill="url(#paint19_radial_1_2)"/>
<path fill-rule="evenodd" clip-rule="evenodd" d="M141.937 5.44501C141.966 5.29814 141.987 5.14962 141.998 5.00035L142.553 4.86574C142.548 5.03459 142.532 5.20295 142.506 5.36986L141.937 5.44501Z" fill="url(#paint20_linear_1_2)"/>
<path fill-rule="evenodd" clip-rule="evenodd" d="M141.99 5.06059C142.007 4.87506 142.01 4.68816 141.999 4.50161L142.514 4.26991C142.523 4.30507 142.53 4.34063 142.537 4.37653C142.551 4.54076 142.555 4.70542 142.55 4.86962L141.99 5.06059Z" fill="url(#paint21_linear_1_2)"/>
<defs>
<filter id="filter0_f_1_2" x="136.602" y="7.28247" width="8.82647" height="2.57916" filterUnits="userSpaceOnUse" color-interpolation-filters="sRGB">
<feFlood flood-opacity="0" result="BackgroundImageFix"/>
<feBlend mode="normal" in="SourceGraphic" in2="BackgroundImageFix" result="shape"/>
<feGaussianBlur stdDeviation="0.286574" result="effect1_foregroundBlur_1_2"/>
</filter>
<linearGradient id="paint0_linear_1_2" x1="117" y1="19.9777" x2="141.015" y2="68.0074" gradientUnits="userSpaceOnUse">
<stop stop-color="#FF3E3A"/>
<stop offset="1" stop-color="#F91F2B"/>
</linearGradient>
<radialGradient id="paint1_radial_1_2" cx="0" cy="0" r="1" gradientUnits="userSpaceOnUse" gradientTransform="translate(145.665 27.4189) rotate(99.2423) scale(28.957)">
<stop stop-color="#FF3E3A"/>
<stop offset="1" stop-color="#F91F2B"/>
</radialGradient>
<radialGradient id="paint2_radial_1_2" cx="0" cy="0" r="1" gradientUnits="userSpaceOnUse" gradientTransform="translate(131.882 18.7939) rotate(60.5646) scale(27.1861)">
<stop stop-color="#FF783F"/>
<stop offset="1" stop-color="white" stop-opacity="0"/>
</radialGradient>
<radialGradient id="paint3_radial_1_2" cx="0" cy="0" r="1" gradientUnits="userSpaceOnUse" gradientTransform="translate(165.029 23.8674) rotate(123.521) scale(15.9244 19.1671)">
<stop stop-color="white"/>
<stop offset="1" stop-color="white" stop-opacity="0"/>
</radialGradient>
<radialGradient id="paint4_radial_1_2" cx="0" cy="0" r="1" gradientUnits="userSpaceOnUse" gradientTransform="translate(142.537 28.6028) rotate(106.479) scale(27.4245 26.3688)">
<stop offset="0.619792" stop-color="white" stop-opacity="0"/>
<stop offset="0.796875" stop-color="white" stop-opacity="0"/>
<stop offset="1" stop-color="white"/>
</radialGradient>
<radialGradient id="paint5_radial_1_2" cx="0" cy="0" r="1" gradientUnits="userSpaceOnUse" gradientTransform="translate(158.045 79.9139) rotate(90) scale(26.2668 28.8961)">
<stop stop-color="#FFC700"/>
<stop offset="1" stop-color="#FFD600" stop-opacity="0"/>
</radialGradient>
<radialGradient id="paint6_radial_1_2" cx="0" cy="0" r="1" gradientUnits="userSpaceOnUse" gradientTransform="translate(125.54 46.4448) rotate(90) scale(18.8567 19.3268)">
<stop stop-color="white"/>
<stop offset="1" stop-color="white" stop-opacity="0"/>
</radialGradient>
<radialGradient id="paint7_radial_1_2" cx="0" cy="0" r="1" gradientUnits="userSpaceOnUse" gradientTransform="translate(151.572 14.0419) rotate(-172.589) scale(13.3808 8.19973)">
<stop stop-color="white" stop-opacity="0.62"/>
<stop offset="0.738652" stop-color="white" stop-opacity="0.12"/>
<stop offset="1" stop-color="white" stop-opacity="0"/>
</radialGradient>
<linearGradient id="paint8_linear_1_2" x1="149.581" y1="1.6438" x2="139.813" y2="8.10177" gradientUnits="userSpaceOnUse">
<stop stop-color="#132A52"/>
<stop offset="0.72038" stop-color="#1965C8"/>
<stop offset="1" stop-color="#235FAD"/>
</linearGradient>
<linearGradient id="paint9_linear_1_2" x1="151.114" y1="6.75568" x2="173.765" y2="5.33023" gradientUnits="userSpaceOnUse">
<stop stop-color="#132A52"/>
<stop offset="0.72038" stop-color="#1965C8"/>
<stop offset="1" stop-color="#235FAD"/>
</linearGradient>
<linearGradient id="paint10_linear_1_2" x1="149.909" y1="3.62697" x2="149.304" y2="6.76624" gradientUnits="userSpaceOnUse">
<stop stop-color="#132A52"/>
<stop offset="0.667911" stop-color="#1965C8"/>
<stop offset="1" stop-color="#18519C"/>
</linearGradient>
<linearGradient id="paint11_linear_1_2" x1="153.92" y1="10.577" x2="179.958" y2="9.03437" gradientUnits="userSpaceOnUse">
<stop stop-color="#CF9A12"/>
<stop offset="0.738535" stop-color="#FFD617"/>
<stop offset="1" stop-color="#FED409"/>
</linearGradient>
<linearGradient id="paint12_linear_1_2" x1="152.159" y1="4.51794" x2="152.21" y2="9.0285" gradientUnits="userSpaceOnUse">
<stop stop-color="#B2840C"/>
<stop offset="0.606364" stop-color="#FFD017"/>
<stop offset="1" stop-color="#F8C309"/>
</linearGradient>
<linearGradient id="paint13_linear_1_2" x1="151.118" y1="3.23236" x2="140.538" y2="6.84944" gradientUnits="userSpaceOnUse">
<stop stop-color="#BD9F2F"/>
<stop offset="1" stop-color="#FED409"/>
</linearGradient>
<linearGradient id="paint14_linear_1_2" x1="140.523" y1="7.88073" x2="143.566" y2="2.22381" gradientUnits="userSpaceOnUse">
<stop offset="0.172351" stop-color="#79756D"/>
<stop offset="1" stop-color="#E6E8EA"/>
</linearGradient>
<radialGradient id="paint15_radial_1_2" cx="0" cy="0" r="1" gradientUnits="userSpaceOnUse" gradientTransform="translate(141.807 4.1493) rotate(96.4641) scale(6.09861 8.85902)">
<stop stop-color="white"/>
<stop offset="1" stop-color="#887D6B"/>
</radialGradient>
<radialGradient id="paint16_radial_1_2" cx="0" cy="0" r="1" gradientUnits="userSpaceOnUse" gradientTransform="translate(142.404 5.52246) rotate(77.9544) scale(7.29511 8.8791)">
<stop stop-color="#F2F1F1"/>
<stop offset="1" stop-color="#A7A099"/>
</radialGradient>
<radialGradient id="paint17_radial_1_2" cx="0" cy="0" r="1" gradientUnits="userSpaceOnUse" gradientTransform="translate(141.12 4.7601) rotate(137.39) scale(8.76102 10.9655)">
<stop stop-color="white"/>
<stop offset="0.695819" stop-color="#9B928A"/>
</radialGradient>
<radialGradient id="paint18_radial_1_2" cx="0" cy="0" r="1" gradientUnits="userSpaceOnUse" gradientTransform="translate(142.413 7.2376) rotate(-172.589) scale(1.33638 0.818929)">
<stop stop-color="white" stop-opacity="0.62"/>
<stop offset="0.738652" stop-color="white" stop-opacity="0.12"/>
<stop offset="1" stop-color="white" stop-opacity="0"/>
</radialGradient>
<radialGradient id="paint19_radial_1_2" cx="0" cy="0" r="1" gradientUnits="userSpaceOnUse" gradientTransform="translate(142.553 4.80603) rotate(132.138) scale(8.4538 7.56628)">
<stop stop-color="white" stop-opacity="0.67"/>
<stop offset="0.438603" stop-color="white" stop-opacity="0"/>
</radialGradient>
<linearGradient id="paint20_linear_1_2" x1="142.559" y1="5.0296" x2="141.905" y2="5.42225" gradientUnits="userSpaceOnUse">
<stop stop-color="#BD9F2F"/>
<stop offset="1" stop-color="#FED409"/>
</linearGradient>
<linearGradient id="paint21_linear_1_2" x1="142.626" y1="4.5493" x2="141.839" y2="4.73246" gradientUnits="userSpaceOnUse">
<stop stop-color="#15386D"/>
<stop offset="0.605806" stop-color="#0E5ECA"/>
<stop offset="1" stop-color="#0A59C1"/>
</linearGradient>
</defs>
</svg>
