<svg width="61" height="60" fill="none" xmlns="http://www.w3.org/2000/svg"><path fill-rule="evenodd" clip-rule="evenodd" d="M30.554 0C47.3 0 61 13.465 61 29.946 60.891 46.535 47.3 60 30.554 60 13.7 59.892 0 46.535 0 29.946 0 13.465 13.7 0 30.554 0Z" fill="#F91F2B"/><path fill-rule="evenodd" clip-rule="evenodd" d="M53.301 19.559h.324c0 .77-.432 1.431-1.08 1.871-.755.441-1.726.661-2.59.661h-1.078c-3.885-.22-4.748 3.964-4.317 7.047a10.766 10.766 0 0 0 2.158 5.396c.972 1.101 2.482 1.762 3.777.66 1.08-.881 1.403-2.973 1.403-4.184 0-2.092-.755-5.395-3.345-5.395-.863 0-1.619.44-2.05 1.1a6.07 6.07 0 0 0-.648 2.754h-.432c-.323-2.533.864-4.625 3.561-4.735 3.13 0 5.072 2.532 5.072 5.726 0 3.193-1.942 6.166-5.18 6.166-1.51.11-3.02-.662-3.992-1.872-.971-1.211-1.403-3.194-1.403-5.726 0-3.193.432-5.065 1.403-6.606.971-1.432 2.482-2.313 4.208-2.203h1.511c.648.11 1.403 0 2.05-.11.324 0 .54-.22.648-.55Zm-22.122 5.395 3.885 8.699 3.561-7.928.324-.66h2.913v.44h-.323c-.432 0-.756.44-.756.88v9.14c0 .44.324.88.756.88h.323v.331H37.87v-.33h.323c.432 0 .756-.44.756-.881v-8.479l-4.317 9.69h-.215l-4.21-9.91v8.589c0 .44.325.88.756.88h.324v.33h-2.914v-.33h.216c.432 0 .756-.44.756-.88v-9.14c0-.44-.324-.88-.756-.88h-.216a1.77 1.77 0 0 0-1.402 1.21l-4.101 9.03c-.216.66-.863.99-1.51.99h-.972l-.216-1.21c.216.22.54.44.863.55.324.22.756.11.972-.33v-.11l.54-1.101-3.67-7.708c-.431-.771-.755-1.211-1.295-1.322v-.44h3.67v.44h-.325c-.323 0-.431.44-.215.881l2.805 5.946 2.59-5.725c.324-.551.108-.991-.431-1.102v-.44h5.503Zm-16.726.77v9.581c0 .44-.324.88-.756.88h-.323v.33h3.992v-.33h-.323c-.432 0-.756-.44-.756-.88v-9.14c0-.44.324-.88.756-.88h.323v-.441H6.36v.44h.324c.432 0 .755.44.755.881v9.14c0 .44-.323.88-.755.88H6.36v.33h3.993v-.33h-.324c-.431 0-.755-.44-.755-.88v-9.58h5.18Z" fill="#fff"/></svg>