<svg width="94" height="52" viewBox="0 0 94 52" fill="none" xmlns="http://www.w3.org/2000/svg">
<path d="M78.5626 31.0368C75.9145 31.0368 73.3484 30.0988 71.5008 28.447C69.3864 26.5506 68.2573 23.8588 68.2573 20.6368C68.2573 17.4149 68.8732 14.927 70.1665 12.9082C71.5624 10.7466 73.759 9.07449 77.064 7.60626C77.5567 7.36155 77.9468 7.17802 78.2958 6.99449C79.4043 6.4643 79.9175 6.21959 80.8002 5.46508C81.2724 5.05724 81.7856 4.40469 82.0525 3.93567L86.6509 6.72939C85.6039 9.42116 82.9557 10.4816 80.4102 11.4808C78.0084 12.4392 75.7297 13.3365 74.8264 15.5184L74.9701 15.6204C76.325 14.458 78.0699 13.887 79.8765 13.887C82.1141 13.887 84.2901 14.8047 85.8502 16.4157C87.3283 17.9247 88.0878 19.9435 88.0263 22.0643C87.9236 28.2431 83.0584 31.0368 78.5626 31.0368ZM78.1726 18.1082C77.064 18.1082 76.0171 18.4957 75.237 19.1686C74.4775 19.7804 74.0258 20.7796 74.0053 21.8808C73.9848 23.0431 74.4569 24.1647 75.2575 24.8376C76.0376 25.5717 77.1051 25.9796 78.2752 25.9796C79.5275 25.9796 80.6976 25.5106 81.4982 24.7153C82.1962 24.0016 82.5452 23.1043 82.5246 22.0847C82.5452 21.0651 82.1962 20.1474 81.4982 19.4337C80.6771 18.5976 79.4454 18.1082 78.1726 18.1082Z" fill="#C51522"/>
<path d="M18.8451 30.1396V16.436H12.0707V30.1396H6.56909V11.3584H24.3262V30.1396H18.8451Z" fill="#C51522"/>
<path d="M61.0928 30.1396V20.0251L56.3302 26.938L51.547 20.0251V30.1396H46.2917V11.3584H51.6086L56.3097 18.6588L61.0312 11.3584H66.3481V30.1396H61.0928Z" fill="#C51522"/>
<path d="M28.8014 30.4862C31.5522 30.4659 33.0713 29.691 33.564 27.8353L33.5845 27.7945L25.3115 11.3584H31.1621L36.2122 21.3098L36.3969 20.8612L39.3735 11.338H45.2242L39.3325 27.5498C38.2855 30.5066 37.0333 32.5051 35.35 33.8306C33.6666 35.1561 31.5317 35.8086 28.8014 35.829V30.4862Z" fill="#C51522"/>
<path d="M43.2123 46.2698C42.0012 46.2698 41.0158 45.8823 40.2562 45.1074C39.5172 44.3325 39.1477 43.3333 39.1477 42.1302C39.1477 40.8251 39.353 39.8055 39.743 39.0917C40.1331 38.378 40.9132 37.7255 42.1243 37.1341C42.1654 37.1137 42.2065 37.0729 42.2886 37.0321C42.3912 36.9914 42.4733 36.9506 42.576 36.9098C42.6786 36.869 42.7813 36.8282 42.8634 36.7874L43.5203 36.4612C43.6845 36.3796 43.8487 36.298 44.013 36.1757C44.2798 36.0125 44.4646 35.8698 44.5878 35.7067C44.7109 35.5435 44.8546 35.2988 44.9983 34.9725L46.6406 35.9106C46.4969 36.5427 46.2095 37.0321 45.7168 37.3788C45.2241 37.7255 44.5262 38.0721 43.6024 38.4188C42.966 38.6635 42.4939 38.9082 42.1859 39.1733C41.878 39.4384 41.6522 39.7443 41.529 40.1114C42.1038 39.52 42.8634 39.2345 43.8487 39.2345C44.7109 39.2345 45.491 39.5404 46.1479 40.1725C46.8254 40.7843 47.1538 41.6 47.1538 42.64C47.1538 43.7004 46.7843 44.5568 46.0658 45.2502C45.3063 45.9435 44.3619 46.2698 43.2123 46.2698ZM43.1713 40.8455C42.6581 40.8455 42.2065 41.0086 41.8164 41.3145C41.4264 41.6408 41.2211 42.069 41.2211 42.5992C41.2211 43.1498 41.4058 43.5984 41.7754 43.9451C42.1654 44.2918 42.6375 44.4753 43.1918 44.4753C43.7666 44.4753 44.2182 44.3121 44.5672 43.9655C44.9367 43.6188 45.101 43.1906 45.101 42.6808C45.101 42.1506 44.9162 41.7223 44.5672 41.3961C44.1977 41.0086 43.7461 40.8455 43.1713 40.8455Z" fill="#C51522"/>
<path d="M49.6174 37.44C49.289 37.44 49.0016 37.3176 48.7552 37.0933C48.5089 36.8486 48.4062 36.5631 48.4062 36.2368C48.4062 35.9106 48.5294 35.6251 48.7552 35.3804C49.0016 35.1357 49.289 35.0133 49.6174 35.0133C49.9664 35.0133 50.2538 35.1357 50.4796 35.3804C50.726 35.6251 50.8491 35.9106 50.8491 36.2368C50.8491 36.5631 50.726 36.8486 50.4796 37.0933C50.2538 37.3176 49.9664 37.44 49.6174 37.44ZM50.6439 46.0659H48.6526V38.3576H50.6439V46.0659Z" fill="#C51522"/>
<path d="M57.1512 42.1302C57.9313 42.5176 58.3213 43.1294 58.3213 43.9655C58.3213 44.6384 58.0339 45.189 57.4797 45.6376C56.9254 46.0659 56.1658 46.2902 55.1805 46.2902C53.5998 46.2902 52.5323 45.6784 51.978 44.4345L53.5998 43.476C53.8461 44.1694 54.3799 44.516 55.201 44.516C55.5705 44.516 55.8579 44.4345 56.0632 44.2917C56.2685 44.149 56.3711 43.9451 56.3711 43.7004C56.3711 43.2313 56.0632 42.9866 55.4473 42.9866H54.3388V41.2941H55.1805C55.7758 41.2941 56.0837 41.0494 56.0837 40.5804C56.0837 40.356 56.0016 40.1725 55.8169 40.0502C55.6321 39.9074 55.4063 39.8462 55.1189 39.8462C54.462 39.8462 53.9693 40.1725 53.6819 40.8251L52.0601 39.9074C52.6555 38.7247 53.6614 38.1333 55.0778 38.1333C55.9606 38.1333 56.6791 38.3576 57.1923 38.8062C57.726 39.2549 57.9929 39.8055 57.9929 40.4172C58.0134 41.1921 57.726 41.7631 57.1512 42.1302Z" fill="#C51522"/>
<path d="M65.1985 41.2737V38.3577H67.1897V46.0659H65.1985V43.1498H62.1192V46.0659H60.1279V38.3577H62.1192V41.2737H65.1985Z" fill="#C51522"/>
<path d="M76.756 43.0274H70.9054C71.1723 43.9859 71.8908 44.4753 73.0814 44.4753C73.841 44.4753 74.4158 44.2102 74.8264 43.7004L76.4481 44.618C75.6886 45.7192 74.5595 46.2698 73.0609 46.2698C71.7882 46.2698 70.7617 45.8823 69.9816 45.1074C69.2016 44.3325 68.8115 43.3741 68.8115 42.1913C68.8115 41.0494 69.2016 40.0706 69.9611 39.2957C70.7207 38.5208 71.706 38.1333 72.8967 38.1333C74.0463 38.1333 74.9701 38.5208 75.7091 39.2957C76.4481 40.0706 76.8176 41.0494 76.8176 42.1913C76.8382 42.4157 76.8176 42.7011 76.756 43.0274ZM70.8849 41.4776H74.8469C74.7237 40.9678 74.4979 40.5804 74.1489 40.3153C73.7999 40.0502 73.4099 39.9074 72.9172 39.9074C72.3835 39.9074 71.9319 40.0502 71.5829 40.3153C71.2339 40.6211 71.0081 40.9882 70.8849 41.4776Z" fill="#C51522"/>
<path d="M82.3808 46.2698C81.2107 46.2698 80.2459 45.8823 79.4453 45.1074C78.6652 44.3325 78.2751 43.3537 78.2751 42.2117C78.2751 41.0698 78.6652 40.0909 79.4453 39.316C80.2254 38.5411 81.2107 38.1537 82.3808 38.1537C83.1404 38.1537 83.8178 38.3372 84.4337 38.6839C85.0496 39.0509 85.5217 39.52 85.8502 40.1317L84.1258 41.1309C83.9615 40.8047 83.7357 40.56 83.4073 40.3764C83.0993 40.1929 82.7504 40.0909 82.3603 40.0909C81.765 40.0909 81.2723 40.2949 80.8823 40.6823C80.4922 41.0698 80.2869 41.5796 80.2869 42.1913C80.2869 42.7827 80.4922 43.2925 80.8823 43.7004C81.2723 44.0878 81.765 44.2917 82.3603 44.2917C82.7709 44.2917 83.1199 44.2102 83.4278 44.0266C83.7563 43.8431 83.9821 43.5984 84.1463 43.2721L85.8912 44.2509C85.5422 44.8627 85.0701 45.3521 84.4337 45.7192C83.8178 46.0862 83.1199 46.2698 82.3808 46.2698Z" fill="#C51522"/>
</svg>
