<svg width="121" height="26" viewBox="0 0 121 26" fill="none" xmlns="http://www.w3.org/2000/svg">
<g clip-path="url(#clip0_11199_9398)">
<path d="M13.7866 3.53352V1.67126C13.7866 0.740129 13.0394 0 12.1287 0C11.218 0 10.4942 0.764004 10.4942 1.67126V3.50964C5.17017 4.3214 1.06042 9.00092 1.06042 14.6593C1.06042 20.8668 6.0108 25.9284 12.082 25.9284C18.1532 25.9284 23.1036 20.8668 23.1036 14.6593C23.0803 9.04867 19.0406 4.39302 13.7866 3.53352ZM12.082 23.8751C7.10829 23.8751 3.0686 19.7447 3.0686 14.6593C3.0686 10.1469 6.26766 6.37466 10.4942 5.61065V7.61616C10.4942 8.16529 10.751 8.66667 11.148 8.97704V10.6722H7.43521C7.01489 10.6722 6.61793 10.8871 6.38442 11.2691C6.17426 11.6511 6.15091 12.1047 6.36107 12.4867L11.0546 21.6309C11.2647 22.0367 11.6851 22.2994 12.1287 22.2994C12.5957 22.2994 12.9927 22.0367 13.2029 21.6309L17.8964 12.4867C18.0832 12.1047 18.0832 11.6272 17.8497 11.2691C17.6395 10.9109 17.2426 10.6722 16.8222 10.6722H13.1095V8.97704C13.5298 8.66667 13.7866 8.16529 13.7866 7.61616V5.61065C17.9431 6.44628 21.0721 10.1947 21.0721 14.6593C21.0721 19.7447 17.0324 23.8751 12.082 23.8751ZM79.0056 19.9357H75.3862V15.4711H78.4685V11.5556H75.3862V7.71166H78.6553V3.60514H70.4591V24.0422H79.0056V19.9357ZM41.7376 7.68779H43.2788V24.0184H48.1824V3.60514H36.8339V24.0184H41.7376V7.68779ZM35.1994 19.9596H31.5566V15.4711H34.6623V11.5556H31.5566V7.66391H34.8958V3.60514H26.5829V24.0184H35.1994V19.9596ZM85.5438 15.4949H87.0616V24.0422H91.9886V3.62902H87.0616V10.9587H85.5438V3.62902H80.6401V24.0422H85.5438V15.4949ZM96.5187 24.0422H101.422V7.71166H104.365V3.62902H93.5998V7.71166H96.5187V24.0422ZM54.7207 3.60514H49.817V24.0184H54.7207V3.60514ZM68.8479 19.9357H67.7971V3.60514H62.8468V19.9357H61.3056V3.60514H56.3552V23.9945H65.4154V26H68.8479V19.9357ZM116.414 6.49403C116.297 5.87328 116.04 5.3719 115.69 4.94215C115.316 4.5124 114.779 4.17814 114.055 3.96327C113.331 3.72452 112.304 3.62902 110.973 3.62902H105.999V24.0422H110.903V15.8053H112.234C113.308 15.8053 114.195 15.6382 114.849 15.3278C115.526 15.0174 115.97 14.5399 116.227 13.9431C116.484 13.3462 116.6 12.3912 116.6 11.1019V9.31129C116.6 8.04591 116.53 7.09091 116.414 6.49403ZM111.393 11.9137C109.969 11.9137 108.801 10.7199 108.801 9.26354C108.801 7.80716 109.969 6.61341 111.393 6.61341C112.818 6.61341 113.985 7.80716 113.985 9.26354C113.985 10.7438 112.818 11.9137 111.393 11.9137Z" fill="#1060C1"/>
<path d="M111.393 7.25803C110.296 7.25803 109.408 8.16528 109.408 9.26354C109.408 10.3857 110.296 11.269 111.393 11.269C112.491 11.269 113.378 10.3618 113.378 9.26354C113.355 8.16528 112.467 7.25803 111.393 7.25803ZM111.743 10.6005L111.183 9.50229V10.6005H110.366V7.97428H111.183V9.09641L111.72 7.97428H112.677L111.977 9.28741L112.771 10.6244L111.743 10.6005Z" fill="#1060C1"/>
<path d="M119.729 5.84939L119.472 5.41964C119.426 5.34801 119.379 5.27639 119.309 5.22864C119.379 5.20476 119.449 5.15701 119.496 5.10926C119.589 5.01376 119.613 4.89438 119.613 4.77501C119.613 4.67951 119.589 4.58401 119.543 4.48851C119.496 4.39301 119.426 4.34526 119.332 4.29751C119.239 4.27363 119.146 4.24976 118.982 4.24976H118.212V5.99264H118.609V5.30026H118.842C118.865 5.30026 118.889 5.32414 118.912 5.32414C118.935 5.32414 118.959 5.34801 118.982 5.39576C119.029 5.44351 119.076 5.51514 119.122 5.61064L119.332 5.92101L119.356 5.96876H119.823L119.729 5.84939ZM119.216 4.87051C119.192 4.89438 119.169 4.91826 119.146 4.91826C119.099 4.94213 119.052 4.94213 118.959 4.94213H118.609V4.60788H119.005C119.099 4.60788 119.169 4.63176 119.192 4.65563C119.216 4.67951 119.239 4.72726 119.239 4.77501C119.239 4.79888 119.216 4.82276 119.216 4.87051Z" fill="#1060C1"/>
<path d="M120.173 5.13314C120.173 5.82552 119.613 6.39852 118.935 6.39852C118.258 6.39852 117.698 5.82552 117.698 5.13314C117.698 4.44076 118.258 3.86776 118.935 3.86776C119.613 3.84388 120.173 4.41689 120.173 5.13314ZM118.935 3.53351C118.071 3.53351 117.371 4.24976 117.371 5.13314C117.371 6.01652 118.071 6.73277 118.935 6.73277C119.799 6.73277 120.5 6.01652 120.5 5.13314C120.5 4.24976 119.776 3.53351 118.935 3.53351Z" fill="#1060C1"/>
</g>
<defs>
<clipPath id="clip0_11199_9398">
<rect width="120" height="26" fill="white" transform="translate(0.5)"/>
</clipPath>
</defs>
</svg>
