<svg width="181" height="62" fill="none" xmlns="http://www.w3.org/2000/svg"><path fill-rule="evenodd" clip-rule="evenodd" d="M150.554.844C167.299.844 181 14.408 181 31.01c-.109 16.712-13.701 30.276-30.446 30.276C133.701 61.18 120 47.723 120 31.011 120 14.408 133.701.844 150.554.844zM0 15.955h9.885c3.806 0 6.934 3.119 6.934 6.914v15.387c0 3.795-3.128 6.884-6.934 6.884H0V15.955zm7.17 23.183a2.333 2.333 0 0 0 2.331-2.324V24.311a2.333 2.333 0 0 0-2.33-2.325v17.152zm11.685-23.183h7.317V45.14h-7.317V15.955zm36.322 0H47.86V45.14h7.317V15.955zm39.775 0V45.14H110v-6.178h-7.553V15.955h-7.495zm-38.24 0v6.473h4.367V45.14h7.73V22.428h4.367v-6.473H56.712zm29.86 0h-9.088L71.583 45.14H78.9l.886-5.354h4.278l.915 5.354h7.495l-5.902-29.185zm-5.99 17.946 1.476-9.65 1.475 9.65h-2.95zM44.998 22.87v2.942h-7.111V23.37c0-.706-.59-1.294-1.299-1.294-.708 0-1.298.588-1.298 1.294v14.946c0 .706.59 1.294 1.298 1.294.708 0 1.298-.588 1.298-1.294V33.96h-1.298v-5.53h8.41v9.826c0 3.795-3.128 6.913-6.934 6.913h-2.951c-3.806 0-6.934-3.118-6.934-6.913V22.869c0-3.795 3.128-6.914 6.934-6.914h2.95c3.807 0 6.935 3.119 6.935 6.914z" fill="#fff"/><path fill-rule="evenodd" clip-rule="evenodd" d="M173.301 20.547h.324c0 .776-.432 1.442-1.079 1.886-.756.443-1.727.665-2.59.665h-1.079c-3.885-.222-4.749 3.993-4.317 7.1a10.891 10.891 0 0 0 2.158 5.434c.972 1.11 2.482 1.775 3.777.666 1.079-.889 1.403-2.995 1.403-4.215 0-2.108-.755-5.435-3.345-5.435-.863 0-1.619.443-2.05 1.109a6.146 6.146 0 0 0-.648 2.773h-.432c-.323-2.551.864-4.659 3.561-4.77 3.13 0 5.072 2.551 5.072 5.768 0 3.217-1.942 6.212-5.179 6.212-1.511.11-3.022-.667-3.993-1.886-.971-1.22-1.403-3.218-1.403-5.768 0-3.216.432-5.102 1.403-6.655.971-1.442 2.482-2.33 4.208-2.219h1.511c.648.111 1.403 0 2.05-.11.324 0 .54-.222.648-.555zm-22.122 5.435 3.885 8.763 3.561-7.987.324-.665h2.913v.444h-.323c-.432 0-.756.443-.756.887v9.207c0 .444.324.887.756.887h.323v.333h-3.992v-.333h.323c.432 0 .756-.443.756-.887V28.09l-4.317 9.761h-.216l-4.208-9.983v8.652c0 .444.324.887.755.887h.324v.333h-2.914v-.333h.216c.432 0 .756-.443.756-.887v-9.207c0-.444-.324-.887-.756-.887h-.216a1.772 1.772 0 0 0-1.402 1.22l-4.101 9.096c-.216.665-.863.998-1.511.998h-.971l-.216-1.22c.216.222.54.444.863.555.324.221.756.11.972-.333v-.111l.539-1.11-3.669-7.764c-.431-.777-.755-1.22-1.295-1.331v-.444h3.669v.444h-.324c-.323 0-.431.443-.215.887l2.805 5.99 2.59-5.768c.324-.555.108-.998-.431-1.11v-.443h5.503zm-16.726.777v9.65c0 .444-.324.888-.756.888h-.323v.331h3.992v-.331h-.323c-.432 0-.756-.444-.756-.888v-9.207c0-.444.324-.887.756-.887h.323v-.444h-11.007v.444h.324c.432 0 .755.444.755.887v9.207c0 .444-.323.888-.755.888h-.324v.331h3.993v-.331h-.324c-.431 0-.755-.444-.755-.888v-9.651h5.18z" fill="#D40020"/></svg>