<svg width="115" height="60" viewBox="0 0 115 60" fill="none" xmlns="http://www.w3.org/2000/svg">
  <g clip-path="url(#clip0_17194_1066)">
    <path fill-rule="evenodd" clip-rule="evenodd" d="M47.337 58.327C48.4043 59.4232 49.7889 59.9712 51.4908 59.9712C53.1062 59.9712 54.4331 59.5097 55.5005 58.5289C56.5101 57.5482 57.0293 56.3366 57.0293 54.8366C57.0293 53.3655 56.5678 52.2116 55.6158 51.3462C54.6928 50.452 53.5966 50.0193 52.3851 50.0193C51.0005 50.0193 49.9331 50.4232 49.1255 51.2597C49.2985 50.7405 49.6158 50.3078 50.0485 49.9328C50.4812 49.5578 51.1447 49.2116 52.0389 48.8655C53.337 48.3751 54.3178 47.8847 55.0101 47.3943C55.7024 46.9039 56.1062 46.2116 56.3081 45.3174L54.0005 43.9905C53.7985 44.452 53.5966 44.7982 53.4235 45.0289C53.2505 45.2597 52.9908 45.4616 52.6158 45.6924C52.3851 45.8655 52.1543 45.9809 51.9235 46.0962L51.0005 46.5578C50.8851 46.6155 50.7408 46.6732 50.5966 46.7309C50.5245 46.7597 50.4596 46.7886 50.3947 46.8174C50.3298 46.8462 50.2649 46.8751 50.1928 46.9039C50.1252 46.9377 50.0774 46.9715 50.0378 46.9995C50.0098 47.0193 49.9859 47.0362 49.962 47.0482C48.2601 47.8847 47.1639 48.8078 46.6158 49.8174C46.0678 50.827 45.7793 52.2693 45.7793 54.1155C45.7793 55.8174 46.2985 57.2309 47.337 58.327ZM49.5293 52.9616C50.0774 52.5289 50.712 52.2982 51.4331 52.2982C52.2408 52.2982 52.8755 52.5289 53.3947 53.077C53.8851 53.5386 54.1447 54.1443 54.1447 54.8943C54.1447 55.6155 53.9139 56.2212 53.3947 56.7116C52.9043 57.202 52.2697 57.4328 51.462 57.4328C50.6831 57.4328 50.0197 57.1732 49.4716 56.6828C48.9524 56.1924 48.6928 55.5578 48.6928 54.7789C48.6928 54.0289 48.9812 53.4232 49.5293 52.9616Z" fill="#F91F2B"/>
    <path d="M59.2793 46.9904C59.6255 47.3077 60.0293 47.4808 60.4909 47.4808C60.9812 47.4808 61.3851 47.3077 61.7024 46.9904C62.0486 46.6442 62.2216 46.2404 62.2216 45.7789C62.2216 45.3173 62.0486 44.9135 61.7024 44.5673C61.3851 44.2212 60.9812 44.0481 60.4909 44.0481C60.0293 44.0481 59.6255 44.2212 59.2793 44.5673C58.962 44.9135 58.7889 45.3173 58.7889 45.7789C58.7889 46.2404 58.9332 46.6442 59.2793 46.9904Z" fill="#F91F2B"/>
    <path d="M59.1351 59.6827H61.9332V48.7789H59.1351V59.6827Z" fill="#F91F2B"/>
    <path d="M71.0775 54.1155C72.1736 54.6636 72.7217 55.529 72.7217 56.7117C72.7217 57.6636 72.3178 58.4424 71.539 59.0771C70.7602 59.6828 69.6928 60.0001 68.3082 60.0001C66.0871 60.0001 64.5871 59.1347 63.8082 57.3751L66.0871 56.0194C66.4332 57.0001 67.1832 57.4905 68.3371 57.4905C68.8563 57.4905 69.2602 57.3751 69.5486 57.1732C69.8371 56.9713 69.9813 56.6828 69.9813 56.3367C69.9813 55.6732 69.5486 55.3271 68.6832 55.3271H67.1255V52.9328H68.3082C69.1448 52.9328 69.5775 52.5867 69.5775 51.9232C69.5775 51.6059 69.4621 51.3463 69.2025 51.1732C68.9428 50.9713 68.6255 50.8847 68.2217 50.8847C67.2986 50.8847 66.6063 51.3463 66.2025 52.2694L63.9236 50.9713C64.7602 49.2982 66.1736 48.4617 68.164 48.4617C69.4044 48.4617 70.414 48.779 71.1352 49.4136C71.8852 50.0482 72.2602 50.8271 72.2602 51.6924C72.289 52.7886 71.8851 53.5963 71.0775 54.1155Z" fill="#F91F2B"/>
    <path d="M82.3851 48.7791V52.904H78.0582V48.7791H75.2601V59.6829H78.0582V55.5579H82.3851V59.6829H85.1832V48.7791H82.3851Z" fill="#F91F2B"/>
    <path fill-rule="evenodd" clip-rule="evenodd" d="M98.6255 55.3847H90.4043C90.7793 56.7405 91.789 57.4328 93.462 57.4328C94.5293 57.4328 95.337 57.0578 95.914 56.3367L98.1928 57.6347C97.1255 59.1924 95.539 59.9713 93.4332 59.9713C91.6447 59.9713 90.2024 59.4232 89.1063 58.3271C88.0101 57.2309 87.462 55.8751 87.462 54.2021C87.462 52.5867 88.0101 51.2021 89.0774 50.1059C90.1447 49.0097 91.5293 48.4617 93.2024 48.4617C94.8178 48.4617 96.1159 49.0097 97.1543 50.1059C98.1928 51.2021 98.712 52.5867 98.712 54.2021C98.7409 54.5194 98.712 54.9232 98.6255 55.3847ZM90.3755 53.1924H95.9428C95.7697 52.4713 95.4524 51.9232 94.962 51.5482C94.4716 51.1732 93.9236 50.9713 93.2313 50.9713C92.4813 50.9713 91.8466 51.1732 91.3563 51.5482C90.8659 51.9809 90.5486 52.5001 90.3755 53.1924Z" fill="#F91F2B"/>
    <path d="M102.404 58.327C103.529 59.4232 104.885 59.9712 106.529 59.9712C107.568 59.9712 108.549 59.7116 109.414 59.1924C110.308 58.6732 110.972 57.9809 111.462 57.1155L109.01 55.7309C108.779 56.1924 108.462 56.5386 108.001 56.7982C107.568 57.0578 107.077 57.1732 106.501 57.1732C105.664 57.1732 104.972 56.8847 104.424 56.3366C103.876 55.7597 103.587 55.0386 103.587 54.202C103.587 53.3366 103.876 52.6155 104.424 52.0674C104.972 51.5193 105.664 51.2309 106.501 51.2309C107.049 51.2309 107.539 51.3751 107.972 51.6347C108.433 51.8943 108.751 52.2405 108.981 52.702L111.404 51.2886C110.943 50.4232 110.279 49.7597 109.414 49.2405C108.549 48.7501 107.597 48.4905 106.529 48.4905C104.885 48.4905 103.501 49.0386 102.404 50.1347C101.308 51.2309 100.76 52.6155 100.76 54.2309C100.76 55.8462 101.308 57.2309 102.404 58.327Z" fill="#F91F2B"/>
    <path fill-rule="evenodd" clip-rule="evenodd" d="M91.2404 34.7597C93.8366 37.0963 97.4424 38.4232 101.164 38.4232C107.481 38.4232 114.317 34.4713 114.462 25.7309C114.548 22.7309 113.481 19.8751 111.404 17.7405C109.212 15.4617 106.154 14.1636 103.01 14.1636C100.471 14.1636 98.0193 14.9713 96.1154 16.6155L95.9135 16.4713C97.1745 13.4049 100.343 12.1321 103.694 10.7863L103.76 10.7597C107.337 9.34628 111.058 7.84629 112.529 4.03859L106.067 0.0866699C105.692 0.750131 104.971 1.67321 104.308 2.25013C103.07 3.31501 102.349 3.66202 100.799 4.40849L100.789 4.41359C100.472 4.58107 100.132 4.74854 99.7442 4.93924L99.7433 4.93972L99.7418 4.94046C99.5292 5.04503 99.3025 5.15659 99.0577 5.27898C94.4135 7.3559 91.327 9.72128 89.3654 12.779C87.5481 15.6347 86.6827 19.154 86.6827 23.7117C86.6827 28.2694 88.2693 32.0771 91.2404 34.7597ZM96.4904 21.6347C97.5866 20.6828 99.0577 20.1347 100.615 20.1347C102.404 20.1347 104.135 20.8271 105.289 22.0097C106.269 23.0194 106.76 24.3174 106.731 25.7597C106.76 27.2021 106.269 28.4713 105.289 29.4809C104.164 30.6059 102.519 31.2694 100.76 31.2694C99.1154 31.2694 97.6154 30.6924 96.5193 29.654C95.3943 28.7021 94.7308 27.1155 94.7597 25.4713C94.7885 23.9136 95.4231 22.5001 96.4904 21.6347Z" fill="#F91F2B"/>
    <path d="M17.25 17.7694V37.154H24.9519V10.5867H0V37.154H7.73077V17.7694H17.25Z" fill="#F91F2B"/>
    <path d="M76.6153 37.154V22.8463L69.923 32.6251L63.2019 22.8463V37.154H55.8173V10.5867H63.2884L69.8942 20.9136L76.5288 10.5867H84V37.154H76.6153Z" fill="#F91F2B"/>
    <path d="M37.9327 33.8944C37.2404 36.5194 35.1058 37.6156 31.2404 37.6444V45.2021C35.0769 45.1732 38.0769 44.2502 40.4423 42.3752C42.8077 40.5002 44.5673 37.6732 46.0385 33.4906L54.3173 10.5579H46.0962L41.9135 24.029L41.6539 24.6636L34.5577 10.5867H26.3365L37.9615 33.8367L37.9327 33.8944Z" fill="#F91F2B"/>
  </g>
  <defs>
    <clipPath id="clip0_17194_1066">
      <rect width="115" height="60" fill="white"/>
    </clipPath>
  </defs>
</svg>
