<svg width="181" height="60" fill="none" xmlns="http://www.w3.org/2000/svg"><path fill-rule="evenodd" clip-rule="evenodd" d="M150.554 0C167.299 0 181 13.465 181 29.946 180.891 46.535 167.299 60 150.554 60 133.701 59.892 120 46.535 120 29.946 120 13.465 133.701 0 150.554 0Z" fill="#F91F2B"/><path fill-rule="evenodd" clip-rule="evenodd" d="M0 15h9.885c3.806 0 6.934 3.096 6.934 6.863v15.274c0 3.767-3.128 6.834-6.934 6.834H0V15Zm7.17 23.013a2.324 2.324 0 0 0 2.331-2.307V23.294c0-1.285-1.062-2.307-2.33-2.307v17.026H7.17ZM18.855 15h7.317v28.97h-7.317V15Zm36.322 0H47.86v28.97h7.317V15Zm39.775 0v28.97H110v-6.132h-7.553V15h-7.495Zm-38.24 0v6.425h4.367v22.546h7.73V21.425h4.367V15H56.712Zm29.86 0h-9.088l-5.901 28.97H78.9l.886-5.314h4.278l.915 5.315h7.495L86.572 15Zm-5.99 17.815 1.476-9.58 1.475 9.58h-2.951ZM44.998 21.863v2.92h-7.111V22.36c0-.7-.59-1.285-1.299-1.285-.708 0-1.298.585-1.298 1.285v14.836c0 .701.59 1.285 1.298 1.285.708 0 1.298-.584 1.298-1.285v-4.322h-1.298v-5.49h8.41v9.754c0 3.767-3.128 6.863-6.934 6.863h-2.951c-3.806 0-6.934-3.096-6.934-6.863V21.863c0-3.767 3.128-6.863 6.934-6.863h2.95c3.807 0 6.934 3.096 6.934 6.863h.001Z" fill="#00000D"/><path fill-rule="evenodd" clip-rule="evenodd" d="M173.301 19.559h.324c0 .77-.432 1.431-1.079 1.871-.756.441-1.727.661-2.59.661h-1.079c-3.885-.22-4.749 3.964-4.317 7.047a10.77 10.77 0 0 0 2.158 5.396c.972 1.101 2.482 1.762 3.777.66 1.079-.881 1.403-2.973 1.403-4.184 0-2.092-.755-5.395-3.345-5.395-.863 0-1.619.44-2.05 1.1a6.067 6.067 0 0 0-.648 2.754h-.432c-.323-2.533.864-4.625 3.561-4.735 3.13 0 5.072 2.532 5.072 5.726 0 3.193-1.942 6.166-5.179 6.166-1.511.11-3.022-.662-3.993-1.872-.971-1.211-1.403-3.194-1.403-5.726 0-3.193.432-5.065 1.403-6.606.971-1.432 2.482-2.313 4.208-2.203h1.511c.648.11 1.403 0 2.05-.11.324 0 .54-.22.648-.55Zm-22.122 5.395 3.885 8.699 3.561-7.928.324-.66h2.913v.44h-.323c-.432 0-.756.44-.756.88v9.14c0 .44.324.88.756.88h.323v.331h-3.992v-.33h.323c.432 0 .756-.44.756-.881v-8.479l-4.317 9.69h-.216l-4.208-9.91v8.589c0 .44.324.88.755.88h.324v.33h-2.914v-.33h.216c.432 0 .756-.44.756-.88v-9.14c0-.44-.324-.88-.756-.88h-.216c-.647.11-1.187.55-1.402 1.21l-4.101 9.03c-.216.66-.863.99-1.511.99h-.971l-.216-1.21c.216.22.54.44.863.55.324.22.756.11.972-.33v-.11l.539-1.101-3.669-7.708c-.431-.771-.755-1.211-1.295-1.322v-.44h3.669v.44h-.324c-.323 0-.431.44-.215.881l2.805 5.946 2.59-5.725c.324-.551.108-.991-.431-1.102v-.44h5.503Zm-16.726.77v9.581c0 .44-.324.88-.756.88h-.323v.33h3.992v-.33h-.323c-.432 0-.756-.44-.756-.88v-9.14c0-.44.324-.88.756-.88h.323v-.441h-11.007v.44h.324c.432 0 .755.44.755.881v9.14c0 .44-.323.88-.755.88h-.324v.33h3.993v-.33h-.324c-.431 0-.755-.44-.755-.88v-9.58h5.18v-.001Z" fill="#fff"/><path d="M150.646 40.703c-5.294 1.509-7.646.426-7.646.426v5.066s2.352 1.083 7.646-.425c4.548-1.277 7.645-.426 7.645-.426v-5.066c.039 0-3.097-.851-7.645.425Z" fill="url(#a)"/><path opacity=".1" d="M150.646 40.703c-5.294 1.509-7.646.426-7.646.426v.348s2.352 1.083 7.646-.426c4.548-1.276 7.645-.425 7.645-.425v-.348c.039 0-3.097-.851-7.645.425Z" fill="url(#b)"/><path d="M150.646 45.654c-5.294 1.508-7.646.425-7.646.425v5.067s2.352 1.083 7.646-.426c4.548-1.276 7.645-.425 7.645-.425v-5.067c.039 0-3.097-.85-7.645.426Z" fill="url(#c)"/><path d="M150.685 50.371c-5.293 1.509-7.646.426-7.646.426v.348s2.353 1.083 7.646-.426c4.548-1.276 7.645-.425 7.645-.425v-.348c.039 0-3.097-.85-7.645.425Z" fill="#887A01"/><defs><linearGradient id="a" x1="142.984" y1="43.291" x2="158.312" y2="43.291" gradientUnits="userSpaceOnUse"><stop offset=".004" stop-color="#0F4785"/><stop offset=".053" stop-color="#2468B0"/><stop offset=".149" stop-color="#2B6EB7"/><stop offset=".337" stop-color="#4789D3"/><stop offset=".339" stop-color="#4789D3"/><stop offset=".546" stop-color="#4486D0"/><stop offset=".629" stop-color="#3A7DC6"/><stop offset=".771" stop-color="#2065AC"/><stop offset=".784" stop-color="#1D62A9"/><stop offset=".834" stop-color="#2065AB"/><stop offset=".961" stop-color="#2D70B6"/><stop offset="1" stop-color="#4789D3"/></linearGradient><linearGradient id="b" x1="150.664" y1="40.959" x2="150.612" y2="56.079" gradientUnits="userSpaceOnUse"><stop offset=".004" stop-color="#fff"/><stop offset=".143" stop-color="#fff" stop-opacity="0"/></linearGradient><linearGradient id="c" x1="143" y1="48.243" x2="158.328" y2="48.243" gradientUnits="userSpaceOnUse"><stop offset=".004" stop-color="#8E7E00"/><stop offset=".052" stop-color="#D3B900"/><stop offset=".151" stop-color="#D9BE00"/><stop offset=".282" stop-color="#E9CF00"/><stop offset=".314" stop-color="#EFD600"/><stop offset=".39" stop-color="#F8DF00"/><stop offset=".494" stop-color="#FBE200"/><stop offset=".701" stop-color="#FADF00"/><stop offset=".795" stop-color="#D9BE00"/><stop offset=".961" stop-color="#D5BB00"/><stop offset="1" stop-color="#FBE200"/></linearGradient></defs></svg>