<svg width="180" height="60" viewBox="0 0 180 60" fill="none" xmlns="http://www.w3.org/2000/svg">
  <path fill-rule="evenodd" clip-rule="evenodd" d="M149.723 0C166.376 0 180.001 13.465 180.001 29.9461C179.893 46.535 166.376 60 149.723 60C132.963 59.8923 119.338 46.535 119.338 29.9461C119.338 13.465 132.963 0 149.723 0Z" fill="white"/>
  <path fill-rule="evenodd" clip-rule="evenodd" d="M0 14.9988H9.83008C13.6154 14.9988 16.7258 18.0945 16.7258 21.8619V37.1359C16.7258 40.9033 13.6154 43.9698 9.83008 43.9698H0V14.9988ZM7.13047 38.012C8.42159 38.012 9.44861 36.9607 9.44861 35.7049V23.2929C9.44861 22.0079 8.39225 20.9857 7.13047 20.9857V38.012ZM18.75 14.9988H26.0272V43.9698H18.75V14.9988ZM54.8729 14.9988H47.5957V43.9698H54.8729V14.9988ZM94.4268 14.9988V43.9698H109.392V37.8368H101.88V14.9988H94.4268ZM56.3965 14.9988V21.1902V21.4238H60.7393V43.9698H60.9741H68.2219H68.4273V21.4238H72.7702V21.1902V14.9988H56.3965ZM86.0921 14.9988H77.0543L71.1855 43.9698H78.4627L79.343 38.6545H83.5979L84.5075 43.9698H91.9608L86.0921 14.9988ZM80.1353 32.8136L81.6025 23.2345L83.0697 32.8136H80.1353ZM44.7483 21.8619V24.7823H37.6765V22.3583C37.6765 21.6574 37.0896 21.0733 36.3854 21.0733C35.6811 21.0733 35.0943 21.6574 35.0943 22.3583V37.1942C35.0943 37.8951 35.6811 38.4792 36.3854 38.4792C37.0896 38.4792 37.6765 37.8951 37.6765 37.1942V32.872H36.3854V27.3815H37.6472H42.6356H44.7483V37.1358C44.7483 40.9032 41.6379 43.9989 37.8526 43.9989H34.9182C31.1329 43.9989 28.0225 40.9032 28.0225 37.1358V21.8619C28.0225 18.0945 31.1329 14.9988 34.9182 14.9988H37.8526C41.6379 14.9988 44.7483 18.0945 44.7483 21.8619Z" fill="white"/>
  <path fill-rule="evenodd" clip-rule="evenodd" d="M172.343 19.5586H172.665C172.665 20.3294 172.236 20.99 171.592 21.4305C170.84 21.8709 169.875 22.0911 169.016 22.0911H167.943C164.08 21.8709 163.221 26.0551 163.65 29.1381C163.865 31.1201 164.616 32.992 165.797 34.5335C166.762 35.6346 168.265 36.2953 169.553 35.1942C170.626 34.3122 170.948 32.2212 170.948 31.01C170.948 28.9179 170.197 25.6146 167.621 25.6146C166.762 25.6146 166.011 26.0551 165.582 26.7157C165.153 27.5966 164.938 28.4775 164.938 29.4685H164.509C164.187 26.9359 165.367 24.8439 168.05 24.7337C171.162 24.7337 173.094 27.2663 173.094 30.4595C173.094 33.6526 171.162 36.6256 167.943 36.6256C166.44 36.7357 164.938 35.9638 163.972 34.7537C163.006 33.5425 162.577 31.5595 162.577 29.028C162.577 25.8348 163.006 23.963 163.972 22.4214C164.938 20.99 166.44 20.1091 168.158 20.2193H169.66C170.304 20.3294 171.055 20.2193 171.699 20.1091C172.021 20.1091 172.236 19.8889 172.343 19.5586ZM150.344 24.9551L154.207 33.654L157.749 25.7259L158.071 25.0652H160.968V25.5056H160.646C160.217 25.5056 159.895 25.9461 159.895 26.3865V35.5259C159.895 35.9664 160.217 36.4068 160.646 36.4068H160.968V36.7372H156.998V36.4068H157.32C157.749 36.4068 158.071 35.9664 158.071 35.5259V27.0472L153.778 36.7372H153.564L149.378 26.827V35.4158C149.378 35.8563 149.7 36.2967 150.129 36.2967H150.451V36.627H147.554V36.2967H147.768C148.198 36.2967 148.52 35.8563 148.52 35.4158V26.2764C148.52 25.836 148.198 25.3955 147.768 25.3955H147.554C146.91 25.5056 146.373 25.9461 146.159 26.6068L142.081 35.636C141.866 36.2967 141.222 36.627 140.578 36.627H139.612L139.398 35.4158C139.612 35.636 139.934 35.8563 140.256 35.9664C140.578 36.1866 141.008 36.0765 141.222 35.636V35.5259L141.759 34.4248L138.11 26.7169C137.681 25.9461 137.359 25.5056 136.822 25.3955V24.9551H140.471V25.3955H140.149C139.827 25.3955 139.72 25.836 139.934 26.2764L142.725 32.2225L145.3 26.4967C145.622 25.9461 145.408 25.5056 144.871 25.3955V24.9551H150.344ZM133.709 25.7247V32.772V35.3047C133.709 35.7451 133.387 36.1856 132.958 36.1856H132.636V36.5148H136.606V36.1856H136.284C135.855 36.1856 135.533 35.7451 135.533 35.3047V26.1651C135.533 25.7247 135.855 25.2842 136.284 25.2842H136.606V24.8438H125.66V25.2842H125.982C126.411 25.2842 126.733 25.7247 126.733 26.1651V35.3047C126.733 35.7451 126.411 36.1856 125.982 36.1856H125.66V36.5148H129.631V36.1856H129.309C128.88 36.1856 128.558 35.7451 128.558 35.3047V26.1651V25.7247H133.709Z" fill="#2C2C3B"/>
</svg>
