<svg width="90" height="30" fill="none" xmlns="http://www.w3.org/2000/svg"><path fill-rule="evenodd" clip-rule="evenodd" d="M74.307 0c8.264 0 15.026 6.732 15.026 14.973C89.28 23.267 82.571 30 74.307 30c-8.319-.054-15.08-6.733-15.08-15.027C59.227 6.733 65.989 0 74.307 0Z" fill="#F91F2B"/><path fill-rule="evenodd" clip-rule="evenodd" d="M0 7.5h4.879C6.757 7.5 8.3 9.048 8.3 10.931v7.638a3.43 3.43 0 0 1-3.422 3.416H0V7.5Zm3.539 11.506c.64 0 1.15-.525 1.15-1.153v-6.206c0-.643-.524-1.154-1.15-1.154v8.513ZM9.306 7.5h3.611v14.485H9.306V7.5Zm17.927 0H23.62v14.485h3.612V7.5h.001Zm19.63 0v14.485h7.427V18.92h-3.728V7.5h-3.699Zm-18.873 0v3.213h2.155v11.272h3.816V10.713h2.155V7.5H27.99Zm14.738 0h-4.485L35.33 21.985h3.612l.437-2.657h2.111l.452 2.657h3.699L42.728 7.5Zm-2.956 8.907.728-4.79.728 4.79h-1.456Zm-17.563-5.476v1.46H18.7V11.18a.647.647 0 0 0-.64-.643.647.647 0 0 0-.641.643v7.418c0 .35.291.642.64.642.35 0 .642-.292.642-.642v-2.161h-.641V13.69h4.15v4.877c0 1.884-1.543 3.432-3.422 3.432H17.33c-1.88 0-3.423-1.548-3.423-3.431v-7.637c0-1.884 1.544-3.432 3.423-3.432h1.456c1.879 0 3.422 1.548 3.422 3.431l.001.001Z" fill="#00000D"/><path fill-rule="evenodd" clip-rule="evenodd" d="M85.533 9.78h.16c0 .385-.213.716-.533.936-.373.22-.852.33-1.278.33h-.532c-1.918-.11-2.344 1.982-2.13 3.524a5.42 5.42 0 0 0 1.064 2.698c.48.55 1.225.88 1.864.33.533-.441.693-1.487.693-2.092 0-1.046-.373-2.698-1.651-2.698-.426 0-.8.22-1.012.55a3.07 3.07 0 0 0-.32 1.377h-.213c-.16-1.266.426-2.312 1.758-2.367 1.544 0 2.503 1.266 2.503 2.862 0 1.597-.959 3.084-2.556 3.084-.746.055-1.492-.331-1.971-.936-.48-.606-.693-1.598-.693-2.863 0-1.597.213-2.533.693-3.304.48-.715 1.225-1.156 2.077-1.1h.746c.32.054.692 0 1.012-.056.16 0 .266-.11.32-.275h-.001Zm-10.917 2.697 1.918 4.349 1.757-3.964.16-.33h1.438v.22h-.16c-.213 0-.373.22-.373.44v4.57c0 .22.16.44.373.44h.16v.166h-1.97v-.166h.16c.212 0 .372-.22.372-.44v-4.24l-2.13 4.846h-.107l-2.077-4.955v4.294c0 .22.16.44.373.44h.16v.166h-1.44v-.166h.107c.213 0 .373-.22.373-.44v-4.57c0-.22-.16-.44-.373-.44h-.106a.877.877 0 0 0-.693.605l-2.024 4.515c-.106.33-.426.495-.745.495h-.48l-.106-.605c.106.11.266.22.426.275.16.11.373.055.48-.165v-.055l.266-.55-1.811-3.854c-.213-.386-.373-.606-.64-.661v-.22h1.811v.22h-.16c-.16 0-.212.22-.106.44l1.385 2.973 1.278-2.863c.16-.275.053-.495-.213-.55v-.22h2.717Zm-8.256.386v4.79c0 .22-.16.44-.373.44h-.16v.165h1.97v-.165h-.159c-.213 0-.373-.22-.373-.44v-4.57c0-.22.16-.44.373-.44h.16v-.22h-5.433v.22h.16c.213 0 .373.22.373.44v4.57c0 .22-.16.44-.373.44h-.16v.165h1.97v-.165h-.159c-.213 0-.373-.22-.373-.44v-4.79h2.557Z" fill="#fff"/><path d="M74 21.305c-2.297.655-3.318.185-3.318.185v2.198s1.02.47 3.318-.184c1.973-.554 3.317-.185 3.317-.185v-2.198c.017 0-1.344-.37-3.317.184Z" fill="url(#a)"/><path opacity=".1" d="M74 21.305c-2.297.655-3.318.185-3.318.185v.15s1.02.47 3.318-.184c1.973-.554 3.317-.184 3.317-.184v-.151c.017 0-1.344-.37-3.317.184Z" fill="url(#b)"/><path d="M74 23.453c-2.297.655-3.318.185-3.318.185v2.199s1.02.47 3.318-.185c1.973-.554 3.317-.185 3.317-.185V23.27c.017 0-1.344-.37-3.317.184Z" fill="url(#c)"/><path d="M74.016 25.5c-2.296.655-3.317.185-3.317.185v.151s1.02.47 3.317-.184c1.974-.554 3.318-.185 3.318-.185v-.15c.017 0-1.344-.37-3.318.184Z" fill="#887A01"/><defs><linearGradient id="a" x1="70.675" y1="22.428" x2="77.326" y2="22.428" gradientUnits="userSpaceOnUse"><stop offset=".004" stop-color="#0F4785"/><stop offset=".053" stop-color="#2468B0"/><stop offset=".149" stop-color="#2B6EB7"/><stop offset=".337" stop-color="#4789D3"/><stop offset=".339" stop-color="#4789D3"/><stop offset=".546" stop-color="#4486D0"/><stop offset=".629" stop-color="#3A7DC6"/><stop offset=".771" stop-color="#2065AC"/><stop offset=".784" stop-color="#1D62A9"/><stop offset=".834" stop-color="#2065AB"/><stop offset=".961" stop-color="#2D70B6"/><stop offset="1" stop-color="#4789D3"/></linearGradient><linearGradient id="b" x1="74.007" y1="21.416" x2="73.985" y2="27.978" gradientUnits="userSpaceOnUse"><stop offset=".004" stop-color="#fff"/><stop offset=".143" stop-color="#fff" stop-opacity="0"/></linearGradient><linearGradient id="c" x1="70.682" y1="24.577" x2="77.334" y2="24.577" gradientUnits="userSpaceOnUse"><stop offset=".004" stop-color="#8E7E00"/><stop offset=".052" stop-color="#D3B900"/><stop offset=".151" stop-color="#D9BE00"/><stop offset=".282" stop-color="#E9CF00"/><stop offset=".314" stop-color="#EFD600"/><stop offset=".39" stop-color="#F8DF00"/><stop offset=".494" stop-color="#FBE200"/><stop offset=".701" stop-color="#FADF00"/><stop offset=".795" stop-color="#D9BE00"/><stop offset=".961" stop-color="#D5BB00"/><stop offset="1" stop-color="#FBE200"/></linearGradient></defs></svg>