<svg width="90" height="30" fill="none" xmlns="http://www.w3.org/2000/svg"><path fill-rule="evenodd" clip-rule="evenodd" d="M74.307 0c8.264 0 15.026 6.732 15.026 14.973C89.28 23.267 82.571 30 74.307 30c-8.319-.054-15.08-6.733-15.08-15.027C59.227 6.733 65.989 0 74.307 0z" fill="#F91F2B"/><path fill-rule="evenodd" clip-rule="evenodd" d="M0 7.5h4.879C6.757 7.5 8.3 9.048 8.3 10.931v7.638a3.43 3.43 0 0 1-3.422 3.416H0V7.5zm3.539 11.506c.64 0 1.15-.525 1.15-1.153v-6.206c0-.643-.524-1.154-1.15-1.154v8.513zM9.306 7.5h3.611v14.485H9.306V7.5zm17.927 0H23.62v14.485h3.612V7.5zm19.63 0v14.485h7.427V18.92h-3.728V7.5h-3.699zm-18.873 0v3.213h2.155v11.272h3.816V10.713h2.155V7.5H27.99zm14.738 0h-4.485L35.33 21.985h3.612l.437-2.657h2.111l.452 2.657h3.699L42.728 7.5zm-2.956 8.907.728-4.79.728 4.79h-1.456zm-17.563-5.476v1.46H18.7V11.18a.647.647 0 0 0-.64-.643.647.647 0 0 0-.641.643v7.418c0 .35.291.642.64.642.35 0 .642-.292.642-.642v-2.161h-.641V13.69h4.15v4.877c0 1.884-1.543 3.432-3.422 3.432H17.33c-1.88 0-3.423-1.548-3.423-3.431v-7.637c0-1.884 1.544-3.432 3.423-3.432h1.456c1.879 0 3.422 1.548 3.422 3.431z" fill="#00000D"/><path fill-rule="evenodd" clip-rule="evenodd" d="M85.533 9.78h.16c0 .385-.213.716-.533.936-.373.22-.852.33-1.278.33h-.532c-1.918-.11-2.344 1.982-2.13 3.524a5.42 5.42 0 0 0 1.064 2.698c.48.55 1.225.88 1.864.33.533-.441.693-1.487.693-2.092 0-1.046-.373-2.698-1.651-2.698-.426 0-.8.22-1.012.55a3.07 3.07 0 0 0-.32 1.377h-.213c-.16-1.266.426-2.312 1.758-2.367 1.544 0 2.503 1.266 2.503 2.862 0 1.597-.959 3.084-2.556 3.084-.746.055-1.492-.331-1.971-.936-.48-.606-.693-1.598-.693-2.863 0-1.597.213-2.533.693-3.304.48-.715 1.225-1.156 2.077-1.1h.746c.32.054.692 0 1.012-.056.16 0 .266-.11.32-.275zm-10.917 2.697 1.918 4.349 1.757-3.964.16-.33h1.438v.22h-.16c-.213 0-.373.22-.373.44v4.57c0 .22.16.44.373.44h.16v.166h-1.97v-.166h.16c.212 0 .372-.22.372-.44v-4.24l-2.13 4.846h-.107l-2.077-4.955v4.294c0 .22.16.44.373.44h.16v.166h-1.44v-.166h.107c.213 0 .373-.22.373-.44v-4.57c0-.22-.16-.44-.373-.44h-.106a.877.877 0 0 0-.693.605l-2.024 4.515c-.106.33-.426.495-.745.495h-.48l-.106-.605c.106.11.266.22.426.275.16.11.373.055.48-.165v-.055l.266-.55-1.811-3.854c-.213-.386-.373-.606-.64-.661v-.22h1.811v.22h-.16c-.16 0-.212.22-.106.44l1.385 2.973 1.278-2.863c.16-.275.053-.495-.213-.55v-.22h2.716zm-8.256.386v4.79c0 .22-.16.44-.373.44h-.16v.165h1.97v-.165h-.159c-.213 0-.373-.22-.373-.44v-4.57c0-.22.16-.44.373-.44h.16v-.22h-5.433v.22h.16c.213 0 .373.22.373.44v4.57c0 .22-.16.44-.373.44h-.16v.165h1.97v-.165h-.159c-.213 0-.373-.22-.373-.44v-4.79h2.557z" fill="#fff"/></svg>