<svg width="134" height="45" fill="none" xmlns="http://www.w3.org/2000/svg"><path fill-rule="evenodd" clip-rule="evenodd" d="M111.46 0C123.857 0 134 10.099 134 22.46 133.92 34.9 123.857 45 111.46 45c-12.477-.08-22.62-10.099-22.62-22.54C88.84 10.099 98.983 0 111.46 0z" fill="#F91F2B"/><path fill-rule="evenodd" clip-rule="evenodd" d="M0 11.25h7.318c2.818 0 5.133 2.322 5.133 5.147v11.456c0 2.825-2.315 5.125-5.133 5.125H0V11.25zm5.308 17.26c.961 0 1.726-.789 1.726-1.73v-9.31c0-.963-.786-1.73-1.726-1.73v12.77zm8.65-17.26h5.418v21.728h-5.418V11.25zm26.891 0h-5.417v21.728h5.417V11.25zm29.446 0v21.728h11.14v-4.6h-5.592V11.25h-5.548zm-28.31 0v4.819h3.233v16.91h5.722v-16.91h3.233V11.25h-12.19zm22.108 0h-6.729l-4.369 21.728h5.418l.655-3.986h3.168l.677 3.986h5.548L64.093 11.25zm-4.435 13.361 1.092-7.184 1.093 7.184h-2.185zm-26.344-8.214v2.19h-5.265V16.77a.971.971 0 0 0-.961-.964.971.971 0 0 0-.961.964v11.127a.97.97 0 0 0 .961.963.971.971 0 0 0 .961-.963v-3.242h-.961v-4.118h6.226v7.316c0 2.825-2.316 5.147-5.134 5.147h-2.184c-2.818 0-5.134-2.322-5.134-5.147V16.397c0-2.825 2.316-5.147 5.134-5.147h2.184c2.818 0 5.134 2.322 5.134 5.147z" fill="#00000D"/><path fill-rule="evenodd" clip-rule="evenodd" d="M128.299 14.67h.239c0 .578-.319 1.073-.798 1.404-.56.33-1.279.495-1.918.495h-.799c-2.876-.165-3.515 2.973-3.195 5.286a8.133 8.133 0 0 0 1.597 4.046c.72.826 1.838 1.322 2.797.496.799-.662 1.038-2.23 1.038-3.138 0-1.57-.559-4.047-2.476-4.047-.639 0-1.199.33-1.518.826-.32.66-.48 1.321-.48 2.064h-.319c-.24-1.899.639-3.468 2.636-3.55 2.317 0 3.755 1.899 3.755 4.294 0 2.395-1.438 4.625-3.835 4.625-1.118.082-2.237-.497-2.956-1.404-.719-.909-1.038-2.396-1.038-4.295 0-2.395.319-3.799 1.038-4.955.719-1.074 1.838-1.734 3.116-1.652h1.119c.479.083 1.038 0 1.517-.082.24 0 .4-.165.48-.413zm-16.376 4.045 2.877 6.524 2.636-5.946.24-.496h2.157v.33h-.24c-.32 0-.559.331-.559.661v6.855c0 .33.239.66.559.66h.24v.248h-2.956v-.247h.239c.32 0 .56-.33.56-.661v-6.36l-3.196 7.268h-.16l-3.116-7.432v6.441c0 .33.24.661.56.661h.239v.248h-2.157v-.248h.16c.32 0 .559-.33.559-.66v-6.855c0-.33-.239-.66-.559-.66h-.16a1.315 1.315 0 0 0-1.038.908l-3.036 6.771c-.16.496-.639.744-1.119.744h-.719l-.159-.909c.159.166.399.33.639.413.239.165.559.083.719-.247v-.083l.399-.826-2.716-5.78c-.32-.579-.559-.91-.959-.992v-.33h2.717v.33h-.24c-.24 0-.32.33-.16.66l2.077 4.46 1.918-4.294c.239-.413.08-.743-.32-.826v-.33h4.074zm-12.384.58v7.185c0 .33-.24.66-.56.66h-.24v.247h2.957v-.247h-.24c-.32 0-.559-.33-.559-.66v-6.855c0-.33.239-.66.559-.66h.24v-.331h-8.15v.33h.24c.32 0 .56.33.56.66v6.855c0 .33-.24.661-.56.661h-.24v.247h2.957v-.247h-.24c-.32 0-.56-.33-.56-.66v-7.186h3.836z" fill="#fff"/></svg>