<svg width="56" height="56" viewBox="0 0 56 56" fill="none" xmlns="http://www.w3.org/2000/svg">
<g clip-path="url(#clip0_5661_139462)">
<rect width="56" height="56" fill="url(#paint0_linear_5661_139462)"/>
<circle cx="28" cy="28" r="22.9141" fill="#F91F2B"/>
<circle cx="28" cy="28" r="22.9141" fill="url(#paint1_linear_5661_139462)"/>
<path d="M46.0007 19.9688C45.9053 20.6366 45.6191 21.1136 45.1898 21.3998C44.6651 21.686 44.0926 21.8768 43.1863 21.8768H42.3754C39.418 21.686 38.7978 24.8342 39.1318 27.1239C39.3703 28.5549 39.895 30.0813 40.7536 31.1308C41.5168 31.9417 42.6616 32.4664 43.6156 31.6555C44.4265 30.9877 44.6651 29.4612 44.6651 28.5549C44.6651 26.9808 44.0926 24.548 42.1369 24.548C41.5645 24.548 41.0398 24.7865 40.6105 25.3589C40.2766 25.7883 40.1335 26.5992 40.1335 27.4101H39.7519C39.5134 25.5021 40.4197 23.9279 42.4231 23.8802C44.8082 23.8802 46.2392 25.7883 46.2392 28.1733C46.2392 30.5583 44.7605 32.8003 42.3277 32.8003C41.0398 32.8003 40.0381 32.3233 39.2749 31.3693C38.5116 30.4629 38.1777 28.9842 38.1777 27.0762C38.1777 24.6911 38.5593 23.3078 39.2749 22.163C40.0381 21.0659 41.0398 20.5412 42.4708 20.5412H43.6633C44.4265 20.6366 44.9513 20.5412 45.2375 20.4935C45.476 20.3504 45.7145 20.2073 45.7622 19.9688H46.0007Z" fill="white"/>
<path d="M31.9275 30.4142L34.5987 24.4993L34.8372 23.9746H37.0315V24.2608H36.8406C36.5544 24.2608 36.2205 24.5947 36.2205 24.9286V29.8418V31.7976C36.2205 32.1792 36.5544 32.4654 36.8406 32.4654H37.0315V32.7039H35.5527H33.9786V32.4654H34.2171C34.5033 32.4654 34.8372 32.1792 34.8372 31.7976V29.8418V25.4533L31.5936 32.7039H31.4028L28.2068 25.3102V31.7499C28.2068 32.1315 28.493 32.4177 28.7792 32.4177H29.0177V32.6562H27.539H26.7758V32.4177H27.0143C27.3482 32.4177 27.6344 32.1315 27.6344 31.7499V24.9286C27.6344 24.5947 27.4436 24.2608 26.9666 24.2608C26.585 24.2608 26.1557 24.6424 25.9172 25.1671L22.8643 31.9407C22.5781 32.5131 22.1965 32.7039 21.6718 32.7039H20.9563L20.8132 31.7976C21.1471 32.0361 21.3856 32.1792 21.481 32.2269C21.8626 32.4177 22.1488 32.1792 22.2442 31.893L22.6258 31.0343L19.8591 25.3102C19.5252 24.6901 19.2867 24.4039 18.8574 24.3085V24.0223H20.4316H21.6241V24.3085H21.3856C21.1471 24.3085 21.0517 24.6424 21.2425 24.9763L23.3413 29.4602L25.297 25.1194C25.5355 24.6901 25.3447 24.3562 25.0108 24.3085V23.9746H29.0177L31.9275 30.4142Z" fill="white"/>
<path d="M16.3769 24.985V24.6511H12.4177V24.985V29.8429V31.7987C12.4177 32.1803 12.7039 32.4665 12.9901 32.4665H13.2286V32.705H11.7499H10.1758V32.4665H10.4143C10.7482 32.4665 11.0344 32.1803 11.0344 31.7987V29.8429V24.985C11.0344 24.6034 10.7482 24.3096 10.4143 24.3096H10.1758V24.0234H11.7499H11.9884H13.2763H15.566H16.7108H17.1401H18.6188V24.3096H18.3803C18.0464 24.3096 17.7602 24.6511 17.7602 24.985V29.8429V31.7987C17.7602 32.1803 18.0464 32.4665 18.3803 32.4665H18.6188V32.705H17.1401H15.566V32.4665H15.8045C16.0907 32.4665 16.3769 32.1803 16.3769 31.7987V29.8429V24.985Z" fill="white"/>
<g filter="url(#filter0_d_5661_139462)">
<path fill-rule="evenodd" clip-rule="evenodd" d="M35.8755 55.9997H14.5996C14.679 55.9888 14.7599 55.9785 14.8423 55.9691C21.4271 55.2106 26.4181 50.5538 31.1556 46.1334C33.1126 44.3074 35.0263 42.5218 36.9913 41.068C44.2469 35.6999 50.9167 34.5399 55.9998 34.8224V41.943C53.9959 41.6803 51.2175 41.5271 49.6451 42.3564C44.6912 44.9692 39.7619 51.1371 36.2978 55.4715C36.1545 55.6508 36.0137 55.827 35.8755 55.9997Z" fill="url(#paint2_linear_5661_139462)"/>
</g>
<path fill-rule="evenodd" clip-rule="evenodd" d="M37.2672 55.999H19.9609V55.9652C22.3819 55.6374 25.3303 55.1635 26.925 54.4687C30.5871 52.8729 32.8945 50.6443 35.7177 47.9175C36.8398 46.8338 38.0433 45.6714 39.4457 44.4387C44.8872 39.6559 51.0069 37.6995 56 37.3418V43.8248C54.9692 44.1117 53.7923 44.5189 52.7315 45.0212C46.8086 47.8253 40.8401 52.6634 37.2672 55.999Z" fill="url(#paint3_linear_5661_139462)"/>
<path fill-rule="evenodd" clip-rule="evenodd" d="M56.0006 40.0234V55.9993H34.4297C35.0644 55.1324 35.8226 54.1332 36.7049 52.9854C41.4382 46.8277 49.8776 40.6754 56.0006 40.0234Z" fill="url(#paint4_linear_5661_139462)"/>
</g>
<defs>
<filter id="filter0_d_5661_139462" x="9.89648" y="32.6504" width="46.1035" height="25.9199" filterUnits="userSpaceOnUse" color-interpolation-filters="sRGB">
<feFlood flood-opacity="0" result="BackgroundImageFix"/>
<feColorMatrix in="SourceAlpha" type="matrix" values="0 0 0 0 0 0 0 0 0 0 0 0 0 0 0 0 0 0 127 0" result="hardAlpha"/>
<feOffset dx="-2.35156" dy="0.21875"/>
<feGaussianBlur stdDeviation="1.17578"/>
<feComposite in2="hardAlpha" operator="out"/>
<feColorMatrix type="matrix" values="0 0 0 0 0 0 0 0 0 0 0 0 0 0 0 0 0 0 0.25 0"/>
<feBlend mode="normal" in2="BackgroundImageFix" result="effect1_dropShadow_5661_139462"/>
<feBlend mode="normal" in="SourceGraphic" in2="effect1_dropShadow_5661_139462" result="shape"/>
</filter>
<linearGradient id="paint0_linear_5661_139462" x1="0" y1="0" x2="67.0063" y2="21.1805" gradientUnits="userSpaceOnUse">
<stop stop-color="#5B5B68"/>
<stop offset="1" stop-color="#10101F"/>
</linearGradient>
<linearGradient id="paint1_linear_5661_139462" x1="28" y1="5.08594" x2="50.9141" y2="50.9141" gradientUnits="userSpaceOnUse">
<stop stop-color="#FF5D50"/>
<stop offset="1" stop-color="#F91F2B"/>
</linearGradient>
<linearGradient id="paint2_linear_5661_139462" x1="30.5702" y1="55.9997" x2="59.1166" y2="54.9158" gradientUnits="userSpaceOnUse">
<stop stop-color="#0777FF"/>
<stop offset="1" stop-color="#55C7F7"/>
</linearGradient>
<linearGradient id="paint3_linear_5661_139462" x1="51.0234" y1="51.4599" x2="48.6156" y2="36.5395" gradientUnits="userSpaceOnUse">
<stop offset="0.155839" stop-color="#0676FF"/>
<stop offset="1" stop-color="#55C7F7"/>
</linearGradient>
<linearGradient id="paint4_linear_5661_139462" x1="36.6959" y1="62.6165" x2="58.1864" y2="43.6565" gradientUnits="userSpaceOnUse">
<stop stop-color="#FF951F"/>
<stop offset="1" stop-color="#F1E521"/>
</linearGradient>
<clipPath id="clip0_5661_139462">
<rect width="56" height="56" rx="12" fill="white"/>
</clipPath>
</defs>
</svg>
