<svg width="134" height="45" fill="none" xmlns="http://www.w3.org/2000/svg"><path fill-rule="evenodd" clip-rule="evenodd" d="M111.46 0C123.857 0 134 10.099 134 22.46 133.92 34.9 123.857 45 111.46 45c-12.477-.08-22.62-10.099-22.62-22.54C88.84 10.099 98.983 0 111.46 0Z" fill="#F91F2B"/><path d="M110.995 31.46c-3.458.985-4.995.277-4.995.277v3.31s1.537.708 4.995-.277c2.972-.834 4.995-.278 4.995-.278v-3.31c.026 0-2.023-.556-4.995.277Z" fill="url(#a)"/><path opacity=".1" d="M110.995 31.46c-3.458.985-4.995.277-4.995.277v.228s1.537.707 4.995-.278c2.972-.834 4.995-.278 4.995-.278v-.227c.026 0-2.023-.556-4.995.277Z" fill="url(#b)"/><path d="M110.995 34.694c-3.458.985-4.995.278-4.995.278v3.31s1.537.708 4.995-.278c2.972-.834 4.995-.278 4.995-.278v-3.31c.026 0-2.023-.556-4.995.278Z" fill="url(#c)"/><path d="M111.021 37.776c-3.458.986-4.995.278-4.995.278v.228s1.537.707 4.995-.278c2.971-.834 4.995-.278 4.995-.278v-.228c.026 0-2.024-.556-4.995.278Z" fill="#887A01"/><path fill-rule="evenodd" clip-rule="evenodd" d="M0 11.25h7.318c2.818 0 5.133 2.322 5.133 5.147v11.456c0 2.825-2.315 5.125-5.133 5.125H0V11.25Zm5.308 17.26c.961 0 1.726-.789 1.726-1.73v-9.31c0-.963-.786-1.73-1.726-1.73v12.77Zm8.65-17.26h5.418v21.728h-5.418V11.25Zm26.891 0h-5.417v21.728h5.417V11.25Zm29.446 0v21.728h11.14v-4.6h-5.592V11.25h-5.548Zm-28.31 0v4.819h3.233v16.91h5.722v-16.91h3.233V11.25h-12.19.002Zm22.108 0h-6.729l-4.369 21.728h5.418l.655-3.986h3.168l.677 3.986h5.548L64.093 11.25Zm-4.435 13.361 1.092-7.184 1.093 7.184h-2.185Zm-26.344-8.214v2.19h-5.265V16.77a.971.971 0 0 0-.961-.964.97.97 0 0 0-.961.964v11.127a.97.97 0 0 0 .961.963.97.97 0 0 0 .961-.963v-3.242h-.961v-4.118h6.226v7.316c0 2.825-2.316 5.147-5.134 5.147h-2.184c-2.818 0-5.134-2.322-5.134-5.147V16.397c0-2.825 2.316-5.147 5.134-5.147h2.184c2.818 0 5.134 2.322 5.134 5.147Z" fill="#00000D"/><path fill-rule="evenodd" clip-rule="evenodd" d="M128.299 14.67h.239c0 .578-.319 1.073-.798 1.404-.56.33-1.279.495-1.918.495h-.799c-2.876-.165-3.515 2.973-3.195 5.286a8.13 8.13 0 0 0 1.597 4.046c.72.826 1.838 1.322 2.797.496.799-.662 1.038-2.23 1.038-3.138 0-1.57-.559-4.047-2.476-4.047-.639 0-1.199.33-1.518.826-.32.66-.48 1.321-.48 2.064h-.319c-.24-1.899.639-3.468 2.636-3.55 2.317 0 3.755 1.899 3.755 4.294 0 2.395-1.438 4.625-3.835 4.625-1.118.082-2.237-.497-2.956-1.404-.719-.909-1.038-2.396-1.038-4.295 0-2.395.319-3.799 1.038-4.955.719-1.074 1.838-1.734 3.116-1.652h1.119c.479.083 1.038 0 1.517-.082.24 0 .4-.165.48-.413Zm-16.376 4.045 2.877 6.524 2.636-5.946.24-.496h2.157v.33h-.24c-.32 0-.559.331-.559.661v6.855c0 .33.239.66.559.66h.24v.248h-2.956v-.247h.239c.32 0 .56-.33.56-.661v-6.36l-3.196 7.268h-.16l-3.116-7.432v6.441c0 .33.24.661.56.661h.239v.248h-2.157v-.248h.16c.32 0 .559-.33.559-.66v-6.855c0-.33-.239-.66-.559-.66h-.16a1.32 1.32 0 0 0-1.038.908l-3.036 6.771c-.16.496-.639.744-1.119.744h-.719l-.159-.909c.159.166.399.33.639.413.239.165.559.083.719-.247v-.083l.399-.826-2.716-5.78c-.32-.579-.559-.91-.959-.992v-.33h2.717v.33h-.24c-.24 0-.32.33-.16.66l2.077 4.46 1.918-4.294c.239-.413.08-.743-.32-.826v-.33h4.074Zm-12.384.58v7.185c0 .33-.24.66-.56.66h-.24v.247h2.957v-.247h-.24c-.32 0-.559-.33-.559-.66v-6.855c0-.33.239-.66.559-.66h.24v-.331h-8.15v.33h.24c.32 0 .56.33.56.66v6.855c0 .33-.24.661-.56.661h-.24v.247h2.957v-.247h-.24c-.32 0-.56-.33-.56-.66v-7.186h3.836v.001Z" fill="#fff"/><defs><linearGradient id="a" x1="105.989" y1="33.15" x2="116.004" y2="33.15" gradientUnits="userSpaceOnUse"><stop offset=".004" stop-color="#0F4785"/><stop offset=".053" stop-color="#2468B0"/><stop offset=".149" stop-color="#2B6EB7"/><stop offset=".337" stop-color="#4789D3"/><stop offset=".339" stop-color="#4789D3"/><stop offset=".546" stop-color="#4486D0"/><stop offset=".629" stop-color="#3A7DC6"/><stop offset=".771" stop-color="#2065AC"/><stop offset=".784" stop-color="#1D62A9"/><stop offset=".834" stop-color="#2065AB"/><stop offset=".961" stop-color="#2D70B6"/><stop offset="1" stop-color="#4789D3"/></linearGradient><linearGradient id="b" x1="111.007" y1="31.627" x2="110.973" y2="41.505" gradientUnits="userSpaceOnUse"><stop offset=".004" stop-color="#fff"/><stop offset=".143" stop-color="#fff" stop-opacity="0"/></linearGradient><linearGradient id="c" x1="106" y1="36.386" x2="116.015" y2="36.386" gradientUnits="userSpaceOnUse"><stop offset=".004" stop-color="#8E7E00"/><stop offset=".052" stop-color="#D3B900"/><stop offset=".151" stop-color="#D9BE00"/><stop offset=".282" stop-color="#E9CF00"/><stop offset=".314" stop-color="#EFD600"/><stop offset=".39" stop-color="#F8DF00"/><stop offset=".494" stop-color="#FBE200"/><stop offset=".701" stop-color="#FADF00"/><stop offset=".795" stop-color="#D9BE00"/><stop offset=".961" stop-color="#D5BB00"/><stop offset="1" stop-color="#FBE200"/></linearGradient></defs></svg>