<svg width="100" height="52" viewBox="0 0 100 52" fill="none" xmlns="http://www.w3.org/2000/svg">
  <g clip-path="url(#clip0_17197_755)">
    <path fill-rule="evenodd" clip-rule="evenodd" d="M41.0248 50.5502C41.9498 51.5002 43.1498 51.9752 44.6248 51.9752C46.0248 51.9752 47.1748 51.5752 48.0998 50.7252C48.9748 49.8752 49.4248 48.8252 49.4248 47.5252C49.4248 46.2502 49.0248 45.2502 48.1998 44.5002C47.3998 43.7252 46.4498 43.3502 45.3998 43.3502C44.1998 43.3502 43.2748 43.7002 42.5748 44.4252C42.7248 43.9752 42.9998 43.6002 43.3748 43.2752C43.7498 42.9502 44.3248 42.6502 45.0998 42.3502C46.2248 41.9252 47.0748 41.5002 47.6748 41.0752C48.2748 40.6502 48.6248 40.0502 48.7998 39.2752L46.7998 38.1252C46.6248 38.5252 46.4498 38.8252 46.2998 39.0252C46.1498 39.2252 45.9248 39.4002 45.5998 39.6002C45.3998 39.7502 45.1998 39.8502 44.9998 39.9502L44.1998 40.3502C44.0998 40.4002 43.9748 40.4502 43.8498 40.5002C43.7873 40.5252 43.7311 40.5502 43.6748 40.5752C43.6186 40.6002 43.5623 40.6252 43.4998 40.6502C43.4412 40.6795 43.3998 40.7088 43.3655 40.7331C43.3412 40.7502 43.3205 40.7649 43.2998 40.7752C41.8248 41.5002 40.8748 42.3002 40.3998 43.1752C39.9248 44.0502 39.6748 45.3002 39.6748 46.9002C39.6748 48.3752 40.1248 49.6002 41.0248 50.5502ZM42.9248 45.9002C43.3998 45.5252 43.9498 45.3252 44.5748 45.3252C45.2748 45.3252 45.8248 45.5252 46.2748 46.0002C46.6998 46.4002 46.9248 46.9252 46.9248 47.5752C46.9248 48.2002 46.7248 48.7252 46.2748 49.1502C45.8498 49.5752 45.2998 49.7752 44.5998 49.7752C43.9248 49.7752 43.3498 49.5502 42.8748 49.1252C42.4248 48.7002 42.1998 48.1502 42.1998 47.4752C42.1998 46.8252 42.4498 46.3002 42.9248 45.9002Z" fill="white"/>
    <path d="M51.3748 40.7252C51.6748 41.0002 52.0248 41.1502 52.4248 41.1502C52.8498 41.1502 53.1998 41.0002 53.4748 40.7252C53.7748 40.4252 53.9248 40.0752 53.9248 39.6752C53.9248 39.2752 53.7748 38.9252 53.4748 38.6252C53.1998 38.3252 52.8498 38.1752 52.4248 38.1752C52.0248 38.1752 51.6748 38.3252 51.3748 38.6252C51.0998 38.9252 50.9498 39.2752 50.9498 39.6752C50.9498 40.0752 51.0748 40.4252 51.3748 40.7252Z" fill="white"/>
    <path d="M51.2498 51.7252H53.6748V42.2752H51.2498V51.7252Z" fill="white"/>
    <path d="M61.5999 46.9003C62.5499 47.3753 63.0249 48.1253 63.0249 49.1503C63.0249 49.9753 62.6749 50.6503 61.9999 51.2003C61.3249 51.7253 60.3999 52.0003 59.1999 52.0003C57.2749 52.0003 55.9749 51.2503 55.2999 49.7253L57.2749 48.5503C57.5749 49.4003 58.2249 49.8253 59.2249 49.8253C59.6749 49.8253 60.0249 49.7253 60.2749 49.5503C60.5249 49.3753 60.6499 49.1253 60.6499 48.8253C60.6499 48.2503 60.2749 47.9503 59.5249 47.9503H58.1749V45.8753H59.1999C59.9249 45.8753 60.2999 45.5753 60.2999 45.0003C60.2999 44.7253 60.1999 44.5003 59.9749 44.3503C59.7499 44.1753 59.4749 44.1003 59.1249 44.1003C58.3249 44.1003 57.7249 44.5003 57.3749 45.3003L55.3999 44.1753C56.1249 42.7253 57.3499 42.0003 59.0749 42.0003C60.1499 42.0003 61.0249 42.2753 61.6499 42.8253C62.2999 43.3753 62.6249 44.0503 62.6249 44.8003C62.6499 45.7503 62.2999 46.4503 61.5999 46.9003Z" fill="white"/>
    <path d="M71.3999 42.2753V45.8503H67.6499V42.2753H65.2249V51.7253H67.6499V48.1503H71.3999V51.7253H73.8249V42.2753H71.3999Z" fill="white"/>
    <path fill-rule="evenodd" clip-rule="evenodd" d="M85.4748 48.0003H78.3498C78.6749 49.1753 79.5498 49.7753 80.9999 49.7753C81.9249 49.7753 82.6249 49.4503 83.1248 48.8253L85.0998 49.9503C84.1749 51.3003 82.7999 51.9753 80.9748 51.9753C79.4248 51.9753 78.1748 51.5003 77.2248 50.5503C76.2748 49.6003 75.7999 48.4253 75.7999 46.9753C75.7999 45.5753 76.2748 44.3753 77.1998 43.4253C78.1248 42.4753 79.3249 42.0003 80.7749 42.0003C82.1749 42.0003 83.2998 42.4753 84.1998 43.4253C85.0998 44.3753 85.5499 45.5753 85.5499 46.9753C85.5749 47.2503 85.5498 47.6003 85.4748 48.0003ZM78.3248 46.1003H83.1498C82.9999 45.4753 82.7249 45.0003 82.2999 44.6753C81.8749 44.3503 81.3999 44.1753 80.7999 44.1753C80.1499 44.1753 79.5998 44.3503 79.1749 44.6753C78.7499 45.0503 78.4748 45.5003 78.3248 46.1003Z" fill="white"/>
    <path d="M88.7499 50.5502C89.7249 51.5002 90.8999 51.9752 92.3249 51.9752C93.2249 51.9752 94.0749 51.7502 94.8249 51.3002C95.5999 50.8502 96.1749 50.2502 96.5999 49.5002L94.4749 48.3002C94.2749 48.7002 93.9999 49.0002 93.5999 49.2252C93.2249 49.4502 92.7999 49.5502 92.2999 49.5502C91.5749 49.5502 90.9749 49.3002 90.4999 48.8252C90.0249 48.3252 89.7749 47.7002 89.7749 46.9752C89.7749 46.2252 90.0249 45.6002 90.4999 45.1252C90.9749 44.6502 91.5749 44.4002 92.2999 44.4002C92.7749 44.4002 93.1999 44.5252 93.5749 44.7502C93.9749 44.9752 94.2499 45.2752 94.4499 45.6752L96.5499 44.4502C96.1499 43.7002 95.5749 43.1252 94.8249 42.6752C94.0749 42.2502 93.2499 42.0252 92.3249 42.0252C90.8999 42.0252 89.6999 42.5002 88.7499 43.4502C87.7999 44.4002 87.3249 45.6002 87.3249 47.0002C87.3249 48.4002 87.7999 49.6002 88.7499 50.5502Z" fill="white"/>
    <path fill-rule="evenodd" clip-rule="evenodd" d="M79.0751 30.1252C81.325 32.1502 84.4501 33.3002 87.6751 33.3002C93.1501 33.3002 99.0751 29.8752 99.2001 22.3002C99.275 19.7002 98.3501 17.2252 96.5501 15.3752C94.6501 13.4002 92.0001 12.2752 89.2751 12.2752C87.0751 12.2752 84.9501 12.9752 83.3001 14.4002L83.1251 14.2752C84.2179 11.6176 86.964 10.5146 89.8679 9.34817L89.9251 9.32519C93.0251 8.10019 96.2501 6.80019 97.5251 3.5002L91.9251 0.0751953C91.6001 0.650195 90.9751 1.4502 90.4001 1.9502C89.3275 2.87309 88.7029 3.17383 87.3592 3.82077L87.3501 3.82519C87.0759 3.97034 86.7809 4.11548 86.445 4.28076L86.4442 4.28117L86.4429 4.28181C86.2587 4.37244 86.0622 4.46913 85.8501 4.57519C81.8251 6.3752 79.15 8.42519 77.45 11.0752C75.875 13.5502 75.1251 16.6002 75.1251 20.5502C75.1251 24.5002 76.5 27.8002 79.0751 30.1252ZM83.6251 18.7502C84.5751 17.9252 85.8501 17.4502 87.2001 17.4502C88.7501 17.4502 90.2501 18.0502 91.2501 19.0752C92.1001 19.9502 92.5251 21.0752 92.5001 22.3252C92.5251 23.5752 92.1001 24.6752 91.2501 25.5502C90.2751 26.5252 88.8501 27.1002 87.3251 27.1002C85.9 27.1002 84.6001 26.6002 83.6501 25.7002C82.6751 24.8752 82.1001 23.5002 82.1251 22.0752C82.15 20.7252 82.7001 19.5002 83.6251 18.7502Z" fill="white"/>
    <path d="M14.95 15.4002V32.2002H21.625V9.17519H0V32.2002H6.7V15.4002H14.95Z" fill="white"/>
    <path d="M66.4 32.2002V19.8002L60.6 28.2752L54.775 19.8002V32.2002H48.375V9.17519H54.85L60.575 18.1252L66.325 9.17519H72.8V32.2002H66.4Z" fill="white"/>
    <path d="M32.875 29.3752C32.275 31.6502 30.425 32.6002 27.075 32.6252V39.1752C30.4 39.1502 33 38.3502 35.05 36.7252C37.1 35.1002 38.625 32.6502 39.9 29.0252L47.075 9.15023H39.95L36.325 20.8252L36.1 21.3752L29.95 9.17523H22.825L32.9 29.3252L32.875 29.3752Z" fill="white"/>
  </g>
  <defs>
    <clipPath id="clip0_17197_755">
      <rect width="99.6667" height="52" fill="white"/>
    </clipPath>
  </defs>
</svg>
