<svg width="60" height="60" viewBox="0 0 60 60" fill="none" xmlns="http://www.w3.org/2000/svg">
  <g clip-path="url(#clip0_17215_51432)">
    <rect width="60" height="60" rx="16" fill="#F91F2B"/>
    <g clip-path="url(#clip1_17215_51432)">
      <path fill-rule="evenodd" clip-rule="evenodd" d="M24.9346 41.3029C25.3615 41.7597 25.9154 41.988 26.5961 41.988C27.2423 41.988 27.7731 41.7957 28.2 41.3871C28.6038 40.9784 28.8115 40.4736 28.8115 39.8486C28.8115 39.2356 28.6269 38.7549 28.2461 38.3943C27.8769 38.0217 27.4384 37.8414 26.9538 37.8414C26.4 37.8414 25.9731 38.0097 25.65 38.3582C25.7192 38.1419 25.8461 37.9616 26.0192 37.8053C26.1923 37.6491 26.4577 37.5049 26.8154 37.3606C27.3346 37.1563 27.7269 36.952 28.0038 36.7476C28.2808 36.5433 28.4423 36.2549 28.5231 35.8823L27.6 35.3294C27.5192 35.5217 27.4384 35.6659 27.3692 35.7621C27.3 35.8582 27.1961 35.9424 27.0461 36.0385C26.9538 36.1106 26.8615 36.1587 26.7692 36.2068L26.4 36.3991C26.3538 36.4231 26.2961 36.4472 26.2384 36.4712C26.2096 36.4832 26.1836 36.4952 26.1577 36.5073C26.1317 36.5193 26.1058 36.5313 26.0769 36.5433C26.0499 36.5574 26.0308 36.5715 26.0149 36.5831C26.0037 36.5914 25.9942 36.5984 25.9846 36.6034C25.3038 36.952 24.8654 37.3366 24.6461 37.7573C24.4269 38.1779 24.3115 38.7789 24.3115 39.5481C24.3115 40.2573 24.5192 40.8462 24.9346 41.3029ZM25.8115 39.0674C26.0308 38.8871 26.2846 38.7909 26.5731 38.7909C26.8961 38.7909 27.15 38.8871 27.3577 39.1154C27.5538 39.3077 27.6577 39.5601 27.6577 39.8726C27.6577 40.1731 27.5654 40.4255 27.3577 40.6299C27.1615 40.8342 26.9077 40.9303 26.5846 40.9303C26.2731 40.9303 26.0077 40.8222 25.7884 40.6178C25.5808 40.4135 25.4769 40.1491 25.4769 39.8246C25.4769 39.5121 25.5923 39.2597 25.8115 39.0674Z" fill="white"/>
      <path d="M29.7115 36.5793C29.85 36.7116 30.0115 36.7837 30.1962 36.7837C30.3923 36.7837 30.5538 36.7116 30.6808 36.5793C30.8192 36.4351 30.8885 36.2668 30.8885 36.0745C30.8885 35.8822 30.8192 35.714 30.6808 35.5697C30.5538 35.4255 30.3923 35.3534 30.1962 35.3534C30.0115 35.3534 29.85 35.4255 29.7115 35.5697C29.5846 35.714 29.5154 35.8822 29.5154 36.0745C29.5154 36.2668 29.5731 36.4351 29.7115 36.5793Z" fill="white"/>
      <path d="M29.6538 41.8678H30.7731V37.3245H29.6538V41.8678Z" fill="white"/>
      <path d="M34.4308 39.5481C34.8693 39.7765 35.0885 40.1371 35.0885 40.6299C35.0885 41.0265 34.9269 41.351 34.6154 41.6154C34.3039 41.8679 33.8769 42.0001 33.3231 42.0001C32.4346 42.0001 31.8346 41.6395 31.5231 40.9063L32.4346 40.3414C32.5731 40.7501 32.8731 40.9544 33.3346 40.9544C33.5423 40.9544 33.7039 40.9063 33.8193 40.8222C33.9346 40.738 33.9923 40.6179 33.9923 40.4736C33.9923 40.1972 33.8193 40.0529 33.4731 40.0529H32.85V39.0554H33.3231C33.6577 39.0554 33.8308 38.9111 33.8308 38.6347C33.8308 38.5025 33.7846 38.3943 33.6808 38.3222C33.5769 38.238 33.45 38.202 33.2885 38.202C32.9193 38.202 32.6423 38.3943 32.4808 38.7789L31.5693 38.238C31.9039 37.5409 32.4692 37.1924 33.2654 37.1924C33.7616 37.1924 34.1654 37.3246 34.4539 37.589C34.7539 37.8534 34.9039 38.1779 34.9039 38.5385C34.9154 38.9953 34.7539 39.3318 34.4308 39.5481Z" fill="white"/>
      <path d="M38.9539 37.3246V39.0434H37.2231V37.3246H36.1039V41.8679H37.2231V40.1491H38.9539V41.8679H40.0731V37.3246H38.9539Z" fill="white"/>
      <path fill-rule="evenodd" clip-rule="evenodd" d="M45.45 40.077H42.1615C42.3115 40.6419 42.7154 40.9304 43.3846 40.9304C43.8115 40.9304 44.1346 40.7741 44.3654 40.4736L45.2769 41.0145C44.85 41.6635 44.2154 41.988 43.3731 41.988C42.6577 41.988 42.0808 41.7597 41.6423 41.3029C41.2038 40.8462 40.9846 40.2813 40.9846 39.5842C40.9846 38.9111 41.2038 38.3342 41.6308 37.8775C42.0577 37.4207 42.6115 37.1924 43.2808 37.1924C43.9269 37.1924 44.4462 37.4207 44.8615 37.8775C45.2769 38.3342 45.4846 38.9111 45.4846 39.5842C45.4962 39.7164 45.4846 39.8847 45.45 40.077ZM42.15 39.1635H44.3769C44.3077 38.863 44.1808 38.6347 43.9846 38.4784C43.7885 38.3222 43.5692 38.238 43.2923 38.238C42.9923 38.238 42.7385 38.3222 42.5423 38.4784C42.3462 38.6587 42.2192 38.8751 42.15 39.1635Z" fill="white"/>
      <path d="M46.9616 41.3029C47.4116 41.7597 47.9539 41.988 48.6116 41.988C49.0269 41.988 49.4192 41.8799 49.7654 41.6635C50.1231 41.4472 50.3885 41.1587 50.5846 40.7981L49.6039 40.2212C49.5116 40.4135 49.3846 40.5577 49.2 40.6659C49.0269 40.7741 48.8308 40.8222 48.6 40.8222C48.2654 40.8222 47.9885 40.702 47.7692 40.4736C47.55 40.2332 47.4346 39.9327 47.4346 39.5842C47.4346 39.2236 47.55 38.9231 47.7692 38.6948C47.9885 38.4664 48.2654 38.3462 48.6 38.3462C48.8192 38.3462 49.0154 38.4063 49.1885 38.5145C49.3731 38.6226 49.5 38.7669 49.5923 38.9592L50.5616 38.3702C50.3769 38.0097 50.1116 37.7332 49.7654 37.5169C49.4192 37.3125 49.0385 37.2044 48.6116 37.2044C47.9539 37.2044 47.4 37.4327 46.9616 37.8895C46.5231 38.3462 46.3039 38.9231 46.3039 39.5962C46.3039 40.2693 46.5231 40.8462 46.9616 41.3029Z" fill="white"/>
      <path fill-rule="evenodd" clip-rule="evenodd" d="M42.4962 31.4832C43.5346 32.4568 44.9769 33.0097 46.4654 33.0097C48.9923 33.0097 51.7269 31.363 51.7846 27.7212C51.8192 26.4712 51.3923 25.2813 50.5616 24.3919C49.6846 23.4424 48.4616 22.9015 47.2039 22.9015C46.1885 22.9015 45.2077 23.238 44.4462 23.9231L44.3654 23.863C44.8698 22.5854 46.1372 22.0551 47.4775 21.4943L47.5039 21.4832C48.9346 20.8943 50.4231 20.2693 51.0116 18.6828L48.4269 17.0361C48.2769 17.3126 47.9885 17.6972 47.7231 17.9376C47.2281 18.3813 46.9398 18.5258 46.3196 18.8369L46.3154 18.839C46.1889 18.9088 46.0527 18.9786 45.8977 19.058L45.8973 19.0582L45.8967 19.0585C45.8117 19.1021 45.721 19.1486 45.6231 19.1996C43.7654 20.065 42.5308 21.0505 41.7462 22.3246C41.0192 23.5145 40.6731 24.9808 40.6731 26.8799C40.6731 28.7789 41.3077 30.3654 42.4962 31.4832ZM44.5962 26.0145C45.0346 25.6178 45.6231 25.3895 46.2462 25.3895C46.9616 25.3895 47.6539 25.6779 48.1154 26.1707C48.5077 26.5914 48.7039 27.1323 48.6923 27.7332C48.7039 28.3342 48.5077 28.863 48.1154 29.2837C47.6654 29.7525 47.0077 30.0289 46.3039 30.0289C45.6462 30.0289 45.0462 29.7885 44.6077 29.3558C44.1577 28.9592 43.8923 28.2981 43.9039 27.613C43.9154 26.964 44.1693 26.3751 44.5962 26.0145Z" fill="white"/>
      <path d="M12.9 24.4039V32.4808H15.9808V21.4111H6V32.4808H9.09231V24.4039H12.9Z" fill="white"/>
      <path d="M36.6461 32.4808V26.5193L33.9692 30.5938L31.2808 26.5193V32.4808H28.3269V21.4111H31.3154L33.9577 25.714L36.6115 21.4111H39.6V32.4808H36.6461Z" fill="white"/>
      <path d="M21.1731 31.1227C20.8962 32.2164 20.0423 32.6732 18.4962 32.6852V35.8342C20.0308 35.8222 21.2308 35.4376 22.1769 34.6563C23.1231 33.8751 23.8269 32.6972 24.4154 30.9544L27.7269 21.3991H24.4385L22.7654 27.0121L22.6615 27.2765L19.8231 21.4111H16.5346L21.1846 31.0986L21.1731 31.1227Z" fill="white"/>
    </g>
  </g>
  <defs>
    <clipPath id="clip0_17215_51432">
      <rect width="60" height="60" fill="white"/>
    </clipPath>
    <clipPath id="clip1_17215_51432">
      <rect width="46" height="25" fill="white" transform="translate(6 17)"/>
    </clipPath>
  </defs>
</svg>
