<svg xmlns="http://www.w3.org/2000/svg" width="60" height="60" fill="none"><rect width="100%" height="100%"/><g fill-rule="evenodd" clip-rule="evenodd" class="currentLayer"><path d="M29.674.55C46.117.55 59.57 13.767 59.57 29.946 59.463 46.231 46.116 59.45 29.673 59.45 13.124 59.345-.33 46.232-.33 29.947-.33 13.767 13.125.55 29.674.55z" fill="#F91F2B"/><path d="M52.011 19.75h.318c0 .757-.424 1.405-1.06 1.837-.742.433-1.695.65-2.543.65h-1.06c-3.814-.217-4.663 3.89-4.238 6.917a10.568 10.568 0 0 0 2.119 5.297c.954 1.08 2.437 1.73 3.709.648 1.06-.865 1.377-2.918 1.377-4.107 0-2.054-.741-5.297-3.284-5.297-.848 0-1.59.432-2.013 1.081a5.952 5.952 0 0 0-.637 2.702h-.424c-.317-2.486.848-4.54 3.497-4.648 3.073 0 4.98 2.487 4.98 5.621 0 3.135-1.907 6.054-5.085 6.054-1.484.108-2.968-.65-3.921-1.838-.954-1.189-1.378-3.136-1.378-5.62 0-3.136.424-4.973 1.378-6.487.953-1.405 2.437-2.27 4.132-2.162h1.484c.636.109 1.377 0 2.013-.108.318 0 .53-.216.636-.54zm-21.723 5.296 3.815 8.54 3.497-7.783.318-.648h2.86v.432h-.317c-.424 0-.742.432-.742.865v8.972c0 .432.318.864.742.864h.317v.325h-3.92v-.325h.317c.425 0 .743-.432.743-.864V27.1l-4.24 9.513h-.212l-4.132-9.729v8.432c0 .432.318.864.742.864h.318v.325h-2.862v-.325h.212c.425 0 .743-.432.743-.864v-8.972c0-.433-.318-.865-.743-.865h-.212a1.736 1.736 0 0 0-1.377 1.189l-4.027 8.864c-.212.648-.847.973-1.483.973h-.954l-.212-1.19c.212.217.53.433.847.541.319.216.743.108.955-.324v-.108l.53-1.081-3.604-7.567c-.423-.757-.741-1.19-1.271-1.297v-.433h3.602v.433h-.318c-.317 0-.423.432-.21.865l2.754 5.837 2.543-5.621c.318-.54.106-.973-.423-1.081v-.433h5.404zm-16.425.757v9.405c0 .432-.318.864-.742.864h-.318v.323h3.92v-.323h-.317c-.424 0-.742-.432-.742-.864v-8.972c0-.433.318-.865.742-.865h.317v-.433H5.915v.433h.318c.424 0 .741.432.741.865v8.972c0 .432-.317.864-.741.864h-.318v.323h3.92v-.323h-.317c-.424 0-.742-.432-.742-.864v-9.405h5.087z" fill="#fff"/></g></svg>