<?xml version="1.0" standalone="no"?>
<!DOCTYPE svg PUBLIC "-//W3C//DTD SVG 1.1//EN" "http://www.w3.org/Graphics/SVG/1.1/DTD/svg11.dtd" >
<svg xmlns="http://www.w3.org/2000/svg">
<metadata>
<json>
<![CDATA[
{
	"fontFamily": "project-icons",
	"majorVersion": 1,
	"minorVersion": 0,
	"version": "Version 1.0",
	"fontId": "project-icons",
	"psName": "project-icons",
	"subFamily": "Regular",
	"fullName": "project-icons",
	"description": "Font generated by IcoMoon."
}
]]>
</json>
</metadata>
<defs>
<font id="project-icons" horiz-adv-x="1024">
<font-face units-per-em="1024" ascent="960" descent="-64" />
<missing-glyph horiz-adv-x="1024" />
<glyph unicode="&#x20;" horiz-adv-x="512" d="" />
<glyph unicode="&#xe900;" glyph-name="icon-chevron-right1" data-tags="icon-chevron-right" d="M834.006 381.196c0.134 0.133 0.268 0.266 0.402 0.399 33.321 33.325 33.321 87.355 0 120.68l-422.379 422.378c-33.324 33.325-87.355 33.325-120.679 0s-33.324-87.355 0-120.68l362.038-362.037-362.040-362.039c-33.324-33.323-33.324-87.356 0-120.678s87.355-33.323 120.679 0l421.979 421.977z" />
<glyph unicode="&#xe901;" glyph-name="icon-chevron-right-double" data-tags="icon-chevron-right-double" d="M567.652 387.282c0.135 0.133 0.269 0.266 0.402 0.399 33.325 33.325 33.325 87.355 0 120.68l-422.378 422.378c-33.325 33.325-87.355 33.325-120.68 0s-33.325-87.355 0-120.68l362.038-362.038-362.040-362.040c-33.325-33.323-33.325-87.356 0-120.678s87.355-33.323 120.68 0l421.978 421.978zM994.321 386.429c0.128 0.132 0.265 0.265 0.401 0.399 33.323 33.324 33.323 87.355 0 120.679l-422.38 422.379c-33.325 33.325-87.355 33.325-120.68 0s-33.324-87.355 0-120.679l362.038-362.038-362.040-362.041c-33.324-33.323-33.324-87.356 0-120.678s87.355-33.323 120.68 0l421.981 421.979z" />
<glyph unicode="&#xe902;" glyph-name="icon-close1" data-tags="icon-close" d="M874.044 810.048c-33.326 33.325-87.357 33.325-120.681 0l-241.369-241.369-241.363 241.363c-33.324 33.325-87.355 33.325-120.679 0s-33.325-87.355 0-120.679l241.363-241.363-241.35-241.35c-33.325-33.324-33.325-87.355 0-120.677 33.324-33.331 87.355-33.331 120.679 0l241.35 241.347 241.356-241.356c33.324-33.323 87.355-33.323 120.677 0 33.331 33.324 33.331 87.355 0 120.679l-241.353 241.356 241.37 241.369c33.323 33.324 33.323 87.355 0 120.679z" />
<glyph unicode="&#xe903;" glyph-name="icon-exit1" data-tags="icon-exit" d="M512 874.667c0-47.128-38.205-85.333-85.333-85.333h-170.667c-47.128 0-85.333-38.205-85.333-85.333v-512c0-47.129 38.205-85.333 85.333-85.333h170.667c47.128 0 85.333-38.204 85.333-85.333s-38.205-85.333-85.333-85.333h-170.667c-141.385 0-256 114.611-256 256v512c0 141.385 114.615 256 256 256h170.667c47.128 0 85.333-38.205 85.333-85.333zM636.967 633.307l99.975-99.974h-310.275c-47.129 0-85.333-38.205-85.333-85.333s38.205-85.333 85.333-85.333h301.706l-91.405-91.405c-33.325-33.325-33.325-87.355 0-120.679s87.355-33.325 120.679 0l223.251 223.249c25.745 14.692 43.102 42.403 43.102 74.168 0 0.423 0 0.846-0.009 1.268-0.009 0.294-0.009 0.587-0.017 0.88 0.043 1.821 0.034 3.643-0.043 5.463-0.802 20.718-9.105 41.2-24.926 57.017l-241.359 241.359c-33.325 33.325-87.355 33.325-120.68 0s-33.324-87.354 0-120.679z" />
<glyph unicode="&#xe904;" glyph-name="icon-info1" data-tags="icon-info" d="M512-64c282.77 0 512 229.23 512 512s-229.23 512-512 512c-282.77 0-512-229.23-512-512s229.23-512 512-512zM597.333 789.333v-170.667h-170.667v170.667h170.667zM597.333 448v-341.333h-170.667v341.333h170.667z" />
<glyph unicode="&#xe905;" glyph-name="icon-minus" data-tags="icon-minus" d="M170.667 533.333h682.667c47.128 0 85.333-38.205 85.333-85.333s-38.205-85.333-85.333-85.333h-682.667c-47.128 0-85.333 38.205-85.333 85.333s38.205 85.333 85.333 85.333z" />
<glyph unicode="&#xe906;" glyph-name="icon-ok" data-tags="icon-ok" d="M361.173 123.452l-271.75 271.75c-33.325 33.325-33.325 87.355 0 120.68s87.355 33.324 120.679 0l211.41-211.411 422.379 422.379c33.327 33.324 87.351 33.324 120.683 0 33.323-33.325 33.323-87.355 0-120.679l-482.721-482.719c-31.242-31.241-80.682-33.195-114.198-5.858-2.235 1.823-4.398 3.775-6.481 5.858z" />
<glyph unicode="&#xe907;" glyph-name="icon-plus" data-tags="icon-plus" d="M512 874.667c-47.128 0-85.333-38.205-85.333-85.333v-256h-256c-47.128 0-85.333-38.205-85.333-85.333s38.205-85.333 85.333-85.333h256v-256c0-47.13 38.205-85.333 85.333-85.333s85.333 38.204 85.333 85.333v256h256c47.13 0 85.333 38.205 85.333 85.333s-38.204 85.333-85.333 85.333h-256v256c0 47.128-38.205 85.333-85.333 85.333z" />
<glyph unicode="&#xe908;" glyph-name="icon-small-arrow-down" data-tags="icon-small-arrow-down" d="M446.445 270.665l-244.477 293.373c-46.316 55.579-6.794 139.962 65.555 139.962h488.953c72.349 0 111.875-84.383 65.555-139.962l-244.477-293.372c-34.115-40.94-96.994-40.94-131.11-0.001z" />
<glyph unicode="&#xe909;" glyph-name="icon-small-arrow-up" data-tags="icon-small-arrow-up" d="M577.555 710.668l244.477-293.373c46.321-55.579 6.794-139.962-65.555-139.962h-488.953c-72.349 0-111.871 84.383-65.555 139.962l244.477 293.372c34.115 40.94 96.993 40.94 131.11 0.001z" />
<glyph unicode="&#xe90a;" glyph-name="icon-time" data-tags="icon-time" d="M426.667 448.424v340.909c0 47.128 38.205 85.333 85.333 85.333s85.333-38.205 85.333-85.333v-305.988l276.702-276.704c33.323-33.324 33.323-87.355 0-120.676-33.323-33.331-87.352-33.331-120.678 0l-301.699 301.695c-15.687 15.687-23.989 35.961-24.908 56.504-0.063 1.419-0.092 2.839-0.084 4.26z" />
<glyph unicode="&#xe90b;" glyph-name="icon-add" data-tags="icon-add" d="M512 789.334c-23.565 0-42.667-19.103-42.667-42.667v-256h-256.001c-23.564 0-42.667-19.102-42.667-42.667s19.103-42.667 42.667-42.667h256.001v-256c0-23.565 19.102-42.667 42.667-42.667s42.667 19.102 42.667 42.667v256h256c23.565 0 42.667 19.102 42.667 42.667s-19.102 42.667-42.667 42.667h-256v256c0 23.564-19.102 42.667-42.667 42.667z" />
<glyph unicode="&#xe90c;" glyph-name="icon-apps" data-tags="icon-apps" d="M597.333 704c0-47.128-38.204-85.333-85.333-85.333s-85.333 38.205-85.333 85.333c0 47.128 38.204 85.333 85.333 85.333s85.333-38.205 85.333-85.333zM256 362.667c47.128 0 85.333 38.204 85.333 85.333s-38.205 85.333-85.333 85.333c-47.128 0-85.333-38.204-85.333-85.333s38.205-85.333 85.333-85.333zM597.333 448c0-47.13-38.204-85.333-85.333-85.333s-85.333 38.204-85.333 85.333c0 47.13 38.204 85.333 85.333 85.333s85.333-38.204 85.333-85.333zM853.333 448c0-47.13-38.204-85.333-85.333-85.333s-85.333 38.204-85.333 85.333c0 47.13 38.204 85.333 85.333 85.333s85.333-38.204 85.333-85.333zM768 618.667c47.13 0 85.333 38.205 85.333 85.333s-38.204 85.333-85.333 85.333c-47.13 0-85.333-38.205-85.333-85.333s38.204-85.333 85.333-85.333zM341.333 704c0-47.128-38.205-85.333-85.333-85.333s-85.333 38.205-85.333 85.333c0 47.128 38.205 85.333 85.333 85.333s85.333-38.205 85.333-85.333zM512 106.667c47.13 0 85.333 38.204 85.333 85.333s-38.204 85.333-85.333 85.333c-47.13 0-85.333-38.204-85.333-85.333s38.204-85.333 85.333-85.333zM853.333 192c0-47.13-38.204-85.333-85.333-85.333s-85.333 38.204-85.333 85.333c0 47.13 38.204 85.333 85.333 85.333s85.333-38.204 85.333-85.333zM256 106.667c47.128 0 85.333 38.204 85.333 85.333s-38.205 85.333-85.333 85.333c-47.128 0-85.333-38.204-85.333-85.333s38.205-85.333 85.333-85.333z" />
<glyph unicode="&#xe90d;" glyph-name="icon-arrow-down" data-tags="icon-arrow-down" d="M512 832c-23.565 0-42.667-19.103-42.667-42.667v-579.661l-228.861 228.864c-16.662 16.661-43.677 16.661-60.34 0-16.663-16.666-16.663-43.678 0-60.339l301.527-301.53c0.563-0.572 1.143-1.126 1.737-1.66 3.541-3.209 7.492-5.713 11.674-7.518 4.873-2.108 10.214-3.332 15.829-3.477 0.367-0.009 0.734-0.013 1.101-0.013 0.777 0 1.545 0.021 2.308 0.060 4.591 0.247 8.986 1.216 13.073 2.799 5.393 2.078 10.445 5.291 14.793 9.638l301.696 301.7c16.666 16.661 16.666 43.678 0 60.339-16.661 16.661-43.678 16.661-60.339 0l-228.864-228.864v579.661c0 23.564-19.102 42.667-42.667 42.667z" />
<glyph unicode="&#xe90e;" glyph-name="icon-arrow-left" data-tags="icon-arrow-left" d="M273.674 490.667h579.659c23.565 0 42.667-19.102 42.667-42.667s-19.102-42.667-42.667-42.667h-579.66l228.863-228.864c16.661-16.661 16.661-43.674 0-60.339-16.661-16.661-43.678-16.661-60.339 0l-301.651 301.649c-0.172 0.175-0.343 0.346-0.512 0.521-3.862 3.981-6.794 8.529-8.797 13.367-2.071 4.996-3.22 10.466-3.238 16.205 0 0.043 0 0.085 0 0.128s0 0.085 0 0.128c0.032 10.876 4.198 21.743 12.497 30.042l0.012 0.013c0.058 0.055 0.116 0.115 0.174 0.171l301.515 301.515c16.661 16.663 43.678 16.663 60.339 0s16.661-43.677 0-60.34l-228.862-228.862z" />
<glyph unicode="&#xe90f;" glyph-name="icon-arrow-right" data-tags="icon-arrow-right" d="M892.561 431.189c-1.899-4.433-4.578-8.606-8.047-12.314-0.405-0.431-0.819-0.858-1.242-1.271l-301.47-301.474c-16.661-16.661-43.678-16.661-60.339 0-16.661 16.666-16.661 43.678 0 60.339l228.86 228.864h-579.657c-23.564 0-42.667 19.102-42.667 42.667s19.103 42.667 42.667 42.667h579.661l-228.864 228.862c-16.661 16.663-16.661 43.677 0 60.34s43.678 16.663 60.339 0l301.585-301.584c0.384-0.38 0.759-0.768 1.126-1.161 3.477-3.721 6.165-7.906 8.064-12.352 2.202-5.15 3.422-10.816 3.422-16.772 0-5.969-1.225-11.652-3.439-16.811z" />
<glyph unicode="&#xe910;" glyph-name="icon-arrow-up" data-tags="icon-arrow-up" d="M469.333 686.328l-228.864-228.865c-16.662-16.661-43.677-16.661-60.34 0s-16.663 43.678 0 60.339l301.701 301.701c4.262 4.266 9.207 7.44 14.485 9.521 4.855 1.92 10.146 2.976 15.684 2.976 5.858 0 11.439-1.181 16.521-3.316 4.565-1.914 8.862-4.655 12.663-8.225 0.371-0.35 0.738-0.706 1.101-1.069l301.585-301.587c16.661-16.661 16.661-43.678 0-60.339-16.666-16.661-43.678-16.661-60.339 0l-228.864 228.863v-579.66c0-23.565-19.102-42.667-42.667-42.667s-42.667 19.102-42.667 42.667v579.662z" />
<glyph unicode="&#xe911;" glyph-name="icon-attach" data-tags="icon-attach" d="M684.8 789.333c-28.314 0-55.45-11.232-75.452-31.204l-342.921-342.441c-34.002-33.954-53.094-79.996-53.094-127.991 0-47.991 19.092-94.033 53.094-127.987 34.004-33.954 80.137-53.043 128.252-53.043s94.247 19.089 128.253 53.043l233.126 233.126c16.661 16.661 43.674 16.661 60.339 0 16.661-16.661 16.661-43.678 0-60.339l-233.148-233.148c-50.018-49.946-117.862-78.016-188.57-78.016s-138.533 28.049-188.549 77.995c-50.019 49.95-78.129 117.709-78.129 188.369 0 70.665 28.111 138.423 78.129 188.373l342.922 342.441c36.011 35.963 84.843 56.156 135.748 56.156s99.738-20.193 135.748-56.156c36.015-35.965 56.26-84.756 56.26-135.644s-20.245-99.679-56.26-135.644l-343.296-342.441c-0.004-0.009 0.009 0.004 0 0-22.007-21.969-51.854-34.317-82.947-34.317-31.101 0-60.94 12.335-82.949 34.317-22.012 21.978-34.388 51.806-34.388 82.914 0 31.113 12.377 60.937 34.388 82.918l237.712 237.101c16.683 16.641 43.699 16.606 60.339-0.078s16.606-43.699-0.077-60.34l-237.677-237.065c-5.984-5.986-9.353-14.101-9.353-22.537 0-8.439 3.357-16.546 9.353-22.532 5.998-5.99 14.144-9.365 22.652-9.365s16.654 3.375 22.651 9.365l343.295 342.441c19.998 19.971 31.223 47.044 31.223 75.261s-11.226 55.291-31.223 75.262c-20.002 19.973-47.142 31.204-75.452 31.204z" />
<glyph unicode="&#xe912;" glyph-name="icon-burger" data-tags="icon-burger" d="M170.667 704c0 23.564 19.103 42.667 42.667 42.667h597.333c23.565 0 42.667-19.103 42.667-42.667s-19.102-42.667-42.667-42.667h-597.333c-23.564 0-42.667 19.103-42.667 42.667zM170.667 448c0 23.565 19.103 42.667 42.667 42.667h597.333c23.565 0 42.667-19.102 42.667-42.667s-19.102-42.667-42.667-42.667h-597.333c-23.564 0-42.667 19.102-42.667 42.667zM213.333 234.667c-23.564 0-42.667-19.102-42.667-42.667s19.103-42.667 42.667-42.667h597.333c23.565 0 42.667 19.102 42.667 42.667s-19.102 42.667-42.667 42.667h-597.333z" />
<glyph unicode="&#xe913;" glyph-name="icon-calendar" data-tags="icon-calendar" d="M341.333 917.333c23.564 0 42.667-19.103 42.667-42.667v-42.667h256v42.667c0 23.564 19.102 42.667 42.667 42.667s42.667-19.103 42.667-42.667v-42.667h42.667c70.694 0 128-57.308 128-128v-512c0-70.694-57.306-128-128-128h-512c-70.692 0-128 57.306-128 128v512c0 70.692 57.308 128 128 128h42.667v42.667c0 23.564 19.103 42.667 42.667 42.667zM256 661.333c-23.564 0-42.667-19.102-42.667-42.667v-426.667c0-23.565 19.103-42.667 42.667-42.667h512c23.565 0 42.667 19.102 42.667 42.667v426.667c0 23.564-19.102 42.667-42.667 42.667h-512zM384 490.667c0-23.565-19.103-42.667-42.667-42.667s-42.667 19.102-42.667 42.667c0 23.565 19.103 42.667 42.667 42.667s42.667-19.102 42.667-42.667zM554.667 490.667c0-23.565-19.102-42.667-42.667-42.667s-42.667 19.102-42.667 42.667c0 23.565 19.102 42.667 42.667 42.667s42.667-19.102 42.667-42.667zM682.667 448c23.565 0 42.667 19.102 42.667 42.667s-19.102 42.667-42.667 42.667c-23.565 0-42.667-19.102-42.667-42.667s19.102-42.667 42.667-42.667zM384 320c0-23.565-19.103-42.667-42.667-42.667s-42.667 19.102-42.667 42.667c0 23.565 19.103 42.667 42.667 42.667s42.667-19.102 42.667-42.667zM512 277.333c23.565 0 42.667 19.102 42.667 42.667s-19.102 42.667-42.667 42.667c-23.565 0-42.667-19.102-42.667-42.667s19.102-42.667 42.667-42.667zM725.333 320c0-23.565-19.102-42.667-42.667-42.667s-42.667 19.102-42.667 42.667c0 23.565 19.102 42.667 42.667 42.667s42.667-19.102 42.667-42.667z" />
<glyph unicode="&#xe914;" glyph-name="icon-camera" data-tags="icon-camera" d="M376.68 661.333h-163.346c-23.564 0-42.667-19.103-42.667-42.667v-426.667c0-23.565 19.103-42.667 42.667-42.667h597.333c23.565 0 42.667 19.102 42.667 42.667v426.667c0 23.564-19.102 42.667-42.667 42.667h-163.345l-49.988 49.987 60.339 60.34 24.994-24.994h128c70.694 0 128-57.308 128-128v-426.667c0-70.694-57.306-128-128-128h-597.333c-70.692 0-128 57.306-128 128v426.667c0 70.692 57.308 128 128 128h128l24.994 24.994c38.635 38.635 91.034 60.34 145.673 60.34s107.038-21.705 145.673-60.34l-60.339-60.34c-22.63 22.632-53.329 35.346-85.333 35.346s-62.703-12.714-85.333-35.346l-49.987-49.987zM512 277.333c-70.694 0-128 57.306-128 128s57.306 128 128 128c70.694 0 128-57.306 128-128s-57.306-128-128-128zM512 192c117.82 0 213.333 95.514 213.333 213.333s-95.514 213.333-213.333 213.333c-117.821 0-213.333-95.514-213.333-213.333s95.513-213.333 213.333-213.333z" />
<glyph unicode="&#xe915;" glyph-name="icon-card" data-tags="icon-card" d="M85.333 661.333c0 70.692 57.308 128 128 128h597.333c70.694 0 128-57.308 128-128v-426.667c0-70.694-57.306-128-128-128h-597.333c-70.692 0-128 57.306-128 128v426.667zM170.667 661.333v-42.667h682.667v42.667c0 23.564-19.102 42.667-42.667 42.667h-597.333c-23.564 0-42.667-19.103-42.667-42.667zM170.667 448v-213.333c0-23.565 19.103-42.667 42.667-42.667h597.333c23.565 0 42.667 19.102 42.667 42.667v213.333h-682.667z" />
<glyph unicode="&#xe916;" glyph-name="icon-cards-transfer" data-tags="icon-cards-transfer" d="M810.667 704c0 70.692-57.306 128-128 128h-512c-70.693 0-128-57.308-128-128v-341.333c0-70.694 57.307-128 128-128h412.813c-7.151-15.727-4.258-34.906 8.678-47.842 16.661-16.666 43.678-16.666 60.339 0l60.339 60.339c16.111 16.107 16.644 41.894 1.604 58.645-0.516 0.576-1.050 1.139-1.604 1.694l-60.339 60.339c-16.661 16.661-43.678 16.661-60.339 0-12.937-12.937-15.829-32.115-8.678-47.842h-412.854c-23.545 0.021-42.625 19.115-42.625 42.667v341.333c0 23.564 19.103 42.667 42.667 42.667h512c23.565 0 42.667-19.103 42.667-42.667s19.102-42.667 42.667-42.667c23.565 0 42.667 19.103 42.667 42.667zM341.333 618.667c-70.692 0-128-57.308-128-128v-85.333c0-23.565 19.103-42.667 42.667-42.667s42.667 19.102 42.667 42.667v85.333c0 23.565 19.103 42.667 42.667 42.667h512c23.565 0 42.667-19.102 42.667-42.667v-341.333c0-23.565-19.102-42.667-42.667-42.667h-512c-23.564 0-42.667 19.102-42.667 42.667s-19.103 42.667-42.667 42.667c-23.564 0-42.667-19.102-42.667-42.667 0-70.694 57.308-128 128-128h512c70.694 0 128 57.306 128 128v341.333c0 70.692-57.306 128-128 128h-512z" />
<glyph unicode="&#xe917;" glyph-name="icon-cart" data-tags="icon-cart" d="M128 874.667c-23.564 0-42.667-19.103-42.667-42.667s19.103-42.667 42.667-42.667h42.667l153.6-323.84-57.6-104.107c-31.147-57.173 9.813-126.72 74.667-126.72h469.333c23.565 0 42.667 19.102 42.667 42.667s-19.102 42.667-42.667 42.667h-469.333l46.933 85.333h317.867c32 0 60.16 17.493 74.667 43.947l152.747 276.907c15.787 28.16-4.693 63.147-37.12 63.147h-631.467l-40.107 85.333h-96.853zM305.493 704h518.4l-117.76-213.333h-299.52l-101.12 213.333zM341.333 192c-46.933 0-84.907-38.4-84.907-85.333s37.973-85.333 84.907-85.333c46.933 0 85.333 38.4 85.333 85.333s-38.4 85.333-85.333 85.333zM768 192c-46.933 0-84.907-38.4-84.907-85.333s37.973-85.333 84.907-85.333c46.933 0 85.333 38.4 85.333 85.333s-38.4 85.333-85.333 85.333z" />
<glyph unicode="&#xe918;" glyph-name="icon-check" data-tags="icon-check" d="M418.519 192.781c-8.069 1.562-15.773 5.466-22.022 11.716l-241.359 241.357c-16.662 16.666-16.662 43.678 0 60.343 16.663 16.661 43.677 16.661 60.34 0l211.189-211.191 392.209 392.209c16.661 16.662 43.678 16.662 60.339 0s16.661-43.677 0-60.34l-422.379-422.378c-5.257-5.257-11.541-8.853-18.206-10.795-6.545-1.903-13.452-2.21-20.112-0.922z" />
<glyph unicode="&#xe919;" glyph-name="icon-chevron-down" data-tags="icon-chevron-down" d="M503.855 235.447c-8.073 1.562-15.774 5.466-22.025 11.716l-301.698 301.699c-16.663 16.662-16.663 43.677 0 60.34s43.677 16.662 60.34 0l271.528-271.53 271.531 271.53c16.661 16.663 43.678 16.663 60.339 0 16.666-16.662 16.666-43.677 0-60.34l-301.696-301.699c-5.257-5.257-11.546-8.853-18.21-10.795-6.541-1.903-13.449-2.21-20.109-0.922z" />
<glyph unicode="&#xe91a;" glyph-name="icon-chevron-left" data-tags="icon-chevron-left" d="M401.674 448l271.529-271.531c16.661-16.661 16.661-43.674 0-60.339-16.661-16.661-43.678-16.661-60.339 0l-301.701 301.7c-16.662 16.661-16.662 43.678 0 60.339 0.067 0.068 0.135 0.137 0.203 0.201l301.498 301.499c16.661 16.663 43.678 16.663 60.339 0s16.661-43.677 0-60.34l-271.529-271.529z" />
<glyph unicode="&#xe91b;" glyph-name="icon-chevron-right" data-tags="icon-chevron-right" d="M712.636 417.63c0.068 0.068 0.132 0.132 0.201 0.201 16.661 16.661 16.661 43.678 0 60.339l-301.699 301.699c-16.662 16.663-43.677 16.663-60.34 0s-16.663-43.677 0-60.34l271.53-271.529-271.531-271.531c-16.663-16.661-16.663-43.674 0-60.339 16.662-16.661 43.677-16.661 60.34 0l301.5 301.5z" />
<glyph unicode="&#xe91c;" glyph-name="icon-chevron-up" data-tags="icon-chevron-up" d="M512 558.327l-271.531-271.531c-16.662-16.661-43.677-16.661-60.34 0s-16.663 43.678 0 60.339l301.701 301.701c7.778 7.778 17.809 11.925 27.994 12.442 11.631 0.59 23.462-3.557 32.346-12.442l301.7-301.701c16.661-16.661 16.661-43.678 0-60.339-16.666-16.661-43.678-16.661-60.339 0l-271.531 271.531z" />
<glyph unicode="&#xe91d;" glyph-name="icon-circle-close" data-tags="icon-circle-close" d="M938.667 448c0 235.642-191.027 426.667-426.667 426.667-235.642 0-426.667-191.025-426.667-426.667 0-235.639 191.025-426.667 426.667-426.667 235.639 0 426.667 191.027 426.667 426.667zM853.333 448c0-188.514-152.819-341.333-341.333-341.333s-341.333 152.819-341.333 341.333c0 188.513 152.82 341.333 341.333 341.333s341.333-152.82 341.333-341.333zM361.152 598.85c16.663 16.662 43.677 16.662 60.34 0l90.508-90.511 90.509 90.511c16.666 16.662 43.678 16.662 60.343 0 16.661-16.663 16.661-43.677 0-60.34l-90.513-90.51 90.513-90.509c16.661-16.661 16.661-43.678 0-60.339-16.666-16.666-43.678-16.666-60.343 0l-90.509 90.509-90.508-90.509c-16.663-16.666-43.677-16.666-60.34 0-16.662 16.661-16.662 43.678 0 60.339l90.509 90.509-90.509 90.51c-16.662 16.663-16.662 43.677 0 60.34z" />
<glyph unicode="&#xe91e;" glyph-name="icon-circle-minus" data-tags="icon-circle-minus" d="M938.667 448c0 235.642-191.027 426.667-426.667 426.667-235.642 0-426.667-191.025-426.667-426.667 0-235.639 191.025-426.667 426.667-426.667 235.639 0 426.667 191.027 426.667 426.667zM853.333 448c0-188.514-152.819-341.333-341.333-341.333s-341.333 152.819-341.333 341.333c0 188.513 152.82 341.333 341.333 341.333s341.333-152.82 341.333-341.333zM341.333 490.667c-23.564 0-42.667-19.102-42.667-42.667s19.103-42.667 42.667-42.667h341.333c23.565 0 42.667 19.102 42.667 42.667s-19.102 42.667-42.667 42.667h-341.333z" />
<glyph unicode="&#xe91f;" glyph-name="icon-circle-plus" data-tags="icon-circle-plus" d="M938.667 448c0 235.642-191.027 426.667-426.667 426.667-235.642 0-426.667-191.025-426.667-426.667 0-235.639 191.025-426.667 426.667-426.667 235.639 0 426.667 191.027 426.667 426.667zM853.333 448c0-188.514-152.819-341.333-341.333-341.333s-341.333 152.819-341.333 341.333c0 188.513 152.82 341.333 341.333 341.333s341.333-152.82 341.333-341.333zM469.333 618.667c0 23.564 19.102 42.667 42.667 42.667s42.667-19.103 42.667-42.667v-128h128c23.565 0 42.667-19.102 42.667-42.667s-19.102-42.667-42.667-42.667h-128v-128c0-23.565-19.102-42.667-42.667-42.667s-42.667 19.102-42.667 42.667v128h-128c-23.564 0-42.667 19.102-42.667 42.667s19.103 42.667 42.667 42.667h128v128z" />
<glyph unicode="&#xe920;" glyph-name="icon-clock" data-tags="icon-clock" d="M938.667 448c0 235.642-191.027 426.667-426.667 426.667-235.642 0-426.667-191.025-426.667-426.667 0-235.639 191.025-426.667 426.667-426.667 235.639 0 426.667 191.027 426.667 426.667zM853.333 448c0-188.514-152.819-341.333-341.333-341.333s-341.333 152.819-341.333 341.333c0 188.513 152.82 341.333 341.333 341.333s341.333-152.82 341.333-341.333zM469.333 448c0-16.64 9.527-31.057 23.424-38.093l145.95-84.262c20.407-11.785 46.502-4.791 58.287 15.616 11.78 20.407 4.787 46.502-15.62 58.283l-126.707 73.156v188.634c0 23.564-19.102 42.667-42.667 42.667s-42.667-19.103-42.667-42.667v-213.333z" />
<glyph unicode="&#xe921;" glyph-name="icon-close" data-tags="icon-close" d="M240.472 719.529c-16.662-16.663-16.662-43.677 0-60.34l211.189-211.189-211.189-211.191c-16.662-16.661-16.662-43.674 0-60.339 16.663-16.661 43.677-16.661 60.34 0l211.188 211.191 211.191-211.191c16.661-16.661 43.678-16.661 60.339 0 16.661 16.666 16.661 43.678 0 60.343l-211.191 211.187 211.191 211.189c16.661 16.663 16.661 43.677 0 60.34s-43.678 16.663-60.339 0l-211.191-211.189-211.188 211.19c-16.663 16.662-43.677 16.662-60.34 0z" />
<glyph unicode="&#xe922;" glyph-name="icon-collapse" data-tags="icon-collapse" d="M938.667 448c0 235.642-191.027 426.667-426.667 426.667-235.642 0-426.667-191.025-426.667-426.667 0-235.639 191.025-426.667 426.667-426.667 235.639 0 426.667 191.027 426.667 426.667zM853.333 448c0-188.514-152.819-341.333-341.333-341.333s-341.333 152.819-341.333 341.333c0 188.513 152.82 341.333 341.333 341.333s341.333-152.82 341.333-341.333zM391.321 364.689l120.679 120.678 120.683-120.678c16.661-16.666 43.678-16.666 60.339 0 16.661 16.661 16.661 43.674 0 60.339l-150.852 150.848c-8.883 8.884-20.71 13.032-32.341 12.442-10.185-0.516-20.22-4.664-27.998-12.442l-150.849-150.848c-16.662-16.666-16.662-43.678 0-60.339 16.662-16.666 43.677-16.666 60.34 0z" />
<glyph unicode="&#xe923;" glyph-name="icon-download" data-tags="icon-download" d="M469.333 789.333c0 23.564 19.102 42.667 42.667 42.667s42.667-19.103 42.667-42.667v-366.327l138.355 138.353c16.661 16.662 43.674 16.662 60.339 0 16.661-16.662 16.661-43.676 0-60.342l-211.191-211.187c-4.070-4.070-8.764-7.151-13.769-9.233-5.052-2.103-10.59-3.264-16.401-3.264-5.739 0-11.213 1.135-16.213 3.187-5.077 2.082-9.835 5.188-13.956 9.31l-211.19 211.187c-16.663 16.666-16.663 43.679 0 60.342s43.677 16.662 60.34 0l138.353-138.353v366.327zM170.667 362.667c23.564 0 42.667-19.102 42.667-42.667v-128c0-23.565 19.103-42.667 42.667-42.667h512c23.565 0 42.667 19.102 42.667 42.667v128c0 23.565 19.102 42.667 42.667 42.667s42.667-19.102 42.667-42.667v-128c0-70.694-57.306-128-128-128h-512c-70.692 0-128 57.306-128 128v128c0 23.565 19.103 42.667 42.667 42.667z" />
<glyph unicode="&#xe924;" glyph-name="icon-edit" data-tags="icon-edit" d="M469.333 64c0 23.565 19.102 42.667 42.667 42.667h384c23.565 0 42.667-19.102 42.667-42.667s-19.102-42.667-42.667-42.667h-384c-23.565 0-42.667 19.102-42.667 42.667zM768 751.843c-12.689 0-24.858-5.041-33.83-14.013l-524.975-524.975-22.554-90.214 90.214 22.554 524.976 524.975c4.442 4.442 7.966 9.717 10.372 15.521 2.402 5.805 3.639 12.026 3.639 18.309s-1.237 12.504-3.639 18.309c-2.406 5.805-5.931 11.079-10.372 15.522s-9.715 7.967-15.522 10.371c-5.803 2.404-12.023 3.642-18.308 3.642zM673.83 798.17c24.977 24.975 58.85 39.006 94.17 39.006 17.489 0 34.807-3.444 50.965-10.137s30.839-16.503 43.204-28.869c12.369-12.367 22.178-27.048 28.868-43.206 6.694-16.158 10.138-33.475 10.138-50.964s-3.443-34.807-10.138-50.964c-6.69-16.157-16.499-30.839-28.868-43.205l-533.332-533.333c-5.468-5.47-12.32-9.348-19.822-11.221l-170.667-42.667c-14.54-3.635-29.921 0.623-40.518 11.221s-14.858 25.98-11.223 40.516l42.667 170.667c1.876 7.505 5.755 14.353 11.223 19.823l533.333 533.334z" />
<glyph unicode="&#xe925;" glyph-name="icon-email" data-tags="icon-email" d="M542.72 873.387c-259.84 18.347-474.453-196.267-456.106-456.107 15.36-225.707 212.48-395.947 438.613-395.947h157.44c23.467 0 42.667 19.2 42.667 42.667s-19.2 42.667-42.667 42.667h-156.587c-159.146 0-305.066 103.253-344.746 257.28-63.573 247.467 166.827 478.293 414.293 414.293 154.453-39.253 257.707-185.173 257.707-344.32v-46.933c0-33.707-30.293-66.987-64-66.987s-64 33.28-64 66.987v53.333c0 107.093-75.947 203.52-181.76 218.453-145.066 20.907-267.52-104.533-241.493-250.453 14.507-81.493 78.080-148.907 158.72-168.107 78.507-18.347 153.173 6.827 202.24 56.747 37.973-52.053 113.92-79.36 183.467-51.627 57.173 22.613 92.16 81.067 92.16 142.507v46.507c0 226.56-170.24 423.68-395.947 439.040zM512 320c-70.827 0-128 57.173-128 128s57.173 128 128 128c70.827 0 128-57.173 128-128s-57.173-128-128-128z" />
<glyph unicode="&#xe926;" glyph-name="icon-exit" data-tags="icon-exit" d="M512 789.333c0-23.564-19.102-42.667-42.667-42.667h-213.333c-23.564 0-42.667-19.103-42.667-42.667v-512c0-23.565 19.103-42.667 42.667-42.667h213.333c23.565 0 42.667-19.102 42.667-42.667s-19.102-42.667-42.667-42.667h-213.333c-70.692 0-128 57.306-128 128v512c0 70.692 57.308 128 128 128h213.333c23.565 0 42.667-19.103 42.667-42.667zM611.972 629.018l138.355-138.355h-366.327c-23.564 0-42.667-19.102-42.667-42.667 0-23.561 19.102-42.667 42.667-42.667h366.327l-138.355-138.355c-16.661-16.661-16.661-43.678 0-60.339 16.666-16.661 43.678-16.661 60.343 0l211.187 211.191c4.39 4.386 7.62 9.493 9.698 14.942 1.809 4.727 2.799 9.865 2.799 15.228 0 5.67-1.105 11.081-3.11 16.026-2.082 5.15-5.214 9.971-9.387 14.148l-211.187 211.188c-16.666 16.663-43.678 16.663-60.343 0-16.661-16.662-16.661-43.677 0-60.34z" />
<glyph unicode="&#xe927;" glyph-name="icon-expand" data-tags="icon-expand" d="M938.667 448c0 235.642-191.027 426.667-426.667 426.667-235.642 0-426.667-191.025-426.667-426.667 0-235.639 191.025-426.667 426.667-426.667 235.639 0 426.667 191.027 426.667 426.667zM853.333 448c0-188.514-152.819-341.333-341.333-341.333s-341.333 152.819-341.333 341.333c0 188.513 152.82 341.333 341.333 341.333s341.333-152.82 341.333-341.333zM481.83 320.316c8.333-8.333 19.251-12.497 30.17-12.497 2.475 0 4.945 0.213 7.386 0.64 8.346 1.459 16.341 5.41 22.784 11.857l150.852 150.848c16.661 16.661 16.661 43.678 0 60.339-16.661 16.663-43.678 16.663-60.339 0l-120.683-120.678-120.679 120.678c-16.662 16.663-43.677 16.663-60.34 0-16.662-16.661-16.662-43.678 0-60.339l150.849-150.848z" />
<glyph unicode="&#xe928;" glyph-name="icon-folder" data-tags="icon-folder" d="M213.333 832h213.333l128-128h256c70.694 0 128-57.308 128-128v-384c0-70.694-57.306-128-128-128h-597.333c-70.692 0-128 57.306-128 128v512c0 70.692 57.308 128 128 128zM170.667 576v-384c0-23.565 19.103-42.667 42.667-42.667h597.333c23.565 0 42.667 19.102 42.667 42.667v384c0 23.564-19.102 42.667-42.667 42.667h-597.333c-23.564 0-42.667-19.102-42.667-42.667z" />
<glyph unicode="&#xe929;" glyph-name="icon-home" data-tags="icon-home" d="M486.4 759.467l-256-192c-10.744-8.058-17.067-20.704-17.067-34.133v-341.333c0-23.565 19.103-42.667 42.667-42.667h128v213.333c0 70.694 57.306 128 128 128s128-57.31 128-128v-213.333h128c23.565 0 42.667 19.102 42.667 42.667v341.333c0 13.43-6.323 26.076-17.067 34.133l-256 192c-15.172 11.378-36.028 11.378-51.2 0zM554.667 234.667v128c0 23.565-19.102 42.667-42.667 42.667s-42.667-19.102-42.667-42.667v-213.333c0-47.13-38.204-85.333-85.333-85.333h-128c-70.692 0-128 57.306-128 128v341.333c0 40.289 18.969 78.227 51.2 102.4l256 192c45.513 34.133 108.087 34.133 153.6 0l256-192c32.23-24.173 51.2-62.111 51.2-102.4v-341.333c0-70.694-57.306-128-128-128h-128c-47.13 0-85.333 38.204-85.333 85.333v85.333z" />
<glyph unicode="&#xe92a;" glyph-name="icon-key" data-tags="icon-key" d="M458.982 440.678l99.345-99.345-89.681-89.681c-16.661-16.661-16.661-43.674 0-60.339 16.661-16.661 43.678-16.661 60.339 0l89.681 89.681 46.327-46.327-90.513-90.509c-16.661-16.661-16.661-43.678 0-60.339 16.666-16.666 43.678-16.666 60.343 0l90.509 90.509 33.203-33.203c16.661-16.661 43.678-16.661 60.339 0s16.661 43.678 0 60.339l-299.554 299.554c22.336 33.725 35.345 74.168 35.345 117.649 0 117.821-95.514 213.333-213.333 213.333s-213.333-95.513-213.333-213.333c0-117.82 95.513-213.333 213.333-213.333 43.481 0 83.923 13.009 117.649 35.345zM469.333 618.667c0-70.692-57.308-128-128-128s-128 57.308-128 128c0 70.692 57.308 128 128 128s128-57.308 128-128z" />
<glyph unicode="&#xe92b;" glyph-name="icon-label" data-tags="icon-label" d="M170.667 661.333c0 70.692 57.308 128 128 128h160.316c33.946 0 66.505-13.486 90.509-37.49l298.667-298.668c49.988-49.988 49.988-131.029 0-181.018l-160.316-160.316c-49.988-49.988-131.029-49.988-181.018 0l-298.668 298.667c-24.005 24.004-37.49 56.563-37.49 90.509v160.316zM362.667 533.333c35.346 0 64 28.654 64 64s-28.654 64-64 64c-35.346 0-64-28.654-64-64s28.654-64 64-64z" />
<glyph unicode="&#xe92c;" glyph-name="icon-location" data-tags="icon-location" d="M213.333 576c0 165.12 133.547 298.667 298.667 298.667s298.667-133.547 298.667-298.667c0-224-298.667-554.667-298.667-554.667s-298.667 330.667-298.667 554.667zM512 789.333c-117.76 0-213.333-95.573-213.333-213.333 0-121.6 124.587-307.627 213.333-421.547 90.453 114.773 213.333 298.667 213.333 421.547 0 117.76-95.573 213.333-213.333 213.333zM618.667 576c0-58.91-47.757-106.667-106.667-106.667s-106.667 47.757-106.667 106.667c0 58.91 47.757 106.667 106.667 106.667s106.667-47.756 106.667-106.667z" />
<glyph unicode="&#xe92d;" glyph-name="icon-lock-pass" data-tags="icon-lock-pass" d="M256 661.333c0 141.385 114.615 256 256 256s256-114.615 256-256v-42.667c70.694 0 128-57.308 128-128v-341.333c0-70.694-57.306-128-128-128h-512c-70.692 0-128 57.306-128 128v341.333c0 70.692 57.308 128 128 128v42.667zM341.333 533.333h-85.333c-23.564 0-42.667-19.102-42.667-42.667v-341.333c0-23.565 19.103-42.667 42.667-42.667h512c23.565 0 42.667 19.102 42.667 42.667v341.333c0 23.565-19.102 42.667-42.667 42.667h-426.667zM682.667 618.667v42.667c0 94.257-76.412 170.667-170.667 170.667-94.257 0-170.667-76.41-170.667-170.667v-42.667h341.333zM426.667 320c0-23.565-19.103-42.667-42.667-42.667s-42.667 19.102-42.667 42.667c0 23.565 19.103 42.667 42.667 42.667s42.667-19.102 42.667-42.667zM554.667 320c0-23.565-19.102-42.667-42.667-42.667s-42.667 19.102-42.667 42.667c0 23.565 19.102 42.667 42.667 42.667s42.667-19.102 42.667-42.667zM640 277.333c23.565 0 42.667 19.102 42.667 42.667s-19.102 42.667-42.667 42.667c-23.565 0-42.667-19.102-42.667-42.667s19.102-42.667 42.667-42.667z" />
<glyph unicode="&#xe92e;" glyph-name="icon-mail" data-tags="icon-mail" d="M85.333 661.333c0 70.692 57.308 128 128 128h597.333c70.694 0 128-57.308 128-128v-426.667c0-70.694-57.306-128-128-128h-597.333c-70.692 0-128 57.306-128 128v426.667zM170.667 661.333v-9.664l341.333-197.069 341.333 197.067v9.666c0 23.564-19.102 42.667-42.667 42.667h-597.333c-23.564 0-42.667-19.103-42.667-42.667zM170.667 553.135v-318.469c0-23.565 19.103-42.667 42.667-42.667h597.333c23.565 0 42.667 19.102 42.667 42.667v318.467l-319.339-184.369c-1.34-0.806-2.718-1.532-4.13-2.18-5.717-2.645-11.772-3.917-17.762-3.925-6.14-0.017-12.352 1.289-18.202 4.036-1.323 0.614-2.615 1.301-3.87 2.057l-319.364 184.384z" />
<glyph unicode="&#xe92f;" glyph-name="icon-monitor" data-tags="icon-monitor" d="M170.667 874.667h682.667c70.694 0 128-57.308 128-128v-426.667c0-70.694-57.306-128-128-128h-298.667v-85.333h128c23.565 0 42.667-19.102 42.667-42.667s-19.102-42.667-42.667-42.667h-341.333c-23.564 0-42.667 19.102-42.667 42.667s19.103 42.667 42.667 42.667h128v85.333h-298.667c-70.692 0-128 57.306-128 128v426.667c0 70.692 57.308 128 128 128zM170.667 789.333c-23.564 0-42.667-19.102-42.667-42.667v-426.667c0-23.565 19.103-42.667 42.667-42.667h682.667c23.565 0 42.667 19.102 42.667 42.667v426.667c0 23.564-19.102 42.667-42.667 42.667h-682.667z" />
<glyph unicode="&#xe930;" glyph-name="icon-payment" data-tags="icon-payment" d="M341.333 789.333c90.667 0 164.826-70.704 170.338-159.984l-1.813 1.814c-49.988 49.987-131.033 49.987-181.020 0s-49.987-131.033 0-181.021l1.815-1.813c-89.281 5.513-159.986 79.667-159.986 170.338 0 94.257 76.41 170.667 170.667 170.667zM341.333 362.667c22.933 0 45.161 3.017 66.31 8.67l112.122-112.119c-4.894-6.942-7.765-15.411-7.765-24.55v-170.667c0-23.565 19.102-42.667 42.667-42.667h341.333c23.565 0 42.667 19.102 42.667 42.667v170.667c0 19.392-12.937 35.759-30.647 40.951 1.276 7.091 2.206 14.319 2.769 21.662l19.844 257.988c6.157 80.009-44.262 153.499-121.122 176.558l-185.907 55.773c-31.074 9.322-62.554 9.351-91.563 1.857-46.874 52.303-114.947 85.211-190.707 85.211-141.385 0-256-114.615-256-256s114.615-256 256-256zM594.594 656.247c-2.705 18.383-7.364 36.131-13.756 53.025 6.042-0.46 12.147-1.579 18.244-3.408l185.907-55.773c38.43-11.529 63.637-48.274 60.561-88.279l-19.844-257.988c-0.708-9.216-2.355-18.065-4.826-26.487l-198.554-0.004-233.15 233.152c-16.663 16.661-16.663 43.676 0 60.338s43.676 16.662 60.341 0l152.99-152.993c16.666-16.661 43.678-16.661 60.343 0 16.661 16.661 16.661 43.678 0 60.339l-74.189 74.188c3.025 11.31 5.295 22.929 6.75 34.799 1.271 10.335 1.924 20.852 1.924 31.512 0 12.76-0.934 25.308-2.743 37.578zM597.333 106.667v85.333h256v-85.333h-256z" />
<glyph unicode="&#xe931;" glyph-name="icon-phone" data-tags="icon-phone" d="M213.333 746.667v-597.333c0-70.694 57.308-128 128-128h341.333c70.694 0 128 57.306 128 128v597.333c0 70.692-57.306 128-128 128h-341.333c-70.692 0-128-57.308-128-128zM298.667 746.667c0 23.564 19.103 42.667 42.667 42.667h341.333c23.565 0 42.667-19.103 42.667-42.667v-597.333c0-23.565-19.102-42.667-42.667-42.667h-341.333c-23.564 0-42.667 19.102-42.667 42.667v597.333zM512 192c23.565 0 42.667 19.102 42.667 42.667s-19.102 42.667-42.667 42.667c-23.565 0-42.667-19.102-42.667-42.667s19.102-42.667 42.667-42.667z" />
<glyph unicode="&#xe932;" glyph-name="icon-print" data-tags="icon-print" d="M810.667 746.667c0 70.692-57.306 128-128 128h-341.333c-70.693 0-128-57.307-128-128v-128c-70.693 0-128-57.308-128-128v-256c0-70.694 57.307-128 128-128v85.333c-23.564 0-42.667 19.102-42.667 42.667v256c0 23.565 19.103 42.667 42.667 42.667h597.333c23.565 0 42.667-19.102 42.667-42.667v-256c0-23.565-19.102-42.667-42.667-42.667v128h-597.333v-213.333c0-70.694 57.308-128 128-128h341.333c70.694 0 128 57.306 128 128 70.694 0 128 57.306 128 128v256c0 70.692-57.306 128-128 128v128zM725.333 618.667h-426.667v128c0 23.564 19.102 42.667 42.667 42.667h341.333c23.565 0 42.667-19.102 42.667-42.667v-128zM725.333 106.667c0-23.565-19.102-42.667-42.667-42.667h-341.333c-23.564 0-42.667 19.102-42.667 42.667v128h426.667v-128zM768 405.333c23.565 0 42.667 19.102 42.667 42.667s-19.102 42.667-42.667 42.667c-23.565 0-42.667-19.102-42.667-42.667s19.102-42.667 42.667-42.667z" />
<glyph unicode="&#xe933;" glyph-name="icon-refresh" data-tags="icon-refresh" d="M213.333 448c0 164.949 133.718 298.667 298.667 298.667 101.44 0 191.117-50.554 245.141-128h-117.141c-23.565 0-42.667-19.103-42.667-42.667s19.102-42.667 42.667-42.667h213.333c23.565 0 42.667 19.103 42.667 42.667v213.333c0 23.564-19.102 42.667-42.667 42.667s-42.667-19.103-42.667-42.667v-99.962c-70.357 86.947-177.993 142.628-298.667 142.628-212.077 0-384-171.923-384-384 0-212.079 171.923-384 384-384 144.636 0 270.528 79.979 335.974 197.922 11.435 20.604 3.998 46.575-16.606 58.010s-46.575 3.998-58.010-16.606c-51.012-91.93-148.966-153.993-261.359-153.993-164.949 0-298.667 133.717-298.667 298.667z" />
<glyph unicode="&#xe934;" glyph-name="icon-remove" data-tags="icon-remove" d="M213.333 490.667h597.333c23.564 0 42.667-19.103 42.667-42.667s-19.103-42.667-42.667-42.667h-597.333c-23.564 0-42.667 19.103-42.667 42.667s19.103 42.667 42.667 42.667z" />
<glyph unicode="&#xe935;" glyph-name="icon-search" data-tags="icon-search" d="M635.972 263.684l185.045-185.045c16.666-16.661 43.678-16.661 60.343 0 16.661 16.666 16.661 43.678 0 60.343l-185.045 185.045c44.928 57.796 71.684 130.428 71.684 209.306 0 188.513-152.819 341.333-341.333 341.333s-341.333-152.82-341.333-341.333c0-188.514 152.82-341.333 341.333-341.333 78.878 0 151.509 26.756 209.306 71.684zM682.667 533.333c0-141.385-114.615-256-256-256s-256 114.615-256 256c0 141.385 114.615 256 256 256s256-114.615 256-256z" />
<glyph unicode="&#xe936;" glyph-name="icon-settings" data-tags="icon-settings" d="M512 874.667c-29.133 0-57.63-2.927-85.193-8.515-11.841-2.401-22.109-9.709-28.256-20.111s-7.594-22.922-3.984-34.452c5.169-16.511-2.991-34.622-19.27-41.532-16.273-6.908-34.963-0.204-43.254 14.974-5.789 10.599-15.799 18.248-27.547 21.050s-24.132 0.493-34.082-6.353c-43.106-29.659-80.48-67.032-110.138-110.138-6.846-9.95-9.155-22.335-6.353-34.083s10.451-21.758 21.050-27.548c15.178-8.29 21.882-26.98 14.974-43.254-6.91-16.279-25.021-24.439-41.533-19.27-11.53 3.61-24.050 2.163-34.453-3.983s-17.711-16.414-20.112-28.255c-5.589-27.563-8.516-56.060-8.516-85.197 0-29.133 2.927-57.63 8.515-85.193 2.401-11.844 9.71-22.11 20.112-28.258 10.402-6.144 22.923-7.59 34.453-3.981 16.512 5.167 34.623-2.991 41.533-19.273 6.908-16.273 0.204-34.961-14.975-43.251-10.599-5.79-18.249-15.799-21.050-27.55-2.801-11.746-0.493-24.132 6.353-34.082 29.659-43.106 67.033-80.478 110.139-110.14 9.95-6.844 22.335-9.152 34.083-6.353 11.748 2.803 21.758 10.453 27.547 21.052 8.29 15.181 26.98 21.884 43.254 14.976 16.28-6.912 24.44-25.024 19.27-41.536-3.61-11.529-2.163-24.047 3.983-34.453 6.146-10.402 16.414-17.711 28.256-20.109 27.563-5.589 56.060-8.516 85.193-8.516 29.137 0 57.63 2.927 85.197 8.516 11.84 2.402 22.11 9.711 28.254 20.113 6.148 10.402 7.595 22.921 3.985 34.453-5.171 16.508 2.991 34.62 19.268 41.532 16.273 6.908 34.965 0.205 43.255-14.976 5.79-10.598 15.799-18.249 27.546-21.047 11.75-2.803 24.132-0.495 34.082 6.353 43.106 29.658 80.482 67.029 110.14 110.14 6.848 9.95 9.156 22.332 6.353 34.082-2.803 11.746-10.449 21.756-21.047 27.546-15.181 8.29-21.884 26.978-14.976 43.251 6.912 16.282 25.020 24.439 41.532 19.273 11.533-3.61 24.051-2.163 34.453 3.985 10.402 6.144 17.711 16.414 20.109 28.254 5.589 27.563 8.516 56.060 8.516 85.193 0 29.137-2.927 57.63-8.516 85.197-2.398 11.84-9.707 22.107-20.109 28.253s-22.925 7.594-34.453 3.984c-16.512-5.169-34.624 2.991-41.532 19.27-6.908 16.273-0.205 34.963 14.972 43.253 10.598 5.789 18.249 15.8 21.052 27.547 2.799 11.748 0.491 24.133-6.353 34.082-29.662 43.106-67.034 80.479-110.14 110.138-9.95 6.846-22.332 9.154-34.082 6.353-11.746-2.801-21.756-10.45-27.546-21.049-8.29-15.177-26.982-21.881-43.255-14.973-16.277 6.91-24.439 25.021-19.268 41.533 3.61 11.53 2.163 24.050-3.985 34.452-6.144 10.402-16.414 17.711-28.254 20.112-27.567 5.589-56.060 8.515-85.197 8.515zM408.64 691.506c41.041 17.422 67.277 55.073 72.030 96.411 10.308 0.937 20.757 1.416 31.33 1.416s21.022-0.479 31.334-1.416c4.753-41.338 30.985-78.991 72.030-96.412 41.037-17.419 86.336-10.139 119.373 15.148 12.838-11.069 24.849-23.077 35.917-35.918-25.289-33.037-32.567-78.337-15.147-119.374 17.421-41.043 55.070-67.274 96.41-72.027 0.939-10.313 1.417-20.762 1.417-31.334s-0.478-21.022-1.417-31.33c-41.335-4.753-78.989-30.989-96.41-72.030-17.421-41.037-10.138-86.336 15.147-119.373-11.068-12.843-23.074-24.849-35.917-35.921-33.037 25.289-78.336 32.572-119.377 15.151s-67.277-55.074-72.026-96.414c-10.313-0.939-20.762-1.417-31.334-1.417-10.569 0-21.022 0.478-31.33 1.417-4.753 41.34-30.985 78.993-72.029 96.414-41.038 17.421-86.339 10.138-119.377-15.151-12.841 11.068-24.849 23.078-35.918 35.917 25.289 33.037 32.57 78.34 15.15 119.377-17.422 41.045-55.075 67.277-96.414 72.030-0.937 10.308-1.416 20.757-1.416 31.33s0.48 21.022 1.416 31.334c41.339 4.753 78.992 30.985 96.414 72.028 17.42 41.037 10.139 86.338-15.149 119.375 11.069 12.841 23.077 24.849 35.918 35.917 33.037-25.288 78.338-32.568 119.375-15.149zM682.667 448c0 94.257-76.412 170.667-170.667 170.667-94.257 0-170.667-76.41-170.667-170.667 0-94.255 76.41-170.667 170.667-170.667 94.255 0 170.667 76.412 170.667 170.667zM597.333 448c0-47.13-38.204-85.333-85.333-85.333s-85.333 38.204-85.333 85.333c0 47.13 38.204 85.333 85.333 85.333s85.333-38.204 85.333-85.333z" />
<glyph unicode="&#xe937;" glyph-name="icon-share" data-tags="icon-share" d="M768 273.92c-32.427 0-61.44-12.8-83.627-32.853l-304.213 177.067c2.133 9.813 3.84 19.627 3.84 29.867s-1.707 20.053-3.84 29.867l300.8 175.36c23.040-21.333 53.333-34.56 87.040-34.56 70.827 0 128 57.173 128 128s-57.173 128-128 128c-70.827 0-128-57.173-128-128 0-10.24 1.707-20.053 3.84-29.867l-300.8-175.36c-23.040 21.333-53.333 34.56-87.040 34.56-70.827 0-128-57.173-128-128s57.173-128 128-128c33.707 0 64 13.227 87.040 34.56l303.787-177.493c-2.133-8.96-3.413-18.347-3.413-27.733 0-68.693 55.893-124.587 124.587-124.587s124.587 55.893 124.587 124.587c0 68.693-55.893 124.587-124.587 124.587zM768 789.333c23.467 0 42.667-19.2 42.667-42.667s-19.2-42.667-42.667-42.667c-23.467 0-42.667 19.2-42.667 42.667s19.2 42.667 42.667 42.667zM256 405.333c-23.467 0-42.667 19.2-42.667 42.667s19.2 42.667 42.667 42.667c23.467 0 42.667-19.2 42.667-42.667s-19.2-42.667-42.667-42.667zM768 105.813c-23.467 0-42.667 19.2-42.667 42.667s19.2 42.667 42.667 42.667c23.467 0 42.667-19.2 42.667-42.667s-19.2-42.667-42.667-42.667z" />
<glyph unicode="&#xe938;" glyph-name="icon-shoping-bag" data-tags="icon-shoping-bag" d="M512 832c70.694 0 128-57.308 128-128v-85.333h-256v85.333c0 70.692 57.306 128 128 128zM725.333 618.667v85.333c0 117.821-95.514 213.333-213.333 213.333s-213.333-95.513-213.333-213.333v-85.333h-42.667c-70.692 0-128-57.308-128-128v-341.333c0-70.694 57.308-128 128-128h512c70.694 0 128 57.306 128 128v341.333c0 70.692-57.306 128-128 128h-42.667zM640 533.333v-78.221c0-27.494 19.102-49.779 42.667-49.779s42.667 22.285 42.667 49.779v78.221h42.667c23.565 0 42.667-19.102 42.667-42.667v-341.333c0-23.565-19.102-42.667-42.667-42.667h-512c-23.564 0-42.667 19.102-42.667 42.667v341.333c0 23.565 19.103 42.667 42.667 42.667h42.667v-85.333c0-23.565 19.103-42.667 42.667-42.667s42.667 19.102 42.667 42.667v85.333h256z" />
<glyph unicode="&#xe939;" glyph-name="icon-trash" data-tags="icon-trash" d="M298.667 789.333v-42.667h-170.667c-23.564 0-42.667-19.103-42.667-42.667s19.103-42.667 42.667-42.667h42.667v-554.667c0-70.694 57.308-128 128-128h426.667c70.694 0 128 57.306 128 128v554.667h42.667c23.565 0 42.667 19.103 42.667 42.667s-19.102 42.667-42.667 42.667h-170.667v42.667c0 70.692-57.306 128-128 128h-170.667c-70.692 0-128-57.308-128-128zM640 789.333v-42.667h-256v42.667c0 23.564 19.103 42.667 42.667 42.667h170.667c23.565 0 42.667-19.103 42.667-42.667zM256 661.333h512v-554.667c0-23.565-19.102-42.667-42.667-42.667h-426.667c-23.564 0-42.667 19.102-42.667 42.667v554.667zM384 490.667c0 23.565 19.103 42.667 42.667 42.667s42.667-19.102 42.667-42.667v-256c0-23.565-19.102-42.667-42.667-42.667s-42.667 19.102-42.667 42.667v256zM554.667 490.667c0 23.565 19.102 42.667 42.667 42.667s42.667-19.102 42.667-42.667v-256c0-23.565-19.102-42.667-42.667-42.667s-42.667 19.102-42.667 42.667v256z" />
<glyph unicode="&#xe93a;" glyph-name="icon-unlock-pass" data-tags="icon-unlock-pass" d="M512 917.333c141.385 0 256-114.615 256-256v-42.667c70.694 0 128-57.308 128-128v-341.333c0-70.694-57.306-128-128-128h-512c-70.692 0-128 57.306-128 128v341.333c0 70.692 57.308 128 128 128v0.001h426.666v42.667c0 94.257-76.412 170.667-170.667 170.667-63.172 0-118.325-34.321-147.834-85.333h-93.599c35.143 99.43 129.969 170.667 241.433 170.667zM256 533.333v0c-23.564 0-42.667-19.102-42.667-42.667v-341.333c0-23.565 19.103-42.667 42.667-42.667h512c23.565 0 42.667 19.102 42.667 42.667v341.333c0 23.565-19.102 42.667-42.667 42.667h-512zM426.667 320c0-23.565-19.103-42.667-42.667-42.667s-42.667 19.102-42.667 42.667c0 23.565 19.103 42.667 42.667 42.667s42.667-19.102 42.667-42.667zM554.667 320c0-23.565-19.102-42.667-42.667-42.667s-42.667 19.102-42.667 42.667c0 23.565 19.102 42.667 42.667 42.667s42.667-19.102 42.667-42.667zM640 277.333c23.565 0 42.667 19.102 42.667 42.667s-19.102 42.667-42.667 42.667c-23.565 0-42.667-19.102-42.667-42.667s19.102-42.667 42.667-42.667z" />
<glyph unicode="&#xe93b;" glyph-name="icon-upload" data-tags="icon-upload" d="M330.98 547.974l138.353 138.354v-366.328c0-23.565 19.102-42.667 42.667-42.667s42.667 19.102 42.667 42.667v366.327l138.351-138.353c16.666-16.663 43.678-16.663 60.343 0 16.661 16.662 16.661 43.677 0 60.34l-211.191 211.189c-4.122 4.121-8.875 7.222-13.948 9.305-5.001 2.057-10.479 3.192-16.222 3.192-5.675 0-11.089-1.108-16.043-3.119-5.141-2.083-9.958-5.209-14.127-9.378l-211.191-211.189c-16.662-16.663-16.662-43.677 0-60.34s43.677-16.663 60.34 0zM170.667 362.667c23.564 0 42.667-19.102 42.667-42.667v-128c0-23.565 19.103-42.667 42.667-42.667h512c23.565 0 42.667 19.102 42.667 42.667v128c0 23.565 19.102 42.667 42.667 42.667s42.667-19.102 42.667-42.667v-128c0-70.694-57.306-128-128-128h-512c-70.692 0-128 57.306-128 128v128c0 23.565 19.103 42.667 42.667 42.667z" />
<glyph unicode="&#xe93c;" glyph-name="icon-user" data-tags="icon-user" d="M725.333 661.333c0 117.821-95.514 213.333-213.333 213.333s-213.333-95.513-213.333-213.333c0-117.821 95.513-213.333 213.333-213.333s213.333 95.513 213.333 213.333zM640 661.333c0-70.692-57.306-128-128-128s-128 57.308-128 128c0 70.692 57.306 128 128 128s128-57.308 128-128zM128 21.333c0 188.514 152.82 341.333 341.333 341.333h85.333c188.514 0 341.333-152.819 341.333-341.333h-85.333c0 141.385-114.615 256-256 256h-85.333c-141.385 0-256-114.615-256-256h-85.333z" />
<glyph unicode="&#xe93d;" glyph-name="icon-visibility" data-tags="icon-visibility" d="M187.5 431.667c-4.053 6.080-7.533 11.575-10.438 16.333 2.905 4.757 6.385 10.253 10.438 16.333 14.844 22.263 37.11 51.938 66.669 81.497 59.349 59.35 145.137 115.503 257.83 115.503 112.691 0 198.481-56.154 257.83-115.503 29.559-29.559 51.823-59.234 66.667-81.497 4.053-6.080 7.535-11.575 10.441-16.333-2.906-4.757-6.387-10.253-10.441-16.333-14.844-22.263-37.107-51.938-66.667-81.498-59.349-59.349-145.139-115.503-257.83-115.503-112.693 0-198.481 56.154-257.83 115.503-29.559 29.559-51.825 59.234-66.669 81.498zM896 448l38.144 19.115c0.009-0.017 0.017-0.034-38.144-19.115zM934.144 428.885c6.007 12.011 6.007 26.219 0 38.229l-0.064 0.132-0.132 0.26-0.41 0.798c-0.175 0.341-0.388 0.747-0.636 1.216-0.222 0.427-0.474 0.905-0.755 1.434-1.186 2.219-2.884 5.333-5.103 9.216-4.429 7.753-10.94 18.594-19.546 31.497-17.156 25.735-42.889 60.062-77.329 94.503-68.651 68.65-174.865 140.497-318.17 140.497-143.308 0-249.52-71.846-318.17-140.497-34.441-34.441-60.175-68.768-77.331-94.503-8.602-12.902-15.114-23.744-19.544-31.497-2.217-3.883-3.917-6.997-5.102-9.216-0.592-1.114-1.056-2.001-1.392-2.65l-0.407-0.798-0.132-0.26-0.048-0.094-0.019-0.038c-6.006-12.011-6.022-26.185-0.017-38.195l0.036-0.073 0.048-0.094 0.132-0.26 0.407-0.798c0.336-0.649 0.8-1.536 1.392-2.65 1.185-2.219 2.886-5.333 5.102-9.216 4.431-7.753 10.942-18.594 19.544-31.497 17.156-25.737 42.89-60.062 77.331-94.502 68.651-68.651 174.863-140.497 318.17-140.497 143.305 0 249.519 71.846 318.17 140.497 34.441 34.441 60.173 68.766 77.329 94.502 8.606 12.902 15.117 23.744 19.546 31.497 2.219 3.883 3.917 6.997 5.103 9.216 0.593 1.114 1.058 2.001 1.391 2.65l0.41 0.798 0.132 0.26 0.064 0.132zM934.144 428.885l-38.144 19.115c38.161-19.081 38.153-19.098 38.144-19.115zM128 448c-38.162 19.081-38.154 19.098-38.146 19.115l38.146-19.115zM127.956 447.979c-37.843-18.923-38.125-19.042-38.119-19.059l38.119 19.059zM682.667 448c0 94.257-76.412 170.667-170.667 170.667-94.257 0-170.667-76.41-170.667-170.667 0-94.255 76.41-170.667 170.667-170.667 94.255 0 170.667 76.412 170.667 170.667zM597.333 448c0-47.13-38.204-85.333-85.333-85.333s-85.333 38.204-85.333 85.333c0 47.13 38.204 85.333 85.333 85.333s85.333-38.204 85.333-85.333z" />
<glyph unicode="&#xe93e;" glyph-name="icon-visibility-off" data-tags="icon-visibility-off" d="M158.17 862.17c-16.663 16.662-43.677 16.662-60.34 0s-16.662-43.677 0-60.34l148.963-148.962c-47.474-36.632-83.828-77.836-109.297-111.616-15.552-20.628-27.267-38.783-35.171-51.929-3.957-6.579-6.973-11.93-9.051-15.735-1.039-1.903-1.845-3.422-2.417-4.518l-0.684-1.327-0.211-0.414-0.113-0.226c-6.006-12.011-6-26.202 0.006-38.217l0.020-0.038 0.048-0.094 0.132-0.26 0.407-0.794c0.335-0.653 0.8-1.54 1.392-2.654 1.185-2.219 2.885-5.333 5.102-9.212 4.43-7.757 10.942-18.598 19.544-31.501 17.156-25.732 42.89-60.062 77.331-94.502 68.651-68.651 174.863-140.497 318.17-140.497 73.498 0 137.459 18.965 191.552 46.775l162.278-162.278c16.661-16.661 43.678-16.661 60.339 0s16.661 43.678 0 60.339l-182.332 182.336c-1.707 2.057-3.58 3.917-5.585 5.581l-580.083 580.084zM89.853 428.885c0 0-0.016 0.034 38.146 19.115l-38.146-19.115zM128 448c-38.162 19.081-38.152 19.102-38.152 19.102l38.152-19.102zM205.633 489.877c23.992 31.825 58.122 69.895 102.099 102.051l57.231-57.231c-15.014-25.411-23.63-55.047-23.63-86.697 0-94.255 76.41-170.667 170.667-170.667 31.65 0 61.291 8.614 86.699 23.629l40.683-40.683c-37.692-15.77-80.094-25.613-127.381-25.613-112.693 0-198.481 56.154-257.831 115.503-29.559 29.559-51.825 59.234-66.669 81.498-4.053 6.080-7.533 11.575-10.438 16.333 6.598 10.799 16.128 25.374 28.571 41.877zM534.101 365.555c-7.049-1.882-14.455-2.889-22.101-2.889-47.13 0-85.333 38.204-85.333 85.333 0 7.646 1.007 15.053 2.889 22.101l104.546-104.546zM495.68 660.935c5.397 0.263 10.863 0.398 16.41 0.398 112.691 0 198.481-56.154 257.83-115.503 29.559-29.559 51.827-59.234 66.667-81.497 4.053-6.080 7.535-11.575 10.441-16.333l-1.574-2.56c-8.802-14.195-22.123-33.98-39.927-55.808-14.895-18.257-12.164-45.137 6.097-60.028 18.261-14.895 45.137-12.164 60.032 6.097 20.531 25.169 35.955 48.051 46.323 64.777 5.193 8.375 9.139 15.245 11.849 20.134 1.353 2.445 2.398 4.399 3.136 5.803l0.875 1.685 0.265 0.521 0.090 0.179 0.055 0.107c6.003 12.011 5.995 26.197-0.013 38.208l-0.064 0.132-0.132 0.26-0.41 0.798c-0.333 0.649-0.798 1.536-1.391 2.65-1.186 2.219-2.884 5.333-5.103 9.216-4.429 7.753-10.94 18.594-19.546 31.497-17.156 25.735-42.889 60.062-77.329 94.503-68.651 68.65-174.861 140.497-318.17 140.497-6.933 0-13.786-0.169-20.561-0.499-23.539-1.147-41.69-21.157-40.542-44.693s21.158-41.686 44.693-40.539zM896.090 448c38.161-19.081 38.157-19.093 38.157-19.093l-38.157 19.093zM934.234 467.115c0 0 0.017-0.034-38.144-19.115l38.144 19.115z" />
<glyph unicode="&#xe93f;" glyph-name="icon-wallet" data-tags="icon-wallet" d="M213.333 832h597.333c70.694 0 128-57.308 128-128v-75.259c26.185-23.438 42.667-57.498 42.667-95.407v-170.667c0-37.909-16.482-71.97-42.667-95.407v-75.26c0-70.694-57.306-128-128-128h-597.333c-70.692 0-128 57.306-128 128v512c0 70.692 57.308 128 128 128zM853.333 661.333v42.667c0 23.564-19.102 42.667-42.667 42.667h-597.333c-23.564 0-42.667-19.103-42.667-42.667v-512c0-23.565 19.103-42.667 42.667-42.667h597.333c23.565 0 42.667 19.102 42.667 42.667v42.667h-298.667c-117.82 0-213.333 95.514-213.333 213.333s95.514 213.333 213.333 213.333h298.667zM554.667 576c-70.694 0-128-57.306-128-128s57.306-128 128-128h298.667c23.565 0 42.667 19.102 42.667 42.667v170.667c0 23.564-19.102 42.667-42.667 42.667h-298.667zM512 448c0 23.565 19.102 42.667 42.667 42.667h85.333c23.565 0 42.667-19.102 42.667-42.667s-19.102-42.667-42.667-42.667h-85.333c-23.565 0-42.667 19.102-42.667 42.667z" />
<glyph unicode="&#xe940;" glyph-name="icon-warning1" data-tags="icon-warning" d="M0 448c0-282.77 229.23-512 512-512s512 229.23 512 512c0 282.77-229.23 512-512 512s-512-229.23-512-512zM597.333 789.333v-341.333h-170.667v341.333h170.667zM597.333 106.667h-170.667v170.667h170.667v-170.667z" />
<glyph unicode="&#xe941;" glyph-name="icon-valid" data-tags="icon-valid" d="M512 960c282.77 0 512-229.23 512-512s-229.23-512-512-512c-282.77 0-512 229.23-512 512s229.23 512 512 512zM136.535 430.933l301.699-301.701 440.477 440.48-120.677 120.679-319.799-319.799-181.020 181.021-120.68-120.68z" />
<glyph unicode="&#xe942;" glyph-name="icon-circle-minus1" data-tags="icon-circle-minus" d="M512-64c-282.77 0-512 229.23-512 512s229.23 512 512 512c282.77 0 512-229.23 512-512s-229.23-512-512-512zM768 533.333h-512v-170.667h512v170.667z" />
<glyph unicode="&#xe943;" glyph-name="icon-circle-close1" data-tags="icon-circle-close" d="M1024 448c0 282.77-229.23 512-512 512s-512-229.23-512-512c0-282.77 229.23-512 512-512s512 229.23 512 512zM632.679 448l181.019-181.019-120.679-120.679-181.019 181.019-181.019-181.019-120.679 120.679 181.019 181.019-181.019 181.019 120.679 120.679 181.019-181.019 181.019 181.019 120.679-120.679-181.019-181.019z" />
<glyph unicode="&#xe944;" glyph-name="icon-more" data-tags="icon-more" d="M597.333 704c0-47.128-38.204-85.333-85.333-85.333s-85.333 38.205-85.333 85.333c0 47.128 38.204 85.333 85.333 85.333s85.333-38.205 85.333-85.333zM597.333 448c0-47.13-38.204-85.333-85.333-85.333s-85.333 38.204-85.333 85.333c0 47.13 38.204 85.333 85.333 85.333s85.333-38.204 85.333-85.333zM512 106.667c47.13 0 85.333 38.204 85.333 85.333s-38.204 85.333-85.333 85.333c-47.13 0-85.333-38.204-85.333-85.333s38.204-85.333 85.333-85.333z" />
<glyph unicode="&#xe945;" glyph-name="icon-floppy" data-tags="icon-floppy" d="M213.333 789.333h42.667v-42.667c0-70.692 57.308-128 128-128h170.667c70.694 0 128 57.308 128 128v42.667h7.322c11.315 0 22.165-4.495 30.17-12.497l120.678-120.68c8-8.002 12.497-18.854 12.497-30.17v-476.654c0-23.565-19.102-42.667-42.667-42.667h-42.667v213.333c0 70.694-57.306 128-128 128h-256c-70.692 0-128-57.306-128-128v-213.333h-42.667c-23.564 0-42.667 19.102-42.667 42.667v597.333c0 23.564 19.103 42.667 42.667 42.667zM256 874.667h-42.667c-70.692 0-128-57.308-128-128v-597.333c0-70.694 57.308-128 128-128h597.333c70.694 0 128 57.306 128 128v476.654c0 33.948-13.487 66.505-37.491 90.51l-120.678 120.68c-24.004 24.005-56.563 37.49-90.509 37.49h-433.988zM341.333 789.333h256v-42.667c0-23.564-19.102-42.667-42.667-42.667h-170.667c-23.564 0-42.667 19.103-42.667 42.667v42.667zM682.667 106.667h-341.333v213.333c0 23.565 19.103 42.667 42.667 42.667h256c23.565 0 42.667-19.102 42.667-42.667v-213.333z" />
<glyph unicode="&#xe946;" glyph-name="icon-lightbulb" data-tags="icon-lightbulb" d="M512 789.333c-117.821 0-213.333-95.513-213.333-213.333 0-52.924 21.105-103.851 53.862-141.687 14.984-15.266 27.389-27.908 36.95-38.733 9.839-11.136 18.595-22.455 24.973-35.452 12.322-25.109 12.275-50.667 12.224-77.534l-0.009-5.261v-42.667h170.667v42.667l-0.009 5.261c-0.051 26.867-0.098 52.425 12.224 77.534 6.379 12.996 15.134 24.316 24.973 35.452 9.574 10.837 22.003 23.501 37.013 38.797 33.011 37.781 53.798 88.171 53.798 141.623 0 117.821-95.514 213.333-213.333 213.333zM213.333 576c0 164.949 133.718 298.667 298.667 298.667s298.667-133.718 298.667-298.667c0-76.015-29.623-146.513-75.861-198.899l-0.751-0.849-0.789-0.806c-16.021-16.324-26.871-27.396-34.786-36.361-7.829-8.862-10.85-13.542-12.322-16.546-2.581-5.257-3.49-10.005-3.49-45.205v-42.667c0-47.13-38.204-85.333-85.333-85.333h-170.667c-47.128 0-85.333 38.204-85.333 85.333v42.667c0 35.2-0.911 39.949-3.488 45.205-1.474 3.004-4.495 7.684-12.323 16.546-7.917 8.964-18.764 20.036-34.787 36.361l-0.854 0.87-0.803 0.917c-45.62 52.126-75.745 123.029-75.745 198.767zM384 64c0 23.565 19.103 42.667 42.667 42.667h170.667c23.565 0 42.667-19.102 42.667-42.667s-19.102-42.667-42.667-42.667h-170.667c-23.564 0-42.667 19.102-42.667 42.667zM568.875 736.966c-22.217 7.852-46.592-3.792-54.447-26.010-7.851-22.217 3.793-46.594 26.010-54.446 24.218-8.559 43.482-27.825 52.041-52.041 7.855-22.217 32.23-33.862 54.447-26.009s33.865 32.229 26.010 54.447c-17.148 48.523-55.535 86.909-104.060 104.059z" />
<glyph unicode="&#xe947;" glyph-name="icon-clone" data-tags="icon-clone" d="M426.667 832c-23.564 0-42.667-19.103-42.667-42.667v-512c0-23.565 19.103-42.667 42.667-42.667h341.333c23.565 0 42.667 19.102 42.667 42.667v298.667h-128c-70.694 0-128 57.308-128 128v128h-128zM640 771.66l110.327-110.327h-67.661c-23.565 0-42.667 19.103-42.667 42.667v67.66zM298.667 789.333c0 70.692 57.308 128 128 128h135.322c33.946 0 66.505-13.486 90.509-37.49l206.012-206.013c24.004-24.005 37.491-56.562 37.491-90.51v-305.987c0-70.694-57.306-128-128-128h-341.333c-70.692 0-128 57.306-128 128v512zM682.667-21.333c23.565 0 42.667 19.102 42.667 42.667s-19.102 42.667-42.667 42.667h-426.667c-23.564 0-42.667 19.102-42.667 42.667v597.333c0 23.564-19.102 42.667-42.667 42.667s-42.667-19.103-42.667-42.667v-597.333c0-70.694 57.308-128 128-128h426.667z" />
<glyph unicode="&#xe948;" glyph-name="icon-filter" data-tags="icon-filter" d="M298.656 704c0 23.552 19.104 42.656 42.656 42.656s42.656-19.104 42.656-42.656c0-23.552-19.104-42.656-42.656-42.656s-42.656 19.104-42.656 42.656zM220.608 661.344c17.568-49.728 64.992-85.344 120.704-85.344 70.688 0 128 57.312 128 128s-57.312 128-128 128c-55.744 0-103.136-35.616-120.704-85.344h-49.952c-23.552 0-42.656-19.104-42.656-42.656s19.104-42.656 42.656-42.656h49.952zM128 448c0-23.552 19.104-42.656 42.656-42.656h298.656c23.552 0 42.656 19.104 42.656 42.656s-19.104 42.656-42.656 42.656h-298.656c-23.552 0-42.656-19.104-42.656-42.656zM170.656 234.656h135.296c17.568 49.728 64.992 85.344 120.704 85.344s103.136-35.616 120.704-85.344h305.952c23.552 0 42.656-19.104 42.656-42.656s-19.104-42.656-42.656-42.656h-305.952c-17.568-49.728-64.992-85.344-120.704-85.344s-103.136 35.616-120.704 85.344h-135.296c-23.552 0-42.656 19.104-42.656 42.656s19.104 42.656 42.656 42.656zM469.344 192c0 23.552-19.104 42.656-42.656 42.656s-42.656-19.104-42.656-42.656c0-23.552 19.104-42.656 42.656-42.656s42.656 19.104 42.656 42.656zM512 704c0-23.552 19.104-42.656 42.656-42.656h298.656c23.552 0 42.656 19.104 42.656 42.656s-19.104 42.656-42.656 42.656h-298.656c-23.552 0-42.656-19.104-42.656-42.656zM682.656 576c-70.688 0-128-57.312-128-128s57.312-128 128-128c55.744 0 103.136 35.616 120.704 85.344h49.952c23.552 0 42.656 19.104 42.656 42.656s-19.104 42.656-42.656 42.656h-49.952c-17.568 49.728-64.992 85.344-120.704 85.344zM682.656 490.656c23.552 0 42.656-19.104 42.656-42.656s-19.104-42.656-42.656-42.656c-23.552 0-42.656 19.104-42.656 42.656s19.104 42.656 42.656 42.656z" />
<glyph unicode="&#xe949;" glyph-name="icon-key-off" data-tags="icon-key-off" d="M512 234.496c0-117.82-95.513-213.333-213.333-213.333s-213.333 95.514-213.333 213.333c0 117.82 95.513 213.333 213.333 213.333 43.457 0 83.879-12.996 117.593-35.311l35.439 35.439-238.365 238.371c-16.662 16.663-16.662 43.677 0 60.34s43.677 16.662 60.34 0l267.855-267.863c0.23-0.218 0.461-0.444 0.687-0.67 0.23-0.226 0.452-0.457 0.674-0.687l267.776-267.78c16.661-16.661 16.661-43.678 0-60.339s-43.678-16.661-60.339 0l-238.289 238.289-35.422-35.418c22.362-33.737 35.383-74.202 35.383-117.705zM426.667 234.496c0 70.69-57.308 128-128 128s-128-57.31-128-128c0-70.694 57.308-128 128-128s128 57.306 128 128zM602.603 598.768c-16.661-16.663-16.661-43.678 0-60.34 16.149-16.149 42.022-16.649 58.769-1.493l90.624-90.624c16.661-16.661 43.678-16.661 60.339 0 16.666 16.666 16.666 43.678 0 60.339l-90.581 90.586 53.722 53.723 90.534-90.534c16.661-16.662 43.678-16.662 60.339 0s16.661 43.677 0 60.34l-90.534 90.533 47.863 47.86c16.661 16.662 16.661 43.677 0 60.34s-43.678 16.663-60.339 0l-220.736-220.731z" />
<glyph unicode="&#xe94a;" glyph-name="icon-spinner" data-tags="icon-spinner" d="M512 789.333c-188.513 0-341.333-152.82-341.333-341.333s152.82-341.333 341.333-341.333c188.514 0 341.333 152.819 341.333 341.333 0 39.475-6.686 77.303-18.948 112.461-7.761 22.249 3.985 46.577 26.236 54.338s46.575-3.985 54.336-26.234c15.373-44.071 23.71-91.392 23.71-140.565 0-235.639-191.027-426.667-426.667-426.667-235.642 0-426.667 191.027-426.667 426.667 0 235.642 191.025 426.667 426.667 426.667 71.467 0 138.944-17.604 198.212-48.748 20.86-10.961 28.885-36.757 17.924-57.617s-36.757-28.884-57.617-17.923c-47.322 24.866-101.214 38.955-158.519 38.955z" />
<glyph unicode="&#xe94b;" glyph-name="icon-bell" data-tags="icon-bell" d="M426.667 789.333v-13.279c-116.003-36.306-213.332-144.024-213.332-285.388v-128c0-55.923-18.871-129.199-72.837-183.164-12.203-12.203-15.853-30.554-9.249-46.498s22.162-26.338 39.419-26.338h682.665c17.259 0 32.815 10.394 39.42 26.338s2.953 34.295-9.25 46.498c-53.965 53.965-72.836 127.241-72.836 183.164v128c0 141.364-97.327 249.082-213.333 285.388v13.279c0 47.128-38.204 85.333-85.333 85.333-47.125 0-85.333-38.205-85.333-85.333zM298.668 490.667c0 123.504 106.567 213.333 213.332 213.333 106.769 0 213.333-89.829 213.333-213.333v-128c0-50.103 11.503-112.444 43.383-170.667h-513.431c31.882 58.223 43.382 120.563 43.382 170.667v128zM512-21.333c-47.125 0-85.333 38.204-85.333 85.333h170.667c0-47.13-38.204-85.333-85.333-85.333z" />
<glyph unicode="&#xe94c;" glyph-name="icon-bell-off" data-tags="icon-bell-off" d="M512 874.667c-47.125 0-85.333-38.205-85.333-85.333v-42.667c0-23.564 19.102-42.667 42.667-42.667h42.667c106.769 0 213.333-89.829 213.333-213.333v-57.34c0-23.565 19.102-42.667 42.667-42.667s42.667 19.102 42.667 42.667v57.34c0 141.364-97.327 249.082-213.333 285.388v13.279c0 47.128-38.204 85.333-85.333 85.333zM256.178 643.482l-158.348 158.348c-16.662 16.663-16.662 43.677 0 60.34s43.677 16.662 60.34 0l682.474-682.475c0.128-0.128 0.256-0.256 0.384-0.384l85.141-85.141c16.661-16.661 16.661-43.678 0-60.339s-43.678-16.661-60.339 0l-72.836 72.836h-622.326c-17.257 0-32.815 10.394-39.419 26.338s-2.954 34.295 9.249 46.498c53.966 53.965 72.837 127.241 72.837 183.164v128c0 57.116 16.074 109.005 42.844 152.815zM319.006 580.655c-12.926-26.864-20.338-57.147-20.338-89.988v-128c0-50.103-11.5-112.444-43.382-170.667h452.375l-388.655 388.655zM597.333 64c0-47.13-38.204-85.333-85.333-85.333-47.125 0-85.333 38.204-85.333 85.333h170.667z" />
<glyph unicode="&#xe94d;" glyph-name="icon-code" data-tags="icon-code" d="M144.638 448l141.656-141.35c16.495-16.465 16.495-43.166 0-59.631-16.495-16.469-43.238-16.469-59.733 0l-171.523 171.166c-16.495 16.465-16.495 43.166 0 59.631 0.067 0.068 0.133 0.132 0.2 0.201l171.325 170.967c16.495 16.467 43.238 16.467 59.733 0s16.495-43.166 0-59.633l-141.658-141.35zM879.36 448l-141.653-141.35c-16.495-16.465-16.495-43.166 0-59.631 16.495-16.469 43.238-16.469 59.733 0l171.524 171.166c16.491 16.465 16.491 43.166 0 59.631-0.068 0.068-0.137 0.132-0.201 0.201l-171.328 170.967c-16.495 16.467-43.238 16.467-59.733 0-16.491-16.468-16.491-43.166 0-59.633l141.658-141.35zM575.458 829.859c6.562 22.178 29.602 35.087 51.942 29.101 23.168-6.208 36.663-30.295 29.862-53.297l-218.743-739.522c-6.558-22.178-29.599-35.085-51.939-29.099-23.17 6.208-36.665 30.293-29.862 53.295l218.739 739.521z" />
<glyph unicode="&#xe94e;" glyph-name="icon-dot" data-tags="icon-dot" d="M768 448c0-141.385-114.615-256-256-256s-256 114.615-256 256c0 141.385 114.615 256 256 256s256-114.615 256-256z" />
<glyph unicode="&#xe94f;" glyph-name="icon-drag" data-tags="icon-drag" d="M725.333 704c0-47.128-38.204-85.333-85.333-85.333s-85.333 38.205-85.333 85.333c0 47.128 38.204 85.333 85.333 85.333s85.333-38.205 85.333-85.333zM384 362.667c47.13 0 85.333 38.204 85.333 85.333s-38.204 85.333-85.333 85.333c-47.128 0-85.333-38.204-85.333-85.333s38.205-85.333 85.333-85.333zM725.333 448c0-47.13-38.204-85.333-85.333-85.333s-85.333 38.204-85.333 85.333c0 47.13 38.204 85.333 85.333 85.333s85.333-38.204 85.333-85.333zM469.333 704c0-47.128-38.204-85.333-85.333-85.333-47.128 0-85.333 38.205-85.333 85.333s38.205 85.333 85.333 85.333c47.13 0 85.333-38.205 85.333-85.333zM640 106.667c47.13 0 85.333 38.204 85.333 85.333s-38.204 85.333-85.333 85.333c-47.13 0-85.333-38.204-85.333-85.333s38.204-85.333 85.333-85.333zM384 106.667c47.13 0 85.333 38.204 85.333 85.333s-38.204 85.333-85.333 85.333c-47.128 0-85.333-38.204-85.333-85.333s38.205-85.333 85.333-85.333z" />
<glyph unicode="&#xe950;" glyph-name="icon-entrance" data-tags="icon-entrance" d="M512 789.333c0-23.564 19.102-42.667 42.667-42.667h213.333c23.565 0 42.667-19.103 42.667-42.667v-512c0-23.565-19.102-42.667-42.667-42.667h-213.333c-23.565 0-42.667-19.102-42.667-42.667s19.102-42.667 42.667-42.667h213.333c70.694 0 128 57.306 128 128v512c0 70.692-57.306 128-128 128h-213.333c-23.565 0-42.667-19.103-42.667-42.667zM355.974 631.163l138.353-138.355h-366.327c-23.564 0-42.667-19.102-42.667-42.667s19.102-42.667 42.667-42.667h366.327l-138.353-138.355c-16.663-16.661-16.663-43.678 0-60.339s43.677-16.661 60.34 0l211.189 211.191c4.39 4.386 7.62 9.493 9.698 14.942 1.809 4.727 2.799 9.865 2.799 15.228 0 5.67-1.105 11.081-3.11 16.026-2.086 5.15-5.214 9.971-9.387 14.148l-211.189 211.188c-16.663 16.662-43.677 16.662-60.34 0s-16.662-43.677 0-60.34z" />
<glyph unicode="&#xe951;" glyph-name="icon-heart" data-tags="icon-heart" d="M512.002 49.067l-61.867 56.32c-219.733 199.253-364.8 330.667-364.8 491.947 0 131.413 103.253 234.667 234.667 234.667 74.24 0 145.493-34.56 192-89.173 46.507 54.613 117.76 89.173 192 89.173 131.413 0 234.665-103.253 234.665-234.667 0-161.28-145.065-292.693-364.798-492.373l-61.867-55.893z" />
<glyph unicode="&#xe952;" glyph-name="icon-reset" data-tags="icon-reset" d="M810.667 448c0 164.949-133.717 298.667-298.667 298.667-101.44 0-191.116-50.554-245.14-128h117.14c23.564 0 42.667-19.103 42.667-42.667s-19.102-42.667-42.667-42.667h-213.333c-23.564 0-42.667 19.103-42.667 42.667v213.333c0 23.564 19.103 42.667 42.667 42.667s42.667-19.103 42.667-42.667v-99.962c70.356 86.947 177.991 142.628 298.667 142.628 212.079 0 384-171.923 384-384 0-212.079-171.921-384-384-384-144.634 0-270.529 79.979-335.974 197.922-11.433 20.604-3.999 46.575 16.606 58.010s46.576 3.998 58.010-16.606c51.011-91.93 148.966-153.993 261.359-153.993 164.949 0 298.667 133.717 298.667 298.667z" />
<glyph unicode="&#xe953;" glyph-name="icon-warning-simple" data-tags="icon-warning-simple" d="M597.333 277.333h-170.667v-170.667h170.667v170.667zM597.333 789.333h-170.667v-341.333h170.667v341.333z" />
<glyph unicode="&#xe954;" glyph-name="icon-warning" data-tags="icon-warning" d="M512 21.333c235.639 0 426.667 191.027 426.667 426.667 0 235.642-191.027 426.667-426.667 426.667-235.642 0-426.667-191.025-426.667-426.667 0-235.639 191.025-426.667 426.667-426.667zM512 106.667c-188.513 0-341.333 152.819-341.333 341.333s152.82 341.333 341.333 341.333c188.514 0 341.333-152.82 341.333-341.333s-152.819-341.333-341.333-341.333zM512 661.333c-23.565 0-42.667-19.103-42.667-42.667v-170.667c0-23.565 19.102-42.667 42.667-42.667s42.667 19.102 42.667 42.667v170.667c0 23.564-19.102 42.667-42.667 42.667zM512 320c-23.565 0-42.667-19.102-42.667-42.667s19.102-42.667 42.667-42.667c23.565 0 42.667 19.102 42.667 42.667s-19.102 42.667-42.667 42.667z" />
<glyph unicode="&#xe955;" glyph-name="icon-info" data-tags="icon-info" d="M512 874.667c-235.642 0-426.667-191.025-426.667-426.667 0-235.639 191.025-426.667 426.667-426.667 235.639 0 426.667 191.027 426.667 426.667 0 235.642-191.027 426.667-426.667 426.667zM512 789.333c188.514 0 341.333-152.82 341.333-341.333s-152.819-341.333-341.333-341.333c-188.513 0-341.333 152.819-341.333 341.333s152.82 341.333 341.333 341.333zM512 234.667c23.565 0 42.667 19.102 42.667 42.667v170.667c0 23.565-19.102 42.667-42.667 42.667s-42.667-19.102-42.667-42.667v-170.667c0-23.565 19.102-42.667 42.667-42.667zM512 576c23.565 0 42.667 19.103 42.667 42.667s-19.102 42.667-42.667 42.667c-23.565 0-42.667-19.103-42.667-42.667s19.102-42.667 42.667-42.667z" />
<glyph unicode="&#xe956;" glyph-name="icon-question" data-tags="icon-question" d="M170.667 448c0 188.513 152.82 341.333 341.333 341.333s341.333-152.82 341.333-341.333c0-188.514-152.819-341.333-341.333-341.333s-341.333 152.819-341.333 341.333zM512 874.667c-235.642 0-426.667-191.025-426.667-426.667 0-235.639 191.025-426.667 426.667-426.667 235.639 0 426.667 191.027 426.667 426.667 0 235.642-191.027 426.667-426.667 426.667zM492.919 367.168c-21.077 10.539-29.619 36.169-19.081 57.246 13.931 27.857 28.762 42.671 42.927 55.36 1.485 1.331 2.927 2.611 4.339 3.866l0.021 0.017c10.035 8.909 18.479 16.401 28.796 30.118 3.115 6.042 4.745 12.745 4.745 19.558 0 7.49-1.971 14.847-5.717 21.333-3.742 6.486-9.131 11.872-15.616 15.617s-13.845 5.716-21.333 5.716c-7.488 0-14.848-1.971-21.333-5.716s-11.874-9.131-15.616-15.617c-11.785-20.407-37.879-27.401-58.285-15.617-20.407 11.782-27.399 37.876-15.617 58.284 11.235 19.459 27.391 35.617 46.851 46.851s41.532 17.149 64 17.149c22.468 0 44.54-5.914 64-17.149s35.618-27.393 46.852-46.851c11.234-19.459 17.148-41.531 17.148-64s-5.914-44.54-17.148-64c-0.772-1.335-1.613-2.624-2.522-3.87-16.653-22.741-31.68-36.023-42.705-45.764l-0.013-0.013c-1.365-1.203-2.667-2.355-3.904-3.465-9.643-8.64-16.145-15.164-23.548-29.969-10.539-21.077-36.164-29.619-57.242-19.085zM554.667 277.333c0-23.565-19.102-42.667-42.667-42.667s-42.667 19.102-42.667 42.667c0 23.565 19.102 42.667 42.667 42.667s42.667-19.102 42.667-42.667z" />
<glyph unicode="&#xe957;" glyph-name="icon-plane" data-tags="icon-plane" d="M879.906 865.413c-8.32 6.624-18.432 9.632-28.352 9.216-1.856-0.064-3.712-0.288-5.534-0.608-4.962-0.864-9.826-2.624-14.272-5.216l-767.137-426.176c-14.528-8.064-23.072-23.872-21.824-40.448s12-30.942 27.552-36.8l270.976-101.632v-199.774c0-16.29 9.28-31.168 23.936-38.336s32.064-5.346 44.928 4.638l180.097 140.096 162.718-61.022c12.224-4.578 25.89-3.328 37.056 3.422 11.17 6.754 18.658 18.274 20.258 31.232l85.248 681.984c0.64 4.48 0.542 9.024-0.256 13.472-1.57 8.736-5.824 17.056-12.706 23.552-0.862 0.832-1.792 1.632-2.752 2.368l0.064 0.032zM669.956 681.285l-288.801-341.312-194.368 72.896 483.169 268.416zM426.692 231.782l69.854-26.21-69.854-54.336v80.546zM465.988 308.164l327.232 386.72-60.834-486.59-266.398 99.87z" />
<glyph unicode="&#xe958;" glyph-name="icon-dollar" data-tags="icon-dollar" d="M170.667 448c0 188.513 152.82 341.333 341.333 341.333s341.333-152.82 341.333-341.333c0-188.514-152.819-341.333-341.333-341.333s-341.333 152.819-341.333 341.333zM512 874.667c-235.642 0-426.667-191.025-426.667-426.667 0-235.639 191.025-426.667 426.667-426.667 235.639 0 426.667 191.027 426.667 426.667 0 235.642-191.027 426.667-426.667 426.667zM469.333 704c0 23.564 19.102 42.667 42.667 42.667s42.667-19.103 42.667-42.667v-42.667c45.047 0 84.659-23.27 107.469-58.444 5.107-7.032 8.115-15.682 8.115-25.035 0-23.564-19.102-42.667-42.667-42.667-14.805 0-27.849 7.54-35.499 18.989-0.192 0.131-0.346 0.294-0.461 0.49-7.377 12.753-21.167 21.333-36.958 21.333h-85.333c-23.565 0-42.667-19.103-42.667-42.667s19.102-42.667 42.667-42.667h85.333c70.694 0 128-57.306 128-128s-57.306-128-128-128v-42.667c0-23.565-19.102-42.667-42.667-42.667s-42.667 19.102-42.667 42.667v42.667c-45.413 0-85.302 23.65-108.024 59.307-4.734 6.869-7.506 15.198-7.506 24.175 0 23.565 19.102 42.667 42.667 42.667 14.841 0 27.912-7.578 35.556-19.072 0.141-0.115 0.26-0.252 0.35-0.41 7.377-12.753 21.167-21.333 36.958-21.333h85.333c23.565 0 42.667 19.102 42.667 42.667s-19.102 42.667-42.667 42.667h-85.333c-70.692 0-128 57.306-128 128 0 70.692 57.308 128 128 128v42.667z" />
<glyph unicode="&#xe959;" glyph-name="icon-list" data-tags="icon-list" d="M213.333 746.667c-23.564 0-42.667-19.103-42.667-42.667s19.103-42.667 42.667-42.667c23.564 0 42.667 19.103 42.667 42.667s-19.103 42.667-42.667 42.667zM213.333 490.667c-23.564 0-42.667-19.102-42.667-42.667s19.103-42.667 42.667-42.667c23.564 0 42.667 19.102 42.667 42.667s-19.103 42.667-42.667 42.667zM170.667 192c0 23.565 19.103 42.667 42.667 42.667s42.667-19.102 42.667-42.667c0-23.565-19.103-42.667-42.667-42.667s-42.667 19.102-42.667 42.667zM384 746.667c-23.564 0-42.667-19.103-42.667-42.667s19.102-42.667 42.667-42.667h426.667c23.565 0 42.667 19.103 42.667 42.667s-19.102 42.667-42.667 42.667h-426.667zM341.333 448c0 23.565 19.103 42.667 42.667 42.667h426.667c23.565 0 42.667-19.102 42.667-42.667s-19.102-42.667-42.667-42.667h-426.667c-23.564 0-42.667 19.102-42.667 42.667zM384 234.667c-23.564 0-42.667-19.102-42.667-42.667s19.102-42.667 42.667-42.667h426.667c23.565 0 42.667 19.102 42.667 42.667s-19.102 42.667-42.667 42.667h-426.667z" />
<glyph unicode="&#xe95a;" glyph-name="icon-arrows-horizontal" data-tags="icon-arrows-horizontal" d="M187.397 405.333l98.897-98.684c16.495-16.465 16.495-43.166 0-59.631-16.495-16.469-43.238-16.469-59.733 0l-171.523 171.166c-16.495 16.465-16.495 43.166 0 59.631l0.2 0.201 171.325 170.967c16.495 16.467 43.238 16.467 59.733 0s16.495-43.166 0-59.633l-98.897-98.683h649.206l-98.901 98.683c-16.491 16.467-16.491 43.166 0 59.633 16.495 16.467 43.238 16.467 59.733 0l171.529-171.168c16.491-16.465 16.491-43.166 0-59.631l-171.524-171.166c-16.495-16.469-43.238-16.469-59.733 0-16.495 16.465-16.495 43.166 0 59.631l98.897 98.684h-649.207z" />
<glyph unicode="&#xe95b;" glyph-name="icon-arrows-vertical" data-tags="icon-arrows-vertical" d="M469.333 772.603l-98.683-98.897c-16.467-16.495-43.166-16.495-59.633 0s-16.467 43.238 0 59.733l171.168 171.523c16.465 16.495 43.166 16.495 59.631 0l0.201-0.2 170.965-171.325c16.469-16.495 16.469-43.238 0-59.733-16.465-16.495-43.166-16.495-59.631 0l-98.684 98.897v-649.206l98.684 98.901c16.465 16.491 43.166 16.491 59.631 0 16.469-16.495 16.469-43.238 0-59.733l-171.166-171.529c-16.465-16.491-43.166-16.491-59.631 0l-171.168 171.524c-16.467 16.495-16.467 43.238 0 59.733s43.166 16.495 59.633 0l98.683-98.897v649.207z" />
<glyph unicode="&#xe95c;" glyph-name="icon-pig" data-tags="icon-pig" d="M289.37 872.659c30.554 4.022 61.6 1.987 91.366-5.989s57.673-21.737 82.121-40.497c15.049-11.548 28.608-24.852 40.405-39.599 16.866 1.822 34.022 2.759 51.405 2.759 116.194 0 223.548-42.421 301.504-112.201 7.142 4.941 12.57 10.076 16.363 15.134 7.142 9.524 10.807 21.451 4.322 40.908-7.45 22.355 4.629 46.518 26.987 53.969 22.353 7.452 46.515-4.63 53.969-26.985 14.848-44.543 7.846-85.949-17.011-119.092-7.812-10.42-17.050-19.58-27.26-27.611 42.743-59.468 67.793-130.64 67.793-208.123 0-127.091-68.267-238.089-170.667-307.29v-76.71c0-23.565-19.102-42.667-42.667-42.667h-128c-23.565 0-42.667 19.102-42.667 42.667v1.894c-14.042-1.254-28.275-1.894-42.667-1.894s-28.625 0.64-42.667 1.894v-1.894c0-23.565-19.102-42.667-42.667-42.667h-128c-23.564 0-42.667 19.102-42.667 42.667v76.706c-66.084 44.646-117.905 106.607-146.407 179.29h-24.26c-47.128 0-85.333 38.204-85.333 85.333v85.333c0 47.13 38.205 85.333 85.333 85.333h24.257c21.17 53.98 55.21 102.060 98.368 141.497l-63.576 110.117c-5.658 9.8-7.191 21.446-4.262 32.376s10.080 20.25 19.88 25.908c26.688 15.408 56.15 25.409 86.703 29.432zM426.667 64v8.457c0 12.796 5.743 24.917 15.642 33.020 9.903 8.102 22.921 11.337 35.46 8.806 24.674-4.975 50.406-7.616 76.898-7.616s52.224 2.641 76.898 7.616c12.54 2.53 25.557-0.704 35.46-8.806 9.899-8.102 15.642-20.224 15.642-33.020v-8.457h42.667v57.481c0 15.040 7.923 28.971 20.851 36.663 91.938 54.707 149.815 146.035 149.815 247.189 0 160.364-147.955 298.667-341.333 298.667-21.995 0-43.465-1.819-64.235-5.284-17.105-2.852-34.231 4.928-43.337 19.685-9.519 15.436-21.78 29.018-36.187 40.073-15.558 11.938-33.315 20.695-52.258 25.771s-38.7 6.371-58.142 3.811c-5.091-0.67-10.135-1.602-15.112-2.787l57.076-98.858c10.75-18.62 5.966-42.331-11.163-55.325-52.534-39.853-90.373-92.922-107.562-152.289-5.283-18.244-21.99-30.801-40.983-30.801h-54.763v-85.333h54.766c18.993 0 35.7-12.557 40.983-30.801 20.495-70.775 70.393-132.655 139.401-173.717 12.928-7.693 20.85-21.623 20.85-36.663v-57.481h42.667zM426.667 490.667c0-23.565-19.102-42.667-42.667-42.667s-42.667 19.102-42.667 42.667c0 23.565 19.103 42.667 42.667 42.667s42.667-19.102 42.667-42.667z" />
<glyph unicode="&#xe95d;" glyph-name="icon-diaphragm" data-tags="icon-diaphragm" d="M512 21.344c-235.648 0-426.656 191.040-426.656 426.656s191.040 426.656 426.656 426.656c235.648 0 426.656-191.040 426.656-426.656s-191.040-426.656-426.656-426.656zM830.048 323.808c15.040 38.496 23.296 80.384 23.296 124.192 0 45.28-8.8 88.48-24.8 128h-144.096l145.6-252.192zM438.112 576l-73.888-128 73.888-128h147.808l73.888 128-73.888 128h-147.808zM314.944 533.344l145.568 252.128c-88.064-13.312-165.12-60.32-217.568-127.424l72-124.704zM559.392 786.080l-72.032-124.736h291.104c-53.216 66.4-130.752 112.48-219.104 124.736zM170.656 448c0-45.28 8.8-88.48 24.8-128h144.096l-145.6 252.192c-15.040-38.496-23.296-80.384-23.296-124.192zM536.64 234.656h-291.104c53.216-66.4 130.752-112.48 219.072-124.736l72.032 124.736zM781.088 237.952l-72 124.704-145.568-252.128c88.064 13.344 165.12 60.32 217.568 127.424z" />
<glyph unicode="&#xe95e;" glyph-name="icon-scales" data-tags="icon-scales" d="M421.792 382.528l-127.936 255.872 175.488 67.488v-599.232h-85.344c-23.552 0-42.656-19.104-42.656-42.656s19.104-42.656 42.656-42.656h256c23.552 0 42.656 19.104 42.656 42.656s-19.104 42.656-42.656 42.656h-85.344v632.032l147.296 56.672-99.744-199.488c-3.136-5.92-4.896-12.672-4.896-19.84 0-25.216 4.96-50.176 14.624-73.472s23.808-44.448 41.632-62.304c17.824-17.824 39.008-31.968 62.304-41.632s48.256-14.624 73.472-14.624c25.216 0 50.176 4.96 73.472 14.624s44.448 23.808 62.304 41.632c17.824 17.824 31.968 39.008 41.632 62.304 9.632 23.264 14.592 48.192 14.624 73.344v0.768c-0.096 6.912-1.856 13.44-4.896 19.2l-148.8 297.632c-5.504 11.232-15.456 19.104-26.848 22.304-7.584 2.112-15.808 2.176-23.776-0.256-1.12-0.352-2.208-0.704-3.296-1.152l-554.080-213.088c-0.672-0.256-1.344-0.512-1.984-0.8-9.6-4.16-16.928-11.456-21.248-20.256l-148.864-297.696c-3.136-5.92-4.896-12.672-4.896-19.84 0-25.216 4.96-50.176 14.624-73.472s23.808-44.448 41.632-62.304c17.824-17.824 39.008-31.968 62.304-41.632s48.256-14.624 73.472-14.624 50.176 4.96 73.472 14.624c23.296 9.664 44.448 23.808 62.304 41.632s31.968 39.008 41.632 62.304c9.632 23.264 14.592 48.192 14.624 73.344v0.768c-0.096 6.912-1.856 13.44-4.896 19.2zM314.976 405.344h-160.608l80.288 160.608 80.288-160.608zM332.416 320c-5.344-12.224-12.896-23.328-22.336-32.768-9.92-9.888-21.664-17.76-34.592-23.136s-26.816-8.128-40.832-8.128c-14.016 0-27.872 2.752-40.832 8.128s-24.704 13.216-34.592 23.136c-9.44 9.44-16.992 20.544-22.336 32.768h195.52zM789.344 779.264l80.288-160.608h-160.608l80.288 160.608zM789.344 533.344h97.76c-5.344-12.224-12.896-23.328-22.336-32.768-9.92-9.888-21.664-17.76-34.592-23.136s-26.816-8.128-40.832-8.128c-14.016 0-27.872 2.752-40.832 8.128s-24.704 13.216-34.592 23.136c-9.44 9.44-16.992 20.544-22.336 32.768h97.76z" />
<glyph unicode="&#xe95f;" glyph-name="icon-sun" data-tags="icon-sun" d="M469.344 832v-85.344c0-23.552 19.104-42.656 42.656-42.656s42.656 19.104 42.656 42.656v85.344c0 23.552-19.104 42.656-42.656 42.656s-42.656-19.104-42.656-42.656zM512 234.656c-117.824 0-213.344 95.52-213.344 213.344s95.52 213.344 213.344 213.344c117.824 0 213.344-95.52 213.344-213.344s-95.52-213.344-213.344-213.344zM513.056 320c70.688 0 128 57.312 128 128s-57.312 128-128 128c-70.688 0-128-57.312-128-128s57.312-128 128-128zM469.344 149.344c0 23.552 19.104 42.656 42.656 42.656s42.656-19.104 42.656-42.656v-85.344c0-23.552-19.104-42.656-42.656-42.656s-42.656 19.104-42.656 42.656v85.344zM256 448c0 23.552-19.104 42.656-42.656 42.656h-85.344c-23.552 0-42.656-19.104-42.656-42.656s19.104-42.656 42.656-42.656h85.344c23.552 0 42.656 19.104 42.656 42.656zM938.656 448c0 23.552-19.104 42.656-42.656 42.656h-85.344c-23.552 0-42.656-19.104-42.656-42.656s19.104-42.656 42.656-42.656h85.344c23.552 0 42.656 19.104 42.656 42.656zM261.184 749.696c-16.672 16.672-43.68 16.672-60.352 0s-16.672-43.68 0-60.352l60.352-60.352c16.672-16.672 43.68-16.672 60.352 0s16.672 43.68 0 60.352l-60.352 60.352zM823.168 749.696c-16.672 16.672-43.68 16.672-60.352 0l-60.352-60.352c-16.672-16.672-16.672-43.68 0-60.352s43.68-16.672 60.352 0l60.352 60.352c16.672 16.672 16.672 43.68 0 60.352zM200.832 206.624c-16.672-16.672-16.672-43.68 0-60.352s43.68-16.672 60.352 0l60.352 60.352c16.672 16.672 16.672 43.68 0 60.352s-43.68 16.672-60.352 0l-60.352-60.352zM823.168 146.304c16.672 16.672 16.672 43.68 0 60.352l-60.352 60.352c-16.672 16.672-43.68 16.672-60.352 0s-16.672-43.68 0-60.352l60.352-60.352c16.672-16.672 43.68-16.672 60.352 0z" />
<glyph unicode="&#xe960;" glyph-name="icon-on-off" data-tags="icon-on-off" d="M512 874.667c-23.565 0-42.667-19.103-42.667-42.667v-341.333c0-23.565 19.102-42.667 42.667-42.667s42.667 19.102 42.667 42.667v341.333c0 23.564-19.102 42.667-42.667 42.667zM362.698 664.070c20.397 11.799 27.367 37.9 15.568 58.297s-37.9 27.367-58.297 15.568c-114.666-66.331-191.969-190.414-191.969-332.602 0-212.079 171.923-384 384-384 212.079 0 384 171.921 384 384 0 142.188-77.303 266.271-191.97 332.602-20.395 11.799-46.498 4.829-58.295-15.568s-4.83-46.498 15.569-58.297c89.382-51.706 149.363-148.243 149.363-258.737 0-164.949-133.717-298.667-298.667-298.667s-298.667 133.717-298.667 298.667c0 110.494 59.981 207.031 149.364 258.737z" />
<glyph unicode="&#xe961;" glyph-name="icon-money-bag" data-tags="icon-money-bag" d="M512 576c170.176 0 256-112.032 256-216.192v-73.952c0-13.312 0.576-25.312 1.568-36.256-1.344 0.64-2.624 1.28-3.808 1.856-21.088 10.528-46.688 1.984-57.248-19.072s-1.984-46.688 19.072-57.248c7.264-3.616 14.016-6.816 20.384-9.824v0c16.352-7.712 30.016-14.176 42.432-23.488 9.92-7.424 15.84-14.496 18.528-23.008-12.576-3.104-31.552-5.76-57.472-7.712-59.36-4.48-142.784-4.512-239.456-4.512s-180.096 0.032-239.456 4.512c-25.888 1.952-44.864 4.608-57.472 7.712 2.688 8.48 8.608 15.552 18.528 23.008 12.416 9.312 26.080 15.744 42.432 23.488v0c6.368 3.008 13.12 6.208 20.384 9.824 21.088 10.528 29.632 36.16 19.072 57.248s-36.16 29.632-57.248 19.072c-1.184-0.608-2.464-1.216-3.84-1.856 1.024 10.912 1.568 22.944 1.568 36.256v73.952c0 104.16 85.824 216.192 256 216.192zM894.048 129.504c-3.872 26.848-12.704 45.536-20.192 61.344-1.056 2.272-2.112 4.448-3.104 6.592-8.544 18.496-17.408 40.16-17.408 88.416v73.952c0 154.688-127.52 301.504-341.344 301.504s-341.344-146.816-341.344-301.504v-73.952c0-48.288-8.864-69.92-17.408-88.416-0.992-2.144-2.048-4.352-3.104-6.592-7.488-15.808-16.32-34.496-20.192-61.344-1.28-7.168-1.952-14.784-1.952-22.816 0-0.576 0-1.152 0.032-1.728-0.032-1.312-0.032-2.624-0.032-3.936 0-21.28 11.52-36.576 22.944-45.632 10.496-8.32 22.912-13.28 33.6-16.544 21.76-6.656 50.336-10.368 81.6-12.736 62.944-4.736 149.504-4.736 244.16-4.736v0h3.424c94.656 0 181.216 0 244.16 4.736 31.264 2.368 59.872 6.080 81.6 12.736 10.688 3.264 23.104 8.224 33.6 16.544 11.424 9.056 22.944 24.32 22.944 45.632 0 1.344 0 2.656-0.032 3.936 0.032 0.576 0.032 1.152 0.032 1.728 0 8.032-0.672 15.648-1.952 22.816zM399.008 779.744c1.952 1.12 3.936 2.176 5.952 3.2 9.28 4.608 16.64 6.4 21.728 6.4 13.856 0 19.296-1.984 27.296-4.896l0.8-0.288c12.896-4.704 28.864-10.336 57.248-10.336s44.352 5.632 57.248 10.336l0.8 0.288c8 2.912 13.44 4.896 27.296 4.896 5.088 0 12.448-1.824 21.728-6.4 2.016-0.992 4-2.080 5.952-3.2l-50.496-75.744h-124.992l-50.496 75.744zM669.28 692.352l39.168 58.752c16.544 24.8 14.816 61.44-12.416 83.104-16.544 13.152-54.784 40.448-98.72 40.448-28.384 0-44.352-5.632-57.248-10.336l-0.8-0.288c-8-2.912-13.44-4.896-27.296-4.896s-19.296 1.984-27.296 4.896l-0.8 0.288c-12.896 4.704-28.864 10.336-57.248 10.336-43.904 0-82.176-27.296-98.72-40.448-27.264-21.664-28.96-58.304-12.416-83.104l39.168-58.752c-8.224-7.776-13.376-18.816-13.376-31.008 0-23.552 19.104-42.656 42.656-42.656h52.448c-62.848-87.424-87.52-193.216-94.912-273.408-2.176-23.456 15.104-44.256 38.56-46.4s44.256 15.104 46.4 38.56c6.912 75.104 30.432 167.936 85.152 239.424 17.536-23.072 30.752-41.92 42.848-64.64 14.688-27.584 28.48-62.4 44.448-118.56 6.432-22.656 30.048-35.808 52.704-29.376s35.808 30.048 29.376 52.704c-16.928 59.488-32.704 100.544-51.232 135.328-13.12 24.64-27.264 45.376-42.848 66.336h53.024c23.552 0 42.656 19.104 42.656 42.656 0 12.224-5.152 23.232-13.376 31.008z" />
<glyph unicode="&#xe962;" glyph-name="icon-safe" data-tags="icon-safe" d="M213.333 832h597.333c70.694 0 128-57.308 128-128v-512c0-70.694-57.306-128-128-128h-42.667c0-23.565-19.102-42.667-42.667-42.667h-42.667c-23.565 0-42.667 19.102-42.667 42.667h-256c0-23.565-19.103-42.667-42.667-42.667h-42.667c-23.564 0-42.667 19.102-42.667 42.667h-42.667c-70.692 0-128 57.306-128 128v42.667c-23.564 0-42.667 19.102-42.667 42.667v42.667c0 23.565 19.103 42.667 42.667 42.667v170.667c-23.564 0-42.667 19.103-42.667 42.667v42.667c0 23.564 19.103 42.667 42.667 42.667v42.667c0 70.692 57.308 128 128 128zM213.333 277.333c0-23.565-19.103-42.667-42.667-42.667v-42.667c0-23.565 19.103-42.667 42.667-42.667h597.333c23.565 0 42.667 19.102 42.667 42.667v512c0 23.564-19.102 42.667-42.667 42.667h-597.333c-23.564 0-42.667-19.103-42.667-42.667v-42.667c23.564 0 42.667-19.103 42.667-42.667v-42.667c0-23.564-19.103-42.667-42.667-42.667v-170.667c23.564 0 42.667-19.102 42.667-42.667v-42.667zM511.991 661.333c-23.565 0-42.667-19.103-42.667-42.667v-42.667c0-2.412 0.201-4.776 0.585-7.078-15.411-5.362-29.478-13.587-41.57-24.037-1.809 1.491-3.764 2.852-5.861 4.063l-36.951 21.333c-20.407 11.782-46.502 4.79-58.284-15.617s-4.79-46.5 15.617-58.284l36.951-21.333c2.090-1.207 4.24-2.214 6.428-3.034-1.476-7.778-2.249-15.804-2.249-24.013s0.773-16.239 2.249-24.017c-2.188-0.819-4.339-1.826-6.429-3.034l-36.951-21.333c-20.407-11.785-27.399-37.879-15.617-58.287s37.876-27.396 58.284-15.616l36.951 21.333c2.098 1.212 4.054 2.573 5.861 4.066 12.092-10.449 26.163-18.671 41.57-24.034-0.384-2.304-0.585-4.668-0.585-7.078v-42.667c0-23.565 19.102-42.667 42.667-42.667s42.667 19.102 42.667 42.667v42.667c0 2.411-0.201 4.774-0.585 7.078 15.407 5.363 29.478 13.585 41.57 24.034 1.809-1.489 3.763-2.854 5.862-4.066l36.949-21.333c20.407-11.78 46.502-4.791 58.287 15.616 11.78 20.407 4.787 46.502-15.62 58.287l-36.949 21.333c-2.091 1.207-4.241 2.214-6.43 3.034 1.476 7.782 2.249 15.808 2.249 24.017 0 8.205-0.772 16.235-2.249 24.013 2.189 0.815 4.339 1.826 6.43 3.034l36.949 21.333c20.407 11.785 27.401 37.877 15.62 58.284-11.785 20.407-37.879 27.399-58.287 15.617l-36.949-21.333c-2.095-1.211-4.053-2.573-5.858-4.064-12.096 10.451-26.163 18.676-41.574 24.038 0.384 2.302 0.585 4.667 0.585 7.078v42.667c0 23.564-19.102 42.667-42.667 42.667zM469.325 448c0 23.565 19.102 42.667 42.667 42.667s42.667-19.102 42.667-42.667c0-23.565-19.102-42.667-42.667-42.667s-42.667 19.102-42.667 42.667z" />
<glyph unicode="&#xe963;" glyph-name="icon-hrivna" data-tags="icon-hrivna" d="M512 789.333c-188.513 0-341.333-152.82-341.333-341.333s152.82-341.333 341.333-341.333c188.514 0 341.333 152.819 341.333 341.333s-152.819 341.333-341.333 341.333zM85.333 448c0 235.642 191.025 426.667 426.667 426.667 235.639 0 426.667-191.025 426.667-426.667 0-235.639-191.027-426.667-426.667-426.667-235.642 0-426.667 191.027-426.667 426.667zM320 448c0 23.565 19.103 42.667 42.667 42.667h137.899c34.21 20.019 50.317 32.785 55.377 53.015 7.458 29.838-0.41 47.299-9.387 57.555-10.679 12.206-25.702 17.43-34.556 17.43-31.155 0-59.14-14.281-72.977-32.086-14.458-18.607-41.263-21.969-59.87-7.51s-21.969 41.264-7.51 59.87c31.935 41.096 86.179 65.059 140.357 65.059 33.809 0 72.124-16.11 98.778-46.57 28.356-32.41 41.822-78.95 27.947-134.443-2.978-11.921-7.386-22.643-12.8-32.32h35.409c23.565 0 42.667-19.102 42.667-42.667s-19.102-42.667-42.667-42.667h-137.899c-34.21-20.019-50.317-32.785-55.377-53.013-7.458-29.841 0.41-47.3 9.387-57.557 10.679-12.207 25.698-17.429 34.556-17.429 31.151 0 59.14 14.281 72.977 32.090 14.455 18.603 41.263 21.969 59.87 7.509s21.969-41.263 7.509-59.87c-31.932-41.097-86.178-65.062-140.356-65.062-33.813 0-72.124 16.111-98.777 46.571-28.359 32.41-41.823 78.95-27.949 134.443 2.98 11.921 7.386 22.643 12.801 32.32h-35.408c-23.564 0-42.667 19.102-42.667 42.667z" />
<glyph unicode="&#xe964;" glyph-name="icon-euro" data-tags="icon-euro" d="M512 789.333c-188.513 0-341.333-152.82-341.333-341.333s152.82-341.333 341.333-341.333c188.514 0 341.333 152.819 341.333 341.333s-152.819 341.333-341.333 341.333zM85.333 448c0 235.642 191.025 426.667 426.667 426.667 235.639 0 426.667-191.025 426.667-426.667 0-235.639-191.027-426.667-426.667-426.667-235.642 0-426.667 191.027-426.667 426.667zM341.333 533.333c0 70.692 57.308 128 128 128h85.333c45.047 0 84.659-23.27 107.469-58.444 5.103-7.031 8.115-15.682 8.115-25.035 0-23.564-19.102-42.667-42.667-42.667-14.805 0-27.849 7.539-35.499 18.987-0.192 0.132-0.346 0.296-0.461 0.492-7.377 12.753-21.167 21.333-36.958 21.333h-85.333c-23.565 0-42.667-19.103-42.667-42.667v-42.667h85.333c23.565 0 42.667-19.102 42.667-42.667s-19.102-42.667-42.667-42.667h-85.333v-42.667c0-23.565 19.102-42.667 42.667-42.667h85.333c15.454 0 28.988 8.213 36.476 20.514 0.047 0.085 0.107 0.162 0.171 0.235 7.518 12.147 20.966 20.241 36.301 20.241 23.565 0 42.667-19.106 42.667-42.667 0-8.751-2.633-16.887-7.151-23.654-22.643-36.045-62.754-60.002-108.463-60.002h-85.333c-70.692 0-128 57.306-128 128v42.667c-23.564 0-42.667 19.102-42.667 42.667s19.103 42.667 42.667 42.667v42.667z" />
<glyph unicode="&#xe965;" glyph-name="icon-case" data-tags="icon-case" d="M298.667 746.667c0 70.692 57.308 128 128 128h170.667c70.694 0 128-57.308 128-128v-42.667h85.333c70.694 0 128-57.308 128-128v-384c0-70.694-57.306-128-128-128h-597.333c-70.692 0-128 57.306-128 128v384c0 70.692 57.308 128 128 128h85.333v42.667zM640 746.667c0 23.564-19.102 42.667-42.667 42.667h-170.667c-23.564 0-42.667-19.103-42.667-42.667v-42.667h256v42.667zM170.667 576v-42.667c0-47.13 38.205-85.333 85.333-85.333h512c47.13 0 85.333 38.204 85.333 85.333v42.667c0 23.564-19.102 42.667-42.667 42.667h-597.333c-23.564 0-42.667-19.103-42.667-42.667zM426.667 362.667h-170.667c-31.086 0-60.23 8.311-85.333 22.831v-193.498c0-23.565 19.103-42.667 42.667-42.667h597.333c23.565 0 42.667 19.102 42.667 42.667v193.498c-25.101-14.519-54.246-22.831-85.333-22.831h-170.667c0-23.565-19.102-42.667-42.667-42.667h-85.333c-23.565 0-42.667 19.102-42.667 42.667z" />
<glyph unicode="&#xe966;" glyph-name="icon-bell2" data-tags="icon-bell2" d="M597.333 746.667c0-23.564-19.102-42.667-42.667-42.667v-44.774c215.607-21.407 384-203.32 384-424.56 0-23.565-19.102-42.667-42.667-42.667h-768c-23.564 0-42.667 19.102-42.667 42.667 0 221.239 168.392 403.153 384 424.56v44.774c-23.565 0-42.667 19.103-42.667 42.667s19.102 42.667 42.667 42.667h85.333c23.565 0 42.667-19.103 42.667-42.667zM850.692 277.333c-20.996 168.375-164.629 298.667-338.692 298.667s-317.696-130.291-338.693-298.667h677.385zM128 106.667c0-23.565 19.103-42.667 42.667-42.667h682.667c23.565 0 42.667 19.102 42.667 42.667s-19.102 42.667-42.667 42.667h-682.667c-23.564 0-42.667-19.102-42.667-42.667z" />
<glyph unicode="&#xe967;" glyph-name="icon-receipt" data-tags="icon-receipt" d="M85.333 746.667v-665.6c0-16.401 9.402-31.351 24.184-38.455s32.329-5.107 45.137 5.137l58.679 46.946 80.013-64.013c15.582-12.463 37.725-12.463 53.307 0l80.013 64.013 80.013-64.013c15.582-12.463 37.726-12.463 53.308 0l80.013 64.013 58.679-46.946c12.809-10.244 30.353-12.241 45.137-5.137s24.183 22.054 24.183 38.455v366.933h128c23.565 0 42.667 19.102 42.667 42.667v256c0 70.692-57.306 128-128 128h-597.333c-70.692 0-128-57.308-128-128zM768 746.667c0 23.564 19.102 42.667 42.667 42.667s42.667-19.103 42.667-42.667v-213.333h-85.333v213.333zM213.333 789.333h476.617c-4.715-13.345-7.283-27.706-7.283-42.667v-576.828l-16.013 12.813c-15.582 12.463-37.726 12.463-53.308 0l-80.013-64.013-80.013 64.013c-15.582 12.463-37.725 12.463-53.307 0l-80.013-64.013-80.013 64.013c-15.583 12.463-37.725 12.463-53.308 0l-16.013-12.813v576.828c0 23.564 19.103 42.667 42.667 42.667zM298.667 533.333h256c23.565 0 42.667-19.102 42.667-42.667s-19.102-42.667-42.667-42.667h-256c-23.564 0-42.667 19.102-42.667 42.667s19.103 42.667 42.667 42.667zM256 618.667c0-23.564 19.103-42.667 42.667-42.667h256c23.565 0 42.667 19.103 42.667 42.667s-19.102 42.667-42.667 42.667h-256c-23.564 0-42.667-19.103-42.667-42.667zM298.667 405.333h256c23.565 0 42.667-19.102 42.667-42.667s-19.102-42.667-42.667-42.667h-256c-23.564 0-42.667 19.102-42.667 42.667s19.103 42.667 42.667 42.667z" />
<glyph unicode="&#xe968;" glyph-name="icon-hummer" data-tags="icon-hummer" d="M267.409 597.532c-26.66 26.66-26.66 69.884 0 96.544l174.985 174.985c26.662 26.66 69.884 26.66 96.546 0 6.665-6.665 6.665-17.471 0-24.136l-247.395-247.393c-6.665-6.665-17.471-6.665-24.136 0zM97.83 58.185c-16.662 16.666-16.662 43.678 0 60.339l318.142 318.144c-19.852 24.094-37.54 49.481-49.615 67.661-22.615 34.050-16.468 77.89 11.028 105.386l164.076 164.077c27.499 27.497 71.339 33.643 105.391 11.026 26.522-17.616 68.386-47.182 99.187-77.981 30.797-30.799 60.361-72.666 77.978-99.187 22.618-34.050 16.469-77.893-11.025-105.387l-164.079-164.079c-27.494-27.494-71.334-33.643-105.387-11.025-18.057 11.989-43.226 29.521-67.17 49.212l-318.186-318.187c-16.663-16.661-43.677-16.661-60.34 0zM742.805 240.964c-26.658-26.658-69.884-26.658-96.542 0-6.665 6.665-6.665 17.472 0 24.137l247.394 247.394c6.665 6.665 17.468 6.665 24.137 0 26.658-26.662 26.658-69.884 0-96.546l-174.989-174.985zM601.109 712.757l-162.688-162.688c17.037-25.547 42.24-60.576 66.257-84.593 24.017-24.013 59.042-49.216 84.591-66.257l162.688 162.688c-17.041 25.547-42.244 60.573-66.261 84.59s-59.042 49.22-84.587 66.26zM545.203 107.358c-23.565 0-42.667-19.102-42.667-42.667 0-23.561 19.102-42.667 42.667-42.667h341.333c23.565 0 42.667 19.106 42.667 42.667 0 23.565-19.102 42.667-42.667 42.667h-341.333z" />
<glyph unicode="&#xe969;" glyph-name="icon-moon" data-tags="icon-moon" d="M406.943 826.729c12.801-12.801 16.131-32.286 8.305-48.611-20.017-41.762-31.249-88.568-31.249-138.118 0-176.733 143.27-319.999 320-319.999 49.549 0 96.354 11.23 138.116 31.249 16.329 7.825 35.814 4.493 48.614-8.307s16.128-32.286 8.303-48.61c-65.263-136.162-204.442-230.332-365.7-230.332-223.86 0-405.333 181.474-405.333 405.333 0 161.258 94.172 300.438 230.332 365.701 16.325 7.825 35.811 4.495 48.611-8.305zM301.746 690.176c-54.802-57.453-88.413-135.242-88.413-220.843 0-176.734 143.269-320 320-320 85.602 0 163.392 33.609 220.843 88.414-16.448-2.035-33.195-3.081-50.176-3.081-223.859 0-405.333 181.474-405.333 405.332 0 16.983 1.047 33.729 3.080 50.177z" />
<glyph unicode="&#xe96a;" glyph-name="icon-play" data-tags="icon-play" d="M85.333 448c0 235.642 191.025 426.667 426.667 426.667 235.639 0 426.667-191.025 426.667-426.667 0-235.639-191.027-426.667-426.667-426.667-235.642 0-426.667 191.027-426.667 426.667zM170.667 448c0-188.514 152.82-341.333 341.333-341.333s341.333 152.819 341.333 341.333c0 188.513-152.819 341.333-341.333 341.333s-341.333-152.82-341.333-341.333zM480 509.751v-123.503l92.1 61.751-92.1 61.751zM672.478 483.439c25.207-16.9 25.207-53.973 0-70.878l-211.383-141.726c-28.348-19.004-66.428 1.31-66.428 35.439v283.453c0 34.129 38.080 54.444 66.428 35.439l211.383-141.727z" />
<glyph unicode="&#xe96b;" glyph-name="icon-pause" data-tags="icon-pause" d="M938.667 448c0 235.642-191.027 426.667-426.667 426.667-235.642 0-426.667-191.025-426.667-426.667 0-235.639 191.025-426.667 426.667-426.667 235.639 0 426.667 191.027 426.667 426.667zM853.333 448c0-188.514-152.819-341.333-341.333-341.333s-341.333 152.819-341.333 341.333c0 188.513 152.82 341.333 341.333 341.333s341.333-152.82 341.333-341.333zM384 576v-256c0-23.565 19.103-42.667 42.667-42.667s42.667 19.102 42.667 42.667v256c0 23.564-19.102 42.667-42.667 42.667s-42.667-19.103-42.667-42.667zM597.333 618.667c23.565 0 42.667-19.103 42.667-42.667v-256c0-23.565-19.102-42.667-42.667-42.667s-42.667 19.102-42.667 42.667v256c0 23.564 19.102 42.667 42.667 42.667z" />
</font>
</defs>
</svg>
