<svg width="22" height="20" viewBox="0 0 22 20" fill="none" xmlns="http://www.w3.org/2000/svg">
<path d="M11 19.8C10.7 19.8 10.5 19.7 10.3 19.5L1.9 11.1C0.7 9.9 0 8.2 0 6.5C0 2.9 2.9 0 6.5 0C8.5 0 10 1.1 11 2.5C12 1.1 13.5 0 15.5 0C19.1 0 22 2.9 22 6.5C22 8.3 21.1 10.1 19.5 11.7L11.7 19.4C11.5 19.7 11.2 19.8 11 19.8ZM6.5 2C4 2 2 4 2 6.5C2 7.7 2.5 8.8 3.3 9.7L11 17.4L18.1 10.4C19.4 9.1 20.1 7.8 20.1 6.6C20 4 18 2 15.5 2C13.8 2 12.5 3.5 11.9 4.9C11.7 5.3 11.4 5.5 11 5.5C10.6 5.5 10.2 5.3 10.1 4.9C9.5 3.5 8.2 2 6.5 2Z" fill="#121212"/>
</svg>
