<svg xmlns="http://www.w3.org/2000/svg" width="24" height="18" fill="none"><g clip-path="url(#a)"><path fill="#D0103A" d="M0 0h24v18H0V0Z"/><path fill="#FEDF00" d="M0 0h16.32v18H0V0Z"/><path fill="#0018A8" d="M0 0h7.68v18H0V0Z"/><path fill="#C7B37F" d="M11.265 5.123c.289 0 .409.247.697.247.177 0 .282-.056.44-.146a.543.543 0 0 1 .3-.094c.127 0 .206.038.273.15.037.06.068.184.049.251a1.5 1.5 0 0 1-.101.312c-.027.06-.05.093-.05.157 0 .154.21.206.353.21.03 0 .289 0 .45-.157-.086-.004-.184-.075-.184-.162 0-.097.068-.16.162-.19.018-.005.049.01.063 0 .027-.012.015-.038.038-.053.045-.038.075-.06.135-.06.037 0 .06.003.094.026.015.015.022.03.037.03.045 0 .068-.03.113-.03.03 0 .06.008.086.022.022.012.022.057.053.057.014 0 .09-.034.13-.034.083 0 .128.03.18.094.016.018.023.052.038.052a.233.233 0 0 1 .18.113c.011.015.027.052.041.056.023.011.038.007.064.026a.225.225 0 0 1 .105.18c0 .026-.011.06-.018.083-.068.243-.237.322-.405.536-.075.09-.132.161-.132.277 0 .027.038.08.049.102-.008-.053.019-.12.075-.124a.15.15 0 0 1 .15.135.17.17 0 0 1-.011.067.36.36 0 0 1 .15-.052h.071c.124 0 .263.071.349.142a.787.787 0 0 1 .274.63c-.03.195-.012.555-.518.698.094.037.158.112.158.195a.169.169 0 0 1-.165.176.165.165 0 0 1-.132-.052c-.105.105-.123.213-.123.363 0 .09.014.143.052.225a.467.467 0 0 0 .139.192c.037-.057.079-.098.15-.098.063 0 .12.023.146.083.008.018 0 .033.011.052.011.023.03.026.041.049.02.037 0 .067.02.101.01.026.033.03.044.053.015.037.019.06.019.1 0 .113-.101.196-.214.196-.037 0-.052-.015-.086-.011.064.063.112.093.161.168a.663.663 0 0 1 .113.387.825.825 0 0 1-.105.42.75.75 0 0 1-.263.318 1.312 1.312 0 0 1-.6.24 2.793 2.793 0 0 1-.412.053l-.529.03c-.27.015-.458.056-.649.247.09.064.15.132.15.24a.236.236 0 0 1-.176.233c-.026.007-.045 0-.071.015-.027.015-.027.049-.053.064a.233.233 0 0 1-.142.037.302.302 0 0 1-.24-.094c-.083.068-.113.128-.207.184-.03.015-.045.038-.078.038-.056 0-.083-.038-.128-.068a.865.865 0 0 1-.165-.15c-.086.049-.135.09-.236.09a.263.263 0 0 1-.15-.037c-.022-.02-.03-.045-.056-.06-.027-.02-.049-.012-.079-.027-.112-.048-.188-.13-.188-.255 0-.108.068-.176.165-.225-.187-.187-.374-.217-.637-.232l-.525-.03a3.621 3.621 0 0 1-.413-.053c-.123-.018-.195-.026-.307-.078-.383-.18-.63-.424-.675-.844-.008-.038-.008-.056-.008-.094 0-.217.087-.352.24-.506-.037-.011-.063 0-.105-.011-.093-.038-.165-.102-.165-.207 0-.037 0-.063.02-.097.014-.023.037-.026.044-.053.008-.037 0-.06.015-.093.011-.02.03-.023.038-.045.037-.072.075-.128.153-.128.068 0 .113.038.143.094.067-.03.082-.079.12-.139a.581.581 0 0 0 .052-.499c-.015-.056-.022-.093-.067-.138a.164.164 0 0 1-.128.052c-.108 0-.187-.094-.187-.199a.18.18 0 0 1 .112-.172c-.06-.053-.112-.056-.176-.098-.097-.06-.131-.127-.195-.225-.045-.06-.056-.105-.075-.176a.713.713 0 0 1-.037-.292.766.766 0 0 1 .172-.447.495.495 0 0 1 .218-.183c.086-.038.138-.064.232-.064l.075.004a.259.259 0 0 1 .105.03c.015.007.041.033.041.015 0-.02-.01-.03-.01-.05 0-.074.055-.15.134-.15.056 0 .079.053.109.102.015-.03.026-.052.026-.086 0-.128-.071-.195-.15-.296-.176-.218-.394-.32-.394-.6 0-.083.038-.14.113-.184.019-.011.049 0 .067-.011.02-.012.015-.038.027-.053.018-.026.037-.037.06-.06.037-.037.075-.022.116-.056.022-.015.03-.038.045-.053.049-.06.094-.09.172-.09.038 0 .06 0 .094.015l.038.02c.01-.008.03-.03.056-.042a.15.15 0 0 1 .082-.023c.042 0 .068.023.113.023.011 0 .015-.015.03-.023.037-.026.056-.037.101-.037.045 0 .068.011.105.037.038.02.038.05.075.068.019.011.038.007.056.015.098.034.17.097.17.199 0 .056-.012.093-.053.13-.034.027-.064.023-.105.038a.6.6 0 0 0 .424.132c.157 0 .348-.064.348-.222 0-.075-.037-.112-.067-.18a.705.705 0 0 1-.079-.318c0-.105.011-.17.071-.252.06-.086.135-.108.244-.108Z"/><path fill="#703D29" fill-rule="evenodd" d="M10.397 5.758a.013.013 0 0 1 .017-.001.19.19 0 0 1 .069.088.17.17 0 0 1-.025.163.144.144 0 0 1-.157.057.148.148 0 0 1-.098-.099.013.013 0 0 1 .003-.013l.191-.195Zm.01.027-.177.181a.121.121 0 0 0 .08.074.118.118 0 0 0 .128-.049.145.145 0 0 0 .02-.137.162.162 0 0 0-.05-.07Zm4.691 2.897a.198.198 0 0 1 .068.261.163.163 0 0 1-.102.081.185.185 0 0 1-.144-.02c-.043-.027-.07-.078-.06-.151a.075.075 0 0 1 .025-.05.104.104 0 0 1 .053-.025.093.093 0 0 1 .062.01.12.12 0 0 1 .05.061.013.013 0 0 1-.007.017.013.013 0 0 1-.017-.007.093.093 0 0 0-.039-.048.067.067 0 0 0-.045-.007.078.078 0 0 0-.04.02.049.049 0 0 0-.016.03v.001c-.009.066.015.105.049.127a.159.159 0 0 0 .122.017.137.137 0 0 0 .086-.069.162.162 0 0 0 .014-.128.17.17 0 0 0-.074-.098c-.03-.02-.063-.02-.12-.02-.098 0-.192.057-.27.15a.83.83 0 0 0-.167.342 1.06 1.06 0 0 0-.011.444c.03.157.106.302.217.417.104.098.23.172.366.215a.284.284 0 0 0 .143.003.16.16 0 0 0 .116-.089.175.175 0 0 0-.012-.155.174.174 0 0 0-.117-.087.117.117 0 0 0-.07.007.13.13 0 0 0-.06.057.346.346 0 0 1-.008.023.094.094 0 0 0-.005.028c0 .015.003.032.01.047a.07.07 0 0 0 .021.032c.026.015.057.02.08.01a.055.055 0 0 0 .029-.023.091.091 0 0 0 .01-.05c0-.008.005-.014.012-.014.008 0 .014.005.014.013a.117.117 0 0 1-.014.064.081.081 0 0 1-.041.035.123.123 0 0 1-.104-.013.095.095 0 0 1-.032-.044.158.158 0 0 1-.011-.057.12.12 0 0 1 .006-.036l.006-.015a.08.08 0 0 1 .003-.01l.001-.002a.157.157 0 0 1 .072-.069.143.143 0 0 1 .086-.009.2.2 0 0 1 .135.101.2.2 0 0 1 .013.178.186.186 0 0 1-.134.104.31.31 0 0 1-.156-.004.976.976 0 0 1-.377-.22v-.001a.853.853 0 0 1-.225-.43 1.085 1.085 0 0 1 .011-.456.86.86 0 0 1 .173-.354c.08-.095.181-.159.29-.159h.003c.053 0 .095 0 .132.025Z" clip-rule="evenodd"/><path fill="#703D29" fill-rule="evenodd" d="M14.642 10.151a.409.409 0 0 0-.238.134l-.023-.02a.439.439 0 0 1 .257-.144.487.487 0 0 1 .316.077.709.709 0 0 1 .414.65m-2.658-5.56a.168.168 0 0 1 .097.042l.001.001a.165.165 0 0 1 .05.113.376.376 0 0 1-.02.125.64.64 0 0 1-.103.188.337.337 0 0 0-.066.184c-.001.03.002.05.008.067l.006.019c0 .003.002.005.003.008.003.01.007.02.01.034l.005.025-.024-.01-.019-.01a1.221 1.221 0 0 0-.294-.106.254.254 0 0 0-.13.009.203.203 0 0 0-.103.09.18.18 0 0 0 .003.175c.03.056.086.098.155.098a.12.12 0 0 0 .076-.026.156.156 0 0 0 .046-.07.116.116 0 0 0 .004-.069.298.298 0 0 0-.032-.067l.022-.013a.329.329 0 0 1 .035.073.142.142 0 0 1-.004.084.182.182 0 0 1-.054.082.143.143 0 0 1-.093.032.202.202 0 0 1-.178-.111.206.206 0 0 1-.002-.202.23.23 0 0 1 .115-.1.28.28 0 0 1 .144-.011c.093.014.196.06.294.106l-.001-.004-.003-.008-.007-.02a.207.207 0 0 1-.008-.076.363.363 0 0 1 .07-.197l.019-.029a.61.61 0 0 0 .08-.153.351.351 0 0 0 .02-.116.138.138 0 0 0-.042-.095.142.142 0 0 0-.082-.036.222.222 0 0 0-.096.016.939.939 0 0 0-.126.065 2.146 2.146 0 0 1-.123.067.861.861 0 0 1-.378.094.864.864 0 0 1-.38-.094 2.187 2.187 0 0 1-.12-.065l-.016-.01a.911.911 0 0 0-.115-.057.226.226 0 0 0-.096-.016.137.137 0 0 0-.081.04.129.129 0 0 0-.043.092.375.375 0 0 0 .02.119.63.63 0 0 0 .077.143l.023.034a.373.373 0 0 1 .07.202.236.236 0 0 1-.015.087.42.42 0 0 0-.006.017l.01-.005a1.23 1.23 0 0 1 .288-.105.269.269 0 0 1 .145.01.22.22 0 0 1 .112.106.214.214 0 0 1-.004.202.199.199 0 0 1-.176.106.148.148 0 0 1-.093-.03.17.17 0 0 1-.055-.08.19.19 0 0 1 .032-.162l.022.015a.164.164 0 0 0-.029.139c.01.03.026.053.046.068.02.015.045.024.077.024.07 0 .123-.04.153-.093a.188.188 0 0 0 .004-.177.193.193 0 0 0-.099-.094.243.243 0 0 0-.13-.008 1.22 1.22 0 0 0-.317.12l-.023.01.005-.025c.004-.02.009-.034.013-.047l.005-.015a.206.206 0 0 0 .008-.063.347.347 0 0 0-.065-.187l-.022-.033a.69.69 0 0 1-.081-.15v-.001a.4.4 0 0 1-.021-.128.155.155 0 0 1 .05-.11.163.163 0 0 1 .097-.047.25.25 0 0 1 .108.017.93.93 0 0 1 .119.06l.016.01c.037.02.076.042.12.063.098.048.216.09.367.092a.835.835 0 0 0 .366-.092c.044-.021.084-.044.122-.066l.013-.007a.965.965 0 0 1 .117-.06.248.248 0 0 1 .107-.017Zm1.82 5.31c-.028.043-.037.08-.027.112l.002.009-1.153.883c.06-.002.12 0 .178.003h.36c.034-.003.063-.004.09-.005.05-.003.092-.005.152-.014.214-.023.388-.06.535-.148.187-.114.33-.389.238-.645v-.004a.194.194 0 0 0-.036-.086l-.04-.06a.265.265 0 0 0-.09-.079c-.082-.039-.168-.02-.208.034Zm-1.222 1.005 1.167-.894c-.008-.04.005-.083.034-.126.05-.067.151-.085.242-.042.04.021.073.05.099.087l.041.06c.026.04.039.076.04.099.095.268-.055.555-.25.673-.153.092-.331.13-.545.152-.06.01-.107.012-.156.014-.027.001-.056.002-.089.005h-.361a2.597 2.597 0 0 0-.213-.002l-1.126.861h-.006c-.155-.028-.213-.126-.213-.201v-.062c.02-.106.094-.184.169-.258l.049-.046a.269.269 0 0 1 .047-.036.876.876 0 0 1 .025-.015h.002l.022-.014c.106-.069.235-.118.37-.16l.045-.01h.001a.199.199 0 0 1 .069-.016 2.542 2.542 0 0 1 .387-.057l.1-.01h.001l.049-.002Zm-.037.027-1.087.832c-.14-.026-.186-.114-.186-.173v-.059c.019-.096.086-.168.161-.243l.049-.045a.245.245 0 0 1 .043-.033l.025-.014.024-.015a1.49 1.49 0 0 1 .364-.156l.045-.011a.21.21 0 0 1 .064-.015h.003a1.67 1.67 0 0 1 .2-.037h.001c.064-.01.12-.015.183-.02a6.845 6.845 0 0 0 .111-.01Z" clip-rule="evenodd"/><path fill="#703D29" fill-rule="evenodd" d="m11.786 5.973.019.013a.212.212 0 0 1 .096.2.213.213 0 0 1-.03.105.296.296 0 0 1-.08.073l-.022.015.017-.406Zm.024.049-.012.286a.106.106 0 0 0 .042-.034.122.122 0 0 0 .02-.065c0-.007.006-.012.013-.012l.002-.014a.184.184 0 0 0-.065-.161Z" clip-rule="evenodd"/><path fill="#C7B37F" d="m10.376 5.749.027.019.03.03.018.037.008.03v.072l-.008.03-.019.022-.022.023-.034.018-.037.008-.038.007-.037-.018-.034-.023-.019-.03-.015-.037v-.015l.18-.173Z"/><path fill="#703D29" fill-rule="evenodd" d="M10.392 5.738a.182.182 0 0 1 .068.089.17.17 0 0 1-.02.162.163.163 0 0 1-.16.058h-.001c-.094-.029-.13-.132-.082-.197.038-.047.123-.032.136.043a.013.013 0 1 1-.026.004c-.009-.052-.066-.06-.089-.031-.034.047-.01.13.068.155a.137.137 0 0 0 .133-.048c.033-.044.03-.095.016-.137a.156.156 0 0 0-.058-.076.22.22 0 0 0-.169-.04.177.177 0 0 0-.134.109c-.032.077-.013.145.032.207a.9.9 0 0 0 .706.304c.313-.004.557-.142.727-.237l.042-.024c.042-.025.09-.022.118.01a.088.088 0 0 1-.013.12.013.013 0 1 1-.017-.02.062.062 0 0 0 .01-.083c-.018-.02-.05-.025-.084-.005a5.27 5.27 0 0 0-.044.025c-.169.095-.419.236-.74.24a.927.927 0 0 1-.726-.314c-.05-.067-.072-.145-.036-.233a.203.203 0 0 1 .155-.124.246.246 0 0 1 .188.043Zm-1.057 4.781-.294.42-.023-.01.007-.053.015-.068.02-.058.042-.077.04-.051.077-.063.116-.04Zm-.103.064-.072.057-.036.047-.04.073-.018.055-.014.063.215-.307-.035.012Zm.494.035.004-.066.026.001-.004.069-.011.047-.039.085-.05.07-.06.047-.043.02-.061.015-.007-.025.059-.015.039-.017.053-.043.047-.065.037-.08.01-.043Zm2.062 1.866c.123-.021.176-.089.186-.145l.03.005c-.013.071-.078.146-.21.17l-.021.007-.01-.029.024-.008Zm3.512-1.889a.668.668 0 0 0-.154-.226l.024-.024a.704.704 0 0 1 .215.519.881.881 0 0 1-.077.36l-.008.018a.771.771 0 0 1-.12.2c-.083.103-.221.22-.454.315h-.002c-.312.1-.637.15-.964.151a2.978 2.978 0 0 0-.54.048.7.7 0 0 0-.4.22l-.026-.022a.732.732 0 0 1 .42-.231c.165-.037.352-.043.545-.049.324 0 .646-.05.955-.149.227-.092.36-.206.44-.303a.735.735 0 0 0 .124-.213.85.85 0 0 0 .073-.345.67.67 0 0 0-.05-.269Z" clip-rule="evenodd"/><path fill="#703D29" fill-rule="evenodd" d="M14.622 10.566a.175.175 0 0 0-.082.05l-.017-.015a.197.197 0 0 1 .093-.056.176.176 0 0 1 .138.012.243.243 0 0 1 .09.079l-.018.013a.221.221 0 0 0-.082-.072.154.154 0 0 0-.122-.01Zm.703-.631a.24.24 0 0 1 .073.085v.001a.212.212 0 0 1-.001.182.207.207 0 0 1-.13.1.28.28 0 0 1-.159 0l-.053-.02.011-.031.052.018a.246.246 0 0 0 .14 0 .174.174 0 0 0 .109-.083.178.178 0 0 0 0-.152.209.209 0 0 0-.062-.073l.02-.027Zm-4.866-4.023c.007 0 .013.006.013.013a.121.121 0 0 1-.035.089.176.176 0 0 1-.088.044.013.013 0 0 1-.015-.01.013.013 0 0 1 .01-.016.15.15 0 0 0 .075-.037.095.095 0 0 0 .027-.07c0-.007.006-.013.013-.013ZM8.953 7.507l.052-.026.017.02-.278.37-.023-.01a1.1 1.1 0 0 1 .099-.259v-.001l.002-.001c.043-.05.084-.07.131-.093Zm-.11.11c-.032.058-.058.12-.078.183l.202-.27-.005.002a.334.334 0 0 0-.12.084Zm6.319-.345a.701.701 0 0 0-.27-.06v-.023a.723.723 0 0 1 .708.754c0 .302-.094.479-.207.585-.11.102-.236.137-.31.158l-.009.003-.006-.022.008-.002c.074-.021.196-.055.301-.153.109-.102.2-.272.2-.57a.701.701 0 0 0-.415-.67Z" clip-rule="evenodd"/><path fill="#703D29" fill-rule="evenodd" d="M15.356 7.382a.537.537 0 0 0-.415-.169l-.001-.026a.563.563 0 0 1 .435.177c.121.128.205.328.212.612.012.446-.305.65-.46.688l-.006-.025c.146-.037.451-.231.44-.662-.007-.28-.09-.473-.205-.595Zm-.36-1.311.015.06-.004.103-.019.085-.03.065-.054.076-.057.072-.041.05-.076.07-.075.083-.026.027-.163.286-.021-.007.012-.066.03-.062.039-.057.06-.083.025-.025.385-.677Zm-.32.608.038-.042.075-.071.04-.048h.001l.056-.071.052-.074.029-.062.018-.08.004-.099-.313.547Zm-.146.211-.023.034-.024.048.047-.082Zm-5.076.291v-.037h.022v.037h-.022Zm.027.186.033-.009.042-.018.035-.035.03-.036.017-.036.002-.006-.159.14Zm.179-.187.018.013-.02.049-.019.04-.03.038-.04.04-.048.02-.044.011-.049-.008.232-.203Zm-.314 1.23-.017.113-.02.04-.03.047-.048.036-.047.023-.125.028.287-.288Zm-.217.248.047-.01.043-.021.043-.032.028-.043.018-.035.006-.044-.185.185Zm6.066.167v.084l-.02.04-.028.044-.033.024-.048.02h-.044l-.055-.006.228-.206Zm-.177.19h.043l.042-.017.027-.02.025-.04.017-.034v-.029l-.154.14Zm-5.894-.152-.012.085-.017.024-.016.025-.029.02-.029.013-.04.004H8.93l.195-.171Zm-.134.147.026-.002.023-.01.024-.017.027-.041.003-.02-.103.09Zm5.861.043-.02.038-.027.073-.011.05.058-.16Zm.031-.082.02.01-.124.338-.022-.005.004-.06.023-.096.027-.076.034-.062.038-.05Zm-6.124 1.3.162-.022.005.021-.062.024H8.76l-.002-.023Zm5.946.437v.063l-.012.048-.02.033-.03.028-.047.024-.098.025.207-.221Zm-.139.18.022-.005.042-.021.024-.024.018-.027.01-.042v-.004l-.116.124ZM9.452 8.443l.078-.052.014.017a.27.27 0 0 1-.082.055l-.01-.02Zm5.792 1.596a.011.011 0 0 1 .014.007.08.08 0 0 1 0 .062.084.084 0 0 1-.037.039.114.114 0 0 1-.105.003l-.018-.007a.011.011 0 1 1 .008-.02l.02.007c.022.013.057.012.084-.003a.062.062 0 0 0 .028-.029.058.058 0 0 0 0-.044.011.011 0 0 1 .006-.015Z" clip-rule="evenodd"/><path fill="#703D29" fill-rule="evenodd" d="m15.09 8.682.025.012.001.001c.02.017.037.037.05.058.016.019.028.04.036.063a.187.187 0 0 1-.058.199.162.162 0 0 1-.059.03.18.18 0 0 1-.157-.033l.074.808-.07-.054a.6.6 0 0 1-.165-.41.7.7 0 0 1 .04-.228.36.36 0 0 1 .1-.155l.01-.009.172-.282Zm-.159.302c.035.04.098.052.149.039a.138.138 0 0 0 .086-.07.165.165 0 0 0 .014-.13.174.174 0 0 0-.031-.056h-.001a.243.243 0 0 0-.046-.054l-.004-.002-.167.273Zm-.026.02a.376.376 0 0 0-.076.132.655.655 0 0 0-.04.22.581.581 0 0 0 .159.393l.027.021-.07-.765Zm.21.67.033.005c.072.011.132.063.137.134l.011.011a.162.162 0 0 1 .053.121c0 .01-.002.02-.004.029l-.008.033-.085-.192-.137-.141Zm.179.18.03.07a.134.134 0 0 0-.03-.07Zm-.11-.142a.128.128 0 0 1 .073.076l-.073-.076Zm-1.933 2.22-.112.023-.059.018-.081.037-.085.052-.044.037-.016.014.439-.188-.042.007Zm-.004-.022.135-.022.006.021-.589.251-.011-.018.067-.06.046-.039.087-.053.084-.038.061-.02.114-.022Zm-1.255.933a.652.652 0 0 1-.275-.223l-.019.013a.674.674 0 0 0 .29.232l.004.002.005-.002a.648.648 0 0 0 .29-.232l-.019-.013a.626.626 0 0 1-.276.223Z" clip-rule="evenodd"/><path fill="#703D29" fill-rule="evenodd" d="M11.793 12.462a.01.01 0 0 1 .008.013.386.386 0 0 1-.085.163.011.011 0 1 1-.017-.015.363.363 0 0 0 .08-.153.011.011 0 0 1 .014-.008Z" clip-rule="evenodd"/><path fill="#703D29" fill-rule="evenodd" d="M11.989 5.557v-.018h.01c.149-.008.287-.061.399-.116.045-.022.087-.045.122-.064l.023-.013.055-.028a.223.223 0 0 1 .138-.019.172.172 0 0 1 .066.034.169.169 0 0 1 .016.014l-.015.016a.119.119 0 0 0-.079-.035.256.256 0 0 0-.097.019.955.955 0 0 0-.113.057l-.013.007a2.235 2.235 0 0 1-.123.066.89.89 0 0 1-.374.095v.008a.882.882 0 0 1-.377-.096 1.724 1.724 0 0 1-.123-.065l-.013-.008a.927.927 0 0 0-.117-.057c-.066-.029-.128-.028-.176.02a.14.14 0 0 0-.043.097.351.351 0 0 0 .02.117c.02.058.05.104.08.15l.02.03a.366.366 0 0 1 .069.198c0 .047-.008.07-.02.102l-.002.007h-.03l.004-.014a.516.516 0 0 1 .006-.023.22.22 0 0 0 .012-.072.357.357 0 0 0-.062-.186l-.02-.032a.692.692 0 0 1-.079-.153.455.455 0 0 1-.025-.128c0-.041.012-.08.047-.113a.145.145 0 0 1 .1-.045.274.274 0 0 1 .11.024 1 1 0 0 1 .117.059l.013.007c.038.021.078.044.122.065a.875.875 0 0 0 .001 0 2.268 2.268 0 0 1-.116-.061l-.02-.011a.971.971 0 0 0-.117-.058l-.003.01m3.515 3.589.102.887-.02-.016a.593.593 0 0 1-.237-.474c0-.079.016-.159.041-.227a.386.386 0 0 1 .098-.157l.016-.013Zm-.093.178a.646.646 0 0 0-.04.219.57.57 0 0 0 .207.44l-.092-.791a.411.411 0 0 0-.075.132Zm-3.029 3.363.015-.082.023.004-.015.082-.023-.004Zm.203.361a.64.64 0 0 0 .275-.226l.02.012a.658.658 0 0 1-.291.237l-.005.001-.004-.001a.676.676 0 0 1-.269-.209l-.034.035-.067.035-.076.023-.008-.02.17-.092-.005-.009.018-.013c.07.1.165.179.276.227Zm-.331-6.748a.092.092 0 0 0-.053.013l-.087.049a.011.011 0 0 1-.015-.005.011.011 0 0 1 .004-.015l.086-.049a.115.115 0 0 1 .066-.016c.022.002.043.01.057.026.026.03.03.086-.009.12a.011.011 0 0 1-.015-.017.065.065 0 0 0 .007-.088.059.059 0 0 0-.041-.018Z" clip-rule="evenodd"/><path fill="#703D29" fill-rule="evenodd" d="m11.036 6.327.503-.206.006.013.005-.002.01.02a1.822 1.822 0 0 1-.506.208l-.004-.013a.479.479 0 0 1-.007.002l-.007-.022Zm-1.4 1.09a.255.255 0 0 0-.073-.092l.014-.017a.277.277 0 0 1 .106.222c0 .122-.101.317-.346.386a.322.322 0 0 1-.245-.031l.011-.02a.3.3 0 0 0 .228.03c.235-.067.33-.254.33-.365a.255.255 0 0 0-.025-.114Zm5.332 1.362.248 1.368-.009.004a.116.116 0 0 1-.056.01.266.266 0 0 1-.064-.018h-.001l-.069-.038a.787.787 0 0 1-.32-.342.716.716 0 0 1-.064-.175.463.463 0 0 1-.019-.126h.011-.01a.971.971 0 0 1 .177-.58m.08-.055a.242.242 0 0 0-.061.067.949.949 0 0 0-.174.567.707.707 0 0 0 .081.291c.067.14.176.257.31.333l.067.037c.026.01.043.015.058.016a.08.08 0 0 0 .037-.005l-.24-1.33a.156.156 0 0 0-.077.024Zm-2.11 3.46.005.004c.012.006.02.018.026.026a.148.148 0 0 1 .008.014v.002l.008.014a.053.053 0 0 1 .005.02.087.087 0 0 1-.018.075.108.108 0 0 1-.066.034.136.136 0 0 1-.144-.081l-.004-.01.18-.098Zm.02.055h-.001v-.002l-.002-.001a.075.075 0 0 0-.019-.025l-.149.081c.02.037.062.065.115.06a.086.086 0 0 0 .053-.027.065.065 0 0 0 .013-.058v-.002a.03.03 0 0 0-.004-.012l-.004-.008a.204.204 0 0 1-.003-.005Z" clip-rule="evenodd"/><path fill="#703D29" fill-rule="evenodd" d="M9.647 7.765a.13.13 0 0 0-.042-.046l.013-.018a.151.151 0 0 1 .049.054.16.16 0 0 1-.004.148.347.347 0 0 1-.055.077.476.476 0 0 1-.338.154.408.408 0 0 1-.231-.066.349.349 0 0 1-.147-.21l.021-.005c.02.08.07.15.138.196a.386.386 0 0 0 .219.062.454.454 0 0 0 .322-.146.325.325 0 0 0 .05-.071.139.139 0 0 0 .005-.129Z" clip-rule="evenodd"/><path fill="#703D29" fill-rule="evenodd" d="M14.723 7.114a.22.22 0 0 1 .007.145l-.008.028-.126-.24h.018a.11.11 0 0 1 .11.067Zm-.09-.044a.087.087 0 0 1 .07.054.184.184 0 0 1 .011.1l-.08-.154Zm-.319.363v.033h-.023v-.333h.023v.052h.011v.248h-.011Zm-4.706-.124a.233.233 0 0 0 .05-.086l.02.007a.255.255 0 0 1-.14.157c-.077.032-.16 0-.206-.031l.012-.019c.044.03.118.057.184.03a.233.233 0 0 0 .08-.058Zm4.706.446v.023h-.023V7.59h.023v.034h.011v.131h-.011Zm-4.712.186.013.012c.052.048.068.108.068.181 0 .105-.043.187-.143.27a.404.404 0 0 1-.076.058l-.026.016.164-.537Zm.011.042-.136.444a.302.302 0 0 0 .048-.038v-.001c.096-.081.135-.157.135-.254 0-.063-.011-.111-.047-.151Zm-.09.988.132-.176.02.01a.319.319 0 0 1-.136.182l-.015-.016Zm4.727 1.558-.008.017a.714.714 0 0 1-.16.214.936.936 0 0 1-.47.24c-.085.019-.171.03-.258.033-.094 0-.147 0-.24-.008m-2.22 0a1.745 1.745 0 0 1-.24.008v-.011.01a1.247 1.247 0 0 1-.507-.113.742.742 0 0 1-.244-.183l-.015-.017 4.362-.19m-4.314.21a.723.723 0 0 0 .22.16c.157.071.326.11.498.111.094.004.146 0 .24-.007a2.21 2.21 0 0 0 .154-.018l.096-.012c.083-.008.128-.012.211-.012a1.075 1.075 0 0 1 .413.069.834.834 0 0 1 .235.137.793.793 0 0 1 .085-.062.952.952 0 0 1 .148-.075c.133-.05.275-.074.417-.069.066-.002.11.002.166.007l.045.005c.05.004.09.01.127.015h.003c.037.006.074.011.12.015.094.007.146.007.24.007.085-.002.17-.013.252-.033h.001a.913.913 0 0 0 .245-.082.724.724 0 0 0 .214-.151.689.689 0 0 0 .147-.19l-4.277.185Zm3.032 1.617v.058l-.012.066-.012.025-.066.077-.047.032-.067.027-.1.006.304-.29Zm-.244.265.035-.002.061-.025.043-.028.062-.073.01-.02.01-.061v-.003l-.221.212Zm-1.165.114-.067.008-.003-.023.067-.007.003.022ZM9.143 7.416c0-.006.006-.01.012-.01a.12.12 0 0 1 .104.091v.001c.006.041-.007.075-.031.095a.08.08 0 0 1-.09.007.011.011 0 1 1 .01-.02c.024.013.048.01.065-.004s.029-.04.024-.074a.097.097 0 0 0-.084-.073.011.011 0 0 1-.01-.013Zm.1 3.149a.2.2 0 0 1 .23.04h.001c.016.022.03.05.034.078a.105.105 0 0 1-.015.082c-.014.018-.028.027-.043.03a.15.15 0 0 1-.037-.006l-.003-.001a.04.04 0 0 1-.023-.016l-.004-.007-.002-.003a.064.064 0 0 0-.006-.007l.016-.016a.087.087 0 0 1 .008.01l.003.004a.104.104 0 0 0 .003.005c.004.005.007.007.01.008l.004.001c.012.004.02.006.028.005.007 0 .016-.005.028-.02a.083.083 0 0 0 .011-.065.173.173 0 0 0-.03-.068.176.176 0 0 0-.203-.035l-.007.005a.28.28 0 0 0-.087.075l-.04.06a.312.312 0 0 0-.04.086.573.573 0 0 0 .15.578l-.016.016a.596.596 0 0 1-.156-.6.336.336 0 0 1 .042-.093l.042-.06a.295.295 0 0 1 .093-.081l.008-.005Zm3.507 1.719a.011.011 0 0 1 .016.001l.028.032.008.037a.087.087 0 0 1-.017.077.109.109 0 0 1-.067.034.129.129 0 0 1-.136-.082.011.011 0 0 1 .006-.015.011.011 0 0 1 .015.006.106.106 0 0 0 .111.069.086.086 0 0 0 .053-.027.063.063 0 0 0 .013-.057l-.007-.031-.024-.028a.011.011 0 0 1 0-.016Z" clip-rule="evenodd"/><path fill="#703D29" fill-rule="evenodd" d="m14.592 5.792.013.002a.289.289 0 0 1 .246.273.418.418 0 0 1-.04.195.867.867 0 0 1-.105.157 1.28 1.28 0 0 1-.099.111l-.005.51.015.003c.056.01.094.058.106.113a.179.179 0 0 1-.056.169.228.228 0 0 1-.093.049.173.173 0 0 1-.122-.01.255.255 0 0 1-.13-.122.456.456 0 0 1-.037-.203c0-.137.079-.265.168-.373.043-.053.09-.101.132-.145l.007-.729Zm.015.705a1.04 1.04 0 0 0 .105-.124c.032-.044.059-.08.079-.121a.396.396 0 0 0 .037-.184.266.266 0 0 0-.213-.25l-.008.68Zm-.023.057a2.383 2.383 0 0 0-.114.127c-.088.107-.163.229-.163.358 0 .08.011.143.036.193.025.05.063.086.119.112a.15.15 0 0 0 .106.008.207.207 0 0 0 .084-.044.156.156 0 0 0 .049-.147c-.01-.05-.043-.088-.088-.096a.097.097 0 0 0-.012-.002l-.001.162-.01.001c-.034.003-.059-.008-.074-.028a.093.093 0 0 1-.016-.07.108.108 0 0 1 .036-.065.09.09 0 0 1 .043-.02l.005-.489Zm-.005.511a.067.067 0 0 0-.029.015.085.085 0 0 0-.027.052.07.07 0 0 0 .01.053c.01.01.023.019.044.02l.002-.14Zm.44 2.658a.15.15 0 0 1 .106-.044.15.15 0 0 1 .146.121l-.022.005a.127.127 0 0 0-.252.024c0 .035.014.07.034.09l-.016.015a.154.154 0 0 1 .004-.211Z" clip-rule="evenodd"/><path fill="#703D29" fill-rule="evenodd" d="m14.399 7.3.483.596-.01.007c-.057.036-.15.04-.242.013-.245-.07-.346-.265-.346-.386h.011-.01a.277.277 0 0 1 .105-.223l.008-.007Zm-.004.032a.254.254 0 0 0-.088.198c0 .11.094.298.33.364.081.024.162.022.211-.004l-.453-.558Zm-5.366.16-.098.937-.062-.05v-.001a.31.31 0 0 1-.039-.047.645.645 0 0 1-.004-.698v-.001a.364.364 0 0 1 .186-.135l.017-.006Zm-.184.153a.623.623 0 0 0-.081.467.581.581 0 0 0 .085.206c.01.016.022.03.035.043l.029.024.09-.861a.341.341 0 0 0-.158.12Zm.782.889a.413.413 0 0 0-.109-.122l.015-.017a.434.434 0 0 1 .114.128.33.33 0 0 1 .036.162.326.326 0 0 1-.155.29l-.012-.019a.304.304 0 0 0 .145-.27v-.001a.31.31 0 0 0-.034-.151Zm1.685 3.307.014.006c.184.079.318.14.433.323a.386.386 0 0 1 .046.19.38.38 0 0 1-.127.293.323.323 0 0 1-.26.078.227.227 0 0 1-.103-.04.142.142 0 0 1-.056-.066l-.001-.002.054-.782Zm.02.033-.051.747a.125.125 0 0 0 .047.052.206.206 0 0 0 .093.036.3.3 0 0 0 .242-.073.36.36 0 0 0 .12-.276.363.363 0 0 0-.043-.178c-.108-.172-.232-.233-.408-.308Z" clip-rule="evenodd"/><path fill="#703D29" fill-rule="evenodd" d="M9.425 8.856a.011.011 0 0 1 .016.002c.15.192.238.307.242.536m-.258-.538a.011.011 0 0 0-.002.016l.002-.016Zm-.002.016c.15.191.234.301.237.522l-.237-.522Zm.052 1.029a.725.725 0 0 0 .185-.507m.023 0a.748.748 0 0 1-.19.52.011.011 0 0 1-.018-.013m2.931-3.779.02-.012c.019.027.03.052.033.078a.237.237 0 0 1-.005.08.093.093 0 0 1-.023.051.244.244 0 0 1-.027.029l-.014.013-.004.004-.044-.01.019-.015a.143.143 0 0 0 .052-.077c.018-.054.018-.1-.007-.14Zm1.896 4.067V9.58h.023v.608l-.004.095a1.394 1.394 0 0 1-.011.065l-.022-.005a.617.617 0 0 0 .01-.062l.005-.093Z" clip-rule="evenodd"/><path fill="#703D29" fill-rule="evenodd" d="M14.314 8.029v.03h-.022V7.87h.022v.026h.011v.132h-.01Zm0 .54v.04h-.022v-.412h.022v.042h.011v.33h-.01Zm0 .675v.06h-.022v-.548h.022v.045h.011v.443h-.01Zm-.022.28-.019.844.022.003.02-.099v-.747h-.023Zm-.037.968-.025.043a.711.711 0 0 1-.155.217.747.747 0 0 1-.225.152.933.933 0 0 1-.246.083c-.102.023-.159.03-.26.034h-.001c-.094 0-.147 0-.237-.007a2.21 2.21 0 0 1-.154-.018 1.983 1.983 0 0 0-.31-.024c-.083 0-.13 0-.212.015a.815.815 0 0 0-.34.127.761.761 0 0 0-.088.064l-.01.01-.008-.01a.164.164 0 0 0-.03-.027 1.182 1.182 0 0 0-.201-.112 1.033 1.033 0 0 0-.408-.067 1.981 1.981 0 0 0-.304.024 2.25 2.25 0 0 1-.157.018l-.001-.012v.012a1.682 1.682 0 0 1-.236.007v-.011.011a1.25 1.25 0 0 1-.511-.113.743.743 0 0 1-.22-.156l.007-.008-.008.007a.83.83 0 0 1-.095-.106l-.013-.017 4.448-.136Zm-4.403.157c.024.03.05.06.079.086a.719.719 0 0 0 .214.152c.158.072.329.11.502.112.09.003.142 0 .235-.008.063-.005.107-.01.155-.017l.096-.013c.083-.007.128-.011.211-.011a1.05 1.05 0 0 1 .417.068 1.224 1.224 0 0 1 .206.115c.01.008.02.015.026.022a.838.838 0 0 1 .086-.06 1.11 1.11 0 0 1 .15-.077.834.834 0 0 1 .197-.053c.084-.015.133-.015.216-.015.083 0 .128.004.21.011h.001l.103.013a2.268 2.268 0 0 0 .387.025c.1-.004.156-.011.256-.034a.908.908 0 0 0 .242-.082.724.724 0 0 0 .218-.147.69.69 0 0 0 .151-.21v-.001l.006-.01-4.364.134Zm-.122.02a.367.367 0 0 0 .013-.15l.022-.002a.39.39 0 0 1-.088.298c-.03.034-.101.101-.196.101a.212.212 0 0 1-.151-.053.173.173 0 0 1-.048-.075l.022-.006c.003.011.014.04.041.065a.19.19 0 0 0 .136.047c.084 0 .149-.06.179-.094a.368.368 0 0 0 .07-.131Z" clip-rule="evenodd"/><path fill="#703D29" fill-rule="evenodd" d="m9.569 10.426.025.024c.027.028.05.058.072.096a.312.312 0 0 1-.004.243v.002a.184.184 0 0 1-.012.016l-.015.019-.066-.4Zm.034.068.045.274a.31.31 0 0 0 .02-.095.221.221 0 0 0-.02-.115.519.519 0 0 0-.045-.064Zm-.76.958 1.461.43c.17.005.333.013.48.045a.747.747 0 0 1 .415.219l.027.03-.925-.272-.048-.002a6.858 6.858 0 0 1-.49-.038 1.875 1.875 0 0 1-.478-.113 1.16 1.16 0 0 1-.413-.268l-.029-.031Zm1.368.425-1.291-.379c.084.08.202.163.374.233.131.055.3.089.472.11.155.02.312.03.445.037Zm.18.03.762.224a.748.748 0 0 0-.373-.182 2.335 2.335 0 0 0-.388-.042Zm1.44.103.015-.015a.46.46 0 0 1 .154.211l-.02.01-.15-.206Zm-.762.533.014-.017.203.105v.002l.414-.003-.012-.02.612.02h.015l-.006.008.018.017a.3.3 0 0 0 .242.072.195.195 0 0 0 .142-.088l.02-.027.018.013-.02.026a.217.217 0 0 1-.157.099.322.322 0 0 1-.26-.078l-.016-.016a.687.687 0 0 1-.287.224l-.005.002L12 12.88a.676.676 0 0 1-.283-.224.323.323 0 0 1-.276.097.242.242 0 0 1-.17-.101.297.297 0 0 1-.19-.093l-.012-.016Zm.074.04.06.03a.27.27 0 0 1-.06-.03Zm.158.073a.22.22 0 0 0 .142.075.3.3 0 0 0 .246-.079l-.388.004Zm.431-.017a.66.66 0 0 0 .272.219.664.664 0 0 0 .267-.207l-.535-.017-.004.005Z" clip-rule="evenodd"/><path fill="#703D29" fill-rule="evenodd" d="m12.678 12.66.025-.043.02.011-.027.046-.044.04-.068.028h-.062v-.022h.058l.06-.025.038-.035Z" clip-rule="evenodd"/><path fill="#703D29" fill-rule="evenodd" d="M13.91 5.84a.214.214 0 0 0-.078-.093l.012-.019a.24.24 0 0 1 .087.102.232.232 0 0 1-.035.235.745.745 0 0 1-.195.17.81.81 0 0 1-.315.125l-.004-.022a.787.787 0 0 0 .307-.122.725.725 0 0 0 .188-.165c.046-.062.065-.132.033-.212Zm.92.118h.01a.2.2 0 0 1 .133.076.239.239 0 0 1 .057.15.366.366 0 0 1-.04.18c-.027.052-.07.105-.127.176m-.032-.582-.22.808.22-.808Zm-.475 1.337.302.053-.027.015a.199.199 0 0 1-.171.012.274.274 0 0 1-.079-.055l-.025-.025Zm.072.036a.25.25 0 0 0 .04.024.176.176 0 0 0 .119.003l-.16-.027Zm.47 1.466.013 1.234-.02-.018a.904.904 0 0 1-.247-.414.46.46 0 0 1-.019-.126.986.986 0 0 1 .175-.58v-.001l.02-.024.02-.024a.18.18 0 0 1 .042-.038l.017-.01Zm-.08.109a.964.964 0 0 0-.17.566.694.694 0 0 0 .081.287.859.859 0 0 0 .159.219l-.011-1.14a.244.244 0 0 0-.02.021l-.02.023-.02.024Zm-1.96 3.275.011.009a.3.3 0 0 1 .094.113c.012.028.016.059.02.088v.002a.227.227 0 0 1-.06.166.292.292 0 0 1-.21.093v-.01.01h-.031l.002-.007a.29.29 0 0 0 .014 0h.01l.006-.015a.272.272 0 0 0 .193-.086l.008.007-.008-.008a.206.206 0 0 0 .053-.148l.011-.001h-.01a.312.312 0 0 0-.018-.082l.01-.005-.01.005a.278.278 0 0 0-.075-.095l.005-.014-.01-.004-.007.009a.37.37 0 0 1 .012.009l-.154.413h-.006l.002-.007-.015-.006.162-.436Zm-.165.442.002-.006-.18-.076-.013.018a.266.266 0 0 0 .182.086l.003-.007-.07-.03a.2.2 0 0 0 .076.014Zm-.104-.026.029.012a.261.261 0 0 1-.03-.012Zm0 0-.083-.035.004-.01.008-.008c.02.021.044.04.07.053Z" clip-rule="evenodd"/><path fill="#703D29" fill-rule="evenodd" d="M12.84 5.146c.13.047.214.18.206.393a.704.704 0 0 1-.065.234 3.376 3.376 0 0 1-.04.089l-.007.016a.767.767 0 0 0-.03.073.17.17 0 0 0-.01.092.125.125 0 0 0 .037.062.16.16 0 0 0 .042.036l-.011.02a.185.185 0 0 1-.048-.04.148.148 0 0 1-.041-.073.192.192 0 0 1 .009-.104.775.775 0 0 1 .04-.091l.039-.089a.682.682 0 0 0 .063-.225c.007-.207-.074-.33-.191-.372l.007-.021Zm.664.79.208.137-.04-.001a.169.169 0 0 1-.124-.06.14.14 0 0 1-.028-.04l-.016-.036Zm.108.098a.146.146 0 0 1-.03-.02l.03.02Z" clip-rule="evenodd"/><path fill="#703D29" fill-rule="evenodd" d="m12.944 5.818-.06.211-.021-.001-.004-.036.008-.04.015-.05.03-.072.011-.02.09-.32.022.004-.004.077-.023.084-.037.113-.027.05Zm1.69 4.788-.005.01.005-.01a.181.181 0 0 1 .07.06c.016.028.02.065.011.12a.153.153 0 0 1-.04.075.195.195 0 0 1-.147.055.26.26 0 0 1-.132-.044.31.31 0 0 1-.084-.073l-.022-.03a.011.011 0 0 1 .002-.015.011.011 0 0 1 .016.002l.023.03a.29.29 0 0 0 .077.067c.037.023.08.04.12.04.066 0 .106-.022.13-.047a.132.132 0 0 0 .035-.063c.01-.053.004-.084-.008-.105a.16.16 0 0 0-.061-.052l-.004-.001a.118.118 0 0 0-.06-.005.011.011 0 0 1-.004-.022.142.142 0 0 1 .072.006l.004.001h.001v.001h.001Zm-4.98-2.834a.148.148 0 0 0-.038-.045l.014-.018a.17.17 0 0 1 .044.052l-.02.01Zm-.048.208.017-.016c.023.02.04.04.051.068l-.019.011-.049-.063Zm-.5.844.004.003a.065.065 0 0 1 .018.045c.008.075-.02.124-.063.15a.18.18 0 0 1-.139.02V9.04a.221.221 0 0 1-.119-.09.187.187 0 0 1-.028-.092v-.01l.327-.024Zm-.304.044a.172.172 0 0 0 .024.07.199.199 0 0 0 .106.081c.04.011.086.007.121-.015s.06-.063.052-.13v-.001a.043.043 0 0 0-.008-.026l-.295.021Zm-.208 1.14.317.288-.02.005a.255.255 0 0 1-.284-.1.195.195 0 0 1-.018-.177l.005-.016Zm.01.04a.17.17 0 0 0 .022.14.233.233 0 0 0 .238.096l-.26-.236Z" clip-rule="evenodd"/><path fill="#703D29" fill-rule="evenodd" d="M8.904 7.849a.011.011 0 0 1 .014.008.345.345 0 0 0 .145.203.386.386 0 0 0 .219.062.454.454 0 0 0 .322-.146.308.308 0 0 0 .058-.087.011.011 0 1 1 .02.01.33.33 0 0 1-.062.092.476.476 0 0 1-.338.154.408.408 0 0 1-.231-.066.368.368 0 0 1-.155-.216.011.011 0 0 1 .008-.014Zm.753-.394a.281.281 0 0 0-.087-.123l.015-.017a.31.31 0 0 1 .093.132l-.021.008Z" clip-rule="evenodd"/><path fill="#703D29" fill-rule="evenodd" d="M9.67 7.609c.007.002.01.008.008.014a.45.45 0 0 1-.33.304.363.363 0 0 1-.148 0 .27.27 0 0 1-.11-.04.011.011 0 0 1 .015-.017.25.25 0 0 0 .099.036.34.34 0 0 0 .138-.001.428.428 0 0 0 .315-.289.011.011 0 0 1 .014-.007Zm-.467.172c.094.002.169-.065.2-.154a.299.299 0 0 0-.064-.296l-.017.015a.276.276 0 0 1 .06.273c-.03.083-.097.141-.179.14a.194.194 0 0 1-.137-.047.183.183 0 0 1-.054-.116l-.023.002a.209.209 0 0 0 .061.13.217.217 0 0 0 .153.053Zm-.049.442c0-.006.006-.01.012-.01a.19.19 0 0 1 .115.06.241.241 0 0 1 .068.14c.023.142-.072.267-.235.287a.011.011 0 0 1-.003-.023c.152-.018.237-.132.216-.26a.219.219 0 0 0-.063-.128.165.165 0 0 0-.1-.054.011.011 0 0 1-.01-.012Zm-.56.24.015-.016.315.214-.01.02a.641.641 0 0 1-.228-.126.522.522 0 0 1-.092-.092Zm.092.063.014.011a.62.62 0 0 0 .125.084l-.14-.095Zm.779-1.361a.096.096 0 0 0-.097-.1v-.023a.12.12 0 0 1 .12.125l-.023-.002Zm-.123-1.048.02-.012.187.222-.014.017a.442.442 0 0 1-.193-.227Zm.126.15a.42.42 0 0 1-.06-.072l.06.071Zm5.473 1.22a.011.011 0 0 1 .016.003.18.18 0 0 1 .015.175c-.026.058-.083.105-.174.105v-.01.011a.206.206 0 0 1-.179-.099.011.011 0 0 1 .02-.012.183.183 0 0 0 .159.089c.082 0 .131-.042.153-.092a.158.158 0 0 0-.012-.153.011.011 0 0 1 .002-.016Zm-.638-.549V6.34h.023v.597h-.023Z" clip-rule="evenodd"/><path fill="#703D29" fill-rule="evenodd" d="M14.159 5.638a.218.218 0 0 0-.129.03.011.011 0 0 1-.01-.02.24.24 0 0 1 .142-.032c.043.006.08.03.109.074m.04.274a.36.36 0 0 0-.059-.261c-.027-.04-.058-.06-.093-.065M9.017 7.191a.36.36 0 0 1 .3.118.3.3 0 0 1 .063.296c-.03.09-.106.158-.2.158l-.02-.002.015.45c.019.004.037.01.053.02a.205.205 0 0 1 .102.16.243.243 0 0 1-.058.198.29.29 0 0 1-.207.089.574.574 0 0 1-.44-.18l-.009-.01a.6.6 0 0 0-.025-.027V8.46l-.05-.065a.855.855 0 0 1-.114-.635.814.814 0 0 1 .274-.445.561.561 0 0 1 .316-.124Zm.136 1.018-.016-.45a.177.177 0 0 1-.14-.127c-.02-.069 0-.147.057-.186.05-.034.092-.038.126-.025a.117.117 0 0 1 .067.063.091.091 0 0 1-.019.102.072.072 0 0 1-.073.02l.004.133.021.001c.082 0 .15-.06.179-.142a.277.277 0 0 0-.06-.274.338.338 0 0 0-.28-.11.539.539 0 0 0-.304.118.791.791 0 0 0-.266.433.833.833 0 0 0 0 .34.773.773 0 0 0 .11.277l.049.063.025.028a.551.551 0 0 0 .43.182.267.267 0 0 0 .192-.081.22.22 0 0 0 .053-.18.182.182 0 0 0-.09-.143.152.152 0 0 0-.042-.016l.004.112c.022.03.016.066-.001.092-.018.027-.052.047-.088.036a.12.12 0 0 1-.067-.047.123.123 0 0 1-.02-.069c0-.047.022-.097.057-.122a.147.147 0 0 1 .092-.028Zm-.016-.474-.006-.171.018.013c.021.015.046.01.064-.007a.068.068 0 0 0 .013-.077.094.094 0 0 0-.053-.051c-.026-.01-.062-.008-.106.022-.048.033-.066.1-.048.161.014.05.052.095.118.11Zm.017.497.004.124.002.003c.017.019.015.046 0 .068-.014.021-.039.034-.063.026a.098.098 0 0 1-.054-.037.1.1 0 0 1-.017-.057.13.13 0 0 1 .048-.104.124.124 0 0 1 .08-.023Z" clip-rule="evenodd"/><path fill="#703D29" fill-rule="evenodd" d="M14.57 5.766c-.064-.096-.184-.128-.295-.057a.011.011 0 0 1-.016-.003.011.011 0 0 1 .003-.016.229.229 0 0 1 .327.064.37.37 0 0 1 .051.11.432.432 0 0 1-.209.479.011.011 0 1 1-.01-.02.408.408 0 0 0 .198-.453.348.348 0 0 0-.049-.104Zm.404.395a.18.18 0 0 0-.162-.18l.001-.022a.202.202 0 0 1 .183.202c0 .072-.01.126-.034.179a.906.906 0 0 1-.118.177 1.481 1.481 0 0 1-.106.109l-.002.002c-.041.04-.087.084-.128.13a.806.806 0 0 0-.11.148.295.295 0 0 0-.042.15v.001a.16.16 0 0 0 .038.098.13.13 0 0 0 .076.049l-.003.022a.152.152 0 0 1-.09-.056.18.18 0 0 1-.043-.113.317.317 0 0 1 .045-.162.835.835 0 0 1 .112-.151c.042-.047.088-.092.129-.132l.002-.002c.043-.041.08-.077.104-.107a.882.882 0 0 0 .116-.172c.022-.05.032-.1.032-.17Zm-.017 1.049a.353.353 0 0 0-.289.113.266.266 0 0 0-.065.277c.03.082.101.14.184.14.094-.002.146-.055.164-.115.017-.061 0-.129-.047-.161-.044-.03-.08-.03-.105-.02a.106.106 0 0 0-.054.056c-.013.03-.005.057.012.072a.05.05 0 0 0 .065.005.011.011 0 0 1 .013.018.074.074 0 0 1-.094-.006.084.084 0 0 1-.017-.098.129.129 0 0 1 .066-.067c.034-.014.078-.012.127.021.056.04.075.118.055.186-.02.07-.08.13-.185.131a.224.224 0 0 1-.205-.154.289.289 0 0 1 .07-.3.376.376 0 0 1 .306-.12c.116.005.235.05.327.123a.774.774 0 0 1 .267.457c.037.263.035.592-.245.798a.693.693 0 0 1-.404.115.287.287 0 0 1-.207-.09.248.248 0 0 1-.059-.2c.02-.15.159-.215.268-.155.056.03.08.085.074.135a.117.117 0 0 1-.104.104.094.094 0 0 1-.088-.04c-.018-.027-.022-.062.003-.091a.011.011 0 0 1 .016-.002.011.011 0 0 1 0 .016c-.016.02-.014.044 0 .064a.07.07 0 0 0 .066.03.095.095 0 0 0 .085-.083.113.113 0 0 0-.063-.113c-.094-.052-.217.002-.235.138a.224.224 0 0 0 .053.181c.043.048.108.08.192.083a.67.67 0 0 0 .39-.11c.268-.198.273-.515.236-.777a.75.75 0 0 0-.259-.443.555.555 0 0 0-.314-.117Z" clip-rule="evenodd"/><path fill="#703D29" fill-rule="evenodd" d="M14.831 7.386c-.04.018-.072.05-.086.113l-.022-.005a.172.172 0 0 1 .099-.128.356.356 0 0 1 .145-.023c.127.002.234.08.309.191.075.112.12.258.122.401 0 .18-.038.325-.11.427a.388.388 0 0 1-.313.166.312.312 0 0 1-.126-.027c-.04-.018-.074-.05-.074-.097h.023c0 .035.024.06.06.077a.29.29 0 0 0 .116.024.365.365 0 0 0 .296-.156c.068-.097.105-.237.105-.414a.73.73 0 0 0-.118-.388c-.072-.108-.173-.18-.29-.182a.335.335 0 0 0-.136.021Z" clip-rule="evenodd"/><path fill="#703D29" fill-rule="evenodd" d="m14.88 7.423.01.002c.267.062.358.302.358.529a.657.657 0 0 1-.055.302c-.051.1-.148.186-.329.23l-.01.003-.006-.022.011-.003c.175-.042.266-.125.314-.218a.636.636 0 0 0 .053-.292c0-.223-.09-.448-.34-.507l-.011-.002.005-.022Zm.235 2.355a.157.157 0 0 1 .212.173l-.023-.004a.134.134 0 0 0-.111-.155.135.135 0 0 0-.107.238l-.014.018a.158.158 0 0 1 .043-.27Z" clip-rule="evenodd"/><path fill="#703D29" fill-rule="evenodd" d="m14.781 9.734.017-.015.237.225-.014.018a.696.696 0 0 1-.24-.228Zm-.05.49a.773.773 0 0 1 .254.113.011.011 0 1 1-.013.018.752.752 0 0 0-.245-.11.442.442 0 0 0-.306.029h-.001a.275.275 0 0 0-.159.158.363.363 0 0 0 .066.345.27.27 0 0 0 .179.098c.068 0 .11-.023.134-.048a.13.13 0 0 0 .035-.063c.007-.05-.004-.083-.02-.105a.088.088 0 0 0-.047-.036h-.002a.07.07 0 0 0-.023-.004c-.01 0-.022 0-.034.003-.022.006-.041.02-.047.042v.001a.08.08 0 0 0 .006.066.011.011 0 0 1-.004.015.011.011 0 0 1-.016-.004.102.102 0 0 1-.008-.084c.01-.034.037-.05.064-.057a.14.14 0 0 1 .04-.005.07.07 0 0 1 .03.006.11.11 0 0 1 .06.044.17.17 0 0 1 .023.122.15.15 0 0 1-.041.074.201.201 0 0 1-.15.055.29.29 0 0 1-.196-.105.386.386 0 0 1-.07-.367.296.296 0 0 1 .171-.172.465.465 0 0 1 .32-.03Z" clip-rule="evenodd"/><path fill="#703D29" fill-rule="evenodd" d="M14.312 10.536a.331.331 0 0 1 .349-.186.547.547 0 0 1 .394.26.65.65 0 0 1 .05.531.733.733 0 0 1-.224.312c-.135.122-.3.206-.478.243-.136.03-.207.038-.339.049-.11.014-.196.016-.288.017-.03 0-.06 0-.091.002a3.13 3.13 0 0 0-.67.09 1.222 1.222 0 0 0-.36.148c-.128.08-.23.19-.23.328 0 .145.119.285.27.281a.27.27 0 0 0 .193-.09.206.206 0 0 0 .05-.145v-.001a.215.215 0 0 0-.018-.085c-.032-.072-.096-.125-.177-.125a.154.154 0 0 0-.15.164.121.121 0 0 0 .031.076.09.09 0 0 0 .084.026c.024-.003.045-.013.056-.03.01-.016.013-.042-.005-.081a.011.011 0 0 1 .006-.015.011.011 0 0 1 .015.005c.02.044.019.078.003.103a.1.1 0 0 1-.072.04.115.115 0 0 1-.103-.032.145.145 0 0 1-.037-.09.176.176 0 0 1 .172-.188.22.22 0 0 1 .198.137.24.24 0 0 1 .02.095.229.229 0 0 1-.056.161.293.293 0 0 1-.21.098c-.165.004-.293-.149-.293-.304 0-.15.111-.266.24-.348.13-.081.281-.131.369-.15a3.16 3.16 0 0 1 .673-.09l.092-.003a2.28 2.28 0 0 0 .286-.016c.131-.012.202-.02.336-.049.174-.037.335-.118.468-.237a.71.71 0 0 0 .218-.303.627.627 0 0 0-.048-.512.524.524 0 0 0-.378-.25c-.134-.018-.253.04-.326.175a.29.29 0 0 0 .004.222.213.213 0 0 0 .17.106c.068 0 .11-.023.134-.048a.129.129 0 0 0 .034-.062.146.146 0 0 0-.018-.106.107.107 0 0 0-.049-.04.123.123 0 0 0-.057.003c-.024.006-.043.02-.049.042v.002a.08.08 0 0 0 .007.065.011.011 0 0 1-.004.015.011.011 0 0 1-.016-.004.103.103 0 0 1-.008-.084c.009-.033.037-.05.063-.058a.144.144 0 0 1 .07-.002h.001a.12.12 0 0 1 .06.048.17.17 0 0 1 .023.122.151.151 0 0 1-.041.075.201.201 0 0 1-.15.055h-.001a.237.237 0 0 1-.19-.119.312.312 0 0 1-.003-.243Z" clip-rule="evenodd"/><path fill="#703D29" fill-rule="evenodd" d="M12.656 11.853a.011.011 0 0 1-.006.015c-.18.078-.312.137-.422.314a.36.36 0 0 0-.044.178c0 .099.04.208.12.276a.3.3 0 0 0 .242.073.2.2 0 0 0 .094-.036.119.119 0 0 0 .047-.054.011.011 0 0 1 .022.007.14.14 0 0 1-.056.066.224.224 0 0 1-.104.04.323.323 0 0 1-.26-.079.394.394 0 0 1-.127-.293.382.382 0 0 1 .046-.19c.115-.183.253-.244.433-.323a.011.011 0 0 1 .015.006Zm1.67-3.349a.214.214 0 0 1 .112-.11l.008.02c-.04.014-.074.05-.1.1a.389.389 0 0 0-.04.17v.001a.304.304 0 0 0 .146.272l-.012.019a.326.326 0 0 1-.156-.291c0-.064.016-.128.042-.18Z" clip-rule="evenodd"/><path fill="#703D29" fill-rule="evenodd" d="M14.543 8.856a.011.011 0 0 1 .002.016c-.15.191-.234.301-.238.522 0 .21.063.355.189.507a.011.011 0 0 1-.002.015.011.011 0 0 1-.015-.001.75.75 0 0 1-.194-.521c.004-.23.092-.344.242-.536a.011.011 0 0 1 .016-.002Zm-.801-3.168-.01.018-.02-.012.011-.019c.067-.094.187-.123.275-.059.103.079.129.212.102.349a.366.366 0 0 1-.155.213l-.012-.018a.345.345 0 0 0 .145-.2c.026-.132 0-.254-.093-.326-.077-.055-.182-.032-.243.054Zm-3.934-.071a.25.25 0 0 1 .138.028.011.011 0 0 1-.009.02.227.227 0 0 0-.126-.025.15.15 0 0 0-.097.06.315.315 0 0 0-.058.26.354.354 0 0 0 .129.212.011.011 0 1 1-.016.016.53.53 0 0 1-.089-.101.374.374 0 0 1-.045-.122m.173-.348a.172.172 0 0 0-.111.068l.111-.068Zm-.111.068Zm0 0Zm0 0a.338.338 0 0 0-.063.133l.063-.133Zm-.063.133a.338.338 0 0 0 0 .147v-.147Z" clip-rule="evenodd"/><path fill="#703D29" fill-rule="evenodd" d="M9.527 5.652a.229.229 0 0 1 .177.039l-.013.018a.206.206 0 0 0-.295.057.33.33 0 0 0-.058.222.408.408 0 0 0 .211.336l-.01.02a.43.43 0 0 1-.224-.354.353.353 0 0 1 .062-.236.229.229 0 0 1 .15-.102Z" clip-rule="evenodd"/><path fill="#703D29" fill-rule="evenodd" d="M9.197 5.88a.266.266 0 0 1 .166-.086l.003.022a.244.244 0 0 0-.216.237c0 .083.01.14.03.192.02.052.053.099.1.16.022.032.059.07.1.114.043.044.09.094.135.148.089.107.168.235.168.372a.454.454 0 0 1-.038.203.255.255 0 0 1-.13.122.172.172 0 0 1-.121.01.229.229 0 0 1-.094-.05.179.179 0 0 1-.055-.168c.011-.055.05-.103.106-.113a.097.097 0 0 1 .082.02c.02.017.032.041.036.066a.093.093 0 0 1-.017.07c-.016.02-.04.03-.074.027l.002-.022c.027.002.044-.006.054-.02a.07.07 0 0 0 .012-.052.083.083 0 0 0-.027-.052.074.074 0 0 0-.064-.015c-.045.008-.078.047-.088.096a.156.156 0 0 0 .049.147c.019.018.05.035.083.044a.15.15 0 0 0 .106-.008.233.233 0 0 0 .12-.112.435.435 0 0 0 .035-.193c0-.13-.074-.251-.162-.358a2.67 2.67 0 0 0-.133-.146l-.001-.001a1.17 1.17 0 0 1-.103-.115.71.71 0 0 1-.102-.165.528.528 0 0 1-.031-.201.266.266 0 0 1 .07-.174Z" clip-rule="evenodd"/><path fill="#703D29" fill-rule="evenodd" d="M8.952 6.157c0-.108.1-.19.198-.199l.001.023c-.089.007-.177.082-.177.176 0 .07.014.12.041.171.028.05.07.101.126.171l.003.004c.024.03.06.066.1.107l.001.002c.04.04.083.084.124.131.081.095.153.203.149.31 0 .04-.015.086-.037.12a.145.145 0 0 1-.038.041.061.061 0 0 1-.047.012l.004-.022c.01.002.02 0 .03-.008a.123.123 0 0 0 .032-.036.212.212 0 0 0 .033-.107c.004-.098-.062-.2-.143-.295a2.737 2.737 0 0 0-.123-.13l-.001-.002a1.502 1.502 0 0 1-.101-.11c-.002 0-.003-.002-.004-.004-.056-.069-.099-.12-.127-.173a.357.357 0 0 1-.044-.182Zm-.069 2.545a.177.177 0 0 0-.042.042.173.173 0 0 0-.032.057.169.169 0 0 0 .014.13.139.139 0 0 0 .086.07c.041.01.09.005.125-.018.035-.022.06-.063.053-.128-.003-.024-.03-.048-.062-.053a.073.073 0 0 0-.048.007.1.1 0 0 0-.041.05.011.011 0 0 1-.02-.01.122.122 0 0 1 .05-.06.096.096 0 0 1 .063-.01c.04.007.075.037.08.073.008.074-.02.123-.063.15a.185.185 0 0 1-.142.02.161.161 0 0 1-.101-.08.191.191 0 0 1-.016-.148.195.195 0 0 1 .036-.063.199.199 0 0 1 .047-.048c.041-.024.078-.024.132-.024h.002c.108 0 .208.063.289.158.08.095.142.222.172.353.023.084.05.276.011.455a.851.851 0 0 1-.22.429.978.978 0 0 1-.38.22.274.274 0 0 1-.152.004.211.211 0 0 1-.126-.1.208.208 0 0 1-.002-.177.188.188 0 0 1 .136-.103c.058-.01.12.01.158.079a.123.123 0 0 1 .017.062.156.156 0 0 1-.012.056.093.093 0 0 1-.03.043h-.001a.113.113 0 0 1-.099.013.079.079 0 0 1-.04-.034.115.115 0 0 1-.013-.064c0-.006.005-.01.011-.01.006 0 .011.005.011.011 0 .023.004.04.01.052.008.011.018.02.03.024a.09.09 0 0 0 .078-.01.071.071 0 0 0 .023-.034.133.133 0 0 0 .01-.047.103.103 0 0 0-.014-.05v-.001a.124.124 0 0 0-.135-.068.166.166 0 0 0-.12.09.185.185 0 0 0 .002.158.188.188 0 0 0 .112.089c.046.012.094.01.14-.004a.955.955 0 0 0 .37-.215.829.829 0 0 0 .214-.418 1.06 1.06 0 0 0-.01-.445.833.833 0 0 0-.169-.344c-.078-.091-.172-.15-.27-.15-.057 0-.088 0-.122.02Z" clip-rule="evenodd"/><path fill="#703D29" fill-rule="evenodd" d="M8.998 8.778h.01a.184.184 0 0 1 .1.03.268.268 0 0 1 .066.073.971.971 0 0 1 .182.58v.001a.668.668 0 0 1-.022.126.716.716 0 0 1-.065.171.793.793 0 0 1-.32.346l-.068.038a.23.23 0 0 1-.062.017.115.115 0 0 1-.055-.01l-.009-.003.063-.355a.135.135 0 0 0-.155.158l-.023.005a.157.157 0 0 1 .182-.185l.176-.992Zm-.158 1.02h.002a.135.135 0 0 1 .039.232l.014.018a.158.158 0 0 0-.051-.272l.173-.974a.154.154 0 0 1 .079.025c.022.015.04.037.06.067.118.165.18.364.178.567a.646.646 0 0 1-.022.12v.001a.694.694 0 0 1-.063.166.77.77 0 0 1-.31.337l-.067.037a.213.213 0 0 1-.055.016.086.086 0 0 1-.037-.005l.06-.335Z" clip-rule="evenodd"/><path fill="#703D29" fill-rule="evenodd" d="M8.846 9.701a.127.127 0 0 0-.127.104L8.697 9.8a.15.15 0 0 1 .15-.121.15.15 0 0 1 .146.15.154.154 0 0 1-.04.105l-.017-.015a.131.131 0 0 0 .034-.09.128.128 0 0 0-.124-.128Z" clip-rule="evenodd"/><path fill="#703D29" fill-rule="evenodd" d="M9.182 9.107c.024.069.04.149.04.227a.592.592 0 0 1-.237.474L8.97 9.79a.57.57 0 0 0 .228-.456.656.656 0 0 0-.038-.219.342.342 0 0 0-.093-.147l.014-.018a.37.37 0 0 1 .1.157Zm.001.611c.005.003.007.01.003.015a.63.63 0 0 1-.24.23.011.011 0 1 1-.01-.02.607.607 0 0 0 .231-.221.011.011 0 0 1 .016-.004Zm-.165.476a.537.537 0 0 1 .313-.073.342.342 0 0 1 .142.041.209.209 0 0 1 .085.097l-.02.01a.187.187 0 0 0-.077-.088.321.321 0 0 0-.132-.037.515.515 0 0 0-.301.07.687.687 0 0 0-.399.627.926.926 0 0 0 .088.382c.02.04.05.106.111.182.08.1.214.214.442.307.311.097.635.146.96.146.195.007.384.015.55.053a.725.725 0 0 1 .419.236l-.018.014a.702.702 0 0 0-.406-.229 3.062 3.062 0 0 0-.545-.052c-.328 0-.654-.049-.967-.147a1.093 1.093 0 0 1-.452-.314.83.83 0 0 1-.128-.216.95.95 0 0 1-.077-.361.709.709 0 0 1 .412-.648Z" clip-rule="evenodd"/><path fill="#703D29" fill-rule="evenodd" d="M9.242 10.245a.782.782 0 0 0-.247.11.011.011 0 1 1-.012-.019.805.805 0 0 1 .254-.113.47.47 0 0 1 .323.03.312.312 0 0 1 .167.171.387.387 0 0 1-.07.368c-.034.038-.104.101-.195.105a.201.201 0 0 1-.15-.055.151.151 0 0 1-.042-.074.168.168 0 0 1 .023-.122.13.13 0 0 1 .06-.048.142.142 0 0 1 .07.002c.027.007.055.024.064.057a.102.102 0 0 1-.008.084.011.011 0 0 1-.02-.01.08.08 0 0 0 .007-.066v-.001c-.007-.023-.026-.036-.049-.043a.122.122 0 0 0-.057-.002.107.107 0 0 0-.049.04.146.146 0 0 0-.019.105c.002.01.01.037.035.062s.066.048.134.049c.081-.004.146-.06.18-.098a.364.364 0 0 0 .065-.345.289.289 0 0 0-.155-.158H9.55a.448.448 0 0 0-.308-.029Z" clip-rule="evenodd"/><path fill="#703D29" fill-rule="evenodd" d="M9.217 10.542a.202.202 0 0 1 .238.04c.04.045.045.094.033.135l-.022-.007a.113.113 0 0 0-.027-.113.18.18 0 0 0-.211-.035.745.745 0 0 1-.012.008c-.024.017-.05.035-.075.071v.001H9.14a.314.314 0 0 0-.025.028.131.131 0 0 0-.018.029v.001a.196.196 0 0 0-.036.089v.002l-.001.001c-.092.257.055.53.24.647.162.104.324.133.534.148.06.008.103.01.15.013l.093.006h.36c.09-.005.18-.005.27 0l.098.01a2.544 2.544 0 0 1 .39.058.23.23 0 0 1 .07.015l.045.011c.135.042.264.09.37.16l.023.012v.001l.026.015c.016.01.033.022.047.036l.049.045.001.002c.074.074.151.151.167.256v.062c0 .073-.057.171-.208.198l-.004-.022c.142-.025.19-.115.19-.176v-.06c-.015-.096-.087-.168-.162-.243l-.049-.046a.251.251 0 0 0-.043-.033l-.025-.014-.001-.001a1.48 1.48 0 0 0-.387-.17l-.045-.011a.21.21 0 0 0-.065-.015h-.003a1.558 1.558 0 0 0-.2-.037h-.001a2.78 2.78 0 0 0-.186-.022 2.614 2.614 0 0 0-.366-.009h-.362l-.092-.006a2.298 2.298 0 0 1-.152-.012c-.21-.015-.378-.045-.545-.152-.19-.122-.344-.403-.249-.671a.22.22 0 0 1 .039-.097.158.158 0 0 1 .02-.034.338.338 0 0 1 .026-.028.263.263 0 0 1 .08-.076l.012-.009h.002Z" clip-rule="evenodd"/><path fill="#703D29" fill-rule="evenodd" d="M9.31 10.372a.525.525 0 0 0-.378.254.626.626 0 0 0 .173.81c.132.119.292.2.464.238.135.03.205.037.336.049.11.014.195.015.286.016l.092.002c.227.006.453.036.674.09.087.02.238.07.368.152.13.081.24.197.24.347 0 .155-.127.308-.292.304a.293.293 0 0 1-.21-.098h-.001a.229.229 0 0 1-.055-.161c0-.033.007-.064.02-.094a.217.217 0 0 1 .197-.139.177.177 0 0 1 .176.189.156.156 0 0 1-.04.09.117.117 0 0 1-.103.033.099.099 0 0 1-.072-.041c-.016-.025-.017-.06.003-.103l.02.01c-.018.039-.015.065-.004.08.01.018.031.028.056.031a.094.094 0 0 0 .084-.026c.02-.02.03-.048.034-.076a.154.154 0 0 0-.154-.164.196.196 0 0 0-.177.124.247.247 0 0 0-.018.086.206.206 0 0 0 .05.146.27.27 0 0 0 .194.09c.15.004.27-.136.27-.281 0-.138-.102-.248-.23-.328a1.222 1.222 0 0 0-.361-.149 3.13 3.13 0 0 0-.67-.09l-.09-.001c-.092-.002-.178-.003-.289-.017a2.172 2.172 0 0 1-.339-.049 1.03 1.03 0 0 1-.473-.242.649.649 0 0 1-.179-.84.547.547 0 0 1 .394-.264.33.33 0 0 1 .201.032c.06.031.11.083.148.154.02.036.026.084.024.128a.31.31 0 0 1-.027.115.236.236 0 0 1-.19.119.2.2 0 0 1-.15-.055.15.15 0 0 1-.041-.075.168.168 0 0 1 .022-.122.129.129 0 0 1 .06-.048.143.143 0 0 1 .071.002c.027.008.054.025.063.058a.102.102 0 0 1-.008.084l-.02-.011a.08.08 0 0 0 .007-.066c-.006-.023-.025-.037-.048-.043a.123.123 0 0 0-.058-.002.106.106 0 0 0-.048.039.146.146 0 0 0-.02.105c.003.01.011.038.036.063.024.025.065.048.133.048a.213.213 0 0 0 .17-.107.29.29 0 0 0 .005-.221.34.34 0 0 0-.14-.145.31.31 0 0 0-.186-.03Zm.933-4.697c-.067-.094-.186-.123-.275-.059-.102.079-.128.212-.098.35a.349.349 0 0 0 .155.212.011.011 0 0 0 .012-.019.326.326 0 0 1-.145-.199c-.03-.132-.003-.254.09-.326.076-.055.182-.032.243.054l.015.02a.011.011 0 1 0 .018-.015l-.015-.018Zm1.551-.338a.51.51 0 0 0 .191.03c.07 0 .11-.004.188-.03a.852.852 0 0 0 .148-.076c.043-.025.09-.052.139-.075.112-.055.237-.094.358-.052a.29.29 0 0 1 .157.13.453.453 0 0 1 .05.253.703.703 0 0 1-.066.233 3.388 3.388 0 0 1-.04.09l-.007.015a.76.76 0 0 0-.03.073.16.16 0 0 0 .003.122c.015.03.04.054.063.072a.416.416 0 0 0 .14.059.62.62 0 0 0 .138.018.827.827 0 0 0 .289-.053.63.63 0 0 0 .232-.169l.017.016a.653.653 0 0 1-.24.174.85.85 0 0 1-.297.054.64.64 0 0 1-.144-.018.44.44 0 0 1-.148-.063.228.228 0 0 1-.07-.08.183.183 0 0 1-.005-.138.78.78 0 0 1 .031-.076l.008-.016.04-.088a.682.682 0 0 0 .063-.226.431.431 0 0 0-.046-.242.264.264 0 0 0-.146-.118c-.111-.04-.23-.004-.34.05-.049.023-.095.05-.138.074l-.02.012a.868.868 0 0 1-.132.066.519.519 0 0 1-.195.03.538.538 0 0 1-.198-.03.85.85 0 0 1-.132-.066l-.02-.012c-.043-.024-.088-.05-.136-.074-.11-.054-.229-.09-.342-.05a.259.259 0 0 0-.144.119.462.462 0 0 0-.048.245.685.685 0 0 0 .064.223c.014.034.029.066.042.094l.005.01c.014.03.025.057.031.074a.177.177 0 0 1-.002.139.218.218 0 0 1-.073.08.543.543 0 0 1-.288.077.82.82 0 0 1-.297-.05.647.647 0 0 1-.24-.174l.017-.016a.623.623 0 0 0 .232.169.798.798 0 0 0 .288.049.522.522 0 0 0 .275-.073.197.197 0 0 0 .066-.072.155.155 0 0 0 .001-.121.852.852 0 0 0-.03-.072l-.006-.01c-.013-.029-.028-.06-.042-.095a.701.701 0 0 1-.065-.232.483.483 0 0 1 .05-.256.28.28 0 0 1 .156-.13c.123-.042.248-.003.36.052.048.023.095.05.138.075l.02.011a.833.833 0 0 0 .127.065Z" clip-rule="evenodd"/><path fill="#703D29" fill-rule="evenodd" d="M11.138 11.786a.011.011 0 0 1 .015-.006l.015.004a.836.836 0 0 1 .613.409.404.404 0 0 1 .035.282.011.011 0 0 1-.022-.005.382.382 0 0 0-.032-.266.813.813 0 0 0-.418-.328 1.941 1.941 0 0 0-.18-.07.105.105 0 0 1-.019-.005.011.011 0 0 1-.007-.015Z" clip-rule="evenodd"/><path fill="#703D29" fill-rule="evenodd" d="M11.438 12.07a.36.36 0 0 1 .138.271c0 .155-.127.308-.292.304a.312.312 0 0 1-.125-.035l.01-.02c.036.019.075.03.115.033.15.003.27-.137.27-.282a.34.34 0 0 0-.131-.254l.014-.017Z" clip-rule="evenodd"/><path fill="#703D29" fill-rule="evenodd" d="M11.308 12.178a.011.011 0 0 1 .015-.004.18.18 0 0 1 .088.168v.001a.148.148 0 0 1-.042.088.13.13 0 0 1-.105.034.107.107 0 0 1-.076-.045c-.017-.027-.02-.063 0-.11a.011.011 0 1 1 .02.009c-.018.041-.013.07 0 .09.012.019.035.03.059.034a.106.106 0 0 0 .086-.028.126.126 0 0 0 .036-.074.159.159 0 0 0-.077-.147.011.011 0 0 1-.004-.016Zm3.47-6.282a.198.198 0 0 0-.15-.08v-.023a.22.22 0 0 1 .167.089c.043.052.07.122.07.193a.481.481 0 0 1-.149.337c-.049.06-.102.113-.165.177l-.016-.016c.063-.064.116-.116.164-.175a.46.46 0 0 0 .144-.323.29.29 0 0 0-.065-.179Z" clip-rule="evenodd"/><path fill="#703D29" fill-rule="evenodd" d="m13.994 5.615.016.012c.102.079.132.211.098.35a.317.317 0 0 1-.163.201l-.02.012.07-.575Zm.018.043-.059.489a.283.283 0 0 0 .133-.176c.03-.124.006-.24-.074-.313Zm.23-.007.04.045a.34.34 0 0 1 .01.4.319.319 0 0 1-.096.09l-.02.012.066-.547Zm.235.008.015.009a.35.35 0 0 1 .109.093c.05.078.066.144.062.24-.008.162-.124.274-.23.346l-.02.013.064-.7Zm.02.037-.057.618c.098-.07.194-.172.2-.315a.345.345 0 0 0-.057-.225.326.326 0 0 0-.087-.078Zm-.238.008-.054.45a.297.297 0 0 0 .117-.183.316.316 0 0 0-.057-.26l-.006-.007Zm.08 1.989.567.186-.02.013a.293.293 0 0 1-.245.035.518.518 0 0 1-.237-.134.259.259 0 0 0-.017-.018l-.002-.002a.305.305 0 0 1-.014-.014.113.113 0 0 1-.026-.046l-.007-.02Zm.037.035a.354.354 0 0 0 .025.029l.002.002a.495.495 0 0 0 .244.146.27.27 0 0 0 .206-.02l-.477-.157Zm-5.62 2.18c0-.007.006-.012.012-.012.05 0 .102.037.134.092.004.009.016.033.016.062 0 .036-.016.074-.042.092a.12.12 0 0 1-.107.013c-.035-.014-.061-.046-.061-.098 0-.006.005-.01.011-.01.006 0 .012.004.012.01 0 .043.02.067.046.077.027.01.06.006.086-.01.019-.013.033-.043.033-.074a.117.117 0 0 0-.014-.051c-.029-.05-.074-.08-.114-.08a.011.011 0 0 1-.011-.012Zm.289-1.248.014.003c.097.019.19.086.266.177a.821.821 0 0 1 .163.33c.022.087.049.276.011.455a.851.851 0 0 1-.308.505l-.054.038-.092-1.508Zm.024.028.088 1.439.02-.015a.829.829 0 0 0 .3-.492c.037-.174.011-.36-.011-.445a.798.798 0 0 0-.159-.32.477.477 0 0 0-.238-.167Zm-.091 1.156c0-.074-.063-.14-.131-.14v-.022c.081 0 .153.077.153.162a.154.154 0 0 1-.04.105l-.017-.016a.131.131 0 0 0 .035-.09Z" clip-rule="evenodd"/><path fill="#703D29" fill-rule="evenodd" d="M8.896 9.832a.141.141 0 0 0-.098-.044v-.023c.043 0 .084.02.114.051.03.031.05.073.05.118a.157.157 0 0 1-.056.121l-.014-.017a.135.135 0 0 0 .048-.104.148.148 0 0 0-.044-.102Zm.067.102h-.011.01Zm.552-.948.019-.012a.686.686 0 0 1 .145.294l-.021.007-.143-.289Zm.155.592c.007.001.01.007.009.013a.679.679 0 0 1-.195.332.011.011 0 1 1-.015-.016.656.656 0 0 0 .188-.32.011.011 0 0 1 .013-.01Zm-.013-.984a.356.356 0 0 0-.128-.174l.015-.017a.378.378 0 0 1 .135.185l-.022.006Z" clip-rule="evenodd"/><path fill="#703D29" fill-rule="evenodd" d="M9.4 7.523c.006 0 .01.007.009.013l-.012.057-.027.07-.032.044-.052.04-.084.023a.011.011 0 0 1-.006-.022l.08-.022.046-.035.028-.039.025-.065.011-.055a.011.011 0 0 1 .014-.01Zm.135.874.127-.172.02.01a.386.386 0 0 1-.132.178l-.015-.016Zm-.517-.929.017-.005.006.022-.018.005a.326.326 0 0 0-.2.133.626.626 0 0 0-.082.467.581.581 0 0 0 .085.206l.037.051a.254.254 0 0 0 .073.052.16.16 0 0 0 .089.009l.003.022a.183.183 0 0 1-.1-.01.278.278 0 0 1-.082-.057l-.039-.054a.649.649 0 0 1-.004-.698V7.61a.349.349 0 0 1 .136-.116c.028-.013.056-.02.079-.026Zm.472-.362c.007.002.01.008.009.014a.18.18 0 0 1-.035.076.099.099 0 0 1-.09.034.011.011 0 1 1 .003-.023.076.076 0 0 0 .07-.025.157.157 0 0 0 .03-.067.011.011 0 0 1 .014-.009Z" clip-rule="evenodd"/><path fill="#703D29" fill-rule="evenodd" d="M8.83 7.442c.156-.1.312-.082.392-.006l-.016.016c-.07-.067-.214-.087-.364.009l-.06.048a.319.319 0 0 0-.05.057.645.645 0 0 0-.088.185.794.794 0 0 0-.023.231v.001c0 .027.004.05.008.073l.004.027a.692.692 0 0 0 .084.229c.034.056.11.182.28.197a.243.243 0 0 0 .11-.022c.036-.016.062-.043.066-.08l.022.002c-.004.048-.038.08-.077.099a.265.265 0 0 1-.122.023c-.183-.015-.264-.15-.298-.207a.715.715 0 0 1-.088-.236v-.001a.905.905 0 0 0-.003-.026.817.817 0 0 1 .015-.316.667.667 0 0 1 .091-.191.34.34 0 0 1 .055-.062l.06-.05h.001Zm4.76-1.684c-.03.026-.053.05-.06.076v.001c-.015.043-.018.095.017.14a.138.138 0 0 0 .13.048c.084-.024.109-.113.07-.166-.01-.012-.03-.018-.05-.012a.056.056 0 0 0-.043.045.011.011 0 0 1-.013.009.011.011 0 0 1-.01-.013.079.079 0 0 1 .06-.063c.026-.007.056-.001.073.02.05.068.016.174-.08.202h-.001a.161.161 0 0 1-.154-.056.168.168 0 0 1-.02-.16c.008-.034.037-.063.066-.088l.001-.001a.244.244 0 0 1 .187-.043.201.201 0 0 1 .153.123.228.228 0 0 1-.035.23.891.891 0 0 1-.725.31c-.322 0-.57-.142-.74-.24a9.48 9.48 0 0 0-.042-.024c-.035-.017-.07-.012-.087.009a.064.064 0 0 0 .01.086.011.011 0 0 1 0 .015.011.011 0 0 1-.015.002.086.086 0 0 1-.013-.117c.027-.032.075-.035.115-.015l.042.025c.172.098.414.237.73.237a.869.869 0 0 0 .518-.137.73.73 0 0 0 .189-.164c.045-.062.064-.13.032-.209a.179.179 0 0 0-.136-.11.222.222 0 0 0-.17.04Z" clip-rule="evenodd"/><path fill="#703D29" fill-rule="evenodd" d="M13.7 5.82h.01c.02 0 .034.004.045.012a.084.084 0 0 1 .018.02l.002.003a.114.114 0 0 1 .014.112.154.154 0 0 1-.094.089l-.016.006.02-.242Zm.02.023-.016.185a.13.13 0 0 0 .064-.069.091.091 0 0 0-.01-.09l-.004-.005a.055.055 0 0 0-.012-.014.043.043 0 0 0-.022-.007Zm.647 2.125a.011.011 0 0 1 0 .016c-.062.067-.064.16-.038.243a.44.44 0 0 0 .055.113.24.24 0 0 0 .07.07h.001a.063.063 0 0 0 .036.015h.004a.08.08 0 0 1 .035.01.011.011 0 0 1-.012.02.056.056 0 0 0-.025-.007.085.085 0 0 1-.05-.02.263.263 0 0 1-.077-.075.434.434 0 0 1-.059-.12c-.027-.087-.026-.189.044-.264a.011.011 0 0 1 .016 0Z" clip-rule="evenodd"/><path fill="#703D29" fill-rule="evenodd" d="M9.66 6.337h4.643v1.438a.143.143 0 0 1 .057-.081l.004-.004.725.15-.002.011a.348.348 0 0 1-.148.21.408.408 0 0 1-.23.065h-.001a.536.536 0 0 1-.356-.142.21.21 0 0 1-.049-.085v2.256h.005l-.009.106a.72.72 0 0 1-.076.266.713.713 0 0 1-.16.214.745.745 0 0 1-.224.152.935.935 0 0 1-.246.087c-.164.032-.332.04-.498.022a1.721 1.721 0 0 1-.154-.017 3.634 3.634 0 0 0-.101-.013l-.085-.005c-.039-.003-.074-.006-.124-.006a1.052 1.052 0 0 0-.405.07.856.856 0 0 0-.236.14l-.01.011-.008-.012a.144.144 0 0 0-.03-.029.962.962 0 0 0-.2-.11 1.033 1.033 0 0 0-.408-.07c-.062 0-.102.004-.153.01a1.647 1.647 0 0 0-.165.018c-.005 0-.01 0-.016.002-.038.005-.076.01-.127.011a1.592 1.592 0 0 1-.238.008 1.252 1.252 0 0 1-.51-.114.747.747 0 0 1-.221-.155.713.713 0 0 1-.16-.217.723.723 0 0 1-.076-.262.462.462 0 0 1-.007-.093V6.337Zm4.623 3.84h-.002V6.36H9.683v3.808a.489.489 0 0 0 .007.09.7.7 0 0 0 .074.256c.038.08.09.15.156.21a.91.91 0 0 0 .455.233c.086.02.173.03.26.03h.001c.09.004.141 0 .235-.007a1.23 1.23 0 0 0 .126-.012l.016-.002a1.627 1.627 0 0 1 .165-.018c.051-.005.093-.01.155-.01a1.05 1.05 0 0 1 .417.073.969.969 0 0 1 .206.113c.01.008.02.015.027.023a.886.886 0 0 1 .235-.136c.132-.051.272-.076.413-.072.05 0 .088.002.127.005l.083.006c.041.004.073.009.104.013.047.007.09.012.152.017.164.017.33.01.491-.022a.908.908 0 0 0 .241-.086.724.724 0 0 0 .219-.148.687.687 0 0 0 .155-.207.697.697 0 0 0 .074-.258l.007-.082Zm.013-2.352h.007-.007Zm.007 0 .004.001h-.004m.067-.112a.117.117 0 0 0-.037.044.187.187 0 0 0-.015.069.188.188 0 0 0 .05.141.514.514 0 0 0 .34.136.385.385 0 0 0 .219-.062.326.326 0 0 0 .135-.185l-.692-.143Z" clip-rule="evenodd"/><path fill="#C7B37F" d="M9.3 10.71a.094.094 0 1 1 .188 0 .094.094 0 0 1-.188 0Zm-.58-.66c0-.049.03-.086.067-.086.037 0 .063.037.063.086 0 .045-.03.083-.063.083-.038 0-.068-.038-.068-.083Z"/><path fill="#C7B37F" fill-rule="evenodd" d="M8.787 9.97c-.034 0-.062.033-.062.08 0 .043.028.077.062.077a.051.051 0 0 0 .04-.023.089.089 0 0 0 .018-.054.1.1 0 0 0-.017-.058.05.05 0 0 0-.041-.023Zm-.074.08c0-.05.032-.092.074-.092.02 0 .038.01.05.027a.11.11 0 0 1 .019.065.1.1 0 0 1-.02.061.063.063 0 0 1-.05.027c-.041 0-.073-.041-.073-.088Zm.681.572a.088.088 0 0 0-.062.15.088.088 0 1 0 .062-.15Zm-.07.018a.1.1 0 1 1 .14.14.1.1 0 0 1-.14-.14Z" clip-rule="evenodd"/><path fill="#C7B37F" d="M9.049 8.385c0-.038.03-.068.064-.068.037 0 .063.03.063.068 0 .037-.026.067-.063.067-.038 0-.064-.03-.064-.067Zm1.151-2.46c0-.038.019-.075.053-.075.033-.004.063.022.067.06 0 .037-.019.075-.052.075-.034.004-.06-.023-.068-.06Z"/><path fill="#C7B37F" fill-rule="evenodd" d="m8.998 8.758-.074.12-.021-.007.008-.046v-.001a.105.105 0 0 1 .011-.022.11.11 0 0 1 .013-.015.048.048 0 0 1 .015-.015.075.075 0 0 1 .021-.007l.027-.007Zm.41.077a.011.011 0 0 1 .016 0l.033.03.038.03.03.03a.011.011 0 1 1-.015.016l-.03-.03-.037-.03-.034-.03a.011.011 0 0 1-.001-.016Zm-.327 1.033.105-.161.02.011-.027.049-.019.038-.023.039-.039.038-.017-.014Zm.06.36.011.02-.191.116-.013-.019.045-.037a.68.68 0 0 1 .05-.031l.042-.023.057-.026Zm.343-1.782.045-.019.008.021-.045.019a.202.202 0 0 1-.06.012v-.023a.18.18 0 0 0 .052-.01Zm.374-2.468a.011.011 0 0 1 .015.006.351.351 0 0 1 .012.032.115.115 0 0 0 .013.027H9.9v.002a.108.108 0 0 0 .028.04l.048.05c.018.014.03.02.047.027l.026.012a.011.011 0 0 1-.01.02l-.022-.01a.197.197 0 0 1-.056-.033l-.049-.05a.13.13 0 0 1-.032-.047.137.137 0 0 1-.018-.039.311.311 0 0 0-.009-.022.011.011 0 0 1 .006-.015Zm-.238.018.019-.01.18.22-.016.016a.692.692 0 0 0-.053-.039.304.304 0 0 1-.107-.122l-.023-.065Zm.042.054.001.002a.281.281 0 0 0 .082.1l-.083-.102Zm-.323.12.018-.013.22.198-.013.018-.074-.044a.332.332 0 0 1-.066-.048.36.36 0 0 1-.054-.06V6.22l-.03-.05Zm.07.064a.338.338 0 0 0 .064.058l-.064-.058Zm-.517 1.585.02-.011.206.251-.014.017-.057-.03a.322.322 0 0 1-.101-.105l-.005-.006a.198.198 0 0 1-.03-.06.11.11 0 0 1-.011-.028l-.002-.008a.24.24 0 0 0-.006-.02Zm.04.05a.176.176 0 0 0 .028.053l.005.007a.3.3 0 0 0 .093.098l.007.003-.132-.16Zm.135-.01.007-.021.228.041-.001.022-.068.004a.289.289 0 0 1-.117-.023l-.05-.023Z" clip-rule="evenodd"/><path fill="#703D29" d="M12.5 5.685c0-.064-.065-.067-.09-.067-.068 0-.087.04-.173.086a.447.447 0 0 1-.252.075.45.45 0 0 1-.25-.075c-.087-.045-.102-.086-.173-.086a.086.086 0 0 0-.083.09v.033l.011.008c0-.03.004-.045.02-.064a.082.082 0 0 1 .06-.03c.067 0 .093.045.18.09.112.06.157.071.25.075a.45.45 0 0 0 .255-.075c.087-.045.113-.094.18-.094.023 0 .038.015.05.038v.034l.007.003c0-.01.007-.015.007-.037v-.004Z"/><path fill="#703D29" fill-rule="evenodd" d="M11.561 5.614c.037 0 .06.01.083.027a.812.812 0 0 1 .02.013c.018.014.04.03.072.046.074.05.16.076.25.075a.442.442 0 0 0 .248-.074.587.587 0 0 0 .094-.06.134.134 0 0 1 .08-.027c.014 0 .037 0 .057.01.01.005.02.011.027.021.006.01.01.023.01.04v.004a.066.066 0 0 1-.003.024l-.001.003a.027.027 0 0 0-.003.01v.006l-.015-.007V5.69c-.01-.022-.025-.035-.045-.035a.134.134 0 0 0-.08.03l-.02.013a.584.584 0 0 1-.078.05.454.454 0 0 1-.257.076.474.474 0 0 1-.253-.076c-.031-.016-.055-.033-.075-.047l-.022-.015a.138.138 0 0 0-.081-.027.08.08 0 0 0-.072.055.13.13 0 0 0-.003.035v.007l-.019-.013v-.035a.09.09 0 0 1 .024-.065.089.089 0 0 1 .062-.03Zm0 .007a.082.082 0 0 0-.078.086v.032l.003.003a.12.12 0 0 1 .004-.03.087.087 0 0 1 .079-.06c.035 0 .059.01.085.028l.022.015a.7.7 0 0 0 .206.105.446.446 0 0 0 .37-.058h.001a.49.49 0 0 0 .077-.05l.02-.014a.14.14 0 0 1 .085-.03c.025 0 .04.016.052.04v.032h.001l.003-.007V5.71a.06.06 0 0 0 .004-.021v-.004a.06.06 0 0 0-.01-.035.057.057 0 0 0-.023-.02.131.131 0 0 0-.053-.009.127.127 0 0 0-.077.026.685.685 0 0 0-.02.013.571.571 0 0 1-.074.047.45.45 0 0 1-.253.076.454.454 0 0 1-.253-.076.546.546 0 0 1-.073-.047c-.007-.005-.013-.01-.02-.013a.126.126 0 0 0-.077-.026Z" clip-rule="evenodd"/><path fill="#703D29" d="M9.915 11.025c.019-.019.034-.011.038-.023 0-.007 0-.007-.012-.01l-.033-.008-.03-.015c-.004 0-.015-.008-.02 0-.003.015.038.015.023.052a.14.14 0 0 1-.03.045l-.097.113-.008.003v-.16l.004-.068c.008-.015.03 0 .034-.015 0-.004 0-.008-.011-.012-.008 0-.02 0-.042-.01l-.037-.02c-.008 0-.019-.007-.023 0l.004.012c.015.007.019.015.019.037v.278c0 .018.004.022.007.026.004 0 .008 0 .015-.011l.2-.214Z"/><path fill="#703D29" d="M10.031 11.07c.011-.04.038-.014.038-.03.003-.007 0-.007-.008-.01l-.049-.016c-.015 0-.03-.011-.045-.015 0 0-.01-.004-.015 0-.003.019.042.019.03.056l-.063.207c-.012.037-.038.022-.042.037v.004l.045.015.06.019h.012c.007-.015-.045-.011-.027-.064l.064-.203Zm.139.038c.007-.023.019-.019.034-.015.037.011.052.049.037.094-.007.022-.015.045-.075.03-.011-.004-.026-.008-.022-.019l.026-.086v-.004Zm-.105.188c-.019.052-.045.03-.049.045 0 .007.008.007.011.01l.06.016.03.011h.015c.004-.019-.037-.011-.026-.056l.023-.075c.003-.015.003-.019.022-.011.023.003.026.01.03.03l.011.075c.008.033.012.063.038.075.019 0 .045 0 .052-.016l-.007-.007h-.011s-.012 0-.012-.011l-.026-.135c0-.008.015-.008.03-.011a.076.076 0 0 0 .038-.05c.003-.018.015-.082-.068-.108l-.079-.019-.045-.015h-.01c-.005.019.04.015.025.064l-.056.188h.004Zm.315.093c-.015.053-.053.019-.056.038 0 .007.003.011.01.011l.057.011.053.015c.01 0 .018.008.022-.004 0-.01-.049-.01-.037-.067l.048-.195c0-.023.008-.023.023-.019l.037.008c.042.011.02.056.038.06.007 0 .007-.015.007-.023l.004-.037v-.015l-.124-.027-.12-.03c-.003 0-.007 0-.007.008l-.019.056c-.004.004-.007.015 0 .015.019.004.019-.056.064-.045l.034.008c.015.004.018.007.015.03l-.05.202Zm.476-.123c.015-.023.03-.02.034-.027 0-.007-.008-.007-.015-.011h-.034l-.034-.011c-.003 0-.015-.004-.015.003-.003.015.038.008.03.05 0 .007-.003.022-.022.048l-.075.124-.011.007v-.007l-.027-.15a.204.204 0 0 1-.003-.068c0-.018.026-.007.026-.018 0-.008 0-.008-.015-.012l-.041-.004c-.015 0-.027-.007-.038-.01-.007 0-.019-.005-.022.003l.003.008c.02.007.023.014.027.033l.048.274c.004.019.008.026.012.026.003 0 .007 0 .015-.011l.157-.248Zm.023.255c0 .01 0 .01.007.018.023.008.038.023.064.027.052.007.097-.027.105-.083.011-.056-.011-.079-.053-.109-.048-.034-.067-.041-.063-.075.003-.026.026-.037.052-.037.068.011.06.097.068.097.01 0 .01-.004.01-.015l.008-.06v-.015h-.022c-.015 0-.026-.018-.06-.026-.045-.008-.086.026-.094.075-.007.045.015.068.045.09.06.041.083.053.075.09-.004.038-.034.053-.064.049-.045-.008-.06-.053-.067-.098 0-.007 0-.011-.008-.011-.007 0-.007.011-.007.019v.063h.004Zm.592-.17c.011-.026.03-.022.03-.033 0-.008-.004-.004-.015-.008h-.034l-.033-.003c-.004 0-.015 0-.015.007 0 .015.037 0 .037.041a.14.14 0 0 1-.019.053l-.067.131-.004.011-.004-.01-.04-.15a.201.201 0 0 1-.012-.06c0-.02.026-.012.026-.023 0-.008 0-.008-.015-.008h-.045l-.037-.007c-.008 0-.02-.004-.023.004l.008.007c.015.007.022.011.026.03l.079.266.015.027c.003 0 .007 0 .01-.015l.132-.263v.004Z"/><path fill="#703D29" d="M11.535 11.569c0 .045-.037.037-.037.056 0 .008.004.004.011.004h.082l.016-.004c0-.023-.053.008-.053-.075v-.158l.004-.003.007.004.192.236.01.004.008-.012v-.251c0-.049.038-.037.038-.049 0 0 0-.007-.011-.007h-.087c-.007 0-.007.004-.007.007 0 .015.049.008.049.049v.15l-.004.015-.015-.011-.158-.199c-.007-.011-.004-.011-.015-.011h-.067l-.008.004c0 .022.045-.008.045.078v.173Zm.39-.207c0-.04.03-.026.03-.04 0-.004 0-.008-.015-.008h-.097s-.011 0-.011.007c0 .015.04 0 .04.045v.214c0 .041-.03.03-.03.045 0 0 0 .008.008.008h.105c.008 0 .011 0 .011-.008 0-.015-.044.008-.044-.049l.003-.213Zm.169.207c0 .056-.045.037-.045.052 0 .008.008.008.015.008h.113c.01 0 .018 0 .018-.011 0-.012-.052 0-.052-.053v-.202c0-.023 0-.023.018-.023h.038c.045-.004.03.045.049.045.007 0 .004-.015.004-.022l-.004-.038c0-.007 0-.015-.008-.015l-.123.004h-.124l-.008.011-.003.06.003.015c.019 0 .008-.06.053-.06h.034c.014 0 .018 0 .022.023v.21-.004Zm.236-.083h-.015l.004-.019.026-.082v-.008l.008.004.037.079.008.015c0 .008-.008.008-.015.008h-.053v.003Zm.068.019c.011 0 .011 0 .03.037l.007.03c0 .027-.026.023-.026.038 0 .004.007.004.015 0h.045l.049-.004c.011 0 .015 0 .015-.007 0-.015-.023 0-.038-.027l-.127-.262-.011-.015c-.008 0-.008.008-.012.015l-.082.277c-.008.027-.03.027-.027.038h.087c.007-.004.018 0 .018-.011 0-.012-.044 0-.048-.034l.007-.037c.008-.03.015-.03.023-.03l.079-.008h-.004Zm.311-.188c-.004-.03 0-.03.045-.037.075-.007.053.049.075.045.007 0 0-.015 0-.022l-.004-.042c0-.003-.003-.007-.011-.007-.037 0-.064.007-.09.011l-.105.015c-.008 0-.011 0-.011.008.003.018.048 0 .052.037l.027.206c.007.056-.027.038-.023.056 0 0 0 .004.008 0l.052-.003.045-.004c.011 0 .019 0 .019-.011 0-.012-.045.003-.053-.045l-.007-.064c-.004-.026-.004-.034.011-.038h.03c.041-.007.037.042.049.038.011 0 .007-.015.004-.019l-.012-.079c0-.01-.007-.01-.007-.01-.012 0-.004.04-.038.044l-.026.004c-.019.004-.019 0-.023-.019l-.007-.063Zm.15.105c.015.087.079.14.158.124.127-.026.13-.135.12-.198-.02-.094-.087-.14-.165-.124-.094.018-.132.101-.113.198Zm.041-.037c-.011-.06 0-.127.064-.139.053-.011.112.03.127.128.012.075 0 .135-.067.15-.071.015-.112-.075-.124-.135v-.004Zm.311-.154c-.003-.026.008-.03.023-.034.037-.007.068.02.079.06.007.027.011.053-.049.068-.011 0-.026.004-.03-.007l-.019-.087h-.004Zm0 .214c.015.053-.018.049-.018.06.004.011.011.007.015.004.022 0 .037-.011.06-.015l.037-.008c.008 0 .008-.004.008-.007 0-.015-.038.011-.049-.038l-.019-.075c0-.015-.007-.015.015-.018.019-.008.027-.004.042.01l.048.06c.019.023.038.05.068.042.019-.004.037-.019.037-.034l-.007-.004-.011.004s-.012.004-.015 0l-.09-.108.018-.023a.077.077 0 0 0 .008-.06c-.004-.019-.027-.079-.113-.06l-.079.022-.045.008c-.007 0-.01.004-.007.008 0 .018.041-.008.052.037l.045.195Zm.327-.075c.011.053-.038.045-.034.06 0 .011.011.008.019.008l.052-.02.057-.01c.01 0 .018 0 .014-.015 0-.012-.048.014-.063-.038l-.049-.199c-.008-.019 0-.022.011-.026l.038-.008c.041-.014.041.038.056.034.011 0 0-.019 0-.026l-.015-.038s0-.01-.008-.007l-.12.034-.12.026v.011l.004.06c0 .008 0 .015.011.015.02-.004-.01-.06.038-.071l.03-.008c.015-.003.023 0 .026.02l.053.198Zm.206-.274c-.011-.037.023-.034.015-.049h-.011l-.053.015-.045.012s-.011 0-.011.007c.004.015.045-.007.056.03l.06.21c.008.038-.022.038-.019.049 0 .004 0 .008.008.004l.041-.011.06-.015c.011 0 .011-.004.011-.012-.003-.011-.04.019-.056-.034l-.056-.206Zm.086.101c.027.087.098.128.177.102.12-.041.112-.154.09-.214-.03-.09-.105-.124-.18-.101-.09.034-.12.12-.087.213Zm.038-.037c-.023-.064-.023-.131.041-.15.049-.019.112.015.146.109.023.067.019.135-.045.157-.067.023-.12-.056-.142-.12v.004Zm.285-.206c-.008-.027 0-.03.015-.038.037-.011.075.011.09.053.007.022.015.049-.041.071-.012 0-.027.008-.03 0l-.034-.086Zm.03.21c.022.052-.015.052-.008.063 0 .012.008.004.015.004l.056-.026.034-.008c.008-.003.008-.007.008-.01-.008-.016-.038.014-.053-.03l-.03-.072c-.007-.015-.007-.019.011-.026.02-.008.027-.004.042.011l.06.053c.018.018.041.04.075.03.011-.008.034-.027.026-.038l-.008-.004-.007.008h-.019l-.105-.094.015-.026a.076.076 0 0 0 0-.06c-.004-.023-.037-.075-.116-.045l-.075.034-.045.014-.007.008c.007.015.04-.015.06.03l.075.188-.004-.004Z"/><path fill="#D52B1E" d="M9.905 6.583h1.97v1.969h-1.97V6.584Z"/><path fill="#fff" d="M10.829 8.132s0 .072-.02.127c-.023.065-.023.065-.045.096a.316.316 0 0 1-.091.096.234.234 0 0 1-.144.038c-.13-.01-.192-.153-.22-.268-.032-.123-.12-.192-.18-.144-.034.024-.034.067-.008.11.026.031.06.054.098.067l-.07.089s-.15-.02-.18-.178c-.011-.06.018-.17.118-.204.128-.043.207.048.248.125.052.106.076.298.225.269.082-.017.12-.134.12-.19l.058-.062.089.029h.002Z"/><path fill="#FEDF00" d="m11.066 7.296.26-.28s.038-.032.038-.082l-.053.01-.012-.03-.002-.026.071-.016V6.84l.008-.03-.077.004.007-.034.012-.024.046-.01h.045c.043-.08.221-.153.346-.023.091.096.072.269-.048.317a.151.151 0 0 1-.163-.027l.048-.096c.064.041.12-.007.115-.057-.005-.065-.048-.104-.103-.108-.055-.005-.096.024-.12.072-.015.03-.008.053-.012.086-.005.036 0 .055-.012.091a.211.211 0 0 1-.058.087l-.264.288-1.032 1.113-.077-.072 1.037-1.12Z"/><path fill="#fff" d="M10.308 7.392s.065.322.286.804c.113-.04.177-.067.297-.067.118 0 .183.024.296.067.122-.257.218-.526.285-.804l-.58-.744-.586.744h.002Z"/><path fill="#FEDF00" d="m10.946 6.898.403.52s-.052.253-.216.632a1.219 1.219 0 0 0-.187-.031V6.898Zm-.113 0-.403.52s.053.253.216.632c.065-.014.12-.026.187-.031V6.898Zm1.253-.317h1.973V8.55h-1.973V6.58Z"/><path fill="#D52B1E" d="M12.364 6.581h.293V8.55h-.293V6.58Zm.563 0h.292V8.55h-.292V6.58Zm.562 0h.296V8.55h-.296V6.58Z"/><path fill="#FEDF00" d="M9.911 10.256a.463.463 0 0 0 .053.161c.037.057.022.053.101.143a.57.57 0 0 0 .15.109c.177.076.37.11.563.097.1-.004.18-.015.247-.026a2.67 2.67 0 0 1 .413-.023c.056 0 .112.012.176.023.131.026.262.075.262.075V8.764H9.904v1.398l.007.09v.004Z"/><path fill="#D52B1E" d="m10.14 10.617.094.056.127.045V8.76h-.22v1.857Zm1.095.09V8.76h-.217v1.98l.217-.026v-.008Zm.439-1.947h-.218v1.954c.072.008.143.022.218.037V8.76Zm-.878 0v2.003s-.142.007-.217 0V8.76h.217Z"/><path fill="#D52B1E" fill-rule="evenodd" d="M10.134 8.754h.233v1.972l-.136-.048-.097-.059V8.755Zm.011.012v1.847l.091.054.12.043V8.766h-.21Zm.428-.012h.229v2.014h-.012l-.017.001-.057.002c-.045 0-.1 0-.138-.003h-.005V8.754Zm.217 2.003V8.766h-.206v1.991c.037.004.088.004.131.003l.058-.002h.017Zm.222-2.003h.229v1.965l-.23.027V8.754Zm.011.012v1.968l.206-.025V8.766h-.206Zm.428-.012h.228v2.004l-.007-.001-.02-.004a2.147 2.147 0 0 0-.196-.034h-.005V8.754Zm.01.012v1.943c.064.007.127.02.193.033l.014.002V8.766h-.206Z" clip-rule="evenodd"/><path fill="#FEDF00" d="M14.052 10.257a.497.497 0 0 1-.053.159c-.036.055-.024.055-.103.144a.632.632 0 0 1-.312.168c-.13.034-.264.047-.398.038-.104-.005-.18-.017-.248-.024a1.797 1.797 0 0 0-.264-.024 1.826 1.826 0 0 0-.148 0c-.15.017-.297.05-.44.101v-2.06h1.973v1.405l-.007.091v.002Z"/><path fill="#D52B1E" d="m12.59 8.928-.014.004-.02.02c-.009.01-.016.012-.028.019l-.014.012c-.008.007 0 .014-.008.024-.002.01-.007.014-.014.024-.01.01-.017.012-.024.024l-.029.024-.007.002h-.014c-.01.005-.012.015-.02.02l.008.014.019.033c.005.008.005.017.012.02a.048.048 0 0 0 .031.002c.02.005.031.005.048.012l.036.02c.012.006.02.009.031.011h.043v.007l.048.024a.045.045 0 0 0-.002.01c-.002.007-.005.017-.002.02.014.045.028.071.036.076.014.005.019.022.026.036l-.007.007c-.015.015-.029.024-.041.043-.017.03-.029.03-.007.068l.036.057c.01.017.014.029.019.048a.155.155 0 0 1 .007.048l.024.007.017-.014.014-.029v-.024c-.004-.002-.007-.01-.004-.017 0-.01.012-.007.016-.014.008-.012-.01-.02-.016-.026-.015-.017-.034-.022-.039-.046 0-.005 0-.01.01-.017l.048-.043a.036.036 0 0 0 .024.002l.031.01c.014.005.022 0 .029 0h.01l.002.014c.002.024-.003.072.005.084l.007.015.005.014v.048l-.005.041c0 .01-.005.017-.012.024-.005.01-.015.01-.024.017v.024l.026.012.031.007.017-.007.003-.015.012-.012c.01-.004.019 0 .021-.002.005-.007 0-.01 0-.02 0-.014-.005-.023-.007-.038a.29.29 0 0 1-.002-.067c0-.014 0-.024.004-.036.003-.024.01-.033.015-.053.007-.024.007-.038.01-.06a.585.585 0 0 0 .242-.014.22.22 0 0 0 .065.038v.024c0 .008 0 .01.004.017l.008.007c.007 0 .012 0 .016-.004.005-.005.005-.01.005-.017V9.47h.043v.026c.003.008.008.01.012.01a.017.017 0 0 0 .015 0c.007-.005.005-.014.007-.024v-.017l.024-.01v.022l-.007.022c-.005.014-.012.02-.02.033-.009.015-.011.024-.023.036l-.015.017-.014.022-.022.024c-.017.014-.029.005-.048.021l-.007.024.034.015.03.005.01-.005c0-.007 0-.015.008-.02.004-.007.01-.007.016-.009.01 0 .02 0 .024-.005.01-.007.01-.024.017-.036a.306.306 0 0 1 .072-.093l.041-.034c.005-.01.012-.012.012-.024l-.005-.014-.005-.024c.036.016.024.016.03.033.006.015 0 .024.002.041.002.02.012.026.012.046.002.021-.003.033-.008.055-.002.02-.002.031-.012.048a.09.09 0 0 1-.026.036l-.014.012-.003.024.027.01.038.01.01-.008c.004-.017 0-.041.01-.041.009-.002.016 0 .018-.007v-.017l.017-.108.01-.046.01-.04c.016-.048-.005-.056-.025-.087-.012-.017-.016-.024-.016-.036V9.22l.01-.004c.028-.017.04-.022.057-.06a.081.081 0 0 0 .007-.036v-.024l-.01-.024a.075.075 0 0 0-.014-.02c-.017-.024-.04-.026-.065-.036-.036-.012-.06-.01-.096-.012a.389.389 0 0 0-.105 0c-.048 0-.075.01-.123.017l-.117.01c-.056 0-.106-.012-.14-.01-.057.005-.06.02-.148.027a1.6 1.6 0 0 1-.092.004l-.052-.016c.021-.008.026-.012.036-.024.007-.01.004-.017.014-.027l.017-.024a.052.052 0 0 0-.022-.01h-.024a.074.074 0 0 0-.029.008l-.019.014-.053-.029a.211.211 0 0 0-.072-.021v.005Z"/><path fill="#FEDF00" fill-rule="evenodd" d="M13.59 9.075a.012.012 0 0 1 .013-.01.08.08 0 0 1 .02.007l.005.002h.004l.004.004c.01.01.026.028.023.053-.003.02-.008.043-.034.053-.03.013-.066.02-.139.008a.95.95 0 0 0-.18-.02.124.124 0 0 0-.045.015l-.007.003a.182.182 0 0 1-.039.016l-.009.002.046.007-.025.024.014.001a.173.173 0 0 0 .04-.006h.005l.025-.007-.014.028a.205.205 0 0 0 .018-.003.12.12 0 0 0 .039-.02.094.094 0 0 1 .047-.018c.034-.003.063.004.089.01a.235.235 0 0 0 .137 0l.02-.007a.012.012 0 0 1 .008.022l-.018.007c-.02.01-.037.01-.056.012l-.01.001a.254.254 0 0 1-.086-.01h-.001a.24.24 0 0 0-.081-.011.071.071 0 0 0-.036.014l-.003.002a.14.14 0 0 1-.043.022.235.235 0 0 1-.044.005h-.02l.01-.02a.172.172 0 0 1-.026.003.19.19 0 0 1-.041-.005l-.021-.005.022-.022-.01-.002h-.001a.109.109 0 0 1-.027-.02l-.018-.017.025-.003a.487.487 0 0 0 .04-.007c.012-.004.022-.009.032-.014a.147.147 0 0 1 .062-.02h.001a.97.97 0 0 1 .185.02c.07.011.102.004.125-.007.013-.005.017-.015.02-.034.001-.012-.006-.022-.014-.031h-.002l-.002-.002-.003-.001a.057.057 0 0 0-.015-.005.012.012 0 0 1-.01-.014Z" clip-rule="evenodd"/><path fill="#FCD900" d="M12.596 9.014c-.012 0-.021 0-.031.007-.012.008-.014.017-.024.027.012.002.02.01.029.007.01 0 .012-.005.019-.012a.042.042 0 0 0 .01-.029h-.003Z"/><path fill="#FEDF00" fill-rule="evenodd" d="M12.595 9.008h.01v.006c0 .007-.002.012-.003.018a.055.055 0 0 1-.009.015l-.004.004v.001l-.005.005a.022.022 0 0 1-.014.004.027.027 0 0 1-.016-.002l-.004-.002-.01-.003-.012-.002.008-.008a.07.07 0 0 0 .01-.014.047.047 0 0 1 .015-.013c.011-.009.023-.009.034-.009Zm-.003.012c-.01 0-.017.001-.024.006a.037.037 0 0 0-.012.011l-.001.003-.004.005a.11.11 0 0 1 .004.002h.003c.004.002.007.003.01.002h.001c.004 0 .005 0 .007-.002a.03.03 0 0 0 .003-.003l.002-.001.003-.004a.039.039 0 0 0 .006-.011l.002-.008Zm.468.322-.023.097-.024-.002v-.019l.023-.082.008-.034.024.005-.007.032-.001.003Zm-.208-.009.024-.006a.32.32 0 0 0 .023.053v.003c.004.011.004.02.004.027 0 .007 0 .013.002.021v.042l-.024.002-.029-.142Zm-.103.005a.012.012 0 0 1 .015-.01c.006.002.01.006.013.01a.049.049 0 0 1 .007.013.213.213 0 0 1 .007.026v.004l.01.03c.003.008.007.013.011.015.006.003.008.01.005.016a.012.012 0 0 1-.016.005.054.054 0 0 1-.023-.027.189.189 0 0 1-.01-.033v-.005l-.006-.023a.031.031 0 0 0-.004-.006.012.012 0 0 1-.009-.015Zm.71.141a.208.208 0 0 0 .067-.046l-.017-.017a.184.184 0 0 1-.06.041h-.002l-.011.009.014.019.009-.006Z" clip-rule="evenodd"/><path fill="#FEDF00" fill-rule="evenodd" d="M13.383 9.337a.043.043 0 0 0-.017 0h-.021a.012.012 0 0 1 0-.023h.018a.065.065 0 0 1 .025 0 .05.05 0 0 1 .02.009.035.035 0 0 1 .011.01l.002.001a.085.085 0 0 0 .014.01.183.183 0 0 1 .051.042.17.17 0 0 0 .05.039l.01.002.02.01c.006.004.008.01.005.017a.012.012 0 0 1-.016.005l-.018-.009-.01-.002a.194.194 0 0 1-.06-.047.204.204 0 0 0-.028-.026l-.059.023h-.001l-.008.004a.634.634 0 0 1-.11.041l-.007-.023.117-.044.041-.018a.115.115 0 0 1-.01-.009.1.1 0 0 0-.008-.007.026.026 0 0 0-.01-.005Z" clip-rule="evenodd"/><path fill="#FCD900" d="M12.425 9.108h.017l.02-.004c.007 0 .011 0 .016.004.005 0 .005.003.007.008 0 .004.005.007.003.011 0 .005-.008.01-.015.01-.005 0-.01 0-.012-.007a.011.011 0 0 1 0-.005V9.12a.024.024 0 0 1-.021 0 .024.024 0 0 1-.014-.012Z"/><path fill="#FEDF00" fill-rule="evenodd" d="m12.462 9.11-.02.004h-.001.001a.018.018 0 0 0 .017 0l.01-.004h-.007Zm.01 0-.005.012v.005l.001.003h.005l.007-.001.002-.002v-.003l-.003-.007v-.003h-.003l-.002-.002a.01.01 0 0 0-.002-.001Zm-.047-.002v-.006h.016l.02-.005c.007 0 .014 0 .02.005h.002a.01.01 0 0 1 .004.004l.002.004.002.002v.003l.001.002v.001l.002.005v.006a.016.016 0 0 1-.008.01.024.024 0 0 1-.013.004c-.002 0-.006 0-.009-.002a.015.015 0 0 1-.008-.01l-.001-.003a.03.03 0 0 1-.018-.002.03.03 0 0 1-.017-.015l.005-.003Z" clip-rule="evenodd"/><path fill="#0065BD" d="m12.603 9.34-.048-.021c.01-.005.016-.005.024-.012.007-.01.007-.02.012-.031.004-.012.004-.024.016-.034a.032.032 0 0 1 .027-.002c.01 0 .019.01.021.017 0 .014-.004.024-.007.036 0 .014-.007.021-.005.033 0 .01.005.015.01.024l-.048-.01h-.002Zm-.024.025a.015.015 0 0 1 .006-.015.014.014 0 0 1 .021.007.015.015 0 0 1 0 .009.014.014 0 0 1-.003.007.014.014 0 0 1-.023-.005.014.014 0 0 1-.001-.006v.003Zm-.041-.399h-.005c-.01-.01-.01-.019-.014-.029a.096.096 0 0 1-.008-.028V8.86c0-.008 0-.015-.004-.022 0-.005-.01-.007-.008-.01 0-.002.008 0 .01 0 .01 0 .014.003.024.01a.05.05 0 0 1 .014.024l.01.036.007.02.012.014-.017.019-.021.014Zm.086.255.053.024a.22.22 0 0 0 .084-.092c.022-.043.024-.064.034-.105l-.044-.012h-.01c-.011.043-.016.065-.038.1a.27.27 0 0 1-.062.073l-.017.012Zm.12.436.02-.03.033-.027h.01a.208.208 0 0 1-.012.067l-.01.024-.012.012c-.012-.02-.031-.031-.031-.048l.002.002Zm.792.044.034.014.036.022v.012l-.036.004a.2.2 0 0 1-.031 0h-.024l-.015-.01c.012-.016.02-.038.034-.042h.002Zm-.235-.048.034.012.036.024c0 .002.002.007 0 .01a.216.216 0 0 1-.065.006l-.024-.002-.017-.007c.014-.017.022-.041.036-.043Zm-.418.05.036.012.036.024v.012a.216.216 0 0 1-.067.005h-.024l-.014-.01c.012-.017.019-.038.033-.043Zm-.216-.715c-.014-.007-.024-.024-.014-.039.002-.004.01-.004.014-.01.005-.006.003-.011 0-.018l-.002-.024-.005-.024c0-.015 0-.024.01-.039a.044.044 0 0 1 .019-.014c.005.002 0 .012 0 .019 0 .012.002.017.007.029l.017.031c.005.014.01.02.01.034 0 .012 0 .016-.005.028a.048.048 0 0 1-.015.02.048.048 0 0 1-.019.01.026.026 0 0 1-.014 0l-.003-.003Z"/><path fill="#703D29" fill-rule="evenodd" d="M9.895 6.572h1.99v1.987h-1.99V6.572Zm.018.019v1.95h1.954V6.59H9.913Zm2.164-.02h1.991V8.56h-1.991V6.572Zm.019.02v1.95h1.954V6.59h-1.954Zm-.019 2.16h1.995v1.415l-.008.1h-.005a.496.496 0 0 1-.052.156.526.526 0 0 0-.024.04.54.54 0 0 1-.078.104.586.586 0 0 1-.153.111.751.751 0 0 1-.167.06 1.23 1.23 0 0 1-.4.038 1.739 1.739 0 0 1-.19-.018l-.055-.008a2.438 2.438 0 0 0-.269-.022 1.469 1.469 0 0 0-.145 0 .884.884 0 0 0-.155.019c-.007 0-.014.002-.02.003a1.79 1.79 0 0 0-.256.073l-.004.001h-.001l-.013.005V8.751Zm.019.018v2.033a2.28 2.28 0 0 1 .251-.07v-.001l.02-.004a.913.913 0 0 1 .158-.019 2.699 2.699 0 0 1 .474.03c.052.008.113.016.186.019.133.01.267-.003.395-.037a.73.73 0 0 0 .163-.06.569.569 0 0 0 .148-.107c.053-.06.062-.077.075-.1a.476.476 0 0 0 .076-.198l.001-.008h.004l.006-.081V8.769h-1.957Zm.576 1.939v.01-.01ZM9.895 8.754h1.99v2.074l-.012-.004h-.001l-.002-.002h-.003a1.329 1.329 0 0 0-.075-.026 1.79 1.79 0 0 0-.18-.047l-.02-.003a.884.884 0 0 0-.154-.02 2.65 2.65 0 0 0-.412.023 1.883 1.883 0 0 1-.248.026 1.236 1.236 0 0 1-.567-.098.581.581 0 0 1-.152-.11c-.056-.063-.066-.082-.08-.105a.473.473 0 0 1-.078-.205h.001v-.004l-.007-.09V8.754Zm.018.019v1.389l.008.09v.004a.455.455 0 0 0 .076.197.549.549 0 0 0 .222.207c.176.076.367.109.558.097.101-.004.18-.015.247-.026a2.6 2.6 0 0 1 .414-.023v.01-.01c.05 0 .102.01.157.02.007 0 .014.002.02.003a1.81 1.81 0 0 1 .252.07v.014h.01l.003-.009h-.002l-.004-.002-.007-.002V8.773h.01v-.01h-.01v.01H9.913Z" clip-rule="evenodd"/></g><defs><clipPath id="a"><path fill="#fff" d="M0 0h24v18H0z"/></clipPath></defs></svg>