<svg xmlns="http://www.w3.org/2000/svg" width="24" height="18" fill="none"><g clip-path="url(#a)"><path fill="currentColor" fill-rule="evenodd" d="M0 0h24v18H0V0Z" clip-rule="evenodd"/><path fill="#090" fill-rule="evenodd" d="M16.001 0H24v18h-8V0Z" clip-rule="evenodd"/><path fill="#BF0000" fill-rule="evenodd" d="M7.999 0h8.003v18H7.998V0Z" clip-rule="evenodd"/><path fill="#fff" fill-rule="evenodd" d="M12.778 10.028h.332c0 .128.08.263.179.34h-.638c.1-.088.127-.2.127-.34Z" clip-rule="evenodd"/><path fill="#BD6B00" fill-rule="evenodd" d="M12.77 10.019h.35v.01c0 .123.078.256.176.33l.023.018h-.694l.02-.017c.097-.085.124-.193.124-.332v-.01Zm.019.02c-.001.127-.027.233-.112.319h.585a.469.469 0 0 1-.162-.32h-.311Z" clip-rule="evenodd"/><path fill="#fff" fill-rule="evenodd" d="m10.673 8.142.184.2 2.273.008.183-.2-.582-.012-.279-.199h-.917l-.264.203h-.598Zm.929-.232h.786c.104-.055.14-.235.14-.334a.423.423 0 0 0-.42-.447c-.031 0-.067-.024-.075-.052-.02-.064-.016-.108-.04-.104-.016 0-.012.04-.028.096a.102.102 0 0 1-.08.064.421.421 0 0 0-.418.443c.004.16.024.255.135.335Z" clip-rule="evenodd"/><path fill="#BD6B00" fill-rule="evenodd" d="M12.029 7.018a.537.537 0 0 0 .013.056.06.06 0 0 0 .025.031.076.076 0 0 0 .042.014.455.455 0 0 1 .294.119c.08.075.134.188.134.338 0 .05-.009.122-.031.187s-.058.127-.114.157H11.6l-.003-.001a.29.29 0 0 1-.111-.142.644.644 0 0 1-.028-.201.431.431 0 0 1 .427-.453.092.092 0 0 0 .072-.057.38.38 0 0 0 .011-.055l.002-.012a.1.1 0 0 1 .006-.022.025.025 0 0 1 .007-.01.018.018 0 0 1 .01-.003.029.029 0 0 1 .013.001.024.024 0 0 1 .01.008.07.07 0 0 1 .01.025c0 .006.002.013.004.02Zm-.032-.035h-.003v.002a.449.449 0 0 1-.018.087h-.002a.111.111 0 0 1-.088.071.411.411 0 0 0-.41.433.62.62 0 0 0 .027.194c.019.05.05.093.102.13h.78c.048-.026.08-.08.102-.143a.592.592 0 0 0 .03-.181.427.427 0 0 0-.128-.324.435.435 0 0 0-.28-.113.096.096 0 0 1-.053-.017.08.08 0 0 1-.033-.042c-.007-.022-.01-.043-.014-.06a.402.402 0 0 0-.01-.035l-.002-.002Z" clip-rule="evenodd"/><path fill="#fff" fill-rule="evenodd" d="M10.315 10.707h3.361l-.299-.244H10.61l-.3.244h.005Zm1.543-.922.06.184h.139l-.112-.184h-.087Zm-.08.184.04.183h.16l-.06-.183h-.14Zm.279 0 .112.183h.235l-.184-.183h-.163Zm-1.376.414c.124-.115.204-.211.204-.35h.303c0 .08.027.123.071.119h.307v-.18h-.223v-.984c-.008-.351.423-.55.598-.55h-1.049v-.033h2.206v.032H12.04c.315 0 .618.3.622.55v.28h-.04l-.004-.275c0-.276-.347-.53-.626-.523-.24.004-.614.235-.61.519v.087l.57.004-.004.1.088.056.18.056v.151l.127.036v.148l.152.067v.152l.1.06-.005.155.132.092h-.311l.195.22h-.29l-.144-.22h-.188l.084.215h-.2l-.051-.215h-.248v.231h-.889Zm.886-.598v.184h.21l-.039-.184h-.175.003Z" clip-rule="evenodd"/><path fill="#BD6B00" fill-rule="evenodd" d="M10.883 8.395h2.225v.052h-.922c.108.03.209.089.29.164.117.107.195.247.197.376v.29h-.06l-.003-.286c0-.133-.085-.263-.205-.36a.663.663 0 0 0-.411-.152.72.72 0 0 0-.39.152c-.123.093-.213.22-.21.356v.078l.57.004-.004.104.082.052.185.058v.151l.127.036v.149l.152.068v.152l.1.06-.004.156.153.107h-.32l.195.219h-.319l-.143-.22H12l.084.216h-.222l-.052-.215h-.23v.231h-.924l.019-.017c.123-.116.2-.209.2-.344v-.01h.323v.01c0 .04.007.068.018.086.01.018.025.025.043.024h.298v-.16h-.223v-.995c-.005-.18.104-.32.234-.415a.842.842 0 0 1 .254-.125h-.94v-.052Zm1.059.032v.02a.709.709 0 0 0-.362.142c-.127.092-.23.227-.226.398v.975h.203v-.177h.006v-.01h.183l.04.183h.118l-.06-.183h.107l.112.183h.162l.183.184h.284l-.11-.077.004-.155-.1-.06V9.7l-.152-.068v-.147l-.127-.036v-.151l-.174-.054-.093-.06.003-.095-.57-.004v-.098c-.002-.146.094-.277.218-.372a.74.74 0 0 1 .402-.156.683.683 0 0 1 .425.157c.122.098.212.233.212.375l.003.265h.02v-.269c-.001-.122-.076-.257-.19-.362a.642.642 0 0 0-.422-.178v-.02h1.047v-.012h-2.185v.012h1.039Zm.438 1.715-.163-.164h-.142l.1.164h.205Zm-.189.02h.217l.178.2h-.264l-.13-.2Zm-.04-.02-.1-.164h-.12l.054.164h.166Zm-.187 0-.053-.164h-.12l.035.164h.138Zm-.133.02h.148l.076.195h-.177l-.047-.195Zm.209-.204-.1-.163h-.068l.053.163h.115Zm-.274 0-.036-.163h-.153v.163h.189Zm-.19.02v.164h.23l-.036-.164h-.193Zm-.015.184v.211h-.854c.11-.106.184-.2.188-.33h.283a.177.177 0 0 0 .02.086c.015.023.036.035.062.033h.3Z" clip-rule="evenodd"/><path fill="#BD6B00" fill-rule="evenodd" d="M11.568 9.456h.152v.323h-.152v-.323Zm.02.02v.283h.112v-.283h-.112Z" clip-rule="evenodd"/><path fill="#BD6B00" fill-rule="evenodd" d="M11.38 9.205h.531v.594h-.155v-.241a.257.257 0 0 0-.042-.128.166.166 0 0 0-.036-.04.057.057 0 0 0-.031-.014.07.07 0 0 0-.031.017.24.24 0 0 0-.04.044.23.23 0 0 0-.048.129v.233h-.137v-.01h-.01v-.584Zm.02.574h.108v-.213a.25.25 0 0 1 .051-.14.259.259 0 0 1 .044-.048.086.086 0 0 1 .042-.022h.001c.015 0 .03.007.044.018a.186.186 0 0 1 .04.045.277.277 0 0 1 .046.138v.222h.115v-.554h-.49v.554Zm.619-.475h.18v.144h-.18v-.144Zm.02.02v.104h.14v-.104h-.14Zm.111.16h.18v.143h-.18v-.143Zm.02.02v.103h.14v-.103h-.14Zm.136.195h.18v.144h-.18v-.144Zm.02.02v.104h.14v-.104h-.14Zm.076.191h.18v.148h-.18V9.91Zm.02.02v.108h.14V9.93h-.14Z" clip-rule="evenodd"/><path fill="#BD6B00" fill-rule="evenodd" d="m11.92 9.197.087.077v.169l.14.048v.133l.143.08v.12l.1.072v.178l-.305-.267-.15-.007v.017l-.039-.04.02.002.003-.582Zm.015.583.158.007.277.243v-.124l-.1-.072v-.119l-.143-.08v-.13l-.14-.048v-.174l-.048-.042-.004.539Z" clip-rule="evenodd"/><path fill="#fff" fill-rule="evenodd" d="M12.615 9.41h.04v.283h-.04V9.41Z" clip-rule="evenodd"/><path fill="#BD6B00" fill-rule="evenodd" d="M12.606 9.4h.06v.303h-.06V9.4Zm.02.02v.263h.02V9.42h-.02Z" clip-rule="evenodd"/><path fill="#fff" fill-rule="evenodd" d="M10.299 8.46c-.048-.08-.108.112-.311.252-.092.064-.16.235-.16.347 0 .08.008.155 0 .231-.004.044-.055.152-.02.18.088.063.204.215.256.267.048.04.088-.212.12-.32.04-.119.023-.266.127-.374.072-.08.255-.152.24-.184l-.252-.398Z" clip-rule="evenodd"/><path fill="#BF0000" fill-rule="evenodd" d="M10.287 9.075a.402.402 0 0 0-.064-.104.244.244 0 0 0-.096-.071.21.21 0 0 1-.096-.06.144.144 0 0 1-.031-.06.235.235 0 0 1 0-.08l-.012.012c-.092.064-.16.235-.16.347a1.14 1.14 0 0 0 0 .092c.008.02.012.04.024.052l.044.032.107.027a.42.42 0 0 1 .175.183l.009-.031c.032-.108.028-.235.104-.339h-.004Z" clip-rule="evenodd"/><path fill="#BD6B00" fill-rule="evenodd" d="m10.014 8.67-.005.032a.228.228 0 0 0 0 .076.12.12 0 0 0 .03.055.2.2 0 0 0 .09.057h.001a.253.253 0 0 1 .1.075c.026.03.047.064.063.1h.017l-.012.016a.417.417 0 0 0-.066.164l-.012.063-.005.024a.83.83 0 0 1-.019.085l-.014.058-.012-.025a.41.41 0 0 0-.07-.1v-.001a.273.273 0 0 0-.1-.077l-.109-.028-.046-.034a.074.074 0 0 1-.016-.027.375.375 0 0 1-.005-.013.311.311 0 0 0-.005-.015l-.001-.001V9.15a1.146 1.146 0 0 1 0-.092c0-.058.017-.13.046-.195a.386.386 0 0 1 .117-.16l.033-.033Zm.263.407a.39.39 0 0 0-.062-.1.232.232 0 0 0-.091-.068.222.222 0 0 1-.1-.063.154.154 0 0 1-.034-.064.245.245 0 0 1-.004-.057.498.498 0 0 0-.149.334v.09c.003.004.004.009.006.013v.002l.005.012a.057.057 0 0 0 .01.02l.042.03.107.027a.294.294 0 0 1 .107.083.43.43 0 0 1 .061.082l.002-.007a.792.792 0 0 0 .023-.106l.012-.064a.445.445 0 0 1 .065-.164Z" clip-rule="evenodd"/><path fill="#BD6B00" fill-rule="evenodd" d="m9.993 8.671.186.246a.354.354 0 0 1 .117.154l-.018.01-.113-.15a.2.2 0 0 0-.042-.022.217.217 0 0 1-.102-.064c-.028-.034-.042-.082-.032-.15l.004-.024Zm.142.221-.129-.17c-.003.05.01.085.03.11.024.03.059.046.094.058l.005.002Zm-.29.316a.181.181 0 0 1-.035-.07l.02-.006a.162.162 0 0 0 .03.064.105.105 0 0 0 .04.03c.016.006.033.01.05.014h.007l.05.013a.307.307 0 0 1 .108.082c.033.036.06.078.077.115l-.018.008a.44.44 0 0 0-.074-.11.288.288 0 0 0-.1-.076.41.41 0 0 0-.047-.012h-.006a.286.286 0 0 1-.054-.016.125.125 0 0 1-.049-.036Z" clip-rule="evenodd"/><path fill="#fff" fill-rule="evenodd" d="m10.231 8.381.04-.024.706 1.193-.04.024-.706-1.197v.004Z" clip-rule="evenodd"/><path fill="#BD6B00" fill-rule="evenodd" d="m10.229 8.394-.008.005V8.34l.015.026.038-.023.716 1.21-.057.033-.704-1.193Zm.017-.01.021-.013.696 1.175-.023.014-.694-1.176Z" clip-rule="evenodd"/><path fill="#fff" fill-rule="evenodd" d="M10.307 8.333a.08.08 0 1 1-.16 0 .08.08 0 0 1 .16 0Zm.606-.957h.287v.064h-.287v-.064Zm0 .124h.287v.55h-.287V7.5Zm-.016-.2h.32c.007-.107-.1-.223-.16-.223-.064.004-.164.12-.16.223Z" clip-rule="evenodd"/><path fill="#BD6B00" fill-rule="evenodd" d="M11.056 7.067c.018 0 .038.008.057.021a.26.26 0 0 1 .056.054.24.24 0 0 1 .057.159v.01h-.339V7.3a.252.252 0 0 1 .056-.156.267.267 0 0 1 .055-.054.117.117 0 0 1 .058-.024Zm0 .02a.098.098 0 0 0-.046.02.245.245 0 0 0-.05.05.24.24 0 0 0-.053.133h.3a.226.226 0 0 0-.053-.136.242.242 0 0 0-.052-.05.088.088 0 0 0-.045-.017Zm-.153.279h.307v.084h-.307v-.084Zm.02.02v.044h.267v-.044h-.267Zm-.02.104h.307v.57h-.307v-.57Zm.02.02v.53h.267v-.53h-.267Zm-.696.753a.07.07 0 1 0 0 .14.07.07 0 0 0 0-.14Zm-.063.007a.09.09 0 1 1 .126.126.09.09 0 0 1-.126-.126Zm1.542-1.034c-.06.024-.107.092-.135.172a.472.472 0 0 0-.024.243c0 .028.012.044.02.06.008.012.016.02.024.02.011 0 .024 0 .027-.012l.008-.032a.75.75 0 0 1 .012-.215.307.307 0 0 1 .12-.176c.012-.008.016-.02.02-.028a.04.04 0 0 0-.012-.028.054.054 0 0 0-.06-.004Zm.008.016c.016-.008.032 0 .04.004l.004.008c0 .004 0 .008-.012.016a.327.327 0 0 0-.123.184.665.665 0 0 0-.012.223.04.04 0 0 1-.009.024s0 .004-.007 0c0 0-.008 0-.016-.012a.156.156 0 0 1-.016-.048.506.506 0 0 1 .028-.24c.027-.071.071-.135.12-.159h.003Z" clip-rule="evenodd"/><path fill="#BD6B00" fill-rule="evenodd" d="M11.81 7.312c-.06.028-.1.092-.12.168a.542.542 0 0 0-.012.235c.008.052.04.08.064.08.012.004.024 0 .032-.012a.047.047 0 0 0 .008-.04.579.579 0 0 1-.012-.203.254.254 0 0 1 .088-.164c.011-.012.02-.02.02-.032a.033.033 0 0 0-.008-.024.064.064 0 0 0-.06-.008Zm.008.02a.046.046 0 0 1 .04 0l.003.012-.011.016a.26.26 0 0 0-.096.176.593.593 0 0 0 .008.207c.004.016 0 .024 0 .032l-.02.004c-.012 0-.04-.02-.048-.068a.55.55 0 0 1 .012-.227c.02-.072.06-.132.112-.152Z" clip-rule="evenodd"/><path fill="#fff" fill-rule="evenodd" d="M10.896 8.497h.32v.438h-.32v-.438Zm.02.693h.307v.096h-.307V9.19Zm-.008.164h.32v.347h-.32v-.347Zm-.024.419h.347v.195h-.347v-.195Zm.044-.662h.28l.055-.096h-.383l.048.096Zm.375-.343.004-.24h.191a.693.693 0 0 0-.195.24Z" clip-rule="evenodd"/><path fill="#BD6B00" fill-rule="evenodd" d="M10.887 8.487h.339v.458h-.34v-.458Zm.02.02v.418h.299v-.418h-.3Zm.39.012h.231l-.023.018a.684.684 0 0 0-.193.235l-.008-.004h-.01l.004-.25Zm.017.208a.704.704 0 0 1 .157-.188h-.154l-.003.188Zm-.45.278h.417l-.067.116h-.285v-.01l-.01.004-.054-.11Zm.07.096h.268l.044-.076h-.349l.038.076Zm-.027.08h.327v.115h-.327v-.115Zm.02.02v.075h.287v-.075h-.287Zm-.028.143h.339v.367h-.34v-.367Zm.02.02v.327h.299v-.327h-.3Zm-.044.399h.367v.215h-.367v-.215Zm.02.02v.175h.327v-.175h-.327Z" clip-rule="evenodd"/><path fill="#BD6B00" fill-rule="evenodd" d="M11.138 8.546c.023.012.04.031.04.058v.279a.033.033 0 0 1-.012.029.047.047 0 0 1-.028.01.047.047 0 0 1-.03-.009.036.036 0 0 1-.014-.03v-.239s0-.004-.01-.008a.077.077 0 0 0-.028-.006.064.064 0 0 0-.028.006c-.007.003-.01.007-.01.012v.223c0 .01-.005.02-.013.026a.05.05 0 0 1-.025.012c-.01.001-.02 0-.029-.008-.008-.007-.013-.019-.013-.034V8.6c0-.025.018-.043.04-.054a.185.185 0 0 1 .08-.017c.029 0 .058.006.08.017Zm-.15.018c-.02.01-.03.022-.03.036v.267c0 .011.004.017.006.02a.018.018 0 0 0 .013.002.03.03 0 0 0 .015-.007c.004-.003.006-.007.006-.01v-.224c0-.015.01-.025.02-.03a.097.097 0 0 1 .074 0c.01.004.022.013.022.026v.24c0 .006.003.01.006.013.005.003.01.005.017.005a.027.027 0 0 0 .016-.006.013.013 0 0 0 .005-.012v-.28c0-.017-.01-.03-.03-.04a.158.158 0 0 0-.07-.015.165.165 0 0 0-.07.015Zm-.05.824h.248v.299h-.248v-.3Zm.02.02v.259h.208v-.26h-.208Z" clip-rule="evenodd"/><path fill="#fff" fill-rule="evenodd" d="M11.092 9.518h.08v.04h-.08v-.04Zm-.14 0h.08v.04h-.08v-.04Zm.08-.12h.06v.12h-.06v-.12Zm0 .16h.06v.123h-.06v-.123ZM9.768 6.567c.016.22-.056.343-.172.323-.032-.12.04-.204.172-.323Zm-.26.49c-.103-.052-.028-.458.012-.63.028.22.08.53-.012.63Z" clip-rule="evenodd"/><path fill="#BD6B00" fill-rule="evenodd" d="M9.507 7.044a.069.069 0 0 1-.02-.026.208.208 0 0 1-.015-.058.804.804 0 0 1 0-.172c.008-.104.029-.218.047-.303v.007c.013.095.027.2.031.295a.804.804 0 0 1-.006.159.216.216 0 0 1-.037.098Zm-.055-.258c.01-.13.04-.275.06-.361h.02l.008.064c.012.095.026.201.03.298a.822.822 0 0 1-.006.162.22.22 0 0 1-.047.115l-.005.005-.007-.003a.08.08 0 0 1-.035-.04.227.227 0 0 1-.018-.064.823.823 0 0 1 0-.176Zm.325-.24.002.02a.48.48 0 0 1-.038.257.155.155 0 0 1-.061.064.128.128 0 0 1-.084.013l-.007-.002-.001-.006a.207.207 0 0 1 .025-.169.794.794 0 0 1 .15-.164l.014-.014Zm-.172.335a.107.107 0 0 0 .065-.011.135.135 0 0 0 .054-.057.439.439 0 0 0 .036-.225.711.711 0 0 0-.13.145.187.187 0 0 0-.025.148Zm1.418 2.507h.08v.12h.08v.06h-.08v.123h-.08v-.123h-.08v-.06h.08v-.12Zm0 .14h-.06v.02h.06v-.02Zm.02.04v.103h.04v-.103h-.04Zm.06-.02h.06v-.02h-.06v.02Zm-.02-.04v-.1h-.04v.1h.04Zm0 .02h-.04v.02h.04v-.02Z" clip-rule="evenodd"/><path fill="#fff" fill-rule="evenodd" d="M9.545 7.077c.176.06.32-.127.363-.347-.144.2-.379.2-.359.347h-.004Zm-.132.204c-.135-.036-.055-.467-.027-.638.027.179.123.578.027.638Zm.048-.012c.008-.148.156-.108.26-.188-.02.08-.08.208-.26.188Zm-.167.2c-.136-.04-.056-.503-.064-.695.04.168.167.65.064.694Zm.064-.02c.111.035.259-.04.27-.172-.099.067-.25.016-.27.171Z" clip-rule="evenodd"/><path fill="#BD6B00" fill-rule="evenodd" d="M9.411 7.27a.068.068 0 0 0 .02-.03.223.223 0 0 0 .012-.06.907.907 0 0 0-.007-.173 4.185 4.185 0 0 0-.04-.25c-.004-.019-.008-.037-.01-.054a2.854 2.854 0 0 0-.038.31.674.674 0 0 0 .01.174c.01.045.028.073.053.082Zm-.04-.598.004-.031h.02l.02.111c.014.078.03.169.04.253a.925.925 0 0 1 .008.176.242.242 0 0 1-.013.066.082.082 0 0 1-.032.042l-.003.002-.004-.001c-.04-.01-.062-.05-.073-.098a.692.692 0 0 1-.01-.18c.006-.12.028-.252.042-.34Zm.308.232a.632.632 0 0 0 .22-.18l.018.008a.586.586 0 0 1-.134.283c-.065.069-.149.103-.241.071l.001-.008h-.004a.113.113 0 0 1 .03-.096.39.39 0 0 1 .093-.068l.017-.01Zm-.121.167c.08.022.151-.008.21-.07a.54.54 0 0 0 .12-.23.73.73 0 0 1-.198.15l-.018.01a.373.373 0 0 0-.088.064.093.093 0 0 0-.026.076Zm-.338-.297.02-.002.01.046c.022.09.055.224.075.348.012.073.02.144.018.199a.242.242 0 0 1-.011.07c-.007.02-.018.035-.035.042l-.003.001h-.003c-.04-.012-.061-.054-.073-.106a.88.88 0 0 1-.014-.195c0-.065.005-.135.009-.2l.001-.02c.004-.071.008-.136.006-.183Zm.02.081a4.483 4.483 0 0 1-.006.103l-.001.02a4.392 4.392 0 0 0-.01.2.86.86 0 0 0 .014.19c.011.049.03.08.056.089a.052.052 0 0 0 .02-.028.223.223 0 0 0 .01-.065 1.059 1.059 0 0 0-.017-.195 4.365 4.365 0 0 0-.067-.314Zm.497.2-.007.028a.29.29 0 0 1-.073.136c-.042.042-.105.07-.197.06l-.01-.002.001-.01a.134.134 0 0 1 .032-.086.165.165 0 0 1 .068-.041.765.765 0 0 1 .04-.013l.004-.001.039-.012a.275.275 0 0 0 .08-.041l.023-.017Zm-.265.204c.081.007.135-.018.171-.054a.253.253 0 0 0 .06-.1.334.334 0 0 1-.063.028l-.04.012h-.002a.738.738 0 0 0-.04.014.146.146 0 0 0-.06.036.108.108 0 0 0-.026.064Zm.168-.003-.002.021a.203.203 0 0 1-.103.156.227.227 0 0 1-.18.024l-.009-.002.001-.008a.144.144 0 0 1 .04-.09.164.164 0 0 1 .073-.037.658.658 0 0 1 .042-.01l.006-.002.036-.008a.24.24 0 0 0 .079-.032l.017-.012Zm-.272.185c.051.013.11.003.157-.025a.186.186 0 0 0 .09-.12.294.294 0 0 1-.066.024 1.074 1.074 0 0 1-.037.008l-.006.001a.637.637 0 0 0-.04.01.147.147 0 0 0-.065.033.119.119 0 0 0-.033.069Z" clip-rule="evenodd"/><path fill="#fff" fill-rule="evenodd" d="M9.19 7.671c-.128.012-.072-.383-.072-.75.047.343.18.658.071.75Z" clip-rule="evenodd"/><path fill="#BD6B00" fill-rule="evenodd" d="m9.108 6.921.02-.001c.016.11.04.217.061.315.013.054.024.106.033.154a.8.8 0 0 1 .019.175c-.002.049-.014.09-.044.115l-.003.002h-.003a.058.058 0 0 1-.048-.017.12.12 0 0 1-.027-.05.672.672 0 0 1-.02-.176 5.092 5.092 0 0 1 .006-.243V7.19a7.87 7.87 0 0 0 .006-.269Zm.019.113a12.56 12.56 0 0 1-.005.156v.005a5.057 5.057 0 0 0-.006.243c.001.072.006.13.019.17a.1.1 0 0 0 .022.042.038.038 0 0 0 .03.011c.021-.02.032-.053.034-.098a.783.783 0 0 0-.018-.17 5.059 5.059 0 0 0-.033-.152 5.779 5.779 0 0 1-.043-.207Z" clip-rule="evenodd"/><path fill="#fff" fill-rule="evenodd" d="M9.237 7.655c.088.04.244-.028.287-.175-.16.068-.263 0-.287.175Zm1.021-.885c-.024.195-.103.307-.22.287-.031-.12.065-.2.22-.287Zm-.31.495c.195.027.262-.12.398-.316-.188.136-.407.16-.399.32v-.004Z" clip-rule="evenodd"/><path fill="#BD6B00" fill-rule="evenodd" d="m10.27 6.751-.002.02a.486.486 0 0 1-.077.23c-.04.051-.092.077-.154.066l-.006-.001-.002-.006a.171.171 0 0 1 .042-.165.69.69 0 0 1 .183-.134l.017-.01Zm-.223.297c.05.007.094-.014.128-.06a.445.445 0 0 0 .07-.2.622.622 0 0 0-.159.12.152.152 0 0 0-.039.14Zm.152-.023a.988.988 0 0 0 .141-.084l.014.014-.048.07v.002l-.044.064a.77.77 0 0 1-.086.107.274.274 0 0 1-.1.066.266.266 0 0 1-.13.01V7.27h-.009a.146.146 0 0 1 .035-.105.336.336 0 0 1 .097-.073c.024-.014.052-.027.081-.042l.05-.024Zm-.242.23a.23.23 0 0 0 .113-.01.254.254 0 0 0 .092-.061.754.754 0 0 0 .084-.105l.043-.063v-.001l.02-.028a1.238 1.238 0 0 1-.15.08 1.8 1.8 0 0 0-.08.042.316.316 0 0 0-.091.068.125.125 0 0 0-.03.079Zm-.417.207-.006.02a.277.277 0 0 1-.132.164c-.057.032-.121.04-.169.018l-.006-.003v-.007a.193.193 0 0 1 .035-.097.12.12 0 0 1 .066-.04 1.545 1.545 0 0 0 .086-.016.489.489 0 0 0 .107-.03l.02-.009Zm-.292.187c.04.015.094.008.145-.02a.257.257 0 0 0 .115-.132.532.532 0 0 1-.121.03.522.522 0 0 0-.054.01.1.1 0 0 0-.055.033.165.165 0 0 0-.03.079Z" clip-rule="evenodd"/><path fill="#fff" fill-rule="evenodd" d="M9.888 7.245c-.104-.128 0-.292.08-.427-.016.203.052.319-.08.427Zm-.04.21c-.016-.127.2-.155.295-.222-.036.071-.08.267-.299.223h.004Z" clip-rule="evenodd"/><path fill="#BD6B00" fill-rule="evenodd" d="M9.89 7.23a.201.201 0 0 0 .055-.073.24.24 0 0 0 .016-.09c0-.026 0-.053-.002-.083l-.002-.028a1.196 1.196 0 0 1-.001-.098.898.898 0 0 0-.087.18c-.022.068-.022.134.02.192Zm.06-.401.01-.016.018.006a1.036 1.036 0 0 0 0 .164c.002.03.004.058.003.085a.26.26 0 0 1-.018.097.227.227 0 0 1-.069.087l-.007.007-.007-.008c-.054-.067-.054-.144-.03-.22a.95.95 0 0 1 .1-.202Zm-.107.628h-.005a.106.106 0 0 1 .029-.087.273.273 0 0 1 .082-.057.87.87 0 0 1 .076-.033.48.48 0 0 0 .112-.055l.015.012-.014.032-.001.003-.016.036a.39.39 0 0 1-.05.086.208.208 0 0 1-.09.065.252.252 0 0 1-.139.007l.001-.01Zm.014-.009a.225.225 0 0 0 .118-.008.188.188 0 0 0 .08-.058.367.367 0 0 0 .048-.082.94.94 0 0 0 .018-.042l-.063.03-.026.01c-.025.011-.05.021-.074.033a.254.254 0 0 0-.077.053.086.086 0 0 0-.024.064Z" clip-rule="evenodd"/><path fill="#fff" fill-rule="evenodd" d="M9.8 7.456c-.147-.016-.087-.267.02-.403-.044.192.08.323-.02.403Z" clip-rule="evenodd"/><path fill="#BD6B00" fill-rule="evenodd" d="M9.797 7.445a.077.077 0 0 1-.062-.044.185.185 0 0 1-.01-.1.518.518 0 0 1 .078-.207.577.577 0 0 0 .015.187l.003.017a.278.278 0 0 1 .008.087.089.089 0 0 1-.032.06Zm-.093-.147a.54.54 0 0 1 .108-.251l.018.008a.502.502 0 0 0 .007.222l.004.017a.313.313 0 0 1 .008.093.11.11 0 0 1-.043.077l-.003.002H9.8a.098.098 0 0 1-.082-.056.204.204 0 0 1-.013-.112Z" clip-rule="evenodd"/><path fill="#fff" fill-rule="evenodd" d="M9.688 7.667c-.167-.08-.06-.287 0-.41-.024.163.112.286 0 .406v.004Z" clip-rule="evenodd"/><path fill="#BD6B00" fill-rule="evenodd" d="M9.683 7.653a.143.143 0 0 0 .039-.082.262.262 0 0 0-.01-.092l-.01-.036a.584.584 0 0 1-.027-.137.714.714 0 0 0-.062.174.195.195 0 0 0 .005.103c.01.028.03.052.065.07Zm.015.014v.016l-.014-.007A.157.157 0 0 1 9.6 7.59a.214.214 0 0 1-.007-.114.817.817 0 0 1 .08-.211l.006-.013.019.006a.418.418 0 0 0 .022.178l.01.038a.281.281 0 0 1 .012.1.163.163 0 0 1-.044.093Z" clip-rule="evenodd"/><path fill="#fff" fill-rule="evenodd" d="M9.72 7.643c.088.12.26-.031.296-.207-.148.124-.26.104-.296.211v-.004Zm-.382.81c-.016-.172.111-.479.02-.646-.012-.024.027-.084.055-.048.04.06.08.227.1.164.016-.068.02-.184.08-.208.04-.012.092-.024.076.04-.016.056-.048.136-.012.14.02 0 .08-.08.131-.12.04-.032.104.024.04.072-.191.16-.379.235-.49.606Zm-.347 2.572c-.024 0-.052-.012-.024.024.227.28.29.36.622.32.33-.045.41-.136.646-.268a.582.582 0 0 1 .447-.04c.063.02.103.02.055-.028-.047-.044-.1-.107-.16-.151a.698.698 0 0 0-.506-.108c-.239.04-.442.195-.686.255a.998.998 0 0 1-.394 0v-.004Zm1.906.499c.04.008.068.087.092.036.032-.092.008-.16-.032-.156-.048.012-.124.12-.06.12Z" clip-rule="evenodd"/><path fill="#BD6B00" fill-rule="evenodd" d="m10.03 7.41-.005.028a.387.387 0 0 1-.132.22.161.161 0 0 1-.095.038.104.104 0 0 1-.086-.047l.002-.001-.004-.001v-.034l.009.011c.021-.044.058-.065.103-.086l.019-.009a.693.693 0 0 0 .168-.101l.022-.018Zm-.298.233c.02.023.042.033.066.033a.142.142 0 0 0 .083-.034.363.363 0 0 0 .118-.18.735.735 0 0 1-.15.085l-.019.01c-.048.022-.08.041-.098.086Zm-.136.081a.065.065 0 0 0-.03.029.203.203 0 0 0-.02.052.764.764 0 0 0-.013.061v.008l-.01.05v.001a.052.052 0 0 1-.006.012.02.02 0 0 1-.008.008c-.01.004-.018-.002-.022-.006a.412.412 0 0 1-.04-.082l-.013-.035a.372.372 0 0 0-.029-.057c-.005-.007-.01-.008-.013-.007-.004 0-.01.003-.014.009a.054.054 0 0 0-.011.02c-.003.007-.002.012 0 .015a.33.33 0 0 1 .034.152 1.03 1.03 0 0 1-.015.176l-.015.085v.004l-.015.085a.985.985 0 0 0-.01.087.837.837 0 0 1 .2-.328 1.2 1.2 0 0 1 .134-.115l.036-.027c.035-.026.07-.053.105-.082.015-.012.022-.022.023-.03a.025.025 0 0 0-.005-.022.032.032 0 0 0-.045-.005.687.687 0 0 0-.07.067l-.007.007a.582.582 0 0 1-.046.043.028.028 0 0 1-.015.005.026.026 0 0 1-.017-.008.031.031 0 0 1-.008-.015.104.104 0 0 1 .002-.039.477.477 0 0 1 .017-.062l.009-.028c.003-.015.003-.024 0-.028-.001-.004-.004-.007-.01-.008a.065.065 0 0 0-.024 0 .27.27 0 0 0-.03.008Zm-.259.729h-.01a.663.663 0 0 1 .01-.152l.014-.086v-.004l.015-.084a.964.964 0 0 0 .015-.173.31.31 0 0 0-.032-.143.042.042 0 0 1-.002-.03.074.074 0 0 1 .016-.027.045.045 0 0 1 .027-.016c.011-.002.022.003.031.015a.299.299 0 0 1 .03.062c.006.011.01.023.015.034a1.875 1.875 0 0 0 .026.06.08.08 0 0 0 .01.016.222.222 0 0 1 .047-.182.084.084 0 0 1 .04-.037.29.29 0 0 1 .033-.009.084.084 0 0 1 .032 0c.01.002.02.008.024.019a.07.07 0 0 1 0 .041l-.009.03a.623.623 0 0 0-.016.059.086.086 0 0 0-.002.03c0 .004.001.006.002.007l.004.001.003-.002a.567.567 0 0 0 .043-.04l.007-.007a.654.654 0 0 1 .072-.068.052.052 0 0 1 .073.007c.008.01.012.024.009.039a.072.072 0 0 1-.03.041c-.036.03-.072.057-.106.083a1.268 1.268 0 0 0-.168.14.854.854 0 0 0-.213.378l-.01-.002Zm.167-.526Zm.565 2.837a.707.707 0 0 1 .514.109c.031.023.06.05.086.077l.022.023a.852.852 0 0 0 .053.052c.012.013.02.023.023.032a.02.02 0 0 1-.001.016.02.02 0 0 1-.012.009.077.077 0 0 1-.032 0 .334.334 0 0 1-.044-.012.571.571 0 0 0-.439.04c-.05.027-.093.054-.133.078-.147.09-.254.155-.516.19-.166.02-.268.01-.356-.042-.087-.05-.16-.14-.272-.277l-.003-.004a.067.067 0 0 1-.014-.023.015.015 0 0 1 .002-.012.016.016 0 0 1 .01-.006c.005-.002.012 0 .017 0H9v.007a.986.986 0 0 0 .383-.002c.112-.027.215-.075.318-.123l.024-.011c.112-.052.223-.101.344-.121Zm-1.089.27a.59.59 0 0 1-.012 0 .12.12 0 0 0 .006.009c.115.14.186.228.27.276.083.048.179.059.343.039.258-.034.361-.097.508-.187l.135-.08a.592.592 0 0 1 .454-.04c.016.005.03.009.041.01a.062.062 0 0 0 .023.002.077.077 0 0 0-.018-.023l-.054-.054-.021-.022a.697.697 0 0 0-.083-.075.688.688 0 0 0-.5-.106 1.343 1.343 0 0 0-.363.131 1.786 1.786 0 0 1-.321.125 1.006 1.006 0 0 1-.4 0l-.008-.002v-.003Zm2.029.41a.216.216 0 0 1-.011.118v.001c-.007.014-.016.024-.029.024a.031.031 0 0 1-.015-.006.09.09 0 0 1-.012-.01l-.01-.01-.002-.002a.19.19 0 0 0-.012-.012.053.053 0 0 0-.022-.014.038.038 0 0 1-.023-.006.027.027 0 0 1-.01-.02c-.002-.013.004-.03.013-.044a.198.198 0 0 1 .035-.043.108.108 0 0 1 .043-.026h.002a.041.041 0 0 1 .034.012c.009.01.015.022.019.037Zm-.05-.03c.006 0 .011.001.017.007.005.005.01.014.014.027a.197.197 0 0 1-.01.107c-.006.012-.01.012-.01.012s-.003 0-.005-.003a.069.069 0 0 1-.01-.008l-.009-.009-.002-.002-.013-.013a.07.07 0 0 0-.032-.018h-.002c-.007 0-.01-.002-.012-.003l-.003-.006a.07.07 0 0 1 .011-.032.177.177 0 0 1 .032-.038.09.09 0 0 1 .033-.021Z" clip-rule="evenodd"/><path fill="#fff" fill-rule="evenodd" d="M8.835 8.321c-.048-.056-.036-.072.04-.076.055 0 .167.04.21.004.04-.028.02-.147.04-.2.009-.035.029-.079.08-.007.144.231.32.51.4.782.04.151 0 .39-.136.55 0-.136-.048-.227-.108-.343-.08-.148-.363-.558-.526-.714v.004Z" clip-rule="evenodd"/><path fill="#fff" fill-rule="evenodd" d="M9.43 9.533c.159 0 .187-.211.187-.27-.08.015-.216.147-.188.27Zm1.375 2.07c.112.024.108-.247-.008-.363.052.176-.08.335.004.36l.004.003Zm-.048-.004c.008.128-.319-.016-.399-.12.192.084.391.017.4.12Zm-.14-.183c.012.123-.279.012-.37-.084.195.064.359-.02.37.08v.004Zm.052.016c.116.028.096-.256-.016-.351.056.187-.071.323.016.35Zm-.12-.172c.116.028.049-.215-.035-.31.016.175-.04.298.04.31h-.004Zm-.06 0c.013.128-.214.032-.302-.092.191.06.291-.011.303.092Zm-.059-.1c.072-.051-.004-.19-.147-.183.016.084.063.235.147.184Zm.558.587c.004.127-.319.063-.422-.072.207.04.41-.032.418.072h.004Zm-1.292-.232c.012.128-.343-.016-.43-.135.187.064.418.032.43.135Zm.216.052c.075-.052-.076-.187-.2-.22.016.085.12.272.2.224v-.004Zm.024.092c.008.116-.38.052-.479-.056.331.06.467-.044.479.056Z" clip-rule="evenodd"/><path fill="#BD6B00" fill-rule="evenodd" d="M9.626 9.25v.012c0 .031-.007.1-.034.162-.028.062-.078.12-.163.12h-.008l-.002-.008c-.015-.066.014-.133.056-.185a.276.276 0 0 1 .14-.099l.011-.002Zm-.189.273c.07-.003.111-.05.136-.107a.422.422 0 0 0 .033-.14.277.277 0 0 0-.116.088c-.037.047-.062.104-.053.16Zm1.064 1.396.02.024a.477.477 0 0 1 .095.206.169.169 0 0 1-.002.092.05.05 0 0 1-.025.027.063.063 0 0 1-.042.002.056.056 0 0 1-.024-.012.055.055 0 0 1-.016-.023.183.183 0 0 1-.007-.07l.003-.047c.003-.047.007-.104 0-.168l-.002-.03Zm.054.332a.04.04 0 0 0 .026-.001.03.03 0 0 0 .014-.017.15.15 0 0 0 .002-.08.488.488 0 0 0-.071-.172 1.196 1.196 0 0 1-.006.185.164.164 0 0 0 .005.061.035.035 0 0 0 .01.016.04.04 0 0 0 .02.007v.001Zm-.088-.142c0 .023-.01.045-.031.06-.024.014-.047.015-.067.005a.123.123 0 0 1-.047-.05.496.496 0 0 1-.05-.145l-.002-.011.012-.001a.183.183 0 0 1 .163.074.115.115 0 0 1 .022.068Zm-.172-.122c.062 0 .11.03.134.065.013.019.02.039.018.056a.055.055 0 0 1-.022.044c-.019.011-.034.011-.047.005a.105.105 0 0 1-.039-.043.46.46 0 0 1-.044-.127Zm.34.064.025.022a.27.27 0 0 1 .069.103c.016.04.025.085.028.126a.208.208 0 0 1-.017.105.068.068 0 0 1-.03.03.061.061 0 0 1-.043.004.055.055 0 0 1-.03-.019.055.055 0 0 1-.01-.03.287.287 0 0 1 .012-.075v-.003a.428.428 0 0 0 .005-.23l-.01-.033Zm.037.064a.48.48 0 0 1-.013.203c-.007.032-.013.055-.011.073 0 .008.002.014.006.02a.035.035 0 0 0 .018.011.042.042 0 0 0 .03-.002.05.05 0 0 0 .02-.023.19.19 0 0 0 .015-.094.394.394 0 0 0-.027-.12.284.284 0 0 0-.038-.068Zm-.51.035.028.009c.079.025.141.026.19.028h.026a.133.133 0 0 1 .064.015c.017.011.027.03.03.057a.074.074 0 0 1-.007.044.052.052 0 0 1-.03.023c-.024.009-.057.004-.09-.008a.436.436 0 0 1-.194-.144l-.018-.024Zm.052.037c.044.05.11.092.165.112.033.012.06.014.078.009a.032.032 0 0 0 .018-.015.054.054 0 0 0 .005-.032c-.003-.024-.01-.035-.02-.042a.116.116 0 0 0-.055-.011.89.89 0 0 0-.025-.001.715.715 0 0 1-.166-.02Zm.573.056.017-.01c.06.06.09.16.092.24a.231.231 0 0 1-.02.105.075.075 0 0 1-.03.03.063.063 0 0 1-.043.005H10.8l-.004-.005a.046.046 0 0 1-.026-.019.058.058 0 0 1-.008-.031c0-.022.007-.05.014-.08l.001-.004a.433.433 0 0 0 .01-.231Zm.029.035a.508.508 0 0 1-.02.2v.002a.373.373 0 0 0-.014.077c0 .01.002.017.005.022a.027.027 0 0 0 .017.01l.002.001.004.004c.01.002.02 0 .027-.004a.055.055 0 0 0 .021-.022.19.19 0 0 0 .018-.094.371.371 0 0 0-.06-.196Zm-.577.06.01-.016a.677.677 0 0 0 .23.027h.022c.033 0 .062 0 .084.008.012.004.021.01.029.019.007.01.012.02.013.035v.004a.057.057 0 0 1-.01.043.063.063 0 0 1-.038.02.25.25 0 0 1-.11-.012.585.585 0 0 1-.23-.127Zm.047.015a.65.65 0 0 0 .188.094.232.232 0 0 0 .101.011.042.042 0 0 0 .026-.013c.005-.006.008-.015.006-.028v-.005a.046.046 0 0 0-.009-.024.043.043 0 0 0-.02-.012.244.244 0 0 0-.077-.008h-.021a.776.776 0 0 1-.194-.015Zm-.587-.019.016.004c.063.017.134.06.179.105a.17.17 0 0 1 .045.07.053.053 0 0 1-.018.06v.004l-.004.003c-.024.014-.05.01-.073-.003a.224.224 0 0 1-.064-.062.469.469 0 0 1-.078-.165l-.003-.016Zm.027.028c.011.04.037.097.07.141a.208.208 0 0 0 .058.057c.017.01.033.012.048.005v-.003l.004-.003a.035.035 0 0 0 .014-.018.04.04 0 0 0 0-.023.152.152 0 0 0-.04-.06.41.41 0 0 0-.154-.096Zm-.487-.002.03.01c.07.024.147.035.216.044l.063.009a.397.397 0 0 1 .107.027c.028.014.048.034.051.064.002.019-.003.034-.014.044a.073.073 0 0 1-.045.017.348.348 0 0 1-.132-.025.79.79 0 0 1-.149-.072.4.4 0 0 1-.108-.092l-.02-.026Zm.057.04a.772.772 0 0 0 .225.131.33.33 0 0 0 .125.024c.015-.001.026-.005.032-.011.006-.006.01-.014.008-.028-.002-.02-.016-.036-.04-.048a.38.38 0 0 0-.1-.025l-.062-.01a1.303 1.303 0 0 1-.188-.033Zm1.054.085.012-.015c.085.037.17.044.242.05l.023.002c.037.003.07.007.095.017a.077.077 0 0 1 .031.022c.008.01.013.023.014.037a.053.053 0 0 1-.015.044.069.069 0 0 1-.042.017.31.31 0 0 1-.123-.024.756.756 0 0 1-.137-.067.392.392 0 0 1-.1-.082Zm.046.02a.734.734 0 0 0 .197.112.29.29 0 0 0 .115.022c.015-.001.024-.005.03-.011.006-.006.01-.014.01-.028a.046.046 0 0 0-.01-.026.058.058 0 0 0-.024-.016.322.322 0 0 0-.088-.016l-.024-.002c-.06-.005-.132-.01-.206-.035Zm-.967.083.03.005c.157.029.27.02.347.014h.01a.825.825 0 0 1 .05-.004c.015 0 .028.001.039.004s.02.008.028.017c.007.009.01.02.012.034a.052.052 0 0 1-.017.043.107.107 0 0 1-.048.023.421.421 0 0 1-.145 0 .755.755 0 0 1-.164-.041.333.333 0 0 1-.121-.073l-.02-.022Zm.061.03a.403.403 0 0 0 .088.046c.05.02.107.034.16.04a.403.403 0 0 0 .138 0 .087.087 0 0 0 .039-.017.032.032 0 0 0 .01-.027.045.045 0 0 0-.008-.023.032.032 0 0 0-.017-.01.125.125 0 0 0-.034-.004.742.742 0 0 0-.05.003h-.009c-.07.006-.175.014-.317-.007Zm1.052.042.026.005c.08.016.16.014.229.013l.053-.001c.039 0 .073.002.098.01a.074.074 0 0 1 .032.022.06.06 0 0 1 .013.028h.005v.01a.065.065 0 0 1-.015.045.088.088 0 0 1-.042.026.276.276 0 0 1-.125.001.443.443 0 0 1-.258-.138l-.016-.02Zm.05.03a.454.454 0 0 0 .227.11.257.257 0 0 0 .117-.001.068.068 0 0 0 .032-.02.043.043 0 0 0 .01-.022h-.003v-.01a.043.043 0 0 0-.01-.025.053.053 0 0 0-.024-.015.29.29 0 0 0-.091-.01h-.052a1.228 1.228 0 0 1-.207-.008Z" clip-rule="evenodd"/><path fill="#fff" fill-rule="evenodd" d="M10.119 11.735c.04.107-.331.08-.463.02.212 0 .431-.096.463-.02Z" clip-rule="evenodd"/><path fill="#BD6B00" fill-rule="evenodd" d="M9.709 11.764c.067.02.162.034.244.034a.383.383 0 0 0 .126-.015.06.06 0 0 0 .03-.019c.004-.006.005-.014.001-.025-.005-.013-.02-.02-.047-.023a.514.514 0 0 0-.106.01l-.05.01c-.06.01-.129.023-.198.028Zm.355-.067c.03.001.054.01.065.035a.045.045 0 0 1-.004.043.08.08 0 0 1-.039.027.4.4 0 0 1-.134.016.864.864 0 0 1-.3-.053l.005-.02c.085 0 .171-.015.247-.029l.05-.009a.533.533 0 0 1 .11-.01Z" clip-rule="evenodd"/><path fill="#fff" fill-rule="evenodd" d="M10.29 11.815c.04.095-.303.095-.47.04.223 0 .43-.136.47-.04Zm.252.051c.063.116-.303.124-.42.068.208-.028.368-.16.42-.068Zm-.427-.195c-.116.072-.108-.144-.2-.291.144.131.28.223.2.291Z" clip-rule="evenodd"/><path fill="#BD6B00" fill-rule="evenodd" d="m9.907 11.386.015-.013.07.062.033.03c.031.028.06.054.081.078a.161.161 0 0 1 .041.071.063.063 0 0 1-.003.035.079.079 0 0 1-.023.03l-.001.001a.093.093 0 0 1-.043.016.053.053 0 0 1-.035-.01c-.02-.015-.033-.043-.045-.074a1.36 1.36 0 0 1-.02-.06l-.018-.05a.587.587 0 0 0-.052-.116Zm.044.04c.01.023.02.046.027.069l.018.052.02.058c.011.031.023.054.037.064a.033.033 0 0 0 .023.007.06.06 0 0 0 .033-.013.057.057 0 0 0 .017-.022.041.041 0 0 0 .002-.023.14.14 0 0 0-.037-.062.937.937 0 0 0-.112-.106l-.028-.024Zm-.068.436c.076.016.17.024.25.02a.375.375 0 0 0 .12-.022.06.06 0 0 0 .027-.019c.004-.006.005-.013 0-.022a.04.04 0 0 0-.017-.02.069.069 0 0 0-.032-.008.42.42 0 0 0-.105.018 3.817 3.817 0 0 0-.037.01c-.061.016-.132.035-.206.043Zm.39-.081a.06.06 0 0 1 .026.03.042.042 0 0 1-.002.041.078.078 0 0 1-.036.027.393.393 0 0 1-.128.023.968.968 0 0 1-.317-.038l.004-.019c.094 0 .185-.025.263-.046l.038-.01a.462.462 0 0 1 .11-.018c.016 0 .03.003.041.01Zm-.112.157a.766.766 0 0 0 .237.017.299.299 0 0 0 .116-.03c.013-.007.02-.015.023-.023.003-.008.003-.018-.004-.03a.05.05 0 0 0-.02-.02.062.062 0 0 0-.03-.007.295.295 0 0 0-.09.02l-.046.017a1.14 1.14 0 0 1-.186.056Zm.36-.104a.071.071 0 0 1 .03.028.06.06 0 0 1 .005.047.07.07 0 0 1-.032.034.318.318 0 0 1-.124.032.8.8 0 0 1-.155-.001.413.413 0 0 1-.127-.03l-.03-.015.033-.004c.082-.011.155-.038.219-.061l.047-.018a.315.315 0 0 1 .096-.021c.014 0 .027.003.039.009Z" clip-rule="evenodd"/><path fill="#fff" fill-rule="evenodd" d="M10.323 11.751c-.096.084-.176-.211-.264-.379.144.16.352.307.264.375v.004Zm.27.08c-.079.095-.318-.28-.406-.479.132.156.47.399.407.479Zm-.23.287c-.04.143-.646-.136-.718-.283.35.183.726.143.718.279v.004ZM8.42 9.175c-.015-.02-.055 0-.047.044.012.06.1.367.25.47.109.08.679.204.934.26.144.027.26.1.355.21a3.762 3.762 0 0 0-.12-.39c-.048-.12-.175-.247-.31-.251-.244-.012-.563-.032-.798-.132a.638.638 0 0 1-.268-.211h.004Z" clip-rule="evenodd"/><path fill="#BD6B00" fill-rule="evenodd" d="M8.381 9.165c.014-.01.035-.012.047.004l.013.016h-.005c.066.084.152.15.251.192.234.099.55.119.794.13a.32.32 0 0 1 .195.086c.056.048.1.111.125.172.047.129.088.26.12.393l-.017.008a.598.598 0 0 0-.35-.208l-.014-.003c-.128-.028-.327-.071-.508-.117a4.236 4.236 0 0 1-.256-.073.643.643 0 0 1-.158-.068.611.611 0 0 1-.182-.255 1.282 1.282 0 0 1-.073-.221c-.005-.026.004-.046.018-.056Zm.025.012c-.004 0-.008 0-.013.004-.007.005-.014.017-.01.036.005.03.03.12.072.217a.592.592 0 0 0 .174.247c.026.02.08.041.153.065.072.024.161.048.255.072.181.046.379.09.507.118l.015.003a.61.61 0 0 1 .333.184 3.75 3.75 0 0 0-.11-.35.445.445 0 0 0-.12-.165.3.3 0 0 0-.181-.08c-.243-.012-.564-.032-.801-.133a.648.648 0 0 1-.272-.214l-.002-.004Zm1.772 2.18.016-.011c.033.038.078.082.128.128l.049.046.1.093a.9.9 0 0 1 .113.126.164.164 0 0 1 .026.052c.004.017.002.033-.009.046a.05.05 0 0 1-.045.019.116.116 0 0 1-.053-.023.606.606 0 0 1-.118-.125 1.96 1.96 0 0 1-.207-.352Zm.046.05c.046.092.112.203.177.29.04.052.08.096.114.12a.098.098 0 0 0 .043.02.03.03 0 0 0 .028-.012c.005-.007.007-.016.004-.029a.147.147 0 0 0-.023-.046.886.886 0 0 0-.11-.123l-.1-.092a7.708 7.708 0 0 1-.133-.128Zm-.174-.03.017-.011c.035.04.075.078.113.116l.006.005.099.1c.03.033.053.064.063.092a.073.073 0 0 1 .004.041.059.059 0 0 1-.02.032v.004l-.003.003a.06.06 0 0 1-.042.017.066.066 0 0 1-.04-.018.32.32 0 0 1-.068-.098 3.088 3.088 0 0 1-.062-.136l-.002-.006c-.022-.05-.043-.1-.065-.141Zm.047.05.036.083.003.006c.02.048.04.095.06.135a.305.305 0 0 0 .064.092c.01.009.019.012.028.013a.038.038 0 0 0 .024-.01v-.004l.004-.003a.04.04 0 0 0 .016-.023.054.054 0 0 0-.003-.03.295.295 0 0 0-.059-.085 2.301 2.301 0 0 0-.098-.1l-.006-.005a3.773 3.773 0 0 1-.07-.07Zm-.475.385.027.014c.164.085.332.122.466.151l.025.006a.887.887 0 0 1 .167.047c.02.01.037.02.049.034a.07.07 0 0 1 .016.05v.007c-.006.022-.024.035-.046.042a.214.214 0 0 1-.084.002.95.95 0 0 1-.23-.07 1.516 1.516 0 0 1-.236-.125.73.73 0 0 1-.088-.067.227.227 0 0 1-.052-.064l-.014-.027Zm.053.05a.708.708 0 0 0 .112.092 1.5 1.5 0 0 0 .232.122.983.983 0 0 0 .226.07.196.196 0 0 0 .075-.003c.018-.005.028-.013.032-.026v-.003a.05.05 0 0 0-.011-.037.117.117 0 0 0-.042-.029.876.876 0 0 0-.163-.046l-.026-.006a1.836 1.836 0 0 1-.435-.135Z" clip-rule="evenodd"/><path fill="#fff" fill-rule="evenodd" d="M9.828 10.39c.08.057.164-.147.068-.342-.004.187-.151.251-.068.343Z" clip-rule="evenodd"/><path fill="#BD6B00" fill-rule="evenodd" d="M9.858 10.41a.057.057 0 0 1-.036-.01v-.001l-.001-.001a.093.093 0 0 1-.028-.074.208.208 0 0 1 .027-.073l.007-.012c.026-.049.057-.107.059-.19l.019-.005c.049.1.052.202.032.273a.156.156 0 0 1-.045.08.06.06 0 0 1-.034.014Zm.045-.32a.37.37 0 0 1 .015.221.137.137 0 0 1-.038.07.04.04 0 0 1-.023.01.036.036 0 0 1-.022-.007c-.019-.021-.024-.04-.022-.058a.19.19 0 0 1 .025-.066l.007-.012a.45.45 0 0 0 .058-.159Z" clip-rule="evenodd"/><path fill="#fff" fill-rule="evenodd" d="M9.904 10.579c.107.031.14-.16.072-.311.012.163-.172.263-.072.31Z" clip-rule="evenodd"/><path fill="#BD6B00" fill-rule="evenodd" d="M9.976 10.572a.075.075 0 0 1-.075.016H9.9a.066.066 0 0 1-.03-.024.047.047 0 0 1-.005-.033.116.116 0 0 1 .012-.033.526.526 0 0 1 .021-.037l.003-.004c.032-.051.07-.113.064-.189l.02-.004a.398.398 0 0 1 .03.23.146.146 0 0 1-.039.078Zm.007-.255a.365.365 0 0 1 .012.173.127.127 0 0 1-.032.068c-.014.013-.033.018-.056.011a.046.046 0 0 1-.02-.016.027.027 0 0 1-.003-.018.097.097 0 0 1 .01-.028.528.528 0 0 1 .021-.035l.003-.006c.025-.04.056-.089.065-.149Z" clip-rule="evenodd"/><path fill="#fff" fill-rule="evenodd" d="M9.988 10.73c.103.052.14-.143.068-.283.007.18-.148.236-.068.28v.003Z" clip-rule="evenodd"/><path fill="#BD6B00" fill-rule="evenodd" d="M10.058 10.735c-.02.016-.046.018-.075.004l-.006-.003v-.004a.052.052 0 0 1-.018-.018.036.036 0 0 1-.003-.027.097.097 0 0 1 .011-.026.568.568 0 0 1 .016-.024c0-.002.002-.004.003-.005a.29.29 0 0 0 .06-.185l.018-.005a.349.349 0 0 1 .033.22.125.125 0 0 1-.039.073Zm.006-.243c.02.058.023.12.013.166a.106.106 0 0 1-.031.062c-.013.01-.028.012-.049.004v-.004l-.005-.003a.039.039 0 0 1-.016-.013.017.017 0 0 1 0-.013.542.542 0 0 1 .024-.043c0-.002.002-.003.003-.005a.327.327 0 0 0 .06-.15Z" clip-rule="evenodd"/><path fill="#fff" fill-rule="evenodd" d="M9.944 10.742c-.04.12-.28-.108-.32-.231.148.147.347.127.32.227v.004Z" clip-rule="evenodd"/><path fill="#BD6B00" fill-rule="evenodd" d="m9.615 10.514.016-.01c.069.068.148.1.212.125l.01.004c.032.013.06.025.08.04a.075.075 0 0 1 .02.03.064.064 0 0 1 0 .037v.005a.057.057 0 0 1-.029.036.067.067 0 0 1-.044.003.272.272 0 0 1-.103-.059.665.665 0 0 1-.1-.103.382.382 0 0 1-.062-.108Zm.038.036a.65.65 0 0 0 .137.16.253.253 0 0 0 .094.054.047.047 0 0 0 .031-.001.034.034 0 0 0 .018-.022v-.005a.044.044 0 0 0 .001-.027.045.045 0 0 0-.014-.02.282.282 0 0 0-.074-.037l-.011-.005a.638.638 0 0 1-.182-.097Z" clip-rule="evenodd"/><path fill="#fff" fill-rule="evenodd" d="M9.836 10.555c-.048.12-.347-.2-.415-.348.148.148.447.26.415.343v.005Z" clip-rule="evenodd"/><path fill="#BD6B00" fill-rule="evenodd" d="m9.412 10.211.016-.01c.061.06.15.116.229.166l.044.027a.779.779 0 0 1 .11.08.138.138 0 0 1 .03.04.05.05 0 0 1 .004.038v.006a.048.048 0 0 1-.036.031.093.093 0 0 1-.053-.009.498.498 0 0 1-.127-.092 1.078 1.078 0 0 1-.217-.277Zm.046.044c.044.068.115.153.184.219a.474.474 0 0 0 .122.088c.017.007.03.01.04.008a.026.026 0 0 0 .021-.018v-.004l.001-.001c.003-.008.002-.016-.002-.025a.118.118 0 0 0-.026-.033.754.754 0 0 0-.108-.078 1.825 1.825 0 0 1-.232-.156Z" clip-rule="evenodd"/><path fill="#fff" fill-rule="evenodd" d="M9.776 10.367c-.048.14-.37-.231-.466-.363.16.144.502.264.466.363Zm-.012-.135c.12-.024-.004-.12-.147-.275-.004.163.02.279.147.275Z" clip-rule="evenodd"/><path fill="#BD6B00" fill-rule="evenodd" d="m9.607 9.932.017.018.073.077.027.028c.03.031.056.059.073.082a.167.167 0 0 1 .02.034c.004.01.006.021.004.031-.004.022-.025.033-.055.04h-.002a.142.142 0 0 1-.083-.02.132.132 0 0 1-.05-.061.507.507 0 0 1-.025-.205l.001-.024Zm.019.05c0 .07.006.129.024.17.01.024.024.041.042.053a.122.122 0 0 0 .07.017c.03-.006.038-.015.04-.024a.035.035 0 0 0-.003-.02.149.149 0 0 0-.018-.029.882.882 0 0 0-.071-.08l-.027-.028a6.235 6.235 0 0 1-.057-.06Zm-.325.028.015-.013c.062.056.152.108.238.158l.067.039c.05.03.096.06.126.087.03.028.05.058.038.09-.007.02-.02.032-.037.036a.093.093 0 0 1-.056-.01.576.576 0 0 1-.138-.102 2.28 2.28 0 0 1-.253-.285Zm.066.052c.054.067.129.152.2.218.05.046.096.082.133.099.019.008.033.01.044.008.01-.002.017-.008.023-.023.006-.019-.004-.04-.033-.068a.773.773 0 0 0-.123-.085l-.066-.039a2.35 2.35 0 0 1-.178-.11Z" clip-rule="evenodd"/><path fill="#fff" fill-rule="evenodd" d="M9.569 10.136c.051-.052-.044-.076-.164-.212-.02.092.112.26.168.212h-.004Zm.558.606c.064.04.104-.092.028-.207-.02.127-.084.16-.028.207Zm-1.364-.81c-.132.08-.343-.239-.399-.37.116.151.423.287.4.37Z" clip-rule="evenodd"/><path fill="#BD6B00" fill-rule="evenodd" d="m8.355 9.566.018-.01c.051.067.141.131.224.19a.998.998 0 0 1 .138.107.174.174 0 0 1 .032.041c.007.014.01.028.006.041l-.001.004-.003.002c-.037.023-.08.016-.12-.005a.462.462 0 0 1-.12-.103 1.125 1.125 0 0 1-.174-.267Zm.05.055c.034.062.084.137.138.199a.443.443 0 0 0 .115.098c.036.02.069.023.097.008a.046.046 0 0 0-.006-.023.155.155 0 0 0-.029-.035.98.98 0 0 0-.11-.087l-.025-.019c-.06-.043-.128-.09-.18-.14Zm.995.282.013.015a1.015 1.015 0 0 0 .146.136.109.109 0 0 1 .033.043.037.037 0 0 1-.003.029h.01l-.02.018c-.018.015-.042.012-.063 0a.211.211 0 0 1-.063-.055.314.314 0 0 1-.047-.082.154.154 0 0 1-.01-.085l.004-.019Zm.158.23.004-.004a.041.041 0 0 0 .01-.015.017.017 0 0 0 0-.01c-.002-.01-.01-.02-.027-.035a1.132 1.132 0 0 1-.131-.12c0 .015.004.032.01.05.01.027.027.054.045.077a.192.192 0 0 0 .056.051c.013.007.024.009.033.006Zm.591.375.015.021c.039.06.048.125.04.17a.085.085 0 0 1-.029.052.042.042 0 0 1-.025.008.053.053 0 0 1-.028-.008l-.001-.001c-.015-.013-.024-.026-.026-.041a.091.091 0 0 1 .009-.044l.008-.02c.011-.028.026-.062.033-.112l.004-.025Zm.011.055a.448.448 0 0 1-.03.09l-.008.019a.072.072 0 0 0-.007.034c.001.009.006.017.018.028a.033.033 0 0 0 .017.005c.005 0 .01-.001.013-.004.01-.007.017-.02.02-.04a.209.209 0 0 0-.023-.132Z" clip-rule="evenodd"/><path fill="#fff" fill-rule="evenodd" d="M8.879 10.116c-.076.08-.308-.14-.387-.251.12.107.418.12.387.251Z" clip-rule="evenodd"/><path fill="#BD6B00" fill-rule="evenodd" d="m8.484 9.87.015-.013a.395.395 0 0 0 .112.065l.082.03.053.02a.397.397 0 0 1 .11.057.103.103 0 0 1 .03.04.08.08 0 0 1 .003.05l-.001.002-.002.002c-.023.024-.057.024-.091.013a.42.42 0 0 1-.114-.066 1.055 1.055 0 0 1-.197-.2Zm.058.041c.041.048.096.102.15.143.04.03.077.052.109.063.03.01.054.008.069-.006a.06.06 0 0 0-.003-.035.083.083 0 0 0-.025-.032.378.378 0 0 0-.103-.053l-.052-.02-.083-.03a.624.624 0 0 1-.062-.03Z" clip-rule="evenodd"/><path fill="#fff" fill-rule="evenodd" d="M9.002 10.283c-.024.112-.359-.14-.439-.26.144.14.463.129.44.26Z" clip-rule="evenodd"/><path fill="#BD6B00" fill-rule="evenodd" d="m8.556 10.03.015-.013c.034.034.08.059.13.079.039.016.08.03.12.042l.028.01a.5.5 0 0 1 .121.05.105.105 0 0 1 .035.038c.008.014.01.03.007.05a.042.042 0 0 1-.029.033.093.093 0 0 1-.05-.003.509.509 0 0 1-.134-.067.999.999 0 0 1-.243-.22Zm.07.052c.05.05.118.107.184.15a.495.495 0 0 0 .128.065c.017.005.03.005.04.003a.023.023 0 0 0 .015-.019.054.054 0 0 0-.005-.036.086.086 0 0 0-.03-.03.49.49 0 0 0-.115-.049l-.028-.009a1.556 1.556 0 0 1-.122-.043.575.575 0 0 1-.067-.032Z" clip-rule="evenodd"/><path fill="#fff" fill-rule="evenodd" d="M8.95 10.407c-.051.1-.327-.152-.394-.28.171.144.438.18.398.28H8.95Zm-.14-.49c.085-.092.049-.136-.015-.28-.032.148-.084.208.016.28Zm.117.17c.16.009 0-.183-.04-.346.016.183-.04.33.04.347Z" clip-rule="evenodd"/><path fill="#BD6B00" fill-rule="evenodd" d="m8.792 9.605.012.028.02.044.021.047a.3.3 0 0 1 .023.07.118.118 0 0 1-.006.064.213.213 0 0 1-.044.065l-.006.006-.007-.005a.155.155 0 0 1-.052-.057.114.114 0 0 1-.01-.063.463.463 0 0 1 .017-.074l.003-.008a1.33 1.33 0 0 0 .022-.087l.007-.03Zm.006.063a1.74 1.74 0 0 1-.016.059l-.002.008a.445.445 0 0 0-.016.071c-.003.02 0 .037.007.053a.127.127 0 0 0 .039.044.18.18 0 0 0 .033-.053.098.098 0 0 0 .005-.052.288.288 0 0 0-.021-.066l-.02-.046-.009-.018Zm.079.073.02-.003c.01.04.026.082.044.123l.015.033c.013.028.026.056.035.08a.267.267 0 0 1 .013.049.081.081 0 0 1-.001.04.047.047 0 0 1-.027.028.11.11 0 0 1-.05.007h-.001a.057.057 0 0 1-.046-.043.24.24 0 0 1-.006-.078l.003-.055c.003-.053.007-.114 0-.18Zm.023.072c0 .04-.003.078-.005.112l-.002.052a.246.246 0 0 0 .005.072.045.045 0 0 0 .012.02c.004.004.01.007.018.009a.092.092 0 0 0 .04-.005.027.027 0 0 0 .016-.017.062.062 0 0 0 0-.03.247.247 0 0 0-.012-.044c-.009-.024-.021-.05-.034-.08a4.675 4.675 0 0 1-.038-.089Zm-.353.32.015-.013c.072.06.16.1.237.136l.04.018a.45.45 0 0 1 .1.06c.012.01.022.022.026.035a.057.057 0 0 1-.001.041l-.003.007h-.005a.05.05 0 0 1-.033.021.1.1 0 0 1-.05-.006.436.436 0 0 1-.12-.072.877.877 0 0 1-.206-.228Zm.047.036a.983.983 0 0 0 .171.175.421.421 0 0 0 .115.07c.016.005.03.007.04.005a.03.03 0 0 0 .022-.017l.002-.005h.003a.036.036 0 0 0 0-.022.068.068 0 0 0-.02-.026.433.433 0 0 0-.097-.056 5.792 5.792 0 0 0-.039-.018c-.061-.029-.133-.062-.197-.106Z" clip-rule="evenodd"/><path fill="#fff" fill-rule="evenodd" d="M9.027 10.24c.107-.024.08-.18-.008-.367.02.203-.092.319.008.367Zm-.04.306c-.04.12-.351-.159-.4-.27.16.135.428.179.4.27Z" clip-rule="evenodd"/><path fill="#BD6B00" fill-rule="evenodd" d="m9.009 9.873.019-.005a.762.762 0 0 1 .078.248.16.16 0 0 1-.014.087.09.09 0 0 1-.063.046h-.007a.08.08 0 0 1-.046-.057.214.214 0 0 1 .007-.08l.005-.024c.013-.057.03-.128.02-.215Zm.022.052a.741.741 0 0 1-.023.167l-.006.024a.196.196 0 0 0-.006.072c.003.017.012.03.032.04a.07.07 0 0 0 .046-.034.141.141 0 0 0 .012-.076.644.644 0 0 0-.055-.193Zm-.452.354.015-.011c.068.057.156.098.233.134l.035.016c.041.02.078.039.103.059.024.02.04.043.031.072a.049.049 0 0 1-.033.034.091.091 0 0 1-.052-.003.45.45 0 0 1-.127-.075 1.045 1.045 0 0 1-.127-.117.452.452 0 0 1-.078-.109Zm.044.035a1.02 1.02 0 0 0 .174.175.408.408 0 0 0 .12.072c.017.005.03.006.04.003.01-.002.016-.009.02-.02.005-.018-.002-.034-.025-.052a.524.524 0 0 0-.133-.072c-.062-.029-.134-.062-.196-.106Z" clip-rule="evenodd"/><path fill="#fff" fill-rule="evenodd" d="M9.174 10.738c-.044.12-.37-.128-.47-.263.195.16.494.143.47.263Z" clip-rule="evenodd"/><path fill="#BD6B00" fill-rule="evenodd" d="m8.695 10.48.015-.013c.09.073.201.11.294.139l.02.006a.53.53 0 0 1 .12.049c.014.01.026.02.033.033.008.014.01.03.007.046v.002a.054.054 0 0 1-.036.034.105.105 0 0 1-.054 0 .474.474 0 0 1-.14-.065 1.126 1.126 0 0 1-.259-.23Zm.067.048c.055.057.13.12.203.166.05.032.096.055.133.063a.086.086 0 0 0 .044 0 .035.035 0 0 0 .022-.021.045.045 0 0 0-.004-.032.079.079 0 0 0-.027-.027.53.53 0 0 0-.115-.046l-.02-.006a1.11 1.11 0 0 1-.236-.097Z" clip-rule="evenodd"/><path fill="#fff" fill-rule="evenodd" d="M9.366 10.934c-.052.171-.395-.104-.495-.24.215.168.519.12.495.24Zm-.32-.439c.092.044.128-.215.076-.403 0 .2-.187.351-.08.4l.005.003Z" clip-rule="evenodd"/><path fill="#BD6B00" fill-rule="evenodd" d="M9.08 10.507a.051.051 0 0 1-.038-.003H9.04l-.004-.005a.065.065 0 0 1-.03-.026.062.062 0 0 1-.007-.038.305.305 0 0 1 .033-.091l.008-.015a.542.542 0 0 0 .072-.237l.02-.003c.026.095.03.209.015.293a.246.246 0 0 1-.035.1.065.065 0 0 1-.031.025Zm.046-.35a.703.703 0 0 1 .002.222.228.228 0 0 1-.032.092.046.046 0 0 1-.022.017.03.03 0 0 1-.022-.002l-.004-.004h-.002a.046.046 0 0 1-.023-.019.042.042 0 0 1-.004-.026.29.29 0 0 1 .031-.084.702.702 0 0 0 .075-.196Zm-.264.543.014-.014c.104.081.23.111.328.135l.006.001a.58.58 0 0 1 .123.038.088.088 0 0 1 .035.03.06.06 0 0 1 .007.045v.001a.084.084 0 0 1-.037.05.096.096 0 0 1-.06.011.377.377 0 0 1-.148-.06 1.083 1.083 0 0 1-.268-.237Zm.062.043c.057.06.138.13.217.178a.36.36 0 0 0 .14.057.077.077 0 0 0 .047-.009.063.063 0 0 0 .027-.038.04.04 0 0 0-.004-.03.068.068 0 0 0-.028-.023.569.569 0 0 0-.118-.037l-.006-.001a.99.99 0 0 1-.275-.098Z" clip-rule="evenodd"/><path fill="#fff" fill-rule="evenodd" d="M9.202 10.702c.112.032.08-.251-.02-.439-.012.188-.092.36.02.439Zm.2.195c.119.004.04-.243-.064-.383.015.18-.04.36.063.383Zm-.22.104c-.04.064-.128-.052-.28-.14.136.04.296.08.28.14ZM9.11 8.899c.12-.087.028-.247 0-.399-.04.144-.135.335 0 .4Zm0 .212c-.18-.02-.151-.244-.16-.387.057.195.2.227.16.39v-.003Zm.024-.028c.148-.008.14-.176.148-.343-.076.155-.16.18-.148.343Z" clip-rule="evenodd"/><path fill="#BD6B00" fill-rule="evenodd" d="m9.076 8.576.024-.078h.02c.006.037.017.074.027.111l.001.003c.01.037.021.075.027.11a.245.245 0 0 1-.001.102.147.147 0 0 1-.058.084l-.005.003-.005-.002a.122.122 0 0 1-.068-.075.227.227 0 0 1-.004-.106.84.84 0 0 1 .042-.152Zm.033.312a.126.126 0 0 0 .046-.069.226.226 0 0 0 0-.093 1.014 1.014 0 0 0-.026-.109l-.001-.003-.02-.073-.013.042a.821.821 0 0 0-.04.149.207.207 0 0 0 .002.095.101.101 0 0 0 .052.06Zm-.169-.163.02-.004a.528.528 0 0 0 .096.18l.018.025a.286.286 0 0 1 .05.102.256.256 0 0 1 .042-.125.99.99 0 0 1 .031-.045.747.747 0 0 0 .075-.122l.02.004-.003.045a.837.837 0 0 1-.02.189.177.177 0 0 1-.044.083.135.135 0 0 1-.09.036h-.01a.266.266 0 0 1-.005.024l-.01-.001-.001.005a.158.158 0 0 1-.106-.052.226.226 0 0 1-.047-.103.7.7 0 0 1-.014-.173c0-.024 0-.047-.002-.068Zm.163.375a.173.173 0 0 0-.003-.085.267.267 0 0 0-.042-.078l-.017-.023a.634.634 0 0 1-.079-.128v.007l.001.049a.681.681 0 0 0 .013.12c.008.037.02.07.042.094a.14.14 0 0 0 .085.044Zm.04-.028a.112.112 0 0 0 .068-.03.158.158 0 0 0 .04-.073.87.87 0 0 0 .018-.184v-.001c-.02.034-.039.062-.057.087l-.029.043a.245.245 0 0 0-.04.158Zm.03 1.156.017.03c.05.096.084.215.09.306a.25.25 0 0 1-.011.113.063.063 0 0 1-.028.032.056.056 0 0 1-.042.003h-.002l-.001-.002c-.06-.043-.068-.11-.06-.188a1.524 1.524 0 0 1 .018-.124c.008-.043.015-.089.018-.135l.002-.035Zm.016.072c-.004.035-.01.069-.015.101l-.003.02c-.007.036-.013.07-.016.103-.007.075.001.132.05.169.012.003.02.002.027-.002a.043.043 0 0 0 .018-.022.232.232 0 0 0 .01-.103.808.808 0 0 0-.071-.266Zm.135.18.021.029c.053.07.1.168.118.249.009.04.011.077.003.104a.065.065 0 0 1-.023.034.065.065 0 0 1-.042.011h-.002a.08.08 0 0 1-.059-.05.256.256 0 0 1-.014-.092c0-.026 0-.055.002-.085l.001-.034a1.087 1.087 0 0 0-.002-.13l-.003-.036Zm.025.07a1.316 1.316 0 0 1-.001.132l-.002.082c0 .035.004.064.013.085a.06.06 0 0 0 .043.038.045.045 0 0 0 .029-.007.045.045 0 0 0 .016-.024.193.193 0 0 0-.004-.094.703.703 0 0 0-.094-.212Zm-.452.32.008-.018.037.01c.057.017.115.034.16.053a.252.252 0 0 1 .068.037c.016.014.027.031.021.052v.002a.049.049 0 0 1-.023.02.047.047 0 0 1-.027.002.185.185 0 0 1-.063-.032 1.676 1.676 0 0 1-.047-.034 1.238 1.238 0 0 0-.134-.092Zm.07.02c.029.02.054.04.077.057l.046.033a.17.17 0 0 0 .054.029c.007.001.012 0 .016-.001a.028.028 0 0 0 .012-.01c.002-.01-.002-.02-.015-.03a.235.235 0 0 0-.062-.035 1.365 1.365 0 0 0-.128-.042Z" clip-rule="evenodd"/><path fill="#fff" fill-rule="evenodd" d="M9.13 9.29c-.12.013-.176-.103-.2-.279.108.164.204.112.2.28Zm.04-.011c.147.02.12-.152.12-.28-.049.12-.168.16-.12.28Z" clip-rule="evenodd"/><path fill="#BD6B00" fill-rule="evenodd" d="M9.212 9.1a.416.416 0 0 0 .068-.104l.02.003v.054l.001.046c0 .034 0 .068-.007.097a.124.124 0 0 1-.037.073c-.021.017-.05.025-.089.02l-.006-.001-.002-.006a.135.135 0 0 1-.008-.083.179.179 0 0 1 .034-.066.873.873 0 0 1 .026-.033Zm-.035.17a.112.112 0 0 1-.006-.067.16.16 0 0 1 .03-.058.806.806 0 0 1 .024-.03.553.553 0 0 0 .055-.074v.012l.001.047a.46.46 0 0 1-.006.092.105.105 0 0 1-.03.062c-.015.012-.037.019-.068.015Zm-.257-.257.019-.007a.42.42 0 0 0 .119.12l.02.015c.019.015.035.03.046.054a.209.209 0 0 1 .016.096v.008l-.01.001a.145.145 0 0 1-.144-.073.54.54 0 0 1-.066-.214Zm.027.038a.45.45 0 0 0 .1.092l.019.014a.126.126 0 0 1 .04.046.178.178 0 0 1 .014.078.122.122 0 0 1-.064-.013.147.147 0 0 1-.054-.052.456.456 0 0 1-.055-.165Z" clip-rule="evenodd"/><path fill="#fff" fill-rule="evenodd" d="M8.939 9.207c.012.111.084.303.2.259.043-.136-.104-.164-.2-.26Z" clip-rule="evenodd"/><path fill="#BD6B00" fill-rule="evenodd" d="m8.926 9.18.02.02a.526.526 0 0 0 .093.071.76.76 0 0 1 .059.043.164.164 0 0 1 .05.064.13.13 0 0 1 0 .091l-.001.005-.005.001a.097.097 0 0 1-.087-.007.192.192 0 0 1-.064-.068.507.507 0 0 1-.062-.192l-.003-.028Zm.027.053a.48.48 0 0 0 .056.157.167.167 0 0 0 .056.061.08.08 0 0 0 .066.007.108.108 0 0 0 0-.073.145.145 0 0 0-.046-.056.519.519 0 0 0-.057-.04c-.005-.005-.011-.008-.017-.012a.665.665 0 0 1-.058-.044Z" clip-rule="evenodd"/><path fill="#fff" fill-rule="evenodd" d="M9.17 9.478c-.048-.096.12-.148.152-.275.02.183.004.303-.152.279v-.004Zm-.475-1.164c.092-.096.012-.256-.016-.407-.04.143-.1.335.016.407Zm0 .183c-.16.02-.199-.307-.219-.45.056.195.24.278.22.454v-.004Zm.032 0c.112-.06.088-.187.12-.28-.072.116-.144.132-.12.28Z" clip-rule="evenodd"/><path fill="#BD6B00" fill-rule="evenodd" d="m8.665 7.923.005-.02.02.002c.007.036.016.073.026.11v.003c.01.038.02.075.027.111.012.072.01.14-.04.191l-.005.006-.007-.004c-.063-.04-.077-.11-.071-.186.005-.07.026-.146.045-.213Zm.03.377c.037-.043.04-.1.028-.168a1.27 1.27 0 0 0-.025-.109l-.001-.003a2.41 2.41 0 0 1-.018-.071 1.02 1.02 0 0 0-.04.189c-.005.07.008.128.055.162Zm-.228-.253.02-.004a.617.617 0 0 0 .116.206l.02.026c.05.067.093.135.083.227h-.01l.001.005a.119.119 0 0 1-.107-.046.37.37 0 0 1-.065-.125 1.592 1.592 0 0 1-.058-.289Zm.22.44c.005-.077-.032-.136-.08-.2a3.243 3.243 0 0 0-.02-.025.974.974 0 0 1-.089-.134c.01.063.024.137.045.202a.35.35 0 0 0 .062.118.1.1 0 0 0 .082.04Zm.1-.204a.643.643 0 0 0 .052-.07l.018.008a.415.415 0 0 0-.018.086.72.72 0 0 1-.012.064.188.188 0 0 1-.094.134l-.013.007-.002-.014a.27.27 0 0 1-.001-.093.177.177 0 0 1 .026-.065.538.538 0 0 1 .037-.048l.008-.01Zm-.051.198a.172.172 0 0 0 .072-.114.59.59 0 0 0 .011-.063l.002-.014a.912.912 0 0 1 .004-.022.953.953 0 0 1-.022.028l-.007.008a.517.517 0 0 0-.036.047.157.157 0 0 0-.024.058.231.231 0 0 0 0 .072Zm.443.992c.034.004.06 0 .08-.008a.088.088 0 0 0 .044-.049.255.255 0 0 0 .016-.09c0-.024 0-.05-.003-.08a.414.414 0 0 1-.08.1l-.012.013a.229.229 0 0 0-.045.058.06.06 0 0 0 0 .056Zm.043-.14a.3.3 0 0 0 .09-.133l.02.001a.93.93 0 0 1 .007.126.274.274 0 0 1-.018.097.108.108 0 0 1-.054.059.17.17 0 0 1-.098.009l-.008-.002v-.01a.08.08 0 0 1 0-.072.247.247 0 0 1 .048-.063l.013-.013Z" clip-rule="evenodd"/><path fill="#fff" fill-rule="evenodd" d="M8.691 8.712c-.163.012-.263-.35-.271-.494.052.195.295.299.275.494h-.004Zm.036-.008c.16-.036.14-.14.116-.303-.052.168-.14.132-.116.303Z" clip-rule="evenodd"/><path fill="#BD6B00" fill-rule="evenodd" d="m8.41 8.218.02-.003c.022.084.08.15.14.217l.022.027c.065.074.124.152.113.254v.01h-.013c-.045.003-.085-.02-.118-.056a.493.493 0 0 1-.086-.14 1.026 1.026 0 0 1-.078-.309Zm.03.075c.012.068.034.152.067.227.022.053.05.1.081.134.03.032.063.05.098.049.006-.09-.046-.159-.109-.231l-.023-.026c-.041-.047-.084-.096-.114-.153Zm.322.235a.345.345 0 0 0 .071-.13l.02.002.002.013c.005.036.01.069.012.099a.297.297 0 0 1-.003.091.126.126 0 0 1-.042.07.211.211 0 0 1-.093.041l-.01.003-.002-.011a.267.267 0 0 1 .001-.1.157.157 0 0 1 .03-.06l.014-.018Zm-.026.164a.18.18 0 0 0 .073-.035.106.106 0 0 0 .035-.059.278.278 0 0 0 .003-.085 1.209 1.209 0 0 0-.008-.07.368.368 0 0 1-.062.098l-.012.016a.137.137 0 0 0-.027.054.232.232 0 0 0-.002.081Z" clip-rule="evenodd"/><path fill="#fff" fill-rule="evenodd" d="M8.691 8.92c-.183.032-.171-.263-.319-.475.128.16.359.36.32.475Zm.04-.012c.144.008.16-.203.152-.291-.036.088-.2.167-.148.295l-.004-.004Z" clip-rule="evenodd"/><path fill="#BD6B00" fill-rule="evenodd" d="m8.364 8.45.016-.011c.031.04.07.082.109.125l.003.003c.038.042.076.084.11.126a.656.656 0 0 1 .083.122.174.174 0 0 1 .02.081l.014.001c-.016-.06.013-.11.05-.154a1.012 1.012 0 0 1 .06-.068.232.232 0 0 0 .044-.062l.02.003a.497.497 0 0 1-.02.185.2.2 0 0 1-.05.084.121.121 0 0 1-.093.033h-.002l-.023-.022a.08.08 0 0 1-.005.027l-.002.006h-.005a.124.124 0 0 1-.115-.033.346.346 0 0 1-.07-.119 2.433 2.433 0 0 1-.028-.076c-.03-.082-.061-.172-.116-.25Zm.376.448a.1.1 0 0 0 .07-.027.18.18 0 0 0 .044-.076.46.46 0 0 0 .02-.143.385.385 0 0 1-.053.061l-.038.043c-.036.043-.06.088-.043.142Zm-.305-.364c.026.054.046.11.065.162l.027.074c.02.048.04.087.064.112a.102.102 0 0 0 .092.029c.006-.024 0-.054-.016-.087a.637.637 0 0 0-.08-.119 3.23 3.23 0 0 0-.11-.124l-.003-.004a7.59 7.59 0 0 1-.04-.043Z" clip-rule="evenodd"/><path fill="#fff" fill-rule="evenodd" d="M8.404 8.692c.068.228.168.455.287.44.06-.133-.115-.148-.287-.44Z" clip-rule="evenodd"/><path fill="#BD6B00" fill-rule="evenodd" d="m8.395 8.695.018-.008c.076.13.153.204.21.26l.018.018a.28.28 0 0 1 .064.08c.012.027.011.055-.005.09l-.002.005-.005.001a.12.12 0 0 1-.094-.032.378.378 0 0 1-.08-.1 1.52 1.52 0 0 1-.124-.314Zm.041.067c.03.088.063.171.1.236a.36.36 0 0 0 .076.096c.024.02.048.03.072.028a.086.086 0 0 0 .003-.07.262.262 0 0 0-.06-.073 3.839 3.839 0 0 0-.018-.018c-.047-.046-.109-.106-.173-.199Z" clip-rule="evenodd"/><path fill="#fff" fill-rule="evenodd" d="M8.735 9.095c-.048-.1.12-.148.151-.275.02.183.004.303-.151.275Zm-.283-.144c.1.204.143.44.279.403.052-.16-.152-.191-.28-.403Z" clip-rule="evenodd"/><path fill="#BD6B00" fill-rule="evenodd" d="M8.742 9.086a.144.144 0 0 0 .082-.006.085.085 0 0 0 .044-.047.251.251 0 0 0 .016-.09c0-.024 0-.05-.003-.08-.02.04-.052.071-.08.099l-.013.013a.22.22 0 0 0-.044.057.063.063 0 0 0-.002.054Zm.045-.138a.286.286 0 0 0 .09-.13h.02a.93.93 0 0 1 .007.126.27.27 0 0 1-.018.097.105.105 0 0 1-.054.058.168.168 0 0 1-.098.006l-.005-.001-.003-.005a.084.084 0 0 1 0-.075.239.239 0 0 1 .048-.063l.013-.013Zm-.344.008.018-.01a.772.772 0 0 0 .171.19l.034.029a.29.29 0 0 1 .07.084.139.139 0 0 1 .005.108l-.002.005-.005.002a.102.102 0 0 1-.096-.021.294.294 0 0 1-.068-.096c-.02-.04-.04-.086-.06-.135v-.003a2.34 2.34 0 0 0-.067-.153Zm.059.08c.04.047.081.083.118.115l.033.029a.27.27 0 0 1 .066.078.117.117 0 0 1 .005.088.082.082 0 0 1-.073-.019.276.276 0 0 1-.064-.089 1.81 1.81 0 0 1-.058-.134V9.1a5.196 5.196 0 0 0-.027-.064Z" clip-rule="evenodd"/><path fill="#fff" fill-rule="evenodd" d="M8.76 9.318c-.06-.111.107-.147.151-.295.02.192 0 .331-.152.291v.004Zm.287-1.376c.095.024.199-.083.163-.247-.112.024-.16.128-.163.247Zm-.315-.083c.007.048.067.052.047-.016a.211.211 0 0 1 0-.136.299.299 0 0 0 0-.183c-.016-.04-.071-.016-.047.016a.174.174 0 0 1 .007.147.325.325 0 0 0-.007.172Zm.913.638c-.04.052-.116.016-.056-.06.048-.06.12-.112.12-.175.008-.08.051-.2.095-.244.044-.044.096.016.048.048-.052.032-.088.176-.084.231-.004.08-.08.14-.123.2Zm-.12-.092c-.04.056-.096.02-.064-.068.028-.06.032-.14.064-.183.048-.068.12-.124.164-.168.047-.04.08 0 .04.04a1.077 1.077 0 0 0-.132.16c-.056.087-.032.16-.072.22ZM8.9 8.118c-.004.08.06.096.056-.016 0-.12-.088-.231-.04-.41a.796.796 0 0 0 .016-.336c-.016-.087-.08-.032-.052.036.024.08-.004.223-.024.3-.06.215.048.318.04.426H8.9Zm.171-.439c-.007.076-.071.08-.051-.02a.472.472 0 0 0 0-.211.694.694 0 0 1 0-.287c.02-.064.08-.028.055.02a.395.395 0 0 0-.011.235.67.67 0 0 1 .007.267V7.68Zm-.622 1.48c.032.036.08.012.04-.04-.04-.04-.028-.048-.052-.096-.024-.056-.02-.084-.047-.12-.028-.04-.064 0-.04.028.032.04.024.064.04.1.04.06.027.092.06.128Zm.814.98a.344.344 0 0 1 .175.268.65.65 0 0 0 .08.283c-.08-.02-.12-.147-.131-.271-.012-.128-.08-.18-.12-.28h-.004Zm.203.236c.068.124.16.172.168.263.008.108.016.112.044.216-.08-.02-.1-.028-.12-.188-.012-.111-.104-.187-.092-.29Z" clip-rule="evenodd"/><path fill="#BD6B00" fill-rule="evenodd" d="M9.028 7.164a.622.622 0 0 0-.015.132.548.548 0 0 0 .015.15.482.482 0 0 1 0 .215.119.119 0 0 0-.001.052c.002.01.007.012.008.012.002 0 .007 0 .013-.008a.08.08 0 0 0 .012-.039.66.66 0 0 0-.007-.259.405.405 0 0 1 .012-.241v-.001c.01-.02.002-.035-.007-.039a.015.015 0 0 0-.014.001c-.005.003-.012.01-.016.025Zm.052.521a.097.097 0 0 1-.016.043c-.008.011-.019.019-.032.017-.013-.002-.02-.013-.025-.027a.138.138 0 0 1 .002-.06.462.462 0 0 0 0-.207.568.568 0 0 1-.016-.156.638.638 0 0 1 .016-.137.062.062 0 0 1 .025-.036.034.034 0 0 1 .033-.002c.02.01.03.037.016.065a.385.385 0 0 0-.011.229.69.69 0 0 1 .008.271Zm-.162-.377c.01.008.018.024.022.047a.83.83 0 0 1-.016.34.427.427 0 0 0 .002.222l.013.047v.003l.012.043a.38.38 0 0 1 .014.092.16.16 0 0 1-.009.065c-.006.014-.016.025-.03.025-.012 0-.023-.01-.029-.023a.1.1 0 0 1-.008-.04h-.005v-.012a.225.225 0 0 0-.01-.078L8.862 8l-.002-.003a1.231 1.231 0 0 1-.014-.048.456.456 0 0 1 0-.26 1.11 1.11 0 0 0 .027-.146.397.397 0 0 0-.004-.146.095.095 0 0 1-.006-.052.058.058 0 0 1 .02-.036.03.03 0 0 1 .016-.007c.007 0 .013.002.019.007Zm-.013.8h.004v.01a.095.095 0 0 0 .006.043c.005.01.01.011.012.011.001 0 .006-.001.01-.013a.141.141 0 0 0 .008-.056.36.36 0 0 0-.013-.088 1.715 1.715 0 0 0-.012-.043V7.97a1.63 1.63 0 0 1-.013-.048.446.446 0 0 1-.002-.233v-.001a.81.81 0 0 0 .016-.33c-.004-.02-.01-.03-.015-.035L8.9 7.321a.01.01 0 0 0-.006.003.039.039 0 0 0-.011.023.075.075 0 0 0 .005.042.4.4 0 0 1 .005.156 1.131 1.131 0 0 1-.029.149.436.436 0 0 0 .001.248l.014.048.002.003.012.04c.007.026.012.05.012.075Zm-.14-.612c.01.004.018.012.023.024.02.063.02.129 0 .19a.202.202 0 0 0 0 .13.073.073 0 0 1 .003.044.028.028 0 0 1-.024.02c-.02.003-.041-.016-.046-.043-.008-.052-.016-.123.01-.178a.136.136 0 0 0 .01-.069.146.146 0 0 0-.018-.068c-.007-.01-.01-.021-.006-.03a.033.033 0 0 1 .02-.02.04.04 0 0 1 .028 0Zm-.03.026c0 .002 0 .006.004.012.014.02.021.05.023.08a.156.156 0 0 1-.014.078c-.022.049-.015.113-.007.165.004.021.017.028.024.027.002 0 .005-.001.007-.006.002-.006.002-.016-.002-.032a.221.221 0 0 1 0-.142.29.29 0 0 0 0-.177.022.022 0 0 0-.012-.013.02.02 0 0 0-.014 0 .013.013 0 0 0-.008.008Zm.482.162.003.01a.245.245 0 0 1-.035.201c-.035.047-.089.07-.141.057l-.008-.002v-.008c.004-.121.053-.23.172-.256l.01-.002Zm-.16.25a.116.116 0 0 0 .112-.05.222.222 0 0 0 .033-.176c-.096.025-.14.116-.145.227Zm.638.06a1.38 1.38 0 0 1-.043.04l-.037.035a.632.632 0 0 0-.082.09.25.25 0 0 0-.035.095.502.502 0 0 1-.028.087c-.015.043-.008.068.003.077.004.004.01.005.018.003a.053.053 0 0 0 .026-.021c.017-.026.021-.054.027-.087v-.009a.307.307 0 0 1 .044-.123 1.22 1.22 0 0 1 .133-.162.05.05 0 0 0 .015-.023c.001-.007 0-.01-.002-.013-.002-.002-.006-.004-.012-.003a.056.056 0 0 0-.027.014Zm-.17.411.008.006a.073.073 0 0 1-.037.03.038.038 0 0 1-.037-.008c-.02-.017-.024-.054-.007-.099a.48.48 0 0 0 .03-.097.268.268 0 0 1 .035-.089.652.652 0 0 1 .122-.129c.015-.014.03-.027.042-.04h.001a.076.076 0 0 1 .037-.019.033.033 0 0 1 .03.01.032.032 0 0 1 .006.03.07.07 0 0 1-.02.033 1.066 1.066 0 0 0-.13.158.287.287 0 0 0-.042.126c-.005.032-.01.064-.03.094l-.008-.006Zm.312-.392a.038.038 0 0 0-.026.012.324.324 0 0 0-.059.105.546.546 0 0 0-.034.132c0 .036-.02.067-.044.095a.932.932 0 0 1-.035.04c-.002 0-.003.002-.004.003a.715.715 0 0 0-.039.043.08.08 0 0 0-.02.043c0 .01.004.017.009.02.01.009.034.008.052-.015a.71.71 0 0 1 .037-.046l.002-.002a.926.926 0 0 0 .037-.044.185.185 0 0 0 .045-.101.4.4 0 0 1 .05-.195.124.124 0 0 1 .038-.045c.01-.007.014-.014.015-.02a.021.021 0 0 0-.006-.017.024.024 0 0 0-.018-.008Zm.044.027a.049.049 0 0 1-.024.035.105.105 0 0 0-.032.038.38.38 0 0 0-.047.184v.001a.204.204 0 0 1-.049.113.946.946 0 0 1-.038.045l-.002.002a.695.695 0 0 0-.036.045c-.023.029-.058.036-.08.02a.042.042 0 0 1-.016-.038.1.1 0 0 1 .024-.054.732.732 0 0 1 .04-.044c0-.002.002-.003.003-.005a.922.922 0 0 0 .035-.037c.023-.029.04-.055.04-.083V8.26a.565.565 0 0 1 .034-.138.342.342 0 0 1 .064-.112.057.057 0 0 1 .04-.018c.013 0 .025.005.033.014.008.009.012.02.01.033Zm-1.485.858a.046.046 0 0 0-.027-.02.03.03 0 0 0-.027.007.038.038 0 0 0-.001.053.117.117 0 0 1 .026.059.197.197 0 0 0 .012.038v.001h.001c.02.03.026.051.032.071v.001c.006.02.011.038.029.058.017.02.043.026.06.014a.031.031 0 0 0 .012-.028.074.074 0 0 0-.017-.039h-.001a.111.111 0 0 1-.03-.042c0-.004-.002-.007-.003-.011a.285.285 0 0 0-.017-.04c-.01-.022-.014-.04-.018-.055l-.004-.012a.155.155 0 0 0-.027-.055Zm-.04.002c-.006.005-.009.015 0 .025a.137.137 0 0 1 .031.069c.003.01.005.02.01.033.02.03.028.054.034.074.006.02.01.035.025.051.014.016.028.016.033.012.002-.002.005-.005.004-.011a.054.054 0 0 0-.013-.027.13.13 0 0 1-.033-.048l-.005-.013a.259.259 0 0 0-.015-.037c-.01-.024-.015-.042-.02-.058 0-.004-.002-.008-.003-.011a.135.135 0 0 0-.024-.05c-.006-.008-.011-.011-.015-.012a.01.01 0 0 0-.01.003Zm.408.405c.035.01.062.008.081-.001a.09.09 0 0 0 .045-.052.45.45 0 0 0 .014-.186c-.022.046-.056.08-.085.11l-.016.015a.183.183 0 0 0-.042.059.07.07 0 0 0 .003.055Zm-.007.017-.007.001a.094.094 0 0 1-.008-.08.202.202 0 0 1 .047-.065l.016-.017a.337.337 0 0 0 .096-.14l.02.001c.01.096.01.181-.013.237a.109.109 0 0 1-.054.063.143.143 0 0 1-.097.002v-.002Zm.501.821.004-.013h.01l.003.006a.352.352 0 0 1 .172.27.628.628 0 0 0 .079.28l.01.02-.022-.006c-.044-.011-.076-.052-.098-.102a.614.614 0 0 1-.04-.178.345.345 0 0 0-.049-.146.68.68 0 0 1-.07-.125v-.005l.001-.001Zm.032.027c.01.02.022.04.034.059l.02.035a.365.365 0 0 1 .051.154.596.596 0 0 0 .04.172.174.174 0 0 0 .06.08.648.648 0 0 1-.068-.262.333.333 0 0 0-.137-.238Zm.175.205h-.01a.26.26 0 0 0 .038.147l.006.013a.366.366 0 0 1 .048.133c.005.04.01.07.016.095a.163.163 0 0 0 .023.055c.02.028.049.036.088.046l.016.004-.004-.017-.016-.058a.583.583 0 0 1-.028-.155c-.004-.05-.03-.086-.063-.126l-.016-.018a.716.716 0 0 1-.09-.123l-.008.004Zm.01.037a.308.308 0 0 0 .036.101l.006.013a.403.403 0 0 1 .05.14c.005.039.01.069.015.092a.143.143 0 0 0 .02.049c.013.018.03.025.06.033l-.011-.04a.586.586 0 0 1-.028-.16c-.004-.043-.027-.076-.06-.115l-.015-.018a.901.901 0 0 1-.073-.095Z" clip-rule="evenodd"/><path fill="#fff" fill-rule="evenodd" d="M11.563 11.524c.04.071.08.179.159.16 0-.053-.084-.093-.16-.16Zm.12.024c.147.063.278.047.298.143-.143.016-.2-.04-.303-.144h.004Zm-.643-.507c.1.077.17.185.2.307.032.11.08.215.143.311a.519.519 0 0 1-.211-.295.966.966 0 0 0-.132-.319v-.004Zm.124 0c.111.088.215.191.247.315.032.116.052.204.128.32-.12-.077-.164-.188-.2-.312-.028-.12-.1-.207-.175-.319v-.004Zm.367.291a.044.044 0 0 1 .027-.048c.035-.012.07-.022.104-.032.04-.012.064.016.064.036v.08c0 .028-.008.032-.028.036-.028.004-.068.008-.096.028-.024.016-.047.004-.06-.02l-.011-.08Zm.422 0c0-.024-.008-.044-.024-.048a.216.216 0 0 0-.095-.016c-.04 0-.044.008-.044.024v.084c0 .032 0 .032.016.04.028 0 .072 0 .1.024.02.012.04 0 .043-.024l.004-.084Z" clip-rule="evenodd"/><path fill="#fff" fill-rule="evenodd" d="M13.138 12.453c0 .048.008.088.04.124a.758.758 0 0 0-.55.044c-.072.031-.16-.04-.076-.108.12-.092.387-.04.586-.06Zm-2.293 0a.28.28 0 0 1-.016.12c.176-.068.363-.008.542.064.12.051.132-.04.112-.068a.257.257 0 0 0-.2-.116h-.438Zm.152-.865c-.052-.02-.108 0-.16.056-.171.167-.375.33-.538.462-.06.052-.12.148.135.24.012.007.2.08.32.08.051 0 .051.071.04.09-.02.04-.005.057-.045.093-.043.04 0 .083.04.052.144-.128.383-.044.61.027.056.016.152.012.152-.063 0-.08.06-.136.096-.14.095.016.558.02.697.004.08-.012.088.116.132.16.032.035.148.043.231.008.16-.072.4-.072.499 0 .04.027.076 0 .052-.028-.032-.04-.028-.064-.044-.096-.04-.08-.008-.096.032-.1.438-.06.582-.207.447-.33-.176-.152-.367-.308-.535-.487-.048-.048-.08-.068-.171-.028-.318.144-.66.224-1.01.235a3.037 3.037 0 0 1-.98-.231v-.004Z" clip-rule="evenodd"/><path fill="#BD6B00" fill-rule="evenodd" d="m13.063 11.611-.064.016c-.359.128-.686.216-1.025.216-.33 0-.678-.096-.993-.224a.091.091 0 0 0-.06 0 .11.11 0 0 0-.051.028 4.605 4.605 0 0 1-.471.411c-.028.02-.024.072.02.088.331.12.654.339 1.58.33.936-.007 1.267-.223 1.563-.322.02-.008.04-.02.051-.04a.04.04 0 0 0 .004-.032.08.08 0 0 0-.024-.032c-.171-.14-.35-.251-.47-.415-.012-.02-.036-.024-.06-.02v-.004Zm0 .02c.02 0 .04 0 .044.012.12.172.307.28.475.419l.015.028a.02.02 0 0 1 0 .016c-.004.012-.024.024-.04.028-.303.103-.626.319-1.555.327-.925.008-1.244-.212-1.575-.331-.032-.016-.028-.048-.016-.056.168-.128.327-.271.47-.415a.099.099 0 0 1 .044-.024h.048c.316.137.654.213.997.224.347 0 .678-.088 1.037-.212a.263.263 0 0 1 .06-.016h-.004Z" clip-rule="evenodd"/><path fill="#fff" fill-rule="evenodd" d="M10.793 5.594c0-.056.08-.06.072.016-.012.091.18.33.196.478.012.1-.06.184-.128.24a.263.263 0 0 1-.271.02c-.036-.032-.068-.132-.04-.172.008-.012.052.148.148.148.131 0 .239-.1.239-.188.008-.151-.212-.39-.216-.542Zm.38.375c.023-.016.055.051.031.067-.02.012-.06-.051-.032-.071v.004Zm.06-.14c-.013.008-.033 0-.029-.008a.478.478 0 0 1 .144-.132c.016-.008.04.016.032.028a.439.439 0 0 1-.148.112Zm.502-.399c.012-.024.083-.052.103-.068.016-.02.024.016.016.028-.012.028-.075.068-.103.072-.012 0-.024-.016-.016-.028V5.43Zm.171.012a.33.33 0 0 1 .1-.135c.02-.012.052 0 .044.016a.36.36 0 0 1-.116.131c-.012.012-.032 0-.028-.012Zm-.148.108c-.011.008-.003.028.005.032.024.008.06.008.08 0 .023-.016.011-.116-.02-.064-.025.032-.04.024-.065.032Zm-.29.223c-.052-.04.015-.095.067-.056.108.08-.16.391-.303.535-.028.028-.052-.04-.016-.076.104-.087.194-.19.267-.303.016-.02.028-.064-.016-.1Zm.61-.263c.004-.04-.064 0-.064-.052 0-.028.075-.048.107-.016.052.056.012.148-.08.156-.071 0-.199.107-.179.127.02.028.216.044.331.028.072-.012.056.052-.016.06-.072.008-.127 0-.191.024-.08.02-.112.12-.156.16-.008.008-.032-.032-.024-.048.032-.048.08-.12.136-.144.032-.012-.096-.016-.136-.028-.031-.008-.023-.052-.012-.076.016-.031.136-.155.188-.151.044 0 .092-.012.096-.04Zm.199.008c.024-.02.04-.052.06-.072.012-.012.036 0 .032.032-.004.028-.04.048-.06.068-.02.012-.04-.016-.028-.028h-.004Zm.26-.092c.035 0 .04.064.007.072-.024.008-.04-.068-.008-.072Zm-.085.2c0 .06.028.055.08.051.052 0 .096 0 .096-.047 0-.052-.028-.1-.04-.064-.004.032-.012.088-.032.064-.016-.02-.008-.024-.04.008-.02.02-.02-.008-.032-.024-.008-.012-.032.008-.032.016v-.004Zm-.366.287c-.012.076 0 .18.035.18.048 0 .144-.16.192-.248.028-.048.072-.056.052-.004a.538.538 0 0 0 0 .287c.016.024.12-.024.135-.06.032-.067.004-.191.016-.267.004-.048.052-.06.048-.012-.006.1-.008.2-.004.3 0 .04.116.095.132-.025.008-.071.048-.147 0-.227-.032-.052.044-.048.083.024.028.048-.024.128-.02.187 0 .096-.071.152-.123.152-.048 0-.08-.06-.12-.06-.04 0-.088.068-.12.064-.143-.008-.067-.211-.111-.215-.048 0-.1.199-.16.195-.055-.008-.12-.168-.091-.231.02-.064.06-.08.056-.04Zm.673-.32c-.067-.04 0-.147.036-.11.064.079.128.258.176.274.028.008.024-.135.044-.2.016-.051.071-.035.064.029-.004.02-.08.255-.072.263.053.1.097.204.131.311.012.048-.043.016-.052.008-.035-.056-.095-.26-.095-.247l-.068.307c-.008.04-.068.032-.052-.04.012-.056.092-.331.088-.343a.686.686 0 0 0-.2-.251Z" clip-rule="evenodd"/><path fill="#fff" fill-rule="evenodd" d="M12.88 6.256c-.017 0-.048.04.047.06.124.023.264-.02.303-.144.052-.148.08-.287.108-.339.032-.06.072-.056.04-.144-.02-.067-.06-.047-.068-.012-.02.092-.104.4-.131.451-.048.104-.148.144-.3.128Z" clip-rule="evenodd"/><path fill="#fff" fill-rule="evenodd" d="M13.134 5.769c-.016-.028-.048 0-.04.028a.048.048 0 0 0 .048.04c.028 0 .088.004.088-.04 0-.032-.028-.06-.044-.024-.02.032-.04.028-.052 0v-.004Zm.028-.12c-.008.008 0 .044.012.04a.28.28 0 0 0 .131-.032c.008-.008.004-.028-.008-.028-.04 0-.103 0-.135.02Zm.35.092c.033-.048.112-.052.08.016-.081.164-.165.328-.25.49-.033.056-.056.028-.033-.015.028-.056.196-.479.204-.49Z" clip-rule="evenodd"/><path fill="#fff" fill-rule="evenodd" d="M13.206 6.328c-.008-.032-.06-.08-.052.008.008.151.22.103.28.051.06-.051.011.172.087.196.04.012.12-.044.16-.096.107-.14.179-.343.279-.478.04-.056-.02-.096-.04-.052-.096.151-.207.462-.331.542-.1.064-.068-.08-.072-.128-.004-.031-.044-.08-.096-.035a.22.22 0 0 1-.147.047c-.028 0-.056 0-.068-.055Z" clip-rule="evenodd"/><path fill="#fff" fill-rule="evenodd" d="M13.581 6.049c0-.012-.044-.016-.04.028 0 .032.04.04.044.04.06-.048-.012-.024-.004-.072v.004Zm-.092.175c-.012 0-.024.04.008.044l.156-.008c.016 0 .024-.036-.016-.032-.048 0-.108-.012-.148 0v-.004Zm-2.472-.662c.02 0 .064.056.06.076 0 .008-.048 0-.06-.012-.012-.012-.008-.064 0-.064Zm-.212.415c-.04.024.008.068.04.048.112-.076.28-.152.32-.3.011-.047.055-.123.099-.139.04-.02.104.076.144 0 .024-.04.107.028.127-.016.024-.052.012-.08.012-.135 0-.032-.028-.04-.048.012-.008.024 0 .047-.004.063-.008.008-.024.016-.04.008-.008-.008 0-.028-.024-.04-.007 0-.023-.003-.031.008-.028.052-.04.1-.084.04-.036-.04-.056-.123-.08-.012-.008.04-.068.096-.104.096-.043 0-.031-.12-.127-.1-.052.012-.048.108-.04.14.012.052.16.016.148.048-.024.107-.176.215-.308.279Zm-.905.526c-.004.02.02.068.044.072.024 0 .04-.052.032-.072-.008-.012-.072-.012-.076 0Zm.132.196c-.016-.016-.064.028-.024.06.02.02.1.043.12.008.031-.048-.028-.22 0-.24.02-.02.111.112.159.12.108.016.08-.183.2-.168.075.008.083-.087.071-.151-.008-.06-.104-.144-.147-.184-.056-.047-.084.04-.048.064.048.04.131.116.143.164.004.024-.056.072-.08.06-.055-.032-.103-.16-.151-.188-.016-.008-.056.012-.04.052.024.044.12.108.124.156.004.04-.04.127-.072.127-.036 0-.12-.107-.148-.16-.015-.02-.06-.02-.067.017a.874.874 0 0 0 .02.219c.008.064-.036.068-.06.044Zm-.16-.343c-.016.016.032.048.04.04.016-.016.084-.092.072-.12-.012-.024-.104-.08-.12-.052-.028.044.088.068.068.08a.28.28 0 0 0-.06.052Zm.164-.335s.032.1.056.056c.015-.028-.056-.056-.056-.056Zm.048.16c-.008 0-.04.027-.02.04.031.015.115.031.095-.029-.012-.036.128 0 .092-.095a.148.148 0 0 0-.068-.068c-.016 0-.06.02-.032.036.02.008.08.044.06.068-.028.023-.044-.012-.076-.004-.015 0-.004.047-.015.06 0 .007-.028-.017-.036-.013v.004Zm.219-.38a.14.14 0 0 0-.048.08c0 .008.012.024.02.02a.128.128 0 0 0 .048-.076c0-.012-.008-.031-.02-.023Zm.112-.011c-.032-.04.04-.104.067-.02.02.051.22.315.26.402.031.06 0 .084-.036.04-.1-.127-.184-.287-.291-.422Zm.207.004c.036-.04.108-.12.088-.16-.016-.04-.06-.04-.068-.028-.04.052.032.04.02.056-.02.04-.04.064-.052.104-.004.012.004.036.012.028Zm3.103.127c-.028-.02.024-.12.06-.08.091.108.135.463.163.73 0 0-.04.036-.04.028 0-.14-.06-.574-.183-.678Zm-2.118-.343c-.032-.072.044-.096.056-.048.052.232.18.407.279.563.028.047 0 .08-.068.032-.048-.032-.1-.156-.12-.16-.047-.008-.151.2-.362.14-.056-.016-.052-.18-.056-.252 0-.036.04-.04.04 0 0 .068 0 .208.083.216.072 0 .224-.096.256-.176.032-.08-.076-.235-.108-.319v.004Z" clip-rule="evenodd"/><path fill="#fff" fill-rule="evenodd" d="M13.78 6.543c.016-.048.243-.43.275-.515.016-.04.08.072.016.132a1.72 1.72 0 0 0-.251.415c-.016.04-.056.02-.04-.032Z" clip-rule="evenodd"/><path fill="#fff" fill-rule="evenodd" d="M14.168 6.18c.04-.16.143.024.051.111-.135.136-.18.395-.399.435-.055.012-.159-.028-.19-.052-.013-.008.007-.064.043-.036.052.04.163.052.223.004.13-.127.224-.287.271-.462Zm-2.274.506c-.012.012-.04.012-.043.028-.013.056 0 .088-.013.144-.011.055-.051.055-.047.012 0-.056.051-.14.016-.144-.024-.004-.04-.036-.016-.052.043-.028.067-.024.095-.016.012.004.016.02.008.028Z" clip-rule="evenodd"/><path fill="#fff" fill-rule="evenodd" d="M11.862 6.607c-.056.056-.112.076-.164.14-.024.023-.02.06-.035.095-.012.036-.056.04-.068.036-.02-.016-.016-.08-.04-.048-.024.036-.036.08-.068.08-.028 0-.08-.06-.052-.06.092-.012.088-.08.12-.088.04-.004.04.06.068.048.016-.008.028-.083.048-.103.06-.064.107-.096.171-.144.028-.024.052.02.02.048v-.004Zm.211.2c-.048.007-.04.067-.024.071.02.012.056.016.068-.052.008-.028.012.14.072.076.04-.04.124.008.16-.04.027-.036.04-.06.015-.108-.008-.011-.04-.008-.04.028 0 .032-.02.068-.051.064-.016-.004.008-.076-.008-.096a.02.02 0 0 0-.028 0c-.012.016.012.088-.024.096-.048.008-.024-.048-.04-.056-.068-.032-.072.008-.1.012v.004Zm.36-.12c.035-.008.023-.008.079-.052.02-.016.024.032.02.052 0 .028-.04.008-.052.036-.016.035-.008.12-.016.151 0 .016-.032.016-.032 0-.008-.04.004-.08 0-.131 0-.016-.02-.044 0-.052v-.004Zm-.2-.1c-.008.036-.008.064-.008.092 0 .02.04.008.04.004 0-.032.008-.08 0-.092-.008-.004-.028-.012-.032-.004Z" clip-rule="evenodd"/><path fill="#fff" fill-rule="evenodd" d="m11.982 6.216-.056.223-.08-.151v.155l-.175-.207.06.223-.16-.135.088.151-.28-.18.176.208-.223-.112.16.136-.36-.136.347.172c.158-.072.33-.107.503-.104.195 0 .37.04.498.104l.351-.172-.359.136.16-.136-.22.112.172-.207-.28.179.088-.151-.159.131.06-.22-.172.208v-.155l-.08.151-.06-.223Z" clip-rule="evenodd"/><path fill="#fff" d="m11.674 11.063-.011.097h-.015l-.004-.067a.348.348 0 0 0-.019-.06.275.275 0 0 0-.019-.049l-.037-.052.03-.083a.247.247 0 0 1 .056.09c.013.039.02.08.019.12v.004Zm.262-.161c0 .026-.007.045-.018.056-.008.011-.023.022-.05.026l.016.056a.792.792 0 0 1-.004.124h-.015a.306.306 0 0 0-.011-.086l-.015-.038a.39.39 0 0 0-.026-.052l-.038-.064.023-.075.037.038a.063.063 0 0 0 .038.01c.03 0 .045-.014.045-.048h.015v.053h.003Zm.237.18-.02.078c-.014 0-.022-.01-.03-.026l-.014-.049a.47.47 0 0 1-.004-.063.15.15 0 0 1-.037.007.075.075 0 0 1-.05-.015.049.049 0 0 1-.018-.037.16.16 0 0 1 .026-.087c.02-.026.038-.037.057-.04.018 0 .03.003.037.014.007.01.01.022.011.034v.075c0 .034.004.056.012.071 0 .011.01.023.03.038Zm-.075-.132c0-.022-.012-.03-.03-.03a.038.038 0 0 0-.023.004c-.007.004-.007.008-.007.011 0 .012.01.02.037.02l.023-.005Zm.326.113-.011.097a.174.174 0 0 1-.053-.075.951.951 0 0 1-.049-.153c-.018.07-.04.138-.067.206a.108.108 0 0 1-.03.026v-.094c.022-.026.034-.04.037-.056a.283.283 0 0 0 .03-.064l.02-.1h.014l.034.1a.157.157 0 0 0 .034.06l.037.053"/><path fill="#BF0000" d="M13.155 11.978c.015.015.022.03.026.045l.015.06-.03.003a.294.294 0 0 0-.037-.056.703.703 0 0 0-.105-.101 1.341 1.341 0 0 0-.098-.083.072.072 0 0 1-.011-.03.43.43 0 0 1-.008-.06l.102.083c.032.026.063.054.093.082l.053.057Zm-.356-.218-.008.075h-.116l.011-.075h.113Zm.315.334-.285.086-.05-.075.245-.075-.027-.03a.104.104 0 0 0-.033-.022.052.052 0 0 1-.015.037.075.075 0 0 1-.038.023.127.127 0 0 1-.067 0 .075.075 0 0 1-.05-.027.15.15 0 0 1-.025-.082c0-.038.01-.06.033-.068.027-.007.068 0 .113.027.044.02.083.051.112.09l.087.116Zm-.218-.15a.146.146 0 0 0-.03-.011.041.041 0 0 0-.022 0 .025.025 0 0 0-.011.003.026.026 0 0 0-.008.008.02.02 0 0 0 0 .022l.019.008h.022l.015-.011.015-.02Zm-.3-.06-.019.075-.12-.011.02-.075.115.01h.004Zm.278.289-.064.015a.2.2 0 0 1-.064 0 .137.137 0 0 1-.056-.015.099.099 0 0 1-.056.045.28.28 0 0 1-.06.022l-.045.011-.038-.075.041-.01a.348.348 0 0 0 .05-.016l.033-.019-.038-.018h-.033a.023.023 0 0 0-.008.01h-.019c-.018-.03-.022-.055-.01-.074.01-.019.033-.03.074-.038a.257.257 0 0 1 .098-.007c.03.004.048.015.056.034.007.007.007.018.007.026l-.015.045h.02a.07.07 0 0 0 .022 0l.063-.011.038.075h.004Zm-.304.067-.06.011a.112.112 0 0 1-.083-.015.206.206 0 0 1-.063-.097l-.03-.083a.075.075 0 0 0-.03-.037.177.177 0 0 0-.034-.019l.022-.079a.19.19 0 0 1 .053.038l.037.064.02.056.04.082a.04.04 0 0 0 .038.012l.064-.008.026.075Zm-.263-.281-.037.071-.113-.026.038-.071.112.026Zm.068.315-.281.026-.015-.075.232-.026a.087.087 0 0 0-.022-.03.338.338 0 0 0-.038-.023l.019-.075a.26.26 0 0 1 .06.05.264.264 0 0 1 .03.078l.015.075Zm-.225.037a.394.394 0 0 1-.146-.026.209.209 0 0 1-.05.015.376.376 0 0 1-.063 0h-.075a.093.093 0 0 1-.045-.011.107.107 0 0 1-.03-.038.153.153 0 0 1-.056.038l-.064.004h-.064l.008-.08h.064c.03 0 .056 0 .078-.014a.074.074 0 0 0 .05-.068l.025.004a1.14 1.14 0 0 0-.003.049c0 .011 0 .019.01.026a.063.063 0 0 0 .038.011h.057c.037 0 .06 0 .075-.007.022-.008.033-.019.037-.041l.004-.015s.011 0 .019-.008l.018-.007v.015a.21.21 0 0 1 0 .01l-.01.042a.46.46 0 0 0 .074.019c.004-.008 0-.015-.004-.026l-.01-.023a.02.02 0 0 1 .003-.011l.011-.008.038-.033.018.037v.038l-.007.108Zm-.424-.326-.075.049-.049-.034-.052.038-.071-.038.067-.049.056.03.057-.037.067.037v.004Zm-.112.304-.274-.045.03-.075.232.037c0-.015 0-.026-.007-.037a.203.203 0 0 0-.019-.03l.06-.064a.14.14 0 0 1 .026.06.288.288 0 0 1-.018.079l-.03.075Zm-.23-.038-.06-.01c-.033-.008-.052-.023-.055-.046-.008-.022.003-.056.03-.105l.045-.075c.01-.019.015-.034.01-.045a.085.085 0 0 0-.01-.026l.082-.06c.011.019.011.037.011.052a.154.154 0 0 1-.026.068l-.03.052a.22.22 0 0 0-.034.083c0 .015.008.022.02.026l.06.015-.042.075v-.004Zm-.142-.296-.093.041-.068-.063.098-.038.063.064v-.004Zm-.037.251a.25.25 0 0 1-.06.053.155.155 0 0 1-.064.022l-.09-.003a.55.55 0 0 1-.105-.027.288.288 0 0 1-.127-.075c-.023-.03-.023-.056 0-.082a.264.264 0 0 1 .075-.06.701.701 0 0 1 .142-.06l.015.019-.105.045a.168.168 0 0 0-.049.037c-.015.015-.01.038.008.06.067.053.15.082.236.083.045 0 .075-.012.086-.027a.071.071 0 0 0 .02-.037l.007-.06.093-.056c0 .018 0 .037-.003.056a.164.164 0 0 1-.038.06l-.045.052"/></g><defs><clipPath id="a"><path fill="#fff" d="M0 0h24v18H0z"/></clipPath></defs></svg>