<svg xmlns="http://www.w3.org/2000/svg" width="24" height="18" fill="none"><g fill-rule="evenodd" clip-path="url(#a)" clip-rule="evenodd"><path fill="#fff" d="M-1.417 0h26.834v17.982H-1.417V0Z"/><path fill="currentColor" d="M-1.358.021h26.75v7.597H-1.36l.003-7.597Z"/><path fill="#0061FF" d="M3.55 7.144h17.754v4H3.55v-4Z"/><path fill="#E20000" d="M25.4.063V18H12.012L25.4.06v.003Zm-26.772 0V18h13.384L-1.372.06v.003Z"/><path fill="#FFD600" d="m18.284 7.147-2.686-.678 2.282-1.723-2.802.401 1.441-2.443-2.485 1.441.45-2.844L12.8 3.544 12.12.942l-.763 2.683-1.68-2.285.481 2.925L7.67 2.742l1.442 2.444-2.721-.44 2.243 1.68-2.81.721h12.46Z"/></g><defs><clipPath id="a"><path fill="#fff" d="M0 0h24v18H0z"/></clipPath></defs></svg>