<svg xmlns="http://www.w3.org/2000/svg" width="24" height="18" fill="none"><g clip-path="url(#a)"><path fill="#012169" d="M0 0h24v18H0V0Z"/><path fill="#CC3" d="M15.63 7.05c0 1.972-.225 4.189 1.238 5.73.3.315.877 1.039 1.368 1.013.514-.03 1.178-.792 1.47-1.163 1.275-1.68 1.077-3.683 1.118-5.633-.574.26-.863.345-1.365.338-.375.037-.949-.206-1.294-.375-.225.15-.551.334-1.14.352-.675.03-.892-.086-1.395-.262Z"/><path fill="#53527C" d="m15.952 7.072.075.075-.075-.075Z"/><path fill="#fff" d="M15.784 7.268c-.038 1.035-.008 2.197.15 3.3.183.58.157.9.423 1.245l3.713-.03c.225-.364.394-.915.412-1.137.21-1.113.214-2.347.222-3.45a2.325 2.325 0 0 1-1.34.278 2.587 2.587 0 0 1-1.143-.345c-.356.21-.48.307-1.065.334-.457.022-.825.06-1.372-.195Z"/><path fill="#32327B" d="m20.063 7.147.075.075-.076-.075Z"/><path fill="#667" d="m16.56 7.223.076.075-.075-.075Z"/><path fill="#737370" d="m17.17 7.223.076.075-.075-.075Z"/><path fill="#A4A43D" d="m17.32 7.223.076.075-.075-.075Zm1.726.022.052.026-.048-.026h-.004Z"/><path fill="#808067" d="m19.15 7.223.076.075-.075-.075Z"/><path fill="#E0DEA1" d="m15.952 7.297.075.075-.075-.075Z"/><path fill="#DDDC7A" d="m17.32 7.373.076.075-.075-.075Z"/><path fill="#E1E18C" d="m20.063 7.373.075.075-.076-.075Z"/><path fill="#F2F1D7" d="m16.56 7.447.076.075-.075-.075Z"/><path fill="#F2F1D2" d="m17.07 7.474.049.026-.05-.026Z"/><path fill="#FBFAF2" d="m17.17 7.447.076.075-.075-.075Z"/><path fill="#FEF8F1" d="m17.55 7.447.15.15v-.15h-.15Z"/><path fill="#E5E59D" d="m19.508 7.474.048.026-.052-.026h.004Z"/><path fill="#FAE3C9" d="m17.32 7.755.076.075-.075-.075Zm.308 0 .075.075-.075-.075Z"/><path fill="#F9D099" d="m17.32 7.83.076.075-.075-.075Z"/><path fill="#FACA88" d="m17.32 7.909.076.075-.075-.075Z"/><path fill="#F6F6E4" d="m15.724 7.984.075.075-.075-.075Z"/><path fill="#FBC477" d="m17.32 7.984.076.075-.075-.075Z"/><path fill="#FBBE66" d="m18.844 7.984.075.075-.075-.075Z"/><path fill="#F8DCBB" d="m18.923 7.984.075.075-.075-.075Z"/><path fill="#FACA88" d="m17.32 8.059.076.075-.075-.075Z"/><path fill="#F8DCBB" d="m19.15 8.059.076.075-.075-.075Z"/><path fill="#FE9F11" d="m17.32 8.138.076.075-.075-.075Z"/><path fill="#FAE3C9" d="m17.17 8.288.076.075-.075-.075Z"/><path fill="#FCB144" d="m17.17 8.362.076.075-.075-.075Z"/><path fill="#FCF1E4" d="m17.096 8.438.075.074-.075-.075Z"/><path fill="#FBBE66" d="m18.007 8.438.075.074-.075-.075Z"/><path fill="#F9D099" d="m19.073 8.438.075.074-.075-.075Z"/><path fill="#FAE3C9" d="m19.301 8.438.075.074-.075-.075Z"/><path fill="#FCF1E4" d="m19.15 8.587.076.075-.075-.075Z"/><path fill="#FACA88" d="m17.022 8.82-.08.225.076-.225h.004Z"/><path fill="#FAE3C9" d="m19.046 8.921.052.027-.048-.027h-.004Z"/><path fill="#FEF8F1" d="m19.15 8.895.076.075-.075-.075Z"/><path fill="#FDAB33" d="m19.15 9.049.076.075-.075-.075Z"/><path fill="#FBC477" d="m17.17 9.203.076.075-.075-.075Z"/><path fill="#FEA522" d="m16.56 9.353.076.075-.075-.075Z"/><path fill="#FBBE66" d="m17.17 9.353.076.075-.075-.075Z"/><path fill="#FCF1E4" d="m17.17 9.431.076.075-.075-.075Z"/><path fill="#58587B" d="m20.85 9.634.026.049-.026-.05Z"/><path fill="#D9D868" d="m15.746 9.709.03.052-.026-.052h-.004Z"/><path fill="#F9D099" d="m20.063 9.735.075.075-.076-.075Z"/><path fill="#FCB144" d="m19.15 9.81.076.075-.075-.075Z"/><path fill="#FCB755" d="m16.436 9.938.023.052-.023-.053Z"/><path fill="#FBEAD6" d="m19.15 9.885.076.075-.075-.075Z"/><path fill="#FDAB33" d="m17.32 9.96.076.075-.075-.075Z"/><path fill="#FEF8F1" d="m20.063 10.114.075.075-.076-.075Z"/><path fill="#A4A43D" d="m15.67 10.237.027.057-.022-.053-.004-.004Z"/><path fill="#FE9F11" d="m17.17 10.421.076.075-.075-.075Z"/><path fill="#FBC477" d="m17.32 10.421.076.075-.075-.075Z"/><path fill="#FE9F11" d="m16.56 10.571.076.075-.075-.075Z"/><path fill="#F8DCBB" d="m16.56 10.646.076.075-.075-.075Z"/><path fill="#F2F1D2" d="m15.952 10.8.075.075-.075-.075Z"/><path fill="#FDAB33" d="m19.15 10.8.076.075-.075-.075Z"/><path fill="#E5E59D" d="m15.952 10.875.075.075-.075-.075Z"/><path fill="#D4D456" d="m15.952 10.95.075.075-.075-.075Z"/><path fill="#F9D099" d="m17.32 11.182.076.075-.075-.075Z"/><path fill="#F9D6AA" d="m19.15 11.182.076.075-.075-.075Z"/><path fill="#FCF1E4" d="m17.17 11.257.076.075-.075-.075Z"/><path fill="#A4A43D" d="m15.975 11.385.03.049-.03-.05Z"/><path fill="#58587B" d="m15.952 11.486.075.075-.075-.075Z"/><path fill="#1B1B74" d="m15.952 11.562.075.075-.075-.075Z"/><path fill="#FBFAF2" d="m20.063 11.636.075.075-.076-.075Z"/><path fill="#E5E59D" d="m20.063 11.715.075.075-.076-.075Z"/><path fill="#0CF" d="M16.365 11.79c.262.555 1.2 1.868 1.912 1.845.698-.026 1.482-1.313 1.785-1.845h-3.697Z"/><path fill="#0E0E6E" d="m20.212 11.944.075.075-.075-.075Zm-4.03.075.074.075-.075-.075Z"/><path fill="#0DC9C1" d="m16.56 12.098.076.075-.075-.075Z"/><path fill="#8D8D5B" d="m20.063 12.098.075.075-.076-.075Z"/><path fill="#74B166" d="m16.56 12.172.076.075-.075-.075Z"/><path fill="#262678" d="m20.063 12.172.075.075-.076-.075Z"/><path fill="#8D8D5B" d="m16.56 12.473.076.075-.075-.075Z"/><path fill="#1B1B74" d="m16.56 12.551.076.075-.075-.075Z"/><path fill="#0DC9C1" d="m19.38 12.626-.307.383.311-.386-.004.003Z"/><path fill="#42BB92" d="m17.17 12.855.076.075-.075-.075Z"/><path fill="#96B247" d="m19.15 12.934.076.075-.075-.075Z"/><path fill="#68B070" d="m17.32 13.009.076.075-.075-.075Z"/><path fill="#49497D" d="m17.17 13.159.076.075-.075-.075Z"/><path fill="#0E0E6E" d="m19.15 13.237.076.075-.075-.075Z"/><path fill="#262678" d="m17.32 13.313.076.074-.075-.075Z"/><path fill="#ADB333" d="m17.625 13.313.075.074-.075-.075Z"/><path fill="#42BB92" d="m17.7 13.313.075.074-.075-.075Z"/><path fill="#0DC9C1" d="m18.619 13.313.075.074-.075-.075Z"/><path fill="#96B247" d="m18.694 13.313.075.074-.075-.075Z"/><path fill="#6E6C70" d="m18.998 13.313.075.074-.075-.075Z"/><path fill="#F90" d="M18.311 8.82c.12.278.495.581.6.731-.131.15-.157.135-.142.413.225-.24.232-.263.382-.229.323.323.056 1.013-.21 1.163-.266.16-.217-.004-.619.195.184.157.398-.023.57.026.094.112-.045.315.027.51.15-.015.135-.326.172-.439.113-.412.788-.697.821-1.076.143-.064.282-.019.45.075-.082-.353-.363-.349-.442-.458-.18-.277-.341-.592-.728-.675-.3-.063-.273.02-.46-.112-.12-.09-.477-.263-.42-.124Z"/><path fill="#fff" fill-rule="evenodd" d="M19.159 9.135a.062.062 0 1 1-.124 0 .062.062 0 0 1 .124 0Z" clip-rule="evenodd"/><path fill="#F90" d="M17.37 9.994c.187-.233.285-.713.367-.87.195.045.188.075.431-.068-.318-.09-.345-.082-.382-.229.135-.438.87-.525 1.125-.36.27.162.101.195.465.45.052-.232-.206-.337-.244-.51.056-.138.3-.112.435-.262-.082-.131-.349.03-.465.052-.412.094-.986-.367-1.335-.225-.124-.093-.15-.24-.15-.438-.266.243-.131.487-.195.61-.157.29-.364.582-.255.96.083.293.143.233.12.462-.026.146-.015.544.083.428Z"/><path fill="#fff" fill-rule="evenodd" d="M17.25 9.097c.034-.015.072-.003.087.027a.06.06 0 0 1-.101.064.06.06 0 0 1 .018-.09h-.004Z" clip-rule="evenodd"/><path fill="#F90" d="M18.911 10.155c-.3-.037-.754.124-.938.139-.056-.192-.03-.207-.277-.338.086.323.105.338 0 .45-.443.109-.9-.476-.893-.78 0-.311.12-.187.15-.637-.224.075-.18.356-.31.48-.15.022-.248-.199-.45-.236-.068.138.205.28.284.37.296.308.195 1.032.499 1.257-.015.158-.127.255-.3.353.349.108.488-.14.626-.15.33-.008.686.014.957-.274.202-.225.123-.244.33-.338.138-.052.472-.27.322-.3v.004Z"/><path fill="#fff" fill-rule="evenodd" d="M18.206 10.721a.06.06 0 0 1-.027-.038.06.06 0 0 1 .007-.046.062.062 0 0 1 .038-.028.062.062 0 0 1 .046.007.062.062 0 0 1 .02.085.061.061 0 0 1-.084.02Z" clip-rule="evenodd"/><path fill="#012169" d="M0 0h12v9H0V0Z"/><path fill="#fff" d="m1.406 0 4.575 3.394L10.537 0H12v1.163L7.5 4.518 12 7.856V9h-1.5L6 5.644 1.519 9H0V7.875l4.481-3.338L0 1.2V0h1.406Z"/><path fill="#C8102E" d="M7.95 5.269 12 8.25V9L6.919 5.269H7.95Zm-3.45.375.112.656-3.6 2.7H0l4.5-3.356ZM12 0v.056L7.331 3.581l.038-.825L11.063 0H12ZM0 0l4.481 3.3H3.356L0 .788V0Z"/><path fill="#fff" d="M4.519 0v9h3V0h-3ZM0 3v3h12V3H0Z"/><path fill="#C8102E" d="M0 3.619v1.8h12v-1.8H0ZM5.119 0v9h1.8V0h-1.8Z"/></g><defs><clipPath id="a"><path fill="#fff" d="M0 0h24v18H0z"/></clipPath></defs></svg>