<svg xmlns="http://www.w3.org/2000/svg" width="24" height="18" fill="none"><g clip-path="url(#a)"><path fill="#E41E20" d="M0 0h24v18H0V0Z"/><path fill="currentColor" d="M10.2 3.499c-.172 0-.461.056-.458.188-.487-.08-.536.12-.506.3.045-.072.101-.113.146-.117.064-.011.132.012.203.053a.81.81 0 0 1 .18.154c-.173.04-.308.015-.443-.008a.619.619 0 0 1-.213-.09c-.057-.037-.075-.075-.162-.161-.1-.105-.21-.075-.176.086.079.15.21.218.375.248.079.01.199.037.334.037s.285-.019.367 0c-.048.03-.105.086-.217.105-.113.023-.281-.067-.386-.09.011.086.123.169.341.214.36.075.656.135.855.244a1.4 1.4 0 0 1 .409.345c.176.206.187.367.195.405.037.33-.079.517-.296.577-.105.026-.3-.026-.368-.109-.075-.082-.139-.225-.12-.45.019-.082.116-.311.034-.356a10.264 10.264 0 0 0-1.212-.566c-.093-.038-.168.09-.198.142a1.882 1.882 0 0 1-1.35-.888c-.158-.285-.424 0-.379.273.071.3.3.518.577.675.282.154.638.308.994.3.195.038.191.285-.037.334-.454 0-.818-.007-1.159-.337-.259-.237-.401.045-.33.202.127.491.829.63 1.537.473.278-.045.113.247.038.25-.3.215-.829.42-1.298 0-.213-.164-.36-.03-.277.207.206.619 1.001.488 1.545.188.139-.08.266.1.097.24-.678.472-1.016.48-1.323.3-.383-.154-.413.27-.188.412.251.15.893.038 1.365-.262.203-.15.21.086.083.18-.559.483-.78.61-1.362.532-.288-.022-.285.334-.06.473.312.19.92-.124 1.388-.518.199-.105.232.068.135.274-.208.293-.49.527-.818.675-.262.101-.51.086-.686.026-.217-.075-.244.15-.124.353.072.123.368.16.69.048.323-.112.668-.382.904-.693.206-.184.184.06.086.232-.472.75-.907 1.028-1.48.983-.252-.045-.312.15-.15.337.284.232.637.225.952-.007.273-.263.802-.84 1.08-1.148.195-.154.258 0 .198.315-.052.18-.18.375-.536.51-.244.139-.06.33.12.338.101 0 .304-.12.461-.293.203-.232.218-.386.33-.746.105-.173.297-.09.297.09-.094.36-.169.424-.357.57-.176.169.124.225.226.154.292-.195.397-.45.495-.683.075-.165.277-.086.18.188-.225.652-.6.907-1.25 1.042-.063.011-.104.049-.082.124l.263.262c-.402.12-.728.188-1.133.3l-.555-.367c-.049-.12-.075-.308-.367-.176-.195-.09-.289-.057-.398.037.158 0 .225.045.289.116.082.214.27.236.461.177.124.1.188.183.315.288l-.626-.018c-.225-.237-.398-.226-.555-.038-.124.019-.173.019-.255.165.127-.053.21-.067.266-.011.236.138.39.108.506 0l.657.041c-.083.075-.195.113-.282.18-.337-.098-.517.037-.577.311a.637.637 0 0 0-.045.349.407.407 0 0 1 .184-.263c.3.075.412-.048.431-.228.15-.12.367-.146.514-.266.172.052.255.086.427.142.06.188.199.259.424.21.262.008.217.12.24.206.075-.123.071-.247-.094-.36-.06-.161-.195-.236-.367-.142-.165-.045-.207-.113-.372-.162.413-.13.705-.16 1.118-.292l.289.255c.056.034.109.041.142 0 .259-.375.375-.701.611-.949.094-.105.21-.24.338-.273a.192.192 0 0 1 .195.048c.049.053.09.154.075.308-.026.213-.079.285-.139.412-.064.132-.135.21-.214.312-.15.198-.352.315-.472.393-.24.154-.338.087-.525.075-.24.027-.3.143-.105.304.18.098.345.109.48.083.112-.023.247-.17.345-.248.105-.124.285.022.161.169-.221.262-.439.435-.712.431-.289.037-.233.199-.045.277.345.14.652-.123.81-.3.12-.13.206-.135.187.072-.123.371-.285.514-.555.532-.217-.022-.221.15-.06.263.36.247.623-.18.746-.435.087-.233.222-.124.237.067 0 .259-.113.465-.424.728.236.378.514.765.75 1.143l.72-8.024L12 5.213c-.075-.068-.33-.368-.394-.413-.026-.022-.037-.037-.004-.052a.812.812 0 0 1 .17-.038c-.15-.153-.286-.202-.575-.285.072-.03.14-.015.35-.022a1.132 1.132 0 0 0-.507-.383c.158-.112.188-.12.345-.251a3.236 3.236 0 0 1-.731-.142 1.403 1.403 0 0 0-.45-.128H10.2Zm.03.315c.143 0 .229.049.229.109s-.086.109-.229.109c-.143 0-.233-.057-.233-.113 0-.06.09-.105.233-.105Z"/></g><defs><clipPath id="a"><path fill="#fff" d="M0 0h24v18H0z"/></clipPath></defs></svg>