<svg xmlns="http://www.w3.org/2000/svg" width="24" height="18" fill="none"><g fill-rule="evenodd" clip-path="url(#a)" clip-rule="evenodd"><path fill="red" d="M0 0h24v9.135H0V0Z"/><path fill="currentColor" d="M0 8.865h24V18H0V8.865Z"/><path fill="#FFEC00" d="M8.577 5.558c6.195 1.623 2.213 9.585-2.674 6.27l-.33.51c2.876 2.047 5.723.397 6.525-1.74.833-2.205-.285-5.307-3.472-5.625l-.049.585Z"/><path fill="#FFEC00" d="m6.376 12.405.813.379-.382.817-.814-.382.383-.814Zm5.587-3.731h.9v.9h-.9v-.9Zm-.439-1.459.837-.322.326.836-.836.326-.327-.84Zm-.975-1.091.642-.634.633.638-.637.633-.638-.637ZM9.567 4.63l.84.315-.319.84-.84-.315.319-.84Zm2.284 5.494.836.334-.338.832-.832-.333.334-.833ZM9.229 12.75l.825-.349.357.825-.825.353-.357-.829Zm-1.48.105h.9v.9h-.9v-.9Zm1.548-4.35-.761-.562-.762.547.3-.862-.76-.563h.918l.319-.847.292.85.926-.01-.735.573.263.878v-.004Z"/><path fill="#FE0" d="M12.6 12.99c-.045.015-.232.465-.364.683l.14.037c.51.18.764.345.982.656a.296.296 0 0 0 .382.027s.105-.038.24-.188c.113-.168.083-.3-.052-.416-.413-.3-.86-.525-1.328-.799Z"/><path fill="currentColor" d="M13.7 13.98a.163.163 0 1 1-.28-.114.162.162 0 0 1 .275.114h.004Zm-.803-.51a.163.163 0 1 1-.327 0 .163.163 0 0 1 .327 0Zm.408.262a.163.163 0 1 1-.326 0 .163.163 0 0 1 .326 0Z"/><path fill="#FE0" d="M12.17 13.639c-1.598-.912-3.274-1.894-4.876-2.805-.701-.44-.735-1.253-.262-1.872.045-.086.105-.067.127-.018.057.3.225.61.428.806a198.559 198.559 0 0 1 4.938 3.21c-.127.217-.225.461-.356.675v.004Z"/><path fill="#FFEC00" d="m11.145 11.456.667.6-.6.668-.667-.6.6-.668Z"/><path fill="currentColor" d="m7.773 10.2 4.688 2.832-.059.096-4.687-2.831.058-.096Zm2.533 1.157 1.579 1.023-.062.095-1.578-1.024.06-.094Zm-.929.67 1.609.93-.056.097-1.61-.93.057-.098Z"/></g><defs><clipPath id="a"><path fill="#fff" d="M0 0h24v18H0z"/></clipPath></defs></svg>