<svg xmlns="http://www.w3.org/2000/svg" width="24" height="18" fill="none"><g clip-path="url(#a)"><path fill="#072B5F" d="M0 0h24v18H0V0Z"/><path fill="#fff" d="M12.765.037a8.891 8.891 0 0 1 3.652 1.122l.645-1.125h.23l-.706 1.226a9.046 9.046 0 0 1 3.158 3.154L24 1.957v.233l-4.155 2.4A8.963 8.963 0 0 1 21 8.902h3v.2h-3v.048a8.962 8.962 0 0 1-1.155 4.264l4.155 2.4v.232l-4.256-2.456a9.046 9.046 0 0 1-3.158 3.154l.705 1.222h-.229l-.645-1.121a8.94 8.94 0 0 1-3.615 1.121h-1.597a8.93 8.93 0 0 1-3.615-1.121l-.645 1.121h-.232l.705-1.222A9.045 9.045 0 0 1 4.26 13.59L.004 16.046v-.232l4.155-2.4A8.955 8.955 0 0 1 3.008 9.1H0v-.199h3V8.85c.038-1.545.45-3 1.162-4.26L.004 2.19v-.233L4.26 4.414A9.045 9.045 0 0 1 7.418 1.26L6.713.034h.232l.645 1.125A8.953 8.953 0 0 1 11.242.034h1.523v.003ZM8.947 14.494l-1.256 2.175a8.756 8.756 0 0 0 4.212 1.125v-2.51a6.245 6.245 0 0 1-2.956-.787v-.003Zm6.263.258-.229.132-.24-.075-.435.075-.037-.02a6.12 6.12 0 0 1-2.164.42v2.513h.045a8.796 8.796 0 0 0 4.166-1.128l-1.106-1.917Zm3.124-1.987-.368.034.098.22-.199.2-.322.06-.098.176.24.12-.457.42.134.221-.352-.079-.401.24-.537.255-.12.18-.082-.067.083-.173-.357.132-.079-.132-.134.075 1.106 1.92a8.803 8.803 0 0 0 3.086-3.082l-1.241-.716v-.004Zm-11.726-.536-2.175 1.256a8.864 8.864 0 0 0 3.086 3.082l1.252-2.175a6.323 6.323 0 0 1-2.164-2.163Zm4.484.24-.06.1-.28.02h-.076l-.116.202-.338-.24-.187.06.03.161-.094-.052-.926 1.601a6.05 6.05 0 0 0 2.857.765v-2.43l-.01-.004-.8-.183Zm1.954.183-.146.064.067.195h-.502l-.36-.157v2.332a6.075 6.075 0 0 0 1.912-.337l-.12-.072-.476.12-.42-.266v.105l-.101-.124.12-.12-.019-.363h.139l.082-.233.102-.049-.083-.12.12-.037-.019-.184-.12-.052.162-.02-.101-.434-.237-.24v-.008Zm-5.321-1.065-.945.544a6.172 6.172 0 0 0 2.093 2.093l.922-1.598-.172-.094-.02.162-.434-.2-.023.02-.221.078-.038-.157-.517-.255-.555-.18-.09-.413Zm11.43-2.486.041.128-.06.28.12.162.315.06-.315.435.06.075.083.086-.143.214.135.079-.697.577.161.402-.038.232-.243.079-.06.202-.267.12-.075.214 1.5.866a8.756 8.756 0 0 0 1.13-4.21h-1.647Zm-15.949 0v.045a8.78 8.78 0 0 0 1.125 4.166l2.175-1.252A6.259 6.259 0 0 1 5.72 9.1H3.206Zm2.712 0a6.037 6.037 0 0 0 .764 2.858l1.002-.578-.188-.334.098-.48-.18-.06-.06-.202.3-.034h-.131l.01-.3-.434.135-.019-.112-.06.217-.232.094-.17-.15-.052-.165-.067-.311.139-.102.06.075.04-.093-.063-.458h-.757Zm1.548 1.44-.06.131-.191.042.12-.162.131-.01Zm-.975-3.18-.138.195-.042-.135-.18.056-.026.012c-.113.45-.18.926-.188 1.413h.732l-.011-.06.16.034.087-.746.022-.026.158-.094-.199.022-.075-.18.356-.4-.322-.057-.24.236-.094-.27Zm13.181-2.674-1.642.953.39.986-.221.203-.012.232-.146.176.026.087.14.093-.08.064.173.176.274.045.086.113.075.161.199.083.243-.162.158.02-.199.28.199.518-.225.187h1.688v-.045a8.752 8.752 0 0 0-1.125-4.17Zm-15.337 0A8.756 8.756 0 0 0 3.21 8.902h2.505V8.9c.011-.645.12-1.268.311-1.853l-.056.015-.015-.199h.135c.019-.056.038-.112.064-.168l-.188-.315-.112.037-.075-.131-.045.12-.12-.086.12-.075-.18-.064.041-.094-.143-.082-.037-.315-.143-.045.09-.053-.16-.401-.867-.503Zm3.428 1.988.176.21.101-.049-.277-.161ZM6.3 6.862h.026l-.007-.045-.019.05v-.005Zm2.569-3.078a6.161 6.161 0 0 0-2.093 2.088l1.527.882 1.124-.26.046-.24.093.05-.022-.083.067-.037.274-.102V5.81l.094-.105-1.11-1.92ZM5.68 6.562v.008-.008Zm-.199-.266.225.135-.026.131-.199-.266Zm2.033-4.86A8.843 8.843 0 0 0 4.433 4.52l.787.453.049-.356h.12l-.019.15v.008h-.008l.004.026-.007.075.21.3.787.457.019-.026.053.068.176.1a6.3 6.3 0 0 1 2.163-2.167L7.516 1.432v.004ZM5.198 5.471v.03l-.057.15-.064-.18h.12Zm11.287-4.035L15.262 3.56l.087-.03.026.16.127.083.094-.165h.113l.071.364.27.214.082-.038.222-.082.615.214.112-.038.049.218.161.026-.041-.105h.131l.041.221.162-.176.382.236.098.435-.158.045.038.315 1.631-.937a8.843 8.843 0 0 0-3.086-3.087l-.004.004ZM5.141 5.3l.06.142-.12-.082.06-.06Zm6.713-2.382h.03a6.066 6.066 0 0 0-2.843.765l1.013 1.748.045-.188-.06-.176.281-.671v-.428h.135l.169-.24.198-.06.02-.225.27-.33.127.064.555-.199.056-.06h.004ZM5.505 4.725v.15h-.008v.015l-.12-.011-.01-.075.003-.03v-.012l.135-.037Zm-.049-.371-.079.183-.037-.082v-.011l.116-.09Zm8.775-1.013.263.225.285.023a5.05 5.05 0 0 0-.544-.248h-.004ZM12.11.206v2.509a6.21 6.21 0 0 1 1.556.217l.049-.026v.041c.476.135.93.323 1.35.56L16.32 1.33A8.756 8.756 0 0 0 12.109.206Zm-.101 0a8.775 8.775 0 0 0-4.313 1.125l1.256 2.175a6.248 6.248 0 0 1 2.955-.791V.202h.101v.004Zm.982 2.786.424.094.007-.007a4.176 4.176 0 0 0-.431-.087Zm-.832-.075.58.135.087-.086a10.22 10.22 0 0 0-.675-.052l.008.003Z"/><path fill="#072B5F" d="m12.056 2.591.06.315.037.008h-.049V5.59a3.405 3.405 0 0 1 1.52.405l1.338-2.317a5.875 5.875 0 0 0-.18-.094l.075.004.225.034.18-.064-.026.045.138.086v.019l.12.075.008-.011.277.198.02.094.093.019-.023.161-.01.019h.033l.157-.075c.535.449.991.983 1.35 1.582l.544-.315v.02l.06.1.026.064-.528.304c.225.405.408.84.54 1.294l-.038.045.064.037c.142.516.217 1.048.225 1.583h.817l-.015.01.06.188h-.862v.004a6.248 6.248 0 0 1-.791 2.955l.675.386-.02.038-.06.139.282.146h-.041l-.938-.533a6.323 6.323 0 0 1-2.163 2.164l.15.255-.177.105-.15-.259a6.258 6.258 0 0 1-.79.375l-.083-.045-.042-.015-.075-.045h-.003l.067.038-.075-.03-.045-.026c.328-.113.646-.255.949-.424l-1.339-2.318a3.389 3.389 0 0 1-1.519.405v.345l-.052-.022-.15-.075v-.251a3.395 3.395 0 0 1-1.519-.405l-.412.716-.177-.098.417-.72a3.432 3.432 0 0 1-1.11-1.113l-1.377.795-.007-.045v-.105l-.038-.057 1.32-.76a3.394 3.394 0 0 1-.405-1.52h-1.92l-.026-.198h1.946A3.394 3.394 0 0 1 9 7.383l-.956-.55.075-.038.188-.045.795.458a3.422 3.422 0 0 1 1.11-1.11L9.98 5.7l.076-.274.326.57c.468-.252.988-.39 1.519-.405V2.914h-.049l.011-.008.113-.12-.038-.195h.117Zm2.08 12.222h.012l.038.026-.05-.026Zm.773-4.013c-.279.45-.659.83-1.11 1.11l1.34 2.318a6.14 6.14 0 0 0 2.092-2.093l-2.322-1.339v.004Zm-2.805-1.425v2.835c.496-.014.98-.143 1.418-.375l-1.418-2.46Zm-.202 0-1.418 2.456c.437.235.922.365 1.418.38V9.374Zm6.187-.274h-2.673a3.395 3.395 0 0 1-.41 1.52l2.322 1.338A6.078 6.078 0 0 0 18.09 9.1Zm-5.812.177 1.417 2.452c.422-.26.777-.615 1.04-1.035l-2.457-1.417Zm-.548 0-2.456 1.417c.262.42.618.774 1.039 1.035l1.417-2.452Zm-.1-.177H8.792c.015.514.15.994.379 1.418L11.628 9.1Zm3.584 0h-2.835l2.456 1.418c.225-.424.364-.904.38-1.418Zm-.379-1.616-2.46 1.418h2.835a3.166 3.166 0 0 0-.378-1.418h.003Zm-5.662 0a3.195 3.195 0 0 0-.375 1.418h2.827L9.168 7.485h.004Zm8.156-1.44-2.321 1.339c.253.467.393.987.409 1.519h2.673a6.067 6.067 0 0 0-.76-2.858Zm-7.016.225a3.225 3.225 0 0 0-1.039 1.04l2.456 1.417-1.417-2.456Zm3.382 0-1.417 2.456 2.46-1.413a3.225 3.225 0 0 0-1.039-1.04l-.004-.003Zm-1.792-.48c-.51.019-.994.15-1.418.383l1.418 2.456V5.79Zm.202 0v2.835l1.418-2.452a3.195 3.195 0 0 0-1.418-.383Zm-6 1.699-.09.049.094-.364-.079-.038.045-.1-.048.01c.018-.06.037-.123.063-.187h.214a7.227 7.227 0 0 0-.199.63Zm9.03-3.713-1.338 2.325c.45.279.83.657 1.11 1.107l2.32-1.34a6.161 6.161 0 0 0-2.092-2.088v-.004ZM5.224 4.97l.348.202.082.117.214.28.443.12v.016l.048-.075.075.037.177.218.12.135.06.067.67.32.12.06.038.037.147.168-1.088-.626a5.978 5.978 0 0 0-.356.769l-.011-.053h-.124l-.038-.067c.101-.258.219-.508.353-.75l-1.305-.75-.008-.026.02-.135.01-.064h.004Zm8.49-2.021.01.138.24.027.2.153h-.02v.023h.038l.022.019.034.03a6.55 6.55 0 0 0-.821-.263l.011-.007.233-.135.052.015Zm-.882.007.041.011.113.027-.12-.02-.038-.014.023.011h-.03l.01-.015Zm-.923-.037h-.007.007Zm.094-.004h-.094.094Z"/></g><defs><clipPath id="a"><path fill="#fff" d="M0 0h24v18H0z"/></clipPath></defs></svg>