<svg xmlns="http://www.w3.org/2000/svg" width="24" height="18" fill="none"><g clip-path="url(#a)"><path fill="#74ACDF" d="M0 0h24v18H0V0Z"/><path fill="#fff" d="M0 6h24v6H0V6Z"/><path fill="#F6B40E" d="m11.886 9.047 1.026 2.232s.018.043.046.032c.03-.014.011-.054.011-.054l-.853-2.304-.23.094Zm.205.774c-.014.338.194.525.17.828-.03.306.136.475.18.594.035.118-.048.187-.012.205.036.018.108-.076.087-.245-.025-.165-.152-.216-.123-.587.03-.37-.15-.457-.108-.792"/><path fill="#85340A" fill-rule="evenodd" d="m12.127 8.927.86 2.323v.002l.003.006a.089.089 0 0 1 .004.02c.001.015-.002.039-.027.051h-.002c-.027.01-.047-.006-.056-.017a.101.101 0 0 1-.012-.017l-.003-.006v-.002h-.001l-.59-1.285a.99.99 0 0 0 .05.199v.001c.036.11.074.228.06.416a.775.775 0 0 0 .086.468c.016.034.029.07.036.114a.375.375 0 0 1-.024.204.144.144 0 0 1-.038.053c-.015.011-.035.018-.053.009a.035.035 0 0 1-.019-.02.046.046 0 0 1 0-.025.147.147 0 0 1 .006-.021l.003-.009.005-.014a.197.197 0 0 0 .006-.128.7.7 0 0 0-.05-.096l-.001-.003a1.519 1.519 0 0 1-.066-.126.722.722 0 0 1-.064-.377c.012-.146-.032-.264-.08-.391a1.054 1.054 0 0 1-.09-.436l.04.002c-.007.164.04.293.087.42l.002.003c.046.125.093.25.08.405a.682.682 0 0 0 .062.358c.02.046.043.086.064.123l.001.002a.83.83 0 0 1 .052.103v.001a.237.237 0 0 1-.005.153l-.006.015c0 .003-.002.006-.003.008a.135.135 0 0 0-.004.016v.001a.024.024 0 0 0 .008-.004.104.104 0 0 0 .027-.039c.018-.038.03-.1.02-.181a.398.398 0 0 0-.032-.104 1.357 1.357 0 0 0-.015-.034c-.011-.023-.023-.047-.033-.074a.814.814 0 0 1-.042-.38.916.916 0 0 0-.058-.4.84.84 0 0 1-.057-.308l-.4-.87.269-.109Zm.171.971.006-.071-.039-.005v.003l-.353-.768.192-.078.846 2.286v.001l.002.004a.048.048 0 0 1 .002.01c0 .008 0 .011-.004.013-.002 0-.006 0-.011-.007a.062.062 0 0 1-.007-.01l-.002-.004v-.001l-.632-1.373Z" clip-rule="evenodd"/><path fill="#85340A" d="M12.156 9.879c.018.324.201.468.165.766.08-.234-.111-.417-.1-.763l-.065-.003Zm-.213-.854.702 1.534-.586-1.58"/><path fill="#F6B40E" d="M12 10.002a1.001 1.001 0 1 0 0-2.003 1.001 1.001 0 0 0 0 2.003Z"/><path fill="#85340A" fill-rule="evenodd" d="M12 8.025a.975.975 0 1 0 0 1.95.975.975 0 0 0 0-1.95ZM10.973 9a1.027 1.027 0 1 1 2.055 0 1.027 1.027 0 0 1-2.055 0Z" clip-rule="evenodd"/><path fill="#843511" d="M12.341 8.787a.2.2 0 0 0-.172.09c.075.07.247.075.364-.008a.263.263 0 0 0-.192-.082Zm0 .015c.064 0 .128.03.135.06-.075.086-.198.075-.277.015a.162.162 0 0 1 .142-.075Z"/><path fill="#85340A" d="M11.85 9.139a.072.072 0 0 0-.064.074.071.071 0 0 0 .132.034.15.15 0 0 0 .082.023h.008c.03.001.06-.006.086-.023a.071.071 0 0 0 .129-.038.071.071 0 0 0-.062-.074c.02.011.03.026.03.049a.046.046 0 0 1-.045.045.045.045 0 0 1-.045-.045.113.113 0 0 1-.097.063.112.112 0 0 1-.094-.063.045.045 0 0 1-.03.042.048.048 0 0 1-.063-.043c0-.022.01-.037.03-.044h.003Zm.075.206c-.079 0-.112.067-.18.112.038-.015.071-.045.124-.075.052-.03.101.008.131.008s.075-.038.131-.008c.053.03.087.06.124.075-.071-.045-.101-.112-.18-.112a.207.207 0 0 0-.075.022.205.205 0 0 0-.075-.026v.004Z"/><path fill="#85340A" d="M11.895 9.435a.567.567 0 0 0-.127.023c.138-.03.168.019.232.019.06 0 .09-.05.229-.02-.15-.044-.184-.014-.229-.014-.03 0-.052-.011-.105-.008Z"/><path fill="#85340A" d="M11.775 9.458h-.03c.161.018.086.112.255.112s.094-.094.255-.112c-.169-.015-.116.086-.255.086-.131 0-.09-.086-.225-.086Zm.364.25a.139.139 0 0 0-.278 0 .142.142 0 0 1 .278 0Zm-.762-.921c.176-.154.401-.18.525-.064a.3.3 0 0 1 .056.131c.015.086-.011.18-.079.278l.03.015a.548.548 0 0 0 .038-.44c-.169-.138-.401-.15-.57.076v.004Z"/><path fill="#85340A" d="M11.654 8.737c.102 0 .124.027.17.064.044.038.07.03.074.038.011.007 0 .03-.011.022a.35.35 0 0 1-.094-.06c-.045-.037-.094-.037-.139-.037-.138 0-.213.112-.232.105-.011-.008.079-.132.232-.132Z"/><path fill="#85340A" d="M11.66 8.933a.071.071 0 1 0 0-.143.071.071 0 0 0 0 .143Z"/><path fill="#85340A" d="M11.47 8.906c.132.101.263.094.338.049.075-.049.075-.064.06-.064s-.03.015-.09.049c-.064.03-.154.03-.307-.034Z"/></g><defs><clipPath id="a"><path fill="#fff" d="M0 0h24v18H0z"/></clipPath></defs></svg>