<svg xmlns="http://www.w3.org/2000/svg" width="24" height="18" fill="none"><g clip-path="url(#a)"><path fill="#006" d="M-14.025-.6h38.4v19.2h-38.4V-.6Z"/><path fill="#BD1021" fill-rule="evenodd" d="m-14.025 9 38.4 9.6V-.6l-38.4 9.6Z" clip-rule="evenodd"/><path fill="#fff" fill-rule="evenodd" d="M24.375.428v17.145L-9.91 9 24.375.428Z" clip-rule="evenodd"/><path fill="#9C3900" fill-rule="evenodd" d="M17.925 11.153s-.24-.195.045-.514c-.153-.127-.01-.379-.01-.379s-.263-.097.01-.502c-.198-.131-.112-.424-.112-.424s-.638-.24-.03-.469c-.503.218-.971-.296-.971-.296l-.728.023c-.124-.608-1.087-.08-.375-1.82-.184-.033-.39-.085-.6.065-.202.153-.791.48-1.14.153-.349-.326.225-.795.24-.806.011-.011.773-.405.881-.664-.01-.198-.25-.348-.033-.776.25-.401 1.788-.784 2.486-.915.204-.096.374-.251.487-.446l.08.285s1.548-.458 1.623-.675c.075-.218.034.195.034.195.607-.057 1.383-.578 1.492-.338.51-.097 1.493-.536 1.493-.536s.337-.011.097.36c.15.24-.045.45-.056.45-.008 0 .067.236-.128.367.064.207-.12.375-.12.375s.087.248-.262.376c.034.22-.195.262-.195.262s.03.229-.12.33c0 .173-.176.263-.176.263s.112.063-.045.172c-.572.366-1.15.723-1.733 1.069 0-.011 1.155.206 1.234.247.079.042.949.623.949.623l-.885 1.087s-.98-.105-1.024-.052c-.045.052.206.075.262.165.053.086.143.292.315.27.177-.019-.326.319-.652.349 0 .12.412.13.525.037.105-.101-.263.281-.308.338-.045.056.488-.08.488-.08s-.086.36-.551.47c.183.303.108.498.097.498-.011 0-.307-.3-.589-.247.075.292.304.562.372.607.063.045-.514.038-.59-.131-.074-.169-.142.394.065.57-.24.011-.447-.131-.447-.131s-.142.326-.045.487c.098.165-.337-.326-.337-.326l-.825.349-.188-.315Z" clip-rule="evenodd"/><path fill="currentColor" fill-rule="evenodd" d="m22.796 2.314-.014-.03h-.002l-.009.004-.032.014a14.522 14.522 0 0 1-.51.212c-.3.118-.658.247-.908.299a.137.137 0 0 0-.08-.052.338.338 0 0 0-.136 0 2.107 2.107 0 0 0-.372.115l-.102.039c-.25.096-.53.203-.782.235l.001-.02a2.03 2.03 0 0 0 .005-.174.15.15 0 0 0-.004-.022.058.058 0 0 0-.01-.024.038.038 0 0 0-.047-.01.057.057 0 0 0-.022.02.318.318 0 0 0-.026.062.088.088 0 0 1-.023.03.385.385 0 0 1-.056.044 1.5 1.5 0 0 1-.19.104c-.154.072-.353.15-.55.22a16.036 16.036 0 0 1-.716.235l-.034.01-.07-.251a.034.034 0 0 0-.061-.008c-.11.188-.273.338-.469.43-.35.067-.908.195-1.41.357a5.16 5.16 0 0 0-.684.267c-.191.095-.342.197-.41.306l-.002.003c-.112.22-.108.374-.071.499a1.09 1.09 0 0 0 .063.161c.02.045.034.085.038.125a.657.657 0 0 1-.17.192c-.085.072-.19.145-.291.21a6.04 6.04 0 0 1-.276.167l-.084.047-.006.003-.026.015a.367.367 0 0 0-.009.005l-.003.002-.004.003a1.352 1.352 0 0 0-.263.293.587.587 0 0 0-.1.275c-.006.1.027.2.122.289.187.175.436.172.657.111.22-.061.422-.184.526-.262.182-.13.36-.098.533-.066-.168.416-.239.702-.246.906-.009.213.052.339.143.427a.761.761 0 0 0 .147.106l.051.03c.034.018.066.036.097.057.092.06.168.134.197.274a.034.034 0 0 0 .034.027l.712-.022.012.012a1.308 1.308 0 0 0 .283.213.878.878 0 0 0 .462.124.217.217 0 0 0-.054.069c-.034.073 0 .14.045.188.046.048.11.087.162.114l.066.031a.614.614 0 0 0-.013.144.354.354 0 0 0 .12.268c-.124.192-.13.322-.095.408a.223.223 0 0 0 .084.1l-.006.014a.572.572 0 0 0-.034.107c-.016.075-.017.172.05.246-.13.156-.142.287-.116.383a.33.33 0 0 0 .09.15l.185.311c.01.015.027.02.043.014l.802-.34.003.003a11.497 11.497 0 0 0 .187.205 1.847 1.847 0 0 0 .145.138.055.055 0 0 0 .014.007c.004 0 .02.004.034-.008a.037.037 0 0 0 .012-.033.06.06 0 0 0-.004-.015.228.228 0 0 0-.015-.028.249.249 0 0 1-.03-.127c0-.05.008-.103.02-.152a1.134 1.134 0 0 1 .043-.141l.002.001a.952.952 0 0 0 .101.05.77.77 0 0 0 .328.064.034.034 0 0 0 .02-.06.35.35 0 0 1-.097-.17.806.806 0 0 1-.014-.35c.027.05.085.083.146.106a1.146 1.146 0 0 0 .416.058.223.223 0 0 0 .06-.011.058.058 0 0 0 .014-.007.041.041 0 0 0 .015-.02.038.038 0 0 0-.004-.032.048.048 0 0 0-.013-.014h-.001a.45.45 0 0 1-.07-.068 1.374 1.374 0 0 1-.104-.135 1.31 1.31 0 0 1-.173-.349.587.587 0 0 1 .335.105c.054.033.1.068.132.095l.033.026.007.006a.42.42 0 0 1 .006.005l.007.006.006.004.005.003c.001 0 .007.003.015.003a.036.036 0 0 0 .03-.016.066.066 0 0 0 .007-.012.407.407 0 0 0 .02-.142.76.76 0 0 0-.103-.34.79.79 0 0 0 .425-.277.68.68 0 0 0 .106-.201v-.004h.001V9.33l-.033-.008.033.008a.034.034 0 0 0-.04-.04h-.007l-.016.005a8.188 8.188 0 0 1-.237.054 2.144 2.144 0 0 1-.154.028l.153-.165.016-.016a10.515 10.515 0 0 0 .121-.134l.004-.012a.034.034 0 0 0-.048-.035l-.007.005a.268.268 0 0 1-.133.06.728.728 0 0 1-.168.01.463.463 0 0 1-.143-.026.155.155 0 0 1-.023-.012c.16-.027.345-.112.476-.19a.808.808 0 0 0 .164-.12.128.128 0 0 0 .02-.027.052.052 0 0 0 .005-.04.047.047 0 0 0-.035-.03.11.11 0 0 0-.037-.002c-.07.01-.125-.027-.173-.082a.864.864 0 0 1-.086-.131l-.023-.04a.208.208 0 0 0-.085-.069 1.02 1.02 0 0 0-.101-.041 1.535 1.535 0 0 1-.043-.017 6.325 6.325 0 0 1 .464.02 18.733 18.733 0 0 1 .483.045h.01l.004-.033-.003.034a.034.034 0 0 0 .03-.012l.884-1.088a.034.034 0 0 0-.007-.05l-.003.005.003-.004-.038-.025a44.53 44.53 0 0 0-.407-.271l-.323-.212a4.155 4.155 0 0 0-.184-.117 1.178 1.178 0 0 0-.083-.026 20.472 20.472 0 0 0-1.066-.212c.556-.33 1.106-.67 1.65-1.02h.001c.083-.057.11-.113.095-.164a.102.102 0 0 0-.014-.03.45.45 0 0 0 .057-.05.315.315 0 0 0 .098-.201.333.333 0 0 0 .116-.216.533.533 0 0 0 .007-.095V4.53a.346.346 0 0 0 .093-.047.244.244 0 0 0 .08-.093.25.25 0 0 0 .022-.126c.165-.067.234-.163.258-.249a.3.3 0 0 0 .005-.138.543.543 0 0 0 .076-.104.373.373 0 0 0 .046-.268.334.334 0 0 0 .129-.243.493.493 0 0 0-.003-.103l-.002-.02a.444.444 0 0 0 .084-.137.376.376 0 0 0-.024-.327.457.457 0 0 0 .08-.212.155.155 0 0 0-.057-.134.232.232 0 0 0-.105-.044.328.328 0 0 0-.054-.005h-.001v.034Zm.007.034-.004.002-.032.014a13.596 13.596 0 0 1-.513.213c-.31.122-.686.257-.944.306a.034.034 0 0 1-.037-.019c-.009-.02-.024-.031-.048-.038a.274.274 0 0 0-.11.001 2.098 2.098 0 0 0-.359.113l-.1.038c-.262.1-.568.218-.842.243a.034.034 0 0 1-.036-.037v-.01l.001-.007a2.406 2.406 0 0 0 .009-.126.456.456 0 0 1-.083.071c-.052.035-.12.072-.199.109a6.647 6.647 0 0 1-.557.223 16.055 16.055 0 0 1-.768.251l-.013.004-.005.001-.01-.032.01.032a.034.034 0 0 1-.042-.023l-.058-.211a1.14 1.14 0 0 1-.47.396c-.347.066-.904.194-1.406.355-.25.081-.486.17-.674.264-.19.093-.325.189-.382.28-.105.205-.098.34-.066.447.013.044.03.083.047.122l.013.032c.021.05.04.1.044.156 0 .006-.001.01-.003.015a.686.686 0 0 1-.191.224 2.93 2.93 0 0 1-.299.216 6.083 6.083 0 0 1-.278.168l-.085.048-.006.003a4.195 4.195 0 0 0-.033.019l-.002.002-.006.004a.98.98 0 0 0-.081.076 1.2 1.2 0 0 0-.16.194.52.52 0 0 0-.09.243c-.004.08.022.16.102.236.161.15.381.154.592.095.211-.059.405-.176.504-.251h.001c.208-.15.415-.11.588-.078l.038.008a.034.034 0 0 1 .025.046c-.178.433-.25.722-.257.92-.008.197.047.304.123.377a.697.697 0 0 0 .134.096l.048.027c.034.02.07.04.103.062a.471.471 0 0 1 .22.289l.7-.022c.009 0 .018.004.025.011m0 0 .001.001.004.004a.76.76 0 0 0 .073.07c.051.043.123.1.21.148.167.094.383.16.606.08l.04-.015a.034.034 0 0 1 .025.063.748.748 0 0 1-.04.016c-.123.05-.176.099-.194.136-.017.036-.005.073.033.113.038.04.095.075.144.101a.946.946 0 0 0 .085.039h.001m1.961-6.347Zm2.973-.607a.262.262 0 0 1 .037.003.165.165 0 0 1 .074.03c.019.015.034.039.032.079a.42.42 0 0 1-.08.196.034.034 0 0 0 0 .036c.067.109.057.21.029.285a.38.38 0 0 1-.07.114l-.003.003a.035.035 0 0 0-.013.011.037.037 0 0 0-.005.014v.02l.001.007.003.021a.428.428 0 0 1 .002.089.267.267 0 0 1-.119.208.034.034 0 0 0-.013.038.3.3 0 0 1-.034.238.475.475 0 0 1-.075.1l-.001.001.022.026m-.491.641v.01a.461.461 0 0 1-.004.109.26.26 0 0 1-.101.18.034.034 0 0 0-.015.028.244.244 0 0 1-.078.172.382.382 0 0 1-.074.057l-.005.003h-.001l.015.03-.016.03.001.001a.07.07 0 0 1 .007.006c.006.005.01.011.012.018.003.009.007.039-.067.09a58.76 58.76 0 0 1-1.73 1.067.034.034 0 0 0 .02.064h.005a6.84 6.84 0 0 1 .167.027 26.628 26.628 0 0 1 .824.162 4.981 4.981 0 0 1 .197.047.16.16 0 0 1 .02.007c.019.01.086.052.18.113a52.688 52.688 0 0 1 .729.483l.007.004-.85 1.045a17.408 17.408 0 0 0-.83-.065 1.415 1.415 0 0 0-.168.007.105.105 0 0 0-.018.005.052.052 0 0 0-.032.039c-.002.01 0 .02.004.03a.077.077 0 0 0 .031.031c.021.013.052.024.082.035h.003a.88.88 0 0 1 .095.04.14.14 0 0 1 .057.044l.02.033c.023.042.055.1.096.146.049.058.116.11.205.108a.93.93 0 0 1-.132.092c-.143.085-.345.174-.5.188a.034.034 0 0 0-.031.034c0 .052.044.083.087.1a.528.528 0 0 0 .165.032.79.79 0 0 0 .183-.011l.005-.001-.004.004-.018.019a7.27 7.27 0 0 0-.193.21c-.005.007-.019.027-.004.049a.041.041 0 0 0 .018.015l.014.004a.237.237 0 0 0 .059-.001c.045-.005.109-.017.173-.03l.179-.041.021-.005a.614.614 0 0 1-.075.125.736.736 0 0 1-.43.263.034.034 0 0 0-.022.05c.09.147.115.266.117.347a.363.363 0 0 1-.005.08l-.021-.018a1.35 1.35 0 0 0-.14-.1c-.112-.07-.266-.137-.42-.108a.034.034 0 0 0-.026.041c.04.152.117.296.194.407a1.449 1.449 0 0 0 .146.181 1.116 1.116 0 0 1-.38-.053c-.063-.024-.1-.052-.114-.08a.125.125 0 0 0-.02-.033.053.053 0 0 0-.036-.019.05.05 0 0 0-.039.017.098.098 0 0 0-.017.028.498.498 0 0 0-.026.176c0 .073.009.158.031.236a.5.5 0 0 0 .064.143.748.748 0 0 1-.317-.103.608.608 0 0 1-.028-.017l-.004-.003h-.002v-.001l-.019.028m1.594-2.274Zm1.882-6.37V2.28a.034.034 0 0 0-.014.003l.014.031Zm-.96 2.783-.016.029a.034.034 0 0 1 0-.06M20.353 8.27Zm-1.415 2.85.026-.022a.034.034 0 0 0-.039-.009l-.798.337-.172-.29-.029.018.021-.026-.001-.002c-.002 0-.003-.003-.006-.005a.262.262 0 0 1-.066-.113c-.02-.076-.014-.193.122-.345a.034.034 0 0 0-.004-.049c-.062-.052-.067-.13-.051-.204a.5.5 0 0 1 .047-.13v-.002h.001a.034.034 0 0 0-.017-.048h-.002l-.006-.004a.156.156 0 0 1-.07-.078c-.025-.059-.029-.172.105-.37a.034.034 0 0 0-.01-.047c-.086-.057-.112-.15-.115-.235a.536.536 0 0 1 .017-.15v-.001l-.032-.01" clip-rule="evenodd"/><path fill="#FFC221" fill-rule="evenodd" d="M11.524 10.504c.019 0 1.204-.019 1.747-.33.176.269.391.51.638.716l.176-.619s.428.02.465.113c-.056.12-.075.274-.075.274s.289.022.311.06c.02.037-.078.367-.078.367l1.24.293s.098-.488.196-.428c.097.06.525.66 1.125.698.6.037.637-.503.637-.503l.14.075s.25-.54.292-.54c.04 0 .093.075.423.075.098.116.14.39.14.39s-.372.368-.256.66c.116.293.139.214.139.214l2.677.637s.135.214-.097.33c0 .02-2.7-.618-2.7-.618s-.251.288-.446.232c-.195-.056-.057.113-.057.113l2.91.236s.214.27.06.349c-.195.018-3.146-.195-3.146-.195s-.172.37-.367.06c-.135.213-.293-.06-.293-.06s-.251.195-.289-.02c-.213.158-.348-.097-.348-.097l-1.245-.075-.075.113s.213.06-.117.195c-.33.139 1.98.079 2.037.097.06.023-.154.195-.154.195s1.181.075 1.395-.172c.214-.255-.075.33-.075.33s.93-.038.93-.079-.019.289-.66.251c.274.17.568.307.874.41 0 0-.488.112-1.05-.02.097.252.525.484.525.484s-.312.27-1.01-.39c.196.353.038.488.02.45a1.8 1.8 0 0 0-1.125-.701c.487.311.273.45.273.45s-.255-.45-.66 0c-.157-.413-.757-.645-1.496-.683-.232-.27-.367-.195-.911-.348-.311-.35-.758-.74-.758-.74s.02-.524.544-.464c.06.176.06.116.06.116s.581-.214.754.075c.255-.442.6-.064.66.09.169.026 1.012.049 1.012.049s-.1-.176-.037-.154c.056.019.521-.176.502-.232-.022-.06-.037-.255.038-.237.075.023-.66-.093-1.069.214-.135-.135-.037-.502-.037-.502l-1.2-.252-.06.308s-.353.06-.33-.019l-.08.274s-.464-.116-.464-.139c0-.022.135-.697.135-.675 0 .015-.39.038-.93.443-.158-.488-1.38-1.125-1.38-1.144Z" clip-rule="evenodd"/><path fill="currentColor" fill-rule="evenodd" d="m13.283 10.127.018.028c.164.25.362.477.589.672l.169-.592.028.001-.002.036.002-.036h.005l.014.001a2.066 2.066 0 0 1 .367.056.305.305 0 0 1 .065.03.107.107 0 0 1 .045.048l.006.014-.007.014a.858.858 0 0 0-.066.227h.008a2.587 2.587 0 0 1 .213.032.308.308 0 0 1 .062.023c.005.004.013.01.018.019l.001.002a.063.063 0 0 1 .006.024.503.503 0 0 1-.007.072 4.715 4.715 0 0 1-.06.245l-.005.016 1.17.276a2.086 2.086 0 0 1 .054-.204.766.766 0 0 1 .066-.158.157.157 0 0 1 .046-.052.068.068 0 0 1 .074-.001c.017.01.037.03.059.05l.052.055.029.03c.063.065.143.145.239.225.192.16.441.314.73.332.287.018.434-.1.512-.22a.588.588 0 0 0 .085-.229l.002-.015v-.005l.005-.055.154.083.024-.05.091-.187a3.72 3.72 0 0 1 .1-.187.757.757 0 0 1 .059-.086.071.071 0 0 1 .012-.01.044.044 0 0 1 .023-.006c.018 0 .036.008.05.014l.003.001c.016.007.034.015.06.024.056.017.148.036.31.036h.017l.01.012c.055.065.091.17.114.253.011.042.02.08.025.109l.006.033a.534.534 0 0 1 .002.01v.003l-.035.005.035-.005.003.018m-.013.013-.002.002-.001.001-.012.012a1.275 1.275 0 0 0-.15.198c-.078.127-.133.279-.082.408a1.435 1.435 0 0 0 .09.187l2.716.646.007.012-.03.02.03-.02.001.002.002.002.004.008a.358.358 0 0 1 .037.127.23.23 0 0 1-.027.127.286.286 0 0 1-.126.114l-.012.005h-.019a3.148 3.148 0 0 1-.216-.044.66.66 0 0 1 .057.101.323.323 0 0 1 .03.133.132.132 0 0 1-.074.117l-.006.004h-.007a2.138 2.138 0 0 1-.196-.003 118.799 118.799 0 0 1-1.456-.087l-1.036-.072-.337-.023-.094-.007-.01-.001a.427.427 0 0 1-.11.137.177.177 0 0 1-.146.043.24.24 0 0 1-.134-.096.158.158 0 0 1-.096.055.167.167 0 0 1-.12-.037.395.395 0 0 1-.077-.078l-.008-.011a.64.64 0 0 1-.11.054.18.18 0 0 1-.121.003.126.126 0 0 1-.069-.07.242.242 0 0 1-.125.03.236.236 0 0 1-.13-.047.374.374 0 0 1-.093-.102l-1.206-.073-.04.06c.016.01.036.026.046.05.013.035-.002.07-.034.1a.5.5 0 0 1-.138.081c.032.006.075.011.13.016.17.014.428.02.7.022.249.002.508.001.718 0h.056a27.89 27.89 0 0 1 .38.003c.004 0 .013 0 .02.003h.001c.01.004.018.01.025.02a.05.05 0 0 1 .009.029.09.09 0 0 1-.014.043.423.423 0 0 1-.061.073 1.034 1.034 0 0 1-.035.032l.099.004c.113.003.267.005.427-.002.16-.005.326-.02.464-.046.069-.014.13-.031.18-.051a.286.286 0 0 0 .108-.069.363.363 0 0 1 .065-.066.078.078 0 0 1 .016-.008.047.047 0 0 1 .025-.002.042.042 0 0 1 .034.037c.002.011 0 .023 0 .032a.957.957 0 0 1-.037.113 3.4 3.4 0 0 1-.093.209 17.937 17.937 0 0 0 .723-.046 1.277 1.277 0 0 0 .12-.02c.001-.001.005-.007.013-.01a.035.035 0 0 1 .037.003c.008.006.011.014.012.016l.002.01v.006a.04.04 0 0 1-.008.024.306.306 0 0 1-.094.128c-.08.068-.218.132-.46.138.24.136.49.25.752.336l.081.028-.076.038-.016-.032.007.032v.003h-.001l-.005.001-.017.004a2.484 2.484 0 0 1-.297.036c-.177.01-.415.008-.672-.044.058.094.158.184.255.257a2.16 2.16 0 0 0 .204.135l.013.008.004.001v.001l.046.025-.039.033-.023-.027.023.027-.002.002-.004.003a.232.232 0 0 1-.064.034.449.449 0 0 1-.2.022c-.154-.014-.372-.095-.66-.339a.44.44 0 0 1 .022.24.178.178 0 0 1-.05.093.074.074 0 0 1-.038.02.05.05 0 0 1-.027-.004.046.046 0 0 1-.02-.018 1.765 1.765 0 0 0-.927-.645c.13.106.18.193.187.262a.155.155 0 0 1-.058.139l-.003.002h-.001l-.02-.029.02.03-.032.02-.019-.032v-.001l-.002-.003a.702.702 0 0 0-.04-.054.393.393 0 0 0-.12-.097.256.256 0 0 0-.184-.018.547.547 0 0 0-.256.179l-.04.043-.02-.054c-.074-.194-.254-.35-.511-.462a2.787 2.787 0 0 0-.954-.198h-.015l-.01-.012a.678.678 0 0 0-.156-.14.58.58 0 0 0-.165-.067 2.794 2.794 0 0 0-.164-.035l-.067-.014a4.464 4.464 0 0 1-.342-.082l-.01-.003-.007-.007a8.345 8.345 0 0 0-.493-.498l-.187-.172-.054-.049-.015-.013-.004-.003-.001-.001.023-.027-.035-.001v-.007a.54.54 0 0 1 .012-.08.64.64 0 0 1 .067-.184.447.447 0 0 1 .177-.177.544.544 0 0 1 .327-.051l.023.002.007.022a.85.85 0 0 0 .033.087l.007-.002a1.511 1.511 0 0 1 .295-.064.755.755 0 0 1 .263.013c.068.018.132.05.18.105a.4.4 0 0 1 .192-.165.297.297 0 0 1 .228.017.563.563 0 0 1 .176.136c.04.045.072.093.09.133.098.011.33.023.547.03l.308.011.073.003a.716.716 0 0 1-.015-.034.211.211 0 0 1-.019-.067c0-.009 0-.03.018-.043.017-.014.037-.01.048-.007h.004l.018-.003a1.876 1.876 0 0 0 .39-.163.264.264 0 0 0 .043-.03v-.002a.498.498 0 0 1-.008-.201 2.756 2.756 0 0 0-.267 0c-.224.012-.5.06-.696.207l-.025.018-.022-.021a.288.288 0 0 1-.073-.155.719.719 0 0 1-.007-.175 1.241 1.241 0 0 1 .025-.17l-1.13-.237-.057.296-.024.004-.006-.035.006.035h-.005l-.011.003a1.972 1.972 0 0 1-.162.018.554.554 0 0 1-.14-.008l-.072.25-.034-.008.009-.035-.009.035-.005-.002-.015-.003-.053-.014a11.516 11.516 0 0 1-.321-.09.752.752 0 0 1-.075-.029.064.064 0 0 1-.011-.008.038.038 0 0 1-.012-.028l.002-.017a7.586 7.586 0 0 1 .067-.344 32.761 32.761 0 0 1 .053-.263l-.012.002c-.044.01-.109.027-.19.056a2.468 2.468 0 0 0-.658.362l-.04.03-.015-.047c-.036-.113-.137-.24-.273-.367a3.925 3.925 0 0 0-.462-.362 8.496 8.496 0 0 0-.515-.325l-.01-.005-.051-.03a1.504 1.504 0 0 1-.04-.025c-.005-.004-.01-.006-.013-.01a.06.06 0 0 1-.007-.005.039.039 0 0 1-.01-.026h.035v-.036h.056a7.207 7.207 0 0 0 .617-.048c.366-.043.792-.125 1.057-.277l.029-.017m-1.64.41.003.003.01.005.08.048c.117.07.275.167.439.279.163.112.333.239.471.37.122.114.223.234.274.35.258-.186.48-.288.64-.344a1.837 1.837 0 0 1 .252-.07.035.035 0 0 1 .057.03 27.021 27.021 0 0 0-.132.657c.012.002.027.008.046.014l.158.046.16.042.038.01.07-.24.068.02v-.01a.013.013 0 0 0-.005-.005l.005.002a.49.49 0 0 0 .12.006 1.67 1.67 0 0 0 .146-.016l.062-.319 1.272.267-.01.036v.004a1.451 1.451 0 0 1-.013.053 1.167 1.167 0 0 0-.018.137.648.648 0 0 0 .006.157.255.255 0 0 0 .035.094c.21-.145.49-.19.707-.201a2.817 2.817 0 0 1 .319.002h.006a.07.07 0 0 1 .039-.001h.001l.012.005.007.005c.003.003.01.01.012.022a.036.036 0 0 1-.025.04.045.045 0 0 1-.015.001h-.011a.147.147 0 0 0-.01.052.403.403 0 0 0 .016.133v.002a.05.05 0 0 1-.004.04.096.096 0 0 1-.019.023.33.33 0 0 1-.055.04 1.942 1.942 0 0 1-.343.153.656.656 0 0 1-.095.024.74.74 0 0 0 .034.074l.01.018.003.006h.001v.001l.032.055-.064-.001.001-.036v.036h-.01l-.027-.001a176.29 176.29 0 0 0-.407-.014 7.9 7.9 0 0 1-.574-.035l-.02-.003-.007-.019a.478.478 0 0 0-.086-.13.493.493 0 0 0-.153-.119.226.226 0 0 0-.174-.014c-.059.02-.122.072-.183.178l-.03.053-.032-.052a.264.264 0 0 0-.169-.118.683.683 0 0 0-.238-.011 1.373 1.373 0 0 0-.28.06l-.008.003a.038.038 0 0 1-.018.015c-.021.009-.037-.005-.042-.009a.079.079 0 0 1-.013-.018 1.11 1.11 0 0 1-.04-.099.461.461 0 0 0-.264.046.376.376 0 0 0-.149.149.565.565 0 0 0-.069.222l.007.006a7.759 7.759 0 0 1 .243.222 8.5 8.5 0 0 1 .49.494 4.414 4.414 0 0 0 .392.091c.064.013.12.024.17.037.068.018.127.04.185.075a.728.728 0 0 1 .162.143c.366.02.7.088.963.202.246.108.434.258.528.451a.57.57 0 0 1 .253-.16.327.327 0 0 1 .233.023.461.461 0 0 1 .166.143.086.086 0 0 0 .007-.047c-.006-.056-.061-.16-.303-.315l.025-.065c.452.082.857.331 1.134.697a.131.131 0 0 0 .02-.048c.015-.061.01-.174-.085-.345l.055-.044c.346.327.59.42.745.433a.378.378 0 0 0 .167-.018l-.014-.009a2.173 2.173 0 0 1-.16-.109c-.12-.09-.259-.216-.312-.351l-.024-.063.066.015a2.548 2.548 0 0 0 .9.041 4.238 4.238 0 0 1-.75-.366l.02-.066c.315.018.47-.054.545-.118a.296.296 0 0 0 .04-.04l-.069.008c-.088.009-.204.017-.32.025l-.321.017-.106.005a1.694 1.694 0 0 0-.03.001h-.01l-.001-.035-.032-.016v-.001l.003-.005.009-.018a5.86 5.86 0 0 0 .114-.258.371.371 0 0 1-.127.08c-.055.022-.122.04-.193.054a3.175 3.175 0 0 1-.475.049 6.67 6.67 0 0 1-.608-.006h-.013l.002-.036-.002.035-.092-.006.072-.057.002-.002.006-.005a1.097 1.097 0 0 0 .13-.127l-.08-.002h-.327c-.21.002-.47.003-.719 0a10.802 10.802 0 0 1-.704-.022.86.86 0 0 1-.19-.03.094.094 0 0 1-.029-.016.047.047 0 0 1-.017-.043.055.055 0 0 1 .023-.034.155.155 0 0 1 .03-.017.51.51 0 0 0 .147-.08.054.054 0 0 0 .016-.02v-.002c-.001-.003-.007-.01-.02-.017a.13.13 0 0 0-.016-.007h-.003l-.002-.001h-.001l-.047-.014.113-.17 1.286.077.01.018v.002a.353.353 0 0 0 .083.094.168.168 0 0 0 .09.034.192.192 0 0 0 .122-.045l.046-.034.01.057c.008.046.026.06.04.066.017.007.042.006.073-.004a.397.397 0 0 0 .117-.064l.002-.001.033-.025.02.035v.001l.001.001a.324.324 0 0 0 .085.097c.025.019.048.027.068.024.02-.002.047-.016.077-.064l.03-.048.03.048c.047.074.088.1.118.106.029.006.058-.005.087-.028a.36.36 0 0 0 .094-.12.223.223 0 0 0 .005-.01l.002-.004.01-.022.025.001-.003.036.003-.036.033.003.094.006a422.045 422.045 0 0 0 1.373.096 116.078 116.078 0 0 0 1.454.087c.09.004.152.005.179.004a.06.06 0 0 0 .03-.054.24.24 0 0 0-.024-.1.672.672 0 0 0-.074-.126l-2.91-.236-.01-.012.028-.022-.027.022-.002-.002-.001-.002-.004-.004a.241.241 0 0 1-.045-.082.086.086 0 0 1-.003-.04.06.06 0 0 1 .03-.042.097.097 0 0 1 .052-.01.33.33 0 0 1 .066.013.206.206 0 0 0 .13-.012.57.57 0 0 0 .136-.077 1.043 1.043 0 0 0 .142-.13l.002-.002.014-.017.021.005-.008.035.008-.035.03.007.086.02.306.072a488.511 488.511 0 0 0 1.856.431 27.783 27.783 0 0 0 .39.085l.016.002a.21.21 0 0 0 .09-.081.16.16 0 0 0 .018-.089.244.244 0 0 0-.026-.092l-2.643-.63a.046.046 0 0 1-.03.006.062.062 0 0 1-.03-.015.249.249 0 0 1-.05-.07 1.516 1.516 0 0 1-.073-.16c-.065-.164.007-.342.087-.472a1.344 1.344 0 0 1 .163-.213 1.237 1.237 0 0 0-.03-.13.7.7 0 0 0-.088-.213 1.068 1.068 0 0 1-.314-.04.607.607 0 0 1-.067-.025l-.003-.001a.363.363 0 0 0-.014-.006 10.233 10.233 0 0 0-.23.433.507.507 0 0 1-.028.06l-.008.017-.002.005v.001l-.033-.015.032.015-.016.035-.127-.07a.674.674 0 0 1-.091.23c-.091.14-.263.273-.576.253-.311-.02-.575-.184-.772-.348a3.146 3.146 0 0 1-.244-.23.297.297 0 0 0-.03-.031l-.05-.053a.363.363 0 0 0-.044-.04.092.092 0 0 0-.024.03.702.702 0 0 0-.06.141 2.275 2.275 0 0 0-.055.213l-.003.015v.003l-.001.002-.007.036-1.314-.31.01-.036.002-.003v-.004l.003-.007a5.146 5.146 0 0 0 .069-.276.43.43 0 0 0 .006-.043v-.005a1.09 1.09 0 0 0-.135-.028 2.49 2.49 0 0 0-.133-.015h-.012l-.038-.004.005-.037.035.005-.035-.005v-.007a1.183 1.183 0 0 1 .068-.258.24.24 0 0 0-.059-.028.956.956 0 0 0-.15-.032 2.332 2.332 0 0 0-.187-.02l-.184.645-.042-.035a3.276 3.276 0 0 1-.626-.697c-.28.15-.701.228-1.055.27-.233.028-.44.04-.563.045Zm7.033 1.871a1.201 1.201 0 0 1-.14.127.641.641 0 0 1-.154.087.277.277 0 0 1-.174.014.23.23 0 0 0-.058-.01.175.175 0 0 0 .03.054l2.546.206a179.664 179.664 0 0 1-1.648-.383l-.306-.072-.057-.014-.039-.009Zm-.222 1.262-.032-.016-.027.054.06-.002-.001-.036Zm-4.444-1.264L14 12.38l.01.025Zm2.403.072v.001Zm-.027.022Zm-2.569-1.324Zm-.41 1.58-.036-.002v.017l.012.01.023-.026Zm1.841.506h.001Z" clip-rule="evenodd"/><path fill="currentColor" fill-rule="evenodd" d="m14.19 11.797.25-1.125.07.016-.25 1.125-.07-.016Zm.553-.686-.075.371-.07-.014.075-.371.07.014Zm1.24.3-.112.345-.068-.022.112-.345.068.022Zm2.65.968.075-.349.07.015-.075.349-.07-.015Zm-4.718.108.05.02c.202.084.424.11.64.077l.029-.005.126.339-.065.028.005.007.001.001H14.7l-.003-.002a2.081 2.081 0 0 0-.113-.049l-.084-.033a11.26 11.26 0 0 1-.182-.072 2.756 2.756 0 0 1-.266-.122.572.572 0 0 1-.092-.06.175.175 0 0 1-.03-.033.078.078 0 0 1-.015-.043v-.053Zm.212.148c.063.032.14.065.218.097.062.025.124.05.18.071l.086.034.05.02-.074-.199a1.26 1.26 0 0 1-.46-.023Zm-.263.289.117.028c.089.02.236.07.361.114l.093.032.072.025a2.53 2.53 0 0 0 .068.022h.027l.074.337-.054-.01c-.333-.069-.478-.236-.601-.38l-.074-.081-.083-.087Zm.714.222Zm-.497-.092c.114.131.236.268.502.335l-.04-.179-.005-.001a3.351 3.351 0 0 1-.054-.019l-.072-.025-.093-.032a8.46 8.46 0 0 0-.238-.079Zm1.053.343-.012-.008-.01-.005a.028.028 0 0 0-.012-.005.036.036 0 0 0-.04.017.036.036 0 0 0-.003.03l.004.008a.066.066 0 0 0 .009.01.1.1 0 0 0 .03.017l.004.001.041.027.017.011c.054.036.128.085.206.134.086.054.18.11.259.15.04.02.077.035.109.046a.258.258 0 0 0 .045.01c.014.002.03.002.044-.002l.028-.009-.044-.41h-.033v.036-.036h-.007l-.02.001a11.435 11.435 0 0 1-.29.002 3.122 3.122 0 0 1-.23-.01.735.735 0 0 1-.095-.015Zm.136.09.136.086c.086.054.176.108.253.147a.743.743 0 0 0 .116.047l-.03-.275a8.063 8.063 0 0 1-.475-.006Zm-.152-.096Zm-.04.055Zm1.875.002.052-.05.056.574-.062-.04.02-.03-.02.03v-.001h-.002l-.005-.004a1.793 1.793 0 0 0-.088-.056 6.67 6.67 0 0 0-.216-.129 2.783 2.783 0 0 0-.295-.146h-.02c-.026 0-.05 0-.064-.002a.06.06 0 0 1-.015-.005c-.003-.002-.022-.012-.021-.035 0-.01.005-.018.008-.023a.044.044 0 0 1 .01-.008.068.068 0 0 1 .013-.007.093.093 0 0 1 .04-.005.234.234 0 0 1 .06.013 3.413 3.413 0 0 0 .514-.063.219.219 0 0 0 .027-.01l.008-.003Zm-.405.138c.056.028.117.06.175.094.082.047.16.095.219.13l.034.022-.03-.306-.009.003c-.026.007-.06.014-.096.02a3.494 3.494 0 0 1-.248.033l-.045.004Zm1.54.142a.15.15 0 0 1 .014-.001h.022l.245.487.005.006c.01.012.018.03.018.049l-.067.016-.015-.03a.75.75 0 0 0-.129-.084 3.74 3.74 0 0 0-.341-.15 11.03 11.03 0 0 0-.33-.122l-.053-.019-.045-.016a.44.44 0 0 1-.028-.01l-.008-.006a.066.066 0 0 1-.006-.008.059.059 0 0 1-.005-.019c0-.024.022-.032.025-.033l.01-.002h.005l.003.001.005.001a1.544 1.544 0 0 0 .129-.002c.066-.005.149-.013.23-.022.08-.008.16-.018.22-.025l.02-.002.054-.006.022-.003Zm.156.396-.163-.324a.49.49 0 0 1-.007.001l-.053.006-.02.003a20.349 20.349 0 0 1-.408.043c.079.028.175.064.273.102a3.803 3.803 0 0 1 .378.17Z" clip-rule="evenodd"/><path fill="#FFC221" fill-rule="evenodd" d="M13.039 8.914s-.814.698 0 1.106c.037-.273.097-.31.097-.31s.675.25 1.088-.35c-.176-.255-.488-.157-.488-.157s-.637 0-.697-.289Z" clip-rule="evenodd"/><path fill="currentColor" fill-rule="evenodd" d="m13.062 8.848.012.06c.012.058.054.105.117.143a.772.772 0 0 0 .227.081 1.644 1.644 0 0 0 .324.033.58.58 0 0 1 .175-.014c.107.008.24.05.336.19l.014.02-.014.02a.913.913 0 0 1-.726.415 1.136 1.136 0 0 1-.379-.045.216.216 0 0 0-.014.026.933.933 0 0 0-.06.248l-.007.05-.044-.022c-.21-.106-.32-.232-.361-.367a.542.542 0 0 1 .04-.386c.052-.118.131-.22.196-.294a1.509 1.509 0 0 1 .108-.11l.007-.006.002-.002.024.026-.023-.027.046-.039Zm-.039.13a1.14 1.14 0 0 0-.257.351.473.473 0 0 0-.036.336c.031.102.113.207.281.3a.884.884 0 0 1 .058-.217.236.236 0 0 1 .04-.063.062.062 0 0 1 .005-.003l.002-.002h.001l.02.03-.02-.03.015-.01.017.006h.001l.005.002a.647.647 0 0 0 .1.026c.068.014.162.026.268.02a.839.839 0 0 0 .657-.363.364.364 0 0 0-.269-.14.509.509 0 0 0-.163.016h-.001l-.005.002h-.006v-.036.036h-.002a1.245 1.245 0 0 1-.1-.005 1.716 1.716 0 0 1-.231-.032.84.84 0 0 1-.248-.09.327.327 0 0 1-.132-.134Z" clip-rule="evenodd"/><path fill="currentColor" fill-rule="evenodd" d="m13.132 9.682.562-.483.047.054-.563.483-.046-.054Zm4.311 1.941.036-.001.035-.001v.019a.651.651 0 0 1-.037.19.343.343 0 0 1-.104.147.31.31 0 0 1-.21.063m-.214-.057-.006.033-.008.035h-.002a.15.15 0 0 1-.015-.005l-.009-.005c-.002 0-.01-.006-.015-.016a.037.037 0 0 1 .008-.044.043.043 0 0 1 .017-.01.69.69 0 0 1 .07-.006c.037 0 .093.001.176.004a.24.24 0 0 0 .164-.047.273.273 0 0 0 .081-.117.506.506 0 0 0 .033-.167v-.015m-1.967.946-.026.024.026-.024.001.001.002.002a.317.317 0 0 1 .057.104.29.29 0 0 1-.041.256l-.06.09-.025-.525.066.072Zm1.341.146-.39-.06.011-.07.39.06-.01.07Zm1.146.004.214-.019.006.071-.214.019-.006-.071Z" clip-rule="evenodd"/><path fill="currentColor" fill-rule="evenodd" d="m17.718 11.588.012-.034.011-.034h.001l.002.001.005.002a.267.267 0 0 1 .065.038.154.154 0 0 1 .045.059.121.121 0 0 1 .002.088.18.18 0 0 0-.007.038l-.004.037-.002.022a.844.844 0 0 1-.03.164.78.78 0 0 1-.319.413l-.006.004-.007.002a.367.367 0 0 1-.251-.02.265.265 0 0 1-.121-.138.458.458 0 0 1-.032-.198v-.014l.001-.005v-.001l.036.003.035.004v.004a.318.318 0 0 0 0 .055.388.388 0 0 0 .026.125.19.19 0 0 0 .088.102c.042.022.104.033.196.015a.704.704 0 0 0 .286-.372.772.772 0 0 0 .027-.15l.002-.02.004-.04a.26.26 0 0 1 .01-.053.05.05 0 0 0 0-.038.084.084 0 0 0-.024-.03.181.181 0 0 0-.047-.028h-.003v-.001Zm0 0Z" clip-rule="evenodd"/><path fill="currentColor" fill-rule="evenodd" d="m17.898 11.704-.407.672c-.003.027.017.058.072.08a.24.24 0 0 0 .042.01l.001.001a.3.3 0 0 0 .163-.016l-.013-.027.037.015a.42.42 0 0 0 .093-.087 1.096 1.096 0 0 0 .204-.4.474.474 0 0 0 .018-.183c-.008-.05-.026-.074-.042-.086a.096.096 0 0 0-.067-.013.272.272 0 0 0-.1.034Zm-.098.811a.22.22 0 0 0 .05.065l-.119.121-.084-.158c.048.001.1-.007.149-.026l.004-.002Zm-.246.012a.366.366 0 0 1-.016-.005c-.07-.027-.133-.085-.116-.165v-.006l.425-.7.007-.004.019.03-.019-.03h.001l.003-.002.008-.005a.42.42 0 0 1 .125-.04.166.166 0 0 1 .116.025c.03.021.053.055.065.102l.01-.006a.34.34 0 0 1 .092-.04.169.169 0 0 1 .12.01c.034.018.061.05.08.096h.003a.303.303 0 0 1 .053-.013.187.187 0 0 1 .15.038l.08.069-.266-.016a.615.615 0 0 1-.01.182 1.347 1.347 0 0 1-.185.462.426.426 0 0 1-.055.07.143.143 0 0 1-.04.028l.027.011-.101.028a.356.356 0 0 1-.204-.018l.068.09.021.402-.38.074-.022-.067s.003-.002.008-.012a.235.235 0 0 0 .017-.042.967.967 0 0 0 .026-.129 2.28 2.28 0 0 0 .013-.103l-.309.282a.082.082 0 0 1-.027.023l-.04-.058.014-.013a1.896 1.896 0 0 0 .055-.25l-.32.269a.069.069 0 0 1-.026.019l-.037-.06.01-.009a.13.13 0 0 0 .012-.026.663.663 0 0 0 .02-.093 3.2 3.2 0 0 0 .013-.084l.004-.025c.005-.035.01-.069.016-.093a.126.126 0 0 1 .015-.035l-.016-.002v-.008l.002-.021a.587.587 0 0 0 0-.064.198.198 0 0 0-.01-.057.039.039 0 0 0-.003-.008.343.343 0 0 0-.059.038.87.87 0 0 0-.116.115c-.08.097-.15.218-.155.326l-.072-.004c.007-.131.089-.267.173-.368a.94.94 0 0 1 .125-.125.417.417 0 0 1 .054-.037.11.11 0 0 1 .052-.017c.039 0 .059.03.068.053a.27.27 0 0 1 .015.08.6.6 0 0 1 0 .032.794.794 0 0 1 .149-.106.853.853 0 0 1 .033-.02h.002v-.001l.018.031-.018-.031.037-.02.071.205.127-.152Zm-.184.204-.053-.153a.952.952 0 0 0-.071.047.64.64 0 0 0-.077.063.14.14 0 0 0-.038.052.972.972 0 0 0-.015.086l-.003.024-.013.087a1.87 1.87 0 0 1-.005.025l.275-.23Zm.076.037v.002l-.003.039a1.948 1.948 0 0 1-.023.17l.255-.233-.082-.154-.147.176Zm-.398-.242h.001Zm.706.255v.002a3.366 3.366 0 0 1-.02.172 1.038 1.038 0 0 1-.033.154l.24-.047-.017-.318-.058-.078-.112.115Zm.387-.2-.271-.11a.579.579 0 0 0 .07-.074 1.246 1.246 0 0 0 .193-.347l.008.531Zm.06-.788.01.715a1.16 1.16 0 0 0 .13-.236c.031-.077.058-.16.072-.238a.459.459 0 0 0 .003-.197c-.015-.05-.037-.073-.055-.082a.098.098 0 0 0-.07-.005.273.273 0 0 0-.09.043Zm-.023-.034-.023.003.023-.003Zm-1.268.45.23-.016.004.071-.229.015-.005-.07Z" clip-rule="evenodd"/><path fill="#fff" fill-rule="evenodd" d="M13.065 8.918s.109-.109.142-.24c.03-.128-.045-.27.087-.39.13-.12 1.852-.851 1.995-.994.158-.158.303-.329.435-.51.033-.067.13.326-.165.499.318-.086.525-.184.656-.139-.131.184-.48.488-.645.488.382-.14.731-.263.829-.184.097.075-.47.457-.698.48.383-.098.893-.251.96-.086-.206.063-.142.12-.566.36a1.068 1.068 0 0 1-.326.052c.326-.034.772-.165.817.075-.262.101-.36.229-.577.285-.222.053-.72.15-1.028.274-.3.12-.75.469-.75.469s-.971.03-.971.018c0-.01-.188-.446-.195-.457Z" clip-rule="evenodd"/><path fill="currentColor" fill-rule="evenodd" d="M15.726 6.842a4.345 4.345 0 0 1-.412.477.32.32 0 0 1-.05.038c-.021.014-.048.03-.079.047a5.634 5.634 0 0 1-.234.12c-.183.091-.416.2-.649.308l-.089.041c-.201.094-.398.185-.556.261a6.985 6.985 0 0 0-.302.155.267.267 0 0 0-.037.025.21.21 0 0 0-.07.167l.002.061.001.037c0 .034 0 .07-.008.107a.558.558 0 0 1-.133.236l-.002.002v.002a5.837 5.837 0 0 1 .09.207 15.83 15.83 0 0 1 .087.207l.001.002h.126a31.465 31.465 0 0 0 .667-.017c.045 0 .083-.002.11-.003h.03l.011-.009a6.06 6.06 0 0 1 .244-.175c.15-.103.34-.222.494-.283.25-.101.626-.185.877-.24L16 8.58a.92.92 0 0 0 .279-.132c.073-.045.154-.095.264-.14a.118.118 0 0 0-.07-.063.478.478 0 0 0-.188-.02 2.276 2.276 0 0 0-.222.024 1.12 1.12 0 0 1-.294.04.036.036 0 0 1-.004-.07 4.45 4.45 0 0 0 .283-.04l.033-.01a2.17 2.17 0 0 0 .356-.24l.003-.003a.456.456 0 0 1 .16-.1.185.185 0 0 0-.067-.019.882.882 0 0 0-.228.014 5.761 5.761 0 0 0-.474.11.528.528 0 0 1-.126.032.036.036 0 0 1-.012-.07l.116-.03a1.959 1.959 0 0 0 .344-.185 1.13 1.13 0 0 0 .184-.15.179.179 0 0 0 .037-.054c-.014-.01-.042-.017-.09-.015a.96.96 0 0 0-.183.034c-.1.026-.217.065-.343.109a.38.38 0 0 1-.188.065.036.036 0 0 1-.012-.069l.17-.061a1.875 1.875 0 0 0 .423-.368.634.634 0 0 0-.184.03 2.99 2.99 0 0 0-.155.046l-.024.007a5.82 5.82 0 0 1-.22.065.036.036 0 0 1-.027-.065.383.383 0 0 0 .189-.311.389.389 0 0 0-.005-.099Zm.233.618c.043-.014.085-.026.124-.036a1 1 0 0 1 .197-.036c.054-.003.106.004.141.032.013.01.021.023.024.04.003.015 0 .03-.005.042a.245.245 0 0 1-.05.073c-.046.05-.117.107-.197.162l-.076.05a2.14 2.14 0 0 1 .177-.036.948.948 0 0 1 .247-.015c.067.008.129.032.154.092a.036.036 0 0 1-.023.048.465.465 0 0 0-.189.107c-.05.04-.115.095-.24.173l.039-.003a.545.545 0 0 1 .217.025c.063.025.109.07.123.145a.036.036 0 0 1-.023.04c-.12.046-.204.097-.283.146l-.017.01a.988.988 0 0 1-.281.13l-.161.036c-.251.056-.618.138-.862.236a2.85 2.85 0 0 0-.48.276 6.258 6.258 0 0 0-.257.184l-.003.003h-.001l-.022-.027v.035l-.041.001a95.999 95.999 0 0 1-.778.02h-.111a.745.745 0 0 1-.052-.003.036.036 0 0 1-.024-.027l-.001-.002a15.62 15.62 0 0 0-.158-.374l-.024-.052a.818.818 0 0 0-.006-.015l-.002-.004v.002l.03-.02a2.19 2.19 0 0 0-.025-.025l.001-.001.003-.003a.498.498 0 0 0 .051-.063.488.488 0 0 0 .078-.157.354.354 0 0 0 .007-.088l-.001-.033-.002-.069a.28.28 0 0 1 .141-.251l.077-.043c.06-.032.14-.071.23-.115.16-.077.357-.168.558-.262l.09-.04c.232-.109.464-.217.647-.307a5.596 5.596 0 0 0 .305-.164.26.26 0 0 0 .039-.028c.156-.157.3-.325.43-.504a.047.047 0 0 1 .026-.022.044.044 0 0 1 .042.01.073.073 0 0 1 .016.021.16.16 0 0 1 .01.025.477.477 0 0 1-.084.405l.063-.02.023-.007a5.01 5.01 0 0 1 .158-.047c.107-.03.202-.046.279-.02.01.004.019.013.022.023a.036.036 0 0 1-.005.032c-.062.087-.17.2-.285.295Zm-1.727 1.897v.035a.036.036 0 0 0 .021-.007l-.021-.028Zm-.936.018V9.37v.006Z" clip-rule="evenodd"/><path fill="currentColor" fill-rule="evenodd" d="m14.24 8.256-.033.023a2.18 2.18 0 0 1-.214.123 8.938 8.938 0 0 1-.209.105.432.432 0 0 1 .072.049c.021.018.043.04.06.068l.253-.117c0-.014 0-.028.002-.042a.518.518 0 0 1 .021-.084 1.19 1.19 0 0 1 .048-.125Zm-.297.433.31-.142-.01-.03a.1.1 0 0 1-.001-.042.461.461 0 0 1 .018-.073 1.587 1.587 0 0 1 .102-.238l.022-.048a.107.107 0 0 0 .007-.018v-.01c0-.002 0-.019-.016-.03-.017-.01-.033-.002-.036-.001a.04.04 0 0 0-.008.006 1.34 1.34 0 0 0-.031.04h-.001a.48.48 0 0 1-.131.116 2.113 2.113 0 0 1-.208.12l-.14.07-.068.035a.954.954 0 0 0-.139.078c-.06.046-.091.13-.107.195a.748.748 0 0 0-.019.121v.003l.036.002-.036-.002-.003.059.392-.18a.145.145 0 0 1-.005.057l.068.02a.212.212 0 0 0 .004-.108Zm-.093-.035a.23.23 0 0 0-.04-.044.372.372 0 0 0-.1-.06h-.001l.002-.005a.409.409 0 0 0-.054.033v.001c-.04.03-.066.091-.082.154a.672.672 0 0 0-.01.051l.285-.13Z" clip-rule="evenodd"/><path fill="currentColor" fill-rule="evenodd" d="M13.823 8.49a.15.15 0 1 0 0 .3.15.15 0 0 0 0-.3Zm-.149.002a.21.21 0 1 1 .297.297.21.21 0 0 1-.297-.297Z" clip-rule="evenodd"/><path fill="#fff" fill-rule="evenodd" d="m21.38 8.254 1.885.36s.207-.24.098-.371c.285-.064.206-.435.206-.435s.326-.143.056-.469c.188-.187-.045-.326-.045-.326s.075-.326-.16-.36c.063-.263-.413-.349-.413-.349s-.994.274-1.692.293c.225.228-.086.375-.086.375s.184.127.128.236c-.053.112.037.229-.207.307.315.14-.033.38-.033.38s.348.24.262.36Z" clip-rule="evenodd"/><path fill="currentColor" fill-rule="evenodd" d="m23.005 6.268.008.001-.006.035-.01-.034.008-.002Zm.455.357a.22.22 0 0 0-.05-.16.454.454 0 0 0-.158-.117.977.977 0 0 0-.233-.078h-.006v-.001l-.006.035-.01-.034h-.003a.5.5 0 0 1-.04.011 9.756 9.756 0 0 1-.539.127 6.63 6.63 0 0 1-1.1.153l-.082.002.057.059c.052.053.07.097.071.132a.142.142 0 0 1-.033.094.316.316 0 0 1-.114.091l-.056.027.05.035h.002l.005.005a.533.533 0 0 1 .072.066.209.209 0 0 1 .04.065.067.067 0 0 1-.002.054v.001a.287.287 0 0 0-.024.097l-.002.017c-.002.023-.003.04-.008.059a.115.115 0 0 1-.037.058.319.319 0 0 1-.115.058l-.089.03.086.037c.074.032.1.067.108.095.007.028-.001.06-.023.095a.429.429 0 0 1-.122.124l-.002.002-.043.03.042.03h.001l.003.002.01.007a1.408 1.408 0 0 1 .145.122c.038.036.07.074.088.109.018.035.017.056.007.07l-.032.045 1.96.374.014-.016-.027-.023.027.023h.001l.002-.003a.322.322 0 0 0 .03-.039.754.754 0 0 0 .062-.101.397.397 0 0 0 .042-.134.198.198 0 0 0-.012-.096.278.278 0 0 0 .127-.095.364.364 0 0 0 .064-.162.608.608 0 0 0 0-.18.337.337 0 0 0 .12-.113.254.254 0 0 0 .038-.168.43.43 0 0 0-.094-.205.24.24 0 0 0 .06-.128.198.198 0 0 0-.028-.126.314.314 0 0 0-.084-.09.587.587 0 0 0 .004-.156.294.294 0 0 0-.051-.139.208.208 0 0 0-.113-.077Zm.086.38v-.003l.002-.01a.468.468 0 0 0 .005-.142.223.223 0 0 0-.038-.105.144.144 0 0 0-.101-.057l-.039-.005.01-.039a.15.15 0 0 0-.031-.134.386.386 0 0 0-.133-.098.907.907 0 0 0-.213-.071h-.003a6.034 6.034 0 0 1-.156.04c-.104.027-.25.062-.42.097a7.066 7.066 0 0 1-1.04.151.237.237 0 0 1 .043.12.213.213 0 0 1-.047.142.387.387 0 0 1-.09.084l-.003.001c.015.014.032.03.049.05a.28.28 0 0 1 .053.088.138.138 0 0 1-.005.11.22.22 0 0 0-.017.072l-.001.014a.51.51 0 0 1-.011.074.186.186 0 0 1-.058.092.297.297 0 0 1-.069.045c.043.03.069.064.08.103a.192.192 0 0 1-.031.151.5.5 0 0 1-.106.118 1.108 1.108 0 0 1 .13.11.57.57 0 0 1 .1.128.162.162 0 0 1 .021.096l1.824.348a.657.657 0 0 0 .072-.113.326.326 0 0 0 .035-.11.113.113 0 0 0-.023-.086l-.037-.045.057-.013a.215.215 0 0 0 .132-.081.293.293 0 0 0 .05-.131.54.54 0 0 0 0-.167l-.002-.01v-.003l-.007-.03.027-.01v-.001h.002a.308.308 0 0 0 .111-.097.183.183 0 0 0 .027-.124.386.386 0 0 0-.097-.192l-.02-.025.022-.023c.043-.043.059-.08.062-.11a.127.127 0 0 0-.02-.08.244.244 0 0 0-.08-.08l-.022-.014.006-.025Z" clip-rule="evenodd"/><path fill="currentColor" fill-rule="evenodd" d="m15.131 5.586.027-.024.026-.024.002.002.006.006a1.791 1.791 0 0 1 .098.117c.063.078.146.188.227.313.081.126.161.268.217.411.055.143.087.29.07.424l-.07-.009a.824.824 0 0 0-.067-.39 2.244 2.244 0 0 0-.21-.397 3.737 3.737 0 0 0-.318-.421l-.006-.007-.001-.001Zm6.15 1.36-.005-.036.01.07 2.213-.287-.017-.042a.04.04 0 0 0-.02-.021.06.06 0 0 0-.014-.005.812.812 0 0 0-.101 0 5.213 5.213 0 0 0-.25.024c-.205.024-.476.06-.745.1a85.031 85.031 0 0 0-1.052.157l-.024.004.006.035Zm.076.238v.003-.003l.006.07h.001l2.285-.21-.026-.049a.037.037 0 0 0-.015-.014.044.044 0 0 0-.009-.004 1.382 1.382 0 0 0-.11 0 9.05 9.05 0 0 0-.257.018 147.054 147.054 0 0 0-1.78.178l-.07.008-.024.002h-.001Zm2.366.108-.046.067a.18.18 0 0 1-.064.053.628.628 0 0 1-.1.042c-.076.026-.177.05-.291.072-.23.045-.52.082-.806.112a25.291 25.291 0 0 1-.994.085l2.181.05-.001.07-2.321-.052.001-.071h.012l-.007-.06 2.436-.368Zm-1.42.286 1.104-.166c-.058.015-.125.03-.199.044a10.075 10.075 0 0 1-.904.122Zm-1.114.31.01-.07-.004.035.004-.036.072.009a570.1 570.1 0 0 0 1.366.156 25.299 25.299 0 0 0 .302.03c.025 0 .061.007.1.018a1.17 1.17 0 0 1 .264.111.27.27 0 0 1 .09.084l.039.066-2.243-.403Zm1.12.13.925.166a.896.896 0 0 0-.213-.085.374.374 0 0 0-.082-.016l-.101-.008a25.776 25.776 0 0 1-.529-.058Z" clip-rule="evenodd"/><path fill="currentColor" fill-rule="evenodd" d="M21.143 3.224c.119-.094.2-.21.2-.351v-.056l-1.573.744a.93.93 0 0 0 .084-.365l.002-.063-1.86 1.076a2.56 2.56 0 0 0 .196-.536l.02-.086-2.763 1.73.056.029.016-.032-.017.032h.002l.003.002a.363.363 0 0 0 .048.02.76.76 0 0 0 .13.037.5.5 0 0 0 .371-.061c.112-.074.442-.251.782-.422.34-.17.682-.332.822-.376.08-.026.15-.08.209-.15a.9.9 0 0 0 .072-.096l.007.017 1.612-.47.005-.005-.022-.028.022.028.002-.001.002-.003a.397.397 0 0 0 .041-.04.885.885 0 0 0 .101-.133h.007l.008-.001a3.89 3.89 0 0 0 .234-.033c.15-.025.352-.064.554-.122a2.17 2.17 0 0 0 .54-.223l.01.034.018-.005a36.452 36.452 0 0 0 .846-.246c.22-.068.447-.142.629-.209.09-.034.17-.066.233-.096a.898.898 0 0 0 .08-.043.255.255 0 0 0 .055-.042l-.052-.048a.19.19 0 0 1-.04.03.804.804 0 0 1-.074.039 2.95 2.95 0 0 1-.227.093c-.18.067-.404.14-.625.208a28.764 28.764 0 0 1-.765.223Zm-1.214.34a5.513 5.513 0 0 0 .568-.123c.199-.057.395-.132.54-.228.124-.082.206-.175.229-.281l-1.337.632Zm-.402.218a.855.855 0 0 0 .251-.523l-1.565.907 1.314-.384Zm-3.929 1.526c.028.01.063.02.102.027a.43.43 0 0 0 .319-.05c.116-.077.45-.256.789-.426.338-.17.686-.335.832-.381a.397.397 0 0 0 .177-.128c.054-.063.101-.141.142-.226.064-.13.11-.272.14-.382l-2.5 1.566Zm.096 1.125.046-.051.853.464a.92.92 0 0 1 .203.093.474.474 0 0 1 .076.06l1.12.61-.058.032c-.051.027-.102.05-.152.068l.836-.038-.06.064c-.035.038-.07.073-.105.104l.833-.386-.06.1c-.15.252-.313.393-.466.468l.684-.061.02.067c-.289.153-.506.174-.654.154a.563.563 0 0 1-.22-.08l-.004-.002h-.001v-.001l.017-.02-.017.02-.017-.014a.688.688 0 0 1-.394-.046l-.005-.002-.002-.001.003-.008-.003.007-.006-.003a.585.585 0 0 1-.461.011.744.744 0 0 1-.307-.23l-.017-.02-.004-.007-.001-.001v-.001h-.001a.977.977 0 0 1-.215-.029.765.765 0 0 1-.265-.118.33.33 0 0 1-.132-.168v-.001c-.01-.047-.004-.082.018-.11a.218.218 0 0 1 .057-.049l.008-.005a.118.118 0 0 0 .043-.042c.008-.015.014-.041.005-.087V7.17a.206.206 0 0 0-.06-.115l-.265-.144a2.969 2.969 0 0 0-.373-.084l-.047-.008a5.868 5.868 0 0 1-.061-.01.412.412 0 0 1-.069-.015.183.183 0 0 1-.047-.03.588.588 0 0 1-.05-.048 1.757 1.757 0 0 1-.102-.12 3.578 3.578 0 0 1-.111-.15l-.007-.01-.002-.003.028-.021-.029.02Zm.152.087a2.626 2.626 0 0 0 .123.148l.043.042a.118.118 0 0 0 .028.018 5.628 5.628 0 0 0 .163.03c.035.005.074.012.115.02l-.472-.258Zm1.104.602a.263.263 0 0 1 .009.039.202.202 0 0 1-.012.133.185.185 0 0 1-.067.068l-.01.007a.146.146 0 0 0-.037.03c-.007.008-.013.022-.006.052.01.037.045.083.105.127s.142.083.24.107c.182.045.417.04.668-.077l-.89-.486Zm.522.673a.718.718 0 0 0 .254.181.514.514 0 0 0 .335.015.925.925 0 0 0 .383-.24l-.972.044Zm.803.205a.622.622 0 0 0 .24.02c.165-.018.38-.11.584-.402L18.275 8Zm.467.094a.547.547 0 0 0 .078.016.876.876 0 0 0 .421-.06l-.499.044Zm1.01-1.196.004-.07-.001.035.001-.036h.016a22.959 22.959 0 0 1 .205.01c.133.007.311.016.491.028s.363.026.504.042c.07.008.132.016.178.025a.505.505 0 0 1 .081.023.068.068 0 0 1 .02.016l.057.066-1.556-.139Zm.438.276-.003-.035-.002.07 1.212.152-.041-.064a.228.228 0 0 0-.102-.078.75.75 0 0 0-.154-.047 2.503 2.503 0 0 0-.39-.04 5.67 5.67 0 0 0-.52.006h-.002v.006l.002.03Zm.896.068a2.416 2.416 0 0 0-.373-.038l.444.056a.93.93 0 0 0-.071-.018Zm-.535.223.589.022-.003.071-.589-.022.003-.071Zm-.329.257.016-.069-.007.035.007-.035.01.002a25.49 25.49 0 0 1 .418.091c.108.025.218.051.305.075a1.827 1.827 0 0 1 .149.048c.009.005.02.01.029.019l.091.091-1.018-.257Zm-.152.58-.01-.033.015.07.35-.049-.058-.051a.073.073 0 0 0-.041-.016.239.239 0 0 0-.042 0 .834.834 0 0 0-.097.015 1.95 1.95 0 0 0-.116.028l-.008.002h-.002l.009.035Zm-2.561-.033.016.015c.042.039.063.079.064.12v.003c.04.003.161.015.294.04.078.017.162.038.236.066.072.027.14.063.181.111.064.072.132.175.196.27a8.95 8.95 0 0 0 .056.084l.295.174-.006.025-.035-.008.035.008v.001l-.001.002-.001.004a.095.095 0 0 1-.034.046c-.033.024-.079.025-.136-.007a.308.308 0 0 1-.074-.068l-.063.642-.05-.032a.213.213 0 0 1-.05-.046l-.055.515-.04-.034.042.572-.066-.062a.42.42 0 0 1-.124-.401.686.686 0 0 1 .072-.201c-.046-.093-.026-.2.005-.286a.852.852 0 0 1 .11-.204v-.001l.012.008-.012-.009.008-.01a.653.653 0 0 1 .03-.264 1.405 1.405 0 0 1 .109-.254l.008-.016a2.61 2.61 0 0 1-.029-.041l-.935-.553a.283.283 0 0 1-.11.09l-.007.003h-.002v.001l-.015-.033.014.033-.006.002-.59.03-.016-.068.674-.267Zm-.084.235.002-.001a.214.214 0 0 0 .079-.061l-.06-.036h.072c0-.013-.006-.03-.026-.054l-.43.17.363-.018Zm.312-.009.673.398a2.237 2.237 0 0 0-.163-.222.389.389 0 0 0-.154-.092 1.444 1.444 0 0 0-.224-.061 2.501 2.501 0 0 0-.132-.023Zm.774.788-.029.08a.688.688 0 0 0-.03.154l.002-.004-.004.033.001.022c.002.033.01.062.023.086l.037-.371Zm.154-.156a.186.186 0 0 0 .039.034.104.104 0 0 0 .044.015l-.083-.049Zm-.314.674a.701.701 0 0 0-.018.045.35.35 0 0 0-.024.182l.014-.023.003.034.025-.238Zm-.08.468.022.304a.369.369 0 0 1-.034-.251.587.587 0 0 1 .012-.053Zm1.232-1.354.03-.062.72.15.003.069a.803.803 0 0 1-.535-.031.939.939 0 0 1-.202-.113c-.005-.004-.01-.007-.012-.01l-.003-.002-.001-.001.023-.027-.023.027Zm.224.051a.764.764 0 0 0 .32.067l-.32-.067Zm-1.417.172-.08.105a.29.29 0 0 1-.021.02 1.169 1.169 0 0 1-.131.083.632.632 0 0 1-.116.05c-.036.01-.078.017-.113 0l-.071-.034.532-.224Zm1.378.24.017-.068.784.064.005.07a1.364 1.364 0 0 1-.802-.064l-.003-.002h-.001l.014-.033-.014.033Zm.114.267.031-.063.6.198-.005.07c-.131.022-.29-.032-.41-.087a1.77 1.77 0 0 1-.199-.107l-.012-.008a.131.131 0 0 1-.003-.002h-.001v-.001l.02-.03-.02.03Zm-1.877.134.041-.057.286.134-.111.02c-.058.01-.114-.02-.15-.043a.445.445 0 0 1-.06-.049l-.004-.004h-.001v-.001l.025-.025-.026.025Zm1.706.003.047-.053-.02.029.02-.029h.001l.003.003.008.006a1.665 1.665 0 0 1 .212.197.23.23 0 0 1 .053.104l.013.109-.337-.366Zm-.358.2.065-.026.423.65-.12-.063a.697.697 0 0 1-.293-.338 1.148 1.148 0 0 1-.07-.204l-.003-.014-.001-.004.034-.008-.035.007Zm-.183.162h.07l.21.949-.087-.092a.844.844 0 0 1-.216-.553 1.281 1.281 0 0 1 .022-.298v-.006h.001l.035.008-.035-.008Zm.047.227.001.073a.86.86 0 0 0 .1.377l-.1-.45Zm-1.037.031-.158-.104.04-.06.158.105-.04.06Zm.742.152-.008.262-.067.015a.032.032 0 0 1-.005-.016 2.136 2.136 0 0 1 .007-.236v-.015l.001-.01v-.002h.072v.002Zm-.01.25Zm-.73-.033-.136-.083.037-.06.135.082-.037.06Z" clip-rule="evenodd"/><path fill="currentColor" fill-rule="evenodd" d="M17.551 5.13a.444.444 0 0 0 .155-.114.558.558 0 0 0 .121-.188c.023-.067.026-.142-.027-.2-.051-.056-.144-.085-.284-.085v.072c.134 0 .201.028.231.061.028.03.032.074.013.129a.486.486 0 0 1-.106.163.377.377 0 0 1-.127.095 12.38 12.38 0 0 0-.655.317 83.206 83.206 0 0 0-.486.247l-.033.017-.012.006.017.032.016.031.011-.006.033-.016a130.813 130.813 0 0 1 .486-.248c.276-.139.568-.284.647-.313Z" clip-rule="evenodd"/><path fill="currentColor" fill-rule="evenodd" d="M18.054 4.983c.04.09.017.21-.062.319l-.008.01-.013.003a1.5 1.5 0 0 0-.279.12c-.115.06-.244.134-.364.205a21.12 21.12 0 0 0-.317.193l-.04.025a13.12 13.12 0 0 1-.106.064l-.012.002v-.071l-.012.001-.002.001a1.577 1.577 0 0 0 .094-.058l.04-.025c.084-.051.197-.121.318-.193.122-.072.251-.146.368-.207.11-.056.21-.102.282-.123.064-.093.073-.18.048-.237-.025-.056-.089-.096-.204-.075l-.012-.07c.136-.025.24.022.281.116Z" clip-rule="evenodd"/><path fill="currentColor" fill-rule="evenodd" d="m21.192 3.536 1.633-.457.019.068-1.676.47a.127.127 0 0 1-.003.007.223.223 0 0 1 .1.076c.032.045.046.107.026.19l1.405-.432.021.068-1.457.448a.513.513 0 0 1-.006.013.245.245 0 0 1 .093.083c.02.032.03.072.018.118l1.208-.363.02.068-1.279.385a.477.477 0 0 1-.075.067l-.001.002h-.002c-.154.089-.492.214-.788.316a21.745 21.745 0 0 1-.513.168l-.025.008a.4.4 0 0 1-.01.034.197.197 0 0 1-.059.09 1.416 1.416 0 0 1-.083.037 40.918 40.918 0 0 1-1.133.391c-.065.023-.119.04-.157.053l-.043.015-.016.005-.011-.034-.01-.03a.459.459 0 0 1-.025.068l-.004.008-.008.006c-.11.08-.403.24-.665.377a33.42 33.42 0 0 1-.488.25l-.01.006-.016-.032.016.032-.043-.056.867-.946.006-.003a.066.066 0 0 1 .02-.006.195.195 0 0 1 .014-.001l-.01-.027 2.566-1.212a22.485 22.485 0 0 1-.913.244l-.014.003-.006-.025.006.025-.007-.019a.626.626 0 0 1-.038.109l-.002.003-.032-.015.032.016-.007.013-1.803.605-.028-.065 1.733-.959.012.003a.17.17 0 0 1 .128.094.25.25 0 0 1 .017.132l1.373-.793v.047h.001l.02.017c.02.018.047.044.07.077a.243.243 0 0 1 .042.16Zm-1.282.445c.107-.027.24-.062.38-.1.163-.045.335-.094.481-.142.142-.046.256-.09.317-.124a.188.188 0 0 0 .034-.111.17.17 0 0 0-.032-.088.327.327 0 0 0-.072-.075l-1.108.64Zm1.232-.29L18.456 4.96c.368-.107.734-.22 1.098-.341a.471.471 0 0 0 .148-.124l.006-.009.001-.002.007-.012.014-.005.01.034-.01-.034.011-.003.032-.01a36.786 36.786 0 0 0 1.398-.461c.08-.143.061-.216.036-.252a.137.137 0 0 0-.065-.049Zm-1.378.84-.003.004a.543.543 0 0 1-.176.147l-.003.001-.003.001c-.463.155-.93.297-1.4.427a.412.412 0 0 1 .082.024c.05.02.099.056.123.113a.23.23 0 0 1 .005.148l.013-.005.044-.014a111.456 111.456 0 0 0 1.12-.382 7.657 7.657 0 0 0 .232-.088.129.129 0 0 0 .035-.058.3.3 0 0 0 .01-.04v-.002h.001v-.001l.004-.022.02-.006.011.034-.01-.034.011-.004.034-.01a21.419 21.419 0 0 0 .51-.169c.297-.102.627-.224.774-.308.062-.046.088-.084.097-.112a.075.075 0 0 0-.009-.066.172.172 0 0 0-.067-.06l-.01.005c-.242.092-.606.212-.91.31a46.79 46.79 0 0 1-.505.157l-.03.01Zm-.188-.37a.61.61 0 0 0 .038-.136.185.185 0 0 0-.01-.1.094.094 0 0 0-.065-.05l-1.367.756 1.404-.47Zm-2.246 1.8.322-.167c.257-.135.537-.287.649-.365.031-.074.03-.122.016-.154-.014-.034-.045-.058-.085-.075a.4.4 0 0 0-.18-.027l-.723.788Zm4.996-1.77.012-.001.01.07-.959.285-.021-.068.01.034-.01-.034.04-.013.105-.032a106.905 106.905 0 0 1 .765-.228 1.415 1.415 0 0 1 .048-.012Zm-.804.527.6-.24.027.066-.6.24-.027-.066Zm-.068.3c.171-.077.344-.15.519-.218l.027.066-.518.218-.028-.066Zm-.091.263.457-.218.031.065-.457.217-.031-.064Zm-.305.273-.014.033a1.85 1.85 0 0 1 .014-.033h.002l.003.002a.117.117 0 0 1 .035.028.122.122 0 0 1 .027.102l-.018.113-.134-.28.085.035Zm-1.156.63-.012.033.012-.033h.003a.207.207 0 0 1 .088.073.137.137 0 0 1 .017.105.291.291 0 0 1-.082.133.275.275 0 0 1-.11.08 1.276 1.276 0 0 1-.095.035l-.043.015a.596.596 0 0 0-.202.112l-.068.077-.056-.044a.508.508 0 0 1 .073-.083l.452-.512.023.009Zm-.276.385a1.304 1.304 0 0 1 .077-.027c.031-.011.06-.021.086-.033a.204.204 0 0 0 .083-.059l.002-.001.001-.002a.225.225 0 0 0 .065-.1.067.067 0 0 0-.008-.053.11.11 0 0 0-.034-.033l-.272.308Z" clip-rule="evenodd"/><path fill="currentColor" fill-rule="evenodd" d="m21.295 4.283-.01.034.01-.034h.005a.302.302 0 0 1 .041.018.248.248 0 0 1 .08.063.149.149 0 0 1 .032.126.263.263 0 0 1-.06.114.844.844 0 0 0 .01.003h.001l.042.016a.211.211 0 0 1 .084.054c.012.014.02.032.023.053a.116.116 0 0 1-.012.062.361.361 0 0 1-.097.112l.008.009-.028.022.028-.022v.001a.29.29 0 0 1 .006.009.18.18 0 0 1 .026.104c-.003.065-.042.143-.154.222a.139.139 0 0 1 .033.051.117.117 0 0 1-.006.088.247.247 0 0 1-.085.094l-.002.002-.003.001a33.554 33.554 0 0 0-.787.408l-.084.044-.03.015-.467.31-.04-.059.47-.312h.002l.017.03-.017-.03.032-.017.084-.044a162.335 162.335 0 0 1 .786-.408.175.175 0 0 0 .06-.063.045.045 0 0 0 .002-.036.069.069 0 0 0-.017-.025.086.086 0 0 0-.009-.008l-.002-.002.002-.003a6.67 6.67 0 0 1-.508.227 15.227 15.227 0 0 1-.307.122l-.02.007-.006.003-.013-.034.013.034-.033-.063.887-.594a30.758 30.758 0 0 1-.91.37l-.022.008-.07.127-1.212.519-.032-.064L20.9 4.854c-.25.105-.504.2-.76.285a.42.42 0 0 1-.064.059.6.6 0 0 1-.189.105c-.368.138-.734.283-1.097.434l-.03-.064 2.521-1.395.014.005Zm-1.176.825-.021-.029.01.02-.016-.014h-.001c0 .002-.002.003-.003.004a.534.534 0 0 1-.224.146h-.001c-.184.07-.367.14-.549.213l1.974-1.092a.268.268 0 0 1 .02.009c.02.01.043.025.058.044.015.018.023.04.017.067-.005.03-.026.07-.08.122-.39.182-.788.341-1.195.476l.011.034Zm1.24-.44L19.56 5.722l.669-.287.071-.128.012-.004.013.033-.013-.033.033-.013a95.689 95.689 0 0 0 .383-.153c.225-.09.488-.198.644-.267a.357.357 0 0 0 .104-.11.046.046 0 0 0 .006-.024.026.026 0 0 0-.007-.014.146.146 0 0 0-.056-.034 1.152 1.152 0 0 1-.06-.022Zm-.649.788.024-.01a6.03 6.03 0 0 0 .533-.241c.119-.077.144-.143.146-.182a.11.11 0 0 0-.003-.035l-.7.468Zm.556-.168Z" clip-rule="evenodd"/><path fill="currentColor" fill-rule="evenodd" d="M19.604 4.218a.04.04 0 0 1-.005-.018l.069-.013-.002-.002.004.004.01.011.011.013c.018.02.042.049.063.083.037.058.07.137.054.226l.018.04a.341.341 0 0 1 .105.165.244.244 0 0 1 .008.07v.004a.632.632 0 0 1 .104.088c.053.057.108.14.103.241.107.03.164.078.194.124a.179.179 0 0 1 .028.088v.008l-.036-.003.036.004-.001.007-.052.089c.02.006.043.017.06.037.026.027.038.067.03.118a.461.461 0 0 1-.068.161c.047.033.067.071.07.108a.115.115 0 0 1-.018.068v.002h-.001l-.03-.02.03.02-.038.052-.072-.172a5.204 5.204 0 0 0-.772.323c-.104.054-.19.106-.237.148l-.048-.053a1.32 1.32 0 0 1 .253-.158 5.3 5.3 0 0 1 .343-.159 7.629 7.629 0 0 1 .433-.167l-.385-.917-.005-.002.001-.006-.095-.226a.443.443 0 0 0-.025-.02l-.021-.015.009-.026a.255.255 0 0 0 .005-.016l-.13-.308v-.002Zm.374.707.095.224c.013-.082-.03-.155-.082-.211a.529.529 0 0 0-.013-.013Zm.111.264.123.293.085-.144a.105.105 0 0 0-.017-.046c-.02-.03-.067-.074-.18-.1l-.01-.003Zm.136.324.074.174a.321.321 0 0 0 .035-.095c.006-.034-.003-.05-.01-.06a.074.074 0 0 0-.04-.018.129.129 0 0 0-.024-.003h-.001l-.034.002Z" clip-rule="evenodd"/><path fill="currentColor" fill-rule="evenodd" d="M18.566 5.502a.204.204 0 0 0-.08-.076.272.272 0 0 0-.133-.031h-.001l.001.035-.002-.035-.13.006.292.153a.22.22 0 0 1 .013.1l-1.05.604.036.062-.018-.031.018.031.012-.007a.344.344 0 0 0 .034-.019l.122-.067a78.276 78.276 0 0 0 .74-.42 5.1 5.1 0 0 0 .152-.092c.065-.022.104-.02.127-.013a.064.064 0 0 1 .04.043.176.176 0 0 1 .007.067.296.296 0 0 1-.003.032l-.799.493.038.061.814-.502-.006-.009a.098.098 0 0 1 .011-.004.307.307 0 0 1 .032-.008.211.211 0 0 1 .089 0 .1.1 0 0 1 .07.056.307.307 0 0 1 .015.17l-.684.409.037.061-.018-.03.018.03.03-.018.08-.047a76.015 76.015 0 0 0 .57-.338l.008-.006c.047-.01.075-.004.09.004a.065.065 0 0 1 .033.038.151.151 0 0 1 .008.052l-.681.43.088.017a.155.155 0 0 0 .08-.012.655.655 0 0 0 .09-.044 2.13 2.13 0 0 0 .21-.137 5.584 5.584 0 0 0 .244-.185h.005a.251.251 0 0 1 .025 0c.016 0 .038.002.058.006a.131.131 0 0 1 .05.02c.01.007.015.014.016.025l-.523.318.033.063a2.58 2.58 0 0 0 .357-.202 4.04 4.04 0 0 0 .162-.112l.01-.007.002-.002-.005-.008.006.008-.005-.008.022-.02a.223.223 0 0 1 .224-.05.174.174 0 0 1-.018.028c-.044.059-.159.159-.445.308l.033.064c.288-.151.415-.257.47-.33a.166.166 0 0 0 .038-.091c0-.01 0-.018-.003-.025a.228.228 0 0 1 .021-.017.143.143 0 0 1 .126-.026l.027-.066-1.33-.7Zm.03.096.002.016.008-.005v.023a.31.31 0 0 1 .043-.006l-.053-.028Zm.203.107a.239.239 0 0 1 .019.1h.002a.282.282 0 0 1 .12 0 .18.18 0 0 1 .116.095c.019.04.028.09.026.156l.004-.002v.032a.173.173 0 0 1 .085.016.136.136 0 0 1 .067.077c.01.027.012.054.012.074.018.001.04.003.063.008a.2.2 0 0 1 .078.033c.01.007.02.016.026.026a.291.291 0 0 1 .23-.039h.002c.001 0 .002 0 .003-.002a.324.324 0 0 1 .1-.073l-.953-.501Z" clip-rule="evenodd"/></g><defs><clipPath id="a"><path fill="#fff" d="M0 0h24v18H0z"/></clipPath></defs></svg>