<svg xmlns="http://www.w3.org/2000/svg" width="24" height="18" fill="none"><g clip-path="url(#a)"><path fill="#006" d="M0 0h24v18H0V0Z"/><path fill="#fff" fill-rule="evenodd" d="m11.242 14.718-1.639.143.225 1.627L8.7 15.3l-1.13 1.188.225-1.627-1.639-.143 1.414-.836-.911-1.369 1.537.582.503-1.564.506 1.564 1.537-.582-.91 1.37 1.41.835Zm7.005 1.5-.397-.592.667.251.218-.679.217.68.668-.252-.394.592.615.364-.713.064.098.709-.488-.522-.494.522.097-.71-.713-.06.62-.367ZM18.244 5.64l-.394-.593.667.251.218-.678.217.678.668-.25-.394.592.615.367-.713.06.098.709-.488-.518-.494.514.097-.705-.713-.06.616-.367ZM14.28 9.937l-.394-.592.668.25.217-.678.221.679.668-.251-.398.592.615.364-.712.064.101.708-.495-.52-.488.52.094-.708-.712-.06.615-.368Zm7.496-1.057-.401-.593.667.251.218-.678.221.678.667-.25-.393.592.611.363-.712.064.097.705-.488-.517-.495.517.098-.705-.712-.064.622-.363ZM20.325 12l-.386.243.108-.446-.349-.292.454-.038.173-.42.176.424.454.034-.349.292.109.446" clip-rule="evenodd"/><path fill="#006" d="M0 0h12v9H0V0Z"/><path fill="#fff" d="m1.406 0 4.575 3.394L10.537 0H12v1.163L7.5 4.518 12 7.856V9h-1.5L6 5.644 1.519 9H0V7.875l4.481-3.338L0 1.2V0h1.406Z"/><path fill="#C8102E" d="M7.95 5.269 12 8.25V9L6.919 5.269H7.95Zm-3.45.375.112.656-3.6 2.7H0l4.5-3.356ZM12 0v.056L7.331 3.581l.038-.825L11.063 0H12ZM0 0l4.481 3.3H3.356L0 .788V0Z"/><path fill="#fff" d="M4.519 0v9h3V0h-3ZM0 3v3h12V3H0Z"/><path fill="#C8102E" d="M0 3.619v1.8h12v-1.8H0ZM5.119 0v9h1.8V0h-1.8Z"/></g><defs><clipPath id="a"><path fill="#fff" d="M0 0h24v18H0z"/></clipPath></defs></svg>