<svg xmlns="http://www.w3.org/2000/svg" width="24" height="18" fill="none"><g clip-path="url(#a)"><path fill="#39C" d="M0 0v18h27V0H0Z"/><path fill="#FF0" d="M0 12v1h27v-1H0Zm0 2v1h27v-1H0Z"/><path fill="#9CC" d="m5.351 1.05.109.112-.112-.112h.003Zm-.112.225.112.112-.112-.112Zm.221 0 .113.112-.113-.112Z"/><path fill="#CCF" d="m5.239 1.388.112.108-.112-.112v.004Zm.221-.004.113.112-.113-.112Z"/><path fill="#C66" d="m5.351 1.605.11.112-.113-.112h.003Z"/><path fill="#6CC" d="m5.573 1.605.108.112-.112-.112h.004Z"/><path fill="#CCF" d="m5.126 1.718.112.112-.112-.112Zm.446 0 .109.112-.113-.112h.004Z"/><path fill="#6CC" d="m5.018 1.938.112.113-.112-.113Z"/><path fill="#C00" d="m5.332 1.275-.776 2.944-2.951.806 2.94.769.787 2.94.784-2.94 2.94-.788-2.94-.784-.787-2.94.003-.007Z"/><path fill="#fff" fill-rule="evenodd" d="m5.258 1.286-.759 2.876-3.163.864 3.152.824.845 3.152.84-3.152 3.152-.844-3.152-.84-.777-2.902-.042.011-.083-.031-.016.03.003.012Zm.072.27-.717 2.719-2.74.748 2.729.714.73 2.728.728-2.728 2.728-.73-2.728-.728-.73-2.723Z" clip-rule="evenodd"/><path fill="#6CC" d="m5.681 1.938.113.113-.113-.113Z"/><path fill="#FCC" d="m5.126 2.16.112.112-.112-.112Zm.446 0 .109.112-.113-.112h.004Z"/><path fill="#69C" d="m4.687 2.936.11.109-.113-.113.003.004Z"/><path fill="#FCC" d="m4.905 2.936.113.109-.113-.113v.004Zm.889-.004.113.113-.113-.113Z"/><path fill="#69C" d="m6.015 2.936.112.109-.112-.113v.004Z"/><path fill="#9CC" d="m4.687 3.045.11.112-.113-.112h.003Z"/><path fill="#CFF" d="m4.687 3.157.11.113-.113-.113h.003Zm1.328 0 .112.113-.112-.113Z"/><path fill="#FCC" d="m4.687 3.6.11.113-.113-.113h.003Zm1.328 0 .112.113-.112-.113Z"/><path fill="#9CC" d="m4.462 3.713.113.108-.113-.112v.004Z"/><path fill="#C33" d="m4.724 3.784.034.075-.037-.075h.003Zm1.324 0 .038.075-.038-.075Z"/><path fill="#9CC" d="m6.236 3.713.113.108-.113-.112v.004Zm.109.329.113.113-.113-.113Zm-2.325.113.113.109-.113-.113v.004Z"/><path fill="#CCF" d="m4.132 4.15.113.113-.113-.112Zm2.438 0 .109.113-.113-.112h.004Z"/><path fill="#9CC" d="m6.674 4.15.113.113-.113-.112Zm-2.985.113.113.113-.113-.113Zm3.323.001.109.112-.113-.112h.004Z"/><path fill="#69C" d="m7.785 4.485.113.112-.113-.112Zm-5.205.112.113.11-.113-.113v.003Z"/><path fill="#9CF" d="m2.362 4.706.109.113-.113-.113h.004Z"/><path fill="#FCC" d="m2.805 4.706.109.113-.113-.113h.004Zm5.093 0 .108.113-.112-.113h.004Z"/><path fill="#6CC" d="m8.449 4.706.113.113-.113-.113Zm-6.532.113.112.108-.112-.112v.004Z"/><path fill="#FCC" d="m2.47 4.815.113.112-.112-.112Z"/><path fill="#9CC" d="m9.112 4.928.113.112-.113-.112Zm-7.747.112.112.109-.112-.113v.004Z"/><path fill="#C66" d="m1.917 5.037.112.112-.112-.112Zm6.862 0 .113.112-.113-.112Z"/><path fill="#9CC" d="m9.338 5.037.108.112-.112-.112h.004Zm-7.752.112.113.113-.113-.113Z"/><path fill="#CCF" d="m9 5.149.113.112L9 5.15Z"/><path fill="#6CC" d="m1.917 5.261.112.109-.112-.113v.004Z"/><path fill="#CCF" d="m2.025 5.261.112.109-.112-.113v.004Z"/><path fill="#FCC" d="m2.47 5.261.113.109-.112-.113v.004Zm5.757 0 .113.109-.113-.113v.004Z"/><path fill="#CCF" d="m8.67 5.261.112.109-.112-.113v.004Z"/><path fill="#6CC" d="m8.783 5.261.112.109-.112-.113v.004ZM2.25 5.37l.112.112-.112-.112Z"/><path fill="#9CF" d="m2.362 5.37.109.112-.113-.112h.004Z"/><path fill="#FCC" d="m2.805 5.37.109.112L2.8 5.37h.004Zm5.093 0 .108.112-.112-.112h.004Z"/><path fill="#69C" d="m2.58 5.482.113.109-.113-.112v.003Z"/><path fill="#9CF" d="m2.693 5.482.112.109-.112-.112v.003Z"/><path fill="#FCC" d="m3.248 5.482.113.109-.113-.112v.003Zm4.203 0 .113.109-.113-.112v.003Z"/><path fill="#9CF" d="m8.006 5.482.113.109-.113-.112v.003Z"/><path fill="#69C" d="m8.115 5.482.112.109-.112-.112v.003Zm-5.201.109.112.113-.112-.113Zm4.871 0 .112.113-.112-.113Zm-4.538.113.11.109-.113-.113.003.004Z"/><path fill="#CFF" d="m3.469 5.7.112.113L3.47 5.7Z"/><path fill="#69C" d="m7.451 5.7.113.113L7.45 5.7Z"/><path fill="#9CC" d="m3.69 5.813.112.112-.113-.112Zm3.323 0 .108.112-.112-.112h.004Zm-2.993.112.113.112-.113-.112Z"/><path fill="#CCF" d="m4.132 5.925.113.112-.113-.112Zm2.438 0 .109.112-.113-.112h.004Z"/><path fill="#9CC" d="m6.675 5.925.113.112-.113-.112Zm-2.325.112.113.109-.113-.112v.003Z"/><path fill="#C33" d="m4.575 6.037.113.11-.113-.113v.003Zm1.549-.003.112.112-.112-.112Z"/><path fill="#9CC" d="m6.345 6.037.112.11-.112-.113v.003Z"/><path fill="#C33" d="m4.724 6.33.034.075-.037-.075h.003Zm1.324 0 .038.075-.038-.075Z"/><path fill="#FCC" d="m4.687 6.476.11.113-.113-.113h.003Zm1.328 0 .112.113-.112-.113Z"/><path fill="#CFF" d="m4.687 6.919.11.112-.113-.112h.003Z"/><path fill="#9CC" d="m4.687 7.031.11.113-.113-.113h.003Zm1.328 0 .112.113-.112-.113Z"/><path fill="#69C" d="m4.687 7.14.11.113-.113-.113h.003Zm.218.667.113.11-.113-.113v.003Zm.889-.003.113.112-.113-.112Z"/><path fill="#FCC" d="m5.126 7.916.112.113-.112-.113Zm.446 0 .109.113-.113-.113h.004Z"/><path fill="#CCF" d="m5.126 8.359.112.112-.112-.112Zm.446 0 .109.112-.113-.112h.004Z"/><path fill="#C66" d="m5.351 8.471.11.113-.113-.113h.003Z"/><path fill="#6CC" d="m5.573 8.471.108.113-.112-.113h.004Z"/><path fill="#9CC" d="m5.239 8.801.112.113L5.24 8.8Zm.221 0 .113.113L5.46 8.8Zm-.112.225.112.109-.112-.112v.003Z"/></g><defs><clipPath id="a"><path fill="#fff" d="M0 0h24v18H0z"/></clipPath></defs></svg>