<svg xmlns="http://www.w3.org/2000/svg" width="24" height="18" fill="none"><g clip-path="url(#a)"><path fill="#3F9C35" d="M.004 0h24v18h-24V0Z"/><path fill="#ED2939" d="M.004 0h24v12h-24V0Z"/><path fill="#00B9E4" d="M.004 0h24v6h-24V0Z"/><path fill="#fff" d="M11.4 11.7a2.7 2.7 0 1 0 0-5.4 2.7 2.7 0 0 0 0 5.4Z"/><path fill="#ED2939" d="M12 11.25a2.25 2.25 0 1 0 0-4.5 2.25 2.25 0 0 0 0 4.5Z"/><path fill="#fff" d="m14.4 7.5.289.806.772-.367-.367.776L15.9 9l-.806.289.367.772-.772-.367-.29.806-.288-.806-.772.367.367-.772L12.9 9l.806-.289-.367-.772.772.367.289-.806Z"/></g><defs><clipPath id="a"><path fill="#fff" d="M0 0h24v18H0z"/></clipPath></defs></svg>