<svg xmlns="http://www.w3.org/2000/svg" width="24" height="18" fill="none"><g fill-rule="evenodd" clip-path="url(#a)" clip-rule="evenodd"><path fill="#009" d="M.001 0h23.998v18H0V0Z"/><path fill="#FC0" d="m4.986 0 17.965 18.01v-18L4.986 0Z"/><path fill="#fff" d="m18.465 16.928-.98-.714-1.006.71.38-1.167-.992-.72h1.23l.38-1.168.377 1.17h1.23l-.984.729.365 1.16Zm2.858.366-1.23-.004-.376-1.17-.38 1.166h-1.23l.991.721-.38 1.167 1.006-.71.984.714-.369-1.16.984-.724Zm-5.47-3.77.984-.727-1.23-.004-.376-1.167-.38 1.168-1.23-.004.991.72-.38 1.171 1.006-.713.984.717-.369-1.16Zm-2.26-2.267.984-.724-1.23-.004-.377-1.17-.383 1.167H11.36l.992.72-.38 1.168 1.005-.71.981.713-.365-1.16Zm-2.24-2.236.985-.728h-1.231l-.373-1.174-.38 1.167h-1.23l.992.718-.38 1.17 1.005-.713.985.717-.37-1.16-.003.003ZM9.09 6.761l.984-.725-1.23-.003-.376-1.17-.383 1.166H6.857l.995.721-.38 1.167 1.005-.71.981.714-.365-1.16h-.004ZM6.853 4.514l.981-.728h-1.23L6.23 2.612l-.383 1.17h-1.23l.998.718-.384 1.167 1.006-.71.977.717-.362-1.16Zm-2.25-2.25.981-.728h-1.23L3.98.362l-.383 1.17h-1.23l.998.718-.387 1.17 1.009-.713.977.717-.362-1.16ZM2.353.014l.977-.728H2.1l-.376-1.17-.376 1.167H.118L1.111 0l-.38 1.167 1.006-.71.977.717-.362-1.16Z"/></g><defs><clipPath id="a"><path fill="#fff" d="M0 0h24v18H0z"/></clipPath></defs></svg>