<svg xmlns="http://www.w3.org/2000/svg" width="24" height="18" fill="none"><g clip-path="url(#a)"><path fill="#00267F" d="M0 0h24v18H0V0Z"/><path fill="#FFC726" d="M7.999 0h8.003v18H7.998V0Z"/><path fill="currentColor" d="M11.992 5.081c-.263.713-.525 1.448-1.095 2.014.176-.06.487-.113.682-.105v2.98l-.84.124c-.03 0-.037-.049-.037-.113-.083-.926-.3-1.706-.555-2.512-.019-.109-.338-.525-.09-.45.03 0 .356.135.307.071a3.188 3.188 0 0 0-1.74-.9c-.056-.011-.09.019-.037.083.84 1.297 1.549 2.83 1.541 4.65.33 0 1.125-.195 1.451-.195v2.103H12l.094-5.876-.101-1.875Z"/></g><defs><clipPath id="a"><path fill="#fff" d="M0 0h24v18H0z"/></clipPath></defs></svg>