<svg xmlns="http://www.w3.org/2000/svg" width="24" height="18" fill="none"><g fill-rule="evenodd" clip-path="url(#a)" clip-rule="evenodd"><path fill="#00CF00" d="M-3.074 0 12 9l-15.075 9V0Zm30.15 0L12 9l15.075 9V0Z"/><path fill="red" d="M-3.074 0 12 9l15.075-9h-30.15Zm0 18L12 9l15.075 9h-30.15Z"/><path fill="#fff" d="M27.076 0h-2.81l-27.34 16.323V18h2.809l27.34-16.323V0Z"/><path fill="#fff" d="M17.208 9A5.205 5.205 0 1 1 12 3.797 5.203 5.203 0 0 1 17.204 9h.004Z"/><path fill="#fff" d="M-3.074 0v1.677L24.266 18h2.81v-1.677L-.265 0h-2.81Z"/><path fill="red" d="m13.027 7.038-.678.01-.352.577-.348-.576-.675-.014.327-.594-.323-.591.675-.014.351-.577.348.58.675.014-.327.591.327.594Zm-2.27 3.924-.676.01-.351.577-.348-.577-.675-.014.326-.594-.323-.59.675-.015.352-.576.348.58.675.014-.327.59.323.595Zm4.59 0-.674.01-.352.577-.352-.577-.671-.014.327-.594-.327-.59.675-.015.351-.576.352.58.675.014-.33.59.327.595Z"/><path fill="#00DE00" d="m12.005 5.127.386.645.751.015-.364.657.364.661-.755.012-.39.64-.387-.64-.75-.016.363-.66-.36-.657.75-.016.392-.641Zm-.001.265-.313.512-.599.012.287.525-.29.528.6.012.308.512.313-.512.602-.01-.29-.527.29-.524-.6-.013-.308-.515ZM9.737 9.05l.387.645.75.016-.363.657.36.66-.751.012-.39.641-.388-.641-.75-.016.363-.66-.36-.657.751-.015.391-.642Zm4.588 0 .39.645.752.016-.368.657.364.66-.752.012-.39.64-.39-.64-.748-.016.364-.66-.364-.657.75-.015.392-.641Zm-4.589.265-.312.512-.6.013.288.524-.29.528.599.013.309.512.312-.513.6-.009-.288-.528.29-.524-.599-.012-.309-.516Zm4.588 0-.312.512-.6.013.291.524-.29.528.595.013.313.512.313-.513.598-.009-.29-.528.293-.524-.598-.012-.313-.516Z"/></g><defs><clipPath id="a"><path fill="#fff" d="M0 0h24v18H0z"/></clipPath></defs></svg>