<svg xmlns="http://www.w3.org/2000/svg" width="24" height="18" fill="none"><g clip-path="url(#a)"><path fill="#CF142B" d="M0 0h24v18H0V0Z"/><path fill="#00247D" d="M0 0h12v6H0V0Z"/><path fill="#fff" d="M0 0v.671L10.658 6H12v-.671L1.342 0H0Zm12 0v.671L1.342 6H0v-.671L10.658 0H12Z"/><path fill="#fff" d="M4.999 0v6H7V0H5ZM0 1.999V4h12V2H0Z"/><path fill="#CF142B" d="M0 2.4v1.2h12V2.4H0ZM5.4 0v6h1.2V0H5.4ZM0 6l4.001-1.999h.893L.892 6H0Zm0-6 4.001 1.999h-.896L0 .45V0Zm7.106 1.999L11.1 0h.9L7.999 1.999h-.893ZM12 6 7.999 4.001h.896L12 5.55V6Z"/><path fill="#fff" d="M20.768 5.562v5.08c0 1.358-2.711 1.8-2.711 1.8s-2.72-.442-2.72-1.803V5.562h5.432Z"/><path fill="#2F8F22" d="M20.768 10.642c0 1.358-2.711 1.8-2.711 1.8s-2.72-.442-2.72-1.804c0 0 0-.112.057-.172 0 0-.03.225.143.397 0 0-.135-.243 0-.48 0 0-.053.308.138.48 0 0-.105-.247.012-.525 0 0-.057.45.15.544 0 0 .056-.262-.027-.427 0 0 .143.056.135.435 0 0 .045-.057.057-.33 0 0 .007.315.112.386 0 0 .038-.034-.011-.173-.049-.138.019-.19.03-.187 0 0-.023.154.109.274 0 0-.057-.248.022-.282 0 0-.019.21.15.255 0 0 .011-.06-.026-.127 0 0-.03-.079-.008-.143 0 0 .053.188.124.222 0 0-.041-.113 0-.222 0 0 .008.158.15.225 0 0-.094-.123-.06-.258l.904.045.469.022 1.406-.097.24-.21s.097.13-.056.34c0 0 .15-.025.198-.262 0 0 .06.132-.022.278 0 0 .165-.169.187-.356 0 0 .068.183-.09.378 0 0 .14-.048.2-.255 0 0 .048.124-.087.3 0 0 .255-.13.247-.412 0 0 .105.154-.015.367 0 0 .128-.116.143-.292 0 0 .071.079-.008.296 0 0 .158-.15.184-.311 0 0 .034.15-.101.337 0 0 .09-.022.18-.206 0 0 .022.075-.056.206 0 0 .086-.015.142-.183 0 0 .011.1-.015.187 0 0 .068-.041.083-.229 0 0 .037.06.037.14v.025l.004.004Z"/><path fill="#D40000" d="M19.373 7.702s-.094.019-.218-.019c-.12-.037-.168-.022-.206 0 0 0 .049-.097-.071-.176 0 0 .037.101-.015.146 0 0-.023.023-.053-.01 0 0-.04-.046-.086-.076 0 0 .101-.037.083-.142-.02-.102-.075-.113-.102-.128a.19.19 0 0 0 0 .075s-.112-.06.038-.146.124-.139.097-.184a.411.411 0 0 0-.112-.112s.03.048.022.09c-.003.037-.075.063-.06-.004.015-.075 0-.06 0-.135 0 0 .132.045.188-.086 0 0 .049-.135-.12-.203 0 0 .041.056.022.098 0 0-.037.067-.078.015-.042-.053-.072-.068-.068-.132 0 0 .154.023.113-.146 0 0-.027.113-.225-.037 0 0 .13-.135.078-.24 0 0-.015-.049-.153-.023 0 0 .12-.075.07-.142 0 0-.025-.042-.142.015 0 0 .045-.075-.067-.158 0 0-.075.038-.113.075 0 0-.075-.097-.123-.135 0 0-.09.034-.113.135 0 0-.041-.049-.135-.075 0 0-.045.086.015.158 0 0-.045 0-.124-.038 0 0-.09-.037-.075.038a.348.348 0 0 0 .038.131s-.203-.049-.195.064a.28.28 0 0 0 .097.195s-.112.15-.21.037c0 0-.037.038.038.131 0 0 .075.08.011.132 0 0-.079.063-.116-.06 0 0-.131.127.022.225 0 0 .098.056.2-.03 0 0-.035.247-.128.198 0 0-.057-.037.045-.09 0 0-.15-.018-.173.124 0 0-.019.113.113.158 0 0 .097.037-.004.112 0 0-.075.056-.026.139 0 0 .056.09-.09.101 0 0-.075 0-.105-.011 0 0-.034.06-.012.127 0 0-.075-.056-.236.004-.165.06-.154.019-.165.038l-.049.075s.087.112.09.105l-.018.123.045.02.337-.15.349-.18.277.014.177.041.228.02.17-.09h.24l.262.13.3.18.157.03.12-.007v-.244l-.056-.09Z"/><path fill="currentColor" fill-rule="evenodd" d="M18.068 5.774a.01.01 0 0 1 .01 0 .64.64 0 0 1 .112.122l.006.007a.442.442 0 0 1 .104-.067l.003-.002a.01.01 0 0 1 .01 0c.058.043.077.085.08.117a.1.1 0 0 1-.002.031.19.19 0 0 1 .1-.02.06.06 0 0 1 .026.01.035.035 0 0 1 .006.005l.002.002c.014.02.016.04.011.059a.128.128 0 0 1-.029.05.254.254 0 0 1-.025.024.196.196 0 0 1 .097.008c.012.005.02.011.024.017a.037.037 0 0 1 .005.006v.003c.029.057.007.12-.02.168a.434.434 0 0 1-.053.074c.094.07.145.076.17.068a.046.046 0 0 0 .031-.028l.001-.002.01.001.009.002v.002l-.002.004a.062.062 0 0 1-.012.02.065.065 0 0 1-.03.019c-.037.01-.096-.001-.196-.077a.01.01 0 0 1-.004-.006c0-.003 0-.006.003-.008l.001-.001.004-.004a.385.385 0 0 0 .052-.073c.026-.047.044-.103.02-.151v-.001h-.001a.02.02 0 0 0-.002-.004.044.044 0 0 0-.017-.012c-.019-.008-.055-.013-.124 0a.01.01 0 0 1-.01-.006.01.01 0 0 1 .004-.012.195.195 0 0 0 .017-.012.25.25 0 0 0 .034-.032.11.11 0 0 0 .025-.042.048.048 0 0 0-.008-.043l-.004-.003a.042.042 0 0 0-.017-.007c-.019-.002-.053 0-.11.028a.01.01 0 0 1-.012-.013l.008.005m-.008-.005.001-.002.004-.009a.081.081 0 0 0 .002-.031c-.002-.025-.016-.061-.067-.1a.43.43 0 0 0-.037.02.38.38 0 0 0-.068.05.01.01 0 0 1-.014 0l-.001-.001-.003-.003a.757.757 0 0 0-.04-.049.667.667 0 0 0-.074-.077.193.193 0 0 0-.04.026.18.18 0 0 0-.062.1.01.01 0 0 1-.016.004l.007-.006-.01-.002a.2.2 0 0 1 .114-.14l.004-.001h.001l.003.008-.003-.008m-.244.068-.008-.004-.001.001-.001.003a.197.197 0 0 0-.014.051.145.145 0 0 0 .019.095.428.428 0 0 1-.1-.034l-.004.008.004-.008h-.001l-.003-.002a.121.121 0 0 0-.043-.008c-.011 0-.024.002-.033.012-.01.01-.012.025-.008.045a.6.6 0 0 0 .016.081.26.26 0 0 0 .014.036.528.528 0 0 0-.084-.007.148.148 0 0 0-.072.018.067.067 0 0 0-.032.066.287.287 0 0 0 .094.196.255.255 0 0 1-.06.052.11.11 0 0 1-.062.017.1.1 0 0 1-.068-.039.01.01 0 0 0-.006-.003.01.01 0 0 0-.007.003l.006.006-.006-.006h-.001a.04.04 0 0 0-.006.01.063.063 0 0 0-.005.027c0 .024.01.059.048.106v.001l.008-.006-.007.006.003.003a.182.182 0 0 1 .025.04.076.076 0 0 1 .006.038.056.056 0 0 1-.022.037c-.001 0-.002 0-.003.002a.082.082 0 0 1-.008.004.064.064 0 0 1-.027.008.044.044 0 0 1-.032-.013.124.124 0 0 1-.031-.057.01.01 0 0 0-.015-.004l.006.007-.007-.007-.002.002a.222.222 0 0 0-.047.078.122.122 0 0 0 .001.079c.01.028.032.056.072.08l.005-.007-.005.008h.002l.004.003a.167.167 0 0 0 .06.016.187.187 0 0 0 .125-.035.517.517 0 0 1-.024.092.189.189 0 0 1-.038.067.046.046 0 0 1-.022.014.038.038 0 0 1-.027-.005.027.027 0 0 1-.004-.004.024.024 0 0 1-.006-.014c0-.01.006-.03.056-.055a.01.01 0 0 0-.003-.018l-.002.01.002-.01h-.001a499980824.764 499980824.764 0 0 1-.025 0 .208.208 0 0 0-.056.01.147.147 0 0 0-.062.037.155.155 0 0 0-.04.085m.084.415.009-.005.008-.005-.008.005-.009.005Zm.04-.136-.005-.008.005.008Zm-.105-.276-.009-.002.01.002Zm-.016.508v-.01l-.001.001v.01Zm1.896.108a.393.393 0 0 0-.137-.023.16.16 0 0 0-.056.013.135.135 0 0 0 .003-.04c-.003-.038-.023-.085-.085-.126a.01.01 0 0 0-.014.012l.001.004a.206.206 0 0 1 .01.05c.003.03 0 .062-.023.081l-.001.001-.002.002a.02.02 0 0 1-.008.002c-.005.001-.015 0-.029-.015l-.002-.002-.005-.006a.686.686 0 0 0-.067-.06h.001a.166.166 0 0 0 .035-.026.128.128 0 0 0 .037-.119.17.17 0 0 0-.051-.101.152.152 0 0 0-.043-.027h-.002a.153.153 0 0 1-.01-.006.01.01 0 0 0-.014.006.2.2 0 0 0-.003.057.062.062 0 0 1-.017-.024.046.046 0 0 1 .006-.038.177.177 0 0 1 .065-.056c.076-.043.11-.08.12-.113.01-.033-.006-.061-.019-.083a.421.421 0 0 0-.115-.116.01.01 0 0 0-.008-.001l.003.009-.008.005v.002l.004.005a.207.207 0 0 1 .009.02.109.109 0 0 1 .008.056.032.032 0 0 1-.01.02.039.039 0 0 1-.02.01c-.005.001-.009 0-.01-.003-.003-.003-.005-.011-.002-.027a.2.2 0 0 0 .006-.07l-.001-.01a.328.328 0 0 1-.004-.045.187.187 0 0 0 .064.003.15.15 0 0 0 .122-.097v-.001l-.008-.003.009.003v-.002l.002-.005a.168.168 0 0 0 .001-.074c-.01-.045-.042-.099-.129-.133a.01.01 0 0 0-.01.003.01.01 0 0 0 0 .01V6.6a.2.2 0 0 1 .016.03c.008.018.012.039.005.056l-.001.002a.1.1 0 0 1-.02.021.027.027 0 0 1-.019.006c-.006 0-.014-.004-.023-.016a.645.645 0 0 0-.029-.034.294.294 0 0 1-.021-.027.091.091 0 0 1-.016-.054h.015a.137.137 0 0 0 .052-.012.087.087 0 0 0 .045-.047.164.164 0 0 0 0-.1.01.01 0 0 0-.018 0m-.103.149h.01l-.001.01a.132.132 0 0 1-.01-.001l.001-.01Zm.001-.01-.001.01.001-.01a.01.01 0 0 0-.007.002.01.01 0 0 0-.003.007.114.114 0 0 0 .018.076.293.293 0 0 0 .026.032.649.649 0 0 1 .025.03c.011.014.024.022.036.023a.046.046 0 0 0 .032-.01.093.093 0 0 0 .024-.026l.002-.003-.008-.005.008.004c.012-.025.005-.052-.003-.072a.15.15 0 0 0-.004-.009c.061.032.084.073.09.108a.147.147 0 0 1-.002.07c-.027.062-.07.082-.107.087a.17.17 0 0 1-.068-.005l-.004.008m-.009.133c-.004.018-.003.032.004.042a.03.03 0 0 0 .03.01.057.057 0 0 0 .029-.015.05.05 0 0 0 .015-.03.125.125 0 0 0-.007-.062.405.405 0 0 1 .08.088c.014.023.024.044.017.069-.008.026-.036.059-.111.102a.194.194 0 0 0-.072.063.062.062 0 0 0-.007.054.084.084 0 0 0 .025.034.113.113 0 0 0 .012.008l.003.003h.001l.005-.008v.01a.01.01 0 0 0 .008-.004.01.01 0 0 0 .001-.008.177.177 0 0 1-.002-.059l.002.001.011.006a.13.13 0 0 1 .027.018.15.15 0 0 1 .045.09.109.109 0 0 1-.031.103.148.148 0 0 1-.042.028l-.002.001h-.001l.003.01m.08.08.006-.006-.007.007c.017.018.033.023.046.02a.038.038 0 0 0 .019-.007V7.66h.001c.03-.026.033-.067.03-.098a.247.247 0 0 0-.005-.032c.04.033.053.068.055.095a.117.117 0 0 1-.008.053l.008.005m-1.804 0 .006-.008h-.001l-.003-.003a.111.111 0 0 0-.016-.008.143.143 0 0 0 .005.022l.01-.003Zm.016-.117a.088.088 0 0 1-.008-.002l.004-.009.008.005-.002.002a.167.167 0 0 1-.002.004Zm1.708-.056.009-.004-.01.004Zm.009-.004-.005.008c.008.005.015.01.021.016a.237.237 0 0 0-.007-.026l-.01.002Zm-.015.147.006.006-.006-.006Zm0 0-.007-.007.007.007Zm-.105-1.062-.008.006.008-.006Zm0 0-.004.009a.3.3 0 0 1 .027.012.178.178 0 0 0-.014-.023v-.002h-.001v-.001l-.008.005Zm-.123-.028h.002a.107.107 0 0 0 .02.001c.013 0 .03-.003.045-.01a.068.068 0 0 0 .036-.037.125.125 0 0 0 .004-.064m.038.236-.008-.004.008.004Zm.089.101.009.004-.01-.003h.001Zm-.013.856Zm-1.478-.423.003-.01-.003.01Zm.03-.281a.247.247 0 0 1 .03-.018l.004.009-.002.009h-.001a.13.13 0 0 0-.021 0h-.01Zm-.012.08.006-.007H17.4l-.005.008Zm.128-.198-.01-.001v.01c-.002.003-.002.008-.003.013a.236.236 0 0 0 .019-.015l-.006-.007Zm-.194.022-.005.008.005-.008Zm-.031-.199a.225.225 0 0 1-.005-.015l.009-.003.006.007h-.001c0 .002-.002.003-.004.005a.128.128 0 0 0-.005.006Zm.114.035.006.007-.006-.007Zm.002-.13-.007.006.006-.007Zm-.043-.11a.112.112 0 0 0 .072.035.128.128 0 0 0 .073-.02.251.251 0 0 0 .07-.06v-.002l-.007-.006.006-.007a.268.268 0 0 1-.094-.189c0-.012.001-.022.005-.03a.047.047 0 0 1 .018-.019.13.13 0 0 1 .063-.015.374.374 0 0 1 .095.01h.002a.01.01 0 0 0 .01-.013.294.294 0 0 1-.02-.05.579.579 0 0 1-.015-.079c-.004-.017 0-.026.003-.03.003-.003.01-.006.02-.006a.102.102 0 0 1 .035.008h.003a.442.442 0 0 0 .127.04L17.84 6v.01a.01.01 0 0 0 .007-.015.124.124 0 0 1-.028-.1.164.164 0 0 1 .011-.041.322.322 0 0 1 .121.068l.002.001m.002-.024a.344.344 0 0 0-.128-.066.01.01 0 0 0-.01.005l.008.004" clip-rule="evenodd"/><path fill="#D40000" d="M16.632 7.987s.131.068.187-.01c0 0 .072-.14-.086-.188 0 0 .086-.102-.008-.195 0 0-.048-.053-.13-.015 0 0-.038-.075-.117-.072 0 0-.075 0-.098.08 0 0-.097-.038-.15.018 0 0-.093.101.034.184l.09.007.09-.041.102.026s-.027.101.086.206Z"/><path fill="currentColor" fill-rule="evenodd" d="M16.598 7.567a.13.13 0 0 1 .096-.004.116.116 0 0 1 .035.022l.002.002a.14.14 0 0 1 .042.142.182.182 0 0 1-.025.055c.034.012.057.03.072.049a.117.117 0 0 1 .024.067.169.169 0 0 1-.014.074l-.002.005v.001l-.01-.004.01.005h-.002c-.03.045-.083.047-.124.04a.288.288 0 0 1-.069-.022l-.004-.002h-.002v-.001l.004-.008-.006.006a.274.274 0 0 1-.088-.147.195.195 0 0 1-.003-.059l-.09-.023-.086.04a.01.01 0 0 1-.005 0l-.09-.007a.01.01 0 0 1-.004-.001.158.158 0 0 1-.063-.068.105.105 0 0 1-.006-.065.144.144 0 0 1 .032-.064l.001-.001.007.006-.007-.006c.03-.032.07-.036.103-.034a.229.229 0 0 1 .048.01.111.111 0 0 1 .09-.075.106.106 0 0 1 .012-.002h.001a.126.126 0 0 1 .095.037.167.167 0 0 1 .026.032Zm-.12-.05h-.003l-.008.001a.094.094 0 0 0-.078.07.01.01 0 0 1-.005.007.01.01 0 0 1-.007 0l.003-.009m-.003.01v-.001h-.001l-.003-.001a.218.218 0 0 0-.049-.01c-.03-.002-.064.002-.087.027v.001l-.003.003a.126.126 0 0 0-.025.053.087.087 0 0 0 .004.054.138.138 0 0 0 .054.058l.085.007.088-.04a.01.01 0 0 1 .006-.001l.101.026a.01.01 0 0 1 .007.012v.003a.18.18 0 0 0 .002.056.255.255 0 0 0 .08.137l.005.002a.282.282 0 0 0 .065.02c.038.007.08.004.105-.03V7.97l.002-.004a.15.15 0 0 0 .012-.065.097.097 0 0 0-.02-.058.146.146 0 0 0-.075-.046.01.01 0 0 1-.005-.015l.001-.001.003-.003a.189.189 0 0 0 .026-.055.122.122 0 0 0-.037-.124l-.002-.001a.097.097 0 0 0-.03-.018.114.114 0 0 0-.088.006.01.01 0 0 1-.012-.004l-.002-.003a.165.165 0 0 0-.025-.031.108.108 0 0 0-.081-.032" clip-rule="evenodd"/><path fill="#64B4D1" d="M19.567 7.748a.21.21 0 0 1 .218.12c.082.195-.094.3-.094.3a.628.628 0 0 1 .015.101c.248.03.203.308.203.308l-.083-.068c-.142-.056-.292.068-.397.27-.105.207-.056.3-.038.544.019.244.413.39.413.39l-.308.788c-.12.31-.375.183-.45.116-.071-.064-.09-.026-.123 0-.038.03.165.187-.207.337-.367.15-.431.263-.495.3-.06.038-.315.015-.337-.018-.03-.03-.015-.03-.113-.09-.094-.057-.255-.113-.431-.195-.176-.087-.172-.195-.169-.218 0-.022.06-.206-.146-.06s-.383-.071-.383-.071c-.037-.053-.213-.514-.213-.514a2.915 2.915 0 0 0-.135-.375s-.012.023.142-.064c.15-.086.221-.232.274-.375.052-.146 0-.393-.019-.442-.018-.049-.131-.278-.273-.326-.14-.05-.237.075-.237.075s-.041-.282.206-.312c0 0 0-.06.015-.1 0 0-.176-.106-.093-.3 0 0 .056-.136.213-.12l-.037.074s-.037.398.544.131c.581-.27.562-.318.9-.15l.24-.003s.348-.165.461-.094c.113.071.514.296.514.296s.39.146.469-.124l-.046-.13Z"/><path fill="currentColor" fill-rule="evenodd" d="M18.171 7.807h-.001l-.244.004h-.001c-.169-.085-.247-.114-.354-.09a1.046 1.046 0 0 0-.201.078l-.116.056-.223.105c-.29.134-.431.103-.498.033a.21.21 0 0 1-.053-.112.27.27 0 0 1-.003-.055v-.004h.008-.008V7.82l.033-.066a.195.195 0 0 0-.149.053.222.222 0 0 0-.043.058l-.002.004v.001a.217.217 0 0 0 .014.216.27.27 0 0 0 .074.074h.001l.006.004-.002.006a.273.273 0 0 0-.014.089v.009m-.094-.404.001-.001.002-.005a.229.229 0 0 1 .047-.062.212.212 0 0 1 .172-.056h.01l-.041.084v.015c0 .01 0 .024.003.04a.195.195 0 0 0 .049.104c.06.062.191.097.481-.036a16.62 16.62 0 0 0 .338-.161c.086-.04.149-.067.205-.08.113-.025.194.006.362.09l.236-.004h.003a.981.981 0 0 1 .053-.024c.034-.014.081-.033.132-.049a.835.835 0 0 1 .155-.036c.049-.005.094-.003.125.017.055.035.184.11.298.174l.15.085.047.027.017.01h.004a.594.594 0 0 0 .057.018.673.673 0 0 0 .141.02.322.322 0 0 0 .154-.029.199.199 0 0 0 .102-.126l-.044-.13.007-.002-.001-.007a.217.217 0 0 1 .225.124.23.23 0 0 1-.016.23.288.288 0 0 1-.076.077.523.523 0 0 1 .013.087v.004a.23.23 0 0 1 .135.062c.032.031.05.07.06.108a.376.376 0 0 1 .01.133v.009l-.001.002v.001l-.008-.001.008.001-.003.013-.091-.075c-.068-.026-.138-.01-.205.038a.65.65 0 0 0-.182.229.502.502 0 0 0-.064.254 1.275 1.275 0 0 0 .012.142c.005.042.011.089.015.144.01.118.11.214.21.28a1.082 1.082 0 0 0 .197.103l.008.003-.31.794m.29-.785-.304.78a.335.335 0 0 1-.108.156.204.204 0 0 1-.127.04.34.34 0 0 1-.203-.083c-.036-.032-.061-.04-.083-.035a.072.072 0 0 0-.027.015l-.012.01-.012.01c-.008.007-.008.016-.007.024a.158.158 0 0 0 .01.029c.007.022.017.047.016.077a.14.14 0 0 1-.042.097.502.502 0 0 1-.181.11 1.646 1.646 0 0 0-.363.193 1.432 1.432 0 0 0-.082.066.362.362 0 0 1-.051.041.179.179 0 0 1-.072.017.748.748 0 0 1-.24-.024.066.066 0 0 1-.01-.005.015.015 0 0 1-.005-.004l-.001-.001a.272.272 0 0 1-.016-.018.564.564 0 0 0-.098-.073 1.614 1.614 0 0 0-.186-.089l-.04-.017a5.694 5.694 0 0 1-.206-.09.306.306 0 0 1-.149-.13.137.137 0 0 1-.016-.08l.002-.014v-.001l.004-.024a.132.132 0 0 0-.002-.058.04.04 0 0 0-.017-.021.048.048 0 0 0-.032-.006.285.285 0 0 0-.113.057.237.237 0 0 1-.26.019.38.38 0 0 1-.105-.08l-.005-.007-.002-.001a1.835 1.835 0 0 1-.048-.1 8.045 8.045 0 0 1-.137-.34l-.02-.053a2.362 2.362 0 0 1-.006-.014l-.002-.005a2.9 2.9 0 0 0-.13-.364l.004-.001a.86.86 0 0 0 .13-.065c.153-.088.225-.236.277-.379a.632.632 0 0 0 .018-.261.913.913 0 0 0-.036-.187.91.91 0 0 0-.092-.164.426.426 0 0 0-.187-.166.203.203 0 0 0-.176.02.28.28 0 0 0-.05.038l-.007.006m.113 1.145v-.002h-.006v.007l-.006-.003-.001.001v.003a2.904 2.904 0 0 1 .136.376l.006-.002-.007.003.002.005.006.015.02.053a19.353 19.353 0 0 0 .137.339 2.184 2.184 0 0 0 .05.103l.006-.004-.006.005.001.001.001.001.006.007a.398.398 0 0 0 .108.083c.072.037.17.056.277-.02a.272.272 0 0 1 .106-.054c.01-.001.018 0 .022.003a.026.026 0 0 1 .01.014.118.118 0 0 1 .002.05.48.48 0 0 1-.003.024v.001l-.003.016a.152.152 0 0 0 .018.088.322.322 0 0 0 .155.136 5.7 5.7 0 0 0 .207.091l.04.017c.074.031.138.06.184.087.049.03.069.045.08.056l.014.014a.226.226 0 0 0 .025.026.235.235 0 0 0 .05.017.71.71 0 0 0 .21.015.19.19 0 0 0 .079-.02.371.371 0 0 0 .052-.04l.001-.001c.02-.019.046-.04.08-.066.07-.051.177-.117.36-.191a.516.516 0 0 0 .187-.114.156.156 0 0 0 .046-.107c0-.032-.01-.06-.018-.081v-.001a.146.146 0 0 1-.008-.026c-.001-.007 0-.009.002-.01l.012-.01.002-.002a.312.312 0 0 1 .01-.008.058.058 0 0 1 .02-.013c.015-.003.035.001.07.033m-2.742-.915.006-.001a.853.853 0 0 0 .127-.064c.148-.085.218-.229.27-.371a.617.617 0 0 0 .017-.255.89.89 0 0 0-.035-.182.892.892 0 0 0-.09-.162.412.412 0 0 0-.18-.16.189.189 0 0 0-.163.018.267.267 0 0 0-.063.053l-.001.001m.11 1.123Zm3.497.01a.514.514 0 0 1-.056-.025 1.102 1.102 0 0 1-.138-.077c-.101-.067-.207-.167-.217-.292-.004-.054-.01-.101-.015-.144a.517.517 0 0 1 .053-.404.665.665 0 0 1 .188-.235c.07-.05.145-.068.22-.038l.073.06a.362.362 0 0 0-.01-.126.22.22 0 0 0-.055-.101.218.218 0 0 0-.132-.059h-.006v-.01a.935.935 0 0 0-.015-.097l-.002-.005m-.105-.41.043.124v.003a.214.214 0 0 1-.111.137.337.337 0 0 1-.161.031.679.679 0 0 1-.203-.038l-.003-.001h-.001l.002-.008-.003.007-.018-.01a33.237 33.237 0 0 1-.497-.287c-.025-.016-.066-.02-.114-.014a.823.823 0 0 0-.152.035 1.698 1.698 0 0 0-.173.067l-.01.005-.004.001m.971.196-.003.007.003-.007Zm.434-.248a.202.202 0 0 1 .2.116.217.217 0 0 1-.015.216.27.27 0 0 1-.073.074h-.002" clip-rule="evenodd"/><path fill="#fff" d="M17.813 9.477s-.019-.124-.038-.203c0 0-.045-.124.03-.214l.09-.105s.057-.075.128-.086c0 0 .071 0 .075-.015.007-.015.086-.142.27 0 0 0 .056-.094.15-.112 0 0 .094-.027.142.045 0 0 .11-.083.203.052 0 0 .127-.075.225.071 0 0 .124-.063.202.068.08.135.064.187.064.187l.06.214.206.255-.48.18h-.217l-.431.113-.765.06-.21-.252.3-.262-.004.004Z"/><path fill="#00247D" fill-rule="evenodd" d="M18.52 8.75a.212.212 0 0 0-.105.062.3.3 0 0 0-.036.043l-.002.003v.001l-.006.009-.008-.006c-.09-.07-.153-.073-.193-.058a.124.124 0 0 0-.063.054.019.019 0 0 1-.008.01.047.047 0 0 1-.011.004.387.387 0 0 1-.061.007h-.003a.18.18 0 0 0-.085.045.305.305 0 0 0-.035.036v.001h-.001l-.09.105a.193.193 0 0 0-.041.135.274.274 0 0 0 .012.069v.002c.01.04.02.09.027.131l.008.052.003.015v.005h-.002l.004.005-.017.016v-.001l-.277.241.201.24.76-.059.431-.112h.217l.466-.175-.199-.246-.061-.219v-.004a.486.486 0 0 0-.063-.179c-.037-.062-.084-.077-.122-.078a.161.161 0 0 0-.066.014h-.001l-.008.005-.005-.007c-.047-.07-.1-.087-.14-.087a.162.162 0 0 0-.067.016l-.004.002h-.001l-.008.005-.005-.008c-.044-.064-.092-.076-.127-.072a.132.132 0 0 0-.06.021l-.001.001-.008.006-.006-.008a.106.106 0 0 0-.082-.045.163.163 0 0 0-.05.003Zm.143.024a.152.152 0 0 1 .063-.021c.041-.004.093.01.14.074a.18.18 0 0 1 .073-.017c.046 0 .103.018.153.089a.179.179 0 0 1 .069-.013c.043 0 .097.018.138.087a.48.48 0 0 1 .062.147.156.156 0 0 1 .003.044v.001l.059.21.213.263-.494.186h-.218l-.43.112-.771.06-.22-.262.3-.261a3.467 3.467 0 0 0-.036-.196v-.001a.212.212 0 0 1 .032-.221l.09-.105v-.001l.002-.003.008-.009a.314.314 0 0 1 .028-.028.198.198 0 0 1 .095-.05h.004a.46.46 0 0 0 .056-.005.03.03 0 0 0 .007-.003V8.85a.142.142 0 0 1 .075-.064c.046-.017.112-.012.202.055a.23.23 0 0 1 .15-.108h.001l.003-.002a.16.16 0 0 1 .052-.003c.03.002.065.013.091.046Zm-.573.077Z" clip-rule="evenodd"/><path fill="#D40000" d="M17.168 10.747s-.113.004-.173.038a1.247 1.247 0 0 0-.169.101s-.033.041-.165.015c0 0-.225-.053-.225.124 0 0-.277.022-.165.262 0 0 .075.188.233.056 0 0-.101.143.094.2 0 0 .138.037.18-.11 0 0 .022-.056-.03-.123 0 0 .067-.015.112-.087 0 0-.142.18.015.248 0 0 .199.049.21-.158 0 0-.019-.097.06-.13 0 0 .158-.038.225-.21 0 0-.225-.12-.202-.226Zm-.462-1.807s-.176-.079-.262 0c0 0-.113-.071-.236 0 0 0-.117.075-.2.161 0 0-.055.049-.037.203 0 0 .034.108.015.16 0 0-.037-.007-.116.087 0 0-.097.113-.187.011 0 0 .03.143.19.12 0 0-.078.06-.01.222 0 0 .052.112-.03.255 0 0 .142-.057.138-.225 0 0-.015-.113.03-.192 0 0-.045.072.053.225 0 0 .075.113.015.225 0 0 .139-.049.127-.217-.015-.173-.097-.101-.045-.259 0 0 .015.083.057.124a.225.225 0 0 1 .075.221s.082-.105.063-.214a.414.414 0 0 0-.04-.138l.262-.15.135-.237.003-.382Z"/><path fill="currentColor" fill-rule="evenodd" d="m16.71 8.931-.004.009h.01l-.004.382a.01.01 0 0 1-.002.005l-.135.236a.01.01 0 0 1-.003.004l-.255.145c.02.043.033.088.038.134a.267.267 0 0 1-.025.153.4.4 0 0 1-.04.067l-.008-.005.008.006a.01.01 0 0 1-.017-.008.215.215 0 0 0-.072-.212.217.217 0 0 1-.05-.096.172.172 0 0 0-.008.047c0 .016.005.026.013.037a.212.212 0 0 0 .005.007c.007.01.015.021.023.038.01.021.017.05.021.094a.222.222 0 0 1-.131.226l-.002.001-.003-.009.003.01a.01.01 0 0 1-.012-.014.2.2 0 0 0 .014-.148.275.275 0 0 0-.028-.066v-.001a.392.392 0 0 1-.063-.15.368.368 0 0 0-.003.105v.004l-.009.002h-.01V9.93l-.001-.015a.467.467 0 0 1 0-.048.298.298 0 0 1 .032-.128v-.001h.001l.008.004-.008-.005a.01.01 0 0 1 .016.01v.001l-.001.002a.123.123 0 0 0-.008.047c0 .035.013.09.061.165l.001.002.003.004a.288.288 0 0 1 .027.067.222.222 0 0 1-.004.138.203.203 0 0 0 .099-.197.268.268 0 0 0-.02-.088c-.007-.015-.014-.025-.021-.035l-.006-.008a.08.08 0 0 1-.016-.046.29.29 0 0 1 .018-.086.01.01 0 0 1 .01-.006.01.01 0 0 1 .008.007v.003a.199.199 0 0 0 .053.115.235.235 0 0 1 .084.19.396.396 0 0 0 .016-.03.247.247 0 0 0 .024-.143.403.403 0 0 0-.04-.136.01.01 0 0 1 .003-.012l.26-.15.133-.231.003-.374h-.001a.41.41 0 0 0-.09-.026c-.054-.01-.116-.01-.155.027a.01.01 0 0 1-.011 0h-.002l-.003-.002a.242.242 0 0 0-.064-.023.221.221 0 0 0-.158.026h-.001l-.004.003-.014.01a1.512 1.512 0 0 0-.178.147l-.006-.007-.007-.007.007.007.006.007m-.035.194a.327.327 0 0 1 .011-.154.134.134 0 0 1 .023-.04m-.034.194.001.004.004.013a.604.604 0 0 1 .016.098.14.14 0 0 1-.006.051.01.01 0 0 1-.01.006h-.005a.064.064 0 0 0-.018.007.297.297 0 0 0-.085.076l-.007-.006-.007-.006a.32.32 0 0 1 .09-.08.083.083 0 0 1 .024-.01h.002a.086.086 0 0 1-.002.007l.009.003-.002.01.002-.01.002-.01h-.001a.028.028 0 0 0-.008 0 .142.142 0 0 0 .003-.037.356.356 0 0 0-.015-.094l-.004-.013v-.004h-.001m-.28.255-.009.002v.002l.002.005.006.017a.165.165 0 0 0 .17.106.135.135 0 0 0-.017.036c-.012.037-.015.095.02.177l.008-.003-.008.004.002.004.004.014c.004.012.007.03.009.052a.31.31 0 0 1-.045.176.01.01 0 0 0 .001.01.01.01 0 0 0 .01.003l-.003-.008.004.008h.002l.004-.003a.257.257 0 0 0 .067-.048.241.241 0 0 0 .071-.183m-.125.203-.005.003a.17.17 0 0 1-.016.008l-.004.002h-.001l.003.01.008.004a.363.363 0 0 0 .015-.027Zm0 0a.223.223 0 0 0 .107-.202m-.107.202a.32.32 0 0 0 .023-.215l-.005-.016-.002-.004V9.9c-.033-.079-.03-.132-.02-.165a.114.114 0 0 1 .026-.043l.002-.002a.01.01 0 0 0-.007-.017c-.077.01-.122-.018-.147-.048a.164.164 0 0 1-.02-.03.11.11 0 0 0 .043.018.116.116 0 0 0 .066-.01.189.189 0 0 0 .062-.045l-.006-.007-.007-.006-.001.001-.003.003a.2.2 0 0 1-.053.037.097.097 0 0 1-.055.008.107.107 0 0 1-.062-.038.01.01 0 0 0-.016.008l.01-.002m.19.12-.005-.007-.002.001-.002.003a.102.102 0 0 0-.013.015.263.263 0 0 0 .024-.002l-.002-.01Zm.334-.742-.005-.008a.24.24 0 0 1 .226-.01.213.213 0 0 1 .014.006c.047-.038.113-.036.167-.027a.482.482 0 0 1 .099.03h.001m.458 1.807v.01l.01.001c-.005.023.003.047.02.072a.33.33 0 0 0 .069.071.738.738 0 0 0 .104.07h.002l.002.002a.01.01 0 0 1 .005.012.362.362 0 0 1-.225.213l-.005.002h-.001a.09.09 0 0 0-.054.071.154.154 0 0 0 0 .046v.003l-.01.003-.008.001-.001-.004-.001-.013c0-.01 0-.024.002-.039a.109.109 0 0 1 .065-.085h.002l.001-.001a.404.404 0 0 1 .023-.008.338.338 0 0 0 .19-.188l-.002-.002-.025-.015a.792.792 0 0 1-.076-.053.375.375 0 0 1-.072-.075.121.121 0 0 1-.026-.075h-.007a.602.602 0 0 0-.044.006.326.326 0 0 0-.106.03c-.056.026-.1.056-.167.1l-.001.002a.101.101 0 0 1-.035.018.294.294 0 0 1-.137-.003h-.002l-.007-.002a.35.35 0 0 0-.1-.002.134.134 0 0 0-.072.032c-.02.018-.033.045-.033.087a.01.01 0 0 1-.008.01l-.001-.01h-.01v-.008a.128.128 0 0 1 .039-.093.153.153 0 0 1 .082-.036.313.313 0 0 1 .106.002l.007.001h.002v.001a.277.277 0 0 0 .128.003.084.084 0 0 0 .024-.01.031.031 0 0 0 .004-.004m0 0 .003-.003c.067-.045.113-.075.17-.101a.348.348 0 0 1 .111-.033.647.647 0 0 1 .06-.006h.004m-.904.553c-.028-.061-.033-.11-.022-.148a.149.149 0 0 1 .066-.085.286.286 0 0 1 .117-.04l.004-.002m-.165.275.001.002.003.006a.2.2 0 0 0 .056.073.12.12 0 0 0 .079.028.155.155 0 0 0 .077-.026.143.143 0 0 0-.01.048c0 .023.006.048.025.072.02.023.052.043.102.057l.002-.009-.002.009h.002c0 .001.002.002.005.002l.017.002a.181.181 0 0 0 .055-.003.14.14 0 0 0 .064-.033.171.171 0 0 0 .048-.082l.001-.003.002-.008a.122.122 0 0 0 .002-.03.156.156 0 0 0-.029-.081.202.202 0 0 0 .048-.025.277.277 0 0 0-.01.03.146.146 0 0 0-.003.087c.01.03.033.055.074.073h.002l.002-.009m.003-.009.007.002a.24.24 0 0 0 .088-.003.126.126 0 0 0 .067-.042.176.176 0 0 0 .035-.105m-.22-.067a.236.236 0 0 0 .013-.018.01.01 0 0 0-.003-.013.01.01 0 0 0-.013.002l.008.006-.008-.006v.001l-.001.001a.138.138 0 0 0-.012.016.195.195 0 0 1-.092.064h-.001l.001.01m.021.12v.001a.153.153 0 0 1-.043.074.122.122 0 0 1-.055.029.16.16 0 0 1-.07 0 .183.183 0 0 1-.093-.052.087.087 0 0 1-.02-.06.134.134 0 0 1 .02-.067l.003-.005h.001m-.231-.066c-.028-.06-.031-.103-.022-.136a.13.13 0 0 1 .058-.074.266.266 0 0 1 .11-.038l.008-.002h.002" clip-rule="evenodd"/><path fill="currentColor" fill-rule="evenodd" d="M15.986 9.474v-.019h.008l.019.005a.142.142 0 0 1 .055.035v.001l.001.001.001.001.003.004a.068.068 0 0 0 .01.01.043.043 0 0 0 .037.01l.003.02a.061.061 0 0 1-.052-.015.09.09 0 0 1-.013-.013l-.003-.005-.001-.001a.122.122 0 0 0-.062-.034h-.005Zm0 0Zm.178.025.173.127-.032-.002v-.01.01h-.002a.108.108 0 0 1-.017-.003.208.208 0 0 1-.043-.012.122.122 0 0 1-.075-.087l-.004-.023Zm.101.098-.069-.051a.108.108 0 0 0 .055.045.17.17 0 0 0 .014.006Z" clip-rule="evenodd"/><path fill="currentColor" d="M16.466 9.292s-.056 0-.09-.026c0 0-.03-.022-.049.011 0 0-.03.053.023.075 0 0 .071.038-.038.105 0 0 .128-.048.075-.112 0 0-.056-.038-.037-.053 0 0 .008-.015.03 0 .023.02.068.012.086 0Z"/><path fill="#784421" d="m18.184 9.6.068-.019-.44-1.511-.014.004.386 1.526Z"/><path fill="currentColor" fill-rule="evenodd" d="m17.818 8.061.443 1.526-.082.022-.39-1.54.03-.008Zm-.01.018.382 1.512.053-.015-.435-1.497Z" clip-rule="evenodd"/><path fill="currentColor" d="M16.725 11.276s-.102-.06-.188.008c0 0 .011-.038.075-.053 0 0 .038-.101.135-.09 0 0-.041.049-.094.086 0 0 .057.008.075.049h-.003Z"/><path fill="#64B4D1" d="M16.366 11.512s-.165-.101-.075-.274c0 0 .026-.048.075-.037 0 0 .1.03.022.172 0 0-.041.09-.023.143v-.004Zm.33.165s-.233-.105-.162-.289c0 0 .023-.06.075-.056 0 0 .09.008.072.128 0 0-.027.112.015.217Z"/><path fill="#00247D" fill-rule="evenodd" d="m16.29 11.239-.006-.004.002-.002a.106.106 0 0 1 .02-.023.07.07 0 0 1 .061-.016l-.001.007.002-.007h.001l.004.002a.087.087 0 0 1 .04.034c.017.028.022.075-.018.147l-.002.003c0 .003-.002.007-.004.011a.386.386 0 0 0-.012.036.173.173 0 0 0-.006.08l.002.001v.008l-.01.002h-.004l-.001-.002m.03-.142-.007-.004c.04-.07.033-.11.02-.132a.072.072 0 0 0-.034-.028l-.003-.002a.054.054 0 0 0-.05.013.083.083 0 0 0-.016.02v.001m.244.15c-.035.087.004.156.052.205a.398.398 0 0 0 .088.065.396.396 0 0 1-.009-.202v-.002c.01-.057-.008-.086-.026-.101a.08.08 0 0 0-.035-.017h-.003a.06.06 0 0 0-.05.024.105.105 0 0 0-.017.027Zm.146.07v.004c-.002.004-.002.008-.003.014a.366.366 0 0 0 .018.194l-.007.003-.003.007h-.001l-.002-.001-.008-.004a.41.41 0 0 1-.099-.072c-.05-.05-.093-.125-.055-.221v-.003a.142.142 0 0 1 .019-.029.075.075 0 0 1 .063-.03v.008-.007h.005a.09.09 0 0 1 .042.02c.023.02.04.054.031.116" clip-rule="evenodd"/><path fill="currentColor" d="M16.646 11.002s-.07.053-.097.086c0 0-.03-.037-.068-.056 0 0 .045-.008.068.011 0 0 .037-.034.097-.041Z"/><path fill="#64B4D1" d="M16.852 11.633s.188-.045.15-.236c0 0-.018-.083-.093-.072 0 0-.094.027-.034.147 0 0 .038.082-.023.16Z"/><path fill="#00247D" fill-rule="evenodd" d="m17.01 11.395-.007.002.007-.002a.19.19 0 0 1-.064.197.251.251 0 0 1-.09.048h-.001l-.002-.007.001.007-.007-.012a.154.154 0 0 0 .022-.152v-.001c-.031-.062-.024-.101-.006-.126a.087.087 0 0 1 .043-.03l.003.006-.002-.007a.082.082 0 0 1 .083.034.121.121 0 0 1 .019.04v.002l.001.001Zm-.1-.062h-.002a.073.073 0 0 0-.032.024c-.014.02-.023.053.006.111l-.007.004.007-.003a.092.092 0 0 1 .005.015.17.17 0 0 1-.016.135.234.234 0 0 0 .066-.038c.04-.034.076-.09.058-.183v-.003a.11.11 0 0 0-.017-.034.066.066 0 0 0-.067-.028Z" clip-rule="evenodd"/><path fill="#F5CE00" d="m17.682 7.639.18.06s.168.075.386 0l.165-.064-.113.173v.09l.068.101s-.041.019-.169-.06c0 0-.139-.109-.304 0 0 0-.093.06-.168.06l.108-.12-.04-.109-.113-.135v.004Z"/><path fill="currentColor" fill-rule="evenodd" d="m18.389 7.654-.138.053a.605.605 0 0 1-.391.001h-.002l-.144-.049.088.106.044.116-.097.106a.331.331 0 0 0 .086-.027.534.534 0 0 0 .04-.02l.011-.007.003-.002.006.007-.005-.007a.273.273 0 0 1 .313-.001h.001a.41.41 0 0 0 .147.061l-.06-.09v-.097l.098-.15Zm-.021.344.003.009-.003.001a.11.11 0 0 1-.039-.001.428.428 0 0 1-.135-.06l-.001-.001-.001-.001-.005-.003a.267.267 0 0 0-.08-.035.254.254 0 0 0-.207.04l-.005-.009.005.008-.001.001-.003.002a.445.445 0 0 1-.17.059h-.02l.118-.132-.039-.101-.105-.127-.008-.003v-.01l.012-.005h.001l.004-.001.002.003.174.058h.002l.005.003a.515.515 0 0 0 .102.025.588.588 0 0 0 .27-.028l.165-.064.011.014-.11.17v.084l.071.108-.01.005-.003-.009Z" clip-rule="evenodd"/><path fill="#fff" d="M16.924 11.408s.007-.012 0-.015l-.015.007s-.019.03 0 .075c0 0 .015.026.007.056l.004.012s.007-.004.007-.012c0 0 .012-.026-.007-.056 0 0-.019-.045.004-.067Z"/><path fill="#D40000" d="M19.455 7.987s-.131.068-.188-.01c0 0-.067-.14.09-.188 0 0-.086-.102.004-.195 0 0 .049-.053.131-.015 0 0 .038-.075.116-.072 0 0 .075 0 .098.08 0 0 .101-.038.154.018 0 0 .09.101-.038.184l-.09.007-.09-.041-.097.026s.026.101-.09.206Z"/><path fill="currentColor" fill-rule="evenodd" d="M19.608 7.498a.126.126 0 0 0-.094.037.167.167 0 0 0-.026.032.13.13 0 0 0-.096-.004.114.114 0 0 0-.036.022l-.002.002m.355.008.004-.001a.214.214 0 0 1 .05-.01c.031-.002.066.002.09.027v.001l.002.003a.138.138 0 0 1 .024.053.09.09 0 0 1-.006.053.142.142 0 0 1-.054.059l-.086.007-.087-.04a.01.01 0 0 0-.007-.001l-.097.026a.01.01 0 0 0-.007.012v.003l.002.012c0 .01 0 .026-.003.044a.256.256 0 0 1-.085.137l-.004.002a.334.334 0 0 1-.065.02c-.039.007-.08.004-.105-.03V7.97l-.002-.004a.166.166 0 0 1-.011-.066.1.1 0 0 1 .021-.056.15.15 0 0 1 .076-.047.01.01 0 0 0 .004-.015" clip-rule="evenodd"/><path fill="#F5CE00" d="M18.412 7.883s0 .026-.026.03c0 0-.03.01-.049-.027v-.011c0-.015-.008-.064.045-.101 0 0 .082-.068.24.015.151.085.307.164.465.236 0 0 .098.049.247.056 0 0 .207.015.293-.131 0 0 .068-.109 0-.18 0 0-.026-.03-.071-.026a.092.092 0 0 0-.056.037s-.034.045.003.079c0 0 .049.03.068-.034 0 .008.015.057-.012.094 0 0-.127.188-.468-.004l-.45-.255s-.225-.116-.364.068c0 0-.109.15.034.247 0 0 .105.064.169-.037 0 0 .056-.098-.03-.139 0 0-.075-.037-.105.038s.056.097.063.04c0 0 0-.01.008 0l-.004.005Z"/><path fill="currentColor" fill-rule="evenodd" d="m18.646 7.653-.005.008.005-.008.45.255c.169.095.283.095.355.073a.221.221 0 0 0 .1-.065h.001v-.001a.087.087 0 0 0 .014-.057.045.045 0 0 1-.035.018.06.06 0 0 1-.03-.006l-.001-.001h-.001l.005-.009-.005.008h-.001a.06.06 0 0 1-.02-.062.086.086 0 0 1 .014-.03.101.101 0 0 1 .062-.041h.002a.098.098 0 0 1 .077.027l.001.001c.037.04.037.088.028.126a.249.249 0 0 1-.023.06l-.003.005v.001l-.008-.005-.008-.005.002-.004a.202.202 0 0 0 .022-.056c.008-.035.007-.076-.023-.108l-.001-.002-.003-.002a.08.08 0 0 0-.059-.02.082.082 0 0 0-.05.034l-.001.002a.07.07 0 0 0-.01.022.04.04 0 0 0 .012.041h.001a.04.04 0 0 0 .02.005.026.026 0 0 0 .017-.006.056.056 0 0 0 .015-.027l.019.002v.006l.002.005a.165.165 0 0 1 .002.025.105.105 0 0 1-.017.063v.001l-.002.002a.188.188 0 0 1-.025.026.24.24 0 0 1-.085.045c-.077.024-.197.022-.37-.074l-.45-.255a.108.108 0 0 0-.008-.005.358.358 0 0 0-.117-.03.244.244 0 0 0-.226.1l-.004.005a.248.248 0 0 0-.03.078.145.145 0 0 0 .004.075.149.149 0 0 0 .061.075h.001a.1.1 0 0 0 .015.008c.01.004.025.009.04.01a.1.1 0 0 0 .051-.007.112.112 0 0 0 .049-.045l.002-.004a.135.135 0 0 0 .014-.046.077.077 0 0 0-.005-.04.072.072 0 0 0-.037-.035l-.003-.002a.09.09 0 0 0-.034-.007c-.01 0-.02.002-.03.008a.066.066 0 0 0-.025.033.057.057 0 0 0-.004.04.03.03 0 0 0 .017.018.024.024 0 0 0 .02 0c.006-.004.01-.01.012-.02v-.003l.003-.007a.01.01 0 0 1 .014-.003.022.022 0 0 1 .008.008l.004.006-.006.007v.001a.045.045 0 0 1-.004.012.037.037 0 0 1-.03.022.046.046 0 0 1-.02 0c-.014-.002-.028-.01-.039-.031v-.02a.111.111 0 0 1 .049-.104v-.001a.139.139 0 0 1 .016-.01.17.17 0 0 1 .048-.015.295.295 0 0 1 .185.04c.152.085.306.164.465.236l-.004.008.004-.008.004.002a.742.742 0 0 0 .24.053h.002a.229.229 0 0 0 .03 0c.02 0 .048-.003.079-.01a.262.262 0 0 0 .172-.117m-.285.146a.76.76 0 0 1-.25-.057 6.05 6.05 0 0 1-.466-.237.277.277 0 0 0-.173-.037.152.152 0 0 0-.053.019c-.002 0-.002.001-.003.002h-.001a.216.216 0 0 0-.006.005.078.078 0 0 1 .027-.005.109.109 0 0 1 .041.009l.003.001h.001l-.004.01m-.139.175-.005.008a.173.173 0 0 1-.069-.084.164.164 0 0 1-.005-.086.241.241 0 0 1 .038-.09l.008.005-.008-.006a.262.262 0 0 1 .242-.106.394.394 0 0 1 .13.035h.003v.001m-.262.25h.002c.01-.001.014-.006.016-.01a.026.026 0 0 0 .002-.008V7.88m0 0 .007-.007.006.007h.002v.004h.002m-.006 0h-.004l.006-.004h.002v.001l-.004.003Zm.003.004a.043.043 0 0 1-.029.031" clip-rule="evenodd"/><path fill="#E4CB5E" d="M16.624 8.663v-.285c0-.023 0-.038.037-.068.03-.026.068-.07.116.053 0 0 .102-.109.135-.124 0 0 .06-.049.102.023 0 0 .052-.083.093-.102 0 0 .102-.063.105.132l.08-.075s.063-.05.13.022c0 0 .113.113.128.143 0 0 .026.033.03.086 0 0 0 .06.03.094 0 0 .037.033.071.037 0 0 .079.004.113.083 0 0 .01-.015.052.352v.675l-.454.54-.727-.21-.289-.12-.067-.21.28-.184.15-.412-.044-.289-.071-.165v.004Z"/><path fill="currentColor" fill-rule="evenodd" d="M17.111 8.166a.115.115 0 0 0-.03.023.348.348 0 0 0-.059.072l-.001.003h-.001l-.007.011-.006-.01a.071.071 0 0 0-.03-.031.047.047 0 0 0-.028-.004.071.071 0 0 0-.031.014h-.002v.001a.17.17 0 0 0-.034.025 1.012 1.012 0 0 0-.095.093l-.003.003-.001.001-.008.009-.005-.011a.226.226 0 0 0-.033-.062c-.01-.012-.018-.016-.025-.016a.046.046 0 0 0-.023.008.185.185 0 0 0-.023.02.1.1 0 0 0-.03.034.063.063 0 0 0-.005.028v.28l.071.164.046.292-.152.416-.278.182.064.202.285.118.723.209.449-.534v-.672a4.867 4.867 0 0 0-.047-.34l-.005-.01a.126.126 0 0 0-.105-.078h-.001a.126.126 0 0 1-.052-.022.22.22 0 0 1-.023-.017h-.001v-.001a.136.136 0 0 1-.029-.063.235.235 0 0 1-.003-.025v-.01a.173.173 0 0 0-.025-.077l-.003-.004v-.001h-.001v-.001a1.37 1.37 0 0 0-.108-.123l-.014-.014-.004-.003v-.001h-.001c-.032-.034-.063-.04-.085-.036a.089.089 0 0 0-.034.012l-.002.001-.09.087-.001-.017c-.002-.097-.028-.125-.049-.132a.051.051 0 0 0-.03 0 .072.072 0 0 0-.014.006Zm.18.05a.047.047 0 0 1-.004-.006l.003-.002a.104.104 0 0 1 .04-.015c.027-.004.062.003.098.04l.001.001.004.004.013.013a2.809 2.809 0 0 1 .083.09.237.237 0 0 1 .041.06.183.183 0 0 1 .017.066m-.296-.251-.004-.006-.068.064c-.004-.086-.03-.12-.058-.13a.066.066 0 0 0-.04.001.09.09 0 0 0-.012.005l-.004.002h-.001v.001m.483.314v.01a.22.22 0 0 0 .004.024.12.12 0 0 0 .024.055l.002.002.004.003.016.012c.013.009.03.017.045.019h.004l.01.002a.14.14 0 0 1 .104.083l.002.002a4.953 4.953 0 0 1 .052.354v.679l-.459.546-.732-.212-.293-.121-.07-.219.284-.185.148-.409-.044-.286-.07-.163h-.002v-.285c0-.011 0-.022.006-.034a.113.113 0 0 1 .034-.04c.002 0 .004-.002.006-.004a.212.212 0 0 1 .019-.016.052.052 0 0 1 .032-.01c.012 0 .024.006.036.02.01.012.02.03.031.055l.008-.008a1.924 1.924 0 0 1 .084-.082.19.19 0 0 1 .037-.026l.002-.002a.088.088 0 0 1 .036-.015.062.062 0 0 1 .037.005.08.08 0 0 1 .03.027m.774.439Z" clip-rule="evenodd"/><path fill="#784421" d="m18.626 9.015.037-.049.08-.064s.127.33.13.402v.1s.188.05.226.338l-.158.29-.244-.14-.071-.048v-.829Z"/><path fill="currentColor" fill-rule="evenodd" d="m18.75 8.9-.007.003.007-.003.001.004.004.01a6.263 6.263 0 0 1 .104.295.475.475 0 0 1 .023.095V9.4l.003.001a.3.3 0 0 1 .093.06.45.45 0 0 1 .129.281v.002l-.162.298-.251-.143-.075-.05v-.836l.04-.052.087-.07.004.01Zm.122.513-.005-.002v-.107a.55.55 0 0 0-.022-.09 3.393 3.393 0 0 0-.09-.256l-.014-.038a.097.097 0 0 1-.001-.005l-.07.057-.036.046v.822l.068.047.237.134.152-.28a.434.434 0 0 0-.124-.27.284.284 0 0 0-.093-.058h-.001Z" clip-rule="evenodd"/><path fill="#fff" d="M16.32 11.28s.008-.011 0-.019l-.015.012s-.048.052-.007.138c0 0 0 .011.011.008 0 0 .008 0 0-.011 0 0-.037-.075.011-.128Z"/><path fill="currentColor" fill-rule="evenodd" d="m17.052 11.166-.001-.002a.067.067 0 0 1-.005-.036l-.019-.004a.084.084 0 0 0 .008.05v.001a.081.081 0 0 1 .011.043v.004l.01.001.009.002v-.019a.1.1 0 0 0-.013-.04m.153-2.874h.015v.011l.003.03a.295.295 0 0 0 .019.08c.008.021.025.05.043.08l.009.015a.71.71 0 0 1 .028.05.124.124 0 0 1 .014.044l-.015.001a.12.12 0 0 0-.013-.038.692.692 0 0 0-.027-.05l-.01-.015c-.017-.03-.035-.059-.043-.082a.314.314 0 0 1-.023-.123v-.003Z" clip-rule="evenodd"/><path fill="#D40000" d="M18.922 10.748s.113.004.173.038c.06.026.105.056.172.1 0 0 .03.042.162.016 0 0 .228-.053.228.123 0 0 .274.023.162.263 0 0-.075.188-.233.056 0 0 .101.143-.094.199 0 0-.139.038-.18-.109 0 0-.022-.056.034-.123 0 0-.067-.015-.113-.087 0 0 .143.18-.015.248 0 0-.198.049-.21-.158 0 0 .015-.097-.06-.131 0 0-.157-.037-.228-.21 0 0 .225-.12.202-.225Z"/><path fill="currentColor" fill-rule="evenodd" d="m18.923 10.747-.01.002c.006.023-.003.047-.02.072a.356.356 0 0 1-.069.07.752.752 0 0 1-.074.053l-.025.015-.007.004h-.002a.01.01 0 0 0-.004.013.374.374 0 0 0 .234.215.094.094 0 0 1 .052.071.168.168 0 0 1 .002.05v.002c.003.053.018.09.04.117a.15.15 0 0 0 .076.048.225.225 0 0 0 .096.003l.007-.001h.002v-.001l-.002-.01.002.01h.002a.126.126 0 0 0 .074-.073.11.11 0 0 0 .002-.008.113.113 0 0 0 .004.035v.002a.17.17 0 0 0 .049.083.14.14 0 0 0 .064.033.181.181 0 0 0 .072 0h.007l-.002-.01.002.01a.202.202 0 0 0 .102-.059.105.105 0 0 0 .025-.072.147.147 0 0 0-.01-.047.154.154 0 0 0 .077.025.12.12 0 0 0 .079-.027.203.203 0 0 0 .059-.079v-.002c.03-.061.034-.11.023-.149a.147.147 0 0 0-.064-.084.278.278 0 0 0-.115-.041h-.004a.127.127 0 0 0-.039-.093.157.157 0 0 0-.083-.037.328.328 0 0 0-.115.004h-.002a.269.269 0 0 1-.126.003.075.075 0 0 1-.026-.013m.155.03a.287.287 0 0 1-.134.001.092.092 0 0 1-.028-.012l-.006-.006-.002-.001a1.056 1.056 0 0 0-.17-.1.33.33 0 0 0-.106-.03.727.727 0 0 0-.044-.005h-.007a.121.121 0 0 1-.026.074.375.375 0 0 1-.072.074.769.769 0 0 1-.101.069l-.003.001a.355.355 0 0 0 .213.195l.005.002h.001l-.002.01m-.026-.436v-.01h.002l.003.001a2.113 2.113 0 0 1 .06.006c.035.005.08.015.111.032.061.027.107.057.174.102l.002.002m.156.03h.002l.008-.002a.37.37 0 0 1 .101-.002.139.139 0 0 1 .074.032c.019.018.032.045.032.087a.01.01 0 0 0 .009.009m0 0h.003a.26.26 0 0 1 .116.04.13.13 0 0 1 .056.073c.01.034.006.078-.021.136l.008.004-.009-.003v.002l-.003.005a.183.183 0 0 1-.051.066.1.1 0 0 1-.066.024.165.165 0 0 1-.098-.045.01.01 0 0 0-.014.013l.009-.006m-.097.19-.005.001a.161.161 0 0 1-.065 0 .122.122 0 0 1-.055-.029.154.154 0 0 1-.043-.074v-.001l-.001-.002a.099.099 0 0 1-.003-.03.14.14 0 0 1 .036-.082.01.01 0 0 0 .001-.01.01.01 0 0 0-.006-.005l-.003.009.003-.01h-.003a.182.182 0 0 1-.034-.015.195.195 0 0 1-.069-.065v-.001h-.001v-.001l-.008.005.007-.005a.01.01 0 0 0-.015.01.43.43 0 0 1 .05.096c.008.026.01.053.003.077-.008.023-.026.045-.063.061m.068-.173a.347.347 0 0 0-.042-.07l-.008.004-.007.006.001.002a.185.185 0 0 1 .011.016.22.22 0 0 0 .045.042Zm0 0c.004.01.008.02.01.03a.17.17 0 0 1 .008.055.166.166 0 0 1 .029-.06.193.193 0 0 1-.047-.025Zm-.009-.409Zm-1.833-.892-.244-1.391.015-.003.243 1.391-.014.003Zm-.072.019-.21-1.403.015-.002.21 1.402-.015.003Zm-.067.104-.188-1.503.015-.002.188 1.504-.015.001Z" clip-rule="evenodd"/><path fill="#784421" d="m17.587 9.866.068-.022-.439-1.508h-.015l.386 1.53Z"/><path fill="currentColor" fill-rule="evenodd" d="M17.191 8.33h.03l.443 1.519-.082.027-.39-1.547Zm.021.02.38 1.507.054-.018-.434-1.488Zm.563 1.31-.442-1.118.014-.006.442 1.118-.014.005Zm-.045.063-.427-1.163.014-.005.427 1.163-.014.005Z" clip-rule="evenodd"/><path fill="#fff" d="M16.613 11.568s-.052-.048-.045-.135c0 0 0-.018-.007-.022 0 0-.012-.004-.012.019 0 0-.015.09.05.142 0 0 .003.008.01.004 0 0 .008 0 0-.008h.004Z"/><path fill="currentColor" fill-rule="evenodd" d="m17.806 9.547-.45-1.02.013-.006.45 1.02-.013.006Zm-.293.414L17.23 8.59l.015-.003.281 1.372-.014.003Z" clip-rule="evenodd"/><path fill="#F5CE00" d="M19.518 9.6c-.199-.112-.244-.36-.244-.36a.772.772 0 0 1 .053-.45.575.575 0 0 1 .349-.322s-.218.15-.278.352c0 0-.045.173-.019.338.027.172.015.127.057.259l.082.187V9.6Z"/><path fill="currentColor" fill-rule="evenodd" d="m19.682 8.475-.008-.016.002.009-.002-.01-.003.001a.209.209 0 0 0-.035.012.524.524 0 0 0-.091.049.64.64 0 0 0-.226.266.782.782 0 0 0-.053.456l.009-.002-.01.002.001.003a.647.647 0 0 0 .048.137.505.505 0 0 0 .195.223l.001.003h.004l.001-.001.013-.003v-.01l-.004-.002-.079-.179a3.743 3.743 0 0 0-.01-.033c-.013-.04-.019-.058-.023-.08a9.119 9.119 0 0 0-.022-.144.832.832 0 0 1 .016-.326l.001-.006v-.001a.627.627 0 0 1 .16-.248.968.968 0 0 1 .105-.093l.007-.005.002-.001Zm-.283.345.009.002-.01-.002Zm-.028.34a.854.854 0 0 1 .017-.334l.001-.006v-.002l.01.002-.01-.002a.646.646 0 0 1 .164-.257c.026-.025.05-.047.07-.063a.62.62 0 0 0-.286.296.763.763 0 0 0-.053.444l-.009.002m.01-.002v.003l.001.008a.552.552 0 0 0 .045.125.499.499 0 0 0 .165.2l.013.031.003.002h.003l.002-.003h.002l.008-.004-.003-.008a.403.403 0 0 1-.028-.017l-.069-.155-.01-.034a.852.852 0 0 1-.024-.082l-.012-.073a6.064 6.064 0 0 0-.01-.072m.074.254-.009.003.01-.002h-.001Z" clip-rule="evenodd"/><path fill="#784421" d="m18.66 8.962-.836.267-.045.375c-.2.288-.604.337-.604.337l.315.338.6.123.319-.243.288-.263c-.03-.142-.015-.352-.015-.352 0-.038.015-.12.015-.12s-.048-.338-.037-.458v-.004Z"/><path fill="currentColor" fill-rule="evenodd" d="M18.664 8.958v.009c-.006.06.003.173.014.273a5.97 5.97 0 0 0 .02.169l.003.01v.004h-.004l.004.002v.003l-.002.01a1.843 1.843 0 0 0-.013.106v.01l-.002.026a1.965 1.965 0 0 0-.002.088c0 .07.004.158.019.229v.002l-.29.264-.32.245-.603-.125-.321-.343.007-.001h.005a.62.62 0 0 0 .061-.012c.041-.01.098-.025.16-.049a.793.793 0 0 0 .375-.274l.045-.377.844-.268Zm-1.482.986.31.331.597.124.317-.243.287-.26a1.207 1.207 0 0 1-.018-.23 1.979 1.979 0 0 1 .003-.113v-.009a.608.608 0 0 1 .013-.107l.002-.01V9.42a.42.42 0 0 0-.002-.011c0-.01-.003-.023-.005-.04a6.697 6.697 0 0 1-.015-.13 1.764 1.764 0 0 1-.015-.272l-.829.264-.045.373v.001a.8.8 0 0 1-.378.278 1.154 1.154 0 0 1-.222.06Zm1.515-.52h.004-.004Z" clip-rule="evenodd"/><path fill="currentColor" fill-rule="evenodd" d="m17.788 9.503.88-.311.006.014c-.165.07-.386.147-.565.208a17.71 17.71 0 0 1-.292.096l-.018.005-.007.002-.002-.007.002.007-.005-.014Zm1.09-.193-.177.12c-.242.14-.537.24-.77.306a5.296 5.296 0 0 1-.398.095l-.006.001h-.001l-.002-.007-.002-.007h.002l.006-.002a3.044 3.044 0 0 0 .107-.022c.073-.016.174-.04.29-.073.233-.065.526-.165.767-.303l.176-.12.008.012Z" clip-rule="evenodd"/><path fill="currentColor" fill-rule="evenodd" d="m18.915 9.383-.225.167-.004-.007.003.007-.002.001-.007.003a2.295 2.295 0 0 1-.121.052 5.662 5.662 0 0 1-.33.122c-.267.09-.608.181-.904.187h-.05l1.64-.532Zm-.233.154.15-.111-1.454.472c.28-.015.595-.1.846-.184a5.697 5.697 0 0 0 .425-.162l.025-.012.007-.002.001-.001Zm-.003.251.003.007.004.006-.002.001-.005.003-.02.01a4.325 4.325 0 0 1-.312.139c-.19.076-.424.154-.595.156v-.015c.167-.002.399-.079.59-.155a4.668 4.668 0 0 0 .33-.149l.005-.002h.002v-.001Z" clip-rule="evenodd"/><path fill="#D40000" d="M19.388 8.94s.176-.079.262 0c0 0 .113-.071.24 0 0 0 .113.075.195.161 0 0 .056.049.038.203 0 0-.03.108-.012.16 0 0 .038-.007.113.087 0 0 .101.113.187.011 0 0-.026.143-.187.12 0 0 .075.06.007.222 0 0-.048.112.03.255 0 0-.142-.057-.135-.225 0 0 .012-.113-.03-.192 0 0 .042.072-.056.225 0 0-.075.113-.011.225 0 0-.143-.049-.128-.217.012-.173.098-.101.042-.259 0 0-.012.083-.053.124a.225.225 0 0 0-.075.221s-.082-.105-.064-.214c.02-.108.038-.138.038-.138l-.263-.15-.13-.237-.008-.382Z"/><path fill="currentColor" fill-rule="evenodd" d="M19.387 8.94h-.01l.008.383c0 .001 0 .003.002.004l.13.236.004.004.255.145a.77.77 0 0 0-.034.133.266.266 0 0 0 .025.154.408.408 0 0 0 .037.063l.002.004h.001l.008-.005-.008.006a.01.01 0 0 0 .017-.008.216.216 0 0 1 .072-.212.201.201 0 0 0 .048-.095c.006.02.008.035.008.047a.06.06 0 0 1-.013.036l-.005.006a.179.179 0 0 0-.022.04.276.276 0 0 0-.02.093.215.215 0 0 0 .127.225l.005.002h.001l.004-.009-.003.01a.01.01 0 0 0 .01-.004.01.01 0 0 0 0-.01.195.195 0 0 1-.017-.148.26.26 0 0 1 .026-.063l.002-.003v-.001a.408.408 0 0 0 .064-.153.414.414 0 0 1 .007.094v.014l-.001.004v.001a.236.236 0 0 0 .134.231l.005.002.001.001.004-.008-.003.008a.01.01 0 0 0 .012-.013.327.327 0 0 1-.036-.228.18.18 0 0 1 .004-.014l.001-.004c.035-.083.034-.14.023-.178a.137.137 0 0 0-.017-.036.16.16 0 0 0 .168-.106.178.178 0 0 0 .006-.017v-.005l.001-.001-.009-.003.01.002a.01.01 0 0 0-.017-.008.101.101 0 0 1-.06.038.098.098 0 0 1-.055-.008.176.176 0 0 1-.058-.04v-.001a.299.299 0 0 0-.087-.08.08.08 0 0 0-.024-.01h-.002a.15.15 0 0 1-.004-.037.386.386 0 0 1 .017-.11v-.002m-.018.168a.01.01 0 0 1-.01-.006.153.153 0 0 1-.008-.05.4.4 0 0 1 .017-.112v-.004h.001a.327.327 0 0 0-.011-.154.133.133 0 0 0-.023-.04m.145.443-.007.006a.282.282 0 0 0-.082-.076.06.06 0 0 0-.022-.007m.11.077-.006.006v.001h.001a.142.142 0 0 0 .017.016c.011.01.027.021.046.03a.106.106 0 0 0 .108-.009.154.154 0 0 1-.019.03c-.024.03-.068.059-.145.048a.01.01 0 0 0-.01.006.01.01 0 0 0 .003.01m.021.447a.218.218 0 0 1-.104-.202v-.005l.002-.014-.001-.048a.333.333 0 0 0-.031-.128v-.001l-.009.004.008-.004a.01.01 0 0 0-.016.01c0-.001 0 0 0 0l.001.001.003.01a.12.12 0 0 1 .003.038.35.35 0 0 1-.063.165l.008.005-.008-.005v.002c-.002 0-.002.002-.003.004a.237.237 0 0 0-.028.067m-.068-.32v.003l-.002.01a.31.31 0 0 1-.008.032.184.184 0 0 1-.04.073.234.234 0 0 0-.083.189.392.392 0 0 1-.016-.03.248.248 0 0 1-.024-.143.765.765 0 0 1 .036-.134v-.001a.01.01 0 0 0 .002-.008.01.01 0 0 0-.005-.006l-.26-.148-.129-.232-.007-.374h.002a.5.5 0 0 1 .089-.026c.054-.01.116-.01.155.027a.01.01 0 0 0 .012 0l-.005-.007.005.008m-.004-.02a.265.265 0 0 1 .07-.024.25.25 0 0 1 .174.028l.001.001.004.003.014.01a1.52 1.52 0 0 1 .177.148m-.206-.146a.23.23 0 0 0-.23 0m.23 0 .005.003a1.373 1.373 0 0 1 .188.157m-.427-.18c-.047-.038-.113-.036-.166-.027a.488.488 0 0 0-.093.027l-.006.002-.002.001.003.009" clip-rule="evenodd"/><path fill="#fff" d="M16.391 9.896s.027-.116.135-.075c0 0 .038-.187.244-.195.203-.007.214.199.214.214 0 0 .064-.09.161-.079 0 0 .173-.011.113.267l.03.037s.13-.311.4-.232c0 0 .263.082.095.337 0 0 .13.172.24.154.112-.015.21-.049.318-.244.113-.195.368-.225.432-.214.063.012.116.057.127.102 0 0 .135-.45.623-.383l.195.101.075.034-.113.311-.266.608-.206.06-.214-.12-.075.037-.004.184-.281.202-.195.08-.214.15-.052.13s-.117-.052-.252 0l-.045-.112-.127-.116-.488-.233-.086-.285-.09-.037-.101.112-.143.019-.217-.15-.236-.66.003-.004Z"/><path fill="#00247D" fill-rule="evenodd" d="m18.91 9.97-.01.033-.009-.033a.115.115 0 0 0-.04-.058.175.175 0 0 0-.08-.036.453.453 0 0 0-.192.029.42.42 0 0 0-.23.18.533.533 0 0 1-.16.192.367.367 0 0 1-.165.056.147.147 0 0 1-.089-.017.379.379 0 0 1-.08-.055.65.65 0 0 1-.078-.083l-.001-.002.007-.006-.008.006-.004-.005.004-.006a.276.276 0 0 0 .055-.155.153.153 0 0 0-.038-.098.236.236 0 0 0-.103-.07h-.002a.28.28 0 0 0-.293.084.51.51 0 0 0-.096.14l-.001.002-.007.015-.042-.053v-.004c.03-.138.002-.2-.03-.229a.106.106 0 0 0-.066-.026h-.007a.154.154 0 0 0-.111.033.223.223 0 0 0-.04.038l-.002.003-.017.025v-.03a.27.27 0 0 0-.03-.11.174.174 0 0 0-.06-.068.195.195 0 0 0-.114-.026.237.237 0 0 0-.227.16.203.203 0 0 0-.008.027l-.002.011-.01-.004a.096.096 0 0 0-.062-.005.075.075 0 0 0-.037.024.124.124 0 0 0-.023.045l-.001.003v.004l-.002.002.233.651.212.146.135-.018.104-.114.1.041.086.286.485.231.13.119.043.106a.358.358 0 0 1 .24 0l.05-.126.218-.152.195-.079.276-.199.004-.184.084-.043.215.12.198-.057.265-.603.109-.303-.067-.03-.194-.1a.523.523 0 0 0-.484.162.631.631 0 0 0-.12.195l-.005.014a.08.08 0 0 1-.001.003v.001Zm-.01-.029a.65.65 0 0 1 .122-.196.542.542 0 0 1 .502-.17l.002.001.196.102.083.037-.116.32-.268.612-.214.062-.213-.12-.066.033-.003.183-.286.206-.195.079-.211.147-.055.138-.01-.004-.004-.002a.335.335 0 0 0-.24.002l-.008.004-.047-.12-.125-.113-.49-.234-.086-.285-.08-.033-.1.11-.149.02-.223-.154-.239-.668.006-.006v-.003a.153.153 0 0 1 .028-.052.093.093 0 0 1 .046-.03.109.109 0 0 1 .063.002.285.285 0 0 1 .044-.088c.036-.05.1-.1.206-.104a.213.213 0 0 1 .124.03c.031.02.053.046.067.073a.29.29 0 0 1 .03.097.236.236 0 0 1 .032-.028.173.173 0 0 1 .13-.037.127.127 0 0 1 .077.031c.04.035.067.105.038.242l.018.022a.513.513 0 0 1 .095-.134.3.3 0 0 1 .31-.09l-.002.01.003-.01v.001h.003a.23.23 0 0 1 .037.017.256.256 0 0 1 .074.059.172.172 0 0 1 .043.11.289.289 0 0 1-.055.16l.002.002a.545.545 0 0 0 .148.127.13.13 0 0 0 .077.016.35.35 0 0 0 .157-.053.514.514 0 0 0 .155-.186.438.438 0 0 1 .24-.189.47.47 0 0 1 .201-.03c.034.006.064.02.088.04a.15.15 0 0 1 .038.044Z" clip-rule="evenodd"/><path fill="currentColor" fill-rule="evenodd" d="M18.518 7.674v.019h-.002a.141.141 0 0 0-.026.001.2.2 0 0 0-.061.018.14.14 0 0 0-.058.052.184.184 0 0 0-.024.106l-.019.001a.202.202 0 0 1 .027-.117.158.158 0 0 1 .066-.059.219.219 0 0 1 .096-.021h.001Z" clip-rule="evenodd"/><path fill="#F5CE00" d="M19.74 9.735c-.322-.102-.412-.45-.412-.45a.803.803 0 0 1 .041-.488c.15-.349.398-.349.398-.349a.128.128 0 0 1 .142.105c.011.075-.041.102-.041.102-.086.048-.143-.015-.143-.015-.037-.05-.007-.09-.007-.09.022-.03.064-.015.064-.015.037.007.03.052.03.052s.01-.052-.038-.056c0 0-.101-.023-.214.12 0 0-.15.191-.15.442 0 0-.018.465.465.585 0 0-.052.075-.146.35 0 0-.105.352-.202.543 0 0-.135.27-.435.161 0 0-.177-.079-.177-.206 0 0-.01-.12.094-.128 0 0 .105-.007.105.083 0 0 0 .094-.112.075 0 0-.038-.011-.034-.049 0 0 .007-.037.056-.019.049.02 0 0 0-.003 0 0-.019-.008-.037 0 0 0-.02.003-.02.033 0 0 0 .02.023.034l.053.008s.03.06.097.082c.094.026.173 0 .222-.037a.338.338 0 0 0 .093-.135c.064-.138.12-.28.165-.424 0 0 .057-.18.105-.274l.015-.037Z"/><path fill="currentColor" fill-rule="evenodd" d="M19.853 8.48a.118.118 0 0 0-.086-.022v-.01.01h-.001a.1.1 0 0 0-.01 0 .374.374 0 0 0-.128.042.586.586 0 0 0-.25.3.793.793 0 0 0-.041.482v.004l.004.011.014.04c.014.034.035.08.066.13a.594.594 0 0 0 .322.259l-.003.009.009.003-.015.038a1.482 1.482 0 0 0-.096.243l-.007.022v.003l-.001.003v.001h-.001a3.587 3.587 0 0 1-.165.425.347.347 0 0 1-.097.139.26.26 0 0 1-.23.04.183.183 0 0 1-.1-.084h-.004c-.01 0-.021 0-.033-.003h-.001v-.002.002h-.003l-.005-.003h-.004l-.002-.002a.06.06 0 0 1-.023-.027.05.05 0 0 1-.003-.01v-.02a.047.047 0 0 1 .005-.011.034.034 0 0 1 .015-.015l.004-.001a.062.062 0 0 1 .044 0l-.001.003.001-.003.006.002v.002l.002.001a.18.18 0 0 0 .011.005.027.027 0 0 1 .005.003l.003.004a.01.01 0 0 1 0 .007.01.01 0 0 1-.005.005l-.004.001h-.004c-.002-.002-.008-.004-.02-.009-.023-.008-.033-.003-.038 0a.023.023 0 0 0-.003.005.036.036 0 0 0-.003.015c.001.01.006.017.012.022a.05.05 0 0 0 .008.005l.037.005a.088.088 0 0 0 .029-.006.06.06 0 0 0 .029-.023.075.075 0 0 0 .012-.036v-.003a.068.068 0 0 0-.014-.045.071.071 0 0 0-.032-.021.127.127 0 0 0-.034-.007h-.014a.086.086 0 0 0-.054.02.091.091 0 0 0-.025.04.154.154 0 0 0-.007.056v.002c0 .06.041.108.085.144a.445.445 0 0 0 .079.05l.005.003h.002a.322.322 0 0 0 .32-.038.387.387 0 0 0 .097-.107c.002-.004.003-.007.005-.008v-.003m-.426.165-.004.009-.002-.001-.006-.003-.02-.01a.477.477 0 0 1-.062-.043c-.044-.036-.091-.09-.091-.158v-.019a.17.17 0 0 1 .008-.045.11.11 0 0 1 .03-.047.105.105 0 0 1 .064-.026v.01-.01h.005a.148.148 0 0 1 .051.008.09.09 0 0 1 .04.027.086.086 0 0 1 .02.057h-.01.01v.001l-.001.004c0 .003 0 .007-.002.011a.095.095 0 0 1-.013.034.079.079 0 0 1-.052.034.176.176 0 0 0 .087.068.24.24 0 0 0 .212-.035.328.328 0 0 0 .091-.132 3.56 3.56 0 0 0 .165-.423v-.002l.003-.006.007-.021.024-.073c.02-.056.047-.125.072-.173l.01-.027a.614.614 0 0 1-.322-.264.8.8 0 0 1-.082-.174l-.003-.012-.001-.003.009-.003-.01.002a.812.812 0 0 1 .042-.493.605.605 0 0 1 .26-.31.392.392 0 0 1 .143-.045h.002a.137.137 0 0 1 .153.113.111.111 0 0 1-.018.086.093.093 0 0 1-.025.023l-.002.002h-.001a.125.125 0 0 1-.143-.007.106.106 0 0 1-.008-.007l-.002-.002v-.001h-.001l.007-.006-.007.006a.089.089 0 0 1-.02-.071.085.085 0 0 1 .007-.022c0-.002.002-.004.003-.005a.309.309 0 0 0-.14.109h-.001l-.001.002-.005.006a.81.81 0 0 0-.142.428V9.1a.438.438 0 0 0 .005.068.652.652 0 0 0 .046.17.564.564 0 0 0 .407.332l.014.004-.008.01v.001l-.002.003a2.789 2.789 0 0 0-.143.343l-.001.004a.584.584 0 0 1-.017.054 6.368 6.368 0 0 1-.047.142c-.038.112-.09.249-.138.345v.001l-.002.002a.308.308 0 0 1-.025.039.41.41 0 0 1-.081.083.34.34 0 0 1-.339.041l.003-.009Zm.638-.705-.01-.002a2.825 2.825 0 0 1 .138-.335l.003-.006a.58.58 0 0 1-.407-.34.666.666 0 0 1-.052-.23v-.02a.756.756 0 0 1 .128-.414.576.576 0 0 1 .017-.026l.005-.006.001-.002.008.005-.007-.006a.323.323 0 0 1 .153-.116.176.176 0 0 1 .07-.007.05.05 0 0 1 .03.013.047.047 0 0 1 .014.023.068.068 0 0 1 .002.022l-.001.006v.003l-.01-.002.01.002-.019-.003v-.02a.032.032 0 0 0-.007-.014.026.026 0 0 0-.016-.008h-.002l-.005-.002a.069.069 0 0 0-.014-.002.04.04 0 0 0-.033.015v.001a.065.065 0 0 0-.008.022.07.07 0 0 0 .015.056l.002.002a.106.106 0 0 0 .033.021.107.107 0 0 0 .096-.01l.002-.002a.075.075 0 0 0 .02-.019.093.093 0 0 0 .014-.071.118.118 0 0 0-.046-.075m-.136.07-.004-.004.005.004Zm.067-.024-.003.009.002-.01Zm-.005.015h-.007m-.724 1.947Z" clip-rule="evenodd"/><path fill="#F5CE00" d="M18.825 10.62s.063-.008.063.045c0 0-.003.075-.1.06 0 0-.095-.019-.06-.124 0 0 .022-.075.112-.064 0 0 .086 0 .123.12 0 0 .03.101-.022.188-.056.093-.195.157-.263.187 0 0-.273.105-.356.169 0 0-.124.09-.067.176 0 0 .022.034.052.034 0 0 .038 0 .041-.037 0 0 0 .022-.022.033 0 0-.026.011-.053-.011 0 0-.03-.03-.007-.075 0 0 .034-.053.112-.019 0 0 .064.034.038.101 0 0-.026.068-.105.064 0 0-.06 0-.101-.037-.06-.068-.064-.188-.008-.252 0 0 .049-.067.15-.112l.281-.113a.52.52 0 0 0 .203-.127s.041-.045.056-.128c0 0 .011-.06-.026-.075l-.038-.007-.003.004Z"/><path fill="currentColor" fill-rule="evenodd" d="M18.737 10.603a.106.106 0 0 0-.005.059.065.065 0 0 0 .02.033.088.088 0 0 0 .025.016l.01.003.002.001c.046.007.068-.007.078-.02a.06.06 0 0 0 .01-.022c.002-.003.002-.005.002-.007v-.002a.032.032 0 0 0-.007-.022.036.036 0 0 0-.018-.01.077.077 0 0 0-.02-.004h-.007l-.009-.015.008-.008.043.01c.025.009.032.032.034.05a.131.131 0 0 1-.001.034.311.311 0 0 1-.058.132.53.53 0 0 1-.207.13l-.28.113a.418.418 0 0 0-.145.107l-.001.002-.001.001a.17.17 0 0 0-.038.118.193.193 0 0 0 .045.12.14.14 0 0 0 .061.031l.024.004h.009a.095.095 0 0 0 .096-.055V11.4a.065.065 0 0 0-.007-.067.089.089 0 0 0-.017-.017l-.006-.005h-.002c-.037-.016-.062-.012-.078-.004a.066.066 0 0 0-.023.018.058.058 0 0 0 .003.06.056.056 0 0 0 .003.004.045.045 0 0 0 .037.01.034.034 0 0 0 .006-.001.031.031 0 0 0 .017-.026l.018.001h-.01.01v.005a.05.05 0 0 1-.027.037h-.001l-.002.001-.004.001-.004.001-.005.001h-.005l-.002.001v-.001.001a.067.067 0 0 1-.044-.02.11.11 0 0 1-.012-.012l-.003-.004-.001-.001.005-.005-.006.004c-.031-.048-.012-.097.013-.131a.27.27 0 0 1 .052-.054l.004-.003h.001c.042-.034.133-.076.211-.11a4.03 4.03 0 0 1 .136-.056l.008-.004h.003c.034-.016.085-.039.134-.07a.375.375 0 0 0 .124-.114.221.221 0 0 0 .03-.121.273.273 0 0 0-.007-.055v-.003l-.001-.001a.165.165 0 0 0-.072-.1.112.112 0 0 0-.04-.014h-.004c-.042-.005-.067.01-.082.025a.09.09 0 0 0-.02.03v.002Zm.104-.075a.11.11 0 0 0-.117.057.084.084 0 0 0-.004.009l-.001.003a.125.125 0 0 0-.005.07.084.084 0 0 0 .025.042.105.105 0 0 0 .045.024h.001l.003-.009-.002.01c.05.007.08-.008.095-.027a.289.289 0 0 1-.045.105l-.005.006h-.001v.001a.513.513 0 0 1-.2.125l-.28.113h-.001a.437.437 0 0 0-.153.115.19.19 0 0 0-.043.13.212.212 0 0 0 .05.134c.023.02.05.03.071.035a.191.191 0 0 0 .037.005.115.115 0 0 0 .113-.066v-.002l.001-.001-.009-.004.01.004a.084.084 0 0 0-.011-.085.108.108 0 0 0-.02-.021l-.008-.005-.003-.002-.005.008.004-.008c-.042-.019-.073-.014-.094-.004a.084.084 0 0 0-.028.023l-.002.002.007.006-.007-.005h-.001a.09.09 0 0 0-.008.022.111.111 0 0 1 .025-.076.258.258 0 0 1 .048-.05l.004-.003h.001c.04-.032.128-.074.207-.108l.103-.043.032-.013.01-.003.002-.001c.035-.016.087-.04.137-.071a.406.406 0 0 0 .13-.12.24.24 0 0 0 .033-.132.307.307 0 0 0-.005-.046l-.003-.013v-.003l-.001-.001-.01.002.01-.003a.182.182 0 0 0-.08-.11.127.127 0 0 0-.048-.016h-.004Zm-.466.782Z" clip-rule="evenodd"/><path fill="currentColor" fill-rule="evenodd" d="m18.988 10.472.002.009.002.01h-.002a.044.044 0 0 0-.022.014c-.01.011-.02.035-.003.081a.254.254 0 0 0 .089.113l.008.006c.005.003.01.006.012.009l-.011.014a.201.201 0 0 0-.01-.007l-.01-.007a.274.274 0 0 1-.095-.121c-.018-.051-.01-.082.005-.1a.063.063 0 0 1 .032-.02l.002-.001h.001Zm-.135.156c.005 0 .01.002.016.004.02.005.044.02.064.06v.001l.003.006a.562.562 0 0 1 .013.033l-.096-.104Zm.097.055a.125.125 0 0 0-.076-.07.103.103 0 0 0-.04-.003h-.003l.001.01-.002-.01-.015.004.145.158.017-.007a.249.249 0 0 0-.024-.073l-.002-.007-.001-.001Z" clip-rule="evenodd"/><path fill="#F5CE00" d="M17.682 7.883s0 .026.03.03c0 0 .026.007.041-.026l.004-.012c0-.015.007-.063-.042-.1 0 0-.086-.068-.243.014 0 0-.124.06-.21.113 0 0-.225.12-.255.127 0 0-.098.049-.248.056 0 0-.206.015-.292-.13 0 0-.068-.11 0-.18 0 0 .026-.03.071-.027a.083.083 0 0 1 .056.037s.034.045-.004.08c0 0-.048.03-.067-.035 0 .008-.011.053.015.094 0 0 .124.188.465-.007l.45-.252s.225-.116.364.064c0 0 .108.15-.03.251 0 0-.105.064-.173-.037 0 0-.052-.098.03-.139 0 0 .075-.037.109.038.03.075-.06.097-.067.04 0 0 0-.01-.004 0Zm-1.106 1.721c.198-.112.243-.364.243-.364.045-.25-.052-.45-.052-.45-.128-.27-.349-.322-.349-.322s.218.15.277.352c0 0 .05.173.02.338-.027.172-.016.127-.057.259l-.082.187Z"/><path fill="currentColor" fill-rule="evenodd" d="m17.457 7.674-.45.25c-.172.1-.291.102-.368.079a.23.23 0 0 1-.108-.071V7.93h-.001l.007-.006-.007.005a.125.125 0 0 1-.02-.064l.002-.024v-.007a.04.04 0 0 1 .001-.003l.018-.003c.005.015.01.023.016.027a.026.026 0 0 0 .017.007.04.04 0 0 0 .02-.005.04.04 0 0 0 .013-.043.07.07 0 0 0-.007-.017l-.003-.004V7.79h-.001a.085.085 0 0 0-.025-.025.075.075 0 0 0-.025-.009.08.08 0 0 0-.059.02l-.003.003h-.001c-.03.033-.031.074-.023.109a.223.223 0 0 0 .022.056l.002.003v.001c.041.07.112.102.173.117a.43.43 0 0 0 .109.01h.002a.74.74 0 0 0 .227-.048l.013-.005L17 8.02h.003a4.439 4.439 0 0 0 .217-.108l.026-.014.01-.005a2.424 2.424 0 0 1 .19-.103l.015-.008.004-.002a.3.3 0 0 1 .188-.04.18.18 0 0 1 .062.023l.003.002h.001l-.005.008-.006.008-.003-.003a.162.162 0 0 0-.055-.02.28.28 0 0 0-.175.039h-.002l-.004.002-.015.008a3.921 3.921 0 0 0-.189.102l-.01.005a7.074 7.074 0 0 1-.247.123l-.003.002a.388.388 0 0 1-.065.023.76.76 0 0 1-.182.032.086.086 0 0 1-.01 0 .393.393 0 0 1-.106-.011.28.28 0 0 1-.185-.125v-.001l-.003-.004a.217.217 0 0 1-.023-.061c-.009-.037-.01-.086.027-.125l.002-.002.004-.004a.098.098 0 0 1 .073-.023h.001c.01.002.02.005.031.011a.109.109 0 0 1 .031.03l.002.002.004.007a.095.095 0 0 1 .008.021.06.06 0 0 1-.019.061l-.001.001-.005-.008.005.008h-.001l-.002.002a.065.065 0 0 1-.03.007.045.045 0 0 1-.033-.017c0 .017.004.036.016.055l.001.002.005.005.017.017c.016.014.041.03.077.042.07.021.184.02.353-.076l.45-.252.004.008-.004-.008.003-.001.008-.004a.366.366 0 0 1 .122-.032c.076-.006.17.01.243.103l-.008.006.008-.005.001.002.003.005a.246.246 0 0 1 .034.084.17.17 0 0 1-.004.086.18.18 0 0 1-.066.087h-.001l-.005-.008.005.008-.001.001-.004.002a.168.168 0 0 1-.06.018.124.124 0 0 1-.12-.06v-.001l.008-.005-.009.004v-.001l-.002-.003a.163.163 0 0 1-.015-.053.1.1 0 0 1 .008-.05.09.09 0 0 1 .044-.044l.004.008-.004-.008.003-.002a.122.122 0 0 1 .042-.009.08.08 0 0 1 .039.01.113.113 0 0 0-.015-.013m.035.063a.081.081 0 0 1 .003.01v.019l-.003.01a.04.04 0 0 1-.02.02.022.022 0 0 1-.01 0h-.001l-.005-.001a.028.028 0 0 1-.014-.02v-.007l-.002-.003a.01.01 0 0 0-.003-.003.01.01 0 0 0-.012.002l-.003.004a.03.03 0 0 0-.002.004l.01.003h-.006v-.001l-.004.001v.006l.005.012a.04.04 0 0 0 .025.02.046.046 0 0 0 .034 0 .05.05 0 0 0 .028-.03.066.066 0 0 0 .002-.038m-.022-.008a.07.07 0 0 0-.028-.033.06.06 0 0 0-.03-.008.091.091 0 0 0-.035.007l-.003.001a.071.071 0 0 0-.035.035.082.082 0 0 0-.006.041.146.146 0 0 0 .013.047l.002.003c.031.047.07.055.102.052a.149.149 0 0 0 .056-.017h.001a.157.157 0 0 0 .06-.077.151.151 0 0 0 .003-.077.23.23 0 0 0-.034-.083l-.001-.001a.243.243 0 0 0-.226-.096.382.382 0 0 0-.126.034m-1.037.786-.003.009.003-.01v.001h.002l.008.003a.524.524 0 0 1 .12.058c.072.048.16.13.225.266v.003a.62.62 0 0 1 .043.13.807.807 0 0 1 .01.323l-.01-.002.01.002v.003a.65.65 0 0 1-.048.14.502.502 0 0 1-.2.227l-.014-.012.083-.187.01-.032c.013-.041.018-.059.023-.08.004-.017.006-.036.012-.071l.01-.073a.751.751 0 0 0-.011-.305l-.005-.022a.152.152 0 0 1-.002-.005v-.002a.626.626 0 0 0-.159-.248.967.967 0 0 0-.113-.098h-.001v-.001l.007-.017Zm.275.361.009-.002v.002l.002.006a.77.77 0 0 1 .019.1.773.773 0 0 1-.002.233l-.01.072-.013.074c-.004.022-.01.04-.023.082l-.01.033-.071.16a.497.497 0 0 0 .167-.204.667.667 0 0 0 .044-.127l.002-.008v-.002a.79.79 0 0 0-.05-.442l-.001-.002a.62.62 0 0 0-.287-.297c.02.017.044.038.07.064a.644.644 0 0 1 .163.256l-.01.002Z" clip-rule="evenodd"/><path fill="currentColor" fill-rule="evenodd" d="M17.58 7.693v-.02a.07.07 0 0 1 .009 0 .223.223 0 0 1 .088.022c.024.012.048.03.065.06a.2.2 0 0 1 .024.116h-.019a.182.182 0 0 0-.021-.107.134.134 0 0 0-.057-.052.196.196 0 0 0-.088-.02Z" clip-rule="evenodd"/><path fill="#F5CE00" d="M16.35 9.735c.326-.102.413-.45.413-.45a.803.803 0 0 0-.038-.488c-.15-.349-.397-.349-.397-.349a.128.128 0 0 0-.143.105c-.011.075.041.102.041.102a.113.113 0 0 0 .143-.015c.037-.05.007-.09.007-.09-.022-.03-.063-.015-.063-.015-.038.007-.03.052-.03.052s-.012-.052.037-.056c0 0 .101-.023.214.12 0 0 .15.191.15.442 0 0 .019.465-.465.585 0 0 .052.075.146.35 0 0 .105.352.206.543 0 0 .132.27.432.161 0 0 .176-.079.176-.206 0 0 .011-.12-.094-.128 0 0-.105-.007-.105.083 0 0 0 .094.113.075 0 0 .037-.011.033-.049 0 0-.007-.037-.056-.019-.049.02 0 0 0-.003 0 0 .019-.008.038 0 0 0 .018.003.018.033 0 0 0 .02-.022.034l-.049.008s-.03.06-.101.082a.235.235 0 0 1-.221-.037.338.338 0 0 1-.094-.135 3.59 3.59 0 0 1-.165-.424s-.056-.18-.101-.274l-.02-.037h-.003Z"/><path fill="currentColor" fill-rule="evenodd" d="M16.328 8.44h.011a.392.392 0 0 1 .135.044.605.605 0 0 1 .26.31.812.812 0 0 1 .037.493l-.009-.002.01.002v.001l-.002.003-.003.012a.786.786 0 0 1-.08.174.61.61 0 0 1-.32.262l.014.03a1.829 1.829 0 0 1 .092.245l.007.021.002.006v.002c.046.144.101.286.165.423.02.05.05.096.091.132a.226.226 0 0 0 .213.035.169.169 0 0 0 .09-.067.087.087 0 0 1-.017-.005.078.078 0 0 1-.038-.03.095.095 0 0 1-.015-.045v-.005h.009-.01a.09.09 0 0 1 .019-.057.09.09 0 0 1 .04-.027.148.148 0 0 1 .051-.008h.005v.01-.01c.029.002.05.012.065.026a.109.109 0 0 1 .03.047.17.17 0 0 1 .008.06v.004c0 .068-.047.122-.092.158a.47.47 0 0 1-.088.056h-.001l-.005-.008.004.009a.336.336 0 0 1-.337-.041.396.396 0 0 1-.1-.113l-.005-.009v-.002h-.001a2.7 2.7 0 0 1-.142-.346 5.906 5.906 0 0 1-.047-.142l-.014-.042-.003-.012v-.003h-.001a2.789 2.789 0 0 0-.136-.332.224.224 0 0 0-.009-.014v-.001l-.008-.011.013-.004a.564.564 0 0 0 .408-.332.648.648 0 0 0 .05-.238v-.005a.737.737 0 0 0-.125-.404.576.576 0 0 0-.023-.033.309.309 0 0 0-.14-.11.076.076 0 0 1 .01.028.089.089 0 0 1-.02.07l-.008-.005.008.006h-.001l-.003.003a.127.127 0 0 1-.04.025.125.125 0 0 1-.11-.011h-.001l-.002-.002a.096.096 0 0 1-.025-.024.112.112 0 0 1-.018-.085.137.137 0 0 1 .152-.113Zm-.098.206h-.001a.077.077 0 0 1-.02-.019.093.093 0 0 1-.015-.072.118.118 0 0 1 .132-.097h.001m.034.176a.07.07 0 0 0 .016-.056.065.065 0 0 0-.008-.023.04.04 0 0 0-.033-.015.069.069 0 0 0-.02.003h-.001a.026.026 0 0 0-.016.01.03.03 0 0 0-.007.013.055.055 0 0 0 0 .018v.001l-.019.004.01-.002-.01.002v-.003l-.001-.006c0-.006 0-.014.002-.022a.048.048 0 0 1 .013-.023.051.051 0 0 1 .032-.013l.004-.001h.014a.15.15 0 0 1 .05.008.322.322 0 0 1 .154.116l-.008.006.008-.006.002.003.005.006a.68.68 0 0 1 .069.12c.038.08.076.192.076.32v.02a.67.67 0 0 1-.052.23.58.58 0 0 1-.408.34l.003.006c.007.011.017.03.029.056.025.054.062.141.109.278v.002l.001.002.003.012a3.146 3.146 0 0 0 .06.184 2.7 2.7 0 0 0 .141.343l.002.003.004.008a.38.38 0 0 0 .095.107c.068.052.172.091.319.038H17l.006-.003a.372.372 0 0 0 .078-.05c.044-.036.085-.085.085-.144m-.788-1.98-.005.004.005-.004Zm-.02.088-.002.002a.096.096 0 0 1-.033.02.107.107 0 0 1-.095-.01m.853 1.762h-.014a.127.127 0 0 0-.035.007.072.072 0 0 0-.032.021.068.068 0 0 0-.014.045v.003c0 .002 0 .006.002.01a.076.076 0 0 0 .01.026.06.06 0 0 0 .03.023.09.09 0 0 0 .031.006l.035-.005a.046.046 0 0 0 .008-.005.033.033 0 0 0 .012-.022.034.034 0 0 0-.004-.015.023.023 0 0 0-.003-.004c-.005-.004-.015-.01-.037 0l-.02.007h-.003l-.001.001h-.004a.01.01 0 0 1-.006-.006.009.009 0 0 1 0-.007l.003-.004h.002l.003-.002a.213.213 0 0 0 .012-.006h.001v-.003l.006-.002.002.003-.002-.003h.002l.002-.001a.062.062 0 0 1 .04.001.031.031 0 0 1 .02.016.034.034 0 0 1 .003.006.033.033 0 0 1 .002.005v.02a.06.06 0 0 1-.026.037l-.002.001h-.004v.001l-.006.002h-.002s0 .001 0 0v.001h-.001a.174.174 0 0 1-.03.003h-.003a.191.191 0 0 1-.104.083.245.245 0 0 1-.23-.039.347.347 0 0 1-.097-.139 3.57 3.57 0 0 1-.165-.424l-.004-.012-.006-.018a1.816 1.816 0 0 0-.091-.243l-.019-.037.004-.002-.002-.011c.16-.05.262-.16.323-.26a.772.772 0 0 0 .079-.169l.003-.01v-.003h.001v-.001a.793.793 0 0 0-.037-.482m.33 1.687Z" clip-rule="evenodd"/><path fill="#F5CE00" d="M17.27 10.62s-.06-.008-.06.045c0 0 0 .075.097.06 0 0 .094-.019.06-.124 0 0-.023-.075-.113-.064 0 0-.086 0-.123.12 0 0-.03.101.022.188.056.093.195.157.263.187 0 0 .273.105.356.169 0 0 .124.09.067.176 0 0-.018.034-.052.034 0 0-.038 0-.041-.037 0 0 0 .022.022.033 0 0 .026.011.053-.011 0 0 .03-.03.007-.075 0 0-.034-.053-.109-.019 0 0-.067.034-.037.101a.1.1 0 0 0 .101.064s.06 0 .101-.037c.06-.068.064-.188.012-.252 0 0-.053-.067-.15-.112-.06-.019-.173-.068-.285-.113a.52.52 0 0 1-.203-.127s-.041-.045-.056-.128c0 0-.011-.06.026-.075l.038-.007h.003v.004Z"/><path fill="currentColor" fill-rule="evenodd" d="M17.375 10.598v-.004a.117.117 0 0 0-.024-.036.11.11 0 0 0-.098-.03h-.004a.127.127 0 0 0-.048.016.182.182 0 0 0-.08.11l.01.003-.01-.003v.002l-.001.003a.467.467 0 0 0-.008.06.24.24 0 0 0 .033.13c.029.049.08.09.13.121.05.032.103.055.136.07h.002l.002.002.009.003.032.013c.027.01.063.026.103.043.079.034.167.076.207.107l.001.001.004.003a.248.248 0 0 1 .048.05.111.111 0 0 1 .025.076.09.09 0 0 0-.008-.022l-.008.005.008-.005-.001-.001s0-.002-.002-.002a.082.082 0 0 0-.028-.022c-.02-.011-.05-.016-.09.002l.004.009-.004-.008h-.001l-.003.001a.113.113 0 0 0-.03.026.08.08 0 0 0-.008.086v.003l.005.008a.109.109 0 0 0 .105.058h.003a.237.237 0 0 0 .034-.005.157.157 0 0 0 .07-.035h.001a.214.214 0 0 0 .05-.133.194.194 0 0 0-.038-.13l-.001-.002-.002-.002a.297.297 0 0 0-.037-.037.467.467 0 0 0-.114-.075h-.001a2.799 2.799 0 0 1-.182-.07 10.257 10.257 0 0 0-.102-.043.513.513 0 0 1-.2-.125v-.001l-.005-.006a.29.29 0 0 1-.047-.108l.002.002a.07.07 0 0 0 .033.024.125.125 0 0 0 .06.004h.001l-.002-.01.002.01h.002a.109.109 0 0 0 .046-.025c.01-.01.02-.024.024-.043a.125.125 0 0 0-.005-.068Zm-.07.117h.003a.088.088 0 0 0 .035-.02.065.065 0 0 0 .02-.033.106.106 0 0 0-.005-.059l-.001-.002a.093.093 0 0 0-.02-.03c-.015-.015-.04-.03-.082-.025h-.001v-.01.01h-.003l-.01.002a.112.112 0 0 0-.03.012.165.165 0 0 0-.072.1v.004c-.002.002-.002.007-.003.012a.273.273 0 0 0-.005.043c0 .035.005.08.03.12a.374.374 0 0 0 .124.115c.05.031.1.054.134.07h.003l.009.004a7.73 7.73 0 0 1 .135.056c.079.034.169.076.211.11h.002l.003.003a.276.276 0 0 1 .052.054c.024.034.044.083.013.13v.001l-.001.001-.003.005a.089.089 0 0 1-.011.013.066.066 0 0 1-.046.019v-.001.001h-.007l-.005-.002h-.004l-.004-.002h-.002v-.001a.05.05 0 0 1-.028-.037v-.004h.01-.01l.018-.002c.002.015.01.022.017.026a.037.037 0 0 0 .006.002h.007a.045.045 0 0 0 .03-.012l.003-.003a.058.058 0 0 0 .003-.06h-.001l-.004-.005a.064.064 0 0 0-.018-.013c-.015-.008-.04-.012-.074.003l-.002.002-.007.004a.086.086 0 0 0-.018.017.06.06 0 0 0-.006.066v.001l.001.002a.095.095 0 0 0 .018.028.09.09 0 0 0 .073.027h.01a.193.193 0 0 0 .024-.004.14.14 0 0 0 .061-.03.196.196 0 0 0 .045-.121.176.176 0 0 0-.034-.118l-.002-.003-.007-.008a.447.447 0 0 0-.137-.099 2.825 2.825 0 0 1-.184-.07 13.135 13.135 0 0 0-.101-.042.53.53 0 0 1-.206-.13l-.002-.003a.311.311 0 0 1-.056-.13l-.001-.002a.12.12 0 0 1 0-.032c.001-.018.009-.041.032-.05h.001l.04-.009h.013v.024l-.01-.001h-.008c-.005 0-.012 0-.018.002a.033.033 0 0 0-.017.01.034.034 0 0 0-.007.023h-.008.008v.003l.002.007a.05.05 0 0 0 .034.039.105.105 0 0 0 .05.002Zm-.097-.018a.078.078 0 0 1-.008-.028v-.004h.009-.01c0-.016.005-.027.012-.036a.05.05 0 0 1 .025-.016.083.083 0 0 1 .028-.003h.006v.006l-.001.003v.006m0 0h-.003l-.035.007c-.013.005-.019.018-.02.032l-.001.003v.029m-.002 0-.006.002a.25.25 0 0 1 .006-.001Zm.15-.093Z" clip-rule="evenodd"/><path fill="currentColor" fill-rule="evenodd" d="m17.892 7.865-.005-.008-.005-.008.002-.001a.209.209 0 0 1 .027-.014.348.348 0 0 1 .076-.023.304.304 0 0 1 .232.05l-.011.015a.285.285 0 0 0-.218-.046.329.329 0 0 0-.091.031l-.005.003h-.002Zm-.795 2.606.008.002-.002.009.002-.01h.001l.003.002.008.003a.065.065 0 0 1 .023.017c.015.018.023.049.006.1a.272.272 0 0 1-.105.128l-.01.007-.015-.01.08-.248Zm.012.023-.067.204a.255.255 0 0 0 .086-.11c.016-.047.008-.07-.002-.082a.046.046 0 0 0-.017-.012Zm.154.117-.002.01.002-.01.016.004-.146.158-.017-.007a.246.246 0 0 1 .024-.073.258.258 0 0 0 .002-.006l.001-.002v-.001a.126.126 0 0 1 .076-.07.103.103 0 0 1 .03-.004h.01l.003.001Zm-.103.081v.002l-.003.006a.478.478 0 0 0-.013.033l.096-.104a.082.082 0 0 0-.015.003c-.02.006-.045.021-.065.06Zm-.078-2.222-.075-.206.014-.005.075.206.09.213-.014.006-.09-.214Zm-.308-.105.014-.005.002.004c.017.044.041.101.062.147l.026.06.009.018.002.005v.001c.053.08.074.143.082.187.003.022.004.04.003.051a.142.142 0 0 1-.001.017v.001h-.008.008l-.015.002-.182-.484-.002-.004Zm.111.251.074.197a.467.467 0 0 0-.074-.197Zm.509-.249.011-.01.143.143-.054-.033a.336.336 0 0 1-.092-.089l-.006-.008-.002-.002Zm.198.4.003-.007.003-.007.002.001.003.003a.178.178 0 0 1 .049.058.493.493 0 0 1 .04.26v.008l-.001.018a.726.726 0 0 0 0 .062.37.37 0 0 0 .03.149l-.013.007a.388.388 0 0 1-.032-.156.755.755 0 0 1 0-.082l.001-.005v-.001a.48.48 0 0 0-.038-.254.164.164 0 0 0-.044-.052.033.033 0 0 0-.002-.002h-.001Zm-.747.103-.004.006.003-.006h.001l.003.002a.127.127 0 0 1 .032.04.299.299 0 0 1 .029.122l.101.271-.02-.014a.224.224 0 0 1-.086-.127.295.295 0 0 1-.01-.068V9.09h.007-.007v-.053l-.067-.176.017.009Zm.041.104a.216.216 0 0 0-.025-.065l.025.065Zm.023.104v.033c.002.012.004.03.01.05.009.032.026.07.06.101l-.07-.184Zm.136-.135-.005.005.005-.005h.001l.002.003a.242.242 0 0 1 .03.046.26.26 0 0 1 .026.132l-.003.04-.078-.245.022.024Zm.019.054.022.072a.246.246 0 0 0-.022-.07v-.002Zm-.215.34.21.175-.002-.008a.252.252 0 0 1-.01-.06V9.44c-.007-.06-.058-.086-.112-.096a.374.374 0 0 0-.086-.006Zm.213.102v.005l.002.014a.239.239 0 0 0 .008.042.142.142 0 0 0 .014.033l.037.032.008.002h.001a.089.089 0 0 1 .017.003.22.22 0 0 1 .04.016c.03.016.064.046.076.099l.005.021-.154-.128a.08.08 0 0 1-.042-.035l-.263-.218.018-.002v.007-.007h.003a.29.29 0 0 1 .031-.002.39.39 0 0 1 .075.007c.055.011.116.04.124.11m.086.147.095.08a.13.13 0 0 0-.061-.066.17.17 0 0 0-.034-.014Zm.026-.251.002.003.006.01a.89.89 0 0 1 .02.034.396.396 0 0 1 .036.082l.017.067-.094-.189.013-.007Zm-.283.143.012-.01.12.133-.055-.039a.29.29 0 0 1-.07-.075l-.005-.007-.001-.001v-.001Z" clip-rule="evenodd"/><path fill="#784421" d="m17.1 8.58.01.026s.188.008.29-.12l-.012-.026s-.165-.007-.285.12H17.1Z"/><path fill="currentColor" fill-rule="evenodd" d="m17.39 8.453-.001.007v-.007h.005l.015.035-.003.003a.331.331 0 0 1-.186.11.475.475 0 0 1-.108.013v-.008.008h-.005l-.018-.041h.012a.39.39 0 0 1 .288-.12Zm-.28.132.006.014h.004a.38.38 0 0 0 .096-.012.318.318 0 0 0 .176-.102l-.008-.017h-.022a.376.376 0 0 0-.252.116Zm.67 1.007-.002-.007-.002-.007.008-.002a8.055 8.055 0 0 0 .098-.03l.25-.078c.194-.062.418-.138.543-.194l.006.014a6.294 6.294 0 0 1-.544.194 18.96 18.96 0 0 1-.328.102l-.021.006-.007.002Z" clip-rule="evenodd"/><path fill="#784421" d="m17.712 8.389-.008-.02.319-.123.007.023-.318.12Z"/><path fill="currentColor" fill-rule="evenodd" d="m18.025 8.242.01.03-.326.122-.01-.026.326-.126Zm-.316.13.005.012.312-.117-.005-.015-.312.12Z" clip-rule="evenodd"/><path fill="currentColor" fill-rule="evenodd" d="m18.427 9.032.05-.016-.046-.097-.056.017.052.096Zm-.067-.091.053.095-.052.017-.05-.098.05-.014Zm.007-.018-.356-.65-.014.007.356.647-.048.015-.328-.65-.013.007.327.647-.054.016-.309-.655-.013.006.307.654-.221.067-.177-.688-.015.004.177.688-.042.013-.161-.686-.015.003.161.688-.042.013-.142-.693-.015.003.142.694-.063.02.008.146.084-.026.015.074-.106.036.005.014-.002-.007.002.007.005-.001.016-.005.06-.018.024-.007.005.026-.122.04.004.014-.002-.007.002.007h.002l.005-.001a4.349 4.349 0 0 0 .093-.025l.023-.006.013.068-.009.002.005.015.165-.053-.005-.014-.01.003-.016-.062.07-.02c.184-.055.398-.124.52-.185l-.005-.014-.592.193-.007-.026a10.542 10.542 0 0 0 .604-.212l-.005-.015-.604.206-.018-.07.634-.199-.038-.102.045.017.021.05.014-.006-.015-.037.059.023-.047-.121-.101.055-.24.073Zm.247-.06-.037.012.042.097.032-.01-.037-.099Zm-.01.113-.041-.097-.05.015.045.096-.007.003.054-.017Zm-.06.02-.045-.098-.053.017.045.097.053-.017Zm.09-.143.035.013-.012-.026-.024.013Zm.037-.02.017.04.042.017-.029-.074-.03.017Zm-.639.323.157-.05-.035-.103-.15.046.028.107Zm-.042-.103.028.107-.045.015-.026-.109.043-.013Zm-.057.017-.043.013.022.11.046-.014-.025-.109Zm.029.124-.047.014.015.074.049-.016-.017-.072Zm.021.092-.049.015.005.027.05-.017-.006-.025Zm.012.05-.051.014.014.067.052-.017-.015-.065Zm.03.06.05-.016-.017-.063-.049.014.015.065Zm.449-.226c-.1.036-.214.072-.319.103l.319-.103Zm-.47.137-.006-.026.047-.015.006.025-.047.016Zm.036-.062-.047.016-.017-.072.046-.014.018.07Zm-.142-.047-.023-.11-.05.015.006.116.067-.02Zm.27-.2.035.104.073-.023-.047-.099-.061.019Zm.075-.022.047.099.057-.018-.05-.097-.054.016Zm.088.795.035.111-.1.035-.035-.111.1-.035Zm-.081.044.025.083.072-.025-.025-.083-.072.025Zm-.162.027.034.112-.104.035-.035-.116.105-.03Zm-.086.04.026.087.076-.025-.026-.083-.076.022Z" clip-rule="evenodd"/><path fill="#00247D" fill-rule="evenodd" d="m16.525 9.784.046.166a.354.354 0 0 0 .105.083v.001h.001l.012.006-.01.01a.224.224 0 0 0-.057.086l.07.254-.026-.026.007-.006-.007.006-.002-.002-.005-.005a.294.294 0 0 1-.054-.096.206.206 0 0 1-.003-.125l-.048-.177a.166.166 0 0 1-.037-.136l.008-.039Zm.057.206.032.117a.252.252 0 0 1 .043-.062.402.402 0 0 1-.073-.054l-.002-.001Zm.031.185a.193.193 0 0 0 .01.08.267.267 0 0 0 .028.059l-.038-.139Zm.31-.292.14.31-.032-.027a.313.313 0 0 1-.095-.155.384.384 0 0 1-.013-.078v-.006h.009-.01v-.044Zm.026.105a.333.333 0 0 0 .056.124l-.056-.124Zm-.072-.061.125.285-.031-.027a.277.277 0 0 1-.082-.138.369.369 0 0 1-.011-.07v-.005h.009-.01v-.045Zm.03.113v.003a.284.284 0 0 0 .037.083l-.038-.086Zm-.083-.09.103.272-.032-.034a.258.258 0 0 1-.055-.111.407.407 0 0 1-.011-.062v-.001l.009-.001h-.01l-.004-.063Zm-.042.025-.025.232-.014-.033a.177.177 0 0 1-.009-.135.135.135 0 0 1 .03-.047V9.99l.006.007-.006-.007.018-.016Zm-.025.057a.135.135 0 0 0-.01.094l.01-.094Zm.02-.027Zm.692.135-.009-.004-.008-.003v-.002l.003-.004a.25.25 0 0 1 .04-.056.164.164 0 0 1 .131-.056l.035.002-.031.015-.002.001a.112.112 0 0 0-.022.017.074.074 0 0 0-.024.053v.004a.102.102 0 0 0 .008.04.074.074 0 0 0 .023.03.094.094 0 0 0 .05.018h.004a.214.214 0 0 0 .04 0 .11.11 0 0 0 .07-.031l.013.013a.129.129 0 0 1-.081.036.208.208 0 0 1-.046 0h-.001a.111.111 0 0 1-.06-.02.092.092 0 0 1-.03-.039.12.12 0 0 1-.008-.047v-.004a.092.092 0 0 1 .031-.068.152.152 0 0 0-.087.049.232.232 0 0 0-.037.052l-.001.003v.001Zm-.614-.003-.008.053c-.024.157.005.226.037.257a.09.09 0 0 0 .068.025h.003l.087.03-.004.01c-.025.051-.078.066-.125.066a.27.27 0 0 1-.065-.008.14.14 0 0 1-.041-.017.155.155 0 0 1-.068-.18 1.152 1.152 0 0 1 .08-.168l.008-.015.002-.004v-.001l.026-.048Zm-.033.102a1.715 1.715 0 0 0-.065.14.137.137 0 0 0 .06.158.1.1 0 0 0 .036.014.249.249 0 0 0 .06.008c.041 0 .08-.011.103-.046l-.063-.022h-.006a.111.111 0 0 1-.076-.031c-.034-.033-.06-.097-.049-.221Z" clip-rule="evenodd"/><path fill="#00247D" fill-rule="evenodd" d="m18.891 9.97.01-.003.008-.002v.002l.001.003a.385.385 0 0 1-.001.158l-.018-.006a.236.236 0 0 0 .008-.098.451.451 0 0 0-.007-.05V9.97Zm-1.21.2.011.207-.018-.025a.138.138 0 0 1-.024-.104.177.177 0 0 1 .014-.045l.001-.003.009.004-.008-.005.016-.029Zm-.012.126a.127.127 0 0 1-.002-.036l.002.036Zm-.06-.125.135.518-.018-.008.004-.009-.004.009-.003-.002a.756.756 0 0 1-.136-.089c-.067-.056-.133-.139-.117-.238v-.005a.24.24 0 0 1 .128-.17l.01-.006Zm-.12.184c-.015.089.044.165.11.221a.665.665 0 0 0 .117.079l-.092-.352.018.128-.02-.022a.14.14 0 0 1-.036-.108.2.2 0 0 1 .011-.055l.01.003-.01-.004.008-.016-.008-.03a.215.215 0 0 0-.108.151v.004Zm.116-.054v.001c-.002.018 0 .04.008.06l-.008-.061Zm-.06-.031.044.2-.023-.023a.135.135 0 0 1-.039-.095c0-.015.002-.027.003-.036l.003-.01v-.004l.01.003-.01-.003.011-.032Zm.006.115a.141.141 0 0 1-.003-.015l.003.015Zm1.085.084.082.236-.04-.057v-.001l-.003-.003a.155.155 0 0 0-.066-.037c-.052-.015-.138-.015-.271.044l-.055.024.045-.04.006.007-.006-.007h.001l.004-.004a.8.8 0 0 1 .07-.05c.051-.032.126-.073.224-.109l.009-.003Zm-.24.139a.37.37 0 0 1 .218-.02c.022.007.04.015.052.023l-.041-.118a1.137 1.137 0 0 0-.211.104l-.017.01Zm-1.035.044.368.184h-.04a.375.375 0 0 1-.185-.07.816.816 0 0 1-.085-.062l-.005-.004v-.001h-.001l.006-.008-.006.007-.052-.046Zm.143.092.01.007a.478.478 0 0 0 .116.056l-.126-.063Zm-.14 0 .01-.016.286.16-.06-.011a.52.52 0 0 1-.152-.074 1.291 1.291 0 0 1-.077-.055l-.005-.003-.001-.001.005-.008-.006.007Zm-.053.03.011-.016.323.187-.043-.005a.286.286 0 0 1-.094-.031.803.803 0 0 1-.167-.111.962.962 0 0 1-.027-.023l-.002-.001.006-.008-.007.007Zm.138.08a.718.718 0 0 0 .067.038l.003.001-.07-.04Zm.69.186-.005-.008.01.016.375-.236-.01-.017a4.127 4.127 0 0 0-.335.21l-.03.02-.007.005-.003.002.005.008Zm.155-.019.011.015.33-.225-.01-.015a3.943 3.943 0 0 0-.323.22l-.005.004h-.002v.001Zm-.301.004-.005-.008.01.016.367-.21-.009-.017a3.36 3.36 0 0 0-.215.12 12.186 12.186 0 0 0-.14.083l-.013.008.005.008Zm.218-.187-.285.143-.009-.017.285-.142.009.016Zm-.164.218-.044.23-.012-.01c-.035-.026-.052-.053-.055-.08a.097.097 0 0 1 .021-.068.219.219 0 0 1 .07-.061l.002-.001.005.008-.005-.008.018-.01Zm-.026.037a.198.198 0 0 0-.049.046.078.078 0 0 0-.017.055c.002.017.012.037.035.058l.03-.159Z" clip-rule="evenodd"/><path fill="#00247D" fill-rule="evenodd" d="m18.416 8.869-.008-.005-.013.02.194-.054-.036-.008a.15.15 0 0 0-.11.011.113.113 0 0 0-.032.028l-.002.002.007.006Zm.656.079.023.027a.196.196 0 0 1 .035.115l-.001.046v.008a.233.233 0 0 1 .075.02l.017.007-.302.178.006-.021.009.002-.01-.002v-.001l.001-.002.003-.008a.352.352 0 0 1 .044-.092l-.001-.001a.068.068 0 0 0 .005-.05.125.125 0 0 0-.006-.02l-.002-.005-.001-.002.008-.004.008-.005.002.003.002.006a.134.134 0 0 1 .01.048.156.156 0 0 1 .109-.051l-.034-.197Zm.037.214.009.048.008-.047a.2.2 0 0 1 .053.011l-.23.136a.297.297 0 0 1 .047-.086.16.16 0 0 1 .078-.056.138.138 0 0 1 .035-.006Zm.345.503.015-.011.081.091a.31.31 0 0 1 .051-.026l.046-.019-.074.071.006.006-.01-.003-.044.043.036.043-.045-.034-.027.025.038.041-.047-.032-.036.034a.165.165 0 0 1 .024.092v.011a.311.311 0 0 1-.023.119c-.027.068-.088.141-.217.165l-.012.002.047-.5.01.003-.002.01.002-.01h.002a.226.226 0 0 1 .029.008.336.336 0 0 1 .067.031c.021.013.043.03.06.05l.003-.006a.376.376 0 0 1 .018-.028.218.218 0 0 1-.038-.042l-.003-.004v-.002h-.001l.014-.012.04.044.002-.003a.338.338 0 0 1 .019-.02.35.35 0 0 1-.03-.035 1.37 1.37 0 0 1-.018-.024l-.006-.007-.002-.002.014-.013.056.066c.01-.01.02-.02.032-.028a.346.346 0 0 1-.075-.09.102.102 0 0 1 0-.003h-.001v-.001Zm.09.108a.335.335 0 0 0-.033.028l.002.002.031-.03Zm-.044.042-.001-.002a.337.337 0 0 0-.014.016l.015-.014Zm-.079.08a.2.2 0 0 0-.06-.054.318.318 0 0 0-.082-.034l-.042.453a.247.247 0 0 0 .191-.152.302.302 0 0 0 .022-.111v-.01a.146.146 0 0 0-.02-.08l-.026.026.017-.039Zm-.725.119h.006a.275.275 0 0 1 .19.084.208.208 0 0 1 .043.072v.001m-.121.22.002.01.002-.001c.001 0 .003 0 .005-.002a.19.19 0 0 0 .073-.04.147.147 0 0 0 .044-.07.212.212 0 0 0-.005-.117m-.121.22.002.01a.143.143 0 0 1-.157-.073.421.421 0 0 0-.176.105.165.165 0 0 0-.008.01l-.002.002-.016-.01.239-.421m-.189.37a.443.443 0 0 1 .154-.077l.008-.002.003.008.002.003a.126.126 0 0 0 .029.038c.021.02.056.037.109.028h.001c.001 0 .003 0 .005-.002a.167.167 0 0 0 .065-.036.13.13 0 0 0 .039-.061.194.194 0 0 0-.005-.107v-.001l-.001-.004a.19.19 0 0 0-.037-.06.254.254 0 0 0-.173-.077l-.199.35Z" clip-rule="evenodd"/><path fill="#64B4D1" d="M19.398 11.678s.233-.105.162-.29c0 0-.023-.06-.075-.055 0 0-.09.003-.075.123 0 0 .03.12-.015.222h.003Z"/><path fill="#00247D" fill-rule="evenodd" d="M19.566 11.386v-.002l-.004-.008a.116.116 0 0 0-.015-.021.075.075 0 0 0-.063-.03v.015h-.002l-.01.003a.077.077 0 0 0-.026.013c-.018.014-.036.042-.03.1v-.001l-.007.002-.007.001c-.008-.063.012-.096.035-.114a.09.09 0 0 1 .046-.018h.001v.014a.06.06 0 0 1 .052.024c.005.007.01.014.012.02l.004.006v.001c.035.089-.004.158-.052.206a.388.388 0 0 1-.092.068.356.356 0 0 0 .013-.19.243.243 0 0 0-.003-.015l-.001-.004h-.008l-.007.002v.002l.001.003a.319.319 0 0 1 .008.067.327.327 0 0 1-.024.145l-.004.01h.017l-.002-.005.002.005.003-.002.007-.003a.467.467 0 0 0 .1-.072c.05-.05.093-.126.055-.222Zm-.17.284h.001a.165.165 0 0 0 .008-.004l.003-.001m.144-.273.007-.003-.007.003Z" clip-rule="evenodd"/><path fill="#fff" d="M19.482 11.568s.052-.048.044-.135c0 0-.003-.018.004-.022 0 0 .011-.004.011.019 0 0 .015.09-.044.142 0 0-.004.008-.012.004 0 0-.007 0-.003-.008Z"/><path fill="#64B4D1" d="M19.73 11.512s.164-.101.074-.274c0 0-.026-.048-.075-.037 0 0-.101.03-.022.172 0 0 .037.09.022.143v-.004Z"/><path fill="#00247D" fill-rule="evenodd" d="m19.81 11.235-.006.003.007-.003a.196.196 0 0 1-.005.209.258.258 0 0 1-.066.07l-.003.002v.002h-.004l-.012-.002v-.008l.002-.001a.203.203 0 0 0-.007-.08.422.422 0 0 0-.015-.047l-.001-.003c-.04-.073-.036-.12-.018-.148a.087.087 0 0 1 .04-.034l.003-.001h.001l.003.007-.002-.008a.07.07 0 0 1 .063.016.103.103 0 0 1 .02.023v.002Zm-.08-.027-.002.001a.071.071 0 0 0-.033.028c-.014.022-.02.063.018.133v.001l.002.003.004.011.012.038c.005.022.01.048.009.072l.008-.007a.244.244 0 0 0 .046-.052c.029-.045.047-.11.003-.194v-.002a.087.087 0 0 0-.016-.02.054.054 0 0 0-.05-.012Z" clip-rule="evenodd"/><path fill="#fff" d="M19.77 11.28s-.008-.011 0-.019l.011.012s.049.052.011.138c0 0-.003.011-.015.008v-.011s.038-.075-.007-.128Z"/><path fill="#64B4D1" d="M19.237 11.633s-.184-.045-.15-.236c0 0 .019-.083.098-.072 0 0 .093.027.033.147 0 0-.037.082.02.16Z"/><path fill="#00247D" fill-rule="evenodd" d="M19.095 11.398c-.016.093.02.15.06.183a.233.233 0 0 0 .065.038.173.173 0 0 1-.013-.135.152.152 0 0 1 .005-.014v-.001l.007.003-.007-.003c.03-.059.02-.092.007-.111a.074.074 0 0 0-.033-.024l-.002-.001a.071.071 0 0 0-.071.028.114.114 0 0 0-.017.034v.003Zm.09-.072.002-.008a.086.086 0 0 0-.086.034.125.125 0 0 0-.02.039v.004l.007.002-.008-.002a.199.199 0 0 0 .065.197.248.248 0 0 0 .089.048h.002l.002-.007-.002.007.008-.011a.158.158 0 0 1-.023-.141.135.135 0 0 1 .004-.01v-.003c.032-.062.024-.101.006-.126a.087.087 0 0 0-.039-.03h-.004l-.003.006Z" clip-rule="evenodd"/><path fill="#fff" d="M19.166 11.408s-.004-.012 0-.015c0 0 .011 0 .015.007 0 0 .018.03.003.075 0 0-.015.026-.007.056 0 0 0 .008-.008.012l-.007-.012s-.008-.026.008-.056c0 0 .018-.045 0-.067h-.004Z"/><path fill="currentColor" d="M19.368 11.276s.105-.06.188.007c0 0-.008-.037-.075-.052 0 0-.034-.101-.131-.09 0 0 .037.049.093.086 0 0-.056.008-.075.049Zm.075-.274s.075.053.102.086c0 0 .026-.037.063-.056 0 0-.04-.008-.063.011 0 0-.038-.034-.098-.041h-.004Z"/><path fill="currentColor" fill-rule="evenodd" d="M20.108 9.455v.019h-.005a.106.106 0 0 0-.059.034l-.001.001a.107.107 0 0 1-.018.018.067.067 0 0 1-.054.014l.004-.018a.048.048 0 0 0 .038-.01.087.087 0 0 0 .012-.012l.003-.003v-.001h.001v-.001a.125.125 0 0 1 .071-.04h.007Zm-.173.043-.005.025a.122.122 0 0 1-.077.086.206.206 0 0 1-.058.015h-.001l-.001-.01v.01l-.032.002.174-.128Zm-.101.098a.161.161 0 0 0 .012-.005.114.114 0 0 0 .054-.044l-.066.049Zm-.775 1.473.008.055a.086.086 0 0 1-.008.051h-.001v.001l-.017.088-.01-.038.008-.003-.009.003v-.002l-.001-.004v-.014c0-.01.003-.023.011-.037l.02-.1Z" clip-rule="evenodd"/><path fill="currentColor" d="M19.63 9.292s.057 0 .087-.026c0 0 .034-.022.053.011 0 0 .03.053-.027.075 0 0-.067.038.042.105 0 0-.132-.048-.075-.112 0 0 .056-.038.033-.053 0 0-.007-.015-.03 0-.022.02-.067.012-.082 0Z"/><path fill="#64B4D1" d="M19.706 7.92s.026-.038.015-.14c-.011-.1.082-.116.116-.086 0 0 .038.03 0 .098a.262.262 0 0 1-.13.127Z"/><path fill="#00247D" fill-rule="evenodd" d="M19.737 7.724a.098.098 0 0 0-.008.056.327.327 0 0 1-.008.124.255.255 0 0 0 .11-.115c.018-.032.018-.055.014-.068a.046.046 0 0 0-.011-.02h-.001c-.015-.013-.043-.017-.067-.005a.063.063 0 0 0-.03.028Zm-.037.192.001-.001.002-.005a.136.136 0 0 0 .008-.023.312.312 0 0 0 .003-.105.113.113 0 0 1 .01-.064.078.078 0 0 1 .035-.036c.029-.013.064-.01.084.007 0 .001 0 .002.002.002l.004.005a.061.061 0 0 1 .01.02c.005.019.005.045-.015.08a.27.27 0 0 1-.135.13l-.009-.01Zm0 0Z" clip-rule="evenodd"/><path fill="#fff" d="M19.74 7.842s.037-.038.018-.117l.004-.007.011.004s.019.086-.019.13c0 0-.007.008-.015 0v-.01Z"/><path fill="#64B4D1" d="M19.68 7.883s-.004-.045-.075-.113c-.075-.075-.015-.139.03-.139 0 0 .045 0 .064.072a.262.262 0 0 1-.02.18Z"/><path fill="#00247D" fill-rule="evenodd" d="M19.61 7.765a.306.306 0 0 1 .072.096.256.256 0 0 0 .01-.156c-.009-.034-.024-.05-.036-.058a.05.05 0 0 0-.02-.008.062.062 0 0 0-.054.037c-.01.022-.007.053.029.089Zm.07.118.007.003a.27.27 0 0 0 .02-.185c-.01-.037-.027-.057-.043-.067a.064.064 0 0 0-.027-.01h-.001v.007-.007a.077.077 0 0 0-.067.046c-.013.029-.008.066.031.106.035.033.054.06.063.08a.128.128 0 0 1 .01.026v.001m.008 0h-.008" clip-rule="evenodd"/><path fill="#fff" d="M19.67 7.79s0-.053-.068-.106v-.011h.01s.072.056.072.12c0 0 0 .007-.007.007 0 0-.008 0-.008-.01Z"/><path fill="#64B4D1" d="M19.579 7.849s-.019-.034-.109-.068c-.09-.03-.067-.108-.03-.127 0 0 .041-.015.083.037a.24.24 0 0 1 .056.158Z"/><path fill="#00247D" fill-rule="evenodd" d="M19.443 7.661a.058.058 0 0 0-.029.052c.001.022.015.047.058.061a.333.333 0 0 1 .098.055.232.232 0 0 0-.053-.133.095.095 0 0 0-.053-.036.054.054 0 0 0-.021.001Zm.135.188-.006.004v-.001l-.003-.004a.108.108 0 0 0-.016-.014.32.32 0 0 0-.086-.045c-.047-.016-.066-.046-.067-.075a.073.073 0 0 1 .036-.067h.001l.003.007-.003-.007h.003l.006-.002h.02c.018.004.04.014.062.042a.247.247 0 0 1 .058.162h-.008Zm-.006.004Z" clip-rule="evenodd"/><path fill="#fff" d="M19.538 7.785s-.02-.045-.102-.067c0 0-.007 0-.007-.008 0 0 0-.007.011-.003 0 0 .09.018.116.075l-.004.01s-.007 0-.01-.007h-.005Z"/><path fill="#64B4D1" d="M19.635 7.882s-.041.015-.139-.033c-.097-.045-.138.037-.12.075 0 0 .015.048.09.037a.262.262 0 0 0 .17-.075v-.004Z"/><path fill="#00247D" fill-rule="evenodd" d="M19.387 7.85c.023-.022.061-.031.112-.008a.309.309 0 0 0 .104.035.106.106 0 0 0 .03-.001l.01-.004v.018l-.003.002a.27.27 0 0 1-.173.077c-.04.006-.064-.004-.079-.016a.067.067 0 0 1-.018-.024v-.002c-.012-.022-.005-.055.017-.077Zm.245.026Zm-.234-.015c-.018.018-.023.045-.015.06v.002l.003.005a.051.051 0 0 0 .012.013c.011.01.031.019.067.013a.255.255 0 0 0 .152-.061l-.016-.001a.324.324 0 0 1-.108-.036c-.047-.021-.078-.012-.095.005Z" clip-rule="evenodd"/><path fill="#fff" d="M19.41 7.913s.045.03.124 0h.011s0 .007-.007.01c0 0-.083.038-.14.005 0 0-.007-.004 0-.012h.012v-.003Z"/><path fill="currentColor" fill-rule="evenodd" d="m19.492 7.587.004-.009.005-.008.002.001.006.004a.086.086 0 0 1 .034.083l-.018-.002a.067.067 0 0 0-.031-.069h-.002Zm.205.003.01-.004.008-.003v.001l.001.002a.308.308 0 0 1 .006.033.112.112 0 0 1-.008.066l-.016-.01a.094.094 0 0 0 .006-.053.211.211 0 0 0-.004-.024l-.002-.007V7.59Zm0 0Z" clip-rule="evenodd"/><path fill="#64B4D1" d="M16.38 7.92s-.026-.037-.015-.139c.011-.105-.079-.116-.113-.086 0 0-.037.03-.003.098a.262.262 0 0 0 .13.127Z"/><path fill="#00247D" fill-rule="evenodd" d="M16.328 7.68c.03.014.05.047.044.102a.311.311 0 0 0 .003.105.12.12 0 0 0 .01.028l-.006.005-.003.007a.27.27 0 0 1-.135-.131c-.017-.036-.017-.062-.01-.08a.067.067 0 0 1 .014-.025l.002-.001a.077.077 0 0 1 .081-.01Zm-.006.014a.067.067 0 0 0-.065.006l-.001.002-.003.003a.052.052 0 0 0-.009.016c-.004.013-.005.036.01.068.024.05.063.09.11.115a.326.326 0 0 1-.007-.124c.005-.05-.013-.075-.035-.086Zm.064.222Z" clip-rule="evenodd"/><path fill="#fff" d="M16.346 7.842s-.034-.038-.018-.117v-.007l-.015.004s-.015.086.022.13c0 0 .008.008.011 0v-.01Z"/><path fill="#64B4D1" d="M16.41 7.883s0-.045.075-.113c.075-.075.015-.139-.03-.139 0 0-.05 0-.064.072a.262.262 0 0 0 .019.18Z"/><path fill="#00247D" fill-rule="evenodd" d="M16.522 7.67c.013.029.008.066-.031.106a.263.263 0 0 0-.065.08.1.1 0 0 0-.008.026h-.008l-.006.004a.27.27 0 0 1-.02-.185c.008-.037.025-.057.041-.067a.067.067 0 0 1 .03-.01v.007-.007c.026 0 .055.018.067.046Zm-.114.19a.255.255 0 0 1-.01-.155c.008-.035.023-.05.035-.058a.053.053 0 0 1 .022-.008c.02 0 .043.014.053.037.01.022.008.053-.028.089a.276.276 0 0 0-.072.094Z" clip-rule="evenodd"/><path fill="#fff" d="M16.421 7.789s0-.053.064-.105c0 0 .007-.008 0-.011 0 0 0-.004-.008 0 0 0-.075.056-.075.12 0 0 0 .007.012.007 0 0 .007 0 .007-.011Z"/><path fill="#64B4D1" d="M16.508 7.849s.019-.034.112-.068c.087-.03.064-.108.027-.127 0 0-.038-.015-.083.037a.24.24 0 0 0-.056.158Z"/><path fill="#00247D" fill-rule="evenodd" d="m16.649 7.647-.003.007.003-.007a.074.074 0 0 1 .038.067c0 .03-.019.059-.065.075a.33.33 0 0 0-.089.045.105.105 0 0 0-.015.014l-.003.004h-.001l-.006-.003H16.5c0-.06.02-.117.058-.162a.11.11 0 0 1 .063-.041.063.063 0 0 1 .026 0h.001v.001h.001Zm-.133.182a.344.344 0 0 1 .102-.054c.04-.015.054-.04.054-.062a.06.06 0 0 0-.029-.052l-.004-.001h-.016a.098.098 0 0 0-.053.036.232.232 0 0 0-.054.133Z" clip-rule="evenodd"/><path fill="#fff" d="M16.548 7.785s.019-.045.102-.067c0 0 .007 0 .007-.008 0 0 0-.007-.008-.003 0 0-.09.018-.116.075v.01s.011 0 .015-.007Z"/><path fill="#64B4D1" d="M16.451 7.882s.045.015.139-.033c.097-.045.139.037.124.075 0 0-.02.048-.094.037a.263.263 0 0 1-.169-.075v-.004Z"/><path fill="#fff" d="M16.676 7.913s-.041.03-.124 0h-.007v.01s.09.038.142.005c0 0 .008-.004 0-.012h-.01v-.003Z"/><path fill="currentColor" fill-rule="evenodd" d="m16.59 7.57.003.009.004.008-.001.001a.068.068 0 0 0-.018.015.059.059 0 0 0-.013.053l-.018.003a.078.078 0 0 1 .034-.084.061.061 0 0 1 .006-.003l.002-.001Zm-.219.013.009.003.009.003v.002a.094.094 0 0 0 0 .084l-.017.01a.112.112 0 0 1-.008-.066.21.21 0 0 1 .007-.035Zm.018.006Z" clip-rule="evenodd"/><path fill="currentColor" d="M18.473 7.038s.03.086.018.165c-.011.075.004.09.03.105.023.011.075-.011.079-.067 0 0 .06.12-.056.198 0 0-.087.053-.158-.015-.026-.026-.037-.093-.022-.157 0 0 .018-.083-.015-.173 0 0 .049.053.037.154 0 0-.026.188.113.176 0 0 .094 0 .097-.112 0 0-.037.037-.079.026a.075.075 0 0 1-.056-.09c.004-.049.019-.135.012-.21Zm-.15.3s-.012.15-.143.184c0 0 .019-.026-.011-.101 0 0-.03-.038-.03-.105 0 0-.038.033.007.12.03.052.004.112-.004.116-.01.004.218-.03.177-.21l.004-.004Zm-.177-.142s-.034-.038-.037-.12c0-.083-.015-.105-.027-.113 0 0 .015.071.012.113 0 .048.003.075.011.093 0 0-.075.012-.12-.093-.041-.102-.086-.094-.109-.094 0 0 .026.004.075.097.053.09.068.113.195.113v.004Zm-.337-.218s.037.098.041.15c0 0-.098-.03-.124-.112 0 0-.101.033-.063.15 0 0-.09-.03-.132-.102 0 0 .049.038.098.053 0 0-.008-.098.112-.131 0 0 .019.086.083.105l-.015-.113Zm.157-.172s.038.048.105.048a.113.113 0 0 0 .101-.048s-.003.082-.1.086c0 0-.106 0-.106-.086Zm-.424.58.064.06s.038.038.064-.007c0 0 .041-.075.09-.07 0 0-.038.022-.075.093 0 0-.008.022-.037.026-.015 0-.03.008-.057-.022 0 0-.022-.027-.049-.075v-.004Zm.525-.922c-.1 0-.015.075-.015.075 0 .128-.097.17-.165.132-.07-.038-.015-.128-.015-.128s-.075.049-.03.124c.05.075.18.037.226-.026.048.067.18.1.224.026.053-.075-.026-.124-.026-.124s.057.09-.015.128c-.067.037-.169 0-.165-.128 0 0 .087-.079-.015-.079h-.004Zm.064-.138s.038.063.03.153c0 0 .03-.09-.03-.15v-.003Zm-.315.146s-.007-.068-.075-.075c0 0 .06.041.075.075Zm.507 0s.007-.068.075-.075c0 0-.057.041-.075.075Zm-.608.101s.052.015.082-.022l-.082.022Zm-.169-.412s.06-.004.12.086c0 0-.06.03-.075.049 0 0 0-.03.03-.053 0 0-.011-.045-.075-.079v-.003Zm1.005 0s-.06-.004-.12.086c0 0 .06.03.075.049 0 0 0-.03-.03-.053 0 0 .012-.045.075-.079v-.003Zm-.461.07s.052.016.12-.022c0 0 .082-.045.135 0 0 0-.045-.022-.135.023 0 0-.086.049-.12 0Z"/><path fill="#fff" d="M18.145 6.285s.046-.079.188-.064c0 0-.037.113-.188.064Z"/><path fill="#784421" d="M18.24 6.293c.015 0 .026-.016.026-.034 0-.019-.011-.034-.026-.034-.014 0-.026.015-.026.034 0 .018.012.034.026.034Z"/><path fill="currentColor" d="M18.24 6.281c.008 0 .015-.01.015-.022 0-.013-.007-.023-.015-.023-.009 0-.015.01-.015.023 0 .012.006.022.015.022Zm-.394-.169s.087.008.143.038c0 0 .056.037.12-.012 0 0 .071-.04.116-.097 0 0-.109.075-.15.086 0 0-.037-.03-.049-.071 0 0 .004-.03.064-.086 0 0-.079.026-.094.09a.25.25 0 0 0 .045.075s-.015.007-.052-.019c0 0-.086-.026-.143 0v-.004Zm.225.533c-.075.067 0 .06 0 .06s.075.007 0-.06Zm-.045-.413s-.056.015-.123-.022c0 0-.083-.045-.135 0 0 0 .045-.023.135.022 0 0 .09.049.123 0Z"/><path fill="#fff" d="M17.97 6.285s-.045-.079-.188-.064c0 0 .038.113.188.064Z"/><path fill="#784421" d="M17.872 6.293c.015 0 .026-.016.026-.034 0-.019-.011-.034-.026-.034-.014 0-.026.015-.026.034 0 .018.012.034.026.034Z"/><path fill="currentColor" d="M17.872 6.281c.009 0 .015-.01.015-.022 0-.013-.006-.023-.015-.023-.008 0-.015.01-.015.023 0 .012.007.022.015.022Z"/><path fill="currentColor" fill-rule="evenodd" d="M15.324 5.537h5.455v.024h.02v5.081c0 .349-.174.637-.431.872-.258.235-.6.42-.94.56a6.69 6.69 0 0 1-1.33.387l-.022.004-.006.001h-.002l-.004-.024-.004.024h-.002l-.006-.001-.023-.004a7.072 7.072 0 0 1-1.332-.387c-.34-.14-.683-.325-.94-.56-.258-.235-.433-.523-.433-.872V5.537Zm2.74 6.905-.004.024.004.001h.003l-.003-.025Zm0-.024a.04.04 0 0 0 .003-.001l.023-.004a5.927 5.927 0 0 0 .391-.085 6.53 6.53 0 0 0 .929-.3c.338-.139.674-.32.925-.55.25-.23.415-.505.415-.836V5.585h-5.377v5.057c0 .33.165.607.416.836.252.23.588.411.926.55a6.66 6.66 0 0 0 1.322.385l.023.004h.004Z" clip-rule="evenodd"/></g><defs><clipPath id="a"><path fill="#fff" d="M0 0h24v18H0z"/></clipPath></defs></svg>