<svg xmlns="http://www.w3.org/2000/svg" width="24" height="18" fill="none"><g clip-path="url(#a)"><path fill="#F7E017" d="M0 0h24v18H0V0Z"/><path fill="#fff" d="M0 1.249v8.003l24 3.75V8.748l-24-7.5Z"/><path fill="currentColor" d="M0 5.501v3.75l24 7.5v-3.75l-24-7.5Z"/><path fill="#CF1126" d="M11.392 14.243a2.931 2.931 0 0 1-1.235-.43.74.74 0 0 0-.125-.075c-.01 0-.015.047-.015.102 0 .16-.065.24-.225.283-.155.04-.39-.04-.58-.2-.18-.155-.39-.27-.617-.338a.998.998 0 0 0-.7.09.219.219 0 0 1-.07.033c-.028 0-.025-.173.005-.225a.418.418 0 0 1 .235-.183c.055-.02.1-.045.1-.057 0-.01-.02-.05-.043-.09-.072-.128-.042-.25.085-.348.13-.1.35-.115.543-.042a.82.82 0 0 0 .1.035c.025 0 .01-.038-.06-.14a.405.405 0 0 1-.088-.318.367.367 0 0 1 .338-.337c.145-.01.235.04.45.242a3.6 3.6 0 0 0 2.15 1.04c.207.025.62.013.862-.025a3.9 3.9 0 0 0 2.045-1.02c.16-.15.235-.19.368-.19a.34.34 0 0 1 .275.125c.075.083.1.16.09.288a.364.364 0 0 1-.065.197c-.07.113-.058.125.08.07.19-.075.422-.04.547.08.11.105.12.21.035.35a.508.508 0 0 0-.057.11c0 .015.025.02.137.04.15.025.238.135.238.305 0 .05-.008.093-.015.093a1.13 1.13 0 0 1-.125-.048 1.017 1.017 0 0 0-.48-.087.82.82 0 0 0-.315.042c-.18.063-.346.16-.488.288-.16.142-.26.187-.415.185-.145 0-.242-.043-.295-.125-.027-.045-.032-.07-.025-.17a.51.51 0 0 0 0-.118.886.886 0 0 0-.125.078 2.015 2.015 0 0 1-.462.247 4.54 4.54 0 0 1-2.058.243Z"/><path fill="#CF1126" d="M11.658 13.13a3.41 3.41 0 0 1-2.448-1.393c-.61-.83-.8-1.927-.615-2.93.1-.457.3-.915.638-1.24a2.865 2.865 0 0 0-.218 1.858c.225 1.245 1.275 2.297 2.533 2.48.5.142 1.012-.01 1.487-.163 1.05-.37 1.85-1.365 1.945-2.477a3.067 3.067 0 0 0-.28-1.775c.155.082.35.405.465.62.4.775.418 1.702.183 2.53-.32 1.052-1.125 1.975-2.188 2.31a4.145 4.145 0 0 1-1.5.18h-.002ZM6.8 11.748c-.062-.01-.132.052-.107.117.045.065.125.1.195.13.184.072.382.103.58.09.145 0 .289-.025.425-.075.075-.025.17-.05.2-.135.032-.052-.025-.107-.078-.097-.075.017-.15.05-.225.072a1.442 1.442 0 0 1-.507.05 1.346 1.346 0 0 1-.36-.105c-.04-.017-.078-.042-.123-.047Z"/><path fill="#CF1126" d="M6.87 11.488c-.063-.01-.118.065-.093.125.05.07.132.107.21.14.135.053.28.077.425.072h.037a.938.938 0 0 0 .36-.07c.068-.027.153-.055.183-.13.022-.042.005-.102-.05-.107-.045 0-.088.03-.133.042-.163.067-.34.095-.515.08a.993.993 0 0 1-.312-.1c-.038-.017-.07-.045-.113-.05v-.002Z"/><path fill="#CF1126" d="M6.957 11.24c-.055-.007-.092.056-.082.103.007.045.045.075.077.1.136.095.3.141.465.133h.04a.7.7 0 0 0 .3-.07c.063-.025.135-.058.158-.13.01-.033.015-.08-.023-.1-.04-.02-.077.012-.112.025a.851.851 0 0 1-.388.097.676.676 0 0 1-.327-.1c-.038-.017-.068-.05-.108-.057Z"/><path fill="#CF1126" d="M6.037 7.568c-.08.082-.017.232-.025.337.045.33.098.663.22.975.15.3.47.463.663.73.07.128.045.283.06.425.01.383.007.768 0 1.15.175.09.362.175.562.143.118-.028.338-.045.363-.163l-.025-1.987c-.068-.203-.275-.308-.428-.438a3.888 3.888 0 0 1-.355-.402c-.065-.113-.322-.15-.23.04.055.167.193.29.228.465.007.097.125.275.025.33a.613.613 0 0 0-.268-.25c-.11-.083-.292-.118-.332-.263a1.073 1.073 0 0 0-.275-.55c.037-.185 0-.417-.16-.537l-.023-.005Z"/><path fill="#CF1126" d="M6.285 7.605c-.075.013-.07.105-.038.155a.68.68 0 0 1 .028.335c.137.153.228.341.265.543 0 .075.08.1.132.137.123.078.258.135.368.233.022.025.04.05.025 0-.018-.065-.025-.135-.075-.183a.495.495 0 0 0-.255-.16c-.008-.105-.058-.2-.103-.29-.05-.087-.102-.18-.187-.235 0-.152 0-.312-.065-.455-.02-.035-.05-.077-.095-.08Z"/><path fill="#CF1126" d="M6.492 7.666c-.05.015-.04.08-.025.117.022.109.03.22.025.33.098.075.155.185.21.29a.8.8 0 0 1 .078.223.637.637 0 0 1 .205.125c-.025-.07-.075-.125-.113-.193a.838.838 0 0 1-.092-.217.366.366 0 0 1-.1-.3.47.47 0 0 0-.113-.33c-.02-.02-.045-.043-.075-.045Z"/><path fill="#CF1126" d="M6.73 7.7c-.03.005-.045.03-.06.053-.007.022.02.045.025.07a.545.545 0 0 1 .035.26.325.325 0 0 0 .05.175.097.097 0 0 1 .088-.07c.012 0 .035.005.025-.018a1.28 1.28 0 0 0-.07-.35.24.24 0 0 0-.07-.112.028.028 0 0 0-.025-.008h.002Zm5.162 4.2a.89.89 0 0 1-.747-.6c.007-.055.075.03.107.037.061.037.13.059.2.065.088.038.143.125.228.173.04.03.18.09.152-.008-.033-.05-.055-.115-.025-.175.045-.102.117-.192.192-.28.053-.017.09.09.128.125.053.083.117.183.085.283-.03.037-.05.15.033.115.1-.045.182-.12.264-.19.075-.05.168-.053.243-.1.037-.008.11-.078.125-.04a1.12 1.12 0 0 1-.185.307.803.803 0 0 1-.47.273c-.11.02-.22.025-.33.015Z"/><path fill="#CF1126" d="M12.287 11.505a.339.339 0 0 0-.042-.2 1.878 1.878 0 0 0-.2-.298c-.07-.04-.108.093-.153.13-.072.108-.162.218-.167.35-.04.063-.115-.05-.148-.087a.475.475 0 0 1-.1-.3 1.27 1.27 0 0 1 .09-.515c.05-.14.128-.275.12-.425.005-.118-.017-.243-.11-.32-.09-.07.058-.085.103-.05.08.007.122.137.195.105.027-.068.035-.15.095-.203.057-.08.117.033.137.088.043.045 0 .162.065.165.08-.058.138-.15.24-.173.043-.025.113 0 .058.045a.472.472 0 0 0-.155.268.641.641 0 0 0 .067.385c.113.235.2.5.143.762a.488.488 0 0 1-.2.283c-.013.007-.033.007-.038-.01Z"/><path fill="#CF1126" d="M12.167 9.74a.53.53 0 0 0-.14-.175c-.06 0-.098.075-.138.115-.027.052-.062.14-.132.072-.113-.065-.13-.207-.13-.325-.008-.19.07-.367.137-.54a.563.563 0 0 0 .005-.34c-.032-.125-.135-.215-.212-.315.005-.037.105-.017.142-.01.085.023.135.095.198.15.045-.015.025-.105.047-.147 0-.06.08-.138.113-.053.05.055 0 .163.062.195.06-.022.09-.087.145-.117a.2.2 0 0 1 .195-.013c.023.055-.065.1-.09.15a.51.51 0 0 0-.095.45c.035.125.095.238.118.363.027.142.022.29-.013.43-.022.085-.095.14-.17.175-.02-.018-.03-.043-.042-.065Z"/><path fill="#CF1126" d="M11.79 8.173c-.085-.063-.112-.12-.112-.238a.22.22 0 0 1 .05-.145c.06-.08.05-.105-.033-.082-.132.037-.195.005-.2-.108 0-.055.01-.077.083-.167.06-.07.082-.108.07-.12-.013-.01-.083.05-.225.195-.09.094-.185.182-.285.265-.245.165-.48.19-.588.062-.055-.065-.052-.1.01-.14a.685.685 0 0 0 .11-.092c.123-.112.258-.21.403-.29.09-.045.11-.075.052-.075-.075 0-.312.155-.495.32a.88.88 0 0 1-.17.125.635.635 0 0 1-.347.025c-.055-.018-.158-.113-.158-.148 0-.007.025-.027.05-.045a.75.75 0 0 0 .115-.08c.145-.125.42-.257.638-.305.07-.012.042-.05-.035-.045a1.4 1.4 0 0 0-.625.293c-.208.172-.52.155-.62-.033-.018-.032-.03-.062-.025-.067a2.32 2.32 0 0 0 .51-.195c.139-.082.293-.137.452-.163.07-.012.075-.047.008-.055-.09-.01-.225.035-.463.15-.307.153-.395.18-.555.17a.482.482 0 0 1-.35-.16c-.08-.075-.19-.262-.17-.285.13.028.263.038.395.033.208 0 .265-.005.375-.038.215-.068.418-.17.6-.302.257-.218.583-.338.92-.34.31 0 .505.07.68.247.06.06.11.098.118.09.007-.007.015-.112.017-.232 0 0 .093-.01.113.017 0 .193 0 .21.03.21.017 0 .037-.02.05-.05.025-.062.125-.15.23-.205.225-.112.617-.117.932-.007.15.057.292.137.418.237.184.13.386.23.6.3.17.05.475.063.627.025.045-.01.09-.018.135-.025.058 0-.04.19-.155.303-.21.205-.482.202-.865-.003-.24-.13-.525-.2-.525-.13 0 .015.015.025.038.025.082 0 .242.055.467.163.142.081.297.136.458.162.057 0 .06.038.005.118-.058.085-.155.125-.293.125-.132 0-.207-.028-.325-.125-.2-.165-.69-.35-.672-.25.005.017.027.03.08.037a1.4 1.4 0 0 1 .577.275l.148.108c.027.015.027.02.005.062-.035.07-.13.123-.23.133a.455.455 0 0 1-.363-.125c-.25-.208-.482-.358-.557-.358-.063 0-.035.035.075.093.142.075.275.167.395.275.05.047.107.092.125.102.047.025.045.06-.005.125-.05.065-.135.095-.243.083-.215-.023-.385-.125-.65-.4a1.76 1.76 0 0 0-.205-.195c-.035 0-.012.047.055.125.085.092.1.145.068.225-.028.065-.075.082-.17.055-.1-.025-.115 0-.05.077.095.123.082.268-.038.37a.3.3 0 0 1-.085.058c-.01 0-.035-.025-.057-.06-.075-.115-.143-.115-.218 0-.016.025-.032.05-.05.075a2.838 2.838 0 0 1-.075-.055Z"/><path fill="#CF1126" d="m12.167 5.825-.13.1-.115-.085v.695h.245v-.71Z"/><path fill="#CF1126" d="M11.373 5.108a2.21 2.21 0 0 1-.225.807l.277-.257.192.23.21-.235.213.2.205-.208.212.25.185-.205.315.225c-.115-.25-.267-.465-.25-.82-.302.225-1.025.265-1.335.01v.003Z"/><path fill="#CF1126" d="M11.925 4.94c-.112 0-.23.003-.335.025a.502.502 0 0 0-.194.075c.007.215 1.024.303 1.297.005a.5.5 0 0 0-.205-.082c-.1-.02-.215-.02-.322-.025v.177h-.24V4.94Z"/><path fill="#CF1126" d="M12.122 3.85h-.157v1.235h.16l-.003-1.235Z"/><path fill="#CF1126" d="m12.122 3.88-.06.593.607.297-.307-.412.42-.138-.66-.34Zm-.067-.152c-.093 0-.16.035-.16.075 0 .04.067.075.16.075.092 0 .16-.035.16-.075 0-.04-.068-.075-.16-.075Z"/><path fill="#F7E017" d="M11.775 14.097c.101-.034.158-.094.199-.21a.485.485 0 0 0 .03-.135c-.008-.037-.053-.037-.098.004-.033.026-.037.041-.03.097.027.14-.026.177-.288.203-.027 0-.105 0-.17-.011-.127-.015-.172 0-.127.037a.258.258 0 0 0 .08.034c.07.019.33.007.404-.019Zm.551-.022a.435.435 0 0 1 .113-.057c.064-.018.097-.037.124-.082.078-.113.063-.214-.05-.349-.063-.075-.09-.071-.138.011-.045.068-.041.075.019.09.034.008.064.03.079.06.067.117.048.188-.053.188-.09 0-.112.015-.139.075l-.022.071c0 .023.037.019.067-.007Zm-.18-.132c.015-.048.023-.13.02-.3.003-.08 0-.16-.012-.24-.015-.015-.086.03-.098.064a.113.113 0 0 0 .02.079c.022.045.025.09.018.262-.011.225.004.263.052.135Z"/><path fill="#F7E017" d="m11.722 13.837.026-.187c.004-.064.019-.143.026-.176.027-.087 0-.11-.067-.06l-.049.037.008.124a1.41 1.41 0 0 1-.034.401c-.008.023.004.015.034-.019a.314.314 0 0 0 .056-.123v.003Zm-.375.06c.09-.075.079-.21.101-.315 0-.07.045-.153.015-.217-.086.015-.139.097-.094.176 0 .094 0 .195-.049.278-.037.056-.165.04-.157-.038.03-.112-.109-.056-.161-.026-.042.03-.132.034-.098-.038-.022-.1-.146-.037-.213-.037-.064 0-.004-.131-.098-.113-.169-.01-.356.004-.506-.097-.086-.041-.075-.146-.027-.214.053-.09.068-.206.15-.277.087-.08-.075-.045-.112-.02-.083.046-.008.162-.075.226-.037.067-.09.157-.18.146-.131-.026-.206-.15-.3-.225-.082-.019-.037.128.008.158a.819.819 0 0 0 .277.135c.098-.02.101.112.188.13.15.076.322.095.49.106.068.004.03.124.117.097.049.015.161-.018.165.038-.075.09.071.086.124.075.071-.015.157-.038.176.052.056.064.161.053.232.02l.027-.02Z"/><path fill="#F7E017" d="M9.855 13.14a.896.896 0 0 0 .09-.157.601.601 0 0 1 .075-.135c.045-.045.018-.075-.053-.06-.037.007-.052.022-.056.056a.862.862 0 0 1-.094.263c-.064.093-.064.097-.037.097.011 0 .045-.03.075-.064Zm-.938-.588c-.071 0-.075.045-.007.067.037.011.063.037.086.086.064.131.105.158.281.173l.113.007.007.072c0 .037.011.067.019.067l.097-.037c.083-.046.162-.143.162-.207 0-.037-.068-.082-.128-.082a.254.254 0 0 0-.116.052c-.128.09-.263.075-.338-.045-.056-.097-.12-.15-.176-.15v-.003Zm.611.243c.034 0 .038.027.023.075a.034.034 0 0 1-.032.023.034.034 0 0 1-.032-.023c-.015-.037.004-.075.038-.075h.003Zm4.744-.15c-.049 0-.06.008-.09.053-.049.071-.052.225-.007.277.026.034.03.034.086.008.083-.034.098-.03.094.011 0 .113-.158.326-.323.439a.366.366 0 0 0-.09.075c-.011.03.049.026.124-.015a.787.787 0 0 0 .296-.3c.041-.086.049-.113.056-.263 0-.142 0-.187-.022-.232-.03-.053-.038-.056-.105-.056h-.019v.003Zm.004.094c.037 0 .037.007.045.06 0 .037-.004.064-.026.086-.03.027-.038.027-.06-.015-.038-.06-.015-.131.041-.131Zm-.758 1.069c.147-.075.233-.154.285-.27a.76.76 0 0 0 .05-.117c0-.022-.072-.056-.113-.056-.042 0-.053-.03-.038-.112.019-.079 0-.18-.037-.18-.011 0-.038.018-.049.041-.022.037-.026.052-.008.101.027.075.004.135-.063.184-.034.023-.049.049-.049.075l.004.037.079-.037.074-.045.042.037c.026.016.045.046.045.064 0 .09-.255.24-.428.255-.093.008-.112 0-.142-.03-.027-.026-.034-.049-.027-.075l.02-.097c.014-.079-.016-.068-.076.022-.045.075-.06.154-.034.195.023.038.165.068.27.06a.436.436 0 0 0 .195-.052Zm.975-.544c.09-.094.132-.206.132-.375v-.131l.075-.038c.101-.045.195-.139.195-.191 0-.053-.027-.053-.068.008-.034.04-.075.067-.225.138-.037.015-.041.026-.052.188a.528.528 0 0 1-.139.382c-.064.075-.067.09-.022.09.018 0 .067-.034.104-.075v.004Zm-1-.105c.007-.026-.046-.045-.065-.023a.024.024 0 0 0-.007.034c.015.023.06.015.071-.011Zm1.38-.356c.01-.03-.042-.049-.064-.027-.008.012-.012.027-.004.038.015.022.06.015.067-.011Zm-1.662-.972c-.037.02-.056.057-.079.087-.018.011-.003.022.004.037.064.064.09.158.12.244.03.101.067.21.037.315-.01.038-.044.079-.09.068-.074-.004-.15-.027-.224-.027-.072.004-.124.068-.192.06-.045 0-.045-.09-.082-.063-.023.048-.011.1-.015.15.007.01.03.003.041.007h.139c.007.045.007.101.037.139.049.015.105 0 .15-.019.045-.023.053-.079.068-.124.015-.049.075-.037.112-.056a.213.213 0 0 0 .15-.214c-.007-.146-.06-.277-.105-.412-.018-.06-.034-.124-.056-.184l-.015-.008Zm-.225.818c.049 0 .071.06.06.101-.019.056-.09.023-.101-.018-.027-.038-.011-.087.037-.083h.004Z"/><path fill="#F7E017" d="M11.1 12.18a.13.13 0 0 0-.075.026c-.131.094-.169.203-.075.248.064.03.049.067-.056.12-.15.075-.282.064-.533-.038-.06-.026-.075-.015-.064.038.015.056.068.086.192.112.135.038.3.027.405-.018a.525.525 0 0 0 .16-.128l.083-.086.094.011c.116.015.12.015.12.071 0 .045 0 .045.109.057l.176.007c.049 0 .075.011.09.034.023.026.034.03.21.015.165-.015.195-.015.27.011a.463.463 0 0 0 .154.019c.127-.015.3-.116.326-.191 0-.012.049-.027.101-.038.128-.026.132-.052.015-.067a.859.859 0 0 1-.172-.042.455.455 0 0 0-.131-.033c-.064 0-.124.037-.124.082 0 .026.007.03.086.023.068-.008.09-.004.128.026.026.019.04.041.037.049-.019.03-.169.097-.232.108a.176.176 0 0 1-.113-.018c-.06-.03-.142-.034-.161-.008-.008.011-.023.004-.049-.019l-.037-.037-.09.037c-.09.038-.124.038-.124-.007 0-.019-.026-.023-.158-.011-.146.007-.16.003-.187-.027-.026-.026-.026-.037-.008-.063.015-.03.015-.038 0-.057-.015-.015-.037-.015-.093 0-.147.038-.188.02-.188-.093 0-.072-.037-.113-.086-.113Zm-.038.105c.008 0 .015.004.027.015.01.011.018.038.01.049-.01.034-.074.034-.085 0-.008-.019 0-.038.018-.049l.03-.015Z"/><path fill="#F7E017" d="M10.799 12.39c.09-.056.09-.052.101-.206.008-.112.008-.12-.023-.12-.045 0-.067.049-.067.139 0 .06-.008.086-.037.112-.075.075-.255.042-.282-.048-.007-.03.004-.06.042-.113.078-.113.063-.143-.038-.056-.064.06-.075.06-.064.011.012-.049-.011-.068-.067-.053-.027.008-.045.023-.049.06-.008.03-.022.05-.049.057-.045.011-.12-.03-.12-.068 0-.026.113-.165.259-.315a.963.963 0 0 0 .098-.116c0-.008-.03-.015-.064-.015-.053 0-.068.007-.068.03 0 .015-.071.113-.161.214-.188.21-.203.251-.113.307a.224.224 0 0 0 .248-.007l.06-.041v.074c0 .094.019.132.094.17a.3.3 0 0 0 .3-.016Zm3.915-1.297c-.068.041-.015.127 0 .187-.03.075-.132.098-.207.113-.104.018-.18.105-.217.198-.022.06-.075.15-.131.06-.049-.048-.139-.09-.195-.03-.045.042-.056.102-.075.158-.026-.041-.038-.105-.09-.12-.09.011-.056.124-.015.169.037.056.075.123.037.187-.037.075-.15.128-.213.064-.06-.034-.02-.15-.083-.158-.03.023-.03.147-.079.08-.037-.057-.015-.136-.06-.184-.048.007-.09.093-.075.138.068.09.098.203.124.312.015.045-.004.13.037.15.027-.072 0-.15.023-.222.068-.007.139.023.206.008.101-.011.176-.098.21-.184.011-.068 0-.135-.003-.203.075.015.157.015.232.038.037.056-.011.139-.023.199-.037.127-.138.217-.232.3-.041.026-.045.09.011.056a.562.562 0 0 0 .281-.3c.042-.098.008-.206.038-.304.037-.075.131-.06.203-.06.07 0 .13-.086.108-.157-.022-.083.064-.12.12-.15.079-.038.139-.117.131-.207 0-.048 0-.134-.063-.138Zm-.274.469c.083.022-.015.18-.06.078-.015-.037.019-.079.06-.079Zm-.386.112c.108-.004.067.15-.023.083-.049-.027-.034-.083.023-.083Zm-3.93.611c0-.015-.008-.026-.023-.026-.026 0-.045.026-.034.049.015.026.05.011.057-.023Zm1.275-.135c0-.026-.011-.034-.03-.03-.041.008-.049.064-.004.064.022 0 .034-.011.034-.037v.003Zm-1.575-.765c-.049-.011-.083.034-.102.075a.39.39 0 0 1-.15.161c-.048.015-.1-.003-.146-.03-.049-.026-.037-.086-.06-.127-.037-.03-.101.011-.097.056-.004.06.048.094.097.117.038.026.098.037.113.086 0 .041.015.09.063.075.057 0 .075.067.05.108a.236.236 0 0 0-.027.15c.026.027.052-.037.075-.052l.037-.053c.102.004.2.02.3.015.075 0 .132-.044.177-.097.067-.067.12-.146.191-.203.053-.014.026-.112-.03-.082-.049.019-.064.075-.098.109a1.165 1.165 0 0 1-.187.195c-.056.022-.116.011-.173 0-.022-.019.045-.038.057-.06.03-.03.067-.06.086-.101-.019-.038-.071-.038-.109-.038-.09.008-.161.086-.255.094-.071 0-.034-.075 0-.101.06-.075.128-.143.191-.214.02-.023.087-.045.045-.075-.015-.008-.033-.008-.048-.008Zm.045.375c.048.027-.03.068-.06.064-.042.011-.045-.03-.008-.037a.127.127 0 0 1 .068-.027Zm-.143.098c.026 0 .083.026.03.041-.037.03-.075-.03-.03-.041Z"/><path fill="#F7E017" d="M10.852 11.918c0-.038-.06-.03-.068.007-.007.023 0 .027.03.023.023 0 .038-.015.038-.03Zm2.801-.248c.008-.033-.037-.056-.064-.03-.026.023 0 .072.03.064.015 0 .03-.019.038-.034h-.004ZM9.3 11.33c.042-.038.046-.042.027-.125-.03-.116-.027-.13.018-.142.057-.011.2.064.226.124.03.048.026.052-.015.09-.045.04-.045.09 0 .09.037 0 .138-.098.138-.132 0-.048-.112-.165-.202-.206a.403.403 0 0 0-.173-.037c-.116 0-.131.026-.101.157.037.158-.011.18-.139.06a.39.39 0 0 1-.131-.322c0-.15.06-.23.191-.248.09-.011.087-.034 0-.045-.135-.022-.247.068-.288.225-.05.176.06.39.25.499.102.056.14.06.2.011Zm5.22-.196c.012-.007.02-.034.02-.052a.2.2 0 0 1 .04-.09.21.21 0 0 0 .038-.068c0-.03-.049-.03-.086 0-.042.034-.075.038-.075 0l.045-.034c.06-.026.064-.056.015-.078-.064-.03-.132.022-.135.112-.004.06 0 .068.045.094.041.026.049.037.041.075-.011.06.015.082.053.041Zm.488-.052c.037-.038.068-.072.068-.083 0-.011.033-.045.07-.075.106-.075.132-.15.083-.274-.018-.048-.075-.112-.206-.225a.97.97 0 0 0-.203-.165c-.033 0-.026.128.008.14a.534.534 0 0 1 .203.138c.12.105.172.206.142.262-.026.053-.064.038-.169-.075a.518.518 0 0 0-.12-.108c-.011 0-.018.022-.018.052 0 .038.018.075.075.131.086.098.093.154.026.207a.187.187 0 0 1-.053.037 1.246 1.246 0 0 0-.337-.375c-.011 0-.019.015-.019.053 0 .048.008.063.045.082.099.076.187.164.262.263l.068.075a.334.334 0 0 0 .075-.064v.004Zm.225-.63c-.019-.045-.315-.353-.349-.353-.015 0-.018.019-.015.068 0 .06.011.067.053.078a.75.75 0 0 1 .172.14c.041.043.088.08.139.112v-.045Zm-1.792 3.472a.032.032 0 0 1 0 .017.034.034 0 0 1-.008.016.046.046 0 0 1-.015.011.053.053 0 0 1-.04 0 .046.046 0 0 1-.017-.01.034.034 0 0 1-.008-.017.032.032 0 0 1 .001-.017.032.032 0 0 1 0-.017.034.034 0 0 1 .007-.016.044.044 0 0 1 .016-.011.053.053 0 0 1 .04 0 .044.044 0 0 1 .016.011c.005.005.008.01.009.016a.032.032 0 0 1-.002.017Zm.157-.052c0 .005-.001.01-.003.014a.038.038 0 0 1-.01.012.045.045 0 0 1-.015.008.052.052 0 0 1-.049-.008.036.036 0 0 1-.01-.012.031.031 0 0 1 0-.029.036.036 0 0 1 .01-.012.053.053 0 0 1 .049-.008c.006.002.01.005.015.008a.038.038 0 0 1 .01.012l.003.015Z"/></g><defs><clipPath id="a"><path fill="#fff" d="M0 0h24v18H0z"/></clipPath></defs></svg>