<svg xmlns="http://www.w3.org/2000/svg" width="24" height="18" fill="none"><g clip-path="url(#a)"><path fill="#229E45" fill-rule="evenodd" d="M0 0h24v18H0V0Z" clip-rule="evenodd"/><path fill="#F8E509" fill-rule="evenodd" d="M12.052 16.35 23.36 9.01 11.985 1.65.64 9.026l11.411 7.324Z" clip-rule="evenodd"/><path fill="#2B49A3" fill-rule="evenodd" d="M16.98 9a4.779 4.779 0 0 1-9.194 1.819A4.778 4.778 0 1 1 16.98 9Z" clip-rule="evenodd"/><path fill="#FFFFEF" fill-rule="evenodd" d="m10.624 11.861-.15-.086-.15.075.033-.169-.12-.127.17-.02.082-.15.07.158.166.03-.124.113.023.176Zm3.202.81-.146-.086-.15.075.03-.169-.116-.124.168-.018.08-.154.074.157.165.03-.127.117.022.172Zm-1.38-1.297-.127-.075-.132.067.03-.146-.105-.109.15-.015.068-.135.06.139.146.026-.112.101.022.147Zm3.24-.465-.127-.075-.132.067.03-.146-.1-.105.145-.015.068-.131.06.135.142.026-.108.097.022.147Zm-3.296-.972-.15-.082-.15.075.03-.173-.116-.123.168-.02.08-.153.074.158.165.03-.127.12.026.168Zm-3.95-1.48-.15-.083-.15.075.038-.173-.124-.124.172-.018.075-.154.075.157.165.03-.123.117.022.172Zm.476 1.972-.15-.087-.15.075.034-.168-.12-.124.169-.023.079-.15.075.158.165.03-.124.116.022.173Zm4.928-2.697-.135-.075-.135.068.03-.15-.105-.113.15-.018.071-.135.064.142.15.026-.113.102.023.153Zm-.274 1.283-.101-.06-.109.052.023-.12-.083-.086.12-.015.056-.105.05.113.112.018-.083.083.015.12Zm-5.347 1.77-.102-.056-.1.048.022-.112-.08-.083.113-.015.053-.1.049.104.112.023-.086.075.019.116Zm7.488.457-.082-.04-.083.037.02-.087-.065-.06.09-.01.045-.076.038.075.094.019-.072.056" clip-rule="evenodd"/><path fill="#FFFFEF" fill-rule="evenodd" d="m8.224 10.786-.102-.057-.1.049.022-.113-.08-.082.113-.015.053-.101.049.105.112.022-.086.075" clip-rule="evenodd"/><path fill="#FFFFEF" fill-rule="evenodd" d="m8.224 10.785-.102-.056-.1.048.022-.112-.08-.083.113-.015.053-.1.049.104.112.023-.086.075.019.116Zm1.567-.004-.097-.052-.102.048.023-.112-.079-.083.113-.015.052-.1.049.104.112.019-.086.079.015.112Zm-.195.525L9.5 11.25l-.102.052.023-.112-.079-.086.113-.015.052-.102.049.105.112.023-.086.075.015.116Zm3.263-.949-.098-.06-.105.053.023-.113-.075-.086.112-.011.053-.101.045.105.112.018-.082.08.015.115Zm-.957-.003-.1-.057-.102.053.022-.113-.075-.086.113-.011.052-.105.045.109.113.018-.083.08.015.112Zm-2.595-.33-.063-.038-.064.03.015-.071-.049-.053.071-.007.03-.064.03.068.072.01-.053.05.011.075Zm6.282 1.627-.098-.056-.101.052.022-.112-.078-.086.112-.015.053-.102.048.105.113.023-.086.075.015.116Zm-.795.109-.083-.053-.086.045.019-.097-.064-.068.094-.01.045-.087.037.09.094.015-.071.067.015.098Zm.375-.011-.075-.045-.08.037.016-.086-.06-.064.086-.011.041-.075.038.075.086.019-.064.06.012.09Zm1.08-.945-.075-.038-.075.038.018-.087-.06-.063.087-.012.037-.075.038.08.078.014-.06.06.012.083Zm-1.467 1.485-.093-.053-.102.045.023-.105-.075-.075.112-.011.05-.094.044.098.113.018-.087.072.015.105Zm.008.427-.09-.052-.09.048.022-.105-.07-.075.1-.015.045-.093.042.097.1.019-.074.075.015.101Zm-.728-.967-.07-.045-.076.037.015-.082-.056-.064.082-.008.038-.075.037.075.083.015-.06.06.007.087Zm-.675 0-.075-.045-.075.037.02-.082-.06-.064.085-.008.038-.075.037.075.08.015-.06.06.01.087Zm-1.15-1.01-.076-.04-.075.037.019-.086-.06-.06.082-.011.038-.075.037.075.083.018-.06.057.011.086Zm.127 2.052-.06-.034-.068.034.015-.075-.049-.052.072-.008.033-.064.03.068.072.011-.053.049.008.071Zm-1.74-3.319-.15-.086-.15.075.033-.169-.12-.123.17-.023.082-.15.07.158.166.03-.124.116" clip-rule="evenodd"/><path fill="#fff" fill-rule="evenodd" d="M16.665 10.717a4.54 4.54 0 0 0 .217-.742C14.34 7.744 11.51 6.6 7.931 6.836a4.67 4.67 0 0 0-.319.784 11.448 11.448 0 0 1 9.053 3.097Z" clip-rule="evenodd"/><path fill="#309E3A" d="m15.525 9.465.086.049a.127.127 0 0 0-.011.082.11.11 0 0 0 .052.064c.026.019.053.03.075.026a.059.059 0 0 0 .049-.026.049.049 0 0 0 .007-.034.086.086 0 0 0-.018-.037.457.457 0 0 0-.057-.068.287.287 0 0 1-.067-.112.138.138 0 0 1 .075-.165.142.142 0 0 1 .086-.008.262.262 0 0 1 .098.045c.052.038.086.075.097.12a.153.153 0 0 1-.022.124l-.09-.056c.01-.023.015-.045.007-.064-.004-.019-.019-.037-.045-.052a.12.12 0 0 0-.067-.027.037.037 0 0 0-.034.02c-.008.01-.008.022-.004.037a.231.231 0 0 0 .06.082c.038.038.06.071.075.094a.146.146 0 0 1-.011.157.154.154 0 0 1-.071.057.15.15 0 0 1-.09.01.291.291 0 0 1-.105-.048c-.057-.037-.09-.079-.102-.124a.202.202 0 0 1 .023-.15l.004.004Zm-.435-.285.093.049a.127.127 0 0 0-.007.082c.01.026.028.047.052.06.03.02.053.027.075.023.023 0 .038-.011.05-.03a.048.048 0 0 0 .007-.03c0-.011-.008-.026-.02-.038a1.283 1.283 0 0 0-.06-.067c-.04-.041-.067-.075-.074-.105a.138.138 0 0 1 .015-.116.142.142 0 0 1 .143-.064.263.263 0 0 1 .097.037c.056.038.09.075.101.117a.153.153 0 0 1-.015.127l-.094-.052c.012-.027.015-.045.008-.064a.107.107 0 0 0-.049-.053.12.12 0 0 0-.071-.022.038.038 0 0 0-.03.019c-.008.01-.008.022-.004.037a.263.263 0 0 0 .064.083.423.423 0 0 1 .075.09.146.146 0 0 1 0 .157.158.158 0 0 1-.068.06.15.15 0 0 1-.09.011.3.3 0 0 1-.108-.04.225.225 0 0 1-.105-.12.203.203 0 0 1 .015-.15Zm-.533-.142.274-.45.33.206-.045.075-.24-.15-.06.101.225.139-.049.075-.225-.139-.075.124.251.15-.045.075-.337-.206h-.004Zm-.776-.638.041-.075.203.101-.094.188c-.03.007-.068.011-.113.007a.353.353 0 0 1-.123-.037.29.29 0 0 1-.113-.098.225.225 0 0 1-.037-.13.324.324 0 0 1 .135-.252.233.233 0 0 1 .135-.041c.037 0 .075.01.12.037.06.026.097.064.116.105.02.041.023.088.011.131l-.101-.03a.113.113 0 0 0-.008-.075c-.01-.022-.03-.037-.06-.052a.143.143 0 0 0-.116-.011c-.037.01-.071.045-.097.097-.027.053-.038.101-.027.143a.14.14 0 0 0 .075.09.126.126 0 0 0 .064.018.225.225 0 0 0 .068 0l.03-.06-.11-.056Zm-3.383-.836.075-.525.158.026.041.368.146-.338.158.023-.075.517-.101-.015.063-.409-.165.394-.1-.015-.042-.424-.06.413-.098-.015ZM9.87 7.5l.048-.525.387.038-.008.09-.281-.027-.011.113.262.026-.011.09-.263-.026-.01.142.292.027-.008.09L9.87 7.5Zm-1.75-.326a.35.35 0 0 1 .025-.135.251.251 0 0 1 .12-.116.393.393 0 0 1 .113-.019c.079 0 .139.03.187.075a.277.277 0 0 1 .06.207c0 .082-.026.15-.075.198a.244.244 0 0 1-.187.064.248.248 0 0 1-.18-.075.274.274 0 0 1-.064-.199Z"/><path fill="#F7FFFF" d="M8.228 7.174c0 .056.01.101.037.135.026.03.06.049.105.049a.131.131 0 0 0 .105-.041c.026-.03.038-.075.041-.139 0-.06-.007-.105-.037-.135a.131.131 0 0 0-.101-.049.135.135 0 0 0-.105.045c-.03.03-.042.075-.045.135Z"/><path fill="#309E3A" d="m8.737 7.444.008-.525h.225c.056 0 .094.007.12.019a.11.11 0 0 1 .06.048.155.155 0 0 1 .022.087c0 .036-.013.07-.037.097a.169.169 0 0 1-.101.045l.056.045a.424.424 0 0 1 .056.086l.064.105h-.128l-.075-.12-.052-.075a.079.079 0 0 0-.034-.022.187.187 0 0 0-.052-.008h-.023v.218h-.109Z"/><path fill="#fff" d="M8.85 7.144h.075c.052 0 .086 0 .097-.008.011 0 .023-.011.03-.018.008-.008.011-.027.011-.038 0-.022-.003-.037-.015-.045-.007-.011-.022-.019-.037-.022h-.075l-.086-.004v.135Z"/><path fill="#309E3A" d="m9.338 6.945.195.011a.33.33 0 0 1 .097.011c.03.01.055.029.075.053a.225.225 0 0 1 .045.09.317.317 0 0 1 .012.124.349.349 0 0 1-.02.112.23.23 0 0 1-.063.09.187.187 0 0 1-.075.038c-.022.007-.056.007-.094.007l-.198-.011.026-.525Z"/><path fill="#fff" d="m9.44 7.039-.02.348h.143a.062.062 0 0 0 .045-.018.12.12 0 0 0 .03-.05.313.313 0 0 0 .015-.097l-.004-.093a.12.12 0 0 0-.03-.053.101.101 0 0 0-.045-.026.488.488 0 0 0-.086-.011h-.049Z"/><path fill="#309E3A" d="m11.91 7.883.124-.51.165.038.12.037a.127.127 0 0 1 .06.071c.015.03.015.064.007.105a.157.157 0 0 1-.037.075.146.146 0 0 1-.113.053.574.574 0 0 1-.112-.019l-.064-.019-.045.195-.105-.026Z"/><path fill="#fff" d="m12.113 7.485-.03.143.056.015c.037.007.067.015.082.011a.07.07 0 0 0 .06-.056c0-.019 0-.034-.007-.049a.075.075 0 0 0-.038-.034l-.071-.018-.049-.012h-.003Z"/><path fill="#309E3A" d="m12.398 8.028.176-.495.206.075c.056.019.09.038.113.053a.11.11 0 0 1 .037.067c.004.03.008.056 0 .086a.166.166 0 0 1-.067.083.182.182 0 0 1-.113.011.2.2 0 0 1 .037.06l.03.101.023.117-.116-.042-.038-.135a.74.74 0 0 0-.026-.09.08.08 0 0 0-.023-.03c-.007-.01-.022-.018-.048-.026l-.019-.007-.075.21-.097-.038Z"/><path fill="#fff" d="m12.6 7.777.07.026a.325.325 0 0 0 .094.026c.012 0 .023 0 .034-.011a.055.055 0 0 0 .023-.034.048.048 0 0 0 0-.045.064.064 0 0 0-.03-.034l-.075-.026-.075-.026-.045.124h.004Z"/><path fill="#309E3A" d="M13.012 8.01a.337.337 0 0 1 .064-.12.246.246 0 0 1 .067-.057.224.224 0 0 1 .075-.026c.038 0 .075 0 .117.015a.243.243 0 0 1 .157.124c.03.06.03.131.007.214a.278.278 0 0 1-.127.168.233.233 0 0 1-.195.015.247.247 0 0 1-.157-.123.274.274 0 0 1-.008-.21Z"/><path fill="#fff" d="M13.117 8.04c-.015.056-.019.105 0 .142.019.038.045.06.086.075a.135.135 0 0 0 .113-.015c.037-.019.06-.06.079-.12.019-.056.019-.101 0-.139a.13.13 0 0 0-.083-.075.135.135 0 0 0-.112.012c-.038.022-.064.06-.083.12Z"/><path fill="#309E3A" d="m14.037 8.74.24-.464.198.101a.374.374 0 0 1 .102.071c.018.02.03.042.03.072 0 .03 0 .056-.015.082a.143.143 0 0 1-.075.075.207.207 0 0 1-.117-.007c.015.022.023.045.03.063a.493.493 0 0 1 .015.105l.008.12-.113-.056-.015-.139a.757.757 0 0 0-.01-.093.074.074 0 0 0-.02-.038l-.045-.026-.018-.011-.102.195-.093-.05Z"/><path fill="#fff" d="m14.269 8.52.071.037a.347.347 0 0 0 .087.038c.01 0 .026 0 .037-.008.011-.003.019-.015.026-.03a.065.065 0 0 0 .008-.045.075.075 0 0 0-.026-.037.87.87 0 0 0-.068-.038l-.075-.037-.06.12Z"/><path fill="#309E3A" d="M15.979 9.701a.334.334 0 0 1 .093-.097.247.247 0 0 1 .083-.034.206.206 0 0 1 .082 0 .288.288 0 0 1 .105.045.248.248 0 0 1 .113.165.295.295 0 0 1-.053.206.274.274 0 0 1-.169.124.245.245 0 0 1-.195-.041.248.248 0 0 1-.112-.165.278.278 0 0 1 .053-.203Z"/><path fill="#fff" d="M16.073 9.762c-.038.048-.049.093-.041.135a.135.135 0 0 0 .06.093.126.126 0 0 0 .112.023.199.199 0 0 0 .109-.09c.034-.053.049-.098.041-.135a.144.144 0 0 0-.06-.098.122.122 0 0 0-.113-.018c-.037.007-.075.037-.112.09h.004Z"/><path fill="#309E3A" d="m11.318 7.669.086-.368.27.064-.011.06-.199-.045-.019.083.184.04-.015.065-.184-.045-.022.1.206.05-.015.06-.281-.064Z"/></g><defs><clipPath id="a"><path fill="#fff" d="M0 0h24v18H0z"/></clipPath></defs></svg>