<svg xmlns="http://www.w3.org/2000/svg" width="24" height="18" fill="none"><g fill-rule="evenodd" clip-path="url(#a)" clip-rule="evenodd"><path fill="#B20000" d="M0 0h36.004v11.957H0V0Z"/><path fill="#429F00" d="M0 11.957h36.004V18H0v-6.043Z"/><path fill="#fff" d="M0 0h3.987v18H0V0Z"/><path fill="#B20000" d="M.19.306h.19v.306H.19V.306Zm.569 0h.57v.306h-.57V.306ZM.949 0h.19v.306h-.19V0Zm.95 0h.19v.306h-.19V0Zm.759.306h.57v.306h-.57V.306ZM2.848 0h.19v.306h-.19V0ZM.569.612h.38v.302h-.38V.612Zm.57 0h.38v.302h-.38V.612Zm1.329 0h.38v.302h-.38V.612Zm.57 0h.38v.302h-.38V.612ZM.378.914h.38v.306h-.38V.914Zm.95 0h.38v.306h-.38V.914Zm.949 0h.38v.306h-.38V.914Zm.95 0h.379v.306h-.38V.914Zm.379-.608h.19v.306h-.19V.306ZM.189 1.22h.38v.306H.19V1.22Zm1.33 0h.38v.306h-.38V1.22Zm1.898 0h.38v.306h-.38V1.22ZM.38 2.134h.38v.306H.38v-.306Zm.19.306h.38v.306H.57V2.44Zm.76-.302h.38v.302h-.38v-.302Zm-.19.302h.38v.306h-.38V2.44Zm-.38.306h.57v.306H.76v-.306Zm.19.306h.19v.306H.95v-.306Zm1.328-.914h.38v.302h-.38v-.302Zm.19.302h.38v.306h-.38V2.44Zm.76-.302h.38v.302h-.38v-.302Zm-.19.302h.38v.306h-.38V2.44Zm-.38.306h.57v.306h-.57v-.306Zm.19.306h.19v.306h-.19v-.306Zm-.95-.31h.19v.306h-.19v-.306ZM0 2.742h.19v.306H0v-.306Zm3.797 0h.19v.306h-.19v-.306ZM.95 4.268h.19v.306H.95v-.306Zm-.19.31h.57v.302H.76v-.302Zm-.19.302h.95v.306H.57V4.88Zm2.279-.608h.19v.306h-.19v-.306Zm-.19.306h.57v.302h-.57v-.302Zm-.19.302h.95v.306h-.95V4.88Zm.19 1.526h.95v.306h-.95v-.306Zm-.38-1.22h1.33v.306h-1.33v-.306Zm-1.898 0H1.71v.306H.379v-.306Zm.19 1.526h.57v.305H.57v-.305Zm-.19-.306h.949v.306H.38v-.306ZM3.038 5.8h.95v.306h-.95V5.8Zm-.19.914h.57v.306h-.57v-.306Z"/><path fill="#B20000" d="M.76 7.017h.19v.306H.76v-.306Zm2.278 0h.19v.306h-.19v-.306ZM0 5.797h.95v.306H0v-.306Zm1.709.608h.57v.306h-.57v-.306Zm.19.31h.19v.306h-.19v-.306Zm-.57-.914h1.33v.305h-1.33v-.305Zm.76-4.581h.38v.306h-.38V1.22Zm-.38.306h.57v.305h-.57v-.305Zm-.19.305h.38v.303h-.38V1.83Zm.57 0h.38v.303h-.38V1.83ZM0 1.526h.38v.305H0v-.305Zm.19.305h.38v.303H.19V1.83Zm3.417-.305h.38v.302h-.38v-.302Zm-.19.302h.38v.302h-.38v-.302ZM0 4.57h.19v.306H0V4.57Zm3.797 0h.19v.306h-.19V4.57ZM1.71 7.013h.57v.306h-.57v-.306Zm-.19.306h.38v.303h-.38v-.303Zm.57 0h.38v.303h-.38v-.303Zm-.76.303h.38v.306h-.38v-.306Zm.95 0h.38v.306h-.38v-.306Zm-1.14.306h.38v.305h-.38v-.305Zm1.33 0h.379v.305h-.38v-.305Zm-1.52.309h.38v.306H.95v-.306Zm1.71 0h.379v.306h-.38v-.306Zm-2.09.306h.57v.306H.57v-.306Zm2.279 0h.57v.306h-.57v-.306Zm.38-.306h.38v.306h-.38v-.306Zm.19-.306h.38v.306h-.38V7.93Zm.19-.306h.38v.306h-.38v-.306ZM.38 8.237h.38v.306H.38v-.306ZM.19 7.93h.38v.306H.19V7.93ZM0 7.63h.38v.306H0V7.63Zm.76 1.223h.19v.302H.76v-.302Zm2.278 0h.19v.302h-.19v-.302Zm-1.14-.914h.19v.302h-.19v-.302Zm-.569.914h.19v.302h-.19v-.302Zm1.14 0h.19v.302h-.19v-.302Zm-.57 0h.19v.302h-.19v-.302ZM0 8.852h.19v.302H0v-.302Zm3.797 0h.19v.302h-.19v-.302ZM1.9 4.577h.19v.302H1.9v-.302ZM.95 1.526h.19v.305H.95v-.305Zm1.899 0h.19v.305h-.19v-.305ZM1.708 3.66h.57v.305h-.57V3.66Zm-.379.305h.57v.306h-.57v-.306Zm.19.306h.19v.306h-.19v-.306Zm-.38-.611h.38v.305h-.38V3.66Zm.19-.303h.57v.303h-.57v-.303Zm.19-.306h.19v.306h-.19v-.306Zm.57.306h.57v.303h-.57v-.303Zm.19-.306h.19v.306h-.19v-.306Zm.19.609h.379v.305h-.38V3.66Zm-.38.305h.57v.306h-.57v-.306Zm.19.306h.19v.306h-.19v-.306Zm.759-.611h.38v.305h-.38V3.66Zm.19-.303h.57v.303h-.57v-.303Zm.38.303h.38v.305h-.38V3.66Zm-.38.305h.57v.306h-.57v-.306Zm.19.306h.19v.306h-.19v-.306Zm0-1.22h.19v.306h-.19v-.306ZM0 3.656h.38v.306H0v-.306Zm.19-.302h.57v.302H.19v-.302Zm.38.302h.38v.306H.57v-.306Zm-.38.306h.57v.306H.19v-.306Z"/><path fill="#B20000" d="M.38 4.272h.19v.306H.38v-.306Zm0-1.22h.19v.306H.38v-.306Zm-.19 2.44h.76v.305H.19v-.305Zm.95 0h.759v.305h-.76v-.305Zm.948 0h.76v.305h-.76v-.305Zm.95 0h.76v.305h-.76v-.305Zm-1.52.611h.95v.303h-.95v-.303Zm-1.328 0h.95v.303H.19v-.303Zm2.658 0h.95v.303h-.95v-.303Zm.95 1.22h.19v.303h-.19v-.303ZM0 7.323h.19v.303H0v-.303Zm.19 10.371h.19v-.302H.19v.302Zm.57 0h.57v-.302H.76v.302ZM.95 18h.19v-.306H.95V18Zm.949 0h.19v-.306h-.19V18Zm.76-.306h.569v-.305h-.57v.305Zm.189.306h.19v-.306h-.19V18ZM.57 17.39h.38v-.303H.57v.303Zm.57 0h.379v-.303h-.38v.303Zm1.328 0h.38v-.303h-.38v.303Zm.57 0h.38v-.303h-.38v.303Zm-1.709-.303h.38v-.306h-.38v.306Zm.95 0h.38v-.306h-.38v.306Zm.949 0h.38v-.306h-.38v.306Zm.38.608h.19v-.305h-.19v.305ZM.19 16.78h.38v-.306H.19v.306Zm1.329 0h.38v-.306h-.38v.306Zm1.899 0h.38v-.306h-.38v.306ZM.38 15.866h.38v-.306H.38v.306Zm.19-.306h.38v-.306H.57v.306Zm.76.306h.379v-.306h-.38v.306Zm-.19-.306h.379v-.306h-.38v.306Zm-.38-.306h.57v-.305H.76v.306Zm.19-.305h.19v-.303H.95v.303Zm1.328.914h.38v-.303h-.38v.303Zm.19-.303h.38v-.306h-.38v.306Zm.76.306h.38v-.306h-.38v.306Zm-.19-.306h.38v-.306h-.38v.306Zm-.38-.306h.57v-.305h-.57v.306Zm.19-.305h.19v-.303h-.19v.303Zm-.95.309h.19v-.306h-.19v.306Zm-1.898 0h.19v-.306H0v.306Zm3.797 0h.19v-.306h-.19v.306ZM.95 13.732h.19v-.306H.95v.306Zm-.19-.31h.57v-.302H.76v.303Zm-.19-.302h.95v-.305H.57v.306Zm2.279.609h.19v-.306h-.19v.306Z"/><path fill="#B20000" d="M2.658 13.423h.57v-.303h-.57v.303Zm-.19-.303h.95v-.306h-.95v.306Zm.19-1.526h.95v-.309h-.95v.31Zm-.38 1.22h1.33v-.306h-1.33v.306Zm-1.898 0h1.329v-.306H.379v.306Zm.19-1.525h.57v-.306H.57v.306Zm-.19.305h.949v-.309H.38v.31Zm2.658.605h.95v-.306h-.95v.306Zm-.19-.914h.57v-.306h-.57v.306ZM0 12.2h.95v-.306H0v.306Zm1.709-.608h.57v-.306h-.57v.306Zm.19-.306h.19v-.306h-.19v.306Zm-.57.914h1.33v-.306h-1.33v.306Zm.76 4.577h.38v-.305h-.38v.305Zm-.38-.305h.57v-.3h-.57v.3Zm-.19-.306h.38v-.306h-.38v.306Zm.57 0h.38v-.306h-.38v.306ZM0 16.475h.38v-.303H0v.302Zm.19-.307h.38v-.302H.19v.302Zm3.417.306h.38v-.302h-.38v.302Zm-.19-.306h.38v-.302h-.38v.302ZM0 13.43h.19v-.306H0v.306Zm3.797 0h.19v-.306h-.19v.306ZM1.52 10.68h.38v-.302h-.38v.302Zm.57 0h.38v-.302h-.38v.302Zm-.76-.302h.38v-.306h-.38v.306Zm.95 0h.38v-.306h-.38v.306Zm-1.14-.306h.38v-.306h-.38v.306Zm1.33 0h.379v-.306h-.38v.306Zm-1.52-.31h.38v-.305H.95v.306Zm1.71 0h.379v-.305h-.38v.306ZM.57 9.457h.57V9.15H.57v.306Zm2.279 0h.57V9.15h-.57v.306Zm.38.306h.38v-.306h-.38v.306Zm.19.306h.38v-.306h-.38v.306Zm.19.305h.38v-.305h-.38v.305ZM.38 9.763h.38v-.306H.38v.306Zm-.19.306h.38v-.306H.19v.306ZM0 10.37h.38v-.306H0v.306Zm.76-1.223h.19v-.303H.76v.303Zm1.139.914h.19v-.303h-.19v.303Zm0 3.357h.19v-.302h-.19v.302Zm-.95 3.052h.19v-.3H.95v.3Zm1.899 0h.19v-.3h-.19v.3Zm-1.14-2.127h.57v-.306h-.57v.306Zm-.379-.306h.57v-.306h-.57v.306Zm.19-.306h.19v-.306h-.19v.306Zm-.38.612h.38v-.306h-.38v.306Zm.19.299h.57v-.3h-.57v.3Zm.19.305h.19v-.302h-.19v.302Zm.57-.306h.57v-.298h-.57v.299Zm.19.306h.19v-.302h-.19v.302Zm.19-.608h.379v-.306h-.38v.306Zm-.38-.306h.57v-.306h-.57v.306Zm.19-.306h.19v-.305h-.19v.305Zm.759.616h.38v-.306h-.38v.306Zm.19.299h.57v-.3h-.57v.3Zm.38-.303h.38v-.306h-.38v.306Zm-.38-.306h.57v-.306h-.57v.306Zm.19-.306h.19v-.305h-.19v.305Zm0 1.22h.19v-.302h-.19v.302ZM0 14.344h.38v-.306H0v.306Zm.19.299h.57v-.3H.19v.3Z"/><path fill="#B20000" d="M.57 14.34h.38v-.306H.57v.306Zm-.38-.306h.57v-.306H.19v.306Zm.19-.306h.19v-.305H.38v.306Zm0 1.22h.19v-.302H.38v.302Zm-.19-2.44h.76v-.305H.19v.306Zm.95 0h.759v-.305h-.76v.306Zm.948 0h.76v-.305h-.76v.306Zm.95 0h.76v-.305h-.76v.306Zm-1.52-.611h.95v-.303h-.95v.303Zm-1.328 0h.95v-.303H.19v.303Zm2.658 0h.95v-.303h-.95v.303Zm.95-1.216h.19v-.31h-.19v.31ZM0 10.68h.19v-.31H0v.31Zm1.709-1.53h.19v.306h-.19V9.15Zm.38 0h.19v.306h-.19V9.15Zm0-.608h.19v.306h-.19v-.306Zm-.38 0h.19v.306h-.19v-.306ZM.379 16.78h.38v.306H.38v-.306Zm2.659-5.797h.19v-.306h-.19v.306Zm-2.279 0h.19v-.306H.76v.306Zm.95-.306h.57v.306h-.57v-.306Z"/></g><defs><clipPath id="a"><path fill="#fff" d="M0 0h24v18H0z"/></clipPath></defs></svg>