<svg xmlns="http://www.w3.org/2000/svg" width="24" height="18" fill="none"><g clip-path="url(#a)"><path fill="#fff" d="M5.63 0h12.737v18H5.63V0Z"/><path fill="#D52B1E" d="M-.736 0H5.63v18H-.736V0Zm19.104 0h6.366v18h-6.363l-.003-18ZM7.539 8.698l-.499.168 2.303 2.022c.176.517-.06.668-.211.942l2.496-.316-.06 2.513.52-.014-.115-2.496 2.503.299c-.155-.327-.292-.5-.151-1.02l2.299-1.916-.401-.147c-.33-.253.14-1.22.211-1.832 0 0-1.34.46-1.427.218l-.345-.657-1.22 1.343c-.133.031-.19-.021-.221-.134l.562-2.805-.893.502c-.074.036-.147.007-.197-.08l-.861-1.723-.886 1.79c-.067.063-.133.07-.19.027l-.85-.478.513 2.781c-.042.113-.14.14-.253.081L8.995 6.441c-.151.246-.253.643-.457.734-.2.085-.879-.168-1.333-.267.155.56.64 1.487.334 1.793v-.003Z"/></g><defs><clipPath id="a"><path fill="#fff" d="M0 0h24v18H0z"/></clipPath></defs></svg>