<svg xmlns="http://www.w3.org/2000/svg" width="24" height="18" fill="none"><g clip-path="url(#a)"><path fill="green" d="M0 0h24v18H0V0Z"/><path fill="#FFE000" d="M12 11.502a2.501 2.501 0 1 0 0-5.003 2.501 2.501 0 0 0 0 5.003Z"/><path fill="green" d="M12.78 11.059a2.059 2.059 0 1 0 0-4.117 2.059 2.059 0 0 0 0 4.117Z"/><path fill="#FFE000" d="M4.117 9.116a2.618 2.618 0 1 0 0-5.235 2.618 2.618 0 0 0 0 5.235Z"/><path fill="#802000" d="M3.938 8.475h.656s.026-.06-.008-.09c-.037-.03-.176-.038-.139-.143.075-.217.09-.15.14-.667.035-.443.06-.887.074-1.331h-.097s.018.25-.038.58c-.052.33-.071.357-.131.612a2.38 2.38 0 0 1-.124.42c-.052.15-.06.154-.142.293-.086.135-.056.082-.101.165-.027.04-.053.03-.072.06-.015.03-.018.1-.018.1Z"/><path fill="#7B3100" fill-rule="evenodd" d="M4.533 6.216h.157v.029c-.015.445-.04.889-.076 1.332a3.22 3.22 0 0 1-.06.451.805.805 0 0 1-.04.117 2.318 2.318 0 0 0-.04.107c-.008.02-.005.032-.001.04a.067.067 0 0 0 .029.025c.014.008.03.014.047.02l.004.002c.017.006.037.013.05.024h.001v.001c.028.025.029.06.026.08a.164.164 0 0 1-.01.041v.001l-.026-.01.025.01-.007.017h-.675v-.028l-.028-.001V8.47a.63.63 0 0 1 .004-.038.246.246 0 0 1 .018-.07V8.36l.001-.001a.09.09 0 0 1 .041-.035l.003-.001a.058.058 0 0 0 .027-.023l.031-.057.07-.109.028-.046a1.53 1.53 0 0 0 .054-.094 1.17 1.17 0 0 0 .058-.147v-.001c.054-.134.095-.273.123-.415V7.43c.017-.072.03-.125.043-.173.03-.12.05-.2.088-.436a2.852 2.852 0 0 0 .038-.572v-.002l-.003-.031Zm.06.056a1.442 1.442 0 0 1 .001.14 2.905 2.905 0 0 1-.04.418c-.038.239-.059.32-.09.442l-.042.17a2.41 2.41 0 0 1-.125.424 1.22 1.22 0 0 1-.06.154 1.616 1.616 0 0 1-.084.143v.001c-.052.08-.062.094-.071.11l-.03.053v.001l-.001.001A.114.114 0 0 1 4 8.374c-.012.006-.015.008-.02.014a.212.212 0 0 0-.012.06h.605a.1.1 0 0 0 .002-.01c.001-.015-.001-.026-.007-.031a.163.163 0 0 0-.035-.016L4.53 8.39a.42.42 0 0 1-.054-.023.122.122 0 0 1-.052-.049.103.103 0 0 1-.002-.085l.04-.108.007-.016a.75.75 0 0 0 .031-.095c.019-.072.035-.182.059-.441.035-.433.06-.867.074-1.3h-.039Z" clip-rule="evenodd"/><path fill="green" d="M4.436 4.594a.863.863 0 0 1-.045.345.994.994 0 0 0-.086.367c-.067.023-.139-.146-.206-.045.049.139.165.248.24.372.015.037.127.138.06.16-.161-.056-.203-.262-.3-.386a.713.713 0 0 0-.581-.375c-.094.004-.39-.018-.315.14.112.074.255.127.367.213.086.008.236.15.229.203-.15-.06-.218-.132-.375-.196-.218-.082-.514-.033-.638.18-.018.057-.052.218.02.237.082-.128.198-.274.37-.233.135.012-.15.252-.04.203.037-.015.112-.068.172-.075.056 0 .086.037.127.045.086.011.113.045.101.067-.007.023-.037 0-.123.03-.042.015-.064.053-.113.072a.38.38 0 0 1-.195 0c-.139-.057-.364-.05-.405.123 0 .075-.067-.007-.097.026-.027.083-.03.165-.15.158-.075.075-.15.158-.248.214.056.127.274-.128.263-.019-.094.131.052.158.112.056.109-.112.244-.251.401-.135.075.072.12-.037.177-.037.037.094.078.007.12-.019.063-.008.045.083.12.026.153-.101.34-.015.49-.112.162-.075.023.056-.018.109-.071.135-.011.315-.161.397-.064.161.071.375-.064.495-.019.075.173.068.225.098.098 0 0-.218.094-.248.127.075.12-.142.094-.21.015-.15.022-.322.097-.461.083-.169.158.071.068.139-.053.153-.128.352-.012.498.038.008.064.09.105.113.045.026.105-.004.113-.079.06-.225.03-.465.112-.686.057-.068.135-.011.17.052.112.132.19.293.325.402.128.052.232.15.293.273 0 .098.277.113.195 0-.079-.101-.026-.21.052-.281.045.011.034-.067 0-.037-.056-.012-.06-.113.015-.064.132.041-.007-.094-.056-.098-.109-.067-.232-.142-.285-.262.143 0 .289.079.431.034.117-.06.233 0 .274.105.09-.015.053-.106 0-.136.064-.026.113-.082.03-.13-.037-.053.056-.15-.064-.143.004-.094-.03-.176-.13-.21-.102-.083-.398.127-.387-.064-.03-.105.12-.015.161-.067.041-.113-.206-.098-.124-.188.053-.03.304-.079.11-.116a.311.311 0 0 1-.263-.042c-.072.117-.27-.067-.237.143-.026.079-.206.285-.255.127.038-.123.255-.16.188-.33-.011-.1-.098.02-.135.012-.023-.064.06-.143.12-.158.112.09.112-.112.225-.093.079-.02-.026-.053-.049-.068.023-.056.146-.086.026-.139-.108-.075-.187.079-.273.087-.083-.094.075-.14.12-.188.003-.038-.09-.011-.064-.045.026-.041.195-.045.112-.112a.551.551 0 0 0-.382.022c-.075.022-.094.188-.158.18-.026-.075.012-.218-.09-.236ZM5 6.18c.09-.015 0 .139-.038.135 0-.053-.135-.049-.048-.098A.274.274 0 0 1 5 6.18Z"/><path fill="#FFE000" d="m18.003 12.143.165.514.505-.191-.299.45.465.275-.538.047.074.535-.372-.392-.372.392.074-.535-.538-.047.464-.276-.299-.45.505.192.166-.514Zm-3.001-4.75.165.513.505-.19-.299.45.465.275-.538.046.073.535-.371-.391-.372.391.074-.535-.538-.047.464-.275-.299-.45.505.191.166-.513Zm3.001-3.25.165.513.505-.19-.299.45.465.275-.538.046.074.535-.372-.391-.372.391.074-.535-.538-.047.464-.275-.299-.45.505.191.166-.513Zm2.666 2.45.165.514.505-.192-.299.45.465.276-.538.047.074.535-.372-.392-.372.391.074-.534-.538-.047.464-.276-.299-.45.505.191.166-.513ZM19.202 9l.131.32.345.026-.265.223.083.336-.294-.182-.294.182.083-.335-.264-.224.345-.025.13-.32Z"/></g><defs><clipPath id="a"><path fill="#fff" d="M0 0h24v18H0z"/></clipPath></defs></svg>