<svg xmlns="http://www.w3.org/2000/svg" width="24" height="18" fill="none"><g clip-path="url(#a)"><path fill="#006" d="M0 0h24v18H0V0Z"/><path fill="#fff" fill-rule="evenodd" d="m17.685 7.987.195-.626-.525-.397.66-.008.225-.619.21.62.664.018-.53.394.188.626-.543-.375-.544.367Zm1.56.12.39-.52-.364-.556.626.218.413-.507v.66l.615.24-.63.188-.03.656-.383-.54-.637.161Zm-3.053.402-.026-.657-.63-.195.626-.232v-.653l.41.507.63-.21-.368.55.386.526-.638-.169-.39.533Zm-1.095 1-.277-.592-.653.068.48-.461-.247-.612.57.308.499-.443-.128.653.559.334-.649.093-.154.653Zm-.51 1.433-.498-.416-.563.345.24-.626-.484-.435.65.026.262-.615.16.645.646.056-.548.368.135.652Zm-.015 1.613-.618-.18-.38.544-.025-.672-.615-.206.603-.232v-.675l.402.528.615-.21-.36.563.378.54Zm.728 1.365-.638.09-.13.652-.293-.6-.642.06.458-.46-.266-.616.573.319.48-.443-.105.653.563.345ZM16.425 15l-.566.307.097.66-.476-.465-.585.285.274-.596-.462-.484.65.098.3-.581.127.652.64.124Zm1.376.214-.311.573.439.495-.653-.123-.334.562-.09-.649-.645-.15.593-.277-.064-.656.458.48.607-.255Zm1.545-.237-.019.653.612.24-.638.187-.045.657-.375-.537-.637.165.405-.52-.353-.552.623.214.427-.507Zm1.616-7.11.45.473.597-.278-.312.593.432.491-.638-.105-.337.581-.08-.66-.637-.13.59-.3-.065-.665ZM22.31 9.32l.206.622.656.011-.532.402.176.63-.529-.375-.547.378.202-.63-.517-.397.66-.015.225-.626Zm.506 1.87-.075.653.589.29-.65.134-.1.649-.327-.566-.652.108.45-.487-.304-.581.6.27.469-.47Zm-.356 1.962-.293.585.446.476-.652-.1-.315.573-.113-.649-.652-.124.585-.3-.086-.652.472.461.608-.27Zm-.975 1.736-.552.345.143.65-.506-.432-.563.322.236-.61-.49-.455.652.057.262-.6.165.645" clip-rule="evenodd"/><path fill="#006" d="M0 0h12v9H0V0Z"/><path fill="#fff" d="m1.406 0 4.575 3.394L10.537 0H12v1.163L7.5 4.518 12 7.856V9h-1.5L6 5.644 1.519 9H0V7.875l4.481-3.338L0 1.2V0h1.406Z"/><path fill="#C8102E" d="M7.95 5.269 12 8.25V9L6.919 5.269H7.95Zm-3.45.375.112.656-3.6 2.7H0l4.5-3.356ZM12 0v.056L7.331 3.581l.038-.825L11.063 0H12ZM0 0l4.481 3.3H3.356L0 .788V0Z"/><path fill="#fff" d="M4.519 0v9h3V0h-3ZM0 3v3h12V3H0Z"/><path fill="#C8102E" d="M0 3.619v1.8h12v-1.8H0ZM5.119 0v9h1.8V0h-1.8Z"/></g><defs><clipPath id="a"><path fill="#fff" d="M0 0h24v18H0z"/></clipPath></defs></svg>