<svg xmlns="http://www.w3.org/2000/svg" width="24" height="18" fill="none"><g clip-path="url(#a)"><path fill="#DE2910" d="M0 0h24v18H0V0Z"/><path fill="#FFDE00" d="M2.88 6.66 4.5 1.8l1.62 4.86L1.8 3.69h5.4L2.88 6.66Zm7.027-4.767-1.667.37L9.352.967l-.11 1.744-.925-1.544 1.59.726Zm1.683 2.133L9.91 3.72l1.527-.763-.777 1.565-.254-1.782 1.183 1.286Zm-.246 2.991-1.409-.964 1.706-.074-1.348 1.112.495-1.73.556 1.656ZM9.225 8.972l-.927-1.434 1.602.59-1.673.506 1.125-1.405-.127 1.743Z"/></g><defs><clipPath id="a"><path fill="#fff" d="M0 0h24v18H0z"/></clipPath></defs></svg>