<svg xmlns="http://www.w3.org/2000/svg" width="24" height="18" fill="none"><g fill-rule="evenodd" clip-path="url(#a)" clip-rule="evenodd"><path fill="#fff" d="M-.012 8.214h29.836v7.261H-.016l.004-7.261Z"/><path fill="#081873" d="M.01 0h29.82v9.045H.01V0Zm.01 13.603h30.036v4.445H.02v-4.445Z"/><path fill="#DE3929" d="M.02 10.666h29.82v1.396H.02v-1.396Z"/><path fill="#FFCE08" d="m8.956 14.072.232.72h.755l-.614.447.233.723-.606-.452-.614.448.236-.723-.613-.447h.758l.233-.716Zm6.556-5.245.236.723h.751l-.613.444.232.722-.613-.447-.613.447.232-.722-.613-.444h.761l.24-.723ZM7.447 11.82l.233.722h.757l-.61.452.237.719-.614-.444-.613.444.233-.72-.614-.447h.758l.233-.726Zm8.065-.205.236.72h.751l-.613.447.232.72-.613-.445-.613.448.232-.723-.613-.448h.761l.24-.719Zm-1.667-4.98.236.719h.761l-.613.447.233.723-.614-.448-.613.448.236-.723-.617-.447h.762l.229-.72Zm-2.503-.875.236.723h.758l-.613.444.232.723-.613-.445-.613.445.236-.723-.614-.444h.755l.236-.723Zm-2.51.825.236.723h.758l-.613.444.236.723-.617-.448-.613.448.236-.723-.613-.444h.761l.23-.723ZM7.376 8.831l.233.722h.761l-.616.444.236.723-.614-.448-.613.448.233-.723-.614-.444h.758l.236-.722Zm3.966 5.989.236.722h.758l-.613.444.236.723-.617-.448-.613.448.236-.723-.614-.444h.755l.236-.723Zm2.661-.748.233.72h.758l-.61.447.236.723-.613-.448-.617.448.236-.723-.613-.448h.758"/></g><defs><clipPath id="a"><path fill="#fff" d="M0 0h24v18H0z"/></clipPath></defs></svg>