<svg xmlns="http://www.w3.org/2000/svg" width="24" height="18" fill="none"><g clip-path="url(#a)"><path fill="#0021AD" d="M0 0h24v18H0V0Z"/><path fill="#1C8A42" d="M0 0h24v18L0 0Z"/><path fill="#FFC639" d="M12 11.168a2.167 2.167 0 1 0 0-4.335 2.167 2.167 0 0 0 0 4.335Z"/><path fill="#1C8A42" d="M10.676 8.025c.15.206.375.548.555.458.139 0 .214.01.233.105A1.388 1.388 0 0 0 12.7 8.05s.03 0 .019-.168c0-.075.105-.06.105-.038.015.038.015.064.034.068.037-.015.1-.113.15-.173.01-.026.003-.056.007-.09.026-.064.09-.049.105-.015l.023.06c.067.045.187 0 .195 0 .01-.052.045-.045.045-.045.045-.011.026-.007.056.008-.026.288.056.3.049.45.003.165-.05.21-.05.273.016.075.263.079.173.147-.075.037 0 .112-.112.142-.33.169-.39.311-.39.311s-.083.158-.094.158c-.056.105-.124.045-.165.097-.019.064-.037.207 0 .278.019.101 0 .157-.026.259-.023.21-.105.243-.116.315-.038.082.007.45-.03.45-.244.007-.432-.046-.53-.064.095-.409.057-.765.057-.803-.022-.292-.435-.221-.499-.262-.052-.008-.086-.049-.1-.068-.06-.007-.083-.022-.14-.026-.03.015-.01.03-.075.049-.168.019-.24-.143-.24-.143.008-.056-.37.012-.573-.037-.087.049-.124.187-.192.202 0 .042-.112-.037-.135-.075-.007-.127.105-.18.105-.18.09-.063.143-.075.188-.116.019-.109.007-.187.056-.266.038-.064.094-.038.131-.06.042-.03.06-.21.023-.263l-.176-.157c-.053-.154.063-.255.097-.244Z"/><path fill="#FFC639" d="M21.071 5.34c-.097-.387-.975-1.227-1.639-1.759-.157-.105-.262-.041-.24.112.083.135.143.285.226.424.022.094.067.158.09.248 0 0 .007.157.022.172.203.225.232.416.232.416.104.222.25.421.432.585.232.147.06.6.067.844 0 .15-.108.135-.206.113-.754-.694-1.504-.694-2.168-.897-.255-.026-.262.098-.176.165.414.46.911.838 1.466 1.11l.29.18.33.274c.254.165.273.315.273.33.008.308-.157.548-.206.645-.087.326-.263.383-.263.383-1.41.952-2.152 1.2-4.44.903-.037-.015-.255.02 0 .113.582.195 2.014.506 3.398-.15.337-.233.555-.158.799-.3a10.86 10.86 0 0 1 1.06-.578c.312-.168 1.175-.352 1.373-.517.229-.019.465-.049.48-.244.075-.049.188-.011.27-.172.18-.034.15-.098.15-.098-.045-.127-.217-.18-.337-.274-.18-.06-.3-.075-.431-.015l-.124.057s-.191-.027-.191-.042c-.428-.022-.387-1.436-.537-2.025V5.34Z"/><path fill="#1C8A42" d="M22.073 7.657a.05.05 0 0 1-.017.023.08.08 0 0 1-.03.014.127.127 0 0 1-.037.003.16.16 0 0 1-.077-.024.118.118 0 0 1-.028-.024.071.071 0 0 1-.015-.028.047.047 0 0 1 .001-.027c.006-.017.023-.03.046-.037a.145.145 0 0 1 .078.004c.027.009.05.024.065.042.015.018.02.037.014.054Z"/><path fill="#fff" d="m4.516 7.584-.307-.288-.31.283.034-.417-.415-.067.348-.236-.206-.364.4.127.156-.39.152.392.4-.12-.21.36.345.24-.415.06.028.418v.002Zm1.085 3.468-.33-.219-.322.23.115-.371-.327-.228.399-.01.12-.372.134.367.4-.002-.318.233.127.37.002.002Z"/></g><defs><clipPath id="a"><path fill="#fff" d="M0 0h24v18H0z"/></clipPath></defs></svg>