<svg xmlns="http://www.w3.org/2000/svg" width="24" height="18" fill="none"><g clip-path="url(#a)"><path fill="#fff" d="M0 0h24v18H0V0Z"/><path fill="#435125" d="M11.542 14.947a.028.028 0 0 1-.007-.007h-.004l-.049-.053-.142-.168-.184-.236-.022-.034-.233-.072-.172-.078.09-.101.315.13.232.05.431.318-.123.109a1.396 1.396 0 0 0-.124.131l.026-.018.03.022-.06.008h-.004Zm-1.597-.48a1.188 1.188 0 0 1-.6-.168s.026-.049.086-.09a.57.57 0 0 1 .338-.098c.202 0 .45.071.73.203-.167.099-.359.15-.554.15v.003Zm-.881-.194a.143.143 0 0 1-.098-.038.195.195 0 0 1-.041-.09.439.439 0 0 1-.011-.127.133.133 0 0 1 .048-.008c.075 0 .135.064.162.127.015.038.018.068.007.094-.007.023-.037.038-.067.038v.004Zm1.548-.18c-.52-.075-.742-.263-.836-.41-.097-.153-.075-.3-.075-.3s.03-.007.075-.007c.143 0 .495.072.836.713v.003Zm-1.068-.105c-.222 0-.39-.038-.503-.113a.311.311 0 0 1-.112-.124.203.203 0 0 1-.015-.06.682.682 0 0 1 .27-.052 1.012 1.012 0 0 1 .708.326 3.006 3.006 0 0 1-.348.023Zm-1.077-.038c-.232 0-.555-.075-.757-.274 0 0 .221-.056.465-.063h.045c.221 0 .39.04.502.127.038.03.06.056.064.082.004.023-.007.046-.03.064-.052.038-.142.06-.27.06h-.019v.004Zm-.76-.394a.098.098 0 0 1-.076-.037.177.177 0 0 1-.03-.075c-.011-.053-.007-.105-.007-.109a.091.091 0 0 1 .037-.008.1.1 0 0 1 .075.038c.023.02.04.046.053.075.007.034.01.06 0 .083 0 .014-.023.037-.05.037l-.003-.004Zm1.758-.037a.143.143 0 0 1-.098-.038.195.195 0 0 1-.04-.09.439.439 0 0 1-.012-.127.13.13 0 0 1 .049-.008c.075 0 .138.064.16.128.016.037.02.067.012.093-.011.023-.037.038-.075.038l.004.004Zm-.855-.038c-.473-.015-.72-.15-.84-.262a.546.546 0 0 1-.128-.162.243.243 0 0 1-.026-.075c0-.007.045-.014.113-.014h.015c.157 0 .483.067.862.513h.004Zm.51-.045a1.158 1.158 0 0 1-.709-.348.726.726 0 0 1-.154-.263s.045-.011.113-.015h.037c.188.004.537.09.713.626Zm-1.95-.187c-.12 0-.24-.012-.356-.038-.2-.052-.285-.127-.323-.184a.187.187 0 0 1-.03-.074.128.128 0 0 1 0-.03s.131-.038.315-.042a1.31 1.31 0 0 1 .278.023.82.82 0 0 1 .48.303s-.15.045-.364.045v-.003Zm.881-.315a.126.126 0 0 1-.094-.038.195.195 0 0 1-.04-.09c-.016-.06-.012-.12-.012-.127a.132.132 0 0 1 .045-.011h.004c.075 0 .135.067.16.13a.13.13 0 0 1 .008.09c-.01.027-.037.042-.07.042v.004Zm-.66-.094a1.445 1.445 0 0 1-.36-.158c-.165-.1-.371-.28-.394-.562l.038-.004h.011c.049 0 .15.011.274.105.157.12.3.33.431.619Zm.431-.015a1.166 1.166 0 0 1-.285-.184 1.81 1.81 0 0 1-.498-.697s.033-.019.086-.023h.022c.075 0 .184.034.304.165.143.15.266.398.375.739h-.004Zm-1.12-.034c-.147 0-.196-.075-.21-.112a.225.225 0 0 1-.016-.113.315.315 0 0 1 .075-.007.299.299 0 0 1 .244.112c.007.015.03.053.011.087-.015.022-.049.037-.105.037v-.004Zm-.32-.405a1.917 1.917 0 0 1-.337-.026c-.128-.022-.199-.131-.24-.221-.038-.094-.053-.188-.053-.188.398.011.59.128.675.225a.352.352 0 0 1 .098.207s-.06.007-.143.007v-.004Zm.413-.412a1.604 1.604 0 0 1-.09-.128c-.049-.075-.09-.15-.09-.21 0-.063-.015-.187-.023-.262l-.022-.169c.011 0 .247.09.247.315s-.022.45-.022.45v.004Zm-.308-.023H6.48a1.64 1.64 0 0 1-.683-.405.615.615 0 0 1-.116-.352c-.007-.113 0-.207 0-.218a.125.125 0 0 1 .041-.004c.053 0 .113.023.188.075.07.05.135.105.195.165.12.12.214.24.214.24.01.015.075.14.13.26a.824.824 0 0 1 .06.172c.005.022.008.037 0 .052a.027.027 0 0 1-.01.015.035.035 0 0 1-.015 0h.003Z"/><path fill="#D47600" d="m19.463 2.865-.068.026-.03.011-.082-.004-.083.038-.142.098-.004.003-.056.015-.049-.022-.026.015-.011.056-.027.041-.034.023-.112.011-.094.052-.127-.037-.056.026-.124.113-.064.026h-.019l-.086-.004-.034.012-.052.048-.098.008-.034.022-.048.098-.053.06-.03.003-.03-.01-.026.003-.011.064-.023.026-.067.022-.053.045-.049.023h-.075l-.063.038-.116.007-.05.045-.01.011-.023.012-.038.022-.007.007-.045-.007-.053.019-.022-.03-.038.018-.044.004-.06-.026-.05-.022-.033.007-.011.056v.008l-.038.045-.064.041-.007.011-.075.098-.142.15-.12.06-.124.037-.087.072-.225.112-.363.18-.075.022-.105.016-.188.07-.165.05-.011.003-.03.011-.236.072-.109-.015-.064.026-.168-.019h-.117l-.075.015-.138.068-.237.112-.075.075-.12.06-.142.045v-.06l-.049.015-.037.011-.113.015h-.064l-.041-.01h-.008l-.232.078-.262.026-.132.042h-.097l-.06.018-.12.015-.045-.011-.008-.004-.352.015-.162-.018-.075.018-.13-.045-.188-.022-.045-.011-.098-.03-.045.026-.037.004-.075-.03h-.03l-.068.022-.037-.008-.038-.03-.079-.01-.052-.042-.281.037-.075-.022-.259-.075h-.037l-.053.038-.075.03-.071.014-.09.004-.105-.026-.105-.053-.041-.01-.09.01h-.027l-.165-.086-.21-.131-.142-.071-.056-.008-.008.026.026.083.012.086v.075l-.004.049.011.041.053.06.022.056.015.158v.161l-.026.255-.008.038-.03.135-.026.123-.109.327-.026.037-.075.049-.161.112-.12.068-.038.015-.097.008h-.06l-.075-.042-.075-.019-.098-.07-.105-.023-.12-.068-.03-.037-.063-.008-.09-.026-.034-.011L7.5 6.64l-.112-.004-.109-.048-.056-.016h-.075l-.079.038-.041.015-.053-.019h-.037L6.9 6.67l-.007.011-.03.015h-.064l-.03.011-.041.02-.038.014-.018.008H6.66l-.018.007h-.023l-.045-.022-.022-.012-.038-.007-.019.011-.003.071-.02.042-.06.052-.06.053-.037.06-.112.251-.071.101-.02.026-.074.08-.064.048-.146.112-.139.057-.12.022h-.06l-.112-.015-.098-.03-.112-.067-.117-.098-.176-.168-.022-.015-.008-.004-.052-.038H4.77l-.015.03-.011.038-.007.034-.02.187v.011l.012.079.135.188.038.097.007.011.026.045.023.038.049.135-.034.075.015.052-.038.03-.007.045.116.15.026.064-.026.09-.049.053-.011.01.008.038.052.053.094.082.049.12.037.038.045-.011.023.018h.037l.038.038.022.007.038.019.03.037.003.12.057.143v.094l.037.056.008.045-.02.124.046.037.045-.007.03.004.049.04.06.09.06-.007.037.015.176.162.038.022.034.015.037.037.053-.037h.007l.06-.008.026.02.053.033h.064l.15.045.06.015.127.079.056.034.03.026.045.037.083.038.075.015.037.007.034.011.158.064.086.019.075.03.06.019h.045l.06-.049h.056l.049.008.049-.008.075-.045.01-.022.053-.023.18-.022.053.014.135-.056.09.023.075-.027.176.038.045.034.053.056h.063l-.026.041.075.083.071.101.004.015.049.146.037.053.027.071v.045l-.038.034-.007.015v.007l.007.019.015-.008.026-.014.038-.008.06.008.041.003.064-.03.045-.022.067.03h.075l.034.011.09.041.045.004.015-.011.011-.023-.003-.03-.038-.041-.075-.09-.03-.045-.022-.064-.008-.082-.007-.056.01-.075.02-.027.015-.06.003-.015.045-.056.113-.075.12-.105.094-.064.097-.041v-.01l.015.004.248-.087.112-.019.75.053.026-.008.026-.07.012-.012.011-.008.082-.037.038-.008.105.027.045.011.071-.037h.049l.101-.057h.064l.026-.007.124-.09.116-.034.03-.015.011-.007.124-.064.075-.06.068-.038.075-.015.187-.015.041-.063.083-.012.049-.056.056-.023.041-.06.038-.048.045-.027.153-.01.18.022.027-.015.037-.146.045-.027.113-.168v-.06l.004-.053.018-.075-.011-.127.015-.136.071-.168.064-.068.101-.071.053-.022.075-.012h.007l.019-.007h.345l.086-.004.214.038h.015l.071.026.083.064.09.086.015.015.056.026.019.008.045-.008.067-.037.053-.038.067-.038v-.007l.042-.056.014-.027.136-.052.157-.007.019-.012h.007l.042-.052h.037l.098.037.063-.015.053.019.041-.004.075-.011.086.06.049.008.169.097h.015l.007.004.019-.008.03-.007h.004l.003.004.023.026.026.003.03-.037-.011-.022-.004-.008-.064-.011-.052-.094.052-.056-.082-.098-.015-.019v-.003l-.03-.045-.143-.218-.187-.15-.064-.048-.022-.02-.101-.1-.072-.094-.007-.019-.015-.034-.042-.09-.075-.056-.06-.067-.127-.173-.019-.026-.03-.019h-.064l-.003-.008h-.004v-.003l.03-.03.037-.008.012-.034-.064-.183v-.008l-.004-.056.049-.266.008-.034.09-.176.052-.045.06-.117.053-.075.048-.048.008-.004.086-.053.075-.01.071-.012.124.037h.113l.026-.003.052-.008.087-.026.04-.026.023-.03.045-.15.015-.049.026-.053.162-.183.12-.113.27-.195.131-.079.067-.04.604-.27.158-.158.082-.083.143-.097.168-.072.15-.112.03-.041.038-.131.037-.008.027-.064.011-.018.116-.083.015-.007.462-.233.067.011.038-.056.13-.022h.027l.034-.02.026-.048v-.011l.004-.128.03-.034.015-.082.015-.022.015-.02.037-.025-.007-.015v-.004Z"/></g><defs><clipPath id="a"><path fill="#fff" d="M0 0h24v18H0z"/></clipPath></defs></svg>