<svg xmlns="http://www.w3.org/2000/svg" width="24" height="18" fill="none"><g clip-path="url(#a)"><path fill="#108C00" fill-rule="evenodd" d="M-6.115 0h36.22v18.048h-36.22V0Z" clip-rule="evenodd"/><path fill="#FFD600" fill-rule="evenodd" d="M-6.176 6.282h36.4v1.766h-36.4V6.282Z" clip-rule="evenodd"/><path fill="#FFD600" fill-rule="evenodd" d="M9.37 0h1.709v18.048H9.373L9.369 0Z" clip-rule="evenodd"/><path fill="currentColor" fill-rule="evenodd" d="M11.019 0h1.706v18.048h-1.706V0Z" clip-rule="evenodd"/><path fill="currentColor" fill-rule="evenodd" d="M-6.176 7.988h36.4v1.77h-36.4v-1.77Z" clip-rule="evenodd"/><path fill="#fff" fill-rule="evenodd" d="M-6.176 9.757h36.4v1.766h-36.4V9.757Z" clip-rule="evenodd"/><path fill="#fff" fill-rule="evenodd" d="M12.725 0h1.71v18.048h-1.71V0Z" clip-rule="evenodd"/><path fill="#E72910" d="M7.247 9.038c0 2.677 2.16 4.847 4.826 4.847 2.665 0 4.825-2.17 4.825-4.847 0-2.676-2.16-4.847-4.825-4.847s-4.826 2.17-4.826 4.847Z"/><path fill="currentColor" fill-rule="evenodd" d="m11.82 4.83.197-.565.18.554s.603.017.603.007c0-.011-.476.363-.476.363l.215.62c-.007-.018-.522-.384-.522-.384s-.522.366-.511.366c.01 0 .197-.599.197-.599l-.469-.356.585-.01v.003Z" clip-rule="evenodd"/><path fill="#FFE700" fill-rule="evenodd" d="m11.848 4.854.166-.483.155.479s.525.014.525.007-.412.317-.412.317l.183.536c-.007-.018-.451-.331-.451-.331s-.451.317-.444.317c.007 0 .176-.522.176-.522l-.41-.31.508-.007.004-.003Z" clip-rule="evenodd"/><path fill="#108C00" fill-rule="evenodd" d="m11.918 4.935.099-.282.091.278s.3.007.3 0-.236.184-.236.184l.105.31c-.003-.01-.26-.19-.26-.19l-.254.183c.007 0 .099-.3.099-.3l-.233-.176.289-.007Z" clip-rule="evenodd"/><path fill="currentColor" fill-rule="evenodd" d="m15.57 7.466.197-.564.176.554s.606.02.606.01-.475.363-.475.363l.211.62c-.007-.017-.518-.383-.518-.383s-.522.366-.511.366c.01 0 .197-.6.197-.6l-.469-.359.585-.01v.003Z" clip-rule="evenodd"/><path fill="#FFE700" fill-rule="evenodd" d="m15.594 7.495.173-.49.155.483s.521.014.521.007-.412.317-.412.317l.187.532a14.462 14.462 0 0 0-.451-.331s-.452.317-.444.317c.006 0 .172-.521.172-.521l-.405-.307.504-.007Z" clip-rule="evenodd"/><path fill="#108C00" fill-rule="evenodd" d="m15.669 7.576.098-.282.088.275.303.007-.24.18s.114.317.107.31c0-.01-.258-.19-.258-.19l-.257.18.099-.3-.233-.177.293-.003Z" clip-rule="evenodd"/><path fill="currentColor" fill-rule="evenodd" d="m14.478 11.654.197-.564.176.557s.607.017.607.01c0-.007-.476.363-.476.363l.211.617c-.007-.017-.518-.38-.518-.38s-.522.363-.514.363c.007 0 .2-.6.2-.6l-.468-.352.585-.01v-.004Z" clip-rule="evenodd"/><path fill="#FFE700" fill-rule="evenodd" d="m14.502 11.682.173-.487.155.48s.522.017.522.007c0-.01-.413.317-.413.317l.187.536a10.397 10.397 0 0 0-.451-.332s-.451.318-.444.318c.007 0 .172-.522.172-.522l-.405-.307.504-.01Z" clip-rule="evenodd"/><path fill="#108C00" fill-rule="evenodd" d="m14.577 11.763.098-.282.089.279s.303.01.303.003-.24.184-.24.184l.106.306c0-.007-.258-.19-.258-.19l-.257.183.099-.3-.233-.175.293-.008Z" clip-rule="evenodd"/><path fill="currentColor" fill-rule="evenodd" d="m9.236 11.654.197-.564.176.557s.603.017.603.01c0-.007-.476.363-.476.363l.219.617c-.01-.017-.522-.38-.522-.38s-.522.363-.515.363c.007 0 .201-.6.201-.6l-.469-.352.586-.01v-.004Z" clip-rule="evenodd"/><path fill="#FFE700" fill-rule="evenodd" d="m9.263 11.682.17-.487.155.48s.522.017.522.007c0-.01-.413.317-.413.317l.187.536c-.007-.018-.451-.332-.451-.332s-.452.318-.444.318c.007 0 .172-.522.172-.522l-.405-.307.504-.01h.003Z" clip-rule="evenodd"/><path fill="#108C00" fill-rule="evenodd" d="m9.335 11.763.098-.282.088.279s.304.01.304.003-.24.184-.24.184l.106.306c0-.007-.258-.19-.258-.19l-.257.183.099-.3-.233-.175.293-.008Z" clip-rule="evenodd"/><path fill="currentColor" fill-rule="evenodd" d="m8.277 7.357.197-.564.18.557s.603.018.603.007c0-.01-.476.367-.476.367l.215.616a17.38 17.38 0 0 0-.522-.38s-.522.36-.511.36c.01 0 .197-.6.197-.6l-.469-.352.586-.011Z" clip-rule="evenodd"/><path fill="#FFE700" fill-rule="evenodd" d="m8.304 7.385.17-.487.158.48s.518.017.518.007c0-.01-.412.317-.412.317l.187.536c-.007-.018-.451-.331-.451-.331s-.452.317-.441.317c.01 0 .17-.522.17-.522l-.406-.307.507-.01Z" clip-rule="evenodd"/><path fill="#108C00" fill-rule="evenodd" d="m8.375 7.467.099-.282.091.278.3.004-.236.183.106.307a9.615 9.615 0 0 0-.261-.19l-.254.182c.007 0 .099-.3.099-.3l-.233-.175.289-.007Z" clip-rule="evenodd"/><path fill="currentColor" fill-rule="evenodd" d="m14.432 6.137-.197.564-.177-.554s-.606-.017-.606-.01c0 .007.476-.363.476-.363l-.212-.617c.008.017.519.38.519.38s.521-.363.51-.363c-.01 0-.197.6-.197.6l.47.352-.586.01Z" clip-rule="evenodd"/><path fill="#FFE700" fill-rule="evenodd" d="M14.407 6.109c0 .01-.176.49-.176.49l-.152-.48s-.521-.017-.521-.01c0 .007.412-.314.412-.314l-.187-.536c.007.018.451.332.451.332s.452-.318.445-.318c-.008 0-.173.522-.173.522l.405.307-.507.007h.003Z" clip-rule="evenodd"/><path fill="#108C00" fill-rule="evenodd" d="m14.334 6.027-.099.282-.088-.274s-.303-.011-.303-.004c0 .007.24-.183.24-.183l-.106-.307c0 .007.257.19.257.19l.257-.183c-.007 0-.102.3-.102.3l.236.176-.292.007v-.004Z" clip-rule="evenodd"/><path fill="currentColor" fill-rule="evenodd" d="m15.936 10.233-.197.564-.177-.557s-.606-.018-.606-.007c0 .01.476-.363.476-.363l-.212-.62c.007.017.519.38.519.38s.521-.363.51-.363c-.01 0-.197.6-.197.6l.473.355-.585.011h-.004Z" clip-rule="evenodd"/><path fill="#FFE700" fill-rule="evenodd" d="m15.911 10.205-.173.487-.155-.48s-.521-.014-.521-.007.412-.317.412-.317l-.187-.536c.007.018.451.331.451.331s.451-.317.445-.317c-.008 0-.173.522-.173.522l.405.31-.507.007h.003Z" clip-rule="evenodd"/><path fill="#108C00" fill-rule="evenodd" d="m15.838 10.124-.1.282-.087-.279s-.303-.007-.303 0 .24-.183.24-.183l-.106-.31c0 .01.257.19.257.19l.257-.183c-.007 0-.102.303-.102.303l.236.176-.292.004Z" clip-rule="evenodd"/><path fill="currentColor" fill-rule="evenodd" d="m12.204 13.23-.198.564-.176-.557s-.606-.018-.606-.011c0 .007.476-.363.476-.363l-.212-.617c.007.018.518.38.518.38s.522-.362.511-.362c-.01 0-.197.599-.197.599l.469.356-.585.01Z" clip-rule="evenodd"/><path fill="#FFE700" fill-rule="evenodd" d="m12.179 13.198-.173.494-.155-.483s-.522-.018-.522-.007c0 .01.412-.318.412-.318l-.186-.535c.007.017.45.331.45.331s.452-.317.445-.317c-.007 0-.173.521-.173.521l.406.307-.504.01v-.003Z" clip-rule="evenodd"/><path fill="#108C00" fill-rule="evenodd" d="m12.105 13.12-.098.282-.089-.278s-.303-.01-.303-.004c0 .007.24-.183.24-.183l-.106-.307c0 .007.258.19.258.19l.257-.183-.099.3.233.176-.293.007Z" clip-rule="evenodd"/><path fill="currentColor" fill-rule="evenodd" d="m8.7 10.233-.202.564-.176-.557s-.606-.018-.606-.007c0 .01.476-.363.476-.363l-.212-.62c.007.017.518.38.518.38l.519-.36-.201.6.468.356-.585.01v-.003Z" clip-rule="evenodd"/><path fill="#FFE700" fill-rule="evenodd" d="m8.67 10.205-.172.487-.155-.48s-.522-.014-.522-.007.413-.317.413-.317l-.187-.536c.007.018.451.331.451.331s.451-.317.444-.317c-.007 0-.172.522-.172.522l.405.31-.504.007Z" clip-rule="evenodd"/><path fill="#108C00" fill-rule="evenodd" d="m8.597 10.124-.098.282-.088-.279s-.304-.007-.304 0 .24-.183.24-.183l-.106-.31c0 .01.258.19.258.19l.257-.183-.099.303.233.176-.293.004Z" clip-rule="evenodd"/><path fill="currentColor" fill-rule="evenodd" d="m9.994 6.197-.198.564-.183-.554s-.6-.017-.6-.01c0 .007.477-.363.477-.363l-.215-.617c.007.017.518.38.518.38s.521-.363.514-.363c-.007 0-.197.6-.197.6l.465.352-.581.014v-.003Z" clip-rule="evenodd"/><path fill="#FFE700" fill-rule="evenodd" d="m9.966 6.169-.173.493-.155-.483s-.522-.017-.522-.007c0 .011.413-.317.413-.317l-.187-.536c.007.018.451.332.451.332s.451-.318.444-.318c-.007 0-.169.522-.169.522l.402.307-.504.01V6.17Z" clip-rule="evenodd"/><path fill="#108C00" fill-rule="evenodd" d="m9.892 6.091-.099.282-.088-.278s-.3-.011-.3-.004c0 .007.236-.183.236-.183L9.536 5.6c0 .007.257.19.257.19l.257-.183-.098.3.232.176-.292.007Z" clip-rule="evenodd"/><path fill="#009200" d="M12.364 11.165c.14-.103.253-.678.253-1.284 0-.607-.113-1.015-.253-.913-.14.103-.253.678-.253 1.284 0 .607.114 1.015.253.913Z"/><path fill="currentColor" fill-rule="evenodd" d="M12.194 9.419a4.39 4.39 0 0 0-.074.826c0 .302.028.555.074.719.023.082.05.141.08.174a.08.08 0 0 0 .045.028.06.06 0 0 0 .045-.013.185.185 0 0 0 .044-.052.588.588 0 0 0 .046-.095c.03-.076.057-.176.08-.291.045-.231.073-.525.073-.827 0-.301-.028-.554-.073-.718a.45.45 0 0 0-.08-.174.08.08 0 0 0-.046-.028.059.059 0 0 0-.044.012.183.183 0 0 0-.045.053.59.59 0 0 0-.046.095 1.84 1.84 0 0 0-.08.291Zm.112-.388a.235.235 0 0 1 .058-.067c.02-.015.04-.02.057-.017a.086.086 0 0 1 .05.03c.03.034.057.094.08.177.046.165.075.418.075.721s-.029.598-.074.83a1.78 1.78 0 0 1-.082.296.631.631 0 0 1-.049.102.236.236 0 0 1-.057.066.078.078 0 0 1-.058.018.086.086 0 0 1-.05-.03.457.457 0 0 1-.08-.177 2.89 2.89 0 0 1-.074-.721c0-.303.028-.598.074-.83a1.9 1.9 0 0 1 .08-.296.636.636 0 0 1 .05-.102Z" clip-rule="evenodd"/><path fill="#009200" d="M12.686 11.137c.15-.11.271-.685.271-1.287 0-.601-.121-1-.271-.892-.15.11-.271.685-.271 1.287 0 .601.121 1 .271.892Z"/><path fill="currentColor" fill-rule="evenodd" d="M12.505 9.414a4.12 4.12 0 0 0-.079.823c0 .3.03.548.08.708.024.08.053.138.085.17a.082.082 0 0 0 .049.025.07.07 0 0 0 .048-.015.202.202 0 0 0 .048-.055.606.606 0 0 0 .049-.097 1.74 1.74 0 0 0 .085-.292c.049-.231.08-.524.08-.823 0-.3-.031-.548-.08-.708a.41.41 0 0 0-.085-.17.083.083 0 0 0-.05-.025.07.07 0 0 0-.047.015.204.204 0 0 0-.048.055.598.598 0 0 0-.05.097 1.71 1.71 0 0 0-.085.292Zm.122-.392a.256.256 0 0 1 .06-.068.09.09 0 0 1 .062-.02.089.089 0 0 1 .053.027c.033.032.062.09.087.172.049.161.08.411.08.711s-.031.594-.08.827a1.745 1.745 0 0 1-.087.298.659.659 0 0 1-.053.104.258.258 0 0 1-.061.068.09.09 0 0 1-.061.02.09.09 0 0 1-.053-.027.414.414 0 0 1-.087-.171 2.619 2.619 0 0 1-.08-.712c0-.3.03-.594.08-.827.024-.116.054-.218.087-.298a.652.652 0 0 1 .053-.104Z" clip-rule="evenodd"/><path fill="#009200" d="M12.559 11.342c.12-.091.216-.72.216-1.405s-.097-1.167-.216-1.076c-.12.09-.217.72-.217 1.405s.097 1.167.217 1.076Z"/><path fill="currentColor" fill-rule="evenodd" d="M12.414 9.338c-.039.253-.063.58-.063.921 0 .341.024.632.063.825.02.097.043.17.069.212.012.021.026.035.039.04.014.006.026.003.037-.005a.15.15 0 0 0 .036-.05.64.64 0 0 0 .04-.1c.025-.081.049-.189.068-.315.04-.253.064-.58.064-.92 0-.342-.025-.632-.064-.826a.715.715 0 0 0-.068-.212.101.101 0 0 0-.04-.04.035.035 0 0 0-.036.006.148.148 0 0 0-.037.05.645.645 0 0 0-.04.1 2.221 2.221 0 0 0-.068.314Zm.094-.414a.197.197 0 0 1 .05-.066c.02-.015.037-.016.051-.01.015.006.03.02.042.042.027.044.05.117.07.214.04.195.063.486.063.828 0 .341-.024.67-.063.923-.02.127-.043.236-.07.32a.674.674 0 0 1-.042.105.197.197 0 0 1-.05.067c-.02.014-.036.016-.051.01s-.029-.021-.042-.043a.724.724 0 0 1-.07-.214 4.482 4.482 0 0 1-.063-.827c0-.342.024-.67.064-.924.02-.127.043-.236.069-.319a.672.672 0 0 1 .042-.106Z" clip-rule="evenodd"/><path fill="#A95600" fill-rule="evenodd" d="M11.071 10.367c.22-.01.125-.12.235-.183.11-.059.268-.022.315.051.048.074.011.147.073.147.063 0 1.723-.092 1.782-.033.059.062.073.183.011.23-.059.052-2.16.11-2.232.06-.074-.052-.184-.257-.184-.272Z" clip-rule="evenodd"/><path fill="currentColor" fill-rule="evenodd" d="M11.31 10.192c-.04.022-.05.05-.061.08a.363.363 0 0 1-.011.027.108.108 0 0 1-.049.052.26.26 0 0 1-.106.024v.002a1.274 1.274 0 0 0 .118.194.335.335 0 0 0 .058.06l.01.003a1.167 1.167 0 0 0 .1.01c.064.003.152.004.257.005a25.927 25.927 0 0 0 1.497-.04 6.313 6.313 0 0 0 .328-.029.224.224 0 0 0 .022-.004l.006-.002.002-.001c.028-.022.04-.06.036-.103a.194.194 0 0 0-.05-.116 64.612 64.612 0 0 0-1.603.03l-.17.007c-.018 0-.03-.005-.038-.016a.085.085 0 0 1-.013-.038l-.002-.011a.21.21 0 0 0-.028-.086c-.022-.034-.07-.06-.128-.071a.273.273 0 0 0-.175.023Zm-.24.175v-.01a.261.261 0 0 0 .11-.022.09.09 0 0 0 .041-.044.328.328 0 0 0 .01-.024.151.151 0 0 1 .07-.091.29.29 0 0 1 .187-.025c.06.011.114.04.14.08.022.033.027.066.031.092l.002.011a.067.067 0 0 0 .01.03c.003.005.01.009.023.009l.168-.008c.17-.008.447-.02.724-.03.215-.009.43-.015.595-.015a3.395 3.395 0 0 1 .267.01.156.156 0 0 1 .02.005c.005.001.01.004.014.007.031.033.05.081.054.127.003.046-.01.091-.044.118a.024.024 0 0 1-.006.004 26.318 26.318 0 0 1-2.118.071 1.161 1.161 0 0 1-.103-.01.046.046 0 0 1-.016-.006.315.315 0 0 1-.062-.064 1.068 1.068 0 0 1-.125-.21v-.005h.009Z" clip-rule="evenodd"/><path fill="#FF0" fill-rule="evenodd" d="M12.219 10.801c0 .147.25.102.257.224-.004.13-.422.013-.432-.224.01-.237.412-.36.422-.223.006.112-.248.077-.248.223Z" clip-rule="evenodd"/><path fill="currentColor" fill-rule="evenodd" d="M12.054 10.801c.005.113.108.2.213.242a.35.35 0 0 0 .142.027.087.087 0 0 0 .044-.014.037.037 0 0 0 .015-.03c-.001-.027-.016-.045-.038-.06a.525.525 0 0 0-.078-.032l-.009-.003a.317.317 0 0 1-.09-.043.103.103 0 0 1-.042-.078v-.01c0-.04.017-.067.042-.088a.324.324 0 0 1 .09-.045l.01-.004a.388.388 0 0 0 .073-.032c.021-.014.033-.03.032-.054a.043.043 0 0 0-.017-.033.084.084 0 0 0-.044-.014.302.302 0 0 0-.137.026c-.102.043-.201.13-.206.244Zm.174-.009a.09.09 0 0 1 .036-.065.307.307 0 0 1 .085-.042l.011-.005a.402.402 0 0 0 .075-.034c.025-.015.042-.037.04-.069a.06.06 0 0 0-.023-.046.102.102 0 0 0-.053-.018.319.319 0 0 0-.146.028c-.104.044-.211.136-.217.26.006.124.117.215.224.258a.344.344 0 0 0 .15.028.105.105 0 0 0 .053-.017.055.055 0 0 0 .023-.044v-.001a.09.09 0 0 0-.047-.073.406.406 0 0 0-.08-.034l-.01-.004a.304.304 0 0 1-.085-.04.086.086 0 0 1-.035-.073v-.009Z" clip-rule="evenodd"/><path fill="#FF0" fill-rule="evenodd" d="M12.366 10.805c0 .147.251.102.258.224-.004.13-.422.013-.433-.224.01-.237.413-.36.422-.224.007.113-.247.077-.247.224Z" clip-rule="evenodd"/><path fill="currentColor" fill-rule="evenodd" d="M12.2 10.805c.005.113.108.2.213.242.053.02.104.03.142.027a.087.087 0 0 0 .044-.014.037.037 0 0 0 .016-.03c-.002-.027-.016-.045-.039-.06-.021-.013-.048-.022-.077-.032l-.01-.004a.317.317 0 0 1-.089-.042.103.103 0 0 1-.042-.078h-.001v-.009c0-.04.017-.067.043-.088a.324.324 0 0 1 .089-.045l.011-.004a.377.377 0 0 0 .072-.032c.022-.014.034-.03.032-.054a.043.043 0 0 0-.017-.033.084.084 0 0 0-.043-.015.302.302 0 0 0-.138.027c-.102.043-.2.13-.206.244Zm.175-.009a.09.09 0 0 1 .036-.065.307.307 0 0 1 .084-.043c.004 0 .008-.002.012-.004a.402.402 0 0 0 .075-.034c.024-.015.042-.037.04-.07a.06.06 0 0 0-.024-.045.102.102 0 0 0-.052-.018.319.319 0 0 0-.147.028c-.104.044-.21.136-.216.26.005.124.116.215.224.258a.345.345 0 0 0 .15.028.105.105 0 0 0 .053-.017.055.055 0 0 0 .022-.044v-.001a.087.087 0 0 0-.047-.073.406.406 0 0 0-.08-.035l-.01-.003a.301.301 0 0 1-.084-.04.086.086 0 0 1-.036-.073v-.009Z" clip-rule="evenodd"/><path fill="#FF0" fill-rule="evenodd" d="M12.524 10.798c0 .146.251.102.258.224-.004.13-.422.013-.432-.224.01-.238.412-.36.421-.224.007.112-.247.077-.247.224Z" clip-rule="evenodd"/><path fill="currentColor" fill-rule="evenodd" d="M12.357 10.798c.006.113.108.2.213.241.053.021.104.03.142.027a.088.088 0 0 0 .044-.014.037.037 0 0 0 .016-.03c-.002-.027-.016-.044-.039-.059a.398.398 0 0 0-.077-.032l-.01-.004a.32.32 0 0 1-.089-.043.103.103 0 0 1-.042-.078v-.008c0-.04.017-.068.042-.088a.323.323 0 0 1 .1-.05.388.388 0 0 0 .073-.032c.021-.013.033-.03.032-.053a.043.043 0 0 0-.017-.033.086.086 0 0 0-.044-.015.3.3 0 0 0-.138.027c-.101.043-.2.13-.206.244Zm.175-.009a.09.09 0 0 1 .036-.066.309.309 0 0 1 .084-.042l.012-.004a.406.406 0 0 0 .075-.034c.025-.016.042-.037.04-.07a.06.06 0 0 0-.024-.045.103.103 0 0 0-.052-.018.316.316 0 0 0-.146.028c-.105.044-.212.136-.217.26.005.124.117.214.224.258a.343.343 0 0 0 .15.028.104.104 0 0 0 .053-.018.055.055 0 0 0 .023-.044c-.002-.035-.021-.057-.047-.073a.407.407 0 0 0-.09-.038.308.308 0 0 1-.085-.04.087.087 0 0 1-.036-.073v-.009Z" clip-rule="evenodd"/><path fill="#FF0" fill-rule="evenodd" d="M12.67 10.798c0 .146.25.102.257.224-.003.13-.421.013-.432-.224.01-.238.413-.36.422-.224.007.112-.248.077-.248.224h.001Z" clip-rule="evenodd"/><path fill="currentColor" fill-rule="evenodd" d="M12.505 10.798c.005.113.108.2.213.241.052.021.104.03.142.027a.087.087 0 0 0 .044-.014.037.037 0 0 0 .015-.03c-.001-.027-.016-.044-.038-.059a.398.398 0 0 0-.087-.036.32.32 0 0 1-.09-.043.103.103 0 0 1-.042-.078v-.008c0-.04.017-.068.042-.088a.323.323 0 0 1 .09-.045l.011-.004a.323.323 0 0 0 .072-.033c.021-.013.034-.03.032-.053a.043.043 0 0 0-.017-.033.086.086 0 0 0-.043-.015.3.3 0 0 0-.138.027c-.102.043-.201.13-.206.244Zm.175-.009a.09.09 0 0 1 .036-.066.306.306 0 0 1 .084-.042l.011-.004c.027-.01.055-.02.076-.034.024-.016.041-.037.04-.07a.06.06 0 0 0-.024-.045.102.102 0 0 0-.053-.018.316.316 0 0 0-.146.028c-.104.044-.211.136-.217.26.006.124.117.214.224.258a.343.343 0 0 0 .15.028.104.104 0 0 0 .053-.018.055.055 0 0 0 .023-.044c-.002-.035-.021-.057-.047-.073a.405.405 0 0 0-.09-.038.306.306 0 0 1-.084-.04.086.086 0 0 1-.036-.073v-.009Z" clip-rule="evenodd"/><path fill="#A95600" d="M13.376 11.243a.142.142 0 0 0 .144-.14.142.142 0 0 0-.139-.146.142.142 0 0 0-.143.14.14.14 0 0 0 .138.146Z"/><path fill="currentColor" fill-rule="evenodd" d="M13.382 10.966a.134.134 0 0 0-.136.132.134.134 0 0 0 .13.138.134.134 0 0 0 .136-.133.134.134 0 0 0-.13-.137Zm-.152.132a.15.15 0 0 1 .152-.149.15.15 0 0 1 .146.154.15.15 0 0 1-.152.15.15.15 0 0 1-.146-.155Z" clip-rule="evenodd"/><path fill="#009200" d="M12.574 11.053c.03-.043.009-.175-.048-.295-.057-.119-.127-.18-.158-.137-.03.043-.009.175.048.294.057.12.127.181.158.138Z"/><path fill="currentColor" fill-rule="evenodd" d="M12.363 10.738a.64.64 0 0 0 .056.17.4.4 0 0 0 .088.126c.03.024.052.026.064.009.013-.018.016-.055.008-.107a.64.64 0 0 0-.056-.17.403.403 0 0 0-.088-.126c-.03-.025-.052-.027-.064-.01-.013.018-.016.056-.008.108Zm-.011.004c-.01-.053-.008-.102.01-.128.02-.025.048-.018.078.007a.42.42 0 0 1 .092.132c.03.06.05.123.059.178.008.054.007.103-.012.128-.018.025-.047.018-.077-.007a.417.417 0 0 1-.092-.131.672.672 0 0 1-.059-.179Z" clip-rule="evenodd"/><path fill="#009200" d="M12.357 11.034c.03-.043.009-.175-.048-.294-.056-.12-.127-.181-.157-.138-.03.043-.01.175.047.294.057.12.127.181.158.138Z"/><path fill="currentColor" fill-rule="evenodd" d="M12.146 10.719a.641.641 0 0 0 .056.17.4.4 0 0 0 .089.126c.028.024.05.026.064.01.012-.018.015-.056.007-.108a.64.64 0 0 0-.056-.17.4.4 0 0 0-.088-.126c-.029-.024-.052-.026-.064-.009-.013.017-.016.055-.008.107Zm-.011.005c-.01-.054-.008-.103.01-.128.02-.026.048-.018.078.007a.42.42 0 0 1 .092.131c.03.06.05.124.059.178.008.054.007.103-.011.128-.019.026-.048.019-.077-.006a.418.418 0 0 1-.093-.132.672.672 0 0 1-.058-.178Z" clip-rule="evenodd"/><path fill="#009200" d="M12.204 10.759c.03-.043.01-.175-.047-.295-.057-.119-.127-.18-.158-.137-.03.043-.009.175.048.294.057.12.127.181.157.138Z"/><path fill="currentColor" fill-rule="evenodd" d="M11.994 10.444a.642.642 0 0 0 .056.17.4.4 0 0 0 .088.126c.029.024.052.026.064.009.013-.018.016-.055.008-.107a.643.643 0 0 0-.056-.17.4.4 0 0 0-.089-.126c-.028-.025-.05-.027-.063-.01-.013.018-.016.056-.008.108Zm-.012.004c-.008-.053-.007-.102.012-.128.018-.025.047-.018.076.007a.606.606 0 0 1 .151.31c.01.053.008.103-.01.128-.02.025-.048.018-.078-.007a.418.418 0 0 1-.092-.131.67.67 0 0 1-.059-.179Z" clip-rule="evenodd"/><path fill="#009200" d="M12.362 10.71c.027-.042 0-.185-.057-.32-.059-.135-.127-.21-.153-.168-.026.042 0 .186.058.32.058.135.126.21.152.168Z"/><path fill="currentColor" fill-rule="evenodd" d="M12.152 10.346c.01.055.031.123.06.189.03.066.062.117.09.146a.09.09 0 0 0 .036.026c.01.003.018 0 .023-.008a.08.08 0 0 0 .009-.04.363.363 0 0 0-.008-.072.878.878 0 0 0-.06-.19.545.545 0 0 0-.089-.145.09.09 0 0 0-.036-.027.02.02 0 0 0-.024.008.081.081 0 0 0-.008.041c0 .02.002.044.007.072Zm-.019-.074a.11.11 0 0 1 .013-.056c.008-.012.02-.016.032-.012a.1.1 0 0 1 .04.029.57.57 0 0 1 .092.151.91.91 0 0 1 .063.197.333.333 0 0 1 .008.08.11.11 0 0 1-.012.055c-.009.013-.02.016-.032.013a.1.1 0 0 1-.04-.03.566.566 0 0 1-.093-.15.903.903 0 0 1-.063-.197.407.407 0 0 1-.008-.08Z" clip-rule="evenodd"/><path fill="#009200" d="M12.663 10.748c.027-.042.003-.177-.053-.303-.056-.125-.124-.194-.15-.152-.028.042-.004.177.052.302.056.126.124.194.15.152Z"/><path fill="currentColor" fill-rule="evenodd" d="M12.457 10.41c.01.053.03.116.058.178a.5.5 0 0 0 .086.134.082.082 0 0 0 .036.024c.01.002.018-.002.024-.01a.077.077 0 0 0 .01-.04.327.327 0 0 0-.006-.067.76.76 0 0 0-.058-.177.471.471 0 0 0-.086-.135.084.084 0 0 0-.037-.024.02.02 0 0 0-.023.01.08.08 0 0 0-.01.04c0 .018.002.04.006.067Zm-.017-.07c0-.022.005-.041.013-.054.009-.012.02-.016.032-.013a.09.09 0 0 1 .04.026.488.488 0 0 1 .09.14c.03.063.05.129.06.184a.364.364 0 0 1 .007.076.106.106 0 0 1-.014.054.029.029 0 0 1-.032.013.092.092 0 0 1-.04-.026.493.493 0 0 1-.09-.14.785.785 0 0 1-.06-.184.359.359 0 0 1-.006-.076Z" clip-rule="evenodd"/><path fill="#009200" d="M12.498 10.646c.027-.041.003-.177-.053-.302s-.124-.194-.15-.152c-.028.041-.004.177.052.302.056.126.124.194.15.152Z"/><path fill="currentColor" fill-rule="evenodd" d="M12.292 10.31c.01.053.03.116.058.177a.456.456 0 0 0 .086.135.083.083 0 0 0 .036.023.02.02 0 0 0 .024-.009.079.079 0 0 0 .01-.04.328.328 0 0 0-.007-.067.757.757 0 0 0-.057-.178.471.471 0 0 0-.087-.134.083.083 0 0 0-.036-.024.02.02 0 0 0-.023.01.078.078 0 0 0-.01.04c0 .018.002.04.006.067Zm-.017-.07c0-.022.005-.041.013-.054.009-.012.02-.016.032-.013a.091.091 0 0 1 .04.026.743.743 0 0 1 .15.324.359.359 0 0 1 .007.076.105.105 0 0 1-.014.053c-.008.013-.02.017-.032.014a.091.091 0 0 1-.04-.026.489.489 0 0 1-.09-.14.786.786 0 0 1-.06-.184.372.372 0 0 1-.006-.076Z" clip-rule="evenodd"/><path fill="#009200" d="M12.292 10.502c.027-.042.003-.177-.053-.303-.056-.125-.124-.193-.15-.152-.028.042-.004.177.052.303.056.125.124.193.15.152Z"/><path fill="currentColor" fill-rule="evenodd" d="M12.086 10.165c.01.052.03.116.058.177a.484.484 0 0 0 .086.135.082.082 0 0 0 .036.023.021.021 0 0 0 .024-.01.077.077 0 0 0 .01-.039.334.334 0 0 0-.007-.068.76.76 0 0 0-.057-.177.471.471 0 0 0-.087-.135.083.083 0 0 0-.036-.023c-.01-.002-.018.001-.023.009a.079.079 0 0 0-.01.04c0 .018.001.041.006.068Zm-.017-.07a.1.1 0 0 1 .013-.054c.009-.013.02-.016.032-.014a.09.09 0 0 1 .04.026.488.488 0 0 1 .09.14c.03.063.05.129.06.185a.365.365 0 0 1 .007.075.106.106 0 0 1-.014.054c-.008.013-.02.016-.032.014a.092.092 0 0 1-.04-.026.493.493 0 0 1-.09-.14.785.785 0 0 1-.06-.185.359.359 0 0 1-.006-.076Z" clip-rule="evenodd"/><path fill="#009200" d="M12.098 10.417c.027-.041.004-.176-.052-.302-.057-.126-.124-.194-.151-.152-.027.041-.004.177.053.302.056.126.123.194.15.152Z"/><path fill="currentColor" fill-rule="evenodd" d="M11.893 10.081c.01.053.029.116.057.177.029.062.06.109.087.135a.083.083 0 0 0 .036.023.02.02 0 0 0 .024-.009.078.078 0 0 0 .009-.04.32.32 0 0 0-.006-.067.76.76 0 0 0-.058-.178.472.472 0 0 0-.086-.134.082.082 0 0 0-.036-.024c-.01-.002-.018.002-.024.01a.077.077 0 0 0-.01.04c0 .018.002.04.007.067Zm-.018-.07a.105.105 0 0 1 .014-.054.029.029 0 0 1 .032-.013.092.092 0 0 1 .04.026.743.743 0 0 1 .15.324.359.359 0 0 1 .006.076.106.106 0 0 1-.013.054.029.029 0 0 1-.032.013.091.091 0 0 1-.04-.026.489.489 0 0 1-.09-.14.786.786 0 0 1-.06-.184.365.365 0 0 1-.007-.076Z" clip-rule="evenodd"/><path fill="#804BFF" fill-rule="evenodd" d="M11.848 7.5s-.43.366-.37 1.353c.065.99.97 1.448.97 1.448s.228-.283.191-1.082c-.073-1.166-.506-1.675-.506-1.675l-.285-.048V7.5Z" clip-rule="evenodd"/><path fill="currentColor" fill-rule="evenodd" d="m11.839 7.486.3.05.002.002-.007.006.007-.006.001.002.004.005.014.018a2.195 2.195 0 0 1 .208.378c.117.274.244.694.28 1.278.02.4-.028.672-.081.844a1.053 1.053 0 0 1-.1.23l-.008.01-.002.002v.002l-.008-.006-.004.008-.003-.001-.008-.004a1.73 1.73 0 0 1-.133-.082 2.142 2.142 0 0 1-.32-.267 1.722 1.722 0 0 1-.513-1.101c-.029-.495.064-.835.164-1.051a1.19 1.19 0 0 1 .19-.291.409.409 0 0 1 .015-.014l.002-.002v-.01Zm.015.021-.001.001-.004.003a1.169 1.169 0 0 0-.2.3c-.1.213-.191.55-.162 1.041.033.493.274.853.508 1.09a2.135 2.135 0 0 0 .42.33l.028.016.003.001.005-.007a1.034 1.034 0 0 0 .098-.225c.052-.169.1-.438.081-.837-.036-.582-.162-1-.28-1.272a2.168 2.168 0 0 0-.205-.374.69.69 0 0 0-.013-.018l-.003-.003-.275-.046Zm.595 2.794-.004.008.006.004.005-.006-.007-.006Z" clip-rule="evenodd"/><path fill="#009200" d="M12.666 11.09c.03.043.097-.018.152-.136.055-.119.077-.25.048-.292-.028-.043-.096.018-.151.136-.055.119-.077.25-.049.292Z"/><path fill="currentColor" fill-rule="evenodd" d="M12.803 10.68a.402.402 0 0 0-.085.126.661.661 0 0 0-.055.169c-.009.051-.006.088.006.106.012.017.033.015.06-.01a.4.4 0 0 0 .086-.124.66.66 0 0 0 .055-.169c.009-.052.006-.089-.006-.106s-.033-.015-.06.009Zm-.005-.017c.029-.025.056-.032.074-.007.017.025.018.074.01.127a.69.69 0 0 1-.058.176.42.42 0 0 1-.09.13c-.028.026-.056.033-.073.008-.017-.025-.018-.074-.01-.127a.687.687 0 0 1 .058-.177.42.42 0 0 1 .09-.13Z" clip-rule="evenodd"/><path fill="#009200" d="M12.458 11.034c.028.043.096-.018.151-.137.055-.118.077-.249.048-.292-.028-.042-.096.019-.151.137-.055.119-.077.25-.048.292Z"/><path fill="currentColor" fill-rule="evenodd" d="M12.594 10.624a.4.4 0 0 0-.085.125.66.66 0 0 0-.055.168c-.009.052-.006.09.006.107s.033.015.06-.01a.402.402 0 0 0 .086-.124.657.657 0 0 0 .055-.17c.009-.05.006-.088-.006-.105s-.033-.015-.06.009Zm-.005-.018c.029-.025.056-.033.074-.007.017.025.018.074.01.127a.688.688 0 0 1-.058.176.42.42 0 0 1-.09.13c-.028.026-.056.033-.073.008-.017-.026-.018-.074-.01-.127a.69.69 0 0 1 .058-.177.42.42 0 0 1 .09-.13Z" clip-rule="evenodd"/><path fill="#009200" d="M12.357 10.736c.029.043.096-.019.151-.137.056-.118.077-.25.049-.292-.029-.043-.097.018-.152.137-.055.118-.076.25-.048.292Z"/><path fill="currentColor" fill-rule="evenodd" d="M12.493 10.325a.406.406 0 0 0-.086.125.655.655 0 0 0-.055.17c-.008.05-.006.088.006.105s.034.015.061-.009a.404.404 0 0 0 .086-.125.66.66 0 0 0 .055-.168c.008-.052.006-.09-.006-.107s-.034-.015-.061.01Zm-.005-.018c.028-.025.056-.032.073-.007.018.026.019.074.01.127a.687.687 0 0 1-.058.177.418.418 0 0 1-.089.13c-.028.025-.056.032-.073.007-.018-.025-.019-.074-.01-.127a.687.687 0 0 1 .058-.176.42.42 0 0 1 .089-.13Z" clip-rule="evenodd"/><path fill="#009200" d="M12.521 10.716c.024.042.09-.033.146-.167.056-.134.082-.276.058-.318-.025-.041-.09.033-.146.167-.056.134-.082.276-.058.318Z"/><path fill="currentColor" fill-rule="evenodd" d="M12.667 10.26a.557.557 0 0 0-.085.145.912.912 0 0 0-.06.188.378.378 0 0 0-.007.072c0 .019.003.032.008.04.004.008.012.01.021.008a.086.086 0 0 0 .035-.026.557.557 0 0 0 .086-.145.912.912 0 0 0 .06-.188.378.378 0 0 0 .007-.071.082.082 0 0 0-.008-.04c-.005-.009-.012-.012-.022-.009a.086.086 0 0 0-.035.027Zm.034-.047c.012-.003.022 0 .03.012a.113.113 0 0 1 .012.056c0 .023-.003.05-.009.079a.939.939 0 0 1-.061.195.578.578 0 0 1-.089.15.095.095 0 0 1-.039.03c-.011.003-.022 0-.03-.013a.113.113 0 0 1-.011-.056.42.42 0 0 1 .008-.079.933.933 0 0 1 .062-.195.557.557 0 0 1 .088-.15.095.095 0 0 1 .04-.029Z" clip-rule="evenodd"/><path fill="#009200" d="M12.814 10.807c.025.04.09-.027.145-.151.054-.125.078-.26.053-.3-.026-.042-.09.026-.145.15-.054.125-.078.26-.053.3Z"/><path fill="currentColor" fill-rule="evenodd" d="M12.953 10.38a.477.477 0 0 0-.084.133.779.779 0 0 0-.056.176.34.34 0 0 0-.006.068.08.08 0 0 0 .008.039.02.02 0 0 0 .023.009.08.08 0 0 0 .034-.023.48.48 0 0 0 .084-.134.779.779 0 0 0 .056-.176.34.34 0 0 0 .006-.067.079.079 0 0 0-.008-.04.02.02 0 0 0-.022-.009.08.08 0 0 0-.035.024Zm.034-.044c.011-.003.022 0 .03.013a.108.108 0 0 1 .012.053.376.376 0 0 1-.006.076.81.81 0 0 1-.06.183.497.497 0 0 1-.086.139.088.088 0 0 1-.039.025c-.011.003-.022 0-.03-.013a.108.108 0 0 1-.012-.053c0-.022.002-.048.007-.075a.825.825 0 0 1 .058-.184.497.497 0 0 1 .087-.139.088.088 0 0 1 .039-.025Z" clip-rule="evenodd"/><path fill="#009200" d="M12.67 10.677c.025.041.09-.026.144-.15.055-.125.078-.26.053-.301-.025-.041-.09.026-.144.151-.055.125-.079.259-.053.3Z"/><path fill="currentColor" fill-rule="evenodd" d="M12.808 10.251a.478.478 0 0 0-.083.134.779.779 0 0 0-.056.176.34.34 0 0 0-.007.067c0 .018.004.031.009.04a.02.02 0 0 0 .022.009.08.08 0 0 0 .035-.024.479.479 0 0 0 .083-.133.782.782 0 0 0 .057-.176.34.34 0 0 0 .006-.068.08.08 0 0 0-.009-.04.02.02 0 0 0-.022-.008.078.078 0 0 0-.035.023Zm.034-.043c.012-.003.023 0 .03.013a.108.108 0 0 1 .013.053.377.377 0 0 1-.007.075.812.812 0 0 1-.059.183.497.497 0 0 1-.087.14.088.088 0 0 1-.038.025.026.026 0 0 1-.03-.013.108.108 0 0 1-.013-.054c0-.022.002-.047.007-.075a.81.81 0 0 1 .059-.183.496.496 0 0 1 .087-.139.088.088 0 0 1 .038-.026Z" clip-rule="evenodd"/><path fill="#009200" d="M12.492 10.498c.025.041.09-.026.144-.151.055-.125.079-.259.053-.3-.025-.041-.09.026-.144.15-.055.125-.078.26-.053.301Z"/><path fill="currentColor" fill-rule="evenodd" d="M12.632 10.071a.477.477 0 0 0-.084.134.779.779 0 0 0-.056.176.34.34 0 0 0-.007.067.08.08 0 0 0 .009.04.02.02 0 0 0 .022.009.08.08 0 0 0 .035-.023.48.48 0 0 0 .083-.134.78.78 0 0 0 .057-.176.334.334 0 0 0 .006-.067.08.08 0 0 0-.008-.04.02.02 0 0 0-.023-.009.079.079 0 0 0-.034.023Zm.034-.043c.011-.003.022 0 .03.013a.108.108 0 0 1 .012.053.376.376 0 0 1-.007.075.814.814 0 0 1-.058.184.5.5 0 0 1-.087.139.088.088 0 0 1-.039.025c-.012.003-.022 0-.03-.013a.108.108 0 0 1-.012-.053.338.338 0 0 1 .006-.075.781.781 0 0 1 .059-.184.497.497 0 0 1 .087-.139.088.088 0 0 1 .038-.025Z" clip-rule="evenodd"/><path fill="#009200" d="M12.317 10.381c.025.041.09-.026.145-.15.054-.125.078-.26.053-.3-.026-.042-.09.025-.145.15-.054.125-.078.26-.053.3Z"/><path fill="currentColor" fill-rule="evenodd" d="M12.457 9.955a.478.478 0 0 0-.084.133.779.779 0 0 0-.056.176.34.34 0 0 0-.006.068.08.08 0 0 0 .008.04.02.02 0 0 0 .022.008.08.08 0 0 0 .035-.023.48.48 0 0 0 .084-.134.779.779 0 0 0 .056-.176.35.35 0 0 0 .006-.067.08.08 0 0 0-.008-.04.02.02 0 0 0-.023-.009.08.08 0 0 0-.034.024Zm.034-.044c.011-.003.022.001.03.013a.108.108 0 0 1 .012.054.376.376 0 0 1-.007.075.814.814 0 0 1-.058.183.5.5 0 0 1-.087.139.088.088 0 0 1-.039.025c-.011.003-.022 0-.03-.013a.108.108 0 0 1-.012-.053c0-.022.002-.048.007-.075.01-.056.03-.12.058-.183a.497.497 0 0 1 .087-.14.087.087 0 0 1 .039-.025Z" clip-rule="evenodd"/><path fill="#C90000" d="M13.11 10.339c.19-.07.159-.588-.068-1.154-.226-.566-.563-.968-.752-.897-.189.07-.158.587.069 1.154.226.566.563.968.752.897Z"/><path fill="currentColor" fill-rule="evenodd" d="M12.172 8.679c.012.208.076.478.19.761.113.283.253.525.39.687a.816.816 0 0 0 .195.178c.061.037.117.048.163.03.046-.016.079-.06.099-.128a.774.774 0 0 0 .02-.26 2.565 2.565 0 0 0-.19-.761 2.614 2.614 0 0 0-.39-.687.818.818 0 0 0-.195-.178c-.061-.036-.117-.048-.163-.03-.046.017-.079.061-.099.128a.772.772 0 0 0-.02.26Zm.014-.262c.02-.067.055-.114.103-.132.049-.018.106-.006.168.03.062.037.13.1.198.18.136.163.277.405.39.689.114.283.178.554.19.764a.78.78 0 0 1-.02.261c-.02.068-.055.114-.103.133-.049.018-.106.005-.168-.031a.823.823 0 0 1-.198-.18 2.619 2.619 0 0 1-.39-.689 2.568 2.568 0 0 1-.19-.763.78.78 0 0 1 .02-.262Z" clip-rule="evenodd"/><path fill="#009200" d="M12.458 8.418c.07.025.142 0 .16-.056.02-.055-.02-.12-.09-.144-.07-.025-.141 0-.16.056-.02.055.02.12.09.144Z"/><path fill="currentColor" fill-rule="evenodd" d="M12.525 8.225c-.066-.024-.133 0-.15.052-.019.05.018.112.085.135.065.023.132 0 .15-.052.018-.05-.02-.112-.085-.135Zm-.166.046c.021-.06.098-.086.17-.06.073.026.117.095.096.155-.02.06-.098.085-.17.06-.073-.026-.117-.095-.096-.155Z" clip-rule="evenodd"/><path fill="#009200" d="M12.51 8.221a.106.106 0 0 0 .14-.063.117.117 0 0 0-.07-.144.106.106 0 0 0-.142.063.117.117 0 0 0 .071.144Z"/><path fill="currentColor" fill-rule="evenodd" d="M12.577 8.02a.1.1 0 0 0-.131.06.109.109 0 0 0 .066.134.1.1 0 0 0 .131-.06.109.109 0 0 0-.066-.134Zm-.146.054a.114.114 0 0 1 .151-.067.125.125 0 0 1 .076.153.114.114 0 0 1-.151.068.125.125 0 0 1-.076-.154Z" clip-rule="evenodd"/><path fill="#009200" d="M12.319 8.218a.106.106 0 0 0 .14-.064.117.117 0 0 0-.07-.144.106.106 0 0 0-.14.064.117.117 0 0 0 .07.144Z"/><path fill="currentColor" fill-rule="evenodd" d="M12.387 8.017a.1.1 0 0 0-.132.06.109.109 0 0 0 .066.134.1.1 0 0 0 .132-.06.109.109 0 0 0-.066-.134Zm-.146.054a.114.114 0 0 1 .15-.068.125.125 0 0 1 .076.154.114.114 0 0 1-.15.068.125.125 0 0 1-.076-.154Z" clip-rule="evenodd"/><path fill="#009200" d="M12.396 7.904c.065.022.131 0 .149-.049.017-.05-.021-.108-.086-.13-.065-.023-.131 0-.149.049-.017.049.021.107.086.13Z"/><path fill="currentColor" fill-rule="evenodd" d="M12.456 7.732c-.062-.022-.123 0-.139.045-.016.045.019.1.08.121.062.022.123 0 .14-.045.015-.045-.02-.1-.081-.121Zm-.154.04c.02-.054.09-.077.158-.053.068.023.11.085.09.14-.018.053-.09.076-.157.052-.068-.024-.11-.086-.09-.14Z" clip-rule="evenodd"/><path fill="#009200" d="M12.38 7.739c.065.022.132 0 .15-.049.017-.05-.022-.108-.087-.13-.064-.023-.13 0-.148.048-.018.05.02.108.085.13Z"/><path fill="currentColor" fill-rule="evenodd" d="M12.44 7.566c-.061-.021-.123 0-.139.045-.015.045.02.1.08.122.062.021.124 0 .14-.045.015-.045-.02-.1-.08-.122Zm-.153.04c.018-.054.09-.076.158-.053.067.024.11.086.09.14-.019.054-.09.076-.158.053-.068-.024-.11-.086-.09-.14Z" clip-rule="evenodd"/><path fill="#009200" d="M12.136 8.112a.107.107 0 0 0 .141-.063.117.117 0 0 0-.07-.144.106.106 0 0 0-.142.063.117.117 0 0 0 .071.144Z"/><path fill="currentColor" fill-rule="evenodd" d="M12.204 7.912a.1.1 0 0 0-.131.059.109.109 0 0 0 .066.134.1.1 0 0 0 .131-.059.109.109 0 0 0-.066-.134Zm-.146.053a.114.114 0 0 1 .15-.067.125.125 0 0 1 .077.154.114.114 0 0 1-.151.067.125.125 0 0 1-.076-.154Z" clip-rule="evenodd"/><path fill="#009200" d="M12.175 8.01a.106.106 0 0 0 .141-.063.117.117 0 0 0-.07-.144.107.107 0 0 0-.142.063.117.117 0 0 0 .071.144Z"/><path fill="currentColor" fill-rule="evenodd" d="M12.242 7.81a.1.1 0 0 0-.131.059.109.109 0 0 0 .066.134.1.1 0 0 0 .131-.059.109.109 0 0 0-.066-.134Zm-.146.053a.114.114 0 0 1 .151-.067.125.125 0 0 1 .076.154.114.114 0 0 1-.151.067.125.125 0 0 1-.076-.154Z" clip-rule="evenodd"/><path fill="#009200" d="M12.02 7.934c.07.024.141 0 .16-.056.02-.055-.02-.12-.09-.145-.07-.024-.142 0-.161.056-.02.055.021.12.09.145Z"/><path fill="currentColor" fill-rule="evenodd" d="M12.086 7.74c-.066-.023-.133.001-.15.052-.018.051.02.112.085.136.066.023.133-.001.15-.052.019-.051-.019-.112-.085-.136Zm-.165.047c.02-.06.097-.086.17-.06.073.026.117.094.096.154-.021.06-.098.086-.17.06-.073-.026-.117-.094-.096-.154Z" clip-rule="evenodd"/><path fill="#009200" d="M12.273 7.535c.065.022.131 0 .149-.05.017-.048-.021-.107-.086-.13-.065-.022-.131 0-.149.05-.017.049.021.107.086.13Z"/><path fill="currentColor" fill-rule="evenodd" d="M12.335 7.363c-.062-.022-.123 0-.14.045-.015.045.02.1.081.121.062.021.123 0 .139-.045.016-.045-.019-.1-.08-.121Zm-.154.04c.019-.055.09-.077.158-.053.068.023.11.085.09.14-.018.053-.09.076-.157.052-.068-.024-.11-.086-.09-.14Z" clip-rule="evenodd"/><path fill="#009200" d="M12.04 7.81a.106.106 0 0 0 .14-.064.117.117 0 0 0-.07-.144.106.106 0 0 0-.141.063.117.117 0 0 0 .07.145Z"/><path fill="currentColor" fill-rule="evenodd" d="M12.107 7.609a.1.1 0 0 0-.13.06.109.109 0 0 0 .065.134.1.1 0 0 0 .131-.06.109.109 0 0 0-.066-.134Zm-.146.054a.114.114 0 0 1 .151-.068.125.125 0 0 1 .076.154.114.114 0 0 1-.15.067.125.125 0 0 1-.077-.153Z" clip-rule="evenodd"/><path fill="#009200" d="M11.74 7.943a.106.106 0 0 0 .14-.063.117.117 0 0 0-.07-.144.106.106 0 0 0-.141.063.117.117 0 0 0 .07.144Z"/><path fill="currentColor" fill-rule="evenodd" d="M11.808 7.743a.1.1 0 0 0-.132.059.109.109 0 0 0 .066.134.1.1 0 0 0 .132-.059.109.109 0 0 0-.066-.134Zm-.146.053a.114.114 0 0 1 .15-.067.125.125 0 0 1 .076.154.114.114 0 0 1-.15.067.125.125 0 0 1-.076-.154Z" clip-rule="evenodd"/><path fill="#009200" d="M11.788 7.919a.106.106 0 0 0 .14-.063.117.117 0 0 0-.07-.145.106.106 0 0 0-.141.064.117.117 0 0 0 .07.144Z"/><path fill="currentColor" fill-rule="evenodd" d="M11.856 7.718a.1.1 0 0 0-.132.06.109.109 0 0 0 .066.134.1.1 0 0 0 .132-.06.109.109 0 0 0-.066-.134Zm-.146.054a.114.114 0 0 1 .15-.068.125.125 0 0 1 .076.154.114.114 0 0 1-.15.068.125.125 0 0 1-.076-.154Z" clip-rule="evenodd"/><path fill="#009200" d="M11.848 7.806a.106.106 0 0 0 .141-.063.117.117 0 0 0-.07-.144.106.106 0 0 0-.142.063.117.117 0 0 0 .071.144Z"/><path fill="currentColor" fill-rule="evenodd" d="M11.916 7.605a.1.1 0 0 0-.131.06.109.109 0 0 0 .066.134.1.1 0 0 0 .131-.06.109.109 0 0 0-.066-.134Zm-.146.054a.114.114 0 0 1 .15-.067.125.125 0 0 1 .077.153.114.114 0 0 1-.151.068.125.125 0 0 1-.076-.154Z" clip-rule="evenodd"/><path fill="#009200" d="M13.215 10.85c.241-.083.218-.736-.052-1.46-.27-.725-.684-1.246-.924-1.164-.241.082-.218.736.052 1.46s.684 1.245.924 1.163Z"/><path fill="currentColor" fill-rule="evenodd" d="M12.082 8.715c.01.264.083.607.217.969.135.361.306.672.472.881.083.105.165.184.241.232.076.048.144.064.2.045.057-.02.1-.073.127-.156a.973.973 0 0 0 .033-.325 3.253 3.253 0 0 0-.217-.968 3.328 3.328 0 0 0-.472-.882 1.039 1.039 0 0 0-.24-.232c-.076-.048-.144-.064-.201-.044-.057.019-.1.072-.126.155a.973.973 0 0 0-.034.325Zm.017-.33c.028-.086.073-.145.137-.166.064-.022.138-.003.215.046.079.05.162.13.246.236.168.211.34.523.474.886.135.363.209.708.219.973a.985.985 0 0 1-.035.332c-.028.085-.072.144-.136.166-.064.021-.138.003-.216-.047a1.054 1.054 0 0 1-.245-.236 3.347 3.347 0 0 1-.475-.886 3.268 3.268 0 0 1-.218-.973.988.988 0 0 1 .034-.331Z" clip-rule="evenodd"/><path fill="#009200" d="M13.202 10.04c.044-.022.032-.162-.027-.314s-.143-.257-.187-.236c-.045.021-.033.162.026.313.06.152.143.258.188.236Z"/><path fill="currentColor" fill-rule="evenodd" d="M12.97 9.596a.766.766 0 0 0 .052.203.72.72 0 0 0 .098.18.195.195 0 0 0 .047.045c.014.009.024.01.032.007.007-.004.014-.013.018-.03a.234.234 0 0 0 .002-.069.762.762 0 0 0-.051-.203.72.72 0 0 0-.098-.18.197.197 0 0 0-.047-.045c-.014-.009-.024-.01-.032-.006-.007.003-.014.012-.018.03a.234.234 0 0 0-.002.068Zm-.013-.071c.004-.02.013-.036.028-.044.015-.007.031-.003.047.007a.21.21 0 0 1 .05.049.685.685 0 0 1 .101.185c.03.076.048.15.053.208a.245.245 0 0 1-.003.074c-.004.02-.013.036-.028.043-.015.007-.031.003-.047-.007a.209.209 0 0 1-.051-.048.736.736 0 0 1-.1-.185.778.778 0 0 1-.053-.208.245.245 0 0 1 .003-.074Z" clip-rule="evenodd"/><path fill="#009200" fill-rule="evenodd" d="M13.037 9.748c.362.5.308.81.263 1.071-.111-.306-.169-.499-.53-.998-.362-.5-.17-.837-.14-1.018.053.158.046.446.407.945Z" clip-rule="evenodd"/><path fill="currentColor" fill-rule="evenodd" d="M12.614 8.91c-.053.195-.135.496.163.909.342.471.413.67.513.948l.005.015c.02-.121.04-.254.016-.41-.026-.171-.102-.373-.283-.621-.286-.395-.342-.659-.379-.83l-.017-.077-.018.067Zm-.02-.006c.011-.04.02-.074.026-.104l.02.003c.01.034.02.074.03.12.036.171.092.432.376.823.181.25.258.454.285.628.025.172 0 .315-.021.445v.003l-.02-.002a7.451 7.451 0 0 1-.02-.053c-.099-.277-.17-.474-.51-.943-.303-.419-.219-.726-.165-.92Z" clip-rule="evenodd"/><path fill="#009200" fill-rule="evenodd" d="M13.063 10.144c.361.499.307.809.262 1.07-.11-.306-.168-.498-.53-.997-.362-.5-.169-.838-.14-1.019.053.159.046.447.408.946Z" clip-rule="evenodd"/><path fill="currentColor" fill-rule="evenodd" d="M12.64 9.306c-.054.195-.136.496.163.909.341.47.413.67.512.947l.006.015c.02-.121.039-.253.015-.41-.026-.171-.102-.372-.282-.62-.286-.396-.343-.66-.38-.83a1.039 1.039 0 0 0-.017-.078c-.005.02-.01.043-.018.067Zm-.02-.007c.01-.039.02-.073.025-.103l.02.002c.01.034.02.074.03.12.036.172.092.432.376.824.181.25.259.454.285.627.026.173.001.316-.021.446v.002l-.02-.002a7.451 7.451 0 0 1-.019-.052c-.1-.277-.17-.475-.51-.944-.303-.418-.22-.726-.166-.92Z" clip-rule="evenodd"/><path fill="#009200" fill-rule="evenodd" d="M13.091 10.462c.374.49.326.802.287 1.065-.118-.304-.18-.495-.553-.986-.373-.49-.188-.834-.162-1.015.056.157.055.445.428.936Z" clip-rule="evenodd"/><path fill="currentColor" fill-rule="evenodd" d="M12.65 9.634c-.05.196-.125.499.183.905.352.463.428.66.534.935l.006.015c.018-.122.033-.254.006-.41-.03-.17-.11-.37-.296-.615-.295-.388-.358-.65-.398-.82l-.02-.078-.016.068Zm-.02-.007a.936.936 0 0 0 .022-.104l.02.002c.012.034.021.074.032.12.041.17.103.43.396.814.187.247.269.448.299.621.03.172.008.316-.011.447v.002l-.02-.002a36.009 36.009 0 0 0-.02-.052c-.106-.275-.181-.47-.532-.931-.313-.412-.235-.721-.186-.917Z" clip-rule="evenodd"/><path fill="#009200" d="M13 9.81c.088-.022.074-.259-.03-.53-.104-.27-.259-.473-.346-.451-.088.021-.074.258.03.53.104.27.26.472.347.45Z"/><path fill="currentColor" fill-rule="evenodd" d="M12.576 9.001c.006.095.035.221.087.356.052.135.116.252.178.333.031.04.061.071.088.09.028.02.05.027.069.022.017-.004.032-.02.04-.048a.332.332 0 0 0 .01-.115 1.248 1.248 0 0 0-.086-.356 1.376 1.376 0 0 0-.179-.333.439.439 0 0 0-.088-.09c-.027-.02-.05-.027-.068-.022-.018.004-.032.02-.041.048a.332.332 0 0 0-.01.115Zm-.008-.121c.01-.03.027-.052.053-.059.025-.006.055.004.084.025.03.021.061.054.093.095.063.083.129.202.18.338.053.136.083.264.088.36.003.05 0 .09-.01.121-.01.03-.026.052-.052.059-.026.006-.055-.004-.085-.025a.459.459 0 0 1-.092-.095 1.395 1.395 0 0 1-.181-.338 1.266 1.266 0 0 1-.088-.36.347.347 0 0 1 .01-.121Z" clip-rule="evenodd"/><path fill="#009200" d="M12.844 9.956c.079-.013.078-.204-.002-.427s-.21-.393-.289-.381c-.079.012-.078.203.002.426.08.223.21.394.289.382Z"/><path fill="currentColor" fill-rule="evenodd" d="M12.503 9.284c0 .076.02.178.06.29.04.11.092.208.144.276.026.034.051.06.074.077.024.017.044.024.06.021.016-.003.03-.014.039-.036a.24.24 0 0 0 .013-.091.92.92 0 0 0-.06-.29 1.076 1.076 0 0 0-.143-.276.38.38 0 0 0-.075-.078c-.023-.017-.043-.023-.06-.02-.015.002-.029.014-.038.036a.238.238 0 0 0-.014.09Zm-.003-.1c.01-.023.027-.04.05-.044.023-.003.05.007.075.025a.401.401 0 0 1 .079.082 1.13 1.13 0 0 1 .207.576c0 .04-.005.072-.015.097-.01.024-.026.04-.05.044-.023.004-.049-.006-.074-.025a.396.396 0 0 1-.08-.082 1.098 1.098 0 0 1-.145-.281.936.936 0 0 1-.062-.295.25.25 0 0 1 .015-.096Z" clip-rule="evenodd"/><path fill="#009200" d="M12.589 10.123c.08-.011.083-.202.008-.427-.074-.224-.198-.398-.277-.387-.08.01-.083.202-.009.426.075.225.199.399.278.388Z"/><path fill="currentColor" fill-rule="evenodd" d="M12.267 9.444a.922.922 0 0 0 .053.29c.037.112.086.21.136.28.025.034.05.061.072.079.023.017.043.024.059.022.016-.002.03-.014.04-.036a.24.24 0 0 0 .015-.09.92.92 0 0 0-.053-.291 1.07 1.07 0 0 0-.135-.28.372.372 0 0 0-.072-.078c-.023-.018-.043-.025-.06-.023-.015.003-.029.014-.039.036a.239.239 0 0 0-.016.09Zm0-.1c.01-.023.027-.04.05-.043.024-.003.05.008.074.027a.37.37 0 0 1 .077.083c.05.071.101.171.138.284a.937.937 0 0 1 .054.296.254.254 0 0 1-.017.097c-.01.024-.027.04-.05.043-.024.003-.05-.007-.075-.027a.394.394 0 0 1-.076-.083 1.094 1.094 0 0 1-.139-.284.937.937 0 0 1-.053-.296c0-.04.006-.072.017-.096Z" clip-rule="evenodd"/><path fill="#009200" d="M12.752 9.332c.063-.011.057-.154-.013-.319s-.177-.29-.24-.28c-.063.011-.058.154.012.32.07.164.178.29.24.279Z"/><path fill="currentColor" fill-rule="evenodd" d="M12.464 8.836a.796.796 0 0 0 .177.418.294.294 0 0 0 .06.056c.02.012.035.016.047.014.012-.002.022-.01.029-.027a.165.165 0 0 0 .009-.068.796.796 0 0 0-.177-.418.289.289 0 0 0-.06-.055c-.02-.012-.035-.016-.047-.014-.013.002-.023.01-.03.027a.165.165 0 0 0-.008.067Zm-.01-.075c.009-.019.021-.032.04-.035.02-.004.042.004.063.017a.315.315 0 0 1 .066.06.815.815 0 0 1 .181.429.177.177 0 0 1-.01.073c-.007.018-.02.032-.04.035-.019.003-.04-.004-.061-.018a.315.315 0 0 1-.066-.06.815.815 0 0 1-.182-.428.179.179 0 0 1 .01-.073Z" clip-rule="evenodd"/><path fill="#009200" d="M12.625 9.495c.065-.007.069-.15.01-.321-.06-.17-.16-.303-.225-.296-.065.007-.069.151-.01.321.06.17.16.303.225.296Z"/><path fill="currentColor" fill-rule="evenodd" d="M12.368 8.98a.647.647 0 0 0 .041.218c.03.084.07.159.11.211.02.026.039.047.057.06.018.013.034.018.046.017.013-.001.024-.01.031-.026a.165.165 0 0 0 .014-.067.647.647 0 0 0-.042-.219.792.792 0 0 0-.108-.211.295.295 0 0 0-.058-.06c-.018-.013-.034-.018-.046-.017-.013.002-.024.01-.032.026a.165.165 0 0 0-.013.067Zm-.004-.078c.01-.018.023-.03.043-.032.02-.002.04.006.061.021a.302.302 0 0 1 .063.065.81.81 0 0 1 .112.216c.03.086.044.166.042.225a.18.18 0 0 1-.014.073c-.01.018-.023.03-.043.033-.02.002-.041-.007-.062-.022a.315.315 0 0 1-.062-.064.81.81 0 0 1-.112-.217.664.664 0 0 1-.043-.225.18.18 0 0 1 .015-.073Z" clip-rule="evenodd"/><path fill="#009200" fill-rule="evenodd" d="M12.392 9.008c.104.294.142.557.085.588-.056.03-.185-.184-.289-.478" clip-rule="evenodd"/><path fill="currentColor" fill-rule="evenodd" d="M12.456 9.588c.008.003.014.002.018 0 .005-.002.009-.007.013-.017a.14.14 0 0 0 .007-.038.603.603 0 0 0-.008-.13 2.201 2.201 0 0 0-.101-.39l.015-.009c.052.148.087.288.103.395.008.053.01.1.008.134a.16.16 0 0 1-.01.044.05.05 0 0 1-.02.028.036.036 0 0 1-.031 0 .105.105 0 0 1-.033-.022.483.483 0 0 1-.074-.098 2.042 2.042 0 0 1-.162-.362l.015-.009c.052.147.11.273.162.36.025.042.05.075.07.094.011.01.02.017.028.02Z" clip-rule="evenodd"/><path fill="#009200" d="M12.614 9.152c.065-.007.069-.15.01-.32-.06-.17-.16-.303-.225-.296-.064.007-.069.15-.01.32.06.171.16.303.225.296Z"/><path fill="currentColor" fill-rule="evenodd" d="M12.357 8.638a.647.647 0 0 0 .042.219c.03.084.069.159.109.21.02.027.04.047.057.06.018.014.034.019.046.018.013-.002.024-.01.032-.026a.167.167 0 0 0 .013-.067.792.792 0 0 0-.15-.43.292.292 0 0 0-.058-.06c-.018-.013-.034-.018-.046-.017-.013.001-.023.01-.031.026a.167.167 0 0 0-.014.067Zm-.004-.077c.01-.018.023-.03.043-.033.02-.002.04.007.062.022.02.015.042.037.062.064a.813.813 0 0 1 .155.442.176.176 0 0 1-.015.072c-.01.019-.023.031-.043.033-.02.002-.04-.006-.061-.021a.316.316 0 0 1-.063-.065.813.813 0 0 1-.154-.441c0-.03.005-.055.014-.073Z" clip-rule="evenodd"/><path fill="#009200" d="M12.428 9.277c.064-.005.07-.149.014-.32-.056-.172-.154-.307-.219-.302-.064.006-.07.15-.014.321.056.172.154.307.219.301Z"/><path fill="currentColor" fill-rule="evenodd" d="M12.18 8.755a.651.651 0 0 0 .038.22.8.8 0 0 0 .105.215c.02.026.04.047.057.06.018.014.033.02.046.019.012-.001.023-.009.031-.025a.166.166 0 0 0 .015-.067.654.654 0 0 0-.038-.22.8.8 0 0 0-.105-.214.294.294 0 0 0-.056-.061c-.018-.014-.034-.02-.046-.018-.013 0-.024.008-.032.024a.166.166 0 0 0-.014.067Zm-.002-.076c.01-.018.023-.03.043-.032.02-.002.041.007.061.023.02.015.042.038.062.066a.82.82 0 0 1 .146.445.177.177 0 0 1-.015.073c-.01.018-.024.03-.044.032a.095.095 0 0 1-.06-.023.32.32 0 0 1-.062-.066.823.823 0 0 1-.147-.446.177.177 0 0 1 .016-.072Z" clip-rule="evenodd"/><path fill="#009200" fill-rule="evenodd" d="M12.223 8.61c.103.2.157.385.12.413-.037.03-.15-.11-.253-.31" clip-rule="evenodd"/><path fill="currentColor" fill-rule="evenodd" d="M12.328 9.018c.006 0 .01 0 .011-.002.002-.002.005-.005.006-.012a.103.103 0 0 0 .001-.027.45.45 0 0 0-.018-.092 1.585 1.585 0 0 0-.112-.269l.014-.01c.051.1.091.196.113.272.011.037.018.07.02.096 0 .013 0 .024-.002.034a.04.04 0 0 1-.014.024.027.027 0 0 1-.023.004.074.074 0 0 1-.026-.012.34.34 0 0 1-.062-.062 1.457 1.457 0 0 1-.153-.242l.014-.011c.051.1.105.183.15.239a.325.325 0 0 0 .06.06.097.097 0 0 0 .021.01Z" clip-rule="evenodd"/><path fill="#009200" fill-rule="evenodd" d="M12.3 8.483c.103.199.157.384.12.413-.036.028-.15-.11-.253-.31" clip-rule="evenodd"/><path fill="currentColor" fill-rule="evenodd" d="M12.405 8.89c.006 0 .01 0 .011-.002.002-.002.005-.005.006-.012a.1.1 0 0 0 .002-.028.444.444 0 0 0-.02-.091 1.584 1.584 0 0 0-.111-.27l.014-.01c.051.1.091.197.113.272.011.038.018.07.02.097 0 .012 0 .024-.002.033a.041.041 0 0 1-.014.024.027.027 0 0 1-.023.005.074.074 0 0 1-.026-.012.34.34 0 0 1-.062-.063 1.451 1.451 0 0 1-.153-.242l.014-.01c.052.099.105.183.15.238a.325.325 0 0 0 .06.06.063.063 0 0 0 .021.01Z" clip-rule="evenodd"/><path fill="#009200" fill-rule="evenodd" d="M12.633 8.552c.144.274.219.528.168.567-.052.04-.21-.152-.354-.426" clip-rule="evenodd"/><path fill="currentColor" fill-rule="evenodd" d="M12.778 9.115c.008.001.014 0 .018-.003.004-.003.007-.009.01-.018a.142.142 0 0 0 .001-.04.61.61 0 0 0-.025-.126 2.165 2.165 0 0 0-.156-.37l.014-.01c.072.137.127.27.157.373a.625.625 0 0 1 .027.131.158.158 0 0 1-.003.045.051.051 0 0 1-.017.03.036.036 0 0 1-.03.006.101.101 0 0 1-.035-.017.467.467 0 0 1-.087-.085 1.989 1.989 0 0 1-.212-.332l.014-.01c.071.136.146.252.21.328.031.039.06.067.084.083a.089.089 0 0 0 .03.015Z" clip-rule="evenodd"/><path fill="#009200" fill-rule="evenodd" d="M12.415 8.363c.103.22.157.423.12.454-.036.032-.15-.12-.253-.34" clip-rule="evenodd"/><path fill="currentColor" fill-rule="evenodd" d="M12.521 8.81c.006.002.01 0 .011-.001.003-.002.005-.006.007-.014a.118.118 0 0 0 0-.03.533.533 0 0 0-.018-.101 1.854 1.854 0 0 0-.112-.296l.013-.012c.052.11.091.217.114.3a.556.556 0 0 1 .019.105c0 .014 0 .027-.002.037a.045.045 0 0 1-.013.026.025.025 0 0 1-.023.006.071.071 0 0 1-.026-.014.358.358 0 0 1-.062-.068 1.625 1.625 0 0 1-.153-.266l.014-.011c.051.109.105.201.15.262a.34.34 0 0 0 .06.066c.008.006.015.01.021.011Z" clip-rule="evenodd"/><path fill="#804BFF" fill-rule="evenodd" d="M12.567 7.598c-.072.074.002.203.07.248.076.062.508.47.8.096-.24.007-.697-.51-.87-.344Z" clip-rule="evenodd"/><path fill="currentColor" fill-rule="evenodd" d="M13.228 7.861c.08.045.15.075.208.073h.018l-.011.014a.381.381 0 0 1-.242.154.464.464 0 0 1-.248-.037 1.183 1.183 0 0 1-.304-.197l-.017-.015a.258.258 0 0 1-.091-.117c-.019-.048-.02-.103.02-.144.046-.045.112-.042.184-.017.072.026.154.075.236.129l.067.043c.061.04.122.081.18.114Zm-.655-.256c-.033.033-.033.08-.016.125a.24.24 0 0 0 .085.109l.019.016c.051.044.165.14.298.194a.447.447 0 0 0 .239.036.358.358 0 0 0 .22-.134.51.51 0 0 1-.198-.075c-.059-.033-.12-.074-.182-.115a9.192 9.192 0 0 0-.066-.043 1.206 1.206 0 0 0-.233-.127c-.07-.024-.127-.024-.167.014Z" clip-rule="evenodd"/><path fill="#804BFF" fill-rule="evenodd" d="M12.515 7.382c-.072.074.002.204.07.248.076.062.508.47.8.097-.24.006-.697-.51-.87-.345Z" clip-rule="evenodd"/><path fill="currentColor" fill-rule="evenodd" d="M13.177 7.644c.08.045.151.075.208.073h.018l-.01.014a.382.382 0 0 1-.243.154.464.464 0 0 1-.248-.036 1.182 1.182 0 0 1-.304-.198l-.017-.015a.258.258 0 0 1-.09-.116c-.02-.049-.02-.104.018-.144.048-.045.113-.043.185-.018.072.026.154.075.237.129l.066.044c.061.04.122.08.18.113Zm-.655-.256c-.033.033-.033.08-.016.126a.24.24 0 0 0 .085.108l.019.016c.052.044.165.14.298.195a.447.447 0 0 0 .239.035.358.358 0 0 0 .22-.134.51.51 0 0 1-.198-.075 3.261 3.261 0 0 1-.182-.114l-.066-.044a1.205 1.205 0 0 0-.233-.126c-.07-.025-.127-.025-.166.013Z" clip-rule="evenodd"/><path fill="#804BFF" fill-rule="evenodd" d="M12.45 7.177c-.073.074.002.203.07.248.076.062.508.47.8.097-.24.006-.697-.51-.87-.345Z" clip-rule="evenodd"/><path fill="currentColor" fill-rule="evenodd" d="M13.112 7.44c.079.044.15.074.208.072h.018l-.011.014a.382.382 0 0 1-.243.154.464.464 0 0 1-.248-.037 1.15 1.15 0 0 1-.303-.197l-.018-.015a.257.257 0 0 1-.09-.116c-.019-.05-.02-.104.019-.144.047-.046.113-.043.185-.018.072.026.153.075.236.129l.067.043c.06.04.122.081.18.114Zm-.656-.257c-.032.033-.033.08-.015.125a.24.24 0 0 0 .084.109h.001l.018.016c.052.044.165.14.299.195a.447.447 0 0 0 .239.035.358.358 0 0 0 .22-.134.51.51 0 0 1-.199-.075c-.058-.033-.12-.074-.181-.114a9.189 9.189 0 0 0-.066-.044 1.209 1.209 0 0 0-.233-.126c-.07-.025-.127-.025-.167.013Z" clip-rule="evenodd"/><path fill="#804BFF" fill-rule="evenodd" d="M12.306 6.942c-.072.074.002.203.07.247.077.063.508.47.8.097-.24.007-.697-.51-.87-.344Z" clip-rule="evenodd"/><path fill="currentColor" fill-rule="evenodd" d="M12.968 7.205c.08.045.151.074.208.073h.018l-.01.014a.382.382 0 0 1-.243.154.464.464 0 0 1-.248-.037 1.183 1.183 0 0 1-.304-.198l-.017-.014a.257.257 0 0 1-.09-.117c-.02-.048-.02-.103.018-.144.048-.045.113-.042.185-.017s.154.075.237.129l.066.043c.061.04.122.08.18.114Zm-.655-.257c-.033.034-.033.08-.016.126a.24.24 0 0 0 .085.109c.005.004.011.01.019.015.052.044.165.14.298.195a.447.447 0 0 0 .239.036.358.358 0 0 0 .22-.134.51.51 0 0 1-.198-.075 3.267 3.267 0 0 1-.182-.115l-.066-.043a1.209 1.209 0 0 0-.233-.127c-.07-.024-.127-.024-.166.013Z" clip-rule="evenodd"/><path fill="#804BFF" fill-rule="evenodd" d="M11.748 6.673a.674.674 0 0 1 .617.181c.137.139.287.559.467.71a.55.55 0 0 1-.318-.158c-.24.064-.314.06-.517.018-.28-.058-.475-.201-.498-.36-.03-.153.086-.342.25-.391Z" clip-rule="evenodd"/><path fill="currentColor" fill-rule="evenodd" d="M11.75 6.678a.356.356 0 0 0-.192.152.324.324 0 0 0-.051.229c.011.077.063.15.149.212a.885.885 0 0 0 .34.14m-.246-.733a.663.663 0 0 1 .606.178.78.78 0 0 1 .104.146c.028.047.056.099.085.152l.027.05c.039.07.079.142.12.205.036.053.072.1.11.137a.537.537 0 0 1-.282-.15l-.005-.004-.005.001c-.12.032-.198.047-.271.049a1.06 1.06 0 0 1-.242-.03m-.25-.743-.004-.008a.684.684 0 0 1 .627.184.8.8 0 0 1 .107.15l.085.152.027.05c.038.07.078.141.12.203a.712.712 0 0 0 .128.153l.022.019-.03-.004a.56.56 0 0 1-.32-.156 1.153 1.153 0 0 1-.269.047 1.08 1.08 0 0 1-.247-.03.906.906 0 0 1-.349-.144c-.087-.064-.144-.142-.156-.224a.34.34 0 0 1 .054-.24.372.372 0 0 1 .201-.16l.004.008Z" clip-rule="evenodd"/><path fill="red" d="M12.042 7.047c.064.017.123.012.132-.012.009-.024-.035-.057-.099-.074-.063-.017-.122-.011-.131.013-.01.023.035.056.098.073Z"/><path fill="currentColor" fill-rule="evenodd" d="M11.99 6.956c-.022.002-.035.01-.039.019-.003.01.003.021.02.034a.217.217 0 0 0 .072.034c.03.008.06.01.082.009.023-.002.036-.01.04-.019.003-.009-.003-.021-.02-.034a.217.217 0 0 0-.072-.034.237.237 0 0 0-.082-.009Zm-.003-.01a.258.258 0 0 1 .09.01c.032.008.06.021.079.036.018.014.029.03.023.045-.005.015-.025.023-.05.026a.258.258 0 0 1-.09-.01.235.235 0 0 1-.079-.037c-.018-.014-.029-.03-.023-.045.005-.015.025-.023.05-.025Z" clip-rule="evenodd"/><path fill="#FF0" d="M11.676 7.456c.102.001.197-.07.211-.16.015-.09-.057-.164-.159-.166-.102-.001-.197.07-.211.16-.014.09.057.165.16.166Z"/><path fill="currentColor" fill-rule="evenodd" d="M11.59 7.19a.161.161 0 0 0-.066.101.118.118 0 0 0 .034.103.17.17 0 0 0 .12.047c.05 0 .098-.017.134-.044a.161.161 0 0 0 .066-.101.118.118 0 0 0-.034-.103.17.17 0 0 0-.12-.047.221.221 0 0 0-.134.044Zm-.005-.024a.238.238 0 0 1 .144-.047.18.18 0 0 1 .128.05c.03.032.048.076.04.127a.196.196 0 0 1-.08.125.238.238 0 0 1-.143.047.182.182 0 0 1-.129-.05.144.144 0 0 1-.04-.127.197.197 0 0 1 .08-.125Z" clip-rule="evenodd"/><path fill="currentColor" d="M11.842 7.262c.018.007.037-.001.043-.018a.036.036 0 0 0-.022-.044c-.018-.006-.038.002-.043.019-.006.017.004.036.022.043Z"/><path fill="#FF0" fill-rule="evenodd" d="M11.891 7.194c-.001.045-.049.088-.127.08-.081 0-.153.042-.213.134-.052-.282.046-.355.171-.333.111.01.172.037.17.12Z" clip-rule="evenodd"/><path fill="currentColor" fill-rule="evenodd" d="M11.847 7.116a.275.275 0 0 0-.123-.032c-.06-.01-.113.003-.144.05-.03.046-.042.126-.021.254.058-.082.128-.121.207-.12.075.007.116-.035.117-.073a.1.1 0 0 0-.008-.048.077.077 0 0 0-.028-.031Zm.053.08a.119.119 0 0 0-.01-.056.096.096 0 0 0-.035-.04.29.29 0 0 0-.13-.033c-.064-.011-.123.002-.158.056-.036.054-.046.147-.02.289l.003.021.011-.017c.058-.09.127-.131.205-.13.08.007.133-.038.134-.09Z" clip-rule="evenodd"/><path fill="currentColor" d="M11.49 7.411a.026.026 0 0 0 .035-.015.028.028 0 0 0-.018-.035c-.015-.005-.03.001-.035.015a.028.028 0 0 0 .018.035Z"/></g><defs><clipPath id="a"><path fill="#fff" d="M0 0h24v18H0z"/></clipPath></defs></svg>