<svg xmlns="http://www.w3.org/2000/svg" width="24" height="18" fill="none"><g fill-rule="evenodd" clip-path="url(#a)" clip-rule="evenodd"><path fill="#FFE800" d="M0 0h24v18H0V0Z"/><path fill="#00148E" d="M0 9h24v9H0V9Z"/><path fill="#DA0010" d="M0 13.5h24V18H0v-4.5Z"/><path fill="currentColor" d="m10.11 10.905-2.723 2.869-.045-.06 2.715-2.87.045.06h.007Zm1.89.469-3.556 3.75-.06-.06 3.552-3.75.063.06Z"/><path fill="gray" d="m8.456 15.08-.332.332-.379.286.286-.379.332-.332.093.093Z"/><path fill="currentColor" d="m8.468 15.08-.106-.106-.339.34-.286.379.013.012.38-.286.338-.339Zm-.025 0-.326.325-.326.247.246-.327.325-.325.08.08Z"/><path fill="gray" d="m7.54 13.613-.332.332-.378.286.285-.378.333-.333.093.093Z"/><path fill="currentColor" d="m7.553 13.613-.106-.105-.339.339-.286.379.013.013.38-.287.338-.339Zm-.026 0-.325.326-.326.246.246-.326.325-.326.08.08Z"/><path fill="#FFDF00" d="M7.798 4.305s-.299 8.078.896 8.078 1.794-.85 1.794-.85l-.014-4.44-2.676-2.788Z"/><path fill="currentColor" d="m7.804 4.297 2.68 2.792.013 4.447-.002.003-.008-.006.008.006-.002.002c0 .002-.003.005-.005.008a1.714 1.714 0 0 1-.106.124 2.303 2.303 0 0 1-1.689.72c-.156 0-.284-.132-.39-.353-.107-.222-.194-.539-.264-.918-.14-.758-.215-1.768-.252-2.778a58.023 58.023 0 0 1-.01-3.693 44.943 44.943 0 0 1 .01-.324v-.023h.01l.007-.007Zm.002.031 2.657 2.77.014 4.432-.005.007a1.681 1.681 0 0 1-.105.122 2.283 2.283 0 0 1-1.674.714c-.143 0-.266-.121-.372-.342-.106-.22-.192-.534-.262-.912-.14-.757-.214-1.766-.252-2.776a57.978 57.978 0 0 1-.01-3.691 46.772 46.772 0 0 1 .01-.324Z"/><path fill="#0000C4" d="M8.528 5.059c0 .424-.133 6.475.464 6.475s1.495-.425 1.495-.425l-.014-4.015-1.945-2.035Z"/><path fill="currentColor" d="m8.535 5.052 1.949 2.038.013 4.026-.005.002-.005-.009.005.01h-.003a6.657 6.657 0 0 1-.522.212c-.3.106-.674.213-.975.213-.042 0-.079-.027-.112-.072a.726.726 0 0 1-.089-.196 4.058 4.058 0 0 1-.133-.693c-.072-.574-.111-1.344-.132-2.127a83.972 83.972 0 0 1-.008-3.397h.01l.007-.007Zm.003.032 1.926 2.014.013 4.005-.004.002-.03.013a5.691 5.691 0 0 1-.483.194c-.299.106-.671.212-.968.212-.032 0-.064-.02-.095-.064a.708.708 0 0 1-.087-.19 4.038 4.038 0 0 1-.132-.69c-.072-.573-.111-1.342-.132-2.125a83.767 83.767 0 0 1-.01-3.166l.002-.205Z"/><path fill="#E10000" d="M8.916 5.467c0 .425.076 5.217.675 5.217h.896l-.013-3.59-1.558-1.627Z"/><path fill="currentColor" d="m8.906 5.441 1.578 1.649.014 3.604H9.59a.155.155 0 0 1-.113-.057.564.564 0 0 1-.097-.156 2.718 2.718 0 0 1-.158-.55c-.091-.457-.157-1.07-.204-1.696a45.773 45.773 0 0 1-.113-2.769v-.025Zm.02.05c.002.276.023 1.534.113 2.743.047.625.113 1.237.204 1.693.046.227.098.415.156.546.03.066.06.116.093.15.033.034.066.051.1.051h.885l-.013-3.576-1.538-1.606Z"/><path fill="currentColor" d="m7.732 4.35 2.715 2.868.05-.06L7.78 4.29l-.049.06Z"/><path fill="#FFDF00" d="M6.911 5.96s-.77 7.826 1.54 7.826c1.925 0 1.925-1.234 2.31-1.234l-.385-2.883L6.91 5.96h.002Z"/><path fill="currentColor" d="M6.883 5.95h.04v.009l3.464 3.705.387 2.9h-.013a.19.19 0 0 0-.124.05.764.764 0 0 0-.12.137c-.02.027-.04.057-.061.088-.07.1-.153.22-.264.338-.291.31-.775.62-1.74.62-.586 0-.974-.495-1.227-1.23-.253-.735-.373-1.715-.421-2.693a28.175 28.175 0 0 1 .012-2.691 32.036 32.036 0 0 1 .082-1.201l.001-.015-.016-.018Zm.037.038a13.817 13.817 0 0 0-.026.31c-.017.213-.038.52-.056.886-.036.733-.06 1.711-.012 2.689s.169 1.955.42 2.687c.253.733.636 1.215 1.205 1.215.96 0 1.438-.307 1.724-.614.11-.117.192-.234.262-.334a5.08 5.08 0 0 1 .062-.089.792.792 0 0 1 .124-.142.218.218 0 0 1 .125-.055l-.383-2.867L6.92 5.988Zm1.91 1.284a.021.021 0 0 1-.012.005l.004-.032a.02.02 0 0 0-.01.005.016.016 0 0 0-.002.002V7.25a2.51 2.51 0 0 0 .023-.04l.006-.011a5.037 5.037 0 0 1 .458-.68 5.245 5.245 0 0 1 1.579-1.338l.01.027a5.2 5.2 0 0 0-2.05 2.055.052.052 0 0 1-.007.008Z"/><path fill="#005B00" d="M8.58 6.07c.204.095.333.204.45.332-.232-.05-.353-.069-.556-.164a1.835 1.835 0 0 1-.483-.358c.151.046.385.094.59.19Z"/><path fill="currentColor" d="M8.012 5.89c.12.115.27.252.465.342a1.92 1.92 0 0 0 .538.16 1.342 1.342 0 0 0-.437-.319 2.656 2.656 0 0 0-.452-.15 5.874 5.874 0 0 1-.114-.032Zm.459.352a1.84 1.84 0 0 1-.484-.36l.006-.008.136.038c.138.037.304.082.455.152.204.096.334.205.451.333l.011.012-.017-.003-.06-.013a1.93 1.93 0 0 1-.498-.151Z"/><path fill="red" d="M9.091 6.844c.015.025.002.061-.03.079-.031.017-.069.01-.084-.016-.016-.026-.002-.06.03-.078.031-.018.07-.01.084.015Z"/><path fill="currentColor" d="M9.009 6.832c-.03.017-.043.05-.029.074.014.023.05.03.08.013s.042-.05.028-.074c-.013-.023-.049-.03-.08-.013Zm-.035.077c-.017-.028-.002-.065.031-.083.033-.019.074-.012.09.016s.002.066-.031.084c-.033.018-.074.012-.09-.017Z"/><path fill="#005B00" d="M9.732 5.26a1.807 1.807 0 0 1-.298.51c.05-.25.072-.378.16-.602.088-.224.217-.404.321-.547-.045.164-.094.414-.183.639Z"/><path fill="currentColor" d="M9.903 4.647a2.37 2.37 0 0 0-.305.524 2.695 2.695 0 0 0-.156.579 1.8 1.8 0 0 0 .285-.493c.065-.165.109-.342.145-.49l.03-.12Zm-.314.518c.089-.224.218-.405.322-.548l.008.007c-.012.043-.024.093-.037.147a3.92 3.92 0 0 1-.146.492 1.812 1.812 0 0 1-.299.51l-.008-.006.013-.064c.042-.209.067-.333.147-.538Z"/><path fill="#005B00" d="M9.433 5.248c-.02.224-.065.398-.123.574-.016-.218-.027-.327-.007-.55.02-.225.083-.443.134-.617 0 .15.017.368-.004.593Z"/><path fill="currentColor" d="M9.434 4.683a3.15 3.15 0 0 0-.126.587 2.564 2.564 0 0 0 .005.53 2.44 2.44 0 0 0 .117-.551c.015-.165.01-.326.006-.46l-.002-.106Zm-.134.589a3.26 3.26 0 0 1 .134-.618l.008-.001.003.134a3.84 3.84 0 0 1-.007.46 2.42 2.42 0 0 1-.123.575h-.009l-.004-.055a2.63 2.63 0 0 1-.002-.495Z"/><path fill="#005B00" d="M9.628 5.504a.726.726 0 0 1-.315.233c.103-.188.153-.288.269-.424a.98.98 0 0 1 .338-.249c-.074.115-.176.304-.292.44Z"/><path fill="currentColor" d="m9.932 5.053-.01.016c-.02.03-.04.066-.064.105a2.675 2.675 0 0 1-.229.336.73.73 0 0 1-.316.234l-.008.003.007-.012.026-.049a1.93 1.93 0 0 1 .243-.377c.116-.136.24-.2.34-.25l.011-.006Zm-.023.023a.959.959 0 0 0-.326.243 1.891 1.891 0 0 0-.24.374l-.02.036a.726.726 0 0 0 .304-.229c.085-.1.162-.227.226-.333l.056-.09Z"/><path fill="#005B00" d="M8.646 5.694c.135.163.203.32.254.493-.178-.12-.272-.177-.407-.34-.136-.163-.213-.367-.273-.531.11.094.29.214.426.378Z"/><path fill="currentColor" d="m8.207 5.298.016.013c.029.025.063.052.1.081.102.08.225.178.326.298a1.3 1.3 0 0 1 .255.496l.005.015-.013-.009-.046-.03a1.446 1.446 0 0 1-.362-.31c-.137-.165-.213-.37-.273-.534l-.008-.02Zm.025.036c.059.16.134.354.264.51.123.147.211.207.36.307l.033.023a1.276 1.276 0 0 0-.248-.476c-.1-.12-.222-.215-.323-.295a4.206 4.206 0 0 1-.086-.07Z"/><path fill="#005B00" d="M8.372 6.95c.17.136.26.276.33.434-.215-.09-.329-.13-.498-.266-.17-.136-.273-.32-.355-.467.136.074.352.162.523.299Z"/><path fill="currentColor" d="m7.834 6.636.019.01c.035.02.077.04.122.062.125.062.275.137.401.238.17.136.26.277.332.435l.006.014-.014-.006-.056-.023a1.543 1.543 0 0 1-.445-.244c-.17-.136-.274-.32-.355-.469l-.01-.017Zm.03.03c.08.144.181.318.344.448.153.123.26.167.441.242l.042.016a1.083 1.083 0 0 0-.323-.418 2.192 2.192 0 0 0-.398-.235 4.568 4.568 0 0 1-.106-.054Z"/><path fill="#005B00" d="M9.167 6.875a1.968 1.968 0 0 1-.451.501c.08-.238.116-.36.252-.577.136-.217.33-.396.486-.538-.07.157-.15.396-.287.614Z"/><path fill="currentColor" d="M9.437 6.284a2.55 2.55 0 0 0-.464.517 2.055 2.055 0 0 0-.245.557 1.94 1.94 0 0 0 .433-.485c.1-.16.169-.33.227-.472l.049-.117Zm-.475.512c.136-.218.33-.397.487-.539l.01.005a4.71 4.71 0 0 0-.058.141c-.058.142-.128.314-.229.474a1.974 1.974 0 0 1-.452.503l-.017.013.006-.018.021-.062c.068-.199.108-.318.232-.517Z"/><path fill="#005B00" d="M9.309 6.866a2.1 2.1 0 0 1-.608.289c.186-.192.276-.292.493-.442.217-.149.46-.238.654-.308-.136.12-.32.311-.54.461Z"/><path fill="currentColor" d="M9.821 6.42a2.726 2.726 0 0 0-.624.298c-.197.136-.289.23-.444.391l-.032.033c.193-.06.375-.137.584-.28.16-.11.301-.242.42-.352l.096-.09Zm-.63.289c.217-.15.46-.24.655-.31l.006.01-.119.109c-.118.11-.26.243-.421.353a2.09 2.09 0 0 1-.61.29l-.021.006.015-.016.048-.05a2.54 2.54 0 0 1 .446-.392Z"/><path fill="#005B00" d="M10.773 5.306c-.095.108-.18.173-.272.229.078-.13.116-.197.21-.306.096-.108.205-.185.293-.245-.058.083-.136.213-.231.322Z"/><path fill="currentColor" d="M10.992 4.996c-.086.06-.189.133-.279.236a1.604 1.604 0 0 0-.19.272l-.014.022a1.1 1.1 0 0 0 .261-.222c.07-.08.13-.17.18-.247l.042-.06Zm-.283.231c.096-.109.205-.185.294-.246l.003.005a3.702 3.702 0 0 0-.05.075c-.05.076-.112.167-.182.248a1.12 1.12 0 0 1-.272.23l-.004-.006.02-.033c.065-.109.104-.174.191-.273Z"/><path fill="#005B00" d="M10.566 4.985a1.522 1.522 0 0 1-.179.289c.034-.115.048-.173.103-.289a2.07 2.07 0 0 1 .192-.31c-.028.079-.061.194-.116.31Z"/><path fill="currentColor" d="M10.675 4.69a1.94 1.94 0 0 0-.182.296 1.444 1.444 0 0 0-.1.277 1.505 1.505 0 0 0 .263-.517l.019-.056Zm-.188.296c.055-.116.132-.224.193-.311h.005l-.024.07a1.525 1.525 0 0 1-.271.53h-.005l.009-.03c.027-.096.044-.154.094-.26Z"/><path fill="#005B00" d="M10.884 5.193a.525.525 0 0 1-.237.076c.095-.084.142-.13.237-.183a.71.71 0 0 1 .256-.081c-.065.049-.16.133-.256.188Z"/><path fill="currentColor" d="M11.13 5.01a.692.692 0 0 0-.246.079 1.148 1.148 0 0 0-.23.176.523.523 0 0 0 .23-.075c.07-.04.14-.095.197-.142l.05-.039Zm-.246.073a.712.712 0 0 1 .257-.081v.005a2.533 2.533 0 0 0-.059.046c-.058.046-.128.103-.198.143a.527.527 0 0 1-.239.076h-.006l.007-.005.024-.022c.08-.07.127-.112.214-.162Z"/><path fill="#005B00" d="M9.574 5.801c-.17.102-.31.161-.455.212.155-.123.231-.187.401-.288.17-.102.347-.172.49-.228-.111.079-.266.202-.436.304Z"/><path fill="currentColor" d="M9.984 5.51a3.05 3.05 0 0 0-.462.217 2.872 2.872 0 0 0-.385.276c.138-.05.272-.108.434-.205.125-.075.241-.16.338-.232l.075-.056Zm-.466.212c.17-.102.347-.173.49-.228l.003.006c-.03.02-.062.045-.097.07a4.256 4.256 0 0 1-.339.234c-.17.102-.31.161-.455.212l-.004-.006.04-.031c.13-.103.207-.165.362-.257Z"/><path fill="#005B00" d="M10.069 5.953a1.96 1.96 0 0 1-.617.246c.197-.182.293-.278.517-.414a2.66 2.66 0 0 1 .663-.263c-.142.112-.338.295-.563.431Z"/><path fill="currentColor" d="M10.605 5.536c-.19.054-.42.125-.633.254-.204.123-.301.214-.465.366l-.035.032c.194-.046.378-.11.593-.24.165-.1.314-.224.438-.328.036-.03.07-.059.102-.084Zm-.64.244c.226-.137.47-.208.665-.264l.005.01a5.9 5.9 0 0 0-.124.103c-.124.103-.274.229-.44.33-.224.135-.416.2-.618.245l-.021.005.016-.015.05-.047c.165-.152.263-.243.468-.367ZM8.56 8.157a.018.018 0 0 1-.007.008l-.014-.029a.016.016 0 0 0-.007.008v.002-.04l-.001-.01a3.52 3.52 0 0 1 .058-.705 4.053 4.053 0 0 1 .734-1.688l.024.02a4.018 4.018 0 0 0-.727 1.673 3.619 3.619 0 0 0-.058.757l-.002.004Z"/><path fill="red" d="M9.942 5.64c.015.026.003.062-.03.08-.03.017-.069.01-.084-.016-.016-.026-.002-.06.03-.078.031-.018.07-.011.084.014Z"/><path fill="currentColor" d="M9.86 5.628c-.03.017-.043.05-.029.073.014.024.05.031.08.014s.042-.05.028-.074c-.013-.023-.049-.03-.08-.013Zm-.035.077c-.017-.028-.002-.065.031-.083.033-.019.074-.012.09.016.016.027.002.065-.031.084-.033.018-.074.012-.09-.017Z"/><path fill="red" d="M10.348 5.404c.015.025.002.061-.03.079-.032.017-.07.01-.085-.016-.015-.026-.002-.06.03-.078.032-.018.07-.01.085.015Z"/><path fill="currentColor" d="M10.265 5.393c-.03.017-.042.05-.028.073.014.024.049.03.08.014.03-.017.041-.05.028-.074-.014-.023-.05-.03-.08-.013Zm-.035.077c-.017-.029-.002-.066.031-.084.033-.018.074-.012.09.016.017.028.002.066-.03.084-.034.019-.074.012-.091-.016Z"/><path fill="red" d="M9.217 6.198c.011.02-.009.05-.044.068-.035.017-.072.016-.083-.004-.01-.02.01-.05.045-.068.035-.017.072-.016.082.004Z"/><path fill="currentColor" d="M9.099 6.228c-.008.012-.01.023-.005.032.004.008.015.013.03.014a.102.102 0 0 0 .048-.012.097.097 0 0 0 .038-.032c.008-.012.01-.023.005-.031-.004-.008-.015-.013-.03-.014a.103.103 0 0 0-.048.012.1.1 0 0 0-.038.031Zm-.006-.003a.106.106 0 0 1 .04-.034.11.11 0 0 1 .053-.013c.016.001.03.007.035.018.006.011.003.025-.005.038a.103.103 0 0 1-.04.034.109.109 0 0 1-.053.013c-.016-.001-.03-.007-.035-.018-.007-.012-.004-.026.005-.038Z"/><path fill="red" d="M9.337 6.145c.01.02-.009.05-.044.068-.035.017-.073.015-.083-.005-.011-.02.009-.05.044-.067.035-.018.073-.016.083.004Z"/><path fill="currentColor" d="M9.218 6.177c-.007.011-.01.022-.005.03.005.01.015.015.03.015a.102.102 0 0 0 .049-.011.097.097 0 0 0 .038-.032c.008-.012.01-.024.005-.032s-.015-.013-.03-.014a.102.102 0 0 0-.048.012.1.1 0 0 0-.039.032Zm-.006-.004a.106.106 0 0 1 .041-.034.11.11 0 0 1 .053-.012c.015 0 .029.006.035.017.006.011.003.025-.005.038a.104.104 0 0 1-.04.035.109.109 0 0 1-.053.012c-.016 0-.03-.007-.036-.018-.006-.012-.003-.025.005-.038Z"/><path fill="red" d="M9.266 6.257c.01.02-.009.05-.044.068-.035.018-.072.016-.083-.004-.011-.02.01-.05.044-.067.036-.018.073-.016.083.003Z"/><path fill="currentColor" d="M9.147 6.289c-.008.012-.01.023-.005.031.004.009.015.014.03.015a.102.102 0 0 0 .048-.012.097.097 0 0 0 .038-.032c.008-.012.01-.023.005-.031-.004-.009-.015-.014-.03-.014a.103.103 0 0 0-.048.011.1.1 0 0 0-.038.032Zm-.006-.004a.106.106 0 0 1 .04-.034.11.11 0 0 1 .053-.012c.016 0 .029.006.035.017.006.012.003.026-.005.038a.104.104 0 0 1-.04.035.109.109 0 0 1-.053.012c-.016 0-.03-.006-.035-.018-.007-.011-.004-.025.005-.038Z"/><path fill="red" d="M9.476 6.273c.015.03 0 .068-.037.086-.037.02-.075.008-.09-.026s0-.067.037-.086c.038-.019.075-.008.087.026h.003Z"/><path fill="currentColor" d="M9.439 6.246a.067.067 0 0 0-.05.007.073.073 0 0 0-.035.034.053.053 0 0 0 0 .045.052.052 0 0 0 .034.03.068.068 0 0 0 .05-.007c.033-.017.046-.05.036-.076h-.005v-.003a.044.044 0 0 0-.03-.03Zm.038.022a.055.055 0 0 0-.035-.032.078.078 0 0 0-.057.007.084.084 0 0 0-.041.04.065.065 0 0 0 0 .053.07.07 0 0 0 .04.036.079.079 0 0 0 .058-.007c.04-.02.057-.06.04-.094l-.001-.003h-.004Z"/><path fill="red" d="M9.563 6.183c.011.03 0 .068-.038.087-.037.018-.075.007-.093-.023-.02-.03 0-.071.037-.09.038-.019.075-.004.09.026h.004Z"/><path fill="currentColor" d="M9.554 6.187c-.013-.027-.047-.041-.082-.024a.078.078 0 0 0-.037.038.047.047 0 0 0 .002.044c.017.027.051.038.086.02a.062.062 0 0 0 .036-.075h-.003l-.002-.003Zm.009-.008a.07.07 0 0 0-.096-.026.09.09 0 0 0-.043.044.058.058 0 0 0 .003.054c.02.033.061.044.101.024.04-.02.053-.06.04-.093V6.18h-.005Z"/><path fill="red" d="M9.582 6.225c.015.03 0 .071-.038.086-.037.015-.075.008-.09-.022s0-.068.038-.086c.037-.02.075-.008.09.022Z"/><path fill="currentColor" d="M9.576 6.227c-.013-.026-.047-.037-.082-.02-.036.018-.048.053-.035.079.013.026.047.034.083.02.034-.014.048-.052.034-.079Zm-.087-.03c.04-.02.08-.008.097.025s0 .078-.04.094c-.039.016-.08.009-.097-.025-.017-.033 0-.074.04-.094Z"/><path fill="#0000C4" d="M7.681 6.785c0 .412-.77 4.943 1.157 6.178.77.411 1.925-.412 1.925 0l-.385-3.295-2.697-2.883Z"/><path fill="currentColor" d="m7.67 6.757 2.719 2.906.38 3.256a.172.172 0 0 1 .005.044l-.022.001-.005-.04a.078.078 0 0 0-.04-.052c-.03-.017-.075-.02-.135-.014-.095.01-.22.045-.363.084l-.117.032a3.24 3.24 0 0 1-.627.116 1.174 1.174 0 0 1-.632-.117c-.486-.311-.8-.829-1-1.435-.198-.606-.283-1.302-.307-1.972-.024-.67.012-1.314.054-1.816.02-.249.043-.463.06-.628v-.005c.018-.166.03-.281.03-.332v-.028Zm3.07 6.112-.373-3.196-2.675-2.86c-.003.06-.014.166-.029.306v.006c-.018.165-.04.378-.06.626a15.364 15.364 0 0 0-.055 1.814c.025.669.109 1.363.307 1.966.199.603.51 1.115.989 1.422.19.102.404.127.62.114.215-.012.43-.064.623-.115l.115-.031c.144-.04.271-.075.367-.085a.264.264 0 0 1 .148.016.07.07 0 0 1 .024.017Z"/><path fill="#E10000" d="M8.452 7.609c0 .411-.385 3.706.772 4.531.77.823 2.697.6 2.697.6l-1.542-3.07-1.927-2.06Z"/><path fill="currentColor" d="m8.46 7.6 1.928 2.062 1.55 3.087-.016.002-.001-.011.001.01h-.001l-.005.001-.016.002a5.6 5.6 0 0 1-.292.02 6.17 6.17 0 0 1-.748-.014c-.578-.047-1.255-.197-1.644-.61-.291-.21-.485-.573-.612-1.004-.127-.433-.187-.936-.211-1.426-.025-.49-.013-.966.005-1.346l.028-.478c.008-.135.014-.234.014-.287h.012l.008-.007Zm.002.036 1.907 2.039 1.534 3.055a6.162 6.162 0 0 1-1.041.007c-.578-.047-1.248-.197-1.63-.605l-.002-.002c-.286-.204-.478-.561-.604-.992-.127-.43-.187-.931-.211-1.42a14.07 14.07 0 0 1 .006-1.344c.009-.184.019-.347.027-.476.007-.115.013-.205.014-.262ZM6.893 5.925l3.555 3.75.063-.06-3.555-3.746-.06.06-.003-.004Z"/><path fill="#CECECC" d="m6.345 5.481.226.04.066.066c-.009 0 .067.067-.026.16-.093.092-.225-.04-.225-.04s.04.225.173.358c.133.133.292.106.292.106s-.152-.124-.04-.226c.111-.102.16-.026.16-.026l.132.133.093-.094-.531-.531-.04-.226-.342-.057.062.336v.001Z"/><path fill="currentColor" d="m6.279 5.14.349.058.04.227.532.533-.097.098-.136-.135V5.92l-.002-.002a.063.063 0 0 0-.034-.021c-.024-.006-.063 0-.118.05a.11.11 0 0 0-.04.076.134.134 0 0 0 .018.072.266.266 0 0 0 .06.073h.001l.006.005H6.85v-.002.003a.058.058 0 0 1-.007 0 .353.353 0 0 1-.09-.004.367.367 0 0 1-.198-.103.64.64 0 0 1-.137-.23.94.94 0 0 1-.036-.128v-.002l.002-.001h-.003l-.001-.01.007.008.001.001a.196.196 0 0 0 .02.018.303.303 0 0 0 .055.035c.023.01.047.018.072.018a.1.1 0 0 0 .072-.032c.046-.046.05-.085.044-.112a.113.113 0 0 0-.015-.036l-.003-.005v-.003l-.065-.065-.228-.04.001-.003-.063-.34Zm.111.575a.748.748 0 0 0 .035.12.63.63 0 0 0 .136.227.36.36 0 0 0 .282.107l-.001-.001a.309.309 0 0 1-.056-.07.14.14 0 0 1-.02-.075.116.116 0 0 1 .042-.08m-.167-.353.001.002.003.005a.12.12 0 0 1 .013.034c.007.03.002.07-.045.117a.109.109 0 0 1-.077.034.165.165 0 0 1-.074-.018.309.309 0 0 1-.072-.05"/><path fill="#CECECC" d="m6.87 3.904.273.424.345.093-.225.146.411-.013.187.133.066-.107-.187-.133-.145-.413-.04.28-.213-.307-.473-.104v.001Z"/><path fill="currentColor" d="m6.865 3.9.479.105.208.3.041-.284.15.424.189.135-.07.112-.189-.134-.423.013.23-.148-.34-.092-.274-.425v-.007Zm.011.009.269.416.352.095-.222.144.4-.013.185.131.063-.1-.185-.133-.142-.4-.04.274-.216-.312-.464-.102Z"/><path fill="#E10000" d="M7.98 4.158c0 .023-.03.042-.065.042-.034 0-.066-.02-.066-.042 0-.022.03-.043.066-.043.036 0 .065.02.065.043Zm-.093.089c0 .403.313 2.113.339 2.154.001.05-.072.072-.107.01-.099-.195-.312-1.8-.32-2.174-.004-.154.056-.167.125-.163.056.002.125.041.125.089 0 .056-.087.097-.162.084Z"/><path fill="currentColor" d="M7.84 4.102c-.022.02-.036.059-.033.135.003.187.058.682.125 1.154.033.236.07.467.103.65.017.092.034.172.05.235.014.064.028.11.04.133.016.029.04.037.06.034a.04.04 0 0 0 .035-.04 31.677 31.677 0 0 1-.179-.942c-.082-.483-.16-1.011-.16-1.213h.006l.001-.007a.17.17 0 0 0 .105-.015c.03-.016.05-.038.05-.063 0-.02-.015-.04-.039-.056a.164.164 0 0 0-.08-.026c-.034-.002-.064 0-.085.02Zm.054.153c.002.206.079.727.16 1.204a31.555 31.555 0 0 0 .157.854 2.06 2.06 0 0 0 .02.086l.002.001v.002c0 .029-.02.05-.045.054-.026.004-.056-.008-.074-.04v-.001a.729.729 0 0 1-.042-.136 4.623 4.623 0 0 1-.05-.235 17.76 17.76 0 0 1-.103-.651 13.708 13.708 0 0 1-.125-1.155c-.003-.078.011-.122.036-.146.026-.024.06-.026.095-.024a.177.177 0 0 1 .086.028c.025.017.045.04.045.067 0 .032-.025.058-.057.074a.186.186 0 0 1-.105.018Zm-.021-.12c-.011.007-.017.015-.017.024 0 .008.006.016.017.023a.082.082 0 0 0 .043.012.079.079 0 0 0 .041-.012c.011-.006.017-.015.017-.023 0-.01-.006-.018-.016-.025a.077.077 0 0 0-.042-.012.08.08 0 0 0-.043.012Zm-.007-.012a.092.092 0 0 1 .05-.014.09.09 0 0 1 .049.014c.013.009.022.021.022.036 0 .014-.01.026-.023.034a.091.091 0 0 1-.048.014.095.095 0 0 1-.05-.014c-.013-.008-.023-.02-.023-.034 0-.015.01-.027.023-.036Z"/><path fill="#0000C4" d="M8.1 4.558c-.01.022-.049.034-.082.025-.032-.009-.053-.036-.041-.058.01-.023.05-.035.084-.026.034.009.051.035.04.059Zm-.132.065c.103.81-.244 2.058-.241 2.107-.023.05-.105.054-.106-.017-.017-.047.383-1.175.27-2.122.072-.155.135-.152.199-.132.052.016.097.073.074.12-.028.057-.132.076-.196.044Z"/><path fill="currentColor" d="M7.897 4.592c.056.474-.015.992-.099 1.398a9.573 9.573 0 0 1-.12.506l-.01.042a7.026 7.026 0 0 0-.04.167.032.032 0 0 0 0 .005v.002c0 .034.02.048.039.05a.06.06 0 0 0 .052-.031v-.008l.003-.015a2.1 2.1 0 0 1 .025-.112l.023-.102c.03-.136.07-.322.107-.532.073-.42.134-.933.083-1.337l.007-.001.004-.006c.03.015.071.018.107.01.036-.007.066-.025.078-.05.01-.02.006-.045-.008-.066a.121.121 0 0 0-.062-.046c-.032-.01-.061-.015-.09 0-.03.014-.063.05-.1.126Zm.079.043c.049.403-.012.912-.085 1.327a11.675 11.675 0 0 1-.13.634l-.014.064a2.089 2.089 0 0 0-.014.07v.002a.073.073 0 0 1-.07.042c-.027-.002-.049-.021-.05-.059v-.009c0-.003 0-.008.002-.014a.78.78 0 0 1 .01-.045l.028-.11.011-.042c.033-.127.078-.302.12-.505.083-.406.155-.924.098-1.397V4.59c.037-.078.072-.118.108-.135.036-.018.07-.011.102-.001a.133.133 0 0 1 .069.05c.015.023.022.051.009.078-.016.03-.052.05-.09.06a.19.19 0 0 1-.104-.007Zm.035-.129c-.014.005-.024.012-.029.021a.028.028 0 0 0 .004.029c.007.01.02.018.035.022a.083.083 0 0 0 .044-.001c.014-.005.024-.012.028-.02a.028.028 0 0 0-.002-.03.058.058 0 0 0-.034-.022.084.084 0 0 0-.046.001Zm-.003-.011a.1.1 0 0 1 .055-.002.07.07 0 0 1 .04.026c.008.012.01.027.003.04a.062.062 0 0 1-.038.03.1.1 0 0 1-.053 0 .073.073 0 0 1-.041-.025c-.009-.012-.012-.026-.005-.04a.063.063 0 0 1 .039-.03Z"/><path fill="#E10000" d="M7 5.681c0 .038-.037.075-.082.075-.045 0-.082-.037-.082-.075 0-.037.037-.067.082-.067.045 0 .08.03.08.067H7Zm-.12.15c0 .671.395 3.521.425 3.593 0 .082-.087.12-.132.015-.123-.327-.39-3-.4-3.623-.005-.259.07-.277.157-.274.07.004.153.072.153.15 0 .09-.108.162-.202.14Z"/><path fill="currentColor" d="M6.828 5.59c-.026.032-.044.097-.042.226.006.311.075 1.134.159 1.922.041.393.086.777.129 1.083.021.153.042.287.06.392a1.6 1.6 0 0 0 .052.221c.022.05.05.06.068.055.019-.004.038-.027.038-.063a71.733 71.733 0 0 1-.223-1.572c-.102-.804-.2-1.686-.2-2.022v-.017l.016.004c.043.01.09-.001.126-.026.036-.024.06-.06.06-.1a.13.13 0 0 0-.046-.094.16.16 0 0 0-.095-.043c-.043-.002-.077.002-.102.033Zm-.02-.017c.033-.042.08-.045.123-.043.04.002.08.021.112.05a.156.156 0 0 1 .054.113c0 .05-.03.094-.071.122a.192.192 0 0 1-.131.032c.003.346.1 1.21.2 2.004a71.633 71.633 0 0 0 .197 1.424 4.863 4.863 0 0 0 .026.144v.005c0 .045-.023.082-.058.09-.036.01-.074-.015-.098-.07a1.519 1.519 0 0 1-.053-.226c-.02-.106-.04-.24-.061-.393a34.971 34.971 0 0 1-.13-1.085c-.083-.787-.152-1.611-.158-1.923-.002-.13.016-.203.048-.244Zm.111.054c-.04 0-.07.027-.07.055 0 .029.032.061.07.061.033 0 .06-.023.068-.048h-.002v-.013c0-.029-.026-.055-.066-.055Zm.091.041c-.007-.04-.045-.067-.09-.067-.05 0-.096.033-.096.08 0 .046.044.089.095.089.052 0 .096-.043.096-.088v-.014H7.01Z"/><path fill="#0000C4" d="M7.204 6.028c-.015.036-.064.055-.105.042-.041-.013-.066-.055-.051-.09.015-.037.064-.058.107-.045.043.014.065.055.05.093Zm-.17.107c.106 1.283-.374 3.275-.372 3.353-.031.08-.135.088-.134-.026-.02-.073.523-1.875.408-3.375.097-.249.177-.246.258-.215.065.025.121.113.09.19-.038.09-.17.123-.25.073Z"/><path fill="currentColor" d="M6.945 6.087c.058.751-.05 1.577-.168 2.224-.06.323-.122.603-.168.805l-.016.067-.04.176a1.51 1.51 0 0 0-.016.1v.002c0 .055.024.076.047.077.023.002.053-.015.068-.051v-.013l.005-.023.014-.078.02-.1.033-.163c.043-.217.1-.514.153-.848.106-.667.2-1.485.146-2.125l.01-.002.006-.008a.17.17 0 0 0 .133.015.152.152 0 0 0 .102-.084.124.124 0 0 0-.008-.106.152.152 0 0 0-.077-.071c-.04-.016-.076-.022-.113.001-.04.025-.082.083-.13.205Zm.1.065c.05.64-.043 1.45-.149 2.112-.053.334-.11.63-.153.849l-.032.161a34.193 34.193 0 0 0-.04.213v.004c-.017.042-.054.068-.09.066-.036-.003-.063-.035-.063-.093V9.45c0-.006 0-.013.002-.022l.014-.072.04-.176.015-.066c.047-.203.109-.482.168-.805.12-.647.226-1.472.168-2.221v-.002l.001-.002c.049-.124.094-.189.14-.217.046-.03.09-.02.132-.003a.17.17 0 0 1 .086.079.14.14 0 0 1 .009.12.174.174 0 0 1-.116.096.197.197 0 0 1-.133-.007Zm.106-.208c-.039-.012-.082.008-.095.038-.012.03.009.068.046.08.038.011.08-.007.093-.037.013-.032-.005-.069-.044-.08Zm-.113.032c.017-.042.073-.064.12-.05.048.015.073.061.055.105-.018.042-.073.062-.118.048-.045-.014-.075-.06-.057-.103Zm6.852 4.929 2.719 2.869.048-.06-2.718-2.87-.049.06Zm-1.89.469 3.555 3.75.06-.06-3.551-3.75-.064.06Z"/><path fill="gray" d="m15.544 15.08.333.332.378.286-.285-.379-.333-.332-.093.093Z"/><path fill="currentColor" d="m15.531 15.08.106-.106.34.34.285.379-.012.012-.38-.286-.339-.339Zm.026 0 .325.325.327.247-.247-.327-.325-.325-.08.08Z"/><path fill="gray" d="m16.459 13.613.332.332.379.286-.286-.378-.332-.333-.093.093Z"/><path fill="currentColor" d="m16.446 13.613.106-.105.339.339.286.379-.013.013-.38-.287-.338-.339Zm.025 0 .326.326.326.246-.246-.326-.325-.326-.08.08Z"/><path fill="#FFDF00" d="M16.202 4.305s.298 8.078-.896 8.078c-1.195 0-1.794-.85-1.794-.85l.013-4.44 2.677-2.788Z"/><path fill="currentColor" d="M16.194 4.297 13.515 7.09l-.014 4.447.002.003.008-.006-.008.006.002.002.005.008a1.714 1.714 0 0 0 .106.124 2.302 2.302 0 0 0 1.689.72c.156 0 .285-.132.39-.353.108-.222.194-.539.264-.918.14-.758.215-1.768.252-2.778a57.852 57.852 0 0 0 .01-3.693l-.006-.256-.003-.068v-.023h-.01l-.008-.007Zm-.002.031-2.657 2.77-.013 4.432a.827.827 0 0 0 .026.033 2.253 2.253 0 0 0 .419.386c.297.212.743.424 1.338.424.143 0 .267-.121.373-.342.105-.22.191-.534.261-.912.14-.757.215-1.766.252-2.776a57.809 57.809 0 0 0 .01-3.691 44.63 44.63 0 0 0-.007-.257l-.002-.067Z"/><path fill="#0000C4" d="M15.47 5.059c0 .424.134 6.475-.463 6.475-.598 0-1.495-.425-1.495-.425l.013-4.015 1.946-2.035Z"/><path fill="currentColor" d="M15.464 5.052 13.516 7.09l-.014 4.026.006.002.004-.009-.004.01h.003l.007.004a2.963 2.963 0 0 0 .14.062c.094.04.225.093.374.146.3.106.675.213.975.213.042 0 .08-.027.112-.072a.728.728 0 0 0 .09-.196c.053-.167.097-.406.133-.693.071-.574.11-1.344.131-2.127a83.906 83.906 0 0 0 .008-3.397h-.01l-.007-.007Zm-.003.032-1.925 2.014-.014 4.005.005.002.03.013a5.691 5.691 0 0 0 .482.194c.3.106.671.212.968.212.033 0 .065-.02.096-.064a.708.708 0 0 0 .086-.19 4.08 4.08 0 0 0 .133-.69c.071-.573.11-1.342.131-2.125.035-1.294.018-2.624.01-3.166a43.071 43.071 0 0 1-.002-.205Z"/><path fill="#E10000" d="M15.082 5.466c0 .425-.075 5.218-.675 5.218h-.896l.014-3.59 1.557-1.628Z"/><path fill="currentColor" d="m15.093 5.44-1.577 1.65-.014 3.604h.906c.041 0 .08-.021.114-.057a.565.565 0 0 0 .096-.156 2.72 2.72 0 0 0 .158-.551c.092-.457.157-1.07.204-1.695a45.77 45.77 0 0 0 .113-2.769v-.025Zm-.02.051a46.07 46.07 0 0 1-.113 2.742c-.047.626-.112 1.238-.204 1.693a2.696 2.696 0 0 1-.156.547.544.544 0 0 1-.093.15c-.032.034-.065.05-.099.05h-.886l.014-3.576 1.537-1.606Z"/><path fill="currentColor" d="m16.267 4.35-2.715 2.868-.05-.06 2.716-2.868.049.06Z"/><path fill="#005B00" d="M14.124 6.565s.76.977 1.128 1.731c.367.757.795 1.91.795 1.91s-.244-1.135-.706-2.045c-.606-1.144-1.217-1.53-1.217-1.596Z"/><path fill="currentColor" d="m14.128 6.562-.004.003.004-.003.002.003.006.008.025.032.01.014.061.058.002.003c.067.063.162.152.275.275.228.248.533.63.836 1.203a8.5 8.5 0 0 1 .527 1.364 11.254 11.254 0 0 1 .177.668l.002.01v.003l-.003.002-.004.003-.005-.014-.015-.037-.053-.141c-.046-.12-.111-.288-.188-.479a20.45 20.45 0 0 0-.535-1.238 9.28 9.28 0 0 0-.701-1.148 16.255 16.255 0 0 0-.382-.524.887.887 0 0 1-.038-.042.058.058 0 0 1-.005-.01.023.023 0 0 1-.002-.009v-.014l.008.01Zm.083.11.041.054c.077.104.184.25.302.419.236.338.519.771.702 1.149.184.378.383.855.536 1.238a37.017 37.017 0 0 1 .236.607 10.124 10.124 0 0 0-.165-.613 8.497 8.497 0 0 0-.526-1.362 5.634 5.634 0 0 0-.835-1.202c-.113-.122-.207-.211-.274-.275l-.002-.002a2.411 2.411 0 0 1-.015-.014Zm1.837 3.533-.004.003.008-.005-.004.002Z"/><path fill="#005B00" d="M14.098 5.79s.849 1.207 1.237 2.103c.387.897.818 2.242.818 2.242s-.21-1.294-.7-2.377c-.647-1.366-1.36-1.897-1.355-1.969Z"/><path fill="currentColor" d="m14.102 5.786-.004.003.004-.003.003.004.007.01.027.04.012.017.07.074.002.003c.076.081.184.196.312.35.259.313.6.788.923 1.472.245.542.42 1.136.534 1.595a12.23 12.23 0 0 1 .166.78v.003l-.005.001-.005.002-.005-.015a5.97 5.97 0 0 0-.068-.209l-.19-.56a23.274 23.274 0 0 0-.555-1.458c-.194-.447-.503-.973-.764-1.387a20.653 20.653 0 0 0-.423-.644.839.839 0 0 1-.043-.052.067.067 0 0 1-.006-.012.025.025 0 0 1-.002-.01l.002-.016.008.012Zm.093.135a15.979 15.979 0 0 1 .38.581c.261.414.57.94.765 1.388.193.45.398 1.01.554 1.458a39.057 39.057 0 0 1 .24.712 12.213 12.213 0 0 0-.153-.706 9.535 9.535 0 0 0-.533-1.593 6.929 6.929 0 0 0-.921-1.469 7.074 7.074 0 0 0-.312-.35l-.003-.003-.017-.018Zm1.958 4.214-.005.002.01-.003-.005.001Z"/><path fill="#005B00" d="M14.831 4.595s.6 1.789.784 2.895c.182 1.107.293 2.63.293 2.63s.116-1.279-.13-2.636c-.339-1.737-.972-2.833-.947-2.889Z"/><path fill="currentColor" d="M14.835 4.595h-.004.005l.001.005.005.016.02.058.008.025.055.125.002.005c.061.138.148.333.245.58.198.498.442 1.207.612 2.076.122.68.155 1.34.157 1.829a11.155 11.155 0 0 1-.023.752l-.003.042-.001.011v.004l-.006-.003-.005-.002v-.005l-.001-.012-.004-.05a40.696 40.696 0 0 0-.073-.833 28.633 28.633 0 0 0-.215-1.73c-.092-.552-.288-1.275-.46-1.86a34.827 34.827 0 0 0-.29-.927 1.644 1.644 0 0 1-.031-.083.106.106 0 0 1-.004-.016v-.011l.006-.01.005.014Zm.064.194a29.46 29.46 0 0 1 .26.839c.173.585.37 1.31.461 1.863.091.554.164 1.212.215 1.73a45.854 45.854 0 0 1 .073.83 11.214 11.214 0 0 0 .022-.742 10.684 10.684 0 0 0-.157-1.826 11.717 11.717 0 0 0-.61-2.073c-.097-.246-.184-.44-.245-.578a7.144 7.144 0 0 0-.02-.043Zm1.01 5.33-.006-.001.01.005-.005-.003Z"/><path fill="#005B00" d="M14.291 4.514s.833 1.588 1.157 2.667c.323 1.081.627 2.64.627 2.64s-.044-1.416-.463-2.73c-.561-1.669-1.339-2.506-1.32-2.577Z"/><path fill="currentColor" d="m14.296 4.511-.005.003.005-.003.003.005.007.014.027.052.011.022.072.105.002.004a9.172 9.172 0 0 1 1.2 2.377c.21.657.325 1.34.388 1.86a12.17 12.17 0 0 1 .072.809l.002.047v.016h-.011l-.004-.018-.01-.052c-.01-.044-.022-.11-.04-.19a43.491 43.491 0 0 0-.139-.655 26.308 26.308 0 0 0-.435-1.725c-.162-.54-.45-1.206-.699-1.737a26.846 26.846 0 0 0-.408-.836 1.26 1.26 0 0 1-.043-.071.09.09 0 0 1-.005-.015.025.025 0 0 1 0-.012l.003-.014.008.014Zm.09.175.046.09c.083.166.197.399.321.665.249.532.538 1.2.7 1.74.162.54.319 1.2.435 1.725a45.018 45.018 0 0 1 .177.836 12.26 12.26 0 0 0-.07-.793c-.064-.519-.18-1.2-.389-1.857a9.164 9.164 0 0 0-.877-1.886c-.13-.21-.241-.373-.32-.487l-.003-.004-.02-.03Zm1.689 5.135h-.006l.012.001h-.006Z"/><path fill="#005B00" d="M15.29 5.02s.414 1.71.519 2.73c.103 1.02.132 2.398.132 2.398s.144-1.114 0-2.37c-.206-1.614-.673-2.714-.65-2.758Z"/><path fill="currentColor" d="M15.294 5.02h-.004.004l.002.005.003.014.013.056.006.024.04.123v.004a12.972 12.972 0 0 1 .586 2.533 10.873 10.873 0 0 1 .007 2.322l-.004.038-.001.01v.002l-.005-.003-.004-.003v-.015l-.001-.046a32.277 32.277 0 0 0-.026-.755 29.168 29.168 0 0 0-.105-1.581c-.052-.51-.182-1.192-.298-1.747a38.937 38.937 0 0 0-.207-.916.556.556 0 0 1-.014-.06l.001-.01.004-.009.003.014Zm.044.184.023.1c.04.175.095.421.153.699.117.555.247 1.238.299 1.749.051.51.085 1.11.105 1.582a47.506 47.506 0 0 1 .026.754l.013-.137a10.856 10.856 0 0 0-.02-2.175 12.96 12.96 0 0 0-.41-1.966 16.619 16.619 0 0 0-.175-.562l-.002-.005a20.302 20.302 0 0 1-.012-.039Zm.603 4.944-.004-.003.008.007-.004-.004Z"/><path fill="#005B00" d="M14.197 5.066s.805 1.36 1.13 2.312c.325.952.646 2.344.646 2.344s-.078-1.29-.497-2.445c-.56-1.464-1.294-2.143-1.28-2.21Z"/><path fill="currentColor" d="m14.2 5.064-.004.002.005-.002.002.004.007.011.026.045.011.02.068.087.003.004c.075.096.182.232.307.41.252.362.576.898.855 1.63.21.579.334 1.19.406 1.658a10.96 10.96 0 0 1 .087.732l.003.043.001.01v.004h-.001.001l-.011.001h.006-.006l-.004-.015a22.462 22.462 0 0 0-.641-2.328c-.163-.476-.445-1.053-.687-1.512a22.216 22.216 0 0 0-.396-.719 1.07 1.07 0 0 1-.041-.06.076.076 0 0 1-.006-.013.022.022 0 0 1 0-.011l.002-.014.008.013Zm.087.15.044.077c.081.143.192.343.313.572.242.46.525 1.038.688 1.514.162.476.324 1.062.444 1.53a38.578 38.578 0 0 1 .184.744 10.814 10.814 0 0 0-.086-.717 9.004 9.004 0 0 0-.404-1.655 7.517 7.517 0 0 0-1.161-2.038l-.003-.003a3.645 3.645 0 0 1-.019-.025Z"/><path fill="#005B00" d="M14.045 6.014s.85 1.079 1.237 1.905c.387.827.819 2.084.819 2.084s-.21-1.231-.7-2.227c-.647-1.254-1.361-1.692-1.356-1.762Z"/><path fill="currentColor" d="m14.05 6.01-.005.004.004-.004.003.003a1.115 1.115 0 0 0 .035.045l.011.015.07.065.002.002c.076.07.184.17.312.306.259.276.6.699.923 1.326.246.499.42 1.056.535 1.488a10.74 10.74 0 0 1 .156.686l.007.041.002.01v.004l-.004.002-.005.002-.005-.014-.015-.041a26.317 26.317 0 0 0-.244-.676 19.43 19.43 0 0 0-.554-1.353c-.194-.412-.503-.888-.764-1.261a16.68 16.68 0 0 0-.423-.578.88.88 0 0 1-.043-.047.057.057 0 0 1-.006-.01.022.022 0 0 1-.002-.01L14.041 6l.008.01Zm.091.12.047.061c.086.114.204.275.335.462.26.373.57.849.764 1.262.194.414.398.936.554 1.353a34.688 34.688 0 0 1 .242.667 8.892 8.892 0 0 0-.153-.67 8.172 8.172 0 0 0-.534-1.487 5.757 5.757 0 0 0-.922-1.323 5.895 5.895 0 0 0-.311-.306l-.003-.002-.019-.018Zm1.96 3.873-.005.002.01-.004-.005.002Z"/><path fill="#005B00" d="M14.155 5.519s.782 1.268 1.122 2.186c.34.92.7 2.283.7 2.283s-.144-1.292-.577-2.404c-.574-1.405-1.254-1.995-1.245-2.065Z"/><path fill="currentColor" d="m14.16 5.515-.005.003.005-.003.002.004.006.01.026.043.01.018.065.08.003.002c.071.087.172.21.291.375.241.332.555.832.842 1.535.216.556.361 1.157.451 1.62a12.19 12.19 0 0 1 .12.727l.005.043.002.012v.003h-.002.002l-.01.002.005-.001-.005.002-.005-.016a6.998 6.998 0 0 0-.012-.045l-.045-.167c-.04-.142-.095-.341-.162-.57a23.887 23.887 0 0 0-.477-1.485c-.17-.459-.45-1.005-.688-1.437a21.216 21.216 0 0 0-.388-.674 1.293 1.293 0 0 1-.04-.056.075.075 0 0 1-.005-.012.026.026 0 0 1-.001-.01l.002-.016.008.013Zm.085.142.042.07c.079.134.187.321.306.538.238.432.518.978.689 1.438.17.46.345 1.03.478 1.487a41.28 41.28 0 0 1 .203.722 12.427 12.427 0 0 0-.117-.708 9.749 9.749 0 0 0-.451-1.618c-.287-.702-.6-1.2-.84-1.533a8.514 8.514 0 0 0-.291-.374l-.003-.003-.016-.02Z"/><path fill="#005B00" d="M15.002 4.622s.502 1.751.627 2.82c.123 1.07.155 2.534.155 2.534s.18-1.213.007-2.527c-.247-1.684-.816-2.775-.79-2.827Z"/><path fill="currentColor" d="M15.006 4.622h-.004.004l.002.005.004.015.016.057.007.025.048.123.002.005c.053.136.129.328.213.57.17.49.374 1.185.497 2.028.087.658.085 1.29.062 1.758a10.325 10.325 0 0 1-.066.757l-.001.01v.004l-.006-.003-.005-.002v-.017c0-.011 0-.027-.002-.048a28.26 28.26 0 0 0-.03-.8c-.023-.5-.062-1.133-.123-1.668-.063-.534-.22-1.238-.36-1.81a33.163 33.163 0 0 0-.238-.906 1.409 1.409 0 0 1-.027-.081.1.1 0 0 1-.003-.016l.001-.011.005-.01.004.015Zm.053.19a38.356 38.356 0 0 1 .214.82c.141.57.298 1.277.36 1.812.062.535.101 1.169.125 1.669a40.95 40.95 0 0 1 .03.798l.017-.148c.014-.135.03-.327.042-.56a9.928 9.928 0 0 0-.062-1.755 11.098 11.098 0 0 0-.496-2.024c-.084-.242-.16-.434-.213-.57l-.002-.004-.015-.039Zm.725 5.164-.005-.002.01.005-.005-.003Z"/><path fill="#005B00" d="M14.312 4.187s.733 1.649.999 2.75c.264 1.103.49 2.681.49 2.681s.02-1.415-.327-2.757c-.47-1.708-1.183-2.604-1.162-2.674Z"/><path fill="currentColor" d="m14.318 4.185-.005.001.005-.001.002.004.006.014a8.7 8.7 0 0 1 .034.078l.065.11.002.004A9.694 9.694 0 0 1 15.48 6.86c.174.672.255 1.362.294 1.883a12.8 12.8 0 0 1 .034.813v.063l-.007-.001h-.006l-.002-.018-.008-.052a41.697 41.697 0 0 0-.135-.857 27.674 27.674 0 0 0-.344-1.754c-.133-.55-.382-1.237-.599-1.787a28.482 28.482 0 0 0-.357-.865 1.63 1.63 0 0 1-.038-.075.096.096 0 0 1-.005-.015.025.025 0 0 1 0-.012l.004-.014.007.016Zm.079.18.04.095c.073.172.173.412.281.687.217.55.467 1.238.6 1.79.132.551.254 1.222.344 1.754a45.454 45.454 0 0 1 .133.846c0-.04 0-.095-.002-.162a12.755 12.755 0 0 0-.031-.633c-.039-.521-.12-1.21-.293-1.881A9.68 9.68 0 0 0 14.417 4.4l-.002-.004-.018-.03ZM15.8 9.619h-.006l.012.001-.006-.001Z"/><path fill="#005B00" d="M15.48 5.144s.316 1.642.361 2.615c.045.973-.005 2.281-.005 2.281s.208-1.05.136-2.249c-.113-1.54-.516-2.606-.492-2.647Z"/><path fill="currentColor" d="M15.484 5.145h-.004.004l.001.004.003.014.01.054.004.023.032.118.002.004c.036.13.087.314.142.543.112.465.241 1.117.298 1.888a9.826 9.826 0 0 1-.133 2.238l-.002.006v.006l-.005-.003-.003-.003v-.014l.002-.044c0-.038.003-.092.005-.161.004-.138.008-.332.012-.556a27.3 27.3 0 0 0-.014-1.505 16.808 16.808 0 0 0-.198-1.671 35.405 35.405 0 0 0-.145-.846 1.828 1.828 0 0 1-.02-.091c0-.004 0-.008.002-.01l.005-.007.002.013Zm.033.177.017.094c.03.17.071.405.114.671.084.533.175 1.187.197 1.674.022.487.021 1.057.014 1.506a42.718 42.718 0 0 1-.017.716 9.695 9.695 0 0 0 .085-.622c.043-.411.077-.973.041-1.571-.056-.77-.185-1.42-.297-1.884-.055-.23-.106-.413-.142-.542l-.002-.005-.01-.037Zm.32 4.718-.004-.003.007.007-.004-.004Z"/><path fill="#005B00" d="M14.218 4.866s.734 1.422 1 2.395c.264.975.489 2.385.489 2.385s.02-1.288-.327-2.472c-.469-1.503-1.183-2.242-1.162-2.308Z"/><path fill="currentColor" d="m14.223 4.864-.005.003.005-.003.002.004.007.012.023.047.01.02.065.093.002.004c.071.102.172.246.288.435.235.38.53.942.766 1.694.173.593.255 1.211.293 1.681a10.296 10.296 0 0 1 .034.778v.015H15.7h.006-.006v-.004l-.003-.012-.007-.046a33.04 33.04 0 0 0-.136-.765 21.766 21.766 0 0 0-.343-1.558c-.133-.486-.383-1.084-.6-1.56a22.437 22.437 0 0 0-.356-.75 1.196 1.196 0 0 1-.039-.063.073.073 0 0 1-.004-.013.021.021 0 0 1 0-.012l.004-.013.006.013Zm.079.156.04.082c.073.148.173.356.281.595.217.477.467 1.076.6 1.563.132.488.254 1.084.344 1.559a35.864 35.864 0 0 1 .134.757c0-.037 0-.087-.002-.15a11.004 11.004 0 0 0-.031-.572 8.647 8.647 0 0 0-.293-1.678 7.415 7.415 0 0 0-.764-1.692c-.116-.188-.217-.332-.288-.434l-.003-.003-.018-.027Z"/><path fill="#FFDF00" d="M17.089 5.96s.77 7.826-1.54 7.826c-1.925 0-1.925-1.234-2.31-1.234l.385-2.883 3.467-3.709h-.002Z"/><path fill="currentColor" d="M17.117 5.95h-.04v.009l-3.464 3.705-.387 2.9h.013a.19.19 0 0 1 .124.05c.04.032.078.08.12.137.02.027.04.057.061.088.07.1.153.22.264.338.291.31.776.62 1.74.62.586 0 .974-.495 1.226-1.23.254-.735.374-1.715.422-2.693.048-.979.024-1.957-.012-2.691a32.409 32.409 0 0 0-.076-1.136l-.006-.065-.001-.015.016-.018Zm-.037.038.006.061.02.249c.017.213.038.52.056.886.036.733.06 1.711.012 2.689s-.169 1.955-.42 2.687c-.253.733-.636 1.215-1.205 1.215-.96 0-1.438-.307-1.724-.614a2.854 2.854 0 0 1-.262-.334 5.08 5.08 0 0 0-.062-.089.792.792 0 0 0-.124-.142.218.218 0 0 0-.125-.055l.383-2.867 3.445-3.686Z"/><path fill="#0000C4" d="M16.319 6.785c0 .412.77 4.943-1.157 6.178-.77.411-1.925-.412-1.925 0l.385-3.295 2.697-2.883Z"/><path fill="currentColor" d="m16.33 6.757-2.719 2.906-.38 3.256a.172.172 0 0 0-.005.044l.022.001.005-.04a.078.078 0 0 1 .04-.052c.03-.017.075-.02.135-.014.095.01.22.044.363.084l.117.032c.192.051.41.103.627.116.218.013.437-.013.632-.117.486-.311.8-.829 1-1.435.198-.606.283-1.302.307-1.972.024-.67-.012-1.314-.054-1.816-.02-.249-.043-.463-.06-.628v-.005a4.556 4.556 0 0 1-.03-.332v-.028Zm-3.07 6.112.373-3.196 2.675-2.86c.003.06.014.166.029.306v.006c.018.165.04.378.06.626.043.502.079 1.145.055 1.814-.025.669-.109 1.363-.307 1.966s-.51 1.115-.989 1.422c-.19.102-.404.127-.62.114a3.186 3.186 0 0 1-.623-.115 18.08 18.08 0 0 1-.115-.031 2.546 2.546 0 0 0-.367-.085.264.264 0 0 0-.148.016.109.109 0 0 0-.024.017Z"/><path fill="#E10000" d="M15.548 7.609c0 .411.385 3.706-.772 4.531-.77.823-2.697.6-2.697.6l1.542-3.071 1.927-2.06Z"/><path fill="currentColor" d="m15.54 7.6-1.928 2.062-1.55 3.087.016.002.001-.011-.001.01h.001l.005.001.016.002.063.006c.054.004.132.01.229.014.193.008.458.01.748-.014.578-.047 1.255-.197 1.644-.61.291-.21.485-.573.612-1.004.127-.433.187-.936.211-1.426.025-.49.013-.966-.005-1.346l-.028-.478c-.008-.135-.014-.234-.014-.287h-.012l-.008-.007Zm-.002.036L13.63 9.675l-1.534 3.055h.005a3.745 3.745 0 0 0 .29.02c.193.008.458.01.746-.013.578-.047 1.248-.197 1.63-.605l.002-.002c.286-.204.478-.561.604-.992.127-.43.187-.931.211-1.42a14.13 14.13 0 0 0-.006-1.344 35.534 35.534 0 0 0-.027-.476 8.985 8.985 0 0 1-.014-.262Zm1.569-1.711-3.555 3.75-.064-.06 3.555-3.746.064.06v-.004Z"/><path fill="#CECECC" d="m17.654 5.48-.225.04-.067.067c.01-.001-.066.066.027.159s.225-.04.225-.04-.04.225-.173.358c-.133.134-.292.107-.292.107s.151-.124.04-.226c-.112-.103-.16-.027-.16-.027l-.132.133-.094-.093.532-.532.04-.225.342-.057-.063.336Z"/><path fill="currentColor" d="m17.72 5.14-.349.058-.04.227-.533.533.098.098.135-.135V5.92l.002-.002a.063.063 0 0 1 .034-.021c.025-.006.064 0 .119.05a.11.11 0 0 1 .04.076.134.134 0 0 1-.019.072.264.264 0 0 1-.06.073l-.006.005h.007v-.002.003h.002a.218.218 0 0 0 .025.002c.017 0 .041 0 .07-.005a.366.366 0 0 0 .197-.104.639.639 0 0 0 .138-.23.94.94 0 0 0 .036-.128v-.002l-.003-.001h.003l.002-.01-.007.008-.002.001-.004.004a.327.327 0 0 1-.07.049.159.159 0 0 1-.073.018.103.103 0 0 1-.072-.032c-.046-.046-.05-.085-.044-.112a.11.11 0 0 1 .013-.032l.003-.004a.083.083 0 0 0 .002-.005V5.59l.001-.002.064-.065.228-.04V5.48l.063-.34Zm-.112.575a.654.654 0 0 1-.034.12.634.634 0 0 1-.136.227.36.36 0 0 1-.282.107v-.001a.304.304 0 0 0 .057-.07.14.14 0 0 0 .019-.075.116.116 0 0 0-.042-.08m.168-.353-.002.002a.118.118 0 0 0-.016.039c-.006.03-.001.07.046.117.024.024.05.034.076.034a.165.165 0 0 0 .075-.018.307.307 0 0 0 .071-.05"/><path fill="#CECECC" d="m17.13 3.904-.273.423-.345.093.225.146-.411-.013-.187.133-.066-.106.186-.134.146-.412.04.28.213-.307.473-.104Z"/><path fill="currentColor" d="m17.135 3.9-.479.105-.208.3-.041-.284-.15.424-.189.135.07.112.189-.134.423.013-.23-.148.34-.092.274-.425v-.007Zm-.011.009-.269.416-.352.095.222.144-.4-.013-.184.131-.064-.1.185-.133.142-.4.04.274.216-.312.464-.102Z"/><path fill="#E10000" d="M16.023 4.159c0 .023.03.042.065.042.034 0 .066-.02.066-.042 0-.022-.03-.043-.066-.043-.036 0-.065.02-.065.043Zm.093.089c0 .403-.313 2.113-.339 2.154-.001.05.072.072.107.01.099-.195.312-1.8.32-2.174.004-.154-.056-.167-.125-.163-.056.002-.125.041-.125.089 0 .056.087.097.162.084Z"/><path fill="currentColor" d="M16.165 4.102c.02.02.035.059.032.135-.003.187-.059.682-.125 1.154-.033.236-.07.467-.103.65a4.581 4.581 0 0 1-.05.235.728.728 0 0 1-.04.133c-.017.029-.04.037-.06.034-.02-.004-.035-.019-.035-.04a31.579 31.579 0 0 0 .179-.942c.082-.483.16-1.011.16-1.213h-.006l-.001-.007a.173.173 0 0 1-.105-.015c-.03-.016-.05-.038-.05-.063 0-.02.015-.04.039-.056a.164.164 0 0 1 .08-.026c.034-.002.064 0 .085.02Zm-.055.153c-.002.206-.079.727-.16 1.204a32.269 32.269 0 0 1-.157.854 1.983 1.983 0 0 1-.02.085l-.002.002v.002c0 .029.02.05.045.054.026.004.055-.008.074-.04v-.001a.725.725 0 0 0 .042-.136 4.68 4.68 0 0 0 .05-.235c.033-.184.07-.415.103-.651.066-.473.121-.968.125-1.155.002-.078-.011-.122-.037-.146-.025-.024-.06-.026-.094-.024a.176.176 0 0 0-.086.028c-.025.017-.045.04-.045.067 0 .032.025.058.057.074.03.016.069.023.105.018Zm.021-.12c.011.007.017.015.017.024 0 .008-.006.016-.017.023a.082.082 0 0 1-.043.012.079.079 0 0 1-.041-.012c-.011-.006-.017-.015-.017-.023 0-.01.006-.018.016-.025a.077.077 0 0 1 .042-.012.08.08 0 0 1 .043.012Zm.007-.012a.093.093 0 0 0-.05-.014.09.09 0 0 0-.05.014c-.012.009-.02.021-.02.036 0 .014.009.026.021.034.013.009.03.014.05.014a.095.095 0 0 0 .049-.014c.013-.008.023-.02.023-.034 0-.015-.01-.027-.023-.036Z"/><path fill="#0000C4" d="M15.9 4.558c.01.022.049.034.082.025.032-.009.053-.036.041-.058-.01-.023-.05-.035-.084-.026-.034.009-.051.035-.04.059Zm.132.065c-.103.81.244 2.058.241 2.107.024.05.105.054.106-.017.017-.047-.383-1.175-.27-2.122-.072-.155-.135-.152-.199-.132-.052.016-.097.073-.074.12.028.057.132.076.196.044Z"/><path fill="currentColor" d="M16.103 4.592c-.057.474.015.992.098 1.398.042.203.087.379.12.506l.011.042.029.11a.867.867 0 0 1 .011.061v.003c0 .034-.02.048-.04.05a.055.055 0 0 1-.051-.031l-.001-.008a2.242 2.242 0 0 0-.013-.064l-.014-.063-.023-.102c-.03-.136-.07-.322-.108-.532-.073-.42-.134-.933-.082-1.337l-.007-.001-.005-.006a.169.169 0 0 1-.106.01c-.036-.007-.066-.025-.079-.05-.01-.02-.006-.045.009-.066a.121.121 0 0 1 .062-.046c.032-.01.06-.015.09 0 .03.014.063.05.099.126Zm-.08.043c-.048.403.012.912.085 1.327.037.21.077.396.107.533l.023.101a7.2 7.2 0 0 1 .028.134v.002a.073.073 0 0 0 .07.042c.027-.002.05-.021.05-.059v-.009l-.001-.014a6.62 6.62 0 0 0-.038-.156l-.012-.041a9.696 9.696 0 0 1-.12-.505c-.083-.406-.154-.924-.098-1.397V4.59c-.037-.078-.072-.118-.107-.135-.036-.018-.07-.011-.103-.001a.133.133 0 0 0-.068.05c-.016.023-.022.051-.009.078.015.03.051.05.09.06a.19.19 0 0 0 .104-.007Zm-.034-.129c.014.005.024.012.028.021.005.009.003.02-.004.029a.062.062 0 0 1-.034.022.083.083 0 0 1-.045-.001c-.013-.005-.023-.012-.027-.02a.028.028 0 0 1 .002-.03.058.058 0 0 1 .034-.022.084.084 0 0 1 .046.001Zm.003-.011a.1.1 0 0 0-.055-.002.069.069 0 0 0-.04.026.039.039 0 0 0-.004.04.062.062 0 0 0 .038.03.1.1 0 0 0 .054 0 .074.074 0 0 0 .04-.025.035.035 0 0 0 .005-.04.063.063 0 0 0-.038-.03Z"/><path fill="#E10000" d="M17.002 5.68c0 .038.037.076.079.076.045 0 .082-.038.082-.075 0-.038-.037-.068-.082-.068-.045 0-.08.03-.08.068Zm.112.15a43.204 43.204 0 0 1-.42 3.593c0 .083.087.12.132.015.123-.326.39-3 .4-3.622.005-.26-.07-.278-.157-.274-.07.004-.153.071-.153.15 0 .09.108.161.202.139h-.004Z"/><path fill="currentColor" d="M17.192 5.573c.032.04.05.114.048.243-.006.312-.075 1.137-.159 1.924-.041.393-.087.778-.13 1.084a9.84 9.84 0 0 1-.06.393c-.02.106-.037.184-.053.226-.024.056-.062.08-.098.071-.035-.008-.059-.045-.059-.09V9.42a43.19 43.19 0 0 0 .419-3.574.192.192 0 0 1-.126-.032.151.151 0 0 1-.072-.123c0-.044.023-.084.055-.112a.186.186 0 0 1 .112-.05c.043-.003.09 0 .123.043Zm-.09.248a.165.165 0 0 1-.113-.028c-.036-.025-.06-.061-.06-.1a.13.13 0 0 1 .046-.094.16.16 0 0 1 .095-.044c.042-.001.077.003.102.034.026.033.043.098.042.227-.006.31-.075 1.134-.159 1.921-.041.393-.087.778-.13 1.084a9.885 9.885 0 0 1-.06.391c-.02.106-.037.182-.052.222-.021.05-.049.059-.067.055-.02-.005-.038-.028-.039-.064.19-1.192.33-2.39.42-3.593h-.007l-.002-.014h-.016v.003Zm-.113-.14c0-.046.041-.08.091-.08.05 0 .096.033.096.08 0 .046-.044.088-.095.088a.093.093 0 0 1-.064-.027.087.087 0 0 1-.028-.06Zm.091-.054c-.04 0-.065.026-.065.054 0 .015.007.03.02.042.012.012.029.02.046.02.038 0 .069-.032.069-.062 0-.028-.029-.054-.07-.054Z"/><path fill="#0000C4" d="M16.796 6.028c.015.036.064.055.105.042.041-.013.066-.055.051-.091-.015-.036-.064-.058-.107-.044-.043.013-.065.055-.05.093Zm.17.107c-.106 1.282.374 3.274.372 3.352.031.08.135.089.134-.025.02-.074-.523-1.875-.408-3.376-.097-.248-.177-.246-.258-.214-.065.024-.122.113-.09.189.037.09.17.124.25.074Z"/><path fill="currentColor" d="M17.054 6.087c-.057.751.05 1.577.169 2.224a18.737 18.737 0 0 0 .183.872l.04.176a1.448 1.448 0 0 1 .016.1v.002c0 .055-.024.076-.046.077-.024.002-.053-.015-.068-.051l-.001-.013a3.914 3.914 0 0 0-.019-.102l-.02-.1a29.512 29.512 0 0 1-.185-1.01c-.107-.667-.2-1.485-.147-2.125l-.01-.002-.005-.008a.17.17 0 0 1-.134.015.152.152 0 0 1-.102-.084.124.124 0 0 1 .009-.106.152.152 0 0 1 .076-.071c.04-.016.076-.022.114.001.039.025.082.083.13.205Zm-.099.065c-.05.64.043 1.45.149 2.112.053.334.11.63.152.849l.033.161.02.101a4.115 4.115 0 0 1 .02.112v.004c.017.042.054.068.09.066.036-.003.063-.035.063-.093a.327.327 0 0 0-.003-.036 1.632 1.632 0 0 0-.014-.071l-.04-.177a22.615 22.615 0 0 1-.183-.871c-.119-.647-.225-1.472-.168-2.221v-.004c-.05-.124-.095-.189-.14-.217-.047-.03-.091-.02-.132-.003a.17.17 0 0 0-.086.079.141.141 0 0 0-.01.12c.021.05.067.082.117.096a.193.193 0 0 0 .132-.007Zm-.107-.208c.04-.012.083.008.095.038.013.03-.008.068-.046.08-.037.011-.08-.007-.092-.037-.014-.032.004-.069.043-.08Zm.114.032c-.018-.042-.074-.064-.121-.05-.047.015-.073.061-.054.105.017.042.072.062.118.048.045-.014.074-.06.056-.103Z"/><path fill="#E10000" d="M10.765 15.846a1.102 1.102 0 0 0 1.155 0V12.55h-.77c.385 1.235.385 2.472-.387 3.295h.002Z"/><path fill="currentColor" d="M11.135 12.54h.797v3.312l-.006.003a1.113 1.113 0 0 1-1.164.002h-.025l.018-.019c.768-.818.77-2.05.385-3.283l-.005-.015Zm-.353 3.303a1.09 1.09 0 0 0 1.127-.004v-3.277h-.743c.379 1.226.379 2.456-.384 3.28Z"/><path fill="#0000C4" d="M11.375 12.624c0 2.324-.558 2.84-.558 3.308.232 0 .387-.218.558-.517.232-.467.254-2.827.232-2.79h-.232Z"/><path fill="currentColor" d="M11.462 15.16c-.023.11-.049.199-.079.258-.085.15-.167.28-.257.374a.425.425 0 0 1-.309.149h-.009v-.01c0-.118.036-.24.088-.39l.04-.113a7.61 7.61 0 0 0 .151-.457c.14-.477.279-1.186.279-2.347v-.01h.242a.01.01 0 0 1 .009.005.022.022 0 0 1 .002.007l.001.018.003.07v.265c-.003.223-.011.53-.027.852-.016.322-.04.66-.074.946a4.66 4.66 0 0 1-.06.384Zm.139-2.527v.012a9.66 9.66 0 0 1 .002.334c-.002.223-.01.529-.025.85-.016.322-.04.66-.075.946a4.585 4.585 0 0 1-.06.382 1.121 1.121 0 0 1-.076.253 1.87 1.87 0 0 1-.254.369.41.41 0 0 1-.286.143c.002-.112.035-.228.086-.375l.04-.113a7.01 7.01 0 0 0 .152-.458c.14-.478.279-1.186.28-2.343h.216Z"/><path fill="#0000C4" d="M10.91 12.625c-.012 1.357-.588 2.614-.48 2.892.124.25.48-.57.944-.105.233-.464.255-2.824.233-2.79h-.697v.003Z"/><path fill="currentColor" d="M11.461 15.16a1.061 1.061 0 0 1-.078.256l-.006.012-.009-.01c-.114-.114-.221-.148-.319-.14a.549.549 0 0 0-.269.114 1.94 1.94 0 0 0-.098.075l-.015.011a.957.957 0 0 1-.097.07c-.03.018-.057.03-.083.027-.027-.003-.048-.02-.064-.053v-.001a.357.357 0 0 1-.012-.153 1.86 1.86 0 0 1 .038-.231c.027-.123.065-.268.107-.43l.06-.234c.132-.518.28-1.171.285-1.849v-.011h.704a.01.01 0 0 1 .01.002.01.01 0 0 1 .001.003 14.06 14.06 0 0 1-.095 2.159 4.58 4.58 0 0 1-.06.382Zm-.542-2.529c-.006.678-.153 1.33-.285 1.847l-.06.234c-.042.162-.08.307-.107.429a2.043 2.043 0 0 0-.038.229.341.341 0 0 0 .01.144c.015.029.032.04.05.042.02.002.043-.006.072-.023a.935.935 0 0 0 .11-.08c.03-.025.064-.051.099-.076a.567.567 0 0 1 .278-.119c.101-.007.21.028.324.139.026-.057.05-.14.071-.241a4.6 4.6 0 0 0 .06-.382c.034-.285.058-.623.074-.944a23.456 23.456 0 0 0 .027-1.117 1.688 1.688 0 0 0-.003-.082h-.682Z"/><path fill="#FFDF00" d="M10.962 12.427c0 1.526-.534 1.628-.534 2.035.232 0 .533-.223.534-.202.233-.307.255-1.858.233-1.833h-.233Z"/><path fill="currentColor" d="M11.047 14.094a.585.585 0 0 1-.078.17l-.013.017v-.013c-.002 0-.003 0-.004.002a.623.623 0 0 0-.037.02l-.015.008c-.03.017-.07.04-.114.062a.86.86 0 0 1-.358.11h-.007v-.008c0-.104.034-.188.084-.279a3.38 3.38 0 0 1 .06-.104c.039-.063.081-.134.124-.219.133-.265.266-.671.266-1.434v-.007h.24c.004 0 .006.001.007.002a.013.013 0 0 1 .002.006l.002.012.002.046a10.157 10.157 0 0 1-.027.734 6.08 6.08 0 0 1-.074.623 2.12 2.12 0 0 1-.06.252Zm-.086.172Zm.23-1.832v.006l.002.046a10.125 10.125 0 0 1-.027.733 6.06 6.06 0 0 1-.073.62c-.018.094-.037.18-.06.25a.587.587 0 0 1-.073.162h-.003a.657.657 0 0 0-.065.034c-.03.017-.07.039-.113.061a.865.865 0 0 1-.343.108.546.546 0 0 1 .082-.264l.06-.102c.039-.064.082-.135.124-.22.134-.268.267-.675.268-1.434h.22Z"/><path fill="#FFDF00" d="M10.498 12.427c-.012.891-.575 1.65-.466 1.833.125.162.466-.307.93 0 .233-.307.255-1.858.233-1.833h-.697Z"/><path fill="currentColor" d="M11.047 14.094a.585.585 0 0 1-.079.17l-.004.006-.006-.004c-.23-.151-.428-.112-.586-.053l-.094.037a2.105 2.105 0 0 1-.112.042.19.19 0 0 1-.079.01.092.092 0 0 1-.061-.037v-.001c-.016-.025-.018-.06-.013-.1a.757.757 0 0 1 .037-.145c.025-.075.062-.164.102-.264l.06-.149c.129-.324.272-.735.278-1.18v-.007h.705l.006.002a.013.013 0 0 1 .003.006l.002.012.002.046v.175c-.003.146-.01.348-.027.56-.015.211-.04.433-.074.622a2.12 2.12 0 0 1-.06.252Zm.143-1.66v.006a4.352 4.352 0 0 1 .002.22 9.42 9.42 0 0 1-.026.558c-.015.212-.04.433-.074.621-.017.094-.037.18-.06.25a.593.593 0 0 1-.072.16c-.232-.15-.434-.109-.593-.05-.034.012-.065.025-.094.037l-.017.007a.908.908 0 0 1-.094.035.176.176 0 0 1-.072.008.077.077 0 0 1-.052-.03c-.012-.021-.015-.05-.01-.09a.753.753 0 0 1 .036-.142c.025-.075.061-.163.102-.262l.06-.15c.128-.323.272-.734.28-1.178h.684Z"/><path fill="#E10000" d="M13.234 15.846a1.103 1.103 0 0 1-1.155 0V12.55h.77c-.385 1.235-.385 2.472.387 3.295h-.002Z"/><path fill="currentColor" d="M12.865 12.54h-.797v3.312l.006.003a1.113 1.113 0 0 0 1.164.002h.025l-.018-.019c-.768-.818-.77-2.05-.385-3.283l.005-.015Zm.353 3.303a1.09 1.09 0 0 1-1.127-.004v-3.277h.743c-.379 1.226-.379 2.456.384 3.28Z"/><path fill="#0000C4" d="M12.625 12.624c0 2.324.558 2.84.558 3.308-.233 0-.388-.218-.558-.517-.232-.467-.255-2.827-.232-2.79h.232Z"/><path fill="currentColor" d="M12.539 15.16c.023.11.048.199.078.258.085.15.167.28.257.374.09.093.19.149.31.149h.008v-.01c0-.118-.035-.24-.087-.39l-.04-.113a7.61 7.61 0 0 1-.152-.457c-.14-.477-.278-1.186-.278-2.347v-.01h-.243a.01.01 0 0 0-.006.003.009.009 0 0 0-.002.002.022.022 0 0 0-.002.007l-.002.018-.002.07a23.488 23.488 0 0 0 .027 1.117c.015.322.04.66.074.946.017.144.037.274.06.384Zm-.14-2.527v.012a9.66 9.66 0 0 0-.002.334c.002.223.01.529.026.85.016.322.04.66.074.946.017.143.037.273.06.382.022.109.048.196.076.253a1.9 1.9 0 0 0 .255.369.41.41 0 0 0 .286.143 1.227 1.227 0 0 0-.087-.375 7.686 7.686 0 0 1-.192-.571c-.14-.477-.278-1.186-.279-2.343H12.4Z"/><path fill="#0000C4" d="M13.09 12.625c.012 1.357.588 2.614.479 2.892-.124.25-.48-.57-.944-.105-.232-.464-.255-2.824-.232-2.79h.697v.003Z"/><path fill="currentColor" d="M12.539 15.16c.023.109.049.197.078.256l.006.012.01-.01c.114-.114.22-.148.318-.14a.549.549 0 0 1 .27.114c.034.024.067.05.098.075l.014.011a.957.957 0 0 0 .097.07c.03.018.058.03.083.027.027-.003.048-.02.065-.053v-.001a.355.355 0 0 0 .012-.153 1.862 1.862 0 0 0-.039-.231 11.736 11.736 0 0 0-.107-.43l-.06-.234c-.132-.518-.279-1.171-.284-1.849v-.011h-.704a.01.01 0 0 0-.01.002.01.01 0 0 0-.002.003 14.06 14.06 0 0 0 .095 2.159c.017.143.037.273.06.382Zm.542-2.529c.007.678.154 1.33.285 1.847l.06.234c.043.162.08.307.107.429.02.089.033.165.038.229a.341.341 0 0 1-.01.144c-.015.029-.031.04-.05.042-.019.002-.042-.006-.071-.023a.935.935 0 0 1-.095-.07l-.015-.01a2.367 2.367 0 0 0-.1-.076.567.567 0 0 0-.278-.119c-.1-.007-.21.028-.324.139a1.185 1.185 0 0 1-.07-.241 4.6 4.6 0 0 1-.06-.382 14.137 14.137 0 0 1-.075-.944 23.43 23.43 0 0 1-.026-1.117l.002-.07v-.012h.682Z"/><path fill="#FFDF00" d="M13.038 12.427c0 1.526.534 1.628.534 2.035-.232 0-.533-.223-.534-.202-.233-.307-.255-1.858-.233-1.833h.233Z"/><path fill="currentColor" d="M12.953 14.094c.023.072.05.131.079.17l.012.017v-.013a.597.597 0 0 1 .04.021l.017.009c.03.017.07.04.114.062a.86.86 0 0 0 .357.11h.008v-.008a.556.556 0 0 0-.085-.279l-.06-.104a3.09 3.09 0 0 1-.123-.219c-.133-.265-.267-.671-.267-1.434v-.007h-.24a.008.008 0 0 0-.006.002.013.013 0 0 0-.003.006 10.058 10.058 0 0 0 .022.793c.017.211.04.433.075.622.017.094.037.18.06.252Zm.087.172Zm-.23-1.832v.006a4.352 4.352 0 0 0-.002.22c.002.146.01.347.026.558.016.212.04.433.074.621.017.094.037.18.06.25a.59.59 0 0 0 .073.162h.002l.012.005a.657.657 0 0 1 .053.029c.03.017.07.039.114.061.102.052.23.106.343.108a.546.546 0 0 0-.083-.264 3.309 3.309 0 0 0-.06-.102c-.038-.064-.081-.135-.124-.22-.133-.268-.267-.675-.268-1.434h-.22Z"/><path fill="#FFDF00" d="M13.502 12.427c.012.891.575 1.65.466 1.833-.124.162-.466-.307-.93 0-.232-.307-.255-1.858-.232-1.833h.697Z"/><path fill="currentColor" d="M12.952 14.094c.023.072.05.131.08.17l.003.006.006-.004c.23-.151.428-.112.586-.053l.094.037.017.007a.956.956 0 0 0 .095.035.19.19 0 0 0 .08.01.092.092 0 0 0 .06-.037h.001v-.001a.159.159 0 0 0 .013-.1.766.766 0 0 0-.037-.145 5.446 5.446 0 0 0-.103-.264l-.06-.149c-.129-.324-.272-.735-.278-1.18v-.007h-.705a.008.008 0 0 0-.006.002.013.013 0 0 0-.002.006 10.157 10.157 0 0 0 .022.793c.016.211.04.433.074.622.018.094.038.18.06.252Zm-.143-1.66v.006l-.003.046v.173c.003.147.011.348.027.56.016.21.04.432.074.62.017.094.037.18.06.25a.594.594 0 0 0 .072.16c.233-.15.435-.109.594-.05l.094.037.017.007a.908.908 0 0 0 .093.035.176.176 0 0 0 .073.008.077.077 0 0 0 .051-.03c.013-.021.016-.05.011-.09a.753.753 0 0 0-.037-.142 4.152 4.152 0 0 0-.101-.262l-.06-.15c-.129-.323-.272-.734-.28-1.178h-.684Z"/><path fill="#908F8A" d="m9.06 12.81-.403.291.404.292.201-.146.101.146.101.292.101-.292.101-.146h5.409v-.292h-5.41l-.1-.147c0-.146.021-.292.101-.292h.403c0-.146-.201-.438-.605-.438-.403 0-.605.292-.605.438h.403c.08 0 .101.146.101.293l-.1.146-.203-.147v.001Z"/><path fill="currentColor" d="M9.001 12.232a.677.677 0 0 1 .464-.168c.205 0 .36.074.463.168.102.093.155.206.155.284v.014h-.416a.049.049 0 0 0-.04.02.168.168 0 0 0-.028.06.772.772 0 0 0-.02.194l.094.137h5.416v.32H9.674l-.096.138-.114.328-.113-.328-.091-.133-.199.144-.427-.31.42-.303.005.008.01-.008.19.138.091-.13a.78.78 0 0 0-.02-.194.168.168 0 0 0-.028-.061.048.048 0 0 0-.04-.02h-.416v-.014c0-.078.053-.191.155-.284Zm.06.593-.38.276.38.275.205-.149.11.16.089.256.088-.257.106-.153h5.402v-.265H9.66l-.107-.156v-.004c0-.074.005-.148.02-.205a.194.194 0 0 1 .034-.07.076.076 0 0 1 .06-.031h.39a.421.421 0 0 0-.147-.25.65.65 0 0 0-.444-.16.65.65 0 0 0-.445.16.422.422 0 0 0-.146.25h.389c.025 0 .045.012.06.03a.194.194 0 0 1 .033.071.815.815 0 0 1 .021.206v.004l-.11.161-.205-.149Z"/><path fill="#B74D00" d="M10.245 13.517h3.536v.18h-3.535v-.18Zm0-.18h3.536v.18h-3.535v-.18Zm0-.18h3.536v.181h-3.535v-.18Zm0-.178h3.536v.179h-3.535v-.18Zm0-.18h3.536v.18h-3.535v-.18Zm0-.18h3.536v.18h-3.535v-.18Zm0-.178h3.536v.178h-3.535v-.178Z"/><path fill="currentColor" d="M10.236 12.431h3.554v1.274h-3.553l-.001-.198v-1.076Zm.018.197.002.162h3.515v-.162h-3.517Zm3.517-.019h-3.516v-.16h3.516v.16Zm0 .2h-3.517l.001.16h3.516v-.16Zm0 .178h-3.517l.001.161h3.516v-.16Zm0 .18h-3.517l.001.16h3.516v-.16Zm-3.517.18.002.16h3.515v-.16h-3.517Zm3.517.179h-3.517l.001.16h3.516v-.16Z"/><path fill="#908F8A" d="m10.414 12.43 1.291 1.255h.185L10.6 12.43h-.186Z"/><path fill="currentColor" d="M10.415 12.415h.191l1.324 1.287h-.23l-1.291-1.255-.007-.006.013-.012v-.014Zm.04.032 1.258 1.223h.138l-1.258-1.223h-.138Z"/><path fill="#908F8A" d="m10.414 13.724 1.291-1.256h.185l-1.29 1.255h-.186Z"/><path fill="currentColor" d="M10.415 13.738h.191l1.324-1.287h-.23l-1.291 1.255-.007.006.013.012v.014Zm.04-.032 1.258-1.223h.138l-1.258 1.223h-.138Z"/><path fill="#908F8A" d="M10.45 12.43v1.255h.185v-1.256h-.186Z"/><path fill="currentColor" d="M10.45 12.414h.202v1.287h-.218V12.43h.016v-.016Zm.016.032v1.224h.154v-1.224h-.154Z"/><path fill="#908F8A" d="m12.075 12.43 1.292 1.255h.184l-1.29-1.255h-.186Z"/><path fill="currentColor" d="M12.076 12.415h.19l1.325 1.287h-.23l-1.292-1.255-.006-.006.013-.012v-.014Zm.04.032 1.257 1.223h.139l-1.258-1.223h-.139Z"/><path fill="#908F8A" d="m12.075 13.724 1.292-1.256h.184l-1.29 1.255h-.186Z"/><path fill="currentColor" d="M12.076 13.738h.19l1.325-1.287h-.23l-1.292 1.255-.006.006.013.012v.014Zm.04-.032 1.257-1.223h.139l-1.258 1.223h-.139Z"/><path fill="#908F8A" d="M13.404 12.43v1.255h.186v-1.256h-.186Z"/><path fill="currentColor" d="M13.405 12.414h.202v1.287h-.218V12.43h.016v-.016Zm.016.032v1.224h.154v-1.224h-.154Z"/><path fill="#908F8A" d="M12.115 12.43v1.255h.186v-1.256h-.186Z"/><path fill="currentColor" d="M12.115 12.414h.201v1.287H12.1V12.43h.016v-.016Zm.016.032v1.224h.153v-1.224h-.153Z"/><path fill="#908F8A" d="M11.74 12.43v1.255h.186v-1.256h-.186Z"/><path fill="currentColor" d="M11.74 12.414h.201v1.287h-.217V12.43h.016v-.016Zm.016.032v1.224h.153v-1.224h-.153Z"/><path fill="#FFDF00" d="M14.617 8.845c0 2.046-1.21 3.706-2.697 3.706-1.488 0-2.697-1.66-2.697-3.706 0-2.046 1.207-3.708 2.697-3.708s2.697 1.66 2.697 3.706v.002Zm-.385 0c0 1.818-1.036 3.295-2.312 3.295-1.277 0-2.312-1.477-2.312-3.295 0-1.82 1.035-3.297 2.312-3.297 1.276 0 2.312 1.477 2.312 3.297Z"/><path fill="currentColor" d="M10.022 6.23c-.487.67-.788 1.594-.788 2.615 0 1.021.302 1.945.788 2.614.487.668 1.158 1.08 1.898 1.08.739 0 1.41-.412 1.897-1.08.487-.669.788-1.593.788-2.614v-.002c0-1.021-.3-1.945-.787-2.614-.487-.669-1.158-1.081-1.898-1.081s-1.412.413-1.898 1.082Zm-.019-.013c.49-.673 1.167-1.092 1.917-1.092s1.426.418 1.916 1.09c.49.674.792 1.603.792 2.628v.002c0 1.025-.303 1.954-.793 2.627-.49.673-1.167 1.09-1.915 1.09-.749 0-1.426-.417-1.916-1.09s-.793-1.602-.793-2.627c0-1.025.303-1.954.792-2.628Zm.291.303c-.417.595-.675 1.417-.675 2.325 0 .907.258 1.728.675 2.323.417.594.992.96 1.626.96.633 0 1.208-.366 1.625-.96.417-.595.675-1.416.675-2.323 0-.908-.258-1.73-.675-2.325-.417-.594-.992-.96-1.625-.96-.634 0-1.209.366-1.626.96Zm-.018-.012c.42-.6 1-.971 1.644-.971.643 0 1.224.372 1.644.97.42.6.679 1.426.679 2.338 0 .911-.26 1.737-.68 2.336-.42.598-1 .97-1.643.97s-1.224-.372-1.644-.97c-.42-.599-.68-1.425-.68-2.336 0-.912.26-1.739.68-2.337Z"/><path fill="#FFDF00" d="M12.97 5.43a2.077 2.077 0 0 0-1.05-.293c-.372 0-.727.104-1.05.29l.151.382c.274-.169.584-.258.9-.258.316 0 .626.09.9.258l.15-.382v.003Z"/><path fill="currentColor" d="M10.863 5.418a2.11 2.11 0 0 1 1.057-.293c.374 0 .73.106 1.056.295l-.004.006.01.001v.022l-.007-.003-.15.38-.01-.008a1.701 1.701 0 0 0-.894-.255c-.314 0-.622.088-.894.255l-.011.007-.161-.403.008-.004Zm2.092.016a2.064 2.064 0 0 0-1.035-.286c-.367 0-.717.102-1.037.284l.144.36c.272-.165.58-.252.894-.252.313 0 .621.087.893.252l.141-.358Z"/><path fill="#FFDF00" d="M12.977 12.161a2.078 2.078 0 0 1-1.05.293c-.372 0-.726-.104-1.05-.29l.152-.382a1.705 1.705 0 0 0 1.798 0l.15.382v-.003Z"/><path fill="currentColor" d="M10.87 12.173a2.11 2.11 0 0 0 1.057.292c.374 0 .73-.105 1.056-.294l-.003-.006.009-.001v-.022l-.007.003-.15-.38-.01.008a1.7 1.7 0 0 1-.894.255 1.7 1.7 0 0 1-.894-.255l-.01-.007-.162.402.009.005Zm2.093-.016c-.32.184-.67.286-1.036.286-.367 0-.716-.102-1.037-.284l.144-.36c.273.165.58.252.894.252.313 0 .621-.087.894-.252l.14.358Z"/><path fill="#A7CFFF" d="M14.235 8.846c0 1.819-1.039 3.292-2.314 3.292-1.275 0-2.31-1.473-2.31-3.292 0-1.819 1.035-3.3 2.31-3.3 1.275 0 2.314 1.477 2.314 3.3Z"/><path fill="#AFFF7B" d="M14.232 8.845c.024.619-.1.921-.258 1.565-.042.07-.24-.151-.357-.26-.118-.11-.17.097-.318-.07-.145-.172-.239.046-.348-.098-.108-.144-1.115-.163-1.115-.176.1-.052.613.004.53-.259-.093-.274-.674-.009-.752-.358-.055-.348-1.166-.362-1.247-.446.033.13.866.186.847.523-.02.14-.82.18-.899.295-.065.147.631-.04.655.14 0 .074-.102 0-.463.116-.183.058.335.24.139.34-.196.1-.616.144-.598.186.065.209.972.455.883.49-.322.154-.492.254-.646.342a4.094 4.094 0 0 1-.677-2.33c.69-.265.544-.32 1.819-.32 1.274 0 1.696.053 2.806.32Z"/><path fill="currentColor" d="M9.62 8.853a4.083 4.083 0 0 0 .668 2.307l.028-.016c.144-.083.311-.179.605-.32a.201.201 0 0 1-.885-.479.018.018 0 0 1 .004-.017.048.048 0 0 1 .015-.011.269.269 0 0 1 .048-.018c.036-.01.086-.022.142-.034l.019-.005c.128-.028.28-.064.376-.113.024-.012.034-.024.037-.035.004-.01.002-.023-.006-.037a.213.213 0 0 0-.04-.046.95.95 0 0 0-.057-.049l-.014-.011-.046-.037a.29.29 0 0 1-.045-.045c-.01-.014-.018-.03-.012-.046.006-.016.022-.027.046-.035m3.46.6c.03-.124.06-.235.086-.338.114-.43.19-.721.172-1.214-1.102-.265-1.524-.318-2.795-.318-.637 0-.918.014-1.126.06a1.728 1.728 0 0 0-.292.098l-.092.038a8.191 8.191 0 0 1-.297.121m4.613-.008.003-.01c-1.11-.268-1.533-.322-2.809-.322-.637 0-.92.014-1.13.061a1.754 1.754 0 0 0-.297.099l-.093.039c-.082.035-.179.075-.302.123l-.007.003v.007a4.105 4.105 0 0 0 .678 2.336l.006.009.009-.005.037-.021a7.35 7.35 0 0 1 .608-.32.02.02 0 0 0 .01-.009.016.016 0 0 0 .001-.016.03.03 0 0 0-.008-.01.635.635 0 0 0-.095-.049 6.406 6.406 0 0 0-.14-.056l-.152-.061a2.896 2.896 0 0 1-.32-.15.732.732 0 0 1-.116-.08.182.182 0 0 1-.056-.072 2.798 2.798 0 0 1 .21-.059c.127-.028.282-.065.381-.115.026-.014.043-.03.049-.048.006-.019.001-.037-.009-.055a.231.231 0 0 0-.043-.052.931.931 0 0 0-.06-.05l-.014-.01-.044-.037a.265.265 0 0 1-.041-.041c-.01-.013-.011-.02-.01-.026.002-.005.01-.013.032-.02a1.455 1.455 0 0 1 .374-.074l.035-.003a.15.15 0 0 0 .033-.006.042.042 0 0 0 .022-.016.05.05 0 0 0 .007-.028v-.002a.08.08 0 0 0-.043-.06.252.252 0 0 0-.088-.026 1.444 1.444 0 0 0-.27-.004 1.564 1.564 0 0 1-.193 0 .13.13 0 0 1-.057-.016.018.018 0 0 1-.008-.01c0-.004 0-.009.003-.016a.132.132 0 0 1 .055-.036.797.797 0 0 1 .108-.034c.074-.02.162-.037.253-.054l.047-.01c.106-.02.211-.042.29-.068a.468.468 0 0 0 .1-.041c.024-.015.043-.034.046-.056v-.001c.005-.09-.046-.16-.124-.216a1.143 1.143 0 0 0-.287-.135 5.421 5.421 0 0 0-.155-.05l-.004-.001-.135-.043a.647.647 0 0 1-.1-.043l-.005-.002a2.15 2.15 0 0 0 .172.034l.096.014c.097.015.207.031.316.053.147.029.292.065.404.116.113.052.188.116.2.197a.23.23 0 0 0 .144.173.75.75 0 0 0 .237.044 1.047 1.047 0 0 1 .234.028c.067.018.116.051.138.115a.14.14 0 0 1 .005.078.106.106 0 0 1-.035.054.352.352 0 0 1-.158.062c-.057.01-.118.017-.173.022l-.023.002c-.03.003-.059.006-.083.01a.212.212 0 0 0-.058.016l-.006.004v.007c0 .004.002.007.004.008a.013.013 0 0 0 .003.002l.005.002a.728.728 0 0 0 .042.005l.106.006h.01c.096.007.225.015.357.027.133.012.268.029.377.05a.936.936 0 0 1 .14.038.17.17 0 0 1 .074.045c.029.038.057.053.088.056a.214.214 0 0 0 .084-.014.179.179 0 0 1 .082-.008.17.17 0 0 1 .094.064.198.198 0 0 0 .102.07.142.142 0 0 0 .081-.01l.014-.005c.018-.007.034-.014.052-.015.02 0 .042.005.07.03l.074.072c.043.043.09.09.133.126a.48.48 0 0 0 .096.07c.013.006.027.01.04.01a.037.037 0 0 0 .03-.02h.002v-.002c.03-.124.06-.235.087-.338.114-.434.192-.729.172-1.23h-.011Z"/><path fill="#fff" d="M14.232 8.846c-.174 0-.356.079-.543.079-.19 0-.38-.081-.577-.081-.195 0-.42.106-.62.106-.202 0-.378-.104-.58-.104-.203 0-.405.079-.605.079-.2 0-.398-.081-.591-.081-.194 0-.385.08-.57.08-.185 0-.366-.08-.538-.08 0-.454.066-.886.183-1.282.587.047.24-.365.587-.365a.676.676 0 0 1 .298.051c.095.04.181.1.253.177.052 0 .313-.265.606-.228.292.038.185.635.575.665.195.158.31.258.58.324.385.037 1.488-.059 1.495-.005.031.22.047.442.047.665Z"/><path fill="currentColor" d="M10.945 7.433a.046.046 0 0 1-.016.004h-.005l-.004-.004a.705.705 0 0 0-.248-.174.665.665 0 0 0-.293-.05c-.085 0-.124.024-.147.058a.224.224 0 0 0-.027.061l-.009.033v.003a.973.973 0 0 1-.01.037.214.214 0 0 1-.099.134c-.057.033-.145.05-.288.04a4.493 4.493 0 0 0-.18 1.257c.083.002.166.021.25.04l.006.001c.09.02.18.04.27.04.09 0 .183-.019.277-.04h.003c.095-.02.192-.04.29-.04.098 0 .196.02.293.04h.003c.099.02.197.04.296.04.099 0 .198-.019.3-.039.1-.02.202-.04.305-.04.102 0 .198.027.292.053h.001c.095.027.188.052.287.052.099 0 .203-.026.31-.053h.002a1.28 1.28 0 0 1 .308-.054c.1 0 .197.02.293.041h.002c.096.02.19.04.282.04a1.3 1.3 0 0 0 .274-.039h.006c.084-.02.17-.038.252-.04a4.55 4.55 0 0 0-.047-.649 15.424 15.424 0 0 0-.594.003h-.009c-.322.013-.69.027-.882.009h-.001c-.261-.063-.38-.16-.561-.306l-.022-.018a.3.3 0 0 1-.217-.115.782.782 0 0 1-.113-.222l-.013-.036a1.093 1.093 0 0 0-.078-.181c-.036-.06-.082-.102-.15-.11a.636.636 0 0 0-.387.098c-.047.027-.09.055-.124.078l-.013.009a.801.801 0 0 1-.065.039Zm3.23.753Zm.057.66v.011c-.084 0-.17.019-.26.038l-.004.001c-.09.02-.184.04-.28.04-.094 0-.19-.02-.284-.04H13.4a1.399 1.399 0 0 0-.289-.041 1.27 1.27 0 0 0-.304.053h-.001a1.324 1.324 0 0 1-.315.054c-.102 0-.198-.027-.292-.053a1.073 1.073 0 0 0-.288-.052c-.1 0-.2.02-.301.04h-.002c-.1.02-.201.04-.302.04-.101 0-.202-.021-.3-.042h-.002a1.453 1.453 0 0 0-.29-.04c-.095 0-.19.02-.285.04l-.004.001a1.36 1.36 0 0 1-.28.04c-.094 0-.187-.02-.276-.04l-.005-.002c-.088-.02-.174-.04-.257-.04h-.01v-.01c0-.455.065-.888.182-1.285l.003-.008h.009c.146.012.232-.005.284-.036a.192.192 0 0 0 .088-.12.863.863 0 0 0 .01-.037v-.003l.01-.033a.245.245 0 0 1 .029-.067c.028-.042.076-.069.165-.069a.687.687 0 0 1 .303.052c.094.039.18.099.252.175l.004-.001a.78.78 0 0 0 .061-.037l.013-.009c.034-.022.077-.05.125-.078.11-.062.25-.12.4-.102.078.01.129.058.167.121.032.053.056.12.08.186l.013.036a.76.76 0 0 0 .11.215c.047.059.11.1.204.107h.004l.003.003.024.02c.181.146.296.239.551.3.19.019.557.005.88-.008h.007c.162-.006.313-.012.423-.013.056 0 .101 0 .133.003a.24.24 0 0 1 .039.006c.005 0 .009.003.013.005a.018.018 0 0 1 .009.012c.032.22.048.444.048.667h-.011Zm-1.962 1.917c0-.103.1-.171.1-.335s-.09-.167-.092-.32c-.002-.063.077-.126.111-.134.035-.007.064.134.064.164s-.035-.075-.064-.077c-.03-.002-.093.01-.093.041 0 .061.111.137.103.342-.008.202-.095.263-.095.324s.037.23.037.23-.072-.134-.072-.237v.002Z"/><path fill="currentColor" d="M12.398 9.983c-.003-.002-.005-.003-.008-.002a.098.098 0 0 0-.03.014.21.21 0 0 0-.036.03c-.023.024-.041.054-.04.083 0 .073.022.111.044.15l.002.003a.3.3 0 0 1 .046.167.407.407 0 0 1-.05.193l-.01.018a.274.274 0 0 0-.04.124h-.002a.466.466 0 0 0 .052.19l-.01-.045a.957.957 0 0 1-.018-.14c0-.016.006-.032.014-.05a.797.797 0 0 1 .013-.026l.002-.002.016-.033a.523.523 0 0 0 .05-.213.426.426 0 0 0-.048-.222l-.023-.043a.773.773 0 0 1-.014-.023.117.117 0 0 1-.018-.053c0-.01.006-.018.013-.024a.083.083 0 0 1 .026-.015.17.17 0 0 1 .06-.009c.005 0 .01.003.014.007a.07.07 0 0 1 .012.013c.008.01.016.023.022.034l.005.01a2.4 2.4 0 0 0 .004.008.51.51 0 0 0-.037-.13.048.048 0 0 0-.01-.014ZM12.341 11l-.005.003V11l-.003-.004a.682.682 0 0 1-.07-.235c.001-.046.021-.085.043-.128l.009-.017a.395.395 0 0 0 .05-.188.288.288 0 0 0-.045-.161l-.002-.003a.29.29 0 0 1-.046-.156c-.001-.034.02-.067.044-.091a.222.222 0 0 1 .038-.032.108.108 0 0 1 .034-.016.021.021 0 0 1 .018.005l.013.016a.444.444 0 0 1 .04.154c-.001.002-.003.006-.008.006l-.004-.001-.002-.002a.274.274 0 0 1-.014-.023l-.004-.01a.268.268 0 0 0-.02-.032.062.062 0 0 0-.011-.011c-.003-.003-.006-.004-.008-.004a.158.158 0 0 0-.055.008.072.072 0 0 0-.023.012c-.005.005-.008.01-.008.016a.1.1 0 0 0 .017.047l.012.023a.439.439 0 0 1 .073.272.534.534 0 0 1-.05.217l-.017.033-.001.002a.89.89 0 0 0-.013.026.109.109 0 0 0-.013.046c0 .03.009.087.018.137l.013.064.004.02.002.006v.002l-.006.001Zm0 0 .006-.001-.01.004.004-.003Z"/><path fill="currentColor" d="M12.594 10.748c0-.102-.102-.17-.102-.334s.09-.168.093-.32c.008-.073-.088-.12-.123-.125-.034-.006-.075.144-.075.173 0 .029.04-.094.07-.096.03-.002.11.011.11.042 0 .06-.111.137-.103.342.008.201.095.263.095.324 0 .06-.037.23-.037.23s.072-.135.072-.238v.002Z"/><path fill="currentColor" d="M12.452 9.979c.004-.004.007-.004.009-.004a.19.19 0 0 1 .075.036c.026.02.046.049.043.082a.284.284 0 0 1-.045.15l-.002.004a.298.298 0 0 0-.046.167.407.407 0 0 0 .06.21c.022.044.041.08.041.125h.001a.466.466 0 0 1-.051.19l.008-.046a.957.957 0 0 0 .02-.139.12.12 0 0 0-.015-.05.707.707 0 0 0-.013-.026l-.001-.003a.523.523 0 0 1-.067-.245.426.426 0 0 1 .048-.222l.024-.043a.773.773 0 0 0 .013-.024.117.117 0 0 0 .018-.053c0-.01-.007-.018-.016-.024a.112.112 0 0 0-.032-.014.234.234 0 0 0-.068-.01.026.026 0 0 0-.015.008.083.083 0 0 0-.012.015.346.346 0 0 0-.03.054l-.004.008a.403.403 0 0 1 .022-.08.275.275 0 0 1 .024-.052.059.059 0 0 1 .011-.014Zm.07 1.006.004.002.001-.001.002-.005a1.802 1.802 0 0 0 .034-.075.47.47 0 0 0 .037-.16h-.001a.289.289 0 0 0-.043-.127l-.008-.017a.395.395 0 0 1-.05-.188c0-.08.022-.121.044-.162l.002-.003c.022-.04.045-.08.047-.155.004-.039-.02-.07-.048-.092a.2.2 0 0 0-.08-.038.02.02 0 0 0-.018.006.073.073 0 0 0-.014.017.607.607 0 0 0-.05.155l.001.006.004.004h.005a.013.013 0 0 0 .004-.004l.004-.005a.506.506 0 0 0 .017-.035.326.326 0 0 1 .033-.051l.008-.005c.014 0 .04.002.064.009a.103.103 0 0 1 .029.012c.007.005.01.01.01.015a.106.106 0 0 1-.016.048l-.013.022-.025.045a.439.439 0 0 0-.049.227.534.534 0 0 0 .052.217l.016.034.002.002a.89.89 0 0 1 .013.026.109.109 0 0 1 .013.045c0 .03-.01.087-.019.137l-.013.065-.004.02-.001.005v.002l.005.002Zm0 0-.007-.002.011.004-.005-.002Z"/><path fill="currentColor" d="M12.488 9.934c0 .048-.027.09-.057.09-.03 0-.052-.042-.052-.094 0-.053.022-.09.052-.09s.057.041.057.094Zm.637.337h.015v.731h-.019l.004-.73Zm.154-.06h.019v.739h-.02v-.739Z"/><path fill="currentColor" d="M13.223 10.545v-.02l.15.027v.019l-.15-.026Z"/><path fill="#B74D00" d="M11.079 10.757s.565.265.69.423c.121.158.073.158.073.158l1.255.054c0-.08.222-.08.272-.265.05-.184.05-.237.05-.237l-.394.132.022-.237h-.343l-.05.237-.74-.026.05-.634-.148.025-.022.605c-.026 0-.691-.184-.717-.235h.002Z"/><path fill="currentColor" d="m11.976 10.348-.05.638.719.024.05-.236h.365l-.022.232.392-.132v.015h-.01.01v.013l-.006.04a2.075 2.075 0 0 1-.044.188m-1.596-.152.021-.6.171-.03"/><path fill="#FEDE00" d="M9.94 6.971s.82-.26 2.004-.241c1.183.018 2.003.297 1.986.297-.018 0-.226-.428-.226-.428s-.836-.244-1.777-.262c-.94-.019-1.76.186-1.74.204l-.246.43Z"/><path fill="#FEDE00" d="M10.695 6.414c.32-.051.76-.098 1.231-.089a7.436 7.436 0 0 1 1.77.26l.008.003h.002l-.003.011.01-.005.003.005.006.014a5.944 5.944 0 0 0 .098.195 5.531 5.531 0 0 0 .104.195l.009.012v.001l.002.001.002.002s.003.002.003.005v.005a.021.021 0 0 1-.002.006.012.012 0 0 1-.009.003.013.013 0 0 1-.006-.001l-.002-.002h-.002a5.678 5.678 0 0 0-.534-.138 7.849 7.849 0 0 0-2.885-.042 5.885 5.885 0 0 0-.547.124l-.007.002h-.002v.001l-.004-.01-.01-.006.245-.427v-.002a.014.014 0 0 1 .004-.006.033.033 0 0 1 .008-.005 1.432 1.432 0 0 1 .128-.038c.09-.022.22-.048.38-.074Zm-.73.539a2.409 2.409 0 0 1 .12-.033c.095-.024.235-.056.411-.088a7.87 7.87 0 0 1 2.893.042 5.71 5.71 0 0 1 .51.13 5.69 5.69 0 0 1-.172-.332l-.025-.05-.007-.013-.005-.002a2.766 2.766 0 0 0-.135-.035 7.414 7.414 0 0 0-1.63-.224 7.079 7.079 0 0 0-1.605.162 1.418 1.418 0 0 0-.123.036l-.233.407Zm3.738-.354.01-.005-.002-.004-.005-.001-.003.01Z"/><path fill="#38A9F9" d="m11.475 6.367.51-.007.008.296-.51.011-.008-.3Zm-1.17.161-.18.297.607-.075-.048-.29-.379.076v-.008Zm.514-.112.51-.041.022.292-.506.045-.026-.296Zm1.833-.026-.506-.038-.019.3.507.03.018-.292Zm1.096.187.183.36-.547-.135.06-.289.3.06.004.004Zm-.443-.112-.502-.064-.038.292.506.068.034-.296Z"/><path fill="#FFDF00" d="m11.944 7.139-.055-.314-.165.267.061-.314-.246.18.166-.263-.292.065.25-.177-.293-.058.293-.06-.25-.177.292.065-.168-.263.248.18-.06-.315.165.268.054-.314.056.314.164-.268-.06.314.247-.179-.168.263.294-.065-.25.176.293.06-.293.059.25.177-.294-.065.168.262-.246-.179.06.314L12 6.825l-.056.314Z"/><path fill="currentColor" d="M11.933 5.907h.022l.051.285.148-.242.02.008-.053.286.223-.163.016.016-.153.24.267-.06.009.02-.229.162.268.055v.022l-.268.053.229.162-.009.02-.267-.06.153.24-.016.016-.223-.162.056.285-.021.009-.15-.243-.051.285h-.022l-.05-.285-.15.243-.02-.009.055-.285-.222.162-.016-.015.15-.24-.265.06-.008-.021.228-.162-.268-.053v-.022l.268-.055-.229-.162.01-.02.264.06-.152-.24.015-.016.225.163-.055-.286.02-.008.15.242.05-.285Zm.01.067-.048.28-.148-.24.054.281-.223-.16.15.235-.263-.059.226.16-.265.054.265.053-.226.159.263-.059-.148.236.221-.161-.054.281.148-.24.049.28.05-.28.149.24-.055-.281.22.16-.15-.235.266.06-.226-.16.265-.053-.264-.054.225-.16-.265.06.15-.236-.22.16.052-.281-.147.24-.05-.28Z"/><path fill="#FFDF00" d="M12.379 6.328a.315.315 0 0 1-.317.315.317.317 0 1 1 .316-.313v-.002Z"/><path fill="currentColor" d="M12.062 6.021a.307.307 0 1 0 0 .613.307.307 0 0 0 0-.613Zm.326.307a.327.327 0 0 0-.653 0c0 .18.146.325.327.325.18 0 .325-.144.326-.323v-.002Z"/><path fill="currentColor" d="M12.026 6.398c0 .019-.048.037-.105.037-.056 0-.105-.018-.105-.037s.045-.038.105-.038.105.015.105.038Zm.225 0c0 .019-.033.037-.075.037-.04 0-.082-.018-.082-.037 0-.023.037-.038.079-.038.04 0 .078.015.078.038Zm-.219.125.011.007-.003.006.053.05c.027-.016.039-.032.054-.051l.022-.028.016.015-.019.024c-.017.022-.033.043-.07.065l-.007.004-.005-.006a2.06 2.06 0 0 0-.081-.076L12 6.532v-.003s-.002-.002-.002-.005a.012.012 0 0 1 .007-.011c.003-.002.006-.001.006-.001a.01.01 0 0 1 .003 0l.004.002a.368.368 0 0 1 .014.009Zm.098.139a.268.268 0 0 1-.239.098h-.003l-.002-.002a2.105 2.105 0 0 1-.065-.045l-.006.006-.018-.019a.09.09 0 0 1-.003-.004l-.002-.005-.001-.004c0-.001 0-.004.002-.007a.011.011 0 0 1 .008-.004h.004l.005.002.004.002a.752.752 0 0 1 .015.011l.067.047a.246.246 0 0 0 .216-.09l.018.014Zm-.318.02Zm-.013.015Z"/><path fill="#B7E1FF" d="M10.553 7.305s.037.3-.192.675c-.225.371-.191.24-.191.24s.105.206.086.206c-.018 0-.176-.187-.176-.187l-.187.206s.172-.319.153-.319c-.018 0-.052-.112-.052-.112l.139-.056s.21-.39.21-.372c0 .02-.627.428-.627.428l.837-.705v-.004Zm.138.113c-.019 0 .086.3.176.45.087.15.087.333.087.333l.296.15-.383-.577.244.09-.42-.446Zm0 .783s.21.225.225.3a2 2 0 0 1 .019.24l-.086-.187-.124.169s.09-.263.071-.282c-.018-.018-.138.094-.138.094s.052-.15.052-.165c0-.015 0-.112-.019-.169Zm-1.046.522c.071-.057.21-.094.21-.094s-.086.15-.105.15c-.019 0-.067 0-.105-.056Zm2.404-.818s.454.278.454.296c0 .02-.297-.13-.297-.13l-.157-.166Zm-.818-.581c.038.019.664.54.645.54-.018 0-.277-.15-.277-.128v.128l-.143-.296-.034.112-.187-.356h-.004Zm.158.84.172.352.177-.037s-.33-.315-.35-.315Zm.54-.225.018.337s.102.094.102.075a3.42 3.42 0 0 0-.12-.412Z"/><path fill="#984000" d="M6.848 3.356s.787-.435 1.683-.757c.66-.243 1.34-.423 2.033-.54.262 0 .72.667.795.667.075 0 .379-.187.761-.187.383 0 .604.3.683.3h.682c.075 0-.229-.743 0-.705.113.018 1.08.168 1.98.457.9.293 2.175.81 2.175.81s-2.081.274-2.64.195c-.075.038 0 .488-.112.289a10.348 10.348 0 0 0-.927-.139c-.112 0-.326.128-.63.203-.3.075-.682.187-.682.187l.495.776-.608.3s-.378-.892-.532-.892c-.154 0-.225.63-.416.592-.188-.037-.263-.592-.417-.742-.15-.146-.952-.203-1.256-.274-.3-.075-.791-.131-1.057-.206-.263-.075-.533.187-.645.187-.113 0 .15-.225.037-.262-.112-.038-.187.112-.262.112-.075 0-.874-.15-.95-.187-.074-.038.188-.184.113-.184h-.303Z"/><path fill="gray" d="M12.505 2.985c0 .207-.17.375-.38.375a.376.376 0 0 1-.377-.375c0-.206.17-.373.378-.373.209 0 .379.168.379.373Z"/><path fill="#772600" d="M12.126 2.628c-.2 0-.361.16-.361.357a.36.36 0 0 0 .36.358c.2 0 .363-.16.363-.358a.36.36 0 0 0-.362-.357Zm-.395.357c0-.216.177-.39.395-.39.218 0 .395.175.395.39a.393.393 0 0 1-.395.391.393.393 0 0 1-.395-.39Z"/><path fill="#984000" d="M10.585 3.056c.068-.08.152-.2.372-.2.05-.02.05-.14.168-.14.119 0 .084.12.17.161.083.04.775-.04.775-.04s.067.06.067.14c0 .08-.051.139-.067.139-.016 0-.692-.06-.742-.04-.051.02-.084.04-.203.04-.117 0-.152-.14-.236-.14-.084 0-.168-.02-.304.081v-.001Z"/><path fill="#772600" d="M11.012 2.842a.1.1 0 0 1-.045.042l-.005.002h-.005a.377.377 0 0 0-.234.07.347.347 0 0 1 .029-.005.534.534 0 0 1 .104-.004h.033a.12.12 0 0 1 .073.029.434.434 0 0 1 .053.05c.034.035.064.061.11.061a.49.49 0 0 0 .12-.011.531.531 0 0 0 .056-.02 1.32 1.32 0 0 1 .015-.006.09.09 0 0 1 .025-.005 1.841 1.841 0 0 1 .122 0 25.85 25.85 0 0 1 .493.033l.045.004a39.317 39.317 0 0 0 .065.003.115.115 0 0 0 .018-.023.17.17 0 0 0 .023-.085.155.155 0 0 0-.029-.084.213.213 0 0 0-.02-.026 6.545 6.545 0 0 1-.095.01 8.213 8.213 0 0 1-.248.024 4.942 4.942 0 0 1-.264.016 1.25 1.25 0 0 1-.14-.005.116.116 0 0 1-.03-.008c-.047-.023-.066-.066-.08-.096a.592.592 0 0 0-.006-.014.099.099 0 0 0-.024-.035c-.009-.007-.022-.013-.046-.013a.09.09 0 0 0-.053.014.116.116 0 0 0-.032.035.384.384 0 0 0-.015.025.487.487 0 0 1-.013.022Zm1.057-.005.02-.022v.001c.002 0 .002.002.004.003l.008.009a.27.27 0 0 1 .026.033.213.213 0 0 1 .038.116.227.227 0 0 1-.031.115.165.165 0 0 1-.027.035.084.084 0 0 1-.015.012.044.044 0 0 1-.023.007 1.001 1.001 0 0 1-.072-.006l-.046-.004a25.878 25.878 0 0 0-.49-.033 1.78 1.78 0 0 0-.115 0l-.008.001-.014.005a.442.442 0 0 1-.2.037c-.071 0-.117-.044-.15-.079l-.01-.01c-.014-.014-.025-.026-.037-.035-.014-.01-.026-.016-.038-.016h-.04a.446.446 0 0 0-.088.002.35.35 0 0 0-.159.073l-.046.035v-.07l.007-.009.014-.017a.639.639 0 0 1 .12-.117.432.432 0 0 1 .252-.075.509.509 0 0 0 .026-.037v-.002a.471.471 0 0 1 .016-.026.149.149 0 0 1 .134-.076c.034 0 .061.01.082.026.02.017.032.038.04.056l.009.017c.014.031.024.053.05.065l.015.004a1.196 1.196 0 0 0 .129.004 4.89 4.89 0 0 0 .26-.016 11.59 11.59 0 0 0 .348-.034l.008-.001.003.029Zm0 0-.003-.03h.013l.01.008-.02.022Zm-.007.252Z"/><path fill="#782600" d="M11.974 4.226h.003a.15.15 0 0 1 .061.012c.017.01.03.023.044.044a.072.072 0 0 1 .02.039l.003.014.005.022a.29.29 0 0 0 .03.054l.006.007c.01.013.02.027.03.046l.001.002v.001c.008.021.017.039.025.057l.002.004c.01.018.019.037.024.059.007.015.012.03.017.045l.006.019a.19.19 0 0 0 .025.051l.004.005v.005l.001.034c0 .01.002.016.004.02l.001.003h.003c.005-.026.024-.045.04-.06l.013-.01.015-.013a.063.063 0 0 0 .017-.02.39.39 0 0 0 .041-.114c0-.037.002-.065.005-.092l.003-.038v-.004l.002-.003a.14.14 0 0 1 .016-.024.066.066 0 0 0 .006-.007c.002-.003.004-.008.001-.027l-.012-.042v-.002h-.005v-.016l.001-.003c0-.001.002-.005.007-.008a.017.017 0 0 1 .02 0 .018.018 0 0 1 .004.005.021.021 0 0 1 .002.004l.001.003.003.01.012.04v.002l.001.001c.003.024.002.038-.006.05l-.009.013-.002.002a.103.103 0 0 0-.008.012l-.003.036a.883.883 0 0 0-.005.089v.002a.416.416 0 0 1-.039.113l-.005.012a.096.096 0 0 1-.024.031.51.51 0 0 1-.03.025c-.019.016-.03.03-.029.047v.012l-.012.005a.055.055 0 0 1-.034.001.037.037 0 0 1-.023-.022.097.097 0 0 1-.006-.03l-.001-.03a.244.244 0 0 1-.027-.057l-.007-.02a.654.654 0 0 0-.016-.043v-.002a.27.27 0 0 0-.024-.058.47.47 0 0 1-.026-.06.35.35 0 0 0-.033-.048.286.286 0 0 1-.034-.061.203.203 0 0 1-.008-.032l-.002-.01c-.003-.012-.006-.018-.01-.02l-.003-.003-.001-.002c-.013-.02-.022-.03-.032-.034a.111.111 0 0 0-.045-.009.143.143 0 0 0-.039.019.196.196 0 0 1-.041.02c-.015.006-.035.008-.053.01h-.004a.314.314 0 0 0-.039.006l.002.002a.109.109 0 0 1 .02.042l.003.01-.007.007a.101.101 0 0 0-.021.035.575.575 0 0 1-.017.048l-.001.002-.001.002-.008.011-.017.026a.155.155 0 0 0-.014.041.087.087 0 0 1 .003.052.14.14 0 0 1-.02.047.246.246 0 0 1-.018.057c0 .003-.002.006-.003.008l-.014.041-.001.006-.005.003a.21.21 0 0 0-.046.063l-.009.014a.067.067 0 0 1-.041.035.653.653 0 0 1-.057.003h-.006a.116.116 0 0 1-.045-.029l-.003-.002a.088.088 0 0 0-.03-.02l-.007-.004-.002-.008c0-.004-.002-.005-.002-.006l-.004-.001.01-.033a.041.041 0 0 1 .02.011.038.038 0 0 1 .007.012.139.139 0 0 1 .031.024l.003.002a.083.083 0 0 0 .03.02 1.411 1.411 0 0 1 .027 0l.019-.002c.007-.002.013-.006.02-.02l.009-.013a.26.26 0 0 1 .05-.068c.004-.015.01-.029.015-.041 0-.003.002-.005.003-.008a.21.21 0 0 0 .015-.053v-.004l.003-.004a.106.106 0 0 0 .017-.038.05.05 0 0 0-.002-.034l-.003-.005.001-.006a.192.192 0 0 1 .039-.086.685.685 0 0 0 .013-.03l.01-.026a.147.147 0 0 1 .02-.039c-.003-.01-.008-.016-.013-.023a.064.064 0 0 1-.01-.016.03.03 0 0 1 .002-.025l.003-.005.006-.003a.235.235 0 0 1 .062-.012.196.196 0 0 0 .048-.008.152.152 0 0 0 .036-.018l.002-.001a.175.175 0 0 1 .048-.021h.002Zm-.539.575Zm1.024-.488h-.021.001a.017.017 0 0 0 .02 0Z"/><path fill="#812E00" d="M11.535 4.706s-.015.188-.135.311c-.12.124-.368.267-.368.267s.334-.158.368-.124c.037.037-.214.311-.214.311s.326-.288.367-.288c.042 0 .135.28.173.273.034-.007-.075-.356-.06-.412.015-.053 0-.349 0-.349l-.127.011h-.004Zm.768-.022s-.014.199-.135.33c-.12.131-.367.285-.367.285s.334-.169.367-.131c.038.037-.213.33-.213.33s.326-.308.367-.308c.042 0 .135.3.173.292.034-.007-.075-.382-.06-.438.015-.06 0-.375 0-.375l-.132.015Zm-1.076-1.8c0 .034-.037.063-.079.063-.04 0-.082-.03-.082-.067 0-.038.037-.067.082-.067.046 0 .08.03.08.067v.004Z"/></g><defs><clipPath id="a"><path fill="#fff" d="M0 0h24v18H0z"/></clipPath></defs></svg>