<svg xmlns="http://www.w3.org/2000/svg" width="24" height="18" fill="none"><g clip-path="url(#a)"><path fill="currentColor" d="M0 12h24v6H0v-6Z"/><path fill="#fff" d="M0 6h24v6H0V6Z"/><path fill="#CE1126" d="M0 0h24v6H0V0Z"/><path fill="#fff" d="m12.024 9.072 2.055 1.908-.147-3.465c-.02-.525-.477-.405-.81-.216-.333.216-.72.216-1.122.075-.405.14-.789.14-1.122-.075-.33-.19-.789-.31-.81.216l-.147 3.465 2.103-1.908Z"/><path fill="#C09300" fill-rule="evenodd" d="M10.355 7.12c.165-.013.367.067.533.162.327.212.704.213 1.105.074a.02.02 0 0 1 .013 0c.399.14.779.138 1.105-.073h.001c.167-.096.369-.176.533-.163a.298.298 0 0 1 .213.1.47.47 0 0 1 .093.294l.147 3.465a.02.02 0 0 1-.033.015L12.025 9.1l-2.09 1.896a.02.02 0 0 1-.033-.015l.147-3.466a.468.468 0 0 1 .094-.293.3.3 0 0 1 .213-.101Zm1.669 1.952.013-.014 2.02 1.876-.145-3.418c-.005-.129-.037-.215-.084-.27a.26.26 0 0 0-.186-.087c-.152-.012-.344.063-.51.157-.338.219-.729.219-1.132.079-.406.14-.794.14-1.132-.08-.164-.093-.357-.168-.51-.156a.261.261 0 0 0-.186.087c-.048.055-.08.141-.085.27l-.145 3.418 2.069-1.876.013.014Z" clip-rule="evenodd"/><path fill="#C09300" d="m10.305 7.395-.144 3.369-.24.216.147-3.465a.72.72 0 0 1 .237-.12Zm.288.24-.12 2.82-.24.246.144-3.255c.048.048.19.165.216.189Zm.261.216-.093 2.352-.195.189.12-2.682c.048.045.144.114.168.141Zm.285.12-.093 2.004-.189.153.093-2.229c.048.021.141.072.19.072Zm.264 0-.069 1.671-.195.189.075-1.839c.045 0 .168 0 .19-.021Zm.693 1.479.288 1.314-.096.096-.099-.075-.162-1.17.07 1.17-.097.12-.093-.12.07-1.17-.166 1.17-.099.075-.096-.096.288-1.31h.192V9.45Z"/><path fill="#C09300" fill-rule="evenodd" d="M11.89 9.437h.206v.012l.016-.002.29 1.323-.112.112-.116-.088-.106-.761.045.758-.113.141-.11-.141.046-.771-.11.775-.115.087-.113-.112.293-1.333Zm.194.033h-.166l-.284 1.29.08.079.082-.063.164-1.163.033.003-.069 1.164.076.099.08-.099-.07-1.164.034-.003.16 1.164.083.062.08-.08-.283-1.289Z" clip-rule="evenodd"/><path fill="#fff" d="m11.354 8.874-.573 2.03.79.12.332-1.526-.549-.624Z"/><path fill="#C09300" fill-rule="evenodd" d="M11.35 8.856a.018.018 0 0 1 .018.006l.55.624c.003.004.005.01.003.016l-.333 1.527a.018.018 0 0 1-.02.014l-.789-.12a.018.018 0 0 1-.012-.008.018.018 0 0 1-.003-.015l.573-2.03a.018.018 0 0 1 .014-.014Zm.013.055-.558 1.98.752.114.327-1.502-.521-.592Z" clip-rule="evenodd"/><path fill="#C09300" fill-rule="evenodd" d="m11.62 9.395-.372.354a.02.02 0 0 1-.031-.006l-.07-.165.037-.015.058.139.351-.335.027.028Z" clip-rule="evenodd"/><path fill="#C09300" fill-rule="evenodd" d="M11.417 9.132a.02.02 0 0 1 .023.006l.315.417a.02.02 0 0 1 0 .024l-.089.117.096.334.045-.069a.02.02 0 0 1 .027-.005.02.02 0 0 1 .005.027l-.063.096.015.053a.02.02 0 0 1-.013.024.02.02 0 0 1-.024-.014l-.006-.02-.167.253.081.385-.038.008-.074-.35-.154.237a.02.02 0 0 1-.035-.005l-.08-.248-.152.246a.02.02 0 0 1-.02.01.02.02 0 0 1-.016-.015l-.123-.456a.02.02 0 0 1 .005-.019l.246-.252a.02.02 0 0 1 .033.009l.065.234.153-.205a.02.02 0 0 1 .034.008l.064.358.163-.247-.097-.339-.118.157a.02.02 0 0 1-.035-.01l-.078-.73a.02.02 0 0 1 .012-.02Zm.22.536a.02.02 0 0 0-.013.019l-.108.141-.065-.61.264.349-.077.101Zm-.098.696-.063-.35-.15.2a.02.02 0 0 1-.02.008.02.02 0 0 1-.015-.014l-.066-.24-.214.22.108.401.15-.243a.02.02 0 0 1 .035.004l.081.249.154-.235Z" clip-rule="evenodd"/><path fill="#C09300" fill-rule="evenodd" d="M11.112 10.616a.02.02 0 0 1 .016.014l.09.302.12-.202a.02.02 0 0 1 .036.004l.092.288-.037.012-.08-.247-.121.203a.02.02 0 0 1-.02.01.02.02 0 0 1-.016-.014l-.09-.307-.136.192-.032-.022.16-.225a.02.02 0 0 1 .018-.008Z" clip-rule="evenodd"/><path fill="#fff" d="M12 11.814c.6 0 1.17-.048 1.507-.14.14-.028.14-.1.14-.196.144-.048.072-.216.171-.216-.101.03-.12-.165-.24-.14 0-.169-.17-.19-.311-.142-.285.093-.79.117-1.266.117-.48-.024-.978-.024-1.266-.12-.141-.045-.31-.024-.31.144-.12-.024-.14.168-.24.141.1 0 .024.171.168.216 0 .096 0 .168.145.195.33.093.905.141 1.503.141Z"/><path fill="#C09300" fill-rule="evenodd" d="M10.515 10.935a.38.38 0 0 1 .23.008c.14.046.333.07.553.085.136.01.28.015.427.02l.276.013c.478 0 .976-.024 1.254-.115a.376.376 0 0 1 .232-.01.183.183 0 0 1 .091.064.185.185 0 0 1 .034.084.128.128 0 0 1 .061.024.303.303 0 0 1 .06.064h.001a.25.25 0 0 0 .043.049.037.037 0 0 0 .017.008.1.1 0 0 1 .024-.003.036.036 0 0 1 .01.07.119.119 0 0 1-.022.005.022.022 0 0 0-.005.006c-.005.01-.008.022-.014.043l-.002.01a.261.261 0 0 1-.034.084.167.167 0 0 1-.068.058c0 .04-.003.08-.021.116-.025.047-.072.075-.147.09-.341.094-.915.142-1.515.142-.596 0-1.176-.048-1.51-.142-.077-.015-.125-.043-.15-.09a.249.249 0 0 1-.022-.115.16.16 0 0 1-.068-.058.258.258 0 0 1-.033-.084l-.002-.011a.185.185 0 0 0-.013-.043.018.018 0 0 0-.005-.007.115.115 0 0 1-.021-.003.036.036 0 0 1 .01-.071c.007 0 .015 0 .022.002a.039.039 0 0 0 .018-.008.272.272 0 0 0 .04-.047c.002 0 .002-.002.003-.003a.3.3 0 0 1 .062-.063.131.131 0 0 1 .061-.023.187.187 0 0 1 .033-.084.183.183 0 0 1 .09-.065Zm-.247.343c.008.018.013.04.017.057l.002.01a.19.19 0 0 0 .023.06c.01.016.026.03.054.039a.036.036 0 0 1 .025.034c0 .05.001.082.014.106.01.02.034.041.101.054h.003c.325.092.897.14 1.493.14.6 0 1.166-.048 1.497-.14h.003c.065-.013.088-.034.098-.053.013-.024.013-.056.013-.107 0-.016.01-.03.025-.034a.1.1 0 0 0 .055-.04.195.195 0 0 0 .024-.061l.002-.01a.298.298 0 0 1 .018-.054l-.002-.001a.303.303 0 0 1-.053-.058l-.003-.004a.24.24 0 0 0-.046-.05.054.054 0 0 0-.046-.01.036.036 0 0 1-.043-.035.129.129 0 0 0-.021-.078.112.112 0 0 0-.057-.04.306.306 0 0 0-.186.011c-.292.095-.802.119-1.278.119a24.813 24.813 0 0 0-.275-.012 17.328 17.328 0 0 1-.431-.021 2.45 2.45 0 0 1-.57-.089.308.308 0 0 0-.184-.008.11.11 0 0 0-.056.04.13.13 0 0 0-.022.078.036.036 0 0 1-.043.035.056.056 0 0 0-.046.01.234.234 0 0 0-.046.049l-.004.005a.32.32 0 0 1-.052.056l-.002.002Z" clip-rule="evenodd"/><path fill="#fff" d="M11.188 10.905c.192.027.408.048.576.027.096 0 .165.165-.027.189-.165.02-.43 0-.57-.024a6.928 6.928 0 0 1-.552-.12c-.168-.072-.048-.21.048-.192.171.055.347.095.525.12Zm1.626 0c-.192.027-.408.048-.57.027-.102 0-.171.165.02.189.169.02.43 0 .57-.024.12-.024.385-.07.553-.12.168-.072.048-.21-.048-.192a3.159 3.159 0 0 1-.525.12Z"/><path fill="#C09300" fill-rule="evenodd" d="M10.62 10.959c-.038-.017-.057-.036-.065-.053a.054.054 0 0 1 .002-.05.1.1 0 0 1 .043-.041.093.093 0 0 1 .058-.01c.171.054.348.095.527.12m-.564.034c.18.047.364.087.549.12.14.023.402.044.564.023a.156.156 0 0 0 .087-.034.056.056 0 0 0 .017-.048.08.08 0 0 0-.074-.068c-.17.02-.388 0-.58-.027m-.602-.145a.131.131 0 0 1 .086-.013c.17.054.345.094.522.119l-.003.02.003-.02c.192.027.406.048.57.027h.003a.12.12 0 0 1 .114.102.094.094 0 0 1-.028.08.186.186 0 0 1-.11.046 2.38 2.38 0 0 1-.576-.024 6.923 6.923 0 0 1-.556-.122c-.045-.019-.074-.044-.087-.072a.093.093 0 0 1 .002-.084.14.14 0 0 1 .06-.059Zm2.899.143a.166.166 0 0 1-.087.072h-.002c-.135.042-.33.079-.465.104l-.089.017a2.377 2.377 0 0 1-.576.025.185.185 0 0 1-.11-.046.093.093 0 0 1-.028-.08.123.123 0 0 1 .122-.102c.159.02.372 0 .565-.027l.002.02-.002-.02a3.15 3.15 0 0 0 .524-.12.13.13 0 0 1 .084.014.139.139 0 0 1 .06.059.093.093 0 0 1 .002.084Zm-.665.002c-.192.026-.41.048-.574.027a.084.084 0 0 0-.08.068.054.054 0 0 0 .017.048c.015.015.042.028.088.034a2.34 2.34 0 0 0 .655-.041c.134-.026.325-.062.458-.102.038-.017.057-.036.065-.053a.054.054 0 0 0-.001-.05.1.1 0 0 0-.043-.041.093.093 0 0 0-.058-.01 3.17 3.17 0 0 1-.527.12" clip-rule="evenodd"/><path fill="#fff" d="M10.59 10.813c-.143-.027-.21.14-.164.236.02-.047.12-.047.14-.095.028-.072-.02-.072.028-.142h-.003Zm.577.44c0-.095.093-.084.093-.18 0-.045-.024-.12-.072-.12a.102.102 0 0 0-.096.097c-.021.092.075.107.075.204Zm.68-.273c.142 0 .127.19.06.285 0-.069-.12-.096-.12-.144 0-.072.109-.072.06-.14Zm1.56-.168c.148-.026.217.142.169.238-.021-.049-.12-.049-.141-.097-.027-.071.02-.071-.027-.14Zm-.566.439c0-.096-.096-.085-.096-.18 0-.046.024-.12.072-.12a.102.102 0 0 1 .096.095c.02.094-.075.109-.075.205h.003Zm-.69-.27c-.141 0-.126.188-.06.284 0-.069.12-.096.12-.144 0-.072-.108-.072-.06-.14Z"/><path fill="#C09300" fill-rule="evenodd" d="M10.592 10.793a.159.159 0 0 0-.172.082.206.206 0 0 0-.013.182.02.02 0 0 0 .035 0 .047.047 0 0 1 .021-.02.284.284 0 0 1 .04-.018c.015-.006.031-.012.045-.02a.083.083 0 0 0 .036-.038v-.001a.138.138 0 0 0 .008-.077l-.001-.004a.049.049 0 0 1 0-.021.108.108 0 0 1 .018-.035.02.02 0 0 0 .001-.02.02.02 0 0 0-.017-.01h-.001Zm-.031.036a.12.12 0 0 0-.107.065.177.177 0 0 0-.02.116.308.308 0 0 1 .054-.027.259.259 0 0 0 .04-.018.047.047 0 0 0 .02-.02.1.1 0 0 0 .005-.054v-.007a.087.087 0 0 1 .008-.055Zm2.846-.017-.016.011a.108.108 0 0 1 .018.035.049.049 0 0 1 0 .02v.005a.14.14 0 0 0 .007.077.084.084 0 0 0 .036.038.32.32 0 0 0 .045.02v.001a.28.28 0 0 1 .04.018c.011.007.017.013.02.02a.02.02 0 0 0 .035 0 .2.2 0 0 0-.011-.183.164.164 0 0 0-.178-.081l.004.019Zm.14.082a.124.124 0 0 0-.107-.065.088.088 0 0 1 .008.056l-.001.006a.11.11 0 0 0-.002.02.1.1 0 0 0 .007.035c.003.006.01.012.02.019a.29.29 0 0 0 .04.018.312.312 0 0 1 .056.028.17.17 0 0 0-.02-.117Zm-.767.108a.167.167 0 0 0-.016.068c0 .02.005.034.011.044.008.012.018.02.03.031.01.01.022.02.032.033a.292.292 0 0 1 .026-.038l.004-.005a.15.15 0 0 0 .024-.038.077.077 0 0 0 .002-.047v-.003a.083.083 0 0 0-.077-.078c-.013 0-.026.01-.036.033Zm.078.228a.15.15 0 0 1 .037-.067c0-.002.002-.003.003-.004a.185.185 0 0 0 .03-.049.115.115 0 0 0 .003-.067.121.121 0 0 0-.114-.112c-.037 0-.06.027-.072.054a.206.206 0 0 0-.02.085.12.12 0 0 0 .018.066c.01.016.024.028.035.038h.001c.012.011.022.02.03.032a.072.072 0 0 1 .01.024.151.151 0 0 0-.001.02c0 .01.008.02.02.02h.002a.02.02 0 0 0 .02-.02c0-.007 0-.014-.002-.02Zm-1.672-.296h.001c.036 0 .059.027.072.054a.21.21 0 0 1 .02.085.119.119 0 0 1-.018.066.184.184 0 0 1-.035.038.155.155 0 0 0-.029.031.08.08 0 0 0-.011.045h-.04c0-.039-.017-.06-.038-.087 0-.002-.002-.003-.003-.004a.185.185 0 0 1-.03-.049.116.116 0 0 1-.003-.067.122.122 0 0 1 .114-.112Zm-.018.248a.283.283 0 0 0-.028-.04l-.004-.004a.15.15 0 0 1-.024-.038.077.077 0 0 1-.002-.047v-.003a.082.082 0 0 1 .078-.078c.012 0 .025.01.036.033.01.021.016.048.016.068a.08.08 0 0 1-.012.045.152.152 0 0 1-.028.03l-.001.001c-.01.01-.022.02-.031.033Zm.662-.211a.02.02 0 0 1 .017-.01.12.12 0 0 1 .093.037.148.148 0 0 1 .034.087.31.31 0 0 1-.05.191.02.02 0 0 1-.035-.011.048.048 0 0 0-.015-.032.215.215 0 0 0-.046-.037.373.373 0 0 1-.035-.028.06.06 0 0 1-.025-.047c0-.042.03-.066.048-.082a.01.01 0 0 0 .006-.005c.011-.009.016-.014.017-.019.001-.003.002-.01-.008-.024a.02.02 0 0 1-.001-.02Zm.048.033a.07.07 0 0 1 .033.02.11.11 0 0 1 .024.064.268.268 0 0 1-.024.13.257.257 0 0 0-.053-.049l-.008-.006-.031-.023c-.01-.01-.012-.016-.012-.019 0-.023.014-.035.034-.052l.007-.005a.085.085 0 0 0 .029-.037.053.053 0 0 0 .001-.023Zm.18-.006a.12.12 0 0 1 .092-.037.02.02 0 0 1 .016.03c-.01.015-.01.021-.008.024.001.005.006.01.017.02l.006.004c.019.016.049.04.049.082 0 .02-.013.036-.026.047-.01.01-.023.019-.035.028a.5.5 0 0 0-.045.037.048.048 0 0 0-.014.032.02.02 0 0 1-.036.011.31.31 0 0 1-.051-.191.148.148 0 0 1 .034-.087Zm.028.22a.268.268 0 0 1-.024-.13.11.11 0 0 1 .024-.064.071.071 0 0 1 .033-.02.052.052 0 0 0 .002.023.084.084 0 0 0 .028.037l.007.005c.02.017.035.03.035.052 0 .003-.003.01-.013.019l-.03.023-.01.006a.252.252 0 0 0-.052.049Z" clip-rule="evenodd"/><path fill="#fff" d="M10.642 10.86c.048 0 .12.021.14.048l-.14-.048Zm.237.072c.024 0 .12.021.165.048l-.165-.048Zm.858.096c-.045 0-.141 0-.165.021l.165-.024v.003Zm-.261 0c-.027-.027-.12-.027-.168 0h.168Zm1.884-.168a.24.24 0 0 0-.141.048l.14-.048Zm-.234.072c-.03 0-.12.021-.168.048l.168-.048Zm-.861.096c.045 0 .14 0 .168.021l-.168-.024v.003Zm.26 0c.028-.027.12-.027.169 0h-.168Z"/><path fill="#C09300" fill-rule="evenodd" d="M13.373 10.858a.013.013 0 0 1-.009.015l-.14.048a.014.014 0 0 1-.013-.024.254.254 0 0 1 .149-.05c.006 0 .012.004.013.01Zm-2.744 0a.014.014 0 0 1 .013-.011.29.29 0 0 1 .123.03.093.093 0 0 1 .029.023.014.014 0 0 1-.015.021l-.141-.048a.014.014 0 0 1-.01-.015Zm.237.072c0-.006.006-.011.013-.011a.4.4 0 0 1 .078.014c.033.009.07.021.094.036.006.003.008.01.005.017a.014.014 0 0 1-.016.007l-.165-.048a.013.013 0 0 1-.01-.015Zm2.18.003a.375.375 0 0 1 .08-.014c.007 0 .012.005.013.011a.014.014 0 0 1-.01.015l-.167.048a.014.014 0 0 1-.01-.025.432.432 0 0 1 .093-.035ZM11.447 11c.015.004.028.01.037.019a.014.014 0 0 1-.01.023h-.167a.014.014 0 0 1-.007-.025.212.212 0 0 1 .099-.023.18.18 0 0 1 .048.006Zm1.154-.006c.034 0 .072.007.098.022.006.003.009.01.007.016a.014.014 0 0 1-.013.01h-.168a.013.013 0 0 1-.012-.009.013.013 0 0 1 .002-.014.08.08 0 0 1 .037-.02.201.201 0 0 1 .05-.005Zm-.856.021a.014.014 0 0 1 .004.01v.003a.014.014 0 0 1-.013.014h-.02l-.143.02a.013.013 0 0 1-.014-.007.014.014 0 0 1 .003-.016.083.083 0 0 1 .035-.015 1.017 1.017 0 0 1 .116-.01l.021-.002c.004 0 .008 0 .01.003Zm.51 0a.013.013 0 0 1 .01-.003l.021.003a1.022 1.022 0 0 1 .117.009.093.093 0 0 1 .037.015c.005.003.007.01.004.016a.013.013 0 0 1-.014.008l-.146-.021h-.02a.014.014 0 0 1-.014-.014v-.003c0-.004.002-.008.005-.01Z" clip-rule="evenodd"/><path fill="#C09300" d="M10.6 11.238c-.015-.003-.024-.018-.018-.03.002-.021.018-.03.03-.024.011 0 .027.018.027.024l-.012.021-.007.003c0 .006-.011.006-.02.006Zm1.65.117c-.007 0-.019-.015-.019-.021 0-.012.018-.03.03-.03l.024.012a.025.025 0 0 1-.003.036c-.006.006-.024.006-.033 0v.003Zm.008.075c-.012-.006-.015-.012-.018-.024 0-.015 0-.018.015-.027l.012-.006.012.006c.012.006.021.012.021.024 0 .009-.009.018-.02.024-.01.006-.013.006-.022 0v.003Z"/><path fill="#C09300" d="M10.734 11.1c-.012 0-.027.012-.036.018-.018.003-.042.015-.06 0-.018-.003-.042 0-.045.024.003.021.03.03.048.018.012-.015.045-.027.051 0-.015.024-.012.051-.024.072 0 .015-.009.027-.015.04-.015 0-.03 0-.042.008a.06.06 0 0 0-.048.024c-.012.018-.024.036-.027.06.003.018.03.024.048.027l.06.018.096.027c.048.015.096.021.144.033l.015.003c.021.006.03-.015.03-.03l.03-.108c.006-.015.015-.045-.012-.039-.015.01-.03.024-.048.024-.027 0-.012.03 0 .04a.112.112 0 0 1-.015.053c-.018.01-.036 0-.054-.006-.015 0-.05-.009-.036-.03l.015-.054c.01-.018.01-.039.015-.06-.012-.02-.03.01-.045.012-.012.006-.048.01-.03.03.018.012.006.033 0 .051 0 .021-.024.03-.042.021-.018 0-.045-.015-.03-.033l.015-.054.021-.06c0-.02.01-.036.018-.054 0-.02.015-.039.015-.06 0-.009-.006-.012-.012-.012V11.1Zm-.11.22a.01.01 0 0 1 .008 0c.006.005.006.011 0 .017l-.009.006c-.015 0-.018-.003-.018-.009 0-.003 0-.006.01-.009a.042.042 0 0 1 .011-.006h-.003Zm-.03.15c-.016-.013-.013-.022.008-.04.012-.006.015-.006.027.003.018.015.018.024 0 .04-.006.005-.009.005-.015.005-.009 0-.012 0-.02-.006v-.003Zm.09.03a.027.027 0 0 1-.019-.034c.006-.012.01-.015.027-.015.021 0 .024.003.027.021 0 .012 0 .015-.009.021a.03.03 0 0 1-.024.006h-.003Zm2.675 0c-.006-.004-.009-.007-.009-.016 0-.012.006-.02.024-.027.018-.009.03-.009.036.006.01.018.01.024-.003.036-.006.01-.009.01-.024.01-.015 0-.018 0-.024-.007V11.5Zm-2.55.035c-.012 0-.018-.012-.018-.024 0-.009 0-.012.006-.018l.018-.006.018.003c.015.012.018.024.01.036-.01.012-.019.012-.037.01h.003Zm.654.03-.006-.009c0-.018 0-.033.006-.05.003-.016 0-.03.006-.046l.012-.084c0-.015 0-.03.006-.042.003-.024 0-.045.006-.066 0-.009.01-.03.018-.018.012.018.027.03.042.045.012.01 0 .021-.009.024-.012.003-.015.018-.015.03l-.006.036c0 .021 0 .04-.006.06l-.003.054-.006.036c0 .012 0 .027-.012.033-.009.006-.024.006-.03-.003h-.003Zm.891-.294-.039.036c-.018.015.015.021.018.033a.166.166 0 0 1 .006.054.09.09 0 0 1 .006.051c0 .021-.024.015-.036.027-.015.006-.02.021-.03.03a.127.127 0 0 0-.012.048c0 .015-.009.03 0 .042l.003.006h.015l.045-.003c.036-.006.075-.006.111-.009l.066-.006c.018.003.027-.015.027-.03-.012-.02-.003-.042-.012-.06-.006-.024-.003-.045-.006-.066 0-.018-.02-.024-.03-.012-.012.012-.03.015-.036.027-.009.018.018.018.024.03l.003.045c.003.018-.015.018-.03.021-.015.006-.036.01-.045-.009-.006-.015-.006-.03-.006-.045 0-.03-.009-.054-.009-.08 0-.03-.009-.064-.009-.097 0-.015-.003-.036-.024-.033Zm-.018.246h.01v.024l-.01.003a.117.117 0 0 1-.012.003.06.06 0 0 1-.006 0c-.006-.006-.006-.015.003-.024l.015-.006Zm-.9-.276c-.009 0-.024.021-.036.018-.027.003-.024.03-.003.04v.023c.003.024-.012.045-.009.07 0 .023-.009.05-.009.077-.009.027-.009.054-.012.081-.003.024-.02.015-.036.01v-.03c.003-.028-.015-.034-.036-.037-.02 0-.03-.015-.024-.033.01-.012.03-.009.045-.009.03.006.027-.033.012-.048-.012-.018-.036-.03-.042-.048a.077.077 0 0 0-.036-.063c-.033-.003-.06.024-.069.054a.098.098 0 0 0-.042.012c-.02.006-.05.042-.02.057.014.003.065.015.041.036-.012.024-.036.024-.057.018-.02 0-.045-.012-.045-.036-.003-.024-.003-.048-.012-.069-.006-.024-.033-.018-.036.006-.02.015-.018.042-.003.06.01.021 0 .048-.009.066-.006.03-.036.03-.057.036-.009.006-.048 0-.033.021a.12.12 0 0 0 .072.01c.024 0 .045-.022.06-.043.015-.015.042-.006.066-.006.021 0 .045.015.07.003.005-.015.035-.045.044-.015 0 .027.021.04.045.036.027 0 .015.018.015.036 0 .027.021.042.045.054h.024c.021-.009.045-.018.054-.042.01-.02.01-.045.015-.066a.591.591 0 0 0 .012-.102c.01-.03.006-.063.012-.096l.01-.069c0-.015-.007-.015-.016-.012Zm-.2.123c.002 0 .005.006.005.015 0 .012.006.021.015.024v.01l-.024.005a.05.05 0 0 1-.036-.015l-.006-.006.01-.006.014-.015c.01-.009.015-.012.021-.012Zm1.98-.237a.251.251 0 0 0-.052.01c-.03 0-.045.03-.015.047.018.045.045-.012.075-.006.042.006.045.054.054.09 0 .033.012.066.021.1.03.032-.02.053-.042.03-.018-.022-.06-.046-.08-.019-.028.012-.03.048-.052.06-.036.01-.039-.036-.06-.054-.018-.027-.05-.03-.078-.036-.012-.027-.006-.072-.03-.09-.024.01-.066.051-.03.072.03.03-.015.042-.03.06a.13.13 0 0 0-.03.09c-.039.021-.045-.024-.05-.05 0-.034-.03-.025-.052-.013-.03.012-.042.04-.06.06v.06c.006.027.036.015.054.012.03-.012.042.021.018.04-.018.017-.066.008-.06.041h.048c.03-.009.066-.033.07-.069.005-.03.05-.027.074-.033.03-.009.07-.012.078.03.021.021.066.045.09.015a.072.072 0 0 0 .033-.069c-.003-.024.04-.024.051-.009.015.024.063.018.087 0 .024-.015.03-.048.066-.048l.162-.045c.042-.009-.006-.036-.018-.054-.03-.015-.06.051-.096.018-.03-.02-.027-.06-.036-.093-.009-.042-.006-.09-.036-.12-.018-.02-.048-.027-.075-.027Zm-.205.285a.02.02 0 0 1 .015.006c.012.006.021.018.021.03 0 .006 0 .006-.009.01l-.015.005c-.006 0-.02-.009-.02-.015v-.012c-.007-.012-.007-.012 0-.018l.008-.006Zm.195.012c.012 0 .018 0 .024.01.003.011 0 .017-.012.023l-.015.006-.012-.009c-.006-.003-.009-.006-.009-.012 0-.009.012-.018.024-.02v.002Zm-.27 0c.006 0 .01 0 .012.006.006.006.01.01.01.018v.018c0 .01 0 .006-.019.006-.018 0-.02 0-.02-.018 0-.012 0-.015.008-.02.003-.007.01-.007.012-.007l-.003-.003Zm-.162.045.008.005a.018.018 0 0 1 .004.007c0 .01 0 .015-.006.018-.009.003-.024.006-.03 0v-.003c-.006-.003-.006-.006 0-.009v-.003l.006-.009a.015.015 0 0 1 .008-.006.015.015 0 0 1 .01 0Zm.276.036.015.003v.018h-.036l-.003-.006c0-.006 0-.009.006-.012l.018-.003Zm-.513.144c-.003 0-.009-.003-.003-.006.003-.009.015-.012.024-.018a.101.101 0 0 0 .042-.03c0-.012.012-.018.012-.03l-.003-.042a.053.053 0 0 0-.024-.03c-.009-.003-.02-.006-.024-.018 0-.009.01-.018.012-.027l.018-.036c.01-.009.021 0 .024.006l.015.03a.062.062 0 0 1 .018.03c.006.012.012.021.012.03l.006.04c0 .014 0 .032-.006.047l-.018.024a.061.061 0 0 1-.03.021c-.009.003-.015.012-.027.012h-.045l-.003-.003Zm-.207.012c-.006-.006-.009-.009-.009-.018s0-.009.01-.018c.011-.012.017-.012.041 0 .021.012.03.012.03.003.003-.006.015-.015.03-.015a.02.02 0 0 1 .015.006c.006.006.01.01.01.021 0 .015 0 .015-.01.024-.009.006-.009.006-.02.006a.027.027 0 0 1-.025-.018c0-.006 0-.009-.006-.003l-.006.003c-.006 0-.018.01-.024.015l-.015.003c-.012 0-.012 0-.02-.009Zm-.594-.267a.048.048 0 0 0-.045.04c.006.02.024.044.012.065.01.03-.024.042-.045.027-.012-.03-.018-.06-.039-.09-.024-.006-.033.033-.05.048.008.021.032.042.035.07a.071.071 0 0 1-.033.071c-.02.021-.05.015-.075.018-.03.018.021.024.036.024.03.003.063 0 .09-.024.021-.009.018-.05.045-.054l.144.01c.024.005.063-.004.081.014 0 .03.03.054.057.066.015.006.03-.015.045-.018.03-.009.021-.045.04-.06h.15c.005 0 .008-.015.017-.02l-.006-.058c-.009-.024 0-.054-.015-.075-.027-.006-.048.015-.072.018a.085.085 0 0 0-.054.07c-.015.026-.042-.007-.03-.03l-.003-.03c-.015-.016-.042-.01-.063-.013l-.09-.006c-.03 0-.057.003-.08-.003-.03 0-.03-.03-.03-.054a.03.03 0 0 0-.022-.006Zm.06.111.03.003h.04c.03.006.06.006.09.006.005 0 .011.006.017.012v.06c0 .01 0 .021-.006.024a.02.02 0 0 1-.006.006.03.03 0 0 1-.02-.015v-.042a.039.039 0 0 0-.022-.009l-.078-.003-.06-.003c-.009-.003-.02 0-.027-.012-.006-.006.003-.018.012-.02a.07.07 0 0 1 .03-.007Zm.34.01c.002 0 .005 0 .005.008l.006.015c0 .003 0 .006-.006.006-.015.006-.03.006-.036 0 0-.003 0-.015.006-.018l.024-.012Z"/><path fill="#fff" d="M12 9.816c.978-.75.894-1.854.894-1.854l-.075.006c-.207 0-.696-.12-.81-.267-.12.135-.624.27-.828.27l-.075-.01s-.087 1.102.894 1.855Z"/><path fill="#C09300" fill-rule="evenodd" d="m12.01 7.675.012.016a.407.407 0 0 0 .14.099 1.757 1.757 0 0 0 .656.162l.092-.008v.017l-.016.001.017-.001v.014l.002.037c0 .032 0 .078-.004.136a2.346 2.346 0 0 1-.079.465c-.102.373-.327.84-.82 1.217l-.01.008-.01-.008a2.27 2.27 0 0 1-.82-1.218 2.331 2.331 0 0 1-.078-.464c-.004-.058-.004-.104-.004-.136a1.352 1.352 0 0 1 .002-.047v-.003l.016.001-.016-.001.001-.017.091.01c.1 0 .275-.033.44-.083a1.75 1.75 0 0 0 .229-.086.472.472 0 0 0 .146-.095l.013-.015Zm-.888.306-.001.03a2.29 2.29 0 0 0 .08.591c.1.365.32.82.8 1.193.478-.37.697-.827.797-1.192a2.305 2.305 0 0 0 .08-.623l-.058.005c-.106 0-.282-.03-.445-.08a1.498 1.498 0 0 1-.227-.085.486.486 0 0 1-.14-.094.567.567 0 0 1-.143.09c-.068.031-.15.061-.233.087a1.85 1.85 0 0 1-.45.085h-.002l-.058-.007Z" clip-rule="evenodd"/><path fill="#fff" d="M12.816 8.04h-.024c-.186 0-.618-.093-.786-.237-.174.132-.615.24-.798.24a.14.14 0 0 1-.024-.003A2.133 2.133 0 0 0 12 9.714c.359-.283.617-.674.738-1.116.05-.182.076-.37.078-.558Z"/><path fill="#C09300" fill-rule="evenodd" d="m12.007 7.785.008.007c.081.07.229.129.38.17.152.041.306.064.397.064h.024v.013h.014c-.002.19-.029.38-.079.562a2.15 2.15 0 0 1-.743 1.123L12 9.731l-.008-.007a2.144 2.144 0 0 1-.743-1.12 2.206 2.206 0 0 1-.078-.564v-.017l.016.003a.126.126 0 0 0 .021.003c.09 0 .245-.027.399-.07.154-.043.306-.103.39-.167l.01-.007Zm.795.268h-.01a1.74 1.74 0 0 1-.403-.065 1.116 1.116 0 0 1-.383-.168c-.09.065-.242.123-.392.165a1.733 1.733 0 0 1-.406.071.15.15 0 0 1-.01 0A2.116 2.116 0 0 0 12 9.696c.353-.282.607-.668.725-1.103.048-.176.074-.358.077-.541Z" clip-rule="evenodd"/><path fill="#C09300" d="M11.682 7.95a1.866 1.866 0 0 1-.498.09l.003.123a2.183 2.183 0 0 0 .495 1.24V7.95Zm.618 0v1.476a2.19 2.19 0 0 0 .513-1.263l.003-.12h-.024c-.114 0-.312-.036-.492-.096v.003Z"/><path fill="#fff" d="M12.369 7.59c.02.003-.027-.105-.027-.105.054.054.252.069.252.069-.12-.054-.24-.453-.225-.774.012-.318-.045-.444-.09-.492-.06-.06-.255-.114-.381-.12-.075-.003-.06.054-.06.054-.135-.033-.27-.048-.33-.006-.054.036-.066.225-.024.192.099-.081.186-.006.246.08.054.076.05.292-.027.547-.07.192-.17.372-.3.53.12 0 .288-.104.288-.104l-.04.165a1 1 0 0 0 .226-.153l.12.126c.039-.054.12-.126.12-.126s.099.105.252.12V7.59Z"/><path fill="#C09300" fill-rule="evenodd" d="M11.849 6.16a.097.097 0 0 1 .05-.01.969.969 0 0 1 .32.079c.03.013.056.03.073.046.05.054.107.187.095.506-.007.158.019.336.061.481a.92.92 0 0 0 .074.185c.027.049.055.08.08.09l-.01.035.002-.018-.001.018h-.01a1.102 1.102 0 0 1-.186-.036.34.34 0 0 1-.02-.008l.002.005a.26.26 0 0 1 .012.039v.019a.023.023 0 0 1-.005.009v.013l-.02-.002a.435.435 0 0 1-.244-.108l-.006-.005-.033.03a.721.721 0 0 0-.072.082l-.013.017-.123-.129a.988.988 0 0 1-.216.144l-.034.016.038-.16-.064.032a.514.514 0 0 1-.197.054h-.038l.024-.03a1.76 1.76 0 0 0 .297-.525 1.37 1.37 0 0 0 .062-.335.584.584 0 0 0-.006-.12.182.182 0 0 0-.027-.074.28.28 0 0 0-.1-.098.1.1 0 0 0-.057-.01.125.125 0 0 0-.062.03c-.009.007-.021.012-.034.004-.01-.005-.014-.016-.017-.024a.192.192 0 0 1-.003-.066.32.32 0 0 1 .017-.076.118.118 0 0 1 .039-.059c.035-.024.09-.03.148-.028a.966.966 0 0 1 .174.026l.003-.012a.055.055 0 0 1 .026-.028Zm-.167 1.286.037-.023-.04.17a.962.962 0 0 0 .169-.118l.013-.011.003-.003V7.46m-.182-.014h-.002a.26.26 0 0 1-.026.016.751.751 0 0 1-.07.035.588.588 0 0 1-.14.047c.118-.152.211-.321.276-.503a1.4 1.4 0 0 0 .064-.346.615.615 0 0 0-.007-.128.218.218 0 0 0-.032-.088.317.317 0 0 0-.116-.11.135.135 0 0 0-.075-.013.157.157 0 0 0-.075.033.286.286 0 0 1 .013-.117.096.096 0 0 1 .026-.041c.025-.018.069-.025.126-.022.057.002.123.014.19.03l.03.008-.008-.03-.001-.005c0-.003 0-.008.002-.011a.018.018 0 0 1 .009-.01.062.062 0 0 1 .031-.005.934.934 0 0 1 .307.075.231.231 0 0 1 .062.04c.04.042.097.162.085.478-.007.163.02.345.063.493a.97.97 0 0 0 .077.192.388.388 0 0 0 .044.065" clip-rule="evenodd"/><path fill="#C09300" fill-rule="evenodd" d="m11.99 6.813.02.001-.039-.004-.114.66.037.012a.725.725 0 0 0 .055-.175 2.8 2.8 0 0 0 .035-.221 5.062 5.062 0 0 0 .024-.25l.002-.016v-.006l-.02-.001Zm-.107.015.019.002-.038-.008-.192.63.033.019a.51.51 0 0 0 .087-.163 1.71 1.71 0 0 0 .06-.212 3.314 3.314 0 0 0 .047-.244l.002-.016v-.005l-.018-.003Zm.181.006.039-.001.03.639-.038.007a.328.328 0 0 1-.01-.058 5.791 5.791 0 0 1-.02-.5v-.063l-.001-.018v-.006h.02-.02Zm.12.028.02-.001.019-.001v.005a4.916 4.916 0 0 0 .005.068c.005.046.011.108.021.175.01.067.024.14.042.205.018.065.04.122.067.16l-.033.023a.59.59 0 0 1-.072-.173 1.808 1.808 0 0 1-.043-.21 3.048 3.048 0 0 1-.026-.246v-.005Z" clip-rule="evenodd"/><path fill="#C09300" d="M11.76 6.588a.24.24 0 0 0-.03-.099c-.06-.09-.147-.162-.246-.08 0 0 .033-.106.108-.109.054-.003.183.042.297.234 0 0-.084-.018-.105 0-.036.03-.02.054-.02.054h-.004Z"/><path fill="#C09300" fill-rule="evenodd" d="M11.88 6.528c-.112-.184-.237-.226-.288-.223-.035.001-.061.027-.079.053a.233.233 0 0 0-.019.036v.001a.142.142 0 0 1 .061-.025.121.121 0 0 1 .068.01c.043.02.08.062.11.107a.244.244 0 0 1 .027.07.078.078 0 0 1 .021-.026.055.055 0 0 1 .028-.009l.036.001a.432.432 0 0 1 .035.005Zm-.113.058-.002-.003a.027.027 0 0 1 0-.01c0-.008.005-.02.022-.035.004-.004.012-.006.022-.007l.035.001a.428.428 0 0 1 .043.007h.001l.01.002-.005-.009c-.115-.193-.245-.24-.301-.236-.04.002-.068.03-.086.057a.237.237 0 0 0-.026.053v.001l.004.002-.004-.002-.005.015.012-.01a.141.141 0 0 1 .07-.033.112.112 0 0 1 .063.01c.04.019.076.058.106.103.017.03.027.063.03.097v.004h.015l-.004-.007Z" clip-rule="evenodd"/><path fill="#C09300" d="M11.472 6.279c.009-.03.02-.054.039-.063.06-.042.192-.03.327.006 0 0-.012-.057.06-.054.126.006.318.06.378.12a.23.23 0 0 1 .045.072c-.03-.042-.114-.04-.135-.036-.03.003-.051 0-.093.012-.021.006-.051.012-.07.024-.011.012-.023.048-.041.048-.03 0-.03-.006-.04-.015-.008-.015-.014-.033-.026-.03-.03.003-.084-.021-.15-.075-.07-.054-.096-.066-.18-.06-.09.006-.114.057-.114.057v-.006Z"/><path fill="#C09300" fill-rule="evenodd" d="M11.842 6.22v-.007c0-.005 0-.011.003-.018a.034.034 0 0 1 .015-.016.071.071 0 0 1 .038-.007.928.928 0 0 1 .31.077c.027.013.05.027.065.042a.234.234 0 0 1 .034.05.137.137 0 0 0-.056-.02.253.253 0 0 0-.066-.002v.005-.005m-.239.07a.148.148 0 0 1-.005-.008v-.002a.12.12 0 0 0-.007-.01.028.028 0 0 0-.008-.009.014.014 0 0 0-.011-.002.12.12 0 0 1-.059-.015.46.46 0 0 1-.087-.059.309.309 0 0 0-.086-.053.236.236 0 0 0-.098-.008.165.165 0 0 0-.104.042.141.141 0 0 1 .01-.023.054.054 0 0 1 .022-.022.23.23 0 0 1 .133-.026.904.904 0 0 1 .19.032l.008.002-.002-.007m-.366.058a.238.238 0 0 1 .005-.014.102.102 0 0 0-.01.013h-.004a.186.186 0 0 1 .017-.04.063.063 0 0 1 .024-.026l.003.004-.002-.004c.03-.022.08-.03.137-.027a.977.977 0 0 1 .187.03v.007h.005v-.005l-.005-.001v-.003c0-.006 0-.014.004-.021a.042.042 0 0 1 .019-.021.08.08 0 0 1 .042-.008.938.938 0 0 1 .313.077.253.253 0 0 1 .068.045c.02.021.035.046.046.073l-.008.004c-.014-.02-.04-.029-.068-.033a.244.244 0 0 0-.063 0h-.024c-.02.002-.039.003-.068.011l-.014.004-.021.006a.127.127 0 0 0-.032.013.07.07 0 0 0-.008.012l-.004.005-.006.01a.074.074 0 0 1-.012.015.023.023 0 0 1-.015.007.063.063 0 0 1-.03-.004.028.028 0 0 1-.007-.006l-.002-.003-.003-.003-.001-.001a.303.303 0 0 1-.012-.021.02.02 0 0 0-.006-.006.005.005 0 0 0-.004 0 .128.128 0 0 1-.065-.017.47.47 0 0 1-.089-.06.3.3 0 0 0-.083-.052.227.227 0 0 0-.094-.007.157.157 0 0 0-.088.03.095.095 0 0 0-.022.024l-.009-.001v-.006h.005m.114-.056v.005-.005Zm.329.135v.005-.005Zm.031.032-.003.003.003-.003Z" clip-rule="evenodd"/><path fill="#fff" d="M11.964 6.357a.036.036 0 1 0 0-.072.036.036 0 0 0 0 .072Z"/></g><defs><clipPath id="a"><path fill="#fff" d="M0 0h24v18H0z"/></clipPath></defs></svg>