<svg xmlns="http://www.w3.org/2000/svg" width="24" height="18" fill="none"><g fill-rule="evenodd" clip-path="url(#a)" clip-rule="evenodd"><path fill="currentColor" d="M-.765 0h36.096v9.024H-.765V0Z"/><path fill="#107B00" d="M-.765 9.024h36.096v9.024H-.765V9.024Z"/><path fill="#fff" d="M-.765 5.968h36.096v6.208H-.765V5.968Z"/><path fill="#F0F" d="M16.508 6.895c-1.593-.687-2.965.726-2.961 2.045 0 1.381 1.34 2.855 3.031 2.203-1.198-.353-1.692-1.245-1.692-2.14-.01-.888.557-1.925 1.622-2.111v.003Z"/><path fill="#FF1800" d="m18.38 10.37-.91-.666-.917.67.353-1.075-.917-.663h1.128l.35-1.075.345 1.072h1.131l-.913.662"/><path fill="red" d="M16.66 11.125a2.298 2.298 0 0 1-3.145-2.094 2.292 2.292 0 0 1 3.155-2.147 2.136 2.136 0 0 0-1.805 2.087 2.161 2.161 0 0 0 1.798 2.154h-.004ZM-.766 0l12.289 9.045-12.289 9.003V0Z"/></g><defs><clipPath id="a"><path fill="#fff" d="M0 0h24v18H0z"/></clipPath></defs></svg>