<svg xmlns="http://www.w3.org/2000/svg" width="24" height="18" fill="none"><g fill-rule="evenodd" clip-path="url(#a)" clip-rule="evenodd"><path fill="#BE0027" d="M0 0h24v18H0V0Z"/><path fill="#B4D7F4" d="m0 18 24-.011V9L0 18Z"/><path fill="#239E46" d="m0 0 24 .011V9L0 0Z"/><path fill="#F3E295" d="M6.982 13.515c-.4.112-.63.424-.626.716l1.98-.007c.015-.315-.244-.608-.637-.724 1.935-.038 3.615-.765 3.922-1.23-.3-.131-.652.079-.9.03.589-.274 2.363-1.421 2.074-2.651-.225.682-.9 1.248-1.193 1.402.664-1.005 1.568-2.055.784-2.865.038.469-.3.986-.45 1.028.386-1.065.75-2.4-.079-3.278.11.319.064 1.215-.086 1.256-.045-.723-.169-2.242-.93-2.223.24.217.345.802.353 1.395a2.156 2.156 0 0 0-.792-1.013 4.436 4.436 0 0 0-1.556-1.582c.068.476.124.85.788 1.346-.345-.023-.69-.679-1.062-.698-.296-.015-.525.267-1.008.105.052.158.277.229.326.345-.105.075-.349-.011-.551-.112.28.375.712.6 1.08.525a1.96 1.96 0 0 1 1.357.217 2.362 2.362 0 0 1-.844.023c.26.262.432.439.885.435.402 0 .615-.218.717-.083.255.3.423.6.637.953-.469.049-.326-.529-.847-.825-.297.6.337 1.32.76 1.62-.011.41.08.816.267 1.181.131.244.3.495.236 1.046-.258-.187-.506-.817-.412-1.316-.323.086-.45.653-.3.938.112.213.187.63.06.813-.128.173-.139.15-.139.525.004.218-.12.48-.319.664.059-.192.073-.394.042-.592-.158.27-.56.547-.683.84-.124.288-.154.795-.75.91-.772.15-1.039.286-1.53.488-.056-.375.109-1.162.424-1.113.304.052 1.237-.323.9-1.107-.064.248-.281.488-.521.5.258-.33.712-.676.49-1.23a1.589 1.589 0 0 1-.61.674c.315-.6.037-.787-.338-.285-.142.191-.229.578-.319 1.069-.15-.398-.138-.923-.315-1.35-.18-.461.244-.581.443-.544.487.131 1.309.131 1.249-.679-.214.274-.582.357-.983.263.45-.33.803-.949.3-1.275a1.162 1.162 0 0 1-.634.904 1.905 1.905 0 0 1-.01-.93c-.196.21-.338.637-.455 1.132-.01-.487.083-.836.15-1.099.105-.378.36-.131.75-.105.383.023.9-.187.803-.7-.128.205-.394.284-.664.262.326-.2.893-.548.581-1.088-.13.203-.172.375-.55.439.097-.225.112-.551.412-.675-.525-.109-.825.236-.983.776-.06-.375-.135-.51-.15-.787.285-.312.315-.93-.3-1.065-.04.217-.025.442.045.652-.289-.172-.694-.266-.967-.026.187.199.468.375.907.157-.105.338-.375.282-.742.15.225.424.51.5.825.45.165.435.172.765-.312 1.395.023-.39-.003-.682-.315-1-.27-.263-.487.01-.067.592-.255-.188-.54-.563-.626-.942-.083.465-.008 1.017.25 1.328-.123.131-.262-.015-.468-.338.075 1.028.514 1.227 1.103.998.015.562.015 1.084.048 1.762-.34-.495-.776-.862-1.016-.952-.075.274.206.637.368.836-.244-.052-.77-.45-.77-.45-.052.454.537.878.92 1.065-.45-.019-.65-.187-.938-.465.008 1.268 1.373 1.046 1.631.851l.113 1.97c-.386-.068-.356-.188-.686-.215-.92-.037-1.647-1.102-1.887-1.886-.07.128-.015.263-.078.424-.15-.386-.338-.885-.597-1.118.068.225.075.454.053.874-.09-.27-.169-.356-.176-.675.003-.244.236-.424.225-.769-.012-.25-.24-.798-.274-1.218-.113.435-.18.892-.353 1.162.087-.465.06-.787.203-1.099.165-.326.304-.622.195-.952-.105.127-.071.244-.338.555-.056-.338.345-.881.735-1.099.274-.142.62-.66.394-1.012-.259.187-.375.435-.739.862.263-1.012.938-1.282 1.744-1.286.176 0 .536-.064.638-.3a1.396 1.396 0 0 1-.735.052c.176-.258.54-.225.885-.225.266 0 .686-.037.855-.42-.371.145-.777.17-1.163.072.514-.263 1.313-.293 1.725-.642-.469-.348-1.639.083-2.377.589.206-.187.532-.525.712-.795-.405-.195-1.425.938-1.777 1.613-.338.187-.47.487-.6.693.176-.603.195-1.042.345-1.537-1.144.39-.672 2.512-.92 3.022.03-.562.005-1.278-.224-1.65-.353.27-.383 1.857-.053 3.177-.12-.353-.345-.683-.416-1.114-.525.952.308 2.081 1.001 2.97-.525-.274-1.038-.859-1.38-1.35.094 1.71 1.875 2.062 2.153 2.482-.375-.176-1.091-.52-1.399-.157.427.079.837.233 1.211.454.465.577 1.34.832 2.865.896Z"/></g><defs><clipPath id="a"><path fill="#fff" d="M0 0h24v18H0z"/></clipPath></defs></svg>