<svg xmlns="http://www.w3.org/2000/svg" width="24" height="18" fill="none"><g clip-path="url(#a)"><path fill="#FFC621" fill-rule="evenodd" d="M-6.233.124h36.59v17.554h-36.59V.124Z" clip-rule="evenodd"/><path fill="#EF2118" fill-rule="evenodd" d="M-6.304 12.073h36.636v5.975H-6.304v-5.975Z" clip-rule="evenodd"/><path fill="#298C08" fill-rule="evenodd" d="M-6.233 0h36.59v6.345h-36.59V0Z" clip-rule="evenodd"/><path fill="#006BC6" d="M11.415 13.13a3.801 3.801 0 1 0 0-7.603 3.801 3.801 0 0 0 0 7.602Z"/><path fill="#FFC621" fill-rule="evenodd" d="m9.71 6.634-.229.159.829 1.163.222-.14-.825-1.182h.003Zm1.037 2.75-.342-.24.14-.447-1.695.024-.493-.377 2.316-.025.43-1.3.232.528-.588 1.833v.004Zm2.696-2.492-.222-.17-.856 1.143.197.165.881-1.138Zm-2.305 1.815.123-.395h.47l-.537-1.614.212-.582.723 2.2 1.367.017-.43.378-1.928-.007v.003Zm3.194 1.805.095-.261-1.35-.469-.099.247 1.354.483Zm-2.436-1.636.412-.003.145.444 1.367-1.005.62.021-1.87 1.365.405 1.31-.494-.295-.585-1.837Zm-.698 3.596.278.007.01-1.428-.26-.017-.028 1.441v-.003Zm.775-2.83.134.39-.377.283 1.389.976.176.592-1.89-1.34-1.11.8.124-.563 1.55-1.139h.004Zm-3.641.458.081.264 1.364-.43-.07-.254-1.375.42Zm2.933-.142-.332.25-.38-.27-.5 1.62-.508.353.687-2.21-1.107-.81.575-.057 1.565 1.124Z" clip-rule="evenodd"/></g><defs><clipPath id="a"><path fill="#fff" d="M0 0h24v18H0z"/></clipPath></defs></svg>