<svg xmlns="http://www.w3.org/2000/svg" width="24" height="18" fill="none"><g clip-path="url(#a)"><path fill="#0052B4" d="M24 0H0v18h24V0Z"/><path fill="#FFDA44" d="m12 2 .373 1.146h1.205l-.975.708L12.975 5l-.974-.708-.975.708.372-1.146-.975-.708h1.205L12.001 2ZM7.05 4.05l1.074.547.852-.851-.188 1.19 1.073.547-1.19.188-.188 1.19-.547-1.073-1.19.188.852-.852-.547-1.073ZM5 9l1.146-.372V7.423l.708.975L8 8.026 7.292 9 8 9.975l-1.146-.372-.708.975V9.373L5 9Zm2.05 4.95.547-1.073-.851-.852 1.19.188.547-1.073.188 1.19 1.19.188-1.073.547.188 1.19-.852-.852-1.073.547ZM12 16l-.372-1.146h-1.205l.975-.708L11.026 13l.975.708.974-.708-.372 1.146.975.708h-1.205L12 16Zm4.95-2.05-1.073-.547-.852.852.188-1.19-1.073-.547 1.19-.188.188-1.19.547 1.073 1.19-.188-.852.852.547 1.073ZM19 9l-1.146.373v1.205l-.708-.975L16 9.975 16.708 9 16 8.026l1.146.372.708-.975v1.205L19 9Zm-2.05-4.95-.547 1.074.852.852-1.19-.189-.547 1.074-.188-1.19-1.19-.189 1.073-.546-.188-1.19.852.851 1.073-.546Z"/></g><defs><clipPath id="a"><path fill="#fff" d="M0 0h24v18H0z"/></clipPath></defs></svg>