<svg xmlns="http://www.w3.org/2000/svg" width="24" height="18" fill="none"><g clip-path="url(#a)"><path fill="#012169" d="M0 0h24v18H0V0Z"/><path fill="#012169" fill-rule="evenodd" d="M0 0h15v7.5H0V0Z" clip-rule="evenodd"/><path fill="url(#b)" fill-rule="evenodd" d="M15.483 11.584a.378.378 0 0 0-.063 0c-.113.022-.285.423-.375.66-.154.202-.233.36-.293.476-.026.045-.064.097-.052.157-.225.06-.237.278-.237.36 0 .094.027.139.027.139l.135.281v.004c.142.338.352.784.476.818.165.056.6-.124.93-.44a4.78 4.78 0 0 0 1.995.454c.765 0 1.451-.206 1.987-.453.33.315.765.495.938.439.112-.038.326-.488.472-.818l.132-.285s.026-.045.026-.135c0-.082-.011-.3-.236-.36.01-.06-.023-.113-.05-.161-.063-.12-.142-.278-.288-.488-.097-.232-.27-.626-.375-.645-.157-.03-.487.056-.487.09v.015l-.664.698c0 .018.034.525.161.975a4.262 4.262 0 0 1-1.624.307 4.18 4.18 0 0 1-1.62-.311c.083-.318.137-.645.162-.975l-.66-.694v-.015c0-.026-.255-.093-.417-.093Zm.165.862c.087 0 .173.082.244.165l-.004.049a3.11 3.11 0 0 1-.105.382 2.797 2.797 0 0 1-.457-.371c.071-.086.187-.202.307-.217h.015v-.008Zm4.748 0h.015c.124.023.236.139.311.225a2.784 2.784 0 0 1-.461.375 3.069 3.069 0 0 1-.113-.435c.075-.086.162-.161.248-.161v-.004Zm-5.34.99c.09.075.202.165.341.255a.374.374 0 0 1-.12.06.398.398 0 0 1-.176 0 .696.696 0 0 1-.038-.21 2.619 2.619 0 0 1-.007-.105Zm5.932 0-.003.105a.71.71 0 0 1-.038.206.346.346 0 0 1-.3-.056c.139-.09.255-.18.341-.255Z" clip-rule="evenodd"/><path fill="#fff" fill-rule="evenodd" d="M20.29 11.425a1.07 1.07 0 0 1 .376-.022.28.28 0 0 1 .131.067.534.534 0 0 1 .074.081c.042.055.081.123.117.192.07.13.136.284.184.399.131.19.21.34.269.451l.02.039.005.008a.733.733 0 0 1 .05.11.474.474 0 0 1 .204.23.67.67 0 0 1 .028.415.42.42 0 0 1-.025.064l-.129.28a7.943 7.943 0 0 1-.255.53c-.044.082-.09.16-.136.223a.7.7 0 0 1-.074.089.315.315 0 0 1-.119.076h-.001a.54.54 0 0 1-.267.005 1.305 1.305 0 0 1-.278-.092 2.12 2.12 0 0 1-.485-.309 4.933 4.933 0 0 1-1.953.42h-.001a4.96 4.96 0 0 1-1.96-.42 2.136 2.136 0 0 1-.484.309 1.304 1.304 0 0 1-.275.092.526.526 0 0 1-.26-.004.32.32 0 0 1-.12-.07.648.648 0 0 1-.081-.09 1.808 1.808 0 0 1-.14-.224 6.452 6.452 0 0 1-.253-.54l-.011-.027-.119-.246v-.002a.394.394 0 0 1-.025-.065.67.67 0 0 1 .029-.418.474.474 0 0 1 .203-.23.726.726 0 0 1 .059-.116l.006-.013c.058-.112.139-.269.285-.465a4.35 4.35 0 0 1 .178-.404c.036-.07.077-.14.12-.197a.533.533 0 0 1 .075-.084.288.288 0 0 1 .13-.067l.011-.002h.01a1.46 1.46 0 0 1 .52.08c.018.005.04.014.062.027.01.006.028.018.045.036a.2.2 0 0 1 .041.06l.682.716-.006.083a5.647 5.647 0 0 1-.128.847c.39.143.858.238 1.4.238h.001c.474.005.946-.075 1.399-.236a5.464 5.464 0 0 1-.126-.859v-.075l.68-.714a.204.204 0 0 1 .09-.1.432.432 0 0 1 .07-.032c.045-.016.1-.031.157-.043Zm-4.807.159-.015.18a.115.115 0 0 0 .015-.005v-.175Zm0 .183a4.088 4.088 0 0 0-.264.544l-.009.025-.016.021c-.137.18-.209.32-.267.434l-.008.015-.003.005-.002.004-.01.017-.001.002a.522.522 0 0 0-.016.027l.029.153-.168.045a.122.122 0 0 0-.053.027.107.107 0 0 0-.026.037.3.3 0 0 0-.012.168v.002l.155.322v.008c.068.158.147.332.223.472a1.47 1.47 0 0 0 .134.207c.01 0 .03 0 .063-.007a.932.932 0 0 0 .195-.067c.152-.069.325-.18.474-.323l.093-.089.116.054c.608.284 1.26.432 1.916.437a4.59 4.59 0 0 0 1.909-.437l.116-.053.092.088c.15.142.323.254.475.323a.934.934 0 0 0 .196.066.34.34 0 0 0 .062.008 1.73 1.73 0 0 0 .133-.211c.083-.152.17-.342.243-.506l.135-.294a.3.3 0 0 0-.013-.163.107.107 0 0 0-.025-.039.121.121 0 0 0-.053-.026l-.106-.029-.018.514a.9.9 0 0 1-.047.26l-.033.095-.096.026a.535.535 0 0 1-.458-.085l-.223-.16.23-.15c.131-.085.24-.17.32-.239l.306-.266-.043-.011.03-.158a.316.316 0 0 0-.008-.015l-.008-.016-.002-.003a.737.737 0 0 1-.01-.017l-.021-.041a3.712 3.712 0 0 0-.256-.428l-.011-.016-.008-.019a5.17 5.17 0 0 0-.177-.387 1.101 1.101 0 0 0-.091-.149c-.016 0-.036 0-.061.002a1.099 1.099 0 0 0-.215.041l-.616.647c.005.053.013.134.026.232.023.181.062.41.123.623l.046.163-.157.062a4.447 4.447 0 0 1-1.695.321c-.662 0-1.23-.133-1.691-.326l-.15-.062.04-.158a5.25 5.25 0 0 0 .15-.86l-.607-.637a1.079 1.079 0 0 0-.276-.045v-.005Zm5.069-.014c-.001 0-.002-.001 0 0Zm.31 2.563.002-.001h-.001Zm-5.683-.005h-.001.001Zm.319-2.56c0-.001 0 0 0 0Zm-.037.563a.678.678 0 0 0-.116.075 1.108 1.108 0 0 0-.164.163l-.108.131.12.121c.15.15.314.283.488.396l.202.13.078-.226c.045-.132.082-.268.111-.406l.002-.011.011-.139-.051-.06a.963.963 0 0 0-.146-.14.404.404 0 0 0-.24-.089h-.187v.055Zm.189.328h.004a.216.216 0 0 1 .04.032l-.015.062a2.609 2.609 0 0 1-.082-.068.186.186 0 0 1 .053-.026Zm4.558-.383h.22l.016.003a.59.59 0 0 1 .258.127c.066.053.122.114.162.16l.114.131-.123.124a2.981 2.981 0 0 1-.492.4l-.202.13-.078-.227a3.267 3.267 0 0 1-.11-.41h-.001v-.002a.87.87 0 0 1-.01-.062l-.01-.082.055-.063a.89.89 0 0 1 .201-.173v-.056Zm.192.379a.335.335 0 0 0-.05.034l.016.068.085-.071a.261.261 0 0 0-.052-.031Zm-5.344.799-.187.01.007.105a.884.884 0 0 0 .048.26l.035.104.107.02c.074.014.16.021.257-.003h.003l.003-.001a.561.561 0 0 0 .18-.09l.216-.161-.226-.147a3.304 3.304 0 0 1-.323-.242l-.12.145Z" clip-rule="evenodd"/><path fill="url(#c)" fill-rule="evenodd" d="M15.982 12.735s-.228-.416-.416-.383c-.191.027-.375.293-.382.308a1.874 1.874 0 0 1-.282-.357c.012-.014.293-.783.45-.817.15-.034.477.056.477.086l.153 1.163Z" clip-rule="evenodd"/><path fill="currentColor" fill-rule="evenodd" d="M15.489 11.504a.46.46 0 0 0-.131.005c-.013.002-.031.014-.053.037a.628.628 0 0 0-.069.092 2.493 2.493 0 0 0-.143.274 6.665 6.665 0 0 0-.117.271l-.028.07-.008.021a1.73 1.73 0 0 1-.011.027v.002c.073.118.157.226.251.322a.967.967 0 0 1 .11-.13c.071-.072.17-.15.273-.164.055-.01.111.014.16.049.05.036.098.087.14.137.032.04.06.081.084.116l-.14-1.052a1.172 1.172 0 0 0-.319-.077Zm.32.079c.001 0 .001 0 0 0Zm.154 1.163v-.001l-.002-.003-.008-.013a1.942 1.942 0 0 0-.126-.183.706.706 0 0 0-.13-.13c-.045-.032-.089-.048-.127-.041-.088.012-.178.08-.248.152a1.095 1.095 0 0 0-.109.13l-.007.01-.002.003-.014.028-.022-.022a1.893 1.893 0 0 1-.284-.36l-.008-.013.008-.011.003-.008.01-.027.01-.02.028-.07c.03-.076.072-.175.117-.274.046-.1.097-.2.146-.279a.672.672 0 0 1 .074-.099.16.16 0 0 1 .076-.05c.04-.01.092-.01.144-.006a1.243 1.243 0 0 1 .291.062.289.289 0 0 1 .043.018.08.08 0 0 1 .015.011c.003.003.01.01.01.02l.154 1.162-.042.014Z" clip-rule="evenodd"/><path fill="url(#d)" fill-rule="evenodd" d="M16.492 12.29c0 .03-.082 1.132-.409 1.514-.322.386-.862.623-1.057.566-.188-.06-.619-1.173-.619-1.173s.458.532.799.442c.341-.086.548-.753.611-1.083.064-.323.011-.964.011-.964l.668.697h-.004Z" clip-rule="evenodd"/><path fill="currentColor" fill-rule="evenodd" d="m15.801 11.53.748.782h-.035a5.9 5.9 0 0 1-.081.607c-.031.164-.072.34-.126.498a1.257 1.257 0 0 1-.206.402 1.879 1.879 0 0 1-.583.454 1.405 1.405 0 0 1-.284.109.44.44 0 0 1-.214.01.223.223 0 0 1-.091-.075 1.193 1.193 0 0 1-.098-.144 4.594 4.594 0 0 1-.205-.403 10.853 10.853 0 0 1-.22-.517l-.014-.036-.004-.009-.001-.003.02-.008-.02.008.038-.023.001.001.004.005a.895.895 0 0 0 .07.075c.048.048.115.11.193.17.078.061.165.118.253.154a.404.404 0 0 0 .255.03.442.442 0 0 0 .219-.152c.066-.078.125-.177.176-.286.1-.217.168-.464.2-.628.031-.159.034-.397.029-.598a7.392 7.392 0 0 0-.018-.352v-.007l.022-.002-.023.002-.005-.064Zm.055.122.003.043c.004.066.008.156.01.257.006.2.003.444-.03.608-.031.166-.1.417-.203.638a1.32 1.32 0 0 1-.182.296.486.486 0 0 1-.242.167.448.448 0 0 1-.283-.032 1.17 1.17 0 0 1-.264-.16 2.087 2.087 0 0 1-.193-.17 10.458 10.458 0 0 0 .195.453c.066.142.137.286.203.398.033.056.065.104.093.139a.2.2 0 0 0 .07.06.4.4 0 0 0 .19-.01 1.33 1.33 0 0 0 .274-.106c.198-.1.41-.253.57-.443a1.21 1.21 0 0 0 .197-.387 3.67 3.67 0 0 0 .125-.493 6.086 6.086 0 0 0 .08-.605l.001-.011-.614-.642Z" clip-rule="evenodd"/><path fill="url(#e)" fill-rule="evenodd" d="M19.983 12.735s.233-.416.42-.383c.188.027.368.293.383.308a1.9 1.9 0 0 0 .281-.357c-.015-.014-.296-.783-.45-.817-.154-.034-.48.056-.48.086l-.154 1.163Z" clip-rule="evenodd"/><path fill="currentColor" fill-rule="evenodd" d="M20.316 11.484a.819.819 0 0 1 .307-.02.157.157 0 0 1 .074.051c.024.026.049.06.073.1.05.078.1.178.145.278a7.441 7.441 0 0 1 .17.397l.011.01-.009.016a1.893 1.893 0 0 1-.285.36l-.015.016-.016-.016-.007-.008-.008-.01a1.795 1.795 0 0 0-.112-.131c-.07-.072-.157-.14-.243-.152-.039-.007-.082.009-.128.042a.718.718 0 0 0-.132.129 1.51 1.51 0 0 0-.135.196l-.002.003v.001l-.042-.014.154-1.161c0-.01.007-.018.01-.02a.08.08 0 0 1 .015-.011.296.296 0 0 1 .043-.02c.034-.012.08-.025.131-.036Zm-.296 1.15c.024-.034.053-.076.087-.117a.762.762 0 0 1 .14-.137c.05-.036.105-.06.16-.05.102.015.199.093.27.165a1.325 1.325 0 0 1 .112.131c.094-.096.18-.204.253-.323v-.001a.986.986 0 0 1-.033-.078l-.017-.04a7.183 7.183 0 0 0-.117-.272 2.541 2.541 0 0 0-.143-.274.63.63 0 0 0-.068-.092c-.021-.024-.039-.035-.05-.037a.777.777 0 0 0-.289.019 1.01 1.01 0 0 0-.162.05.032.032 0 0 0-.003.003l-.14 1.054Zm.137-1.051Z" clip-rule="evenodd"/><path fill="url(#f)" fill-rule="evenodd" d="M19.474 12.29c0 .03.082 1.132.408 1.514.326.386.863.623 1.058.566.187-.06.622-1.173.622-1.173s-.461.532-.802.442c-.338-.086-.544-.753-.608-1.083-.067-.323-.015-.964-.015-.964l-.667.697h.004Z" clip-rule="evenodd"/><path fill="currentColor" fill-rule="evenodd" d="m20.16 11.594-.022-.002.023.002v.001l-.001.006c0 .004 0 .011-.002.02a5.602 5.602 0 0 0-.015.332c-.005.2-.001.44.032.598.032.164.099.411.2.628.05.109.108.208.174.286a.438.438 0 0 0 .217.152c.08.021.167.006.256-.03.088-.036.176-.093.254-.153a2.046 2.046 0 0 0 .25-.23l.015-.016.004-.005.001-.001.038.023-.02-.008.02.008-.001.003-.004.01-.014.035a11.82 11.82 0 0 1-.222.518 4.597 4.597 0 0 1-.207.402 1.181 1.181 0 0 1-.097.144.223.223 0 0 1-.091.075h-.001a.437.437 0 0 1-.213-.01 1.365 1.365 0 0 1-.283-.109 1.91 1.91 0 0 1-.585-.454 1.254 1.254 0 0 1-.206-.402 3.714 3.714 0 0 1-.126-.498 5.9 5.9 0 0 1-.08-.607h-.036l.748-.782-.005.064Zm-.663.7v.011a4.007 4.007 0 0 0 .018.177c.012.113.033.265.063.428.031.163.072.337.125.493.053.157.118.294.197.387.161.19.374.344.571.443.099.05.193.085.273.105.082.02.147.023.19.01.017-.005.04-.024.07-.06.029-.034.06-.082.094-.138.066-.112.138-.256.204-.398a11.082 11.082 0 0 0 .196-.454 2.108 2.108 0 0 1-.194.171c-.08.062-.172.122-.265.16a.45.45 0 0 1-.284.032.482.482 0 0 1-.24-.167 1.328 1.328 0 0 1-.181-.296 2.943 2.943 0 0 1-.203-.638 3.026 3.026 0 0 1-.033-.608c.002-.1.007-.191.01-.256l.003-.044-.614.642Z" clip-rule="evenodd"/><path fill="url(#g)" fill-rule="evenodd" d="M15.045 12.232c-.15.207-.23.368-.297.488-.063.12-.022.289.12.525.162.251 1.463 1.252 3.154 1.252 1.695 0 2.993-.997 3.15-1.252.15-.24.188-.405.124-.525s-.146-.281-.296-.488c0 .312-1.077 1.444-2.978 1.444-1.901 0-2.977-1.132-2.977-1.444Z" clip-rule="evenodd"/><path fill="currentColor" fill-rule="evenodd" d="m20.972 12.146.05.07c.142.194.224.35.286.466l.013.025c.072.135.025.313-.125.553-.042.068-.156.181-.327.31-.171.131-.403.28-.682.422a4.842 4.842 0 0 1-2.165.534 4.841 4.841 0 0 1-2.163-.535 4.594 4.594 0 0 1-.684-.422 1.534 1.534 0 0 1-.33-.309 1.13 1.13 0 0 1-.141-.315.334.334 0 0 1 .02-.238l.04-.074c.06-.11.136-.25.258-.417l.023.017h.028c0 .031.014.078.047.137.032.059.08.127.144.2.129.149.32.318.572.477.502.32 1.242.601 2.186.601.945 0 1.684-.281 2.187-.6.251-.16.443-.33.572-.477a1.17 1.17 0 0 0 .144-.2.316.316 0 0 0 .047-.139v-.086Zm-5.943.157a3.2 3.2 0 0 0-.214.356l-.042.074a.279.279 0 0 0-.014.2c.019.082.063.18.133.297a1.5 1.5 0 0 0 .317.294c.17.128.399.276.675.416.555.28 1.298.53 2.138.53.843 0 1.586-.248 2.14-.528.276-.14.504-.288.673-.416.17-.13.277-.237.313-.296.15-.24.18-.392.123-.497l-.012-.024a3.708 3.708 0 0 0-.243-.406.53.53 0 0 1-.041.094 1.232 1.232 0 0 1-.152.21 2.706 2.706 0 0 1-.584.488c-.51.324-1.26.61-2.217.61-.956 0-1.705-.286-2.216-.61a2.706 2.706 0 0 1-.584-.487 1.221 1.221 0 0 1-.152-.21.529.529 0 0 1-.041-.095Z" clip-rule="evenodd"/><path fill="url(#h)" fill-rule="evenodd" d="m20.913 14.205.293-.566-.147-.12c-.037.142-.206.19-.236.375-.026.176.113.352.09.31Z" clip-rule="evenodd"/><path fill="currentColor" fill-rule="evenodd" d="m21.047 13.479.188.154-.297.573v.007a.023.023 0 0 1-.031.019l-.006-.003a.49.49 0 0 1-.055-.088.451.451 0 0 1-.045-.25v-.001a.392.392 0 0 1 .122-.215l.014-.015c.046-.048.086-.089.101-.147l.01-.034Zm.024.078a.452.452 0 0 1-.101.134l-.015.015a.348.348 0 0 0-.11.191.408.408 0 0 0 .065.266l.268-.518-.107-.088Z" clip-rule="evenodd"/><path fill="url(#i)" fill-rule="evenodd" d="M21.18 14.044s.052-.255-.113-.285c-.165-.03-.255.142-.229.075.023-.075.12-.15.14-.402.01-.25-.016-.386-.016-.386s.068-.326.33-.281c.27.049.281.285.281.371a.338.338 0 0 1-.022.132l-.371.776Z" clip-rule="evenodd"/><path fill="currentColor" fill-rule="evenodd" d="M20.986 13.047v.002a1.12 1.12 0 0 1 .01.094c.006.066.01.164.004.29v.001a.717.717 0 0 1-.106.34.244.244 0 0 1 .178-.037.15.15 0 0 1 .102.067.245.245 0 0 1 .036.126l.32-.671a.442.442 0 0 0-.017-.312c-.032-.07-.097-.137-.224-.16-.12-.02-.194.042-.24.114a.472.472 0 0 0-.061.137l-.002.009Zm.172.992v-.002l.002-.008a.5.5 0 0 0 .003-.114.2.2 0 0 0-.027-.087.104.104 0 0 0-.072-.047.209.209 0 0 0-.169.047.387.387 0 0 0-.03.026l-.01.01c-.002 0-.005.004-.01.006a.023.023 0 0 1-.033-.018.03.03 0 0 1 0-.01l.002-.005a.311.311 0 0 1 .04-.085.67.67 0 0 0 .1-.321 2.33 2.33 0 0 0-.01-.357l-.002-.018-.001-.004v-.001l-.001-.005v-.004l.023.004-.022-.004v-.004a.406.406 0 0 1 .015-.05.523.523 0 0 1 .055-.111c.052-.08.142-.159.286-.134a.333.333 0 0 1 .258.184.485.485 0 0 1 .018.349l-.372.777-.043-.014Z" clip-rule="evenodd"/><path fill="currentColor" d="m20.22 13.189.056.105.038-.023-.026-.075.003-.01.064-.046.165.326v.02l-.037.025.018.03.158-.112-.015-.03-.037.022h-.012l-.165-.33.06-.045h.015l.038.06.037-.026-.056-.105-.3.214h-.004Zm-.393.251.014.03.034-.015.012.004.146.334-.004.015-.03.022.011.03.154-.094-.011-.03-.034.015h-.015l-.067-.16.16-.09.068.15v.018l-.037.022.015.034.157-.094-.015-.03-.034.015-.01-.007-.143-.33v-.015l.03-.023-.012-.03-.153.094.011.03.037-.019.012.008.056.135-.157.094-.06-.14.007-.014.03-.019-.015-.034-.158.094Zm-.09.285.007.03.045-.011.015.004.034.138-.03.015c-.094.03-.165-.018-.199-.138-.03-.12.007-.21.094-.24a.115.115 0 0 1 .052-.004l.012.007.03.064.044-.015-.026-.112a.357.357 0 0 0-.131.022c-.135.049-.195.169-.161.308.037.138.146.202.27.16a.409.409 0 0 0 .127-.074l-.045-.154.008-.015.034-.015-.012-.034-.169.064Zm-.364.386.176-.063-.011-.034-.038.007-.011-.003-.098-.36.004-.012.038-.018-.008-.03-.176.06.011.033.038-.01.015.007.094.356-.008.015-.038.015.012.034v.003Zm-.957.173.312-.03-.012-.128-.037.004-.007.075-.008.011-.131.015-.015-.183.075-.008.011.011.008.05h.037l-.015-.166h-.038v.053l-.007.015-.075.003-.015-.165.116-.01.008.007.015.063.041-.003-.007-.113-.293.03v.034h.037l.012.011.026.371-.004.012-.037.007v.038l.003-.004Zm-.465-.461v.037h.038l.008.011.003.372-.007.01-.034.008v.03h.165v-.033h-.037l-.008-.015v-.18h.165v.172l-.008.011-.033.004v.038h.165v-.038h-.038l-.003-.015-.008-.375.008-.011h.037v-.038h-.169v.038l.038.004.007.01v.15l-.161.005-.008-.15.012-.012h.034v-.037l-.166.004Zm-.352-.012v.124h.038l.01-.075.008-.011h.072v.382l-.012.015h-.037v.038h.172v-.034l-.037-.004-.011-.015.003-.375h.068l.011.008.011.075h.038v-.124l-.334-.004Zm-.536.398.3.015.007-.124h-.037l-.011.071-.008.008-.131-.004.007-.187.072.007.007.011.008.053h.03l.007-.161h-.034l-.007.045-.008.01h-.075l.008-.172.112.008.008.007.003.064h.042v-.109l-.282-.015v.034l.038.008.004.01-.015.372-.008.011h-.037v.039Zm-.698-.203.165.06.008-.03-.038-.018v-.015l.094-.357.011-.007.038.011.007-.03-.161-.064-.008.034.034.015.008.015-.101.353-.008.01-.038-.01-.01.033Zm-.285-.123a.306.306 0 0 0 .098.06c.09.03.161-.008.18-.083a.154.154 0 0 0 .003-.063.143.143 0 0 0-.022-.057l-.067-.075c-.023-.034-.03-.06-.023-.094.011-.033.041-.052.082-.037.015.007.03.015.038.026v.011l-.008.075.038.012.03-.105a.297.297 0 0 0-.094-.064c-.075-.03-.142.011-.165.082a.142.142 0 0 0 .015.105c.015.038.038.057.056.075.034.038.046.075.038.11-.011.037-.045.055-.09.037a.148.148 0 0 1-.045-.03l-.004-.012.015-.082-.041-.015-.034.124Zm-.367-.173.277.15.045-.112-.037-.02-.034.065-.011.003-.117-.067.068-.161.068.037v.011l-.012.05.03.018.06-.15-.03-.015-.026.041-.011.008-.064-.038.06-.15.101.056.004.012-.015.06.038.018.037-.097-.255-.146-.015.03.03.022.004.015-.135.338h-.011l-.034-.012-.015.034Zm-.041-.562-.14-.11-.018.03.026.027.004.015-.173.308-.014.003-.027-.018-.018.03.135.105c.052.037.093.056.135.052.06-.007.112-.045.15-.112.067-.128.048-.248-.06-.33Zm-.06 0 .03.022c.075.056.082.139.018.248-.063.112-.131.135-.202.075l-.03-.015.187-.327-.004-.003Zm1.098.487-.004.03.034.011.004.015-.064.364-.011.008h-.038v.03l.154.037.008-.03-.038-.015-.003-.011.026-.154h.011c.056.015.067.049.067.12.004.034.004.064.03.101.012.015.027.03.053.034a.335.335 0 0 0 .056.008l.004-.03h-.004c-.037-.012-.056-.027-.056-.068-.008-.037 0-.075-.015-.112a.103.103 0 0 0-.049-.053c.064 0 .102-.034.113-.094.015-.075-.019-.13-.109-.15l-.165-.04h-.004Zm.113.064.022.007c.053.015.075.053.064.11-.011.063-.045.085-.105.067l-.019-.004.034-.18h.004Zm2.032.037.004.038h.037l.012.007.052.368-.007.011-.038.011.008.03.169-.03v-.037l-.042.007-.011-.01-.023-.15h.012c.06-.02.082.007.112.07.011.03.019.06.056.083.015.011.038.015.068.011a.4.4 0 0 0 .06-.019l-.004-.033h-.007c-.041.01-.064 0-.083-.034-.015-.03-.026-.068-.049-.094a.082.082 0 0 0-.067-.03c.064-.03.094-.075.086-.139-.011-.075-.063-.112-.157-.093l-.188.033Zm.131.02h.027c.06-.016.093.007.105.067.007.06-.019.097-.083.112h-.022l-.03-.18h.003Z"/><path fill="url(#j)" fill-rule="evenodd" d="m15.056 14.205-.292-.566.146-.12c.037.142.206.19.236.375.026.176-.112.352-.09.31Z" clip-rule="evenodd"/><path fill="currentColor" fill-rule="evenodd" d="m14.923 13.479.009.034c.015.058.055.1.1.147l.015.015a.392.392 0 0 1 .121.215.451.451 0 0 1-.045.25.49.49 0 0 1-.047.08l-.008.008-.005.004a.023.023 0 0 1-.031-.025l-.297-.574.188-.154Zm-.131.166.268.518a.493.493 0 0 0 .022-.042.407.407 0 0 0 .042-.224.349.349 0 0 0-.11-.19L15 13.69a.452.452 0 0 1-.1-.134l-.108.088Z" clip-rule="evenodd"/><path fill="url(#k)" fill-rule="evenodd" d="M14.786 14.044s-.052-.255.113-.285c.165-.03.255.142.232.075-.026-.075-.123-.15-.138-.402a1.712 1.712 0 0 1 .01-.386s-.063-.326-.33-.281c-.265.049-.28.285-.28.371 0 .083.026.132.026.132l.367.776Z" clip-rule="evenodd"/><path fill="currentColor" fill-rule="evenodd" d="m15.025 13.042-.022.004.022-.004.001.004v.005l-.002.005-.002.018a2.156 2.156 0 0 0-.007.357.645.645 0 0 0 .062.258c.013.026.027.048.039.068a.346.346 0 0 1 .036.07.12.12 0 0 1 .005.018c0 .002 0 .006-.002.011a.023.023 0 0 1-.016.015.024.024 0 0 1-.015 0 .041.041 0 0 1-.01-.007l-.013-.011-.005-.004a.46.46 0 0 0-.025-.02.21.21 0 0 0-.169-.048.104.104 0 0 0-.072.047.201.201 0 0 0-.027.087.434.434 0 0 0 .005.124l-.043.014-.367-.775-.001-.003a.368.368 0 0 1-.027-.139c0-.044.003-.129.043-.21a.334.334 0 0 1 .256-.183.27.27 0 0 1 .18.027.315.315 0 0 1 .108.107.516.516 0 0 1 .068.16v.005Zm-.269.887a.245.245 0 0 1 .036-.125.149.149 0 0 1 .102-.067.245.245 0 0 1 .18.038.69.69 0 0 1-.104-.341 2.212 2.212 0 0 1 .008-.396.461.461 0 0 0-.059-.137.272.272 0 0 0-.093-.091.221.221 0 0 0-.149-.023.29.29 0 0 0-.224.16.44.44 0 0 0-.026.28.23.23 0 0 0 .008.023l.002.005.001.002.318.672Z" clip-rule="evenodd"/><path fill="#0072C4" fill-rule="evenodd" d="M18.019 13.354s-3.075-1.012-3.053-4.852l.023-5.086h6.049l.022 5.056c.019 3.84-3.052 4.878-3.052 4.878l.01.004Z" clip-rule="evenodd"/><path fill="#fff" fill-rule="evenodd" d="M14.916 3.343h6.194l.023 5.128c.01 1.942-.763 3.18-1.541 3.932a5.019 5.019 0 0 1-1.07.788 4.129 4.129 0 0 1-.454.214l-.027.01-.007.003h-.002l-.018-.05-.018.055.018-.055-.018.055-.003-.001-.215-.072.02-.006a4.959 4.959 0 0 1-1.364-.924c-.78-.745-1.552-1.977-1.54-3.92l.022-5.157Zm3.092 9.929a3.91 3.91 0 0 1-.434-.201 4.808 4.808 0 0 1-1.04-.757c-.752-.72-1.506-1.915-1.495-3.813l.023-5.012h5.903l.022 4.982c.01 1.898-.744 3.1-1.497 3.827a4.87 4.87 0 0 1-1.038.765 3.989 3.989 0 0 1-.436.206c-.003 0-.006.002-.008.003Z" clip-rule="evenodd"/><path fill="#BCBCBC" fill-rule="evenodd" d="M15.385 4.635c.006 0 .041-.04.077-.074.047-.03.09-.064.138-.092.038-.022.11-.04.14-.059a.355.355 0 0 0 .115-.105c.006-.064.014-.114.014-.191a.987.987 0 0 1 .137-.074c.063-.022.077-.05.14-.062.042-.015.107-.015.165-.015.063 0 .102.052.16.062.068.03.099.052.154.104.027.044.046.08.098.112.042.024.08.061.127.074.055.033.099.055.14.104.038.031.055.074.088.105.04.04.084.074.129.105.055.04.11.071.195.062.047 0 .096-.01.151 0a.58.58 0 0 1 .179.018c.066 0 .118.01.178.016.055.009.113.012.176.012.055.019.116.016.179.016h.357c.063 0 .13.003.176.015.06 0 .12-.006.179-.015.068 0 .12-.013.19-.016h.214c.055.019.126.031.165.062.052.015.076.043.126.058a.358.358 0 0 1 .129.105c.04.05.074.105.102.164.033.055.046.123.074.194a.847.847 0 0 1 .027.207c.014.065.011.136.011.21-.013.067-.016.141-.038.206 0 .074-.014.139-.025.195-.01.061-.025.101-.027.178v.21c0 .068-.017.117-.022.191a2.319 2.319 0 0 0-.091.226.435.435 0 0 0-.102.117c-.027.018-.04.05-.035.062.05.018.035.058.035.132.009.059.014.13.028.195.003.07.016.114.035.163.023.03.028.015-.024.015-.036.031-.074.016-.088-.046a.4.4 0 0 1-.052-.163.603.603 0 0 0-.036-.18c-.008-.083-.027-.083-.102-.089-.035-.034-.082-.043-.154-.043-.068 0-.074-.01-.074.074v.21c-.013.062-.038.108-.052.163-.038.031-.055.084-.102.118-.022.067-.052.08-.112.092l-.077-.105c.035-.068.066-.077.088-.15.027-.06.044-.097.063-.149-.028-.046-.05-.068-.074-.133a.859.859 0 0 1-.064-.163c-.044-.019-.11-.022-.14-.046-.063-.016-.08.061-.154.061h-.175c-.08 0-.1.047-.165.044-.02.006-.069-.004-.14 0-.055.021-.119.015-.179.015-.063 0-.116-.019-.165-.03a.77.77 0 0 0-.176-.044c-.074 0-.104.006-.154.043-.038.028-.096.086-.137.12-.02.05-.027.133-.055.192-.011.061-.033.095-.047.15a.627.627 0 0 0-.038.18c-.006.098-.025.086-.077.058-.022-.043-.055-.086-.077-.135.01-.074.027-.111.027-.192-.013-.061-.04-.055-.076-.015 0 .077 0 .139-.028.179a.196.196 0 0 1-.027.067.174.174 0 0 1-.047.05c-.02.056-.06.083-.102.105-.005 0 0-.019 0-.062-.03-.065 0-.123 0-.206 0-.074-.005-.124.014-.192 0-.074-.028-.142-.039-.194-.024-.056-.038-.083-.101-.105-.047-.021-.11-.046-.14-.092a.271.271 0 0 0-.116-.102c-.055-.022-.085-.046-.126-.074-.039-.05-.072-.068-.088-.133-.028-.046-.03-.133-.05-.194a.737.737 0 0 0-.038-.18.82.82 0 0 0-.039-.178 2.058 2.058 0 0 0-.038-.194c0-.071 0-.142-.014-.207v-.21c-.008-.061-.01-.148-.024-.194a.48.48 0 0 0-.028-.179c-.027-.052-.027-.074-.074-.09-.033.047-.085.068-.151.078-.047-.013-.113-.022-.165-.047-.052-.012-.085-.037-.127-.061a1.478 1.478 0 0 0-.076-.118c-.009-.077-.023-.117-.028-.194 0-.055.003-.025.055-.102h-.003Z" clip-rule="evenodd"/><path fill="#FEFEFE" fill-rule="evenodd" d="m16.135 5.172.011-.012c-.022.024-.013.012.036-.01a.594.594 0 0 0 .099-.074c.022-.012.06-.03.082-.052a.44.44 0 0 1 .08-.083c.033-.034.066-.047.107-.074.05-.006.069-.031.116-.013.044.013.063.013.099-.03.035-.025.077-.053.09-.093v-.065c0 .068-.013.093-.055.114-.027.04-.066.08-.082.118-.027.046-.033.07-.06.092-.025.034-.064.053-.072.108.011.025 0 .037.027.04.025.025.053.016.088 0a.447.447 0 0 0 .072-.123c.03-.05.047-.071.063-.108.033-.025.052-.043.063-.084a.662.662 0 0 0 .091-.074c.027-.018.041-.033.08-.043a.203.203 0 0 1-.028.117c-.008.06-.005.087.011.124.025.021.02.037.036.077a.761.761 0 0 0 .027-.148v-.01c0 .044 0 .106-.01.136 0 .062.013.09.027.136a.16.16 0 0 0 .044.053c0-.062.016-.1.02-.155.01.04.007.099.015.145.003.05.02.087.036.127.022.012.028.055.036.021.022-.074.022-.154.036-.231.003-.04.005-.099.019-.126l-.02.123c.004-.037.006-.093.02-.123v-.013c.01.056.016.113.02.17 0 .046-.004.092.007.136.028-.016.047-.053.064-.093a.566.566 0 0 1 .071-.117l-.071.114a.565.565 0 0 1 .071-.114v-.01a1.403 1.403 0 0 0 0 .284c.011.056.025.065.027.124 0 .03-.005.061.009.077.038.01.038-.016.044-.074 0-.068.016-.114.019-.18 0-.08.008.01.016.041a.447.447 0 0 1 .028.139c0 .03-.003.058.008.074.036-.019.05-.062.072-.087.019-.049.038-.07.055-.104.046-.01.044-.031.044-.093 0-.052-.003-.105.01-.148a1.09 1.09 0 0 0 .036-.139c.017-.009.033.019.044.043.02.034.017.084.017.136.01.046.027.083.046.127a.472.472 0 0 0 .064.104.713.713 0 0 1 .008.14c.036-.047.041-.112.044-.18-.006-.046-.006-.105-.017-.148a.542.542 0 0 0-.019-.126c-.027-.016-.036-.031-.008-.074.027-.028.06-.016.107-.01.025.028.033.044.036.105 0 .056 0 .1.019.136.017.031.033.053.044.105.014.015.025.037.044.012.01-.03.02-.092.027-.126.009-.04.025-.062.044-.074 0 .058 0 .092.02.136.016.046.027.064.044.117.019.015.022.046.046.061.006-.049.009-.104.009-.166v-.148c.002-.05.013-.077.027-.117.027.043.027.058.027.117.028-.012.034-.037.044-.074.02-.022.028-.031.036.021.006.056.017.105.028.158.016.024.038.083.06.105a.51.51 0 0 0 .055.086c.014.03.017.052.055.062 0-.071 0-.142-.01-.21 0-.062-.012-.083-.017-.139a.206.206 0 0 1-.02-.105.34.34 0 0 1 .083.127c.019.052.038.086.055.139a.6.6 0 0 1 .068.104c.033.031.05.065.083.093.016.018.055.03.063.022a.634.634 0 0 0-.027-.167.305.305 0 0 0-.028-.127.277.277 0 0 1-.082-.104c-.011-.016-.014-.025-.017-.053a.78.78 0 0 1 .127.145.204.204 0 0 0 .071.074.213.213 0 0 0 .107.062.153.153 0 0 0 .09.065l-.09-.062a.152.152 0 0 0 .09.062v.012a.433.433 0 0 0-.054-.17.269.269 0 0 0-.082-.117.27.27 0 0 0-.088-.092c-.025-.031-.06-.087-.083-.105.041-.031.085.018.127.04.035.043.068.099.09.126.021.05.05.098.083.14a.492.492 0 0 1 .096.082c.055.016.033-.006.019-.052-.02-.062 0-.062.036-.022.024.022.055.053.09.074.014.022.039.037.06.022.012-.015.012-.015.012-.03-.02-.069-.036-.118-.083-.14-.019-.03-.054-.061-.082-.092-.017-.031-.036-.05-.052-.087l.055.084c-.02-.031-.039-.047-.055-.084h-.008c.055 0 .074.019.115.044a.193.193 0 0 1 .082.074c.017.024.044.052.064.083l.088.074c.03.043.035.07.035.136.02.03.022.092.028.126-.006.059-.025.012-.028-.021-.005-.047-.022-.044-.055-.031 0 .061.009.08.028.126a.267.267 0 0 1-.033.105c-.022.015-.028-.03-.047-.052 0-.062-.016-.071-.055-.105v.043c.022.043.044.083.047.145.014.044.02.091.02.139 0 .052 0 .101-.012.148 0 .055-.008.08-.008.135v.297a.81.81 0 0 0-.008.135l.008-.135c-.008.037-.008.083-.008.135v.01c-.017-.053-.036-.1-.047-.155a.326.326 0 0 1-.06-.108c-.009-.046-.012-.098-.02-.135-.014-.037-.027-.077-.055-.053a.378.378 0 0 0 .028.198c.014.049.014.092.027.138.022.056.039.062 0 .124-.019.037-.027.046-.035.086-.034.019-.042.031-.044.074-.011-.04-.039-.09-.055-.136-.017-.052-.036-.104-.044-.148-.022-.037-.05-.092-.072-.117-.025-.03-.055-.092-.071-.123-.036-.046-.044-.074-.075-.096-.005-.021-.016-.05-.035-.03 0 .049 0 .101.01.144.009.062.026.096.028.158v.117c-.022-.062-.046-.111-.063-.17-.022-.03-.041-.092-.063-.114-.017-.043-.028-.077-.047-.105-.003-.03-.016-.03-.027-.052 0 .058.019.08.027.123.02.043.025.108.02.13-.023-.074-.045-.155-.072-.222A.98.98 0 0 1 18.89 6c-.027-.033-.054-.036-.082-.06a.166.166 0 0 1-.063-.053c.008.055.027.092.036.135.008.053.027.096.035.14-.008.07-.022-.022-.035-.053-.009-.062-.028-.093-.044-.127-.025-.021-.047-.055-.072-.074-.027-.012-.016 0-.016.04 0 .065 0 .108.016.148.02.031.02.071.02.127-.003.052-.012.092-.012.148v.083c-.019-.043-.038-.07-.055-.126-.027-.05-.038-.084-.06-.136-.02-.01-.055-.018-.071 0 .002.052.024.074.027.136-.036.04-.03.052-.055-.01-.02-.049-.044-.046-.071-.074-.047-.006-.03-.04-.044-.086 0-.04 0-.08-.011-.114-.05 0-.077 0-.107.03-.014.032-.009.093 0 .14v.145c-.012.037-.028.04-.036.086-.017.043-.022.093-.036.123-.033.034-.02.037-.036-.018v-.34c0-.055.009-.083.009-.135-.02-.043-.022-.053-.083-.053a.227.227 0 0 0 0 .105.96.96 0 0 0 .011.14c0 .055.006.089.008.135 0 .055-.01.099-.035.123-.03.013-.003.037-.036.046a.412.412 0 0 1-.099-.074.303.303 0 0 0-.115-.021c-.06 0-.06-.01-.083-.062a1.068 1.068 0 0 1-.036-.17c-.019-.049-.021-.083-.035-.138a.188.188 0 0 0-.055-.074c-.011.055-.022.098-.025.16-.011.025-.014.086-.02.114-.016-.03-.024-.092-.035-.136-.016-.061-.03-.104-.088-.083-.06 0-.063 0-.063.074l.071.124v.148c0 .061.003.08-.035.092a.532.532 0 0 0-.083-.176c-.003-.043-.014-.03-.052-.03-.025 0-.05-.007-.063.009v.092c-.022.006-.028 0-.044-.018-.017.03-.006.074 0 .114a.375.375 0 0 1-.044.117c-.006-.015-.014-.01 0-.01-.063-.027-.11-.042-.165-.06-.027 0-.052.033-.069.06-.046.016-.066.032-.118.032-.05 0-.071.009-.115.009a.455.455 0 0 1-.118.012c-.022-.009-.066-.009-.08-.021.02-.031.038-.047.055-.093a.587.587 0 0 0 .071-.077c.022-.018.05-.059.072-.083.014-.053.033-.062.063-.083.055 0 .063.021.115.03.053.022.083.031.11-.012.041-.018.077-.052.124-.062l.09-.061c.04-.028.056-.056.088-.087.012-.043.039-.077.028-.123-.05-.016-.08-.012-.11.018-.036.037-.044.053-.088.084-.036.012-.055.03-.099.043-.036.015-.082.01-.123.01-.042 0-.094-.004-.119.011a.494.494 0 0 1 .127-.074c.036-.027.05-.04.099-.043.022-.03.044-.03.055-.083.014-.062-.036-.043-.075-.022-.035.01-.076.037-.107.053a.354.354 0 0 1-.115.021c-.011-.018.008-.034.016-.061.042-.019.05-.025.055-.074-.05.006-.066.024-.11.03a.672.672 0 0 1-.142.022h-.124c-.044 0-.069-.012-.118-.012-.036-.022-.036-.031-.036-.093.027-.037.055-.03.11-.03l.096-.056c.033-.006.055-.022.047-.04h-.127c-.049-.025 0-.034.028-.053.041 0 .088 0 .115.019.055 0 .075-.022.116-.062.035-.03.055-.052.09-.074.028-.034.055-.052.072-.083.038-.04.063-.062.082-.096.022-.015.039-.03.028-.052-.058.006-.083.03-.118.061a.28.28 0 0 1-.072.062.21.21 0 0 1-.118.046c-.044 0-.082-.009-.124-.012-.05-.006-.005-.018.009-.043.019-.012.033-.046.016-.071-.036-.015-.082-.012-.123-.012h-.127c-.047 0-.066-.013-.099-.031-.008-.031 0-.022.036-.022a.472.472 0 0 0 .118-.021c.041-.013.047-.031.055-.084-.044 0-.09 0-.118-.009h-.083Zm-.775-.24c-.008-.078-.024-.118-.027-.195 0-.055.003-.025.052-.102.006 0 .041-.04.077-.074.047-.03.09-.064.138-.092.035-.022.11-.04.14-.059a.355.355 0 0 0 .115-.105c.003-.064.011-.114.011-.191.052-.03.096-.055.14-.074.063-.022.077-.05.14-.062.042-.015.107-.015.165-.015.063 0 .102.052.16.062.068.03.099.052.15.104.031.044.05.08.102.112.042.024.08.061.127.074 0 .055.01.046-.022.046-.006.055-.017.05-.063.052a.232.232 0 0 1-.083-.086c.02-.053.009.046 0 .065-.022.021-.035.043-.06.021a.41.41 0 0 1-.028-.148c-.008-.065-.024-.018-.035.01a.153.153 0 0 0 .008.117.589.589 0 0 1-.116-.013c-.033-.009-.071.003-.11.022-.046.034-.03.034-.008.074.041.015.072.04.11.062.039-.007.083-.019.124-.031.044-.016.082-.006.126 0 .022.015.05.015.063.03 0 .035 0 .068-.01.087-.017.015-.036.052-.064.062a.417.417 0 0 1-.123.055c-.055 0-.077.016-.119.04-.005.056-.019.068-.063.087a.258.258 0 0 1-.123.03c-.028 0-.053.004-.064-.012a.402.402 0 0 0 .072-.123c.008-.025.024-.037.008-.056-.052.003-.066.003-.071.062-.006.059-.025.068-.064.086.011-.052.014-.092.028-.135a.614.614 0 0 1-.116.009c-.027.018-.038.028-.027.062-.036.015-.082.006-.126 0-.039 0-.017-.019-.044-.04-.02-.04-.039-.05-.083-.053-.02.03-.055.04-.08.062-.038.015-.063.003-.098-.019-.044 0-.039.016-.028.053.02.012 0 .027.028.03.027.025.049.031.098.031.039-.012.083-.009.127-.009s.036.012.036.062c-.028.024-.072.021-.119.021a.416.416 0 0 1-.107-.03c-.04-.004-.074-.013-.107 0-.014.018-.055.024-.008.03.02.022.123.01.129.047.027.03.02.07-.022.07a.056.056 0 0 0-.063 0c-.028.007-.066 0-.118.007.068.006-.05-.084-.075-.12Z" clip-rule="evenodd"/><path fill="#BCBCBC" fill-rule="evenodd" d="m15.644 4.583-.055.04a1.012 1.012 0 0 0-.107.083c-.02.019-.02.03-.044.03.041-.005.06-.018.099-.04.047-.005.09-.018.115-.042.025-.01 0-.05-.008-.074v.003Zm.412-.497c.006 0 .017.03.036.052.014.04.027.068.027.118.011-.053.028-.093.036-.148-.014-.031-.014-.04-.055-.044 0 .031.006.01-.044.022Z" clip-rule="evenodd"/><path fill="#C4C4C2" fill-rule="evenodd" d="M15.806 4.458c-.02 0 .032-.024.053-.029.016-.038.024-.062.053-.085.044 0 .069.019.089.052.04.014.053.033.098.043.02.019.04.019 0 .033a.218.218 0 0 1-.106.019.26.26 0 0 0-.106.033c-.06 0-.053 0-.081-.066Z" clip-rule="evenodd"/><path fill="currentColor" fill-rule="evenodd" d="M15.905 4.325h.007a.12.12 0 0 1 .064.016c.016.01.028.024.038.04.016.006.028.013.039.018l.005.004a.144.144 0 0 0 .045.017l.005.001.004.004a.118.118 0 0 0 .013.01.085.085 0 0 1 .006.004.032.032 0 0 1 .008.009.023.023 0 0 1 .001.02.027.027 0 0 1-.01.013.114.114 0 0 1-.023.01.24.24 0 0 1-.113.02.24.24 0 0 0-.097.031l-.004.003h-.006l-.037-.001a.05.05 0 0 1-.029-.013.076.076 0 0 1-.017-.026l-.008-.019-.005-.012a.02.02 0 0 1-.008-.026.025.025 0 0 1 .006-.008.084.084 0 0 1 .02-.012.298.298 0 0 1 .035-.014l.001-.002a.188.188 0 0 1 .054-.083l.006-.004Zm-.099.133.015-.006a.019.019 0 0 0-.003-.006c-.004-.005-.01-.007-.01-.007h-.002v.02Zm0-.02Zm.023.024.004.01a.458.458 0 0 0 .015.03s.002.002.007.002l.027.001a.28.28 0 0 1 .11-.033h.001a.21.21 0 0 0 .094-.015.186.186 0 0 1-.048-.02l-.006-.003a.215.215 0 0 0-.038-.019l-.007-.002-.004-.006a.093.093 0 0 0-.029-.032.074.074 0 0 0-.036-.01.162.162 0 0 0-.038.063l-.004.01-.004.009-.01.002a.217.217 0 0 0-.034.013Z" clip-rule="evenodd"/><path fill="#BCBCBC" fill-rule="evenodd" d="M16.218 4.095v.012c0-.03 0-.015.008.044a.309.309 0 0 1 .02.123.21.21 0 0 0 .054-.093c0-.083-.014-.08-.082-.086Zm.33 1.212h.01c-.027 0-.01 0 .036-.03.03-.025.055-.062.1-.075a.35.35 0 0 1 .115-.074c.022-.012.04-.03.063-.009-.006.05-.014.071-.055.093a.17.17 0 0 1-.08.061c-.027.019-.06.019-.071.056-.05.025-.055.018-.116-.022h-.003Zm.173.306c.013-.016.071-.08.099-.105a.444.444 0 0 1 .087-.105c.028-.046.06-.077.083-.117l.071-.105c0 .046-.005.108.009.135a.236.236 0 0 1-.028.127.172.172 0 0 1-.082.086c-.039.025-.064.031-.097.062a.694.694 0 0 1-.082.052c-.025.013-.014.01-.06-.03Zm-.28.24h.01c-.027 0-.013.003.036-.03a.306.306 0 0 1 .116-.084.258.258 0 0 0 .11-.03c.019-.007.035-.022.052 0 .027.042.035.055-.009.083a.25.25 0 0 1-.09.052c-.022.022-.066.022-.11.03-.033 0-.055.007-.069-.02l.072.02c-.036 0-.055.007-.119-.02Zm.384 0v-.009c0 .03 0 .015.02-.043.035-.059.046-.093.09-.105.02-.03.055-.037.099-.053.016.031.003.068 0 .105-.011.04-.044.068-.063.096-.028.022-.039.043-.083.052-.033 0-.014 0-.06-.043h-.003Z" clip-rule="evenodd"/><path fill="currentColor" fill-rule="evenodd" d="M15.948 4.487c0 .028-.02.053-.044.053-.027 0-.047-.025-.047-.053 0-.027.022-.052.047-.052s.044.022.044.053Z" clip-rule="evenodd"/><path fill="#005120" fill-rule="evenodd" d="M16.081 7.356h.037c-.114 0-.045-.01.142.166.081-.076.081-.086.142.047.041.072.05-.01.11-.085.029.152.045.309.143.166.113 0 .227-.01.288.043.073.157.05-.029.106.043.163.019.159-.162.33-.21.105.157.154.039.284-.037.102.028.195.204.216.033.081-.152.085-.143.142 0 .081.085.114-.038.179-.08.122.08.256.094.431.042.033.138.106.076.183.038.159.08.212.104.395 0 .089-.124.04.005.105.085.134-.047.098-.057.252-.042.159 0 .171 0 .216-.124.081.09.106.157.215.043.171 0 .118.024.216-.048.077.19.094.057.183.129a.665.665 0 0 1-.252.332c-.07.143-.114.285-.252.342-.102.119-.212.19-.326.295-.154.047-.325.038-.5.038h-1.513c-.105.066-.284.095-.43.128-.163 0-.355 0-.468-.043-.078-.09-.212-.19-.285-.294-.081-.072-.081-.21-.146-.295-.057-.119-.082-.309-.143-.418v-.294Z" clip-rule="evenodd"/><path fill="#002B0D" fill-rule="evenodd" d="M16.102 7.334h.016v.042c.031.022.08.058.142.116a.482.482 0 0 1 .035-.031c.012-.01.03-.02.05-.015.018.005.03.021.04.038.01.018.022.043.037.075l.008.012.002-.002.016-.026.008-.015a.463.463 0 0 1 .04-.058l.03-.037.008.047.007.04.013.07a.36.36 0 0 0 .023.078.046.046 0 0 0 .01.015l.004.001c.002 0 .007-.002.016-.01a.214.214 0 0 0 .03-.036l.006-.01h.057c.042 0 .084-.001.122.002a.237.237 0 0 1 .137.046l.003.003.002.005a.38.38 0 0 0 .024.044l.004-.007a.055.055 0 0 1 .015-.018.034.034 0 0 1 .034-.004.06.06 0 0 1 .02.016.12.12 0 0 0 .074-.016.248.248 0 0 0 .06-.057l.01-.012a.325.325 0 0 1 .169-.125l.015-.004.009.013a.178.178 0 0 0 .061.063c.015.007.028.006.044-.002a.365.365 0 0 0 .063-.044.628.628 0 0 1 .087-.061l.008-.005.01.002a.275.275 0 0 1 .08.045l.028.022.007.006a.473.473 0 0 0 .05.033h.005s.004-.002.008-.01a.174.174 0 0 0 .009-.044v-.004l.002-.004a.95.95 0 0 1 .05-.086.124.124 0 0 1 .021-.024.043.043 0 0 1 .03-.012.045.045 0 0 1 .029.015.124.124 0 0 1 .017.026c.01.02.02.046.034.08.017.016.028.02.034.02.007 0 .015-.005.027-.016a.359.359 0 0 0 .028-.032l.01-.012a.23.23 0 0 1 .049-.047l.012-.008.012.008c.116.076.243.09.413.04l.022-.007.006.023c.007.033.017.05.025.059.008.007.015.01.026.009a.135.135 0 0 0 .044-.015.95.95 0 0 0 .027-.014l.03-.016.01-.005.01.005c.08.041.128.065.178.067.049.003.102-.014.19-.064a.434.434 0 0 1 .027-.033.08.08 0 0 1 .025-.02.032.032 0 0 1 .018-.003.03.03 0 0 1 .017.01c.007.007.01.017.012.023l.005.022v.004a.48.48 0 0 0 .007.029c.004.015.01.03.019.044l.055-.022h.002a.324.324 0 0 1 .048-.018.438.438 0 0 1 .14.002c.039 0 .068 0 .091-.002a.12.12 0 0 0 .047-.011.067.067 0 0 0 .027-.028.455.455 0 0 0 .028-.068l.013-.035.024.027.029.033.002.002.022.026a.127.127 0 0 0 .037.032c.01.004.018.005.032-.001a.217.217 0 0 0 .062-.05l.006-.006h.01a1.598 1.598 0 0 1 .132.003c.005 0 .01-.003.02-.01a.633.633 0 0 0 .05-.036l.023-.017.01.026c.02.047.034.071.045.084.005.006.01.008.012.01a.02.02 0 0 0 .01.001c.003 0 .007 0 .013-.002h.003a.113.113 0 0 1 .094.026l.012.01-.005.015a.689.689 0 0 1-.256.34l-.027.059c-.023.049-.045.098-.071.14a.344.344 0 0 1-.158.146 1.347 1.347 0 0 1-.205.191c-.04.033-.079.065-.119.102l-.003.003-.005.002c-.136.041-.284.04-.432.039H17.56a.768.768 0 0 1-.201.076l-.152.034a6.115 6.115 0 0 0-.08.017h-.005c-.081 0-.17 0-.253-.005a.812.812 0 0 1-.222-.038l-.005-.002-.004-.005c-.031-.036-.072-.074-.115-.114a.339.339 0 0 1-.253-.329l-.006-.019c-.017-.048-.031-.093-.058-.128l-.001-.001-.001-.002a1.256 1.256 0 0 1-.067-.202l-.004-.015a.953.953 0 0 0-.071-.2l-.003-.005v-.268a.15.15 0 0 1-.005-.005.049.049 0 0 1-.008-.009.025.025 0 0 1-.003-.024.026.026 0 0 1 .016-.014v-.002h.043Zm.001.085v.225c.03.057.052.133.072.206l.004.013c.02.071.038.14.064.194.03.04.047.092.062.138l.006.019a.293.293 0 0 0 .073.132l.002.002.002.002c.035.05.085.1.138.15l.026.024c.042.039.083.077.116.114a.795.795 0 0 0 .204.035c.08.005.167.005.248.005l.08-.017c.049-.01.1-.022.148-.034a.706.706 0 0 0 .194-.074l.005-.003h1.595c.147.001.286.002.413-.036a2.94 2.94 0 0 1 .165-.14c.054-.045.106-.091.155-.15l.004-.003.005-.002a.299.299 0 0 0 .141-.13 1.26 1.26 0 0 0 .068-.134l.031-.067.003-.006.005-.003a.64.64 0 0 0 .238-.306.06.06 0 0 0-.03-.01c-.006 0-.011 0-.017.002h-.003l-.02.002c-.008 0-.017 0-.027-.005a.08.08 0 0 1-.028-.02.274.274 0 0 1-.041-.071c-.002 0-.003.002-.004.003l-.025.018a.088.088 0 0 1-.039.017h-.048a1.548 1.548 0 0 0-.081-.003.24.24 0 0 1-.07.052.08.08 0 0 1-.067.001.168.168 0 0 1-.052-.042 1.166 1.166 0 0 1-.023-.027l-.002-.002c0-.002-.002-.003-.003-.005a.331.331 0 0 1-.02.04.11.11 0 0 1-.043.045.161.161 0 0 1-.064.017c-.026.002-.057.002-.096.002h-.002a.409.409 0 0 0-.127-.003.289.289 0 0 0-.041.015h-.002c-.018.008-.04.017-.073.029l-.015.005-.01-.012a.2.2 0 0 1-.035-.073.45.45 0 0 1-.008-.031v-.005l-.003-.01a.459.459 0 0 0-.025.033l-.002.004-.005.002c-.092.053-.155.076-.218.072a.483.483 0 0 1-.187-.067l-.018.01a.837.837 0 0 1-.029.015.176.176 0 0 1-.06.02.072.072 0 0 1-.06-.022.144.144 0 0 1-.031-.058.494.494 0 0 1-.415-.043.255.255 0 0 0-.028.03l-.009.01c-.01.013-.02.027-.032.037a.086.086 0 0 1-.058.028c-.024 0-.047-.013-.069-.036l-.003-.003-.001-.004a1.013 1.013 0 0 0-.044-.095.855.855 0 0 0-.057.093.208.208 0 0 1-.012.051.062.062 0 0 1-.027.033.05.05 0 0 1-.039.003.123.123 0 0 1-.033-.017.5.5 0 0 1-.04-.03l-.025-.02a.238.238 0 0 0-.058-.035.769.769 0 0 0-.074.053l-.001.001a.388.388 0 0 1-.07.048.092.092 0 0 1-.08.002.19.19 0 0 1-.071-.065.296.296 0 0 0-.133.107l-.01.011a.29.29 0 0 1-.07.067.168.168 0 0 1-.11.02h-.01l-.005-.008a.106.106 0 0 0-.004-.004.123.123 0 0 0-.002.004l-.005.008a.05.05 0 0 1-.015.018.03.03 0 0 1-.018.005.034.034 0 0 1-.017-.006.084.084 0 0 1-.023-.025.405.405 0 0 1-.022-.042.203.203 0 0 0-.109-.033 1.269 1.269 0 0 0-.15-.002.239.239 0 0 1-.03.034.079.079 0 0 1-.038.021.047.047 0 0 1-.038-.01.088.088 0 0 1-.023-.03.402.402 0 0 1-.027-.089 2.155 2.155 0 0 1-.01-.058l-.007.01-.007.013c-.007.012-.013.023-.02.032a.073.073 0 0 1-.015.016.036.036 0 0 1-.027.007.043.043 0 0 1-.024-.014.126.126 0 0 1-.018-.024v-.002a.898.898 0 0 0-.036-.072.06.06 0 0 0-.013-.017.04.04 0 0 0-.012.007c-.01.007-.02.017-.035.031l-.012.01-.015.015-.015-.014a1.47 1.47 0 0 0-.142-.119Zm.331.157Z" clip-rule="evenodd"/><path fill="#005120" fill-rule="evenodd" d="M19.567 7.735v.038c0-.114.004-.052-.074.171-.012.053-.048.067-.105.086l.179-.295Zm-.322.167h.037c-.134.142-.224.213-.252.38l.252-.38c-.134.142-.224.213-.252.38l.215-.38Zm-.504-.21s-.004.148-.037.21l.037-.21Zm-.142.295v.038-.038Zm-.289-.252h.037-.041c.016 0 .028 0 0 0h.004Zm-2.013 0c.016 0 .09.133.179.21-.02.123-.057.265 0 .38l-.18-.59Zm.289.252c.016 0 .085.133.179.21l-.18-.21c.017 0 .086.133.18.21v.042c0-.133-.009-.266.036-.337.04.08.09.204.106.085.203-.01.3-.076.431-.128 0 .062-.008.033.04.085l-.792.043Zm3.233-.214h.036c-.069.067-.122.205-.179.295l.143-.295Zm-1.472-.123h.284-.284Z" clip-rule="evenodd"/><path fill="#002B0D" fill-rule="evenodd" d="M18.632 7.672h-.285v-.044h.285v.044Zm.957-.015v.116h-.018a3.15 3.15 0 0 1-.056.178.109.109 0 0 1-.045.067.295.295 0 0 1-.075.033l-.057.019.193-.317v-.004l.007-.023.003-.01.004-.008a.023.023 0 0 1 .02-.012l.024-.04Zm-.112.27-.035.057a.065.065 0 0 0 .03-.044v-.002h.001l.004-.012Zm-.736-.234h.022l-.043-.004-.037.209.041.014a.428.428 0 0 0 .033-.135 1.113 1.113 0 0 0 .006-.077v-.006l-.022-.001Zm-2.473.02h.03c.007 0 .013.004.015.006a1.66 1.66 0 0 1 .048.058l.016.021c.031.043.07.093.113.13l.01.008-.002.012-.009.05c-.008.046-.017.094-.02.142a.456.456 0 0 0 .002.093l.026.085-.04.016a.306.306 0 0 1-.029-.092l-.16-.529Zm.161.382.017-.107.006-.035a.812.812 0 0 1-.1-.116l.077.258Zm1.877-.338v-.044h.04v.044h-.04Zm1.5-.006h.104l-.04.038a.552.552 0 0 0-.089.133 1.546 1.546 0 0 1-.086.158l-.038-.022.148-.307Zm-2.446.075v.069l.007.007.028.027.032.035-.34.018a.818.818 0 0 1-.161.026.127.127 0 0 1-.006.02.046.046 0 0 1-.02.027.034.034 0 0 1-.035-.003.08.08 0 0 1-.02-.02.31.31 0 0 1-.021-.036l-.03.002a.645.645 0 0 0-.006.05 2.06 2.06 0 0 0-.001.137v.054h-.044v-.033a.765.765 0 0 1-.134-.157c0-.002-.002-.003-.003-.005l-.066-.076.217-.012a.22.22 0 0 1 .026-.066l.02-.033.018.035.016.032.013.027.23-.013a1.12 1.12 0 0 0 .167-.063c.026-.012.054-.025.083-.036l.03-.013Zm-.13.104.098-.005a.048.048 0 0 1-.007-.009.048.048 0 0 1-.005-.024l-.049.022-.037.016Zm-.346.063h-.011a.19.19 0 0 0 .008.013l.003-.013ZM16.75 8l-.116.007a.422.422 0 0 1 .008.01l.101.119A1.46 1.46 0 0 1 16.75 8Zm2.484-.12h.1l-.034.035-.25.379-.04-.016a.53.53 0 0 1 .166-.296l.058-.102Zm-.612.107v.038h-.044v-.038h.044Z" clip-rule="evenodd"/><path fill="#fff" fill-rule="evenodd" d="M15.97 8.037c-.43 0-.577.506-1.008.506h-.022v.03c0 .352.022.679.067.982.398-.03.544-.502.964-.502.431 0 .573.502 1.005.502.435 0 .577-.502 1.009-.502.43 0 .577.502 1.008.502.431 0 .574-.502 1.005-.502.413 0 .563.469.96.502a6.58 6.58 0 0 0 .072-1.012h-.027c-.431 0-.573-.503-1.005-.503-.431 0-.577.507-1.005.507-.431 0-.577-.507-1.012-.507-.428 0-.574.507-1.005.507-.428 0-.574-.507-1.005-.507v-.003Zm0 1.976c-.337 0-.494.307-.757.442.087.267.195.524.323.77.123-.106.251-.196.435-.196.431 0 .573.506 1.005.506.435 0 .577-.506 1.009-.506.43 0 .577.506 1.005.506.427 0 .577-.506 1.008-.506a.646.646 0 0 1 .424.188c.128-.244.236-.5.322-.765-.25-.14-.412-.44-.75-.44-.427 0-.573.507-1.005.507-.43 0-.577-.506-1.005-.506-.427 0-.577.506-1.008.506-.428 0-.574-.506-1.005-.506Zm2.014 1.976c-.43 0-.577.506-1.008.506-.409 0-.559-.45-.938-.502.406.505.907.925 1.474 1.237.135-.12.274.135.469.135.198 0 .337-.258.468-.142a4.933 4.933 0 0 0 1.463-1.226c-.367.063-.525.498-.922.498-.432 0-.574-.506-1.005-.506Z" clip-rule="evenodd"/><path fill="#512007" fill-rule="evenodd" d="m15.739 9.906.677.762-.568.134-.556-.746.014-.006a4.03 4.03 0 0 1 .427-.142l.006-.002Zm-.412.16.53.71.519-.121-.644-.724a3.963 3.963 0 0 0-.405.135Zm1.578.041.021.006-.07.27.023.004.054-.271.02.004-.053.27.028.005.046-.279.021.004-.046.279h.006l-.003.022-.006-.001-.02.119v.002l-.123.748-.022-.003.036-.217-.055.02-.038.197-.022-.004.037-.184-.077.03-.038.147-.021-.003a.937.937 0 0 1 .023-.135l-.008-.016a.287.287 0 0 1 .013-.007l.023-.098c.026-.104.058-.226.091-.346l-.003-.019.009-.002.007-.025a33.51 33.51 0 0 1 .135-.474l.01-.031.002-.012.01.004-.01-.004Zm-.084.94-.001-.002v.002Zm.022-.137.019-.114-.044.014-.021.106.043-.014.003.008Zm-.07.013.021-.106-.055.016-.029.109.063-.02Zm.093-.15.02-.127-.037.007-.026.129a.801.801 0 0 1 .043-.01Zm-.066.015.026-.13-.044.007-.036.141a.814.814 0 0 1 .054-.018Zm.09-.165.014-.082-.033-.001-.018.09.037-.007Zm-.06.012.02-.097a.328.328 0 0 1-.033-.005l-.029.11.042-.008Zm.046-.12.032.003.016-.102-.028-.005-.02.103Zm-.001-.107-.024-.004-.028.105.031.003.021-.104Zm-.107.654a1.628 1.628 0 0 1 .045-.015l.005-.002h.001l.002.002m-.053.015.023-.116a.863.863 0 0 0 .05-.02l-.02.121m-.054-.093-.023.115-.005.002a1.464 1.464 0 0 0-.069.026l.034-.129a.3.3 0 0 0 .063-.014Zm1.386-.947-.02.004.084.47-.03.008-.066-.475-.02.003.067.477-.04.01-.026-.222-.022-.19-.008-.07v-.001l-.01.001.01-.001-.02.002.054.486-.01.003.005.02.008-.002.02.187.002.02.12 1.054.02-.002a7.643 7.643 0 0 0-.016-.152l.08.044.037.258.02-.003-.034-.243.085.046.047.258.02-.002a2.575 2.575 0 0 0-.029-.235h.002l.011-.016a.28.28 0 0 0-.017-.013l-.028-.172c-.03-.18-.07-.391-.109-.599h.003l.005-.019-.012-.003-.01-.048a76.673 76.673 0 0 0-.158-.81l-.011-.054-.004-.019-.01.002.01-.002Zm-.002.707-.021-.19.04-.01.028.193-.047.006Zm.067-.01-.027-.194.03-.008.035.196-.038.006Zm.043.018.037.206-.05-.014-.026-.182a.234.234 0 0 0 .02-.003.07.07 0 0 0 .018-.006Zm-.06.012.025.174-.054-.014-.004-.03-.014-.127.042-.002h.006Zm-.027.181.055.015.034.24a.703.703 0 0 0-.063-.022l-.026-.232Zm.111.263-.034-.242.05.014.047.259a.76.76 0 0 0-.063-.031Zm.068.059.037.203-.072-.031-.029-.2.064.028Zm-.086-.037.029.199-.064-.028-.005.01-.024-.209.064.028Zm.127.267.043.239a1.39 1.39 0 0 0-.084-.046l-.03-.216a.474.474 0 0 0 .024.01.16.16 0 0 0 .047.013Zm-.093-.033.03.215a2.228 2.228 0 0 0-.067-.031l-.005-.003h-.002l-.004.007.003-.008-.003.007-.025-.229.014.009a.907.907 0 0 0 .047.027l.011.006Zm-.05-.73Zm.905-.786-.021.006.083.343-.028.005-.067-.348-.021.004.067.348-.04.008-.024-.162-.022-.14-.008-.053-.011.002.01-.002-.02.003.053.356-.008.001.003.022.008-.002.023.145v.008l.119.776.021-.002a3.766 3.766 0 0 0-.015-.109l.08.032.035.189.022-.004-.034-.175.084.033.046.189.022-.003a1.37 1.37 0 0 0-.028-.17l.01-.019a.269.269 0 0 0-.016-.009 19.524 19.524 0 0 0-.135-.563h.002l.004-.02-.012-.003a46.218 46.218 0 0 0-.128-.487l-.04-.144a4.754 4.754 0 0 0-.01-.04l-.004-.015-.01.003.01-.003Zm-.002.52-.02-.133.039-.007.026.135-.045.005Zm.066-.007-.026-.137.03-.005.033.138-.037.004Zm.043.02.035.145-.048-.01-.024-.127a.26.26 0 0 0 .035-.007h.002Zm-.06.01.024.12-.053-.01-.003-.019-.014-.09c.012 0 .027 0 .041-.002h.006Zm-.025.133.053.011.033.17a.873.873 0 0 0-.061-.016l-.025-.165Zm.11.187-.033-.171.049.01.044.183a.902.902 0 0 0-.06-.022Zm.067.05.035.144-.07-.023-.027-.14.062.02Zm-.085-.027.026.14-.062-.02-.005.01-.022-.15.063.02Zm-.04.131Zm.166.066a.243.243 0 0 1-.07-.016l.03.153c.026.01.055.02.081.032l-.04-.169Zm-.064.128-.03-.152-.01-.004a1.05 1.05 0 0 1-.06-.026l.024.162.002-.006-.002.007.002-.007.002.001.006.002a1.433 1.433 0 0 1 .066.023Z" clip-rule="evenodd"/><path fill="#DD8B59" fill-rule="evenodd" d="m17.855 11.518.037-3.455s.105-.014.105 0c0 .015-.012 3.44-.024 3.455-.012.014-.13.023-.118 0Zm1.155-3.303-.024 2.9-.08.114.023-3.014h.082Z" clip-rule="evenodd"/><path fill="#512007" fill-rule="evenodd" d="m17.903 8.073-.037 3.445.004.001a.277.277 0 0 0 .09-.006c.002 0 .002-.001.003-.002v-.005l.002-.03.002-.11.004-.392.008-1.183.008-1.722h-.007a.838.838 0 0 0-.077.005Zm.1-.02a.014.014 0 0 1 .005.01 1148.29 1148.29 0 0 1-.015 2.911 59.42 59.42 0 0 1-.008.542v.003l-.001.002s0 .002-.003.004a.031.031 0 0 1-.013.008.315.315 0 0 1-.062.01.17.17 0 0 1-.041-.003.033.033 0 0 1-.016-.007.016.016 0 0 1-.004-.018l.036-3.46.01-.002h.004a.842.842 0 0 1 .087-.006.06.06 0 0 1 .014.002.02.02 0 0 1 .008.004Zm.916.151h.103l-.025 2.915-.103.145.025-3.06Zm.021.022-.023 2.969.058-.083L19 8.226h-.06Z" clip-rule="evenodd"/><path fill="#DD8B59" fill-rule="evenodd" d="M16.546 10.95s.122 1.42 1.476 1.378c1.354-.043 1.73-1.43 1.73-1.43l-.587-.028c-.012 0-.47.663-1.062.648-.592-.014-.778-.18-.908-.317-.13-.142-.243-.345-.243-.345l-.69-.317.041.303.243.108Zm3.66-.141-.04-.19v-.16l.065-.17s-1.026.174-1.026.188l-.004.322 1.005.005v.005Z" clip-rule="evenodd"/><path fill="#512007" fill-rule="evenodd" d="m20.228 10.277.019-.004-.071.187v.157l.038.175h.003v.016l-.011.001v.005l-1.017-.005.005-.332m.997.315-.037-.172v-.164l.059-.154-.025.004a84.399 84.399 0 0 0-.821.146 4.967 4.967 0 0 0-.148.03l-.004.002-.003.304.98.004Zm.037-.515.002.01-.002-.01Zm-3.98.243.71.327.003.003v.002l.005.007a1.53 1.53 0 0 0 .067.11c.045.068.105.154.17.224a.808.808 0 0 0 .276.202c.135.06.328.105.623.112.292.007.552-.153.741-.316a2.256 2.256 0 0 0 .288-.3.952.952 0 0 1 .025-.03l.002-.001.006-.002.602.03-.004.013-.01-.003.01.003v.004l-.004.012-.015.044a2.414 2.414 0 0 1-.34.642c-.265.354-.7.713-1.382.735-.681.021-1.054-.326-1.255-.678a1.913 1.913 0 0 1-.23-.693v-.01l-.244-.108-.044-.329Zm.298.43.01-.001.001.004.001.012a1.422 1.422 0 0 0 .038.203c.033.132.09.307.19.48.197.348.563.689 1.235.668.672-.021 1.102-.376 1.364-.726a2.393 2.393 0 0 0 .352-.682l-.57-.027s0 .002-.002.003l-.017.02a2.256 2.256 0 0 1-.29.302c-.191.166-.456.33-.756.323-.297-.008-.493-.053-.631-.114a.83.83 0 0 1-.285-.207 1.82 1.82 0 0 1-.225-.313c-.006-.01-.01-.02-.014-.025l-.004-.006-.668-.308.038.278.243.109v.006h-.01Z" clip-rule="evenodd"/><path fill="#512007" fill-rule="evenodd" d="M20.001 10.447h.15l.014.306h-.19l.026-.306Zm.02.022L20 10.73h.143l-.011-.262h-.11Zm-.194-.008h.127l-.013.31-.127.016.013-.326Zm.02.022-.01.28.083-.012.011-.268h-.083Zm-.073-.003.014.26-.14.05v-.26l.126-.05Zm-.104.066v.213l.095-.034-.011-.213-.084.034Zm-.2-.006.143.017.009.245-.178-.032.027-.23Zm.02.025-.022.187.13.024-.006-.2-.102-.011Zm-.112-.01v.232l-.156-.017.013-.2.143-.016Zm-.122.036-.011.16.111.012v-.184l-.1.012Zm-2.733.359a.155.155 0 0 0-.021-.003v-.022l.025.003.04.008a4.439 4.439 0 0 1 .233.057l.012.003.004.001.286.444-.018.012-.281-.437-.008-.002-.031-.008a10.55 10.55 0 0 0-.24-.056Z" clip-rule="evenodd"/><path fill="#512007" fill-rule="evenodd" d="M19.213 11.413c-.211.264-.565.527-1.134.527-.57 0-.913-.232-1.117-.467a1.407 1.407 0 0 1-.267-.464c0-.004-.002-.007-.003-.009v-.002V11l.017-.015a.012.012 0 0 1 .002.004l.002.003.003.01.002.004.01.027a1.368 1.368 0 0 0 .25.426c.2.23.539.46 1.1.46.562 0 .91-.26 1.117-.52a1.618 1.618 0 0 0 .272-.507l.003-.008v-.003l.011.003.01.002v.003l-.003.01a1.11 1.11 0 0 1-.057.152c-.043.1-.113.23-.218.362Zm-2.522-.415Z" clip-rule="evenodd"/><path fill="#512007" fill-rule="evenodd" d="m19.649 10.908.01.004.01.004v.001l-.002.003-.004.012c-.005.01-.01.025-.02.043a2.973 2.973 0 0 1-.377.618c-.266.333-.664.655-1.189.608-.518-.048-.82-.186-1.003-.342a.95.95 0 0 1-.287-.451 6.676 6.676 0 0 1-.12-.393l-.008-.025-.001-.007v-.001l.02-.006.001.002a.942.942 0 0 0 .008.031 5.787 5.787 0 0 0 .12.392.937.937 0 0 0 .28.441c.18.153.477.29.992.337.514.047.905-.27 1.17-.6a2.944 2.944 0 0 0 .393-.656l.005-.011.001-.003Z" clip-rule="evenodd"/><path fill="#DD8B59" fill-rule="evenodd" d="M16.96 10.856c.011-.08.011-2.574.011-2.574l-.068-.01-.013 2.541.07.048v-.005Zm-1.683-.81.892.507-.02.071s-.86-.473-.86-.487c0-.014.009-.071-.012-.095v.005Z" clip-rule="evenodd"/><path fill="#512007" fill-rule="evenodd" d="m16.892 8.26.09.012v.01h-.01.01v.389a659.152 659.152 0 0 1-.004 1.747 38.658 38.658 0 0 1-.008.437v.025l-.09-.063.012-2.559Zm.058 2.58v-.027l.003-.091.003-.303a216.026 216.026 0 0 0 .005-1.747v-.381l-.047-.007-.012 2.523.048.033Zm-1.683-.828.019.022a.045.045 0 0 1 .005.007l.891.506-.026.093-.012-.007.005-.01-.005.01-.037-.02-.098-.054a86.187 86.187 0 0 1-.59-.331 5.155 5.155 0 0 1-.137-.083l-.001-.003-.002-.006a.21.21 0 0 1 0-.018.293.293 0 0 0-.002-.051.058.058 0 0 0-.003-.01l-.007-.004v-.041Zm.034.06a.199.199 0 0 1 0 .047v.013l.005.003.026.017.097.057a29.335 29.335 0 0 0 .591.33l.097.055.025.013.014-.05-.855-.485Z" clip-rule="evenodd"/><path fill="#DD8B59" fill-rule="evenodd" d="M15.687 9.895c0 .038.13.88.13.88s.08.015.08 0l-.137-.865-.073-.015Zm.827.024c.044 0 .851-.151.851-.151l-.016.151-.79.095-.045-.095Z" clip-rule="evenodd"/><path fill="#512007" fill-rule="evenodd" d="m17.363 9.757.015-.003-.02.175-.806.096-.055-.117h.017a34.804 34.804 0 0 0 .814-.145l.035-.006.002.01-.002-.01Zm-.01.024-.02.004a105.57 105.57 0 0 1-.768.138 1.377 1.377 0 0 1-.034.005l.034.074.774-.093.014-.128Zm-1.677.1.094.02.139.873v.001c0 .009-.006.013-.01.014a.042.042 0 0 1-.013.003h-.03a.527.527 0 0 1-.037-.005h-.003v-.001h-.001l.002-.01h-.01l-.007-.035-.014-.096a359.526 359.526 0 0 1-.104-.7 4.96 4.96 0 0 1-.006-.05v-.013Zm.14.894-.01.002.001.008.008.001.002-.01Zm.01-.01.005.001a.511.511 0 0 0 .053.004h.002l-.135-.851-.052-.01v.001l.005.032.014.105a60.32 60.32 0 0 0 .09.594l.014.096.005.029Z" clip-rule="evenodd"/><path fill="#FECF3E" fill-rule="evenodd" d="M16.627 8.778c.028 0 .284.152.393.114.11-.038.037-.142.057-.142.024 0 .105.07.154.014.048-.052.08-.218.06-.204-.024.015-.648.275-.66.218h-.004Z" clip-rule="evenodd"/><path fill="#512007" fill-rule="evenodd" d="M17.24 8.771a.07.07 0 0 1-.049.026.117.117 0 0 1-.05-.008.368.368 0 0 1-.037-.017L17.1 8.77a.237.237 0 0 0-.014-.007v.001l.001.006c.002.01.005.022.006.036a.091.091 0 0 1-.011.053.103.103 0 0 1-.058.043.21.21 0 0 1-.11-.001.807.807 0 0 1-.125-.042c-.036-.014-.07-.03-.098-.043l-.01-.005a1.418 1.418 0 0 0-.032-.014l-.011-.001c-.007-.002-.015-.006-.017-.015l.006-.002v-.012h.013v.003a.217.217 0 0 1 .012.005h.002a7.34 7.34 0 0 0 .632-.224.014.014 0 0 1 .014 0 .015.015 0 0 1 .008.01.06.06 0 0 1 0 .019.513.513 0 0 1-.035.133.207.207 0 0 1-.034.058Zm-.548.021a2.88 2.88 0 0 0 .27-.086 7.456 7.456 0 0 0 .325-.13v.002a.504.504 0 0 1-.033.126.185.185 0 0 1-.03.053h-.001a.048.048 0 0 1-.034.018.096.096 0 0 1-.04-.007.35.35 0 0 1-.036-.016l-.004-.002a.243.243 0 0 0-.016-.007.045.045 0 0 0-.016-.004.014.014 0 0 0-.011.005.018.018 0 0 0-.004.01l.002.015.002.006c.002.01.005.02.005.032a.07.07 0 0 1-.008.041c-.007.013-.02.025-.046.034a.189.189 0 0 1-.098-.003.787.787 0 0 1-.121-.04c-.036-.014-.07-.03-.098-.043l-.008-.004Zm.595-.226Zm-.203.189Z" clip-rule="evenodd"/><path fill="#DD8B59" fill-rule="evenodd" d="M16.526 9.124c.044.014.965-.289.965-.289s0 .095-.013.095l-.952.288v-.094Z" clip-rule="evenodd"/><path fill="#512007" fill-rule="evenodd" d="M17.502 8.835h-.011l-.004-.01.015-.005v.015Zm-.021.105a.014.014 0 0 0 .008-.004.023.023 0 0 0 .004-.006.266.266 0 0 0 .008-.047v-.048h-.01l-.004-.01-.01.003-.03.01a33.617 33.617 0 0 1-.754.236 2.717 2.717 0 0 1-.16.04h-.004l-.014-.005v.124l.966-.293Zm-.001-.09-.026.008a42.029 42.029 0 0 1-.755.237 2.722 2.722 0 0 1-.162.04v.068l.936-.283a.84.84 0 0 0 .007-.07Z" clip-rule="evenodd"/><path fill="#FECF3E" fill-rule="evenodd" d="M18.654 8.698s.061.165.122.137c.06-.029.117-.085.117-.085s.049.142.13.113c.081-.028.13-.18.13-.18s.08.029.117.015c.037-.015.081-.237.081-.237l-.693.237h-.004Zm-.069 1.334c-.012.028.061.095.122.095.06 0 .081-.095.093-.067.012.024.012.152.162.11.15-.043.154-.166.154-.166s-.044.042.061.056c.105.014.21-.18.203-.18-.017 0-.77.166-.795.152Z" clip-rule="evenodd"/><path fill="#512007" fill-rule="evenodd" d="m19.362 8.463-.01-.002.01.002v.003l-.002.007a1.817 1.817 0 0 1-.052.186.193.193 0 0 1-.015.03.044.044 0 0 1-.019.019.095.095 0 0 1-.038.004.262.262 0 0 1-.077-.015.599.599 0 0 1-.031.07.341.341 0 0 1-.043.063.145.145 0 0 1-.059.043.074.074 0 0 1-.063-.006.147.147 0 0 1-.044-.044.3.3 0 0 1-.027-.047l-.003-.007a.536.536 0 0 1-.109.076c-.02.01-.04.002-.056-.011a.2.2 0 0 1-.041-.052.496.496 0 0 1-.037-.073l-.002-.006v-.001l.01-.005-.01.004-.006-.015h.018l.71-.242-.004.019Zm-.693.242.005.013a.504.504 0 0 0 .027.053.178.178 0 0 0 .037.046c.012.01.023.012.033.008a.403.403 0 0 0 .112-.08c0-.002.001-.002.002-.003l.013-.013.005.017v.001l.003.005.006.015a.286.286 0 0 0 .024.044.133.133 0 0 0 .038.037c.014.008.028.01.045.005a.124.124 0 0 0 .05-.037.315.315 0 0 0 .04-.059.544.544 0 0 0 .03-.07l.003-.006V8.68l.003-.01m.011.003.004.001a.322.322 0 0 0 .077.016c.012 0 .022 0 .03-.003 0 0 .003-.002.008-.01a.752.752 0 0 0 .039-.106l.019-.078.003-.016-.667.228m.705 1.165h.006c.003 0 .006 0 .008.004a.011.011 0 0 1 .003.006v.005a.502.502 0 0 1-.061.097.324.324 0 0 1-.07.065.124.124 0 0 1-.085.024.167.167 0 0 1-.06-.018.219.219 0 0 1-.15.126.166.166 0 0 1-.093.005.094.094 0 0 1-.052-.038.168.168 0 0 1-.025-.064l-.001-.006a.08.08 0 0 1-.002-.004.227.227 0 0 1-.002.003l-.003.004-.007.01c-.014.02-.037.048-.073.048a.16.16 0 0 1-.096-.039.138.138 0 0 1-.03-.034.04.04 0 0 1-.006-.037l.01.005.006-.01h-.002.008a13.272 13.272 0 0 0 .386-.07l.225-.048.042-.009a20.161 20.161 0 0 1 .124-.025Zm-.785.152Zm.006.021.005.01a.114.114 0 0 0 .025.028c.024.02.055.035.082.035.024 0 .041-.02.056-.04l.006-.009a.408.408 0 0 0 .012-.016.029.029 0 0 1 .005-.005.017.017 0 0 1 .01-.002c.008 0 .012.008.014.011l.005.016.001.006.004.013c.004.014.01.03.018.043a.072.072 0 0 0 .04.03.146.146 0 0 0 .081-.005.198.198 0 0 0 .127-.093c.005-.01.01-.02.012-.03a.027.027 0 0 1-.002-.007.036.036 0 0 1 .005-.023.057.057 0 0 1 .005-.007l.002-.002.008.007h.011v.007l-.003.016-.002.006a.037.037 0 0 0 .006.004c.01.005.024.01.05.013a.103.103 0 0 0 .07-.02.304.304 0 0 0 .064-.06.496.496 0 0 0 .05-.075 3.007 3.007 0 0 0-.15.032l-.224.046a13.799 13.799 0 0 1-.361.068.371.371 0 0 1-.028.003h-.004Zm.774-.163Zm-.253.123h.011v-.026l-.019.018.008.008Zm-.327.06Zm.335-.052Z" clip-rule="evenodd"/><path fill="#DD8B59" fill-rule="evenodd" d="M16.562 8.722a.275.275 0 0 0 .008.127l.77-.303s.032-.07 0-.07-.79.274-.782.25l.004-.004Zm1.013-.19c.02 0 .786-.288.786-.288s.012.123 0 .123l-.717.246-.073-.08h.004Z" clip-rule="evenodd"/><path fill="#512007" fill-rule="evenodd" d="m18.372 8.242-.01.001-.004-.01.013-.005.001.014Zm-.008.135a.014.014 0 0 0 .009-.006.024.024 0 0 0 .003-.007.462.462 0 0 0-.002-.102l-.001-.014v-.006l-.012.001-.003-.01-.033.012a111.102 111.102 0 0 1-.74.273.229.229 0 0 1-.01.003h-.029l.095.104.723-.248Zm-.012-.118-.02.007a77.686 77.686 0 0 1-.74.273l.055.06.708-.242v-.052c0-.015-.002-.03-.003-.042V8.26Zm-1.02.206a.037.037 0 0 1 .008 0c.006 0 .012 0 .017.005a.026.026 0 0 1 .008.014.07.07 0 0 1-.002.03.207.207 0 0 1-.011.033l-.002.003-.01-.004.01.005-.002.004-.785.308-.003-.01a.285.285 0 0 1-.01-.12.012.012 0 0 1-.002-.01V8.72l.032-.036-.006.03a14.874 14.874 0 0 0 .356-.115l.09-.03.18-.062a5.371 5.371 0 0 1 .133-.042Zm-.761.272a.263.263 0 0 0 .006.097l.755-.296.002-.007a.192.192 0 0 0 .008-.023.047.047 0 0 0 .001-.02v-.001h-.006a5.214 5.214 0 0 0-.13.041l-.18.06-.09.032a14.77 14.77 0 0 1-.346.113.29.29 0 0 1-.02.004Z" clip-rule="evenodd"/><path fill="#FECF3E" fill-rule="evenodd" d="M18.585 9.138s-.118.151-.081.355c.036.208.08.388.093.388.012 0 .142-.275.284-.289.141-.014.4.151.4.151s-.036-.33-.023-.482c.012-.152.21-.412.21-.412l-.883.284v.005Z" clip-rule="evenodd"/><path fill="#512007" fill-rule="evenodd" d="M19.477 8.855v.001l-.003.002a.396.396 0 0 0-.028.04 1.956 1.956 0 0 0-.07.105 1.2 1.2 0 0 0-.07.134.407.407 0 0 0-.038.124c-.006.075 0 .195.008.297l.01.13.005.04.001.01v.003l-.01.002-.006.01-.001-.001-.002-.002a1.939 1.939 0 0 0-.04-.023 1.582 1.582 0 0 0-.104-.055.954.954 0 0 0-.13-.052.318.318 0 0 0-.118-.017.183.183 0 0 0-.096.048.586.586 0 0 0-.086.097 1.33 1.33 0 0 0-.064.095c0 .002-.002.004-.003.005a.965.965 0 0 1-.023.036l-.004.004-.003.002a.013.013 0 0 1-.006.001.013.013 0 0 1-.007-.003.016.016 0 0 1-.004-.003 1.263 1.263 0 0 1-.037-.118 4.536 4.536 0 0 1-.055-.273.479.479 0 0 1 .08-.36v-.01l.925-.296-.021.027Zm-.195.888-.006.01.019.012-.003-.023-.01.001Zm-.014-.02a3.237 3.237 0 0 1-.014-.164 2.242 2.242 0 0 1-.008-.3.427.427 0 0 1 .04-.131c.02-.047.046-.094.072-.136a1.96 1.96 0 0 1 .07-.107l.011-.015-.844.27v.001l-.002.003-.001.002a.169.169 0 0 0-.016.024.482.482 0 0 0-.062.32 4.466 4.466 0 0 0 .078.356.29.29 0 0 0 .006.015c.004-.006.01-.014.015-.024a.608.608 0 0 1 .157-.202.204.204 0 0 1 .11-.054.338.338 0 0 1 .126.018.974.974 0 0 1 .133.053 1.6 1.6 0 0 1 .13.07Z" clip-rule="evenodd"/><path fill="#DD8B59" fill-rule="evenodd" d="M17.515 8.887s-.025.128-.013.128l1.002-.303v-.09l-.99.26v.005Z" clip-rule="evenodd"/><path fill="#512007" fill-rule="evenodd" d="M18.514 8.608v.112l-1.01.306h-.002a.013.013 0 0 1-.011-.008.023.023 0 0 1-.003-.007v-.017a.516.516 0 0 1 .012-.089l.003-.014v-.017l1.011-.266Zm-.99.283v.004a.472.472 0 0 0-.01.058.469.469 0 0 0-.004.042v.006l.982-.297v-.068l-.967.255Z" clip-rule="evenodd"/><path fill="#B6B6B4" fill-rule="evenodd" d="M16.242 10.553s-.235-.038-.223.028c.013.071.118.137.13.18.012.043-.036.19.037.18.069-.014.137-.071.137-.114l-.012-.236-.069-.038Z" clip-rule="evenodd"/><path fill="#512007" fill-rule="evenodd" d="m16.244 10.542-.002.01.002-.01h.002l.076.042.012.243a.074.074 0 0 1-.014.04.163.163 0 0 1-.033.036.237.237 0 0 1-.1.048.047.047 0 0 1-.029-.004.041.041 0 0 1-.017-.02.134.134 0 0 1-.008-.057l.004-.046.002-.017a.33.33 0 0 0 0-.043.097.097 0 0 0-.022-.032l-.026-.028-.015-.015a.436.436 0 0 1-.042-.05.145.145 0 0 1-.026-.056.033.033 0 0 1 .01-.03.065.065 0 0 1 .028-.015.291.291 0 0 1 .08-.007.902.902 0 0 1 .115.01h.002Zm-.005.021h-.001l-.008-.001a.85.85 0 0 0-.104-.01.31.31 0 0 0-.074.007.044.044 0 0 0-.019.01.01.01 0 0 0-.003.01c.003.015.01.031.022.048a.414.414 0 0 0 .04.047l.014.014c.01.01.02.02.027.03a.116.116 0 0 1 .027.04.086.086 0 0 1 .002.023c0 .009 0 .018-.002.028l-.001.018-.004.043c0 .02 0 .037.006.048a.02.02 0 0 0 .008.01.024.024 0 0 0 .015.002.217.217 0 0 0 .09-.044.143.143 0 0 0 .028-.031.05.05 0 0 0 .01-.028l-.012-.23-.061-.034Z" clip-rule="evenodd"/><path fill="#DD8B59" fill-rule="evenodd" d="M17.551 9.866v.095l.847-.137-.024-.071-.823.113Z" clip-rule="evenodd"/><path fill="#512007" fill-rule="evenodd" d="m18.381 9.74.032.093-.873.14v-.116l.841-.116Zm-.82.136v.072l.823-.133-.018-.05-.804.11Z" clip-rule="evenodd"/><path fill="#FECF3E" fill-rule="evenodd" d="M16.546 10.032c.017 0 0 .123.098.094.093-.028.117-.094.117-.094s.024.151.154.137c.13-.014.203-.18.203-.18s.008.123.089.08c.081-.042.105-.137.105-.137l-.741.123-.02-.023h-.005Zm0-.814s-.105.042-.069.288c.037.246.122.388.13.388.012 0 .105-.236.247-.274.142-.047.39.123.39.123s-.025-.222.012-.426a.913.913 0 0 1 .154-.36s-.827.26-.86.26h-.004Z" clip-rule="evenodd"/><path fill="#512007" fill-rule="evenodd" d="m17.438 8.938-.02.027a.902.902 0 0 0-.151.355 1.515 1.515 0 0 0-.013.413v.009l.003.024-.02-.013-.002-.002-.008-.005a1.24 1.24 0 0 0-.13-.071.619.619 0 0 0-.124-.044.222.222 0 0 0-.115 0 .22.22 0 0 0-.093.057.54.54 0 0 0-.074.09 1.2 1.2 0 0 0-.052.088l-.014.025a.105.105 0 0 1-.01.012s-.003.003-.008.003a.013.013 0 0 1-.007-.002 1.273 1.273 0 0 1-.133-.395c-.019-.125-.002-.2.022-.243a.147.147 0 0 1 .047-.055.077.077 0 0 1 .005-.002h.001l.005.01-.005-.01.002-.001h.01a31.307 31.307 0 0 0 .817-.248l.036-.012.003.01-.003-.01.031-.01Zm-.055.04-.005.002-.095.03a81.308 81.308 0 0 1-.683.208 1.117 1.117 0 0 1-.05.012h-.002a.125.125 0 0 0-.04.045c-.02.04-.038.11-.02.23.018.123.049.219.075.284a.664.664 0 0 0 .044.09l.013-.024.002-.003c.012-.022.03-.053.051-.086a.557.557 0 0 1 .077-.094.242.242 0 0 1 .101-.062.244.244 0 0 1 .127 0 .58.58 0 0 1 .129.045 1.08 1.08 0 0 1 .124.067l-.002-.015a1.543 1.543 0 0 1 .015-.39l.001-.001a.93.93 0 0 1 .137-.338Zm-.056.942-.004.016-.01-.003.01.003v.001l-.001.003a.283.283 0 0 1-.022.05.22.22 0 0 1-.088.09c-.022.012-.041.013-.058.006a.07.07 0 0 1-.032-.035.146.146 0 0 1-.01-.027.455.455 0 0 1-.038.057.246.246 0 0 1-.158.1.135.135 0 0 1-.136-.069.233.233 0 0 1-.023-.05.21.21 0 0 1-.11.076c-.026.007-.047.005-.063-.004a.075.075 0 0 1-.03-.04.232.232 0 0 1-.009-.036v-.005a.076.076 0 0 0-.004-.012s.002.002.005.002l-.004-.003.005-.004v-.014h.009l.02.022.18-.03.01-.025.003.023.558-.092Zm-.58.118a.139.139 0 0 1-.018.024.189.189 0 0 1-.088.055c-.023.006-.036.003-.045-.002a.053.053 0 0 1-.021-.028.172.172 0 0 1-.006-.02l.177-.029Zm.026-.004.523-.087a.256.256 0 0 1-.015.033.198.198 0 0 1-.079.08c-.018.01-.03.01-.038.006a.048.048 0 0 1-.022-.025.144.144 0 0 1-.013-.047V9.99l-.021-.005v.002a.363.363 0 0 1-.05.08c-.035.043-.083.085-.144.092a.113.113 0 0 1-.115-.058.211.211 0 0 1-.026-.067Z" clip-rule="evenodd"/><path fill="#DD8B59" fill-rule="evenodd" d="m18.529 9.932.012.086s.851-.123.851-.142c0-.01 0-.095-.016-.095-.012 0-.835.166-.851.151h.004Zm-.012-.88.012.095 1-.312s.025-.085.013-.085c-.012 0-1.001.345-1.025.302Z" clip-rule="evenodd"/><path fill="#512007" fill-rule="evenodd" d="M19.538 8.739h.003c.005 0 .008.002.01.004a.017.017 0 0 1 .004.008v.012c0 .01-.003.02-.005.031a.685.685 0 0 1-.01.04v.003l-.002.006-1.02.318-.013-.108.02-.006a.007.007 0 0 0-.002-.003h.008a1.513 1.513 0 0 0 .15-.033 8.99 8.99 0 0 0 .349-.105c.125-.04.25-.082.346-.114l.032-.01.083-.028a2.763 2.763 0 0 1 .043-.014l.003-.001h.002Zm-.018.087.002-.008a.592.592 0 0 0 .011-.055h-.002a3.628 3.628 0 0 0-.033.011l-.083.028-.032.01a12.96 12.96 0 0 1-.696.221 1.532 1.532 0 0 1-.156.034h-.002l.008.065.983-.306Zm.013-.07Zm-.16 1.014h.002c.007 0 .012.005.014.008a.05.05 0 0 1 .006.013l.005.033a.643.643 0 0 1 .002.051.012.012 0 0 1-.005.01.02.02 0 0 1-.003.002 55.004 55.004 0 0 1-.815.136l-.028.004-.01.001-.001-.01.002.01-.011.002-.013-.088-.002-.002-.021-.019h.042a16.889 16.889 0 0 0 .411-.07l.27-.052c.007 0 .013-.002.019-.003a30.292 30.292 0 0 1 .135-.026Zm-.832.173.008.062.026-.004.096-.014a41.84 41.84 0 0 0 .585-.092 2.504 2.504 0 0 0 .124-.026.575.575 0 0 0-.008-.077.619.619 0 0 0-.035.007 46.34 46.34 0 0 0-.384.074 17.06 17.06 0 0 1-.387.068.528.528 0 0 1-.025.002Z" clip-rule="evenodd"/><path fill="#512007" fill-rule="evenodd" d="m19.373 8.476.002-.004a.147.147 0 0 1 .007-.011l.003-.005a.37.37 0 0 0 .023-.042.03.03 0 0 0 .001-.018.02.02 0 0 0-.015-.013.05.05 0 0 0-.022.001 3.3 3.3 0 0 0-.13.044l-.01.003c-.07.024-.16.055-.25.084a4.145 4.145 0 0 1-.244.073.733.733 0 0 1-.104.018h-.005l.001.001-.01.006-.01-.002v.004l-.002.01a.522.522 0 0 0-.003.06c0 .005 0 .009.002.013.001.002.005.01.014.01h.006a.888.888 0 0 0 .032-.009l.086-.023a25.962 25.962 0 0 0 .59-.177.395.395 0 0 0 .034-.015l.003-.002.002-.006Zm-.743.152h.002l.027-.001a.752.752 0 0 0 .085-.018c.067-.017.156-.045.245-.074.09-.029.18-.06.251-.084l.005-.001a3.53 3.53 0 0 1 .143-.046v.003a.412.412 0 0 1-.02.036l-.004.006a.198.198 0 0 0-.011.02l-.003.001a14.944 14.944 0 0 1-.722.215h-.001v-.029c0-.01.002-.02.003-.028Zm.84.23.729 1.344-.02.01-.729-1.343.02-.01Zm-.094.923a.122.122 0 0 1-.003.018l-.02-.007v-.004l.001-.01a27.774 27.774 0 0 0 .04-.72l.005-.093.001-.036h.011l.011.001-.001.036-.005.094-.014.289a25.379 25.379 0 0 1-.026.432Z" clip-rule="evenodd"/><path fill="#FECF3E" fill-rule="evenodd" d="M17.6 8.575c.041.01.126.151.175.123a.627.627 0 0 0 .117-.114s-.012.166.081.142c.098-.028.11-.142.11-.142s.069.048.13 0c.056-.037.113-.246.093-.246-.02 0-.685.246-.71.237h.005Zm-.024.397c0 .029-.121.246-.08.455.04.208.1.397.113.397.012 0 .19-.217.344-.26.15-.043.377.137.365.137-.012 0-.06-.208-.06-.36 0-.15.177-.615.177-.615l-.859.246Zm0 .994c0 .01.033.104.118.104.08 0 .093-.094.093-.094s-.012.165.117.151c.13-.014.175-.166.175-.166s.012.086.121.043a.768.768 0 0 0 .235-.18c-.012 0-.85.18-.863.142h.004Z" clip-rule="evenodd"/><path fill="#512007" fill-rule="evenodd" d="M18.299 8.329a.029.029 0 0 1 .006-.001c.008 0 .012.005.013.008a.031.031 0 0 1 .002.011c0 .007 0 .016-.002.027a.556.556 0 0 1-.055.161.163.163 0 0 1-.044.059.11.11 0 0 1-.097.019.152.152 0 0 1-.031-.011l-.001.003a.223.223 0 0 1-.016.045.157.157 0 0 1-.098.087c-.027.007-.048 0-.063-.015a.115.115 0 0 1-.026-.055.289.289 0 0 1-.006-.052.414.414 0 0 1-.1.093c-.019.01-.038.004-.054-.006a.283.283 0 0 1-.05-.043 1.401 1.401 0 0 1-.021-.022l-.026-.027a.195.195 0 0 0-.02-.017.046.046 0 0 0-.01-.007h-.008l.004-.022h.01a49.21 49.21 0 0 1 .693-.235Zm-.67.251a.29.29 0 0 1 .016.015l.027.027.02.021a.266.266 0 0 0 .046.04c.015.009.024.01.03.006a.393.393 0 0 0 .075-.066l.03-.032.008-.01.002-.002v-.001l.023-.027m-.003.034v.007a.482.482 0 0 0 .005.07.099.099 0 0 0 .02.045c.01.009.023.014.042.009a.136.136 0 0 0 .084-.076.203.203 0 0 0 .017-.052v-.004l.003-.019.015.01v.001l.002.001a.13.13 0 0 0 .036.015.09.09 0 0 0 .079-.016.141.141 0 0 0 .038-.05.558.558 0 0 0 .053-.174 5.648 5.648 0 0 0-.104.035l-.122.043-.115.04a13.833 13.833 0 0 1-.326.11m.823.13-.008.02-.01-.003.01.004-.002.005a2.01 2.01 0 0 0-.026.07 6.383 6.383 0 0 0-.06.175 3.089 3.089 0 0 0-.062.203.722.722 0 0 0-.027.158 1.33 1.33 0 0 0 .054.346.04.04 0 0 1 .004.005l.003.005c0 .002 0 .006-.003.01a.011.011 0 0 1-.008.004.013.013 0 0 1-.009-.003.02.02 0 0 1-.003-.004.547.547 0 0 0-.234-.127.225.225 0 0 0-.116-.003.62.62 0 0 0-.221.143 2.2 2.2 0 0 0-.082.08 1.044 1.044 0 0 1-.037.035l-.008.002a.013.013 0 0 1-.008-.003.021.021 0 0 1-.003-.003 3.068 3.068 0 0 1-.113-.4.635.635 0 0 1 .026-.3 1.41 1.41 0 0 1 .037-.107l.003-.006.01-.028a.172.172 0 0 0 .004-.01v-.015l.89-.254Zm-.162.953a1.346 1.346 0 0 1-.045-.321.74.74 0 0 1 .028-.163 5.968 5.968 0 0 1 .123-.381l.02-.055-.832.238v.002a1.014 1.014 0 0 1-.015.041l-.002.006a1.136 1.136 0 0 0-.037.106.615.615 0 0 0-.025.289 3.029 3.029 0 0 0 .095.363l.01.021.002-.002.024-.025c.022-.021.05-.05.083-.08a.64.64 0 0 1 .23-.148.247.247 0 0 1 .128.003.57.57 0 0 1 .123.05c.036.02.067.04.09.056Zm.017.043Zm.124.108h.003a.011.011 0 0 1 .011.012c0 .003-.001.005-.002.005 0 .002-.002.004-.004.006a.672.672 0 0 1-.236.177.147.147 0 0 1-.07.012.073.073 0 0 1-.055-.034.323.323 0 0 1-.03.053.202.202 0 0 1-.144.093.107.107 0 0 1-.08-.02.12.12 0 0 1-.039-.058.2.2 0 0 1-.007-.03.096.096 0 0 1-.086.051.123.123 0 0 1-.099-.053.18.18 0 0 1-.027-.05.014.014 0 0 1-.006-.008l-.004-.015h.03v.005a1.205 1.205 0 0 0 .122-.011c.08-.011.186-.03.292-.05a23.922 23.922 0 0 0 .34-.067l.052-.01a3.127 3.127 0 0 1 .04-.008Zm-.84.168c.005.01.01.022.02.033a.101.101 0 0 0 .081.044c.036 0 .056-.02.068-.041a.137.137 0 0 0 .012-.03l.002-.01v-.003h.001l.021.002v.006a.24.24 0 0 0 .01.07.099.099 0 0 0 .03.048.087.087 0 0 0 .066.015.18.18 0 0 0 .128-.083.298.298 0 0 0 .037-.073v-.001l.021.001v.003l.003.007a.051.051 0 0 0 .044.034c.014.002.034 0 .06-.01a.92.92 0 0 0 .21-.153l-.009.002-.051.01-.047.01-.293.057c-.107.02-.213.04-.294.05a1.222 1.222 0 0 1-.12.012Z" clip-rule="evenodd"/><path fill="#BE0F17" fill-rule="evenodd" d="M17.887 9.174a.06.06 0 0 1 .044.023.082.082 0 0 1 .017.053.08.08 0 0 1-.02.052.058.058 0 0 1-.046.02.06.06 0 0 1-.044-.024.081.081 0 0 1-.016-.053.08.08 0 0 1 .02-.052.058.058 0 0 1 .045-.02Z" clip-rule="evenodd"/><path fill="#512007" fill-rule="evenodd" d="M17.833 9.245c0 .017.005.034.014.046.01.012.023.019.036.02a.047.047 0 0 0 .037-.017.07.07 0 0 0 .017-.045.071.071 0 0 0-.014-.046.049.049 0 0 0-.036-.02.047.047 0 0 0-.037.017.07.07 0 0 0-.017.045Zm-.003.06a.093.093 0 0 1-.019-.061.103.103 0 0 1 .023-.059.068.068 0 0 1 .054-.023.07.07 0 0 1 .052.028c.013.017.02.038.019.06a.09.09 0 0 1-.023.059.069.069 0 0 1-.054.023.07.07 0 0 1-.052-.028Zm.175-1.179 1.423 1.887v-.001a161.352 161.352 0 0 1-1.097-1.704l-.003-.006V8.3l-.002-.001a4.16 4.16 0 0 0-.322-.173Zm1.62 2.184a.575.575 0 0 0 .008.011l.004.005.001.002.002.001.002.001.004.001h.022l-.026-.034-.003-.006a166.518 166.518 0 0 1-1.29-2h-.001l-.002-.002a.02.02 0 0 0-.002-.003 4.307 4.307 0 0 0-.37-.196h-.004a.011.011 0 0 0-.008.01v.005l1.663 2.205ZM16.94 8.263a.011.011 0 0 1 .007-.002h.006l.007.01a11.15 11.15 0 0 0 .3.272l.043.037.016.014-.007.009.007-.009.003.003.05.273-.02.009-.41-.595-.001-.002a.027.027 0 0 1-.003-.004l-.001-.002-.001-.004c0-.003 0-.006.004-.009Zm.078.093.323.468-.04-.216-.013-.011-.042-.038a30.52 30.52 0 0 1-.227-.203Zm1.972-.053.013-.018.336.168.107.307-.018.011-.438-.468Zm.057.029.361.386-.087-.25-.274-.136Zm-2.396.468-1.285 1.263-.015-.015 1.284-1.264.016.016Zm2.058 2.543-1.216-2.357.019-.01 1.216 2.357-.02.01Zm-3.05-1.073 1.305-1.25.015.016-.008-.007.008.007-.013.013-.036.038a53.668 53.668 0 0 1-.543.544c-.153.15-.31.305-.44.426-.066.06-.124.112-.171.152a.68.68 0 0 1-.105.079l-.012-.018Zm.63-.573-.396.379.038-.035c.107-.1.232-.22.358-.344Zm2.273.262.01-.003.01-.003h.001v.002l.002.004.004.018a3.643 3.643 0 0 0 .082.263c.027.074.058.15.09.214.017.032.034.06.05.082.018.023.035.04.05.05.107.066.21.139.31.218l-.014.017a3.43 3.43 0 0 0-.307-.217.21.21 0 0 1-.056-.055.616.616 0 0 1-.052-.085 1.785 1.785 0 0 1-.091-.217 3.573 3.573 0 0 1-.088-.282V9.96h-.001v-.001Z" clip-rule="evenodd"/><path fill="#512007" fill-rule="evenodd" d="m18.545 9.972.011-.002.011-.001v.002l.001.005.004.02a4.63 4.63 0 0 0 .063.314c.022.089.048.181.077.26.014.038.03.073.046.102.016.03.032.052.049.066a7.427 7.427 0 0 1 .277.255l.005.004.002.002-.015.016-.002-.002-.005-.005-.018-.017-.064-.06a7.36 7.36 0 0 0-.195-.176.264.264 0 0 1-.053-.072.825.825 0 0 1-.048-.106 2.327 2.327 0 0 1-.077-.262A4.775 4.775 0 0 1 18.55 10l-.003-.021-.001-.006v-.001Zm-.975-.005.01-.002.012-.002v.003l.001.008.005.029a4.225 4.225 0 0 0 .098.44c.034.126.078.258.13.372a.671.671 0 0 0 .183.258c.174.126.346.254.518.383l-.013.018c-.172-.13-.345-.257-.518-.383a.69.69 0 0 1-.19-.267 2.517 2.517 0 0 1-.132-.376 4.627 4.627 0 0 1-.098-.442l-.005-.029v-.008l-.001-.002Z" clip-rule="evenodd"/><path fill="#512007" fill-rule="evenodd" d="m17.558 9.956.019-.012 1.175 1.363-.014.017.006-.01-.006.01-.004-.003a2.47 2.47 0 0 1-.006-.003l-.005-.003a3.903 3.903 0 0 1-.193-.121 3.82 3.82 0 0 1-.401-.297 1.149 1.149 0 0 1-.202-.24 3.552 3.552 0 0 1-.183-.314 5.687 5.687 0 0 1-.182-.379l-.003-.006v-.002l.01-.005-.01.005Zm.05.058a4.664 4.664 0 0 0 .155.32c.054.103.117.213.182.31.066.098.133.182.198.236a3.8 3.8 0 0 0 .399.295 5.197 5.197 0 0 0 .15.095l-1.084-1.256Zm-1.039.003.02-.009.008.016.012-.007c.013.02.03.063.05.114l.046.12a20.04 20.04 0 0 0 .096.246.947.947 0 0 0 .067.135c.015.028.064.092.129.174a16.333 16.333 0 0 0 .436.527l.07.081.018.023.007.007-.008.007-.009.008-.006-.008a6.244 6.244 0 0 0-.088-.104 34.959 34.959 0 0 1-.438-.527 2.712 2.712 0 0 1-.114-.153l.122.293-.02.01a3.115 3.115 0 0 0-.234-.359.315.315 0 0 1-.055-.119 1.566 1.566 0 0 1-.033-.16l-.005-.028a1.457 1.457 0 0 0-.053-.244l-.018-.043Zm.076.18.017.102.005.03c.01.056.019.11.032.157.013.048.03.086.05.111h.001c.055.073.107.149.156.227l-.261-.627Z" clip-rule="evenodd"/><path fill="currentColor" fill-rule="evenodd" d="M17.32 11.484a.119.119 0 0 1-.025.074.09.09 0 0 1-.03.022.078.078 0 0 1-.067 0 .09.09 0 0 1-.03-.022.119.119 0 0 1 0-.147.082.082 0 0 1 .127 0c.016.02.026.046.026.073Zm.435.223a.098.098 0 0 1-.023.063.072.072 0 0 1-.054.027c-.02 0-.04-.01-.055-.027a.098.098 0 0 1-.022-.063c0-.024.008-.047.022-.064a.072.072 0 0 1 .055-.026c.02 0 .04.01.054.026.015.017.023.04.023.064Zm.555.056a.098.098 0 0 1-.023.064.072.072 0 0 1-.054.026c-.02 0-.04-.01-.055-.026a.098.098 0 0 1-.022-.064.1.1 0 0 1 .022-.063.072.072 0 0 1 .055-.026c.02 0 .04.009.054.026.015.017.023.04.023.063Zm.482-.213c0 .048-.028.08-.065.08-.036 0-.064-.037-.064-.08 0-.042.028-.085.064-.085.037 0 .065.038.065.085Zm.39-.27a.077.077 0 0 1-.155 0 .077.077 0 0 1 .154 0Z" clip-rule="evenodd"/><path fill="#512007" fill-rule="evenodd" d="M19.104 11.216a.066.066 0 0 0-.066.065c0 .036.031.064.066.064a.066.066 0 0 0 .066-.065.066.066 0 0 0-.066-.064Zm-.088.065a.088.088 0 0 1 .176 0 .088.088 0 0 1-.176 0Zm-1.784.11c-.02 0-.04.01-.055.027a.107.107 0 0 0 0 .133.08.08 0 0 0 .025.02.068.068 0 0 0 .059 0 .08.08 0 0 0 .025-.02.107.107 0 0 0 0-.133.072.072 0 0 0-.055-.027Zm-.072.012a.094.094 0 0 1 .072-.034c.027 0 .052.013.07.034a.12.12 0 0 1 .03.081.13.13 0 0 1-.008.043.117.117 0 0 1-.021.038c-.01.01-.02.02-.033.025a.09.09 0 0 1-.11-.025.13.13 0 0 1-.029-.08c0-.031.01-.06.03-.082Zm1.53.095a.09.09 0 0 0-.017.052.08.08 0 0 0 .017.05c.01.012.023.02.037.02.029 0 .054-.026.054-.07 0-.044-.026-.074-.054-.074-.014 0-.027.008-.037.022Zm-.018-.013a.07.07 0 0 1 .055-.03c.045 0 .076.045.076.095 0 .051-.032.092-.076.092a.07.07 0 0 1-.055-.029.103.103 0 0 1-.02-.063c0-.023.007-.047.02-.065Zm-.995.142a.06.06 0 0 0-.046.023.087.087 0 0 0-.02.056c0 .022.008.042.02.057a.06.06 0 0 0 .046.022.06.06 0 0 0 .046-.022.087.087 0 0 0 .02-.057.087.087 0 0 0-.02-.056.06.06 0 0 0-.046-.023Zm-.063.009a.083.083 0 0 1 .063-.03.08.08 0 0 1 .063.03.11.11 0 0 1 .025.07.11.11 0 0 1-.025.071.083.083 0 0 1-.063.03.083.083 0 0 1-.063-.03.11.11 0 0 1-.025-.07.11.11 0 0 1 .026-.071Zm.619.048a.06.06 0 0 0-.047.023.087.087 0 0 0-.02.056c0 .022.008.042.02.057a.06.06 0 0 0 .047.022.06.06 0 0 0 .046-.022.087.087 0 0 0 .02-.057.087.087 0 0 0-.02-.056.06.06 0 0 0-.046-.023Zm-.063.009a.083.083 0 0 1 .063-.03c.023 0 .046.01.062.03a.109.109 0 0 1 .025.07.109.109 0 0 1-.025.07.083.083 0 0 1-.062.031.083.083 0 0 1-.063-.03.109.109 0 0 1-.025-.07c0-.027.009-.053.025-.071Z" clip-rule="evenodd"/><path fill="red" fill-rule="evenodd" d="M16.895 8.328c-.037.028-.624.194-.543.18.081-.014.555.142.543.094-.012-.047 0-.246 0-.274Zm1.001-.203c-.024 0-.365.15-.352.15.012 0 .389.124.376.096-.012-.029-.012-.209-.024-.246Zm1.026.137c-.025.014-.426.123-.353.137.073.014.34.123.34.095 0-.024 0-.218.013-.237v.005Z" clip-rule="evenodd"/><path fill="#512007" fill-rule="evenodd" d="M17.886 8.116a.044.044 0 0 1 .01-.002h.009l.002.007c.004.011.006.03.008.053l.005.074v.003a2.414 2.414 0 0 0 .008.1.074.074 0 0 0 .003.015.013.013 0 0 1 0 .013.015.015 0 0 1-.009.006.04.04 0 0 1-.014 0 2.357 2.357 0 0 1-.17-.041 3.026 3.026 0 0 1-.119-.035l-.012-.004a5.141 5.141 0 0 0-.067-.019.011.011 0 0 1-.007-.007l.001-.009.002-.002.004-.003a6.274 6.274 0 0 1 .346-.15Zm-.312.157.04.011.012.004.119.036a2.333 2.333 0 0 0 .163.04.448.448 0 0 1-.005-.037l-.005-.075V8.25l-.005-.074a.455.455 0 0 0-.004-.038 4.93 4.93 0 0 0-.315.135Zm1.36-.053v.048l-.004.002-.001.004a1.553 1.553 0 0 0-.006.1c-.002.054-.002.108-.002.12a.014.014 0 0 1-.003.009.016.016 0 0 1-.007.005.033.033 0 0 1-.013.001.184.184 0 0 1-.034-.005 1.424 1.424 0 0 1-.156-.05 7.563 7.563 0 0 0-.058-.02.815.815 0 0 0-.09-.026.017.017 0 0 1-.008-.006.014.014 0 0 1-.002-.012l.005-.008a.055.055 0 0 1 .012-.01 1.397 1.397 0 0 1 .139-.053l.113-.035.024-.007a3.568 3.568 0 0 0 .068-.022l.002-.004.02-.031Zm-.028.06-.005.002a3.415 3.415 0 0 1-.075.023 8.25 8.25 0 0 0-.113.036 1.363 1.363 0 0 0-.132.05c.02.004.046.013.076.023l.059.02a8.466 8.466 0 0 0 .154.048.164.164 0 0 0 .03.006v-.115a1.507 1.507 0 0 1 .006-.093Zm-2 .026v.064l-.004.089v.085a.34.34 0 0 0 .004.056v.011a.017.017 0 0 1-.008.008.042.042 0 0 1-.018.004.302.302 0 0 1-.054-.006 2.9 2.9 0 0 1-.17-.039l-.024-.006a4.965 4.965 0 0 0-.16-.038 1.027 1.027 0 0 0-.074-.013.165.165 0 0 0-.053-.001l-.004-.001a.011.011 0 0 1-.007-.007.01.01 0 0 1 .002-.01.012.012 0 0 1 .003-.003.45.45 0 0 0 .55-.18l.018-.013Zm-.502.193.072.014c.048.01.105.024.161.038l.025.006c.063.016.124.03.167.038a.281.281 0 0 0 .055.005.375.375 0 0 1-.004-.056 2.097 2.097 0 0 1 .004-.198 11.665 11.665 0 0 1-.301.098l-.051.016-.128.04Zm2.438 1.511.022.005-.084.343.028.005.067-.348.021.004-.067.348.04.007.024-.161.022-.14.008-.053.011.002-.01-.002.02.003-.053.355.009.002-.004.021-.009-.001-.021.144v.01h-.001l-.119.775-.021-.003a4.36 4.36 0 0 1 .015-.108l-.08.032-.035.188-.022-.004.034-.175-.084.034-.046.189-.022-.004c.002-.034.012-.093.028-.169l-.01-.02a.269.269 0 0 1 .016-.008l.028-.125c.03-.132.068-.286.107-.438h-.002l-.004-.021.012-.002.009-.034a44.314 44.314 0 0 1 .159-.598l.01-.04.004-.014.01.003-.01-.003Zm.003.519.02-.133-.04-.007-.026.135.046.005Zm-.067-.007.026-.137-.03-.005-.033.138.037.004Zm-.043.02-.035.145.048-.01.024-.128a.334.334 0 0 1-.035-.006h-.002Zm.06.009-.024.122.053-.01.003-.02.014-.09c-.012 0-.027 0-.041-.002h-.006Zm.025.134-.053.01-.033.17c.02-.006.04-.01.061-.015l.025-.165Zm-.11.187.034-.172-.05.01-.044.184a.849.849 0 0 1 .06-.022Zm-.067.05-.035.143.07-.022.027-.14-.062.019Zm.086-.027-.027.14.062-.02.005.01.022-.15-.062.02Zm.04.131Zm-.167.066a.502.502 0 0 0 .07-.016l-.03.152-.081.033.04-.169Zm.064.128.03-.153.01-.004a1.14 1.14 0 0 0 .06-.026l-.024.163-.002-.006.002.007-.002-.007h-.002l-.006.003-.02.007-.046.016Zm-.829-1.12.022.006-.083.36.03.006.064-.36.022.003-.064.36.036.008.054-.371.023.003-.055.372.009.002-.004.021-.008-.001-.022.144v.016h-.002l-.146.99-.022-.003.043-.291-.068.029-.046.26-.022-.003.044-.247-.094.04-.045.196-.023-.003c.002-.036.012-.098.028-.177l-.01-.02a.26.26 0 0 1 .016-.01 20.712 20.712 0 0 1 .135-.59l-.001.002-.005-.022.012-.002.009-.035a47.761 47.761 0 0 1 .159-.626l.01-.042.005-.014.01.002-.01-.002Zm-.1 1.245-.002-.005-.002.001-.005.002a2.788 2.788 0 0 0-.056.02l.028-.16h.002a1.06 1.06 0 0 0 .047-.02l.013-.007-.025.169Zm.027-.183.023-.156-.055.018-.026.147.054-.019.004.01Zm-.083.017.026-.147-.068.023-.035.15.077-.026Zm-.084.054-.04.177.083-.035.007-.003.028-.159a.504.504 0 0 1-.078.02Zm.194-.253.025-.173-.048.01-.031.177a.925.925 0 0 1 .054-.014Zm-.078.021.031-.179-.054.011-.045.193a.881.881 0 0 1 .068-.025Zm.107-.217.016-.115-.041-.002-.023.126.048-.01Zm-.071.014.023-.133a.293.293 0 0 1-.04-.007h-.001l-.035.151.053-.01Zm.05-.158.041.004.02-.14-.036-.006-.025.142Zm.003-.146-.031-.006-.034.144.04.005.025-.143Z" clip-rule="evenodd"/><path fill="#512007" fill-rule="evenodd" d="m17.142 10.046-.021.006.083.349-.028.005-.066-.354-.022.004.067.354-.039.007-.025-.164-.022-.142-.008-.054-.01.002.01-.002-.022.003.054.361-.008.002.004.021.008-.001.022.148v.007l.119.789.022-.003a4.544 4.544 0 0 0-.015-.11l.078.032.037.192.021-.005-.033-.177.084.034.045.191.022-.003a1.414 1.414 0 0 0-.027-.172l.01-.02a.265.265 0 0 0-.016-.008 19.513 19.513 0 0 0-.135-.571l.005-.022-.012-.003-.008-.034a45.185 45.185 0 0 0-.16-.607l-.01-.04-.004-.015-.01.003.01-.003Zm-.002.528a114.84 114.84 0 0 0-.02-.135l.039-.008.026.138-.045.005Zm.067-.007-.027-.14.03-.005.033.14-.036.005Zm.042.02.035.147-.047-.01-.025-.13a.336.336 0 0 0 .035-.006h.002Zm-.06.01.024.123-.053-.01c0-.007-.002-.014-.003-.02l-.013-.092.04-.001h.006Zm-.025.136.053.01.033.172a.804.804 0 0 0-.06-.015 67.54 67.54 0 0 0-.026-.168Zm.11.19-.033-.175.049.01.044.187a.897.897 0 0 0-.06-.022Zm.067.05.035.146-.07-.023-.027-.143.062.02Zm-.085-.028.026.143-.062-.021-.004.01-.023-.152.063.02Zm-.04.133Zm.167.068a.236.236 0 0 1-.07-.017l.029.155.082.033-.041-.171Zm-.065.13-.03-.155-.01-.005a.932.932 0 0 1-.06-.026l.024.165.002-.005-.002.006.002-.006h.002l.006.002.02.007.046.016Z" clip-rule="evenodd"/><path fill="#DD8B59" fill-rule="evenodd" d="m19.116 10.87 1.119.028.012-.095-1.155-.014.024.08Zm.049-.346c.13 0 1.106-.217 1.106-.217s.037-.142 0-.142c-.036 0-1.106.265-1.106.265v.094Z" clip-rule="evenodd"/><path fill="#512007" fill-rule="evenodd" d="m20.263 10.155.008-.001c.009 0 .015.005.02.01a.051.051 0 0 1 .006.021.217.217 0 0 1-.002.052.692.692 0 0 1-.008.05l-.004.016a.07.07 0 0 0-.001.005v.001l-.011-.002.002.01-.01.003-.032.007-.112.024a45.637 45.637 0 0 1-.725.15l-.143.025a.68.68 0 0 1-.087.01h-.01v-.115l.008-.002.002.01-.002-.01.046-.011.122-.03.371-.091a60.053 60.053 0 0 1 .562-.132Zm-1.088.283v.075a4.515 4.515 0 0 0 .215-.033 18.285 18.285 0 0 0 .724-.15l.112-.025.032-.006.004-.002a.531.531 0 0 0 .014-.109.03.03 0 0 0-.004-.011l-.001-.001h-.005a.381.381 0 0 0-.05.01l-.13.03a55.282 55.282 0 0 0-.751.183l-.122.03-.038.01Zm1.096-.131.002.01.007-.001.002-.007-.011-.002Zm-1.194.471 1.182.015-.015.116-1.136-.029-.031-.102Zm.03.022.017.059 1.1.028.01-.073-1.128-.014Z" clip-rule="evenodd"/><path fill="#012169" d="M0 0h12v9H0V0Z"/><path fill="#fff" d="m1.406 0 4.575 3.394L10.537 0H12v1.163L7.5 4.518 12 7.856V9h-1.5L6 5.644 1.519 9H0V7.875l4.481-3.338L0 1.2V0h1.406Z"/><path fill="#C8102E" d="M7.95 5.269 12 8.25V9L6.919 5.269H7.95Zm-3.45.375.112.656-3.6 2.7H0l4.5-3.356ZM12 0v.056L7.331 3.581l.038-.825L11.063 0H12ZM0 0l4.481 3.3H3.356L0 .788V0Z"/><path fill="#fff" d="M4.519 0v9h3V0h-3ZM0 3v3h12V3H0Z"/><path fill="#C8102E" d="M0 3.619v1.8h12v-1.8H0ZM5.119 0v9h1.8V0h-1.8Z"/></g><defs><linearGradient id="b" x1="8.197" x2="9.094" y1="21.35" y2="20.894" gradientUnits="userSpaceOnUse"><stop stop-color="#A43907"/><stop offset="1" stop-color="#fff"/></linearGradient><linearGradient id="c" x1="16.033" x2="14.88" y1="12.58" y2="12.017" gradientUnits="userSpaceOnUse"><stop stop-color="#A43907"/><stop offset="1" stop-color="#fff"/></linearGradient><linearGradient id="d" x1="16.59" x2="14.184" y1="13.04" y2="12.758" gradientUnits="userSpaceOnUse"><stop stop-color="#A43907"/><stop offset="1" stop-color="#fff"/></linearGradient><linearGradient id="e" x1="21.075" x2="19.972" y1="11.938" y2="11.991" gradientUnits="userSpaceOnUse"><stop stop-color="#A43907"/><stop offset="1" stop-color="#fff"/></linearGradient><linearGradient id="f" x1="21.666" x2="19.305" y1="12.592" y2="12.719" gradientUnits="userSpaceOnUse"><stop stop-color="#A43907"/><stop offset="1" stop-color="#fff"/></linearGradient><linearGradient id="g" x1="21.329" x2="14.719" y1="13.361" y2="13.361" gradientUnits="userSpaceOnUse"><stop stop-color="#A43907"/><stop offset="1" stop-color="#fff"/></linearGradient><linearGradient id="h" x1="14.845" x2="24.479" y1="13.884" y2="13.914" gradientUnits="userSpaceOnUse"><stop stop-color="#A43907"/><stop offset="1" stop-color="#fff"/></linearGradient><linearGradient id="i" x1="21.67" x2="20.883" y1="13.23" y2="13.25" gradientUnits="userSpaceOnUse"><stop stop-color="#A43907"/><stop offset="1" stop-color="#fff"/></linearGradient><linearGradient id="j" x1="14.692" x2="15.447" y1="14.162" y2="14.206" gradientUnits="userSpaceOnUse"><stop stop-color="#A43907"/><stop offset="1" stop-color="#fff"/></linearGradient><linearGradient id="k" x1="15.249" x2="13.85" y1="13.971" y2="13.66" gradientUnits="userSpaceOnUse"><stop stop-color="#A43907"/><stop offset="1" stop-color="#fff"/></linearGradient><clipPath id="a"><path fill="#fff" d="M0 0h24v18H0z"/></clipPath></defs></svg>