<svg xmlns="http://www.w3.org/2000/svg" width="24" height="18" fill="none"><g fill-rule="evenodd" clip-path="url(#a)" clip-rule="evenodd"><path fill="#6797D6" d="M-6.021 0h36.095v18.048H-6.02V0Z"/><path fill="#fff" d="m12.02 4.336-1.143.782.437-1.265-1.145-.783h1.413l.437-1.265.438 1.269h1.41l-1.143.779.438 1.265-1.143-.782Zm0 9.411-1.143-.782.437 1.269-1.145.779h1.413l.437 1.265.438-1.269 1.41.004-1.143-.783.438-1.265-1.143.782Zm-5.5-4.04-.863 1.08.05-1.34-1.323-.413 1.354-.412.046-1.34.786 1.086 1.353-.416-.867 1.082.79 1.083-1.326-.41Zm10.991-.003.868 1.082-.05-1.34 1.322-.412-1.354-.412-.045-1.34-.786 1.086-1.354-.416.867 1.082-.79 1.083"/></g><defs><clipPath id="a"><path fill="#fff" d="M0 0h24v18H0z"/></clipPath></defs></svg>