<svg xmlns="http://www.w3.org/2000/svg" width="24" height="18" fill="none"><g clip-path="url(#a)"><path fill="#fff" d="M0 0h24v18H0V0Z"/><path fill="#C00" d="M24 7.2H0v3.6h24V7.2Z"/><path fill="#EBEAE3" fill-rule="evenodd" d="M13.32 5.497c.112-.18.044-.3-.128-.333 0 0-.559.18-1.163.198-.6.02-1.312-.15-1.312-.15-.131.08-.101.27-.038.39 0 0 .63.21 1.35.188a4.163 4.163 0 0 0 1.13-.206c.138-.045.16-.083.16-.087Z" clip-rule="evenodd"/><path fill="currentColor" fill-rule="evenodd" d="M13.192 5.154h.002c.088.017.152.057.178.118.026.06.013.138-.043.229a.055.055 0 0 1-.007.01.133.133 0 0 1-.025.022.55.55 0 0 1-.135.06c-.366.12-.747.19-1.132.206a4.231 4.231 0 0 1-1.346-.185l-.005-.002h-.002l.003-.01-.003.01-.003-.002-.002-.003a.468.468 0 0 1-.056-.215c.001-.075.027-.146.097-.188l.003-.002.004.001-.003.01.003-.01h.002l.006.002.023.005a5.294 5.294 0 0 0 .4.075c.252.04.58.077.879.068a4.491 4.491 0 0 0 1.063-.17 3.395 3.395 0 0 0 .09-.026l.005-.002h.001l.004.008-.003-.008.002-.001Zm.001.02h-.004l-.019.006-.072.02a4.974 4.974 0 0 1-1.068.172c-.3.009-.63-.029-.883-.068a7.122 7.122 0 0 1-.424-.08l-.004-.002c-.06.038-.083.1-.084.17 0 .07.021.144.052.202l.003.002a1.424 1.424 0 0 0 .102.03 4.213 4.213 0 0 0 1.237.155 4.153 4.153 0 0 0 1.127-.206.534.534 0 0 0 .13-.058.113.113 0 0 0 .025-.022v.002h.009l-.008-.005c.056-.089.065-.16.043-.213-.023-.052-.079-.09-.162-.106Z" clip-rule="evenodd"/><path fill="#fff" d="m12 13.41-1.159-2.408-2.658.203L9.683 9l-1.5-2.205 2.662.202L12 4.595l1.159 2.4 2.659-.199L14.318 9l1.5 2.205-2.663-.203L12 13.41Z"/><path fill="#161111" fill-rule="evenodd" d="m12 4.525 1.177 2.438 2.7-.202L14.355 9l1.524 2.239-2.704-.206L12 13.48l-1.178-2.446-2.7.206L9.647 9 8.123 6.76l2.704.206L12 4.525Zm0 .138L10.865 7.03l-2.621-.2L9.719 9l-1.476 2.17 2.617-.199 1.14 2.37 1.137-2.37 2.621.2L14.282 9l1.476-2.171-2.617.195-1.14-2.362Z" clip-rule="evenodd"/><path fill="#B02320" fill-rule="evenodd" d="M11.981 4.583c1.455.24 1.403.307 1.403.307l.379-1.132s.04-.225-.064-.36c-.105-.135-.394-.06-.394-.06s-.037-.184-.169-.225c-.127-.045-.6.168-.75.217-.15.049-.225.094-.43.09-.207 0-.578-.187-.65-.225a.55.55 0 0 0-.258-.064c-.09 0-.188.027-.237.09-.045.064-.045.147-.045.147s-.075-.05-.195-.05c-.12 0-.187.016-.243.08-.057.063-.128.243-.128.243l.135.308.008.424.28.45 1.358-.24Z" clip-rule="evenodd"/><path fill="currentColor" fill-rule="evenodd" d="M13.144 3.089a.265.265 0 0 1 .148.14.47.47 0 0 1 .029.071l.002.008a.842.842 0 0 1 .14-.016c.085-.002.195.013.255.09.057.074.074.17.077.245a.714.714 0 0 1-.007.124v.008l-.001.002-.024-.004.024.004v.002l-.38 1.133a.026.026 0 0 1-.002.006v.001l-.001.001-.02-.014.02.015-.043-.023-.001.006c0 .005.001.009.003.01v.003s0-.002-.005-.004a.69.69 0 0 0-.136-.048c-.167-.046-.516-.123-1.24-.242l-1.37.242-.293-.47-.008-.425-.137-.313.004-.01.022.01-.022-.01V3.63l.003-.006a2.883 2.883 0 0 1 .04-.091.723.723 0 0 1 .088-.152c.064-.072.14-.087.263-.087a.445.445 0 0 1 .174.035.3.3 0 0 1 .046-.122v-.001c.056-.073.163-.1.255-.1.1-.003.205.032.27.067.036.019.146.074.272.126.128.051.268.096.366.096a.823.823 0 0 0 .342-.06l.082-.029a2.3 2.3 0 0 0 .155-.058l.006-.002c.068-.026.145-.056.222-.083.076-.027.153-.052.22-.067a.604.604 0 0 1 .09-.014.187.187 0 0 1 .072.007Zm-2.353.278v.045l-.038-.024-.002-.002a.396.396 0 0 0-.18-.043c-.118 0-.176.015-.225.07a.684.684 0 0 0-.081.14l-.03.068-.008.02.133.302.007.422.269.43 1.341-.237.005.024.004-.024c.727.12 1.079.197 1.249.244.073.02.114.036.137.047l.367-1.098.001-.007a.566.566 0 0 0 .006-.115.38.38 0 0 0-.066-.217c-.045-.057-.132-.073-.217-.071a.742.742 0 0 0-.149.019h-.002l-.025.007-.006-.025V3.34l-.001-.005a.42.42 0 0 0-.031-.084c-.025-.049-.063-.098-.12-.116a.14.14 0 0 0-.054-.004.558.558 0 0 0-.083.013 1.983 1.983 0 0 0-.214.065 7.5 7.5 0 0 0-.22.082l-.008.003c-.064.025-.12.047-.156.059l-.079.027a.87.87 0 0 1-.36.064c-.108 0-.257-.049-.384-.1a3.294 3.294 0 0 1-.276-.128.526.526 0 0 0-.246-.06h-.001c-.088 0-.175.025-.217.08a.233.233 0 0 0-.04.12v.011Z" clip-rule="evenodd"/><path fill="#EBEAE3" fill-rule="evenodd" d="M13.338 5.224s.075.086.072.12c-.004.03-.038.056-.038.056s.026.023.019.057c-.004.037-.053.037-.053.037s.012.03-.018.045a.907.907 0 0 1-.143.038s-.562-.158-1.162-.158c-.6 0-1.313.195-1.313.195s-.075-.026-.075-.075c-.007-.045.004-.079.004-.079s-.038 0-.049-.033c-.015-.049.004-.087.004-.087s-.026.008.004-.056c.022-.049.056-.064.056-.064s.63-.225 1.35-.228c.716 0 1.342.225 1.342.232Z" clip-rule="evenodd"/><path fill="currentColor" fill-rule="evenodd" d="M11.996 4.982a4.25 4.25 0 0 1 1.345.233.016.016 0 0 1 .005.003v.001c.002 0 .002.002.003.003l.009.01a.719.719 0 0 1 .051.075.124.124 0 0 1 .008.02.048.048 0 0 1 .002.018.088.088 0 0 1-.022.045.153.153 0 0 1-.01.011.077.077 0 0 1 .006.01.065.065 0 0 1 .008.047c-.003.024-.02.035-.034.04a.087.087 0 0 1-.017.005.044.044 0 0 1-.026.045.96.96 0 0 1-.14.037h-.004v.001l-.002-.01-.003.01h-.001l-.005-.002a3.847 3.847 0 0 0-.35-.077 4.59 4.59 0 0 0-.804-.078c-.299 0-.626.048-.88.097a7.079 7.079 0 0 0-.422.095l-.006.002h-.001l-.003-.009-.003.01v-.001h-.001l-.003-.001a.198.198 0 0 1-.036-.02c-.02-.012-.041-.033-.042-.062a.202.202 0 0 1 .002-.071.073.073 0 0 1-.012-.004.056.056 0 0 1-.034-.035.14.14 0 0 1 0-.083.017.017 0 0 1-.005-.007.036.036 0 0 1-.001-.022.182.182 0 0 1 .014-.038.156.156 0 0 1 .054-.064.056.056 0 0 1 .005-.003h.001v-.001l.004.009-.003-.01h.002l.006-.002a1.994 1.994 0 0 1 .102-.033 4.614 4.614 0 0 1 1.243-.194Zm-1.35.239-.003-.01v.001l.003.009Zm.004.008-.004.003a.138.138 0 0 0-.047.057.163.163 0 0 0-.013.033.026.026 0 0 0 0 .01l.018-.006-.01.019v.001a.086.086 0 0 0-.006.021.12.12 0 0 0 .004.057.04.04 0 0 0 .023.024.053.053 0 0 0 .015.003h.014l-.004.012v.002l-.001.004a.18.18 0 0 0-.002.069v.001c0 .02.015.036.033.048a.173.173 0 0 0 .033.017l.005-.001a3.744 3.744 0 0 1 .113-.028c.077-.019.184-.043.311-.067.254-.05.582-.098.883-.098a4.609 4.609 0 0 1 1.068.133 3.51 3.51 0 0 1 .09.023l.005.001h.003a2.136 2.136 0 0 0 .103-.025.169.169 0 0 0 .031-.01l.001-.001c.012-.006.015-.014.015-.02v-.014l-.006-.013h.016a.063.063 0 0 0 .02-.004c.01-.004.02-.011.021-.025v-.001a.047.047 0 0 0-.005-.034.059.059 0 0 0-.007-.01l-.003-.003-.01-.008.01-.007a.091.091 0 0 0 .005-.004.13.13 0 0 0 .01-.011.071.071 0 0 0 .019-.035c0-.002 0-.006-.002-.01a.322.322 0 0 0-.03-.055.666.666 0 0 0-.034-.044l-.001-.001-.001-.002-.005-.002a3.944 3.944 0 0 0-.394-.115A4.23 4.23 0 0 0 11.996 5a4.41 4.41 0 0 0-1.345.228h-.001Zm2.682.001.007-.006h-.01a.01.01 0 0 0 .003.006Zm-2.63.384-.002.01h.005l-.002-.01Zm2.476-.037-.003.009h.005l-.002-.01ZM10.556 3.62a.14.14 0 0 0-.152.045.162.162 0 0 0-.03.092.184.184 0 0 0 .003.041V3.8a1.15 1.15 0 0 0-.04.012v-.005a.258.258 0 0 1-.005-.052.204.204 0 0 1 .039-.115.182.182 0 0 1 .2-.06l.002.002c.018.009.028.024.035.034l.002.003c.006.01.01.015.022.017h.001a.046.046 0 0 0 .033-.003.064.064 0 0 0 .014-.01l.015.014.014.015-.002.002a.096.096 0 0 1-.023.016.085.085 0 0 1-.061.006.07.07 0 0 1-.047-.034l-.003-.004c-.007-.01-.01-.015-.017-.019Zm.125.003Z" clip-rule="evenodd"/><path fill="#FC0" fill-opacity=".9" fill-rule="evenodd" d="m13.868 3.997-.218.45-.086.015s-.053-.03-.203-.019c-.105.008-.138.038-.138.038l.195-.45s.015.094.037.15c.03.075.139.139.139.139s.015-.087-.015-.188a2.08 2.08 0 0 0-.105-.274l.394.14Z" clip-rule="evenodd"/><path fill="currentColor" fill-rule="evenodd" d="m13.43 3.82.444.156-.007.022.02.01-.223.46-.105.018-.007-.004-.007-.003a.585.585 0 0 0-.183-.013.35.35 0 0 0-.122.03.033.033 0 0 0-.003.002l-.036-.026.226-.52.012.076v.004l.003.01.007.039c.007.03.016.066.026.092a.248.248 0 0 0 .074.088.507.507 0 0 0 .025.02v-.017a.446.446 0 0 0-.018-.125 2.064 2.064 0 0 0-.103-.27l-.023-.05Zm.163.5-.011.02-.002-.001a.17.17 0 0 1-.017-.011.55.55 0 0 1-.042-.032.291.291 0 0 1-.088-.106.603.603 0 0 1-.024-.084l-.144.331a.63.63 0 0 1 .295 0l.006.002.068-.012.202-.417-.32-.112c.032.074.06.15.084.228a.49.49 0 0 1 .016.193v.004l-.023-.003Zm0 0 .022.004-.005.032-.028-.017.011-.019Z" clip-rule="evenodd"/><path fill="#121116" d="M11.87 2.595h.243v1.038h-.244V2.595Z"/><path fill="#121116" fill-rule="evenodd" d="M11.846 2.595c0-.012.01-.022.022-.022h.244c.012 0 .022.01.022.022v1.039c0 .012-.01.022-.022.022h-.244a.023.023 0 0 1-.022-.022V2.595Zm.045.023v.994h.198v-.994h-.198Z" clip-rule="evenodd"/><path fill="#F6CA1F" fill-rule="evenodd" d="m10.373 4.507.154.338s.671-.263 1.459-.255c1.18.007 1.518.244 1.518.244l.173-.417-.131.075-.135.087-.15.056-.188-.011-.165-.12-.082-.177-.14.128-.247.052-.24-.06-.21-.266s-.157.296-.36.315c-.288.023-.454-.139-.454-.139s-.108.24-.285.282c-.28.07-.513-.132-.517-.132Z" clip-rule="evenodd"/><path fill="currentColor" fill-rule="evenodd" d="m11.986 4.147.223.284.23.057.238-.05.154-.142.091.195.157.114.178.01.145-.053.133-.086.18-.102-.203.488-.019-.013-.003-.002a1.57 1.57 0 0 0-.307-.114c-.23-.06-.609-.12-1.198-.124a4.227 4.227 0 0 0-1.444.25l-.006.003h-.002l-.016.007-.162-.354.018-.008V4.49a.02.02 0 0 1 .007.001.026.026 0 0 1 .004.002l.003.003.003.002a.504.504 0 0 0 .036.025.74.74 0 0 0 .109.06.527.527 0 0 0 .35.038.377.377 0 0 0 .199-.149.752.752 0 0 0 .074-.12V4.35l.011-.025.02.019v.001l.006.005.021.017a.628.628 0 0 0 .41.11c.095-.008.18-.082.244-.158a.95.95 0 0 0 .095-.134l.006-.01v-.002h.001l.014-.026Zm.005.068a.931.931 0 0 1-.092.129c-.065.077-.16.16-.268.17a.666.666 0 0 1-.45-.127.413.413 0 0 1-.287.27.573.573 0 0 1-.374-.04.77.77 0 0 1-.102-.055l.118.26.014-.006.088-.03a4.265 4.265 0 0 1 1.348-.215c.591.004.972.065 1.206.125a1.602 1.602 0 0 1 .303.11l.143-.345-.083.047-.136.088-.156.058-.197-.012-.173-.126-.074-.157-.124.113-.257.055-.25-.063-.197-.25Z" clip-rule="evenodd"/><path fill="#EEE" d="M13.066 2.463a.126.126 0 0 1-.173.118.126.126 0 0 1-.079-.118.127.127 0 0 1 .128-.131.128.128 0 0 1 .124.128"/><path fill="#1E1E1E" fill-rule="evenodd" d="M12.942 2.355a.105.105 0 0 0-.105.108.106.106 0 0 0 .03.075.105.105 0 0 0 .075.03.103.103 0 0 0 .101-.105h.045a.148.148 0 0 1-.203.139.15.15 0 0 1-.093-.138.15.15 0 0 1 .15-.154.15.15 0 0 1 .146.15h-.045a.105.105 0 0 0-.101-.105Z" clip-rule="evenodd"/><path fill="#A3AFB8" fill-rule="evenodd" d="M12.882 2.527s.101 0 .112-.04c.012-.046-.007-.098-.007-.098s.049.052.037.093c-.015.042-.03.053-.063.064a.113.113 0 0 1-.075-.019h-.004Z" clip-rule="evenodd"/><path fill="#EEE" d="M12.762 2.605a.129.129 0 0 1-.176.118.128.128 0 0 1-.08-.118.128.128 0 0 1 .132-.13.127.127 0 0 1 .128.123"/><path fill="#1E1E1E" fill-rule="evenodd" d="M12.637 2.498a.106.106 0 0 0-.1.066.105.105 0 0 0-.008.042.105.105 0 0 0 .105.105.106.106 0 0 0 .105-.105h.045a.151.151 0 0 1-.207.139.15.15 0 0 1-.093-.138.15.15 0 0 1 .155-.154.15.15 0 0 1 .15.145l-.046.002a.105.105 0 0 0-.105-.102Z" clip-rule="evenodd"/><path fill="#A3AFB8" fill-rule="evenodd" d="M12.574 2.67s.105 0 .113-.041c.011-.042-.008-.098-.008-.098s.049.056.038.098c-.015.037-.03.052-.064.06a.112.112 0 0 1-.075-.019h-.004Z" clip-rule="evenodd"/><path fill="#EEE" d="M13.426 2.377a.128.128 0 1 1-.131-.127.127.127 0 0 1 .127.127"/><path fill="#1E1E1E" fill-rule="evenodd" d="M13.294 2.227a.15.15 0 0 1 .15.15h.004a.15.15 0 1 1-.3 0m.147-.105a.105.105 0 0 0-.102.105.105.105 0 0 0 .21 0H13.4a.105.105 0 0 0-.105-.105Zm-.001-.045a.15.15 0 0 0-.103.046l.103-.046Zm-.103.046a.15.15 0 0 0-.043.104l.043-.104Z" clip-rule="evenodd"/><path fill="#A3AFB8" fill-rule="evenodd" d="M13.237 2.445s.102 0 .113-.045c.011-.041-.008-.094-.008-.094s.049.053.038.094c-.015.041-.03.052-.064.06a.112.112 0 0 1-.075-.015h-.004Z" clip-rule="evenodd"/><path fill="#EEE" d="M13.823 2.46a.128.128 0 0 1-.123.127.128.128 0 1 1 0-.255.127.127 0 0 1 .123.124"/><path fill="#1E1E1E" fill-rule="evenodd" d="M13.698 2.355a.105.105 0 0 0 0 .21.106.106 0 0 0 .102-.105h.045a.15.15 0 0 1-.146.15.15.15 0 1 1 0-.3.15.15 0 0 1 .146.145l-.045.001a.105.105 0 0 0-.102-.101Z" clip-rule="evenodd"/><path fill="#A3AFB8" fill-rule="evenodd" d="M13.64 2.523s.1 0 .112-.041c.011-.045-.007-.098-.007-.098s.048.053.037.098c-.015.037-.03.049-.064.06a.113.113 0 0 1-.078-.019Z" clip-rule="evenodd"/><path fill="#EEE" d="M14.13 2.711a.129.129 0 0 1-.128.127.128.128 0 1 1 .128-.13"/><path fill="#1E1E1E" fill-rule="evenodd" d="M14.077 2.636a.105.105 0 1 0-.073.18.105.105 0 0 0 .104-.104h.045a.15.15 0 1 1-.15-.15m0 0a.15.15 0 0 1 .15.145l-.045.001a.105.105 0 0 0-.031-.072" clip-rule="evenodd"/><path fill="#A3AFB8" fill-rule="evenodd" d="M13.947 2.775s.102 0 .113-.041c.007-.042-.008-.098-.008-.098s.049.056.034.098c-.015.037-.026.052-.064.06a.108.108 0 0 1-.075-.019Z" clip-rule="evenodd"/><path fill="#EEE" d="M14.262 3.123a.126.126 0 0 1-.128.128.128.128 0 0 1 0-.255.127.127 0 0 1 .128.127Z"/><path fill="#1E1E1E" fill-rule="evenodd" d="M14.133 2.974a.15.15 0 0 1 0 .3.15.15 0 0 1 0-.3Zm-.146.15h.023-.023Zm.147-.105a.105.105 0 0 0-.102.105.105.105 0 0 0 .102.105.105.105 0 0 0 0-.21Z" clip-rule="evenodd"/><path fill="#A3AFB8" fill-rule="evenodd" d="M14.078 3.188s.101 0 .113-.042c.007-.04-.008-.097-.008-.097s.049.056.034.097c-.015.038-.026.053-.064.06a.113.113 0 0 1-.075-.018Z" clip-rule="evenodd"/><path fill="#EEE" d="M14.213 3.54a.124.124 0 0 1-.127.128.127.127 0 0 1 0-.255.128.128 0 0 1 .127.127Z"/><path fill="#1E1E1E" fill-rule="evenodd" d="M14.085 3.39a.15.15 0 0 1 .15.15c0 .088-.066.15-.15.15a.15.15 0 0 1 0-.3Zm-.146.154h.023-.022Zm.147-.11a.104.104 0 0 0-.101.109.105.105 0 0 0 .101.102c.06 0 .105-.043.105-.105a.105.105 0 0 0-.105-.105Z" clip-rule="evenodd"/><path fill="#A3AFB8" fill-rule="evenodd" d="M14.025 3.607s.105 0 .113-.045c.011-.037-.004-.093-.004-.093s.049.052.034.094c-.015.04-.026.052-.064.06a.113.113 0 0 1-.075-.016h-.004Z" clip-rule="evenodd"/><path fill="#EEE" d="M14.026 3.908a.126.126 0 0 1-.124.127.127.127 0 0 1 0-.255.128.128 0 0 1 .124.128Z"/><path fill="#1E1E1E" fill-rule="evenodd" d="M13.902 3.802a.105.105 0 0 0 0 .21.103.103 0 0 0 .101-.105h.023-.023a.105.105 0 0 0-.101-.105Zm.146.105a.15.15 0 0 0-.145-.15h-.001a.15.15 0 0 0 0 .3c.08 0 .146-.066.146-.15" clip-rule="evenodd"/><path fill="#A3AFB8" fill-rule="evenodd" d="M13.842 3.975s.101 0 .112-.045c.012-.037-.007-.094-.007-.094s.049.053.037.094c-.015.041-.03.053-.063.06a.113.113 0 0 1-.075-.015h-.004Z" clip-rule="evenodd"/><path fill="#EEE" d="M12.462 2.715a.126.126 0 0 1-.123.127.127.127 0 0 1-.004-.255.128.128 0 0 1 .127.128Z"/><path fill="#1E1E1E" fill-rule="evenodd" d="M12.333 2.564a.15.15 0 0 1 .15.15c0 .084-.065.15-.146.15a.15.15 0 0 1-.15-.15m.147-.105a.105.105 0 0 0-.101.105.105.105 0 0 0 .104.105.103.103 0 0 0 .102-.105.105.105 0 0 0-.105-.105Zm0-.045a.15.15 0 0 0-.104.046l.103-.046Zm-.104.046a.15.15 0 0 0-.043.104l.043-.104Z" clip-rule="evenodd"/><path fill="#A3AFB8" fill-rule="evenodd" d="M12.278 2.782s.102 0 .113-.045c.011-.041-.008-.093-.008-.093s.05.052.038.093c-.015.042-.03.053-.064.06a.096.096 0 0 1-.079-.015Z" clip-rule="evenodd"/><path fill="#EEE" d="M12.08 2.681a.104.104 0 0 1-.065.1.105.105 0 0 1-.146-.1.105.105 0 0 1 .21 0Z"/><path fill="#1E1E1E" fill-rule="evenodd" d="M11.974 2.598a.083.083 0 0 0-.082.083.084.084 0 0 0 .023.06.083.083 0 0 0 .06.026.082.082 0 0 0 .082-.085l.022-.001h-.022a.083.083 0 0 0-.083-.083Zm.128.082a.127.127 0 0 0-.255 0 .128.128 0 0 0 .127.132v-.023.023a.128.128 0 0 0 .128-.132Z" clip-rule="evenodd"/><path fill="#A3AFB8" fill-rule="evenodd" d="M11.926 2.737s.086 0 .094-.038c.01-.034-.004-.075-.004-.075s.037.041.03.075c-.015.038-.026.045-.053.053a.094.094 0 0 1-.067-.015Z" clip-rule="evenodd"/><path fill="#EEE" d="M12.083 2.813a.106.106 0 0 1-.063.103.105.105 0 0 1-.119-.024.106.106 0 0 1-.028-.08.105.105 0 0 1 .105-.104.105.105 0 0 1 .105.105Z"/><path fill="#1E1E1E" fill-rule="evenodd" d="M11.978 2.73a.082.082 0 0 0-.082.082v.002a.082.082 0 0 0 .082.088.083.083 0 0 0 .083-.088l.022-.002h-.022a.083.083 0 0 0-.083-.082Zm.128.081a.128.128 0 0 0-.255 0 .125.125 0 0 0 .034.096.127.127 0 0 0 .093.04v-.022.022a.128.128 0 0 0 .128-.136Z" clip-rule="evenodd"/><path fill="#A3AFB8" fill-rule="evenodd" d="M11.926 2.868s.086 0 .097-.038c.008-.03-.007-.075-.007-.075s.037.045.03.075c-.011.038-.023.045-.053.053a.094.094 0 0 1-.063-.015h-.004Z" clip-rule="evenodd"/><path fill="#EEE" d="M12.09 3.011a.105.105 0 0 1-.104.105.105.105 0 0 1-.109-.105.107.107 0 0 1 .03-.078.105.105 0 0 1 .079-.03.104.104 0 0 1 .098.067.106.106 0 0 1 .007.041Z"/><path fill="#1E1E1E" fill-rule="evenodd" d="M11.985 2.924a.083.083 0 0 0-.085.087.083.083 0 0 0 .053.077c.01.004.02.006.032.005a.082.082 0 0 0 .083-.082V3.01a.082.082 0 0 0-.05-.079.083.083 0 0 0-.032-.007h-.001Zm.001-.045a.127.127 0 0 0-.131.132.126.126 0 0 0 .038.091.127.127 0 0 0 .093.036.128.128 0 0 0 .127-.127.126.126 0 0 0-.077-.121.128.128 0 0 0-.05-.01Z" clip-rule="evenodd"/><path fill="#A3AFB8" fill-rule="evenodd" d="M11.937 3.067s.082 0 .093-.037a.17.17 0 0 0-.007-.079s.037.045.03.075c-.012.038-.023.049-.053.053a.094.094 0 0 1-.063-.012Z" clip-rule="evenodd"/><path fill="#EEE" d="M12.101 3.217a.113.113 0 0 1-.112.117.112.112 0 0 1-.117-.113.113.113 0 1 1 .225-.004"/><path fill="#1E1E1E" fill-rule="evenodd" d="M11.985 3.123a.09.09 0 0 0-.09.096v.002a.09.09 0 0 0 .093.09.09.09 0 0 0 .09-.093l.021-.001h-.024a.09.09 0 0 0-.055-.087.09.09 0 0 0-.035-.007Zm.135.093a.136.136 0 0 0-.082-.127.135.135 0 0 0-.053-.01V3.1v-.023a.135.135 0 0 0-.135.143.136.136 0 0 0 .041.097.135.135 0 0 0 .098.038.135.135 0 0 0 .135-.14h-.004Z" clip-rule="evenodd"/><path fill="#A3AFB8" fill-rule="evenodd" d="M11.932 3.277s.093 0 .1-.037c.008-.038-.007-.087-.007-.087s.045.05.034.087c-.015.037-.026.045-.056.052a.098.098 0 0 1-.071-.015Z" clip-rule="evenodd"/><path fill="#EEE" d="M12.114 3.499a.129.129 0 0 1-.128.127.127.127 0 0 1-.124-.127.128.128 0 0 1 .076-.12.128.128 0 0 1 .048-.011.128.128 0 0 1 .128.127"/><path fill="#1E1E1E" fill-rule="evenodd" d="M11.985 3.345a.15.15 0 0 1 .15.15h-.045a.105.105 0 0 0-.104-.105.104.104 0 0 0-.095.067.105.105 0 0 0-.007.04v.001a.105.105 0 0 0 .101.105c.059 0 .105-.05.105-.105h.045c0 .08-.066.15-.15.15a.15.15 0 0 1-.146-.15.152.152 0 0 1 .04-.106.15.15 0 0 1 .106-.047Z" clip-rule="evenodd"/><path fill="#A3AFB8" fill-rule="evenodd" d="M11.925 3.563s.105 0 .112-.042a.227.227 0 0 0-.004-.097s.05.056.034.097c-.015.038-.026.053-.063.06a.112.112 0 0 1-.075-.018h-.004Z" clip-rule="evenodd"/><path fill="#EEE" d="M12.102 4.069c0 .067-.052.12-.12.12a.12.12 0 1 1 .12-.12Z"/><path fill="#1E1E1E" fill-rule="evenodd" d="M11.982 3.97a.097.097 0 1 0 0 .195.096.096 0 0 0 .098-.097.097.097 0 0 0-.098-.097Zm-.142.098Z" clip-rule="evenodd"/><path fill="#A3AFB8" fill-rule="evenodd" d="M11.927 4.132s.097 0 .105-.041c.011-.038-.004-.09-.004-.09s.045.049.03.09c-.011.037-.026.049-.056.056a.13.13 0 0 1-.075-.015Z" clip-rule="evenodd"/><path fill="#EEE" d="M11.76 2.711Z"/><path fill="#1E1E1E" fill-rule="evenodd" d="M11.633 2.607a.105.105 0 1 0 0 .21.106.106 0 0 0 .105-.105.105.105 0 0 0-.105-.105Zm-.106-.002a.15.15 0 0 1 .256.107.15.15 0 1 1-.256-.106Z" clip-rule="evenodd"/><path fill="#A3AFB8" fill-rule="evenodd" d="M11.573 2.775s.101 0 .113-.038c.011-.045-.008-.097-.008-.097s.049.052.038.093c-.015.042-.03.053-.064.06a.113.113 0 0 1-.075-.015l-.004-.003Z" clip-rule="evenodd"/><path fill="#EEE" d="M11.446 2.587a.126.126 0 0 1-.128.127.128.128 0 0 1 0-.255.127.127 0 0 1 .128.128Z"/><path fill="#1E1E1E" fill-rule="evenodd" d="M11.318 2.438a.15.15 0 1 1 0 .3.15.15 0 0 1 0-.3Zm-.146.15h.022-.022Zm.146-.106a.105.105 0 0 0-.101.105.105.105 0 0 0 .101.105.104.104 0 0 0 .105-.105.105.105 0 0 0-.105-.105Z" clip-rule="evenodd"/><path fill="#A3AFB8" fill-rule="evenodd" d="M11.262 2.654s.101 0 .112-.045c.008-.037-.007-.093-.007-.093s.048.052.037.093c-.018.042-.03.053-.067.06a.09.09 0 0 1-.075-.015Z" clip-rule="evenodd"/><path fill="#EEE" d="M11.146 2.449a.128.128 0 0 1-.124.127.128.128 0 0 1-.127-.127.128.128 0 0 1 .075-.12.128.128 0 0 1 .048-.012.128.128 0 0 1 .128.128"/><path fill="#1E1E1E" fill-rule="evenodd" d="M11.017 2.295a.15.15 0 0 1 .15.15h-.045a.105.105 0 0 0-.104-.105.105.105 0 0 0-.102.108.105.105 0 0 0 .105.106c.054 0 .101-.05.101-.105h.045a.15.15 0 0 1-.146.15.15.15 0 0 1-.15-.15.148.148 0 0 1 .041-.107.15.15 0 0 1 .105-.047Z" clip-rule="evenodd"/><path fill="#A3AFB8" fill-rule="evenodd" d="M10.962 2.513s.101 0 .112-.041c.012-.042-.007-.098-.007-.098s.049.056.037.098c-.015.037-.03.052-.063.06a.113.113 0 0 1-.08-.02Z" clip-rule="evenodd"/><path fill="#EEE" d="M10.801 2.374a.123.123 0 0 1-.124.127.127.127 0 0 1-.127-.127.127.127 0 1 1 .255-.004"/><path fill="#1E1E1E" fill-rule="evenodd" d="M10.676 2.265a.105.105 0 0 0-.105.108.105.105 0 0 0 .105.105.1.1 0 0 0 .102-.105h.045c0 .083-.062.15-.147.15a.15.15 0 0 1-.15-.15.15.15 0 0 1 .15-.153m.075.075a.105.105 0 0 0-.075-.03m0-.045a.15.15 0 0 1 .15.15h-.045a.105.105 0 0 0-.03-.075" clip-rule="evenodd"/><path fill="#A3AFB8" fill-rule="evenodd" d="M10.617 2.438s.101 0 .113-.042c.01-.04-.008-.097-.008-.097s.049.056.038.097c-.015.038-.03.053-.064.06a.112.112 0 0 1-.075-.018h-.004Z" clip-rule="evenodd"/><path fill="#EEE" d="M10.396 2.467a.129.129 0 0 1-.124.131.128.128 0 0 1-.127-.127.127.127 0 0 1 .127-.132.127.127 0 0 1 .124.128Z"/><path fill="#1E1E1E" fill-rule="evenodd" d="M10.27 2.362a.105.105 0 0 0-.104.108v.001a.105.105 0 0 0 .104.105.107.107 0 0 0 .102-.109.105.105 0 0 0-.101-.105Zm-.057-.033a.15.15 0 0 1 .058-.012.15.15 0 0 1 .146.15m-.204-.138a.15.15 0 0 0-.05.034l.05-.034Zm-.05.034a.15.15 0 0 0-.032.05l.033-.05Zm-.032.05a.151.151 0 0 0-.01.058l.01-.058Zm-.01.058a.15.15 0 0 0 .151.15.152.152 0 0 0 .145-.154" clip-rule="evenodd"/><path fill="#A3AFB8" fill-rule="evenodd" d="M10.212 2.535s.101 0 .112-.042c.012-.044-.007-.097-.007-.097s.049.053.037.094c-.015.041-.03.052-.063.063a.112.112 0 0 1-.075-.018h-.004Z" clip-rule="evenodd"/><path fill="#EEE" d="M10.11 2.755a.126.126 0 0 1-.127.128.128.128 0 0 1 0-.255.128.128 0 0 1 .128.127Z"/><path fill="#1E1E1E" fill-rule="evenodd" d="M9.982 2.606h.001a.15.15 0 0 1 0 .3.15.15 0 0 1 0-.3Zm-.145.15h.022-.022Zm.146-.105a.105.105 0 0 0-.101.105.105.105 0 0 0 .101.105.105.105 0 0 0 0-.21Z" clip-rule="evenodd"/><path fill="#A3AFB8" fill-rule="evenodd" d="M9.927 2.82s.101 0 .112-.041c.008-.042-.007-.098-.007-.098s.049.056.034.098c-.016.037-.027.052-.064.06a.112.112 0 0 1-.075-.02Z" clip-rule="evenodd"/><path fill="#EEE" d="M9.99 3.158a.126.126 0 0 1-.123.127.127.127 0 0 1-.004-.255.128.128 0 0 1 .128.124"/><path fill="#1E1E1E" fill-rule="evenodd" d="M9.863 3.052a.105.105 0 0 1 .105.102l.045-.001a.15.15 0 0 0-.15-.146.15.15 0 0 0-.146.15m.146-.105a.105.105 0 0 0-.101.105.105.105 0 0 0 .105.105.103.103 0 0 0 .101-.105h.045c0 .084-.066.15-.146.15a.15.15 0 0 1-.15-.15" clip-rule="evenodd"/><path fill="#A3AFB8" fill-rule="evenodd" d="M9.807 3.225s.1-.004.112-.045c.011-.042-.007-.098-.007-.098s.048.056.037.098c-.015.037-.03.052-.064.06a.112.112 0 0 1-.078-.02v.005Z" clip-rule="evenodd"/><path fill="#EEE" d="M10.043 3.573c0 .075-.056.132-.123.132a.128.128 0 0 1-.128-.128.127.127 0 0 1 .124-.131.128.128 0 0 1 .127.127Z"/><path fill="#1E1E1E" fill-rule="evenodd" d="M9.915 3.424a.15.15 0 0 1 .15.15.15.15 0 0 1-.145.154.15.15 0 0 1-.15-.15.15.15 0 0 1 .145-.154Zm.001.045a.105.105 0 0 0-.101.108.105.105 0 0 0 .105.106c.054 0 .1-.046.1-.11a.105.105 0 0 0-.104-.104Z" clip-rule="evenodd"/><path fill="#A3AFB8" fill-rule="evenodd" d="M9.86 3.64s.1 0 .112-.044c.011-.038-.008-.094-.008-.094s.05.052.038.094c-.015.041-.03.052-.064.063a.112.112 0 0 1-.075-.018H9.86Z" clip-rule="evenodd"/><path fill="#EEE" d="M10.239 3.956a.129.129 0 0 1-.128.127.127.127 0 0 1-.124-.127.128.128 0 0 1 .124-.131.128.128 0 0 1 .128.127"/><path fill="#1E1E1E" fill-rule="evenodd" d="M10.11 3.802a.15.15 0 0 1 .15.15h-.045a.105.105 0 0 0-.104-.105.105.105 0 0 0-.102.108v.001a.105.105 0 0 0 .101.105c.059 0 .105-.05.105-.105h.045c0 .08-.066.15-.15.15a.15.15 0 0 1-.146-.15.15.15 0 0 1 .146-.154Z" clip-rule="evenodd"/><path fill="#A3AFB8" fill-rule="evenodd" d="M10.05 4.02s.105 0 .112-.041c.012-.041-.003-.098-.003-.098s.048.053.037.094c-.019.041-.03.053-.064.064a.112.112 0 0 1-.078-.019h-.004Z" clip-rule="evenodd"/><path fill="#EEE" d="M10.457 4.431a.173.173 0 0 1 .001.092c-.008.027-.024.045-.044.051-.02.006-.043-.002-.064-.021a.172.172 0 0 1-.046-.081.173.173 0 0 1 0-.092c.008-.027.023-.045.043-.051.02-.006.044.002.064.021.021.02.037.048.046.081Z"/><path fill="#1E1E1E" fill-rule="evenodd" d="M10.341 4.308c.03-.008.061.004.085.026a.195.195 0 0 1 .052.092m-.125-.076c.011-.003.027 0 .044.016a.151.151 0 0 1 .04.07l.02-.005-.02.006a.154.154 0 0 1 0 .08c-.006.022-.018.033-.028.036-.011.003-.027 0-.044-.016a.151.151 0 0 1-.04-.07.151.151 0 0 1 0-.08c.006-.023.018-.034.028-.037Zm.125.076a.19.19 0 0 1 .001.103c-.01.032-.029.057-.058.066-.03.008-.061-.004-.085-.026a.195.195 0 0 1-.052-.091m.057-.17c-.029.009-.049.035-.058.066l.058-.066Zm-.058.066a.195.195 0 0 0 0 .104v-.104Z" clip-rule="evenodd"/><path fill="#A3AFB8" fill-rule="evenodd" d="M10.361 4.526s.06-.019.057-.06c0-.041-.027-.09-.027-.09s.042.041.045.086c0 .038-.003.053-.022.068-.011.007-.038.007-.053-.004Z" clip-rule="evenodd"/><path fill="#EEE" d="M13.719 4.455a.173.173 0 0 1-.044.081c-.02.02-.042.028-.063.024-.02-.005-.037-.023-.046-.05a.173.173 0 0 1 0-.093.173.173 0 0 1 .043-.08c.02-.02.043-.029.063-.024.02.005.037.023.046.05a.169.169 0 0 1 0 .092Z"/><path fill="#1E1E1E" fill-rule="evenodd" d="M13.677 4.292c.03.008.051.033.062.064.01.031.01.069.001.105m-.073-.127c.011.003.023.013.03.036a.15.15 0 0 1 .001.08l.021.006-.021-.006a.15.15 0 0 1-.038.071c-.016.017-.032.02-.043.018-.01-.003-.023-.013-.03-.035a.15.15 0 0 1 0-.081.151.151 0 0 1 .037-.07c.017-.017.032-.021.043-.019Zm.073.127a.193.193 0 0 1-.05.091c-.023.023-.052.036-.082.03a.092.092 0 0 1-.062-.065.195.195 0 0 1-.002-.104m.133-.121c-.03-.007-.06.006-.083.03l.083-.03Zm-.083.03a.195.195 0 0 0-.05.09l.05-.09Z" clip-rule="evenodd"/><path fill="#A3AFB8" fill-rule="evenodd" d="M13.588 4.492s.064.015.079-.027c.018-.037.018-.093.018-.093s.02.06 0 .097c-.018.038-.03.049-.052.049-.015.004-.038-.011-.045-.026Z" clip-rule="evenodd"/><path fill="#B3A192" fill-rule="evenodd" d="m11.876 2.017.011.214s-.255.023-.262.045c-.053.113.056.263.056.263s.086-.068.3-.068c.206 0 .311.053.311.053s.053-.087.053-.15c0-.064-.023-.128-.023-.128l-.135-.015h-.094l-.007-.217-.21.003Z" clip-rule="evenodd"/><path fill="currentColor" fill-rule="evenodd" d="m12.109 1.99.007.219h.074l.15.016.004.014-.02.007.02-.007.002.003.002.009a.42.42 0 0 1 .02.123.286.286 0 0 1-.028.108.538.538 0 0 1-.027.052v.001l-.02-.011.02.011-.011.018-.019-.01-.004-.001a.34.34 0 0 0-.07-.023.933.933 0 0 0-.227-.025.676.676 0 0 0-.223.032.32.32 0 0 0-.06.028l-.003.002-.019.015-.013-.02.018-.012-.018.013-.002-.002-.003-.006a.51.51 0 0 1-.046-.086c-.02-.053-.038-.126-.008-.19a.032.032 0 0 1 .013-.015.265.265 0 0 1 .047-.015 1.266 1.266 0 0 1 .18-.025l.02-.002-.01-.192.022-.002v-.022l.232-.004Zm-.208.05.01.212-.02.002h-.004a1.828 1.828 0 0 0-.124.013 1.233 1.233 0 0 0-.119.023c-.02.047-.008.103.011.151a.457.457 0 0 0 .034.067.37.37 0 0 1 .055-.024.72.72 0 0 1 .238-.035.977.977 0 0 1 .301.046.475.475 0 0 0 .016-.032.244.244 0 0 0 .024-.09.373.373 0 0 0-.017-.106l-.119-.013h-.114l-.008-.217-.164.002Zm-.26.251Z" clip-rule="evenodd"/><path fill="#F0DDCB" d="M12.24 2.347a.046.046 0 0 1-.045.045c-.026 0-.049-.018-.049-.04 0-.027.023-.046.045-.046a.05.05 0 0 1 .049.041Zm.101.027a.046.046 0 0 1-.045.045c-.026 0-.049-.023-.049-.045 0-.027.023-.045.05-.045.025 0 .044.018.044.045Zm-.206-.027a.048.048 0 0 1-.045.045.046.046 0 0 1-.045-.045c0-.022.019-.045.041-.045.026 0 .049.023.049.045Zm-.21 0a.05.05 0 0 1-.049.05.046.046 0 0 1-.045-.046c0-.026.019-.045.045-.045s.049.019.049.045v-.004Zm-.116.012c0 .022-.023.045-.05.045a.043.043 0 0 1-.044-.045c0-.027.019-.045.045-.045s.049.018.049.045Zm.213-.132a.038.038 0 0 1-.037.038.038.038 0 0 1-.042-.021.037.037 0 0 1-.003-.017c0-.022.019-.037.041-.037.023 0 .038.015.038.037h.003Zm-.003-.176a.038.038 0 0 1-.075 0c0-.022.015-.037.037-.037.023 0 .038.015.038.037Zm0 .094c0 .022-.015.037-.038.037a.035.035 0 0 1-.037-.037c0-.019.015-.038.037-.038.023 0 .038.015.038.038Zm-.33.244a.043.043 0 0 1-.045.045.046.046 0 0 1-.045-.045c0-.023.018-.042.045-.042.026 0 .045.02.045.042Z"/><path fill="#121116" fill-rule="evenodd" d="M11.962 2.031a.026.026 0 0 0-.007.02.026.026 0 0 0 .027.026.026.026 0 0 0 .026-.026.027.027 0 0 0-.007-.02.027.027 0 0 0-.02-.007.026.026 0 0 0-.019.007Zm-.015-.015a.049.049 0 0 1 .035-.014.05.05 0 0 1 .035.014.049.049 0 0 1 .013.035.05.05 0 0 1-.034.046.046.046 0 0 1 .02.012.049.049 0 0 1 .014.035.049.049 0 0 1-.013.036.042.042 0 0 1-.008.006.047.047 0 0 1 .02.032.011.011 0 0 1 .005.009.049.049 0 0 1-.048.049.049.049 0 0 1-.057-.05m.082.008a.011.011 0 0 1-.003-.007.027.027 0 0 0-.007-.02.027.027 0 0 0-.02-.006c-.017 0-.03.011-.03.026l.003.012a.026.026 0 0 0 .03.014h.001a.026.026 0 0 0 .026-.019Zm-.057-.049a.049.049 0 0 1-.02-.04.047.047 0 0 1 .034-.047.049.049 0 0 1-.035-.047c0-.014.005-.026.014-.035m.035.102a.026.026 0 0 0-.027.026c0 .01.003.016.007.02.005.004.01.007.02.007A.027.027 0 0 0 12 2.164a.027.027 0 0 0 .007-.02.027.027 0 0 0-.007-.019.027.027 0 0 0-.02-.007Zm.084.205a.036.036 0 0 0-.01.024c0 .017.015.034.034.034a.034.034 0 0 0 .023-.011.034.034 0 0 0 .011-.023.032.032 0 0 0-.01-.023.04.04 0 0 0-.027-.01.028.028 0 0 0-.021.01Zm-.017-.014a.05.05 0 0 1 .038-.018.061.061 0 0 1 .055.034c.01-.019.03-.03.05-.03a.06.06 0 0 1 .058.043.062.062 0 0 1 .047-.021c.032 0 .056.024.056.056a.057.057 0 0 1-.056.056.061.061 0 0 1-.06-.045.057.057 0 0 1-.042.02.062.062 0 0 1-.055-.033.064.064 0 0 1-.01.015.056.056 0 0 1-.04.017.057.057 0 0 1-.056-.056c0-.014.006-.028.015-.038Zm-.172.008a.032.032 0 0 0-.034.034c0 .017.014.033.034.033a.038.038 0 0 0 .037-.035c0-.018-.017-.032-.037-.032Zm.06.037a.061.061 0 0 1-.06.053.057.057 0 0 1-.057-.056c0-.033.024-.057.057-.057a.06.06 0 0 1 .06.05v.007a.01.01 0 0 1 0 .003Zm.255-.037a.034.034 0 0 0-.034.034c0 .014.016.03.037.03a.034.034 0 0 0 .034-.033.037.037 0 0 0-.037-.031Zm-.432.007a.032.032 0 0 0-.033.034c0 .02.013.034.033.034a.04.04 0 0 0 .027-.011.033.033 0 0 0 .01-.023c0-.019-.015-.034-.037-.034Zm-.056.034c0-.032.024-.056.056-.056s.06.023.06.056a.055.055 0 0 1-.018.04.061.061 0 0 1-.042.016.055.055 0 0 1-.056-.056Zm.593-.019c-.022 0-.038.015-.038.034 0 .008.004.016.011.023a.039.039 0 0 0 .027.011c.02 0 .033-.017.033-.034a.032.032 0 0 0-.033-.034Zm-.653.02c-.02 0-.034.014-.034.03 0 .019.017.033.034.033.02 0 .034-.014.034-.034 0-.015-.013-.03-.034-.03Zm-.056.03c0-.03.024-.053.056-.053s.056.023.056.052a.055.055 0 0 1-.056.056.057.057 0 0 1-.056-.056Z" clip-rule="evenodd"/><path fill="#916C68" d="M12.034 2.34c0 .027-.023.045-.053.045a.049.049 0 0 1-.048-.045.05.05 0 0 1 .048-.048.05.05 0 0 1 .05.048"/><path fill="#4D3126" fill-rule="evenodd" d="M11.943 2.34a.038.038 0 0 0 .038.034c.026 0 .041-.015.041-.034h-.004a.038.038 0 0 0-.037-.037.038.038 0 0 0-.038.037Zm-.022 0a.06.06 0 0 1 .06-.06.06.06 0 0 1 .06.06h.004c0 .034-.03.057-.064.057a.06.06 0 0 1-.06-.056Zm.06.057v-.012.012Z" clip-rule="evenodd"/><path fill="#EEE" d="M12.075 1.707a.094.094 0 0 1-.09.094.094.094 0 0 1-.094-.094.094.094 0 0 1 .16-.07.094.094 0 0 1 .027.066"/><path fill="#1E1E1E" fill-rule="evenodd" d="M11.985 1.631a.072.072 0 0 0-.067.046.071.071 0 0 0-.005.029.07.07 0 0 0 .044.066.07.07 0 0 0 .027.006.071.071 0 0 0 .068-.072h.045a.116.116 0 0 1-.112.117.116.116 0 0 1-.117-.116.118.118 0 0 1 .07-.111.116.116 0 0 1 .046-.01m.05.066a.071.071 0 0 0-.05-.02m0-.046a.116.116 0 0 1 .117.117h-.045a.071.071 0 0 0-.021-.05" clip-rule="evenodd"/><path fill="#A3AFB8" fill-rule="evenodd" d="M11.94 1.755s.074 0 .082-.038c.007-.026-.004-.067-.004-.067s.038.037.026.071c-.01.03-.022.038-.045.045a.082.082 0 0 1-.06-.011Z" clip-rule="evenodd"/><path fill="#FC0" fill-rule="evenodd" d="M10.5 4.878s.082.08.105.15c.022.068.056.255.056.255s.87-.243 1.298-.225c.427.023 1.414.237 1.414.237l.037-.214c.019-.113.101-.236.101-.236s-.941-.293-1.537-.263a4.349 4.349 0 0 0-1.024.131 9.7 9.7 0 0 0-.45.165Z" clip-rule="evenodd"/><path fill="currentColor" fill-rule="evenodd" d="m13.515 4.836-.003.009.003-.01.012.005-.007.01-.001.001-.003.004a.65.65 0 0 0-.04.07.58.58 0 0 0-.056.158l-.04.223-.009-.002.002-.01-.002.01-.011-.002-.032-.007a17.932 17.932 0 0 0-.503-.1 7.936 7.936 0 0 0-.866-.127c-.213-.01-.536.047-.807.105a9.66 9.66 0 0 0-.478.117l-.007.002h-.003l-.002-.008-.01.001v-.008a1.127 1.127 0 0 0-.019-.094 1.606 1.606 0 0 0-.036-.151.327.327 0 0 0-.06-.1.64.64 0 0 0-.03-.034l-.01-.01a.101.101 0 0 0-.002-.002l.006-.007-.004-.01c.149-.058.3-.113.45-.164h.001a4.36 4.36 0 0 1 1.026-.132c.3-.015.685.05.995.12a8.267 8.267 0 0 1 .535.14l.008.002h.002Zm-2.998.046c.144-.057.29-.11.436-.16a4.34 4.34 0 0 1 1.021-.13c.298-.015.68.05.99.12a8.232 8.232 0 0 1 .533.138l-.006.011a.595.595 0 0 0-.09.218l-.035.205h-.002l-.032-.008a20.316 20.316 0 0 0-.504-.1 7.95 7.95 0 0 0-.868-.127c-.215-.01-.54.047-.812.106a9.677 9.677 0 0 0-.479.117 1.289 1.289 0 0 0-.018-.092 1.642 1.642 0 0 0-.037-.154.344.344 0 0 0-.062-.105.65.65 0 0 0-.035-.039Zm.145.402-.01.001.003.01.01-.002-.003-.01Z" clip-rule="evenodd"/><path fill="#FC0" fill-rule="evenodd" d="M11.801 1.35h.375s-.093.064-.112.128c-.015.052-.011.138-.011.138s.1 0 .15-.037c.045-.038.091-.074.138-.109v.476s-.093-.086-.15-.116a.54.54 0 0 0-.13-.049s0 .075.03.124.16.218.16.218l-.536.018s.128-.13.18-.228c.034-.064.019-.132.019-.132s-.09 0-.135.034a.8.8 0 0 0-.128.124V1.48s.038.09.113.124c.075.034.142.015.142.015s.015-.09-.015-.15c-.03-.056-.097-.12-.09-.116V1.35Z" clip-rule="evenodd"/><path fill="currentColor" fill-rule="evenodd" d="M11.779 1.327h.47l-.06.041-.004.003-.01.007a.476.476 0 0 0-.033.028.2.2 0 0 0-.056.077.377.377 0 0 0-.01.084l-.001.025a.43.43 0 0 0 .031-.003.192.192 0 0 0 .083-.028c.045-.038.091-.074.14-.11l.035-.026v.572l-.038-.035-.004-.003a.837.837 0 0 0-.049-.043.655.655 0 0 0-.092-.066.518.518 0 0 0-.096-.04.248.248 0 0 0 .024.083 2.282 2.282 0 0 0 .14.188l.014.02.006.007.027.035-.636.022.039-.04.001-.001.004-.004.015-.016.05-.056a.945.945 0 0 0 .106-.146.177.177 0 0 0 .02-.098.374.374 0 0 0-.028.003.175.175 0 0 0-.075.026h-.001a.476.476 0 0 0-.078.07 1.322 1.322 0 0 0-.041.046l-.003.003-.04.048v-.52l.043-.008.002.003a.288.288 0 0 0 .024.042.194.194 0 0 0 .075.067.21.21 0 0 0 .113.017l.002-.034a.204.204 0 0 0-.017-.087.447.447 0 0 0-.056-.076l-.02-.022c0-.002-.002-.003-.004-.005l-.007-.008-.002-.002s-.002-.003-.002-.007a.023.023 0 0 1-.001-.012v-.02Zm.069.045.001.002c.02.023.046.055.062.085a.247.247 0 0 1 .022.108.402.402 0 0 1-.004.052v.004l-.023-.003.006.021-.004.001a.178.178 0 0 1-.044.005.225.225 0 0 1-.19-.087v.32a.519.519 0 0 1 .092-.083.218.218 0 0 1 .094-.034.423.423 0 0 1 .053-.005v.023l.023-.005v.004a.207.207 0 0 1 .004.043.222.222 0 0 1-.025.1.986.986 0 0 1-.146.194l.438-.016a2.308 2.308 0 0 1-.136-.185.242.242 0 0 1-.03-.088.335.335 0 0 1-.002-.029h-.001V1.78h.022l.005-.022c.048.01.094.028.137.05a.686.686 0 0 1 .117.087v-.381a2.916 2.916 0 0 0-.102.08v.001a.233.233 0 0 1-.104.037.471.471 0 0 1-.059.005h-.001v-.022h-.023v-.051a.44.44 0 0 1 .012-.094.242.242 0 0 1 .07-.098h-.264Zm.205.244h-.023l.001.022h.022v-.022Zm-.14.165.023-.005-.004-.018h-.018v.023Zm-.007-.161.006.021.014-.004.003-.014-.023-.003Zm-.234-.148Z" clip-rule="evenodd"/><path fill="#FC0" fill-rule="evenodd" d="M11.771 2.868s-.266-.003-.495-.138c-.229-.135-.461-.278-.799-.2-.067.02-.322.132-.435.496a.975.975 0 0 0 .09.701c.062.099.132.192.21.278l.14-.094s-.35-.3-.308-.683c.037-.386.232-.476.232-.476s.24-.187.559-.011a3 3 0 0 0 .949.326c.022-.004-.15-.202-.143-.199Z" clip-rule="evenodd"/><path fill="#121116" fill-rule="evenodd" d="m11.274 2.702.014.008a1.02 1.02 0 0 0 .44.133.85.85 0 0 0 .04.003h.002a.021.021 0 0 1 .011.002l-.01.02v.023a.022.022 0 0 0 .022-.026.02.02 0 0 0-.002-.008 1.712 1.712 0 0 0 .02.026l.008.01a5.252 5.252 0 0 1 .1.128l.015.027a.04.04 0 0 1 .004.016c0 .003 0 .01-.004.015a.025.025 0 0 1-.017.01h-.007a3.022 3.022 0 0 1-.956-.328.515.515 0 0 0-.495-.016.38.38 0 0 0-.039.025l-.002.001-.002.001-.002.001a.17.17 0 0 0-.025.017.36.36 0 0 0-.067.069.72.72 0 0 0-.126.372.716.716 0 0 0 .135.47 1.115 1.115 0 0 0 .161.19l.003.002.023.02-.18.121-.012-.014a1.94 1.94 0 0 1-.213-.281v-.001a.997.997 0 0 1-.092-.718c.115-.373.377-.49.45-.51l.001-.001c.34-.08.578.06.802.193Zm-.829 1.206a1.05 1.05 0 0 1-.152-.182.763.763 0 0 1-.142-.5.763.763 0 0 1 .135-.394.407.407 0 0 1 .1-.095l.008-.004.002-.001a.528.528 0 0 1 .165-.073.56.56 0 0 1 .415.062c.28.153.584.26.899.317a1.445 1.445 0 0 0-.045-.06l-.046-.056a.715.715 0 0 1-.008-.01l-.017-.022a.877.877 0 0 1-.154-.018 1.065 1.065 0 0 1-.34-.123l-.011-.007c-.226-.133-.449-.264-.771-.19-.063.018-.31.126-.419.48a.953.953 0 0 0 .088.684c.057.092.122.178.194.259l.1-.067Zm1.345-1.05c0-.001 0-.001 0 0Z" clip-rule="evenodd"/><path fill="#FC0" fill-rule="evenodd" d="m10.294 4.312-.143-.277.428-.165s-.105.135-.128.232c-.03.12-.018.221-.018.221s.037-.03.086-.108c.037-.057.097-.274.097-.274l.192.611s-.098-.097-.17-.109a.448.448 0 0 0-.172.012l-.112.037-.06-.18Z" clip-rule="evenodd"/><path fill="currentColor" fill-rule="evenodd" d="m10.597 3.884.05-.064-.527.204.153.298.067.2.133-.045h.003a.638.638 0 0 1 .052-.01.338.338 0 0 1 .107 0 .136.136 0 0 1 .05.019.435.435 0 0 1 .091.068.561.561 0 0 1 .012.011l.003.003.038-.022-.214-.684-.02.074v.002l-.003.007-.007.025a3.257 3.257 0 0 1-.056.17.359.359 0 0 1-.029.063.635.635 0 0 1-.047.067v-.01a.738.738 0 0 1 .02-.152.53.53 0 0 1 .07-.146 1.132 1.132 0 0 1 .05-.072c0-.002.002-.003.003-.004v-.001Zm-.164.44-.023.003v-.005l-.001-.014a.727.727 0 0 1 .02-.21.576.576 0 0 1 .088-.18l-.334.13.131.255-.02.01.021-.007.053.159.092-.031.007.021-.006-.021h.001l.004-.001a.482.482 0 0 1 .177-.01.201.201 0 0 1 .063.023c.02.012.04.025.057.038l-.146-.465a4.623 4.623 0 0 1-.046.138.403.403 0 0 1-.033.07.625.625 0 0 1-.083.108l-.006.005-.001.001h-.001l-.014-.017Zm0 0 .014.018-.032.025-.005-.04.023-.003Z" clip-rule="evenodd"/><path fill="#FC0" fill-rule="evenodd" d="M12.25 2.861s.267 0 .496-.139c.228-.135.457-.273.798-.195.068.015.323.128.435.492a.975.975 0 0 1-.093.7 4.36 4.36 0 0 1-.135.222l-.165-.06s.303-.274.262-.66c-.041-.386-.232-.476-.232-.476s-.24-.188-.56-.008c-.318.177-.63.255-.63.255s-.292.075-.318.068c-.026 0 .15-.203.143-.199Z" clip-rule="evenodd"/><path fill="#121116" fill-rule="evenodd" d="M12.758 2.741a1.016 1.016 0 0 1-.46.14.86.86 0 0 1-.034.002l-.018.021-.008.01a4.538 4.538 0 0 0-.093.12l.02-.004a3.028 3.028 0 0 0 .211-.048l.034-.009.01-.002h.002V2.97h.004l.01-.004a1.886 1.886 0 0 0 .18-.057c.117-.041.273-.104.43-.192a.557.557 0 0 1 .539-.019.425.425 0 0 1 .044.027l.008.005a.405.405 0 0 1 .099.094.784.784 0 0 1 .136.394c.02.2-.047.37-.12.49a.997.997 0 0 1-.124.164l.114.041c.044-.067.085-.135.125-.205a.952.952 0 0 0 .092-.684c-.11-.355-.358-.462-.418-.475-.329-.076-.549.054-.776.188a.47.47 0 0 1-.007.004Zm.814 1.123.003-.003.009-.009a.951.951 0 0 0 .13-.168.738.738 0 0 0 .113-.461.74.74 0 0 0-.128-.372.361.361 0 0 0-.09-.086h-.002l-.002-.001-.002-.002-.002-.001a.249.249 0 0 0-.038-.023.512.512 0 0 0-.494.019 2.975 2.975 0 0 1-.621.253l-.01.003h-.004l-.004.002-.01.002-.033.008a7.758 7.758 0 0 1-.213.05.7.7 0 0 1-.056.007h-.012a.025.025 0 0 1-.022-.023c0-.007.002-.014.003-.017a1.217 1.217 0 0 1 .116-.157l.008-.01a1.5 1.5 0 0 0 .021-.025l-.001.002-.001.005c0 .002-.002.01.004.017a.022.022 0 0 0 .018.009v-.022l-.01-.02.007-.003h.005a.452.452 0 0 0 .041-.002.97.97 0 0 0 .44-.133l.01-.007c.226-.133.46-.27.805-.191.075.017.337.134.452.506v.001a.998.998 0 0 1-.096.718c-.043.076-.088.15-.136.223l-.01.015-.216-.079.028-.025Zm-1.443-.804Z" clip-rule="evenodd"/><path fill="#FC0" d="M12.112 2.6h.113v1.038h-.113V2.599Zm-.375-.008h.132V3.63h-.132V2.59Z"/><path fill="#121116" fill-rule="evenodd" d="M11.715 2.591c0-.012.01-.022.022-.022h.132c.012 0 .022.01.022.022v1.04c0 .012-.01.022-.022.022h-.132a.023.023 0 0 1-.022-.023V2.591Zm.045.023v.994h.086v-.994h-.086Zm.33-.015c0-.013.01-.023.022-.023h.113c.012 0 .022.01.022.023v1.039c0 .012-.01.022-.022.022h-.113a.022.022 0 0 1-.022-.022v-1.04Zm.045.022v.994h.067v-.994h-.067Z" clip-rule="evenodd"/><path fill="#FC0" d="M12.345 2.351c0 .188-.162.338-.364.338-.199 0-.364-.15-.364-.338 0-.183.161-.333.36-.333.203 0 .368.15.368.333Z"/><path fill="#121116" fill-rule="evenodd" d="M11.977 2.04c-.188 0-.337.141-.337.31 0 .174.153.316.341.316.192 0 .341-.142.341-.315 0-.17-.153-.311-.345-.311Zm-.382.31c0-.197.173-.355.382-.355.213 0 .39.158.39.356 0 .201-.173.36-.386.36-.21 0-.386-.159-.386-.36Z" clip-rule="evenodd"/><path fill="#FC0" fill-rule="evenodd" d="m11.66 3.63.626-.007s-.075.045-.14.158c-.06.112-.052.18-.052.18s.094 0 .162-.05a.966.966 0 0 0 .142-.138v.574s-.049-.075-.124-.113c-.075-.048-.18-.048-.18-.048h-.213s-.098.007-.14.037a1.12 1.12 0 0 0-.138.12l-.011-.547s.03.097.131.135c.101.037.157.037.157.037s0-.127-.052-.187a1.233 1.233 0 0 0-.169-.15Z" clip-rule="evenodd"/><path fill="currentColor" fill-rule="evenodd" d="m12.231 3.642-.517.006c.045.036.088.076.128.119.03.034.044.086.05.126a.511.511 0 0 1 .007.068v.006h-.018v.019h-.001a.103.103 0 0 1-.011 0 .695.695 0 0 1-.152-.038.235.235 0 0 1-.105-.078l.01.428a.956.956 0 0 1 .109-.091.247.247 0 0 1 .092-.033.588.588 0 0 1 .055-.008h.001l.002.019-.002-.02h.215v.02-.02h.002l.004.001a.38.38 0 0 1 .06.006.34.34 0 0 1 .124.045c.04.02.072.05.094.074l.002.001v-.47a.997.997 0 0 1-.113.104.289.289 0 0 1-.114.046.379.379 0 0 1-.057.006h-.001V3.96l-.02.002v-.005a.477.477 0 0 1 .055-.187.536.536 0 0 1 .101-.128Zm-.136.318-.02.002.003.016h.017V3.96Zm.018-.02a.35.35 0 0 0 .033-.005.251.251 0 0 0 .098-.04.95.95 0 0 0 .14-.135l.033-.04v.69l-.034-.054-.002-.003-.007-.008a.305.305 0 0 0-.108-.095h-.002a.302.302 0 0 0-.11-.04.433.433 0 0 0-.059-.007h-.217a.41.41 0 0 0-.125.034 1.064 1.064 0 0 0-.136.118l-.032.032-.012-.592.037-.006.001.003a.184.184 0 0 0 .024.045.199.199 0 0 0 .095.075.659.659 0 0 0 .131.035.515.515 0 0 0-.005-.048.227.227 0 0 0-.042-.107 1.217 1.217 0 0 0-.166-.147l.011-.015v-.02l.696-.007-.06.035-.002.002a.264.264 0 0 0-.04.032.497.497 0 0 0-.09.117.437.437 0 0 0-.05.15Zm-.232.027v.019h.018v-.019h-.018Z" clip-rule="evenodd"/><path fill="#F6CA1F" fill-rule="evenodd" d="M12.008 4.08s.09.214.198.308c.06.056.248.097.33.075.188-.049.323-.199.323-.199s-.008.165.112.259c.117.09.21.112.308.086.101-.026.375-.232.375-.232l.06.048s-.161.158-.326.237c-.087.045-.35.018-.432-.05-.086-.067-.135-.228-.135-.228s-.052.105-.165.143a.693.693 0 0 1-.408-.008.596.596 0 0 1-.244-.206c-.023-.042-.015-.068-.015-.068s-.075.203-.218.259a.701.701 0 0 1-.43.015c-.136-.038-.147-.116-.147-.116s-.008.214-.3.274c-.3.06-.533-.154-.533-.154l.042-.064s.165.188.42.173c.255-.02.337-.345.337-.345s.113.168.413.172c.296.004.382-.386.382-.386l.053.007Z" clip-rule="evenodd"/><path fill="currentColor" fill-rule="evenodd" d="m11.942 4.053.068.01-.002.017.016-.007v.002l.004.007a1.098 1.098 0 0 0 .053.108c.036.065.085.14.137.184a.208.208 0 0 0 .06.036.542.542 0 0 0 .254.036.654.654 0 0 0 .292-.17.568.568 0 0 0 .021-.022l.001-.002m0 0 .032-.035-.002.047v.026a.374.374 0 0 0 .01.065c.014.05.04.111.096.155.114.088.202.108.293.083a.458.458 0 0 0 .097-.046 2.097 2.097 0 0 0 .228-.151l.032-.024.009-.006.002-.002h.001l.01-.009.086.07-.014.013-.012-.012.012.012-.002.002-.005.005-.021.019a1.222 1.222 0 0 1-.302.213.266.266 0 0 1-.099.023.724.724 0 0 1-.255-.028.285.285 0 0 1-.096-.046.413.413 0 0 1-.104-.145.78.78 0 0 1-.025-.058.307.307 0 0 1-.155.12.71.71 0 0 1-.419-.007.477.477 0 0 1-.155-.102.77.77 0 0 1-.062-.063.279.279 0 0 1-.045-.067.667.667 0 0 1-.033.059.386.386 0 0 1-.17.157.718.718 0 0 1-.442.016.25.25 0 0 1-.135-.081.296.296 0 0 1-.033.072c-.04.064-.12.136-.27.166a.617.617 0 0 1-.39-.055.765.765 0 0 1-.157-.102l.01-.013-.01.013-.011-.01.06-.094.016.016.001.002a.506.506 0 0 0 .405.165c.12-.009.2-.09.251-.172a.638.638 0 0 0 .07-.16h.001m.024.039a.676.676 0 0 1-.066.14c-.054.085-.143.177-.278.187a.54.54 0 0 1-.316-.083.628.628 0 0 1-.102-.08l-.022.034a.625.625 0 0 0 .139.087.584.584 0 0 0 .368.053c.142-.029.213-.095.249-.151a.26.26 0 0 0 .037-.105v-.001l.034-.002V4.4l.003.008a.104.104 0 0 0 .016.027c.017.02.05.048.115.066.138.04.286.035.42-.014a.353.353 0 0 0 .155-.144.656.656 0 0 0 .053-.103v-.002l.032.01v.012c0 .01.004.025.014.043.005.01.016.025.032.044a.678.678 0 0 0 .202.154c.143.044.29.044.398.008a.273.273 0 0 0 .118-.08.314.314 0 0 0 .037-.053v-.001l.02-.038m.012.04v.002l.002.005a1.708 1.708 0 0 0 .032.08.38.38 0 0 0 .095.134.253.253 0 0 0 .085.04.69.69 0 0 0 .243.026.234.234 0 0 0 .085-.02 1.188 1.188 0 0 0 .295-.207.74.74 0 0 0 .014-.012l-.035-.029-.002.001a3.003 3.003 0 0 1-.263.178.486.486 0 0 1-.105.049c-.104.028-.204.003-.323-.09a.312.312 0 0 1-.107-.173.409.409 0 0 1-.01-.06.687.687 0 0 1-.303.176.423.423 0 0 1-.181-.007.577.577 0 0 1-.095-.03.24.24 0 0 1-.07-.041.742.742 0 0 1-.143-.194 1.48 1.48 0 0 1-.043-.084l-.012-.026v-.001l-.029-.004v.002a.709.709 0 0 1-.078.182c-.06.1-.16.202-.317.2a.604.604 0 0 1-.328-.09.42.42 0 0 1-.074-.061l-.003-.003m.774-.268-.003.015.003-.015Zm-.003.015v.004l-.004.012a.7.7 0 0 1-.074.174c-.057.095-.148.185-.288.184a.571.571 0 0 1-.31-.085.39.39 0 0 1-.084-.074l-.004-.005v-.001l-.022-.032-.009.037" clip-rule="evenodd"/><path fill="#FC0" fill-rule="evenodd" d="M11.272 4.203s0-.101.026-.135a.09.09 0 0 1 .098-.037c.026.007.052.03.048.105-.003.07-.026.105 0 .135.02.026.023.045.064.037.038-.007.06-.019.049-.056-.011-.038-.019 0-.026-.03-.008-.034.037-.173.03-.259-.008-.082-.038-.15-.105-.169-.06-.015-.113-.015-.17.027-.052.037-.123.168-.123.168v.282l.113-.008v-.06h-.004Z" clip-rule="evenodd"/><path fill="currentColor" fill-rule="evenodd" d="M11.367 3.766a.257.257 0 0 1 .094.008c.08.023.112.103.12.187a.623.623 0 0 1-.019.175l-.008.047a.294.294 0 0 0-.003.023v.008c.004 0 .009.003.012.007.007.006.01.015.014.025a.072.072 0 0 1 .003.033.048.048 0 0 1-.015.027.107.107 0 0 1-.053.022c-.024.005-.042.002-.057-.01a.082.082 0 0 1-.015-.018l-.005-.007-.007-.01c-.018-.021-.018-.044-.015-.067 0-.008.002-.016.004-.024a.439.439 0 0 0 .007-.057.125.125 0 0 0-.01-.067.037.037 0 0 0-.024-.017c-.016-.006-.051-.004-.075.03a.08.08 0 0 0-.012.028.303.303 0 0 0-.01.074h.003v.1l-.153.01v-.309l.002-.004.018.01-.018-.01.001-.002.002-.004a1.22 1.22 0 0 1 .081-.124.244.244 0 0 1 .046-.046.192.192 0 0 1 .092-.038Zm-.183.229v.254l.071-.005v-.02h-.004v-.02h.018-.018v-.019a.568.568 0 0 1 .012-.088.118.118 0 0 1 .019-.042.111.111 0 0 1 .12-.045.078.078 0 0 1 .047.036.16.16 0 0 1 .016.09c-.001.026-.005.048-.008.066a.421.421 0 0 0-.003.018c-.003.02-.001.028.006.036l.001.002a.376.376 0 0 1 .02.027c.002.002.006.005.023.002.02-.004.029-.008.033-.012a.007.007 0 0 0 .002-.004l-.002-.014v-.003a.025.025 0 0 1-.012-.004.03.03 0 0 1-.01-.012.065.065 0 0 1-.004-.012.081.081 0 0 1-.001-.024.28.28 0 0 1 .003-.027l.009-.048a1.006 1.006 0 0 0 .018-.163c-.007-.08-.035-.135-.09-.15a.216.216 0 0 0-.078-.008.152.152 0 0 0-.073.03.212.212 0 0 0-.037.039.705.705 0 0 0-.069.103l-.009.015Zm.363.26Z" clip-rule="evenodd"/><path fill="#FC0" fill-rule="evenodd" d="M11.062 4.279s-.045-.094-.075-.113a.094.094 0 0 0-.105 0c-.022.02-.037.053-.003.117.03.063.063.09.052.123-.007.034 0 .053-.041.064-.041.011-.064.004-.071-.037-.008-.038.022 0 .015-.038-.004-.03-.105-.139-.132-.221-.026-.079-.022-.154.03-.195.05-.038.094-.06.162-.045.067.015.183.109.183.109l.113.255-.105.037-.023-.056Z" clip-rule="evenodd"/><path fill="currentColor" fill-rule="evenodd" d="M10.745 3.995c-.041.033-.048.096-.023.172a.526.526 0 0 0 .071.125l.013.018a1.298 1.298 0 0 1 .04.06.073.073 0 0 1 .01.036.031.031 0 0 1-.006.017.025.025 0 0 1-.01.009c.003.015.008.019.01.02.005.002.015.003.035-.002a.049.049 0 0 0 .015-.007.01.01 0 0 0 .004-.004.058.058 0 0 0 .004-.017l.003-.02v-.003c.003-.007.002-.015-.008-.033l-.01-.016a.556.556 0 0 1-.033-.058.148.148 0 0 1-.02-.087.083.083 0 0 1 .03-.055l.001-.001a.114.114 0 0 1 .128 0c.01.007.02.019.03.03a.463.463 0 0 1 .044.075l.006.011a.04.04 0 0 1 .002.003v.001l-.018.01.019-.008.015.038.065-.024-.101-.23h-.001l-.014-.011a1.117 1.117 0 0 0-.047-.033.394.394 0 0 0-.11-.057.14.14 0 0 0-.076.002.23.23 0 0 0-.068.039Zm.333.047.013-.016.003.003.124.28-.145.052-.03-.074-.001-.003a.37.37 0 0 0-.024-.044.406.406 0 0 0-.023-.036.089.089 0 0 0-.018-.02h-.001a.073.073 0 0 0-.081-.001.041.041 0 0 0-.015.027c-.002.013.001.033.017.063a.482.482 0 0 0 .041.072c.011.02.021.041.013.066a.269.269 0 0 0-.003.017v.004a.094.094 0 0 1-.006.022.052.052 0 0 1-.017.022.088.088 0 0 1-.03.014.094.094 0 0 1-.062 0c-.02-.01-.03-.03-.034-.054a.07.07 0 0 1-.002-.015.03.03 0 0 1 .005-.017.025.025 0 0 1 .01-.009.226.226 0 0 0-.014-.025l-.025-.036-.013-.018a.563.563 0 0 1-.077-.136c-.027-.081-.026-.168.037-.218a.27.27 0 0 1 .08-.045.181.181 0 0 1 .098-.004.427.427 0 0 1 .125.063 1.123 1.123 0 0 1 .062.046l.004.003h.001v.001l-.012.016Zm-.264.363Zm.024.017Z" clip-rule="evenodd"/><path fill="#FC0" fill-rule="evenodd" d="M11.04 3.453s-.113.188-.087.33c.027.143.173.45.173.45v.038l.082-.008-.018-.041s.037-.368.015-.484a1.241 1.241 0 0 0-.165-.285Zm.176.851s.056.064.12.098c.075.034.105.037.131.011.023-.015.015-.082-.011-.101-.023-.019-.053-.008-.056.011-.008.03-.015.03-.038.015a.97.97 0 0 1-.112-.064l-.034.03Zm-.086.015s-.023.083-.068.14c-.052.06-.079.074-.112.063-.027-.004-.05-.068-.034-.098.015-.026.045-.03.056-.015.019.027.026.023.041 0l.075-.1.042.007v.003Z" clip-rule="evenodd"/><path fill="currentColor" fill-rule="evenodd" d="M11.056 3.44c.069.09.125.187.168.29v.003l.001.002a.737.737 0 0 1 .008.128 3.109 3.109 0 0 1-.017.302 4.934 4.934 0 0 1-.004.043l-.001.01.02.046.017-.015.013.009.003.002.01.005.029.018c.023.014.05.03.067.036l.002.001.002.001a.075.075 0 0 0 .004.003l.002-.005a.048.048 0 0 1 .036-.035.06.06 0 0 1 .053.012.08.08 0 0 1 .022.03.13.13 0 0 1 .008.073.052.052 0 0 1-.018.03.077.077 0 0 1-.028.018.08.08 0 0 1-.035.004.309.309 0 0 1-.09-.03h-.001a.447.447 0 0 1-.116-.091l-.008-.008-.002-.003.015-.014-.014-.016.006-.005-.092.009.034.006v.026l-.02-.005.02.005v.001l-.002.003a.396.396 0 0 1-.07.142v.001a.293.293 0 0 1-.069.063.076.076 0 0 1-.064.007.052.052 0 0 1-.03-.02.131.131 0 0 1-.024-.07c0-.011 0-.025.007-.036v-.001a.066.066 0 0 1 .043-.033.047.047 0 0 1 .048.015.117.117 0 0 0 .004.006.131.131 0 0 0 .003-.005l.084-.112.025.005v-.053a.342.342 0 0 0-.004-.01l-.017-.036a5.013 5.013 0 0 1-.053-.122 1.646 1.646 0 0 1-.098-.283.45.45 0 0 1 .035-.23.842.842 0 0 1 .049-.105l.004-.007v-.001h.001v-.001l.018.01.016-.012Zm-.013.051c.057.079.105.164.142.253.005.027.007.07.006.119a3.049 3.049 0 0 1-.016.298l-.004.043-.001.012v.004l-.001.006.009.02-.031.002v-.02l-.002-.003v-.001l-.002-.003a.58.58 0 0 1-.005-.01 4.512 4.512 0 0 1-.07-.157 1.61 1.61 0 0 1-.094-.274.41.41 0 0 1 .032-.208.813.813 0 0 1 .037-.08Zm.061.841h-.006l-.068.09a.104.104 0 0 1-.012.016.035.035 0 0 1-.022.01.034.034 0 0 1-.025-.008.1.1 0 0 1-.015-.018h-.006a.025.025 0 0 0-.016.012.04.04 0 0 0-.002.017.09.09 0 0 0 .015.046l.006.005h.003c.012.005.02.004.033-.003a.26.26 0 0 0 .057-.054.352.352 0 0 0 .058-.113Zm.142-.026a.581.581 0 0 0 .1.078c.036.016.06.024.076.026.008 0 .013 0 .017-.002a.037.037 0 0 0 .014-.009l.001-.001.002-.002.003-.007a.086.086 0 0 0-.005-.047.033.033 0 0 0-.01-.013h-.001a.019.019 0 0 0-.017-.005c-.005.001-.006.003-.006.004a.094.094 0 0 1-.008.022.034.034 0 0 1-.019.017.035.035 0 0 1-.024-.001.634.634 0 0 1-.117-.065l-.006.005Z" clip-rule="evenodd"/><path fill="#FC0" d="M11.34 4.252c.008.023-.067.057-.161.072-.094.015-.172.011-.18-.015 0-.023.071-.057.165-.075.094-.015.172-.008.176.018Z"/><path fill="currentColor" fill-rule="evenodd" d="M11.168 4.254a.532.532 0 0 0-.113.034.152.152 0 0 0-.03.017.13.13 0 0 0 .033.006.541.541 0 0 0 .26-.056h-.002a.113.113 0 0 0-.032-.007.472.472 0 0 0-.116.006Zm.152.002v-.001l.02-.003-.02.007v-.002h.001Zm.04-.009c-.003-.016-.016-.025-.027-.03a.152.152 0 0 0-.045-.01.512.512 0 0 0-.25.044.187.187 0 0 0-.04.023.068.068 0 0 0-.013.014.036.036 0 0 0-.006.02v.006c.005.016.019.025.03.03a.163.163 0 0 0 .046.008.58.58 0 0 0 .251-.043.158.158 0 0 0 .04-.023c.007-.007.02-.02.014-.039Zm-.04.005h.001Zm-.3.06Z" clip-rule="evenodd"/><path fill="#FC0" fill-rule="evenodd" d="M12.96 4.245s.037-.094.075-.116c.04-.03.082-.02.1 0 .023.01.038.045.012.112-.03.064-.06.09-.052.124.01.037.007.052.048.06.042.011.064.004.068-.038.004-.037-.019 0-.015-.037 0-.03.097-.146.12-.225.022-.086.015-.158-.038-.199a.182.182 0 0 0-.168-.034.729.729 0 0 0-.177.117l-.097.262.109.034.015-.06Z" clip-rule="evenodd"/><path fill="currentColor" fill-rule="evenodd" d="M13.204 3.869c.03.007.058.021.086.04v.001c.063.05.069.132.046.22v.001a.6.6 0 0 1-.072.136l-.007.012-.028.045a.21.21 0 0 0-.013.027.025.025 0 0 1 .01.01.02.02 0 0 1 .005.014v.015c-.002.023-.01.045-.03.055-.02.009-.042.006-.063 0-.022-.004-.038-.011-.048-.028a.47.47 0 0 1-.011-.03l-.005-.016V4.37c-.005-.025.004-.046.014-.065l.012-.02a.607.607 0 0 0 .028-.051.127.127 0 0 0 .011-.066c-.002-.012-.008-.018-.013-.02l-.003-.002-.002-.002c-.012-.012-.042-.022-.075.002h-.001a.085.085 0 0 0-.022.023.313.313 0 0 0-.038.07l-.005.01-.001.003-.02.08-.15-.047.107-.288.003-.003.014.015-.014-.015.002-.002.004-.003.013-.011.047-.036a.453.453 0 0 1 .118-.069.202.202 0 0 1 .1-.004Zm-.254.152-.088.237.068.021.01-.04v-.001l.02.007-.02-.007v-.001l.002-.004.005-.011a.57.57 0 0 1 .043-.077.127.127 0 0 1 .033-.033c.048-.034.098-.024.125 0a.07.07 0 0 1 .032.049.167.167 0 0 1-.014.088v.001a.673.673 0 0 1-.032.058l-.01.017c-.01.017-.011.027-.01.035a.59.59 0 0 1 .011.036c.001.002.004.006.022.01h.001c.02.005.03.004.034.002.001-.001.006-.004.008-.02a.025.025 0 0 1-.01-.01.033.033 0 0 1-.005-.015.074.074 0 0 1 .006-.036 1.237 1.237 0 0 1 .041-.07l.008-.012a.564.564 0 0 0 .066-.125c.021-.084.012-.143-.03-.177a.197.197 0 0 0-.071-.034.16.16 0 0 0-.08.004.42.42 0 0 0-.106.062 1.249 1.249 0 0 0-.044.035l-.014.01v.001Zm.254.369Zm-.002-.041Z" clip-rule="evenodd"/><path fill="#FC0" fill-rule="evenodd" d="M12.739 4.241s-.008-.101-.034-.131a.1.1 0 0 0-.098-.038c-.026.012-.052.038-.045.11.008.074.03.104.012.134-.023.03-.023.045-.064.041-.041 0-.064-.015-.056-.052.007-.038.022 0 .03-.034.003-.03-.05-.169-.045-.255 0-.082.03-.15.093-.172.06-.02.113-.023.17.018a.772.772 0 0 1 .134.162l.015.277h-.112v-.06Z" clip-rule="evenodd"/><path fill="currentColor" fill-rule="evenodd" d="M12.54 3.864c-.052.019-.08.074-.08.153v.001a.562.562 0 0 0 .021.143l.007.028.01.038a.326.326 0 0 1 .006.048v.002c-.002.009-.006.02-.015.026a.03.03 0 0 1-.015.005v.002c-.003.014 0 .019.003.02.004.004.014.008.033.008h.001c.02.002.023-.001.024-.003a.261.261 0 0 1 .021-.03c.005-.007.006-.015.002-.034a.453.453 0 0 0-.003-.015.43.43 0 0 1-.013-.072.153.153 0 0 1 .012-.088.09.09 0 0 1 .045-.042h.005a.12.12 0 0 1 .137.084.351.351 0 0 1 .017.086.27.27 0 0 1 .001.015v.001l-.02.002h.02v.04h.07l-.013-.25V4.03a.751.751 0 0 0-.043-.06.43.43 0 0 0-.083-.09.134.134 0 0 0-.073-.028.214.214 0 0 0-.078.012Zm.296.16.018-.01.003.004.016.305h-.155V4.24l-.001-.012a.592.592 0 0 0-.015-.078.08.08 0 0 0-.012-.026.08.08 0 0 0-.077-.03.048.048 0 0 0-.022.02.114.114 0 0 0-.008.066.577.577 0 0 0 .011.065.493.493 0 0 1 .004.017c.005.022.007.044-.007.066v.002a.053.053 0 0 0-.01.014l-.004.004a.088.088 0 0 1-.014.018c-.014.012-.031.015-.054.013a.09.09 0 0 1-.059-.017c-.017-.015-.021-.037-.016-.06a.048.048 0 0 1 .013-.028.029.029 0 0 1 .016-.007v-.008a.386.386 0 0 0-.005-.023l-.01-.036-.007-.03a.596.596 0 0 1-.023-.153c0-.086.032-.165.108-.192a.255.255 0 0 1 .094-.014.175.175 0 0 1 .093.036.467.467 0 0 1 .093.099 1.255 1.255 0 0 1 .047.066v.001l-.017.012Z" clip-rule="evenodd"/><path fill="#FC0" fill-rule="evenodd" d="M13.005 3.461s-.17.135-.195.278c-.027.142.003.48.003.48l-.01.037.074.023v-.045s.165-.33.184-.45a1.198 1.198 0 0 0-.056-.323Zm-.132.86s.03.078.08.13c.055.06.082.072.115.06.027-.007.042-.075.027-.097-.015-.026-.045-.026-.057-.011-.018.026-.026.018-.04 0a2.939 2.939 0 0 1-.083-.098l-.042.015Zm-.086-.02s-.049.072-.112.105c-.072.042-.102.045-.132.023-.022-.011-.018-.079.004-.101.026-.02.053-.012.06.007.008.03.019.026.038.015l.105-.075.037.026Z" clip-rule="evenodd"/><path fill="currentColor" fill-rule="evenodd" d="m13.015 3.427.01.028c.033.107.053.217.057.328v.004a.693.693 0 0 1-.038.125 2.944 2.944 0 0 1-.122.278c-.008.016-.014.03-.02.039l-.004.01v.05l.024-.008.009.011c.026.033.054.066.082.097l.005.007a.092.092 0 0 0 .004-.005c.022-.03.07-.023.09.012a.07.07 0 0 1 .01.034.133.133 0 0 1-.019.07.053.053 0 0 1-.028.024.08.08 0 0 1-.065-.004.284.284 0 0 1-.073-.061.418.418 0 0 1-.077-.124l-.004-.01-.001-.003v-.001l.018-.008-.006-.02.005-.001-.092-.027.02.013-.013.017.017.011v.001l-.002.003a.58.58 0 0 1-.032.038.336.336 0 0 1-.085.07.278.278 0 0 1-.088.037.081.081 0 0 1-.065-.015.049.049 0 0 1-.02-.03.112.112 0 0 1-.004-.035c0-.012.003-.025.007-.037a.08.08 0 0 1 .018-.032v-.001l.002-.001a.07.07 0 0 1 .053-.014.05.05 0 0 1 .039.03v.003l.002.006.005-.003.116-.083.027.02.016-.053-.001-.011a3.147 3.147 0 0 1-.01-.173 1.591 1.591 0 0 1 .008-.298.454.454 0 0 1 .112-.202.852.852 0 0 1 .082-.081l.006-.005.001-.001.014.016-.013-.017.023-.018Zm-.02.07-.003.003a.808.808 0 0 0-.06.06.415.415 0 0 0-.102.183 1.556 1.556 0 0 0-.008.289 4.877 4.877 0 0 0 .012.182v.007l-.006.022.029.008V4.23l.002-.004v-.001l.002-.003.005-.01a10.023 10.023 0 0 0 .077-.165c.022-.049.044-.101.062-.148a.69.69 0 0 0 .035-.115 1.18 1.18 0 0 0-.046-.285Zm-.371.841Zm.134-.032-.008-.005-.094.067a.107.107 0 0 1-.017.008.038.038 0 0 1-.022.002.034.034 0 0 1-.02-.015.071.071 0 0 1-.01-.02c0-.003-.002-.004-.006-.005-.004 0-.011 0-.02.006a.043.043 0 0 0-.007.014.096.096 0 0 0-.003.048l.002.005h.001l.002.002a.04.04 0 0 0 .034.008.243.243 0 0 0 .075-.032.293.293 0 0 0 .093-.083Zm.143.026a.374.374 0 0 0 .066.105c.028.03.047.046.061.053a.04.04 0 0 0 .034.002s.003-.001.006-.007a.096.096 0 0 0 .012-.047.029.029 0 0 0-.002-.012v-.001h-.001c-.005-.008-.01-.011-.014-.012-.005 0-.008.002-.008.002a.08.08 0 0 1-.016.018.033.033 0 0 1-.026.007.038.038 0 0 1-.02-.01l-.011-.014a2.948 2.948 0 0 1-.074-.086l-.007.002Z" clip-rule="evenodd"/><path fill="#FC0" d="M13.008 4.313c-.003.026-.086.03-.18.011-.093-.019-.165-.052-.16-.075.003-.026.085-.03.18-.011.093.019.164.052.16.075Z"/><path fill="currentColor" fill-rule="evenodd" d="M12.686 4.255Zm.006-.003a.122.122 0 0 1 .033-.005.496.496 0 0 1 .118.01c.046.01.085.022.113.035a.133.133 0 0 1 .028.017.12.12 0 0 1-.033.005.495.495 0 0 1-.118-.01.517.517 0 0 1-.113-.035.135.135 0 0 1-.028-.017Zm.297.062Zm0-.008Zm-.302-.058Zm.035-.042a.536.536 0 0 1 .13.011c.047.01.09.023.121.038a.17.17 0 0 1 .039.023c.008.007.02.02.017.038-.003.018-.018.027-.03.031a.156.156 0 0 1-.046.009.535.535 0 0 1-.128-.012.556.556 0 0 1-.122-.038.167.167 0 0 1-.039-.023c-.008-.007-.02-.02-.017-.037.003-.018.018-.028.03-.032a.156.156 0 0 1 .045-.008Z" clip-rule="evenodd"/><path fill="#CCA715" fill-rule="evenodd" d="M10.463 4.87s.022.076.063.038c.045-.041.65-.281 1.5-.281.852 0 1.407.236 1.44.251.034.011.05.03.075 0 .03-.037-.026-.086-.026-.086s-.592-.251-1.515-.248c-.926.004-1.522.267-1.522.267s-.038.03-.012.06h-.003Z" clip-rule="evenodd"/><path fill="currentColor" fill-rule="evenodd" d="m13.518 4.783-.003.01.006-.008.002.002a.18.18 0 0 1 .024.03c.01.017.02.044.001.067a.059.059 0 0 1-.022.017.037.037 0 0 1-.022.002.101.101 0 0 1-.021-.008.225.225 0 0 0-.02-.008c-.034-.015-.587-.25-1.437-.25-.425 0-.788.06-1.05.124a2.968 2.968 0 0 0-.404.132.39.39 0 0 0-.04.022c-.012.011-.024.015-.035.012a.046.046 0 0 1-.026-.018.11.11 0 0 1-.013-.023l-.004-.009v-.003l.002-.001h-.003l-.003-.011a.04.04 0 0 1-.003-.013c0-.01.003-.017.007-.024a.075.075 0 0 1 .015-.02l.002-.001.006.007-.004-.009h.002l.005-.003.021-.008a3.475 3.475 0 0 1 .388-.12 4.692 4.692 0 0 1 1.11-.136c.463-.002.842.06 1.106.123a3.492 3.492 0 0 1 .412.125h.001Zm-3.04.028-.005-.009-.002.002.006.007Zm.004.008a.223.223 0 0 1 .026-.01 3.467 3.467 0 0 1 .385-.12A4.674 4.674 0 0 1 12 4.553c.46-.002.838.06 1.101.122a3.469 3.469 0 0 1 .408.124l.002.001a.136.136 0 0 1 .02.025c.01.016.014.032.003.046a.042.042 0 0 1-.015.012.018.018 0 0 1-.01 0 .089.089 0 0 1-.017-.005l-.002-.001a.24.24 0 0 0-.02-.008c-.039-.017-.594-.252-1.444-.252-.426 0-.791.06-1.055.125a2.982 2.982 0 0 0-.406.133.394.394 0 0 0-.045.025l.006.007-.006-.007c-.01.008-.015.01-.02.008-.004 0-.01-.005-.014-.011a.09.09 0 0 1-.01-.018h.01l-.013-.015a.025.025 0 0 1-.007-.016.03.03 0 0 1 .004-.015.054.054 0 0 1 .009-.012l.003-.003Zm3.033-.027.006-.007-.001-.001h-.002l-.003.008Zm-1.968.432s.026-.075.075-.09c.037-.011.093.026.093.026s-.07-.007-.093.008c-.02.01-.027.045-.027.045s.015-.03.072-.027h.06s-.094.012-.113.038c-.022.026.086.037.086.037s-.168 0-.187-.007c-.023-.011-.038-.045-.075-.038a.304.304 0 0 0-.075.05s.041-.076.067-.076c.027 0 .045 0 .068.011l.049.023Zm-.63.135s.01-.075.056-.101c.037-.02.101.007.101.007s-.075.008-.094.023c-.015.015-.015.052-.015.052s.012-.03.064-.037l.06-.012s-.09.027-.105.057c-.019.03.094.022.094.022s-.165.03-.188.026c-.026-.007-.045-.037-.078-.018-.038.015-.068.056-.068.056s.03-.079.056-.086c.027-.004.038-.008.068 0l.049.01Zm1.158-.161s.03-.075.075-.087c.042-.01.102.03.102.03s-.075-.01-.098 0c-.019.012-.026.045-.026.045s.015-.026.071-.018l.06.003s-.094 0-.116.03c-.023.023.086.042.086.042s-.169-.008-.187-.02c-.023-.01-.038-.044-.075-.037-.038.008-.075.038-.075.038s.045-.068.07-.068c.027 0 .042 0 .068.015l.045.027Zm.53.06s.037-.072.09-.075c.037-.008.09.037.09.037s-.068-.015-.095-.007c-.022.007-.033.037-.033.037s.018-.022.075-.011l.06.015s-.094-.008-.12.015c-.027.022.078.052.078.052s-.165-.03-.187-.04c-.015-.016-.026-.053-.064-.05-.037.004-.082.03-.082.03s.056-.06.082-.056a.1.1 0 0 1 .064.019l.041.034Zm.524.093s.038-.052.079-.056c.034 0 .071.041.071.041s-.056-.018-.075-.015c-.019.004-.03.03-.03.03s.019-.018.06-.003l.049.015s-.075-.015-.098 0c-.022.018.06.052.06.052s-.13-.037-.15-.049c-.01-.01-.015-.04-.045-.04-.033 0-.07.018-.07.018s.048-.049.07-.041c.02 0 .034.007.05.018l.033.03h-.004Z" clip-rule="evenodd"/><path fill="#0F6545" d="M11.438 4.864c.015.064-.06.131-.165.15-.105.023-.2-.011-.21-.075-.012-.06.06-.127.165-.15.105-.022.198.011.21.075Z"/><path fill="currentColor" fill-rule="evenodd" d="M11.364 4.806a.249.249 0 0 0-.133-.005.26.26 0 0 0-.12.058c-.028.026-.04.053-.035.077.005.026.026.047.061.06a.249.249 0 0 0 .133.005.247.247 0 0 0 .122-.055c.028-.026.04-.054.033-.08-.004-.026-.026-.047-.061-.06Zm.087.055c-.007-.038-.038-.065-.078-.08a.275.275 0 0 0-.148-.005.285.285 0 0 0-.132.064c-.031.029-.05.065-.043.101.007.038.038.065.079.08.04.014.092.017.147.006a.272.272 0 0 0 .133-.062c.032-.029.05-.066.042-.104Z" clip-rule="evenodd"/><path fill="#CECFC1" d="M11.205 4.852c0 .015-.015.034-.037.038-.023.004-.045-.004-.049-.019 0-.015.015-.03.038-.038.022 0 .045.004.048.02Z"/><path fill="#0F6545" d="M12.904 4.942c-.019.06-.113.083-.218.053-.1-.034-.165-.109-.15-.169.023-.06.12-.086.222-.052.1.03.168.105.15.165l-.004.003Z"/><path fill="currentColor" fill-rule="evenodd" d="M12.548 4.83c-.005.025.004.054.03.082a.271.271 0 0 0 .247.078c.035-.009.058-.027.066-.051 0-.002.002-.004.003-.005l.001-.002c.006-.023-.003-.05-.028-.078a.251.251 0 0 0-.114-.067.244.244 0 0 0-.133-.01c-.037.01-.062.03-.072.054Zm.213-.068a.27.27 0 0 0-.147-.01c-.043.01-.077.034-.09.07v.001c-.01.036.005.074.033.106a.297.297 0 0 0 .273.086c.04-.01.073-.03.085-.065l.001-.002a.013.013 0 0 0 .004-.005c.01-.036-.004-.075-.033-.106a.278.278 0 0 0-.126-.075Z" clip-rule="evenodd"/><path fill="#CECFC1" d="M12.705 4.818c-.007.015-.026.023-.049.015-.022-.007-.037-.026-.033-.037.003-.019.026-.023.048-.019.023.008.038.026.034.038v.003Z"/><path fill="#1F2D86" d="M11.798 4.725h.379v.188h-.38v-.188Z"/><path fill="currentColor" fill-rule="evenodd" d="M11.78 4.725c0-.01.008-.019.018-.019h.379c.01 0 .018.008.018.019v.187c0 .01-.008.02-.018.02h-.379a.019.019 0 0 1-.019-.02v-.187Zm.037.019v.15h.341v-.15h-.341Z" clip-rule="evenodd"/><path fill="#707C8B" d="M11.959 4.763c0 .011-.015.019-.038.019-.022 0-.037-.008-.037-.019 0-.007.018-.015.037-.015s.038.008.038.015Z"/><path fill="#9F1209" fill-rule="evenodd" d="m10.726 4.912.06.188-.113.064s-.056.037-.113.007c-.052-.026-.082-.112-.052-.15a.48.48 0 0 1 .214-.109h.004Z" clip-rule="evenodd"/><path fill="currentColor" fill-rule="evenodd" d="M10.515 5.027c-.012.015-.013.042-.003.07a.12.12 0 0 0 .052.066.1.1 0 0 0 .071.007.128.128 0 0 0 .03-.013h.002v-.001l.107-.06-.056-.174h-.001a.342.342 0 0 0-.202.105Zm.208-.124h-.004l-.007.001a.359.359 0 0 0-.212.111c-.018.023-.017.058-.006.088.01.032.033.062.062.077.03.016.061.014.084.008a.148.148 0 0 0 .035-.015l.002-.001.12-.068-.065-.2h-.009Z" clip-rule="evenodd"/><path fill="#8F322F" d="M10.627 5.048c0 .03-.026.056-.056.056-.03 0-.052-.026-.052-.056 0-.034.022-.056.052-.056s.056.022.056.056Z"/><path fill="#E2A494" d="M10.575 5.025a.03.03 0 0 1-.007.026.015.015 0 0 1-.01.003.015.015 0 0 1-.01-.003.03.03 0 0 1-.014-.019.03.03 0 0 1 .007-.026.015.015 0 0 1 .019-.004c.008 0 .015.012.015.023Z"/><path fill="#9F1209" fill-rule="evenodd" d="m13.27 4.938-.063.165.15.075s.064.03.105-.003c.037-.03.045-.105.015-.139-.026-.038-.21-.098-.206-.098Z" clip-rule="evenodd"/><path fill="currentColor" fill-rule="evenodd" d="M13.485 5.03c.017.02.022.05.02.078a.11.11 0 0 1-.037.074.094.094 0 0 1-.075.017.166.166 0 0 1-.039-.012l.003-.008-.004.008-.158-.079.067-.173.002-.003a.009.009 0 0 1 .007-.003v.01l.008.003.001-.002v-.005l-.003-.003-.001-.001a.18.18 0 0 0 .005.001l.007.003.013.005a2 2 0 0 1 .137.057c.01.005.02.01.028.016a.08.08 0 0 1 .019.017Zm-.209-.08.006.003a2.14 2.14 0 0 1 .147.06c.01.006.02.01.026.016.008.005.012.01.014.012l.001.001c.013.014.018.039.016.064a.092.092 0 0 1-.03.062c-.017.014-.04.015-.06.012a.143.143 0 0 1-.033-.009h-.001l-.143-.072.057-.148Z" clip-rule="evenodd"/><path fill="#AA675D" d="M13.448 5.07c0 .022-.022.037-.049.037-.026 0-.044-.015-.044-.037 0-.023.022-.038.044-.038.027 0 .05.019.05.038Z"/><path fill="#E2A494" d="M13.402 5.062c0 .011-.003.023-.01.026a.019.019 0 0 1-.023 0 .03.03 0 0 1-.011-.022c0-.011.003-.019.01-.023a.019.019 0 0 1 .023 0c.008 0 .011.012.011.023v-.004Z"/><path fill="#F5D8BC" d="M12.323 4.74c0 .003 0 .007-.002.01a.026.026 0 0 1-.028.016.026.026 0 1 1 0-.053c.015 0 .03.012.03.027Zm.161.007a.027.027 0 0 1-.008.019.026.026 0 0 1-.018.007.026.026 0 0 1-.028-.015.025.025 0 0 1-.002-.01.026.026 0 0 1 .03-.023c.011 0 .026.007.026.022Zm-.082.064c0 .019-.015.034-.038.034-.022 0-.03-.015-.03-.034 0-.019.015-.034.034-.034.019 0 .034.015.034.038V4.81Zm.075.105a.026.026 0 1 1-.053 0 .026.026 0 0 1 .026-.026c.02 0 .03.01.03.026h-.003Zm-.154-.019a.026.026 0 0 1-.026.026.026.026 0 0 1-.027-.026c0-.007.003-.014.008-.018a.026.026 0 0 1 .019-.008c.015 0 .026.011.026.026Zm-.784-.131a.026.026 0 0 1-.019.03.026.026 0 0 1-.033-.019v-.01a.027.027 0 0 1 .012-.017.026.026 0 0 1 .01-.003.026.026 0 0 1 .03.019Zm.161-.026v.01a.027.027 0 0 1-.012.016.026.026 0 0 1-.01.004.026.026 0 0 1-.03-.02.026.026 0 0 1 .019-.03.026.026 0 0 1 .033.02Zm-.067.078c.004.02-.008.038-.023.038a.034.034 0 0 1-.04-.023c-.005-.015.007-.037.025-.037a.034.034 0 0 1 .038.022Zm.101.087a.026.026 0 0 1-.019.03.026.026 0 0 1-.033-.02.026.026 0 0 1 .019-.03.026.026 0 0 1 .033.02Zm-.157.015a.026.026 0 0 1-.019.03.026.026 0 0 1-.034-.02v-.01a.027.027 0 0 1 .013-.016.027.027 0 0 1 .01-.003.026.026 0 0 1 .03.019Zm-.72-.008a.027.027 0 0 1 .003.011.027.027 0 0 1-.008.02.027.027 0 0 1-.01.007.026.026 0 0 1-.034-.015.026.026 0 0 1-.001-.022.026.026 0 0 1 .016-.016.026.026 0 0 1 .032.005.027.027 0 0 1 .005.01h-.003Zm.153-.049a.026.026 0 0 1-.044.029.027.027 0 0 1-.004-.01.027.027 0 0 1 .015-.034.026.026 0 0 1 .031.006.026.026 0 0 1 .006.01h-.004Zm-.052.09a.034.034 0 0 1-.019.038.034.034 0 0 1-.041-.015.034.034 0 0 1 .019-.041.034.034 0 0 1 .04.018Zm.112.068a.026.026 0 0 1-.015.037c-.015 0-.03-.003-.037-.018-.008-.015.004-.027.019-.034a.026.026 0 0 1 .033.015Zm-.153.037a.027.027 0 0 1 .003.011.027.027 0 0 1-.008.021.027.027 0 0 1-.01.006.026.026 0 0 1-.032-.005.027.027 0 0 1-.006-.01.026.026 0 0 1 .019-.038.026.026 0 0 1 .037.015h-.003Zm2.107-.217c-.004.015-.019.022-.037.019a.03.03 0 0 1-.02-.038c0-.011.02-.019.038-.015.012 0 .023.019.02.034Zm.165.049c0 .015-.019.026-.034.022a.03.03 0 0 1-.022-.037c.004-.012.019-.023.037-.02.015.005.023.02.02.038V4.89Zm-.101.045a.037.037 0 0 1-.041.026.038.038 0 0 1-.03-.041.038.038 0 0 1 .045-.027c.018.004.03.023.026.042Zm.056.13c-.004.016-.019.023-.037.02a.03.03 0 0 1-.02-.034c0-.015.02-.023.035-.019a.031.031 0 0 1 .022.038v-.004Zm-.161-.06c0 .016-.019.023-.034.02a.03.03 0 0 1-.019-.034c0-.015.02-.023.034-.019.015 0 .023.019.019.034Z"/><path fill="currentColor" fill-rule="evenodd" d="M13.02 3.33h.003a.24.24 0 0 0 .158.056c.042 0 .08-.016.108-.033a.3.3 0 0 0 .043-.03l.002-.002.016.016.016.016-.002.001-.003.003a.256.256 0 0 1-.049.035.264.264 0 0 1-.13.039.285.285 0 0 1-.187-.065.047.047 0 0 1-.02-.035.084.084 0 0 1 .005-.035.158.158 0 0 1 .011-.025l.005-.007v-.002l.001-.001.02.012.018.013-.001.001-.003.006a.122.122 0 0 0-.008.018.042.042 0 0 0-.003.016v.002Zm.315-.01Zm-1.794.096a1.556 1.556 0 0 0 .19.043h.006l-.007.041h-.007l-.016-.004a4.175 4.175 0 0 1-.178-.041.124.124 0 0 1-.054-.034.32.32 0 0 0-.005-.005.04.04 0 0 0-.015-.01.084.084 0 0 0-.032-.003.125.125 0 0 0-.075.031c-.018.017-.028.04-.022.064.006.03.019.042.032.047a.09.09 0 0 0 .055.002c.008-.004.014-.014.01-.029a.03.03 0 0 0-.01-.016.028.028 0 0 0-.022-.005h-.013a.066.066 0 0 0 .014.021l-.015.015-.015.014v-.001l-.003-.002a.1.1 0 0 1-.02-.032c-.003-.01-.006-.025.004-.04.01-.012.027-.016.044-.016a.069.069 0 0 1 .05.013.07.07 0 0 1 .026.039c.007.028-.002.066-.038.078h-.002a.13.13 0 0 1-.082-.003c-.027-.012-.047-.037-.055-.076a.106.106 0 0 1 .035-.103.166.166 0 0 1 .1-.042c.02 0 .035 0 .048.005a.081.081 0 0 1 .03.018l.006.007a.09.09 0 0 0 .036.024Zm-.164.078Zm-.356-.277a.08.08 0 0 1 .028.017c.013.013.02.033.024.051a.113.113 0 0 1 0 .053c-.007.037-.054.092-.16.1a.19.19 0 0 1-.117-.02.13.13 0 0 1-.035-.03l-.002-.002h-.001v-.001l.015-.01.016-.01v-.001.001l.005.005c.004.004.01.01.02.015.019.01.05.021.096.016.096-.007.124-.056.126-.07v-.004a.076.076 0 0 0 0-.035.066.066 0 0 0-.013-.032.045.045 0 0 0-.015-.007.204.204 0 0 0-.05-.012.35.35 0 0 0-.008-.001h-.002l.002-.02.002-.018h.003a.478.478 0 0 1 .066.015Z" clip-rule="evenodd"/><path fill="#C00" d="M12.72 10.14c.094-.093.244-.194.326-.412.075-.21.113-.589.188-.78.094-.33.281-.652.056-.63-.214.023-.281.225-.36.375-.037.056-.124.176-.139.244-.003-.113-.063-.446-.075-.78-.01-.315 0-.638-.01-.761-.008-.162-.008-.312-.046-.428-.019-.056-.097-.112-.142-.109-.083 0-.135.075-.15.147l-.008.105c-.007.09 0 .206-.007.31-.004.113.007.233 0 .338a4.999 4.999 0 0 1-.03.432c0-.075-.038-.44-.05-.784l-.007-.375c0-.098 0-.203-.007-.278-.019-.127-.06-.187-.15-.187-.068 0-.158.049-.188.187-.01.08-.015.173-.01.278l.007.3c-.008.394-.015.806-.03.93 0-.038-.042-.244-.053-.521l-.015-.36-.011-.36c0-.06-.026-.233-.139-.225-.064-.008-.127.037-.15.198-.015.094-.015.248-.019.372-.003.225-.015.427 0 .633l.004.29c0 .014-.034-.11-.049-.278l-.03-.323c0-.086-.003-.214-.01-.319-.008-.078-.005-.168-.095-.16-.09.003-.142.037-.16.187-.016.1-.016.318-.02.393.008.2-.045.664-.067.795-.008.094-.045.214-.06.345-.026.258-.013.519.037.773.075.262.263.382.255.562-.01.18 0 .5 0 .638 0 .142.124.15.375.097.42-.09.65.09.99-.045-.04-.39.042-.626.038-.768l.011-.045Zm-.244-.926c.087-.24.195-.333.3-.382l-.3.382Z"/><path fill="#161111" fill-rule="evenodd" d="M11.892 6.748c.033-.151.134-.211.217-.211a.15.15 0 0 1 .125.057c.029.037.045.09.054.156v.001c.008.077.008.183.008.28l.008.375c.004.12.01.243.018.355v-.004c.004-.05.003-.106.002-.163v-.019a2.666 2.666 0 0 1-.002-.154V7.42c.004-.052.004-.106.004-.16 0-.053 0-.106.004-.152L12.338 7c.016-.077.075-.17.178-.17a.119.119 0 0 1 .051.01.223.223 0 0 1 .05.028c.03.023.06.055.071.091.034.103.039.23.044.364l.003.071c.006.064.006.176.006.309v.002c0 .136 0 .295.005.452.006.165.023.331.04.47l.013.102.011.093a1.346 1.346 0 0 1 .078-.12l.016-.023.03-.06c.029-.059.06-.123.101-.178a.348.348 0 0 1 .252-.152.159.159 0 0 1 .081.01c.024.01.04.029.05.051.008.022.01.048.008.073a.494.494 0 0 1-.016.086c-.015.061-.04.133-.068.208v.001c-.027.077-.056.158-.08.24v.002a2.459 2.459 0 0 0-.093.378l-.002.012c-.027.14-.055.284-.093.389-.069.183-.185.288-.275.37l-.052.048-.008.033c0 .037-.004.08-.01.126l-.008.05-.015.115a2.04 2.04 0 0 0-.005.471l.002.023-.02.008c-.179.07-.328.058-.48.041-.01 0-.018-.002-.027-.003a1.402 1.402 0 0 0-.489.008.796.796 0 0 1-.294.025.145.145 0 0 1-.087-.05.16.16 0 0 1-.03-.101c0-.04 0-.094-.002-.156a7.148 7.148 0 0 1 .002-.483c.003-.08-.036-.147-.092-.233l-.01-.017a1.082 1.082 0 0 1-.152-.303v-.003a2.657 2.657 0 0 1-.038-.78v-.001a2.04 2.04 0 0 1 .033-.19c.012-.058.023-.11.027-.154V8.58c.022-.131.075-.594.067-.79v-.002a4.545 4.545 0 0 0 .005-.187c.003-.076.006-.157.014-.21.01-.077.029-.13.062-.165.035-.036.08-.046.127-.048a.106.106 0 0 1 .07.016c.02.014.031.033.038.052.007.02.01.04.013.06a1.122 1.122 0 0 1 .005.06v.001c.007.105.011.233.011.32l.008.08a9.975 9.975 0 0 1 .007-.402l.002-.081c.002-.104.005-.218.017-.294a.34.34 0 0 1 .067-.178.13.13 0 0 1 .114-.047c.074-.003.116.053.138.106.023.054.03.116.03.149l.01.36.016.36c.002.057.006.11.01.161.005-.16.008-.352.012-.542v-.027l-.007-.3a1.66 1.66 0 0 1 .011-.282v-.002Zm.059.011c-.011.077-.015.168-.011.272l.007.3v.037a15.91 15.91 0 0 1-.03.898l-.06-.003a.603.603 0 0 0-.006-.054c0-.007-.002-.013-.003-.02l-.012-.093a4.04 4.04 0 0 1-.031-.353m0 0-.015-.36-.011-.361a.366.366 0 0 0-.025-.127c-.02-.046-.046-.071-.082-.069h-.006a.07.07 0 0 0-.064.026.28.28 0 0 0-.052.147 2.46 2.46 0 0 0-.017.284l-.002.084c0 .053-.002.105-.003.156-.005.165-.008.319.003.475l.004.29v.001l-.002.01c0 .002-.003.01-.01.015a.03.03 0 0 1-.042-.005l-.003-.005-.002-.004a1.89 1.89 0 0 1-.05-.286l-.03-.324v-.001a4.942 4.942 0 0 0-.013-.343l-.003-.032a.208.208 0 0 0-.01-.047.044.044 0 0 0-.014-.023.051.051 0 0 0-.032-.005h-.001c-.043.002-.069.01-.088.03-.02.02-.036.058-.045.131a2.038 2.038 0 0 0-.014.204l-.002.093a5.985 5.985 0 0 1-.07.892c-.004.048-.016.102-.028.158v.003a1.99 1.99 0 0 0-.033.183c-.025.255-.012.512.037.763.034.117.091.205.144.286l.01.017c.055.084.106.167.102.267v.001a7.094 7.094 0 0 0-.002.476l.002.16c0 .031.007.051.017.064.01.013.026.023.053.028a.749.749 0 0 0 .269-.024c.202-.044.362-.026.507-.01l.027.004c.145.016.276.026.43-.03a2.11 2.11 0 0 1 .023-.578l.007-.05a.775.775 0 0 0 .01-.12v-.004l.014-.057.006-.006.063-.06a.85.85 0 0 0 .256-.341c.036-.1.063-.241.09-.384l.002-.009c.028-.143.057-.288.095-.387.024-.083.053-.165.08-.24v-.001a2.38 2.38 0 0 0 .067-.204.436.436 0 0 0 .014-.075.113.113 0 0 0-.005-.047.032.032 0 0 0-.017-.019.101.101 0 0 0-.051-.004.288.288 0 0 0-.21.127c-.037.05-.065.108-.093.165l-.034.067v.001l-.001.002a4.107 4.107 0 0 1-.018.026c-.018.026-.04.057-.06.09a.46.46 0 0 0-.057.117l-.059-.005a.93.93 0 0 0-.005-.062c-.087.049-.177.14-.252.348l-.056-.02c.085-.236.192-.338.3-.393l-.008-.072a5.535 5.535 0 0 1-.054-.582m-.457-1.4a.278.278 0 0 0-.042-.126c-.018-.023-.041-.034-.078-.034-.052 0-.13.037-.158.162" clip-rule="evenodd"/><path fill="#161111" fill-rule="evenodd" d="M12.408 8.67c.074-.018.16-.038.245-.038l.008.06-1.125.307-.019-.057c.094-.037.188-.067.282-.098l.117-.038h.002c.052-.015.103-.031.155-.048a7.53 7.53 0 0 1 .085-.028 1.51 1.51 0 0 1 .25-.06Zm.04 1.639a.331.331 0 0 0 .19-.058.61.61 0 0 0 .098-.078l.008-.007-.04-.045-.009.008a.642.642 0 0 1-.089.07.27.27 0 0 1-.157.05h-.004c-.103.007-.163.01-.2.01a.174.174 0 0 1-.06-.008l-.057-.032-.03.052.063.035h.002c.019.008.04.012.08.012s.102-.002.204-.01Zm-.598-.12-.096.059a.316.316 0 0 1-.177.042h-.148a.196.196 0 0 1-.086-.013c-.006-.001-.012-.004-.016-.006l-.004-.002a.991.991 0 0 0-.005-.002l-.113.004.076-.058a.051.051 0 0 1 .047-.007l.522-.018Z" clip-rule="evenodd"/></g><defs><clipPath id="a"><path fill="#fff" d="M0 0h24v18H0z"/></clipPath></defs></svg>