<svg xmlns="http://www.w3.org/2000/svg" width="24" height="18" fill="none"><g clip-path="url(#a)"><path fill="#00AB39" d="M0 9h24v9H0V9Z"/><path fill="#fff" d="M0 0h24v9H0V0Z"/><path fill="#D21034" d="M15.713 2.655h-.004.004Zm-.004 0a26.02 26.02 0 0 0-4.192 2.812c-.638.559-.458 1.002-.484 1.5.022.338-.072.653-.278.84l-1.417.285-.135-.39c.041-.202.206-.3.559-.176.026-.255-.184-.36-.424-.45-.086-.067-.188-.112-.176-.337-.038-.507.772.037.78.037.007 0-.03-.514-.402-.615-.202-.071-.288-.285-.21-.442.162-.327.469.022.701.037a.68.68 0 0 0-.25-.532c-.098-.064-.338-.11-.346-.21-.003-.135.225-.195.544-.158-.067-.191-.281-.315-.574-.405l-.172-.304c-.083-.15-.12-.157.071-.442.169-.113.398-.27.57-.379l-.187-.022c.022-.207.026-.278.075-.62-.188.252-.413.207-.623.308 0 0-.585.105-.776.357l-1.478-.075c-.315.04-.581.13-.633.435-.717.075-1.467.01-2.014.693.375-.015.697-.105 1.117-.052 0 0 .357.007.428.386.007.015.124.015.124.015l.135.105.052-.142.12.082.038-.157.12.082.007-.187.158.112v-.251s.585 0 .765.375c.007.004-1.64.3-3.23.161l.458-.225c-.577-.12-1.125-.225-1.635-.626.192.727 1.189 1.579 1.395 1.575l-.195-.353 1.725.075c.064.192.038.405.188.574 0 0-.094.315.12.443.007.015.251-.638.251-.638s.075.176.15.293c.113-.563.728-.657.728-.657l.127.3c-.191.03-.431.42-.3.638-.131 0-.36.379-.289.585-.108.109-.375.251-.311.705-.21.045-.337.431-.27.844-.33.303-.247.862.045 1.09-.12.113-.195.192-.195.327-.116-.041-.225-.007-.274.068-.142-.147-.345-.27-.487-.135-.038-.173-.263-.36-.506-.338a.461.461 0 0 0-.338-.487s-.056-.848-.311-1.125c-.026-.15.015-.255.225-.383.214-.112.259-.199.24-.521.086-.214.15-.431-.113-.578.008.255-.067.375-.172.488-.124-.015-.165.127-.248.187-.116-.153.244-.397-.022-.746-.015-.015-.188-.45-.611-.442a.581.581 0 0 1 .285.52c-.157.346-.18.737-.068 1.1-.176-.263-.277-.765-.424-.852-.127-.026-.187-.326-.686-.24.214.057.285.222.338.368-.128.067-.064.247.033.371-.018.289.154.458.413.563L3.21 8.887c-.101-.011-.262.39-.322.402-.101.063-.278.232-.075.28-.06.215-.116.346-.439.39 0 0 .338.203.623-.142.3-.007.202-.367.348-.525 0-.011.087-.063.207-.382.052.285.345 1.155 1 1.586.575.615 1.05 1.196 1.043 2.014.22-.242.379-.535.462-.851a3.34 3.34 0 0 1 1.155-.136c-.068.147-.147.286-.05.376-.277.097-.337.3-.224.498-.293.199-.311.326-.315.656-.544.694-.878.672-1.414.488-.172-.101-.45-.248-.574-.169-.228-.157-.562-.18-.618.173.176-.146.277-.117.416.022-.026.072-.049.139.052.18l-.135.15c-.247-.037-.585-.037-.671.326.128-.108.413-.13.638-.03l.13.046.016.172s-.338-.053-.428.499c.315-.338.54-.252.54-.252.124.18.574.154.9-.142.454-.255.589.113.882-.127.243-.18.532-.06.73.15.23.086.47.157.657 0 0 0 .233-.147.461.09 0-.263-.187-.41-.442-.413l-.075-.075c-.244-.053-.514-.03-.728-.15.083-.378.266-.728.529-1.012.349-.375.608-.548 1.05-1.122-.019.327.229.687.36 1.013 0 0 .263-.416.3-.761.011 0 .334-.165.469-.312.292.184.765-.142 1.072-.412.188.075.334.067.551 0-.176.36.102.694.544.832.038.315.36.383.844.383.022.187.311.213.311.213-.187.083-.277.17-.274.36-.187 0-.326.05-.374.263-.26.008-.522.026-.743.15-.236-.034-.525-.131-.709-.322-.094-.08-.12-.195-.285-.24-.105-.124-.232-.098-.274.022-.108-.086-.517-.124-.588.263.195-.14.364-.192.487-.02-.067.117.158.188.353.233.139.008.382.135.457.345a.75.75 0 0 1-.626-.097.412.412 0 0 0-.487-.03c-.165-.105-.552.094-.567.409.162-.15.312-.225.462-.128-.075.015-.05.022-.038.067l.375.218c-.187.049-.36.124-.277.469 0 0 .15-.3.487-.188.008-.011.049.105.146.027.146-.166.48-.24.776-.27.237-.027.473-.098.675.037.188-.094.39-.158.6-.008.248.075.428.368.74.237.157-.113.348-.113.543.105 0-.278-.206-.371-.499-.431l-.202-.12c-.188-.03-.375.003-.566-.087a3.463 3.463 0 0 0 2.163-1.59l.469.165c.112.008.12.045.349.113.007-.334-.139-.679-.743-.713l-.787-.3c-.173-.18-.248-.559-.034-.78.21-.187.247-.165.386-.393.169-.016.326.157.48.157.075.221.503.412.773.349.168.15.487.232.844.112a.683.683 0 0 0 .768.113c.083.082.255.15.45.105.019 0 .105.217.319.296-.094.09-.037.487.064.634a.638.638 0 0 0-.034.476c-.218.139-.262.244-.165.48-.285.461-.626.514-.949.375l-.348-.225-.368-.36c-.064-.06-.195-.075-.221.053 0 0-.473-.105-.514.296.199-.191.476-.023.476-.015 0 .007-.067.052-.015.127.011-.011.349.124.645.252.162.063.199.082.27.12a13.52 13.52 0 0 0-.27-.12c-.13-.06-.27-.097-.412-.11-.165-.014-.345-.037-.428.09-.18.076-.465.14-.45.477.12-.202.289-.191.503-.172l-.015.044c.232.106.187-.03.405-.048.195-.003.39.029.573.093-.168.05-.4.027-.51.15-.022.038-.093.023-.06.12 0 0-.337-.007-.423.45.337-.213.596-.206.6-.206l.108.023.413-.274c.011 0 .398-.173.574.022a.493.493 0 0 0 .487-.014c.315-.14.612-.15.9.044l.267.158.112-.075s.3-.083.517.184c-.09-.461-.42-.476-.42-.476l-.075-.068-.465-.184c-.07-.168-.24-.3-.07-.502.175-.866.382-1.515.044-2.393.315.135.552.555.945.409 0-.352-1.297-1.024-2.287-1.56C19.05 9.9 21 8.704 20.25 7.181l.353-1.102c.168.337.506.592.81.7-.252-.475-.394-1.934-.252-2.94a23.521 23.521 0 0 1-2.14 2.25c.374.09.708.027 1.072-.018l-.308.638c-.997-.59-2.167-.15-2.175.63.034.907 1.155 1.038 1.804.72-.128.828-2.033.525-2.033.525-.675-.233-1.316-.195-2.024-.188.146-.454.963-.859 1.59-.679-.874-.982.123-2.201 1.327-2.572-1.313-.435-.184-1.436.799-2.153 0 0-2.824 1.189-3.083 1.185-.802-.06-.585-1.012-.277-1.522h-.004Zm-8.865 1.14a.94.94 0 0 1 .206.022c.128.034.282.049.282.09-.06.098-.207.214-.35.21-.142-.007-.224-.093-.27-.307a.418.418 0 0 1 .132-.015Zm11.887 3.352c.188 0 .41.075.623.308-.101.3-1.005.45-1.065.007-.019-.135.172-.311.442-.315Z"/><path fill="currentColor" fill-rule="evenodd" d="M15.703 2.629h.056l-.024.04c-.152.252-.28.613-.273.916a.614.614 0 0 0 .123.384c.082.1.212.168.406.182a.342.342 0 0 0 .07-.012c.035-.008.078-.02.128-.036.102-.032.233-.078.383-.134.3-.11.678-.258 1.047-.407a102.198 102.198 0 0 0 1.412-.58l.032-.014.01.025-.01-.025.025.046c-.492.358-1.015.785-1.253 1.174-.119.194-.163.374-.104.529.06.155.226.295.551.403l.078.026-.078.024c-.597.184-1.142.578-1.428 1.046a1.31 1.31 0 0 0-.212.736c.01.252.11.507.324.748l.06.068-.087-.025c-.305-.088-.66-.033-.957.1-.281.127-.505.322-.588.527l.18-.003c.622-.01 1.205-.018 1.814.191h.003l.016.003a3.635 3.635 0 0 0 .276.031c.18.016.421.028.666.014.244-.014.49-.053.683-.14.175-.078.302-.193.346-.361a1.69 1.69 0 0 1-1.104.079 1.007 1.007 0 0 1-.478-.287.862.862 0 0 1-.212-.557v-.001c.004-.405.31-.718.735-.853.418-.134.957-.099 1.455.186l.274-.569-.086.012c-.313.04-.614.08-.948 0l-.048-.01.037-.034a23.483 23.483 0 0 0 2.138-2.248l.06-.07-.013.09a7.663 7.663 0 0 0-.022 1.663c.024.274.061.532.107.75a2.1 2.1 0 0 0 .163.512l.032.06-.064-.023a1.554 1.554 0 0 1-.795-.659l-.33 1.033c.186.383.204.747.1 1.079-.105.333-.333.632-.634.885-.58.485-1.436.802-2.23.864l.147.079c.437.235.908.49 1.29.727.224.14.419.274.557.397.07.06.126.12.165.175a.29.29 0 0 1 .063.161v.019l-.017.006c-.21.078-.376.004-.527-.102-.05-.035-.098-.074-.146-.112l-.073-.057a1.29 1.29 0 0 0-.161-.11c.272.755.145 1.348-.006 2.057l-.06.288-.002.007-.005.005a.264.264 0 0 0-.064.127.213.213 0 0 0 .015.11.76.76 0 0 0 .058.114l.003.005c.02.035.042.07.06.11l.459.18.072.066h.007a.453.453 0 0 1 .173.068c.1.066.208.19.254.428l-.046.022a.486.486 0 0 0-.478-.178l-.008.002-.123.081-.28-.166h-.001c-.28-.189-.565-.18-.874-.044a.519.519 0 0 1-.51.016l-.005-.003-.004-.003c-.078-.087-.207-.095-.325-.076a1 1 0 0 0-.151.037l-.048.016-.004.001-.01.004a.1.1 0 0 1-.005.002l-.418.277-.117-.024c-.029 0-.271.005-.583.202l-.051.032.011-.059c.044-.236.155-.355.257-.414a.43.43 0 0 1 .16-.055.103.103 0 0 1-.001-.035.07.07 0 0 1 .026-.044c.008-.007.018-.012.026-.016l.005-.003c.008-.005.012-.008.014-.012l.001-.002.002-.001c.06-.07.154-.096.248-.112.032-.006.065-.01.098-.014l.044-.006.038-.006a1.624 1.624 0 0 0-.47-.063c-.081.007-.12.03-.158.052a.556.556 0 0 1-.03.016.167.167 0 0 1-.09.02.41.41 0 0 1-.14-.041l-.022-.01.012-.036a.794.794 0 0 0-.244.006.306.306 0 0 0-.2.157l-.045.076-.004-.088a.39.39 0 0 1 .163-.359.99.99 0 0 1 .24-.118l.056-.022c.047-.068.12-.095.197-.103.073-.008.154 0 .23.006l.02.002.023.002a12.93 12.93 0 0 0-.202-.077.633.633 0 0 0-.046-.014l-.013.013-.018-.025a.127.127 0 0 1-.025-.064.102.102 0 0 1 .01-.052.132.132 0 0 1 .013-.02.495.495 0 0 0-.13-.047.31.31 0 0 0-.29.074l-.051.05.007-.072a.35.35 0 0 1 .106-.232.376.376 0 0 1 .187-.09.655.655 0 0 1 .228-.001.13.13 0 0 1 .113-.093.192.192 0 0 1 .145.051l.366.359.345.222a.65.65 0 0 0 .468.036c.15-.05.3-.17.439-.39-.046-.114-.06-.203-.031-.283.028-.078.094-.14.194-.206a.663.663 0 0 1 .035-.463.893.893 0 0 1-.101-.337.806.806 0 0 1-.003-.185.288.288 0 0 1 .029-.102.577.577 0 0 1-.212-.173 1.1 1.1 0 0 1-.06-.084v-.001a.757.757 0 0 0-.014-.021.527.527 0 0 1-.447-.102.709.709 0 0 1-.77-.115c-.35.114-.668.036-.844-.113a.802.802 0 0 1-.463-.072.831.831 0 0 1-.206-.13.423.423 0 0 1-.115-.15.36.36 0 0 1-.108-.028 1.261 1.261 0 0 1-.12-.059.47.47 0 0 0-.218-.07.816.816 0 0 1-.235.263l-.021.017c-.035.027-.076.06-.128.107a.479.479 0 0 0-.12.384.62.62 0 0 0 .15.354l.779.297c.304.018.498.114.615.253a.715.715 0 0 1 .148.486v.034l-.034-.01a1.74 1.74 0 0 1-.21-.075l-.01-.004a.327.327 0 0 0-.123-.032h-.003l-.452-.16a3.487 3.487 0 0 1-2.09 1.564c.067.02.133.03.2.034l.088.005c.065.003.132.005.197.016h.005l.203.121a.94.94 0 0 1 .365.138.37.37 0 0 1 .15.318v.069l-.046-.051a.458.458 0 0 0-.27-.168.326.326 0 0 0-.238.067l-.003.001-.002.001c-.167.07-.299.026-.417-.042-.038-.022-.075-.046-.112-.07a2.912 2.912 0 0 0-.058-.039.701.701 0 0 0-.17-.084l-.004-.001-.004-.003a.418.418 0 0 0-.29-.083.804.804 0 0 0-.283.093l-.013.007-.013-.009a.5.5 0 0 0-.31-.075c-.055.003-.112.01-.17.018l-.047.006a3.98 3.98 0 0 1-.13.018c-.148.015-.303.04-.44.083a.71.71 0 0 0-.32.178l-.002.002-.001.001a.13.13 0 0 1-.08.034.095.095 0 0 1-.06-.021.18.18 0 0 1-.031-.033l-.002-.002a.354.354 0 0 0-.344.048.421.421 0 0 0-.109.124v.002l-.033.065-.017-.07c-.042-.176-.02-.291.043-.368a.396.396 0 0 1 .193-.115l-.33-.192-.003-.01a.158.158 0 0 0-.008-.022v-.003a.114.114 0 0 1-.005-.012.046.046 0 0 1-.001-.019.037.037 0 0 1 .012-.022.222.222 0 0 0-.154 0 .658.658 0 0 0-.225.15l-.047.044.003-.064a.493.493 0 0 1 .24-.383.505.505 0 0 1 .193-.075.264.264 0 0 1 .16.02.439.439 0 0 1 .503.04.725.725 0 0 0 .575.1.51.51 0 0 0-.184-.209.517.517 0 0 0-.24-.092h-.004a1.259 1.259 0 0 1-.281-.093.226.226 0 0 1-.089-.073.097.097 0 0 1-.007-.09.231.231 0 0 0-.082-.068.187.187 0 0 0-.102-.016.594.594 0 0 0-.258.121l-.053.038.012-.064a.38.38 0 0 1 .3-.33.49.49 0 0 1 .191-.003c.043.007.082.02.112.037a.159.159 0 0 1 .121-.09c.06-.008.124.02.179.083a.35.35 0 0 1 .174.113c.014.015.027.032.039.047l.017.022a.429.429 0 0 0 .057.06l.001.002h.001c.176.184.453.28.685.314.22-.12.478-.14.727-.148a.325.325 0 0 1 .143-.208.456.456 0 0 1 .226-.055.333.333 0 0 1 .071-.211.462.462 0 0 1 .145-.112.58.58 0 0 1-.073-.023c-.071-.029-.154-.082-.176-.176-.232 0-.43-.018-.577-.074a.449.449 0 0 1-.185-.125.372.372 0 0 1-.083-.19.971.971 0 0 1-.502-.338.492.492 0 0 1-.065-.473.932.932 0 0 1-.24.039.687.687 0 0 1-.26-.05 2.53 2.53 0 0 1-.535.37c-.188.09-.382.131-.538.046-.07.071-.179.144-.271.2a2.548 2.548 0 0 1-.173.094l-.005.002c-.022.173-.096.36-.164.503a2.948 2.948 0 0 1-.126.235l-.009.014-.001.002v.002h-.001v.001l-.023-.014.022.014-.027.044-.02-.048a3.866 3.866 0 0 0-.113-.248l-.017-.036a5.636 5.636 0 0 1-.105-.222 1.31 1.31 0 0 1-.126-.44 6.42 6.42 0 0 1-.672.729c-.108.104-.216.208-.333.334a2.149 2.149 0 0 0-.518.98c.098.052.21.074.326.089l.116.013c.087.009.176.018.261.037l.008.001.073.073a.502.502 0 0 1 .323.116.416.416 0 0 1 .135.323v.065l-.046-.047a.362.362 0 0 0-.295-.126.34.34 0 0 0-.132.04.44.44 0 0 1-.33.095 1.329 1.329 0 0 1-.35-.093l-.006-.002-.004-.004a.743.743 0 0 0-.337-.214.408.408 0 0 0-.36.067.356.356 0 0 1-.211.09.574.574 0 0 1-.175-.024l-.016-.003a.674.674 0 0 0-.205-.024.64.64 0 0 0-.274.089 1.01 1.01 0 0 1-.538.254c-.168.021-.32-.014-.394-.11a.326.326 0 0 0-.13.002c-.09.019-.22.079-.374.244l-.06.063.014-.085c.046-.281.157-.414.26-.475a.346.346 0 0 1 .165-.047l-.01-.126-.117-.04h-.001a.749.749 0 0 0-.343-.062.46.46 0 0 0-.267.088l-.061.052.019-.078a.426.426 0 0 1 .292-.333.9.9 0 0 1 .394-.015l.103-.114a.141.141 0 0 1-.032-.027.103.103 0 0 1-.026-.057.222.222 0 0 1 .017-.098c-.063-.06-.114-.093-.166-.098-.054-.006-.116.018-.203.09l-.053.044.01-.069a.388.388 0 0 1 .096-.212.295.295 0 0 1 .171-.087.565.565 0 0 1 .38.1.227.227 0 0 1 .118-.017c.05.005.104.02.158.04.108.04.22.102.307.152.267.092.477.14.686.084.21-.055.423-.216.69-.556.003-.16.009-.277.052-.379.043-.1.12-.182.256-.277a.344.344 0 0 1-.024-.289c.036-.088.116-.162.239-.212-.033-.049-.033-.105-.02-.162a1.02 1.02 0 0 1 .071-.176l.001-.002a3.31 3.31 0 0 0-1.093.132 2.051 2.051 0 0 1-.463.848l-.047.05.001-.068c.007-.805-.46-1.379-1.033-1.993-.332-.22-.57-.548-.733-.856A3.087 3.087 0 0 1 3.544 9a1.332 1.332 0 0 1-.119.231.585.585 0 0 1-.05.066l-.003.003v.003l-.007.008a.332.332 0 0 0-.068.136 1.686 1.686 0 0 0-.022.085v.002c-.007.028-.013.057-.021.085a.363.363 0 0 1-.078.154.237.237 0 0 1-.167.07.511.511 0 0 1-.647.14h-.001l.013-.023-.013.023-.064-.039.073-.01c.159-.022.247-.065.303-.124a.518.518 0 0 0 .107-.222c-.039-.013-.066-.034-.08-.063-.014-.035-.004-.072.014-.103a.51.51 0 0 1 .16-.155l.004-.003h.004l.002-.002a.428.428 0 0 0 .043-.056l.053-.087.031-.053c.03-.05.063-.1.095-.139a.266.266 0 0 1 .049-.047.108.108 0 0 1 .031-.016l.124-1.148a.757.757 0 0 1-.303-.213.511.511 0 0 1-.108-.358.517.517 0 0 1-.1-.21.21.21 0 0 1 .006-.11.149.149 0 0 1 .055-.071c-.052-.14-.122-.28-.313-.331l.003-.051c.255-.044.402.01.502.082.04.03.072.061.1.088l.016.016c.032.031.054.05.078.054h.004l.004.003c.043.026.08.08.113.143.033.065.066.145.098.23l.02.052c.034.087.069.177.106.26a1.575 1.575 0 0 1 .114-.915.554.554 0 0 0-.272-.493l-.08-.048.093-.001a.616.616 0 0 1 .48.221.969.969 0 0 1 .142.212l.008.015.002.004c.07.091.1.177.106.257a.535.535 0 0 1-.034.214l-.027.074-.006.015a.775.775 0 0 0-.026.077.146.146 0 0 0-.003.085c.01-.01.018-.02.028-.033l.018-.022a.999.999 0 0 1 .035-.043c.036-.041.081-.079.148-.076a.572.572 0 0 0 .115-.173.691.691 0 0 0 .042-.287l-.001-.046.04.023c.138.077.194.175.2.284a.772.772 0 0 1-.074.32c.01.159.003.265-.035.347-.04.084-.11.137-.218.193a.504.504 0 0 0-.191.173.26.26 0 0 0-.023.175.91.91 0 0 1 .157.296c.042.12.073.254.096.378a4.484 4.484 0 0 1 .059.443.488.488 0 0 1 .34.48.527.527 0 0 1 .318.102.484.484 0 0 1 .175.218c.074-.05.158-.048.239-.018a.712.712 0 0 1 .232.158c.056-.061.151-.087.251-.062.012-.119.082-.197.18-.29a.771.771 0 0 1-.242-.517.724.724 0 0 1 .209-.586 1.247 1.247 0 0 1 .034-.558c.047-.146.128-.26.235-.295a.668.668 0 0 1 .098-.478.769.769 0 0 1 .169-.177 12.545 12.545 0 0 0 .044-.039.384.384 0 0 1 0-.176.757.757 0 0 1 .189-.357.262.262 0 0 1 .09-.063c-.05-.116-.018-.262.045-.382a.662.662 0 0 1 .13-.174.356.356 0 0 1 .128-.08l-.107-.253-.006.001a1.082 1.082 0 0 0-.288.11.758.758 0 0 0-.392.521l-.013.064-.035-.055a1.867 1.867 0 0 1-.126-.237l-.016.041a41.73 41.73 0 0 1-.17.443 2.207 2.207 0 0 1-.046.1.028.028 0 0 1-.011.009.027.027 0 0 1-.025-.004c-.117-.07-.148-.191-.152-.29a.632.632 0 0 1 .018-.166.604.604 0 0 1-.123-.28l-.018-.099a1.094 1.094 0 0 0-.038-.177l-1.659-.072.193.35h-.043a.29.29 0 0 1-.124-.04 1.38 1.38 0 0 1-.17-.107 3.531 3.531 0 0 1-.428-.374c-.3-.304-.602-.703-.699-1.073l-.02-.076.062.049c.49.386 1.016.495 1.577.611l.047.01.074.015-.44.217c.665.05 1.334.028 1.882-.015l-.154-.12A1.29 1.29 0 0 1 5.8 4.77a.117.117 0 0 1-.02-.005.05.05 0 0 1-.01-.005.033.033 0 0 1-.012-.013l-.001-.003V4.74a.42.42 0 0 0-.35-.358.422.422 0 0 0-.053-.007h-.002a2.482 2.482 0 0 0-.57.001l-.165.018c-.124.014-.249.029-.38.034l-.057.002.036-.045c.47-.585 1.089-.63 1.697-.675.106-.008.211-.016.315-.026a.456.456 0 0 1 .228-.315 1.15 1.15 0 0 1 .425-.122h.002l1.467.074a.69.69 0 0 1 .201-.158c.084-.046.176-.083.262-.112a2.55 2.55 0 0 1 .314-.084h.003a.894.894 0 0 1 .161-.056c.018-.005.035-.01.052-.013.036-.01.072-.018.107-.029a.53.53 0 0 0 .29-.2l.047.019c-.039.266-.049.368-.063.498l-.01.094.236.028-.063.04c-.121.076-.27.176-.407.269a37.6 37.6 0 0 1-.158.106c-.046.069-.078.12-.099.161a.254.254 0 0 0-.032.094.126.126 0 0 0 .014.065l.029.054.02.037.168.294c.288.09.51.217.58.419l.015.04-.042-.006a1.04 1.04 0 0 0-.383.014c-.093.026-.132.069-.131.117 0 .014.01.03.033.047a.434.434 0 0 0 .09.049l.072.03.04.015c.036.015.071.03.098.048l.002.001.001.002a.804.804 0 0 1 .198.257.75.75 0 0 1 .062.293v.03l-.028-.002a.572.572 0 0 1-.194-.06 3.715 3.715 0 0 1-.064-.031c-.043-.021-.085-.042-.127-.058a.286.286 0 0 0-.164-.023c-.045.01-.09.043-.127.12-.07.141.005.338.194.405.197.054.303.217.36.361a.99.99 0 0 1 .06.274.06.06 0 0 1 0 .008l-.002.006a.026.026 0 0 1-.033.016.03.03 0 0 1-.002 0h-.001a.39.39 0 0 1-.02-.012l-.003-.002-.015-.01a1.933 1.933 0 0 0-.365-.184c-.1-.036-.19-.053-.252-.036a.105.105 0 0 0-.067.052.232.232 0 0 0-.02.129v.003c-.005.108.017.17.047.211a.353.353 0 0 0 .088.08l.029.022c.118.045.234.095.316.167a.34.34 0 0 1 .12.31l-.003.032-.031-.01c-.174-.062-.296-.066-.378-.035-.078.03-.125.093-.145.184l.125.361 1.388-.279c.195-.18.286-.484.264-.814v-.003c.005-.1.002-.196-.001-.294l-.002-.07a1.999 1.999 0 0 1 .016-.366c.039-.25.156-.505.48-.788a26.05 26.05 0 0 1 4.197-2.816l.006-.003ZM5.357 4.324a.183.183 0 0 1 .016.001.53.53 0 0 1 .18.053.47.47 0 0 1 .253.34l.004.001a.38.38 0 0 0 .079.006h.017m0 0h.01l.113.089.052-.14.116.08.038-.158.112.077.008-.189.155.111V4.37h.027v.026-.026h.002a.644.644 0 0 1 .094.006c.06.006.14.018.226.042.17.047.371.144.466.342a.031.031 0 0 1 .002.006.052.052 0 0 1-.006.023.046.046 0 0 1-.006.005.04.04 0 0 1-.007.003h-.005a.506.506 0 0 1-.068.014c-.048.008-.118.02-.207.032-.179.027-.434.06-.74.088a12.68 12.68 0 0 1-2.217.028l-.094-.009.473-.232c-.526-.11-1.032-.218-1.506-.567.112.335.385.693.662.973.149.151.298.279.422.369a1.327 1.327 0 0 0 .211.125l-.19-.343 1.79.078.006.017a1.064 1.064 0 0 1 .045.204l.017.095a.55.55 0 0 0 .12.266l.01.01-.004.015v.003a.358.358 0 0 0-.01.045.58.58 0 0 0-.01.117c.004.083.028.174.106.232a14.12 14.12 0 0 0 .198-.507l.027-.074.01-.028.025.01-.024-.01.023-.061.025.06.001.002.003.006a2.078 2.078 0 0 0 .043.094c.02.04.043.088.069.133a.815.815 0 0 1 .403-.494 1.134 1.134 0 0 1 .329-.12h.001l.001.003v-.003l.02-.003.148.35-.033.005a.268.268 0 0 0-.132.075.61.61 0 0 0-.12.16c-.066.125-.088.266-.03.363l.025.04h-.047c-.022 0-.054.016-.092.054a.704.704 0 0 0-.174.331.316.316 0 0 0 .002.165l.006.015-.012.012a.934.934 0 0 1-.058.052 2.26 2.26 0 0 0-.046.04.717.717 0 0 0-.113.127c-.069.1-.118.243-.087.464l.003.024-.023.005c-.091.02-.171.115-.22.266a1.2 1.2 0 0 0-.03.548l.002.014-.01.01a.67.67 0 0 0-.203.552c.016.2.107.39.246.498l.024.02-.022.02c-.12.113-.187.185-.187.307v.038l-.035-.013c-.107-.038-.202-.005-.243.057l-.018.028-.022-.024a.692.692 0 0 0-.235-.166c-.08-.03-.154-.027-.216.032l-.034.032-.01-.046a.406.406 0 0 0-.165-.226.468.468 0 0 0-.313-.09l-.031.002.002-.031a.435.435 0 0 0-.318-.46l.007-.025-.026.002v-.003a1.684 1.684 0 0 0-.013-.133 4.434 4.434 0 0 0-.047-.32 2.615 2.615 0 0 0-.094-.37.832.832 0 0 0-.15-.283l-.006-.006-.001-.008a.317.317 0 0 1 .027-.216.555.555 0 0 1 .21-.193h.002c.105-.056.163-.103.195-.17.033-.07.04-.166.03-.327v-.006l.003-.006a.736.736 0 0 0 .072-.302c-.005-.08-.04-.154-.134-.218a.698.698 0 0 1-.046.26.64.64 0 0 1-.134.198l-.01.01-.012-.002c-.05-.006-.082.018-.117.057a.865.865 0 0 0-.032.04.212.212 0 0 1-.02.024.334.334 0 0 1-.06.062l-.021.015-.016-.02c-.036-.048-.033-.102-.02-.155a.82.82 0 0 1 .035-.098l.027-.072a.484.484 0 0 0 .03-.194.422.422 0 0 0-.1-.239l-.008-.013-.002-.003a.915.915 0 0 0-.135-.2.58.58 0 0 0-.347-.199.616.616 0 0 1 .219.49v.005l-.002.005a1.52 1.52 0 0 0-.067 1.08l-.047.023a2.406 2.406 0 0 1-.205-.445l-.02-.052a2.396 2.396 0 0 0-.097-.225.32.32 0 0 0-.09-.12.233.233 0 0 1-.099-.066.78.78 0 0 0-.11-.099.513.513 0 0 0-.36-.086c.152.079.211.223.255.345l.008.022-.02.01a.1.1 0 0 0-.05.055.158.158 0 0 0-.004.082.472.472 0 0 0 .096.195l.006.008v.01a.462.462 0 0 0 .096.332.73.73 0 0 0 .3.205l.018.007-.132 1.235-.027-.003c-.003 0-.01 0-.022.009a.215.215 0 0 0-.04.038 1.156 1.156 0 0 0-.089.132l-.03.052-.055.09a.477.477 0 0 1-.054.068.456.456 0 0 0-.157.145c-.015.025-.017.044-.011.056.005.013.022.03.07.04l.026.007-.007.026a.613.613 0 0 1-.127.27.461.461 0 0 1-.246.123c.032.01.071.02.115.022.112.007.26-.026.396-.191l.008-.01h.012c.069-.001.112-.023.142-.054a.313.313 0 0 0 .065-.133c.008-.026.014-.054.02-.082l.001-.002.022-.087a.39.39 0 0 1 .083-.164l.007-.008.005-.005a.534.534 0 0 0 .04-.054c.036-.052.087-.143.146-.301l.033-.088.017.092c.026.14.111.426.272.731.16.305.395.626.718.839l.003.001.002.002c.557.598 1.03 1.17 1.05 1.963.193-.229.333-.498.41-.789l.003-.014.014-.004c.377-.113.771-.16 1.164-.136l.039.002-.017.035-.018.04a.96.96 0 0 0-.066.164c-.015.06-.01.105.03.14l.032.03-.041.015c-.135.047-.212.118-.244.196-.031.079-.02.17.033.265l.012.02-.02.014c-.145.099-.218.177-.257.268-.04.092-.045.201-.047.367v.01l-.005.006c-.274.348-.497.522-.724.582-.227.06-.451.006-.72-.086h-.002l-.002-.002a2.014 2.014 0 0 0-.301-.15.582.582 0 0 0-.144-.036.16.16 0 0 0-.102.017l-.014.01-.015-.01a.52.52 0 0 0-.355-.101.243.243 0 0 0-.141.071.295.295 0 0 0-.065.116.277.277 0 0 1 .182-.058c.075.008.14.056.21.126l.012.012-.006.016a.21.21 0 0 0-.02.089c.002.01.005.02.013.029.009.01.022.019.045.028l.035.014-.17.189-.014-.002a.867.867 0 0 0-.384.011.36.36 0 0 0-.237.227.592.592 0 0 1 .235-.058.8.8 0 0 1 .366.066l.147.05.019.223-.033-.006h-.007a.295.295 0 0 0-.156.04c-.077.045-.168.142-.218.353a.732.732 0 0 1 .34-.198.38.38 0 0 1 .163.001.05.05 0 0 0 .002 0l.001.001-.002.008.003-.008.007.003.005.007c.053.078.183.117.35.096a.956.956 0 0 0 .51-.243l.003-.002.002-.002a.694.694 0 0 1 .3-.097.721.721 0 0 1 .22.025l.015.004a.552.552 0 0 0 .16.023.304.304 0 0 0 .183-.08h.001a.46.46 0 0 1 .405-.076.792.792 0 0 1 .357.225c.112.042.224.079.33.087a.386.386 0 0 0 .294-.085l.002-.001.001-.001.014.022-.014-.022.001-.001.003-.001a.398.398 0 0 1 .153-.046.396.396 0 0 1 .288.096.347.347 0 0 0-.113-.22.455.455 0 0 0-.3-.102h-.01l-.077-.078a2.473 2.473 0 0 0-.246-.034l-.12-.013a.982.982 0 0 1-.362-.104l-.016-.01.004-.018a2.2 2.2 0 0 1 .535-1.025c.12-.13.23-.234.338-.34.21-.2.42-.402.71-.78l.052-.067-.005.085c-.009.157.046.323.122.494a6.394 6.394 0 0 0 .121.256c.034.068.066.136.095.203l.015-.025a2.92 2.92 0 0 0 .093-.18c.07-.146.144-.333.162-.5l.003-.024h.019l.01-.005.04-.02c.034-.018.08-.043.129-.072.098-.06.21-.136.275-.206l.014-.016.019.011c.134.085.314.054.505-.037.19-.09.383-.238.536-.373l.012-.01.015.006a.647.647 0 0 0 .254.051.977.977 0 0 0 .28-.052l.058-.018-.027.055a.443.443 0 0 0 .038.472c.098.14.273.255.49.324l.016.005.002.017a.326.326 0 0 0 .074.178c.04.047.094.082.164.11.141.054.338.07.58.07h.023l.003.024c.01.079.075.127.148.156a.556.556 0 0 0 .128.033l.009.002h.002m0 0Zm-.002.026.003-.026-.003.026Zm.003-.026.008.05a.517.517 0 0 0-.199.132.295.295 0 0 0-.06.203l.001.027h-.026a.433.433 0 0 0-.226.048c-.057.034-.1.093-.124.194l-.004.02h-.02c-.26.008-.516.027-.731.147l-.008.005-.009-.002c-.238-.034-.533-.132-.723-.329a.483.483 0 0 1-.063-.067l-.019-.024a.503.503 0 0 0-.035-.043.299.299 0 0 0-.157-.1l-.007-.002-.006-.006c-.048-.058-.099-.076-.137-.071-.038.004-.074.032-.092.085l-.012.035-.029-.023a.272.272 0 0 0-.116-.044.44.44 0 0 0-.17.003.329.329 0 0 0-.16.085.34.34 0 0 0-.084.138.55.55 0 0 1 .226-.092.239.239 0 0 1 .13.02c.04.02.078.052.11.098l.01.014-.008.014a.055.055 0 0 0-.009.028c0 .008.003.016.008.024.01.018.034.037.068.055.069.036.17.064.267.087.075.004.174.04.263.1.09.062.175.15.215.262l.01.026-.027.008a.775.775 0 0 1-.649-.101l-.002-.002a.386.386 0 0 0-.456-.028l-.014.01-.014-.01a.202.202 0 0 0-.139-.02.453.453 0 0 0-.173.067.46.46 0 0 0-.205.273.608.608 0 0 1 .19-.115.276.276 0 0 1 .25.032l.054.035-.063.013a.301.301 0 0 0-.027.007l.006.018.421.244-.061.016c-.094.024-.176.054-.227.114-.042.052-.066.13-.044.261a.52.52 0 0 1 .088-.089.405.405 0 0 1 .395-.056c.008.002.012.007.014.008a.114.114 0 0 1 .01.01v.002a.128.128 0 0 0 .022.023c.009.007.018.01.028.01.01 0 .025-.004.045-.02a.764.764 0 0 1 .342-.192c.141-.044.3-.07.45-.085a3.52 3.52 0 0 0 .128-.017l.048-.007c.058-.009.117-.016.176-.018a.558.558 0 0 1 .327.075.83.83 0 0 1 .288-.09.47.47 0 0 1 .322.09.76.76 0 0 1 .179.088l.062.04c.035.024.07.047.106.068.11.063.224.1.367.04a.377.377 0 0 1 .275-.074.469.469 0 0 1 .25.133.303.303 0 0 0-.123-.207.892.892 0 0 0-.349-.13h-.004l-.202-.12c-.06-.01-.12-.012-.182-.015-.03-.001-.061-.002-.093-.005a.799.799 0 0 1-.294-.068l-.067-.031.072-.018a3.436 3.436 0 0 0 2.148-1.578l.01-.018.486.17a.377.377 0 0 1 .147.04c.038.017.088.038.17.064a.644.644 0 0 0-.135-.417c-.105-.125-.285-.218-.582-.234h-.004l-.797-.304-.004-.004a.669.669 0 0 1-.169-.39.531.531 0 0 1 .135-.427h.002a2.62 2.62 0 0 1 .13-.11l.022-.018.068-.055a.79.79 0 0 0 .16-.206l.008-.011.013-.001a.488.488 0 0 1 .26.076l.015.008c.035.018.068.035.101.048a.285.285 0 0 0 .106.025h.02l.005.018c.017.05.054.1.107.146.053.045.12.087.192.12a.739.739 0 0 0 .443.066l.013-.004.01.01c.161.142.47.224.818.107l.015-.005.012.01a.656.656 0 0 0 .739.109l.017-.009.013.014a.47.47 0 0 0 .425.098l.003-.001h.003a.03.03 0 0 1 .015.004.04.04 0 0 1 .008.005.087.087 0 0 1 .009.01l.018.028c.015.022.033.05.057.082.05.062.12.132.221.169l.04.014-.03.03c-.017.015-.03.049-.037.1a.764.764 0 0 0 .003.173.805.805 0 0 0 .1.326l.01.013-.008.014a.611.611 0 0 0-.032.456l.006.02-.017.01c-.108.07-.167.126-.19.19-.023.064-.013.142.035.258l.005.013-.007.011c-.144.234-.305.368-.474.424a.702.702 0 0 1-.507-.039h-.002l-.353-.228-.369-.361a.14.14 0 0 0-.104-.038.077.077 0 0 0-.045.02.102.102 0 0 0-.029.056l-.005.026-.026-.006h-.005a.535.535 0 0 0-.066-.01.61.61 0 0 0-.16.008.326.326 0 0 0-.161.077.276.276 0 0 0-.078.133.373.373 0 0 1 .28-.045.545.545 0 0 1 .171.07.056.056 0 0 1 .009.008s.005.006.005.015a.029.029 0 0 1-.005.016.067.067 0 0 1-.007.008l-.004.006a.09.09 0 0 0-.014.02.05.05 0 0 0-.005.025c0 .008.002.016.008.027.004 0 .007.002.01.003a4.283 4.283 0 0 1 .2.072 15.033 15.033 0 0 1 .43.178c.162.064.2.083.273.12l-.024.048a12.947 12.947 0 0 0-.269-.12l-.062-.027a1.206 1.206 0 0 0-.342-.08 1.26 1.26 0 0 1-.02-.002c-.078-.007-.153-.014-.22-.006-.072.008-.128.032-.164.086l-.004.007-.008.003c-.022.01-.046.019-.07.028a.936.936 0 0 0-.222.109.338.338 0 0 0-.105.12.34.34 0 0 0-.033.11.337.337 0 0 1 .18-.11.941.941 0 0 1 .295-.003l.033.003-.018.053a.314.314 0 0 0 .1.028.115.115 0 0 0 .064-.014l.025-.014a.388.388 0 0 1 .182-.06h.001c.199-.003.396.03.583.095l.078.027-.08.023a1.03 1.03 0 0 1-.138.027l-.046.007a2.512 2.512 0 0 0-.095.014c-.092.015-.168.04-.216.093a.09.09 0 0 1-.032.027l-.01.006-.014.009a.018.018 0 0 0-.008.012c0 .007 0 .019.007.041l.013.036h-.05a.383.383 0 0 0-.154.05c-.08.046-.17.137-.218.319.15-.088.282-.132.38-.155a.934.934 0 0 1 .167-.024h.016l.101.021.41-.272h.005a.71.71 0 0 0 .011-.004l.004-.001.05-.018a.982.982 0 0 1 .159-.038c.12-.02.27-.016.369.088.15.07.303.076.458-.016h.001l.002-.001c.32-.141.626-.154.924.047l.252.148.102-.068h.004l.007.024-.007-.025h.001l.003-.001.011-.002a.512.512 0 0 1 .172-.006.53.53 0 0 1 .288.13.529.529 0 0 0-.209-.301.404.404 0 0 0-.15-.06h-.012l-.01-.001-.079-.07-.47-.187-.005-.01a.958.958 0 0 0-.06-.114l-.003-.004a.797.797 0 0 1-.063-.122.265.265 0 0 1-.017-.137.313.313 0 0 1 .072-.148l.06-.283c.155-.728.28-1.318-.015-2.088l-.023-.058.058.024c.082.036.158.089.23.145l.075.06c.047.037.094.074.142.108.14.098.283.16.46.102a.272.272 0 0 0-.052-.113 1.012 1.012 0 0 0-.156-.166 4.331 4.331 0 0 0-.551-.391c-.38-.237-.85-.49-1.287-.726a159.71 159.71 0 0 1-.227-.123l-.082-.044.093-.005c.81-.043 1.698-.362 2.29-.858.296-.247.517-.538.618-.86.1-.32.082-.674-.102-1.049l-.005-.01.375-1.174.03.058c.153.308.452.547.733.665a2.452 2.452 0 0 1-.138-.465 7.898 7.898 0 0 1-.098-2.34 23.536 23.536 0 0 1-2.049 2.148c.304.063.582.027.88-.012l.135-.018.047-.006-.34.707-.025-.014c-.492-.291-1.027-.328-1.437-.196-.412.131-.695.428-.698.803.008.22.082.393.198.523s.275.22.454.272c.359.104.795.058 1.113-.099l.046-.022-.008.05c-.034.219-.185.361-.387.452-.2.09-.454.13-.701.143a4.865 4.865 0 0 1-.969-.047h-.004l-.001-.001v-.004.004h-.003l-.002-.001c-.6-.207-1.175-.199-1.8-.19l-.216.004h-.037l.012-.035c.076-.237.325-.456.629-.593.28-.126.612-.185.913-.122a1.213 1.213 0 0 1-.284-.719c-.01-.264.072-.525.219-.766.282-.46.805-.848 1.383-1.044-.285-.106-.447-.245-.51-.409-.067-.177-.014-.374.108-.574.216-.353.655-.73 1.093-1.06a102.334 102.334 0 0 1-1.245.51 41.34 41.34 0 0 1-1.048.408c-.15.055-.282.102-.385.134a2.137 2.137 0 0 1-.131.037.374.374 0 0 1-.084.014h-.002c-.206-.016-.35-.089-.443-.201a.666.666 0 0 1-.136-.417c-.007-.286.102-.616.237-.867a25.992 25.992 0 0 0-4.112 2.769c-.315.275-.426.52-.463.756a1.949 1.949 0 0 0-.013.425c.003.098.006.197.001.298.023.342-.072.666-.286.86l-.005.005-1.447.29-.145-.418.001-.007c.022-.107.078-.191.18-.23.092-.034.218-.029.38.024a.285.285 0 0 0-.105-.232 1 1 0 0 0-.303-.158L9.325 7.1l-.003-.003-.028-.02a.446.446 0 0 1-.102-.095c-.039-.053-.062-.127-.057-.243a.28.28 0 0 1 .026-.157.158.158 0 0 1 .098-.076c.08-.023.185 0 .285.037a1.984 1.984 0 0 1 .369.185.938.938 0 0 0-.054-.212c-.054-.137-.152-.282-.326-.33h-.001c-.216-.076-.312-.305-.225-.479m.63-.881c-.077-.157-.27-.266-.54-.35l-.01-.003-.177-.312-.02-.035-.032-.06a.178.178 0 0 1-.018-.09.304.304 0 0 1 .037-.115c.023-.044.057-.1.105-.17l.003-.005.005-.003.161-.108c.115-.078.238-.161.347-.231l-.14-.017.003-.026.012-.12c.012-.114.022-.207.05-.41a.586.586 0 0 1-.256.15 1.985 1.985 0 0 1-.162.042.833.833 0 0 0-.155.053l-.003.002h-.005a.382.382 0 0 0-.023.005 2.285 2.285 0 0 0-.541.187.618.618 0 0 0-.194.155l-.009.01L6.886 3.3c-.155.02-.295.053-.403.116a.405.405 0 0 0-.206.297l-.003.02-.02.002c-.113.012-.227.02-.34.029-.592.044-1.169.087-1.618.61.107-.007.21-.019.313-.03l.168-.019a2.55 2.55 0 0 1 .58-.001m1.206.098a1.21 1.21 0 0 1 .282.045c.156.044.327.127.417.285l-.036.006a14.424 14.424 0 0 1-1.171.14l.052-.143.124.085.037-.158.128.088.007-.186.16.113v-.275Zm.18-.593a.44.44 0 0 0 .088.195.207.207 0 0 0 .153.067.34.34 0 0 0 .19-.062.477.477 0 0 0 .126-.121.348.348 0 0 0-.068-.022c-.021-.006-.046-.011-.072-.017-.006 0-.012-.002-.017-.003a2.006 2.006 0 0 1-.099-.023.914.914 0 0 0-.3-.014Zm.014-.055a.966.966 0 0 1 .3.018c.031.009.064.016.096.022l.017.004c.026.005.052.01.075.016a.395.395 0 0 1 .072.023.08.08 0 0 1 .026.018.046.046 0 0 1 .015.033v.007l-.004.006a.515.515 0 0 1-.151.152.392.392 0 0 1-.22.07h-.001a.26.26 0 0 1-.19-.084.52.52 0 0 1-.105-.243l-.004-.02.018-.01a.35.35 0 0 1 .056-.013ZM19.324 7.46c-.206-.218-.416-.287-.592-.287a.527.527 0 0 0-.314.103c-.076.058-.11.128-.103.182a.26.26 0 0 0 .162.207c.09.041.207.055.327.045a.957.957 0 0 0 .338-.09c.09-.044.155-.1.182-.16Zm-.592-.313V7.12c.195 0 .423.079.641.316l.01.012-.004.015c-.029.084-.112.154-.214.205a1.01 1.01 0 0 1-.357.095.726.726 0 0 1-.352-.05.312.312 0 0 1-.193-.248c-.011-.08.04-.167.123-.23a.58.58 0 0 1 .345-.115v.027Z" clip-rule="evenodd"/><path fill="currentColor" fill-rule="evenodd" d="M15.703 2.658c.01.005.015.017.013.028a.226.226 0 0 1-.058.095 1.306 1.306 0 0 1-.126.119l-.074.06-2.217 2.298c.177-.072.363-.147.555-.222l.945-.37c.474-.184.943-.367 1.352-.532a.026.026 0 0 1 .034.015.026.026 0 0 1-.014.034l-3.034 1.242L11.754 6.8l1.536-.808c-.308.068-.56.13-.727.18a.026.026 0 0 1-.03-.038.068.068 0 0 1 .014-.016 1 1 0 0 1 .081-.054c.051-.03.123-.07.213-.118.18-.095.432-.222.732-.37a179.84 179.84 0 0 1 2.175-1.05 490.945 490.945 0 0 1 3.067-1.445l.07-.033.012.024-.011-.024a.026.026 0 0 1 .023.047l-5.26 2.767a69.956 69.956 0 0 1 2.076-.388c.633-.11 1.236-.207 1.688-.273.226-.033.414-.058.55-.073a2.991 2.991 0 0 1 .21-.016.05.05 0 0 1 .018.002.05.05 0 0 1 .018.005.026.026 0 0 1-.008.049l-.186.043c-.453.106-1.622.38-2.792.674a59.22 59.22 0 0 0-1.971.525c-.275.08-.508.154-.68.216a2.475 2.475 0 0 0-.24.1c.681-.01 1.683.096 2.58.261.468.087.908.19 1.26.3.175.054.33.112.454.17.124.058.22.118.28.18a.026.026 0 0 1-.025.043 26.672 26.672 0 0 0-2.396-.378 19.1 19.1 0 0 0-1.358-.114 5.236 5.236 0 0 0-.863.02c.167.059.398.171.659.313a16.962 16.962 0 0 1 1.593.994l.81-.144a.026.026 0 0 1 .021.046l-.003.003a.314.314 0 0 0-.046.05.545.545 0 0 0-.087.157c-.047.134-.055.332.115.58a.026.026 0 0 1-.022.041 3.4 3.4 0 0 0-.356.013l.677.926c.156.07.346.127.58.16l.002.001c.274.076.52.13.743.18l.228.05c.083.02.162.038.237.059a.026.026 0 0 1 .045.012c.157.044.297.095.419.162a.993.993 0 0 1 .442.478c.093.203.152.47.178.83a.026.026 0 0 1 .002.023 5.052 5.052 0 0 1 .005.097 7.487 7.487 0 0 1-.063.547 1.85 1.85 0 0 1-.085.34c-.043.114-.101.205-.184.248-.084.043-.186.033-.307-.038a.027.027 0 0 1-.008-.007l-1.914-2.616a3.139 3.139 0 0 1-.268.356l-.017.019a.14.14 0 0 1-.004.005.026.026 0 0 1-.045-.027l.246-.474-.266-.363a1.6 1.6 0 0 1-.108-.056.81.81 0 0 1-.095.242.702.702 0 0 1-.519.352.026.026 0 0 1-.023-.044l.573-.587a1.202 1.202 0 0 1-.393-.39 1.095 1.095 0 0 1-.155-.47v-.007c-.37.042-.666.145-.886.272-.295.17-.454.382-.483.549l.641.318a.406.406 0 0 1 .173.046.345.345 0 0 1 .112.098l.002.002-.022.014.022-.013a.026.026 0 0 1-.034.037l-.266-.132a.573.573 0 0 0-.18.026c-.127.013-.241-.064-.326-.147a.935.935 0 0 1-.76.25l.813 1.646c.19.018.302.064.357.132.059.072.046.159.008.238a.916.916 0 0 1-.163.219 2.413 2.413 0 0 1-.101.1l-.034.032a.027.027 0 0 1-.004.004.849.849 0 0 1-.704.409.512.512 0 0 1-.234.23.34.34 0 0 1-.239.008.579.579 0 0 1-.24-.15l-.003-.004-.001-.002.019-.018-.02.018a.026.026 0 0 1 .016-.044l.538-.07a1.073 1.073 0 0 1-.074-.065l-.01-.011a1.33 1.33 0 0 0-.084-.073.026.026 0 0 1 .01-.046l.932-.207a4.553 4.553 0 0 0-.313-.054 11.212 11.212 0 0 0-.249-.032l-.08-.009-.024-.002h-.005l-.002-.001.002-.026v-.027a.685.685 0 0 0 .654-.502 1.796 1.796 0 0 1-.572-.085.204.204 0 0 1-.032.122.63.63 0 0 1-.128.148 1.413 1.413 0 0 1-.192.141l-.015.009-.005.002-.002.002h-.002l-.002.001a.026.026 0 0 1-.031-.014.026.026 0 0 1 .003-.027l.331-.414a.796.796 0 0 1-.238-.155.655.655 0 0 1-.072-.083.493.493 0 0 1-.176.133 1.536 1.536 0 0 1-.29.103 3.477 3.477 0 0 1-.31.064l-.04.007a.437.437 0 0 0-.025.005l-.005.002a.026.026 0 0 1-.02-.049.048.048 0 0 1 .005-.002l.004-.001.817-.323a.83.83 0 0 1-.095-.487l-1.045-.185a.917.917 0 0 1-.204.215.026.026 0 0 1-.038-.035l.49-.807a1.153 1.153 0 0 0-.965-.225l.004.008a1.688 1.688 0 0 1 .123.37c.046.223.049.498-.143.683a.026.026 0 0 1-.045-.02V10.36c-.272.084-.45.276-.424.51a.026.026 0 0 1-.048.018.042.042 0 0 0-.009-.014.03.03 0 0 1-.005-.005.793.793 0 0 0-.41-.306 3.535 3.535 0 0 1 .012.131c.007.1.014.234.013.377-.002.143-.01.295-.035.43a.7.7 0 0 1-.132.33.026.026 0 0 1-.03.006.026.026 0 0 1-.016-.026l.13-1.262a.75.75 0 0 0-.421.03 1.22 1.22 0 0 1 .002.084c0 .063 0 .15-.008.243a1.832 1.832 0 0 1-.036.256l-.064.946a.026.026 0 0 1-.05.01l.024-.012-.024.011v-.001l-.003-.004a.704.704 0 0 1-.031-.073 1.387 1.387 0 0 1-.06-.188.813.813 0 0 1-.026-.234.369.369 0 0 1 .078-.218.56.56 0 0 0 .104-.244l.037-.553a.714.714 0 0 0-.115.068.195.195 0 0 0-.05.053.086.086 0 0 1-.01.016.043.043 0 0 1-.016.012.034.034 0 0 1-.018.003 3.1 3.1 0 0 1-.147.192.026.026 0 0 1-.017.008.203.203 0 0 1-.038.001h-.003a.442.442 0 0 0-.09.038.307.307 0 0 0-.14.151.026.026 0 0 1-.025.017.257.257 0 0 1-.114-.03.863.863 0 0 1-.14.078.358.358 0 0 1-.08.025c.004.01.01.022.013.037a.42.42 0 0 1-.004.225c-.027.05-.06.082-.1.089-.039.007-.074-.013-.1-.04a.39.39 0 0 1-.095-.215.197.197 0 0 1-.047-.051.266.266 0 0 1-.023-.046 7.468 7.468 0 0 1-.183.406l.003.01a.026.026 0 0 1-.022.033v-.003.003H7.72l-.135.276a.026.026 0 0 1-.01.04.136.136 0 0 1-.013.006 41.582 41.582 0 0 1-.28.554v.002a.026.026 0 0 1-.011.022 29.147 29.147 0 0 0-.299.595c-.072.08-.135.118-.19.124-.057.007-.099-.023-.127-.06a.347.347 0 0 1-.064-.161.222.222 0 0 1-.002-.025c0-.001 0-.004.002-.007l.003-.005.377-.548a.504.504 0 0 1-.05-.065v-.003l-.004-.005a.057.057 0 0 0-.001-.002v-.001l.022-.013-.023.013a.026.026 0 0 1 .034-.037l.075.036.302-.439-.008-.002a1.728 1.728 0 0 1-.152-.055l-.01-.004-.003-.002.01-.024-.01.024a.026.026 0 0 1 .015-.05l.207.043.165-.24a.806.806 0 0 1-.341-.165.026.026 0 0 1-.009-.013c-.087-.27-.017-.443.08-.547a.507.507 0 0 1 .184-.125.646.646 0 0 1-.108-.468 1.28 1.28 0 0 1 .17-.485c-.085 0-.17 0-.258-.002a.026.026 0 0 1-.028-.002.026.026 0 0 1-.003-.049c.032-.085.083-.178.148-.273a1.322 1.322 0 0 1-.76.149 1.167 1.167 0 0 1-.36-.102h-.001l.013-.024-.013.023a.026.026 0 0 1 .01-.049l1.157-.101a1.057 1.057 0 0 1-.022-.162 4.242 4.242 0 0 1 .005-.502 1.739 1.739 0 0 1-.884-.088 1.278 1.278 0 0 1-.31-.176l-.002-.001.017-.02-.017.02a.026.026 0 0 1 .023-.046l1.177.25c.009-.164.024-.347.044-.54a.026.026 0 0 1 .003-.032l.018-.162c-.45-.01-.702-.09-.841-.172a.469.469 0 0 1-.137-.113.24.24 0 0 1-.032-.055v-.001l.025-.008-.025.008a.026.026 0 0 1 .033-.033l.983.322.025-.198a.026.026 0 0 1-.008-.041l.016-.019c.017-.122.035-.244.055-.367A.852.852 0 0 1 7 7.142a1.235 1.235 0 0 1-.23-.2V6.94h-.001v-.001l.02-.017-.02.017a.026.026 0 0 1 .03-.04l.78.341a10.765 10.765 0 0 1 .121-.618c-.25-.02-.41-.086-.509-.15a.537.537 0 0 1-.135-.124l-.001-.001.023-.013-.023.013a.026.026 0 0 1 .033-.038l.625.26.032-.128a5.09 5.09 0 0 1 .152-.497.625.625 0 0 1-.372-.108.993.993 0 0 1-.17-.137l-.003-.003H7.35l.02-.019-.02.018a.026.026 0 0 1 .03-.042l.54.227c.049-.123.1-.23.156-.317a.026.026 0 0 1-.007-.009l-.092-.184-.192.292a.026.026 0 0 1-.045-.003l-.125-.237-.355-.003a.026.026 0 1 1 0-.053l.328.003-.096-.183-.555.073a5.57 5.57 0 0 0-.101.042l-.004.001a4.108 4.108 0 0 1-.11.045.708.708 0 0 1-.182.049m-.022-.052h.003l.009-.031-.061.008.012.023h.037Zm-.105-.016.009.017-.06.001.003-.011.048-.007Zm.174-.023-.01.032a.694.694 0 0 0 .092-.027l-.012-.014-.07.01Zm.955-.136a.026.026 0 0 0-.017-.038l-.004-.001-.179-.342 1.043-.397a.305.305 0 0 1-.007.008.026.026 0 0 0 .018.045.425.425 0 0 1 .29.123 6.605 6.605 0 0 0-.095.063 4.976 4.976 0 0 0-.17.119.026.026 0 0 0 .012.047.401.401 0 0 1 .278.183l-.23.016a.026.026 0 0 0-.023.034l.1.333-.264-.168a.026.026 0 0 0-.036.009l-.164.284-.09-.181a.026.026 0 0 0-.046-.003l-.193.293-.103-.199a.026.026 0 0 0-.013-.023l-.107-.205Zm.598.343.15-.259.299.191a.026.026 0 0 0 .039-.03l-.11-.369.237-.017a.026.026 0 0 0 .022-.035l-.024.01.024-.01V4.99a.227.227 0 0 0-.017-.031.447.447 0 0 0-.26-.201 8.581 8.581 0 0 1 .231-.159l.01-.006a.026.026 0 0 0 .006-.039l-.02.017.02-.017h-.001l-.001-.002a.273.273 0 0 0-.024-.024.489.489 0 0 0-.272-.133.88.88 0 0 0 .028-.04l.448-.17a.8.8 0 0 0 .246-.094.026.026 0 0 0-.022-.047l-.239.09a1.067 1.067 0 0 1-.403.004l-.153-.035a.026.026 0 0 0-.014.05l.002-.007-.002.007.001.001.004.001a.726.726 0 0 0 .074.02c.022.004.049.01.078.014l.014.003a1.163 1.163 0 0 1-.069.12l-1.146.437a.026.026 0 0 0-.014.037l.174.332a.771.771 0 0 0-.17-.004l-.078-.129a.026.026 0 0 0-.048.006l-.041.148-.017.005-.082-.123a.026.026 0 0 0-.047.008l-.042.148-.04.006-.08-.093a.026.026 0 0 0-.045.012l-.02.105-.084.013-.045-.055a.026.026 0 0 0-.046.01l-.018.063-.12.019-.03-.057a.026.026 0 0 0-.049.004l-.023.07-.101.015-.025-.07a.026.026 0 0 0-.049-.001l-.036.089-.088.014-.037-.1a.026.026 0 0 0-.05 0l-.046.122-.09.012a.026.026 0 0 0 .004.052l.201-.003a.026.026 0 0 0 .014.003l.093-.003.007-.002.093-.001a.026.026 0 0 0 .012.003h.09a.03.03 0 0 0 .015-.005l.18-.003m-.213-.05.002-.004-.04.006.038-.001Zm.923-.225-.034-.057-.018.066.052-.01Zm-.18.037-.04-.06-.02.07.06-.01Zm-.217.035-.024-.027-.006.032.03-.005Zm-.852.137-.01-.025-.01.028.02-.003Zm2.543-1.048.2-.075a1.26 1.26 0 0 1-.156-.008 1.19 1.19 0 0 1-.044.084Zm-.435 1.365c-.106.186-.2.455-.282.766l.071.102.202-.11a4.25 4.25 0 0 1 .009-.758Zm-.104.87-.077.041.013.018a1.06 1.06 0 0 0 .064-.06Zm-.106.09-.017-.024-.107.058a.032.032 0 0 0 .006.014c.001.002.004.004.012.004s.02-.002.036-.01a.343.343 0 0 0 .07-.041Zm-.112-.032.065-.035-.042-.06a7.752 7.752 0 0 0-.023.095Zm-.03.128c-.031.14-.06.287-.087.435l.264-.266a.552.552 0 0 1-.022-.112 1.426 1.426 0 0 1-.006-.093.379.379 0 0 1-.056.03.148.148 0 0 1-.057.015.071.071 0 0 1-.036-.009Zm-.103.526-.016.097a.501.501 0 0 1 .024.025 4.648 4.648 0 0 1 .074.083l.197-.226-.085-.14a2.525 2.525 0 0 1-.194.161Zm.233-.198.082.136.2-.23a5.194 5.194 0 0 1-.03-.185 3.314 3.314 0 0 1-.126.15.026.026 0 0 1-.018.02 2.65 2.65 0 0 1-.108.109Zm.24-.354a4.939 4.939 0 0 1-.02-.192 1.15 1.15 0 0 1-.143.139.026.026 0 0 1-.004.01l.036.176.132-.133Zm.095.258a4.452 4.452 0 0 1-.047-1.397.026.026 0 0 0-.013-.026m.062 1.433-.002-.01.002.01Zm-.13.158-.096.11.011.02c.032-.044.06-.088.086-.13Zm-.118.176-.014-.024-.19.219.01.012.007.007a1.945 1.945 0 0 0 .187-.214Zm-.349.115-.03.2.103-.119-.073-.08Zm.109.12-.087.1a.927.927 0 0 0 .101-.084l-.014-.016Zm.061.044a1.411 1.411 0 0 1-.04.037l.052.178.19-.21a3.8 3.8 0 0 1-.074-.139 1.943 1.943 0 0 1-.128.134Zm.166-.178c.093-.113.176-.237.225-.342.018.087.038.172.058.253l-.206.227-.077-.138Zm.063.232-.2.22.018.06a2.451 2.451 0 0 0 .216-.22 1.206 1.206 0 0 1-.034-.06Zm.069.1.009.002a.026.026 0 0 0 .023-.04h-.001l.05-.067a.809.809 0 0 0 .103-.195 5.02 5.02 0 0 0 .08.256l-.218.209-.103-.101c.02-.021.038-.042.056-.064Zm-.095.103a2.31 2.31 0 0 1-.186.171l.068.14.206-.198a1.164 1.164 0 0 1-.088-.112Zm.124.151-.217.209.041.083a1.4 1.4 0 0 0 .232-.248.154.154 0 0 1-.029-.02.368.368 0 0 1-.027-.024Zm.095-.013a1.43 1.43 0 0 0 .096-.17l-.136.13.04.04Zm-.012.01Zm.18-.213a1.477 1.477 0 0 1-.183.316l.08.159.212-.21a3.596 3.596 0 0 1-.109-.265Zm.172.278.002-.011a.026.026 0 0 0-.02-.029 4.092 4.092 0 0 1-.242-.704 5.218 5.218 0 0 1-.075-.34M8.464 8.1l-.178.175.03.06a.872.872 0 0 0 .148-.235Zm-.184.279-.033-.065-.229.225.025.07c.085-.074.167-.151.237-.23ZM8 8.644l-.023-.065-.158.156.023.034A4.618 4.618 0 0 0 8 8.644Zm-.211.046.169-.166-.062-.175a1.507 1.507 0 0 1-.238.147l.131.194Zm-.185-.169a1.405 1.405 0 0 1-.112.044l-.019.006-.002.001h-.002a9.4 9.4 0 0 0-.021.455l.265-.262a.636.636 0 0 1-.048-.086 1.4 1.4 0 0 1-.061-.158Zm.143.285a.138.138 0 0 0 .021.018l-.14.1.119-.118Zm-.3.297.004-.002a3.532 3.532 0 0 0 .106-.067.496.496 0 0 0 .013.066.257.257 0 0 0 .035.08c.01.013.02.024.034.033a3.63 3.63 0 0 0-.17.197 1.009 1.009 0 0 1-.017-.14 2.884 2.884 0 0 1-.005-.167Zm-.1.391a1.269 1.269 0 0 1-.726.142 1.116 1.116 0 0 1-.248-.057l.974-.085Zm.13-.007a1.77 1.77 0 0 0-.145.221 3.31 3.31 0 0 1 .303-.244 7.61 7.61 0 0 1 1.479-.83c.255-.104.496-.174.687-.185a.026.026 0 0 1 .025.038c-.21.404-.359.707-.466.945l.19-.034a5.71 5.71 0 0 1 .505-.581c.082-.08.16-.148.23-.198a.637.637 0 0 1 .131-.076l.005-.004a.068.068 0 0 1 .06-.01c.012.003.02.014.02.027a.026.026 0 0 1-.023.024.185.185 0 0 0-.034.009.139.139 0 0 0-.02.027.695.695 0 0 0-.063.169 3.634 3.634 0 0 0-.08.483l.345-.062c.072-.193.144-.375.208-.524.048-.112.092-.206.129-.274a.757.757 0 0 1 .07-.107.064.064 0 0 1 .027-.017.026.026 0 0 1 .024.007.07.07 0 0 1 .013.016 7.874 7.874 0 0 1 .131.327c.046.125.1.276.156.438l.287-.051a9.266 9.266 0 0 0-.107-.525 4.087 4.087 0 0 0-.083-.309.685.685 0 0 0-.072-.17.026.026 0 0 1 .001-.032.043.043 0 0 1 .034-.015.08.08 0 0 1 .033.008.393.393 0 0 1 .076.043c.059.04.136.105.225.186a13.794 13.794 0 0 1 .681.673l.331-.059c-.313-.44-.687-.865-.998-1.051a.026.026 0 0 1-.005-.04.058.058 0 0 1 .034-.016.192.192 0 0 1 .04 0c.03.003.07.01.117.022.095.023.223.062.374.114a25.63 25.63 0 0 1 1.797.729l.294-.052a16.923 16.923 0 0 0-1.546-.961c-.323-.176-.595-.303-.753-.34a.026.026 0 0 1 0-.052c.226-.048.575-.056.985-.04.41.018.885.06 1.362.115.888.102 1.785.248 2.296.356a1.305 1.305 0 0 0-.183-.102 3.667 3.667 0 0 0-.448-.168c-.349-.109-.787-.21-1.254-.297-.934-.172-1.98-.28-2.657-.258a.026.026 0 0 1-.025-.015.026.026 0 0 1 .004-.028.195.195 0 0 1 .045-.037.69.69 0 0 1 .07-.037 2.51 2.51 0 0 1 .214-.087c.175-.063.41-.137.684-.217a58.1 58.1 0 0 1 1.973-.526c1.07-.269 2.14-.52 2.662-.643-.123.015-.276.036-.452.062a69.11 69.11 0 0 0-1.686.273 66.52 66.52 0 0 0-2.254.425l-1.843.97-.197.205a1.946 1.946 0 0 1-.386.534.716.716 0 0 1-.212.141.347.347 0 0 1-.079.022h-.007v-.026.026a.026.026 0 0 1-.02-.044l.66-.685c.012-.02.023-.042.034-.064L9.35 8.123a.026.026 0 0 1-.009.003c-.138.018-.324.095-.53.213l-.074.044L7.48 9.485a.027.027 0 0 1-.004.002Zm1.261-1.166h-.001c-.001 0-.007 0-.019-.01a.25.25 0 0 1-.04-.042 1.11 1.11 0 0 1-.107-.174 2.262 2.262 0 0 1-.034-.067m.201.293.047-.027c.206-.118.397-.2.545-.22l2.138-1.125c.053-.113.108-.243.162-.39.113-.425.42-.859.813-1.275.395-.416.88-.818 1.353-1.178.342-.26.679-.499.97-.706.11-.078.215-.152.31-.221a9.81 9.81 0 0 0 .347-.258l.248-.258a.026.026 0 0 1 .032-.005m-.512.503-.084.06-.311.223c-.291.206-.627.444-.968.704-.472.359-.954.759-1.346 1.173a5.007 5.007 0 0 0-.371.434c.235-.122.591-.277 1.01-.448l2.07-2.146Zm-3.15 2.689a2.306 2.306 0 0 0-.36.723v.001l-.001.001c-.045.123-.09.234-.136.334l.061-.032 1.353-1.402-.91.373a.026.026 0 0 1-.006.002ZM8.687 8.353a.302.302 0 0 1-.05-.05 1.16 1.16 0 0 1-.119-.197.939.939 0 0 1-.188.295l.099.123c.086-.062.173-.12.258-.171Zm-.301.202-.092-.114a2.711 2.711 0 0 1-.223.212l.06.1.009-.007c.08-.067.163-.13.246-.191Zm-.296.232-.06-.1a4.093 4.093 0 0 1-.252.195l.08.111c.074-.07.152-.14.232-.206Zm-.355.126c-.044.032-.086.06-.123.085l.08.16c.04-.043.083-.086.127-.128l-.002-.002a6.976 6.976 0 0 1-.082-.115Zm-.024.3a4.491 4.491 0 0 1 .164-.164 5.33 5.33 0 0 1 .522-.437l-.686.601Zm3.581-1.935-.447.464a.703.703 0 0 0 .175-.122 1.62 1.62 0 0 0 .272-.342Zm3.213 1.292-.27.048c.128.059.25.117.365.173.167.081.315.158.433.226.051.03.097.058.137.084a3.31 3.31 0 0 0-.312-.27 9.53 9.53 0 0 0-.353-.261Zm.707.624a1.949 1.949 0 0 0-.206-.131 7.667 7.667 0 0 0-.43-.225c-.133-.066-.28-.134-.432-.204l-1.263.225.026.037c.164.24.306.478.408.68.05.101.091.193.12.273.02.055.033.105.04.147.062-.168.227-.352.484-.501a2.33 2.33 0 0 1 .918-.28.026.026 0 0 1 .034-.004c.096-.01.196-.016.301-.017Zm-.283.128a1.04 1.04 0 0 0 .143.395c.08.13.202.266.39.382a.03.03 0 0 1 .016.002.026.026 0 0 1 .013.015l.033.019-.595-.813Zm.49.888-.474.486a.645.645 0 0 0 .398-.308.82.82 0 0 0 .077-.178Zm-2.01-.27a2.415 2.415 0 0 0-.14-.34 6.085 6.085 0 0 0-.445-.731l-.32.057c.207.218.413.442.583.634.136.153.25.287.322.38Zm-1.01-1.049-.012-.012a13.776 13.776 0 0 0-.643-.633 2.423 2.423 0 0 0-.22-.182.506.506 0 0 0-.043-.027c.017.035.034.081.051.134.027.085.056.192.085.313.036.157.073.339.107.527l.674-.12Zm-.666.172.709-.126c.215.225.43.459.605.657.192.217.335.39.383.466a.026.026 0 0 0 .012.01 3.83 3.83 0 0 0-.783.011.026.026 0 0 0-.042-.01l-.021.02a.95.95 0 0 0-.353.129 1.11 1.11 0 0 0-.168.139l-.047.044a.608.608 0 0 1-.194.124.43.43 0 0 0 .028-.115c.008-.072.008-.168.003-.28a8.437 8.437 0 0 0-.09-.81 12.768 12.768 0 0 0-.042-.259Zm-.052.01-.279.049a27.612 27.612 0 0 1 .31.957 6.011 6.011 0 0 1 .093.363 1.893 1.893 0 0 0 .007-.307 8.378 8.378 0 0 0-.089-.805 11.945 11.945 0 0 0-.042-.258Zm.083 1.446a1.122 1.122 0 0 0-.027-.145 5.95 5.95 0 0 0-.076-.28 20.78 20.78 0 0 0-.31-.963l-.685.122a14.21 14.21 0 0 0-.096.27 9.478 9.478 0 0 0-.257.852 2.297 2.297 0 0 0-.056.31v.003c.063-.194.259-.336.5-.395.303-.073.687-.02 1.007.226Zm-1.523-.064.021-.092c.059-.247.154-.556.258-.858l.086-.241-.33.058a8.225 8.225 0 0 0-.035 1.132Zm-.013-1.178c.021-.198.05-.375.084-.505a.976.976 0 0 1 .045-.138 1.98 1.98 0 0 0-.264.22 5.447 5.447 0 0 0-.464.53l.6-.107Zm-.647.169.642-.114-.006.058a7.713 7.713 0 0 0-.013 1.298.727.727 0 0 0-.002.062.786.786 0 0 0-.653-.268.86.86 0 0 0-.308.081.587.587 0 0 0-.144.1l-.028-.204-.001-.055c.005-.052.01-.102.018-.153a1.61 1.61 0 0 1 .094-.2 5.06 5.06 0 0 1 .401-.605Zm-.076.013-.17.03c-.053.12-.095.222-.128.312a2.711 2.711 0 0 0-.073.226 4.97 4.97 0 0 1 .371-.568Zm-.435.603c.02-.082.048-.172.088-.28.03-.082.068-.175.114-.281l-1.754.312c.27 0 .53-.015.795-.07a.026.026 0 0 1 .032.026v.676a2.16 2.16 0 0 1 .435-.358 2.556 2.556 0 0 1 .248-.14l.002-.001.004-.002h.001l.011.023.027.001v.01a8.183 8.183 0 0 0-.003.084Zm-.024-.095.027.001a.026.026 0 0 0-.037-.025l.01.024Zm-.027.043a2.312 2.312 0 0 0-.211.121 2.097 2.097 0 0 0-.47.4.026.026 0 0 1-.045-.016V9.8a3.808 3.808 0 0 1-.694.064l.308 1.097a.146.146 0 0 1 .041-.077c.037-.033.085-.032.125-.023a.412.412 0 0 1 .148.073.254.254 0 0 1 .17-.086.47.47 0 0 1 .05-.168.123.123 0 0 1 .041-.048.044.044 0 0 1 .035-.004.04.04 0 0 1 .025.019.143.143 0 0 0 .06.035.067.067 0 0 0 .04-.001.08.08 0 0 0 .033-.023l.001-.002a.026.026 0 0 1 .022-.011c.009 0 .017.004.021.012l.01.013a.33.33 0 0 0 .025.132l-.06-.09a.145.145 0 0 1-.015.01.37.37 0 0 1-.002-.065m-.174.025v.001c.03.028.058.043.085.05a.12.12 0 0 0 .09-.012l.002.007c.008.06.03.119.068.162a.2.2 0 0 0 .044.037.366.366 0 0 0-.193.178.21.21 0 0 1-.056-.014.026.026 0 0 0-.002-.019l-.1-.2a.468.468 0 0 1 .045-.166.116.116 0 0 1 .017-.024Zm-.115.219a.205.205 0 0 0-.142.085l.014.196a.283.283 0 0 0 .08-.023.777.777 0 0 0 .116-.064.21.21 0 0 1-.033-.044.308.308 0 0 1-.035-.15Zm-.181.27-.008-.1a.18.18 0 0 0-.009.046.073.073 0 0 0 .011.047.037.037 0 0 0 .006.007Zm-.018-.196a.363.363 0 0 0-.128-.063c-.034-.008-.06-.005-.077.011-.018.017-.035.054-.033.134v.002a.323.323 0 0 0 .04.19.145.145 0 0 0 .04.04.026.026 0 0 1 .014.022c.005.07.04.153.081.195.02.021.04.028.054.025.016-.003.038-.017.062-.06a.365.365 0 0 0 .001-.188.193.193 0 0 0-.023-.05.096.096 0 0 1-.061-.038.125.125 0 0 1-.021-.081.287.287 0 0 1 .05-.139Zm.32.097a.15.15 0 0 0 .034.019m-.04-.409a.025.025 0 0 1-.005-.006h.001l.003.002h.006a.023.023 0 0 0-.005.004Zm.096.423a.307.307 0 0 0-.008.018l.024.01.002-.027a.25.25 0 0 1-.018-.001Zm.197-.242a.206.206 0 0 1-.042-.062l.042.062Zm.089.038-.157-.23a.266.266 0 0 1 .019-.097c.016-.039.042-.066.076-.075a.187.187 0 0 0 .062-.006.668.668 0 0 0 .129-.046l.002.015a2.025 2.025 0 0 0 .02.24l.002.009a2.78 2.78 0 0 1-.143.19h-.01Zm.004.007.006-.007h.01l.003.025-.015-.013a.026.026 0 0 1-.017.039m.173-.257-.033-.233v-.016l-.002.001-.002-.016a.125.125 0 0 1-.008-.037l.01-.005v-.087a.596.596 0 0 1 .021-.066m-.02.066a.358.358 0 0 0-.011.092l-.005.002a1.252 1.252 0 0 1-.127.046.124.124 0 0 1-.046.005h-.01c-.058.013-.096.056-.118.107a.312.312 0 0 0-.022.102m.338-.354a10.97 10.97 0 0 1 .005-.293m.057.692.022.015.002-.004m-.277-.213a.07.07 0 0 1 .004 0l-.006-.027-.005.026.007.001Zm-.955.52-.312-1.116a1.373 1.373 0 0 0-.157.453.594.594 0 0 0 .07.39c.069.111.191.21.4.273Zm.03.064a.51.51 0 0 0 .004.06l-.212.308-.152-.546a.892.892 0 0 0 .36.178Zm-.426-.216.179.64-.078.113h-.005a.747.747 0 0 1-.329-.154c-.078-.25-.012-.4.07-.488a.454.454 0 0 1 .163-.111Zm.126.81-.166.241.103.022.127-.258a.653.653 0 0 1-.064-.005Zm.122-.117c.03-.066.06-.127.085-.184l-.097.14.012.044Zm-.05.013-.038.055a.516.516 0 0 0 .044.002h.009l-.016-.057Zm-.17.437a.694.694 0 0 1-.12-.018l-.307.447.17.082a109.921 109.921 0 0 0 .257-.511Zm-.321.539-.136-.066-.003.004.006.005a.207.207 0 0 0 .133.057Zm-.169-.019-.367.534a.296.296 0 0 0 .054.144c.022.027.047.043.08.039.036-.004.086-.03.155-.104.06-.127.158-.322.27-.543a.25.25 0 0 1-.19-.069l-.002-.001Zm-.394.553Zm.704-3.29 1.978-.351c.106-.236.253-.536.46-.938a2.458 2.458 0 0 0-.623.177 7.559 7.559 0 0 0-1.468.825 2.79 2.79 0 0 0-.347.288Zm3.367-.598.646-.115a22.78 22.78 0 0 0-.243-.661 1.45 1.45 0 0 0-.03-.07 10.897 10.897 0 0 0-.374.845Zm1.108 1.4a3.12 3.12 0 0 1-.159.36l.881-.794a.82.82 0 0 0-.246.102.999.999 0 0 0-.157.13l-.05.048a.65.65 0 0 1-.269.154Zm.816-.448-.988.891c.068.002.15-.01.24-.038.117-.035.243-.095.358-.178.217-.155.39-.385.39-.675Zm-1.047.938a1.823 1.823 0 0 1-.035.056h.003a7.201 7.201 0 0 1 .47.026c.132.012.266.03.372.058.053.013.1.03.136.048a.254.254 0 0 1 .036.023c.023-.175.078-.342.13-.473a2.547 2.547 0 0 1 .116-.246 1.104 1.104 0 0 1-.221-.064 1.049 1.049 0 0 1-.32.352 1.31 1.31 0 0 1-.372.186.707.707 0 0 1-.315.034Zm1.108-.591h.003a.968.968 0 0 0 .239.045.88.88 0 0 0 .607-.183l-.848.138Zm.912-.201a1.142 1.142 0 0 1-.123-.166l-.002-.004a3.818 3.818 0 0 0-.796.01.763.763 0 0 1-.063.32l.983-.16Zm-.03-.122c.022.031.05.067.083.102.084.09.192.17.306.159a.71.71 0 0 1 .094-.02l-.483-.24Zm-.729.456a1.795 1.795 0 0 0-.237.786.764.764 0 0 0 .11.459.605.605 0 0 0 .083.1c.152.146.41.249.835.255l-.79-1.6Zm-.348.688a.64.64 0 0 0-.116-.04 2.52 2.52 0 0 0-.363-.056 5.298 5.298 0 0 0-.119-.01l.598.106Zm-.849-.46-.01.02a1.902 1.902 0 0 1-.215.35l.225-.37Zm1.22-2.045 1.211-.215a25.832 25.832 0 0 0-.627-.272 19.56 19.56 0 0 0-1.096-.424 4.486 4.486 0 0 0-.369-.113 1.06 1.06 0 0 0-.076-.016c.31.212.663.623.957 1.04Zm2.327.22a.604.604 0 0 1-.012-.422.598.598 0 0 1 .096-.173l-.682.12c.115.083.22.16.314.233.117.091.214.173.284.241Zm-7.609-.55.018-.008-.003-.006-.015.014Zm.053-.05.013.02a1.465 1.465 0 0 0 .232-.143.417.417 0 0 1-.043-.072l-.202.194Zm.18-.247-.209.201-.092-.142.006-.064a.89.89 0 0 0 .128-.072 2.01 2.01 0 0 0 .116-.085 2.169 2.169 0 0 0 .052.162Zm.148.126a1.46 1.46 0 0 0 .2-.199l.076.152-.223.22-.057-.162a.026.026 0 0 0 .004-.011Zm-.365-.232.021-.015c.048-.032.105-.075.164-.124a.211.211 0 0 1-.02-.043l-.165.182Zm.106-.443a2.58 2.58 0 0 0 .041.202l-.213.235a14.727 14.727 0 0 1 .043-.357.605.605 0 0 0 .13-.08Zm-.198.692.061.095-.075.073.014-.168Zm.722-.944a.734.734 0 0 1-.135.24l-.031-.056.166-.184ZM7.806 5.89l-.29-.122a.634.634 0 0 0 .29.122Zm-.3.652-.315-.131a.877.877 0 0 0 .316.132Zm-.033.71-.57-.25c.034.03.076.065.125.098a.836.836 0 0 0 .445.152Zm-.922.424a.452.452 0 0 0 .107.084c.11.063.299.13.623.155l-.73-.239Zm-.038-.055Zm.75 1.113-.92-.195c.05.03.114.064.197.096.17.066.411.122.722.1Zm1.968 2.622a.412.412 0 0 1-.05.077.316.316 0 0 0-.065.187.761.761 0 0 0 .023.219c.014.059.032.113.049.156l.043-.639Zm.554-.538-.09.886a.92.92 0 0 0 .061-.213c.024-.13.033-.28.034-.42 0-.09-.001-.177-.005-.253Zm.982-.362v.862c.127-.163.125-.387.084-.585a1.693 1.693 0 0 0-.084-.276Zm1.82 1.486-.496.196.102-.024c.097-.025.196-.057.28-.098a.556.556 0 0 0 .114-.074Zm.418.281-.205.255a1.16 1.16 0 0 0 .062-.05.58.58 0 0 0 .118-.135.176.176 0 0 0 .025-.07Zm.677.065a.739.739 0 0 1-.507.52l.165.02c.091.014.185.028.258.043a1.003 1.003 0 0 1 .124.034l.02-.02a10.209 10.209 0 0 0 .1-.097.87.87 0 0 0 .153-.206c.034-.071.038-.133-.002-.182-.04-.05-.132-.093-.311-.112Zm-.096.714-.808.18.045.04.012.012c.02.018.036.034.052.047a.14.14 0 0 0 .092.041l.038-.005h.008a.81.81 0 0 0 .207-.092c.09-.05.204-.124.354-.223Zm-.616.374-.574.076a.584.584 0 0 0 .183.105.29.29 0 0 0 .203-.005.432.432 0 0 0 .188-.176Zm2.716-3.107.198.27.093-.18a2.065 2.065 0 0 1-.291-.09Zm.322.144-.09.174.022.03a.793.793 0 0 0 .045-.095.317.317 0 0 0 .023-.109Zm-.034.25a.912.912 0 0 0 .06-.122.368.368 0 0 0 .027-.113.188.188 0 0 0-.006-.053c.045.01.092.017.14.024.208.058.402.103.58.143l-.317.64a.026.026 0 0 0 .04.033.943.943 0 0 0 .288-.439 1.026 1.026 0 0 0 .043-.215v-.007a38.396 38.396 0 0 0 .338.075c.08.02.158.038.23.057l-.176.614a.026.026 0 0 0 .012.03c.01.006.023.004.032-.004.106-.1.154-.271.176-.411a1.674 1.674 0 0 0 .019-.211c.15.042.28.09.394.153.043.024.085.05.124.08l-.292.465a.026.026 0 0 0 .035.037.18.18 0 0 0 .043-.04.771.771 0 0 0 .046-.063c.033-.048.069-.108.102-.166.033-.058.064-.114.086-.156l.023-.043a.954.954 0 0 1 .252.34c.035.076.065.161.09.258l-.367.114a.026.026 0 0 0 .002.05l.006-.025-.006.026h.004l.01.003a.546.546 0 0 0 .152.01.3.3 0 0 0 .218-.098c.03.135.051.29.065.47l-.38.2a.026.026 0 0 0-.014.027c.002.011.01.02.021.022l.005-.026-.005.026h.004l.01.002a.397.397 0 0 0 .148-.01.383.383 0 0 0 .217-.14l.001.017a7.593 7.593 0 0 1-.058.514l-.351.056a.026.026 0 0 0-.013.046l.017-.02-.017.02.001.001.002.002a.361.361 0 0 0 .138.066.227.227 0 0 0 .201-.052 1.534 1.534 0 0 1-.065.238c-.042.11-.094.185-.159.219-.062.032-.142.03-.252-.034l-1.924-2.63Zm2.388 2.146-.24.04a.27.27 0 0 0 .062.021.175.175 0 0 0 .178-.06Zm.037-.607-.214.114a.33.33 0 0 0 .215-.113Zm-.078-.565-.19.06.03-.002a.267.267 0 0 0 .16-.058Zm-1.006-.473.074-.257a.958.958 0 0 1-.074.256Zm-.564-.455a.924.924 0 0 1-.173.349l.173-.349Zm-.84-.042-.02-.028-.118.229a2.734 2.734 0 0 0 .139-.201Zm-.254.423Zm-.002.004ZM13.462 5.9l4.414-2.322a493 493 0 0 0-2.105.995c-.787.375-1.577.754-2.175 1.05a32.22 32.22 0 0 0-.881.45c.194-.05.45-.11.747-.173Zm-4.02-2.798a.026.026 0 0 1 .008.036.197.197 0 0 1-.003.003l-.583.834a.026.026 0 0 1-.022.011V3.96v.026h-.004a.875.875 0 0 1-.054-.004.992.992 0 0 1-.124-.02.39.39 0 0 1-.126-.048c-.035-.024-.062-.06-.055-.108a.24.24 0 0 1 .081-.13.688.688 0 0 1 .135-.092 1.261 1.261 0 0 1 .18-.079h.001l.003-.002a4.047 4.047 0 0 0 .069-.045 7.942 7.942 0 0 0 .174-.118l-.192.034a.026.026 0 0 1-.023-.044l.018.019-.018-.02a.071.071 0 0 1 .007-.005.33.33 0 0 1 .084-.049.371.371 0 0 1 .23-.012l.07-.052a.652.652 0 0 0 .106-.1l.002-.002a.026.026 0 0 1 .037-.007Zm-.2.216a3.748 3.748 0 0 0 .036-.026l-.448.64h-.001a1.085 1.085 0 0 1-.157-.02.34.34 0 0 1-.109-.042c-.026-.017-.035-.035-.032-.056a.189.189 0 0 1 .064-.098.637.637 0 0 1 .125-.086 1.207 1.207 0 0 1 .172-.075l.003-.001h.001a.026.026 0 0 0 .006-.003l-.014-.022.014.022.001-.001.004-.003.015-.01a7.893 7.893 0 0 0 .32-.22Zm-.959.02a.026.026 0 0 1 .03.018.029.029 0 0 1 .001.01v.01a.657.657 0 0 1-.025.1.507.507 0 0 1-.106.187.026.026 0 0 1-.043-.029l.124-.281a.026.026 0 0 1 .019-.015Zm-.021.028Zm-2.32.363a.026.026 0 0 1 .03.008l-.02.017.02-.017.002.003a.947.947 0 0 1 .027.035c.017.024.04.056.064.093.023.037.047.079.066.12.018.04.032.083.034.12v.001a.27.27 0 0 1-.072.178.459.459 0 0 1-.072.068H6.02v.001l-.016-.021.015.021a.026.026 0 0 1-.041-.019l-.053-.581a.026.026 0 0 1 .017-.027Zm.084.553a.395.395 0 0 0 .027-.029.22.22 0 0 0 .06-.142.307.307 0 0 0-.03-.101.962.962 0 0 0-.097-.165l.04.437Zm1.077-.48a6.045 6.045 0 0 0-.08-.018h-.001a1.055 1.055 0 0 0-.333.001 1.726 1.726 0 0 0-.167.032H6.52l-.001.001.001.005-.001-.005a.026.026 0 0 0 .007.052l.572-.015a11.637 11.637 0 0 1 .39.097l.013.003h.01l-.003-.025.003.026h.004a2.221 2.221 0 0 0 .332-.072.464.464 0 0 0 .122-.057.026.026 0 0 0-.016-.047l-.85.022Zm.197.047a12.68 12.68 0 0 1 .202.052l.007.002a1.525 1.525 0 0 0 .049-.007 2.618 2.618 0 0 0 .266-.06l-.524.013Zm-1.465.158a.026.026 0 0 1 .014.031v.002l-.001.004a3.161 3.161 0 0 0-.05.215.073.073 0 0 1-.013.036.163.163 0 0 1-.028.031.471.471 0 0 1-.075.052 1.034 1.034 0 0 1-.104.051l-.002.001-.01-.024.01.024a.026.026 0 0 1-.032-.039l.258-.375a.026.026 0 0 1 .033-.009Zm-.191.332a.786.786 0 0 0 .078-.052.111.111 0 0 0 .019-.02c.004-.007.004-.01.004-.011v-.004a1.56 1.56 0 0 1 .018-.086l-.12.173Zm.93.035a.026.026 0 0 1-.006.034c-.263.21-.46.293-.594.322a.532.532 0 0 1-.192.009.158.158 0 0 1-.011-.003h-.002l-.001-.001h-.001l.008-.025-.009.024a.026.026 0 0 1 0-.048l.776-.323a.026.026 0 0 1 .032.01Zm-.684.317a.587.587 0 0 0 .072-.012c.094-.02.226-.07.396-.183l-.468.195Zm-.106-.006Zm-1.7.22a.026.026 0 0 1 .011.02l.02.36a.026.026 0 0 1-.05.016l-.187-.3a.026.026 0 0 1 .014-.038l.168-.06a.026.026 0 0 1 .024.002Zm-.144.096.116.186-.011-.223L3.94 5Zm16.835.187-.026-.002.026.002v.01l-.002.013v.01l-.009.088a9.44 9.44 0 0 1-.03.275 4.54 4.54 0 0 1-.048.304 1.284 1.284 0 0 1-.03.125.395.395 0 0 1-.034.088.026.026 0 0 1-.049-.018l.15-.9a.026.026 0 0 1 .052.006Zm-.366.015c.014.005.021.02.016.033l-.311.844a.026.026 0 1 1-.05-.018l.312-.844a.026.026 0 0 1 .033-.015ZM4.067 6.296a.026.026 0 0 1-.009.033.9.9 0 0 1-.179.106.18.18 0 0 1-.104.017.071.071 0 0 1-.058-.066v-.003h.026-.026c0-.013.008-.023.02-.026l.3-.075a.026.026 0 0 1 .03.014Zm-.285.104h.004c.011.003.034.003.073-.014a.44.44 0 0 0 .03-.013l-.107.027Zm-.56.212a.026.026 0 0 1 .003.032c-.075.116-.154.158-.217.17a.208.208 0 0 1-.108-.01l.01-.024-.01.023a.026.026 0 0 1-.002-.047l.293-.15a.026.026 0 0 1 .031.006Zm-.217.149.092-.047a.217.217 0 0 1-.092.047Zm16.757-.074a.026.026 0 0 1 .035-.003l.037.025c.092.063.294.2.436.463a.026.026 0 0 1-.042.03l-.465-.479a.026.026 0 0 1-.001-.036Zm-15.446.176a.026.026 0 0 1 .03-.006l.277.112a.026.026 0 0 1 .007.044.17.17 0 0 1-.132.05.184.184 0 0 1-.102-.053.383.383 0 0 1-.083-.115l-.001-.002v-.001l.023-.011-.024.01a.026.026 0 0 1 .005-.028Zm.083.072c.01.013.02.025.033.037.022.02.047.035.072.038.016.002.034 0 .054-.01L4.4 6.935Zm-.33.089a.026.026 0 0 1 .023.024l.045.75a.026.026 0 0 1-.039.025.274.274 0 0 1-.134-.195.776.776 0 0 1-.003-.26 1.635 1.635 0 0 1 .079-.325V7.04l.025.009-.024-.01a.026.026 0 0 1 .028-.016Zm-.021.173a1.517 1.517 0 0 0-.035.178.725.725 0 0 0 .002.242.25.25 0 0 0 .066.13l-.033-.55Zm14.333.108c-.053.053-.076.109-.07.153a.26.26 0 0 0 .163.208c.09.041.206.054.326.045a.957.957 0 0 0 .338-.09c.09-.044.155-.1.182-.16-.257-.267-.518-.315-.709-.274a.475.475 0 0 0-.23.118Zm.96.222a.485.485 0 0 1-.18.141 1.01 1.01 0 0 1-.357.095.725.725 0 0 1-.352-.05.312.312 0 0 1-.193-.247c-.01-.068.026-.14.085-.198a.52.52 0 0 1 .256-.132c.214-.047.497.012.769.3.005.001.01.003.014.007l-.007.007.007-.007.003.003a.44.44 0 0 1 .092.168c.034.116.04.29-.062.533a.026.026 0 0 1-.05-.009l-.024-.61Zm.054.02.018.453a.663.663 0 0 0 .015-.372.412.412 0 0 0-.033-.081Zm-3.306 1.341.872.7-.006-.007c-.07-.075-.14-.153-.214-.229a2.746 2.746 0 0 0-.383-.342.648.648 0 0 0-.27-.122Zm1.184.951a3.56 3.56 0 0 1-.13-.132l-.149-.16c-.07-.076-.142-.155-.216-.231a2.79 2.79 0 0 0-.39-.35c-.128-.089-.258-.145-.378-.131a.026.026 0 0 0-.014.047l1.242.997c.061.057.118.104.168.133a.026.026 0 0 0 .03-.043l-.163-.13ZM4.431 8.966a.026.026 0 0 1 .03.002l1.307 1.101-.004-.116a.026.026 0 0 1 .051-.008l-.025.007.025-.007.002.004a1.048 1.048 0 0 1 .015.057c.009.036.02.086.028.14l.354.299a1.403 1.403 0 0 1-.17-.381.613.613 0 0 1-.017-.18l.026.005-.026-.006a.026.026 0 0 1 .05-.006l.84 1.634a.026.026 0 0 1-.033.037c-.1-.034-.268-.152-.401-.324a.853.853 0 0 1-.192-.629c-.828-.066-1.383-.411-1.688-.769a1.686 1.686 0 0 1-.03-.035.026.026 0 0 1-.029-.037 1.117 1.117 0 0 1-.217-.446c-.029-.152.001-.284.104-.342Zm.188.798.024.028c.118.138.274.275.472.394.02-.066.06-.155.094-.229a5.074 5.074 0 0 1 .073-.149v-.002h.001l.024.011-.024-.012a.026.026 0 0 1 .048.023l-.168.386c.176.1.382.184.619.245l-.011-.319-1.329-1.119c-.062.046-.089.143-.063.277.023.12.089.265.199.413l.202-.248a.026.026 0 0 1 .044.028L4.8 9.48l.024.01v.001l-.001.003a.836.836 0 0 1-.07.12.588.588 0 0 1-.134.15Zm1.227.71c.124.029.256.05.397.064l-.374-.315a.867.867 0 0 1 .003.113.441.441 0 0 1-.026.138Zm.5.11a.795.795 0 0 0 .179.608c.1.13.22.226.31.276l-.749-1.457a1.55 1.55 0 0 0 .258.537.026.026 0 0 1 .005.02c0 .004 0 .008-.002.013v.002Zm-3.514-1.05-.008.025.008-.025h.003a.369.369 0 0 1 .036.015c.023.01.053.026.082.048.058.043.117.115.096.218a.026.026 0 0 1-.047.011l-.198-.251a.026.026 0 0 1 .028-.041Zm.089.104.073.093a.195.195 0 0 0-.072-.092H2.92Zm7.41 3.386c.01 0 .02.005.024.014l-.023.012.023-.012v.001l.002.002.003.008a.363.363 0 0 1 .027.116.158.158 0 0 1-.032.102c-.025.032-.066.053-.125.06a.026.026 0 0 1-.028-.036l.105-.251a.026.026 0 0 1 .024-.016Zm-.002.1-.059.14a.1.1 0 0 0 .044-.03.103.103 0 0 0 .02-.068.217.217 0 0 0-.005-.042Zm5.664-.004a.026.026 0 0 1 .024 0l-.012.024.012-.024c.002 0 .002.001.003.002a.23.23 0 0 1 .03.02.17.17 0 0 1 .054.065.13.13 0 0 1-.002.11.342.342 0 0 1-.123.13.026.026 0 0 1-.029 0 .026.026 0 0 1-.012-.026l.041-.281a.026.026 0 0 1 .014-.02Zm.032.069-.025.175a.215.215 0 0 0 .054-.068.077.077 0 0 0 .002-.067.12.12 0 0 0-.03-.04ZM4.65 13.35a.026.026 0 0 1 .018.017l-.024.009.024-.01v.002l.002.002.002.009a.202.202 0 0 1 .004.117.135.135 0 0 1-.07.085.31.31 0 0 1-.175.02.026.026 0 0 1-.015-.045l.21-.199a.026.026 0 0 1 .024-.007Zm-.021.076-.133.126a.196.196 0 0 0 .085-.018.082.082 0 0 0 .045-.053.141.141 0 0 0 .003-.055Zm6.98.148a.026.026 0 0 1-.012.035l-.536.281a.026.026 0 0 1-.035-.01.026.026 0 0 1 .01-.036l.537-.281a.026.026 0 0 1 .035.01Zm-5.822.079a.026.026 0 0 1-.018.03l-.198.059-.018.005a5.61 5.61 0 0 1-.2.059 1.308 1.308 0 0 1-.38.054.613.613 0 0 1-.23-.047l-.013-.005a.535.535 0 0 0-.242-.038l-.002-.027-.001-.026a.575.575 0 0 1 .248.036l.798-.054c-.067.02-.13.04-.191.056a1.26 1.26 0 0 1-.365.052h-.001a.557.557 0 0 1-.213-.044l-.014-.005a3.749 3.749 0 0 0-.014-.005m-.248-.036a.026.026 0 0 0 .003.053m-.003-.053 1.275-.086c.013 0 .025.009.027.022m4.12.068c.01 0 .02.005.025.014l-.023.012.023-.012.002.003.001.003.002.005a.316.316 0 0 1 .027.112.171.171 0 0 1-.03.104.206.206 0 0 1-.124.073.026.026 0 0 1-.03-.035l.104-.262a.026.026 0 0 1 .023-.017Zm0 .1-.057.144a.12.12 0 0 0 .04-.034.115.115 0 0 0 .022-.072.199.199 0 0 0-.005-.037Zm5.832-.048a.026.026 0 0 1 .031.005l-.019.018.02-.018a.195.195 0 0 1 .007.008l.018.023a.428.428 0 0 1 .046.078c.029.064.046.152-.018.233a.026.026 0 0 1-.046-.012l-.052-.308a.026.026 0 0 1 .014-.027Zm.076.237-.016-.09c.012.028.019.06.016.09ZM4.33 13.89a.026.026 0 0 1 .026.001l-.014.022.014-.022.002.001v.001a.205.205 0 0 1 .028.023.201.201 0 0 1 .049.068c.012.03.016.067.001.108a.286.286 0 0 1-.105.124.026.026 0 0 1-.042-.024l.027-.281c0-.01.006-.017.014-.021Zm.033.077-.015.165a.176.176 0 0 0 .039-.059.092.092 0 0 0-.001-.07.137.137 0 0 0-.023-.036Zm7.024.028a.026.026 0 0 1-.015.032l-.01-.024.01.024-.002.001a.451.451 0 0 1-.768.156l-.51.104a.026.026 0 0 1-.022-.046l.017.02-.017-.02.004-.003a.865.865 0 0 1 .05-.04.95.95 0 0 1 .133-.08.494.494 0 0 1 .166-.056.19.19 0 0 1 .158.049.099.099 0 0 0 .026.018l.75-.152a.026.026 0 0 1 .03.017Zm-.417.115a1.415 1.415 0 0 1-.16.032l.16-.032Zm-.432.034a.14.14 0 0 0-.11-.028.443.443 0 0 0-.147.049.922.922 0 0 0-.082.047l.34-.068Zm-6.087.095-.017-.02a.026.026 0 0 0 .019.047l.842-.064a.04.04 0 0 1 .004 0H5.3l-.002-.026.003.026a.026.026 0 0 0-.005-.052H5.28c-.011 0-.029 0-.052-.003a.928.928 0 0 1-.2-.047c-.11-.099-.264-.063-.379-.011a1.038 1.038 0 0 0-.21.127l-.003.002v.001h-.001l.017.02Zm.091-.033a.96.96 0 0 1 .127-.07c.116-.051.242-.073.326.006a1.307 1.307 0 0 0 .069.025l-.522.04Zm3.194-.007c.002-.001.007-.005.015-.005.007 0 .014.004.019.009a.026.026 0 0 1 .007.02l-.019.325a.026.026 0 0 1-.046.016c-.056-.064-.05-.157-.034-.227a.546.546 0 0 1 .049-.129s0-.002.002-.003l.002-.002.005-.004Zm5.563.05a.026.026 0 0 1 .043.024l-.05.338a.026.026 0 0 1-.046.012.253.253 0 0 1-.056-.143.25.25 0 0 1 .025-.12.354.354 0 0 1 .075-.102l.006-.006.002-.002.018.02-.017-.02Zm-.023.108a.2.2 0 0 0-.034.12.18.18 0 0 0 .01.05l.024-.17Zm6.02-.101a.026.026 0 0 1 .04.028l-.085.315a.026.026 0 0 1-.022.02.026.026 0 0 1-.026-.014.235.235 0 0 1 .005-.25.37.37 0 0 1 .08-.092l.003-.003.002-.002.002-.001.001-.001.016.021-.016-.021Zm-.038.118-.005.008a.194.194 0 0 0-.03.121l.035-.129Zm-9.123-.071a.026.026 0 0 1 .025-.015l-.002.026.002-.026h.004l.011.002a.481.481 0 0 1 .15.043.19.19 0 0 1 .092.095c.018.047.014.103-.018.171a.026.026 0 0 1-.044.006l-.217-.274a.026.026 0 0 1-.003-.028Zm.085.048a.336.336 0 0 1 .08.028.138.138 0 0 1 .068.069.135.135 0 0 1 0 .088l-.148-.185Zm-5.758.035-.004.026.004-.026h.003l.006.002h.003a.29.29 0 0 1 .112.049c.027.02.051.052.055.095.004.042-.012.09-.053.147a.026.026 0 0 1-.045-.005l-.109-.252a.026.026 0 0 1 .028-.036Zm.092.092a.194.194 0 0 0-.05-.027l.067.156a.132.132 0 0 0 .018-.07.082.082 0 0 0-.035-.059Zm11.623-.05a.026.026 0 0 1 .03-.011l-.008.025.008-.025h.003l.008.003a.369.369 0 0 1 .104.056c.057.042.113.112.098.217a.026.026 0 0 1-.046.013l-.195-.248a.026.026 0 0 1-.002-.03Zm.183.175-.065-.082a.195.195 0 0 1 .065.082Z" clip-rule="evenodd"/><path fill="currentColor" d="m6.836 3.799.35.064s-.245.33-.35-.064Z"/><path fill="currentColor" fill-rule="evenodd" d="M6.818 3.78a.026.026 0 0 1 .024-.007l.348.064a.026.026 0 0 1 .017.041l-.021-.016.02.016v.001a.2.2 0 0 1-.011.014.537.537 0 0 1-.03.033.362.362 0 0 1-.104.076c-.042.019-.092.026-.14-.005-.046-.03-.083-.09-.11-.192a.026.026 0 0 1 .007-.024Zm.318.1-.262-.048c.024.07.05.105.076.12.027.019.058.017.09.002a.31.31 0 0 0 .096-.074Z" clip-rule="evenodd"/></g><defs><clipPath id="a"><path fill="#fff" d="M0 0h24v18H0z"/></clipPath></defs></svg>