<svg xmlns="http://www.w3.org/2000/svg" width="24" height="18" fill="none"><g clip-path="url(#a)"><path fill="#CE1126" d="M0 0h24v18H0V0Z"/><path fill="#007A5E" d="M2.52 2.52h18.96v12.96H2.52V2.52Z"/><path fill="#FCD116" d="M2.52 2.524h18.96L2.52 15.484h18.96L2.52 2.524Z"/><path fill="#CE1126" d="M11.996 11.164a2.16 2.16 0 1 0 0-4.32 2.16 2.16 0 0 0 0 4.32Zm-8.16-2.138c.285.531.723.965 1.257 1.245a4.163 4.163 0 0 0-.424-1.688l-.833.443Z"/><path fill="#FCD116" d="M3.38 7.301c.39.814-1.017 2.764 1.33 3.222a2.37 2.37 0 0 1-.408-1.572c.521.241.95.647 1.219 1.155.614-2.231-1.575-2.092-2.142-2.805Z"/></g><defs><clipPath id="a"><path fill="#fff" d="M0 0h24v18H0z"/></clipPath></defs></svg>