<svg xmlns="http://www.w3.org/2000/svg" width="24" height="18" fill="none"><g clip-path="url(#a)"><path fill="#fff" d="M0 0h24v18H0V0Z"/><path fill="red" d="M10.2 0h3.6v18h-3.6V0Z"/><path fill="red" d="M0 7.2h24v3.6H0V7.2Z"/><path fill="red" fill-rule="evenodd" d="M5.505 13.991c.037-.63.15-1.166.15-1.166s-.368.037-.555.037c-.184 0-.555-.037-.555-.037s.112.536.15 1.17c-.634-.038-1.17-.15-1.17-.15s.037.277.037.555c0 .277-.037.555-.037.555s.536-.113 1.17-.15a8.964 8.964 0 0 1-.15 1.17s.277-.038.555-.038c.277 0 .555.038.555.038s-.113-.536-.15-1.17c.634.037 1.17.15 1.17.15s-.038-.368-.038-.555c0-.184.038-.555.038-.555s-.536.112-1.166.15l-.004-.004Zm13.8-10.8c.037-.63.15-1.166.15-1.166s-.368.037-.555.037c-.184 0-.555-.037-.555-.037s.112.536.15 1.166a9.39 9.39 0 0 1-1.17-.146s.037.277.037.555c0 .277-.037.555-.037.555s.536-.113 1.17-.15c-.038.634-.15 1.17-.15 1.17s.277-.038.555-.038c.277 0 .555.038.555.038s-.113-.536-.15-1.166c.634.037 1.17.15 1.17.15s-.038-.375-.038-.56c0-.183.038-.554.038-.554s-.536.112-1.17.15V3.19Zm-13.8 0c.037-.63.15-1.166.15-1.166s-.368.037-.555.037c-.184 0-.555-.037-.555-.037s.112.536.15 1.17a8.966 8.966 0 0 1-1.17-.15s.037.277.037.555c0 .277-.037.555-.037.555s.536-.113 1.17-.15a8.966 8.966 0 0 1-.15 1.17s.277-.038.555-.038c.277 0 .555.038.555.038s-.113-.536-.15-1.17c.634.037 1.17.15 1.17.15s-.038-.368-.038-.555c0-.184.038-.555.038-.555s-.536.112-1.166.15l-.004-.004Zm13.8 10.8c.037-.63.15-1.166.15-1.166s-.368.037-.555.037c-.184 0-.555-.037-.555-.037s.112.536.15 1.17c-.634-.038-1.17-.15-1.17-.15s.037.277.037.555c0 .277-.037.555-.037.555s.536-.113 1.17-.15c-.038.634-.15 1.17-.15 1.17s.277-.038.555-.038c.277 0 .555.038.555.038s-.113-.536-.15-1.17c.634.037 1.17.15 1.17.15s-.038-.368-.038-.555c0-.184.038-.555.038-.555s-.536.112-1.17.15v-.004Z" clip-rule="evenodd" style="mix-blend-mode:multiply"/></g><defs><clipPath id="a"><path fill="#fff" d="M0 0h24v18H0z"/></clipPath></defs></svg>