<svg xmlns="http://www.w3.org/2000/svg" width="24" height="18" fill="none"><g clip-path="url(#a)"><path fill="#DA000C" d="M0 0h24v18H0V0Z"/><path fill="#fff" d="M0 0h24v12.06H0V0Z"/><path fill="currentColor" d="M7.823 8.177h4.5v3.094h-4.5V8.177Z"/><path fill="#DA000C" d="M10.158 10.82H7.415l-.611.401v.422h3.354v-.823ZM9.012 9.042a.73.73 0 0 1 .717.738v1.034h.513V6.875H7.408v3.937h.886V9.78c0-.394.317-.738.718-.738Z"/><path fill="currentColor" fill-rule="evenodd" d="M7.373 6.84h2.904v4.009h-.084v.83H6.769v-.477l.604-.396V6.841Zm.053 4.016-.587.384v.368h3.284v-.752H7.426Zm2.268-.07H8.329V9.78c0-.376.303-.703.683-.703.373 0 .682.314.682.703v1.005Zm.07-.008h.443V6.911H7.444v3.867h.815V9.78c0-.412.33-.774.753-.774.414 0 .752.348.752.774v.998Z" clip-rule="evenodd"/><path fill="currentColor" d="M8.379 4.218h1.308v2.39H8.379v-2.39Z"/><path fill="#DA000C" d="M9.68 6.236H8.54V5.83h-.836v.407H7.14V5.83h-.344v.73H9.68v-.323Zm-2.546.324h2.461v.316h-2.46V6.56Zm.985-3.214v2.49h.422v-.682c0-.254.175-.465.429-.479h.028a.478.478 0 0 1 .478.479v.682h.4v-2.49H8.12Zm-.162-.337v.337h2.06V3.01h-2.06Zm-.26-.64v.64h2.46v-.64h-.372v.33h-.464v-.33h-.703v.33h-.457v-.33h-.464Zm-.9 8.853h3.375-3.375Zm5.555-.197h-2.279l-.689.33v.492h2.968"/><path fill="currentColor" fill-rule="evenodd" d="M7.662 2.334h.534v.33h.387v-.33h.773v.33h.394v-.33h.443v.71h-.14v.338h-.141V5.87H9.44v-.717a.443.443 0 0 0-.443-.443H8.97c-.232.013-.395.206-.395.443V6.2h1.139v.394H9.63v.316H7.1v-.316h-.338v-.802h.415V6.2h.492v-.408h.415v-2.41h-.162v-.338h-.26v-.71Zm2.46.64v-.57H9.82v.33h-.534v-.33h-.633v.33h-.527v-.33h-.394v.57h2.39Zm-2.13.07v.267h1.99v-.267h-1.99Zm.162.338v2.411h.351v-.64c0-.269.188-.497.463-.513h.03a.513.513 0 0 1 .513.514V5.8h.33V3.382H8.154Zm-.07 2.482h-.345v.407h-.633v-.407h-.274v.66h2.813v-.253h-1.14v-.4h-.421v-.007Zm-.914.73v.247h2.39v-.246H7.17Zm2.895 4.395h2.322v.07H10.08l-.263.127h.354v.07H9.67l-.251.121v.435h2.967v.07H9.349v-.55l.16-.075H6.796v-.07h2.858l.41-.197Z" clip-rule="evenodd"/><path fill="currentColor" fill-rule="evenodd" d="M12.422 11.39H9.385v-.07h3.037v.07Z" clip-rule="evenodd"/><path fill="#F8D80E" d="M13.217 10.546c-.19.07-.351.17-.527.268a5.085 5.085 0 0 0-.626.421c-.07.05-.14.099-.19.17-.07.055-.14.14-.126.245 0 .043.056-.056.098-.063a.31.31 0 0 1 .218-.028c.092-.099.211-.162.31-.24.286-.207.592-.386.914-.534l-.07-.239Z"/><path fill="currentColor" fill-rule="evenodd" d="m13.235 10.51.085.291-.022.01c-.32.147-.624.325-.909.531-.034.027-.071.053-.108.079a5.221 5.221 0 0 0-.05.034.93.93 0 0 0-.147.123l-.011.012-.016-.004a.28.28 0 0 0-.199.026l-.004.002-.004.001a.053.053 0 0 0-.02.012.384.384 0 0 0-.028.028l-.002.002a.495.495 0 0 1-.03.027c-.003.002-.022.012-.039-.002a.034.034 0 0 1-.01-.018.048.048 0 0 1-.002-.011c-.015-.119.063-.21.134-.268a.758.758 0 0 1 .192-.171h.001a5.12 5.12 0 0 1 .629-.425l.08-.045c.146-.082.288-.163.451-.224l.029-.01Zm-.532.328a5.046 5.046 0 0 0-.622.42h-.001a.7.7 0 0 0-.184.163l-.002.003-.003.002c-.057.046-.108.106-.117.177a.31.31 0 0 1 .02-.018c.01-.01.025-.02.041-.024a.337.337 0 0 1 .219-.033c.045-.046.095-.084.145-.12l.052-.035.104-.075h.001c.281-.204.582-.38.897-.528l-.055-.186c-.147.057-.277.131-.415.209l-.08.045Zm-.928.813Z" clip-rule="evenodd"/><path fill="#F8D80E" d="M12.31 11.067v.274-.274Zm.168-.12v.275-.275Zm.17-.105v.267-.267Zm.175-.106v.282-.282Z"/><path fill="currentColor" fill-rule="evenodd" d="M12.823 10.701c.02 0 .035.016.035.035v.282a.035.035 0 1 1-.07 0v-.282c0-.02.015-.035.035-.035Zm-.14.14v.268h-.071v-.267h.07Zm-.17.106v.275h-.07v-.275h.07Zm-.168.12v.274h-.07v-.274h.07Z" clip-rule="evenodd"/><path fill="#F8D80E" d="m10.797 10.56-.084.233c.389.149.76.337 1.11.562.12.085.247.162.338.274.021.056-.035.106-.091.085-.05-.014-.106-.036-.155 0-.077.035-.147.154-.035.19.169.112.429.063.506-.127.043-.098.05-.225-.035-.31-.14-.161-.337-.28-.52-.4a6.27 6.27 0 0 0-1.034-.507Z"/><path fill="currentColor" fill-rule="evenodd" d="M10.808 10.535c.36.137.709.307 1.038.508h.001l.057.038c.165.107.34.22.469.368.095.096.084.236.04.34a.33.33 0 0 1-.239.192.402.402 0 0 1-.306-.051.107.107 0 0 1-.065-.053.1.1 0 0 1-.002-.077.205.205 0 0 1 .1-.11.137.137 0 0 1 .095-.022c.025.002.05.01.07.016.005 0 .009.002.012.003h.002a.044.044 0 0 0 .046-.007.035.035 0 0 0 .011-.037 1.265 1.265 0 0 0-.267-.222 6.06 6.06 0 0 0-1.166-.602l-.026-.01.094-.258.026.01.01-.026Zm.007.063-.066.179c.381.148.747.334 1.09.555h.001l.06.041c.1.07.205.142.284.239l.003.004.001.004a.092.092 0 0 1-.024.102.1.1 0 0 1-.102.019 1.019 1.019 0 0 1-.013-.004.34.34 0 0 0-.058-.013.08.08 0 0 0-.059.013l-.002.002h-.002a.149.149 0 0 0-.074.08c-.005.014-.005.025 0 .033.003.008.012.018.035.025l.004.001.003.002a.346.346 0 0 0 .266.047.274.274 0 0 0 .199-.16c.04-.094.044-.207-.029-.28h-.001c-.124-.142-.291-.251-.457-.359l-.057-.037a6.24 6.24 0 0 0-1.002-.493Z" clip-rule="evenodd"/><path fill="#F8D80E" d="m11.859 11.11-.021.238.021-.239Zm.197.119L12 11.46l.056-.232Zm.21.161-.126.183.127-.183Zm.064.436-.183-.098.183.098Zm.056-.197-.21.021.21-.02Zm-.267.303-.014-.183.014.183Zm-.084-.204-.169.126.169-.126Zm-.83-.977v.218-.218Zm.443.239v.246-.246Zm-.225-.12v.232-.232Z"/><path fill="currentColor" fill-rule="evenodd" d="M11.24 10.75v.219h-.07v-.218h.07Zm.183.085c.02 0 .035.016.035.035v.232a.035.035 0 0 1-.07 0v-.232c0-.02.016-.035.035-.035Zm.26.155v.246h-.07v-.246h.07Zm.12.355.02-.239.071.006-.021.24-.07-.007Zm.162.107.057-.232.068.017-.056.232-.069-.017Zm.146.101.127-.183.058.04-.127.183-.058-.04Zm.06.063.212-.022.007.07-.211.021-.007-.07Zm-.007.08.183.1-.034.061-.171-.092.012.164-.07.005-.014-.182.067-.006.027-.05Zm-.32.13.17-.126.042.056-.169.127-.042-.057Z" clip-rule="evenodd"/><path fill="#F8D80E" d="M10.58 16.003v.562h.352v-.28h.485v.28h.38v-.562H10.58Zm0 .773v.563h1.21v-.563h-.38v.282h-.485v-.282h-.345Z"/><path fill="currentColor" fill-rule="evenodd" d="M10.545 15.968h1.287v.633h-.45v-.282h-.415v.282h-.422v-.633Zm.07.07v.492h.281v-.281h.556v.281h.31v-.492h-1.147Zm-.07.703h.415v.282h.415v-.282h.45v.633h-1.28v-.633Zm.07.07v.493h1.14v-.492h-.31v.28h-.556v-.28h-.274Z" clip-rule="evenodd"/><path fill="#F8D80E" d="M11.79 13.62h.35v4.077h-.35V13.62Z"/><path fill="currentColor" fill-rule="evenodd" d="M11.754 13.584h.422v4.148h-.422v-4.148Zm.07.07v4.008h.281v-4.008h-.28Z" clip-rule="evenodd"/><path fill="#F8D80E" d="M11.79 13.97h.351v3.516h-.351v-3.515Zm.183-1.356.745.436-.745.436-.753-.436.753-.436Zm-1.006.281h-.19v.31h.19l1.006.583.998-.584h.197v-.309h-.197l-.998-.583-1.006.583Z"/><path fill="currentColor" fill-rule="evenodd" d="m11.973 12.27 1.008.59h.222v.38h-.222l-1.008.588-1.015-.589h-.216v-.38h.216l1.015-.588Zm0 .082-.996.578h-.165v.239h.165l.996.578.989-.578h.17v-.24h-.17l-.99-.577Zm0 .22.815.478-.815.476-.823-.476.823-.477Zm-.683.478.683.395.675-.396-.675-.395-.683.396Zm.465.885h.422v3.586h-.422v-3.586Zm.07.07v3.446h.281v-3.445h-.281Z" clip-rule="evenodd"/><path fill="#F8D80E" d="M11.951 11.552a.351.351 0 0 0-.28.358v.788a.352.352 0 0 0 .323.323.344.344 0 0 0 .337-.197l-.12-.07a.205.205 0 0 1-.21.127c-.113 0-.204-.113-.19-.218v-.788a.204.204 0 0 1 .21-.183c.043-.014.106.05.134 0 .043-.063-.028-.105-.07-.14h-.134Zm.408.274a.352.352 0 0 1-.133.112v.528l.14.077v-.717h-.007Z"/><path fill="currentColor" fill-rule="evenodd" d="M11.951 11.517h.147l.01.008.015.012.02.016a.24.24 0 0 1 .037.037.108.108 0 0 1 .023.055.1.1 0 0 1-.018.066.069.069 0 0 1-.052.035.12.12 0 0 1-.05-.007l-.016-.005-.02-.007c-.01-.002-.013-.002-.014-.001l-.006.002h-.007a.17.17 0 0 0-.174.15v.789a.159.159 0 0 0 .04.121.15.15 0 0 0 .115.057h.003a.169.169 0 0 0 .175-.104l.015-.038.183.107-.014.03a.38.38 0 0 1-.372.216.386.386 0 0 1-.356-.355v-.79a.388.388 0 0 1 .31-.394l.006.035v-.035Zm.004.07a.317.317 0 0 0-.25.322v.787a.316.316 0 0 0 .291.29.31.31 0 0 0 .288-.148l-.058-.035a.239.239 0 0 1-.227.113.225.225 0 0 1-.168-.082.23.23 0 0 1-.055-.173v-.789a.238.238 0 0 1 .242-.215.1.1 0 0 1 .047.002l.03.01.01.003a.064.064 0 0 0 .019.004v-.001l.001-.001.001-.001c.007-.01.008-.017.007-.02a.038.038 0 0 0-.009-.02.171.171 0 0 0-.027-.026l-.017-.014-.007-.006h-.118Zm.386.204h.06v.812l-.21-.116v-.57l.02-.01a.317.317 0 0 0 .12-.101l.01-.015Zm-.01.119a.383.383 0 0 1-.07.05v.485l.07.039v-.574Z" clip-rule="evenodd"/><path fill="currentColor" d="M10.932 2.7h2.06v3.74h-2.06V2.7Z"/><path fill="#DA000C" d="M10.791 2.7v3.129h.654V4.9c0-.211.14-.514.555-.514.415 0 .563.303.563.514v.935h.647V2.7h-2.42Zm1.111.351h.197v1.07h-.197V3.05Zm-.584.211h.211v.78h-.21v-.78Zm1.16 0h.204v.78h-.21l.007-.78ZM10.567 2.25v.443h2.869V2.25h-2.869Zm-.267-.52v.52h3.41v-.52h-.429v.28h-.492v-.28h-.549v.28h-.478v-.28h-.555v.28h-.471v-.28H10.3Zm-.633 5.146V7.2h4.676v-.324H9.666Z"/><path fill="currentColor" fill-rule="evenodd" d="M10.264 1.694h.506v.282h.4v-.282h.627v.282h.407v-.282h.619v.282h.422v-.282h.5v.591h-.275v.443h-.225V5.87h-.717V4.9a.487.487 0 0 0-.117-.313.518.518 0 0 0-.41-.166c-.199 0-.327.072-.407.166a.492.492 0 0 0-.114.313v.963h-.724V2.728h-.225v-.443h-.267v-.59Zm3.41.52v-.45h-.359v.282h-.562v-.281h-.478v.28h-.549v-.28h-.485v.28H10.7v-.28h-.366v.45h3.34Zm-3.073.071v.373H13.4v-.373h-2.8Zm.225.45v3.059h.584V4.9c0-.113.037-.25.13-.359a.58.58 0 0 1 .46-.19.59.59 0 0 1 .464.19.557.557 0 0 1 .134.359v.9h.577V2.735h-2.349Zm1.04.281h.268v1.14h-.267v-1.14Zm.071.07v.999h.127v-.998h-.127Zm-.654.141h.282v.85h-.282v-.85Zm.07.07v.71h.141v-.71h-.14Zm1.09-.07h.275v.85h-.282l.008-.85Zm.07.07-.006.71h.14v-.71h-.134ZM9.631 6.841h4.746v.394H9.631v-.394Zm.07.07v.254h4.606v-.253H9.7Z" clip-rule="evenodd"/><path fill="#DA000C" d="M9.469 5.829v1.054h5.062V5.83h-.478v.407h-.647V5.83h-.858v.407h-1.11V5.83h-.858v.407h-.633V5.83h-.478Z"/><path fill="currentColor" fill-rule="evenodd" d="M9.434 5.793h.548v.408h.563v-.408h.928v.408h1.04v-.408h.928v.408h.577v-.408h.548v1.125H9.434V5.793Zm.07.07v.985h4.992v-.984h-.408v.408h-.717v-.408h-.787v.408h-1.182v-.408h-.787v.408h-.703v-.408h-.408Z" clip-rule="evenodd"/><path fill="#DA000C" d="M10.08 7.2v3.825h.9V9.59c0-.668.45-.984 1.02-.984.548 0 1.02.316 1.02.984v1.435h.9V7.2h-3.84Z"/><path fill="currentColor" fill-rule="evenodd" d="M10.045 7.2c0-.02.016-.035.035-.035h3.84c.019 0 .034.015.034.035v3.825c0 .02-.015.035-.035.035h-.9a.035.035 0 0 1-.035-.035V9.59c0-.325-.114-.56-.292-.716A1.042 1.042 0 0 0 12 8.641c-.279 0-.525.077-.7.233-.175.155-.285.39-.285.716v1.435c0 .02-.016.035-.035.035h-.9a.035.035 0 0 1-.035-.035V7.2Zm.07.035v3.755h.83v-1.4c0-.342.116-.598.308-.769.192-.17.456-.25.747-.25.28 0 .544.08.738.25.195.17.316.426.316.77v1.399h.83V7.235h-3.769Z" clip-rule="evenodd"/></g><defs><clipPath id="a"><path fill="#fff" d="M0 0h24v18H0z"/></clipPath></defs></svg>