<svg xmlns="http://www.w3.org/2000/svg" width="24" height="18" fill="none"><g clip-path="url(#a)"><path fill="#E32118" d="M0 0h24v18H0V0Z"/><path fill="#fff" d="M0 0h24v12H0V0Z"/><path fill="#3E9A00" d="M0 0h24v6H0V0Z"/><path fill="#0073CE" d="M0 0v18l6.75-9L0 0Z"/><path fill="#fff" d="M10.56 7.193h2.873V10.2c0 1.013-1.32.233-1.433.773-.195-.555-1.432.247-1.432-.833l-.008-2.947Z"/><path fill="currentColor" fill-rule="evenodd" d="m10.58 7.211.006 2.93c0 .265.077.41.19.492.113.081.268.1.435.101.054.001.109 0 .163-.001l.087-.002c.082 0 .162 0 .236.01.073.01.14.03.196.065a.294.294 0 0 1 .104.112.236.236 0 0 1 .087-.108.423.423 0 0 1 .185-.062c.071-.01.151-.01.234-.009l.098.002c.052.002.105.004.158.004.172 0 .335-.014.456-.089.118-.073.199-.207.199-.456V7.211h-2.835Zm-.02-.018v-.02h2.891V10.2c0 .258-.084.406-.216.488-.13.08-.304.095-.476.094-.054 0-.108-.002-.16-.003l-.096-.002a1.523 1.523 0 0 0-.229.008.387.387 0 0 0-.17.056.206.206 0 0 0-.085.135l-.014.066-.022-.063a.264.264 0 0 0-.11-.141.45.45 0 0 0-.181-.06 1.594 1.594 0 0 0-.23-.01l-.086.002c-.055.001-.11.003-.165.002-.168-.002-.334-.02-.458-.109-.125-.09-.204-.25-.204-.523l-.008-2.947h.02Z" clip-rule="evenodd"/><path fill="#73452B" d="M12.203 10.492s-.038.038-.105.008c-.068-.03-.075-1.928-.075-1.928.15-.165.27-.217.27-.217l.09.075c-.338.172-.308.42-.278.847.008.158.008.36.045.555.053.248.157.458.165.615.008.098-.112.046-.112.046Z"/><path fill="currentColor" fill-rule="evenodd" d="m12.293 8.35.096.08-.005.003a.573.573 0 0 0-.189.144.429.429 0 0 0-.086.182c-.028.127-.017.281-.004.475.002.014.002.029.003.043l.004.097c.005.14.011.301.041.458.024.11.058.213.089.307l.01.034c.034.102.063.195.066.274.002.025-.004.042-.015.052a.06.06 0 0 1-.042.011.163.163 0 0 1-.055-.012l-.003-.001-.005.004a.084.084 0 0 1-.022.01.111.111 0 0 1-.08-.008.011.011 0 0 1-.005-.004.029.029 0 0 1-.003-.006.6.6 0 0 1-.017-.084 3.687 3.687 0 0 1-.018-.223c-.01-.182-.017-.422-.022-.661a68.98 68.98 0 0 1-.01-.656l-.002-.215v-.082h.003-.003V8.57a1.141 1.141 0 0 1 .25-.208.376.376 0 0 1 .016-.008l.004-.002h.001l.002.003-.001-.003.002-.001Zm-.001.01h-.003a.433.433 0 0 0-.073.045 1.13 1.13 0 0 0-.19.169v.08l.002.215c.002.179.005.417.01.656.005.239.013.479.023.66.005.092.01.168.017.223a.626.626 0 0 0 .017.082l.002.005.002.002a.105.105 0 0 0 .075.007.076.076 0 0 0 .024-.013h.001v-.001l.003.002.002-.003h.001l.004.002a.193.193 0 0 0 .053.012c.014 0 .027-.002.036-.01.009-.008.015-.022.013-.045a1.121 1.121 0 0 0-.076-.306c-.031-.095-.065-.198-.089-.309a3.04 3.04 0 0 1-.041-.459 9.71 9.71 0 0 0-.004-.096l-.003-.044c-.014-.193-.025-.349.004-.477a.436.436 0 0 1 .087-.184.576.576 0 0 1 .187-.144l-.084-.07Z" clip-rule="evenodd"/><path fill="#73452B" d="M11.97 8.31h.135c-.112 1.088-.015 1.733-.015 2.048 0 .105.06.143.053.143-.135.15-.203-.008-.203-.008l.03-2.182Z"/><path fill="currentColor" fill-rule="evenodd" d="M11.966 8.306h.143v.004a9.902 9.902 0 0 0-.029 1.752c.008.12.014.218.014.295a.2.2 0 0 0 .046.133l.002.002.003.004.001.001v.002l-.001.004a.19.19 0 0 1-.09.063.084.084 0 0 1-.066-.01.134.134 0 0 1-.05-.055l-.002-.005v-.002l.003-.002-.004.002.03-2.188Zm-.022 2.186.002.005a.142.142 0 0 0 .046.052.08.08 0 0 0 .06.01.182.182 0 0 0 .086-.06l-.002-.002-.002-.002a.207.207 0 0 1-.048-.137c0-.078-.006-.176-.013-.295a9.925 9.925 0 0 1 .028-1.75h-.128l-.03 2.179Z" clip-rule="evenodd"/><path fill="#A36629" d="M11.76 10.492c-.127.06-.142-.06-.134-.075.277-.562.397-1.8.142-1.935l.015-.12c.098.03.188.158.188.158.037 1.387 0 1.957-.023 1.98-.135.142-.187-.023-.195-.038"/><path fill="currentColor" fill-rule="evenodd" d="m11.78 8.358.004.001c.05.016.097.055.131.091a.673.673 0 0 1 .054.063l.003.004.001.001v.002c.02.694.02 1.183.012 1.502-.004.16-.01.277-.015.355a1.28 1.28 0 0 1-.017.121.016.016 0 0 1-.003.005c-.034.036-.063.053-.088.057a.074.074 0 0 1-.062-.017.151.151 0 0 1-.036-.046.255.255 0 0 1-.01-.021l-.003-.006a.077.077 0 0 0-.002-.006l.007-.003a.116.116 0 0 1 .005.012.326.326 0 0 0 .01.02.14.14 0 0 0 .034.045c.014.012.033.02.055.015.023-.004.051-.02.085-.055l.001-.003.002-.006a1.26 1.26 0 0 0 .014-.112c.006-.079.012-.196.015-.355.008-.318.008-.807-.01-1.5h-.001c0-.002-.002-.003-.003-.005a.585.585 0 0 0-.053-.062.345.345 0 0 0-.124-.087l-.014.113a.2.2 0 0 1 .077.1.73.73 0 0 1 .046.181c.02.145.021.33.005.528-.033.397-.133.848-.272 1.13a.024.024 0 0 0 0 .008v.016a.089.089 0 0 0 .017.037.06.06 0 0 0 .04.024c.018.003.042 0 .073-.016l.004.007a.136.136 0 0 1-.079.016.068.068 0 0 1-.044-.026.096.096 0 0 1-.02-.058c0-.005.001-.01.003-.012.138-.28.237-.73.27-1.126a2.485 2.485 0 0 0-.004-.526.722.722 0 0 0-.046-.18c-.02-.048-.046-.082-.076-.098l-.003-.001.016-.127Z" clip-rule="evenodd"/><path fill="currentColor" fill-rule="evenodd" d="m11.796 10.277.133-.558h.008c.007.163-.044.321-.093.453l-.026.067-.015.04-.046.192h-.008a.273.273 0 0 1 .021-.124.878.878 0 0 1 .026-.07Zm.02-.053.02-.054a1.2 1.2 0 0 0 .094-.421l-.114.475Zm-.036.115c0 .004-.002.007-.003.01a.377.377 0 0 0-.022.096l.025-.106Zm.42.153a1.167 1.167 0 0 0-.083-.508l.007-.003c.068.188.098.354.083.512h-.008Z" clip-rule="evenodd"/><path fill="#009A3B" d="M12.412 7.8c.045-.052.045-.052.128-.052.015-.113.202-.113.217.03.15-.03.18.06.12.15.143-.038.27 0 .233.165.255.067.157.247.045.285-.015.112-.12.15-.263.105-.18.127-.285.082-.367-.045-.203.03-.218-.015-.308-.128-.157.068-.187.068-.322-.015-.008.105-.045.075-.113.068.008.135-.045.195-.165.15.09.187-.142.27-.255.112-.105.008-.112-.022-.165-.06-.045.15-.21.128-.24.045-.21-.03-.187-.142-.015-.15.015-.12.12-.097.188-.082.007-.075.052-.06.09-.045-.023-.053-.008-.083.06-.098-.098-.127-.038-.172.06-.217-.053-.12.037-.113.105-.12-.008-.128.03-.15.165-.165-.015-.045.007-.083.082-.083-.045-.127.015-.157.15-.135.023-.187.42-.097.39.158.113.015.15.037.18.127Z"/><path fill="currentColor" fill-rule="evenodd" d="M11.918 7.428a.102.102 0 0 0-.072.087v.004h-.004a.38.38 0 0 0-.086-.007.097.097 0 0 0-.054.017.057.057 0 0 0-.02.043.2.2 0 0 0 .014.077l.002.005h-.006c-.037 0-.06.009-.072.023-.012.013-.014.032-.006.054l.001.004-.005.001a.55.55 0 0 0-.083.014.12.12 0 0 0-.05.025c-.024.022-.032.058-.028.122v.004h-.004a.822.822 0 0 1-.052.005.12.12 0 0 0-.044.012.04.04 0 0 0-.02.031.132.132 0 0 0 .014.067l.002.003-.004.002a.414.414 0 0 0-.063.034.106.106 0 0 0-.038.042c-.014.03-.006.072.043.135l.004.005-.006.001c-.034.008-.053.019-.062.033-.008.015-.007.034.004.06l.004.008-.008-.003a.213.213 0 0 0-.029-.01.057.057 0 0 0-.025-.001.03.03 0 0 0-.02.014.087.087 0 0 0-.011.039v.004l-.005-.001a.284.284 0 0 0-.112-.01.081.081 0 0 0-.046.026.113.113 0 0 0-.025.063v.003h-.003a.24.24 0 0 0-.099.022c-.022.012-.033.027-.034.041 0 .015.01.03.034.046a.31.31 0 0 0 .114.034h.002l.001.002c.014.04.061.065.11.063.05-.003.1-.034.123-.107l.001-.005.005.003.027.021.006.005a.17.17 0 0 0 .029.02c.02.011.048.017.1.013h.002l.002.002c.055.077.14.095.199.071a.107.107 0 0 0 .063-.064.156.156 0 0 0-.014-.116l-.004-.009.009.004c.06.022.1.018.126-.007.026-.025.037-.072.034-.14v-.004h.004l.034.006a.62.62 0 0 0 .011.002.082.082 0 0 0 .032.001c.008-.002.015-.007.02-.018a.16.16 0 0 0 .011-.055v-.006l.006.004c.067.04.108.06.15.063a.41.41 0 0 0 .169-.049h.003l.001.001.021.027c.014.017.025.032.037.045.017.02.033.034.053.045.039.02.092.025.193.01h.003l.001.001c.041.064.087.106.145.117.057.01.128-.01.217-.073h.004c.07.022.131.024.176.006a.126.126 0 0 0 .081-.108v-.003h.003c.055-.019.106-.072.113-.128a.102.102 0 0 0-.03-.083.264.264 0 0 0-.128-.067l-.004-.001.001-.004a.182.182 0 0 0 0-.098.099.099 0 0 0-.047-.056c-.043-.025-.11-.025-.18-.006l-.01.002.005-.008c.03-.044.037-.088.019-.116-.018-.028-.06-.043-.135-.028h-.004v-.003a.113.113 0 0 0-.106-.108c-.049-.003-.097.024-.104.078v.003h-.053a.09.09 0 0 0-.029.006c-.014.006-.025.019-.048.045l-.003-.002h-.003a.167.167 0 0 0-.058-.089.272.272 0 0 0-.12-.035h-.003v-.004c.015-.125-.075-.21-.172-.24a.225.225 0 0 0-.138-.004Zm.496.364c.02-.022.03-.035.047-.042a.096.096 0 0 1 .03-.006h.046c.009-.057.06-.085.112-.081a.12.12 0 0 1 .112.11c.073-.014.119 0 .138.032.02.03.013.073-.013.116.068-.016.133-.015.177.01.023.013.04.032.05.06.009.026.01.058.001.099.063.016.104.04.13.067a.11.11 0 0 1 .03.09c-.007.059-.06.113-.116.133a.133.133 0 0 1-.085.112.278.278 0 0 1-.18-.006c-.09.064-.161.085-.222.073-.06-.011-.107-.055-.148-.118-.1.015-.155.011-.196-.01a.198.198 0 0 1-.055-.047l-.037-.046-.019-.024a.409.409 0 0 1-.168.048c-.044-.002-.085-.022-.15-.06a.155.155 0 0 1-.01.05c-.007.013-.015.02-.026.022a.089.089 0 0 1-.035 0 .787.787 0 0 1-.012-.003l-.029-.004c.003.065-.008.114-.036.14-.027.027-.07.031-.125.012.019.044.02.082.01.113a.115.115 0 0 1-.068.07c-.062.024-.15.005-.206-.073-.052.003-.08-.002-.103-.014a.18.18 0 0 1-.03-.021l-.006-.005-.022-.018c-.024.073-.077.104-.128.107-.05.003-.1-.023-.117-.065a.316.316 0 0 1-.115-.035c-.025-.015-.038-.033-.037-.052 0-.018.014-.035.038-.047a.243.243 0 0 1 .098-.023.119.119 0 0 1 .027-.064.089.089 0 0 1 .05-.028.28.28 0 0 1 .11.009.089.089 0 0 1 .013-.039.038.038 0 0 1 .024-.017.065.065 0 0 1 .029.002.179.179 0 0 1 .021.007c-.008-.023-.01-.043 0-.058.01-.017.03-.028.06-.036-.046-.061-.055-.104-.04-.138a.114.114 0 0 1 .04-.045.403.403 0 0 1 .062-.034.134.134 0 0 1-.014-.067.047.047 0 0 1 .025-.036.127.127 0 0 1 .046-.013.575.575 0 0 1 .027-.003h.003a.94.94 0 0 0 .019-.002c-.003-.062.004-.1.03-.124a.127.127 0 0 1 .054-.027.536.536 0 0 1 .08-.014c-.006-.022-.004-.042.01-.057.013-.016.037-.025.072-.026a.198.198 0 0 1-.013-.075.064.064 0 0 1 .024-.048.104.104 0 0 1 .057-.018.378.378 0 0 1 .084.005.11.11 0 0 1 .077-.09.233.233 0 0 1 .142.004c.099.031.192.117.179.245a.273.273 0 0 1 .118.036c.027.018.044.046.059.087Z" clip-rule="evenodd"/><path fill="currentColor" fill-rule="evenodd" d="m12.023 7.793-.07.039.007-.012a.067.067 0 0 1 .06-.034l.211-.117.005.005a.101.101 0 0 1-.036.03l-.013.007a.343.343 0 0 0-.033.019.106.106 0 0 0-.036.039.115.115 0 0 0-.009.068l-.007.002a.11.11 0 0 0-.08-.046Zm-.02.002-.027.015a.058.058 0 0 1 .028-.015Zm.031-.008a.116.116 0 0 1 .066.038.114.114 0 0 1 .011-.06.114.114 0 0 1 .039-.041.214.214 0 0 1 .013-.009l-.129.072Zm.153-.085a.415.415 0 0 0 .01-.005l.002-.002-.011.007Zm-.579.033.004-.006.021.007h.002a.085.085 0 0 1 .023.009c.011.006.02.017.026.037l.012.01a.095.095 0 0 1 .034-.03.047.047 0 0 1 .047.003.094.094 0 0 1 .034.046.221.221 0 0 1 .013.079v.007l-.127-.095a.212.212 0 0 0-.008.015l-.006.01-.002-.012a.176.176 0 0 0-.004-.028l-.069-.052Zm.065.04a.045.045 0 0 0-.019-.024.078.078 0 0 0-.021-.008h-.002l.042.032Zm.013.019.002.01a.1.1 0 0 1 .003-.006l-.005-.004Zm.016.002.114.086a.208.208 0 0 0-.012-.068.086.086 0 0 0-.03-.043.04.04 0 0 0-.04-.002.088.088 0 0 0-.032.027Zm.684.14a.322.322 0 0 0 .02-.088l-.02.088Zm-.014.028.037-.165h.007a.499.499 0 0 1-.007.078.25.25 0 0 1-.03.09l-.007-.003Zm.507-.04h.001l.002.004c0 .002-.001.003-.002.003l-.002.001-.002.001a.099.099 0 0 1-.014.002l-.14.033-.004-.006a.231.231 0 0 1 .103-.031.975.975 0 0 1 .031-.003h.008l.019-.005Zm-.13.03a.274.274 0 0 1 .057-.014l-.057.014Zm-1.123.085a.363.363 0 0 0-.058.07l-.004.007-.002-.008a.073.073 0 0 0-.023-.035.073.073 0 0 0-.033-.014.166.166 0 0 0-.05-.001h-.018v-.007l.184-.02a.128.128 0 0 1 .046-.028c.029-.009.05.003.058.02l.003.005-.103.01Zm-.013.001a.38.38 0 0 0-.047.059.077.077 0 0 0-.023-.031.08.08 0 0 0-.038-.017l.108-.011Zm.023-.01.08-.008c-.007-.011-.023-.018-.045-.012a.11.11 0 0 0-.035.02Zm.32-.008-.066-.013a.13.13 0 0 1 .067.013Zm.027.005c-.04-.023-.081-.032-.112-.02l-.012.004.121.024.003.001a.325.325 0 0 1 .111.118l.005.007.002-.008c.015-.04.033-.056.052-.063a.12.12 0 0 1 .032-.006h.008l.025-.003v-.007l-.235-.047Zm.017.011c.036.025.07.061.097.106.015-.037.033-.053.054-.06a.127.127 0 0 1 .033-.007h.009L12 8.037Zm.603.118-.084-.006a.105.105 0 0 1 .084.006Zm.017 0a.116.116 0 0 0-.119-.007l.002.007.115.008.002.002a.294.294 0 0 1 .067.071l.003.004.003-.004a.137.137 0 0 1 .062-.051.177.177 0 0 1 .063-.008v-.007l-.198-.014Zm.012.01a.327.327 0 0 1 .054.058l.004.005a.14.14 0 0 1 .063-.05.111.111 0 0 1 .013-.004l-.134-.01Zm-.386.025-.032.12-.008-.001a.177.177 0 0 0-.002-.027.203.203 0 0 1-.002-.032.07.07 0 0 1 .008-.033.058.058 0 0 1 .029-.024l.007-.003Zm-.034.097.023-.084a.047.047 0 0 0-.018.018.064.064 0 0 0-.008.029l.002.031v.005l.001.001Zm-.913-.057h.12a.207.207 0 0 0-.062-.012.105.105 0 0 0-.058.012Zm.058-.02a.22.22 0 0 1 .083.02l-.002.007h-.16l.007-.006c.016-.016.044-.022.072-.02Zm.373.03c-.013.012-.022.035-.019.068l.001.008-.006-.004c-.036-.022-.086-.014-.107.021l-.007-.004c.023-.037.073-.046.111-.027-.001-.031.008-.054.022-.068.015-.015.035-.02.052-.011l-.003.007c-.014-.007-.03-.004-.044.01Zm1.206.035.002-.008c.021 0 .037.006.05.015a.072.072 0 0 1 .017.018l.118.057.027.012.007.004-.003.007-.034-.017a.123.123 0 0 0-.027-.007.07.07 0 0 0-.036.003.077.077 0 0 0-.034.027l-.006.009v-.011c0-.015 0-.043-.01-.066A.08.08 0 0 0 13 8.306l-.064-.03Zm.052.016a.067.067 0 0 0-.03-.014l.03.014Zm.024.02.001.004c.009.02.01.043.01.058a.074.074 0 0 1 .063-.026l-.074-.036Zm-.41.047a.068.068 0 0 1 .046.015l.004.004-.13.065v-.006c0-.01.004-.022.01-.033a.103.103 0 0 1 .029-.03.076.076 0 0 1 .04-.015Zm-.072.072.108-.054a.062.062 0 0 0-.073.002.095.095 0 0 0-.026.029.07.07 0 0 0-.01.023Zm.33-.068.006-.003c.007.011.015.023.021.041.006.019.01.043.01.081l-.008.001-.03-.12Zm.012.022.016.061a.196.196 0 0 0-.016-.06Zm-1.438.126.077.011a.066.066 0 0 0-.032-.013.129.129 0 0 0-.045.002Zm-.016-.004a.086.086 0 0 0-.052-.067c-.03-.01-.069-.002-.11.04l-.003.002.104.152.002-.009a.122.122 0 0 1 .037-.068l.003-.003c.006-.006.012-.011.015-.017a.033.033 0 0 0 .006-.02l.108.015-.005-.007c-.008-.012-.024-.02-.043-.023a.143.143 0 0 0-.062.005Zm-.155-.024c.04-.039.075-.045.1-.036a.08.08 0 0 1 .049.066.025.025 0 0 1-.004.02.092.092 0 0 1-.014.016l-.003.003a.128.128 0 0 0-.037.064l-.091-.133Z" clip-rule="evenodd"/><path fill="gold" d="m11.902 6.768-.164.008-.083.15-.09-.143-.165.008.075-.15-.09-.139.172-.007.075-.15.09.142.165-.007-.075.15.09.138Zm-.704.057-.165.037-.045.161-.12-.12-.158.038.045-.158-.113-.12.158-.04.045-.162.12.12.165-.038-.053.162.12.12Zm-.683.138-.15.075-.008.165-.142-.09-.15.075.015-.168-.143-.09.15-.075.015-.169.136.094.15-.075-.008.165.135.093Zm1.605-.195.165.008.075.15.09-.143.165.008-.075-.15.09-.139-.165-.007-.082-.15-.09.142-.165-.007.075.15-.083.138Zm.705.057.158.037.044.161.12-.12.158.038-.045-.158.12-.12-.165-.04-.045-.162-.12.12-.158-.038.046.162-.113.12Zm.675.138.15.075.008.165.142-.09.15.075-.007-.168.135-.09-.15-.075-.008-.169-.143.094-.15-.075.015.165-.142.093Z"/><path fill="currentColor" fill-rule="evenodd" d="m11.631 6.318.098.156.18-.008-.082.163.099.152-.18.008-.09.163-.098-.155-.18.008.082-.163-.099-.152.188-.008.082-.164Zm.752.001.09.163.18.008-.098.152.082.163-.18-.008-.099.156-.082-.164-.179-.008.09-.151-.081-.164.18.008.097-.155Zm-.001.052-.083.13-.15-.007.068.137-.075.126.151.007.068.136.082-.13.15.007-.068-.137.081-.125-.15-.007-.074-.137Zm-.748 0 .081.13.15-.007-.068.137.082.126-.15.007-.075.136-.082-.13-.15.007.068-.137-.082-.125.158-.007.068-.136Zm-.796.065.131.13.18-.04-.057.175.131.132-.18.04-.05.176-.13-.13-.172.04.05-.172-.123-.13.171-.045.05-.176Zm2.338 0 .05.176.18.045-.131.13.049.172-.173-.04-.13.13-.05-.175-.171-.041.123-.132-.05-.175.173.04.13-.13Zm-.013.05-.11.11-.142-.034.04.147-.101.109.143.034.04.147.11-.11.143.034-.04-.143.108-.11-.15-.037-.04-.147Zm-2.312 0-.04.147-.144.038.103.11-.041.142.142-.034.11.11.04-.148.15-.033-.109-.11.048-.146-.15.034-.109-.11Zm-.76.177.147.102.164-.082-.009.18.147.103-.162.081-.009.18-.155-.098-.164.082.016-.184-.155-.098.164-.082.016-.184Zm3.84 0 .01.184.162.081-.147.099.008.184-.163-.082-.156.098-.008-.18-.163-.082.155-.102-.017-.18.164.082.156-.102Zm-.023.047-.13.085-.136-.068.014.15-.13.085.137.069.006.15.13-.082.137.068-.007-.154.122-.081-.136-.069-.007-.153Zm-3.795 0-.013.154-.136.067.13.082-.014.154.136-.068.13.082.006-.15.137-.069-.123-.085.007-.15-.137.068-.123-.085Z" clip-rule="evenodd"/><path fill="#fff" d="m13.703 10.14.187.27.173-.255-.12-.218-.24.203Zm-1.193.787.015.27s.075 0 .143-.022a.436.436 0 0 0 .112-.068l-.007-.142-.263-.038Zm-1.005 0-.015.263s-.067 0-.135-.015a.369.369 0 0 1-.112-.053l-.075-.18.337-.015Zm-1.207-.787-.195.27-.21-.345.157-.165.248.24Z"/><path fill="currentColor" fill-rule="evenodd" d="m10.05 9.881.265.258-.213.295-.226-.37.174-.183Zm0 .038-.141.148.194.32.177-.245-.23-.223Zm3.896-.002.132.239-.188.277-.205-.295.261-.22Zm-.226.225.17.245.157-.233-.108-.196-.219.184Zm-1.224.77.289.041.008.16-.004.004-.01-.01.01.01-.001.001-.002.002c-.002 0-.004.003-.007.005a.514.514 0 0 1-.107.062.472.472 0 0 1-.134.023h-.013v-.013.014h-.013l-.016-.299Zm.041.272a.487.487 0 0 0 .126-.021.367.367 0 0 0 .1-.059l.004-.002-.007-.126-.236-.033.013.241Zm-1.018-.27-.017.29h-.015l-.01-.001a1.027 1.027 0 0 1-.125-.015.356.356 0 0 1-.107-.048l-.008-.005-.002-.001.007-.011-.007.01-.003-.002-.084-.2.37-.017Zm-.266.2.006.003a.33.33 0 0 0 .19.058l.028.002.014-.236-.304.014.066.159Z" clip-rule="evenodd"/><path fill="#fff" d="M11.235 11.468c0 .255 1.545.255 1.545 0v-.36c0 .187-1.545.15-1.545 0v.36Z"/><path fill="currentColor" fill-rule="evenodd" d="M12.754 11.13c.01-.008.013-.015.013-.022h.026v.36c0 .04-.03.07-.073.095a.667.667 0 0 1-.179.061 2.64 2.64 0 0 1-.534.048 2.64 2.64 0 0 1-.534-.048.668.668 0 0 1-.178-.061c-.044-.024-.073-.056-.073-.095v-.36h.026c0 .003.002.009.012.016.01.008.025.015.046.022.04.015.1.028.172.039.144.021.337.034.53.036.192.003.385-.005.529-.026a.81.81 0 0 0 .172-.04.155.155 0 0 0 .045-.024Zm.013.024a.191.191 0 0 1-.049.026.83.83 0 0 1-.178.041c-.145.02-.34.029-.533.027a4.18 4.18 0 0 1-.533-.037.995.995 0 0 1-.177-.04.217.217 0 0 1-.05-.023v.32c0 .024.02.049.06.072.041.023.1.043.172.059.144.031.336.047.528.047.193 0 .385-.016.529-.048a.645.645 0 0 0 .171-.058c.041-.023.06-.048.06-.072v-.314Z" clip-rule="evenodd"/><path fill="#fff" d="M9.855 10.635c.135.69 1.38.705 1.38.705v-.233c-.03-.09.023-.12.225-.15.082-.007.045-.127.045-.127s-.54.097-.923-.053c-.517-.21-.592-.615-.592-.615s-.038.315-.135.473Zm4.297 0c-.127.69-1.372.705-1.372.705v-.233c.023-.09-.03-.12-.232-.15-.083-.007-.038-.127-.038-.127s.54.097.922-.053c.51-.21.57-.615.57-.615s.053.315.15.473Z"/><path fill="currentColor" fill-rule="evenodd" d="M10.103 10.384c.082.126.229.277.485.381.188.074.417.087.599.082a2.58 2.58 0 0 0 .292-.026l.018-.003h.006l.002.012.013-.004v.002l.001.004a.277.277 0 0 1 .008.06.097.097 0 0 1-.014.05.066.066 0 0 1-.051.029.98.98 0 0 0-.123.023.246.246 0 0 0-.071.027c-.016.01-.023.02-.026.032a.092.092 0 0 0 .006.05v.25h-.013v-.013.013h-.014c-.01 0-.023 0-.04-.002a2.917 2.917 0 0 1-.589-.092c-.328-.09-.68-.268-.75-.621l.013-.003-.011-.007c.047-.077.08-.193.102-.291a2.169 2.169 0 0 0 .03-.172l.001-.003v-.001h.026v.003a.536.536 0 0 0 .018.06.87.87 0 0 0 .082.16Zm-.109-.16a2.19 2.19 0 0 1-.022.119 1.052 1.052 0 0 1-.103.294c.068.334.404.507.73.597a2.764 2.764 0 0 0 .623.093v-.217a.117.117 0 0 1-.006-.063.08.08 0 0 1 .037-.048.273.273 0 0 1 .08-.03.871.871 0 0 1 .125-.024h.001c.017-.002.026-.009.032-.018a.071.071 0 0 0 .01-.036.186.186 0 0 0-.004-.04l-.002-.006-.012.002a2.659 2.659 0 0 1-.295.026 1.605 1.605 0 0 1-.61-.083 1.044 1.044 0 0 1-.497-.391.815.815 0 0 1-.087-.174Zm1.511.606.013-.004-.004-.01-.011.001.002.013Zm2.485-.67h.026v.004l.002.01.007.038c.007.031.016.075.029.124.025.099.062.215.11.292l-.011.007.013.002c-.066.354-.416.532-.744.622a2.776 2.776 0 0 1-.638.094h-.003v-.013.013h-.014v-.249a.094.094 0 0 0 .002-.05.06.06 0 0 0-.028-.033.255.255 0 0 0-.072-.027 1.303 1.303 0 0 0-.123-.023.062.062 0 0 1-.05-.03.093.093 0 0 1-.011-.05.215.215 0 0 1 .01-.06l.002-.004v-.001l.013.004.002-.013h.002l.005.001.017.003a2.333 2.333 0 0 0 .292.026c.183.005.411-.008.6-.082a.966.966 0 0 0 .47-.38.757.757 0 0 0 .088-.208l.003-.012v-.004Zm.01.064-.002.01a.782.782 0 0 1-.078.164.992.992 0 0 1-.482.392 1.606 1.606 0 0 1-.61.083 2.656 2.656 0 0 1-.296-.026l-.013-.002a.184.184 0 0 0-.008.046c0 .015.002.027.007.037.005.008.014.015.03.016h.001c.051.008.093.016.127.024.033.009.06.019.08.031.02.012.032.028.038.047a.118.118 0 0 1 0 .063v.218a2.895 2.895 0 0 0 .181-.013 2.76 2.76 0 0 0 .44-.08c.325-.09.66-.263.724-.596a1.19 1.19 0 0 1-.11-.295 2.381 2.381 0 0 1-.028-.12Zm-1.49.606.002-.013-.01-.002-.004.01.012.005Z" clip-rule="evenodd"/><path fill="#fff" d="M9.953 10.373c-.345-.188-.075-.383-.045-.938.053.338.435.48.39.698-.157.007-.232-.233-.307.03l-.038.21Zm4.103 0c.345-.195.06-.383.03-.938-.053.338-.428.48-.383.698.15.007.225-.233.3.03l.053.202v.008Z"/><path fill="currentColor" fill-rule="evenodd" d="M9.894 9.434h.027c.025.163.13.28.228.386l.004.005c.046.05.09.098.121.147a.212.212 0 0 1 .036.163l-.002.01h-.01a.201.201 0 0 1-.11-.03c-.017-.009-.031-.019-.045-.028a.471.471 0 0 0-.037-.024.08.08 0 0 0-.029-.01.03.03 0 0 0-.022.006.093.093 0 0 0-.025.033.408.408 0 0 0-.027.074l-.038.209-.012-.002-.007.011c-.087-.047-.138-.097-.162-.154a.319.319 0 0 1-.007-.19c.008-.043.02-.089.034-.14.033-.121.073-.27.083-.466Zm.049.918.034-.192v-.001c.01-.033.02-.06.03-.079.01-.02.02-.033.033-.042a.057.057 0 0 1 .04-.011.106.106 0 0 1 .04.014.52.52 0 0 1 .037.024h.001c.014.01.027.019.042.027a.183.183 0 0 0 .087.028.197.197 0 0 0-.035-.134 1.03 1.03 0 0 0-.12-.145l-.002-.003a.902.902 0 0 1-.216-.32c-.016.16-.05.288-.079.393-.013.049-.025.093-.033.133a.293.293 0 0 0 .006.176c.02.046.06.089.135.132Zm3.905-.532c.095-.105.198-.223.224-.387l.026.001c.011.2.055.352.09.474.014.047.027.089.035.128a.318.318 0 0 1-.001.19c-.023.058-.073.109-.16.158l-.02.011v-.028l-.052-.2a.41.41 0 0 0-.027-.075.092.092 0 0 0-.026-.033.03.03 0 0 0-.021-.006.076.076 0 0 0-.029.01.473.473 0 0 0-.036.024.438.438 0 0 1-.042.028.19.19 0 0 1-.107.03h-.01l-.002-.01a.22.22 0 0 1 .035-.162c.03-.05.073-.098.119-.149l.004-.004Zm.217.532c.074-.045.114-.088.132-.135a.281.281 0 0 0 0-.175 2.088 2.088 0 0 0-.033-.124c-.03-.105-.069-.235-.085-.4a.91.91 0 0 1-.212.32l-.003.002a1.02 1.02 0 0 0-.117.146.2.2 0 0 0-.033.134.172.172 0 0 0 .082-.028l.04-.026a.494.494 0 0 1 .038-.026.103.103 0 0 1 .039-.013.056.056 0 0 1 .04.01.119.119 0 0 1 .033.043c.01.02.02.046.03.079l.05.193Z" clip-rule="evenodd"/><path fill="currentColor" d="m10.162 10.627.038.03-.082.09c-.038.038-.042.06-.02.083.027.026.05.015.076-.015l.094-.098.03.03-.09.105c-.05.057-.094.045-.136.008-.03-.03-.052-.075 0-.131l.09-.102Zm.15.128.038.022-.008.18.083-.127.037.022-.12.195-.045-.022.008-.18-.082.127-.038-.022.127-.195Zm.068.315.105-.21.038.022-.098.203-.045-.015Zm.165-.18-.082.217.082.03c.075.027.113-.007.135-.07.026-.068.015-.113-.06-.147l-.075-.03Zm.03.052c.075.027.083.057.06.113-.022.049-.037.067-.112.03l.052-.143Zm.218.03-.135.203.052.015.03-.053.09.023.008.052.052.008-.053-.24-.044-.008Zm.014.053.015.09-.06-.008.045-.082Zm.113-.034-.008.233H11c.082.003.105-.038.108-.113 0-.067-.026-.112-.108-.112l-.079-.008Zm.045.038c.082.003.094.03.094.086-.004.056-.015.079-.098.067v-.15l.004-.003Zm.742.288v.24h.053v-.09s.045 0 .082-.007c.027-.008.05-.026.05-.075 0-.045-.027-.068-.072-.068h-.113Zm.053.038h.053c.04 0 .037.067 0 .067h-.053v-.067Zm.217-.038-.097.24h.052l.023-.06h.098l.022.06h.053l-.098-.24h-.053Zm.023.053.037.09h-.067l.03-.09Zm.127.142.128-.157h-.113v-.038h.18v.038l-.134.157h.134v.045h-.194v-.045Zm.758-.465.045-.007.023.135c.007.049-.015.079-.05.094-.037.015-.09 0-.093-.064l.037-.008c.008.038.023.042.038.038.019-.008.026-.03.023-.053l-.023-.135Zm.075-.015.041-.007.023.112c.007.05.022.068.056.064.037-.007.041-.03.034-.075l-.027-.116.046-.008.03.124c.014.075-.023.101-.075.113-.042.007-.09 0-.105-.075l-.023-.132Zm.232.105.038-.015c.019.034.045.03.067.023.03-.015.038-.041.02-.053-.023-.01-.076.008-.102 0-.034-.015-.049-.037-.045-.063 0-.038.03-.053.064-.064.037-.011.075-.008.101.037l-.045.015c-.015-.026-.037-.022-.052-.015-.015.008-.038.02-.023.038.008.019.064.007.094.007s.052.023.056.05c.008.04-.008.063-.056.082-.056.022-.109 0-.116-.042Zm.203-.187-.06.03-.015-.038.165-.067.015.03-.06.03.068.165-.038.022-.075-.172Zm.098-.083.037-.022.105.195-.037.022-.106-.195Zm.255.015.045-.015a.09.09 0 0 1-.011.087.09.09 0 0 1-.08.037c-.112 0-.127-.127-.108-.169.03-.07.112-.067.15-.03l-.038.03c-.022-.03-.075-.01-.075.015a.101.101 0 0 0 .053.113c.037.015.09-.03.064-.068Zm-.023-.157.037-.03.136.18-.038.03-.135-.18Zm.143-.113-.038.03.082.225.038-.037-.022-.045.067-.06.045.022.038-.03-.21-.105Zm.014.053.075.037-.045.045-.03-.082Z"/></g><defs><clipPath id="a"><path fill="#fff" d="M0 0h24v18H0z"/></clipPath></defs></svg>