<svg xmlns="http://www.w3.org/2000/svg" width="24" height="18" fill="none"><g clip-path="url(#a)"><path fill="#005BAE" fill-rule="evenodd" d="M0 0h24v1.999H0V0Z" clip-rule="evenodd"/><path fill="#fff" fill-rule="evenodd" d="M0 1.999h24v2.003H0V1.999Z" clip-rule="evenodd"/><path fill="#005BAE" fill-rule="evenodd" d="M0 4.001h24V6H0V4Z" clip-rule="evenodd"/><path fill="#fff" fill-rule="evenodd" d="M0 6h24v1.999H0V6Z" clip-rule="evenodd"/><path fill="#005BAE" d="M0 0h10.001v10.001H0V0Z"/><path fill="#005BAE" fill-rule="evenodd" d="M0 7.999h24v2.003H0V7.998Z" clip-rule="evenodd"/><path fill="#fff" fill-rule="evenodd" d="M0 10.001h24V12H0v-2Z" clip-rule="evenodd"/><path fill="#005BAE" fill-rule="evenodd" d="M0 12h24v1.999H0V12Z" clip-rule="evenodd"/><path fill="#fff" fill-rule="evenodd" d="M0 13.999h24v2.002H0V14ZM4 0h2v10H4V0Z" clip-rule="evenodd"/><path fill="#fff" fill-rule="evenodd" d="M0 4h10v2H0V4Z" clip-rule="evenodd"/><path fill="#005BAE" d="M0 16.001h24V18H0v-2Z"/></g><defs><clipPath id="a"><path fill="#fff" d="M0 0h24v18H0z"/></clipPath></defs></svg>