<svg xmlns="http://www.w3.org/2000/svg" width="24" height="18" fill="none"><g clip-path="url(#a)"><path fill="#BE0027" fill-rule="evenodd" d="M0 0h24v18H0V0Z" clip-rule="evenodd"/><path fill="#3B5AA3" fill-rule="evenodd" d="M.96 1.024h22.106v16.065H.96V1.024Z" clip-rule="evenodd"/><path fill="#CBE0E5" fill-rule="evenodd" d="M11.79 15.495a.374.374 0 0 0 .315.004c5.167-2.75 5.167-10.287.004-12.998a.375.375 0 0 0-.327.007c-5.036 2.753-5.05 10.204.004 12.987h.004Z" clip-rule="evenodd"/><path fill="#ADD2D9" fill-rule="evenodd" d="M11.79 15.634c.075.064.24.056.315 0 3.806-2.85 3.825-4.624 3.66-4.624H8.228c-.113 0 .067 1.808 3.562 4.624Z" clip-rule="evenodd"/><path fill="#FDF9A1" fill-rule="evenodd" d="M8.824 12.42a1.47 1.47 0 0 1 1.046.064c.285.15.45.15.758.15.322.008.573.244.922.255.641.015.911.334.413.338-.233 0-.74-.162-.983-.128-.51.053-.832.165-1.312.701l.555.375c.48-.191.558-.412.825-.42.3-.011.4-.195.75-.195.416.035.835-.006 1.237-.12.555-.127.293-.517-.045-.656-.274-.116-.78-.004-1.095-.12-.24-.094-.045-.244.086-.274.128-.026.267.019.428.045a4.17 4.17 0 0 0 .904-.045c.525-.079.502-.232.75-.236a.808.808 0 0 0 .45-.154c.15-.101.303-.3.483-.292l.477.018-.675 1.515-1.902 1.94-.986.374-2.167-1.413-1.092-1.677.177-.045h-.004Z" clip-rule="evenodd"/><path fill="#179A3B" fill-rule="evenodd" d="m11.317 10.95 4.35-.022.075-.386s-.154-.023-.281-.03c-.154-.012-.424.165-.6.16-.131 0-.274-.224-.401-.224-.225 0-.24.199-.45.206-.169-.007-.24-.135-.461-.12-.226.011-.21.139-.5.131-.382-.01-.535-.34-.843-.345-.51-.007-.525.488-.893.627l.004.003Z" clip-rule="evenodd"/><path fill="#FDF9A1" fill-rule="evenodd" d="m11.318 11.04 4.477-.022v-.12l-4.582.022.101.12h.004Z" clip-rule="evenodd"/><path fill="#A79270" fill-rule="evenodd" d="M13.155 12.386c.072.263.143.353.42.424.274.064.694-.203.435-.461-.247-.24-.51-.3-.73-.518-.47-.461-1.175-1.594-1.175-2.392 0-.687-.067-2.093-.067-3.424 0-.086-.263.24-.263.33.015 1.174.015 2.062.06 3.247.075.867.488 1.452.852 1.977.16.255.397.525.468.817Z" clip-rule="evenodd"/><path fill="#BD0728" d="M10.168 8.926A.209.209 0 0 1 10.07 9a.392.392 0 0 1-.144.024.264.264 0 0 1-.248-.15.387.387 0 0 1-.036-.167v-.06a.36.36 0 0 1 .071-.239.251.251 0 0 1 .203-.085c.071 0 .128.019.172.055a.24.24 0 0 1 .08.155h-.09c-.017-.09-.071-.136-.162-.136a.16.16 0 0 0-.137.064.31.31 0 0 0-.047.184V8.7a.29.29 0 0 0 .053.182.17.17 0 0 0 .142.068.313.313 0 0 0 .088-.011.137.137 0 0 0 .063-.038v-.154H9.92v-.073h.248v.25Z"/><path fill="#fff" fill-rule="evenodd" d="M9.792 8.392a.19.19 0 0 0-.048.041c-.04.047-.063.117-.063.214v.059a.36.36 0 0 0 .032.15c.02.04.046.07.08.091a.222.222 0 0 1-.04-.04.33.33 0 0 1-.061-.207v-.056c0-.084.017-.155.055-.207a.192.192 0 0 1 .045-.045Zm.249 0a.191.191 0 0 1 .068.1h.008a.179.179 0 0 0-.055-.084.167.167 0 0 0-.021-.015Zm.045.555a.163.163 0 0 0 .041-.035v-.197h-.01v.202l-.01.011a.165.165 0 0 1-.02.02Zm-.403-.565a.291.291 0 0 1 .233-.1c.078 0 .145.02.197.065a.277.277 0 0 1 .094.18l.006.045h-.169l-.006-.033a.129.129 0 0 0-.04-.078c-.017-.015-.043-.024-.082-.024-.05 0-.082.016-.105.047a.276.276 0 0 0-.04.16V8.7c0 .07.017.122.045.158a.13.13 0 0 0 .11.052.25.25 0 0 0 .078-.01.103.103 0 0 0 .034-.016v-.096H9.88v-.153h.327v.303l-.007.01a.25.25 0 0 1-.115.089.432.432 0 0 1-.159.027.304.304 0 0 1-.284-.173.426.426 0 0 1-.04-.185v-.06c0-.108.025-.198.08-.264Z" clip-rule="evenodd"/><path fill="#BD0728" d="M11.29 8.337V8.8c0 .064-.02.117-.06.158a.244.244 0 0 1-.163.069h-.024a.255.255 0 0 1-.179-.06.216.216 0 0 1-.067-.166v-.465h.089v.462c0 .05.014.088.04.115.028.028.067.041.117.041s.09-.013.117-.04a.155.155 0 0 0 .04-.115v-.463h.09Z"/><path fill="#fff" fill-rule="evenodd" d="M10.757 8.297h.169V8.8c0 .042.011.07.029.088.018.017.045.029.088.029.044 0 .071-.012.088-.03.018-.017.03-.044.03-.086v-.503h.17v.504a.257.257 0 0 1-.073.186.284.284 0 0 1-.188.081h-.001l-.025.001h-.001a.295.295 0 0 1-.206-.07.256.256 0 0 1-.08-.196v-.506Zm.08.08v.425a.176.176 0 0 0 .077.154.196.196 0 0 1-.068-.157v-.422h-.01Zm.345.571a.177.177 0 0 0 .068-.147v-.424h-.01V8.8a.195.195 0 0 1-.058.148Z" clip-rule="evenodd"/><path fill="#BD0728" d="M12.58 8.841h-.286l-.065.178h-.092l.26-.682h.08l.26.682h-.092l-.065-.178Zm-.26-.074h.233l-.116-.319-.116.32Z"/><path fill="#fff" fill-rule="evenodd" d="M12.37 8.297h.133l.291.763h-.178l-.065-.178h-.23l-.064.178h-.179l.291-.763Zm-.04.326-.136.357h.007l.064-.178.065-.179Zm.279.184.063.173h.006l-.134-.352.065.18Zm-.173-.242-.059.163h.118l-.059-.163Z" clip-rule="evenodd"/><path fill="#BD0728" d="m13.49 8.333.223.556.224-.556h.116v.682h-.09v-.266l.009-.287-.224.553h-.07l-.223-.551.009.285v.266h-.09v-.682h.116Z"/><path fill="#fff" fill-rule="evenodd" d="M13.334 8.292h.183l.196.49.196-.49h.184v.762h-.17v-.306l.002-.066-.15.372h-.123l-.15-.37.002.064v.306h-.17v-.762Zm.08.08v.602h.01V8.75l-.009-.285.077-.016.146.36-.175-.436h-.05Zm.417.33.104-.255.076.016-.008.286v.225h.01v-.602h-.05l-.132.33Z" clip-rule="evenodd"/><path fill="#239E46" fill-rule="evenodd" d="M9.735 6.034c-.056.112.135-.034.18-.05.251-.09.349-.404.78-.213.337.146.791.06.555.21-.293.176-.881.371-.893 1.245.05.083.053.071.094-.022.09-.203.514-.754.724-.71.086.023.334-.25.337-.172.027.218-.337.66-.33 1.25 0 .138.17.183.248.085.082-.086.127-.172.27-.285.247-.202.18-1.072.21-1.03.176.224.202.873.465 1.135.221.222.397.113.349-.187-.094-.615-.383-.439-.522-1.073-.03-.123-.037-.232.128-.183.199.06.319.15.465.375.15.217.427.423.589.547.28.218.382.03.247-.247a1.485 1.485 0 0 0-.787-.683c-.233-.082-.315-.09-.518-.127-.056-.012-.112-.128-.015-.192.217-.156.47-.255.735-.288.251-.008.45.195.626.247.353.09.353-.131.195-.3-.127-.139-.397-.375-.648-.341-.507.064-.473.049-.788.255-.112.067-.24.142-.191.06.112-.206.007-.169.184-.379.135-.15.236-.262.375-.3a.801.801 0 0 0 .348-.24c.128-.172.02-.274-.176-.214-.172.045-.262.158-.375.188-.277.09-.499.712-.532.802-.042.105-.09.053-.083-.037.038-.439.075-1.181-.075-1.485-.24-.45-.217-.24-.307-.026-.135.337-.087.656 0 .986.037.165.172.352.198.484.02.1-.06-.03-.105-.094-.146-.225-.255-.375-.495-.499a1.324 1.324 0 0 0-.757-.075c-.068.023.075.12.131.165.161.128.465.169.675.296.173.11.308.177.368.327.022.112.06.277-.015.273-.192-.01-.488-.18-1.103-.112-.315.045-.585.311-.761.634Z" clip-rule="evenodd"/><path fill="currentColor" fill-rule="evenodd" d="M11.074 11.648h.177v.296h-.177v-.296Z" clip-rule="evenodd"/><path fill="#FDF9FF" fill-rule="evenodd" d="M10.189 9.67c.705.976 1.837 1.546 1.86 1.988H9.844c.506-.607.817-1.02.345-1.987Z" clip-rule="evenodd"/><path fill="#A68861" fill-rule="evenodd" d="M9.548 11.68c.96.215 2.104.335 2.835-.03.008.215-.236.526-.439.526h-1.837c.213-.034.337-.098.682-.113l-.975.008c-.112.004-.3-.285-.266-.39Z" clip-rule="evenodd"/><path fill="#BE0027" fill-rule="evenodd" d="M11.722 15.937a.395.395 0 0 0 .338.008c5.542-2.952 5.546-11.04.007-13.95a.401.401 0 0 0-.352.007c-5.4 2.955-5.415 10.95.007 13.939v-.004Zm.027-.664a.35.35 0 0 0 .3.004c4.635-2.73 4.69-9.941.003-12.525-.09-.067-.22-.045-.31 0-4.44 2.629-4.688 9.544.007 12.521Z" clip-rule="evenodd"/><path fill="#BD0728" d="M10.168 8.926A.209.209 0 0 1 10.07 9a.392.392 0 0 1-.144.024.264.264 0 0 1-.248-.15.387.387 0 0 1-.036-.167v-.06a.36.36 0 0 1 .071-.239.251.251 0 0 1 .203-.085c.071 0 .128.019.172.055a.24.24 0 0 1 .08.155h-.09c-.017-.09-.071-.136-.162-.136a.16.16 0 0 0-.137.064.31.31 0 0 0-.047.184V8.7a.29.29 0 0 0 .053.182.17.17 0 0 0 .142.068.313.313 0 0 0 .088-.011.137.137 0 0 0 .063-.038v-.154H9.92v-.073h.248v.25Zm1.122-.589V8.8c0 .064-.02.117-.06.158a.244.244 0 0 1-.163.069h-.024a.255.255 0 0 1-.179-.06.216.216 0 0 1-.067-.166v-.465h.089v.462c0 .05.014.088.04.115.028.028.067.041.117.041s.09-.013.117-.04a.155.155 0 0 0 .04-.115v-.463h.09Zm1.29.504h-.286l-.065.178h-.092l.26-.682h.08l.26.682h-.092l-.065-.178Zm-.26-.074h.233l-.116-.319-.116.32Zm1.17-.434.223.556.224-.556h.116v.682h-.09v-.266l.009-.287-.224.553h-.07l-.223-.551.009.285v.266h-.09v-.682h.116Z"/></g><defs><clipPath id="a"><path fill="#fff" d="M0 0h24v18H0z"/></clipPath></defs></svg>