<svg xmlns="http://www.w3.org/2000/svg" width="24" height="18" fill="none"><g fill-rule="evenodd" clip-path="url(#a)" clip-rule="evenodd"><path fill="#399408" d="M.09 0H24v18H.09V0Z"/><path fill="#fff" d="M.007 0c-.033 0 23.235 9.056 23.235 9.056L0 17.993.007 0Z"/><path fill="#FFDE08" d="M.012.757c.127 0 20.962 8.172 20.846 8.25L.072 17.37.012.76V.757Z"/><path fill="currentColor" d="M.071.03C.14.03 10.98 9.064 10.98 9.064L.067 17.888V.03h.004Z"/><path fill="#DE2110" d="M.01 1.272C.07.709 9.795 9.087 9.795 9.087L.007 16.939V1.272H.01Z"/></g><defs><clipPath id="a"><path fill="#fff" d="M0 0h24v18H0z"/></clipPath></defs></svg>