<svg xmlns="http://www.w3.org/2000/svg" width="24" height="18" fill="none"><g fill-rule="evenodd" clip-path="url(#a)" clip-rule="evenodd"><path fill="#BA0000" d="M24.916 18.048H-.866V0h25.782v18.048Z"/><path fill="#fff" d="M11.658 8.735S9.84 7.952 10.1 5.922c.25-.976.698-1.643 1.505-2.006a5.414 5.414 0 0 1 1.164-.2.87.87 0 0 0-.236.317c-.085.225-.022.437.095.652.144.246.232.5.26.832a1.29 1.29 0 0 1-.514 1.188c-.233.18-.508.243-.733.447a.958.958 0 0 0-.318.638c-.007.568.145.649.335.945Z"/><path fill="currentColor" d="M11.347 5.789v.01h-.074v-.01h.074Z"/><path fill="#BA0000" d="M10.943 7.123c.006.533.166 1.07.507 1.373l-.049.055c-.363-.322-.526-.884-.532-1.427a2.611 2.611 0 0 1 .106-.777c.071-.235.178-.438.32-.575l.05.053a1.28 1.28 0 0 0-.3.544 2.54 2.54 0 0 0-.102.754Zm.811-1.677.117.194-.212-.088-.166.176.029-.23-.212-.087.23-.053.027-.226.117.194.232-.053"/><path fill="#fff" d="M11.813 8.6s.212-1.97 2.232-2.315c1.008-.043 1.776.186 2.362.856.222.328.384.684.528 1.05a.835.835 0 0 0-.373-.13c-.236-.017-.423.106-.593.279a1.876 1.876 0 0 1-.719.493 1.29 1.29 0 0 1-1.286-.14c-.24-.173-.381-.417-.642-.572a.994.994 0 0 0-.705-.12c-.546.162-.574.332-.804.6Z"/><path fill="currentColor" d="M14.528 7.447h-.01v-.074h.01v.074Z"/><path fill="#BA0000" d="M13.144 7.446c-.507.161-.975.472-1.167.889l-.067-.031c.204-.444.695-.764 1.212-.929.26-.082.527-.126.773-.127.246 0 .471.042.643.136l-.035.065a1.282 1.282 0 0 0-.608-.127 2.5 2.5 0 0 0-.75.124Zm1.842.284-.152.166.021-.229-.211-.106.222-.035.021-.236.12.212.226-.043-.152.166.117.211"/><path fill="#fff" d="M11.948 8.742s1.938-.423 2.904 1.385c.363.941.388 1.741-.06 2.506-.24.318-.528.582-.828.84a.833.833 0 0 0 .004-.396c-.057-.232-.233-.37-.452-.475-.27-.119-.51-.3-.698-.53a1.29 1.29 0 0 1-.271-1.261c.085-.282.271-.494.335-.79a.987.987 0 0 0-.11-.705c-.327-.465-.496-.44-.824-.574Z"/><path fill="currentColor" d="m13.916 10.964-.007-.007.052-.052.008.007-.053.052Z"/><path fill="#BA0000" d="M13.467 9.639c-.314-.43-.756-.776-1.21-.825l.008-.074c.484.053.942.417 1.262.855.16.22.288.46.366.694.079.233.11.461.076.655l-.073-.013a1.296 1.296 0 0 0-.073-.618 2.55 2.55 0 0 0-.356-.674Zm.313 1.838-.207-.091.229-.053.028-.236.11.2.229-.052-.16.176.107.2-.205-.09-.159.179"/><path fill="#fff" d="M11.905 8.943s.949 1.741-.51 3.173c-.804.613-1.566.863-2.426.648-.37-.14-.705-.342-1.04-.56a.823.823 0 0 0 .384-.106c.205-.12.286-.328.328-.564.037-.295.143-.576.31-.822a1.29 1.29 0 0 1 1.135-.616c.297.003.55.127.854.105a1.01 1.01 0 0 0 .648-.31c.353-.44.282-.6.317-.952v.004Z"/><path fill="currentColor" d="m10.325 11.457.003-.007.067.033-.004.007-.066-.033Z"/><path fill="#BA0000" d="M11.472 10.652c.324-.422.53-.945.446-1.395l.073-.014c.09.48-.13 1.024-.46 1.454a2.595 2.595 0 0 1-.564.546 1.35 1.35 0 0 1-.609.254l-.007-.074c.179-.018.378-.104.573-.24.196-.136.386-.32.548-.53Zm-1.678.818.032-.225.116.2.233-.035-.162.162.116.201-.215-.102-.162.162.028-.225-.215-.103"/><path fill="#fff" d="M11.69 8.904s-1.325 1.473-3.165.578c-.846-.553-1.333-1.191-1.414-2.073.01-.398.085-.779.18-1.163.06.127.127.24.23.324.179.152.405.159.644.12.288-.063.587-.056.871.021a1.29 1.29 0 0 1 .962.868c.096.278.064.56.187.838a.993.993 0 0 0 .504.508c.536.187.66.067 1.001-.018v-.003Z"/><path fill="#BA0000" d="m8.797 8.29-.007-.003.007.004Z"/><path fill="currentColor" d="m8.806 8.254.007.003-.033.067-.007-.004.033-.066Z"/><path fill="#BA0000" d="M9.934 9.064c.507.166 1.067.187 1.463-.04l.037.064c-.422.242-1.007.215-1.523.046a2.612 2.612 0 0 1-.702-.35c-.2-.143-.358-.31-.442-.488l.066-.031c.078.162.226.32.42.46.192.138.429.256.681.34ZM8.606 7.755l.222-.045-.152.176.11.208-.205-.099-.152.176.025-.24-.208-.098.222-.046.025-.24"/></g><defs><clipPath id="a"><path fill="#fff" d="M0 0h24v18H0z"/></clipPath></defs></svg>