<svg xmlns="http://www.w3.org/2000/svg" width="24" height="18" fill="none"><g clip-path="url(#a)"><path fill="#006" d="M0 0h24v18H0V0Z"/><path fill="#fff" d="M0 0v1.147l13.973 9.113h1.758V9.113L1.76 0H0Zm15.731 0v1.147L1.76 10.26H0V9.113L13.973 0h1.758Z"/><path fill="#fff" d="M6.555 0v10.26h2.621V0H6.551h.004ZM0 3.42v3.42h15.731V3.42H0Z"/><path fill="#C00" d="M0 4.103v2.054h15.731V4.104H0ZM7.08 0v10.26h1.575V0H7.08ZM0 10.26l5.242-3.42h1.174l-5.242 3.42H0ZM0 0l5.242 3.42h-1.17L0 .765V0Zm9.315 3.42L14.557 0h1.174l-5.246 3.42h-1.17Zm6.412 6.84L10.49 6.84h1.17l4.072 2.655v.765h-.004Z"/><path fill="#fff" fill-rule="evenodd" d="m4.706 15.619-1.031-.094.892-.525-.573-.862.967.363.315-.986.319.986.967-.363L5.99 15l.888.525-1.03.094.142 1.024-.713-.75-.712.75.142-1.024Zm13.751 1.095-.727-.064.626-.375-.401-.6.679.255.225-.694.225.694.675-.259-.402.608.63.371-.723.064.1.72-.502-.525-.502.525.097-.72Zm.004-10.793-.727-.063.626-.372-.401-.607.678.262.225-.697.225.694.675-.26-.4.608.625.375-.723.06.1.72-.502-.525-.502.525.101-.72Zm-4.046 4.384-.728-.064.627-.37-.405-.605.682.255.225-.693.221.693.683-.255-.405.604.626.375-.724.06.098.724-.503-.529-.502.525.105-.72Zm7.635-1.08-.728-.06.63-.375-.405-.604.683.26.221-.695.225.694.675-.262-.397.607.626.375-.728.06.102.724-.503-.529-.502.525.1-.72Zm-.938 2.239-.356.3.113.45-.398-.244-.394.248.113-.45-.36-.304.465-.038.176-.427.176.431" clip-rule="evenodd"/></g><defs><clipPath id="a"><path fill="#fff" d="M0 0h24v18H0z"/></clipPath></defs></svg>