<svg xmlns="http://www.w3.org/2000/svg" width="24" height="18" fill="none"><g clip-path="url(#a)"><path fill="#171796" d="M0 0h24v18H0V0Z"/><path fill="#fff" d="M0 0h24v12H0V0Z"/><path fill="red" d="M0 0h24v6H0V0Zm12 13.654a3.51 3.51 0 0 0 3.499-3.499V6H8.5v4.155a3.51 3.51 0 0 0 3.5 3.503v-.004Z"/><path fill="#fff" d="M12 13.598a3.442 3.442 0 0 0 3.435-3.431v-4.1H8.57v4.096A3.442 3.442 0 0 0 12 13.594v.004Z"/><path fill="red" d="M10.016 6.195H8.7v1.451h1.32l-.004-1.451Zm0 2.902h1.324v-1.45h-1.327l.003 1.45ZM8.7 10.16c0 .13.008.262.023.39h1.297V9.097H8.7v1.062Zm3.964-1.062h-1.32v1.452h1.32V9.097Zm0 2.903h1.32V10.55h-1.32V12Zm1.32.795a3.35 3.35 0 0 0 .754-.795h-.75v.795h-.004ZM10.016 12h1.324v-1.451h-1.327l.003 1.45Zm-.753 0c.206.304.46.573.753.795V12h-.753Zm2.966 1.451c.15-.011.289-.03.431-.06V12h-1.32v1.391a3.274 3.274 0 0 0 .889.06Zm3.048-2.902c.015-.128.023-.26.023-.39V9.097h-1.32v1.452h1.297ZM12.66 9.097h1.32v-1.45h-1.32v1.45Zm0-2.902h-1.32v1.451h1.32V6.195Zm2.64 1.451V6.195h-1.32v1.451h1.32Z"/><path fill="#fff" d="m15.375 5.955.817-1.856-.622-1.005-1.035.382-.728-.832-.952.55-.855-.7-.852.697-.956-.547-.727.832L8.43 3.09l-.623 1.012.818 1.853A8.167 8.167 0 0 1 12 5.23c1.2 0 2.343.259 3.375.724Z"/><path fill="#0093DD" d="M9.487 3.555 8.46 3.18l-.574.926.221.5.555 1.263c.42-.186.854-.336 1.298-.45l-.473-1.864Z"/><path fill="#fff" d="M9.427 4.474c.039.072.06.151.06.233a.502.502 0 0 1-.993.093.503.503 0 0 0 .933-.326Z"/><path fill="currentColor" fill-rule="evenodd" d="M9.428 4.474h-.006a.497.497 0 0 1-.923.323l-.01.004a.508.508 0 0 0 .496.41c.28 0 .508-.228.508-.505a.504.504 0 0 0-.06-.235l-.005.003Zm.01.033a.508.508 0 0 1-.505.557.508.508 0 0 1-.426-.23.497.497 0 0 0 .975-.128.493.493 0 0 0-.044-.2Z" clip-rule="evenodd"/><path fill="currentColor" d="m8.535 4.276.038-.184-.143-.12-.004-.004.008-.004.172-.06.038-.18v-.007l.007.004.139.12.173-.06h.007v.007l-.037.18.138.12.008.008h-.011l-.173.06-.037.18v.007l-.004-.004-.139-.12-.172.06H8.53l.004-.003Z"/><path fill="#F7DB17" d="m8.76 4.035.131.113.161-.057-.292-.056Zm0-.007.292.06-.127-.113-.165.053Zm-.311-.06.292.056-.131-.113-.161.057Zm.292.063-.292-.056.127.113.165-.057Zm.015-.011.195-.225-.161.056-.034.169Zm-.21.24.195-.225-.161.056-.034.169Zm.199-.221-.195.225.161-.056.034-.17Zm.21-.24-.195.225.161-.056.034-.17Zm-.21.225-.098-.285-.033.169.131.116Zm.101.3-.094-.281-.033.168.127.113Zm-.09-.285.098.281.033-.169-.13-.112Zm-.101-.3.094.281.037-.169-.131-.112Z"/><path fill="#171796" d="m11.156 3.277-.952-.54-.717.822.473 1.86a8.241 8.241 0 0 1 1.354-.225l-.158-1.917Z"/><path fill="red" d="M9.844 4.957c.47-.12.949-.2 1.432-.24l-.037-.483a9.21 9.21 0 0 0-1.515.251l.12.472Zm-.237-.937a9.675 9.675 0 0 1 1.59-.262l-.04-.477c-.564.046-1.122.139-1.67.278l.12.461Z"/><path fill="#0093DD" d="m12.85 3.278-.001.002-.846-.693-.844.691.159 1.916a8.318 8.318 0 0 1 1.373 0l.16-1.916Z"/><path fill="currentColor" d="M12 4.14s-.003.001-.005.004l-.049.064c-.017.006-.021.016-.015.031-.023-.002-.025.017-.026.039-.023-.034-.047-.043-.073-.028 0-.02-.016-.03-.039-.035a.073.073 0 0 1-.038-.012l-.016-.01c-.01-.008-.02 0-.015.007l.071.115a.017.017 0 0 0 .008.019l.013.035a.387.387 0 0 0-.003.01c-.02-.01-.04-.01-.06-.012-.014 0-.025-.004-.031-.012-.005-.006-.008-.002-.008.007 0 .048.014.09.053.133-.02 0-.041 0-.062.002-.007 0-.008.003-.006.009.01.027.03.051.073.068a.058.058 0 0 0-.032.046c0 .02-.007.034-.019.04-.005.003-.007.006-.002.01.022.016.05.017.08.01a.124.124 0 0 0-.018.076.093.093 0 0 0 .054-.005.086.086 0 0 0-.004.027.06.06 0 0 1-.01.03c-.002.004-.005.008 0 .01.03.008.059.005.082-.004a.2.2 0 0 0 .007.064c.002.006.006.01.011.003a.161.161 0 0 1 .047-.046c.003.008.007.015.014.019.008.005.013.015.013.03 0 .003 0 .006.004.008.013 0 .045-.033.052-.053.018.011.025.022.039.041.005.007.009.003.011-.002a.246.246 0 0 0 .006-.064.132.132 0 0 0 .081.004c.007-.002.004-.006 0-.01a.086.086 0 0 1-.01-.032c0-.011 0-.02-.003-.025.018.006.036.01.054.004a.124.124 0 0 0-.018-.075c.03.007.058.006.08-.01.005-.004.004-.007-.002-.01-.012-.006-.018-.02-.018-.04a.058.058 0 0 0-.032-.046.118.118 0 0 0 .073-.068c.002-.006 0-.009-.007-.01l-.063-.002a.186.186 0 0 0 .054-.133c0-.01-.004-.013-.008-.007-.007.008-.016.012-.031.013a.154.154 0 0 0-.059.011l-.003-.01.014-.035c.007-.004.01-.01.008-.018l.07-.115c.004-.008-.005-.015-.016-.007l-.015.01a.075.075 0 0 1-.039.012c-.022.005-.037.015-.038.036-.026-.016-.05-.007-.072.027-.001-.021-.004-.04-.027-.039.007-.014.002-.025-.016-.03-.016-.023-.04-.043-.057-.065l-.006-.004Z"/><path fill="#F7DB17" d="M12.226 4.264c-.005-.002-.011.002-.015.009-.003.007-.003.015.002.017.004.002.007 0 .01-.005l.002-.003c.004-.008.005-.015 0-.017Zm-.445 0c.004-.002.01.002.014.009.003.007.003.014-.001.017-.005.002-.01-.002-.013-.01-.003-.006-.005-.013 0-.016Zm.403.08a.005.005 0 0 0-.005.006.005.005 0 0 0 .01 0 .005.005 0 0 0-.005-.005Zm-.358 0-.004.002a.005.005 0 0 0-.002.004.005.005 0 0 0 .006.005l.003-.001.002-.004c0-.001 0-.003-.002-.004a.005.005 0 0 0-.003-.001Zm.381-.026a1.674 1.674 0 0 0-.402-.002c-.003 0-.002.008.001.008a2.087 2.087 0 0 1 .399.001c.003 0 .004-.007.002-.007Z"/><path fill="#F7DB17" d="M11.803 4.31a2.066 2.066 0 0 1 .404.001l.01-.016a.01.01 0 0 1-.008 0c-.007-.004-.008-.015-.003-.025.005-.01.014-.015.021-.012.003.002.006.006.006.01l.04-.066c-.018.012-.03.02-.052.023-.025.004-.036.012-.033.027.004.014-.005.012-.018.005-.027-.015-.047.006-.057.031-.007.017-.014.016-.015 0l-.001-.019c-.002-.02-.008-.025-.02-.02-.014.007-.015.003-.011-.005.002-.005.007-.011.005-.02 0-.005-.005-.007-.013-.008-.016-.022-.041-.043-.058-.065l-.049.065c-.008 0-.013.003-.014.009-.001.008.005.014.008.019.003.007.002.012-.013.005-.01-.005-.016 0-.018.02l-.001.018c0 .017-.008.018-.015.001-.01-.025-.031-.046-.06-.031-.012.007-.017.009-.015-.005.002-.015-.01-.023-.035-.027a.111.111 0 0 1-.052-.023l.038.061a.01.01 0 0 1 .004-.005c.007-.003.017.002.022.012.005.01.003.021-.004.025h-.002l.008.015Zm.39.08-.002.002c-.005.002-.008.006-.012.01a.165.165 0 0 1-.019.018h-.004c-.002-.003 0-.004 0-.005a.164.164 0 0 0 .026-.024 1.28 1.28 0 0 0-.026-.003.086.086 0 0 0-.02.009.035.035 0 0 0-.012.01c0 .002-.001.003-.004.002-.002-.002-.001-.003 0-.004a.04.04 0 0 1 .014-.013.074.074 0 0 1 .009-.005l-.029-.002a.03.03 0 0 0-.01.01c0 .001-.002.002-.004 0-.002-.001-.002-.002 0-.003a.046.046 0 0 1 .005-.007v-.001l-.02-.001h-.001a.03.03 0 0 0-.008.012c-.001 0-.002.002-.004.001-.003 0-.002-.002-.002-.004a.035.035 0 0 1 .004-.007l.003-.003a1.772 1.772 0 0 0-.032 0 .028.028 0 0 0-.01.01c0 .002-.002.003-.004.001-.003-.001-.002-.002-.001-.003a.033.033 0 0 1 .007-.009 1.968 1.968 0 0 0-.064 0l.002.002a.037.037 0 0 1 .005.007s.001.002-.001.003c-.003.002-.003 0-.004 0a.024.024 0 0 0-.004-.006.031.031 0 0 0-.006-.005h-.032a.032.032 0 0 1 .007.01c0 .002 0 .003-.002.004-.003.001-.003 0-.004-.001a.024.024 0 0 0-.003-.006.036.036 0 0 0-.005-.006h-.023l.002.002a.036.036 0 0 1 .005.007c.001 0 .002.002 0 .003-.003.002-.004 0-.004 0a.037.037 0 0 0-.011-.01l-.03.001a.078.078 0 0 1 .011.006.04.04 0 0 1 .014.013s.002.002 0 .004c-.003.001-.004 0-.005-.001a.035.035 0 0 0-.012-.012.09.09 0 0 0-.022-.009 1.02 1.02 0 0 0-.024.003.164.164 0 0 0 .026.026c.001 0 .002 0 0 .003-.001.002-.002.001-.003 0a.165.165 0 0 1-.02-.016l-.011-.013a.142.142 0 0 0-.051-.013c-.014 0-.029 0-.041-.007a.087.087 0 0 0 .011.02c.005.007.01.011.019.014l.002.002a.072.072 0 0 0 .015.034c.004.006.01.01.016.014a.091.091 0 0 1-.015-.023.071.071 0 0 1-.007-.037c0-.002 0-.003.003-.003s.003.002.003.003a.064.064 0 0 0 .006.035.1.1 0 0 0 .026.03c.002.002 0 .006-.002.005a.07.07 0 0 1-.034-.02.075.075 0 0 1-.016-.035.042.042 0 0 1-.02-.015.09.09 0 0 1-.01-.018.174.174 0 0 0 .04.1.067.067 0 0 0 .023.02c.008.003.008.009-.002.01h-.01a.142.142 0 0 1 .021.009c.011.006.02.014.02.024 0 .001 0 .003-.003.003-.002 0-.003-.001-.003-.003 0-.007-.007-.014-.017-.02a.178.178 0 0 0-.035-.014h-.041a.105.105 0 0 0 .042.019.076.076 0 0 1 .02.008.06.06 0 0 1 .016.013c.001.001.002.002 0 .004s-.003 0-.004 0a.052.052 0 0 0-.014-.012.069.069 0 0 0-.02-.008.113.113 0 0 1-.048-.022c.016.035.04.05.075.061l.005.002a.318.318 0 0 0 .024.005l.024.003c.001 0 .003 0 .002.003 0 .003-.001.003-.003.003a.266.266 0 0 1-.039-.006h-.01c-.02.002-.036.02-.038.044v.002a.149.149 0 0 1 .024-.019c.01-.006.022-.01.033-.006.001 0 .003 0 .002.003 0 .003-.002.003-.004.002-.01-.002-.018 0-.028.006a.17.17 0 0 0-.028.022.05.05 0 0 1-.018.034c.005.003.01.006.014.004a.246.246 0 0 1 .024-.01.091.091 0 0 1 .025-.005c.001 0 .003 0 .003.003s-.002.003-.003.003a.083.083 0 0 0-.023.005.235.235 0 0 0-.02.008c.02.004.04 0 .059-.007l.012-.004c.004-.003.01-.005.015-.007a.066.066 0 0 1 .016-.005c.002 0 .003 0 .003.003 0 .002 0 .002-.002.003a.035.035 0 0 0-.02.007c0 .002-.006.005-.011.008a.067.067 0 0 0-.024.031.112.112 0 0 0-.007.02.134.134 0 0 1 .018-.026.092.092 0 0 1 .031-.024c.001 0 .003-.001.004.001 0 .003 0 .004-.002.004a.087.087 0 0 0-.028.022.13.13 0 0 0-.02.031l-.004.008c.01-.011.02-.02.03-.028.01-.009.024-.014.036-.011.002 0 .003 0 .003.003s-.002.002-.004.002c-.01-.002-.022.003-.033.01a.245.245 0 0 0-.032.033.106.106 0 0 0 .048-.008c.008-.002.016-.012.021-.013a.117.117 0 0 1 .014-.015c.002 0 .003-.002.005 0v.004a.092.092 0 0 0-.018.019l-.002.001c-.005.006-.013.015-.015.022-.005.018-.002.032-.01.05a.055.055 0 0 0 .015-.011.061.061 0 0 0 .011-.02.067.067 0 0 1 .015-.025.063.063 0 0 1 .023-.015c.002 0 .003 0 .004.002 0 .003 0 .003-.002.003a.06.06 0 0 0-.035.036.065.065 0 0 1-.012.023.056.056 0 0 1-.014.01h.01a.057.057 0 0 0 .025-.01.046.046 0 0 0 .014-.019c0-.001.001-.002.004-.001.002.001.002.002.001.004a.046.046 0 0 1-.033.029.129.129 0 0 0 .042-.01c.006-.002.008-.014.011-.018a.08.08 0 0 1 .01-.014.039.039 0 0 1 .014-.011c.002 0 .003-.001.004.001.001.003 0 .004-.002.004a.033.033 0 0 0-.012.01.082.082 0 0 0-.009.013c.001.006-.004.02-.004.027a.197.197 0 0 0 .004.054.224.224 0 0 1 .015-.017v-.001a.276.276 0 0 0 .003-.059c0-.001 0-.003.002-.003.003 0 .003.001.003.002a.169.169 0 0 1-.002.055c.005-.005.005-.005.007-.01a.068.068 0 0 0 .005-.041c0-.001 0-.003.002-.003.003-.001.003 0 .004.002a.062.062 0 0 1 0 .022.078.078 0 0 1-.004.018.206.206 0 0 1 .016-.011.227.227 0 0 1 .002-.037c0-.002 0-.004.004-.003.003 0 .003.002.003.004l-.002.016v.021c.001.008.005.017.012.02a.038.038 0 0 1 .016.025.163.163 0 0 0 0-.035.085.085 0 0 0-.01-.033c0-.001-.001-.002.001-.004.003-.001.004 0 .004.001a.08.08 0 0 1 .011.035.169.169 0 0 1-.001.043c.009-.007.034-.022.031-.052a.029.029 0 0 0-.002-.007c0-.001-.002-.002 0-.004.003-.001.004 0 .005.002a.04.04 0 0 1 .003.01l.001.006c.001 0 .004-.004.005-.003a.225.225 0 0 1 .007.004.064.064 0 0 1-.002-.038c0-.001 0-.003.003-.002.002 0 .002.002.002.003a.058.058 0 0 0-.001.02c0 .008.002.015.006.022v.002a.092.092 0 0 1 .006.006.286.286 0 0 1-.002-.053c0-.001 0-.003.003-.003s.003.002.003.004a.279.279 0 0 0 .003.059l.013.017a.183.183 0 0 0 .006-.054c0-.007-.006-.02-.005-.027a.083.083 0 0 0-.01-.013.032.032 0 0 0-.012-.01c-.001 0-.002-.001-.001-.004 0-.002.002-.002.003-.001a.04.04 0 0 1 .015.011.08.08 0 0 1 .01.014c.004 0 .006.016.012.019a.128.128 0 0 0 .04.009.046.046 0 0 1-.017-.009.05.05 0 0 1-.016-.02c0-.002 0-.003.002-.004s.003 0 .004.001a.046.046 0 0 0 .013.019.078.078 0 0 0 .036.011.06.06 0 0 1-.014-.011.068.068 0 0 1-.013-.023.06.06 0 0 0-.034-.035c-.002-.001-.003-.001-.002-.004 0-.003.002-.002.004-.002a.063.063 0 0 1 .037.04.052.052 0 0 0 .027.032c-.008-.018-.005-.033-.01-.051-.003-.012-.02-.025-.017-.029.004-.004.011.008.022.012.015.005.031.01.048.007a.244.244 0 0 0-.033-.032c-.01-.008-.02-.012-.031-.01-.002 0-.003 0-.003-.003s0-.003.002-.003c.012-.002.024.003.036.011a.19.19 0 0 1 .027.027l-.002-.007a.135.135 0 0 0-.02-.03.091.091 0 0 0-.029-.023c-.001 0-.002 0-.001-.004.001-.002.002-.001.004 0a.094.094 0 0 1 .03.023.137.137 0 0 1 .018.027.104.104 0 0 0-.006-.02.065.065 0 0 0-.017-.026c-.005-.005-.018-.012-.018-.016l-.006-.002a.062.062 0 0 0-.014-.004c-.002 0-.003 0-.003-.003s.002-.003.004-.003c.004 0 .01.003.016.005l.008.005c.005 0 .013.005.019.007.018.007.04.011.059.007a.219.219 0 0 0-.02-.008.083.083 0 0 0-.023-.005c-.002 0-.003 0-.003-.003s.002-.003.003-.003a.07.07 0 0 1 .025.006c.008.002.015.006.023.01.005.002.01-.001.015-.005a.05.05 0 0 1-.019-.033.17.17 0 0 0-.028-.023.04.04 0 0 0-.028-.006c-.001 0-.003.001-.003-.002-.001-.002 0-.003.002-.003a.042.042 0 0 1 .032.006.145.145 0 0 1 .024.02v-.002c-.001-.024-.018-.043-.038-.044-.007 0-.017.002-.017-.003s.009-.004.02-.008a.107.107 0 0 0 .075-.061.124.124 0 0 1-.048.022.069.069 0 0 0-.02.008.055.055 0 0 0-.013.012c-.001 0-.002.002-.005 0-.002-.002 0-.003 0-.004a.06.06 0 0 1 .016-.013.077.077 0 0 1 .02-.008.121.121 0 0 0 .043-.019h-.041a.187.187 0 0 0-.036.014c-.01.006-.016.012-.017.02 0 .002 0 .003-.003.003s-.003-.002-.002-.003c0-.01.008-.018.02-.024a.142.142 0 0 1 .02-.01h-.01c-.01 0-.01-.006 0-.009a.067.067 0 0 0 .021-.02.187.187 0 0 0 .04-.1.083.083 0 0 1-.01.018.043.043 0 0 1-.02.015.066.066 0 0 1-.049.056c-.001 0-.003-.004-.001-.005.011-.01.02-.02.024-.031a.066.066 0 0 0 .007-.034c0-.002 0-.003.002-.004.003 0 .003.002.003.003a.071.071 0 0 1-.007.037.088.088 0 0 1-.015.023.059.059 0 0 0 .017-.014.073.073 0 0 0 .015-.034l.002-.002a.037.037 0 0 0 .018-.013.09.09 0 0 0 .011-.02c-.012.006-.027.005-.04.006a.14.14 0 0 0-.05.014Z"/><path fill="#F7DB17" d="M12.188 4.376a1.664 1.664 0 0 0-.364 0c-.002 0-.002.003-.002.004 0 .003.004.003.011.003a1.745 1.745 0 0 1 .353 0c.003.001.007-.008.002-.007Z"/><path fill="#F7DB17" fill-rule="evenodd" d="M11.825 4.37a1.75 1.75 0 0 1 .36 0l.004-.01a.01.01 0 0 1-.01 0 .012.012 0 0 1-.005-.005.011.011 0 0 1 .016-.014.01.01 0 0 1 .003.005l.006-.015a1.67 1.67 0 0 0-.388-.002l.005.015a.01.01 0 0 1 .017-.002.011.011 0 0 1 .003.008.01.01 0 0 1-.01.01.01.01 0 0 1-.004 0l.003.009Zm.272-.038a.011.011 0 0 0-.007.004.011.011 0 0 0-.004.007c0 .003.002.006.004.008a.01.01 0 1 0 .008-.019Zm0 .006c-.001 0-.002 0-.003.002a.005.005 0 0 0-.002.003c0 .002 0 .003.002.004l.003.002a.005.005 0 0 0 0-.01Zm-.096-.008a.01.01 0 0 0-.01.007.011.011 0 0 0 .008.015.011.011 0 0 0 .011-.005.01.01 0 0 0 .002-.006.01.01 0 0 0-.01-.011Zm0 .006-.003.001a.005.005 0 0 0-.002.004.005.005 0 0 0 .005.005l.004-.001a.005.005 0 0 0 .002-.004l-.002-.004A.005.005 0 0 0 12 4.336Zm-.094-.004a.011.011 0 0 0-.008.003.01.01 0 0 0-.003.004.01.01 0 0 0 0 .004v.004c0 .002.002.003.003.004a.011.011 0 0 0 .008.003.011.011 0 0 0 .007-.003.011.011 0 0 0 0-.015.011.011 0 0 0-.007-.004Zm0 .006a.005.005 0 0 0-.006.005c0 .003.003.005.006.005a.005.005 0 0 0 .005-.005c0-.001 0-.003-.002-.003a.005.005 0 0 0-.003-.002Z" clip-rule="evenodd"/><path fill="currentColor" d="M12.006 4.264a.028.028 0 0 0-.009-.016.03.03 0 0 0-.016-.007c-.003 0-.004-.005 0-.006a.028.028 0 0 0 .013-.012.059.059 0 0 0 .009-.023c0-.003.005-.003.006 0a.039.039 0 0 0 .008.018c.005.006.011.01.018.013.002 0 .002.005-.001.006a.02.02 0 0 0-.013.008.051.051 0 0 0-.009.02c0 .002-.005.002-.006-.001Zm.003-.01a.051.051 0 0 1 .007-.013.03.03 0 0 1 .01-.008.049.049 0 0 1-.02-.021.057.057 0 0 1-.007.014.041.041 0 0 1-.01.01.035.035 0 0 1 .02.017Zm.071.454-.046.018c-.001.001-.003.002-.004-.001s0-.004.002-.005l.046-.018c.001 0 .003-.001.004.002s0 .004-.002.004Zm.005-.029-.053.03c-.002 0-.003 0-.005-.002-.001-.003 0-.004.002-.005l.053-.029c.002 0 .003-.001.005.002.001.003 0 .003-.002.004Zm-.162-.006.054.03c.001 0 .003.001.001.004-.001.003-.003.002-.004.001l-.054-.029c-.001 0-.003-.001-.001-.004.001-.003.003-.002.004-.002Zm.005.029.045.018c.002.001.004.002.002.005 0 .003-.002.002-.004.001l-.046-.018c-.001 0-.003-.001-.002-.004.002-.003.003-.003.005-.002Zm.02.039a.082.082 0 0 0 .031.002.021.021 0 0 0 .017-.013v-.043a.103.103 0 0 1-.027-.004.025.025 0 0 1-.017-.016.051.051 0 0 1 0-.03s0-.002.003-.002c.004.001.003.003.003.004a.045.045 0 0 0 0 .026.02.02 0 0 0 .013.012.105.105 0 0 0 .055 0 .035.035 0 0 0 .017-.012.02.02 0 0 0 .005-.015.01.01 0 0 0-.005-.007.022.022 0 0 0-.011-.004l-.013.002h-.007c-.001.001-.003.001-.003-.002s.001-.003.003-.004h.006c.005-.002.01-.002.014-.002.006 0 .011.001.015.004a.016.016 0 0 1 .007.012.027.027 0 0 1-.006.02.04.04 0 0 1-.02.014.106.106 0 0 1-.025.003v.045c.004.007.01.01.017.012a.08.08 0 0 0 .032-.002c.001 0 .003-.001.004.002 0 .003-.001.004-.003.004a.089.089 0 0 1-.034.003.028.028 0 0 1-.02-.012.028.028 0 0 1-.018.012.085.085 0 0 1-.035-.003c-.002 0-.003 0-.002-.004 0-.003.002-.003.004-.002Zm.031.018h.036c.002 0 .003 0 .003.003s-.001.003-.003.003h-.036c-.001 0-.003.001-.003-.002 0-.004.002-.004.003-.004Zm.053-.274a.236.236 0 0 1 .038-.026.063.063 0 0 1 .031-.01c.002 0 .004 0 .004.004 0 .003-.002.003-.004.003a.059.059 0 0 0-.028.009.222.222 0 0 0-.037.026c-.001 0-.002.002-.005 0-.002-.004 0-.005 0-.006h.001Zm-.054.005a.18.18 0 0 0-.04-.028.065.065 0 0 0-.032-.008c-.001 0-.003 0-.003-.003 0-.004.001-.004.003-.004.01 0 .022.003.036.01a.19.19 0 0 1 .04.028c.002.002.003.003 0 .005-.001.002-.002.001-.004 0Zm-.019.09a.085.085 0 0 1 .012-.02.117.117 0 0 1 .016-.015c.001-.001.002-.002.005 0 .002.003 0 .004-.001.005a.082.082 0 0 0-.026.032c0 .002-.001.003-.004.002s-.002-.003-.002-.004Zm.033-.155a.066.066 0 0 1 .01.02.08.08 0 0 1 .004.025v.022a.048.048 0 0 1-.01.022.025.025 0 0 1-.029.01c.003.008.005.018 0 .027a.003.003 0 0 1-.004.001.28.28 0 0 0-.022-.01.13.13 0 0 1-.021-.01.049.049 0 0 1-.014-.01.035.035 0 0 1-.007-.016.07.07 0 0 1-.002-.015.206.206 0 0 1-.032-.022c-.001-.001-.002-.002 0-.005.003-.002.004 0 .005 0a.206.206 0 0 0 .031.022.101.101 0 0 1 .033.01c.01.004.019.01.028.017l.003.001.002.002c.005.002.01.003.013.002a.019.019 0 0 0 .011-.008.043.043 0 0 0 .008-.019.096.096 0 0 0 0-.02.076.076 0 0 0-.003-.024.061.061 0 0 0-.009-.018c0-.001-.002-.002 0-.004.003-.002.005-.001.005 0Zm-.033.094a.164.164 0 0 0-.028-.017.1.1 0 0 0-.028-.01l.002.013a.027.027 0 0 0 .006.012.046.046 0 0 0 .012.01.136.136 0 0 0 .02.01.146.146 0 0 1 .012.004l.008.004a.049.049 0 0 0-.003-.024l-.001-.002Zm.069-.09a.059.059 0 0 0-.01.018.074.074 0 0 0-.002.023v.021a.043.043 0 0 0 .008.02.019.019 0 0 0 .01.007c.005 0 .01 0 .014-.002l.002-.001.003-.002a.166.166 0 0 1 .028-.017.104.104 0 0 1 .033-.01.2.2 0 0 0 .031-.022c.001 0 .002-.002.005 0 .002.003.001.004 0 .005a.206.206 0 0 1-.032.022c0 .005 0 .01-.002.016a.035.035 0 0 1-.008.015.05.05 0 0 1-.013.01.137.137 0 0 1-.02.01.148.148 0 0 0-.023.01c-.002.001-.004 0-.005-.001-.004-.009-.002-.019 0-.027a.026.026 0 0 1-.014 0 .025.025 0 0 1-.015-.01.05.05 0 0 1-.008-.022.097.097 0 0 1-.001-.022.08.08 0 0 1 .003-.025.065.065 0 0 1 .01-.02c.002 0 .002-.002.005 0s.002.003 0 .005Zm.083.064a.1.1 0 0 0-.027.009.164.164 0 0 0-.028.017v.002a.049.049 0 0 0-.004.024l.008-.004a.132.132 0 0 1 .012-.005.127.127 0 0 0 .02-.01.043.043 0 0 0 .011-.009.029.029 0 0 0 .007-.012.057.057 0 0 0 .002-.012Z"/><path fill="currentColor" fill-rule="evenodd" d="M12.082 4.497a.02.02 0 1 0 0 .039.02.02 0 0 0 .013-.033.02.02 0 0 0-.013-.006Zm0 .006a.013.013 0 0 0-.014.013.013.013 0 0 0 .027 0 .013.013 0 0 0-.013-.013Zm0 .006h-.003l-.003.002-.002.002a.007.007 0 0 0 0 .006l.002.003.003.001.003.001c.002 0 .004 0 .005-.002a.008.008 0 0 0 0-.011.008.008 0 0 0-.005-.002Zm-.151-.011c.01 0 .02.008.02.019a.02.02 0 0 1-.02.019.02.02 0 0 1-.013-.006.02.02 0 0 1-.006-.013.02.02 0 0 1 .005-.014.02.02 0 0 1 .014-.005Zm0 .006c.007 0 .013.006.013.013a.013.013 0 1 1-.013-.013Zm0 .005h.003l.002.002.002.003a.008.008 0 0 1 0 .006l-.002.002-.002.002h-.003c-.002 0-.004 0-.006-.002a.008.008 0 0 1-.002-.005c0-.002 0-.004.002-.006a.008.008 0 0 1 .006-.002Z" clip-rule="evenodd"/><path fill="#171796" d="m14.52 3.558-.724-.825-.945.544-.162 1.916a8.24 8.24 0 0 1 1.358.225l.473-1.856v-.004Z"/><path fill="currentColor" d="M13.039 3.675a.13.13 0 0 1 .097.011.058.058 0 0 1 .03.023c.015-.012.027-.023.045-.03a.15.15 0 0 1 .068-.038.27.27 0 0 1 .101-.034h.105c.03 0 .06.008.086.023l.075.037c.03.015.056.03.083.038.054.02.112.027.169.019.014-.008.026.003.007.015-.124.075-.221.007-.304-.023.028.02.055.04.079.064.03.03.068.06.131.09a.315.315 0 0 0 .188.026l.015.004-.004.019a.18.18 0 0 1-.098.026.375.375 0 0 1-.195-.049c-.052-.026-.086-.06-.123-.09a.28.28 0 0 0-.113-.052.225.225 0 0 0-.108 0c.01.003.018.007.022.015a.166.166 0 0 0 .075.018c.015 0 .007.012-.019.027a.074.074 0 0 1-.06.03c-.037.022-.049.007-.063-.008 0 .011 0 .019-.008.03a.023.023 0 0 1 0 .015l.008.026c0 .008 0 .012.007.015a.034.034 0 0 1 .011.027c0 .007.004.01.011.015l.023.022c.022.008.03.026.037.045a.048.048 0 0 1 .027.034c.007 0 .015.007.022.015l.098.004c.03.003.052.022.075.045h.045a.15.15 0 0 1 .049-.012h.086a.095.095 0 0 1 .045.03c.018.02.045.015.067.008a.101.101 0 0 1 .09 0 .086.086 0 0 1 .038-.008c.015-.01.026-.015.037-.015.023 0 .038 0 .034.03 0 .008-.008.015-.011.015-.011.023-.027.027-.049.027-.004.015-.011.026-.019.03.011.033 0 .048-.026.045 0 .01-.011.015-.023.015a.053.053 0 0 1-.037.018l.015.023c.015.026-.008.037-.03.037v.045c.026.015.03.03.008.045.014.027.01.05-.02.06 0 .015 0 .03-.01.038-.008.007-.02.011-.012.022.011.02.008.042-.007.045l-.008.004-.007.008a.362.362 0 0 0-.056.037c-.004 0-.008.004-.008 0a.36.36 0 0 1-.068.09.044.044 0 0 1-.037.041.015.015 0 0 1-.011.015c.011.012.018.023.007.038a.112.112 0 0 1-.049.03c-.037.011-.063.007-.075-.008-.014-.01-.01-.022 0-.026-.026 0-.03-.007-.03-.026 0-.008.004-.008.012-.004.015 0 .026-.007.037-.011l.019-.023c0-.026.019-.037.041-.048a.117.117 0 0 0 .053-.045l.034-.057a.045.045 0 0 1-.012-.026.056.056 0 0 1-.018-.022c-.02 0-.027-.008-.027-.02a.04.04 0 0 1-.011 0c-.011.005-.019.012-.026.008a.259.259 0 0 1-.042.038c-.007.011-.014.019-.026.019-.037.003-.056.045-.075.063-.007.004-.011.015-.015.027 0 .022-.003.037-.015.037h-.03c.011.011.011.023 0 .034-.003.011-.015.015-.03.015-.02.002-.04 0-.06-.008-.015-.007-.018-.018-.018-.026-.012-.007-.016-.011-.012-.019 0-.007.008-.01.015-.007l.023-.008a.196.196 0 0 1 .067-.052.113.113 0 0 1 .026-.026c0-.02.02-.038.038-.053l.004-.022v-.012c-.008-.01-.011-.026-.004-.037a.048.048 0 0 1 0-.023c-.041.023-.056.015-.06-.003-.015.01-.03.018-.037 0-.015.003-.03.01-.045.003l-.03.008-.015.026a.111.111 0 0 1-.02.056.344.344 0 0 1-.025.057.037.037 0 0 1-.004.018c0 .023-.008.034-.019.038a.091.091 0 0 1-.015.03v.007a.036.036 0 0 1-.007.038l-.038.022h-.037c-.015-.01-.015-.015-.012-.022a.022.022 0 0 1-.018 0l-.015-.011c-.004-.008-.004-.015.003-.02l.034-.022c0-.007.008-.01.015-.015.008-.015.015-.022.023-.026l.026-.056c.004-.004.007-.011.004-.015l.003-.011s.008-.004 0-.008a.053.053 0 0 1 .008-.045c.011-.015.022-.052.011-.075v-.03h-.011c-.008-.007-.015 0-.023.008l-.015.022c-.003.03-.018.056-.037.06v.045c0 .015 0 .026-.008.026-.007 0-.015.008-.018.02a.037.037 0 0 0-.004.01c.011.012.007.027-.004.038-.023.022-.053.019-.082.011-.023-.011-.03-.019-.027-.03-.03 0-.026-.026 0-.034a.124.124 0 0 0 .072-.052c0-.03.007-.049.026-.053 0-.018.007-.037.015-.052.007-.015.011-.03.007-.049-.015-.011-.015-.022 0-.037.004 0 .004 0 0-.008-.011 0-.011-.011-.011-.019 0-.007 0-.007-.008-.007-.022-.004-.018-.015-.007-.026.004 0 .008-.012 0-.015l-.004-.015c-.015-.012-.007-.023 0-.034l-.015-.03c-.026 0-.037-.015-.022-.034a.129.129 0 0 1 .026-.022c.004-.012.011-.023.007-.03-.007-.023.02-.038.038-.053a.034.034 0 0 1-.004-.015c-.011-.011-.007-.022.004-.03a.037.037 0 0 1-.004-.019c-.03.008-.03-.01-.015-.037-.019-.011-.015-.03.019-.056a.038.038 0 0 1 0-.015.075.075 0 0 0-.038.01c-.01.012-.022.008-.033.005a.056.056 0 0 0-.015-.015.022.022 0 0 1-.007-.01.023.023 0 0 1 0-.013c-.038 0-.042-.026-.023-.037a.104.104 0 0 0 .026-.034c.007-.023.026-.038.049-.056v-.02a.06.06 0 0 0-.027-.01.045.045 0 0 0-.022-.027c-.004 0-.008-.007 0-.015-.023-.015-.019-.026-.011-.037Z"/><path fill="#F7DB17" d="M13.67 4.574h-.008a.305.305 0 0 1-.03.027c-.008-.012-.019 0-.008.003l-.007.008c0 .011-.008.015-.019.015h-.004V4.6a.13.13 0 0 0-.003.015v.015c-.03.01-.049.04-.071.063l-.015.03c0 .008 0 .034-.012.034h-.007c0-.004-.008-.004-.015 0h-.038c-.007.008.015.008.027.011.003.004.007.012.003.02-.007.025-.067.018-.086.007-.008-.004-.008-.012-.008-.02h.012c.007 0 .015 0 .018-.007 0 0 .004 0 0-.003 0-.004 0-.004 0 0a.05.05 0 0 1-.018 0h-.027c0-.004.008 0 .008 0l.026-.012a.199.199 0 0 1 .072-.052l.03-.026c0-.027.014-.038.03-.057l.01-.026v-.011c-.007-.015-.01-.026-.003-.038a.057.057 0 0 1 0-.03V4.51a.233.233 0 0 1 .03-.023v.03a.05.05 0 0 0-.008.011v.012a.016.016 0 0 1 0-.012l.012-.007.026-.015.026-.023v.038l-.022.026v.004h.004a.086.086 0 0 1 .018-.026.12.12 0 0 1 .038-.023v.038a.056.056 0 0 0 .018.033Z"/><path fill="#F7DB17" d="m13.088 4.237.007-.007.015-.023a.154.154 0 0 1 .02-.022.154.154 0 0 0-.016.026.237.237 0 0 0-.015.019v.007c.004.011.004.019.011.026l.012-.015a.061.061 0 0 1 .015-.015.069.069 0 0 0 .018-.022h.004l-.007.015a.074.074 0 0 1-.012.011l-.015.011a.047.047 0 0 0-.007.015v.012c-.008.01-.019.018 0 .026v.01c0 .003.002.006.004.009l-.004.026c-.011.007 0 .007.004.007l.015-.015a.16.16 0 0 1 .01-.015l.016-.018.004-.02h.003c0 .009 0 .016-.003.023a.075.075 0 0 1-.02.02.14.14 0 0 0-.007.014.096.096 0 0 0-.01.015c.007.004.007.015.007.026h.003l.008-.007.007-.015h.004l-.007.015-.008.011c.008.004.008.011 0 .019-.015.011-.011.015 0 .026v.045l.004.011h-.004v-.01a.168.168 0 0 0-.026.067c-.023.003-.019.03-.023.048a.147.147 0 0 1-.07.057c-.005 0-.02.003-.02.01 0 .005.008.012.015.008.015-.018.027-.007.008.008v.011c.019.015.06.019.082.008.012-.012.02-.02.008-.034 0-.019.007-.038.03-.045V4.6l.004-.049.007-.004c.008 0 .023-.026.026-.048v-.015c.004-.008.008-.008.012 0 0-.008 0-.012.007-.015.008-.012.019-.023.03-.015a.112.112 0 0 1-.004-.03.099.099 0 0 1 0-.038l.008-.007.011-.027.011-.026h.004l-.011.026-.011.03v.004a.093.093 0 0 0-.004.038l.007.033.008.015v.023c.015.022 0 .064-.011.082a.036.036 0 0 0-.005.015v.015c.008.008 0 .015-.003.023v.004c0 .007 0 .015-.007.018l-.027.06c-.015.004-.018.012-.022.027-.011.003-.011.007-.015.015a.1.1 0 0 1-.034.022c-.011.004 0 .008.008.015.007.004.015-.007.022-.015.008-.011.011-.007.008 0a.075.075 0 0 0-.008.026l.026.012c.015 0 .034-.015.045-.023.012-.007.008-.019.004-.03h-.019a.125.125 0 0 1-.018-.011.105.105 0 0 0 .037.007v-.01a.102.102 0 0 0 .019-.03c.015-.008.015-.016.015-.035l.004-.018c.01-.02.019-.04.026-.06a.07.07 0 0 0 .019-.053c0-.007.003-.011.01-.011a.138.138 0 0 0 .012-.019l.004-.015a.028.028 0 0 1 .007-.007.037.037 0 0 0 0-.02.041.041 0 0 0-.003-.014.018.018 0 0 1-.004-.008V4.45h.004s.003 0 0 0v.011c.007.008.007.011.007.019a.037.037 0 0 1 0 .019.027.027 0 0 0-.007.007.07.07 0 0 0 0 .011l.022-.003.015-.02.008-.022s.003 0 0 0a.08.08 0 0 1-.004.027l-.011.01c.015.008.026 0 .037 0v-.048l.015-.026c.004 0 .004 0 0 0l-.007.03v.037c.003.015.007.02.018.012l.015-.008v-.004a.677.677 0 0 1 .068-.06c.004.004 0 .004 0 .004a.24.24 0 0 0-.03.026l-.03.027v.01c0 .012.004.02.022.012l.023-.007a.292.292 0 0 1 .03-.019l.019-.011c0-.008.001-.016.003-.023l.027-.049a.087.087 0 0 0 .04-.04h.005l-.015.025a.095.095 0 0 1-.027.02l-.026.044a.1.1 0 0 0-.004.019v.004a.1.1 0 0 0 0 .03c.008 0 .015 0 .027-.012l.026-.026a.064.064 0 0 1 .007-.019.037.037 0 0 1 .015-.015h.004v.004a.034.034 0 0 0-.015.011.064.064 0 0 0-.007.02v.04l.037-.018v.037c0 .011.008.023.015.03a.105.105 0 0 1 .019-.022l.011-.012.008-.007.01-.008-.007.012-.007.007-.011.008v.018h.022c0 .02 0 .023.019.023v-.019l.004-.019h.003a.07.07 0 0 0-.003.02v.018a.053.053 0 0 0 .026.022l.007-.018v-.015h.004v.018l-.011.02v.018a.092.092 0 0 1 .007-.011l.012-.015c.003 0 .003 0 0 0 0 .007 0 .01-.008.015a.142.142 0 0 0-.007.015l.007.007c-.022.038-.049.094-.094.113-.022.007-.033.018-.037.045a.037.037 0 0 0-.019.022l-.045.011c0 .012 0 .015.011.015l.027-.01c.003 0 0 .018-.02.03v.003c.016.022.053.015.072.007.015 0 .038-.018.045-.033.004-.008 0-.015-.007-.023-.03.004-.023-.022 0-.011.007 0 .01 0 .01-.011.023-.008.035-.02.038-.038a.548.548 0 0 0 .06-.079c.004-.007.008-.015.004-.018a.037.037 0 0 0 .008-.02l.003-.014h.004v.019a.137.137 0 0 1-.007.01c0 .005 0 .008.007.008l.056-.037c0-.011.008-.015.015-.015l.008-.004c.004-.015 0-.022-.008-.03-.003-.015.004-.019.015-.026.008-.008.008-.026.008-.038V4.5l.004.01v.005c.01-.004.022-.012.026-.023a.043.043 0 0 0-.011-.03.349.349 0 0 1-.023.008.383.383 0 0 0 .038-.023c.007-.011-.012-.019-.02-.022l-.025-.027v-.003l.026.022v-.041l-.008-.015a.041.041 0 0 1-.018-.015.038.038 0 0 1-.004-.019l.007.015.015.015h.038c.011-.011-.008-.026-.011-.034l-.004-.018h.004a.035.035 0 0 0-.008-.008h-.004V4.29c.003 0 .006.002.008.003l.007.008h.004c.011 0 .019-.008.026-.019a.135.135 0 0 0-.01-.015.386.386 0 0 0-.02-.011v-.004h.004a.149.149 0 0 1 .03.03c.015 0 .015 0 .023-.011a.094.094 0 0 0-.019-.03c0-.004 0 0 0 0 .007 0 .011.007.015.011l.007.019.015-.004c.012-.007 0-.03 0-.037a.12.12 0 0 0-.003 0l-.008-.008c0-.004 0 0 0 0h.008l.007.004.015-.023c0-.015 0-.007.019-.01.015 0 .022 0 .034-.023.003 0 .007 0 .007-.012 0-.01 0-.015-.011-.015-.019 0-.03 0-.038.012v.01s0 .005 0 0l-.007-.007c-.015 0-.026 0-.041.008h-.008l.008.011.003.015a.038.038 0 0 0-.007-.015.068.068 0 0 0-.011-.015.097.097 0 0 0-.038-.007l.008.003.007.008v.004a.53.53 0 0 1-.015-.015.1.1 0 0 0-.034.007l-.022.008.015.018.007.023a.077.077 0 0 0-.026-.038h-.019l.008.012-.011-.015a.052.052 0 0 1-.02-.008.314.314 0 0 1 .008.056.322.322 0 0 0-.007-.033.179.179 0 0 0-.004-.027.066.066 0 0 1-.007-.007.08.08 0 0 0-.023-.015.038.038 0 0 1-.007.026c-.004 0 0 0 0 0a.03.03 0 0 0 .006-.014c0-.006 0-.011-.003-.016a.116.116 0 0 0-.037-.007c.007.009.013.02.019.03l.01.018v.02a.075.075 0 0 0-.003-.02.027.027 0 0 0-.011-.015.2.2 0 0 0-.023-.033h-.015.004a.021.021 0 0 1 0 .01v-.007a.026.026 0 0 0-.007-.003h-.03a.18.18 0 0 1 .037.086.179.179 0 0 0-.015-.045.19.19 0 0 0-.026-.038h-.023c.006.004.011.01.015.015 0 .004 0 .004 0 0a.06.06 0 0 0-.01-.003.088.088 0 0 0-.012-.008h-.011l-.004.004a.178.178 0 0 1 .037.041s0 .004 0 0a.146.146 0 0 0-.045-.037h-.022a.2.2 0 0 1 .019.063h-.004a.135.135 0 0 0-.008-.03.236.236 0 0 0-.01-.033h-.016c.006.02.01.04.011.06v.003a.342.342 0 0 0-.007-.037.355.355 0 0 0-.011-.03.146.146 0 0 0-.05-.038c.01.012.016.027.016.042v.003a.06.06 0 0 0-.008-.026.065.065 0 0 0-.015-.022h-.048c.007.003.015.015.015.022 0-.007-.012-.019-.023-.026h-.022l.01.011.008.019.008.022.015.015s.004 0 0 0c0 .004 0 .004 0 0a.041.041 0 0 1-.019-.01.056.056 0 0 1-.007-.027.103.103 0 0 0-.019-.03h-.026l.007.03.004.037h-.004a.26.26 0 0 0 0-.037.169.169 0 0 0-.011-.03.037.037 0 0 0-.023-.019v.011h-.003a.018.018 0 0 0 0-.01c-.008-.02-.012-.027-.023-.03v.014l-.007.015h-.004l.004-.019v-.015c0-.022-.008-.037-.03-.045v.008l-.004.019h-.004V4a.07.07 0 0 0 0-.01l-.019-.02a.089.089 0 0 1 0 .027.115.115 0 0 1-.015.03h-.003a.111.111 0 0 0 .01-.03.082.082 0 0 0 .005-.03.039.039 0 0 1-.008-.011v.007h-.004v-.007l.004-.004v-.004a.025.025 0 0 0-.004-.01.026.026 0 0 0-.007-.008.058.058 0 0 1-.008.018h-.003c-.004 0 0 0 0 0l.003-.01.004-.012a.035.035 0 0 1-.004-.008.03.03 0 0 1-.003.008.044.044 0 0 1-.008.007c-.004-.003 0-.003 0-.003l.004-.008a.026.026 0 0 0 .004-.007v-.008c0-.011 0-.015-.008-.026h-.011a.107.107 0 0 0-.019.015v-.004a.12.12 0 0 1 .015-.011.034.034 0 0 1 .015-.004V3.87l-.037.01a.06.06 0 0 1-.034-.007h.03c.011 0 .026 0 .041-.007l.008-.023h-.02l.023-.003v-.008c0-.007.012-.007.015 0 .008 0 .012.008.015.011.012.008.023 0 .034-.007h-.007v-.004h.01c.023 0 .038 0 .053-.019h-.037c-.008 0-.015 0-.023-.007l.027.004h.037l.019-.012a.202.202 0 0 1-.075-.022.053.053 0 0 0-.023-.011c-.018 0-.037 0-.052.01l-.011-.01-.015-.008h-.023c-.004 0 0 0 0 0h.045a.169.169 0 0 1 .064-.011.214.214 0 0 1 .064-.008v-.007c.01-.011.015-.023.01-.034a.071.071 0 0 0-.03-.026h-.048a.15.15 0 0 0-.03.004l.023.015.015.037v.004h-.008a.075.075 0 0 0-.015-.038c-.004-.007-.022-.01-.026-.015l-.049.008-.026.015c.011-.004.022 0 .03 0a.047.047 0 0 1 .022.03v.004h-.007a.038.038 0 0 0-.019-.026c-.015-.008-.045 0-.06.01a.158.158 0 0 0-.022.023h-.008v-.007l.026-.023.027-.015a.075.075 0 0 1 .037-.019l.049-.007a.038.038 0 0 0-.019-.019.052.052 0 0 0-.03 0 .19.19 0 0 0-.056.026h.019l.003.008h-.033l-.057.045c-.018 0-.03 0-.037.007l-.004.023-.007.026c-.02.019-.038.034-.05.056a.053.053 0 0 1-.01.02c.004 0 .008 0 .01.003v-.008l.008-.015h.004a.043.043 0 0 0-.004.015v.02h-.007a.011.011 0 0 0-.004-.008.019.019 0 0 0-.011 0l-.011.007-.008.011c0 .012.008.012.019.012.022 0 .004.015.015.026l.019.015h.018c0-.015 0-.023.008-.023a.03.03 0 0 1 .007-.015v.008a.03.03 0 0 0-.003.007v.015a.09.09 0 0 1 .037-.007c.026-.03.038-.023.015 0l-.004.007a.052.052 0 0 0-.007.023c-.008.004-.038.03-.026.037.007 0 .015 0 .01.008-.003.007-.014.022-.01.034h.01a.234.234 0 0 0 .027-.023.142.142 0 0 0 .019-.03h.004a.324.324 0 0 1 .01-.03.04.04 0 0 1 .012-.026l.011.011h.008a.015.015 0 0 0 .011 0l.008-.011h.003a.045.045 0 0 1-.01.015.019.019 0 0 1-.012 0h-.008a.04.04 0 0 1-.01-.011.445.445 0 0 0-.02.052v.004a.21.21 0 0 1-.045.052l.008.02.037-.038.03-.038a.234.234 0 0 1-.01.023v.04H13.2v-.033l-.01.011a.424.424 0 0 1-.038.038c-.012.011-.023.011-.008.026l.011-.011.015-.011h.004v.003l-.015.012-.015.01c0 .005.002.009.004.012a.02.02 0 0 1 .004 0l.03-.022c.003 0 0 .003 0 .003l-.027.023h-.003c-.012.011-.045.03-.038.045l.023-.008.022-.018c.004 0 0 0 0 .003a.093.093 0 0 1-.022.02v.007-.004a.134.134 0 0 1-.027.004c.004.015 0 .026-.01.037 0 .004-.038.034-.023.038a.038.038 0 0 0 .01.007Z"/><path fill="#F7DB17" d="M13.103 3.753a.084.084 0 0 0-.022-.011.053.053 0 0 0-.02-.019c-.007-.007-.007-.003-.003-.011l.008-.004h.01a.015.015 0 0 1 .008.008h.004s.004 0 0 0a.02.02 0 0 0-.007-.008.038.038 0 0 0-.015-.003.026.026 0 0 0-.016 0l-.007-.02.015.005.008.003a.026.026 0 0 0-.008-.007h-.008a.109.109 0 0 1 .08.007.047.047 0 0 1 .03.023l-.008.007c-.019 0-.03 0-.038.008-.007.004-.007.015-.007.022h-.004Z"/><path fill="currentColor" d="m13.687 4.568-.015.007c0-.01.008-.015.011-.022v.007l.004.008Zm.075.157a.158.158 0 0 1-.034.03v-.003l.015-.015.015-.015.004.003Zm.049-.06-.008.012H13.8l.008-.012h.004Zm-.027 0a.042.042 0 0 1-.007.012.038.038 0 0 1-.019.015v-.004a.038.038 0 0 0 .015-.011.037.037 0 0 0 .004-.015h.004l.003.003Zm.045-.06a.035.035 0 0 0-.003.008.036.036 0 0 0-.004.007h-.004a.041.041 0 0 1 .011-.018v.003Zm.038 0v.02l-.011.018c-.004 0 0 0 0 0l.004-.019.007-.019Zm-.015-.225a.106.106 0 0 1 .015.057c0-.008.002-.015.004-.023a.052.052 0 0 0 .011-.041c0-.004.004 0 .004 0v.022a.063.063 0 0 1-.011.023l-.008.037h-.004v-.003c0-.023 0-.045-.015-.068V4.38h.004Zm-.03.038v.011h-.004v-.015h.004v.004Zm-.007.052a.239.239 0 0 1 .007.053.034.034 0 0 1 .004-.004l.011-.011h.004a.037.037 0 0 0-.011.011.026.026 0 0 0-.008.015.22.22 0 0 0-.011-.064h.004Zm.037.02c.004.014.005.03.004.044v-.022a.142.142 0 0 0-.004-.023Zm.037-.008v.022a.059.059 0 0 1 0 .019.043.043 0 0 0 0 .022l.004.023a.094.094 0 0 1-.011-.023.048.048 0 0 1 0-.022.055.055 0 0 0 .008-.019v-.022Zm.02-.057-.005.012v.007h-.003v-.022h.004l.003.003Zm-.02-.097v.007c.004 0 .004 0 0 0 0 0 0 .004 0 0v-.007s-.003 0 0 0c0 0 0-.004 0 0Zm.008-.075v.03a.029.029 0 0 0-.008.011.05.05 0 0 0 0 .023h-.003a.053.053 0 0 1 0-.023.034.034 0 0 1 .011-.015v-.026Zm-.075-.026a.07.07 0 0 1 .03.026c.008.007.011.019.011.034l-.022-.008v.068a.062.062 0 0 1-.038.037.143.143 0 0 0 0-.067h.004c.005.02.005.04 0 .06a.056.056 0 0 0 .026-.03.14.14 0 0 0 .004-.072l.023.008c0-.011-.004-.019-.012-.03a.095.095 0 0 0-.026-.023v-.003Zm.195-.038v.008h-.004v-.008c0-.004 0 0 0 0h.004Zm-.045 0 .011.004a.03.03 0 0 1 .004.007v.004a.031.031 0 0 0-.008-.007.023.023 0 0 0-.007-.008Zm-.067.019.01.019v.022c-.003 0-.003 0 0 0l-.003-.022a.038.038 0 0 0-.011-.02h.004Zm-.225.019v.015l-.004.003v-.018h.004Zm.037-.023.008.015v.004h-.004v-.004l-.004-.011v-.004Zm.09.06v.004h-.004v-.004h.004Zm.03-.067v.007l.001.004-.001.004.003-.001a.004.004 0 0 0 0-.006h-.003c-.004-.005-.004-.005 0-.005v-.003Zm-.206.01a.04.04 0 0 0 .007.027c.008.004.008.011.011.015v.015h-.003V4.25a.034.034 0 0 0-.008-.011.037.037 0 0 1-.007-.015.04.04 0 0 1-.004-.015h.004Zm.082.057.008.026v.027c0 .01 0 .022.007.03l.023.026a.108.108 0 0 1-.004-.038l.011-.037c.008 0 .008-.008.012-.011v-.015h.003v.015a.057.057 0 0 1-.011.018.06.06 0 0 0-.011.034c0 .011 0 .023.007.038h-.003a.077.077 0 0 1-.03-.03.048.048 0 0 1-.008-.03V4.29a.069.069 0 0 0-.008-.022c0-.004.004 0 .004 0v-.004Zm-.033.053c0 .007 0 .018-.008.026a.133.133 0 0 1-.015.022h.011a.084.084 0 0 0 .027-.022l.01-.011s.005 0 0 0a.139.139 0 0 1-.007.015.1.1 0 0 1-.011.007v.015-.007a.061.061 0 0 0-.004-.004.083.083 0 0 1-.015.007l-.015.008v-.004l.015-.026.008-.026h.004Zm-.038 0v.003h-.004c-.004 0 0 0 0 0v-.007l.004.004Z"/><path fill="currentColor" d="M13.612 4.263c.008.012.008.023.008.038a.07.07 0 0 1-.015.03.071.071 0 0 0-.026.045l.007-.011.019-.012a.173.173 0 0 0 .041-.033h.004s.004 0 0 0a.15.15 0 0 1-.045.037.038.038 0 0 0-.015.011.088.088 0 0 0-.015.02c0-.016 0-.027.007-.038l.02-.023.014-.03c0-.011 0-.022-.007-.034h.003Zm.087.132.003.015.004.003c.008.012.011.02.011.03l-.003.038h-.004a.067.067 0 0 0-.015-.038.126.126 0 0 0-.03-.022v-.004a.082.082 0 0 1 .034.026l.01.023a.12.12 0 0 0 0-.023.05.05 0 0 0-.003-.026l-.004-.007c-.007-.008-.01-.012-.007-.015h.004Zm.037 0 .004.007s0 .004 0 0h-.004l-.007-.007h.007Zm.038.01-.008.027-.007.026.007-.026.008-.026Zm.026.15v.005-.008.004Zm-.026-.044v.011l-.008.015v-.015l.004-.015h.004v.004Zm-.038 0h.004v.004h-.004V4.51Zm-.041-.023a.227.227 0 0 1-.004.008v.007h-.004v-.015h.004s.004 0 0 0h.004Zm-.064.068a.026.026 0 0 0-.004.007v.008s-.003.004-.007 0v-.008a.03.03 0 0 1 .007-.01h.004v.003Zm-.18.172v.008a.043.043 0 0 1-.007.004c-.004 0-.004 0 0 0a.03.03 0 0 0 .003-.012h.004Zm.03-.015a.011.011 0 0 1-.004.008h-.007a.014.014 0 0 0 .004-.004v-.004h.007Zm.038-.022v.004a.02.02 0 0 1-.008.003v-.007h.008Zm.056-.143-.004.015v.015h-.004v-.033h.004l.004.003Zm.037-.386a.034.034 0 0 1-.003.011.055.055 0 0 1-.008.012h-.004l.008-.012a.03.03 0 0 0 0-.01l.004-.005.003.004Zm-.037-.037a.072.072 0 0 1 .004.037v-.019a.06.06 0 0 0-.008-.015c0-.003 0 0 0 0l.004-.003Zm-.053.063a.056.056 0 0 1-.015-.015.026.026 0 0 1-.003-.015l.007.015.011.015Zm.057.098v.007h-.004v-.007h.004Zm-.075-.075.022.037.004.03c.007 0 .011-.003.015-.01v-.035a.07.07 0 0 0 .011-.022.133.133 0 0 0 .004-.019h.004l.015.03.01.034h-.003a.109.109 0 0 0-.011-.034.146.146 0 0 0-.011-.022v.015a.073.073 0 0 1-.012.018l-.003.038-.015.011v.015h-.004c0-.015 0-.03-.008-.045a.074.074 0 0 0-.018-.037V4.21Zm.045.187v.012l-.004.015h-.004v-.03h.004c.004 0 .004 0 0 0l.004.003Zm-.083.034v.011l-.004-.01c0-.005.004 0 .004 0Zm.071-.094a.085.085 0 0 1-.007.023l-.011.019a.041.041 0 0 0-.012.022.068.068 0 0 0 0 .026s0 .004 0 0a.07.07 0 0 1-.003-.026.04.04 0 0 1 .01-.026.08.08 0 0 0 .012-.019.08.08 0 0 0 .008-.022s.003 0 0 0l.003.003Zm-.018-.03v.023a.082.082 0 0 1-.02.022.068.068 0 0 0-.014.02l-.008.018h-.003l.007-.023.019-.018a.073.073 0 0 0 .011-.02.038.038 0 0 0 .004-.022h.004Zm-.09.045c0 .015 0 .027-.008.038a.059.059 0 0 1-.022.03h-.004v-.004a.058.058 0 0 0 .022-.03c.008-.007.008-.022.008-.037l.004.003Zm-.113.064v.008l.004.003v.004h-.004l-.004-.007v-.008c-.003 0 0 0 0 0h.004Zm-.049 0a.105.105 0 0 0 0 .026l.015.023.004.019V4.5l.015-.02a.053.053 0 0 0 .008-.022.06.06 0 0 1 0 .023l-.02.022h-.003v-.018a.07.07 0 0 0-.007-.015.101.101 0 0 1-.015-.053h.003Zm.008.158c0-.01 0-.02.004-.03h.003a.095.095 0 0 0-.003.03h-.004Zm-.008.04v-.014s0-.004.004 0v.015h-.004Zm-.03.076.008-.011.007-.012h.004a.143.143 0 0 1-.007.015l-.008.008c-.004 0-.004 0 0 0h-.004Zm-.04-.248v.008h-.005v-.008h.004Zm-.076.17V4.6h.004v.011h-.004Zm.188-.3-.012.037c0 .01.004.022.012.026a.043.043 0 0 1 .018.026v-.015a.011.011 0 0 0 0-.015h.004a.103.103 0 0 1 0 .038h-.004v-.008l-.018-.022c-.012-.008-.015-.015-.015-.03l.007-.038h.008Zm-.015-.05v.03a.148.148 0 0 1-.012.027.091.091 0 0 0-.007.037.07.07 0 0 0 .011.038v.003a.094.094 0 0 1-.007-.078.15.15 0 0 0 .007-.027c0-.01.004-.018 0-.03h.004s.004 0 0 0h.004Zm-.087.124a.032.032 0 0 0 0 .015l.004.019s0 .004 0 0a.056.056 0 0 1-.011-.019c0-.006 0-.013.004-.019h.003v.004Zm-.037-.015v.011a.03.03 0 0 1 0 .012.015.015 0 0 0-.004.011l.004.007v.004a.031.031 0 0 1-.008-.011.02.02 0 0 1 0-.015.03.03 0 0 0 .004-.008v-.01h.004Zm.217-.322a.09.09 0 0 0 .012.056.096.096 0 0 1-.015-.026.084.084 0 0 1 0-.03h.003Zm-.026.026a.15.15 0 0 1 .019.064h-.004a.142.142 0 0 0-.019-.06v-.004h.004Zm-.135.004c-.015.018-.019.037-.022.048l.007.034.008.03a.111.111 0 0 1-.008.03c-.004 0 0 0 0 0v-.03a.089.089 0 0 0 0-.03.064.064 0 0 1-.011-.037c0-.012.007-.027.022-.045 0 0 .004 0 0 0h.004Zm.124-.053v.019l-.015.015a.03.03 0 0 0-.011.015v.026s0 .004 0 0a.072.072 0 0 1 0-.026.038.038 0 0 1 .01-.019.037.037 0 0 0 .012-.015.023.023 0 0 0 0-.015h.004Zm-.131.011v.027c0 .007-.008.015-.015.022a.045.045 0 0 0-.015.023.11.11 0 0 0-.004.026h-.004c0-.01.001-.02.004-.03 0-.008.007-.015.015-.023l.015-.022a.038.038 0 0 0 0-.023h.004Zm.075.004v.008c0 .004 0 .008.003.01a.023.023 0 0 1-.007-.007.03.03 0 0 1 0-.01h.004Zm0-.019a.03.03 0 0 0-.011.006.031.031 0 0 0-.008.01l-.008.026.008.018v.027a.089.089 0 0 0 0-.027l-.011-.015a.075.075 0 0 0-.02.045c0 .02.005.038.02.057h-.004a.101.101 0 0 1-.019-.057c0-.018.008-.033.023-.048 0-.012 0-.023.007-.03a.037.037 0 0 1 .019-.015l.004.003Zm-.027-.03v.004c0 .011 0 .023-.007.026a.03.03 0 0 0-.008.012.06.06 0 0 0-.003.015h-.004v-.015a.038.038 0 0 1 .011-.015c.008-.004.008-.015.008-.023v-.004h.003Zm.214.225.004.02v.014-.015a.07.07 0 0 0-.008-.015h.004v-.004Zm0 .075v.023l-.007.022-.012.023.008-.023a.075.075 0 0 0 .007-.022.058.058 0 0 0 0-.026h.004v.003Zm-.045-.067a.094.094 0 0 1 .026.094h-.003a.09.09 0 0 0-.023-.09v-.004s0-.004 0 0Zm0 .075a.2.2 0 0 1-.037.052.095.095 0 0 0-.02.038.046.046 0 0 0-.003-.023.07.07 0 0 0-.007-.015.052.052 0 0 1-.012-.033l.012-.03.01-.023a.085.085 0 0 0 0-.022h.005s.003 0 0 0a.097.097 0 0 1-.012.048.038.038 0 0 0-.01.027c0 .01 0 .022.007.03.005.009.01.019.01.03a.099.099 0 0 1 .02-.03.184.184 0 0 0 .018-.023l.012-.026h.007Zm-.12-.038c0 .019.005.037.015.053v.004h-.004a.089.089 0 0 1-.01-.027.115.115 0 0 1 0-.026v-.004Zm-.064.038v.011h-.003v-.011h.003Zm.023-.06-.004.019a.052.052 0 0 1-.011.018c-.004 0 0 0 0 0l.007-.018a.05.05 0 0 0 0-.02h.008Zm-.06.116a.124.124 0 0 1-.011-.064c0-.018.01-.03.022-.037l.015-.026a.055.055 0 0 0 .004-.038c-.004-.019.004 0 .004 0v.038l-.023.026a.072.072 0 0 0-.019.037c0 .02 0 .038.012.064h-.004Zm-.038-.041v.011l.004.015a.037.037 0 0 1-.007-.015.03.03 0 0 1 0-.015h.003v.004Zm.173-.12c.004.007.011.019.011.03s0 .022-.007.034h-.004c-.004 0 0 0 0 0l.007-.034a.056.056 0 0 0-.01-.03h.003Zm.052-.041a.09.09 0 0 1 0 .063c0-.01-.002-.02-.007-.03a.056.056 0 0 0-.019-.018c0-.004 0-.004.004 0a.06.06 0 0 1 .022.037v-.022c0-.01 0-.02-.003-.03h.003Zm.03-.045.015.03v.056-.019c0-.012 0-.025-.003-.037a.056.056 0 0 0-.015-.027c0-.003 0 0 .003 0V4.11Zm-.082-.008a.038.038 0 0 0-.011.019v.026a.072.072 0 0 1 0-.026c0-.008 0-.015.007-.019.004 0 .004 0 0 0h.004Zm-.165.113a.074.074 0 0 1-.011.037.093.093 0 0 1-.03.026c-.004 0 0 0 0 0l.026-.026a.063.063 0 0 0 .011-.037l.004-.004v.004Zm0-.06v.018a.081.081 0 0 1-.011.02l.003-.02v-.018h.008Zm.109-.008v.038h-.004v-.038h.004Zm.026-.049c-.008.012-.011.02-.011.03l.007.027.011.045c0 .015-.007.026-.015.04l.012-.04a.07.07 0 0 0-.012-.045l-.007-.027c0-.01 0-.022.011-.03 0 0 .004 0 0 0h.004Zm-.173-.303a.075.075 0 0 1 .038-.02c.015 0 .03 0 .045.012h.03-.03c-.015.019-.03.026-.041.026a.037.037 0 0 1-.034-.007c0-.004 0-.004 0 0a.038.038 0 0 0 .034 0 .057.057 0 0 0 .037-.019.071.071 0 0 0-.037-.004.075.075 0 0 0-.038.015c-.004 0 0 0 0-.003h-.004Z"/><path fill="currentColor" d="M13.185 3.788a.011.011 0 0 1 .011.01.01.01 0 0 1-.004.006.011.011 0 0 1-.007.002.011.011 0 0 1-.007-.007c0-.003 0-.005.002-.007a.012.012 0 0 1 .005-.004Zm.068.06a.083.083 0 0 0 .03-.027c.004 0 0 0 0 .004a.096.096 0 0 1-.008.011l-.018.015c-.004-.003 0-.003 0-.003h-.004Zm.139-.06a.019.019 0 0 1 .01 0 .03.03 0 0 1 .012.007h-.019l-.003-.004v-.003Zm-.075.003a.03.03 0 0 1 .01-.015l.027-.003v.003a.037.037 0 0 0-.026 0 .025.025 0 0 0-.008.009.025.025 0 0 0-.004.01c-.003 0-.003 0 0 0v-.004Zm.007.015a.015.015 0 0 1 0-.01.023.023 0 0 1 .011-.005h.004a.019.019 0 0 0-.011.008.01.01 0 0 0 0 .007h-.004Zm-.135.042-.004.01v.012l-.004.004a.038.038 0 0 1 0-.015c0-.004 0-.008.008-.011Zm.037.018v.008-.008Zm-.022-.04h.022a.054.054 0 0 1-.01.003h-.012s-.004 0 0-.004Zm.022-.076a.011.011 0 0 0-.007.004.015.015 0 0 0-.004.007h-.004a.019.019 0 0 1 .008-.01c.003-.002.005-.002.008 0h.003-.004Zm-.037.008a.03.03 0 0 0-.008 0 .01.01 0 0 0 0 .007h-.003c-.004 0 0 0 0 0v-.007a.034.034 0 0 1 .011-.004v.004Zm-.026 0a.025.025 0 0 0-.004.003.026.026 0 0 0-.004.008h-.003c0-.003.002-.005.003-.008a.032.032 0 0 1 .008-.007v.004Zm-.03.026a.063.063 0 0 0-.015.015v-.004a.073.073 0 0 1 .015-.015v.004Zm0 .034v.003l-.008.008c-.004 0-.004 0 0 0V3.82l.008-.007c.004 0 .004 0 0 0v.004Zm-.026.007v.011l-.004.004c-.004 0 0 0 0 0v-.015h.004Zm.037.053V3.9h-.004v-.022h.004Zm-.023-.015v.01h-.003v-.01h.003Zm-.022-.17a.026.026 0 0 1 .019.016v.004h-.004a.027.027 0 0 0-.008-.012.026.026 0 0 0-.007-.003v-.004Zm.195.252a.06.06 0 0 1 0 .053h-.004a.06.06 0 0 0 0-.05v-.003h.004Zm-.064.075c0-.011.008-.019.011-.026l.016-.023a.034.034 0 0 0 .01-.026.068.068 0 0 0 0-.026h.005c.003.02 0 .04-.012.056a.204.204 0 0 0-.015.019l-.011.026h-.004Zm-.082-.022a.025.025 0 0 1 .007-.012.034.034 0 0 1 .011-.003.03.03 0 0 0-.007.007.022.022 0 0 0-.008.008h-.003Zm-.015-.008.011-.011.011-.008v.004a.038.038 0 0 0-.011.008.08.08 0 0 0-.008.01c-.003 0-.003 0 0 0l-.003-.003Zm.086-.082h.008a.03.03 0 0 0 .01 0v.003a.03.03 0 0 1-.022 0c0-.003 0-.003 0 0l.004-.003Zm-.045-.004.004-.004c.003 0 .003 0 0 0v.004c-.004 0 0 0 0 0h-.004Zm.908.262a.042.042 0 0 1 .007.012h-.004v-.004a.031.031 0 0 0-.007-.008c0-.003 0 0 0 0h.004Zm-1.006.47.012.01a.037.037 0 0 0 .019 0v.004a.037.037 0 0 1-.02 0 .062.062 0 0 1-.014-.011c0-.004 0-.004 0 0l.003-.004Z"/><path fill="red" d="M13.834 3.735a.308.308 0 0 0 .064 0c-.023.011-.045.023-.075.026a.03.03 0 0 0 .01-.015.015.015 0 0 0 0-.01Zm-.053-.004h.045v.015s0 .008-.007.012c0 0-.004 0 0 .003a.21.21 0 0 1-.049 0 .038.038 0 0 0 .011-.018.022.022 0 0 0 0-.015v.003Zm-.393-.112c.026-.008.048-.008.075-.008a.037.037 0 0 1 .018.015.04.04 0 0 1 .004.03l.004.004h.004l-.004-.037a.036.036 0 0 0-.011-.008h.007c.028.002.055.01.079.023.007.007.011.01.007.018l-.01.02v.007h.007l.01-.027a.01.01 0 0 0 0-.01l.065.03a.02.02 0 0 1 .002.008.02.02 0 0 1-.002.01.037.037 0 0 1-.02.011v.004l.005.004c.01 0 .018-.008.022-.015a.023.023 0 0 0 0-.015l.045.022v.011c0 .008-.004.012-.011.015 0 0-.004 0 0 .004 0 0 0 .004 0 0a.025.025 0 0 0 .022-.015.018.018 0 0 0 0-.011l.015.004a.306.306 0 0 0 .05.015.019.019 0 0 1 .003.015.025.025 0 0 1-.008.01v.008c-.052-.003-.1-.033-.153-.052l-.02-.008-.06-.022-.003-.004a.228.228 0 0 0-.116-.015h-.004l-.004-.03a.049.049 0 0 0-.018-.015v.004Z"/><path fill="red" d="M13.298 3.637a.325.325 0 0 1 .075-.018c.015.003.022.01.026.018v.023a.157.157 0 0 0-.064.007.046.046 0 0 0-.026-.022.045.045 0 0 0-.011-.004v-.004Zm.277.147a.374.374 0 0 0-.018-.015.263.263 0 0 0-.113-.03c.011-.015.015-.03.011-.042a.064.064 0 0 0-.026-.03h.038a.3.3 0 0 1 .075.023c0 .011.003.022 0 .03 0 .011-.008.019-.02.026 0 0-.003 0 0 .004 0 .004 0 .004 0 0 .016-.004.023-.015.027-.026v-.03l.038.022.037.03c0 .015 0 .023-.011.03h-.034v.008h-.004Z"/><path fill="red" d="m13.65 3.84-.068-.052c.015 0 .027 0 .038-.008a.045.045 0 0 0 .011-.03l.041.038.023.018v.023a.022.022 0 0 1-.015.007h-.026l-.004.004Z"/><path fill="red" d="M13.733 3.892a.443.443 0 0 1-.075-.049h.026a.03.03 0 0 0 .015-.007l.004-.015v-.008c.024.021.05.039.079.053 0 .011 0 .015-.012.019a.113.113 0 0 1-.037.003v.004Z"/><path fill="red" d="M13.816 3.926a.45.45 0 0 1-.075-.03c.015 0 .026 0 .037-.008.008 0 .011-.007.011-.018a.398.398 0 0 0 .05.022v.015l-.02.015c-.003 0 0 0 0 0l-.003.004Z"/><path fill="red" d="M13.995 3.908s.015-.004.008 0c-.053.037-.116.037-.18.018.011-.003.019-.007.022-.015a.023.023 0 0 0 0-.018l.064.015v.006a.015.015 0 0 1-.004.005l-.018.011s-.004 0 0 .004c0 0 0 .004 0 0 .01 0 .018-.008.022-.011a.022.022 0 0 0 .008-.015.47.47 0 0 0 .075 0h.003Zm-.363.9-.008.015-.045.01c0 .012 0 .016.011.016l.027-.011c.003 0 0 .018-.02.03v.003c.016.023.053.015.072.012a.113.113 0 0 0 .049-.038l-.011-.022c-.015.003-.023 0-.02-.008a.146.146 0 0 0-.055-.007Zm-.567-.18a.1.1 0 0 1-.037.022c-.008 0-.023.004-.023.011 0 .004.008.012.015.008.015-.019.027-.008.008.007v.012c.019.015.06.018.082.007.012-.007.023-.019.008-.034v-.007h-.023l-.015-.011-.015-.015Zm.375.13h-.003c-.008.008.01.008.022.012.008.004.008.011.008.019-.012.026-.072.019-.09.007-.008-.003-.008-.01-.008-.018h.011c.008 0 .015 0 .023-.008v-.007h-.008a.05.05 0 0 1-.015.007h-.018l-.008-.007h.008l.026-.008.004-.004c.018 0 .037 0 .048.008Zm-.27-.014-.007.011a.1.1 0 0 1-.034.023c-.007.003 0 .007.008.015.007.003.018-.008.022-.015.008-.012.011-.008.008 0l-.008.026.026.011c.015 0 .038-.015.045-.022.012-.008.008-.02.004-.03h-.019a.125.125 0 0 1-.018-.012l-.027-.007Zm.105-.99h.012l.022.004a.169.169 0 0 1 .064-.012.213.213 0 0 1 .064-.007V3.73c.01-.01.015-.022.01-.033a.071.071 0 0 0-.03-.027h-.048a.15.15 0 0 0-.03.004l.023.015.015.038c-.008.003-.008 0-.008 0 0-.015-.007-.023-.011-.034l-.03-.015a.338.338 0 0 0-.049.007c-.011 0-.019.008-.026.012l.03.003c.011.004.019.015.022.03-.003.004-.003 0-.003 0a.038.038 0 0 0-.019-.022c-.015-.008-.049 0-.064.007a.158.158 0 0 0-.022.023l.075.015h.003Zm-.086-.015v-.004l.026-.022.027-.015a.075.075 0 0 1 .037-.02l.049-.007a.038.038 0 0 0-.019-.018l-.03-.004-.056.03h.019l.003.007h-.033l-.05.038c.012.004.023.007.027.015Z"/><path fill="#0093DD" d="m15.338 5.869.78-1.763-.574-.926-1.024.375-.476 1.868c.443.112.876.262 1.294.446Z"/><path fill="#fff" d="M14.347 4.237a9.48 9.48 0 0 1 1.485.514l-.3.683a8.7 8.7 0 0 0-1.368-.477l.183-.72Z"/><path fill="red" d="m15.578 5.325.202-.457a9.327 9.327 0 0 0-1.462-.507l-.12.465c.475.122.939.282 1.387.48l-.004.015-.003.004Z"/><path fill="currentColor" d="M14.46 4.717c.011-.011.026-.007.041-.003.012-.008.027-.008.038-.008l.023-.007c.007 0 .007-.008 0-.012a.021.021 0 0 1 0-.011.104.104 0 0 1-.045-.056c-.012 0-.02-.008-.02-.011h-.018c-.03 0-.037-.012-.049-.02a.038.038 0 0 1-.022-.014l-.011-.011c-.008-.012-.004-.027.007-.027h.026a.075.075 0 0 1 .034-.003c.011 0 .019-.012.034-.023v-.015s0-.007.007-.004a.038.038 0 0 1 .03.019c.019 0 .038.011.045.026.027 0 .041.012.045.019 0 .008-.007.015-.018.023v.007l.014.015.038.026c.037-.003.098.023.18.075.053.01.104.024.154.045h.034a.33.33 0 0 1 .255.057c.03.003.056.015.082.026a.155.155 0 0 0 .06.011.3.3 0 0 1 .098.026.158.158 0 0 1 .09.045c.014.019.01.038-.008.045-.011.023-.034.023-.067.012-.023.003-.05-.015-.076-.034-.03-.008-.06-.03-.09-.049l-.048-.022h-.03v.007c.007.008.015.015.015.03v.038c0 .015.011.022.026.033l.037.015c.008 0 .012.004.012.012l.015.063.015.012c.022.018.007.037-.011.037a.116.116 0 0 1-.05.03c-.014.008-.022 0-.026-.007a.019.019 0 0 1-.014-.008c-.02-.015-.004-.037.037-.026l.008-.008a.056.056 0 0 1 0-.033l-.012-.008a.105.105 0 0 1-.037-.022.405.405 0 0 0-.09-.053c-.027 0-.045-.015-.068-.026h-.03c-.007 0-.015 0-.018.007-.008.012-.02.008-.03.008h-.06c-.016 0-.027 0-.038.011-.008.008-.015.008-.026 0a.037.037 0 0 1-.011-.007c-.012 0-.02 0-.02-.008-.018-.004-.022-.007-.022-.015-.022-.004-.011-.022 0-.022l.053.003c.015.004.037 0 .045-.007l.018-.019a.15.15 0 0 1-.067-.019c-.041-.026-.075-.033-.105-.011-.008.008-.011.008-.023.004a.038.038 0 0 0-.018 0 .104.104 0 0 1-.049-.004.15.15 0 0 1-.068 0c-.022.011-.037.015-.044.008a.327.327 0 0 1-.023-.015c-.015-.004-.019-.008-.019-.012-.015 0-.019-.007-.019-.015-.007-.007 0-.011 0-.015.015-.007.027-.007.038 0 .011 0 .019.008.022.012h.023c.004-.008.019-.008.037-.008l.027-.007V4.81c-.015 0-.023-.015-.034-.026a.113.113 0 0 1-.056-.019.063.063 0 0 1-.038-.011h-.026a.094.094 0 0 1-.053 0h-.03a.037.037 0 0 1-.037.007.056.056 0 0 0-.03-.018c-.011-.004-.015-.008-.015-.015-.015-.008-.011-.015 0-.02.011-.003.019-.007.037 0l.02.008Z"/><path fill="#fff" d="M15.045 4.894s0-.008-.011 0c-.03 0-.06 0-.083-.016-.026-.014-.049-.03-.075-.03l.026-.014h.057c.026 0 .052.007.075.014.014.008.03.02.037.03a.128.128 0 0 1 .03.027.094.094 0 0 1-.026 0 .109.109 0 0 1-.03-.011Z"/><path fill="currentColor" d="M15.113 3.551v.008l.033.183-.139.12-.007.004.008.004.176.06.037.184v.007l.008-.004.139-.123.172.06h.011V4.05l-.037-.184.139-.12.007-.007h-.011l-.173-.06-.037-.184v-.008l-.008.004-.138.124-.177-.06-.003-.004Z"/><path fill="#F7DB17" d="m15.023 3.863.131-.113.165.053-.296.06Zm.319-.064.127-.112.165.056-.292.056Zm.292-.049-.127.113-.165-.056.292-.057Zm-.315.06-.131.113-.161-.057.292-.056Zm-.187-.24.16.053.03.172-.19-.225Zm.206.24.165.056.034.17-.2-.226Zm.191.229-.161-.056-.034-.169.195.225Zm-.21-.24-.161-.056-.034-.169.195.225Zm.113-.289.037.173-.131.112.094-.285Zm-.102.304.03.172-.127.113.097-.285Zm-.105.281-.033-.168.13-.113-.097.281Zm.105-.3-.033-.172.13-.113-.097.285Z"/></g><defs><clipPath id="a"><path fill="#fff" d="M0 0h24v18H0z"/></clipPath></defs></svg>