<svg xmlns="http://www.w3.org/2000/svg" width="24" height="18" fill="none"><g clip-path="url(#a)"><path fill="#D21034" d="M0 0h24v18H0V0Z"/><path fill="#00209F" d="M0 0h24v9H0V0Z"/><path fill="#fff" d="M9.161 6.739h5.678v4.519H9.16v-4.52Z"/><path fill="#016A16" d="m13.143 10.005-1.162.038-1.151.011s-.593.218-.837.266c-.24.05-.21.128-.393.173-.15.034-.169.041-.255.049-.057 0-.12.045-.188.09v.626h5.681v-.596a.924.924 0 0 0-.18-.075c-.082-.03-.138-.06-.288-.094-.188-.041-.158-.124-.398-.173-.243-.048-.829-.315-.829-.315Z"/><path fill="#016A16" fill-rule="evenodd" d="M11.981 10.037 13.144 10v.005l.002-.005h.002l.005.003.019.008a6.524 6.524 0 0 0 .297.128c.177.073.383.151.505.176.12.024.174.057.22.09l.01.006c.042.03.081.057.167.076.115.026.175.05.234.073l.056.021a.92.92 0 0 1 .18.075l.003.002v.605H9.152v-.635l.002-.001.012-.008c.03-.02.059-.04.087-.054a.2.2 0 0 1 .092-.03c.068-.005.093-.011.176-.03l.078-.018a.42.42 0 0 0 .162-.075l.012-.009a.525.525 0 0 1 .22-.088c.121-.025.33-.091.508-.152a14.797 14.797 0 0 0 .32-.112l.007-.002.002.005-.002-.005h.001l1.152-.012Zm-1.15.022-.006.003-.019.007-.07.025-.23.08c-.18.06-.389.127-.511.152a.515.515 0 0 0-.216.086l-.012.009a.43.43 0 0 1-.166.077l-.077.018c-.083.019-.11.025-.179.031a.19.19 0 0 0-.087.027 1.073 1.073 0 0 0-.085.054 2.561 2.561 0 0 1-.01.006v.618h5.67v-.587a.912.912 0 0 0-.176-.073l-.056-.022a1.381 1.381 0 0 0-.232-.072.414.414 0 0 1-.172-.077l-.01-.007a.51.51 0 0 0-.216-.088 3.44 3.44 0 0 1-.506-.176 10.79 10.79 0 0 1-.298-.128l-.019-.009-.005-.002-1.162.037-1.15.011Z" clip-rule="evenodd"/><path fill="#F1B517" d="M11.67 8.61h.084l.156.641-.036.204-.204-.84V8.61Z"/><path fill="currentColor" fill-rule="evenodd" d="M11.665 8.604h.094l.158.647-.037.206h-.011l-.204-.84v-.013Zm.012.012.197.81.03-.174-.154-.636h-.073Z" clip-rule="evenodd"/><path fill="#fff" d="m11.58 8.178.06.498h.06l-.12-.492v-.006Z"/><path fill="currentColor" fill-rule="evenodd" d="M11.574 8.178h.012l.001.011.12.493h-.073l-.059-.49-.001-.007v-.007Zm.025.111.046.381h.047l-.093-.38Z" clip-rule="evenodd"/><path fill="#F1B517" d="m11.742 9.276-.258-.69.096-.006.3.84-.138-.144Z"/><path fill="currentColor" fill-rule="evenodd" d="m11.585 8.574.301.844-.01.006-.138-.144.005-.004-.006.002-.26-.697.108-.007Zm.163.699.118.123-.29-.81-.083.005.255.682Z" clip-rule="evenodd"/><path fill="#fff" d="m11.365 8.19.108.48h.084l-.192-.48Z"/><path fill="currentColor" fill-rule="evenodd" d="m11.37 8.188.196.488h-.098l-.11-.485.007-.001.005-.002Zm.017.074.16.402h-.07l-.09-.402Z" clip-rule="evenodd"/><path fill="#F1B517" d="m11.515 9.036-.15-.33.06-.012.282.54-.192-.198Z"/><path fill="currentColor" fill-rule="evenodd" d="m11.427 8.687.284.544-.01.006-.192-.198-.154-.338.072-.014Zm-.054.023.146.322.163.167-.261-.499-.048.01Z" clip-rule="evenodd"/><path fill="#fff" d="m11.16 8.328.174.456h.084l-.252-.456h-.006Z"/><path fill="currentColor" fill-rule="evenodd" d="M11.151 8.322h.019l.258.468h-.098l-.179-.468Zm.032.049.225.407h-.07l-.155-.407Z" clip-rule="evenodd"/><path fill="#0A328C" d="m11.538 9.084-.69-.75c-.216.168-.174.48-.174.48l.78.612.078-.342h.006Z"/><path fill="currentColor" fill-rule="evenodd" d="m10.849 8.326.703.764h-.015l-.079.346-.79-.619v-.002l.006-.001h-.006V8.81l-.001-.01a.713.713 0 0 1 .007-.165.482.482 0 0 1 .17-.307l.005-.003Zm-.169.485.77.604.077-.335-.68-.738a.468.468 0 0 0-.16.296.696.696 0 0 0-.008.162v.01h.001Z" clip-rule="evenodd"/><path fill="#D20014" d="m11.934 9.492-.51-.516c-.215.012-.047.33-.035.372l.54.462v-.318h.005Z"/><path fill="currentColor" fill-rule="evenodd" d="m11.427 8.97.521.528h-.014v.325l-.551-.472V9.35a.35.35 0 0 0-.013-.031.732.732 0 0 1-.056-.167.209.209 0 0 1 .006-.121.094.094 0 0 1 .037-.043.14.14 0 0 1 .067-.018h.003Zm.495.518-.5-.506a.126.126 0 0 0-.059.017.081.081 0 0 0-.032.037.197.197 0 0 0-.005.113.72.72 0 0 0 .057.169.13.13 0 0 1 .01.026l.53.453v-.309Z" clip-rule="evenodd"/><path fill="#F1B517" d="m11.887 9.408-1.05-1.128-.042.03 1.116 1.236-.024-.138Zm-1.11-1.2-.024-.03v-.054l-.216-.138.096.222.078.012.018.024.048-.036Z"/><path fill="currentColor" fill-rule="evenodd" d="m10.523 7.97.235.15v.056l.022.028-.004.004.003.005-.053.04-.02-.028-.078-.012-.105-.243Zm.244.237-.021-.027v-.053l-.197-.126.087.201.077.012.016.021.038-.028Zm.07.065 1.053 1.132-.004.004.006-.001.027.158-1.134-1.256.051-.037ZM11.88 9.41l-1.045-1.123-.032.023L11.9 9.526l-.02-.115Z" clip-rule="evenodd"/><path fill="#F1B517" d="M10.662 8.285c.044-.055.1-.1.162-.132l.06.09-.132.108-.09-.06v-.006Z"/><path fill="currentColor" fill-rule="evenodd" d="m10.826 8.146.066.099-.14.114-.096-.064v-.011l.002-.002a.51.51 0 0 1 .164-.134l.004-.002Zm-.158.143.084.055.124-.101-.054-.081a.499.499 0 0 0-.154.126Z" clip-rule="evenodd"/><path fill="#0A328C" d="m10.548 8.477.036.06c.024-.006.24-.21.24-.21h.162l.042-.054c-.12-.12-.222.018-.222.018l-.258.18v.006Z"/><path fill="#0A328C" fill-rule="evenodd" d="M10.944 8.22a.16.16 0 0 1 .089.05l.004.003-.048.06h-.162v.001l-.008.006-.025.024a8.124 8.124 0 0 1-.189.167.176.176 0 0 1-.02.012l-.003.001-.04-.065v-.01l.26-.182h.001a.203.203 0 0 1 .017-.02.195.195 0 0 1 .05-.035.127.127 0 0 1 .074-.012Zm-.133.075-.256.18.032.055v-.001a4.718 4.718 0 0 0 .223-.197l.008-.007.002-.002.002-.002h.162l.037-.047a.145.145 0 0 0-.079-.043.114.114 0 0 0-.067.012.182.182 0 0 0-.063.05v.002Z" clip-rule="evenodd"/><path fill="#D20014" d="M10.68 8.58c0-.06.109-.193.12-.199.079.024.15.072.234-.108-.072.084-.21 0-.21 0l-.06.048v.024l-.18.168.09.066h.007Z"/><path fill="#D20014" fill-rule="evenodd" d="m10.824 8.267-.066.052v.024l-.183.171.097.072h.014V8.58c0-.014.006-.032.017-.053a.537.537 0 0 1 .098-.138.902.902 0 0 1 .02.006l.006.002a.46.46 0 0 0 .03.01.146.146 0 0 0 .059.003c.041-.008.081-.043.123-.134l-.01-.006c-.033.04-.083.04-.126.03a.295.295 0 0 1-.07-.028l-.004-.002-.001-.001-.004-.002Zm0 .014-.054.044v.024l-.176.164.08.06a.163.163 0 0 1 .018-.051.527.527 0 0 1 .08-.119.305.305 0 0 1 .025-.026l.003-.002.002.001.024.008.005.002.028.009a.12.12 0 0 0 .055.004c.031-.007.065-.032.101-.1-.035.023-.079.02-.114.012a.305.305 0 0 1-.074-.028l-.002-.002Z" clip-rule="evenodd"/><path fill="#0A328C" d="m11.238 9.282-.864-.684c-.15.15-.024.612-.024.612l.84.456.042-.384h.006Z"/><path fill="currentColor" fill-rule="evenodd" d="m10.374 8.59.882.698h-.018l-.043.387-.85-.461V9.21l.005-.001-.005.001-.002-.005-.004-.015a1.654 1.654 0 0 1-.039-.23.887.887 0 0 1 .002-.205.284.284 0 0 1 .068-.162l.004-.004Zm-.018.616.83.45.04-.376-.851-.674a.278.278 0 0 0-.062.152.879.879 0 0 0 0 .202 1.614 1.614 0 0 0 .042.243v.003Z" clip-rule="evenodd"/><path fill="#D20014" d="m11.952 9.84-.714-.576c-.24.036-.048.39-.036.432l.75.408v-.27.006Z"/><path fill="currentColor" fill-rule="evenodd" d="m11.24 9.258.714.576h.004v.28l-.76-.414-.001-.002a.363.363 0 0 0-.012-.029l-.001-.003-.02-.048a.8.8 0 0 1-.044-.139.254.254 0 0 1 .004-.14c.017-.041.052-.072.114-.08l.002-.001Zm.706.585v.251l-.739-.402a.407.407 0 0 0-.01-.027l-.002-.003-.02-.048a.797.797 0 0 1-.043-.137.243.243 0 0 1 .003-.134c.015-.036.045-.063.102-.073l.71.573Z" clip-rule="evenodd"/><path fill="#F1B517" d="m11.922 9.72-1.536-1.152-.03.036 1.608 1.26-.042-.144Zm-1.608-1.212-.024-.024-.012-.048-.24-.102.138.198h.078l.024.024.036-.048Z"/><path fill="currentColor" fill-rule="evenodd" d="m10.021 8.32.262.112.012.049.023.023-.004.004.005.004-.04.053-.028-.027h-.078l-.152-.218Zm.285.189-.022-.022-.011-.047-.218-.092.124.178h.077l.021.02.029-.037Zm.079.05 1.54 1.156-.003.005.006-.002.047.162-1.628-1.275.038-.045Zm1.532 1.165-1.53-1.148-.023.027 1.589 1.245-.036-.124Z" clip-rule="evenodd"/><path fill="#F1B517" d="M10.218 8.604a.492.492 0 0 1 .138-.156l.072.078-.108.126-.102-.048Z"/><path fill="currentColor" fill-rule="evenodd" d="m10.357 8.44.08.086-.115.133-.112-.052.003-.006a.499.499 0 0 1 .14-.158l.004-.003Zm-.13.161.092.044.101-.119-.064-.07a.485.485 0 0 0-.13.145Z" clip-rule="evenodd"/><path fill="#0A328C" d="M10.14 8.796v.066a3.86 3.86 0 0 0 .222-.222l.15-.03.036-.048c-.108-.126-.222.042-.222.042l-.192.192h.006Z"/><path fill="#0A328C" fill-rule="evenodd" d="M10.468 8.51c.028.002.056.016.084.048l.003.004-.04.054-.15.03-.008.007-.022.024a11.254 11.254 0 0 1-.175.177.239.239 0 0 1-.018.014l-.008.004v-.07h-.015l.202-.202.001-.001.004-.005a.296.296 0 0 1 .067-.063.124.124 0 0 1 .075-.021Zm-.138.098-.184.185v.057l.006-.005.028-.027c.022-.021.05-.049.075-.076l.071-.073.023-.024.008-.009.002-.001.15-.03.03-.043c-.024-.027-.05-.039-.072-.04a.113.113 0 0 0-.068.019.243.243 0 0 0-.063.06l-.004.005-.001.001v.001Z" clip-rule="evenodd"/><path fill="#D20014" d="M10.26 8.91c-.012-.06.072-.228.084-.24.096.03.18.072.21-.12-.06.096-.21.024-.21.024l-.048.06v.03l-.15.198.114.048Z"/><path fill="#D20014" fill-rule="evenodd" d="M10.428 8.592c.044.006.093 0 .121-.045l.011.004c-.015.096-.044.137-.085.148a.132.132 0 0 1-.063-.002.666.666 0 0 1-.05-.015l-.016-.005a.63.63 0 0 0-.074.173.144.144 0 0 0-.006.059l-.006.001-.002.006-.121-.051.153-.203v-.03l.053-.065.004.002h.001a.197.197 0 0 0 .022.01.294.294 0 0 0 .058.013Zm-.082-.01-.044.054v.03l-.146.194.097.04c0-.014.003-.033.008-.053a.647.647 0 0 1 .058-.146.554.554 0 0 1 .02-.035l.003-.003.004.001.02.007.049.014a.12.12 0 0 0 .057.003c.03-.008.056-.037.072-.115-.033.033-.079.036-.118.031a.303.303 0 0 1-.078-.022h-.002Z" clip-rule="evenodd"/><path fill="#0A328C" d="M11.172 9.702c-.37-.208-.74-.418-1.11-.63-.078.138-.006.33.03.36 0 .09-.036.138.042.33.024.12.078.234.162.3.096.384.492.414.642.096l.24-.456h-.006Z"/><path fill="currentColor" fill-rule="evenodd" d="m10.06 9.064.005.003 1.109.63h.014l-.244.464c-.076.16-.215.235-.348.218-.132-.016-.256-.12-.305-.313a.515.515 0 0 1-.162-.302.562.562 0 0 1-.05-.205.338.338 0 0 1 .003-.065v-.003a.56.56 0 0 0 .004-.056.162.162 0 0 1-.03-.05.436.436 0 0 1-.027-.091.336.336 0 0 1 .028-.225l.003-.005Zm1.109.643a166.65 166.65 0 0 1-1.104-.627.328.328 0 0 0-.024.212.418.418 0 0 0 .026.088.12.12 0 0 0 .03.048l.001.001v.003c0 .022-.002.041-.004.06v.003a.522.522 0 0 0-.004.064c0 .046.011.105.05.2v.002a.5.5 0 0 0 .16.296l.002.002v.002c.048.19.17.291.296.306.127.016.26-.054.335-.211l.236-.449Z" clip-rule="evenodd"/><path fill="#D20014" d="m11.899 10.11-.75-.438c-.24.03 0 .48.018.522l.732.258v-.342Z"/><path fill="currentColor" fill-rule="evenodd" d="m11.15 9.666.755.44v.354l-.743-.262v-.002l-.01-.018a1.476 1.476 0 0 1-.097-.248.375.375 0 0 1-.013-.171.12.12 0 0 1 .034-.062.125.125 0 0 1 .072-.031h.002Zm.021.523a1.465 1.465 0 0 1-.104-.262.363.363 0 0 1-.014-.166.107.107 0 0 1 .03-.056.112.112 0 0 1 .064-.027l.746.435v.33l-.722-.254Z" clip-rule="evenodd"/><path fill="#F1B517" d="m11.772 9.948-1.698-.9-.03.036 1.8 1.002-.072-.138ZM9.99 9l-.03-.018-.018-.048-.246-.06.162.174.072-.012.036.018L9.99 9Z"/><path fill="currentColor" fill-rule="evenodd" d="m9.678 8.863.269.065.018.05.028.016L9.99 9l.006.003-.027.06-.04-.02-.073.012-.178-.191Zm.305.139-.028-.017-.017-.047-.224-.054.146.157.071-.012.032.016.02-.043Zm.09.038 1.702.902-.003.005.006-.002.08.155-1.823-1.015.038-.045Zm1.695.912-1.692-.897-.023.027 1.777.988-.062-.118Z" clip-rule="evenodd"/><path fill="#F1B517" d="M9.912 9.108a.53.53 0 0 1 .108-.18l.084.066-.084.144-.108-.03Z"/><path fill="currentColor" fill-rule="evenodd" d="m10.02 8.92.092.073-.089.152-.119-.033.003-.006a.536.536 0 0 1 .109-.182l.004-.004Zm.001.016a.516.516 0 0 0-.1.168l.097.027.079-.135-.076-.06Z" clip-rule="evenodd"/><path fill="#0A328C" d="m9.846 9.312.036.072.18-.276.15-.054.03-.06c-.12-.108-.21.084-.21.084l-.186.234Z"/><path fill="#0A328C" fill-rule="evenodd" d="M10.158 8.956c.027-.003.057.006.088.034l.003.003-.033.066-.15.054-.185.283-.042-.085.188-.236v-.002a.198.198 0 0 1 .016-.026.28.28 0 0 1 .045-.056.126.126 0 0 1 .07-.035Zm-.12.125-.185.232.03.059.175-.269.15-.054.027-.054c-.028-.023-.053-.03-.076-.027a.115.115 0 0 0-.063.032.265.265 0 0 0-.058.079v.001Z" clip-rule="evenodd"/><path fill="#D20014" d="M10.008 9.408a.696.696 0 0 1 .042-.258c.09.03.168.036.192-.156-.06.09-.198.06-.198.06l-.042.06.006.024-.12.24.12.03Z"/><path fill="#D20014" fill-rule="evenodd" d="M10.12 9.052c.041-.004.089-.018.117-.061l.011.004c-.012.096-.038.145-.074.166-.035.02-.078.01-.122-.004a.93.93 0 0 0-.038.187.25.25 0 0 0 0 .063l-.006.001-.001.006-.128-.032.123-.245-.006-.024.045-.066.004.001h.002l.004.001a.26.26 0 0 0 .07.003Zm-.073.009-.038.054.005.024-.117.235L10 9.4a.314.314 0 0 1 0-.057.961.961 0 0 1 .043-.196l.003-.002.003-.001h.002c.045.015.085.023.116.006.029-.016.052-.054.065-.135a.172.172 0 0 1-.112.049.294.294 0 0 1-.074-.003Zm.007.094Z" clip-rule="evenodd"/><path fill="#016A16" d="m11.928 7.535-.03.54h.174l-.024-.54.18-.018-.018-.216-.45.018v.192l.168.024Z"/><path fill="#016A16" fill-rule="evenodd" d="m12.216 7.295.019.228-.18.018.024.54h-.187l.03-.54-.168-.025v-.203l.462-.018Zm-.288.24h.006l-.03.534h.162l-.024-.54.18-.017-.017-.205-.439.018v.18l.163.024v.006Z" clip-rule="evenodd"/><path fill="#016A16" d="M11.988 7.314c-.468-.468-.834-.24-.918-.174.06.012.108-.024.138-.03l-.06.072s.15-.06.168-.06a.243.243 0 0 0-.048.06c.012 0 .096-.066.108-.066-.024.024-.03.09-.03.09l.072-.03c.018.012-.006.036.006.036.12-.012.282.102.3.138"/><path fill="currentColor" fill-rule="evenodd" d="M11.385 7.02c.163-.006.373.055.608.29l-.009.008c-.233-.233-.44-.292-.598-.285a.557.557 0 0 0-.3.103.151.151 0 0 0 .063-.01l.026-.01.005-.003a.151.151 0 0 1 .027-.01l.017-.002-.056.067.002-.001a5.097 5.097 0 0 1 .133-.048.06.06 0 0 1 .014-.003h.018l-.015.01a.166.166 0 0 0-.031.036l-.004.005.034-.023a1.22 1.22 0 0 1 .052-.033.015.015 0 0 1 .006-.001h.014l-.01.01a.069.069 0 0 0-.014.022.197.197 0 0 0-.013.054l.065-.027.003.002a.02.02 0 0 1 .01.015l-.002.014-.002.004v.001c.06-.004.13.021.188.053a.53.53 0 0 1 .1.07.081.081 0 0 1 .014.02l-.01.004a.07.07 0 0 0-.013-.015.522.522 0 0 0-.097-.07.346.346 0 0 0-.185-.05.01.01 0 0 1-.008-.003.01.01 0 0 1-.002-.007l.001-.005.001-.002.001-.003a.024.024 0 0 0 .002-.01l-.002-.004-.078.032v-.013l.002-.008a.288.288 0 0 1 .017-.062l-.033.022a1.197 1.197 0 0 1-.052.033.015.015 0 0 1-.005 0h-.01l.004-.008.002-.002.003-.005a.364.364 0 0 1 .028-.039.797.797 0 0 0-.068.024 4.077 4.077 0 0 0-.07.028l-.005.002h-.002l-.007-.01.047-.055-.006.002a.25.25 0 0 0-.005.003l-.027.01a.154.154 0 0 1-.084.009l-.012-.003.01-.008a.565.565 0 0 1 .318-.114Z" clip-rule="evenodd"/><path fill="#016A16" d="M11.874 7.398c-.048-.108-.936-.3-1.116.018.072.018.138-.06.138-.06v.072l.114-.096-.042.096.09-.078v.078l.12-.12-.018.066.102-.042-.012.06"/><path fill="currentColor" fill-rule="evenodd" d="M11.86 7.372a.07.07 0 0 1 .02.023l-.011.005a.054.054 0 0 0-.017-.019.213.213 0 0 0-.035-.021.715.715 0 0 0-.114-.044 1.717 1.717 0 0 0-.338-.063 1.209 1.209 0 0 0-.362.016c-.105.025-.19.07-.235.143a.12.12 0 0 0 .083-.024.224.224 0 0 0 .04-.035v-.001l.011-.013v.076l.104-.088.01.007-.032.072.08-.07v.077l.126-.125-.02.076.1-.042-.014.07-.012-.001.01-.05-.103.043.015-.056-.114.114v-.08l-.08.07-.01-.007.032-.072-.104.088v-.07l-.001.001a.242.242 0 0 1-.031.025c-.027.018-.063.034-.101.025l-.008-.002.004-.007c.046-.082.137-.13.247-.155.11-.025.24-.028.366-.017.126.01.247.035.34.064a.747.747 0 0 1 .117.044.23.23 0 0 1 .036.023Z" clip-rule="evenodd"/><path fill="#016A16" d="M11.832 7.416c-.228-.15-.576-.048-.576-.048-.228.12-.348.102-.372.336.018-.006.078-.084.078-.084l.048.09.012-.126.036.102.06-.168.012.114.084-.114.036.036.036-.09.036.06s.06-.036.09-.018l.06-.072.018.054.06-.06.018.042.054-.048v.036h.18"/><path fill="currentColor" fill-rule="evenodd" d="M11.459 7.33a.627.627 0 0 1 .377.081l-.007.01a.615.615 0 0 0-.37-.08 1.06 1.06 0 0 0-.197.032h-.003c-.055.03-.103.05-.145.068l-.006.003a.77.77 0 0 0-.11.054.202.202 0 0 0-.072.075.328.328 0 0 0-.034.119.471.471 0 0 0 .063-.072l.002-.003.006-.008.043.08.01-.106.012-.001.03.086.055-.152.011.001.01.099.08-.107.034.034.037-.092.04.065a.195.195 0 0 1 .06-.02.057.057 0 0 1 .026.002l.064-.076.018.055.06-.06.018.043.057-.051v.043h.174v.012h-.186v-.029l-.05.045-.018-.041-.06.06-.018-.053-.056.068-.005-.003a.038.038 0 0 0-.023-.004.113.113 0 0 0-.028.007.213.213 0 0 0-.023.01l-.007.004h-.002v.001l-.006.003-.033-.055-.034.088-.038-.038-.089.121-.01-.103-.058.159-.032-.092-.012.118-.053-.099-.004.005a1.015 1.015 0 0 1-.06.067.036.036 0 0 1-.01.007l-.01.003.001-.01a.355.355 0 0 1 .037-.136.214.214 0 0 1 .076-.079.785.785 0 0 1 .112-.055l.007-.003a2.09 2.09 0 0 0 .144-.067l.002.005-.001-.006h.004a.539.539 0 0 1 .054-.013 1.03 1.03 0 0 1 .146-.02Z" clip-rule="evenodd"/><path fill="#016A16" d="M11.784 7.44c-.162 0-.618.173-.732.347a.787.787 0 0 1 .078-.036l.018.072.03-.072.006.06c.018-.048.036-.048.072-.006l.012-.066.018.06.03-.066s.018.072.03.072c0 0 .048-.132.072-.138l.006.084.03-.084.03.06v-.084l.036.06s.012-.06.036-.072l.048.042.204-.15"/><path fill="currentColor" fill-rule="evenodd" d="M11.616 7.464a.68.68 0 0 1 .168-.03v.012c-.04 0-.098.01-.165.03a1.7 1.7 0 0 0-.424.189.552.552 0 0 0-.123.106.817.817 0 0 1 .056-.025l.006-.003.015.062.023-.056.012.002.004.038a.069.069 0 0 1 .005-.008c.005-.007.012-.012.02-.012.007 0 .015.003.023.008a.12.12 0 0 1 .016.015l.01-.053.012-.001.013.045.03-.068.005.017v.003l.003.008a.419.419 0 0 0 .017.049l.001.003.005-.012a1.202 1.202 0 0 1 .043-.094.118.118 0 0 1 .012-.018.028.028 0 0 1 .013-.01l.007-.001.005.063.025-.07.025.05v-.081l.04.066a.206.206 0 0 1 .017-.043.049.049 0 0 1 .018-.019l.004-.002.047.042.2-.147.008.01-.208.152-.049-.042a.044.044 0 0 0-.01.012.218.218 0 0 0-.017.044l-.002.007v.002l-.003.016-.033-.055v.063l-.011.002-.024-.047-.025.07-.012-.001-.005-.073a.469.469 0 0 0-.053.108l-.006.015-.002.004v.001l-.002.005h-.004c-.005 0-.008-.003-.01-.006a.198.198 0 0 1-.022-.055l-.03.066-.015-.052-.01.054-.008-.01a.143.143 0 0 0-.023-.022c-.006-.005-.01-.006-.014-.006s-.007.002-.012.007a.098.098 0 0 0-.012.026l-.012-.002-.004-.036-.027.067-.021-.083a.792.792 0 0 0-.071.033l-.008-.009a.5.5 0 0 1 .141-.13 1.717 1.717 0 0 1 .427-.191Z" clip-rule="evenodd"/><path fill="#016A16" d="M11.814 7.481c-.21.078-.402.372-.384.492.09-.12.072-.102.114.036 0 0 .012-.12.03-.132l.03.084.006-.114h.03l-.006-.066.042.03c-.012-.042-.018-.054.024-.09 0 0-.06.006-.012-.09l.042.036s-.012-.042 0-.06l.156-.048"/><path fill="currentColor" fill-rule="evenodd" d="M11.532 7.709a.668.668 0 0 1 .28-.232l.004.01a.656.656 0 0 0-.275.229.705.705 0 0 0-.083.144.269.269 0 0 0-.023.098.867.867 0 0 1 .04-.052.075.075 0 0 1 .017-.015c.005-.003.01-.004.016 0a.03.03 0 0 1 .01.013.18.18 0 0 1 .009.024l.007.025.007.027a.857.857 0 0 1 .021-.095.028.028 0 0 1 .009-.012l.006-.004.023.063.004-.09h.03l-.007-.072.039.027a.14.14 0 0 1-.003-.01.061.061 0 0 1-.001-.023c.002-.013.01-.024.024-.037a.031.031 0 0 1-.014-.01.036.036 0 0 1-.008-.03.164.164 0 0 1 .019-.058l.003-.006.034.03v-.007a.105.105 0 0 1-.001-.021c0-.007.002-.014.006-.02l.001-.002.158-.049.004.012-.154.047a.036.036 0 0 0-.003.013v.018l.003.016.001.005v.001l.006.02-.051-.044a.143.143 0 0 0-.014.045c-.001.012.001.019.005.022a.02.02 0 0 0 .012.007h.006l.02-.002-.015.013c-.021.018-.029.028-.03.039a.047.047 0 0 0 0 .018l.006.02.002.007.005.016-.046-.032.006.06h-.031l-.006.107-.012.002-.026-.073a.422.422 0 0 0-.02.1l-.002.015v.004l-.012.002-.016-.057-.007-.024a.177.177 0 0 0-.007-.022c-.003-.006-.005-.008-.006-.008h-.004a.062.062 0 0 0-.014.013c-.01.011-.023.029-.041.053a.745.745 0 0 0-.008.01l-.009.012-.002-.014a.243.243 0 0 1 .023-.12.718.718 0 0 1 .085-.146Z" clip-rule="evenodd"/><path fill="#016A16" d="m11.832 7.5-.078.156.042.012-.096.066.078-.006s-.12.042-.132.162l.12-.06s-.102.108-.12.174l.078-.06s-.072.072-.06.18l.054-.06c-.012.138-.012.15.048.252 0 0-.012-.156 0-.18l.138.144-.072-.198s.084.12.132.114l-.108-.162.108.084-.12-.18.108.036s-.078-.102-.072-.168l.078.084s-.03-.09-.024-.12l.042.006-.078-.084.054-.012-.006-.06.036-.006v-.066l-.15-.048Zm.084.048c-.132.18-.066.45-.144.594l.144-.594Z"/><path fill="currentColor" fill-rule="evenodd" d="m11.829 7.492.159.051v.076l-.036.005.006.06-.049.011.083.089-.053-.008a.435.435 0 0 0 .02.097l.003.01.001.004-.01.007-.067-.073c0 .011.004.024.008.037a.357.357 0 0 0 .05.095.542.542 0 0 0 .012.016l.012.016-.11-.036.11.165-.008.008-.079-.061.093.14h-.01c-.014.002-.03-.005-.045-.016a.306.306 0 0 1-.068-.069l.058.161-.01.007-.13-.137a.145.145 0 0 0-.002.027.952.952 0 0 0 .003.116l.001.018v.007l-.01.004a.353.353 0 0 1-.052-.115.485.485 0 0 1 .001-.123l-.05.056-.002-.013a.232.232 0 0 1 .035-.149l-.058.044.005-.017a.23.23 0 0 1 .027-.057.638.638 0 0 1 .073-.096l-.101.05v-.01a.19.19 0 0 1 .074-.13.25.25 0 0 1 .033-.023l-.068.005.104-.071-.037-.01.084-.168Zm-.05.241a.397.397 0 0 0-.018.008.242.242 0 0 0-.041.027.179.179 0 0 0-.067.111l.11-.055.007.01h-.001c0 .002-.002.003-.003.004a1.093 1.093 0 0 0-.089.114.275.275 0 0 0-.018.034l.061-.047.008.009-.003.003-.008.01a.234.234 0 0 0-.048.148l.056-.063-.001.018a.557.557 0 0 0-.003.138c.005.027.016.05.037.088a2.64 2.64 0 0 1-.003-.116.3.3 0 0 1 .001-.025l.004-.016.004-.008.006.006a.396.396 0 0 0 .033-.119l.01-.109.005-.046a.61.61 0 0 1 .093-.313l.01.007a.597.597 0 0 0-.091.308l-.004.045-.011.11a.397.397 0 0 1-.036.127l.11.114-.063-.171.01-.006.002.001.002.004.01.013a.582.582 0 0 0 .076.08c.01.006.018.01.026.012l-.101-.151.008-.008.08.061-.11-.164.107.036-.001-.002a.533.533 0 0 1-.052-.098.14.14 0 0 1-.01-.057l.002-.013.07.074a.708.708 0 0 1-.016-.064.105.105 0 0 1-.001-.034l.001-.005.03.004-.073-.08.06-.012-.007-.06.037-.007v-.056l-.141-.045-.073.145.048.013-.088.06.055-.004.003.012Z" clip-rule="evenodd"/><path fill="#F1B517" d="M12.06 9.99s.066-.6.066-.852c0-.204-.048-.648-.048-.648h-.198s-.03.444-.024.648c0 .252.066.852.066.852h.138Z"/><path fill="currentColor" fill-rule="evenodd" d="M11.874 8.484h.21v.005h-.006.006v.005l.002.015.005.053.017.175c.012.136.024.299.024.4 0 .127-.017.34-.033.522a21.099 21.099 0 0 1-.03.305l-.002.02-.001.007-.006-.001h.006v.006h-.15V9.99l.006-.001h-.006v-.006l-.003-.02a19.535 19.535 0 0 1-.03-.305 6.953 6.953 0 0 1-.033-.521 5.958 5.958 0 0 1 .01-.4l.01-.176c0-.022.002-.04.003-.053V8.49h.007-.006v-.006Zm.011.012v.014l-.004.053-.01.175a5.943 5.943 0 0 0-.01.4c0 .126.017.338.034.52l.023.234.007.071.002.02h.128c0-.005 0-.012.002-.02a19.766 19.766 0 0 0 .03-.305c.017-.182.033-.394.033-.52 0-.102-.012-.264-.024-.4l-.017-.175-.005-.053a.697.697 0 0 0-.002-.014h-.186Z" clip-rule="evenodd"/><path fill="#F1B517" d="M11.862 8.52h.24l-.03-.163h-.174l-.036.156v.006Z"/><path fill="currentColor" fill-rule="evenodd" d="M11.894 8.352h.183l.033.174h-.254v-.013l.038-.161Zm.01.012-.035.15h.226l-.027-.15h-.165Z" clip-rule="evenodd"/><path fill="#F1B517" d="M11.88 8.388h.21l-.042-.162h-.132l-.042.162h.006Z"/><path fill="currentColor" fill-rule="evenodd" d="M11.912 8.22h.141l.045.174h-.231l.045-.174Zm.01.012-.04.15h.2l-.038-.15h-.123Z" clip-rule="evenodd"/><path fill="#F1B517" d="M11.893 8.261h.18l-.036-.162h-.114l-.03.162Z"/><path fill="currentColor" fill-rule="evenodd" d="M11.918 8.093h.123l.039.174h-.195l.033-.174Zm.01.012-.028.15h.165l-.033-.15h-.104Z" clip-rule="evenodd"/><path fill="#F1B517" d="M12.042 8.082h-.12l-.018.06h.15l-.012-.06Zm.024 1.782h-.156.156Zm.012-.12h-.18.18Zm.024-.12h-.228.228Zm.012-.126h-.24.24Zm0-.132h-.246.246Zm.006-.12h-.264.264Zm0-.102h-.276.276Zm0-.132h-.276.276Zm-.006-.126h-.27.27Zm-.012-.132h-.246.246Zm-.012-.12h-.222.222Z"/><path fill="currentColor" fill-rule="evenodd" d="M11.917 8.076h.13l.014.072h-.165l.021-.072Zm.01.012-.015.048h.134l-.01-.048h-.11Zm-.06.54h.223v.012h-.222v-.012Zm.235.132h-.246v-.012h.246v.012Zm.012.132h-.27V8.88h.27v.012Zm.006.126h-.276v-.012h.276v.012Zm0 .132h-.276v-.012h.276v.012Zm0 .102h-.264V9.24h.264v.012Zm-.006.12h-.246V9.36h.246v.012Zm0 .132h-.24v-.012h.24v.012Zm-.012.126h-.228v-.012h.228v.012Zm-.024.12h-.18v-.012h.18v.012Zm-.012.12h-.156v-.012h.156v.012Z" clip-rule="evenodd"/><path fill="#0A328C" d="M12 7.14c-.048-.019-.138-.079-.114-.115l.042-.072c.06-.132 0-.084 0-.12-.012-.048.228-.012.228.078 0 .03-.018.012-.012.156l-.048.09a.21.21 0 0 1-.102-.012L12 7.14Z"/><path fill="#0A328C" fill-rule="evenodd" d="M11.934 6.828v.005c0 .004 0 .006.002.007a.01.01 0 0 0 .003.004l.004.001.004.002a.026.026 0 0 1 .008.007c.006.006.007.016.004.031a.344.344 0 0 1-.026.071l-.042.073c-.004.006-.004.014.001.024a.13.13 0 0 0 .028.032c.025.021.059.04.082.049l.009.003-.006.006c.028.01.058.012.087.009l.046-.086a.509.509 0 0 1 .004-.12.05.05 0 0 1 .005-.017v-.003a.043.043 0 0 0 .003-.015c0-.02-.013-.037-.035-.051a.249.249 0 0 0-.079-.033.25.25 0 0 0-.077-.008.052.052 0 0 0-.021.005.01.01 0 0 0-.004.004Zm.055.314-.006.006.009.003c.033.013.07.017.105.012h.003l.05-.094v-.002a.506.506 0 0 1 .004-.119l.004-.015.001-.003a.055.055 0 0 0 .003-.019c0-.025-.017-.046-.04-.061a.26.26 0 0 0-.083-.035.261.261 0 0 0-.081-.008.062.062 0 0 0-.027.007.02.02 0 0 0-.008.009.017.017 0 0 0-.001.011c0 .005.001.01.003.013a.022.022 0 0 0 .008.007l.005.002a.15.15 0 0 1 .003.002.016.016 0 0 1 .005.003c.002.003.004.008.001.022a.332.332 0 0 1-.024.068l-.042.071c-.008.012-.006.025 0 .037a.129.129 0 0 0 .031.035.36.36 0 0 0 .077.048Z" clip-rule="evenodd"/><path fill="#F1B517" d="m12.024 7.5-.06-.054.018-.426.06.018-.018.456V7.5Z"/><path fill="currentColor" fill-rule="evenodd" d="m11.976 7.011.072.022-.018.46v.02l-.072-.065.018-.437Zm.042.475.018-.444-.049-.015-.017.416.048.043Z" clip-rule="evenodd"/><path fill="#D20014" d="M12.102 7.158c.036-.024.06-.09.036-.126-.06-.078-.102-.048-.204-.084-.018.024-.06.06-.054.096.138.06.084.012.132.018.024 0 .036.03.09.09v.006Z"/><path fill="#D20014" fill-rule="evenodd" d="m11.932 6.94.004.001c.035.013.063.017.087.021l.03.005a.138.138 0 0 1 .09.06c.013.02.013.048.005.073a.117.117 0 0 1-.043.062l-.009.006v-.015a1.085 1.085 0 0 1-.055-.066c-.013-.015-.02-.02-.029-.02-.012-.001-.016 0-.018.002a.025.025 0 0 0-.003.002l-.001.002a.024.024 0 0 1-.008.005c-.007.003-.016.002-.031-.002a.561.561 0 0 1-.073-.027l-.003-.002v-.003c-.004-.02.006-.04.018-.057a.322.322 0 0 1 .02-.024l.002-.002a.291.291 0 0 0 .014-.018l.003-.003Zm.174.206a.113.113 0 0 0 .03-.05c.008-.022.008-.046-.003-.061a.127.127 0 0 0-.083-.055c-.008-.003-.018-.004-.028-.006-.024-.004-.052-.008-.086-.02l-.012.014-.002.003a.325.325 0 0 0-.019.023c-.011.015-.019.03-.017.045a.53.53 0 0 0 .068.026c.015.004.02.003.024.002a.013.013 0 0 0 .004-.003.044.044 0 0 1 .005-.005c.006-.004.013-.005.025-.004.015 0 .026.01.038.025a1.078 1.078 0 0 0 .056.067Z" clip-rule="evenodd"/><path fill="#016A16" d="M11.305 9.708c0 .072-.054.138-.114.138-.06 0-.109-.06-.109-.144V9.63h.223v.078Z"/><path fill="#fff" fill-rule="evenodd" d="M11.076 9.625h.234v.084a.159.159 0 0 1-.036.1.112.112 0 0 1-.084.044c-.065 0-.114-.065-.114-.15v-.078Zm.012.012v.066c0 .082.046.138.102.138a.1.1 0 0 0 .075-.04.147.147 0 0 0 .033-.092v-.072h-.21Z" clip-rule="evenodd"/><path fill="#fff" d="M11.19 9.66c.06 0 .109-.024.109-.054s-.049-.054-.108-.054c-.06 0-.109.024-.109.054s.049.054.108.054Z"/><path fill="#016A16" d="m11.166 9.66-.018-.191h.084l-.012.198h-.054V9.66Z"/><path fill="#F1B517" fill-rule="evenodd" d="M11.141 9.463h.097l-.013.21h-.065V9.66l-.019-.198Zm.013.012.018.186h.042l.011-.186h-.07Z" clip-rule="evenodd"/><path fill="#016A16" d="M11.31 9.606c-.012.03-.06.054-.12.054s-.102-.024-.12-.054a.047.047 0 0 0 0 .024c0 .042.054.072.12.072.072 0 .126-.03.126-.072a.049.049 0 0 0 0-.024h-.006Z"/><path fill="#fff" fill-rule="evenodd" d="m11.068 9.59.008.013c.016.028.056.051.114.051.03 0 .056-.006.076-.015.02-.01.034-.022.039-.035l.001-.004h.015l.001.005a.054.054 0 0 1 0 .026c0 .024-.015.043-.038.056a.192.192 0 0 1-.094.021.177.177 0 0 1-.087-.02c-.023-.014-.038-.034-.038-.057a.054.054 0 0 1 0-.026l.003-.014Zm.244.027a.093.093 0 0 1-.041.033.193.193 0 0 1-.08.016.155.155 0 0 1-.116-.043l.001.006v.001c0 .018.012.035.033.047.02.012.05.02.082.02a.18.18 0 0 0 .087-.02c.02-.012.032-.029.032-.047v-.001a.042.042 0 0 0 .002-.012Z" clip-rule="evenodd"/><path fill="#F1B517" d="m11.76 10.368-.42-.132-.186-.318-.654-.03.024.24.558.102.048.096.642.18-.012-.138Z"/><path fill="currentColor" fill-rule="evenodd" d="m10.494 9.882.664.03.186.32.418.13-.002.006h.006l.013.146-.653-.183-.048-.095-.56-.103-.024-.251Zm1.26.49-.418-.13-.185-.318-.644-.03.023.23.556.1.048.097.632.177-.011-.125Z" clip-rule="evenodd"/><path fill="#503200" d="m11.322 10.459-.672-.99-.03.03.66.984.042-.024Z"/><path fill="currentColor" fill-rule="evenodd" d="m10.65 9.459.68 1.001-.052.03-.666-.992.038-.039Zm-.023.04.654.975.032-.018-.664-.978-.022.021Z" clip-rule="evenodd"/><path fill="#fff" d="m10.716 9.51-.072-.12c-.018-.024-.036-.03-.066-.012-.03.012-.024.042-.012.066l.06.114.09-.048Z"/><path fill="currentColor" fill-rule="evenodd" d="M10.617 9.363c.012.002.023.011.032.024l.072.12-.005.003.003.006-.095.05-.063-.119a.083.083 0 0 1-.01-.04c0-.007.002-.014.006-.02a.041.041 0 0 1 .018-.014c.016-.01.03-.013.042-.01Zm.09.145-.068-.114c-.008-.012-.016-.018-.025-.02-.008-.001-.018 0-.033.01a.029.029 0 0 0-.014.01.025.025 0 0 0-.005.013c0 .01.004.023.01.035l.057.108.079-.042Z" clip-rule="evenodd"/><path fill="#F1B517" d="m11.4 9.846-1.35-.138-.036.198 1.344.138.042-.198Z"/><path fill="currentColor" fill-rule="evenodd" d="m10.045 9.702 1.362.14-.044.21-1.356-.14.038-.21Zm.01.013-.034.186 1.332.137.04-.186-1.338-.137Z" clip-rule="evenodd"/><path fill="#F1B517" d="m10.02 9.66-.03.27h.06l.036-.245-.06-.024h-.006Zm.228.043-.012.246h.036l.03-.21-.048-.036h-.006Zm.918.108-.036.228h.066l.03-.228h-.06Zm.198.006-.042.264.072.012.024-.138c0 .03.03.048.06.048a.06.06 0 0 0 .06-.06c0-.036-.024-.06-.06-.06a.06.06 0 0 0-.06.036l.018-.096-.072-.006Zm-.48.042-.192.21.024.024.24-.162-.078-.072h.006Zm-.444.522.186-.21-.018-.024-.24.162.072.072Zm.486-.054-.222-.174-.024.018.18.228.066-.072Zm-.558-.402.234.168.024-.018-.18-.228-.078.078Zm.252-.138.024.276h.03l.072-.27-.126-.006Zm.072.66-.018-.27h-.036l-.042.276h.096v-.006Zm.306-.36-.288.024v.03l.288.036v-.096.006Zm-.684.09.282-.042v-.024l-.288-.03v.096h.006Z"/><path fill="currentColor" fill-rule="evenodd" d="M10.015 9.655h.013l.065.026-.037.256h-.072l.031-.282Zm.01.012-.028.258h.048l.035-.236-.054-.022Zm.218.03h.014l.052.04-.031.218h-.048l.013-.258Zm.011.013-.011.233h.024l.03-.202-.043-.031Zm.36.07.14.007-.075.282h-.04l-.025-.289Zm.013.013.023.264h.02l.069-.259-.112-.005Zm.534.012h.072l-.031.24h-.078l.037-.24Zm.01.012-.033.216h.053l.029-.216h-.048Zm.194-.006.079.006-.015.077a.067.067 0 0 1 .05-.017c.02 0 .036.006.047.018a.066.066 0 0 1 .019.048.066.066 0 0 1-.066.066.077.077 0 0 1-.045-.014.054.054 0 0 1-.014-.014l-.02.119-.084-.014.043-.27h.006v-.005Zm.005.012-.04.253.06.01.023-.132h.012c0 .014.006.024.016.031.01.008.024.012.038.012a.054.054 0 0 0 .054-.054.054.054 0 0 0-.015-.04.054.054 0 0 0-.04-.014.054.054 0 0 0-.054.032l-.011-.003.017-.09-.06-.005Zm-.923.015.188.238-.032.024-.244-.174.088-.088Zm-.07.086.225.161.016-.011-.172-.218-.068.068Zm.486-.071h.035l-.008.008.076.07-.25.17-.032-.032.19-.207-.01-.01Zm.02.017-.182.199.016.016.23-.155-.065-.06Zm-.58.204.3.031v.035l-.288.043h-.012v-.109Zm.012.013v.084l.276-.041v-.014l-.276-.029Zm.69.097-.299-.038.224.176-.003.005.004.004-.07.077-.18-.227.018.266v.012h-.11l.044-.287-.188.213-.004-.004-.005.004-.077-.077.251-.17.024.033h.039v-.001l.032-.025v-.04l.288-.024h.012v.103Zm-.012-.09v.076l-.276-.034v-.02l.276-.023Zm-.553.278.179-.201-.012-.016-.229.155.062.062Zm.478-.044-.213-.168-.016.012.172.217.057-.061Zm-.274-.145-.04.264h.083l-.018-.264h-.025Z" clip-rule="evenodd"/><path fill="#F1B517" d="M10.662 10.188c.043 0 .078-.032.078-.072 0-.04-.035-.072-.078-.072s-.078.033-.078.072c0 .04.035.072.078.072Z"/><path fill="currentColor" fill-rule="evenodd" d="M10.662 10.05c-.04 0-.072.03-.072.067 0 .036.032.066.072.066.04 0 .072-.03.072-.066 0-.036-.032-.066-.072-.066Zm-.084.067c0-.044.038-.078.084-.078.046 0 .084.034.084.078 0 .043-.038.078-.084.078-.046 0-.084-.035-.084-.078Z" clip-rule="evenodd"/><path fill="#F1B517" fill-rule="evenodd" d="M11.064 10.117a.4.4 0 0 1-.402.39.397.397 0 0 1-.402-.39c0-.216.18-.39.402-.39a.396.396 0 0 1 .402.39Zm-.078 0a.317.317 0 0 1-.324.312.317.317 0 0 1-.324-.318.318.318 0 0 1 .324-.306.318.318 0 0 1 .324.312Z" clip-rule="evenodd"/><path fill="currentColor" fill-rule="evenodd" d="M10.811 9.76a.39.39 0 0 0-.15-.027.39.39 0 0 0-.396.384.389.389 0 0 0 .396.384.394.394 0 0 0 .396-.384.39.39 0 0 0-.246-.357Zm-.15-.04a.402.402 0 0 1 .408.397.406.406 0 0 1-.408.396.403.403 0 0 1-.408-.396c0-.22.183-.396.408-.396Zm0 .09a.312.312 0 0 0-.318.3.312.312 0 0 0 .318.313.315.315 0 0 0 .292-.187.312.312 0 0 0 .026-.12.312.312 0 0 0-.317-.305Zm.324.307h.006a.325.325 0 0 1-.33.318.325.325 0 0 1-.33-.324.324.324 0 0 1 .33-.312.324.324 0 0 1 .33.318h-.006Z" clip-rule="evenodd"/><path fill="#F1B517" d="m10.41 9.919-.06-.048.06.048Zm.45-.048.06-.06-.06.06Zm.12.492-.066-.054.066.054Zm-.57.06.06-.06-.06.06Zm1.362-.696.066.36-.054.024-.06-.378h.048v-.006Z"/><path fill="currentColor" fill-rule="evenodd" d="M11.765 9.726h.012l.067.364-.065.029-.063-.393h.05Zm.003.012h-.038l.058.364.043-.02-.063-.344Zm-.844.076-.06.06-.009-.008.06-.06.009.008Zm-.57.051.06.048-.008.01-.06-.048.007-.01Zm.563.438.066.054-.007.01-.066-.054.007-.01Zm-.443.063-.06.06-.009-.008.06-.06.009.008Z" clip-rule="evenodd"/><path fill="#fff" d="M11.736 9.684c-.03-.018-.072.006-.144-.078-.114.102 0 .12.012.222.03.012.054-.084.138-.09l.138-.012-.03-.042h-.12.006Z"/><path fill="currentColor" fill-rule="evenodd" d="m11.593 9.598.004.004a.176.176 0 0 0 .085.062.202.202 0 0 0 .03.006.079.079 0 0 1 .026.008h.115l.038.053-.148.013c-.04.003-.065.027-.085.05l-.01.01a.232.232 0 0 1-.017.02c-.008.008-.018.014-.029.01l-.003-.002V9.83a.15.15 0 0 0-.023-.061.11.11 0 0 0-.014-.021.067.067 0 0 1-.024-.079.163.163 0 0 1 .05-.066l.005-.004Zm.137.092v-.002a.074.074 0 0 0-.02-.006h-.005a.216.216 0 0 1-.027-.006.183.183 0 0 1-.086-.061.136.136 0 0 0-.042.056.055.055 0 0 0 .006.043.271.271 0 0 0 .014.023l.002.003.014.022c.01.017.02.037.024.061.003 0 .007-.002.013-.007l.016-.018.01-.012a.134.134 0 0 1 .093-.054l.127-.01-.022-.032h-.117Z" clip-rule="evenodd"/><path fill="#fff" d="m11.784 9.75-.012-.102c-.018-.042-.06-.006-.06.012l.012.102.06-.012Z"/><path fill="currentColor" fill-rule="evenodd" d="M11.757 9.625c.008.003.016.01.02.021v.001l.014.108-.072.015-.013-.109c0-.007.004-.014.008-.02a.054.054 0 0 1 .019-.014.032.032 0 0 1 .024-.002Zm-.039.035.011.095.048-.01-.01-.095c-.005-.009-.01-.013-.014-.014a.02.02 0 0 0-.015.002.041.041 0 0 0-.014.011.022.022 0 0 0-.006.011Z" clip-rule="evenodd"/><path fill="#F1B517" fill-rule="evenodd" d="M11.448 10.044v.096c-.036.012-.03.036-.03.072v.282c-.006.024-.042.024-.06.036-.018.018-.012.048.06.06l.06.006c.09-.018.108-.048.06-.06-.018-.012-.054-.024-.06-.036v-.072h.06c.012 0 .042-.036.042-.066v-.15c0-.084-.06-.096-.084-.09v-.078h-.048Zm.096.162c0-.024-.036-.048-.048-.048-.012 0-.042.03-.042.054v.06c0 .024.018.096.054.102.012 0 .036-.024.036-.048v-.12Z" clip-rule="evenodd"/><path fill="currentColor" fill-rule="evenodd" d="M11.448 10.039h.054v.077a.075.075 0 0 1 .048.013c.02.014.036.04.036.084v.15a.088.088 0 0 1-.018.047.092.092 0 0 1-.015.017.038.038 0 0 1-.007.005.019.019 0 0 1-.008.003h-.054v.064a.031.031 0 0 0 .007.006.16.16 0 0 0 .015.008l.009.005c.009.004.018.008.025.013a.05.05 0 0 1 .026.014.016.016 0 0 1 .004.012.02.02 0 0 1-.006.011.08.08 0 0 1-.03.019.315.315 0 0 1-.055.015l-.062-.005c-.037-.007-.058-.017-.068-.03a.028.028 0 0 1-.005-.022.034.034 0 0 1 .01-.019.157.157 0 0 1 .025-.01.342.342 0 0 0 .011-.005c.012-.004.02-.009.022-.017v-.306c0-.008 0-.015.002-.022a.039.039 0 0 1 .01-.018.05.05 0 0 1 .018-.012v-.091h.006v-.006Zm.006.012v.094l-.004.001a.043.043 0 0 0-.018.01.027.027 0 0 0-.007.013.075.075 0 0 0-.002.019v.308c-.003.015-.016.022-.028.027a.237.237 0 0 1-.012.004l-.007.002a.07.07 0 0 0-.014.006.022.022 0 0 0-.007.012c0 .004 0 .008.004.012.007.01.024.02.06.026l.058.005a.295.295 0 0 0 .053-.014.07.07 0 0 0 .025-.016l.003-.005-.001-.003a.045.045 0 0 0-.02-.01h-.002a.146.146 0 0 0-.025-.013l-.01-.005a.153.153 0 0 1-.016-.01.032.032 0 0 1-.011-.01l-.001-.002v-.08h.068a.034.034 0 0 0 .006-.004.08.08 0 0 0 .012-.015.076.076 0 0 0 .016-.04v-.15c0-.04-.014-.063-.03-.074a.06.06 0 0 0-.047-.01l-.007.001v-.08h-.036Zm.027.108a.029.029 0 0 1 .015-.006c.004 0 .01.002.015.004a.086.086 0 0 1 .017.012c.011.01.022.023.022.038v.12a.06.06 0 0 1-.015.036.06.06 0 0 1-.013.012.027.027 0 0 1-.014.006h-.001a.047.047 0 0 1-.027-.018.117.117 0 0 1-.018-.03.183.183 0 0 1-.014-.06v-.06a.06.06 0 0 1 .018-.04.091.091 0 0 1 .015-.014Zm-.006.021a.055.055 0 0 0-.015.033v.06a.17.17 0 0 0 .013.055c.004.01.01.02.016.028a.036.036 0 0 0 .02.013.019.019 0 0 0 .006-.003.05.05 0 0 0 .01-.01.048.048 0 0 0 .013-.03v-.12c0-.009-.007-.02-.018-.028a.078.078 0 0 0-.014-.01.026.026 0 0 0-.01-.003c-.001 0-.004 0-.008.004a.07.07 0 0 0-.013.011Z" clip-rule="evenodd"/><path fill="#fff" d="M11.058 10.338c-.042-.012-.042.072-.042.072h.06c.03.012.048.048.036.072-.018.012-.132-.03-.138 0 .018.114.174.156.228.108.054-.054.066-.18-.108-.222l-.036-.03Zm.036.036-.018.036.018-.036Z"/><path fill="currentColor" fill-rule="evenodd" d="M11.042 10.332a.03.03 0 0 1 .018 0l.037.03c.087.022.13.065.142.111a.128.128 0 0 1-.033.121.096.096 0 0 1-.06.022.185.185 0 0 1-.074-.013.159.159 0 0 1-.104-.12v-.002a.017.017 0 0 1 .01-.012.043.043 0 0 1 .017-.004.23.23 0 0 1 .061.008.602.602 0 0 0 .051.005.04.04 0 0 0-.003-.034.06.06 0 0 0-.03-.028h-.064v-.006h.006-.006v-.004a.14.14 0 0 1 .005-.038.064.064 0 0 1 .014-.028.029.029 0 0 1 .013-.008Zm-.02.072h.05l.017-.032-.034-.028h-.01a.017.017 0 0 0-.007.005.055.055 0 0 0-.011.022.152.152 0 0 0-.004.027v.006Zm.073-.03.004.003-.015.03a.073.073 0 0 1 .031.032c.007.015.01.032.002.046v.001l-.002.001a.025.025 0 0 1-.014.003l-.018-.001-.03-.005-.016-.003a.222.222 0 0 0-.041-.004.035.035 0 0 0-.013.002c-.002.002-.003.002-.003.004.009.053.05.09.097.108.023.01.047.014.069.013a.083.083 0 0 0 .052-.018.116.116 0 0 0 .03-.11c-.011-.04-.05-.08-.133-.101Zm-1.258-.245.372.162-.005.01-.356-.154.058.232-.011.003-.06-.24-.003-.002.005-.011Zm.045.05.09.187-.011.005-.09-.186.01-.005Zm.04.028.197.108-.005.01-.198-.107.005-.01Z" clip-rule="evenodd"/><path fill="#D20014" d="m9.612 9.96-.156.006c-.012.006.03.054.024.066-.036.066-.264.06-.282.048-.03-.03.21-.048.216-.06 0-.024-.036-.072-.03-.102 0-.042.102-.06.102-.06l.126.102Z"/><path fill="#D20014" fill-rule="evenodd" d="m9.488 9.852.14.113-.168.007.001.003a.154.154 0 0 0 .01.019l.001.002a.087.087 0 0 1 .01.019.05.05 0 0 1 .004.01v.01c-.01.018-.034.031-.06.04a.436.436 0 0 1-.093.016.71.71 0 0 1-.13-.003.024.024 0 0 1-.008-.003h-.001a.013.013 0 0 1-.005-.01c0-.005.003-.008.005-.01a.065.065 0 0 1 .022-.011.586.586 0 0 1 .123-.024 2.357 2.357 0 0 0 .069-.013.075.075 0 0 0-.005-.017l-.008-.018a1.097 1.097 0 0 1-.015-.037.062.062 0 0 1-.002-.028c0-.013.008-.023.018-.03a.142.142 0 0 1 .037-.02.308.308 0 0 1 .05-.015h.005Zm-.004.012h-.001a.308.308 0 0 0-.046.014.13.13 0 0 0-.033.018c-.01.007-.014.014-.014.022v.001a.05.05 0 0 0 .002.023.211.211 0 0 0 .01.027l.004.008.008.019a.07.07 0 0 1 .006.024v.003a.01.01 0 0 1-.004.003l-.004.002a.48.48 0 0 1-.038.008l-.033.005-.047.008a.57.57 0 0 0-.074.016.052.052 0 0 0-.017.009h-.001v.001l.003.001.01.002a.685.685 0 0 0 .207-.015c.026-.008.045-.02.053-.034v-.002a.236.236 0 0 0-.013-.026L9.46 10a.166.166 0 0 1-.011-.02.026.026 0 0 1-.002-.01.01.01 0 0 1 .005-.01h.002l.14-.005-.11-.09Zm-.283.21Z" clip-rule="evenodd"/><path fill="#503200" d="m9.792 10.08-.3-.251s-.018-.012-.03 0 0 .024 0 .024l.324.264.006-.03v-.006Z"/><path fill="currentColor" fill-rule="evenodd" d="m9.495 9.824-.003.005.003-.005.303.254v.01l-.008.04-.332-.27v-.001l.004-.004-.004.004a.027.027 0 0 1-.006-.01.02.02 0 0 1 0-.01c0-.005.002-.009.006-.013a.026.026 0 0 1 .025-.006.043.043 0 0 1 .011.005h.001Zm-.029.024a.017.017 0 0 1-.003-.005V9.84l.003-.006c.004-.004.01-.004.014-.003a.03.03 0 0 1 .008.003l.298.25v.003l-.004.02-.316-.258Z" clip-rule="evenodd"/><path fill="#F1B517" d="m10.092 10.332-.252-.216-.018-.06-.048.036a.157.157 0 0 0-.036.048h.066l.216.204.066-.012h.006Z"/><path fill="currentColor" fill-rule="evenodd" d="m9.825 10.046.02.066.263.226h-.021l-.069.012-.216-.204h-.073l.004-.009v-.002a.86.86 0 0 0 .011-.018.107.107 0 0 1 .027-.03l.054-.041Zm-.077.088h.059l.215.203.056-.01-.243-.208-.016-.053-.041.03a.096.096 0 0 0-.023.028.218.218 0 0 0-.007.01Z" clip-rule="evenodd"/><path fill="#F1B517" d="M10.95 10.668a.042.042 0 1 0 0-.084.042.042 0 0 0 0 .084Z"/><path fill="currentColor" fill-rule="evenodd" d="M10.95 10.59a.036.036 0 1 0 0 .072.036.036 0 0 0 0-.072Zm-.048.036a.048.048 0 1 1 .096 0 .048.048 0 0 1-.096 0Z" clip-rule="evenodd"/><path fill="#F1B517" d="M10.836 10.584a.042.042 0 1 0 0-.084.042.042 0 0 0 0 .084Z"/><path fill="currentColor" fill-rule="evenodd" d="M10.836 10.506a.036.036 0 1 0 0 .072.036.036 0 0 0 0-.072Zm-.048.036a.048.048 0 1 1 .096 0 .048.048 0 0 1-.096 0Z" clip-rule="evenodd"/><path fill="#F1B517" d="M10.686 10.639a.042.042 0 1 0 0-.084.042.042 0 0 0 0 .084Z"/><path fill="currentColor" fill-rule="evenodd" d="M10.686 10.56a.036.036 0 1 0 0 .073.036.036 0 0 0 0-.072Zm-.048.037a.048.048 0 1 1 .096 0 .048.048 0 0 1-.096 0Z" clip-rule="evenodd"/><path fill="#F1B517" d="M10.452 10.687a.042.042 0 1 0 0-.084.042.042 0 0 0 0 .084Z"/><path fill="currentColor" fill-rule="evenodd" d="M10.452 10.609a.036.036 0 1 0 0 .072.036.036 0 0 0 0-.072Zm-.048.036a.048.048 0 1 1 .096 0 .048.048 0 0 1-.096 0Z" clip-rule="evenodd"/><path fill="#F1B517" d="M10.35 10.698a.042.042 0 1 0 0-.084.042.042 0 0 0 0 .084Z"/><path fill="currentColor" fill-rule="evenodd" d="M10.35 10.62a.036.036 0 1 0 0 .072.036.036 0 0 0 0-.072Zm-.048.036a.048.048 0 1 1 .096 0 .048.048 0 0 1-.096 0Z" clip-rule="evenodd"/><path fill="#F1B517" d="M10.248 10.698a.042.042 0 1 0 0-.084.042.042 0 0 0 0 .084Z"/><path fill="currentColor" fill-rule="evenodd" d="M10.248 10.62a.036.036 0 1 0 0 .072.036.036 0 0 0 0-.072Zm-.048.036a.048.048 0 1 1 .096 0 .048.048 0 0 1-.096 0Z" clip-rule="evenodd"/><path fill="#F1B517" d="M10.152 10.698a.042.042 0 1 0 0-.084.042.042 0 0 0 0 .084Z"/><path fill="currentColor" fill-rule="evenodd" d="M10.152 10.62a.036.036 0 1 0 0 .072.036.036 0 0 0 0-.072Zm-.048.036a.048.048 0 1 1 .096 0 .048.048 0 0 1-.096 0Z" clip-rule="evenodd"/><path fill="#F1B517" d="M10.2 10.62a.042.042 0 1 0 0-.084.042.042 0 0 0 0 .084Z"/><path fill="currentColor" fill-rule="evenodd" d="M10.2 10.542a.036.036 0 1 0 0 .072.036.036 0 0 0 0-.072Zm-.048.036a.048.048 0 1 1 .096 0 .048.048 0 0 1-.096 0Z" clip-rule="evenodd"/><path fill="#F1B517" d="M10.295 10.626a.042.042 0 1 0 0-.084.042.042 0 0 0 0 .084Z"/><path fill="currentColor" fill-rule="evenodd" d="M10.296 10.548a.036.036 0 1 0 0 .072.036.036 0 0 0 0-.072Zm-.048.036a.048.048 0 1 1 .096 0 .048.048 0 0 1-.096 0Z" clip-rule="evenodd"/><path fill="#F1B517" d="M10.386 10.614a.042.042 0 1 0 0-.084.042.042 0 0 0 0 .084Z"/><path fill="currentColor" fill-rule="evenodd" d="M10.386 10.536a.036.036 0 1 0 0 .072.036.036 0 0 0 0-.072Zm-.048.036a.048.048 0 1 1 .096 0 .048.048 0 0 1-.096 0Z" clip-rule="evenodd"/><path fill="#F1B517" d="M10.344 10.542a.042.042 0 1 0 0-.084.042.042 0 0 0 0 .084Z"/><path fill="currentColor" fill-rule="evenodd" d="M10.344 10.464a.036.036 0 1 0 0 .072.036.036 0 0 0 0-.072Zm-.048.036a.048.048 0 1 1 .096 0 .048.048 0 0 1-.096 0Z" clip-rule="evenodd"/><path fill="#F1B517" d="M10.248 10.536a.042.042 0 1 0 0-.084.042.042 0 0 0 0 .084Z"/><path fill="currentColor" fill-rule="evenodd" d="M10.248 10.458a.036.036 0 1 0 0 .072.036.036 0 0 0 0-.072Zm-.048.036a.048.048 0 1 1 .096 0 .048.048 0 0 1-.096 0Z" clip-rule="evenodd"/><path fill="#F1B517" fill-rule="evenodd" d="M11.19 10.68c0-.018-.048-.012-.048-.036 0-.024.072 0 .078.018.042-.036.06-.012.084 0 .036-.048.078-.048.12-.012.024-.024.084-.018.102.012.042-.036.078-.03.102 0 .012-.018.03-.018.042 0 .018-.042.072-.03.096 0 .018-.024.042-.006.066.006.018-.012.048-.012.048 0 0 .024-.036.018-.036.036 0 .012.024 0 .024.024 0 .018-.036.024-.042 0-.018.024-.066.012-.072-.012a.047.047 0 0 1-.036.016.048.048 0 0 1-.036-.016c-.018.012-.042.012-.048 0-.03.03-.084.024-.102-.012h-.018a.06.06 0 0 1-.09 0c-.054.036-.084.024-.114 0-.03.042-.084.042-.09 0-.024.018-.072.024-.072 0 0-.012.042-.006.042-.024Zm.096.006c0 .012-.012.018-.024.018s-.024-.006-.024-.018c0-.012.006-.012.024-.012.018 0 .024.006.024.012Zm.114-.012c0 .012-.018.018-.036.018s-.03-.006-.03-.018c0-.006.012-.018.03-.018s.03.012.03.018h.006Zm.21.012c0 .012-.012.018-.03.018s-.024-.006-.024-.018c0-.006.012-.018.024-.018s.03.006.03.018Zm-.114 0c0 .012-.012.018-.03.018s-.024-.006-.024-.024c0-.012.012-.024.024-.024s.03.012.03.024v.006Zm.24 0c0 .006-.006.018-.018.018-.018 0-.03-.012-.03-.024s.012-.018.03-.018c.012 0 .024.006.024.018l-.006.006Zm-.072 0c0 .012 0 .018-.012.018s-.018-.006-.018-.018c0-.012.006-.012.018-.012l.012.012Zm.144.006c0 .012 0 .024-.018.024-.006 0-.018-.012-.018-.024s.012-.018.018-.018c.012 0 .018.006.018.018Z" clip-rule="evenodd"/><path fill="currentColor" fill-rule="evenodd" d="M11.362 10.63c-.018.002-.036.013-.053.036l-.003.004-.004-.002-.013-.008c-.002 0-.004-.002-.005-.003a.055.055 0 0 0-.016-.007c-.01-.002-.024 0-.044.017l-.007.006-.003-.009s0-.002-.003-.004a.052.052 0 0 0-.008-.006.114.114 0 0 0-.026-.01.065.065 0 0 0-.023-.004.012.012 0 0 0-.005.002v.002c0 .004 0 .006.004.009a.059.059 0 0 0 .015.006h.003l.014.006c.006.003.011.007.011.015s-.004.013-.01.015a.06.06 0 0 1-.015.005l-.004.001a.07.07 0 0 0-.013.004c0 .003.002.005.005.007a.032.032 0 0 0 .016.002c.014 0 .03-.006.042-.014l.008-.007.001.01a.03.03 0 0 0 .01.02.031.031 0 0 0 .02.007c.016 0 .035-.01.05-.03l.003-.004.005.004c.015.011.028.02.045.02.016.002.036-.003.062-.02l.004-.004.004.004a.053.053 0 0 0 .04.019.054.054 0 0 0 .04-.019l.002-.002h.025l.002.004a.052.052 0 0 0 .041.027.062.062 0 0 0 .051-.017l.006-.006.004.008c.001.003.006.005.014.005a.047.047 0 0 0 .025-.008l.004-.003.004.004a.041.041 0 0 0 .014.01.041.041 0 0 0 .034 0 .04.04 0 0 0 .015-.01l.007-.008.003.01a.022.022 0 0 0 .009.013.047.047 0 0 0 .018.007c.014.003.027 0 .034-.01l.008-.01.003.013c.002.008.01.012.017.011a.02.02 0 0 0 .01-.003.01.01 0 0 0 .003-.007c0-.005-.001-.007-.002-.008a.011.011 0 0 0-.005-.002l-.003-.001h-.001l-.005-.002a.011.011 0 0 1-.008-.011c0-.007.004-.011.008-.014l.012-.006.002-.001a.038.038 0 0 0 .01-.006.011.011 0 0 0 .004-.009l-.001-.001a.022.022 0 0 0-.01-.002.052.052 0 0 0-.027.008l-.003.002-.003-.001-.01-.005a.678.678 0 0 0-.025-.011.024.024 0 0 0-.013 0 .023.023 0 0 0-.011.008l-.005.006-.005-.006a.068.068 0 0 0-.045-.025.047.047 0 0 0-.024.005.038.038 0 0 0-.016.019l-.005.01-.006-.01c-.005-.007-.01-.01-.016-.01-.005 0-.01.003-.016.01l-.004.008-.005-.007a.054.054 0 0 0-.04-.022c-.015-.001-.034.005-.054.023l-.005.005-.004-.007c-.008-.012-.025-.02-.044-.023-.02-.002-.038.002-.049.013l-.004.004-.004-.004a.08.08 0 0 0-.058-.024Zm.062.012a.09.09 0 0 0-.063-.023c-.02.001-.04.013-.058.036a.132.132 0 0 1-.008-.005l-.005-.003a.072.072 0 0 0-.02-.008c-.014-.004-.029 0-.048.014l-.003-.002a.061.061 0 0 0-.01-.008.127.127 0 0 0-.028-.011.076.076 0 0 0-.028-.003.022.022 0 0 0-.011.004.014.014 0 0 0-.006.011.02.02 0 0 0 .01.018.07.07 0 0 0 .018.008l.003.001.013.005c.004.002.004.003.004.004 0 .002 0 .003-.003.005a.048.048 0 0 1-.013.004h-.003l-.012.003a.018.018 0 0 0-.007.004.01.01 0 0 0-.004.008.02.02 0 0 0 .011.018.045.045 0 0 0 .022.004.097.097 0 0 0 .041-.012.041.041 0 0 0 .013.019.042.042 0 0 0 .027.009.07.07 0 0 0 .055-.03.09.09 0 0 0 .047.02.106.106 0 0 0 .065-.02.067.067 0 0 0 .094-.002h.012c.01.018.03.029.049.031.02.002.04-.003.056-.016a.031.031 0 0 0 .02.006.059.059 0 0 0 .027-.007.054.054 0 0 0 .06.01.055.055 0 0 0 .011-.008.038.038 0 0 0 .01.01.06.06 0 0 0 .023.01.05.05 0 0 0 .04-.007.028.028 0 0 0 .025.011.03.03 0 0 0 .016-.006.02.02 0 0 0 .008-.016.025.025 0 0 0-.005-.016.022.022 0 0 0-.011-.006h-.004v-.001h-.004c0-.003.001-.004.003-.006l.01-.004h.002a.051.051 0 0 0 .014-.009.023.023 0 0 0 .007-.018.014.014 0 0 0-.008-.012.034.034 0 0 0-.015-.003.066.066 0 0 0-.031.008.222.222 0 0 0-.034-.015.036.036 0 0 0-.019 0 .03.03 0 0 0-.013.007.08.08 0 0 0-.05-.024c-.01 0-.02.001-.03.006a.048.048 0 0 0-.017.017.028.028 0 0 0-.02-.01.03.03 0 0 0-.021.01.063.063 0 0 0-.044-.02.087.087 0 0 0-.057.022.075.075 0 0 0-.049-.024.076.076 0 0 0-.054.012Zm-.025.026h.007v.006c0 .01-.007.016-.015.02a.07.07 0 0 1-.052-.001.02.02 0 0 1-.01-.019c0-.003 0-.006.002-.008a.03.03 0 0 1 .008-.008.044.044 0 0 1 .05 0 .033.033 0 0 1 .01.01Zm.055 0a.018.018 0 0 0-.006.012c0 .009.002.013.004.015s.006.003.014.003a.039.039 0 0 0 .019-.003c.004-.002.005-.005.005-.009v-.006c0-.003-.002-.007-.008-.011a.03.03 0 0 0-.016-.007.018.018 0 0 0-.012.006Zm-.009-.008a.03.03 0 0 1 .021-.01c.008 0 .017.004.023.009.007.005.013.012.013.021v.006a.02.02 0 0 1-.011.019.05.05 0 0 1-.025.005c-.01 0-.017-.001-.023-.007-.005-.005-.007-.013-.007-.023a.03.03 0 0 1 .01-.02Zm.255.012c-.004.002-.006.005-.006.008 0 .008.009.018.024.018a.01.01 0 0 0 .009-.004.014.014 0 0 0 .003-.008v-.002l.006-.006a.01.01 0 0 0-.005-.006.024.024 0 0 0-.013-.004.04.04 0 0 0-.018.004Zm-.006-.01a.05.05 0 0 1 .024-.006c.007 0 .014.002.02.006s.01.01.01.018v.003l-.006.006a.027.027 0 0 1-.006.012.023.023 0 0 1-.018.01c-.02 0-.036-.014-.036-.03 0-.01.005-.015.011-.02Zm-.132.024c0 .005.002.008.003.01.002 0 .007.002.015.002a.039.039 0 0 0 .019-.003c.004-.002.005-.005.005-.009 0-.002-.002-.005-.007-.008a.04.04 0 0 0-.017-.004.021.021 0 0 0-.012.006.02.02 0 0 0-.005.004v.002Zm-.002-.015a.033.033 0 0 1 .02-.009c.007 0 .015.002.022.005.007.004.014.01.014.02a.02.02 0 0 1-.011.018.05.05 0 0 1-.025.005c-.01 0-.017-.001-.022-.006-.006-.004-.008-.01-.008-.018 0-.003.002-.006.003-.008a.034.034 0 0 1 .007-.008Zm.08.01v.005c0 .005.002.008.003.01a.019.019 0 0 0 .01.002h.004l.001-.004v-.005l-.008-.009h-.005l-.004.001Zm.012-.013h.003l.015.016v.011a.02.02 0 0 1-.002.008.014.014 0 0 1-.006.006.024.024 0 0 1-.01.001.024.024 0 0 1-.018-.006.025.025 0 0 1-.006-.018c0-.003 0-.006.002-.01a.013.013 0 0 1 .006-.006.023.023 0 0 1 .008-.002h.008Zm-.407.014v.004c0 .004 0 .007.004.009a.024.024 0 0 0 .013.003c.005 0 .01-.001.013-.003a.01.01 0 0 0 .005-.009s0-.002-.002-.003a.032.032 0 0 0-.016-.003h-.01a.02.02 0 0 0-.006.001l-.001.001Zm.017-.014c.01 0 .017.002.022.005a.016.016 0 0 1 .008.013.022.022 0 0 1-.01.019.036.036 0 0 1-.02.005.036.036 0 0 1-.02-.005.022.022 0 0 1-.01-.019c0-.003 0-.006.002-.01a.013.013 0 0 1 .007-.006.03.03 0 0 1 .01-.002h.011Zm.52.016a.011.011 0 0 0-.004.008c0 .004.002.01.006.013a.03.03 0 0 0 .004.004l.002.001.008-.001a.006.006 0 0 0 .003-.003l.001-.014c0-.005-.001-.008-.002-.009-.002-.001-.005-.003-.01-.003-.001 0-.004.001-.007.004Zm-.007-.01a.026.026 0 0 1 .015-.006c.007 0 .014.002.018.007.005.004.006.01.006.017v.001c0 .005 0 .013-.003.018a.019.019 0 0 1-.008.009.028.028 0 0 1-.013.002.016.016 0 0 1-.008-.003.031.031 0 0 1-.008-.006.033.033 0 0 1-.008-.02c0-.009.004-.015.01-.019Z" clip-rule="evenodd"/><path fill="#0A328C" d="M11.988 9.942c-.15 0-.27.06-.27.126 0 .012 0 .024.012.036.03.036.138.06.264.06.12 0 .216-.018.252-.054a.055.055 0 0 0 .018-.042c0-.066-.12-.12-.276-.12v-.006Z"/><path fill="#0A328C" fill-rule="evenodd" d="M11.794 9.975a.462.462 0 0 1 .194-.039h.006v.006c.076 0 .144.014.193.036a.189.189 0 0 1 .06.04.074.074 0 0 1 .023.05.07.07 0 0 1-.005.026.069.069 0 0 1-.015.02.197.197 0 0 1-.097.042.806.806 0 0 1-.16.014.793.793 0 0 1-.168-.017.33.33 0 0 1-.061-.019.108.108 0 0 1-.038-.026c-.014-.014-.014-.028-.014-.04 0-.018.008-.036.023-.051a.19.19 0 0 1 .06-.042Zm.188-.027a.447.447 0 0 0-.183.038.183.183 0 0 0-.056.038.066.066 0 0 0-.02.044c0 .012.001.022.011.032a.094.094 0 0 0 .035.023.315.315 0 0 0 .058.019.78.78 0 0 0 .167.016c.06 0 .113-.004.156-.013a.187.187 0 0 0 .092-.04.057.057 0 0 0 .012-.016.05.05 0 0 0 .004-.021.062.062 0 0 0-.02-.042.176.176 0 0 0-.056-.037.498.498 0 0 0-.194-.035h-.006v-.006Z" clip-rule="evenodd"/><path fill="#F1B517" d="M12.264 10.08v.42c0 .054-.12.09-.27.09-.15 0-.276-.036-.276-.09v-.42c0 .048.12.09.27.09.156 0 .276-.042.276-.09Z"/><path fill="currentColor" fill-rule="evenodd" d="M11.724 10.108v.392c0 .011.006.022.02.032a.19.19 0 0 0 .058.028.687.687 0 0 0 .192.024.645.645 0 0 0 .19-.024.176.176 0 0 0 .055-.028c.013-.01.019-.02.019-.032v-.392a.085.085 0 0 1-.012.011.204.204 0 0 1-.06.03.654.654 0 0 1-.198.027.628.628 0 0 1-.193-.027.203.203 0 0 1-.06-.03.084.084 0 0 1-.011-.01Zm-.012-.028v.42c0 .016.01.03.024.042a.2.2 0 0 0 .062.03c.05.015.12.024.196.024a.66.66 0 0 0 .193-.025.19.19 0 0 0 .06-.03c.014-.011.023-.025.023-.04v-.42h-.012c0 .008-.006.019-.019.029a.191.191 0 0 1-.057.027.641.641 0 0 1-.194.027.615.615 0 0 1-.19-.027.192.192 0 0 1-.055-.027c-.013-.01-.02-.02-.02-.03h-.011Z" clip-rule="evenodd"/><path fill="#D20014" d="M11.718 10.08v.06l.132.42.108-.324.12.33.078-.312.108.21v-.114l-.096-.204a.584.584 0 0 1-.036.012l-.06.228-.09-.216a.98.98 0 0 1-.042 0l-.09.216-.096-.264c-.024-.012-.036-.03-.036-.042Z"/><path fill="#D20014" fill-rule="evenodd" d="M11.712 10.08h.012c0 .004.002.01.008.017a.073.073 0 0 0 .025.02h.002l.091.253.086-.206h.05l.085.203.056-.214h.003a.494.494 0 0 0 .036-.013l.005-.002.099.21v.116l-.011.003-.101-.196-.079.316-.12-.333-.11.326-.137-.439v-.06Zm.012.027v.032l.126.402.108-.323.119.328.077-.309.104.202v-.088l-.093-.197a.437.437 0 0 1-.028.009l-.064.242-.095-.229h-.034l-.095.227-.1-.277a.085.085 0 0 1-.025-.02Z" clip-rule="evenodd"/><path fill="#0A328C" d="M12.264 10.422v.078c0 .054-.12.09-.27.09-.15 0-.276-.036-.276-.09v-.078c0 .054.12.09.27.09.156 0 .276-.036.276-.09Z"/><path fill="#0A328C" fill-rule="evenodd" d="M11.724 10.452v.048c0 .01.006.022.02.032a.19.19 0 0 0 .058.027.648.648 0 0 0 .192.025.645.645 0 0 0 .19-.025.174.174 0 0 0 .055-.027c.013-.01.019-.021.019-.032v-.048a.092.092 0 0 1-.011.011.188.188 0 0 1-.06.03.684.684 0 0 1-.2.025.656.656 0 0 1-.192-.025.19.19 0 0 1-.06-.03.079.079 0 0 1-.011-.01Zm-.012-.03v.078c0 .016.01.03.024.041a.2.2 0 0 0 .062.03c.05.016.12.025.196.025.075 0 .143-.01.193-.025a.19.19 0 0 0 .06-.03c.014-.011.023-.025.023-.041v-.078h-.012c0 .01-.006.022-.019.032a.177.177 0 0 1-.056.027.673.673 0 0 1-.195.025.645.645 0 0 1-.19-.025.174.174 0 0 1-.055-.027c-.013-.01-.02-.021-.02-.032h-.011Z" clip-rule="evenodd"/><path fill="#F1B517" d="m12.102 10.5-.066.012v.078l.072-.006v-.078l-.006-.006Zm-.288-.006v.078l.066.012v-.078a.525.525 0 0 1-.066-.012Zm-.096-.072v.078c0 .018.012.03.03.042v-.078c-.018-.012-.03-.024-.03-.042Zm.546.012c0 .012-.024.03-.048.042v.078c.03-.012.048-.03.048-.054v-.066Z"/><path fill="currentColor" fill-rule="evenodd" d="M11.712 10.5v-.078h.012c0 .015.01.025.027.037l.003.002v.092l-.01-.006c-.018-.012-.032-.026-.032-.047Zm.012-.048v.048c0 .012.006.02.018.03v-.063a.105.105 0 0 1-.018-.015Zm.53-.012.004-.006h.012v.066c0 .028-.021.047-.052.06l-.008.003v-.09l.003-.003a.173.173 0 0 0 .032-.02.064.064 0 0 0 .01-.01Zm.004.015-.005.005a.18.18 0 0 1-.031.02v.065c.024-.012.036-.027.036-.045v-.045Zm-.45.031.007.002a.53.53 0 0 0 .066.012h.005v.091l-.078-.014v-.09Zm.012.015v.066l.054.01v-.066a.55.55 0 0 1-.054-.01Zm.284-.008.01.01v.086l-.084.007v-.09l.074-.013Zm-.062.024v.066l.06-.005v-.07l-.002-.002-.058.01Z" clip-rule="evenodd"/><path fill="currentColor" fill-rule="evenodd" d="M11.724 10.08v.42c0 .011.006.022.02.032a.19.19 0 0 0 .058.028.687.687 0 0 0 .192.024.645.645 0 0 0 .19-.024.176.176 0 0 0 .055-.028c.013-.01.019-.02.019-.032v-.42h.012v.42c0 .016-.009.03-.023.042a.19.19 0 0 1-.06.029.656.656 0 0 1-.193.025.689.689 0 0 1-.196-.025.2.2 0 0 1-.062-.03.05.05 0 0 1-.024-.04v-.42h.012Z" clip-rule="evenodd"/><path fill="#fff" d="M12.204 10.05c0 .03-.096.06-.21.06-.12 0-.216-.03-.216-.06s.096-.053.21-.053c.12 0 .216.024.216.06v-.006Z"/><path fill="#fff" fill-rule="evenodd" d="M11.798 10.035c-.01.006-.014.012-.014.016s.003.01.014.017c.01.006.025.013.045.018a.568.568 0 0 0 .34-.018c.01-.006.013-.01.014-.015 0-.005-.005-.01-.013-.016a.157.157 0 0 0-.045-.018.614.614 0 0 0-.151-.016.62.62 0 0 0-.146.015.168.168 0 0 0-.044.017Zm.411.016c-.002-.01-.009-.017-.019-.024a.164.164 0 0 0-.047-.02.625.625 0 0 0-.155-.016.631.631 0 0 0-.15.016.18.18 0 0 0-.046.018c-.011.006-.02.015-.02.026 0 .01.008.02.02.027a.184.184 0 0 0 .047.02.607.607 0 0 0 .305-.001.183.183 0 0 0 .046-.02.039.039 0 0 0 .02-.02v-.006Z" clip-rule="evenodd"/><path fill="#F1B517" d="m11.922 10.092.012.072h.06l.006-.072h-.078Zm.246-.018-.06.012.006.072.06-.012v-.066l-.006-.006Zm-.324-.12-.042.018.006.06.036-.012v-.066Zm.144-.018h-.018l.012.072h.036l.012-.072h-.042Zm.162.024-.006.06.042.018v-.06a.313.313 0 0 0-.036-.018Zm-.39.168.012-.078-.06-.03v.09l.048.018Zm.504-.018v-.078l-.048.018.048.06Zm.558-.51c.048 0 .12.06.126.15 0 .06-.102.06-.102.06 0 .03-.06.054-.108.06-.048 0 .012-.09.012-.09-.03-.078.012-.162.012-.162l.06-.018Z"/><path fill="currentColor" fill-rule="evenodd" d="M12.821 9.594h.001c.026 0 .058.016.083.043a.182.182 0 0 1 .049.113.05.05 0 0 1-.018.04.099.099 0 0 1-.037.019.201.201 0 0 1-.047.007.04.04 0 0 1-.012.02.101.101 0 0 1-.027.019.24.24 0 0 1-.074.021.026.026 0 0 1-.018-.005.021.021 0 0 1-.007-.014.073.073 0 0 1 .006-.034.256.256 0 0 1 .023-.043.2.2 0 0 1-.004-.111.27.27 0 0 1 .011-.039l.005-.01.001-.003v-.001l.006.002-.005-.002v-.003l.064-.019Zm-.055.03a.259.259 0 0 0-.015.047.18.18 0 0 0 .005.107v.006h-.001l-.002.003a.203.203 0 0 0-.021.04.063.063 0 0 0-.006.028c0 .004.001.006.003.007.001.001.004.002.009.002a.23.23 0 0 0 .07-.02.09.09 0 0 0 .024-.017c.005-.006.008-.011.008-.017v-.006m-.074-.18.057-.018c.022 0 .05.014.073.04a.17.17 0 0 1 .046.104.039.039 0 0 1-.014.03.088.088 0 0 1-.033.017.19.19 0 0 1-.048.007m-.86.126h.051l-.014.084h-.046l-.014-.084h.025Zm.001.006v.006h-.01l.01.06h.025l.01-.06h-.035v-.006Zm-.138.01v.079l-.047.015-.007-.072.054-.023Zm-.041.03.004.048.025-.008v-.053l-.03.013Zm.343-.021a.332.332 0 0 1 .037.018l.003.002v.072l-.054-.023.006-.064h.006l.002-.005Zm.003.014-.005.048.03.012v-.047a.31.31 0 0 0-.025-.013Zm-.449.042.073.036-.014.09-.059-.023v-.104Zm.012.019v.076l.037.014.01-.066-.047-.024Zm.552-.006v.103l-.064-.08.064-.023Zm-.044.029.032.04v-.052l-.032.012Zm-.056.015.01.01v.073l-.071.014-.007-.084.068-.013Zm-.056.023.005.06.05-.01v-.058l-.003-.002-.052.01Zm-.192-.005h.085L12 10.17h-.071l-.013-.077h.006v-.007Zm.007.012.01.06h.05l.004-.06h-.064Z" clip-rule="evenodd"/><path fill="#F1B517" d="M12.75 9.78h.048s0 .018.012.018.018-.024.018-.024h.072"/><path fill="currentColor" fill-rule="evenodd" d="M12.823 9.769h.077v.012h-.068a.066.066 0 0 1-.003.008.04.04 0 0 1-.007.01.017.017 0 0 1-.012.006c-.01 0-.014-.008-.016-.014a.025.025 0 0 1-.001-.004h-.043v-.012h.054v.008l.001.005c.001.003.003.005.005.005l.004-.002a.025.025 0 0 0 .004-.007.051.051 0 0 0 .003-.008v-.002h.001l.001-.005Z" clip-rule="evenodd"/><path fill="#D20014" d="M12.846 9.654c.042-.03.006-.09-.024-.09h-.06c-.036 0-.084.036-.078.06 0 .03.024.042.048.036.012 0 .036-.036.048-.036.018 0 .06.036.066.03Z"/><path fill="#F1B517" fill-rule="evenodd" d="M12.703 9.58a.103.103 0 0 1 .059-.022h.06c.01 0 .018.005.026.011a.07.07 0 0 1 .018.027c.004.01.006.021.004.033a.05.05 0 0 1-.02.03c-.004.002-.008.002-.01.001a.035.035 0 0 1-.007-.003l-.018-.01a.29.29 0 0 0-.02-.012.038.038 0 0 0-.015-.005h-.002a.03.03 0 0 0-.005.004l-.013.012a.186.186 0 0 1-.02.018.017.017 0 0 1-.007.002.047.047 0 0 1-.038-.005.042.042 0 0 1-.017-.036.032.032 0 0 1 .005-.024.082.082 0 0 1 .02-.02Zm.143.074-.004-.005.004.005Zm-.002-.005Zm0 0a.03.03 0 0 1-.006-.002l-.016-.01h-.002a.294.294 0 0 0-.02-.013.048.048 0 0 0-.02-.006.017.017 0 0 0-.008.002.044.044 0 0 0-.007.005l-.013.013a.163.163 0 0 1-.018.015l-.002.001h-.001a.035.035 0 0 1-.029-.003c-.007-.005-.012-.014-.012-.027v-.001a.021.021 0 0 1 .003-.015.092.092 0 0 1 .068-.038h.06a.03.03 0 0 1 .02.008.058.058 0 0 1 .014.022.046.046 0 0 1 .003.026.037.037 0 0 1-.015.023Zm-2.992.839c-.036.006-.042.048-.03.09-.156.042-.3.102-.444.144-.006-.03.072-.108.072-.108.018.006.036.054.036.054 0-.096.096-.156.096-.156-.06-.012-.222.06-.24.084 0 0 .06-.012.072 0 0 0-.132.138-.138.18.024.042.24.078.24.078 0 .012-.06.06-.06.06a.401.401 0 0 0 .258-.084s-.102-.012-.18-.078c0 0 .012.042 0 .06 0 0-.12-.036-.138-.06 0 0 .3-.072.444-.12.006.03.036.078.072.066.018-.006.012-.048 0-.084a.05.05 0 0 0 .036.012.041.041 0 0 0 .042-.042.041.041 0 0 0-.042-.042.048.048 0 0 0-.042.03c-.006-.03-.024-.084-.048-.078l-.006-.006Zm.12.096c0 .012-.012.018-.024.018a.017.017 0 0 1-.009.001.018.018 0 0 1-.015-.019c0-.012.012-.024.024-.024s.018.012.018.024h.006Z" clip-rule="evenodd"/><path fill="currentColor" fill-rule="evenodd" d="m9.854 10.481.006.007c.008-.001.014.002.02.007a.075.075 0 0 1 .014.022.262.262 0 0 1 .015.039.054.054 0 0 1 .04-.02c.027 0 .047.02.047.048 0 .027-.02.048-.048.048a.055.055 0 0 1-.025-.004.19.19 0 0 1 .006.039c0 .008 0 .016-.002.022a.022.022 0 0 1-.013.015c-.021.007-.04-.004-.053-.02a.12.12 0 0 1-.025-.044 4.957 4.957 0 0 1-.425.114l-.002.001.002.001a.515.515 0 0 0 .106.044l.014.005a.039.039 0 0 0 .002-.01v-.02a.162.162 0 0 0-.004-.02v-.001l-.006-.02.015.013a.345.345 0 0 0 .16.074l.013.002h.003l.013.002-.009.01a.345.345 0 0 1-.11.06.34.34 0 0 1-.153.025l-.013-.002.01-.009h.001l.002-.002a.707.707 0 0 0 .052-.049h-.001a1.11 1.11 0 0 1-.216-.062.055.055 0 0 1-.019-.017l-.001-.002v-.002a.064.064 0 0 1 .009-.022.878.878 0 0 1 .11-.14l.015-.015-.007-.001h-.023a.388.388 0 0 0-.021.003l-.007.001h-.002l-.016.004.01-.013a.062.062 0 0 1 .014-.012.66.66 0 0 1 .169-.07.161.161 0 0 1 .062-.004l.015.003-.013.008-.003.003a.252.252 0 0 0-.043.038.167.167 0 0 0-.047.11l-.011.002-.001-.002-.002-.005a.236.236 0 0 0-.02-.034.036.036 0 0 0-.007-.008l-.008.01a.57.57 0 0 0-.05.064.08.08 0 0 0-.009.019 4.23 4.23 0 0 0 .187-.062l.023-.008c.071-.025.145-.05.22-.07a.114.114 0 0 1 0-.056c.004-.019.016-.033.037-.036h.003Zm-.408.129.003-.003.003.001a.038.038 0 0 1 .016.013.135.135 0 0 1 .014.023.19.19 0 0 1 .048-.094.274.274 0 0 1 .035-.034.556.556 0 0 0-.192.069.153.153 0 0 1 .025 0c.004 0 .008 0 .011.002a.02.02 0 0 1 .01.005l.004.004-.004.004-.002.002-.004.004-.015.016a1.927 1.927 0 0 0-.093.111.259.259 0 0 0-.022.042.05.05 0 0 0 .014.011.694.694 0 0 0 .11.039 1.516 1.516 0 0 0 .108.022h.002l.005.002v.01a.29.29 0 0 1-.05.05.352.352 0 0 0 .131-.025.388.388 0 0 0 .098-.05l-.005-.001a.394.394 0 0 1-.152-.066.191.191 0 0 1 .001.028.042.042 0 0 1-.006.02l-.002.004-.004-.001H9.53l-.004-.002a.6.6 0 0 1-.057-.02.551.551 0 0 1-.066-.03.051.051 0 0 1-.013-.01l-.005-.008.009-.002h.003l.01-.003.036-.009.119-.03c.093-.024.204-.054.275-.078l.007-.002.001.007a.106.106 0 0 0 .023.046c.013.013.027.02.041.015.002 0 .004-.002.006-.007a.052.052 0 0 0 .002-.018.205.205 0 0 0-.011-.051l-.008-.022.017.015a.042.042 0 0 0 .032.01c.02 0 .036-.014.036-.035a.035.035 0 0 0-.036-.036.042.042 0 0 0-.036.026l-.008.019-.004-.02a.22.22 0 0 0-.016-.05.064.064 0 0 0-.013-.02c-.004-.003-.008-.004-.011-.003h-.004l-.006-.006c-.013.004-.021.013-.025.027a.107.107 0 0 0 .003.055l.002.006-.006.002c-.078.02-.153.046-.226.072l-.023.008c-.066.022-.13.045-.195.064l-.006.002-.002-.007a.033.033 0 0 1 .002-.016.273.273 0 0 1 .033-.054.61.61 0 0 1 .036-.04l.002-.002v-.001h.001Zm.49-.038a.018.018 0 0 0-.006.012l.001.006.004.005a.012.012 0 0 0 .011.002l.001-.001h.001c.005 0 .01-.001.013-.004a.015.015 0 0 0 .003-.002H9.96v-.006a.024.024 0 0 0-.003-.013.01.01 0 0 0-.009-.005.018.018 0 0 0-.012.006Zm.036.006a.034.034 0 0 0-.005-.014.022.022 0 0 0-.019-.01.03.03 0 0 0-.02.01.03.03 0 0 0-.01.02.024.024 0 0 0 .01.02.024.024 0 0 0 .01.005l.011-.001a.036.036 0 0 0 .02-.006.022.022 0 0 0 .01-.018v-.006h-.007Z" clip-rule="evenodd"/><path fill="#F1B517" d="M14.58 10.674c.012-.024 0-.132 0-.132-.03 0-.06.042-.06.042.03-.096-.048-.24-.048-.24.054.006.234.18.24.216 0 0-.078-.03-.09-.024.018.09.078.132.102.18 0 0-.102.018-.096.108h-.066c-.024-.03.006-.078.006-.078l-.462-.192c-.03-.012-.096-.048-.084-.084.006-.03.12.018.144.03l.42.174h-.006Z"/><path fill="currentColor" fill-rule="evenodd" d="m14.461 10.337.012.002c.008 0 .017.004.027.01a.861.861 0 0 1 .207.189c.006.008.01.016.011.022l.002.01-.01-.004-.003-.001-.01-.003a.767.767 0 0 0-.068-.02c.01.04.028.07.047.097l.019.025.01.013a.23.23 0 0 1 .024.037l.004.007-.008.002h-.004l-.01.004a.145.145 0 0 0-.034.015.086.086 0 0 0-.043.082v.007h-.075l-.002-.003c-.014-.017-.011-.039-.007-.055a.13.13 0 0 1 .01-.023l-.456-.19a.254.254 0 0 1-.06-.034.097.097 0 0 1-.023-.026.038.038 0 0 1-.005-.03.017.017 0 0 1 .01-.013.042.042 0 0 1 .018-.002.6.6 0 0 1 .125.04l.408.17a.105.105 0 0 0 .002-.021.499.499 0 0 0-.004-.095.071.071 0 0 0-.032.019.151.151 0 0 0-.018.02l-.01-.005a.266.266 0 0 0-.013-.152.592.592 0 0 0-.032-.077l-.002-.005-.001-.001-.006-.01Zm.023.017a.315.315 0 0 1 .048.209.127.127 0 0 1 .003-.004c.011-.01.028-.022.045-.022h.005l.001.005v.005l.002.012a1.286 1.286 0 0 1 .003.085c0 .007 0 .013-.002.019v.006l-.003.012h-.016l.003-.005-.41-.17a.59.59 0 0 0-.077-.03.184.184 0 0 0-.043-.009.03.03 0 0 0-.012.001c-.002.001-.003.002-.003.004-.003.007-.001.015.003.022a.086.086 0 0 0 .021.023.24.24 0 0 0 .056.032l.469.195-.004.006v.002l-.004.005a.11.11 0 0 0-.007.019c-.004.014-.005.03.003.043h.057a.1.1 0 0 1 .049-.087.16.16 0 0 1 .035-.017l.01-.002a.257.257 0 0 0-.03-.041l-.02-.026a.267.267 0 0 1-.05-.108v-.005l.003-.002a.02.02 0 0 1 .01-.001l.014.002a.336.336 0 0 1 .058.018.934.934 0 0 0-.206-.19.123.123 0 0 0-.011-.006Z" clip-rule="evenodd"/><path fill="#F1B517" d="m14.136 10.59.06-.095c.018-.03-.024-.06-.054-.024l-.06.09c-.024.054.03.066.06.03h-.006Z"/><path fill="currentColor" fill-rule="evenodd" d="M14.19 10.453a.032.032 0 0 1 .011.045l-.054.087h.008l-.008.01c-.016.019-.04.026-.057.02a.03.03 0 0 1-.018-.02.056.056 0 0 1 .005-.037l.06-.09v-.001c.017-.02.038-.023.053-.014Zm-.063.144h-.002l.066-.105c.007-.012.003-.024-.007-.029-.009-.005-.023-.005-.037.011l-.06.09a.05.05 0 0 0-.004.028c.002.006.006.01.011.012a.038.038 0 0 0 .033-.007Z" clip-rule="evenodd"/><path fill="#fff" d="m10.883 10.822-.003-.112-.132.01-.007.117.142-.015Z"/><path fill="currentColor" fill-rule="evenodd" d="m10.885 10.704.004.118h-.006v.006l-.149.016.009-.128.142-.012Zm-.008.113-.003-.101-.12.01-.008.105.131-.014Z" clip-rule="evenodd"/><path fill="#fff" d="m9.915 10.976-.176-.1c.728.067.878-.188 1.054-.2.112-.01.124.12-.086.057l.056.135s-.518.292-1.028.172l.18-.063Zm3.18-.153.004-.113.161.008.008.116-.173-.011Z"/><path fill="currentColor" fill-rule="evenodd" d="M10.853 10.693a.088.088 0 0 0-.06-.012.369.369 0 0 0-.134.045l-.03.014a1.622 1.622 0 0 1-.154.07c-.148.056-.362.102-.711.072l.154.089-.003.005.002.005-.161.057c.247.054.495.011.683-.045a1.896 1.896 0 0 0 .315-.128h.002l-.06-.142.012.004c.052.015.09.019.116.016.026-.003.038-.013.041-.021.004-.009 0-.02-.012-.029Zm-.09.174.002.005h-.001a.143.143 0 0 0-.005.003l-.017.01a1.889 1.889 0 0 1-.3.12 1.392 1.392 0 0 1-.708.04l-.019-.004.187-.066-.166-.096.004-.01c.362.034.581-.013.73-.07.061-.023.111-.047.154-.069l.03-.014a.381.381 0 0 1 .138-.046.099.099 0 0 1 .068.014c.014.01.022.027.016.042-.006.014-.023.025-.05.028a.29.29 0 0 1-.11-.013l.054.128-.005.003-.002-.005Zm2.33-.163.172.008.009.127-.185-.012.005-.123Zm.011.011-.003.102.16.01-.006-.105-.15-.007Z" clip-rule="evenodd"/><path fill="#fff" d="m14.097 10.95.168-.094c-.84.026-.648-.135-1.065-.18-.112-.015-.187.127.083.056l-.053.135h.132c.285.188.667.206.922.146l-.187-.063Z"/><path fill="currentColor" fill-rule="evenodd" d="M13.201 10.67a.813.813 0 0 1 .3.085l.075.033c.108.042.27.076.69.063l.002.01-.157.088.194.066-.02.004c-.255.06-.638.042-.925-.146h-.138l.052-.132a.41.41 0 0 1-.134.016.075.075 0 0 1-.035-.01.026.026 0 0 1-.012-.021c0-.008.003-.016.009-.023a.08.08 0 0 1 .023-.02.126.126 0 0 1 .076-.012Zm.896.28-.003-.005.149-.082c-.404.01-.563-.023-.67-.065a1.188 1.188 0 0 1-.077-.034c-.072-.033-.141-.066-.296-.082a.115.115 0 0 0-.07.012.068.068 0 0 0-.02.016.025.025 0 0 0-.006.015c0 .004.002.008.008.012a.066.066 0 0 0 .03.009.421.421 0 0 0 .14-.019l.01-.003-.053.138h.126c.276.182.645.205.899.15l-.169-.057.002-.005Z" clip-rule="evenodd"/><path fill="#fff" d="M10.706 10.737v.187s.461.173 1.29.173c.833 0 1.29-.173 1.29-.173v-.187s-.349.161-1.29.161c-.937 0-1.29-.161-1.29-.161Z"/><path fill="currentColor" fill-rule="evenodd" d="m13.284 10.731.008-.004v.2l-.003.002-.002-.005.002.005h-.002l-.004.002a.953.953 0 0 1-.08.025 3.083 3.083 0 0 1-.248.06 4.974 4.974 0 0 1-.958.086c-.415 0-.738-.043-.957-.086a3.023 3.023 0 0 1-.33-.085l-.004-.001h-.001l.002-.006-.002.005-.004-.001v-.2l.008.003h.001l.003.002a.706.706 0 0 0 .065.023c.048.015.12.035.223.055.205.04.527.081.996.081.47 0 .792-.04.997-.08a2.037 2.037 0 0 0 .274-.074l.012-.005.004-.001Zm-.003.014-.009.004a2.028 2.028 0 0 1-.276.074c-.205.04-.528.08-1 .08a5.29 5.29 0 0 1-.997-.08 2.065 2.065 0 0 1-.277-.075c-.004 0-.007-.002-.01-.003v.175h.002l.016.006.063.02c.056.015.14.037.25.059.218.043.54.086.954.086.416 0 .738-.043.956-.086a3.002 3.002 0 0 0 .31-.08.05.05 0 0 0 .017-.005h.001v-.175Z" clip-rule="evenodd"/><path fill="currentColor" d="m10.774 10.923.041-.138.019.007-.038.12.075.019-.007.019-.09-.027Zm.135-.06v-.026l.007-.026.023.007-.008.023-.01.026-.012-.004Zm.199-.01.018.007-.015.078-.015.038a.045.045 0 0 1-.018.015h-.038a.074.074 0 0 1-.034-.015.038.038 0 0 1-.015-.023l.004-.037.019-.083.019.004-.02.083a.08.08 0 0 0 0 .03c.002.005.004.01.008.015l.02.007h.037l.015-.037.015-.083Zm.022.15.023-.14h.022l.056.128.02-.113h.018l-.023.147-.018-.004-.06-.124-.02.113-.018-.004v-.004Zm.15.025.023-.142h.018l-.018.142h-.023Zm.06-.063c0-.023.011-.042.026-.053a.075.075 0 0 1 .053-.015c.015 0 .026.004.037.011l.02.03a.044.044 0 0 1 .003.038.083.083 0 0 1-.011.037.064.064 0 0 1-.03.027.075.075 0 0 1-.038.003.074.074 0 0 1-.037-.01.064.064 0 0 1-.02-.03.08.08 0 0 1-.003-.038Zm.019 0c0 .018 0 .037.011.045a.04.04 0 0 0 .034.018c.015 0 .026 0 .037-.01.012-.008.015-.023.02-.038a.072.072 0 0 0 0-.038.045.045 0 0 0-.02-.019.048.048 0 0 0-.026-.01c-.011 0-.026 0-.037.01a.085.085 0 0 0-.02.045v-.003Zm.139.086.01-.143h.023l.068.12.007-.112h.02l-.012.146h-.019l-.071-.12-.008.113h-.018v-.004Zm.21.015.003-.143.102.004v.019l-.08-.004-.003.041.071.004v.019l-.075-.004v.068h-.018v-.004Zm.112.004.056-.143h.023l.056.15h-.022l-.015-.049h-.064l-.015.045h-.023l.004-.003Zm.038-.057h.052l-.015-.037a.327.327 0 0 1-.007-.034l-.008.03-.019.041h-.003Zm.116.06v-.142h.022v.142h-.022Zm.094 0v-.123h-.05v-.015h.117v.015h-.049v.127h-.018v-.004Zm.15 0-.012-.15h.023l.004.128h.075v.015l-.094.004.004.003Zm.097-.007.045-.15h.023l.075.139h-.027l-.018-.038h-.064l-.011.049h-.023Zm.038-.064h.052l-.019-.037-.015-.034a.19.19 0 0 1-.003.03l-.015.041Zm.176.045-.015-.142.097-.012.004.02-.079.007v.045l.075-.008v.019l-.07.007.007.064h-.02Zm.112-.079a.075.075 0 0 1 .008-.06.075.075 0 0 1 .049-.026l.037.004a.047.047 0 0 1 .03.022l.015.038-.004.037a.06.06 0 0 1-.022.03.074.074 0 0 1-.071.012.064.064 0 0 1-.03-.023.078.078 0 0 1-.015-.037l.003.003Zm.02-.003c0 .015.007.03.018.037.011.011.022.011.037.011s.027-.007.038-.018c.007-.012.007-.027.007-.045a.075.075 0 0 0-.01-.03.05.05 0 0 0-.023-.02.053.053 0 0 0-.027 0 .048.048 0 0 0-.037.016.095.095 0 0 0-.004.049Zm.153.048-.023-.142.064-.011h.03c.008 0 .015 0 .019.007l.011.023c0 .01 0 .018-.007.026a.052.052 0 0 1-.027.019l.012.003.018.02.038.033h-.026l-.027-.023a.275.275 0 0 0-.018-.018.044.044 0 0 0-.012-.008.03.03 0 0 0-.01 0h-.012l-.023.004.015.064h-.022v.003Zm.007-.082.038-.008a.064.064 0 0 0 .022-.007.022.022 0 0 0 .011-.023.022.022 0 0 0-.007-.015h-.026l-.049.004.011.049Zm.237-.015h.018c0 .015-.003.03-.01.037a.074.074 0 0 1-.038.023.074.074 0 0 1-.038 0 .06.06 0 0 1-.03-.023.1.1 0 0 1-.019-.037.082.082 0 0 1 0-.038c0-.015.012-.026.02-.033l.033-.015h.037a.059.059 0 0 1 .03.03l-.018.007a.045.045 0 0 0-.02-.019.042.042 0 0 0-.025 0 .04.04 0 0 0-.027.012.041.041 0 0 0-.01.026v.026a.069.069 0 0 0 .014.03c.004.008.011.015.023.015h.026a.041.041 0 0 0 .022-.011.042.042 0 0 0 .012-.03Zm.052.037-.037-.138.1-.027.008.015-.086.023.011.041.08-.019.007.015-.083.023.015.045.09-.023v.015l-.105.03Z"/></g><defs><clipPath id="a"><path fill="#fff" d="M0 0h24v18H0z"/></clipPath></defs></svg>