<svg xmlns="http://www.w3.org/2000/svg" width="24" height="18" fill="none"><g fill-rule="evenodd" clip-path="url(#a)" clip-rule="evenodd"><path fill="#fff" d="M24.913 18.048H-.87V0h25.782v18.048Z"/><path fill="#00C" d="M24.913 4.06H-.87V1.693h25.782V4.06Zm0 12.356H-.87v-2.369h25.782v2.369ZM7.887 6.722l3.881 6.754 3.966-6.722-7.847-.028v-.004Z"/><path fill="#fff" d="m11.039 11.202.736 1.252.755-1.245-1.495-.007h.004Z"/><path fill="#00C" d="m7.873 11.301 3.885-6.754 3.962 6.726-7.847.028Z"/><path fill="#fff" d="m11.038 6.753.737-1.251.754 1.248-1.494.003h.003ZM9.494 9.556l-.765 1.269 1.446-.004-.68-1.269v.004Zm-.75-2.344 1.452.01-.698 1.28-.754-1.29Zm5.33 2.361.736 1.252-1.47-.018.733-1.234Zm.722-2.361-1.452.01.698 1.28.754-1.29Zm-4.03 0-1 1.811 1.015 1.774 1.861.042 1.128-1.816-1.043-1.833-1.96.018v.004Z"/></g><defs><clipPath id="a"><path fill="#fff" d="M0 0h24v18H0z"/></clipPath></defs></svg>