<svg xmlns="http://www.w3.org/2000/svg" width="24" height="18" fill="none"><g fill-rule="evenodd" clip-path="url(#a)" clip-rule="evenodd"><path fill="#BA0000" d="M24.917 18.048H-.865V0h25.782v18.048Z"/><path fill="#FFEF00" d="M12.636 13.254c.007-.021.02-.24.014-.24-.007 0-.332-.384-.325-.384.007 0 .416.091.416.077 0-.014.166-.405.166-.412l.197.476.406.176-.282.236.06.459c0 .01-.282-.268-.282-.268l-.314.035s-.042-.141-.056-.155Z"/><path fill="currentColor" d="m12.868 12.296.075-.015.19.461.45.195-.314.263.057.44v.002a.04.04 0 0 1-.032.039.037.037 0 0 1-.022-.003.048.048 0 0 1-.01-.005 6.532 6.532 0 0 1-.24-.227l-.03-.031-.328.037-.01-.033-.001-.004a1.509 1.509 0 0 1-.005-.016l-.016-.05a1.117 1.117 0 0 0-.025-.067l-.001-.002-.015-.015.007-.023.002-.009a1.074 1.074 0 0 0 .009-.109l.003-.076v-.015l-.008-.009a15.3 15.3 0 0 1-.309-.367l-.004-.007-.004-.01a.04.04 0 0 1 .016-.042.039.039 0 0 1 .028-.006h.003l.004.002.015.002.046.01h.002l.142.03a5.093 5.093 0 0 0 .17.032l.018-.044a13.992 13.992 0 0 1 .078-.19l.036-.088.018-.046.005-.012.001-.003v.003l-.001.008Zm-.219.758Zm.07.313.3-.033.014.013-.028.027.028-.027.012.012.032.03.096.095.062.06-.049-.376.25-.21-.362-.157-.167-.403-.026.065-.021.051a17.475 17.475 0 0 0-.08.2.04.04 0 0 1-.029.032.048.048 0 0 1-.013.002h-.019a4.88 4.88 0 0 1-.192-.035l-.105-.023a15.051 15.051 0 0 0 .24.282l.01.011a.042.042 0 0 1 .016.027l.002.012a2.126 2.126 0 0 1-.013.226 1.278 1.278 0 0 1 .029.077l.013.042Z"/><path fill="#fff" d="M10.44 7.293c-.272.141-1.305 1.322-1.446 1.505-.144.31-.345.59-.592.825-.258.194-.399.459-.363.705 0 .318.172.529.31.744a.455.455 0 0 0 .31.176c.243.028.264.106.388.148.472.649 1.184 1.128 1.692 1.505.233.111.447.259.634.438.148.289.12.564.099.705l-.377 1.43c-.067.388.275.304.292.226.152-.2.381-.06.705-1.209l.451-.602s.173-.071.173-.089c.265-.317.064-.493-.088-.553l-.324-.12s-.38-.38-.399-.38c-.18-.526-1.068-1.643-1.272-1.798a1.49 1.49 0 0 0-.345-.296c-.209-.1-.276-.134-.402-.184-.106-.042-.032-.158.035-.211.705-.385 1.258-.808 1.932-1.238l.105-.07-.243-1.382-1.12-.395c-.06.04-.107.081-.156.12Z"/><path fill="currentColor" d="m10.59 7.122 1.167.411.253 1.438-.131.087c-.23.147-.446.293-.66.438a15.28 15.28 0 0 1-1.272.8.213.213 0 0 0-.064.085c-.005.015-.004.023-.002.028.001.003.005.01.022.017.101.04.166.07.288.129l.117.056h.003l.002.002c.137.087.21.15.352.301.056.044.151.145.264.277.115.135.252.307.387.49.265.357.531.764.628 1.035a.602.602 0 0 1 .063.056 9.288 9.288 0 0 1 .27.262l.044.044.009.009.315.117a.394.394 0 0 1 .227.206c.044.111.02.25-.115.414a.054.054 0 0 1-.007.01.084.084 0 0 1-.012.011.894.894 0 0 1-.148.074l-.016.006-.439.586c-.162.571-.301.83-.425.97a.824.824 0 0 1-.167.144l-.002.001a.47.47 0 0 0-.112.096.107.107 0 0 1-.032.042.2.2 0 0 1-.055.03.254.254 0 0 1-.142.012.189.189 0 0 1-.13-.101.383.383 0 0 1-.02-.239v-.002l.378-1.43c.02-.138.045-.396-.091-.668a2.365 2.365 0 0 0-.617-.424l-.004-.002-.004-.002a31.418 31.418 0 0 0-.191-.141c-.48-.352-1.083-.792-1.502-1.363a.468.468 0 0 1-.102-.053l-.04-.024a.56.56 0 0 0-.222-.064.5.5 0 0 1-.341-.193l-.002-.002v-.002a5.512 5.512 0 0 0-.056-.085c-.124-.185-.261-.392-.262-.68-.037-.267.116-.544.379-.743.242-.231.439-.506.58-.81l.002-.004.003-.004a17.2 17.2 0 0 1 1.13-1.241 3.84 3.84 0 0 1 .188-.174c.053-.045.1-.08.139-.1l.037-.031c.035-.03.074-.061.118-.09l.02-.012Zm1.715 6.005-.033.032-.016-.016-.043-.043a31.042 31.042 0 0 0-.268-.261 1.697 1.697 0 0 0-.053-.047h-.018l-.01-.031c-.088-.255-.351-.66-.621-1.026a9.44 9.44 0 0 0-.384-.485 2.204 2.204 0 0 0-.253-.265l-.003-.003-.003-.003a1.443 1.443 0 0 0-.334-.287l-.116-.055a3.587 3.587 0 0 0-.28-.126.125.125 0 0 1-.075-.07.13.13 0 0 1 .001-.089.305.305 0 0 1 .097-.13l.003-.003.004-.002c.46-.251.855-.518 1.262-.794.215-.145.433-.292.666-.442l.081-.053-.233-1.326-1.075-.378c-.031.021-.058.044-.086.067l-.047.038-.003.002-.004.002a.783.783 0 0 0-.126.092 3.76 3.76 0 0 0-.184.17 17.523 17.523 0 0 0-1.117 1.227 2.77 2.77 0 0 1-.6.834l-.002.002-.002.001c-.25.188-.377.438-.345.662v.007c0 .26.121.443.245.63l.057.087a.408.408 0 0 0 .277.157h.001a.652.652 0 0 1 .256.074l.048.029.024.014a.367.367 0 0 0 .07.033l.013.005.009.012c.41.564 1.005.999 1.489 1.353l.19.14c.236.112.453.262.642.443l.005.005.004.007c.155.302.125.589.103.733v.002l-.378 1.432c-.015.09-.005.146.011.18.017.03.041.046.07.053a.164.164 0 0 0 .088-.008.106.106 0 0 0 .03-.016l.005-.005.002-.008.006-.008a.526.526 0 0 1 .134-.119l.005-.003a.733.733 0 0 0 .15-.13c.11-.125.246-.37.408-.942l.002-.008.464-.62.012-.005h.002a2.351 2.351 0 0 0 .15-.07l.003-.005c.126-.15.132-.257.104-.327-.029-.074-.103-.126-.173-.154l-.334-.123-.007-.007.033-.033Z"/><path fill="#FFEC00" d="M11.377 14.562c0-.014.705-.141.705-.141l-.088.26-.694.212.077-.328v-.003Z"/><path fill="currentColor" d="M10.33 11.25a1.298 1.298 0 0 0-.74.698l-.07-.031a1.375 1.375 0 0 1 .783-.74l.027.072Zm1.756 3.173a1.55 1.55 0 0 0-.05.016l-.004.002h-.004a.817.817 0 0 0-.042.008l-.592.152a1.348 1.348 0 0 1-.032.009l-.02-.082.03-.008.077-.022.04-.01a2.76 2.76 0 0 1 .158-.042c.063-.014.12-.028.178-.048h.002l.003-.001.072-.017a1.312 1.312 0 0 1 .064-.014l.097-.025a1.4 1.4 0 0 1 .126-.032l.02.082-.123.032Zm-.05.327c-.052.014-.1.028-.15.048l-.002.001-.164.043a2.3 2.3 0 0 1-.167.05h-.002a.97.97 0 0 0-.114.037l-.066.026a2.137 2.137 0 0 1-.039.015.468.468 0 0 0-.077.062l-.06-.06a.557.557 0 0 1 .096-.076l.004-.003.004-.001.04-.015.069-.027c.044-.016.095-.034.125-.04a1.84 1.84 0 0 0 .161-.049h.002l.161-.042a1.25 1.25 0 0 1 .158-.05l.021.081ZM9.9 10.312l-.092.268-.004.006a.077.077 0 0 0-.016.037.122.122 0 0 1-.034.065.319.319 0 0 1-.041.05l-.003.003a.325.325 0 0 0-.035.04l-.004.006-.006.004-.025.017a.547.547 0 0 1-.068.043l-.125.099a.343.343 0 0 1-.05.037 6.865 6.865 0 0 1-.509.275 5.186 5.186 0 0 1-.101.048s-.005.002-.011.002h-.11l1.234-1Zm-.819.763a6.512 6.512 0 0 0 .274-.154.267.267 0 0 0 .038-.027l.002-.002.136-.107.003-.001c.022-.011.037-.022.055-.035l.027-.019c.012-.016.026-.03.038-.043l.003-.003a.232.232 0 0 0 .034-.04l.003-.006.004-.004c.009-.007.01-.013.014-.028l.001-.003a.153.153 0 0 1 .026-.06l-.658.532Zm-.968-.557.129-.12.056.054a.58.58 0 0 1-.047.05l-.006.006a.861.861 0 0 0-.04.04l-.002.003-.002.002a.341.341 0 0 1-.042.028l-.005.005-.001-.001a.117.117 0 0 1-.009.004h.001a.036.036 0 0 0 .006-.006l-.013-.014v.027h-.11l.06-.054.001-.004a.039.039 0 0 1 .01-.01c.002-.004.005-.005.006-.006l.004-.002h.001l.003-.002Zm2.401.345.077-.012a.155.155 0 0 1 0 .031l-.002.035v.003a.826.826 0 0 0-.005.071c0 .02-.006.047-.015.073a.622.622 0 0 1-.037.087.397.397 0 0 1-.129.155l-.04-.066a.323.323 0 0 0 .1-.124.547.547 0 0 0 .033-.077.183.183 0 0 0 .01-.048c0-.025.003-.053.005-.077v-.004a1.1 1.1 0 0 0 .004-.043v-.004Zm.987 1.152v-.02h.01l.007.001.012.004a.04.04 0 0 1 .02.053.051.051 0 0 1-.011.015l-.008.008a.376.376 0 0 0-.029.029.164.164 0 0 1-.036.044.416.416 0 0 1-.234.104c-.056.006-.112.01-.168.01h-.004l-.178-.04.612-.225.007.017Zm-.137.114-.127.046a.292.292 0 0 0 .124-.045l.003-.001Zm.713 1.39.459.35-.034.068a.258.258 0 0 1-.02-.007l-.004-.002-.01-.004a.075.075 0 0 0-.026-.004h-.008l-.007-.003a.676.676 0 0 0-.114-.04.46.46 0 0 1-.22-.131l-.005-.005-.003-.007a.129.129 0 0 0-.01-.019.144.144 0 0 1-.018-.033.154.154 0 0 1 .003-.113l.017-.05Zm.053.137a.169.169 0 0 0 .011.02l.013.021c.044.046.1.08.16.1l-.184-.14Zm-.632.483.003-.078h.05c.028 0 .056.003.081.006h.003a.626.626 0 0 0 .063.005c.03 0 .058.004.083.007a.502.502 0 0 0 .069.007h.005a.744.744 0 0 0 .08.006.653.653 0 0 1 .079.007l.015.001.07.005h.001l.067.005h.016l.015.002.116.01-.002.077a.605.605 0 0 1-.071-.004l-.016-.002h-.006l-.056-.005c-.025 0-.048-.003-.07-.005l-.068-.005h-.013l-.004-.001h-.004l-.506-.038Zm.24.912a.733.733 0 0 1 .143-.054l.025.073-.733.29-.043-.063a.513.513 0 0 1 .088-.076l.005-.004.006-.001.057-.023.04-.016a1.27 1.27 0 0 1 .117-.04c.048-.014.095-.031.142-.05l.003-.002.15-.035Z"/><path fill="currentColor" d="M8.397 9.725a.29.29 0 0 1-.062-.02l.029-.072c.03.013.04.014.046.016h.002a.207.207 0 0 1 .055.02c.017.007.031.01.047.015h.003a.292.292 0 0 1 .053.019h.004c.024.006.063.015.103.029a.345.345 0 0 1 .129.07l.037.034.02.018a.25.25 0 0 0 .054.038l.002.001.002.002c.048.032.1.06.154.08l.003.001a.494.494 0 0 0 .16.042h.275v.078h-.275a.546.546 0 0 1-.19-.049.806.806 0 0 1-.168-.087.328.328 0 0 1-.093-.07.749.749 0 0 0-.032-.029h-.002l-.001-.002a.27.27 0 0 0-.1-.054.804.804 0 0 0-.095-.025l-.008-.002-.005-.001-.004-.003a.208.208 0 0 0-.043-.014l-.003-.001a.42.42 0 0 1-.057-.019h-.001a.143.143 0 0 0-.039-.015Zm1.028 1.055.343.107h.001a3.949 3.949 0 0 1 .593.335.275.275 0 0 0 .045.028l.019.011a.4.4 0 0 1 .038.025c.01.007.02.017.029.028a.67.67 0 0 1 .088.095l.016.02.014.016c.028.034.06.07.077.108.192.267.35.557.472.862a.229.229 0 0 1 .031.047l.007.013c.007.014.013.026.022.04l.001.002.002.003a.184.184 0 0 0 .03.05.055.055 0 0 0 .009.014c.007.01.016.02.024.033l.04.034.014.011a.3.3 0 0 0 .055.04l.004.001.003.004c.02.016.04.028.06.04l.007.004c.017.01.035.02.053.033l.108.064a24.486 24.486 0 0 1 .492.308h.001a.452.452 0 0 1 .114.137c.033.064.05.15-.017.223l-.002.002-.002.002a.686.686 0 0 0-.044.043c-.006.004-.01.01-.016.015a.33.33 0 0 1-.06.05.357.357 0 0 1-.136.077l-.012.005h-.003a1.151 1.151 0 0 1-.369.051l-.024-.002h-.093l-2.034-2.98Zm.19.14 1.885 2.76h.029l.033.002.019.002a1.068 1.068 0 0 0 .341-.047l.008-.003a.277.277 0 0 0 .113-.064l.005-.005.006-.003a.232.232 0 0 0 .048-.04l.013-.013a.915.915 0 0 1 .05-.046c.033-.04.029-.085.003-.134a.384.384 0 0 0-.091-.11l-.002-.002a.208.208 0 0 1-.006-.004l-.02-.013a45.765 45.765 0 0 0-.459-.285 2.376 2.376 0 0 0-.105-.063l-.005-.002-.004-.003a.358.358 0 0 0-.046-.029l-.006-.004a.46.46 0 0 1-.068-.046.384.384 0 0 1-.066-.047l-.016-.014c-.015-.012-.027-.023-.039-.03l-.006-.005-.004-.007-.023-.032a.627.627 0 0 1-.08-.134.139.139 0 0 0-.022-.035l-.006-.006-.003-.007a3.945 3.945 0 0 0-.468-.856l-.002-.003-.002-.003a.454.454 0 0 0-.082-.111l-.018-.022a.565.565 0 0 0-.08-.086l-.004-.004-.003-.004a.065.065 0 0 0-.015-.014.337.337 0 0 0-.03-.02l-.015-.008a.497.497 0 0 1-.059-.038 3.373 3.373 0 0 0-.235-.149 2.395 2.395 0 0 0-.335-.172l-.128-.04Z"/><path fill="#FFE606" d="M8.335 10.339c.148-.01.398.035.405.035l.331-.007c.177-.014.212-.08.24-.13.067-.099.11-.134.162-.212.078-.056.19.081.194.081.282.268.056.593.042.603-.14.13-.172.138-.257.057-.085-.103-.11-.149-.18-.184-.137-.063-.416-.014-.423-.014l-.144.057c-.07.024-.113.084-.23.105-.123.007-.162-.003-.221-.102-.082-.123-.043-.275.08-.289Z"/><path fill="currentColor" d="M9.5 10.053a1.049 1.049 0 0 1-.068.088l-.005.007a1.34 1.34 0 0 0-.083.109l-.001.002a.25.25 0 0 1-.074.087.377.377 0 0 1-.195.06h-.001l-.333.007h-.006l-.004-.001-.01-.002h-.006l-.026-.005a3.466 3.466 0 0 0-.103-.014 1.435 1.435 0 0 0-.247-.014.097.097 0 0 0-.083.075.194.194 0 0 0 .03.155h.001c.03.048.049.067.07.076.023.01.054.012.115.008a.326.326 0 0 0 .116-.046l.02-.012c.025-.016.053-.034.084-.045l.15-.059h.012l.005-.002a1.28 1.28 0 0 1 .152-.015.644.644 0 0 1 .278.035h.001c.041.02.069.044.097.076l.05.06.044.056c.042.04.057.043.071.04a.137.137 0 0 0 .047-.026 1.039 1.039 0 0 0 .093-.084.508.508 0 0 0 .07-.173.375.375 0 0 0-.123-.363l-.005-.006-.001-.001-.013-.013a.38.38 0 0 0-.044-.037.144.144 0 0 0-.048-.024.038.038 0 0 0-.027.002Zm.182.628Zm-.837-.152Zm-.51-.19-.003-.039c.078-.006.18.004.263.014.041.005.078.01.105.015l.027.004h.005l.01.002.327-.007a.302.302 0 0 0 .155-.045c.026-.018.038-.04.052-.064l.002-.003v-.001c.035-.051.063-.086.09-.117 0-.002.003-.004.004-.006a.985.985 0 0 0 .069-.089l.004-.005.005-.004a.112.112 0 0 1 .094-.018.22.22 0 0 1 .076.037c.022.015.04.032.053.045l.014.014.007.006a.453.453 0 0 1 .143.434.586.586 0 0 1-.097.22c0 .002-.003.004-.005.006a1.101 1.101 0 0 1-.09.077.21.21 0 0 1-.077.04c-.058.012-.101-.022-.143-.062l-.002-.001-.001-.002a3.52 3.52 0 0 1-.05-.061l-.044-.055a.23.23 0 0 0-.073-.057.567.567 0 0 0-.241-.027 1.591 1.591 0 0 0-.145.014h-.005l-.005.002-.141.055c-.023.008-.04.02-.064.034l-.027.016a.404.404 0 0 1-.145.057h-.004a.335.335 0 0 1-.153-.014c-.044-.019-.074-.055-.105-.105a.271.271 0 0 1-.04-.217.173.173 0 0 1 .15-.132l.004.039Z"/><path fill="#FFEF00" d="M16.19 4.255c-.022 0-.223.098-.22.105.004.004-.168.476-.172.473-.003-.007-.123-.413-.137-.406-.01.007-.434.057-.437.06l.317-.405-.046-.44.346.133.37-.282a8.51 8.51 0 0 1-.096.38l.184.255s-.106.105-.11.127Z"/><path fill="currentColor" d="m16.149 3.588-.021.084-.035.132-.011.043-.005.017.038.01-.038-.01-.004.017.174.243a2.35 2.35 0 0 0-.07.077.271.271 0 0 0-.015.02l-.002.001a1.855 1.855 0 0 0-.213.106l-.008.009a.04.04 0 0 0-.007.018.84.84 0 0 1-.023.068 15.062 15.062 0 0 1-.107.293l-.032-.103a4.467 4.467 0 0 0-.065-.187.131.131 0 0 0-.008-.017.052.052 0 0 0-.01-.01.04.04 0 0 0-.041-.008 15.656 15.656 0 0 1-.212.029l-.049.006-.072.01.267-.343-.04-.393.306.119.303-.23Zm-.315 1.23c0 .001 0 0 0 0Zm.355-.564v.04l.005-.001a1.787 1.787 0 0 0-.189.09 13.592 13.592 0 0 1-.176.474c-.002 0-.005.005-.01.008a.039.039 0 0 1-.049-.005l-.004-.005-.003-.005a.036.036 0 0 1-.003-.007l-.001-.005-.005-.014-.011-.036-.004-.011-.043-.14a4.548 4.548 0 0 0-.056-.166 15.661 15.661 0 0 1-.245.032l-.099.013a4.153 4.153 0 0 0-.061.008h-.002.002l.003-.001s.007-.003.012-.009l-.058-.05.308-.394-.05-.488.384.149.355-.271.004-.002a.039.039 0 0 1 .053.02c.003.007.003.014.003.015v.009a8.237 8.237 0 0 1-.08.322c-.005.017-.01.031-.012.042l.192.265-.024.024-.004.004-.012.012a2.055 2.055 0 0 0-.082.093.027.027 0 0 0-.002.003l.002-.006-.038-.007Z"/><path fill="#fff" d="M12.072 9.091c.25.166 1.788.49 2.02.522.34-.026.682.012 1.008.112.293.127.593.12.793-.035.275-.148.374-.402.494-.634a.422.422 0 0 0 0-.353c-.092-.225-.035-.282-.056-.409.33-.733.401-1.586.479-2.217-.007-.37.032-.652.07-.765.137-.2.335-.35.564-.43l1.435-.374c.374-.133.13-.387.053-.366-.247-.035-.24-.303-1.4-.025l-.747-.095s-.14-.116-.158-.106c-.406-.074-.462.187-.441.346l.056.345s-.144.515-.137.529c-.37.416-.917 1.748-.952 2.006-.018.24-.106.194-.084.43 0 .183-.022.07.038.444.018.113-.123.106-.2.07-.677-.423-1.319-.701-2.027-1.075l-.11-.056-1.085.888.204 1.17c.064.036.12.053.18.078h.003Z"/><path fill="currentColor" d="M16.626 3.87h.01a.078.078 0 0 1 .018.005.778.778 0 0 1 .136.093l.013.01.726.093c.576-.138.87-.142 1.054-.104.093.02.155.05.209.076l.002.002c.05.024.087.043.136.05a.11.11 0 0 1 .053.009.252.252 0 0 1 .135.15.187.187 0 0 1-.025.164.389.389 0 0 1-.2.134h-.001l-1.435.374a1.082 1.082 0 0 0-.536.407c-.036.11-.073.382-.066.744v.006l-.026.21c-.07.598-.158 1.35-.452 2.008a.485.485 0 0 1 .002.113l-.002.048c0 .052.008.116.051.223a.469.469 0 0 1 0 .39v.001l-.001.001-.043.084c-.102.206-.214.43-.467.568-.217.166-.534.17-.834.04a2.669 2.669 0 0 0-.988-.11h-.01a16.032 16.032 0 0 1-1.008-.212 12.54 12.54 0 0 1-.63-.165 3.815 3.815 0 0 1-.243-.08.93.93 0 0 1-.147-.066l-.007-.002a1.061 1.061 0 0 1-.185-.08l-.018-.01-.213-1.219 1.13-.924.136.07c.23.121.454.233.674.343.455.227.897.447 1.353.732a.204.204 0 0 0 .106.016c.015-.003.022-.008.025-.011.002-.002.006-.009.003-.028a3.62 3.62 0 0 1-.042-.298.531.531 0 0 1 0-.06v-.001c.001-.02.003-.046.003-.09a.556.556 0 0 1 .002-.143.357.357 0 0 1 .03-.091l.005-.013a.466.466 0 0 0 .047-.188v-.003c.01-.07.053-.206.115-.373.062-.169.146-.374.24-.583.183-.41.41-.845.599-1.063l.003-.017.015-.063a11.502 11.502 0 0 1 .113-.42l.004-.012-.055-.336a.39.39 0 0 1 .07-.296c.075-.092.208-.14.416-.103Zm-.385.738.044.012-.006.022a16.484 16.484 0 0 1-.065.237 11.183 11.183 0 0 0-.063.249l.008.016-.02.023c-.18.202-.407.633-.595 1.05-.093.208-.176.41-.237.577-.062.167-.1.294-.11.353a.545.545 0 0 1-.054.218l-.006.012a.268.268 0 0 0-.023.07.472.472 0 0 0 0 .121v.004c0 .047-.002.075-.003.097-.001.02-.002.033 0 .051.001.039.01.1.04.289a.123.123 0 0 1-.022.1.13.13 0 0 1-.08.043.294.294 0 0 1-.163-.024h-.002l-.003-.002c-.453-.284-.89-.501-1.343-.727-.221-.11-.447-.223-.68-.347l-.083-.042-1.042.852.196 1.122a1.027 1.027 0 0 0 .148.062h.008l.012.007c.026.018.073.04.14.064.065.024.145.05.236.077a16.32 16.32 0 0 0 1.62.373 2.76 2.76 0 0 1 1.02.115h.002l.002.002c.284.123.564.112.747-.03l.003-.002.004-.002c.228-.122.326-.32.43-.528l.044-.086a.376.376 0 0 0 0-.313l-.001-.001V8.72a.656.656 0 0 1-.059-.259l.002-.057.002-.026c0-.025 0-.05-.005-.077l-.002-.014.006-.012c.292-.648.38-1.39.45-1.993l.025-.208c-.007-.37.032-.657.073-.777l.002-.006.003-.005c.143-.209.349-.366.587-.448h.002l1.434-.374c.088-.032.132-.068.153-.099a.096.096 0 0 0 .013-.085.16.16 0 0 0-.08-.092.034.034 0 0 0-.008-.002l-.008.002-.01-.001a.528.528 0 0 1-.173-.063.73.73 0 0 0-.187-.068c-.164-.034-.444-.034-1.022.105l-.008.002-.769-.098-.01-.008-.001-.001-.005-.004-.016-.013a1.852 1.852 0 0 0-.107-.077l-.009-.001c-.193-.036-.288.01-.336.07-.05.06-.06.15-.05.223l.057.355-.003.01-.044-.012Z"/><path fill="#FFEC00" d="M17.948 4.709a13.228 13.228 0 0 1-.468-.543l.267-.053.522.504-.32.092Z"/><path fill="currentColor" d="M15.573 7.246a1.297 1.297 0 0 0 .972.301l.008.077a1.375 1.375 0 0 1-1.03-.319l.05-.059Zm2.215-3.2c.035.037.074.07.115.101l.004.004.003.004a.56.56 0 0 0 .055.06l.013.014c.014.013.03.028.045.045.044.039.085.08.125.121l.001.002.002.002a1.718 1.718 0 0 0 .084.078l.018.015.036.03c.012.01.024.02.033.03a.92.92 0 0 0 .085.035h-.005v.084a.068.068 0 0 1-.016-.002.961.961 0 0 1-.108-.044l-.008-.004-.005-.006a3.324 3.324 0 0 0-.066-.057l-.018-.016a1.78 1.78 0 0 1-.055-.048 1.846 1.846 0 0 0-.16-.158l-.002-.001-.002-.002a1.24 1.24 0 0 0-.042-.043l-.015-.015a.785.785 0 0 1-.058-.063 1.107 1.107 0 0 1-.12-.107l.06-.06Zm.62.541Zm-1.08-.46.062-.056.092.096.032.028.003.003.002.002c.01.013.02.025.03.035l.167.174.047.048.233.241-.059.061a3.46 3.46 0 0 1-.235-.243l-.046-.048a2.413 2.413 0 0 0-.072-.069l-.002-.002-.001-.001-.053-.058a2.253 2.253 0 0 1-.042-.045l-.063-.066a1.366 1.366 0 0 1-.096-.1Zm.752-.067.051-.058.61.494-.033.068a.462.462 0 0 1-.108-.039l-.004-.002-.004-.003a1.576 1.576 0 0 0-.056-.044l-.027-.021a1.188 1.188 0 0 1-.095-.078 1.612 1.612 0 0 0-.114-.103l-.003-.003-.003-.003a.587.587 0 0 0-.048-.055l-.006-.006c-.014-.015-.03-.03-.047-.05a.96.96 0 0 1-.114-.097Zm-1.305-.02h.076l.002.015a.142.142 0 0 0 .013.046l.002.005.022.127a.426.426 0 0 1-.01.258l-.002.002-.001.002-.008.015-.003.006a.165.165 0 0 1-.021.033c-.021.025-.053.043-.104.05l-.052.009.086-.567Zm.043.231a.348.348 0 0 1-.007.183l-.013.023a.095.095 0 0 1-.013.022l-.001.002.034-.23Zm.284-.162.068-.037a.42.42 0 0 1 .032.065l.002.003.002.006.022.046c.012.023.021.044.03.064l.263.557-.062.044-.01-.01-.025-.042-.064-.138c-.014-.023-.023-.05-.031-.071v-.002a.394.394 0 0 0-.028-.062l-.001-.003-.001-.002a.914.914 0 0 0-.03-.06l-.005-.011a.662.662 0 0 1-.035-.076.93.93 0 0 1-.036-.077l-.002-.005a4.517 4.517 0 0 0-.004-.01l-.085-.179Zm-1.414 1.683-.091-.079.04.12v.003a.056.056 0 0 0 .005.016l.004.008v.002l.012-.005-.005.006.398.342.057-.05c.002.002.002.003.001 0a.106.106 0 0 1-.002-.01l-.003-.015a1.245 1.245 0 0 0-.1-.162.413.413 0 0 0-.202-.153.161.161 0 0 0-.06-.01c-.02-.003-.032-.007-.042-.01a.239.239 0 0 0-.01-.003h-.002Zm.245.21a.28.28 0 0 0-.098-.086l-.006-.004.104.09Zm-.674 1.216a.588.588 0 0 1 .13-.021.328.328 0 0 1 .157.024l.038-.067a.4.4 0 0 0-.197-.035.67.67 0 0 0-.094.01.276.276 0 0 0-.07.02l-.002.001a.65.65 0 0 1-.062.03l-.004.002a.717.717 0 0 0-.033.015.114.114 0 0 0-.028.02l.054.054.01-.004a.747.747 0 0 1 .033-.016.74.74 0 0 0 .068-.033Zm.104.805a.29.29 0 0 1 .063.01l.011.004a.452.452 0 0 0 .05.011h.005l.104.053c.027.013.05.022.075.031l.003.002a.77.77 0 0 1 .07.029.352.352 0 0 1 .056.024l.083.047a6.936 6.936 0 0 1 .406.26 5.452 5.452 0 0 1 .094.066s.004.004.006.01l.046.09-1.474-.581.283-.05.006.001c.013.002.023 0 .04-.004l.002-.001a.13.13 0 0 1 .071-.002Zm-.117.085.786.31a6.477 6.477 0 0 0-.268-.162.265.265 0 0 0-.043-.02h-.004l-.004-.002a.497.497 0 0 0-.067-.028l-.002-.001a.82.82 0 0 1-.082-.035l-.094-.046a.493.493 0 0 1-.052-.013l-.01-.002a.2.2 0 0 0-.049-.009h-.006l-.006-.002c-.01-.003-.018-.002-.033.002l-.004.001a.168.168 0 0 1-.062.007Zm.607 1.372.022-.074.126.036.003.001.031.015.025.009-.002.004.002.001.004.003a.03.03 0 0 0-.006-.002l-.007.02.028-.014.001.002.003.005.041.083-.064-.02a.042.042 0 0 1-.028-.004.077.077 0 0 1-.012-.006l-.015-.009-.152-.05Z"/><path fill="currentColor" d="M16.431 4.761v.01l-.002.023-.004.079a25.908 25.908 0 0 0-.022.57v.012l.001.009-.002.007a.217.217 0 0 0-.004.054v.001c0 .023 0 .05-.005.083a.498.498 0 0 1-.01.08l-.003.017a.468.468 0 0 0-.008.051v.007l-.004.007c-.005.008-.008.017-.012.027-.013.028-.026.058-.054.09a.659.659 0 0 1-.031.054.183.183 0 0 0-.02.041l-.003.007-.005.006c-.024.03-.046.061-.068.093l-.002.003-.003.003-.006.007a4.46 4.46 0 0 0-.362.55l-.05.097a.285.285 0 0 0-.022.062l-.001.006-.003.005a.977.977 0 0 0-.052.118l-.006.016a.885.885 0 0 0-.044.135l-.001.004-.002.003a.192.192 0 0 0-.01.063v.02a3.482 3.482 0 0 0-.004.717l.029.135 1.482-2.997-.015-.024a.575.575 0 0 1-.024-.048 1.117 1.117 0 0 0-.207-.274l-.023-.017a.573.573 0 0 0-.093-.056l-.005-.002-.005-.003a.253.253 0 0 0-.062-.024l-.028-.008-.055-.016a.089.089 0 0 0-.066.009.155.155 0 0 0-.052.052.399.399 0 0 0-.052.136Zm.066-.256a.167.167 0 0 1 .124-.016h.001l.002.001.05.015.031.008a.344.344 0 0 1 .078.031.285.285 0 0 1 .075.04.811.811 0 0 1 .038.028l.024.017.002.002.002.002a1.19 1.19 0 0 1 .234.316l.012.024.035.06-1.598 3.234-.077-.357v-.003a3.554 3.554 0 0 1 0-.67v-.002a.374.374 0 0 0 .003-.052l.001-.026a.273.273 0 0 1 .015-.086c.011-.051.03-.098.046-.142v-.002l.007-.016c.017-.044.034-.085.053-.12a.388.388 0 0 1 .027-.074 1.29 1.29 0 0 1 .053-.103c.042-.074.095-.16.148-.242a8.005 8.005 0 0 1 .296-.419.275.275 0 0 1 .025-.051l.007-.012a.402.402 0 0 0 .024-.041l.002-.005.004-.004a.205.205 0 0 0 .04-.065l.014-.032a.81.81 0 0 1 .01-.053l.002-.015a.427.427 0 0 0 .009-.07V5.6a.407.407 0 0 0 .005-.074v-.002c0-.02 0-.043.005-.065v-.042l.001-.085a19.158 19.158 0 0 1 .028-.58V4.75a.478.478 0 0 1 .063-.167.23.23 0 0 1 .08-.078Zm-1.6 4.063.067-.039.07.12h-.001l.002.005.071.142a.447.447 0 0 1 .033.1.666.666 0 0 0 .015.053l.002.007v.007c-.002.026-.001.048 0 .071v.012c0 .027 0 .057-.004.093a.777.777 0 0 1-.018.153l-.004.022c-.006.036-.009.056.002.085l.004.011-.003.012v.01l.006.026a.946.946 0 0 1 .02.07v.001l.007.04c.007.034.014.074.017.107l.01.026.006.017.001.004.002.008a.039.039 0 0 1-.067.03.03.03 0 0 1-.003-.004l-.007-.01-.004-.007.003-.002-.003-.008-.012-.033-.002-.005v-.005c-.003-.03-.01-.063-.016-.096a.716.716 0 0 0-.027-.113.265.265 0 0 1-.007-.036.128.128 0 0 1-.001-.026.234.234 0 0 1-.001-.119.755.755 0 0 0 .002-.017v-.001a.698.698 0 0 0 .018-.142v-.003a.711.711 0 0 0 .003-.098v-.07l-.015-.053a.373.373 0 0 0-.027-.083l-.07-.14-.07-.122Zm.29 1.136a.039.039 0 0 0-.035-.007.039.039 0 0 0-.027.04v.001l.063-.034Z"/><path fill="#FFE606" d="M15.755 9.433c-.081-.127-.166-.367-.17-.37l-.165-.29c-.099-.14-.176-.14-.233-.14-.12-.01-.172-.036-.26-.04-.092-.041-.025-.207-.029-.21.095-.374.494-.339.508-.332.18.06.2.085.173.197-.046.124-.07.17-.07.247.01.148.193.37.193.374l.12.098c.056.05.13.057.204.152.067.102.078.141.021.24-.07.134-.218.172-.292.074Z"/><path fill="currentColor" d="m14.938 8.388-.001.004-.002.009-.002.007-.003.013a.376.376 0 0 0-.011.057.14.14 0 0 0 .003.054.038.038 0 0 0 .016.024c.043.002.079.01.115.017h.001c.039.008.08.016.136.021a.26.26 0 0 1 .115.021.379.379 0 0 1 .147.137l.001.001.166.29.001.001.002.003.002.004.003.01.007.017.005.012c.01.025.023.06.039.097.031.075.071.164.11.224a.097.097 0 0 0 .105.035.2.2 0 0 0 .12-.105h.001V9.34c.027-.048.034-.073.031-.095a.258.258 0 0 0-.05-.103.308.308 0 0 0-.096-.082l-.023-.012a.418.418 0 0 1-.079-.05l-.133-.11V8.88l-.002-.002a2.515 2.515 0 0 1-.085-.122 1.03 1.03 0 0 1-.069-.125.412.412 0 0 1-.038-.134v-.003c0-.07.02-.12.05-.2l.022-.058c.014-.055.01-.07 0-.081a.136.136 0 0 0-.045-.03 1.018 1.018 0 0 0-.102-.038h-.001l-.012-.001a.524.524 0 0 0-.187.024.376.376 0 0 0-.257.277Zm.817 1.045-.032.02a1.675 1.675 0 0 1-.117-.236 4.373 4.373 0 0 1-.044-.11l-.007-.018-.003-.008-.164-.286a.302.302 0 0 0-.116-.11.186.186 0 0 0-.084-.013h-.003a1.212 1.212 0 0 1-.145-.023h-.002a.668.668 0 0 0-.112-.016h-.008l-.007-.004a.117.117 0 0 1-.063-.074.22.22 0 0 1-.007-.085.466.466 0 0 1 .013-.069l.002-.006.005-.022a.453.453 0 0 1 .31-.336.601.601 0 0 1 .242-.024l.007.002c.044.015.081.028.11.041a.208.208 0 0 1 .07.049c.039.044.03.097.017.153v.002l-.001.002-.025.066a.419.419 0 0 0-.043.166c.002.03.013.067.03.106.019.04.041.08.064.116a1.677 1.677 0 0 0 .082.116l.002.003.006.008.116.095c.017.016.035.025.058.038l.031.017a.37.37 0 0 1 .12.102l.002.002v.001a.33.33 0 0 1 .063.138c.006.047-.01.09-.04.142a.276.276 0 0 1-.17.143.174.174 0 0 1-.188-.065l.031-.023Z"/><path fill="#FFEF00" d="M6.439 5.947c.017.014.204.13.211.123.007-.007.494-.12.486-.112-.007.007-.274.327-.26.334.014.007.282.332.289.335l-.511-.042-.346.275-.077-.36-.434-.155c-.007-.003.37-.127.37-.127l.113-.292s.144.024.166.02h-.007Z"/><path fill="currentColor" d="m6.255 5.882.033.005.004.001a4.034 4.034 0 0 0 .14.02h.013l.003.027.014-.019a.117.117 0 0 0 .012.008 1.565 1.565 0 0 0 .094.059 1.781 1.781 0 0 0 .081.046.777.777 0 0 1 .071-.018 13.637 13.637 0 0 1 .415-.093.044.044 0 0 1 .016.003.039.039 0 0 1 .013.063l-.002.003a1.644 1.644 0 0 0-.042.05 10.493 10.493 0 0 0-.197.248l.032.036.097.115.036.042a31.373 31.373 0 0 0 .102.12.033.033 0 0 0-.008-.006l-.02.074-.497-.042-.382.305-.086-.4-.416-.148-.002-.001a.039.039 0 0 1-.003-.068 10.253 10.253 0 0 1 .362-.125l.117-.305Zm-.088.336.012.037-.016.005a84.278 84.278 0 0 0-.253.084l.354.127.069.32.308-.246.432.035-.045-.052a62.957 62.957 0 0 0-.175-.204.04.04 0 0 1-.017-.038.05.05 0 0 1 .004-.014.706.706 0 0 1 .038-.057 4.12 4.12 0 0 1 .158-.198 15.052 15.052 0 0 0-.368.087h-.001a.04.04 0 0 1-.02.005.048.048 0 0 1-.01-.002 1.857 1.857 0 0 1-.21-.122.526.526 0 0 1-.078-.01 3.7 3.7 0 0 1-.045-.006l-.108.28-.017.006-.012-.037Zm.94-.286.002-.002-.002.002Zm-.214.325Zm-.27-.214Z"/><path fill="#fff" d="M12.74 6.743c0-.307-.57-1.77-.669-1.978a2.72 2.72 0 0 1-.458-.905c-.053-.318-.222-.564-.458-.65-.279-.144-.547-.087-.804-.063a.441.441 0 0 0-.296.194c-.141.201-.215.184-.314.272-.793.123-1.544.532-2.115.81a2.397 2.397 0 0 1-.68.36 1.128 1.128 0 0 1-.67-.233L5.18 3.553c-.318-.236-.395.106-.335.158.106.226-.124.364.747 1.185l.328.677s-.018.183 0 .19c.155.38.409.286.529.18l.257-.236s.511-.163.518-.177c.55.081 1.967-.186 2.2-.3.211-.116.222-.017.405-.165.152-.102.07-.021.353-.278.084-.07.151.045.169.13.014.8.134 1.488.208 2.284l.014.124 1.34.423.867-.811-.036-.198-.003.004Z"/><path fill="currentColor" d="M11.174 3.17c.255.092.43.355.485.68.092.321.245.623.45.888l.002.004.002.004a16.274 16.274 0 0 1 .582 1.576c.027.091.05.176.067.247.011.051.02.097.023.135l.045.25-.905.846-1.393-.44-.018-.154c-.024-.26-.053-.51-.082-.757-.06-.502-.116-.99-.126-1.526a.222.222 0 0 0-.047-.097c-.01-.011-.018-.014-.023-.015-.003 0-.01 0-.023.01-.14.128-.192.174-.229.2a.56.56 0 0 1-.047.031l-.004.002a1.47 1.47 0 0 0-.076.048.55.55 0 0 1-.12.077.35.35 0 0 1-.106.029c-.046.007-.095.014-.184.063h-.001l-.001.001a2.17 2.17 0 0 1-.375.11c-.175.04-.392.081-.619.117-.444.07-.932.117-1.217.08a10.104 10.104 0 0 1-.491.165l-.013.004-.25.23a.387.387 0 0 1-.286.103c-.12-.013-.231-.098-.312-.293a.076.076 0 0 1-.01-.026.801.801 0 0 1 .002-.165v-.015l-.319-.658c-.432-.409-.597-.653-.665-.827a.811.811 0 0 1-.05-.215l-.001-.003c-.007-.054-.012-.096-.032-.141a.11.11 0 0 1-.022-.048.253.253 0 0 1 .051-.195.188.188 0 0 1 .15-.07c.065 0 .138.03.222.092h.002l1.096.999c.183.139.404.217.633.222.238-.081.46-.2.66-.35l.004-.003.004-.002.21-.104c.535-.265 1.203-.597 1.905-.709a.512.512 0 0 1 .093-.063.575.575 0 0 0 .202-.19.488.488 0 0 1 .326-.214h.004l.1-.011c.225-.026.473-.054.727.077ZM6.707 5.706l-.014-.044.022-.007a36.063 36.063 0 0 0 .411-.135 1.77 1.77 0 0 0 .065-.024l.008-.016.033.004c.267.04.752-.006 1.205-.077.225-.035.44-.076.613-.116.174-.04.3-.076.354-.102a.565.565 0 0 1 .227-.075.26.26 0 0 0 .07-.02.465.465 0 0 0 .1-.065l.002-.001.001-.001a1.58 1.58 0 0 1 .082-.052l.004-.002c.016-.01.026-.016.04-.027.032-.022.08-.064.222-.194l.001-.001a.123.123 0 0 1 .095-.032.131.131 0 0 1 .077.042c.038.04.062.099.072.146v.01c.01.533.066 1.015.125 1.515.03.248.059.5.083.765l.011.093 1.286.406.829-.775-.015-.087-.02.02v-.11a.785.785 0 0 0-.024-.155 3.82 3.82 0 0 0-.065-.242 16.525 16.525 0 0 0-.575-1.558 2.767 2.767 0 0 1-.462-.916l-.001-.003v-.003c-.052-.307-.214-.535-.429-.613h-.003l-.003-.002c-.228-.119-.447-.094-.674-.07a7.423 7.423 0 0 1-.102.011.395.395 0 0 0-.263.173l-.002.002a.667.667 0 0 1-.185.19l-.05.03a.408.408 0 0 0-.086.06l-.01.008-.013.002c-.692.108-1.351.435-1.89.703l-.208.102a2.44 2.44 0 0 1-.69.364l-.007.002h-.008a1.174 1.174 0 0 1-.697-.242l-.002-.001-1.096-.997c-.074-.055-.128-.072-.165-.072a.096.096 0 0 0-.079.036.161.161 0 0 0-.032.118.033.033 0 0 0 .002.008l.006.005.004.008a.513.513 0 0 1 .042.172l.001.007a.721.721 0 0 0 .045.193c.061.156.216.39.65.799l.006.006.337.696-.002.013v.007a1.941 1.941 0 0 0-.006.153l.003.008c.074.181.165.236.24.244.08.009.161-.033.216-.08l.264-.244.01-.003.014.044Z"/><path fill="#FFEC00" d="M5.856 4.223c.011.01-.197.69-.197.69l-.19-.193.134-.716.253.219Z"/><path fill="currentColor" d="M9.252 4.343a1.175 1.175 0 0 0-.248-.496l.058-.052c.132.147.218.34.265.529.047.188.057.375.033.512l-.076-.013c.021-.124.013-.3-.032-.48Zm-3.753-.441.08-.027c.005.014.02.077.023.119v.011a1.342 1.342 0 0 0-.007.06l-.007.055a.833.833 0 0 1-.022.132 1.876 1.876 0 0 0-.031.164v.002l-.035.16a1.12 1.12 0 0 1-.03.167l-.081-.021c.013-.051.022-.103.027-.156v-.002l.035-.163c.009-.058.02-.115.033-.172v-.004a.757.757 0 0 0 .02-.117l.006-.05.007-.063a.63.63 0 0 0-.018-.094v-.001Zm.155 1.028-.026.112.082.022c.012-.04.02-.079.027-.117l.048-.208.01-.038V4.7l.007-.034.032-.137.003-.012a17.277 17.277 0 0 0 .058-.248l.013-.06-.082-.02-.074.32a2.4 2.4 0 0 0-.033.139l-.016.07-.04.15v.002l-.009.06Zm5.225-1.704a.48.48 0 0 0 .005.032v.003l.002.003c.008.02.011.036.016.055a.38.38 0 0 0 .02.065l.073-.025-.04-.149a.383.383 0 0 1-.003-.027v-.005a.042.042 0 0 0-.012-.022l-.028-.104-.044.133.018.007-.01.003-.001-.003s0-.001 0 0v.003l-.004.001.008.03Zm-.944.207.077-.008.296 1.416-.082-.062a.74.74 0 0 1-.106-.113l-.002-.003-.002-.002a.087.087 0 0 0-.022-.025l-.007-.006a.123.123 0 0 1-.04-.06.23.23 0 0 1-.03-.069.316.316 0 0 0-.018-.046l-.003-.006V4.44a.5.5 0 0 0-.007-.038l-.002-.012a.813.813 0 0 0-.02-.138l-.001-.01a.956.956 0 0 1-.022-.125 7.333 7.333 0 0 1-.01-.345 17.297 17.297 0 0 1 0-.31l.001-.022v-.008Zm.076.367a6.977 6.977 0 0 0 .01.31.272.272 0 0 0 .007.047l.002.004v.004l.011.062.003.01a.866.866 0 0 1 .014.09v.005c0 .014.003.029.006.046l.001.01a.73.73 0 0 1 .007.039.558.558 0 0 1 .019.051l.003.01a.15.15 0 0 0 .02.042l.005.007.002.008c.003.012.008.018.018.027l.004.004c.01.009.027.023.04.044l-.172-.82Zm-4.76-.206.059.058a.064.064 0 0 1 .01.016.438.438 0 0 1 .029.114v.011c-.003.011-.005.037-.008.07a.823.823 0 0 1-.02.154l-.026.153v.002l-.013.06-.003.014a.782.782 0 0 1-.018.075.963.963 0 0 1-.018.149l-.077-.012.086-.864Zm-.001.107Zm.673 1.387-.032.052a.666.666 0 0 0-.004.007l-.071.115-.066-.041.075-.12a.784.784 0 0 1 .032-.054l.323-.52.067.037-.004.009-.02.034a.505.505 0 0 1-.052.088.627.627 0 0 0-.026.042c-.012.026-.029.049-.043.068v.001a.334.334 0 0 0-.037.057l-.001.002-.086.143-.037.054a2.25 2.25 0 0 0-.018.026Zm3.509.01A.573.573 0 0 1 9.34 5a.304.304 0 0 1-.064-.144l-.078.002c.003.064.04.133.079.187a.65.65 0 0 0 .06.074c.02.02.04.037.057.047h.002c.018.01.039.024.06.038l.001.001a.91.91 0 0 0 .028.02.14.14 0 0 0 .029.014l.025-.073-.003-.002a.147.147 0 0 1-.01-.005l-.025-.018H9.5c-.02-.014-.044-.031-.068-.043Zm-1.386-.091c-.026.05-.05.1-.07.152a.377.377 0 0 0-.028.175.41.41 0 0 0 .012.08c.005.02.013.04.024.056.01.022.013.036.015.043A.06.06 0 0 0 8 5.52l.003.01a.04.04 0 0 0 .067.006c.004-.004.006-.01.007-.011v-.003h.002l.004-.01H8.08l.067-.519-.071-.026m-.034.23a.308.308 0 0 0-.018.14l.018-.14Zm-1.717.041c.033.004.064.02.099.06l.035.039-.524.24-.043-.063a.335.335 0 0 1 .02-.018c.009-.008.014-.012.024-.028l.003-.005.005-.004a.696.696 0 0 0 .087-.084.462.462 0 0 1 .22-.135l.007-.002h.03c.01 0 .023-.002.038 0Zm-.06.079a.384.384 0 0 0-.167.1l.22-.101h-.003a.109.109 0 0 0-.024 0h-.026Z"/><path fill="currentColor" d="m11.612 3.83-.002.003-.002-.001-.003.003-.001.001-.006.008a1.089 1.089 0 0 1-.022.027l-.002.003-.003.002a.99.99 0 0 0-.105.101l-.002.003-.002.002c-.013.01-.025.023-.039.037a.21.21 0 0 1-.093.083l-.588.572-.062-.046.063-.123c.02-.04.042-.075.062-.107l.021-.033a.388.388 0 0 1 .07-.089.826.826 0 0 0 .032-.036l.004-.005.006-.003a.935.935 0 0 0 .051-.033l.019-.013a.602.602 0 0 1 .08-.046.745.745 0 0 1 .151-.076.5.5 0 0 0 .042-.022l.265-.258.002-.002a.101.101 0 0 1 .006-.006l.008-.006a.039.039 0 0 1 .056.044l-.001.004-.005.012Zm-.007.004-.006-.005.008.003a.025.025 0 0 1-.002.002Zm-.51.39a.613.613 0 0 0-.044.026l-.017.012-.05.033-.033.036a.307.307 0 0 0-.058.073v.001a1.88 1.88 0 0 1-.024.037l.225-.219Zm-.978.01-.258.258h-.001a3.363 3.363 0 0 1-.564.368c-.012.006-.024.015-.04.024a1.24 1.24 0 0 1-.026.018.22.22 0 0 1-.082.036.605.605 0 0 1-.115.032l-.028.006H9c-.336.062-.679.08-1.02.054-.039 0-.078-.003-.116-.007a.37.37 0 0 1-.055.005h-.013a.76.76 0 0 0-.047.002h-.006a.298.298 0 0 0-.061.002l-.016.003-.039.005a.64.64 0 0 1-.063.028.415.415 0 0 0-.065.033l-.003.002-.004.002a.379.379 0 0 0-.07.038.495.495 0 0 1-.05.03 16.917 16.917 0 0 1-.61.361H6.76a.482.482 0 0 1-.171.039.231.231 0 0 1-.11-.023.167.167 0 0 1-.081-.094v-.002l-.001-.002-.015-.053-.008-.03a.504.504 0 0 1-.017-.077.263.263 0 0 1-.01-.086l.001-.038v-.003l.002-.036V5.12a1.181 1.181 0 0 1 .139-.367l.013-.023.036-.06 3.578-.436Zm-3.53.508-.015.025-.018.03a2.143 2.143 0 0 0-.045.083 1.1 1.1 0 0 0-.08.253l-.002.036v.003a.93.93 0 0 0-.002.035c0 .025.002.046.008.064l.002.005v.005c.002.017.007.04.014.067l.008.028.015.055a.09.09 0 0 0 .044.05c.02.01.045.015.073.014.056 0 .114-.02.14-.031a18.268 18.268 0 0 0 .595-.352l.002-.001.004-.004.006-.003c.014-.006.027-.015.044-.026l.01-.005a.464.464 0 0 1 .07-.039.508.508 0 0 1 .075-.037l.01-.004.051-.024.008-.005h.01a.502.502 0 0 0 .058-.008.376.376 0 0 1 .074-.003c.019-.002.036-.002.05-.002h.012a.272.272 0 0 0 .047-.005h.012c.039.004.078.006.117.007h.002a3.959 3.959 0 0 0 1.034-.06.451.451 0 0 0 .1-.028l.006-.003h.007a.169.169 0 0 0 .054-.025c.006-.004.012-.009.02-.013a.54.54 0 0 1 .052-.033c.194-.1.378-.22.549-.357l.095-.096-3.317.404Zm4.162-.026a.05.05 0 0 0 .01.015l.008.007.003.01a.63.63 0 0 0 .024.067l.005.014.023.057.049.126.058.136v.006a.187.187 0 0 0 .015.053l.018.04.01.02.002.005.001.005a.44.44 0 0 0 .036.11v.003l.002.002.012.038v.001l.015.043c.01.03.019.064.023.095l.035.143.042.179a.4.4 0 0 1 .02.128c.008.055.013.11.013.166a.773.773 0 0 1 .021.181c0 .032.003.064.005.097v.002c.003.031.006.064.006.096.008.054.01.109.012.161l.002.051v.002c0 .066-.011.135-.021.197a.917.917 0 0 1-.01.1v.003a.849.849 0 0 0-.008.098v.006l-.003.011-.01.028v.002l.005.002a.309.309 0 0 1-.018.031c-.002.001-.007.007-.016.01a.039.039 0 0 1-.042-.013.045.045 0 0 1-.008-.021v-.012l.006-.021.009-.029c0-.033.005-.069.009-.102a.846.846 0 0 0 .008-.096v-.006a1.14 1.14 0 0 0 .021-.187l-.002-.054a1.345 1.345 0 0 0-.011-.153v-.005c0-.03-.003-.061-.006-.094a1.187 1.187 0 0 1-.005-.104c0-.06-.007-.11-.02-.167l-.002-.005V6.19a.999.999 0 0 0-.013-.163v-.01a.291.291 0 0 0-.017-.105v-.001l-.042-.18V5.73l-.036-.146V5.58a.498.498 0 0 0-.035-.125v-.001a1.585 1.585 0 0 1-.013-.037.52.52 0 0 1-.04-.122 1.034 1.034 0 0 0-.006-.014l-.02-.046a.279.279 0 0 1-.02-.069l-.054-.126-.05-.128-.021-.054-.006-.015a.76.76 0 0 1-.024-.066c-.015-.018-.023-.038-.027-.047l-.002-.004.07-.035.006.014.004.01Zm.415 2.502a.038.038 0 0 0-.028-.03.039.039 0 0 0-.024.001l.052.029Z"/><path fill="#FFE606" d="M11.011 3.472a2.07 2.07 0 0 1-.219.342l-.148.296c-.063.163-.024.23.004.275.06.106.07.163.113.24.017.099-.159.134-.159.138-.367.126-.553-.226-.553-.244-.05-.183-.043-.211.07-.25.127-.032.176-.035.24-.078.123-.091.208-.363.211-.366l.014-.155c.011-.07-.02-.141.014-.254.05-.113.078-.141.19-.152.149-.01.265.092.223.208Z"/><path fill="currentColor" d="M10.79 3.302c-.053.005-.079.014-.097.029a.266.266 0 0 0-.06.098.347.347 0 0 0-.013.127.482.482 0 0 1 .002.118l-.016.168-.004.004c0 .001 0 .003-.002.004v.003l-.012.03c-.01.029-.025.067-.044.108a.627.627 0 0 1-.163.23l-.001.001v.001a.493.493 0 0 1-.183.066l-.068.016c-.057.02-.066.032-.07.045a.13.13 0 0 0 .001.052c.004.026.012.06.025.106v.003a.506.506 0 0 0 .125.153.374.374 0 0 0 .391.057.811.811 0 0 0 .068-.027.136.136 0 0 0 .043-.032.037.037 0 0 0 .01-.026c-.018-.033-.03-.063-.043-.094l-.005-.012a1.079 1.079 0 0 0-.06-.126.258.258 0 0 1-.042-.108.412.412 0 0 1 .035-.2v-.002l.151-.301.003-.003a2.04 2.04 0 0 0 .213-.334c.014-.04.002-.078-.03-.107a.206.206 0 0 0-.153-.047Zm.22.17.036.013a.175.175 0 0 0-.05-.194.283.283 0 0 0-.211-.066h-.001c-.058.006-.103.016-.14.046a.33.33 0 0 0-.082.129l-.001.002v.002a.422.422 0 0 0-.019.156l.002.034a.3.3 0 0 1 0 .07l-.013.15-.003.01-.001.002a1.48 1.48 0 0 1-.054.132.56.56 0 0 1-.138.201.395.395 0 0 1-.147.053 4.59 4.59 0 0 0-.08.019h-.003c-.055.02-.105.041-.12.098a.202.202 0 0 0-.002.085 1.14 1.14 0 0 0 .028.119l.003.007.008.017a.583.583 0 0 0 .14.167c.1.082.253.143.451.074l.015-.004a.657.657 0 0 0 .076-.03.213.213 0 0 0 .068-.053.114.114 0 0 0 .026-.094l-.002-.006-.002-.005a.85.85 0 0 1-.043-.093l-.006-.013a1.163 1.163 0 0 0-.065-.135.182.182 0 0 1-.031-.079.334.334 0 0 1 .03-.16l.145-.292c.085-.107.158-.223.22-.345l-.034-.017Z"/><path fill="#FFEF00" d="M10.53 7.04c-.056-.054 1.037.394 1.188.398.205-.074 1.054-.79 1.054-.79.007.07.04.25.12.289-.328.264-.624.522-.951.786.02.423-.053.87.158 1.34 0 0-.254.007-.254 0-.225-.226-.306-1.312-.306-1.312l-1.079-.48c.053-.034.092-.137.07-.235v.003Z"/><path fill="currentColor" d="m12.805 6.571.007.073a.76.76 0 0 0 .03.149c.01.027.02.053.032.072.013.02.025.032.036.037l.056.027-.048.039c-.164.131-.32.262-.476.392-.15.127-.302.253-.46.381.004.1.003.202.002.303v.002c0 .108-.001.218.004.328.01.22.044.445.148.673l.023.053-.058.002v-.04.04h-.01a13.089 13.089 0 0 1-.236.002l-.013-.002a.048.048 0 0 1-.01-.002.04.04 0 0 1-.015-.011c-.063-.065-.112-.183-.151-.315a3.78 3.78 0 0 1-.096-.445 7.48 7.48 0 0 1-.067-.551l-1.122-.499.059-.039a.142.142 0 0 0 .047-.074.24.24 0 0 0 .009-.11.04.04 0 0 1 .028-.059h.013c.01 0 .022.004.034.007a12.322 12.322 0 0 1 .384.138l.106.04c.143.052.291.107.413.148.062.02.116.038.16.05a.57.57 0 0 0 .08.019.665.665 0 0 0 .089-.05c.042-.025.091-.059.145-.097.107-.077.232-.173.351-.267a20.552 20.552 0 0 0 .413-.336l.027-.022.01-.008.024.03-.025-.03.057-.048Zm-.06.151a17.661 17.661 0 0 1-.752.593 2.875 2.875 0 0 1-.15.1.655.655 0 0 1-.11.06l-.007.002h-.008a.503.503 0 0 1-.106-.022 2.84 2.84 0 0 1-.162-.052 16.454 16.454 0 0 1-.416-.149l-.106-.04a24.124 24.124 0 0 0-.352-.127.32.32 0 0 1-.015.103.264.264 0 0 1-.034.07l1.05.466.001.023-.038.003.038-.003v.003l.001.009a3.596 3.596 0 0 0 .015.16c.011.105.029.247.053.395.024.15.055.305.093.436a.79.79 0 0 0 .125.275h.021a3.34 3.34 0 0 0 .156-.001 1.912 1.912 0 0 1-.131-.648 6.209 6.209 0 0 1-.004-.333c0-.109.001-.215-.004-.32l-.001-.02.015-.012c.164-.132.32-.262.476-.392.144-.12.288-.241.438-.364a.225.225 0 0 1-.023-.03.413.413 0 0 1-.04-.09.796.796 0 0 1-.023-.095Zm-2.178.306a.038.038 0 0 0-.004-.01.03.03 0 0 0-.005-.007l-.019.02.028-.003Z"/><path fill="currentColor" d="M12.459 7.72a2.816 2.816 0 0 1-.232-.167l.049-.06c.072.057.148.112.226.163a4.572 4.572 0 0 0 1.816.741l.013.003.024.004a.348.348 0 0 1 .016.003.552.552 0 0 1 .094.011l.045.007a.457.457 0 0 1 .082.01l.052.008h.002c.042.006.12.02.176.034a.043.043 0 0 1 .01-.004.058.058 0 0 1 .006-.002l.002.01a.663.663 0 0 1 .016.005l-.009.032.006.03.002-.001.003-.001a.035.035 0 0 0 .014-.01.04.04 0 0 0 .007-.019.038.038 0 0 0-.014-.036l-.002-.001-.003-.001h.003l.004.003.005.003a.042.042 0 0 1 .018.024.042.042 0 0 1-.003.027.043.043 0 0 1-.022.021.07.07 0 0 1-.007.003l-.011.004-.012-.003a2.08 2.08 0 0 0-.198-.041c-.02-.002-.04-.006-.059-.009l-.01-.002a.369.369 0 0 0-.06-.007h-.006l-.05-.007a3.524 3.524 0 0 0-.086-.01h-.006l-.006-.002-.013-.003c-.006 0-.014-.002-.023-.004l-.014-.002a4.627 4.627 0 0 1-1.845-.754Zm-.863.463.003-.002a.04.04 0 0 0 .012-.028.039.039 0 0 0-.043-.04l-.01.003a4.602 4.602 0 0 0-.178.09 1.16 1.16 0 0 0-.08.04h-.001a4.638 4.638 0 0 0-1.512 1.3l-.003.004-.02.025-.006.008c0 .001 0 .001 0 0l-.004.004-.08.123-.08.106c-.04.057-.081.11-.125.163l-.005.006-.003.007a.086.086 0 0 0-.003.014.045.045 0 0 0 .002.017.04.04 0 0 0 .026.026.04.04 0 0 0 .031-.004l.004-.002.004-.003.002-.002.004.002 2.065-1.857Zm-2.068 1.854-.059-.04v.001a.034.034 0 0 0 0 .011.038.038 0 0 0 .044.035.037.037 0 0 0 .013-.005l.002-.002Zm1.803-1.72a4.563 4.563 0 0 0-1.505 1.306l-.012.014-.068.105 1.585-1.425Z"/></g><defs><clipPath id="a"><path fill="#fff" d="M0 0h24v18H0z"/></clipPath></defs></svg>