<svg xmlns="http://www.w3.org/2000/svg" width="24" height="18" fill="none"><g clip-path="url(#a)"><path fill="#F93" d="M0 0h24v6H0V0Z"/><path fill="#fff" d="M0 6h24v6H0V6Z"/><path fill="#128807" d="M0 12h24v6H0v-6Z"/><path fill="#008" d="M12 11.4a2.4 2.4 0 1 0 0-4.8 2.4 2.4 0 0 0 0 4.8Z"/><path fill="#fff" d="M12 11.1a2.1 2.1 0 1 0 0-4.2 2.1 2.1 0 0 0 0 4.2Z"/><path fill="#008" d="M12 9.42a.42.42 0 1 0 0-.84.42.42 0 0 0 0 .84Zm2.069-.037a.108.108 0 1 0 .028-.215.108.108 0 0 0-.028.215Z"/><path fill="#008" d="m12 11.1.072-1.26-.072-.6-.072.6L12 11.1Z"/></g><defs><clipPath id="a"><path fill="#fff" d="M0 0h24v18H0z"/></clipPath></defs></svg>