<svg xmlns="http://www.w3.org/2000/svg" width="24" height="18" fill="none"><g clip-path="url(#a)"><path fill="#fff" fill-rule="evenodd" d="M0 0h36v18H0V0Z" clip-rule="evenodd"/><path fill="#000063" fill-rule="evenodd" d="M36 15.651c-.404.247-.749.809-1.821.809-2.145 0-2.679-1.192-4.29-1.192-1.068 0-1.602 1.195-2.674 1.195-2.145 0-2.68-1.195-4.29-1.195-1.068 0-1.603 1.195-2.672 1.195-2.144 0-2.682-1.195-4.289-1.195-1.072 0-1.606 1.195-2.678 1.195-2.145 0-2.68-1.195-4.286-1.195-1.072 0-1.607 1.195-2.679 1.195-2.144 0-2.679-1.195-4.285-1.195-1.073 0-1.393.85-2.036.85v1.537c.643 0 .963-.85 2.04-.85C3.641 16.805 4.18 18 6.32 18c1.073 0 1.608-1.195 2.68-1.195 1.607 0 2.145 1.195 4.29 1.195 1.068 0 1.602-1.195 2.675-1.195 1.606 0 2.144 1.195 4.285 1.195 1.072 0 1.607-1.195 2.679-1.195 1.607 0 2.144 1.195 4.286 1.195 1.072 0 1.606-1.195 2.678-1.195C31.5 16.805 32.038 18 34.18 18c1.072 0 1.417-.338 1.821-.58v-1.77Zm0-2.984c-.404.246-.749.808-1.821.808-2.145 0-2.679-1.195-4.29-1.195-1.068 0-1.602 1.195-2.674 1.195-2.145 0-2.68-1.195-4.29-1.195-1.068 0-1.603 1.195-2.672 1.195-2.144 0-2.682-1.195-4.289-1.195-1.072 0-1.606 1.195-2.678 1.195-2.145 0-2.68-1.195-4.286-1.195-1.072 0-1.607 1.195-2.679 1.195-2.144 0-2.679-1.195-4.285-1.195-1.073 0-1.393.854-2.036.854v1.537c.643 0 .963-.851 2.04-.851 1.602 0 2.14 1.195 4.281 1.195 1.072 0 1.607-1.195 2.679-1.195 1.607 0 2.145 1.195 4.29 1.195 1.068 0 1.602-1.195 2.675-1.195 1.606 0 2.144 1.195 4.288 1.195 1.07 0 1.604-1.195 2.676-1.195 1.607 0 2.144 1.195 4.286 1.195 1.072 0 1.606-1.195 2.678-1.195 1.607 0 2.145 1.195 4.286 1.195 1.072 0 1.417-.338 1.821-.58v-1.768Zm0-2.985c-.404.246-.749.808-1.821.808-2.145 0-2.679-1.195-4.29-1.195-1.068 0-1.602 1.195-2.674 1.195-2.145 0-2.68-1.195-4.29-1.195-1.068 0-1.603 1.195-2.672 1.195-2.144 0-2.682-1.195-4.289-1.195-1.072 0-1.606 1.195-2.678 1.195-2.145 0-2.68-1.195-4.286-1.195-1.072 0-1.607 1.195-2.679 1.195-2.144 0-2.679-1.195-4.285-1.195-1.073 0-1.393.854-2.036.854v1.537c.643 0 .963-.851 2.04-.851 1.602 0 2.14 1.195 4.281 1.195 1.072 0 1.607-1.195 2.679-1.195 1.607 0 2.145 1.195 4.29 1.195 1.068 0 1.602-1.195 2.675-1.195 1.606 0 2.144 1.195 4.288 1.195 1.07 0 1.604-1.195 2.676-1.195 1.607 0 2.144 1.195 4.286 1.195 1.072 0 1.606-1.195 2.678-1.195 1.607 0 2.145 1.195 4.286 1.195 1.072 0 1.417-.34 1.821-.583V9.682Zm0-2.985c-.404.243-.749.809-1.821.809-2.145 0-2.679-1.196-4.29-1.196-1.068 0-1.602 1.196-2.674 1.196-2.145 0-2.68-1.196-4.29-1.196-1.068 0-1.603 1.196-2.672 1.196-2.144 0-2.682-1.196-4.289-1.196-1.072 0-1.606 1.196-2.678 1.196-2.145 0-2.68-1.196-4.286-1.196-1.072 0-1.607 1.196-2.679 1.196-2.144 0-2.679-1.196-4.285-1.196-1.073 0-1.393.855-2.036.855V8.7c.643 0 .963-.85 2.04-.85 1.602 0 2.14 1.195 4.281 1.195C7.393 9.046 7.928 7.85 9 7.85c1.607 0 2.145 1.196 4.29 1.196 1.068 0 1.602-1.196 2.675-1.196 1.606 0 2.144 1.196 4.288 1.196 1.07 0 1.604-1.196 2.676-1.196 1.607 0 2.144 1.196 4.286 1.196 1.072 0 1.606-1.196 2.678-1.196 1.607 0 2.145 1.196 4.286 1.196 1.072 0 1.417-.342 1.821-.584V6.697Zm0-2.988c-.404.246-.749.812-1.821.812-2.145 0-2.679-1.195-4.29-1.195-1.068 0-1.602 1.195-2.674 1.195-2.145 0-2.68-1.195-4.29-1.195-1.068 0-1.603 1.195-2.672 1.195-2.144 0-2.682-1.195-4.289-1.195-1.072 0-1.606 1.195-2.678 1.195-2.145 0-2.68-1.195-4.286-1.195-1.072 0-1.607 1.195-2.679 1.195-2.144 0-2.679-1.195-4.285-1.195C.963 3.329.643 4.183 0 4.183V5.72c.643 0 .963-.851 2.036-.851 1.606 0 2.144 1.195 4.289 1.195C7.393 6.064 7.928 4.87 9 4.87c1.607 0 2.145 1.195 4.29 1.195 1.068 0 1.602-1.195 2.67-1.195 1.611 0 2.145 1.195 4.29 1.195 1.072 0 1.607-1.195 2.679-1.195 1.607 0 2.144 1.195 4.286 1.195 1.072 0 1.606-1.195 2.678-1.195 1.607 0 2.145 1.195 4.286 1.195 1.069 0 1.417-.34 1.821-.583V3.709Zm0-2.981c-.404.242-.749.808-1.821.808-2.145 0-2.679-1.195-4.29-1.195-1.068 0-1.602 1.195-2.674 1.195-2.145 0-2.68-1.195-4.29-1.195-1.068 0-1.603 1.195-2.672 1.195-2.144 0-2.682-1.195-4.289-1.195-1.072 0-1.606 1.195-2.678 1.195C11.14 1.536 10.606.341 9 .341c-1.072 0-1.607 1.195-2.679 1.195-2.144 0-2.679-1.195-4.285-1.195C.963.34.643 1.195 0 1.195v1.54c.643 0 .963-.85 2.036-.85 1.606 0 2.144 1.194 4.289 1.194C7.393 3.08 7.928 1.884 9 1.884c1.607 0 2.145 1.195 4.29 1.195 1.068 0 1.602-1.195 2.67-1.195 1.611 0 2.145 1.195 4.29 1.195 1.072 0 1.607-1.195 2.679-1.195 1.607 0 2.144 1.195 4.286 1.195 1.072 0 1.606-1.195 2.678-1.195 1.607 0 2.145 1.195 4.286 1.195 1.069 0 1.417-.34 1.821-.583V.728Z" clip-rule="evenodd"/><path fill="#000063" fill-rule="evenodd" d="M0 0h9.186v5.555H0V0Z" clip-rule="evenodd"/><path fill="#fff" d="M0 0v.622l8.16 4.933h1.026v-.623L1.03.004H0V0Zm9.186 0v.622L1.03 5.555H0v-.623L8.16.004h1.026V0Z"/><path fill="#fff" d="M3.829 0v5.555h1.529V0H3.829ZM0 1.856v1.85h9.186V1.852H0v.003Z"/><path fill="#C00" d="M0 2.222v1.11h9.186v-1.11H0ZM4.134 0v5.555h.918V0h-.918ZM0 5.555l3.062-1.853h.686L.686 5.555H0ZM0 0l3.062 1.853h-.685L0 .415V0Zm5.439 1.853L8.5.003h.685l-3.058 1.85h-.69Zm3.747 3.702L6.128 3.702h.682L9.186 5.14v.415Z"/><path fill="#A24300" fill-rule="evenodd" d="m13.353 4.21-.129 12.213c0 .643.581.643.643 0L13.739 4.21h-.386Z" clip-rule="evenodd"/><path fill="#fff" fill-rule="evenodd" d="M13.315 4.171h.461l.13 12.254-.001.002c-.032.329-.2.517-.383.517a.29.29 0 0 1-.238-.137.672.672 0 0 1-.099-.384l.13-12.252Zm.076.078-.129 12.174c0 .156.035.268.085.34.05.072.113.104.175.104.122 0 .275-.133.306-.445L13.7 4.249h-.309Z" clip-rule="evenodd"/><path fill="#006D00" fill-rule="evenodd" d="m14.685 8.752-.405-.444-.1.449-.175-.65-.165.327-.03-.692-.163.328-.03-.692-.164.327-.093-.813-.164.328-.094-.813-.164.327-.094-.813-.047-.407.082-.163.212.079.34.323.68.645-.422-.16.68.646-.422-.16.68.645-.423-.159.616.524-.422-.16.615.524-.422-.159.468.565-.487-.28.111.528h.002Z" clip-rule="evenodd"/><path fill="#fff" fill-rule="evenodd" d="m14.764 8.79-.11-.01-.005-.022-.347-.38-.086.388-.07-.007-.15-.552-.122.242-.07-.02-.023-.544-.1.2-.07-.02-.023-.544-.1.2-.07-.018-.08-.685-.108.217-.07-.017-.08-.686-.108.217-.07-.017-.094-.813-.048-.415.098-.194.251.094.347.33.68.644-.035.048-.28-.106.573.544-.035.048-.28-.106.572.544-.035.047-.258-.097.485.413-.033.049-.258-.098.484.413-.033.049-.313-.118.397.48-.045.041-.42-.243.094.453.048.052Zm-.14-.153-.1-.477.4.231-.432-.522.367.138-.485-.412.034-.05.258.098-.485-.412.034-.05.28.106-.574-.544.036-.048.28.106-.573-.543.035-.048.28.105-.573-.543-.334-.317-.171-.064-.067.132.046.4.08.685.108-.217.07.017.08.685.108-.217.07.018.079.685.11-.217.069.02.023.544.1-.2.07.02.023.545.143-.285.163.6.082-.37.365.4Z" clip-rule="evenodd"/><path fill="currentColor" fill-rule="evenodd" d="m13.133 5.836-.257-.483.008-.002.258.485.97.558-.004.006-.96-.552 1.54 2.903-.007.002-1.542-2.905-.197.887-.009-.002.2-.897Z" clip-rule="evenodd"/><path fill="currentColor" fill-rule="evenodd" d="m14.37 6.88-.004.007-.968-.558-.198.892-.009-.003.2-.901.98.563Z" clip-rule="evenodd"/><path fill="currentColor" fill-rule="evenodd" d="m14.628 7.366-.004.006-.969-.557-.198.892-.008-.003.2-.901.979.563Z" clip-rule="evenodd"/><path fill="currentColor" fill-rule="evenodd" d="m14.822 7.731-.004.007-.904-.438-.262.772-.009-.003.265-.78.914.442Z" clip-rule="evenodd"/><path fill="currentColor" fill-rule="evenodd" d="m15.015 8.095-.003.007-.905-.438-.262.771-.009-.003.265-.779.914.442Z" clip-rule="evenodd"/><path fill="currentColor" fill-rule="evenodd" d="m14.175 8.755.055-.86.831.606-.005.006-.818-.598-.055.848-.008-.002Z" clip-rule="evenodd"/><path fill="#006D00" fill-rule="evenodd" d="m9.944 2.953.661.252-.193-.5.578.569-.054-.408.467.682-.055-.409.467.682-.054-.408.604.773-.055-.408.605.772-.055-.408.605.773.303.387.027.204-.248.022-.523-.161-1.045-.322.495-.043-1.046-.321.496-.043-1.045-.322.495-.043-.908-.23.496-.043-.908-.23.495-.044-.797-.344.634.049-.44-.479-.002.001Z" clip-rule="evenodd"/><path fill="#fff" fill-rule="evenodd" d="m9.845 2.953.115-.043.015.017.561.213-.163-.423.071-.035.49.483-.04-.294.077-.023.368.537-.032-.24.076-.023.369.536-.033-.24.076-.024.51.65-.036-.261.076-.025.51.651-.036-.262.076-.024.605.772.307.394.033.246-.3.028-.532-.164-1.045-.322.013-.066.317-.028-.88-.27.012-.067.318-.027-.88-.27.013-.067.292-.026-.716-.181.01-.067.293-.025-.715-.181.01-.067.357-.031-.675-.291.025-.065.538.041-.374-.407-.076-.029Zm.238.091.393.428-.517-.04.73.315-.43.038.716.182-.011.066-.292.026.715.18-.01.068-.319.027.881.271-.012.066-.319.028.88.27-.012.067-.318.028.881.27.514.159.196-.018-.021-.16-.298-.38-.51-.652.035.262-.075.024-.51-.65.036.262-.076.024-.51-.651.036.262-.077.023-.368-.537.033.24-.077.023-.369-.537.048.355-.53-.522.157.408-.59-.225Z" clip-rule="evenodd"/><path fill="currentColor" fill-rule="evenodd" d="m13.25 5.14.547.362-.006.007-.55-.365-1.262-.094.001-.008 1.247.093-3.286-2.179.006-.006 3.289 2.18-.38-.986.01-.003.384.998Z" clip-rule="evenodd"/><path fill="currentColor" fill-rule="evenodd" d="m11.428 4.684.001-.008 1.259.094-.382-.992.01-.003.386 1.005-1.274-.096Z" clip-rule="evenodd"/><path fill="currentColor" fill-rule="evenodd" d="m10.878 4.32.001-.008 1.259.095-.382-.993.01-.002.386 1.004-1.274-.096Z" clip-rule="evenodd"/><path fill="currentColor" fill-rule="evenodd" d="M10.466 4.047v-.009l1.122.004-.245-.902.01-.002.248.913-1.135-.004Z" clip-rule="evenodd"/><path fill="currentColor" fill-rule="evenodd" d="M10.053 3.773v-.009l1.123.005-.245-.902.01-.002.248.912-1.136-.004Z" clip-rule="evenodd"/><path fill="currentColor" fill-rule="evenodd" d="m10.418 2.703.497.894-1.164-.211.002-.008 1.144.207-.488-.879.01-.003Z" clip-rule="evenodd"/><path fill="#006D00" fill-rule="evenodd" d="m17.622 3.805-.55.403.608.067-.847.201.451.135-.917.067.452.134-.917.066.451.135-1.072.134.452.134-1.073.134.452.134-1.073.134-.536.067-.226-.067.084-.202.395-.336.79-.67-.168.402.79-.67-.17.402.79-.67-.17.402.636-.603-.17.402.635-.603-.17.402.706-.468-.325.47.692-.134v-.002Z" clip-rule="evenodd"/><path fill="#fff" fill-rule="evenodd" d="m17.664 3.727-.004.11-.023.005-.466.34.511.057.009.072-.717.17.32.095-.005.071-.721.053.26.077-.004.07-.722.053.261.078-.003.07-.902.114.285.084-.003.07-.903.113.285.085-.003.071-1.073.134-.545.068-.275-.082.102-.247.402-.34.79-.67.062.042-.106.254.665-.565.062.042-.107.254.665-.564.063.043-.098.232.5-.475.064.041-.098.233.499-.475.064.041-.12.286.597-.396.056.05-.274.396.587-.113.063-.047Zm-.202.148-.616.119.264-.381-.645.428.146-.35-.5.475-.063-.04.098-.233-.5.474-.063-.04.106-.255-.665.565-.062-.043.107-.253-.665.564-.063-.043.107-.254-.665.565-.39.33-.065.157.176.053.528-.066.903-.113-.285-.085.003-.07.903-.113-.285-.085.003-.07.903-.113-.285-.085.005-.07.721-.053-.261-.078.005-.07.722-.053-.392-.117.774-.184-.493-.054.49-.359Z" clip-rule="evenodd"/><path fill="currentColor" fill-rule="evenodd" d="m13.897 5.418-.618.267-.004-.008.62-.268.646-.937.008.005-.637.925 3.708-1.601.004.008-3.71 1.602 1.198.133v.009l-1.215-.135Z" clip-rule="evenodd"/><path fill="currentColor" fill-rule="evenodd" d="m15.163 4.204.008.005-.644.934 1.206.133v.009l-1.222-.136.652-.945Z" clip-rule="evenodd"/><path fill="currentColor" fill-rule="evenodd" d="m15.784 3.936.008.005-.644.933 1.206.134-.001.009-1.222-.136.653-.945Z" clip-rule="evenodd"/><path fill="currentColor" fill-rule="evenodd" d="m16.25 3.735.007.004-.49.868 1.052.2-.001.009-1.065-.203.496-.878Z" clip-rule="evenodd"/><path fill="currentColor" fill-rule="evenodd" d="m16.715 3.534.009.005-.491.867 1.052.2-.002.01-1.065-.203.497-.879Z" clip-rule="evenodd"/><path fill="currentColor" fill-rule="evenodd" d="m17.679 4.281-1.153-.002.725-.81.007.005-.712.796 1.133.003v.008Z" clip-rule="evenodd"/><path fill="#006D00" fill-rule="evenodd" d="m17.534 7.87-.685-.199.245.482-.636-.52.098.402-.539-.642.1.402-.54-.642.099.402-.685-.721.098.402-.685-.722.098.402-.685-.721-.343-.361-.049-.201.245-.042.538.119 1.075.237-.488.083 1.076.237-.49.082 1.076.237-.488.083.929.157-.49.082.93.158-.49.082.83.279-.635.002.49.441h.001Z" clip-rule="evenodd"/><path fill="#fff" fill-rule="evenodd" d="m17.633 7.86-.11.054-.017-.016-.581-.167.207.407-.067.041-.539-.44.07.286-.073.03-.424-.504.058.235-.074.03-.424-.505.057.235-.072.032-.577-.607.063.256-.073.032-.577-.608.063.256-.073.032-.685-.721-.349-.367-.06-.244.298-.051.547.12 1.076.238-.008.067-.311.053.906.2-.008.067-.311.052.905.2-.008.067-.285.048.731.124-.005.068-.286.048.731.124-.005.067-.35.06.703.236-.02.066-.537.002.415.375.08.023Zm-.249-.071-.436-.394.517-.002-.76-.255.425-.072-.732-.124.005-.068.286-.048-.73-.123.005-.068.311-.053-.906-.2.008-.067.311-.052-.905-.2.007-.067.312-.053-.906-.2-.53-.116-.192.032.039.158.914.963-.062-.256.072-.032.577.607-.063-.256.072-.032.578.608-.063-.256.074-.03.423.504-.057-.235.074-.03.424.505-.085-.35.582.478-.2-.393.611.177Z" clip-rule="evenodd"/><path fill="currentColor" fill-rule="evenodd" d="m14.008 5.954-.584-.318.006-.007.586.32 1.268-.006-.001.008-1.252.006 3.506 1.909-.005.007-3.509-1.91.484.951-.009.004-.49-.964Z" clip-rule="evenodd"/><path fill="currentColor" fill-rule="evenodd" d="M15.871 6.262v.009l-1.264.005.487.958-.009.003-.493-.97 1.28-.005Z" clip-rule="evenodd"/><path fill="currentColor" fill-rule="evenodd" d="M16.457 6.582v.008l-1.264.006.487.957-.009.004-.493-.97 1.28-.005Z" clip-rule="evenodd"/><path fill="currentColor" fill-rule="evenodd" d="M16.898 6.822v.008l-1.118.085.341.878-.01.003-.345-.889 1.132-.085Z" clip-rule="evenodd"/><path fill="currentColor" fill-rule="evenodd" d="M17.338 7.061v.009l-1.119.084.342.878-.01.004-.345-.89 1.132-.085Z" clip-rule="evenodd"/><path fill="currentColor" fill-rule="evenodd" d="m17.088 8.155-.59-.85 1.182.117-.002.008-1.161-.115.58.836-.009.004Z" clip-rule="evenodd"/><path fill="#006D00" fill-rule="evenodd" d="m10.399 8.104.343-.48-.524.075.647-.368-.413-.018.744-.264-.414-.018.744-.265-.414-.018.855-.359-.415-.018.855-.358-.414-.019.854-.358.428-.18.206.01-.012.198-.234.386-.467.772.026-.395-.467.772.027-.395-.467.771.027-.395-.358.678.027-.395-.357.678.027-.395-.454.573.137-.49-.538.273v.002Z" clip-rule="evenodd"/><path fill="#fff" fill-rule="evenodd" d="m10.385 8.182-.027-.096.02-.01.291-.409-.446.065-.023-.06.55-.312-.3-.014-.01-.063.585-.208-.245-.011L10.77 7l.586-.208-.245-.011-.013-.063.72-.302-.267-.011-.012-.063.72-.302-.267-.012-.013-.063.854-.359.435-.182.25.011-.016.24-.238.392-.467.772-.064-.019.017-.255-.393.651-.064-.019.017-.255-.393.65-.064-.018.015-.235-.281.535-.065-.018.016-.234-.281.534-.065-.017.02-.286-.386.486-.06-.028.117-.417-.459.233-.04.055Zm.123-.172.482-.245-.112.4.416-.526-.023.344.282-.535.065.018-.017.234.282-.534.065.017-.018.255.394-.65.064.018-.017.255.393-.65.064.019-.017.255.394-.65.23-.38.01-.158-.164-.007-.42.177-.72.302.267.012.012.062-.72.302.268.012.012.063-.72.302.267.012.01.064-.585.208.245.01.01.064-.586.208.36.016-.594.338.428-.062-.307.43Z" clip-rule="evenodd"/><path fill="currentColor" fill-rule="evenodd" d="m13.04 5.84.438-.376.005.006-.44.377-.272.976-.008-.002.269-.965L10.4 8.107l-.006-.005 2.633-2.253-1.035.15-.001-.008 1.047-.152Z" clip-rule="evenodd"/><path fill="currentColor" fill-rule="evenodd" d="m12.33 7.201-.008-.002.272-.973-1.042.15-.001-.007 1.054-.153-.275.985Z" clip-rule="evenodd"/><path fill="currentColor" fill-rule="evenodd" d="m11.89 7.577-.007-.002.271-.973-1.041.15-.002-.007 1.054-.153-.274.985Z" clip-rule="evenodd"/><path fill="currentColor" fill-rule="evenodd" d="m11.56 7.86-.008-.002.162-.88-.932.057v-.008l.942-.058-.164.89Z" clip-rule="evenodd"/><path fill="currentColor" fill-rule="evenodd" d="m11.229 8.143-.008-.002.163-.88-.933.057V7.31l.942-.058-.164.89Z" clip-rule="evenodd"/><path fill="currentColor" fill-rule="evenodd" d="m10.217 7.695.96-.256-.374.882-.008-.003.367-.867-.943.251-.002-.007Z" clip-rule="evenodd"/><path fill="#006D00" fill-rule="evenodd" d="m16.629 1.778-.665.444-.109-.477-.392.66-.071-.318-.32.677-.044-.312-.249.693-.142-.334-.25.844-.14-.335-.25.843-.142-.334-.25.844-.125.421.072.167.267-.087.462-.342.925-.684-.533.175.924-.684-.534.175.925-.684-.533.175.924-.534-.63.152.994-.517-.605.158.73-.58-.63.303.39-.51Z" clip-rule="evenodd"/><path fill="#fff" fill-rule="evenodd" d="m16.628 1.777.038.01-.317.412.502-.24.046.043-.624.495.466-.121.023.054-.78.405.393-.095.025.053-.678.392.257-.084.036.048-.78.576.353-.116.036.048-.78.577.353-.115.036.047-.925.684-.47.35-.32.103-.084-.2.127-.429.25-.843.087-.019.094.22.21-.71.087-.02.094.222.21-.711.087-.019.098.232.206-.574.088-.012.026.177.251-.532.087-.011.05.219.391-.66.12.529.606-.406.025.021Zm-.152.14-.351.457.506-.243-.629.499.489-.127-.762.395.022.055.43-.104-.748.432.03.052.352-.115-.78.577.037.047.352-.115-.78.576.037.048.352-.115-.78.577-.454.335-.215.07-.058-.134.123-.414.21-.711.094.22.087-.018.21-.711.094.22.087-.018.21-.711.138.323.228-.634.02.145.087-.01.26-.548.066.298.393-.66.097.427.546-.366Z" clip-rule="evenodd"/><path fill="currentColor" fill-rule="evenodd" d="m15.415 2.844.96-.826-.008-.003-.96.826-1.86 2.419.01.002 1.858-2.418Z" clip-rule="evenodd"/><path fill="currentColor" fill-rule="evenodd" d="m13.849 3.98.089.778 1.066-.505L15 4.247l-1.053.499-.088-.768-.01.003Z" clip-rule="evenodd"/><path fill="currentColor" fill-rule="evenodd" d="m15.412 3.748-.004-.006-1.069.494-.088-.767-.01.003.089.776 1.082-.5Z" clip-rule="evenodd"/><path fill="currentColor" fill-rule="evenodd" d="m15.794 3.237-.004-.006-1.06.496-.08-.766-.011.003.081.776 1.074-.503Z" clip-rule="evenodd"/><path fill="currentColor" fill-rule="evenodd" d="m14.996 2.597.116.633 1-.368-.003-.007-.988.364-.114-.625-.01.003Z" clip-rule="evenodd"/><path fill="currentColor" fill-rule="evenodd" d="m16.478 2.497-.002-.007-1.06.348-.042-.608-.01.003.041.616 1.073-.352Z" clip-rule="evenodd"/><path fill="currentColor" fill-rule="evenodd" d="m15.818 1.888-.194.773.997-.51-.004-.006-.978.5.19-.758h-.011Z" clip-rule="evenodd"/><path fill="#006D00" fill-rule="evenodd" d="m13.03.943.298.678.382-.359-.066.739.254-.239-.139.72.227-.246-.208.703.324-.221-.3.831.324-.222-.299.831.324-.22-.3.83-.149.416-.162.11-.175-.193-.187-.5-.373-.997.349.387-.373-.997.348.388-.373-.998.348.388-.463-.87.445.414-.535-.888.42.406-.27-.822.354.541-.024-.61Z" clip-rule="evenodd"/><path fill="#fff" fill-rule="evenodd" d="m13.031.943-.037-.01.02.497-.284-.434-.064.019.232.702-.326-.315-.05.04.418.692-.28-.258-.05.038.34.637-.17-.19-.057.028.314.841-.233-.26-.057.028.315.842-.233-.26-.057.028.563 1.507.208.23.192-.131.152-.424.3-.831-.061-.057-.216.148.252-.701-.06-.057-.217.148.252-.7-.06-.057-.227.155.172-.582-.065-.051-.132.143.135-.704-.268.253.066-.738-.422.395-.272-.619-.033.008Zm.044.183.022.55-.285-.435.234.71-.338-.327.408.677-.05.04-.305-.283.375.703-.054.033-.233-.259.315.842-.058.027-.232-.26.314.842-.057.027-.233-.259.315.842.183.49.143.158.131-.09.147-.408.252-.701-.216.147-.06-.056.252-.7-.216.147-.061-.056.252-.701-.313.214.19-.644-.107.117-.067-.048.113-.586-.239.225.066-.739-.342.321-.246-.56Z" clip-rule="evenodd"/><path fill="currentColor" fill-rule="evenodd" d="M13.419 2.398 13.1 1.264h.009l.317 1.135.117 2.897-.008-.002-.117-2.896Z" clip-rule="evenodd"/><path fill="currentColor" fill-rule="evenodd" d="m14.063 4.07-.548.623-.603-.91.007-.003.596.898.54-.616.008.007Z" clip-rule="evenodd"/><path fill="currentColor" fill-rule="evenodd" d="m12.871 3.17.007-.003.612.9.541-.614.008.007-.548.623-.62-.912Z" clip-rule="evenodd"/><path fill="currentColor" fill-rule="evenodd" d="m12.856 2.563.007-.004.603.9L14 2.84l.007.008-.54.625-.611-.91Z" clip-rule="evenodd"/><path fill="currentColor" fill-rule="evenodd" d="m13.924 2.375-.482.488-.63-.763.006-.005.622.754.477-.482.007.008Z" clip-rule="evenodd"/><path fill="currentColor" fill-rule="evenodd" d="m12.722 1.625.006-.006.694.773.404-.5.007.007-.409.507-.702-.781Z" clip-rule="evenodd"/><path fill="currentColor" fill-rule="evenodd" d="m13.655 1.401-.305.747-.54-.882.006-.004.531.866.3-.732.008.005Z" clip-rule="evenodd"/><path fill="#006D00" fill-rule="evenodd" d="m9.05 5.925.867-.6-.434-.224.76.13-.261-.345.739.276-.262-.344.739.275-.261-.343.89.301-.26-.343.869.447-.262-.344.89.302.435.224.13.172-.173.12-.478.069-.77.317.142-.275-.955.136.346-.24-.976.282.347-.24-.825.309.369-.387-.846.455.368-.387-.693.481.39-.533-.825.31Z" clip-rule="evenodd"/><path fill="#fff" fill-rule="evenodd" d="m9.05 5.925.013.033.713-.266-.32.436.05.05.406-.281-.127.133.042.056.649-.348-.214.224.038.058.555-.208-.11.077.03.063.767-.221-.167.116.026.064.886-.126-.155.3.857-.353.481-.069.21-.146-.157-.208-.445-.229-1-.339.237.312-.732-.377-.044.053.192.252-.89-.302.256.339-.738-.276.26.345-.737-.277.28.37-.674-.114-.02.066.381.196-.82.568.021.03Zm.257-.134.667-.25-.335.458.52-.36.045.054-.214.225.65-.35.042.057-.261.274.678-.254.033.062-.167.116.766-.221.031.063-.223.154.874-.124-.129.25.685-.282.474-.068.137-.095-.103-.136-.425-.218-.78-.265.192.253-.043.053-.733-.378.237.312-.89-.301.264.348-.739-.275.262.345-.739-.277.242.319-.623-.106.285.146-.68.47Z" clip-rule="evenodd"/><path fill="currentColor" fill-rule="evenodd" d="m10.223 5.38-.896.387-.004-.008.898-.388.479-.067.399-.008.686.043.62.027 1.226.138v.009l-1.226-.139-.62-.026-.687-.043-.398.007-.477.067Z" clip-rule="evenodd"/><path fill="currentColor" fill-rule="evenodd" d="m12.317 4.913.704.552-.691.425-.005-.008.682-.418-.695-.544.005-.007Z" clip-rule="evenodd"/><path fill="currentColor" fill-rule="evenodd" d="m11.56 5.828-.003-.008.839-.45-.693-.544.006-.007.703.552-.851.457Z" clip-rule="evenodd"/><path fill="currentColor" fill-rule="evenodd" d="M9.987 5.938 9.98 5.93l.711-.622-.571-.314.004-.008.582.32-.72.63Zm1.09-1.11.716.516-.788.474.072-.99Zm-.062.974.762-.46-.692-.5-.07.96Z" clip-rule="evenodd"/><path fill="currentColor" fill-rule="evenodd" d="m9.66 5.99.116-.784.453.169-.569.615Zm.013-.026.541-.586-.432-.16-.11.746Zm.79-.095-.005-.006.703-.56-.563-.382.005-.007.573.388-.712.567Z" clip-rule="evenodd"/><path fill="#C00" fill-rule="evenodd" d="m11.967 12.507-.009-1.013-.293-.473c-.073-.232-.037-.345.082-.353.118-.006.236.06.407.068.17.008.139-.262.391-.255.253.008.693.143 1.068.165.375.022.57-.12 1.002-.135.432-.015.546.188.57.188.025 0 .148-.083.27-.098.122-.015.163.045.163.045s-.008.255-.065.405c-.058.15-.261.398-.27.398-.007 0-.073 1.103-.073 1.11 0 .008-3.243-.03-3.243-.052Z" clip-rule="evenodd"/><path fill="currentColor" fill-rule="evenodd" d="M12.252 10.7a.127.127 0 0 1-.1.038c-.084-.003-.156-.022-.221-.039h-.002a.602.602 0 0 0-.183-.028.125.125 0 0 0-.072.025.118.118 0 0 0-.04.065.51.51 0 0 0 .032.26l.294.472.008 1.012.007.002.027.002.103.005.367.01c.304.006.71.012 1.115.018a257.953 257.953 0 0 0 1.483.016h.137a107.042 107.042 0 0 1 .071-1.097l.002-.01v-.004h.002l.003-.002a1.266 1.266 0 0 0 .265-.394c.028-.075.044-.176.053-.259a2.386 2.386 0 0 0 .011-.135v-.012a.116.116 0 0 0-.033-.025.213.213 0 0 0-.127-.016.599.599 0 0 0-.17.054l-.043.02-.02.01a.342.342 0 0 1-.036.013.014.014 0 0 1-.007-.003.805.805 0 0 0-.563-.185 2.39 2.39 0 0 0-.523.082c-.15.034-.293.065-.48.054a4.46 4.46 0 0 1-.58-.089l-.028-.005a3.163 3.163 0 0 0-.46-.072.23.23 0 0 0-.142.038.326.326 0 0 0-.082.089l-.013.018a.432.432 0 0 1-.055.072Zm3.365-.054h.002v.012a1.734 1.734 0 0 1-.011.135 1.14 1.14 0 0 1-.054.259m-3.59 1.455-.009-1.012-.293-.473a.513.513 0 0 1-.032-.262.122.122 0 0 1 .04-.068.13.13 0 0 1 .075-.026c.06-.004.12.012.185.028h.002a.97.97 0 0 0 .22.04.122.122 0 0 0 .097-.037.441.441 0 0 0 .054-.071l.013-.019a.331.331 0 0 1 .083-.09.234.234 0 0 1 .145-.038c.12.003.283.036.46.071l.029.006c.188.037.392.077.579.088a1.568 1.568 0 0 0 .507-.06c.141-.033.292-.068.495-.075a.81.81 0 0 1 .44.088.533.533 0 0 1 .107.08l.011.011a.053.053 0 0 0 .008.006.006.006 0 0 0 .005.002.353.353 0 0 0 .034-.013l.02-.01.043-.02a.606.606 0 0 1 .171-.054.218.218 0 0 1 .13.017.118.118 0 0 1 .035.028v.001l-.001.001.002-.001v.001h-.002m-3.654 1.86h.003-.003Zm.005 0Z" clip-rule="evenodd"/><path fill="#FFF100" fill-rule="evenodd" d="M15.322 11.47s.327-.23.335-.784c.005-.318-.165-.548-.59-.548-.596 0-1.446.235-1.446.235v.078s.68-.235 1.446-.235c.34 0 .51.23.51.465 0 .392-.34.789-.34.789v.626h.085v-.627Z" clip-rule="evenodd"/><path fill="currentColor" fill-rule="evenodd" d="M15.655 10.686a.53.53 0 0 0-.134-.392l.133.392Zm-.134-.392c-.094-.096-.243-.154-.455-.154l.455.154Zm.003-.003c-.095-.098-.245-.155-.458-.155-.298 0-.66.059-.947.117a9.246 9.246 0 0 0-.462.107l-.028.008-.007.002h-.002v.003-.002h-.002v.083h.003v-.003.002h.002l.006-.002a3.874 3.874 0 0 1 .428-.115 4.782 4.782 0 0 1 1.01-.117c.17 0 .296.057.38.143a.454.454 0 0 1 .128.32c0 .194-.085.391-.17.54a1.91 1.91 0 0 1-.167.241c0 .002-.002.003-.002.003l-.001.002.001.001-.002-.001v.63h.09v-.628l.003-.002.01-.008a.85.85 0 0 0 .15-.174 1.11 1.11 0 0 0 .172-.6.535.535 0 0 0-.135-.395Zm-.202 1.178h-.003v.624h-.08v-.623l.003-.004.01-.013a1.71 1.71 0 0 0 .157-.23c.085-.148.17-.345.17-.542a.458.458 0 0 0-.128-.322.52.52 0 0 0-.384-.145 5.031 5.031 0 0 0-1.416.225l-.024.007-.004.002v-.074l.008-.002a4.757 4.757 0 0 1 .132-.034c.089-.022.214-.051.357-.08.287-.059.649-.118.946-.118m.256 1.329-.002-.002h.001l.003-.003.01-.008a.833.833 0 0 0 .15-.173c.082-.126.166-.32.17-.597" clip-rule="evenodd"/><path fill="#fff" fill-rule="evenodd" d="M15.499 11.305c0 .02.009.04.025.056a.09.09 0 0 0 .06.022.09.09 0 0 0 .06-.022.075.075 0 0 0 .025-.056c0-.02-.008-.04-.024-.056a.09.09 0 0 0-.06-.022.09.09 0 0 0-.061.022.076.076 0 0 0-.025.056Z" clip-rule="evenodd"/><path fill="currentColor" fill-rule="evenodd" d="M15.584 11.23c.022 0 .043.007.059.022a.073.073 0 0 1 .024.053c0 .02-.008.04-.024.054a.087.087 0 0 1-.059.023.087.087 0 0 1-.058-.023.073.073 0 0 1-.025-.054c0-.02.01-.04.025-.053a.087.087 0 0 1 .058-.023Zm.062.018a.092.092 0 0 0-.062-.023.092.092 0 0 0-.061.023.078.078 0 0 0-.026.057c0 .022.01.042.026.058a.091.091 0 0 0 .061.023.091.091 0 0 0 .062-.023.078.078 0 0 0 .026-.058.078.078 0 0 0-.026-.057Z" clip-rule="evenodd"/><path fill="#fff" fill-rule="evenodd" d="M15.583 11.126c0 .02.01.04.025.055a.09.09 0 0 0 .06.023.089.089 0 0 0 .06-.023.075.075 0 0 0 .026-.055c0-.021-.01-.04-.025-.056a.089.089 0 0 0-.06-.023.09.09 0 0 0-.06.023.076.076 0 0 0-.026.056Z" clip-rule="evenodd"/><path fill="currentColor" fill-rule="evenodd" d="M15.668 11.05a.09.09 0 0 1 .059.022.073.073 0 0 1 .024.054c0 .02-.008.04-.024.054a.087.087 0 0 1-.059.022.087.087 0 0 1-.058-.022.073.073 0 0 1-.025-.054c0-.02.01-.04.025-.054a.087.087 0 0 1 .058-.022Zm.062.019a.092.092 0 0 0-.062-.024.092.092 0 0 0-.061.024.078.078 0 0 0-.026.057c0 .022.01.042.026.057a.091.091 0 0 0 .061.024.091.091 0 0 0 .062-.024.078.078 0 0 0 .026-.057.078.078 0 0 0-.026-.057Z" clip-rule="evenodd"/><path fill="#fff" fill-rule="evenodd" d="M15.63 10.943c0 .021.008.041.024.056a.09.09 0 0 0 .06.023.089.089 0 0 0 .06-.023.075.075 0 0 0 .026-.056.08.08 0 0 0-.025-.055.089.089 0 0 0-.06-.023.09.09 0 0 0-.06.023.075.075 0 0 0-.026.055Z" clip-rule="evenodd"/><path fill="currentColor" fill-rule="evenodd" d="M15.714 10.867a.09.09 0 0 1 .059.022.073.073 0 0 1 .024.054c0 .02-.008.04-.024.054a.087.087 0 0 1-.059.022.087.087 0 0 1-.059-.022.073.073 0 0 1-.024-.054c0-.02.009-.04.024-.054a.087.087 0 0 1 .06-.022Zm.062.019a.092.092 0 0 0-.062-.024.092.092 0 0 0-.062.024.078.078 0 0 0-.025.057c0 .022.009.042.025.057a.091.091 0 0 0 .062.024.091.091 0 0 0 .062-.024.078.078 0 0 0 .026-.057.078.078 0 0 0-.026-.057Z" clip-rule="evenodd"/><path fill="#fff" fill-rule="evenodd" d="M15.66 10.75c0 .02.01.04.025.055a.09.09 0 0 0 .06.023.09.09 0 0 0 .061-.023.075.075 0 0 0 .025-.055.078.078 0 0 0-.025-.056.09.09 0 0 0-.06-.023.09.09 0 0 0-.06.023.075.075 0 0 0-.025.056Z" clip-rule="evenodd"/><path fill="currentColor" fill-rule="evenodd" d="M15.746 10.674a.09.09 0 0 1 .059.022.073.073 0 0 1 .024.054c0 .02-.009.04-.024.053a.087.087 0 0 1-.059.023.087.087 0 0 1-.059-.023.073.073 0 0 1-.024-.053c0-.02.009-.04.024-.054a.087.087 0 0 1 .059-.022Zm.062.019a.092.092 0 0 0-.062-.024.092.092 0 0 0-.062.024.078.078 0 0 0-.026.057c0 .021.01.042.026.057a.092.092 0 0 0 .062.024.092.092 0 0 0 .062-.024.078.078 0 0 0 .026-.057.078.078 0 0 0-.026-.057Z" clip-rule="evenodd"/><path fill="#fff" fill-rule="evenodd" d="M15.654 10.539c0 .02.009.04.025.055a.09.09 0 0 0 .06.023.09.09 0 0 0 .06-.023.076.076 0 0 0 .025-.055.08.08 0 0 0-.025-.056.09.09 0 0 0-.06-.023.09.09 0 0 0-.06.023.075.075 0 0 0-.025.056Z" clip-rule="evenodd"/><path fill="currentColor" fill-rule="evenodd" d="M15.739 10.463c.022 0 .043.008.058.022a.073.073 0 0 1 .025.054c0 .02-.01.04-.025.054a.087.087 0 0 1-.058.022.087.087 0 0 1-.06-.022.073.073 0 0 1-.023-.054c0-.02.008-.04.024-.054a.087.087 0 0 1 .059-.022Zm.061.019a.092.092 0 0 0-.061-.024.092.092 0 0 0-.062.024.078.078 0 0 0-.026.057c0 .021.01.042.026.057a.091.091 0 0 0 .062.024.091.091 0 0 0 .061-.024.078.078 0 0 0 .026-.057.078.078 0 0 0-.026-.057Z" clip-rule="evenodd"/><path fill="#fff" fill-rule="evenodd" d="M15.376 11.463c0 .021.009.041.025.056a.09.09 0 0 0 .06.023.09.09 0 0 0 .06-.023.075.075 0 0 0 .025-.056c0-.02-.009-.04-.025-.055a.089.089 0 0 0-.06-.023.09.09 0 0 0-.06.023.076.076 0 0 0-.025.055Z" clip-rule="evenodd"/><path fill="currentColor" fill-rule="evenodd" d="M15.461 11.387c.022 0 .043.008.059.023a.073.073 0 0 1 .024.054c0 .02-.008.04-.024.053a.087.087 0 0 1-.059.023.087.087 0 0 1-.058-.023.073.073 0 0 1-.025-.053c0-.02.01-.04.025-.054a.087.087 0 0 1 .058-.023Zm.062.02a.091.091 0 0 0-.062-.024.091.091 0 0 0-.062.023.077.077 0 0 0-.025.058c0 .021.009.042.025.057a.09.09 0 0 0 .062.023.09.09 0 0 0 .062-.023.077.077 0 0 0 .026-.057.077.077 0 0 0-.026-.058Z" clip-rule="evenodd"/><path fill="#fff" fill-rule="evenodd" d="M15.58 10.338c0 .021.009.041.025.056a.09.09 0 0 0 .06.023.09.09 0 0 0 .06-.023.075.075 0 0 0 .026-.056.08.08 0 0 0-.025-.055.089.089 0 0 0-.06-.023.089.089 0 0 0-.061.023.076.076 0 0 0-.025.055Z" clip-rule="evenodd"/><path fill="currentColor" fill-rule="evenodd" d="M15.665 10.262c.022 0 .043.008.059.023a.073.073 0 0 1 .024.054c0 .02-.009.04-.024.053a.087.087 0 0 1-.06.023.087.087 0 0 1-.058-.023.073.073 0 0 1-.024-.053c0-.02.009-.04.024-.054a.087.087 0 0 1 .059-.023Zm.062.02a.091.091 0 0 0-.062-.024.091.091 0 0 0-.062.023.077.077 0 0 0-.026.058c0 .021.01.042.026.057a.09.09 0 0 0 .062.023.09.09 0 0 0 .062-.023.077.077 0 0 0 .025-.057.077.077 0 0 0-.025-.058Z" clip-rule="evenodd"/><path fill="#fff" fill-rule="evenodd" d="M15.422 10.18c0 .02.009.04.025.056a.09.09 0 0 0 .06.022.09.09 0 0 0 .06-.022.075.075 0 0 0 .025-.056.08.08 0 0 0-.025-.056.09.09 0 0 0-.06-.022.089.089 0 0 0-.06.022.076.076 0 0 0-.025.056Z" clip-rule="evenodd"/><path fill="currentColor" fill-rule="evenodd" d="M15.507 10.104c.022 0 .043.008.058.023a.073.073 0 0 1 .025.053c0 .02-.01.04-.025.054a.087.087 0 0 1-.058.023.087.087 0 0 1-.059-.023.073.073 0 0 1-.024-.054c0-.02.008-.04.024-.053a.087.087 0 0 1 .059-.023Zm.062.02a.091.091 0 0 0-.062-.024.091.091 0 0 0-.062.023.078.078 0 0 0-.026.057c0 .022.01.042.026.058a.09.09 0 0 0 .062.023.09.09 0 0 0 .062-.023.077.077 0 0 0 .025-.058.077.077 0 0 0-.025-.057Z" clip-rule="evenodd"/><path fill="#fff" fill-rule="evenodd" d="M15.21 10.075c0 .02.01.04.026.055a.09.09 0 0 0 .06.023.09.09 0 0 0 .06-.023.075.075 0 0 0 .025-.055.077.077 0 0 0-.025-.056.09.09 0 0 0-.06-.023.09.09 0 0 0-.06.023.075.075 0 0 0-.025.056Z" clip-rule="evenodd"/><path fill="currentColor" fill-rule="evenodd" d="M15.296 9.999a.09.09 0 0 1 .059.022.073.073 0 0 1 .024.054c0 .02-.009.04-.024.054a.087.087 0 0 1-.06.022.087.087 0 0 1-.058-.022.073.073 0 0 1-.024-.054c0-.02.009-.04.024-.054a.087.087 0 0 1 .059-.022Zm.062.019a.091.091 0 0 0-.062-.024.092.092 0 0 0-.062.024.078.078 0 0 0-.026.057c0 .021.01.042.026.057a.092.092 0 0 0 .062.024.092.092 0 0 0 .062-.024.078.078 0 0 0 .025-.057.078.078 0 0 0-.025-.057Z" clip-rule="evenodd"/><path fill="#fff" fill-rule="evenodd" d="M15 10.06c0 .022.009.042.025.056a.09.09 0 0 0 .06.023.089.089 0 0 0 .06-.023.076.076 0 0 0 .025-.055.08.08 0 0 0-.025-.056.089.089 0 0 0-.06-.023.09.09 0 0 0-.06.023.075.075 0 0 0-.025.056Z" clip-rule="evenodd"/><path fill="currentColor" fill-rule="evenodd" d="M15.085 9.985c.022 0 .043.008.058.022a.073.073 0 0 1 .025.054c0 .02-.009.04-.024.053a.087.087 0 0 1-.06.023.087.087 0 0 1-.058-.023.073.073 0 0 1-.024-.053c0-.02.009-.04.024-.054a.087.087 0 0 1 .059-.022Zm.062.019a.092.092 0 0 0-.062-.024.091.091 0 0 0-.062.024.077.077 0 0 0-.026.057c0 .021.01.042.026.057a.092.092 0 0 0 .062.024.092.092 0 0 0 .062-.024.078.078 0 0 0 .025-.057.078.078 0 0 0-.025-.057Z" clip-rule="evenodd"/><path fill="#fff" fill-rule="evenodd" d="M14.771 10.068c0 .02.01.04.025.055a.09.09 0 0 0 .06.023.09.09 0 0 0 .06-.023.075.075 0 0 0 .026-.055.08.08 0 0 0-.025-.056.09.09 0 0 0-.06-.023.09.09 0 0 0-.06.023.076.076 0 0 0-.026.056Z" clip-rule="evenodd"/><path fill="currentColor" fill-rule="evenodd" d="M14.856 9.991c.022 0 .043.008.059.023a.073.073 0 0 1 .024.054c0 .02-.008.04-.024.053a.087.087 0 0 1-.059.023.087.087 0 0 1-.058-.023.073.073 0 0 1-.025-.053c0-.02.01-.04.025-.054a.087.087 0 0 1 .058-.023Zm.062.02a.091.091 0 0 0-.062-.024.091.091 0 0 0-.062.023.077.077 0 0 0-.025.058c0 .021.009.042.025.057a.091.091 0 0 0 .062.023.091.091 0 0 0 .062-.023.078.078 0 0 0 .026-.057.077.077 0 0 0-.026-.058Z" clip-rule="evenodd"/><path fill="#fff" fill-rule="evenodd" d="M14.543 10.1c0 .02.009.04.025.055a.089.089 0 0 0 .06.023.09.09 0 0 0 .06-.023.075.075 0 0 0 .025-.055.077.077 0 0 0-.025-.056.09.09 0 0 0-.06-.023.089.089 0 0 0-.06.023.075.075 0 0 0-.025.056Z" clip-rule="evenodd"/><path fill="currentColor" fill-rule="evenodd" d="M14.628 10.023c.022 0 .043.008.059.023a.073.073 0 0 1 .024.053c0 .02-.009.04-.024.054a.087.087 0 0 1-.06.022.087.087 0 0 1-.058-.022.073.073 0 0 1-.024-.054c0-.02.008-.04.024-.053a.087.087 0 0 1 .059-.023Zm.062.02a.091.091 0 0 0-.062-.024.091.091 0 0 0-.062.023.078.078 0 0 0-.026.057c0 .022.01.042.026.057a.091.091 0 0 0 .062.024.092.092 0 0 0 .062-.024.077.077 0 0 0 .025-.057.078.078 0 0 0-.025-.057Z" clip-rule="evenodd"/><path fill="#fff" fill-rule="evenodd" d="M14.318 10.127c0 .021.009.041.025.056a.089.089 0 0 0 .06.023.089.089 0 0 0 .06-.023.075.075 0 0 0 .025-.056c0-.02-.009-.04-.025-.055a.09.09 0 0 0-.06-.023.09.09 0 0 0-.06.023.075.075 0 0 0-.025.055Z" clip-rule="evenodd"/><path fill="currentColor" fill-rule="evenodd" d="M14.403 10.052c.022 0 .043.008.058.022a.073.073 0 0 1 .025.054c0 .02-.01.04-.025.053a.087.087 0 0 1-.058.023.087.087 0 0 1-.059-.023.073.073 0 0 1-.024-.053c0-.02.008-.04.024-.054a.086.086 0 0 1 .059-.022Zm.061.018a.09.09 0 0 0-.061-.023.09.09 0 0 0-.062.023.077.077 0 0 0-.026.058c0 .021.01.042.026.057a.091.091 0 0 0 .062.023.091.091 0 0 0 .061-.023.077.077 0 0 0 .026-.057.077.077 0 0 0-.026-.058Z" clip-rule="evenodd"/><path fill="#fff" fill-rule="evenodd" d="M14.072 10.162c0 .021.009.041.025.056a.09.09 0 0 0 .06.023.09.09 0 0 0 .06-.023.075.075 0 0 0 .025-.056c0-.02-.009-.04-.025-.055a.09.09 0 0 0-.06-.023.09.09 0 0 0-.06.023.075.075 0 0 0-.025.055Z" clip-rule="evenodd"/><path fill="currentColor" fill-rule="evenodd" d="M14.157 10.087c.022 0 .043.008.058.022a.073.073 0 0 1 .024.054c0 .02-.008.04-.024.054a.087.087 0 0 1-.058.022.087.087 0 0 1-.06-.022.073.073 0 0 1-.023-.054c0-.02.008-.04.024-.054a.087.087 0 0 1 .059-.022Zm.061.019a.091.091 0 0 0-.061-.024.092.092 0 0 0-.062.024.078.078 0 0 0-.026.057c0 .021.01.042.026.057a.092.092 0 0 0 .062.024.091.091 0 0 0 .061-.024.078.078 0 0 0 .026-.057.077.077 0 0 0-.026-.057Z" clip-rule="evenodd"/><path fill="#fff" fill-rule="evenodd" d="M13.86 10.22c0 .02.01.04.026.055a.089.089 0 0 0 .06.022.09.09 0 0 0 .06-.022.076.076 0 0 0 .025-.056c0-.02-.009-.04-.025-.055a.09.09 0 0 0-.06-.023.089.089 0 0 0-.06.023.075.075 0 0 0-.025.055Z" clip-rule="evenodd"/><path fill="currentColor" fill-rule="evenodd" d="M13.946 10.143c.022 0 .043.008.058.022a.073.073 0 0 1 .025.054c0 .02-.01.04-.025.054a.087.087 0 0 1-.058.022.087.087 0 0 1-.059-.022.073.073 0 0 1-.024-.054c0-.02.008-.04.024-.054a.087.087 0 0 1 .059-.022Zm.062.019a.091.091 0 0 0-.062-.024.091.091 0 0 0-.062.024.078.078 0 0 0-.026.057c0 .021.01.042.026.057a.092.092 0 0 0 .062.024.092.092 0 0 0 .062-.024.078.078 0 0 0 .025-.057.078.078 0 0 0-.025-.057Z" clip-rule="evenodd"/><path fill="#fff" fill-rule="evenodd" d="M11.74 11.305a.08.08 0 0 1-.025.056.09.09 0 0 1-.06.022.09.09 0 0 1-.06-.022.075.075 0 0 1-.025-.056c0-.02.009-.04.025-.056a.089.089 0 0 1 .06-.022.09.09 0 0 1 .06.022.076.076 0 0 1 .025.056Z" clip-rule="evenodd"/><path fill="currentColor" fill-rule="evenodd" d="M11.655 11.23a.087.087 0 0 0-.059.022.073.073 0 0 0-.024.053c0 .02.009.04.024.054a.087.087 0 0 0 .059.023.087.087 0 0 0 .059-.023.073.073 0 0 0 .024-.054c0-.02-.009-.04-.024-.053a.087.087 0 0 0-.06-.023Zm-.062.018a.092.092 0 0 1 .062-.023c.023 0 .045.008.062.023a.078.078 0 0 1 .025.057.081.081 0 0 1-.025.058.091.091 0 0 1-.062.023.091.091 0 0 1-.062-.023.078.078 0 0 1-.026-.058.08.08 0 0 1 .026-.057Z" clip-rule="evenodd"/><path fill="#fff" fill-rule="evenodd" d="M11.652 11.126c0 .02-.009.04-.025.055a.09.09 0 0 1-.06.023.09.09 0 0 1-.06-.023.075.075 0 0 1-.025-.055c0-.021.009-.04.025-.056a.09.09 0 0 1 .06-.023c.023 0 .044.009.06.023a.076.076 0 0 1 .025.056Z" clip-rule="evenodd"/><path fill="currentColor" fill-rule="evenodd" d="M11.567 11.05a.087.087 0 0 0-.059.022.073.073 0 0 0-.024.054c0 .02.009.04.024.054a.087.087 0 0 0 .059.022.087.087 0 0 0 .059-.022.073.073 0 0 0 .024-.054c0-.02-.009-.04-.024-.054a.087.087 0 0 0-.059-.022Zm-.062.019a.092.092 0 0 1 .062-.024c.023 0 .045.009.062.024a.078.078 0 0 1 .026.057c0 .022-.01.042-.026.057a.091.091 0 0 1-.062.024.091.091 0 0 1-.062-.024.078.078 0 0 1-.026-.057.08.08 0 0 1 .026-.057Z" clip-rule="evenodd"/><path fill="#fff" fill-rule="evenodd" d="M11.61 10.943a.077.077 0 0 1-.025.056.09.09 0 0 1-.06.023.09.09 0 0 1-.06-.023.075.075 0 0 1-.025-.056c0-.02.008-.04.024-.055a.09.09 0 0 1 .06-.023.09.09 0 0 1 .061.023.075.075 0 0 1 .025.055Z" clip-rule="evenodd"/><path fill="currentColor" fill-rule="evenodd" d="M11.525 10.867a.087.087 0 0 0-.059.022.073.073 0 0 0-.024.054c0 .02.009.04.024.054a.087.087 0 0 0 .059.022.087.087 0 0 0 .059-.022.073.073 0 0 0 .024-.054c0-.02-.009-.04-.024-.054a.087.087 0 0 0-.059-.022Zm-.062.019a.092.092 0 0 1 .062-.024c.023 0 .045.009.062.024a.078.078 0 0 1 .026.057c0 .022-.01.042-.026.057a.091.091 0 0 1-.062.024.091.091 0 0 1-.062-.024.078.078 0 0 1-.025-.057c0-.021.009-.042.025-.057Z" clip-rule="evenodd"/><path fill="#fff" fill-rule="evenodd" d="M11.579 10.75c0 .02-.01.04-.025.055a.09.09 0 0 1-.06.023.089.089 0 0 1-.06-.023.075.075 0 0 1-.026-.055c0-.021.01-.04.025-.056a.089.089 0 0 1 .06-.023.09.09 0 0 1 .06.023.075.075 0 0 1 .026.056Z" clip-rule="evenodd"/><path fill="currentColor" fill-rule="evenodd" d="M11.493 10.674a.087.087 0 0 0-.058.022.073.073 0 0 0-.025.054c0 .02.01.04.025.053a.087.087 0 0 0 .058.023.087.087 0 0 0 .059-.023.073.073 0 0 0 .024-.053c0-.02-.008-.04-.024-.054a.087.087 0 0 0-.059-.022Zm-.062.019a.091.091 0 0 1 .062-.024c.024 0 .046.008.062.024a.078.078 0 0 1 .026.057.08.08 0 0 1-.026.057.091.091 0 0 1-.062.024.091.091 0 0 1-.062-.024.077.077 0 0 1-.025-.057c0-.022.009-.042.025-.057Z" clip-rule="evenodd"/><path fill="#fff" fill-rule="evenodd" d="M11.585 10.539c0 .02-.009.04-.025.055a.089.089 0 0 1-.06.023.09.09 0 0 1-.06-.023.075.075 0 0 1-.025-.055c0-.02.009-.04.025-.056a.09.09 0 0 1 .06-.023.09.09 0 0 1 .06.023.075.075 0 0 1 .025.056Z" clip-rule="evenodd"/><path fill="currentColor" fill-rule="evenodd" d="M11.5 10.463a.087.087 0 0 0-.059.022.073.073 0 0 0-.024.054c0 .02.009.04.024.054a.087.087 0 0 0 .06.022.087.087 0 0 0 .058-.022.073.073 0 0 0 .024-.054c0-.02-.009-.04-.024-.054a.087.087 0 0 0-.059-.022Zm-.062.019a.092.092 0 0 1 .062-.024c.023 0 .046.008.062.024a.078.078 0 0 1 .026.057.08.08 0 0 1-.026.057.091.091 0 0 1-.062.024.091.091 0 0 1-.062-.024.078.078 0 0 1-.025-.057c0-.022.009-.042.025-.057Z" clip-rule="evenodd"/><path fill="#fff" fill-rule="evenodd" d="M11.656 10.338a.08.08 0 0 1-.025.056.089.089 0 0 1-.06.023.09.09 0 0 1-.06-.023.075.075 0 0 1-.026-.056c0-.02.01-.04.025-.055a.09.09 0 0 1 .06-.023c.023 0 .045.008.06.023a.076.076 0 0 1 .026.055Z" clip-rule="evenodd"/><path fill="currentColor" fill-rule="evenodd" d="M11.57 10.262a.087.087 0 0 0-.058.023.073.073 0 0 0-.024.054c0 .02.008.04.024.053a.087.087 0 0 0 .058.023.087.087 0 0 0 .06-.023.073.073 0 0 0 .023-.053c0-.02-.008-.04-.024-.054a.087.087 0 0 0-.059-.023Zm-.061.02a.092.092 0 0 1 .061-.024.09.09 0 0 1 .062.023.078.078 0 0 1 .026.058.08.08 0 0 1-.026.057.091.091 0 0 1-.062.023.091.091 0 0 1-.061-.023.078.078 0 0 1-.026-.057.08.08 0 0 1 .026-.058Z" clip-rule="evenodd"/><path fill="#fff" fill-rule="evenodd" d="M11.81 10.18c0 .02-.008.04-.024.056a.09.09 0 0 1-.06.022.09.09 0 0 1-.06-.022.075.075 0 0 1-.026-.056c0-.02.01-.04.025-.056a.09.09 0 0 1 .06-.022c.023 0 .045.008.06.022a.076.076 0 0 1 .026.056Z" clip-rule="evenodd"/><path fill="currentColor" fill-rule="evenodd" d="M11.725 10.104a.087.087 0 0 0-.059.023.073.073 0 0 0-.024.053c0 .02.009.04.024.054a.087.087 0 0 0 .06.023.087.087 0 0 0 .058-.023.073.073 0 0 0 .024-.054c0-.02-.008-.04-.024-.053a.087.087 0 0 0-.059-.023Zm-.062.02a.092.092 0 0 1 .062-.024c.023 0 .046.008.062.023a.078.078 0 0 1 .026.057c0 .022-.01.042-.026.058a.091.091 0 0 1-.062.023.091.091 0 0 1-.062-.023.078.078 0 0 1-.025-.058c0-.021.009-.042.025-.057Z" clip-rule="evenodd"/><path fill="#fff" fill-rule="evenodd" d="M12.025 10.075c0 .02-.009.04-.025.055a.09.09 0 0 1-.06.023.089.089 0 0 1-.06-.023.075.075 0 0 1-.026-.055c0-.021.01-.041.026-.056a.089.089 0 0 1 .06-.023.09.09 0 0 1 .06.023.075.075 0 0 1 .025.056Z" clip-rule="evenodd"/><path fill="currentColor" fill-rule="evenodd" d="M11.94 9.999a.087.087 0 0 0-.06.022.073.073 0 0 0-.023.054c0 .02.008.04.024.054a.087.087 0 0 0 .059.022.087.087 0 0 0 .058-.022.073.073 0 0 0 .025-.054c0-.02-.01-.04-.025-.054A.087.087 0 0 0 11.94 10Zm-.062.019a.091.091 0 0 1 .062-.024.09.09 0 0 1 .061.024.078.078 0 0 1 .026.057.08.08 0 0 1-.026.057.091.091 0 0 1-.061.024.091.091 0 0 1-.062-.024.078.078 0 0 1-.026-.057c0-.022.01-.042.026-.057Z" clip-rule="evenodd"/><path fill="#fff" fill-rule="evenodd" d="M12.236 10.06a.08.08 0 0 1-.025.056.089.089 0 0 1-.06.023.09.09 0 0 1-.06-.023.075.075 0 0 1-.026-.056c0-.02.01-.04.025-.055a.09.09 0 0 1 .06-.023c.023 0 .045.008.06.023a.075.075 0 0 1 .026.055Z" clip-rule="evenodd"/><path fill="currentColor" fill-rule="evenodd" d="M12.15 9.985a.087.087 0 0 0-.058.022.073.073 0 0 0-.024.054c0 .02.008.04.024.053a.087.087 0 0 0 .058.023.087.087 0 0 0 .06-.023.073.073 0 0 0 .023-.053c0-.02-.008-.04-.024-.054a.086.086 0 0 0-.059-.022Zm-.061.019a.091.091 0 0 1 .061-.024c.024 0 .046.008.062.024a.078.078 0 0 1 .026.057.08.08 0 0 1-.026.057.092.092 0 0 1-.062.024.092.092 0 0 1-.061-.024.078.078 0 0 1-.026-.057c0-.022.01-.042.026-.057Z" clip-rule="evenodd"/><path fill="#fff" fill-rule="evenodd" d="M12.464 10.068c0 .02-.008.04-.024.055a.09.09 0 0 1-.06.023.09.09 0 0 1-.061-.023.075.075 0 0 1-.025-.055c0-.021.009-.041.025-.056a.09.09 0 0 1 .06-.023.09.09 0 0 1 .06.023.076.076 0 0 1 .025.056Z" clip-rule="evenodd"/><path fill="currentColor" fill-rule="evenodd" d="M12.379 9.991a.087.087 0 0 0-.059.023.073.073 0 0 0-.024.054c0 .02.009.04.024.053a.087.087 0 0 0 .059.023.087.087 0 0 0 .059-.023.073.073 0 0 0 .024-.053c0-.02-.009-.04-.024-.054a.087.087 0 0 0-.059-.023Zm-.062.02a.091.091 0 0 1 .062-.024c.023 0 .046.008.062.023a.078.078 0 0 1 .026.058.08.08 0 0 1-.026.057.091.091 0 0 1-.062.023.091.091 0 0 1-.062-.023.078.078 0 0 1-.026-.057.08.08 0 0 1 .026-.058Z" clip-rule="evenodd"/><path fill="#fff" fill-rule="evenodd" d="M12.693 10.1c0 .02-.009.04-.025.055a.09.09 0 0 1-.06.023.09.09 0 0 1-.06-.023.075.075 0 0 1-.025-.055c0-.021.008-.041.024-.056a.09.09 0 0 1 .06-.023.09.09 0 0 1 .061.023.075.075 0 0 1 .025.056Z" clip-rule="evenodd"/><path fill="currentColor" fill-rule="evenodd" d="M12.608 10.023a.087.087 0 0 0-.06.023.073.073 0 0 0-.023.053c0 .02.008.04.024.054a.087.087 0 0 0 .059.022.087.087 0 0 0 .058-.022.073.073 0 0 0 .024-.054c0-.02-.008-.04-.024-.053a.087.087 0 0 0-.058-.023Zm-.062.02a.092.092 0 0 1 .062-.024c.023 0 .045.008.061.023a.078.078 0 0 1 .026.057c0 .022-.01.042-.026.057a.092.092 0 0 1-.061.024.092.092 0 0 1-.062-.024.078.078 0 0 1-.026-.057.08.08 0 0 1 .026-.057Z" clip-rule="evenodd"/><path fill="#fff" fill-rule="evenodd" d="M12.921 10.127a.076.076 0 0 1-.024.056.09.09 0 0 1-.06.023.09.09 0 0 1-.061-.023.076.076 0 0 1-.025-.056c0-.02.009-.04.025-.055a.09.09 0 0 1 .06-.023.09.09 0 0 1 .06.023.075.075 0 0 1 .025.055Z" clip-rule="evenodd"/><path fill="currentColor" fill-rule="evenodd" d="M12.836 10.052a.086.086 0 0 0-.059.022.073.073 0 0 0-.024.054c0 .02.009.04.024.053a.087.087 0 0 0 .06.023.087.087 0 0 0 .058-.023.073.073 0 0 0 .024-.053c0-.02-.009-.04-.024-.054a.086.086 0 0 0-.059-.022Zm-.062.018a.091.091 0 0 1 .062-.023c.023 0 .046.008.062.023a.077.077 0 0 1 .026.058.08.08 0 0 1-.026.057.092.092 0 0 1-.062.023.092.092 0 0 1-.062-.023.078.078 0 0 1-.025-.057c0-.022.009-.042.025-.058Z" clip-rule="evenodd"/><path fill="#fff" fill-rule="evenodd" d="M13.164 10.162a.077.077 0 0 1-.025.056.089.089 0 0 1-.06.023.09.09 0 0 1-.06-.023.075.075 0 0 1-.025-.056c0-.02.009-.04.025-.055a.09.09 0 0 1 .06-.023c.022 0 .044.008.06.023a.075.075 0 0 1 .025.055Z" clip-rule="evenodd"/><path fill="currentColor" fill-rule="evenodd" d="M13.079 10.087a.087.087 0 0 0-.059.022.073.073 0 0 0-.024.054c0 .02.008.04.024.054a.087.087 0 0 0 .059.022.087.087 0 0 0 .058-.022.073.073 0 0 0 .025-.054c0-.02-.009-.04-.025-.054a.087.087 0 0 0-.058-.022Zm-.062.019a.092.092 0 0 1 .062-.024.09.09 0 0 1 .062.024.078.078 0 0 1 .025.057.079.079 0 0 1-.025.057.092.092 0 0 1-.062.024.092.092 0 0 1-.062-.024.078.078 0 0 1-.026-.057c0-.022.01-.042.026-.057Z" clip-rule="evenodd"/><path fill="#fff" fill-rule="evenodd" d="M13.375 10.219c0 .02-.009.04-.025.055a.09.09 0 0 1-.06.023.089.089 0 0 1-.06-.023.075.075 0 0 1-.025-.055c0-.021.009-.041.025-.056a.089.089 0 0 1 .06-.023.09.09 0 0 1 .06.023.075.075 0 0 1 .025.056Z" clip-rule="evenodd"/><path fill="currentColor" fill-rule="evenodd" d="M13.29 10.143a.087.087 0 0 0-.059.022.073.073 0 0 0-.024.054c0 .02.008.04.024.054a.087.087 0 0 0 .059.022.087.087 0 0 0 .058-.022.073.073 0 0 0 .025-.054c0-.02-.01-.04-.025-.054a.087.087 0 0 0-.058-.022Zm-.062.019a.09.09 0 0 1 .062-.024c.023 0 .045.009.062.024a.078.078 0 0 1 .025.057.08.08 0 0 1-.026.057.092.092 0 0 1-.061.024.091.091 0 0 1-.062-.024.078.078 0 0 1-.026-.057.08.08 0 0 1 .026-.057Z" clip-rule="evenodd"/><path fill="#fff" fill-rule="evenodd" d="M11.86 11.463a.08.08 0 0 1-.025.056.089.089 0 0 1-.06.023.09.09 0 0 1-.06-.023.075.075 0 0 1-.025-.056c0-.02.008-.04.024-.055a.09.09 0 0 1 .06-.023c.023 0 .045.008.06.023a.076.076 0 0 1 .026.055Z" clip-rule="evenodd"/><path fill="currentColor" fill-rule="evenodd" d="M11.775 11.387a.087.087 0 0 0-.06.023.073.073 0 0 0-.023.054c0 .02.008.04.024.053a.087.087 0 0 0 .059.023.087.087 0 0 0 .058-.023.073.073 0 0 0 .024-.053c0-.02-.008-.04-.024-.054a.087.087 0 0 0-.058-.023Zm-.062.02a.092.092 0 0 1 .062-.024c.023 0 .045.008.061.023a.078.078 0 0 1 .026.058.08.08 0 0 1-.026.057.091.091 0 0 1-.061.023.091.091 0 0 1-.062-.023.078.078 0 0 1-.026-.057.08.08 0 0 1 .026-.058Z" clip-rule="evenodd"/><path fill="#FFF100" fill-rule="evenodd" d="M11.918 11.47s-.326-.23-.335-.784c-.005-.318.165-.548.59-.548.596 0 1.447.235 1.447.235v.078s-.68-.235-1.447-.235c-.34 0-.51.23-.51.465 0 .392.34.789.34.789v.626h-.085v-.627Z" clip-rule="evenodd"/><path fill="currentColor" fill-rule="evenodd" d="M11.585 10.686a.53.53 0 0 1 .134-.392l-.134.392Zm.134-.392c.094-.096.242-.154.455-.154l-.455.154Zm-.004-.003c.096-.098.245-.155.459-.155.298 0 .66.059.946.117a9.257 9.257 0 0 1 .49.115l.008.002h.002v.003-.002h.002v.083h-.003v-.003.002h-.002a.516.516 0 0 0-1.825-.09.454.454 0 0 0-.127.318c0 .196.085.392.17.54a1.912 1.912 0 0 0 .156.23l.01.012.003.003.001.002-.001.001.001-.001v.63h-.09v-.628l-.002-.002-.01-.008a.839.839 0 0 1-.15-.174 1.11 1.11 0 0 1-.172-.6.536.536 0 0 1 .134-.395Zm.203 1.178h.003v.624H12v-.623l-.003-.004a.793.793 0 0 1-.05-.063 1.893 1.893 0 0 1-.117-.18c-.085-.148-.17-.345-.17-.542 0-.118.042-.235.128-.322a.52.52 0 0 1 .384-.145 5.037 5.037 0 0 1 1.416.225l.023.007.005.002v-.074c-.002 0-.005 0-.008-.002l-.028-.007a7.502 7.502 0 0 0-.462-.107 5.096 5.096 0 0 0-.945-.118m-.256 1.329.002-.002h-.001l-.003-.003a.843.843 0 0 1-.16-.18 1.106 1.106 0 0 1-.17-.598" clip-rule="evenodd"/><path fill="#FFF100" fill-rule="evenodd" d="M12.51 11.76s.025-.06.114-.06c.06 0 .114.06.114.12v.119h.056v-.12c0-.06.057-.119.114-.119.085 0 .113.06.113.06s0-.18-.113-.18c-.085 0-.114.06-.114.06s.029-.09.029-.179a.23.23 0 0 0-.057-.149c0 .011-.057.06-.057.15 0 .089.029.178.029.178s-.029-.06-.114-.06c-.113 0-.113.18-.113.18Z" clip-rule="evenodd"/><path fill="currentColor" fill-rule="evenodd" d="M12.768 11.31h.001l.002.002.006.009a.236.236 0 0 1 .049.14.618.618 0 0 1-.024.164.135.135 0 0 1 .107-.047c.058 0 .087.046.1.09a.244.244 0 0 1 .013.063l.002.02v.007h-.002.002l-.004.002-.002-.002a.109.109 0 0 0-.023-.027.131.131 0 0 0-.087-.03.109.109 0 0 0-.076.037.12.12 0 0 0-.035.08v.122h-.061v-.121a.12.12 0 0 0-.034-.08.108.108 0 0 0-.077-.037.13.13 0 0 0-.089.029.1.1 0 0 0-.018.02l-.003.007-.001.001h-.005v-.008a.33.33 0 0 1 .014-.082c.014-.045.043-.091.102-.091.043 0 .072.015.09.03a.114.114 0 0 1 .016.017.761.761 0 0 1-.024-.165c0-.045.015-.08.029-.105l.019-.028v-.002a.154.154 0 0 0 .007-.009l.002-.003v-.008l.004.005Zm-.032.33-.001-.002a.107.107 0 0 0-.023-.027.131.131 0 0 0-.087-.029c-.055 0-.083.044-.097.088a.315.315 0 0 0-.014.079.102.102 0 0 1 .019-.022.135.135 0 0 1 .092-.03c.03 0 .06.015.08.038a.126.126 0 0 1 .036.084v.116h.051v-.116c0-.031.015-.061.037-.084a.114.114 0 0 1 .08-.038c.042 0 .071.015.09.03a.118.118 0 0 1 .019.021l.001.002c0-.005 0-.011-.002-.019a.322.322 0 0 0-.012-.06c-.014-.045-.042-.089-.097-.089a.131.131 0 0 0-.087.03.104.104 0 0 0-.023.026v.002l-.005-.001v-.004l.004-.011a.71.71 0 0 0 .024-.164.225.225 0 0 0-.047-.137l-.006-.007-.002.003a.165.165 0 0 1-.007.01.335.335 0 0 0-.019.029.202.202 0 0 0-.028.102.617.617 0 0 0 .028.178l-.004.003Z" clip-rule="evenodd"/><path fill="#FFF100" fill-rule="evenodd" d="M14.212 11.76s.025-.06.114-.06c.06 0 .113.06.113.12v.119h.057v-.12c0-.06.057-.119.113-.119.085 0 .114.06.114.06s0-.18-.114-.18c-.085 0-.113.06-.113.06s.028-.09.028-.179c0-.09-.056-.149-.056-.149 0 .011-.057.06-.057.15 0 .089.028.178.028.178s-.028-.06-.113-.06c-.114 0-.114.18-.114.18Z" clip-rule="evenodd"/><path fill="currentColor" fill-rule="evenodd" d="m14.47 11.31.002.002a.226.226 0 0 1 .026.039.23.23 0 0 1 .03.11.618.618 0 0 1-.025.164.114.114 0 0 1 .017-.017.136.136 0 0 1 .09-.03c.058 0 .087.046.101.09a.319.319 0 0 1 .015.083v.007h-.003.003l-.005.002-.001-.002a.111.111 0 0 0-.023-.027.132.132 0 0 0-.087-.03.11.11 0 0 0-.076.037.12.12 0 0 0-.035.08v.122h-.062v-.121a.12.12 0 0 0-.033-.08.107.107 0 0 0-.078-.037.13.13 0 0 0-.088.029.1.1 0 0 0-.022.027v.001h-.006v-.008a.316.316 0 0 1 .015-.082c.014-.045.043-.091.101-.091a.135.135 0 0 1 .107.047.746.746 0 0 1-.024-.165c0-.045.014-.08.029-.105l.018-.028.001-.002a.163.163 0 0 0 .007-.009l.001-.003v-.008l.005.005Zm-.033.33v-.002a.103.103 0 0 0-.024-.026.131.131 0 0 0-.087-.03c-.055 0-.082.044-.097.088a.322.322 0 0 0-.013.079.099.099 0 0 1 .019-.022.135.135 0 0 1 .091-.03.125.125 0 0 1 .116.122v.117h.052v-.117c0-.031.015-.061.036-.084a.114.114 0 0 1 .08-.038c.043 0 .072.015.09.03.01.008.016.015.02.021v.002-.019a.315.315 0 0 0-.013-.06c-.014-.045-.042-.089-.097-.089a.131.131 0 0 0-.087.03.107.107 0 0 0-.024.028l-.005-.001v-.001a.167.167 0 0 1 .005-.014.723.723 0 0 0 .023-.164.226.226 0 0 0-.053-.144l-.001.003a.203.203 0 0 0-.054.142.61.61 0 0 0 .027.174v.003h.001l-.005.003Z" clip-rule="evenodd"/><path fill="#FFF100" fill-rule="evenodd" d="M11.918 12.566v-.705s.17.235.425.235c.209 0 .425-.314.425-.314s.2.236.426.236c.201 0 .425-.304.425-.304s.207.304.425.304c.219 0 .426-.236.426-.236s.222.314.51.314c.255 0 .34-.235.34-.235v.705h-3.402Z" clip-rule="evenodd"/><path fill="currentColor" fill-rule="evenodd" d="m13.621 11.713-.002.001h-.002l.002-.004.002.003Zm.85.07-.003-.002.002-.002.002.002-.002.002Zm-.001.003a.383.383 0 0 1-.034.035.983.983 0 0 1-.095.08.524.524 0 0 1-.296.119c-.11 0-.217-.076-.296-.152a1.115 1.115 0 0 1-.122-.14l-.007-.009h-.002a.473.473 0 0 1-.035.044 1.259 1.259 0 0 1-.1.105.772.772 0 0 1-.136.104.313.313 0 0 1-.153.048.52.52 0 0 1-.299-.118.923.923 0 0 1-.119-.108l-.007-.007a.414.414 0 0 1-.036.046 1.05 1.05 0 0 1-.097.108.743.743 0 0 1-.137.108.312.312 0 0 1-.156.05.506.506 0 0 1-.31-.119.723.723 0 0 1-.11-.108c0-.002-.002-.003-.003-.004v.695h3.399v-.69a.428.428 0 0 1-.07.108.35.35 0 0 1-.268.117.582.582 0 0 1-.365-.157 1.023 1.023 0 0 1-.146-.155Zm.849.074-.001.003-.003.007a.376.376 0 0 1-.07.107.346.346 0 0 1-.264.117.577.577 0 0 1-.362-.157 1.013 1.013 0 0 1-.137-.142l-.007-.01-.002-.003h-.003l-.002-.001-.002.003-.007.007a.987.987 0 0 1-.121.107.52.52 0 0 1-.293.117c-.108 0-.214-.075-.293-.15a1.107 1.107 0 0 1-.129-.149l-.001-.002h-.005l-.002.002-.008.01a1.211 1.211 0 0 1-.126.138.77.77 0 0 1-.136.104.308.308 0 0 1-.15.047.516.516 0 0 1-.297-.117.922.922 0 0 1-.118-.107l-.007-.007-.002-.002v-.001l-.002-.002-.002.002v.001l-.003.003-.007.01a1.065 1.065 0 0 1-.124.143.736.736 0 0 1-.136.107.307.307 0 0 1-.154.049.501.501 0 0 1-.307-.117.714.714 0 0 1-.109-.108l-.005-.007-.002-.002-.005-.006v.714h3.408v-.707l-.004-.001Z" clip-rule="evenodd"/><path fill="#FFF100" fill-rule="evenodd" d="M11.918 12.566v-.548s.51.156.51.548h-.51Z" clip-rule="evenodd"/><path fill="currentColor" fill-rule="evenodd" d="M11.919 12.015v.002-.002h.002l.004.002.016.006a.969.969 0 0 1 .234.12c.128.088.256.225.256.422v.003h-.515v-.554l.003.001Zm.002.005v.543h.506c-.002-.194-.128-.33-.255-.417a1.044 1.044 0 0 0-.251-.126Z" clip-rule="evenodd"/><path fill="#FFF100" fill-rule="evenodd" d="M15.317 12.566v-.548s-.51.156-.51.548h.51Z" clip-rule="evenodd"/><path fill="currentColor" fill-rule="evenodd" d="m15.316 12.015.001.002v-.002h-.002l-.004.002a1.272 1.272 0 0 0-.075.029 1.05 1.05 0 0 0-.176.096c-.127.089-.256.226-.256.423v.003h.515v-.554l-.003.001Zm-.001.005v.543h-.506c0-.194.127-.33.254-.417a1.044 1.044 0 0 1 .252-.126Z" clip-rule="evenodd"/><path fill="#FFF100" fill-rule="evenodd" d="M12.258 12.565c0-.392.51-.64.51-.64s.51.248.51.64h-1.02Z" clip-rule="evenodd"/><path fill="currentColor" fill-rule="evenodd" d="m12.77 11.923-.001.002-.001-.002h.002Zm-.001.005-.005.002a1.104 1.104 0 0 0-.074.042c-.048.03-.111.073-.175.128-.127.11-.254.269-.255.463h1.017c-.001-.194-.128-.353-.255-.463a1.341 1.341 0 0 0-.253-.172Zm-.001-.005v.002l.002-.002.001.001a.21.21 0 0 0 .004.002l.017.009.058.033c.048.03.111.073.175.128.128.111.256.272.256.469v.002h-1.025v-.002c0-.197.128-.357.256-.469a1.325 1.325 0 0 1 .234-.161l.016-.009a.21.21 0 0 0 .004-.002h.001Z" clip-rule="evenodd"/><path fill="#FFF100" fill-rule="evenodd" d="M13.96 12.565c0-.392.51-.64.51-.64s.51.248.51.64h-1.02Z" clip-rule="evenodd"/><path fill="currentColor" fill-rule="evenodd" d="M14.471 11.923v.002l-.002-.002h.002Zm0 .005h-.001l-.004.002a1.795 1.795 0 0 0-.074.042c-.048.03-.112.073-.175.128-.127.11-.254.269-.255.463h1.016c0-.194-.127-.353-.254-.463a1.335 1.335 0 0 0-.249-.17l-.004-.002Zm-.002-.005.001.002.001-.002.002.001.004.002.016.009.058.033c.048.03.112.073.176.128.128.111.256.272.256.469v.002h-1.026v-.002c0-.197.129-.357.256-.469a1.338 1.338 0 0 1 .234-.161l.017-.009.004-.002h.001Z" clip-rule="evenodd"/><path fill="#FFF100" fill-rule="evenodd" d="M13.024 12.567c0-.391.596-.704.596-.704s.595.313.595.704h-1.191Z" clip-rule="evenodd"/><path fill="currentColor" fill-rule="evenodd" d="M13.62 11.86v.003l-.002-.003h.002Zm0 .005h-.001l-.005.003-.02.01a1.689 1.689 0 0 0-.271.192c-.149.126-.296.3-.297.495h1.186c0-.194-.148-.369-.297-.495a1.821 1.821 0 0 0-.29-.202l-.005-.003Zm-.002-.005.001.003.001-.003.002.001.005.003a1.713 1.713 0 0 1 .291.202c.15.127.299.304.299.501v.002h-1.196v-.002c0-.197.15-.374.299-.5a1.84 1.84 0 0 1 .291-.203l.005-.003h.002Z" clip-rule="evenodd"/><path fill="#fff" fill-rule="evenodd" d="M15.405 12.566c-.168-.078-.789-.156-1.787-.156-.998 0-1.662.078-1.83.156-.168.078-.168.235 0 .313.168.079.832.157 1.83.157.998 0 1.618-.078 1.787-.156.168-.079.168-.236 0-.314Z" clip-rule="evenodd"/><path fill="currentColor" fill-rule="evenodd" d="M12.392 12.456a13.5 13.5 0 0 1 1.226-.05c.5 0 .904.02 1.205.05.15.014.275.031.373.05a.965.965 0 0 1 .21.057c.084.04.127.1.127.16s-.043.119-.127.158a.965.965 0 0 1-.21.058 4.34 4.34 0 0 1-.373.05c-.3.03-.706.049-1.205.049-.499 0-.914-.02-1.226-.05a4.727 4.727 0 0 1-.388-.05.985.985 0 0 1-.217-.057c-.085-.04-.127-.099-.127-.159s.043-.12.127-.159a.987.987 0 0 1 .217-.057 4.73 4.73 0 0 1 .388-.05Zm-.603.112c-.084.039-.125.097-.125.154 0 .058.041.116.125.155a.98.98 0 0 0 .216.057c.101.018.231.036.387.05.312.03.727.05 1.226.05.5 0 .904-.02 1.205-.05a4.27 4.27 0 0 0 .372-.05.96.96 0 0 0 .209-.057c.084-.04.125-.097.125-.155 0-.057-.041-.115-.125-.154a.96.96 0 0 0-.21-.058 4.365 4.365 0 0 0-.371-.05c-.3-.03-.706-.049-1.205-.049-.499 0-.914.02-1.226.05a4.764 4.764 0 0 0-.387.05.984.984 0 0 0-.216.057Z" clip-rule="evenodd"/><path fill="gray" fill-rule="evenodd" d="M15.321 12.878c0 .158-1.417.158-1.701.158-.31 0-1.702.042-1.702-.158 0-.155 1.403-.155 1.702-.155.295 0 1.701.032 1.701.155Z" clip-rule="evenodd"/><path fill="#C00" fill-rule="evenodd" d="M12.087 12.316c0 .052-.035.094-.085.094-.049 0-.084-.042-.084-.095 0-.052.035-.09.084-.09.046 0 .085.041.085.09Zm3.234 0c0 .052-.039.094-.088.094-.046 0-.084-.042-.084-.095 0-.052.039-.09.084-.09.05 0 .085.041.085.09h.003Z" clip-rule="evenodd"/><path fill="currentColor" fill-rule="evenodd" d="M13.788 12.27c0 .049-.077.091-.168.091-.092 0-.173-.042-.173-.095s.078-.091.173-.091c.094 0 .168.042.168.091v.004Z" clip-rule="evenodd"/><path fill="#006300" fill-rule="evenodd" d="M14.604 12.27c0 .049-.056.091-.127.091-.07 0-.126-.042-.126-.095s.056-.091.126-.091.127.042.127.091v.004Zm-1.75 0c0 .049-.057.091-.127.091s-.13-.042-.13-.095.056-.091.13-.091c.07 0 .126.042.126.091v.004Z" clip-rule="evenodd"/><path fill="#FFF100" fill-rule="evenodd" d="M13.278 11.73s.097-.133.195-.133h.097v.089c0 .134-.146.179-.146.179h.389s-.146-.045-.146-.18v-.088h.097c.098 0 .195.134.195.134v-.359s-.098.135-.195.135h-.097v-.09c0-.134.146-.179.146-.179h-.39s.146.045.146.18v.089h-.097c-.097 0-.194-.135-.194-.135v.359Z" clip-rule="evenodd"/><path fill="currentColor" fill-rule="evenodd" d="M13.423 11.241v-.006h.39v.006l-.005.002a.268.268 0 0 0-.066.037.17.17 0 0 0-.072.137v.087h.094c.048 0 .096-.033.132-.067a.509.509 0 0 0 .056-.06l.003-.005v-.001h.001l.005-.008v.377l-.005-.008v-.001a.419.419 0 0 0-.06-.065c-.037-.034-.084-.067-.132-.067h-.094v.087c0 .066.036.11.072.137a.27.27 0 0 0 .066.037l.004.002h.001v.006h-.389v-.006l.005-.002a.27.27 0 0 0 .066-.037.17.17 0 0 0 .072-.137v-.087h-.094c-.048 0-.096.033-.132.066a.513.513 0 0 0-.056.061l-.004.004v.002l-.006.005v-.374l.005.008.001.001.003.004a.497.497 0 0 0 .056.061c.037.034.085.067.132.067h.095v-.087a.17.17 0 0 0-.072-.137.263.263 0 0 0-.066-.037l-.005-.002h-.001Zm.017 0 .008.004a.262.262 0 0 1 .05.03.176.176 0 0 1 .074.142v.093h-.1c-.05 0-.099-.035-.135-.068a.509.509 0 0 1-.056-.061v.341a.51.51 0 0 1 .056-.06c.036-.034.086-.069.136-.069h.1v.093a.176.176 0 0 1-.074.142.27.27 0 0 1-.06.034h.358a.27.27 0 0 1-.059-.034.176.176 0 0 1-.074-.142v-.092h.1c.05 0 .1.034.136.068a.538.538 0 0 1 .044.046l.012.014v-.341l-.012.014a.523.523 0 0 1-.044.047c-.037.033-.086.068-.136.068h-.1v-.093c0-.068.037-.114.074-.142a.265.265 0 0 1 .059-.034h-.357Z" clip-rule="evenodd"/><path fill="#FFF100" fill-rule="evenodd" d="M11.916 12.017h.097s-.073-.039-.073-.156v-.078h.049c.049 0 .097.117.097.117v-.313s-.048.117-.097.117h-.049v-.078c0-.118.073-.157.073-.157h-.097v.548Z" clip-rule="evenodd"/><path fill="currentColor" fill-rule="evenodd" d="M11.913 11.467h.1l.001.006c-.001 0-.002 0-.003.002a.122.122 0 0 0-.032.031.196.196 0 0 0-.036.12v.076h.045c.011 0 .023-.007.034-.017a.213.213 0 0 0 .03-.04.455.455 0 0 0 .029-.054l.002-.003v-.001h.006v.314l-.006.001V11.9l-.002-.004a.532.532 0 0 0-.028-.053.213.213 0 0 0-.03-.04c-.012-.01-.024-.018-.035-.018h-.045v.076c0 .058.018.096.036.12.009.012.018.02.024.026l.008.006.002.001h.001l-.001.006h-.1v-.554Zm.09.548L12 12.013a.146.146 0 0 1-.025-.027.202.202 0 0 1-.037-.124v-.081h.051c.014 0 .027.008.038.019a.21.21 0 0 1 .032.04c.009.016.017.03.022.042l.003.006V11.6l-.003.006a.434.434 0 0 1-.022.04.214.214 0 0 1-.032.042c-.011.011-.024.019-.038.019h-.051v-.081c0-.06.018-.1.037-.124a.142.142 0 0 1 .025-.027l.004-.003h-.085v.542h.085Z" clip-rule="evenodd"/><path fill="#FFF100" fill-rule="evenodd" d="M15.32 12.017h-.098s.074-.039.074-.156v-.078h-.049c-.049 0-.098.117-.098.117v-.313s.05.117.098.117h.049v-.078c0-.118-.073-.157-.073-.157h.097v.548Z" clip-rule="evenodd"/><path fill="currentColor" fill-rule="evenodd" d="M15.323 11.467h-.1l-.001.006s.002 0 .003.002a.145.145 0 0 1 .033.032.196.196 0 0 1 .035.12v.075h-.045c-.011 0-.023-.007-.034-.017a.217.217 0 0 1-.031-.04.43.43 0 0 1-.028-.054l-.002-.003v-.001h-.006v.314l.006.001V11.9l.002-.004a.341.341 0 0 1 .028-.053c.01-.015.02-.03.03-.04.012-.01.024-.018.035-.018h.045v.076a.197.197 0 0 1-.036.12.145.145 0 0 1-.024.026l-.008.006-.003.001.001.006h.1v-.554Zm-.09.548.003-.002a.149.149 0 0 0 .026-.027.203.203 0 0 0 .037-.124v-.081h-.051c-.014 0-.027.008-.038.019a.219.219 0 0 0-.032.04.444.444 0 0 0-.025.048V11.6l.003.006a.431.431 0 0 0 .022.04c.01.016.02.03.032.042.011.011.024.019.037.019h.052v-.081a.202.202 0 0 0-.037-.124.146.146 0 0 0-.03-.03h.086v.542h-.085Z" clip-rule="evenodd"/><path fill="#fff" fill-rule="evenodd" d="M13.704 11.547a.077.077 0 0 1-.025.056.089.089 0 0 1-.06.023.089.089 0 0 1-.06-.023.075.075 0 0 1-.025-.056c0-.02.01-.04.025-.055a.089.089 0 0 1 .06-.023c.023 0 .044.008.06.023a.075.075 0 0 1 .025.055Z" clip-rule="evenodd"/><path fill="currentColor" fill-rule="evenodd" d="M13.619 11.472a.086.086 0 0 0-.059.022.073.073 0 0 0-.024.054c0 .02.009.04.024.053a.087.087 0 0 0 .059.023.087.087 0 0 0 .059-.023.073.073 0 0 0 .024-.053c0-.02-.009-.04-.024-.054a.087.087 0 0 0-.059-.022Zm-.062.019a.09.09 0 0 1 .062-.024c.023 0 .045.009.062.024a.077.077 0 0 1 .025.057.079.079 0 0 1-.025.057.091.091 0 0 1-.062.023.091.091 0 0 1-.062-.023.077.077 0 0 1-.025-.057c0-.022.009-.042.025-.057Z" clip-rule="evenodd"/><path fill="#FFF100" fill-rule="evenodd" d="M13.278 10.085s.097-.134.195-.134h.097v.09c0 .133-.146.178-.146.178h.389s-.146-.044-.146-.179v-.089h.097c.098 0 .195.134.195.134v-.358s-.098.134-.195.134h-.097v-.09c0-.134.146-.178.146-.178h-.39s.146.044.146.179v.09h-.097c-.097 0-.194-.135-.194-.135v.358Z" clip-rule="evenodd"/><path fill="currentColor" fill-rule="evenodd" d="M13.423 9.595V9.59h.39v.006a.394.394 0 0 0-.022.008.264.264 0 0 0-.05.03.17.17 0 0 0-.071.138v.086h.094c.048 0 .096-.033.132-.066a.505.505 0 0 0 .056-.061l.003-.004v-.001h.001l.005-.008v.376l-.005-.007v-.002a.345.345 0 0 0-.015-.02.495.495 0 0 0-.045-.045c-.037-.033-.084-.066-.132-.066h-.094v.086c0 .066.036.11.072.138a.266.266 0 0 0 .066.036l.004.002h.001v.006h-.389v-.005l.005-.003a.283.283 0 0 0 .066-.036.17.17 0 0 0 .072-.138v-.086h-.094c-.048 0-.096.033-.132.066a.528.528 0 0 0-.056.06l-.004.005v.001l-.006.006v-.374l.005.007.001.002.003.004a.418.418 0 0 0 .056.06c.037.034.085.067.132.067h.095v-.086a.17.17 0 0 0-.072-.138.263.263 0 0 0-.066-.036l-.005-.002h-.001Zm.017 0a.316.316 0 0 1 .058.035.176.176 0 0 1 .074.142v.092h-.1c-.05 0-.099-.034-.135-.068a.515.515 0 0 1-.056-.06v.34a.51.51 0 0 1 .056-.06c.036-.034.086-.068.136-.068h.1v.092a.176.176 0 0 1-.074.142.272.272 0 0 1-.06.034h.358a.272.272 0 0 1-.059-.034.176.176 0 0 1-.074-.142v-.092h.1c.05 0 .1.034.136.068a.538.538 0 0 1 .044.046l.012.015v-.342l-.012.015a.53.53 0 0 1-.044.046c-.037.034-.086.068-.136.068h-.1v-.092c0-.069.037-.114.074-.142a.27.27 0 0 1 .059-.034h-.357Z" clip-rule="evenodd"/><path fill="#fff" fill-rule="evenodd" d="M13.711 9.917c0 .02-.009.04-.025.055a.089.089 0 0 1-.06.023.09.09 0 0 1-.06-.023.075.075 0 0 1-.025-.055c0-.021.009-.041.025-.056a.09.09 0 0 1 .06-.023c.023 0 .044.009.06.023a.075.075 0 0 1 .025.056Z" clip-rule="evenodd"/><path fill="currentColor" fill-rule="evenodd" d="M13.626 9.84a.087.087 0 0 0-.058.023.073.073 0 0 0-.024.053c0 .02.008.04.024.054a.087.087 0 0 0 .058.022.087.087 0 0 0 .059-.022.073.073 0 0 0 .024-.054.073.073 0 0 0-.024-.053.087.087 0 0 0-.059-.022Zm-.061.02a.091.091 0 0 1 .061-.024.09.09 0 0 1 .062.023.078.078 0 0 1 .026.057c0 .022-.01.042-.026.057a.091.091 0 0 1-.062.024.091.091 0 0 1-.061-.024.077.077 0 0 1-.026-.057c0-.021.01-.041.026-.057Z" clip-rule="evenodd"/><path fill="#FFF100" fill-rule="evenodd" d="M13.45 10.218h.34v.235h-.341v-.235Z" clip-rule="evenodd"/><path fill="currentColor" fill-rule="evenodd" d="M13.447 10.215h.345v.24h-.346v-.24Zm.004.005v.23h.336v-.23h-.336Z" clip-rule="evenodd"/><path fill="#FFF100" fill-rule="evenodd" d="M13.45 10.34h.34v.896h-.341v-.895Z" clip-rule="evenodd"/><path fill="currentColor" fill-rule="evenodd" d="M13.447 10.339h.345v.9h-.346v-.9Zm.004.005v.89h.336v-.89h-.336Z" clip-rule="evenodd"/><path fill="#fff" fill-rule="evenodd" d="M13.702 11.076a.08.08 0 0 1-.025.056.089.089 0 0 1-.06.023.09.09 0 0 1-.06-.023.075.075 0 0 1-.026-.056c0-.02.01-.04.025-.055a.09.09 0 0 1 .06-.023c.023 0 .045.008.06.023a.075.075 0 0 1 .026.055Z" clip-rule="evenodd"/><path fill="currentColor" fill-rule="evenodd" d="M13.617 11a.087.087 0 0 0-.059.023.073.073 0 0 0-.024.054c0 .02.009.04.024.054a.087.087 0 0 0 .059.022.087.087 0 0 0 .058-.022.073.073 0 0 0 .025-.054c0-.02-.009-.04-.024-.054a.087.087 0 0 0-.06-.022Zm-.062.02a.092.092 0 0 1 .062-.024c.023 0 .045.009.062.024a.078.078 0 0 1 .025.057.079.079 0 0 1-.025.057.091.091 0 0 1-.062.024.091.091 0 0 1-.062-.024.078.078 0 0 1-.026-.057c0-.022.01-.042.026-.057Z" clip-rule="evenodd"/><path fill="#fff" fill-rule="evenodd" d="M13.702 10.876a.08.08 0 0 1-.025.056.089.089 0 0 1-.06.023.09.09 0 0 1-.06-.023.075.075 0 0 1-.026-.056c0-.02.01-.04.025-.055a.09.09 0 0 1 .06-.023c.023 0 .045.008.06.023a.075.075 0 0 1 .026.055Z" clip-rule="evenodd"/><path fill="currentColor" fill-rule="evenodd" d="M13.617 10.8a.087.087 0 0 0-.059.022.073.073 0 0 0-.024.054c0 .02.009.04.024.054a.087.087 0 0 0 .059.022.087.087 0 0 0 .058-.022.073.073 0 0 0 .025-.054c0-.02-.009-.04-.024-.054a.087.087 0 0 0-.06-.022Zm-.062.019a.092.092 0 0 1 .062-.024c.023 0 .045.009.062.024a.078.078 0 0 1 .025.057.077.077 0 0 1-.025.057.091.091 0 0 1-.062.024.091.091 0 0 1-.062-.024.078.078 0 0 1-.026-.057.08.08 0 0 1 .026-.057Z" clip-rule="evenodd"/><path fill="#fff" fill-rule="evenodd" d="M13.702 10.69c0 .02-.01.04-.025.055a.089.089 0 0 1-.06.023.09.09 0 0 1-.06-.023.075.075 0 0 1-.026-.055.08.08 0 0 1 .025-.056.09.09 0 0 1 .06-.023.09.09 0 0 1 .06.023.075.075 0 0 1 .026.056Z" clip-rule="evenodd"/><path fill="currentColor" fill-rule="evenodd" d="M13.617 10.614a.087.087 0 0 0-.059.022.073.073 0 0 0-.024.054c0 .02.009.04.024.054a.087.087 0 0 0 .059.022.087.087 0 0 0 .058-.022.073.073 0 0 0 .025-.054c0-.02-.009-.04-.024-.054a.086.086 0 0 0-.06-.022Zm-.062.019a.091.091 0 0 1 .062-.024c.023 0 .045.009.062.024a.078.078 0 0 1 .025.057.077.077 0 0 1-.025.057.092.092 0 0 1-.062.024.092.092 0 0 1-.062-.024.078.078 0 0 1-.026-.057.08.08 0 0 1 .026-.057Z" clip-rule="evenodd"/><path fill="#fff" fill-rule="evenodd" d="M13.702 10.493c0 .02-.01.04-.025.056a.089.089 0 0 1-.06.023.09.09 0 0 1-.06-.023.075.075 0 0 1-.026-.056c0-.02.01-.04.025-.056a.09.09 0 0 1 .06-.022c.023 0 .045.008.06.023a.075.075 0 0 1 .026.055Z" clip-rule="evenodd"/><path fill="currentColor" fill-rule="evenodd" d="M13.617 10.417a.087.087 0 0 0-.059.023.073.073 0 0 0-.024.053c0 .02.009.04.024.054a.087.087 0 0 0 .059.022.087.087 0 0 0 .058-.022.073.073 0 0 0 .025-.054c0-.02-.009-.04-.024-.053a.087.087 0 0 0-.06-.023Zm-.062.02a.092.092 0 0 1 .062-.024c.023 0 .045.008.062.023a.078.078 0 0 1 .025.057.077.077 0 0 1-.025.057.091.091 0 0 1-.062.024.091.091 0 0 1-.062-.024.078.078 0 0 1-.026-.057.08.08 0 0 1 .026-.057Zm.245 2.132c0 .035-.078.063-.177.063-.098 0-.168-.028-.168-.063 0-.036.077-.064.172-.064.095 0 .172.028.172.064Zm1.567.154c-.01.025-.095.028-.19.004-.095-.021-.161-.056-.154-.081.01-.025.095-.028.19-.004.095.022.161.057.154.081Zm-.657-.105c0 .031-.085.05-.183.046-.095-.008-.172-.04-.169-.07.004-.032.088-.05.183-.043.098.007.176.035.169.067Zm-2.876.105c.007.025.091.028.186.004.095-.021.166-.056.155-.081-.01-.025-.095-.028-.19-.004-.091.022-.162.057-.15.081Zm.686-.12c.003.032.088.05.182.043.099-.007.176-.035.17-.07 0-.028-.085-.05-.184-.043-.095.008-.172.036-.168.07Z" clip-rule="evenodd"/></g><defs><clipPath id="a"><path fill="#fff" d="M0 0h24v18H0z"/></clipPath></defs></svg>