<svg xmlns="http://www.w3.org/2000/svg" width="24" height="18" fill="none"><g clip-path="url(#a)"><path fill="#fff" d="M0 6h24v6H0V6Z"/><path fill="#CE1126" d="M0 0h24v6H0V0Z"/><path fill="currentColor" d="M0 12h24v6H0v-6Z"/><path fill="#007A3D" d="M14.66 7.898a.327.327 0 0 1-.093-.065c-.02-.033-.006-.033.079-.013.151.046.25.026.348-.053l.086-.072.098.046c.06.033.118.052.131.046.046-.013.139-.132.132-.171 0-.046.04-.033.066.02.039.105-.02.23-.132.256-.046.013-.092.006-.17-.02-.093-.033-.112-.033-.158 0a.354.354 0 0 1-.388.026Zm.38-.348a.525.525 0 0 1-.065-.262c.006-.04.02-.053.052-.04.066.02.079.066.066.197 0 .118-.02.151-.053.105Zm-4.44-.125c-.007.086.157.303.23.342-.053.02-.112.013-.158.033-.263.263-1.21 1.182-1.38 1.406.512.013 1.077-.007 1.557-.027 0-.348.328-.367.552-.492.111.177.394.164.433.433v1.157H7.466a.637.637 0 0 1-.808.492c.131-.131.354-.184.433-.374.066-.42-.131-.677-.262-.92.165-.053.32-.133.46-.236-.152.46.407.413.814.4.013-.157.007-.341-.112-.368.151-.059.178-.078.434-.289v.631l3.028-.007c0-.197.053-.518-.105-.518-.144 0 0 .407-.118.407H8.885V9.1c.098-.105.085-.099.762-.776.065-.065.545-.499.959-.9h-.007Zm5.853-.02c.164.093.295.211.492.264-.02.085-.098.118-.118.203v1.774c.223.046.276-.086.381-.151.026.282.21.558.197.788h-.952V7.406Zm-1.275.953s.348-.295.348-.308v1.543h.25l-.007-1.727c.099-.105.303-.25.348-.355v2.759h-2.194c-.033-.572-.039-1.163.631-1.038v-.23c-.02-.04-.06.007-.066-.046.106-.105.138-.131.427-.38l.007 1.017h.256V8.358ZM14.35 9.58c.046.066.21.066.197-.052-.02-.099-.23-.066-.197.052Z"/><path fill="#007A3D" d="M7.991 10.736a.131.131 0 1 0 0-.262.131.131 0 0 0 0 .262Zm4.139-3.323c.164.085.295.21.5.262-.027.08-.1.112-.12.197v1.774c.224.046.27-.079.375-.15.033.282.21.564.204.787h-.96v-2.87Z"/></g><defs><clipPath id="a"><path fill="#fff" d="M0 0h24v18H0z"/></clipPath></defs></svg>