<svg xmlns="http://www.w3.org/2000/svg" width="24" height="18" fill="none"><g fill-rule="evenodd" clip-path="url(#a)" clip-rule="evenodd"><path fill="#fff" d="M-3.75 0h31.5v18h-31.5V0Z"/><path fill="#DA0000" d="M-3.75 12.087h31.5V18h-31.5v-5.913Z"/><path fill="#fff" d="M2.24 12.34h1.723v.116H2.241v-.116Zm.257.59h.12v.117h-.12v-.117Zm1.473 0v.117h-.344v-.12l.344.004Zm.183-.59h.12v.703h-.12v-.703Z"/><path fill="#fff" d="M4.842 12.927v.12H4.19v-.12h.653Zm-1.216-.278h.113v.398h-.116l.003-.398Z"/><path fill="#fff" d="M4.744 12.34h.12v.703h-.12v-.703Zm-.295 0h.116v.703h-.116v-.703Zm-1.575.281v.12H2.24v-.12h.633Zm1.381 0v.12h-.633v-.12h.633Z"/><path fill="#fff" d="M3.626 12.653h.113v.39h-.116l.003-.39Z"/><path fill="#fff" d="M3.626 12.653h.113v.39h-.116l.003-.39Z"/><path fill="#fff" d="M3.626 12.653h.112v.39h-.116l.004-.39Zm-1.382 0h.116v.39h-.116v-.39Zm1.013 0h.12v.39h-.12v-.39Zm-.503 0h.12v.39h-.12v-.39Z"/><path fill="#fff" d="M3.337 12.927v.12h-.53v-.12h.53Zm.036-.306v.12h-.338v-.12h.338Zm-3.966-.281H1.13v.116H-.593v-.116Zm.257.59h.12v.117H-.34l.004-.117Zm1.473 0v.117H.792v-.12l.345.004Zm.183-.59h.12v.703h-.12v-.703Z"/><path fill="#fff" d="M2.009 12.927v.12h-.654v-.12h.654ZM.792 12.65h.116v.398H.792v-.398Z"/><path fill="#fff" d="M1.91 12.34h.12v.703h-.12v-.703Zm-.295 0h.116v.703h-.116v-.703Zm-1.575.28v.12h-.633v-.12H.04Zm1.382 0v.12H.789v-.12h.633Z"/><path fill="#fff" d="M.792 12.653h.116v.39H.792v-.39Z"/><path fill="#fff" d="M.792 12.653h.116v.39H.792v-.39Z"/><path fill="#fff" d="M.792 12.653h.116v.39H.792v-.39Zm-1.381 0h.116v.39H-.59v-.39Zm1.012 0H.54v.39H.423v-.39Zm-.503 0h.12v.39h-.12v-.39Z"/><path fill="#fff" d="M.504 12.927v.12h-.527v-.12h.527Zm.035-.306v.12H.202v-.12h.337Zm4.511-.281h1.722v.116H5.05v-.116Zm.256.59h.12v.117h-.12v-.117Zm1.473 0v.117h-.344v-.12l.344.004Zm.187-.59h.12v.703h-.12v-.703Z"/><path fill="#fff" d="M7.651 12.927v.12h-.653v-.12h.653Zm-1.216-.278h.12v.398h-.12v-.398Z"/><path fill="#fff" d="M7.553 12.34h.12v.703h-.12v-.703Zm-.295 0h.12v.703h-.124l.004-.703Zm-1.575.281v.12H5.05v-.12h.633Zm1.381 0v.12h-.633v-.12h.633Z"/><path fill="#fff" d="M6.435 12.653h.12v.39h-.12v-.39Z"/><path fill="#fff" d="M6.435 12.653h.12v.39h-.12v-.39Z"/><path fill="#fff" d="M6.435 12.653h.12v.39h-.12v-.39Zm-1.382 0h.12v.39h-.12v-.39Zm1.013 0h.12v.39h-.12v-.39Zm-.503 0h.12v.39h-.12v-.39Z"/><path fill="#fff" d="M6.15 12.927v.12h-.534v-.12h.534Zm.035-.306v.12h-.337v-.12h.337Zm1.691-.281h1.726v.116H7.88l-.003-.116Zm.26.59h.116v.117h-.116v-.117Zm1.47 0v.117H9.26v-.12l.345.004Zm.186-.59h.12v.703h-.12v-.703Z"/><path fill="#fff" d="M10.481 12.927v.12h-.654v-.12h.654Zm-1.22-.278h.12v.398h-.12v-.398Z"/><path fill="#fff" d="M10.383 12.34h.119v.703h-.12v-.703Zm-.3 0h.12v.703h-.12v-.703Zm-1.574.281v.12h-.63v-.12h.63Zm1.381 0v.12h-.629v-.12h.63Z"/><path fill="#fff" d="M9.261 12.653h.12v.39h-.12v-.39Z"/><path fill="#fff" d="M9.261 12.653h.12v.39h-.12v-.39Z"/><path fill="#fff" d="M9.261 12.653h.12v.39h-.12v-.39Zm-1.382 0H8v.39h-.12v-.39Zm1.013 0h.12v.39h-.12v-.39Zm-.5 0h.117v.39h-.116v-.39Z"/><path fill="#fff" d="M8.976 12.927v.12h-.53v-.12h.53Zm.035-.306v.12h-.337v-.12h.337Zm1.706-.281h1.723v.116h-1.723v-.116Zm.256.59h.12v.117h-.12v-.117Zm1.473 0v.117h-.344v-.12l.345.004Zm.187-.59h.116v.703h-.116v-.703Z"/><path fill="#fff" d="M13.319 12.927v.12h-.654v-.12h.654Zm-1.217-.278h.12v.398h-.12v-.398Z"/><path fill="#fff" d="M13.22 12.34h.12v.703h-.12v-.703Zm-.295 0h.12v.703h-.12v-.703Zm-1.575.281v.12h-.633v-.12h.633Zm1.381 0v.12h-.633v-.12h.633Z"/><path fill="#fff" d="M12.102 12.653h.12v.39h-.12v-.39Z"/><path fill="#fff" d="M12.102 12.653h.12v.39h-.12v-.39Z"/><path fill="#fff" d="M12.102 12.653h.12v.39h-.12v-.39Zm-1.382 0h.116v.39h-.116v-.39Zm1.013 0h.12v.39h-.12v-.39Zm-.503 0h.12v.39h-.123l.003-.39Z"/><path fill="#fff" d="M11.817 12.927v.12h-.534v-.12h.534Zm.035-.306v.12h-.344v-.12h.344Z"/><path fill="#239F40" d="M-3.75 0h31.5v5.913h-31.5V0Z"/><path fill="#fff" d="M13.571 12.34h1.723v.116H13.57v-.116Zm.257.59h.12v.117h-.12v-.117Zm1.473 0v.117h-.348v-.12l.348.004Zm.186-.59h.116v.703h-.116v-.703Z"/><path fill="#fff" d="M16.173 12.927v.12h-.654v-.12h.654Zm-1.216-.278h.12v.398h-.124l.004-.398Z"/><path fill="#fff" d="M16.078 12.34h.116v.703h-.116v-.703Zm-.299 0h.12v.703h-.12v-.703Zm-1.575.281v.12h-.633v-.12h.633Zm1.382 0v.12h-.633v-.12h.633Z"/><path fill="#fff" d="M14.953 12.653h.123v.39h-.123v-.39Z"/><path fill="#fff" d="M14.953 12.653h.123v.39h-.123v-.39Z"/><path fill="#fff" d="M14.953 12.653h.123v.39h-.123v-.39Zm-1.378 0h.12v.39h-.12v-.39Zm1.012 0h.12v.39h-.12v-.39Zm-.502 0h.119v.39h-.12v-.39Z"/><path fill="#fff" d="M14.672 12.927v.12h-.535v-.12h.535Zm.035-.306v.12h-.338v-.12h.338Zm1.702-.281h1.722v.116H16.41v-.116Zm.256.59h.12v.117h-.12v-.117Zm1.477 0v.117h-.348v-.12l.348.004Zm.183-.59h.12v.703h-.12v-.703Z"/><path fill="#fff" d="M19.01 12.927v.12h-.654v-.12h.654Zm-1.216-.278h.12v.398h-.12v-.398Z"/><path fill="#fff" d="M18.915 12.34h.116v.703h-.116v-.703Zm-.299 0h.12v.703h-.12v-.703Zm-1.575.281v.12h-.629v-.12h.63Zm1.382 0v.12h-.63v-.12h.63Z"/><path fill="#fff" d="M17.794 12.653h.12v.39h-.12v-.39Z"/><path fill="#fff" d="M17.794 12.653h.12v.39h-.12v-.39Z"/><path fill="#fff" d="M17.794 12.653h.12v.39h-.12v-.39Zm-1.382 0h.12v.39h-.12v-.39Zm1.013 0h.12v.39h-.12v-.39Zm-.503 0h.12v.39h-.117l-.003-.39Z"/><path fill="#fff" d="M17.509 12.927v.12h-.531v-.12h.53Zm.035-.306v.12h-.341v-.12h.341Zm1.705-.281h1.723v.116h-1.723v-.116Zm.257.59h.12v.117h-.12v-.117Zm1.473 0v.117h-.345v-.12l.345.004Zm.183-.59h.119v.703h-.12v-.703Z"/><path fill="#fff" d="M21.85 12.927v.12h-.653v-.12h.654Zm-1.22-.278h.12v.398h-.12v-.398Z"/><path fill="#fff" d="M21.752 12.34h.12v.703h-.12v-.703Zm-.295 0h.116v.703h-.116v-.703Zm-1.575.281v.12h-.633v-.12h.633Zm1.381 0v.12h-.632v-.12h.633Z"/><path fill="#fff" d="M20.634 12.653h.116v.39h-.116v-.39Z"/><path fill="#fff" d="M20.634 12.653h.116v.39h-.116v-.39Z"/><path fill="#fff" d="M20.634 12.653h.116v.39h-.116v-.39Zm-1.385 0h.12v.39h-.12v-.39Zm1.016 0h.116v.39h-.116v-.39Zm-.503 0h.12v.39h-.12v-.39Z"/><path fill="#fff" d="M20.346 12.927v.12h-.531v-.12h.53Zm.035-.306v.12h-.337v-.12h.337Zm1.723-.281h1.723v.116h-1.723v-.116Zm.257.59h.12v.117h-.12v-.117Zm1.473 0v.117h-.345v-.12l.345.004Zm.183-.59h.12v.703h-.12v-.703Z"/><path fill="#fff" d="M24.706 12.927v.12h-.654v-.12h.654Zm-1.217-.278h.116v.398h-.116v-.398Z"/><path fill="#fff" d="M24.607 12.34h.12v.703h-.12v-.703Zm-.295 0h.116v.703h-.116v-.703Zm-1.575.281v.12h-.633v-.12h.633Zm1.381 0v.12h-.632v-.12h.632Z"/><path fill="#fff" d="M23.49 12.653h.115v.39h-.116v-.39Z"/><path fill="#fff" d="M23.49 12.653h.115v.39h-.116v-.39Z"/><path fill="#fff" d="M23.489 12.653h.116v.39h-.116v-.39Zm-1.382 0h.116v.39h-.116v-.39Zm1.013 0h.12v.39h-.12v-.39Zm-.503 0h.12v.39h-.12v-.39Z"/><path fill="#fff" d="M23.2 12.927v.12h-.53v-.12h.53Zm.036-.306v.12h-.338v-.12h.338ZM2.24 5.042h1.723v.119H2.241v-.12Zm.257.597h.12v.113h-.12v-.113Zm1.473-.007v.12h-.344v-.12h.344Zm.183-.59h.12v.71h-.12v-.71Z"/><path fill="#fff" d="M4.842 5.632v.12H4.19v-.12h.653Zm-1.216-.278h.113v.398h-.116l.003-.398Z"/><path fill="#fff" d="M4.744 5.042h.12v.71h-.12v-.71Zm-.295 0h.116v.71h-.116v-.71Zm-1.575.28v.12H2.24v-.116l.633-.003Zm1.381 0v.12h-.633v-.116l.633-.003Z"/><path fill="#fff" d="M3.626 5.354h.113v.398h-.116l.003-.398Z"/><path fill="#fff" d="M3.626 5.354h.113v.398h-.116l.003-.398Z"/><path fill="#fff" d="M3.626 5.354h.112v.398h-.116l.004-.398Zm-1.382 0h.116v.398h-.116v-.398Zm1.013 0h.12v.398h-.12v-.398Zm-.503 0h.12v.398h-.12v-.398Z"/><path fill="#fff" d="M3.337 5.632v.12h-.53v-.12h.53Zm.036-.306v.116h-.338v-.116h.338Zm-3.966-.284H1.13v.119H-.593v-.12Zm.257.597h.12v.113H-.34l.004-.113Zm1.473-.007v.12H.792v-.12h.345Zm.183-.59h.12v.71h-.12v-.71Z"/><path fill="#fff" d="M2.009 5.632v.12h-.654v-.12h.654ZM.792 5.354h.116v.398H.792v-.398Z"/><path fill="#fff" d="M1.91 5.042h.12v.71h-.12v-.71Zm-.295 0h.116v.71h-.116v-.71Zm-1.575.28v.12h-.633v-.116l.633-.003Zm1.382 0v.12H.789v-.116l.633-.003Z"/><path fill="#fff" d="M.792 5.354h.116v.398H.792v-.398Z"/><path fill="#fff" d="M.792 5.354h.116v.398H.792v-.398Z"/><path fill="#fff" d="M.792 5.354h.116v.398H.792v-.398Zm-1.381 0h.116v.398H-.59v-.398Zm1.012 0H.54v.398H.423v-.398Zm-.503 0h.12v.398h-.12v-.398Z"/><path fill="#fff" d="M.504 5.632v.12h-.527v-.12h.527Zm.035-.306v.116H.202v-.116h.337Zm4.511-.284h1.722v.119H5.05v-.12Zm.256.597h.12v.113h-.12v-.113Zm1.473-.007v.12h-.344v-.12h.344Zm.187-.59h.12v.71h-.12v-.71Z"/><path fill="#fff" d="M7.651 5.632v.12h-.653v-.12h.653Zm-1.216-.278h.12v.398h-.12v-.398Z"/><path fill="#fff" d="M7.553 5.042h.12v.71h-.12v-.71Zm-.295 0h.12v.71h-.124l.004-.71Zm-1.575.28v.12H5.05v-.116l.633-.003Zm1.381 0v.12h-.633v-.116l.633-.003Z"/><path fill="#fff" d="M6.435 5.354h.12v.398h-.12v-.398Z"/><path fill="#fff" d="M6.435 5.354h.12v.398h-.12v-.398Z"/><path fill="#fff" d="M6.435 5.354h.12v.398h-.12v-.398Zm-1.382 0h.12v.398h-.12v-.398Zm1.013 0h.12v.398h-.12v-.398Zm-.503 0h.12v.398h-.12v-.398Z"/><path fill="#fff" d="M6.15 5.632v.12h-.534v-.12h.534Zm.035-.306v.116h-.337v-.116h.337Zm1.691-.284h1.726v.119H7.88l-.003-.12Zm.26.597h.116v.113h-.116v-.113Zm1.47-.007v.12H9.26v-.12h.345Zm.186-.59h.12v.71h-.12v-.71Z"/><path fill="#fff" d="M10.481 5.632v.12h-.654v-.12h.654Zm-1.22-.278h.12v.398h-.12v-.398Z"/><path fill="#fff" d="M10.383 5.042h.119v.71h-.12v-.71Zm-.3 0h.12v.71h-.12v-.71Zm-1.574.28v.12h-.63v-.116l.63-.003Zm1.381 0v.12h-.629v-.116l.63-.003Z"/><path fill="#fff" d="M9.261 5.354h.12v.398h-.12v-.398Z"/><path fill="#fff" d="M9.261 5.354h.12v.398h-.12v-.398Z"/><path fill="#fff" d="M9.261 5.354h.12v.398h-.12v-.398Zm-1.382 0H8v.398h-.12v-.398Zm1.013 0h.12v.398h-.12v-.398Zm-.5 0h.117v.398h-.116v-.398Z"/><path fill="#fff" d="M8.976 5.632v.12h-.53v-.12h.53Zm.035-.306v.116h-.337v-.116h.337Zm1.706-.284h1.723v.119h-1.723v-.12Zm.256.597h.12v.113h-.12v-.113Zm1.473-.007v.12h-.344v-.12h.345Zm.187-.59h.116v.71h-.116v-.71Z"/><path fill="#fff" d="M13.319 5.632v.12h-.654v-.12h.654Zm-1.217-.278h.12v.398h-.12v-.398Z"/><path fill="#fff" d="M13.22 5.042h.12v.71h-.12v-.71Zm-.295 0h.12v.71h-.12v-.71Zm-1.575.28v.12h-.633v-.116l.633-.003Zm1.381 0v.12h-.633v-.116l.633-.003Z"/><path fill="#fff" d="M12.102 5.354h.12v.398h-.12v-.398Z"/><path fill="#fff" d="M12.102 5.354h.12v.398h-.12v-.398Z"/><path fill="#fff" d="M12.102 5.354h.12v.398h-.12v-.398Zm-1.382 0h.116v.398h-.116v-.398Zm1.013 0h.12v.398h-.12v-.398Zm-.503 0h.12v.398h-.123l.003-.398Z"/><path fill="#fff" d="M11.817 5.632v.12h-.534v-.12h.534Zm.035-.306v.116h-.344v-.116h.344Zm1.719-.284h1.723v.119H13.57v-.12Zm.257.597h.12v.113h-.12v-.113Zm1.473-.007v.12h-.348v-.12h.348Zm.186-.59h.116v.71h-.116v-.71Z"/><path fill="#fff" d="M16.173 5.632v.12h-.654v-.12h.654Zm-1.216-.278h.12v.398h-.124l.004-.398Z"/><path fill="#fff" d="M16.078 5.042h.116v.71h-.116v-.71Zm-.299 0h.12v.71h-.12v-.71Zm-1.575.28v.12h-.633v-.116l.633-.003Zm1.382 0v.12h-.633v-.116l.633-.003Z"/><path fill="#fff" d="M14.953 5.354h.123v.398h-.123v-.398Z"/><path fill="#fff" d="M14.953 5.354h.123v.398h-.123v-.398Z"/><path fill="#fff" d="M14.953 5.354h.123v.398h-.123v-.398Zm-1.378 0h.12v.398h-.12v-.398Zm1.012 0h.12v.398h-.12v-.398Zm-.502 0h.119v.398h-.12v-.398Z"/><path fill="#fff" d="M14.672 5.632v.12h-.535v-.12h.535Zm.035-.306v.116h-.338v-.116h.338Zm1.702-.284h1.722v.119H16.41v-.12Zm.256.597h.12v.113h-.12v-.113Zm1.477-.007v.12h-.348v-.12h.348Zm.183-.59h.12v.71h-.12v-.71Z"/><path fill="#fff" d="M19.01 5.632v.12h-.654v-.12h.654Zm-1.216-.278h.12v.398h-.12v-.398Z"/><path fill="#fff" d="M18.915 5.042h.116v.71h-.116v-.71Zm-.299 0h.12v.71h-.12v-.71Zm-1.575.28v.12h-.629v-.116l.63-.003Zm1.382 0v.12h-.63v-.116l.63-.003Z"/><path fill="#fff" d="M17.794 5.354h.12v.398h-.12v-.398Z"/><path fill="#fff" d="M17.794 5.354h.12v.398h-.12v-.398Z"/><path fill="#fff" d="M17.794 5.354h.12v.398h-.12v-.398Zm-1.382 0h.12v.398h-.12v-.398Zm1.013 0h.12v.398h-.12v-.398Zm-.503 0h.12v.398h-.117l-.003-.398Z"/><path fill="#fff" d="M17.509 5.632v.12h-.531v-.12h.53Zm.035-.306v.116h-.341v-.116h.341Zm1.705-.284h1.723v.119h-1.723v-.12Zm.257.597h.12v.113h-.12v-.113Zm1.473-.007v.12h-.345v-.12h.345Zm.183-.59h.119v.71h-.12v-.71Z"/><path fill="#fff" d="M21.85 5.632v.12h-.653v-.12h.654Zm-1.22-.278h.12v.398h-.12v-.398Z"/><path fill="#fff" d="M21.752 5.042h.12v.71h-.12v-.71Zm-.295 0h.116v.71h-.116v-.71Zm-1.575.28v.12h-.633v-.116l.633-.003Zm1.381 0v.12h-.632v-.116l.633-.003Z"/><path fill="#fff" d="M20.634 5.354h.116v.398h-.116v-.398Z"/><path fill="#fff" d="M20.634 5.354h.116v.398h-.116v-.398Z"/><path fill="#fff" d="M20.634 5.354h.116v.398h-.116v-.398Zm-1.385 0h.12v.398h-.12v-.398Zm1.016 0h.116v.398h-.116v-.398Zm-.503 0h.12v.398h-.12v-.398Z"/><path fill="#fff" d="M20.346 5.632v.12h-.531v-.12h.53Zm.035-.306v.116h-.337v-.116h.337Zm1.723-.284h1.723v.119h-1.723v-.12Zm.257.597h.12v.113h-.12v-.113Zm1.473-.007v.12h-.345v-.12h.345Zm.183-.59h.12v.71h-.12v-.71Z"/><path fill="#fff" d="M24.706 5.632v.12h-.654v-.12h.654Zm-1.217-.278h.116v.398h-.116v-.398Z"/><path fill="#fff" d="M24.607 5.042h.12v.71h-.12v-.71Zm-.295 0h.116v.71h-.116v-.71Zm-1.575.28v.12h-.633v-.116l.633-.003Zm1.381 0v.12h-.632v-.116l.632-.003Z"/><path fill="#fff" d="M23.49 5.354h.115v.398h-.116v-.398Z"/><path fill="#fff" d="M23.49 5.354h.115v.398h-.116v-.398Z"/><path fill="#fff" d="M23.489 5.354h.116v.398h-.116v-.398Zm-1.382 0h.116v.398h-.116v-.398Zm1.013 0h.12v.398h-.12v-.398Zm-.503 0h.12v.398h-.12v-.398Z"/><path fill="#fff" d="M23.2 5.632v.12h-.53v-.12h.53Zm.036-.306v.116h-.338v-.116h.338Z"/><path fill="#D90000" d="M.581 11.935h.211v.37h-.21v-.37Zm5.643 0h.21v.37h-.21v-.37Zm-9.974 0h.21v.37h-.21v-.37Zm2.865 0h.211v.37h-.21v-.37Zm2.844 0h.211v.37h-.21v-.37Zm1.407 0h.21v.37h-.21v-.37Zm1.438 0h.21v.37h-.21v-.37Zm2.826 0h.211v.37h-.21v-.37Zm7.137 0h.214v.37h-.21l-.004-.37Zm-5.699 0h.21v.37h-.21v-.37Zm1.406 0h.211v.37h-.21v-.37Zm1.424 0h.211v.37h-.211v-.37Zm1.42 0h.211v.37h-.21v-.37Zm11.363 0h.21v.37h-.21v-.37Zm-8.533 0h.211v.37h-.21v-.37Zm1.435 0h.21v.37h-.21v-.37Zm1.452 0h.21v.37h-.21v-.37Zm1.364 0h.21v.37h-.21v-.37Zm1.452 0h.21v.37h-.21v-.37Zm1.42 0h.211v.37h-.21v-.37Zm4.208 0h.211v.37h-.21v-.37Zm-1.364 0h.211v.37h-.21v-.37Zm-28.438 0h.211v.37h-.21v-.37Z"/><path fill="#239E3F" d="M.581 5.716h.211v.37h-.21v-.37Zm5.643 0h.21v.37h-.21v-.37Zm-9.974 0h.21v.37h-.21v-.37Zm2.865 0h.211v.37h-.21v-.37Zm2.844 0h.211v.37h-.21v-.37Zm1.407 0h.21v.37h-.21v-.37Zm1.438 0h.21v.37h-.21v-.37Zm2.826 0h.211v.37h-.21v-.37Zm7.137 0h.214v.37h-.21l-.004-.37Zm-5.699 0h.21v.37h-.21v-.37Zm1.406 0h.211v.37h-.21v-.37Zm1.424 0h.211v.37h-.211v-.37Zm1.42 0h.211v.37h-.21v-.37Zm11.363 0h.21v.37h-.21v-.37Zm-8.533 0h.211v.37h-.21v-.37Zm1.435 0h.21v.37h-.21v-.37Zm1.452 0h.21v.37h-.21v-.37Zm1.364 0h.21v.37h-.21v-.37Zm1.452 0h.21v.37h-.21v-.37Zm1.42 0h.211v.37h-.21v-.37Zm4.208 0h.211v.37h-.21v-.37Zm-1.364 0h.211v.37h-.21v-.37Zm-28.438 0h.211v.37h-.21v-.37Z"/><path fill="#DA0000" d="M12.837 6.943c.295.366 1.213 2.377-.552 3.699-.834.626-.317.654-.292.76 1.336-.707 1.768-1.67 1.758-2.532-.007-.858-.464-1.617-.914-1.927Z"/><path fill="#DA0000" d="M13.013 6.849a2.577 2.577 0 0 1 .552 3.951c.956-.21 2.18-3.037-.552-3.951Zm-2.025 0a2.577 2.577 0 0 0-.549 3.951c-.96-.21-2.18-3.037.549-3.951Z"/><path fill="#DA0000" d="M11.163 6.943c-.295.366-1.213 2.377.552 3.699.83.626.317.654.292.76-1.336-.707-1.768-1.67-1.758-2.532.007-.858.464-1.617.914-1.927Z"/><path fill="#DA0000" d="M13.694 11.219c-.524.007-1.18-.07-1.67-.327.081.158.148.256.229.41.464.046 1.107.1 1.441-.083Zm-3.34 0c.524.007 1.182-.07 1.67-.327-.08.158-.147.256-.228.41-.464.046-1.107.1-1.441-.083Zm.96-4.877c.106.282.383.324.679.158.218.127.552.138.668-.144.088.696-.644.528-.668.394-.274.264-.78.113-.679-.408Z"/><path fill="#DA0000" d="m12.014 11.658.274-.316.039-4.223L12 6.831l-.327.274.067 4.254.274.299Z"/></g><defs><clipPath id="a"><path fill="#fff" d="M0 0h24v18H0z"/></clipPath></defs></svg>