<svg xmlns="http://www.w3.org/2000/svg" width="24" height="18" fill="none"><g clip-path="url(#a)"><path fill="#fff" d="M-2.98-2.2h30v22.5h-30V-2.2Z"/><path fill="#DF112D" fill-rule="evenodd" d="M-2.98-2.2v1.5l13.14 9.75-13.08 9.75v1.5H-1l13.08-9.75L25.1 20.3h1.92v-1.5L14 9.05 27.08-.7v-1.5H25.1L12.02 7.55-1-2.2h-1.98Z" clip-rule="evenodd"/><path fill="#E8112D" d="M13.591 1.19c.379 1.954.171 4.367-1.576 5.711-1.735-1.344-1.955-3.757-1.564-5.711.416-.458 2.273-.749 3.14 0Z"/><path fill="currentColor" fill-rule="evenodd" d="M10.457 1.194c-.39 1.952-.17 4.357 1.558 5.698 1.74-1.34 1.948-3.746 1.57-5.697-.431-.372-1.11-.486-1.733-.45-.312.018-.61.074-.855.154s-.437.183-.54.295Zm3.134-.004.004-.006c-.436-.376-1.118-.49-1.743-.454a3.49 3.49 0 0 0-.858.154c-.246.08-.441.185-.546.3h-.001l-.001.004c-.391 1.956-.172 4.373 1.566 5.72l-.004.008.01-.008c1.75-1.347 1.958-3.764 1.58-5.72l-.007.002Z" clip-rule="evenodd"/><path fill="#F9DD16" d="M12.015.808c.553-.018 1.1.145 1.588.474.08-.667.285-1.3.599-1.848-.306 0-.44.198-.44.397a.265.265 0 0 0-.464-.107c.33.275.073.763-.22.672-.135-.046-.208-.168-.245-.351a.16.16 0 0 0 .097-.077.235.235 0 0 0-.02-.265.143.143 0 0 0-.107-.052.143.143 0 0 0-.107.052.236.236 0 0 0-.02.266.16.16 0 0 0 .096.076.39.39 0 0 1-.164.174.289.289 0 0 1-.214.024c-.16-.046-.232-.229-.232-.382 0-.412.317-.473.415-.397 0-.275-.354-.504-.464-.275a.89.89 0 0 0 .071-.463.812.812 0 0 0-.17-.422.814.814 0 0 0-.164.415.892.892 0 0 0 .067.455c-.11-.229-.452 0-.452.275.086-.076.403-.015.403.397 0 .153-.073.336-.22.382a.298.298 0 0 1-.22-.022.4.4 0 0 1-.17-.177.162.162 0 0 0 .073-.06.238.238 0 0 0 .017-.245.17.17 0 0 0-.083-.08.13.13 0 0 0-.104.002.172.172 0 0 0-.081.082.238.238 0 0 0 .023.244.15.15 0 0 0 .093.057c-.024.184-.11.306-.244.352a.24.24 0 0 1-.204-.028.348.348 0 0 1-.14-.189.452.452 0 0 1-.006-.257.36.36 0 0 1 .13-.198c-.098-.153-.39-.153-.464.107 0-.199-.135-.398-.44-.398a4.91 4.91 0 0 1 .611 1.848 2.678 2.678 0 0 1 1.588-.473l-.012.015Z"/><path fill="currentColor" fill-rule="evenodd" d="m12.949-2.881-.93 1.18a.82.82 0 0 1 .171.426.908.908 0 0 1-.048.41.148.148 0 0 1 .089-.046c.05-.006.106.01.158.042.1.062.189.185.194.321l-.01.019a.161.161 0 0 0-.102-.027.276.276 0 0 0-.136.042c-.09.056-.167.172-.167.375 0 .15.072.33.227.375.07.02.144.011.211-.024a.38.38 0 0 0 .156-.162.168.168 0 0 1-.091-.077.245.245 0 0 1 .021-.276.148.148 0 0 1 .11-.053c.042 0 .081.019.112.053a.245.245 0 0 1 .021.276.167.167 0 0 1-.094.077.61.61 0 0 0 .083.217.3.3 0 0 0 .155.121c.144.045.278-.052.337-.194a.399.399 0 0 0 .022-.234.408.408 0 0 0-.144-.23l.037.03-.038-.041c.05-.071.15-.11.247-.098.088.01.174.064.217.175a.394.394 0 0 1 .106-.244.449.449 0 0 1 .33-.126l.014.012a4.914 4.914 0 0 0-.598 1.845l.003-.021-.012.026a2.672 2.672 0 0 0-1.585-.472H12L12.013.8a2.674 2.674 0 0 0-1.571.473l.015-.01-.024.004a4.9 4.9 0 0 0-.61-1.844l.005.008v-.02a.45.45 0 0 1 .338.126c.065.067.1.154.107.244A.271.271 0 0 1 10.49-.4a.257.257 0 0 1 .229.08l.016.035a.353.353 0 0 0-.127.195.443.443 0 0 0 .006.251.34.34 0 0 0 .137.185.236.236 0 0 0 .2.027c.13-.044.213-.161.238-.337a.143.143 0 0 1-.044-.018l.058.013c-.025.186-.112.31-.25.357a.246.246 0 0 1-.208-.028.355.355 0 0 1-.142-.193.462.462 0 0 1-.007-.262.371.371 0 0 1 .127-.198.242.242 0 0 0-.231-.092.263.263 0 0 0-.218.203l-.012-.003a.382.382 0 0 0-.103-.267.437.437 0 0 0-.319-.122c.313.542.52 1.168.604 1.828A2.682 2.682 0 0 1 12.02.785l.01.013V.8a2.683 2.683 0 0 1 1.567.47 4.947 4.947 0 0 1 .592-1.829.437.437 0 0 0-.319.123.382.382 0 0 0-.103.267l-.012.002c-.036-.126-.125-.186-.218-.197a.26.26 0 0 0-.231.087.42.42 0 0 1 .143.233.418.418 0 0 1-.023.245c-.06.148-.201.249-.35.202a.312.312 0 0 1-.163-.126.549.549 0 0 1-.069-.156l-.013-.084a.153.153 0 0 0 .093-.073.227.227 0 0 0-.02-.256.137.137 0 0 0-.102-.05.137.137 0 0 0-.103.05.227.227 0 0 0-.02.255.153.153 0 0 0 .094.074l-.016-.004.02.016a.396.396 0 0 1-.167.177.294.294 0 0 1-.219.025c-.162-.047-.237-.234-.237-.39 0-.209.081-.33.175-.388a.286.286 0 0 1 .14-.045.181.181 0 0 1 .1.023.397.397 0 0 0-.187-.306.237.237 0 0 0-.15-.04.145.145 0 0 0-.115.088l-.01-.007a.88.88 0 0 0 .07-.46.806.806 0 0 0-.163-.411.807.807 0 0 0-.159.405.881.881 0 0 0 .067.45l-.011.008a.146.146 0 0 0-.113-.089.225.225 0 0 0-.146.04.398.398 0 0 0-.181.306.16.16 0 0 1 .092-.022.277.277 0 0 1 .138.044c.092.059.172.18.172.389 0 .155-.074.342-.224.39a.304.304 0 0 1-.225-.023.4.4 0 0 1-.161-.158l-.008-.033a.156.156 0 0 0 .07-.059.228.228 0 0 0 .017-.236.162.162 0 0 0-.08-.076.124.124 0 0 0-.1.002.166.166 0 0 0-.078.079.23.23 0 0 0 .022.235c.024.03.056.05.09.055l-.062-.01a.173.173 0 0 1-.037-.034.25.25 0 0 1-.024-.254c.02-.04.05-.07.085-.086a.134.134 0 0 1 .108-.002.175.175 0 0 1 .086.083.247.247 0 0 1-.018.254.17.17 0 0 1-.068.06.39.39 0 0 0 .163.166.294.294 0 0 0 .217.021c.143-.044.215-.224.215-.374 0-.203-.078-.319-.166-.375a.267.267 0 0 0-.132-.043.15.15 0 0 0-.095.027l.007-.006h-.017c0-.141.088-.27.188-.333a.235.235 0 0 1 .154-.042c.033.005.063.02.088.046a.91.91 0 0 1-.045-.402.823.823 0 0 1 .167-.42l.938-1.18ZM11.264.055a.479.479 0 0 1-.012-.022l.013.024-.001-.002Zm1.581.066a.965.965 0 0 1-.018-.075l.03.144-.012-.07Zm-.818.664h-.006.006Zm-.892-.772a.156.156 0 0 0 .01.005l-.077-.015.067.01Zm-.416-.334a.214.214 0 0 1 .018.025l-.026-.04.008.015Zm3.483-.253h-.009.009Zm-1.619.038v-.012.012Z" clip-rule="evenodd"/><path fill="#F9DD16" d="M13.346 2.717c-.049 0-.049.076-.061.076.098 0 .146-.045.17-.106v.091c.074-.03.098-.107.074-.153l.086.031c-.05-.046-.013-.153-.098-.214.024 0 .073.03.098.077-.013-.107-.025-.168-.098-.23h.06a.133.133 0 0 1-.037-.052.166.166 0 0 1-.01-.07c0-.06-.025-.06-.074-.045l-.22.015c-.122 0-.244 0-.342-.092.159.092.366-.091.366-.229 0-.153-.17-.305-.488-.214-.318.092-.709.061-.709-.076s.281-.153.428-.122c.146.03.244.046.513-.077-.061.031-.281.046-.452-.015-.171-.06-.587-.06-.587.214 0 .29.44.26.831.183.22-.03.342 0 .342.077 0 .091-.207.122-.366.106a.988.988 0 0 0-.501.046c-.159.061-.269 0-.44.046-.085 0-.293 0-.391-.214-.061.061-.244.168-.28.29-.038.092 0 .199.048.306.073.122-.037.107-.122.107-.098 0-.245 0-.318-.122-.073-.092-.159-.168-.232-.107-.037.045 0 .091.024.076l.098.03a.101.101 0 0 0-.122.016c-.037.03 0 .091.037.076.024-.015.085-.03.122 0-.037 0-.086 0-.098.03-.012.031 0 .062.037.062.073 0 .085.06.159.046a.095.095 0 0 0-.049.018.125.125 0 0 0-.037.043c.073-.046.134.06.22.03-.024.016-.086.061-.086.092.05-.076.391.061.391-.107l-.012.122c.037-.03.171-.046.22-.153 0 .031 0 .077-.024.092.036 0 .097-.03.158-.137.025-.046.025-.077.025-.107a.188.188 0 0 0 .146-.061c.05-.046.098.045.184-.03.073-.062.146 0 .195-.031.037-.031.098 0 .147-.031.049-.03.122.015.195-.061.122.061.281.153.636.076.195-.046.268.046.268.153 0 .092-.049.092-.073.092-.122.015-.159-.046-.208-.03-.024.014-.049.075 0 .106-.036.015-.036.061-.012.076.024.016.061 0 .098-.015-.05.015-.086.061-.061.107.012.03.049.046.085 0 .037-.061.098-.107.147-.107Zm-2.273-1.222c-.097-.045-.122-.045-.11.061 0 .046.037.107.062.138 0-.046.012-.153.048-.183v-.016Z"/><path fill="currentColor" fill-rule="evenodd" d="M12.194 1.285a.732.732 0 0 1 .36.02.815.815 0 0 0 .441.018c.003 0 .005-.002.007-.003l.004.014a.968.968 0 0 1-.304.096.656.656 0 0 1-.212-.019.74.74 0 0 0-.267-.002.29.29 0 0 0-.11.042c-.028.02-.044.044-.044.075 0 .029.021.055.063.075.04.02.098.035.167.041.137.014.313-.002.472-.047.16-.046.283-.031.367.015a.237.237 0 0 1 .129.206.215.215 0 0 1-.037.111.346.346 0 0 1-.09.096.246.246 0 0 1-.201.048c.088.058.191.058.297.058l.22-.015a.2.2 0 0 1 .032-.008.051.051 0 0 1 .025.002c.008.004.014.01.017.02.004.01.005.023.005.04a.16.16 0 0 0 .011.065c.008.02.02.037.036.05l.016.014h-.062a.226.226 0 0 1 .058.086c.015.038.02.08.027.134l-.011.006a.162.162 0 0 0-.064-.064.194.194 0 0 1 .04.094.905.905 0 0 1 .003.018l.008.038c.004.017.01.03.021.04l-.005.014-.072-.026a.112.112 0 0 1-.006.074.139.139 0 0 1-.062.067h-.023v-.064a.161.161 0 0 1-.049.055.198.198 0 0 1-.116.032v-.015l.002-.008.003-.007a.286.286 0 0 1 .015-.037.177.177 0 0 0-.034.02.259.259 0 0 0-.067.074v.001c-.02.024-.04.033-.057.031-.017-.002-.031-.015-.038-.032m-.008-.5a.951.951 0 0 1-.403.013.856.856 0 0 1-.213-.081l-.016-.008.002-.008-.008.009a.142.142 0 0 1-.104.046h-.024c-.008 0-.016 0-.024.002a.093.093 0 0 0-.043.012c-.023.014-.049.014-.075.014-.013 0-.026 0-.038.002a.069.069 0 0 0-.034.015m-.522.129h-.006c0 .015 0 .03-.003.046a.187.187 0 0 1-.02.056c-.051.089-.101.123-.136.132a.093.093 0 0 0 .01-.029c.002-.018.002-.037.002-.052v-.03l-.011.025a.216.216 0 0 1-.111.102l-.05.021-.012.005a.279.279 0 0 0-.034.015l.008-.085a.11.11 0 0 0 .003-.023l-.013-.001-.002.02a.063.063 0 0 1-.01.025.078.078 0 0 1-.037.025.336.336 0 0 1-.121.011c-.017 0-.034-.002-.05-.003-.03-.002-.058-.004-.083-.003a.21.21 0 0 0-.052.006.083.083 0 0 0-.013.004.37.37 0 0 1 .072-.063l-.005-.013c-.039.014-.073-.003-.107-.02l-.003-.001c-.028-.014-.058-.028-.089-.019a.108.108 0 0 1 .021-.02.092.092 0 0 1 .033-.015l.014-.002-.002-.015a.092.092 0 0 0-.014.002.094.094 0 0 1-.062-.019l-.005-.002a.131.131 0 0 0-.077-.027c-.017 0-.027-.007-.032-.016a.044.044 0 0 1 0-.034c.005-.012.018-.019.036-.023a.292.292 0 0 1 .057-.003h.02l-.017-.014a.095.095 0 0 0-.069-.019.141.141 0 0 0-.058.018c-.015.006-.03-.003-.039-.018a.04.04 0 0 1-.005-.023.034.034 0 0 1 .013-.022.104.104 0 0 1 .075-.027l.042.013.004-.015a.109.109 0 0 0-.044-.014l-.055-.017V2.31l-.004.003c-.009.005-.02 0-.027-.012a.039.039 0 0 1-.004-.023.058.058 0 0 1 .013-.029c.034-.028.072-.024.11-.002a.456.456 0 0 1 .114.108.242.242 0 0 0 .153.11c.058.015.12.015.169.015h.066a.173.173 0 0 0 .057-.008.045.045 0 0 0 .03-.037.143.143 0 0 0-.026-.074.755.755 0 0 1-.055-.156.255.255 0 0 1 .057-.228.667.667 0 0 1 .08-.078c.025-.023.052-.043.076-.062l.008-.006a.897.897 0 0 0 .06-.05c.05.105.126.157.2.184a.56.56 0 0 0 .192.027h.002a.678.678 0 0 1 .21-.018h.013a.52.52 0 0 0 .217-.029m-.833-.175.004.006-.006.005-.003-.007-.029.02.03-.03a.757.757 0 0 1-.063.054l-.009.006-.077.062a.676.676 0 0 0-.081.08.268.268 0 0 0-.052.091.262.262 0 0 0-.008.152c.01.053.032.107.057.16.018.03.024.051.023.064-.001.011-.008.02-.021.025a.164.164 0 0 1-.054.007.978.978 0 0 1-.065 0c-.049 0-.11 0-.167-.015a.23.23 0 0 1-.146-.104v-.001a.467.467 0 0 0-.118-.112c-.041-.024-.083-.028-.122.004l-.001.001a.076.076 0 0 0-.017.038.058.058 0 0 0 .005.033c.009.017.026.027.041.019l.018.005a.118.118 0 0 0-.046.026.049.049 0 0 0-.018.033.058.058 0 0 0 .007.033c.01.02.031.033.053.024a.13.13 0 0 1 .09-.014c-.01 0-.02.001-.029.003-.018.004-.037.012-.044.031a.06.06 0 0 0 0 .05c.008.014.022.022.042.022.033 0 .052.013.072.025l.005.003a.133.133 0 0 0 .037.018.132.132 0 0 0-.045.05l-.013.023.02-.013c.034-.02.065-.007.1.01l.004.002c.025.012.052.026.082.025a.34.34 0 0 0-.049.049.055.055 0 0 0-.011.03v.021l.01-.017c.005-.007.014-.013.028-.016a.202.202 0 0 1 .05-.006l.08.003.051.003a.351.351 0 0 0 .125-.011.091.091 0 0 0 .04-.027l-.006.064.006.001-.003-.006a.078.078 0 0 1 .01-.008v.015h.003l-.006.005a.169.169 0 0 1 .041-.02 4.952 4.952 0 0 0 .063-.027.243.243 0 0 0 .106-.086.191.191 0 0 1-.003.024c-.003.016-.008.029-.018.035l.003.015c.04 0 .102-.033.164-.141a.206.206 0 0 0 .025-.104.194.194 0 0 0 .074-.014.238.238 0 0 0 .07-.048.04.04 0 0 1 .034-.012c.008 0 .018.003.028.006a.599.599 0 0 0 .011.003.116.116 0 0 0 .05.004.12.12 0 0 0 .06-.032m.536-.12a.108.108 0 0 1-.004-.001l.002-.007.004.006-.002.003Zm-1.034.384a.181.181 0 0 0 .012-.022l-.006-.004h-.006v.026Zm.171-.17H11.6v-.008h.006v.007Zm-.709.203a.1.1 0 0 0 .033-.006l-.002-.007-.002-.007a.342.342 0 0 0-.029.02Zm-.231-.25c.01.003.019.008.027.014l.003-.006v-.008h-.03Zm-.104-.106.002-.001-.002-.007-.002.007h.002Zm.88-.558.005-.004a.333.333 0 0 0 .196.184.55.55 0 0 0 .189.026.688.688 0 0 1 .212-.017h.013a.51.51 0 0 0 .213-.028.993.993 0 0 1 .504-.046c.079.007.17.003.24-.014a.259.259 0 0 0 .088-.035c.02-.015.031-.032.031-.05a.054.054 0 0 0-.02-.043.146.146 0 0 0-.063-.028.741.741 0 0 0-.252.002 1.967 1.967 0 0 1-.563.045.397.397 0 0 1-.197-.068.201.201 0 0 1-.078-.168c0-.072.028-.125.07-.164a.353.353 0 0 1 .165-.077m-1.616 1.048.037.012a.098.098 0 0 1 .04.012l.003-.007.002-.007-.043-.014a.103.103 0 0 0-.039.004Zm.17.254a.091.091 0 0 0 .046 0l-.001-.008v-.007a.101.101 0 0 0-.045.015Zm-.022.037a.08.08 0 0 0-.021.01l.002.007.005.004a.13.13 0 0 1 .014-.021Zm.132.116a.048.048 0 0 0-.021.018l.005.005h.006c0-.005.002-.012.008-.02l.002-.002Zm.363-.027.001-.002a.079.079 0 0 0 .014-.032l.003-.023h-.006l-.007-.001c0 .007 0 .015-.002.02l-.003.038Zm.213-.006a.075.075 0 0 1-.018.002v.008l.003.007a.045.045 0 0 0 .015-.017Zm1.864.078a.18.18 0 0 0 .097-.029.158.158 0 0 0 .056-.073l.011.003v.081a.126.126 0 0 0 .062-.063.087.087 0 0 0 0-.074l-.009-.018.08.029a.132.132 0 0 1-.01-.027l-.008-.04a.883.883 0 0 0-.003-.018c-.008-.039-.02-.078-.06-.107l-.02-.015h.023a.1.1 0 0 1 .052.022c.013.01.025.022.036.036a.45.45 0 0 0-.022-.102.22.22 0 0 0-.07-.094l-.016-.014h.063a.147.147 0 0 1-.025-.042.177.177 0 0 1-.012-.073.096.096 0 0 0-.004-.032.02.02 0 0 0-.01-.012.037.037 0 0 0-.02-.002.195.195 0 0 0-.032.008l-.22.015h-.002c-.121 0-.245 0-.345-.093l.007-.013c.077.044.166.023.237-.028a.333.333 0 0 0 .087-.092.198.198 0 0 0 .034-.102.221.221 0 0 0-.122-.192c-.081-.045-.202-.06-.36-.014-.16.046-.337.06-.475.047a.507.507 0 0 1-.17-.041c-.043-.021-.07-.05-.07-.09 0-.038.019-.067.049-.088a.3.3 0 0 1 .114-.044.75.75 0 0 1 .27.002.646.646 0 0 0 .21.02.805.805 0 0 0 .217-.06m.555 1.422a.162.162 0 0 1-.015.007l.017-.007h-.002Zm-2.458-1.315a.484.484 0 0 1 .06.025l.016.007h-.011v.027l-.003-.005a.085.085 0 0 0-.02.032.507.507 0 0 0-.025.145v-.008l-.011.013a.371.371 0 0 1-.041-.064.19.19 0 0 1-.022-.078.26.26 0 0 1-.002-.063c.003-.016.008-.028.02-.033.01-.004.023-.003.04.002Zm.004.212a.544.544 0 0 1 .026-.133.104.104 0 0 1 .023-.035V1.5a.448.448 0 0 0-.056-.023c-.015-.005-.026-.005-.032-.002-.006.002-.01.008-.012.02a.243.243 0 0 0 .002.06c0 .021.008.046.02.07a.44.44 0 0 0 .03.05Z" clip-rule="evenodd"/><path fill="#F9DD16" d="M11.403 1.51c.098-.06.135-.06.11.046 0 .046-.036.107-.06.138 0-.046 0-.153-.05-.183Z"/><path fill="currentColor" fill-rule="evenodd" d="M11.401 1.504a.448.448 0 0 1 .063-.035c.017-.007.031-.01.042-.006.006.002.01.005.014.01a.047.047 0 0 1 .007.021.204.204 0 0 1-.007.063c0 .025-.01.053-.022.078a.38.38 0 0 1-.037.059h-.014c0-.023 0-.06-.006-.096-.006-.036-.018-.067-.04-.08l.008.004-.008-.018Zm.058.17a.37.37 0 0 0 .029-.047.172.172 0 0 0 .02-.07v-.003a.193.193 0 0 0 .007-.058.03.03 0 0 0-.004-.013.013.013 0 0 0-.008-.005c-.007-.003-.018 0-.035.006a.382.382 0 0 0-.051.027c.02.02.03.052.036.084a.526.526 0 0 1 .006.08Zm-.002.025a.141.141 0 0 0 .004-.005l-.004.005Z" clip-rule="evenodd"/><path fill="#F9DD16" d="M11.245 1.434c.196 0 .22.122.208.26 0 .152-.061.091-.098.305-.012.061-.06.076-.122.076-.037 0-.085 0-.11-.091-.037-.199-.098-.153-.098-.306 0-.122.025-.244.22-.244Z"/><path fill="currentColor" fill-rule="evenodd" d="M11.067 1.516a.295.295 0 0 0-.035.163.27.27 0 0 0 .01.081.207.207 0 0 0 .025.052.39.39 0 0 1 .031.059.546.546 0 0 1 .031.111c.012.044.03.065.047.075a.11.11 0 0 0 .057.011c.03 0 .057-.004.077-.015a.076.076 0 0 0 .04-.055m-.292-.492c.032-.048.089-.08.188-.08.098 0 .155.032.186.082.03.05.033.117.027.186a.267.267 0 0 1-.01.085c-.007.02-.016.034-.025.049h-.001c-.01.016-.02.032-.031.058a.543.543 0 0 0-.03.115.09.09 0 0 1-.047.067.174.174 0 0 1-.082.015c-.018 0-.04 0-.062-.012-.021-.012-.04-.037-.053-.084v-.001a.52.52 0 0 0-.03-.108.38.38 0 0 0-.03-.057l-.002-.002a.224.224 0 0 1-.026-.053.288.288 0 0 1-.01-.087c0-.062.006-.125.038-.173Z" clip-rule="evenodd"/><path fill="#F9DD16" d="M10.744 2c-.049-.031-.086 0-.11 0 .073.014.073.121.22.152-.037 0-.049.03-.086 0 .061.06.122.137.27.137.085 0 .024.046-.025.016.049.076.159.015.232.152 0-.107-.122-.26-.061-.366-.208-.016-.22-.153-.33-.26-.098-.091-.11-.183-.147-.351-.012-.076-.085-.122-.122-.107a.042.042 0 0 0-.024.076c.024.03.073.03.073.107-.037-.06-.098-.076-.122-.046-.013.031 0 .077.024.077.061 0 .025.091.086.153-.061-.077-.11-.092-.147-.046-.012.03 0 .076.049.076.061 0 .122.183.22.23Zm1.588.702c-.024 0-.012.076-.061.076.098 0 .159-.03.195-.076l-.024.076c.049-.046.183-.061.244-.046s.074-.015.098-.06c.024-.062 0-.093-.037-.123-.036-.046-.049-.107-.036-.199-.171-.305-.489-.152-.489-.03.11.168.122.153.22.168.085.03.147.03.085.091-.024.031-.122 0-.183.016-.159 0-.244-.138-.28-.061-.037.06 0 .091.073.091-.05 0-.123 0-.11.061.024.107.097-.015.134.016-.024 0-.073.015-.073.045 0 .031.06.077.122 0a.169.169 0 0 1 .122-.045Z"/><path fill="currentColor" fill-rule="evenodd" d="m10.713 1.478.01.041c.03.143.047.224.135.306.028.027.05.056.07.084l.01.017c.016.022.031.044.048.064a.262.262 0 0 0 .198.093h-.01l.015.012c-.028.05-.015.11.008.176l.016.043.002.005.018.048a.29.29 0 0 1 .018.09v.025l-.011-.02a.175.175 0 0 0-.122-.097.336.336 0 0 1-.06-.017.098.098 0 0 1-.05-.039l.008-.011a.06.06 0 0 0 .033.01c.01 0 .02-.003.023-.006a.037.037 0 0 0-.01-.003.138.138 0 0 0-.025-.002.298.298 0 0 1-.169-.047.515.515 0 0 1-.088-.077l-.015-.015.007-.013a.05.05 0 0 0 .021.012c.006.001.011 0 .017-.001l.009-.004h.003a.23.23 0 0 1-.11-.077 1.324 1.324 0 0 1-.014-.017c-.02-.026-.037-.046-.065-.051l.001-.016a.07.07 0 0 0 .02-.004h.003a.215.215 0 0 1 .022-.007.098.098 0 0 1 .021-.002.583.583 0 0 1-.084-.106l-.002-.003a.664.664 0 0 0-.048-.064c-.015-.018-.029-.027-.042-.027a.056.056 0 0 1-.052-.03.071.071 0 0 1-.002-.058v-.002c.02-.025.044-.033.071-.025a.126.126 0 0 1 .044.027.263.263 0 0 1-.01-.043l-.002-.005a.106.106 0 0 0-.01-.035c-.006-.008-.013-.013-.027-.013-.015 0-.026-.015-.031-.031a.089.089 0 0 1 .002-.056v-.002c.015-.018.04-.022.063-.014.02.007.04.02.056.042a.066.066 0 0 0-.023-.041.176.176 0 0 0-.023-.017.104.104 0 0 1-.023-.02.056.056 0 0 1-.019-.028.05.05 0 0 1 .046-.062c.021-.008.05.001.075.02.025.02.048.052.054.093Zm-.11.25a.13.13 0 0 0 .015.017l.008-.011a.442.442 0 0 0-.013-.016c-.017-.024-.022-.05-.027-.075v-.005a.124.124 0 0 0-.014-.04c-.008-.013-.019-.019-.036-.019-.008 0-.016-.008-.02-.022a.07.07 0 0 1 .001-.042c.01-.012.029-.016.05-.009a.121.121 0 0 1 .062.055l.011.018v-.023a.117.117 0 0 0-.008-.048.08.08 0 0 0-.022-.029l-.02-.014-.004-.004a.09.09 0 0 1-.02-.017l-.002-.001a.04.04 0 0 1-.014-.021.03.03 0 0 1 .001-.019.037.037 0 0 1 .034-.022h.002c.016-.007.042-.001.065.017a.133.133 0 0 1 .05.083l.009.043c.03.142.048.228.14.313a.57.57 0 0 1 .067.083l.011.015a.816.816 0 0 0 .05.066.27.27 0 0 0 .194.096c-.025.055-.008.12.013.18l.016.044.002.005.017.047a.36.36 0 0 1 .015.057.183.183 0 0 0-.115-.08.31.31 0 0 1-.06-.017.1.1 0 0 1-.023-.011h.011a.052.052 0 0 0 .03-.007.017.017 0 0 0 .007-.012.015.015 0 0 0-.007-.014.041.041 0 0 0-.015-.006.148.148 0 0 0-.027-.002.288.288 0 0 1-.163-.044.447.447 0 0 1-.075-.064l.014-.002a.14.14 0 0 0 .011-.005.075.075 0 0 1 .03-.007l.001-.015a.22.22 0 0 1-.134-.08l-.013-.016a.186.186 0 0 0-.048-.047.207.207 0 0 1 .021-.006.077.077 0 0 1 .061.011L10.744 2l.003-.007a.416.416 0 0 1-.124-.133.69.69 0 0 0-.048-.065c-.016-.019-.033-.032-.05-.032-.024 0-.037-.01-.043-.023a.053.053 0 0 1-.002-.04c.017-.021.036-.028.058-.02.02.005.041.022.066.05Zm1.799.439c.102-.016.227.023.314.179l.003.006h-.002c-.012.09 0 .147.034.19a.137.137 0 0 1 .043.053c.01.022.009.047-.004.08l-.004.007a.158.158 0 0 1-.033.049c-.016.013-.036.016-.068.008a.346.346 0 0 0-.124 0 .354.354 0 0 0-.067.017.146.146 0 0 0-.048.028l-.018.016.024-.073a.257.257 0 0 1-.18.058V2.77c.01 0 .017-.004.022-.01a.067.067 0 0 0 .011-.023l.003-.01.001-.004a.123.123 0 0 1 .005-.013.165.165 0 0 0-.1.043c-.032.04-.064.048-.09.042a.061.061 0 0 1-.03-.018.045.045 0 0 1-.012-.03c0-.005 0-.01.003-.014-.011.005-.023.008-.034.004-.014-.005-.024-.02-.03-.049a.054.054 0 0 1 .006-.042.057.057 0 0 1 .03-.02.12.12 0 0 1 .016-.005.058.058 0 0 1-.018-.013.047.047 0 0 1-.012-.035c0-.013.006-.028.015-.044a.049.049 0 0 1 .019-.022.037.037 0 0 1 .024-.004.2.2 0 0 1 .06.025l.003.002c.046.025.104.057.18.057a.31.31 0 0 1 .092-.003 1.668 1.668 0 0 0 .06 0c.014 0 .023-.005.027-.01a.15.15 0 0 0 .018-.02.033.033 0 0 0 .005-.012v-.006a.024.024 0 0 0-.009-.007.18.18 0 0 0-.038-.015 1.86 1.86 0 0 0-.058-.019l-.026-.004a.179.179 0 0 1-.081-.023.502.502 0 0 1-.116-.144l-.004-.004h.002c0-.035.022-.07.055-.096a.272.272 0 0 1 .13-.057Zm-.265.45v.016a.26.26 0 0 0-.077.007.046.046 0 0 0-.023.016m-.004.028c.006.026.014.035.022.038.008.003.02 0 .032-.007l.016-.009a.208.208 0 0 1 .023-.012c.013-.006.027-.009.039.001l.016.014h-.02a.107.107 0 0 0-.043.011.056.056 0 0 0-.018.013.022.022 0 0 0-.006.014c0 .005.003.012.008.018a.05.05 0 0 0 .025.015c.021.005.05-.002.079-.038V2.74a.175.175 0 0 1 .127-.047v.015c-.004 0-.006.002-.008.008a.11.11 0 0 0-.005.015.248.248 0 0 1-.003.01.092.092 0 0 1-.013.027c.078-.006.127-.034.158-.073l.01.008-.017.055a.193.193 0 0 1 .036-.017.364.364 0 0 1 .068-.018.355.355 0 0 1 .129 0c.03.008.046.004.058-.006a.167.167 0 0 0 .03-.044m.003-.007c.011-.029.01-.049.004-.065a.125.125 0 0 0-.039-.047c-.039-.048-.051-.112-.04-.203-.083-.148-.202-.185-.3-.17a.261.261 0 0 0-.126.054c-.03.026-.048.055-.05.081a.485.485 0 0 0 .112.137.154.154 0 0 0 .075.022l.028.004a1.01 1.01 0 0 0 .059.019.19.19 0 0 1 .04.016.03.03 0 0 1 .013.012.027.027 0 0 1 .003.018.05.05 0 0 1-.008.019.148.148 0 0 1-.018.021c-.008.01-.02.013-.034.015a.289.289 0 0 1-.062 0 .332.332 0 0 0-.09.002h-.002c-.078 0-.139-.033-.184-.057l-.004-.003a.193.193 0 0 0-.056-.024.027.027 0 0 0-.018.003.034.034 0 0 0-.013.016.083.083 0 0 0-.014.037.03.03 0 0 0 .008.022.058.058 0 0 0 .028.016.168.168 0 0 0 .046.005" clip-rule="evenodd"/><path fill="currentColor" fill-rule="evenodd" d="M11.356 1.62a.064.064 0 0 0 .024.005l.002.015-.036.014a.05.05 0 0 1-.028.019.036.036 0 0 1-.024-.007l-.009-.006a.096.096 0 0 0-.01-.007v.04a1.281 1.281 0 0 0 .01.068c.003.02.005.036.004.05a.042.042 0 0 1-.014.033.073.073 0 0 1-.042.01c-.016 0-.027-.003-.035-.01-.008-.009-.01-.02-.01-.034a.33.33 0 0 1 .005-.049v-.007l.01-.06v-.04H11.2a.147.147 0 0 1-.016.011.036.036 0 0 1-.024.008.048.048 0 0 1-.03-.02l-.024-.03m.027.01.007.01-.005.005m-.002-.014a.063.063 0 0 0 .008-.002l.003-.001a.144.144 0 0 1 .008-.002.038.038 0 0 1 .022 0 .054.054 0 0 1 .02.012l-.007.005a.111.111 0 0 1-.009.006.026.026 0 0 1-.017.005c-.006 0-.013-.004-.021-.015m.073 0a.081.081 0 0 0-.035-.028.047.047 0 0 0-.029 0l-.008.002h-.003a.047.047 0 0 1-.009.003c-.005 0-.01-.001-.014-.007l-.004.005m.102.025-.004.006h.006v.047a.735.735 0 0 1-.01.062v.007a.324.324 0 0 0-.006.046c0 .011.002.018.006.021.005.005.013.008.028.008.018 0 .029-.003.035-.008.006-.004.009-.01.01-.022a.237.237 0 0 0-.005-.045l-.002-.014a1.43 1.43 0 0 1-.008-.055v-.047h.007l-.005-.006a.097.097 0 0 1 .035-.03.046.046 0 0 1 .03-.002.123.123 0 0 1 .02.007l.006.002m-.072.022.007.005a.136.136 0 0 0 .009.006.026.026 0 0 0 .017.005c.006 0 .013-.004.022-.015l.002-.002.014-.005-.003-.001-.006-.003-.018-.006a.036.036 0 0 0-.024.002.066.066 0 0 0-.02.014Zm1.01.58a.227.227 0 0 1 .175.03l-.003.015-.171-.03V2.22Zm.12.02-.066-.011c.023 0 .045.004.066.011Zm-.838.133a.355.355 0 0 1 .03-.15l.012.005-.013.244-.011.001-.005-.022c-.005-.023-.011-.049-.013-.078Zm.02.052a.304.304 0 0 1 .008-.156l-.008.156Z" clip-rule="evenodd"/><path fill="#FF0016" d="M11.245 2.03c.05 0 .074 0 .074-.092 0-.03.036-.046.012-.107.024.061-.085.061-.085.03 0 .031-.123.031-.098-.03-.012.061.024.076.012.107 0 .092.024.092.085.092Z"/><path fill="currentColor" fill-rule="evenodd" d="m11.237 1.865.002-.003h.013s0 .002.002.003a.027.027 0 0 0 .01.006c.01.003.021.004.033.002a.045.045 0 0 0 .027-.013.019.019 0 0 0 .004-.01c0-.004 0-.009-.002-.016l.01-.006c.007.016.01.03.01.041a.08.08 0 0 1-.012.042v.002a.197.197 0 0 0-.004.008.04.04 0 0 0-.005.017c0 .046-.006.072-.02.086a.047.047 0 0 1-.027.012l-.032.001-.04-.001a.055.055 0 0 1-.03-.012c-.016-.013-.022-.04-.022-.086v-.004a.024.024 0 0 0 .002-.015.108.108 0 0 0-.008-.02.112.112 0 0 1-.009-.045.049.049 0 0 1 .003-.026l.012.005a.113.113 0 0 0-.002.019.02.02 0 0 0 .005.008.056.056 0 0 0 .031.013.09.09 0 0 0 .037-.002.033.033 0 0 0 .012-.006Zm.096.005v.001a.055.055 0 0 1-.035.017.083.083 0 0 1-.037-.002.039.039 0 0 1-.016-.01l-.001.002a.044.044 0 0 1-.016.008.101.101 0 0 1-.041.002.073.073 0 0 1-.033-.012.112.112 0 0 0 .005.017l.002.004a.11.11 0 0 1 .007.018.043.043 0 0 1-.002.025c0 .044.007.063.017.072a.045.045 0 0 0 .024.009.315.315 0 0 0 .07 0 .036.036 0 0 0 .02-.009c.01-.009.016-.028.016-.074 0-.01.003-.018.006-.025l.004-.008.001-.002a.138.138 0 0 0 .005-.01.06.06 0 0 0 .004-.023Z" clip-rule="evenodd"/><path fill="currentColor" fill-rule="evenodd" d="m11.064 1.793.122.046-.002.008v.007h-.122V1.84h.08l-.082-.03.004-.016Zm.218.054-.002-.008.123-.046.003.015-.082.031h.105v.015h-.147v-.007Zm.12.068-.122-.046.004-.014.122.045-.003.015Zm-.33-.015.11-.045.004.014-.11.046-.003-.015Z" clip-rule="evenodd"/><path fill="#0051BA" d="M10.586 1.373c-.037-.061-.122 0-.122.061.024-.046.073.015.11 0 .012 0 .036-.03.012-.061Zm-.037.137c-.037-.06-.134 0-.134.061.024-.045.073.016.11 0 .012 0 .036-.045.024-.06Zm-.024.184c-.05-.061-.135 0-.123.076.025-.046.074 0 .098 0 .025-.015.037-.061.012-.076h.013Zm.036.565c-.049-.061-.122.015-.122.091.025-.06.086 0 .122-.03 0 0 .025-.046 0-.077v.016Zm0 .107c-.06-.016-.122.091-.085.152 0-.076.073-.046.098-.076l-.013-.076Zm.074.106c-.061-.03-.123.062-.086.123 0-.046.073-.03.086-.061v-.077.015Zm1.429.168c-.061-.015-.122.077-.085.153 0-.076.073-.046.097-.076l-.012-.077Zm.073.092c-.06-.015-.11.092-.073.153 0-.077.073-.061.085-.092.013-.015.013-.061 0-.061h-.012Zm-.049-.214c-.048-.03-.122.061-.11.122.025-.06.086-.015.11-.045v-.077Zm1.014.153c-.048-.015-.097.092-.073.153 0-.061.073-.046.098-.077 0-.03 0-.076-.025-.076Zm0-.107c-.048-.046-.122.046-.097.107.024-.046.085-.015.11-.046V2.55l-.013.015Zm.05.199c-.062 0-.11.106-.074.152 0-.06.073-.046.086-.076a.08.08 0 0 0-.013-.076Zm-1.906-.794c.036 0 .048.015.048.106 0 .153 0 .245-.049.245-.036 0-.036-.077-.036-.199 0-.06 0-.107-.012-.091 0-.046.012-.061.049-.061Z"/></g><defs><clipPath id="a"><path fill="#fff" d="M0 0h24v18H0z"/></clipPath></defs></svg>