<svg xmlns="http://www.w3.org/2000/svg" width="24" height="18" fill="none"><g fill-rule="evenodd" clip-path="url(#a)" clip-rule="evenodd"><path fill="currentColor" d="M.002 0h36v6.001h-36V0Z"/><path fill="#fff" d="M.002 6.001h36v5.998h-36V6Z"/><path fill="#090" d="M.002 11.999h36V18h-36v-6Z"/><path fill="red" d="m.002 18 18-9-18-9v18Z"/><path fill="#fff" d="m5.005 10.16.2-.875H4.31l.808-.387-.559-.7.809.387.197-.872.2.876.805-.39-.562.7.808.386h-.893l.2.875-.558-.703-.56.703Z"/></g><defs><clipPath id="a"><path fill="#fff" d="M0 0h24v18H0z"/></clipPath></defs></svg>