<svg xmlns="http://www.w3.org/2000/svg" width="24" height="18" fill="none"><g clip-path="url(#a)"><path fill="#fff" d="M0 0h24v18H0V0Z"/><path fill="currentColor" d="M0 0h24v5.4H0V0Z"/><path fill="#060" d="M0 12.6h24V18H0v-5.4Z"/><path fill="currentColor" d="m8.782 14.344.203.112 5.254-9.112c.303-.068.472-.36.64-.653.113-.202.563-.978.755-1.99a6.526 6.526 0 0 0-1.34 1.653c-.168.292-.337.585-.258.889l-5.254 9.1Z"/><path fill="currentColor" fill-rule="evenodd" d="m15.72 2.549-.031.162c-.185.98-.61 1.74-.744 1.98l-.016.028-.002.003c-.083.145-.17.295-.274.417a.75.75 0 0 1-.378.254l-5.269 9.14-.3-.167 5.27-9.132a.81.81 0 0 1 .044-.459c.055-.152.141-.302.225-.447l.001-.002a6.579 6.579 0 0 1 1.35-1.668l.123-.11Zm-.176.31a6.468 6.468 0 0 0-1.2 1.523c-.085.147-.167.29-.218.431a.689.689 0 0 0-.035.416l.005.022-5.236 9.072.104.058 5.238-9.086.024-.006a.629.629 0 0 0 .341-.223 2.678 2.678 0 0 0 .28-.43c.124-.223.501-.898.697-1.777Z" clip-rule="evenodd"/><path fill="#fff" d="m8.782 14.344.203.112 5.254-9.112c.303-.068.472-.36.64-.653.113-.202.563-.978.755-1.99a6.526 6.526 0 0 0-1.34 1.653c-.168.292-.337.585-.258.889l-5.254 9.1Z"/><path fill="#B00" d="M24.019 6.3h-9.881C13.8 5.4 12.675 3.6 12 3.6c-.675 0-1.8 1.8-2.137 2.7h-9.87v5.4h9.87c.337.9 1.462 2.7 2.137 2.7s1.8-1.8 2.138-2.7h9.88V6.3Z"/><path fill="currentColor" d="M14.138 11.7c.337-.9.562-1.8.562-2.7 0-.9-.225-1.8-.562-2.7-.338.9-.563 1.8-.563 2.7 0 .9.225 1.8.563 2.7Z"/><path fill="#fff" d="M12 9.675c.248 0 .45-.302.45-.675 0-.373-.202-.675-.45-.675-.249 0-.45.302-.45.675 0 .373.201.675.45.675Z"/><path fill="#fff" d="M12.112 9.652s.45.9.45 2.363c0 1.462-.45 2.362-.45 2.362V9.652Z"/></g><defs><clipPath id="a"><path fill="#fff" d="M0 0h24v18H0z"/></clipPath></defs></svg>