<svg xmlns="http://www.w3.org/2000/svg" width="24" height="18" fill="none"><g fill-rule="evenodd" clip-path="url(#a)" clip-rule="evenodd"><path fill="#BE0027" d="M-1.515 0h27.029v18H-1.515V0Z"/><path fill="#FF0" d="M6.694 9.18c.479-.584 1.473-.015 2.286-.433-.964.053-1.488-.464-2.247-.39.788-.486 1.46.158 2.338-.099-1.164-.098-1.114-.622-2.176-.696.942-.4 1.406.415 2.33.229-1.09-.25-1.23-.89-2.038-1.027 1.18-.176 1.104.52 2.26.605-1.174-.503-.868-.942-1.849-1.326 1.1-.024 1.027.739 2.144.936-.956-.605-.84-1.157-1.624-1.59.932.018 1.02.97 1.973 1.266-.848-.671-.626-1.24-1.357-1.842.928.218.79 1.04 1.757 1.568-.717-.795-.443-1.364-1.065-2.015.893.285.552 1.07 1.477 1.814-.528-.875-.2-1.434-.725-2.169.83.426.43 1.227 1.196 2.022-.362-.897 0-1.452-.37-2.247.71.528.289 1.382.862 2.198-.211-1.125.274-1.308.123-2.293.538.661-.063 1.322.351 2.296-.052-1.107.538-1.364.437-2.25.53.795-.3 1.487.049 2.338.088-1.048.777-1.322.787-2.138.422.75-.492 1.29-.344 2.286.299-1.097 1.033-1.23 1.125-1.97.25.866-.753 1.267-.693 2.23.299-.974 1.216-1.09 1.406-1.807.116.914-.787 1.08-1.044 2.092.475-.827 1.308-.893 1.68-1.547-.027.907-1.047 1.026-1.36 1.874.587-.721 1.326-.598 1.913-1.234-.064.819-1.1.773-1.653 1.62.637-.587 1.596-.411 2.085-.917-.025.724-1.297.668-1.898 1.318.738-.408 1.68-.169 2.222-.545-.099.633-1.442.485-2.085.984.886-.246 1.571.13 2.285-.14-.348.615-1.568.225-2.215.626.773-.13 1.59.337 2.289.186-.229.534-1.568-.035-2.286.299.858-.007 1.417.545 2.215.506-.432.485-1.606-.18-2.292-.067.837.176 1.477.865 2.11.9-.524.397-1.495-.51-2.286-.397.816.218 1.498 1.143 1.962 1.164-.503.344-1.494-.791-2.172-.75.826.373 1.202 1.32 1.747 1.453-.672.214-1.333-1.027-2.053-1.073.836.528.882 1.336 1.525 1.695-.678.165-1.16-1.238-1.873-1.357.685.503.79 1.582 1.244 1.92-.689.035-.939-1.431-1.645-1.642.604.506.46 1.603.931 2.074-.717-.151-.625-1.427-1.374-1.86.538.682.263 1.649.615 2.194-.7-.281-.397-1.427-1.062-2.074.362.724-.028 1.568.26 2.267-.64-.313-.21-1.666-.7-2.204.226.837-.189 1.53-.02 2.278-.654-.756.098-1.519-.468-2.289.148.883-.47 1.502-.373 2.24-.516-.605.282-1.572-.122-2.335.084.869-.714 1.632-.658 2.18-.422-.703.468-1.533.229-2.33-.05.83-.858 1.28-1.01 2.035-.27-.833.69-1.434.605-2.254-.274.777-1.054 1.09-1.329 1.846-.225-.833.914-1.273.943-2.144-.352.815-1.284.998-1.593 1.624-.116-.826 1.188-1.195 1.237-1.98-.421.753-1.44.784-1.792 1.382-.053-.822 1.321-.925 1.536-1.786-.418.64-1.536.56-2.004 1.08.074-.763 1.56-.81 1.8-1.498-.556.534-1.582.316-2.162.738.323-.752 1.719-.594 2.032-1.135-.615.32-1.709.007-2.25.33.492-.71 1.575-.285 2.19-.773-.998.144-1.6-.254-2.292-.07h.003Z"/><path fill="#FF0" d="M15.501 9.004a3.49 3.49 0 1 1-3.491-3.488 3.487 3.487 0 0 1 3.488 3.488h.003Z"/><path fill="#BE0027" d="M15.05 9.01a3.034 3.034 0 1 1-6.067 0 3.034 3.034 0 0 1 6.068 0Z"/><path fill="#FF0" d="M14.63 9.018a2.605 2.605 0 1 1-5.211 0 2.605 2.605 0 0 1 5.21 0Z"/><path fill="#BE0027" d="M9.806 7.313c.72-.018 1.617.049 2.211.52a3.413 3.413 0 0 1 2.127-.503l.387.707a3.55 3.55 0 0 0-1.758.288 2.999 2.999 0 0 1 1.216 2.535c-.095.12-.246.25-.34.369.14-1.002-.387-2.12-1.157-2.707.626.9.995 1.709.893 2.826l-.352.225c.162-.984-.07-2.144-.798-2.812.422.615.837 1.723.577 2.848-.113.035-.289.13-.401.161a3.374 3.374 0 0 0-.38-2.766c-.485.696-.643 1.757-.369 2.742-.134-.035-.235-.078-.373-.11-.2-1.054.078-2.25.56-2.871-.493.284-.953 1.5-.823 2.742l-.327-.151c-.158-.925.26-2.13.861-2.827-.682.429-1.237 1.487-1.142 2.623-.106-.092-.2-.137-.306-.232-.12-.992.457-1.99 1.128-2.588-.566-.257-1.055-.306-1.758-.295.11-.229.211-.496.324-.728v.004Z"/></g><defs><clipPath id="a"><path fill="#fff" d="M0 0h24v18H0z"/></clipPath></defs></svg>