<svg xmlns="http://www.w3.org/2000/svg" width="24" height="18" fill="none"><g clip-path="url(#a)"><path fill="#032EA1" d="M0 0h24v18H0V0Z"/><path fill="#E00025" d="M0 4.5h24v9H0v-9Z"/><path fill="#fff" d="M9.465 8.482h5.12v1.971h-5.12v-1.97Z"/><path fill="currentColor" fill-rule="evenodd" d="m9.442 8.482.022-.023h5.121l.023.023v1.971l-.023.023h-5.12l-.023-.023V8.482Zm.045.022v1.927h5.076V8.504H9.487Z" clip-rule="evenodd"/><path fill="#fff" d="M14.325 9.566h.157v.743h-.157v-.743Zm-4.86-.364h5.12v.225h-5.12v-.225Zm0-.315h5.12v.207h-5.12v-.207Z"/><path fill="currentColor" fill-rule="evenodd" d="m9.442 8.887.022-.022h5.121l.023.022v.207l-.023.023h-5.12l-.023-.023v-.207Zm.045.023v.162h5.076V8.91H9.487Zm-.045.292.022-.022h5.121l.023.022v.225l-.023.023h-5.12l-.023-.023v-.225Zm.045.023v.18h5.076v-.18H9.487Zm4.815.342.022-.023h.158l.022.023v.742l-.022.023h-.158l-.022-.023v-.742Zm.045.022v.698h.112v-.698h-.112Z" clip-rule="evenodd"/><path fill="#fff" d="M9.465 8.58h5.12v.194h-5.12v-.193Z"/><path fill="currentColor" fill-rule="evenodd" d="m9.444 8.58.02-.02h5.122l.02.02v.194l-.02.02H9.465l-.02-.02v-.193Zm.04.021v.153h5.081v-.153h-5.08Z" clip-rule="evenodd"/><path fill="#fff" d="M10.815 9.567h.162v.742h-.162v-.742Zm2.205 0h.162v.742h-.162v-.742Zm-3.51 0h.157v.742H9.51v-.742Zm.315 0h.157v.742h-.157v-.742Zm.337 0h.158v.742h-.158v-.742Zm.338 0h.157v.742H10.5v-.742Zm2.826 0h.162v.742h-.162v-.742Zm.337 0h.162v.742h-.162v-.742Zm.338 0h.162v.742H14v-.742Z"/><path fill="currentColor" fill-rule="evenodd" d="m9.487 9.566.022-.022h.158l.022.022v.743l-.022.023h-.158l-.022-.023v-.743Zm.045.023v.697h.112V9.59h-.112Zm.27-.023.022-.022h.158l.022.022v.743l-.022.023h-.158l-.022-.023v-.743Zm.045.023v.697h.112V9.59h-.112Zm.292-.023.023-.022h.157l.023.022v.743l-.023.023h-.157l-.023-.023v-.743Zm.045.023v.697h.113V9.59h-.113Zm.293-.023.022-.022h.158l.022.022v.743l-.022.023h-.158l-.022-.023v-.743Zm.045.023v.697h.112V9.59h-.112Zm.27-.023.022-.022h.162l.023.022v.743l-.023.023h-.162l-.022-.023v-.743Zm.045.023v.697h.117V9.59h-.117Zm2.16-.023.022-.022h.162l.023.022v.743l-.023.023h-.162l-.022-.023v-.743Zm.045.023v.697h.117V9.59h-.117Zm.26-.023.023-.022h.162l.023.022v.743l-.023.023h-.162l-.022-.023v-.743Zm.046.023v.697h.117V9.59h-.117Zm.292-.023.023-.022h.162l.022.022v.743l-.022.023h-.162l-.023-.023v-.743Zm.045.023v.697h.117V9.59h-.117Zm.293-.023L14 9.544h.162l.023.022v.743l-.023.023H14l-.022-.023v-.743Zm.045.023v.697h.117V9.59h-.117Z" clip-rule="evenodd"/><path fill="#fff" d="M7.462 10.552a.418.418 0 0 0 .198-.239h8.69a.419.419 0 0 0 .197.239H7.462Z"/><path fill="currentColor" fill-rule="evenodd" d="M7.644 10.291h8.722l.005.016a.396.396 0 0 0 .187.225l-.01.043H7.461l-.01-.043a.396.396 0 0 0 .187-.225l.005-.016Zm.032.045a.44.44 0 0 1-.14.194h8.937a.44.44 0 0 1-.14-.194H7.676Z" clip-rule="evenodd"/><path fill="#fff" d="M11.895 5.481s-.005-.185.103-.189c.104 0 .1.189.1.189h-.203Zm-.563 2.452v-.247c0-.126-.126-.135-.126-.225 0 0-.018-.135.018-.198.05.18.135.148.135.072 0-.063-.045-.126-.148-.284-.036-.049-.014-.207.031-.265.018.135.04.202.1.202.035 0 .062-.022.062-.09 0-.09-.058-.135-.09-.216a.225.225 0 0 1 .05-.238c.022.135.018.189.076.189.122-.04 0-.216-.027-.261-.027-.05.045-.153.045-.153.036.121.045.13.09.117.054-.014.045-.09-.018-.153-.04-.045-.036-.104.01-.149.044.086.098.081.103.027l-.036-.198h.783l-.04.194c-.01.054.062.067.107-.023.045.045.05.108.01.149-.064.063-.073.14-.019.153.045.013.054 0 .09-.117 0 0 .068.067.045.153-.027.045-.148.225-.027.261.059 0 .054-.054.077-.189a.225.225 0 0 1 .045.238c-.027.081-.09.126-.09.216 0 .068.031.09.067.09.059 0 .081-.063.1-.202.044.058.067.216.03.27-.103.153-.152.216-.152.279 0 .076.09.108.135-.072.04.063.022.198.022.198 0 .09-.121.099-.126.225v.247h-1.332Zm.324-2.07-.018-.139h.716l-.018.14h-.68Zm.045-.144-.009-.112h.608l-.014.112h-.585Zm.104-.117-.014-.117h.405l-.004.117h-.387Zm1.485 4.95c-.09-.031-.225-.13-.225-.224V9.234l.117-.153h-2.367l.112.153v1.094c0 .094-.09.193-.18.225h2.543Z"/><path fill="#fff" d="M11.229 9.567h.162v.742h-.162v-.742Zm1.368 0h.162v.742h-.162v-.742Z"/><path fill="currentColor" fill-rule="evenodd" d="m11.206 9.566.022-.022h.162l.023.022v.743l-.023.023h-.162l-.022-.023v-.743Zm.045.023v.697h.117V9.59h-.117Zm1.323-.023.022-.022h.162l.023.022v.743l-.023.023h-.162l-.022-.023v-.743Zm.045.023v.697h.117V9.59h-.117Z" clip-rule="evenodd"/><path fill="#fff" d="M10.77 7.84v1.24h2.43V7.84a.189.189 0 0 0-.117.126v.531H10.89v-.53s-.027-.09-.126-.127h.005Z"/><path fill="currentColor" fill-rule="evenodd" d="M13.222 7.807v1.296h-2.475V7.84h.014l.004-.023h.027v.01a.232.232 0 0 1 .119.127l.001.004v.001l-.02.007.02-.007.002.004v.511h2.146V7.96a.212.212 0 0 1 .132-.141l.03-.011Zm-2.353.162-.004-.01a.19.19 0 0 0-.073-.082v1.181h2.385V7.875a.166.166 0 0 0-.072.093v.55H10.87v-.55Z" clip-rule="evenodd"/><path fill="#fff" d="M12.866 10.553c-.08-.031-.252-.13-.252-.225V9.104c.018-.067.108-.108.167-.153h-1.607c.077.045.162.077.194.153v1.224c0 .095-.135.194-.216.225h1.714Z"/><path fill="currentColor" fill-rule="evenodd" d="M11.092 8.928h1.756l-.053.04a.632.632 0 0 1-.05.035.989.989 0 0 0-.048.034c-.03.023-.052.045-.06.07v1.22c0 .018.008.037.024.058.016.02.038.042.063.061.051.04.112.07.151.086l-.008.043h-1.715l-.008-.043a.454.454 0 0 0 .131-.085c.043-.04.07-.082.07-.12V9.109a.18.18 0 0 0-.069-.074.717.717 0 0 0-.066-.038l-.046-.026-.072-.042Zm.17.045a.629.629 0 0 1 .039.024.22.22 0 0 1 .088.098l.002.004v1.229c0 .057-.04.11-.085.152a.5.5 0 0 1-.064.05h1.528a.685.685 0 0 1-.073-.048.377.377 0 0 1-.072-.07.143.143 0 0 1-.033-.084V9.1l.001-.003A.19.19 0 0 1 12.67 9a.8.8 0 0 1 .04-.028h-1.447Z" clip-rule="evenodd"/><path fill="#fff" d="M13.083 8.964v-.882h-.22v-.085h-1.747v.09h-.225v.877h2.192Zm-.558 1.589c-.081-.032-.194-.13-.194-.225V9.284l.063-.095h-.796l.067.09v1.049c0 .094-.117.193-.193.225h1.053Z"/><path fill="currentColor" fill-rule="evenodd" d="M11.093 7.975h1.791v.085h.22v.927h-2.236v-.922h.225v-.09Zm.045.045v.09h-.225v.832h2.147v-.837h-.22V8.02h-1.702Zm.414 1.147h.884l-.083.124v1.037c0 .039.024.082.06.12a.351.351 0 0 0 .12.084l-.009.044h-1.053l-.008-.044a.375.375 0 0 0 .117-.083c.038-.04.062-.082.062-.12V9.286l-.09-.12Zm.09.045.045.06v1.056c0 .056-.034.11-.074.152a.434.434 0 0 1-.058.05h.884a.422.422 0 0 1-.058-.05c-.04-.043-.073-.096-.073-.152v-1.05l.044-.066h-.71Z" clip-rule="evenodd"/><path fill="#fff" d="M11.791 9.189h.405v1.364h-.405V9.188Z"/><path fill="currentColor" fill-rule="evenodd" d="M11.768 9.166h.45v1.409h-.45v-1.41Zm.045.045v1.319h.36V9.21h-.36Z" clip-rule="evenodd"/><path fill="#fff" d="M12.408 8.887c0-.09.26-.094.396-.17h-1.62c.135.076.391.08.391.17l.054.176.675.027.104-.203Z"/><path fill="currentColor" fill-rule="evenodd" d="m11.173 8.736.01-.042h1.62l.012.042a.585.585 0 0 1-.124.049 2.619 2.619 0 0 1-.13.034.494.494 0 0 0-.1.035c-.024.013-.03.024-.03.034l-.003.01-.104.203-.02.012-.675-.027-.021-.016-.054-.176-.001-.006c0-.01-.006-.021-.03-.034a.48.48 0 0 0-.099-.035 3.43 3.43 0 0 0-.046-.012l-.082-.022a.587.587 0 0 1-.123-.049Zm.128.003.007.003a2.44 2.44 0 0 0 .128.034c.04.01.08.022.108.038.027.015.052.037.054.07l.048.157.645.026.095-.185c.002-.032.027-.053.054-.068a.533.533 0 0 1 .11-.038l.048-.013.08-.021a.745.745 0 0 0 .008-.003h-1.385Z" clip-rule="evenodd"/><path fill="#fff" d="M12.723 7.934c0-.22.008-.302.076-.302v.693c-.166.063-.284.27-.284.27h-1.043s-.117-.207-.284-.27v-.697c.081 0 .081.09.081.301l1.454.005Zm.076-.09c0-.252.22-.28.22-.28v.226c-.085-.005-.126.072-.126.18 0 .112.068.112.068.112v.64h-.162v-.878Z"/><path fill="currentColor" fill-rule="evenodd" d="M13.041 7.54v.273l-.023-.001a.078.078 0 0 0-.075.038.224.224 0 0 0-.027.12c0 .051.015.072.025.08a.04.04 0 0 0 .02.01h.022v.683h-.207V8.36a.551.551 0 0 0-.164.138.88.88 0 0 0-.076.106l-.001.002-.007.011h-1.07l-.007-.01v-.003l-.005-.006a.76.76 0 0 0-.072-.1.51.51 0 0 0-.194-.152l-.015-.005v-.736h.023c.024 0 .046.007.063.024a.128.128 0 0 1 .03.065c.01.048.01.12.01.213l1.409.004c0-.098.003-.169.013-.216a.131.131 0 0 1 .029-.062.074.074 0 0 1 .056-.024h.023v.06a.266.266 0 0 1 .075-.078.302.302 0 0 1 .12-.049l.003.022-.003-.022.025-.003Zm-.045.053a.258.258 0 0 0-.075.035c-.049.034-.1.097-.1.215v.855h.117V8.1a.086.086 0 0 1-.026-.015c-.023-.02-.042-.055-.042-.116 0-.056.011-.107.035-.144a.122.122 0 0 1 .091-.057v-.175Zm-.22.069-.002.001a.09.09 0 0 0-.017.042 1.23 1.23 0 0 0-.012.228v.023l-1.499-.005V7.93c0-.107 0-.18-.01-.226a.086.086 0 0 0-.018-.042.03.03 0 0 0-.008-.007v.656a.57.57 0 0 1 .199.16.923.923 0 0 1 .075.102h1.018a.75.75 0 0 1 .075-.103.571.571 0 0 1 .199-.16v-.647Z" clip-rule="evenodd"/><path fill="#fff" d="M11.188 7.844c0-.252-.22-.28-.22-.28v.226c.085-.005.125.072.125.18 0 .112-.067.112-.067.112v.64h.162v-.878Z"/><path fill="currentColor" fill-rule="evenodd" d="m10.97 7.542-.003.022.003-.022h.003a.193.193 0 0 1 .035.01.25.25 0 0 1 .082.039c.061.042.12.119.12.252v.9h-.207V8.06h.027a.04.04 0 0 0 .015-.008c.01-.009.026-.03.026-.082a.224.224 0 0 0-.027-.12.078.078 0 0 0-.075-.037l-.024.001V7.54l.025.003Zm.078.558v.598h.117v-.855c0-.118-.05-.18-.1-.215a.258.258 0 0 0-.075-.035v.175a.12.12 0 0 1 .091.057.268.268 0 0 1 .035.144c0 .061-.019.097-.042.116a.086.086 0 0 1-.026.015Zm.568-2.016h.774v.036h-.774v-.036Zm-.09.243h.945v.036h-.945v-.036Zm-.09.292h1.12v.036h-1.12V6.62Zm-.095.356h1.328v.036H11.34v-.036Zm1.337.441H11.31V7.38h1.368v.036Z" clip-rule="evenodd"/><path fill="currentColor" fill-rule="evenodd" d="M13.082 8.708v.045h-.661v.297h-.855v-.297h-.67v-.045h2.186Zm-1.471.045v.252h.765v-.252h-.765Z" clip-rule="evenodd"/><path fill="#fff" d="M11.49 8.064c.135.162.117.437.117.599h.783c0-.162-.018-.437.117-.599H11.49Zm.436-1.845-.108-.058v-.158c.045.014.09.018.1.09.013-.103.044-.094.085-.135.045.04.067.032.085.135 0-.072.054-.076.095-.09v.158l-.104.054-.153.004Z"/><path fill="currentColor" fill-rule="evenodd" d="m12.002 5.927.016.014.025.02.003.002a.12.12 0 0 1 .046.056.095.095 0 0 1 .016-.012.153.153 0 0 1 .036-.016l.016-.005h.001a.407.407 0 0 0 .015-.005l.03-.01v.203l-.12.063-.165.004-.125-.067v-.201l.029.008.013.004.02.006a.143.143 0 0 1 .036.016l.017.015a.115.115 0 0 1 .023-.036.178.178 0 0 1 .026-.022h.001a.201.201 0 0 0 .026-.022l.015-.015Zm.002.06L11.988 6a.136.136 0 0 0-.021.017c-.01.01-.02.029-.027.079h-.045c-.004-.031-.014-.044-.026-.051a.1.1 0 0 0-.024-.011l-.004-.001v.114l.09.05.143-.005.086-.045v-.114h-.002a.11.11 0 0 0-.025.012.042.042 0 0 0-.016.016.068.068 0 0 0-.006.032l-.045.004c-.009-.051-.018-.07-.027-.08a.108.108 0 0 0-.02-.018l-.003-.002-.012-.01Zm-.562 2.054h1.113l-.03.037a.54.54 0 0 0-.105.288 1.976 1.976 0 0 0-.008.296v.023h-.828V8.61a1.864 1.864 0 0 0-.007-.244.54.54 0 0 0-.104-.288l-.031-.037Zm.092.045c.053.08.077.179.087.274a2.026 2.026 0 0 1 .008.28h.738v-.03c0-.072-.002-.162.008-.25a.632.632 0 0 1 .088-.275h-.929Z" clip-rule="evenodd"/><path fill="#fff" d="m11.917 6.476-.18-.126v-.14c.068.014.135.023.144.1.018-.113.059-.167.122-.212.058.045.099.1.121.212.005-.077.077-.086.135-.1v.145l-.175.121h-.167Z"/><path fill="currentColor" fill-rule="evenodd" d="m12.003 6.07.013.01a.313.313 0 0 1 .113.16c.01-.01.02-.018.032-.024a.286.286 0 0 1 .08-.025l.013-.003.027-.006v.184l-.19.132h-.181l-.196-.137v-.179l.027.006.011.002c.03.006.062.012.089.026a.12.12 0 0 1 .033.023.295.295 0 0 1 .116-.16l.013-.01Zm-.06.12a.331.331 0 0 0-.04.122h-.045a.073.073 0 0 0-.012-.036.07.07 0 0 0-.025-.02.246.246 0 0 0-.062-.019v.1l.165.116h.152l.16-.11v-.105a.23.23 0 0 0-.055.018.067.067 0 0 0-.024.02.064.064 0 0 0-.01.034l-.045.003a.376.376 0 0 0-.045-.123.255.255 0 0 0-.055-.064.237.237 0 0 0-.058.063Z" clip-rule="evenodd"/><path fill="#fff" d="m11.904 6.876-.203-.18v-.212c.072.018.153.027.162.14.023-.158.068-.243.135-.306.072.063.117.148.144.306.01-.113.09-.122.162-.14v.212l-.207.18h-.193Zm.378.238-.18.257h-.212l-.184-.257h.576Zm-.684.428c.09.05.126.153.135.342h.522c.009-.19.045-.293.135-.342h-.792Z"/><path fill="currentColor" fill-rule="evenodd" d="m11.998 6.287.015.014a.436.436 0 0 1 .134.236.133.133 0 0 1 .04-.038.32.32 0 0 1 .095-.033l.017-.004.028-.007v.25l-.221.193h-.21l-.217-.192v-.25l.028.006.017.004a.34.34 0 0 1 .094.033c.015.01.028.021.039.036a.437.437 0 0 1 .126-.234l.015-.014Zm0 .062c-.054.057-.092.136-.112.278l-.045-.002c-.004-.05-.023-.073-.047-.088a.244.244 0 0 0-.07-.024v.172l.188.168h.177l.193-.168v-.172a.242.242 0 0 0-.07.024c-.024.015-.043.039-.047.088l-.045.002c-.024-.142-.063-.221-.121-.278Zm-.336.742h.663l-.211.302h-.235l-.217-.302Zm.088.045.152.212h.188l.149-.212h-.49Zm-.163.425.01-.042h.793l.01.042c-.078.043-.114.135-.123.324v.02h-.566v-.02c-.01-.19-.046-.28-.124-.324Zm.076.003c.058.061.083.158.091.297h.48c.008-.139.033-.236.09-.297h-.66Z" clip-rule="evenodd"/><path fill="#fff" d="M12.399 7.11v-.252a.234.234 0 0 0-.171.148c0-.09-.113-.283-.234-.382-.122.108-.239.288-.234.378-.023-.068-.081-.122-.171-.144v.256l.81-.004Z"/><path fill="currentColor" fill-rule="evenodd" d="m11.979 6.608.029-.001a.8.8 0 0 1 .23.332.253.253 0 0 1 .156-.103l.027.022v.252l-.022.023-.81.004-.023-.022v-.257l.028-.021a.27.27 0 0 1 .155.096.637.637 0 0 1 .062-.125.97.97 0 0 1 .168-.2Zm.015.046a.941.941 0 0 0-.146.178.595.595 0 0 0-.05.097.187.187 0 0 0-.016.072l-.044.008a.197.197 0 0 0-.127-.12v.203l.765-.004v-.2a.212.212 0 0 0-.127.127l-.044-.008a.228.228 0 0 0-.018-.076.78.78 0 0 0-.193-.277Z" clip-rule="evenodd"/><path fill="#fff" d="M12.435 7.542V7.29c-.095.027-.158.077-.185.149 0-.09-.121-.284-.256-.383-.135.113-.261.288-.257.383-.022-.068-.09-.122-.184-.149v.257l.882-.005Z"/><path fill="currentColor" fill-rule="evenodd" d="M11.979 7.039h.028a.8.8 0 0 1 .253.335.31.31 0 0 1 .168-.105l.029.021v.252l-.023.023-.882.004-.022-.022V7.29l.029-.021c.07.02.13.056.167.103a.606.606 0 0 1 .069-.13c.048-.072.115-.145.184-.203Zm.015.046a.994.994 0 0 0-.163.182.57.57 0 0 0-.054.097.18.18 0 0 0-.018.074l-.044.008c-.017-.052-.066-.097-.14-.125v.203l.837-.004v-.2c-.074.027-.12.07-.141.126l-.044-.008a.21.21 0 0 0-.02-.075.778.778 0 0 0-.214-.278Z" clip-rule="evenodd"/><path fill="#fff" d="M12.543 8.068v-.297a.432.432 0 0 0-.23.171c0-.157-.18-.405-.32-.481-.143.08-.319.333-.319.481a.436.436 0 0 0-.234-.17v.296h1.103Z"/><path fill="currentColor" fill-rule="evenodd" d="M11.982 7.442h.022c.074.04.157.124.22.217a.66.66 0 0 1 .105.226.455.455 0 0 1 .207-.135l.029.022v.297l-.022.022H11.44l-.022-.022v-.297l.029-.022a.46.46 0 0 1 .211.136.676.676 0 0 1 .103-.222.735.735 0 0 1 .222-.222Zm.012.045a.719.719 0 0 0-.196.202.52.52 0 0 0-.101.254l-.042.012a.414.414 0 0 0-.192-.152v.243h1.057v-.243a.41.41 0 0 0-.188.152l-.042-.012a.515.515 0 0 0-.103-.259.705.705 0 0 0-.193-.197Z" clip-rule="evenodd"/><path fill="#fff" d="M12.48 8.73v-.306c-.109.04-.136.14-.172.212.014-.31-.17-.64-.315-.725-.144.086-.333.423-.315.72-.036-.063-.067-.166-.17-.207v.302l.971.004Z"/><path fill="currentColor" fill-rule="evenodd" d="M11.755 8.182a.703.703 0 0 1 .227-.29h.023a.686.686 0 0 1 .226.287c.05.107.089.232.098.36a.264.264 0 0 1 .143-.136l.03.02v.307l-.022.022-.972-.004-.023-.023v-.301l.031-.021a.255.255 0 0 1 .121.104.52.52 0 0 1 .02.032 1.01 1.01 0 0 1 .098-.357Zm.04.02a.905.905 0 0 0-.094.428l-.042.012-.021-.042-.007-.012a.554.554 0 0 0-.031-.057.226.226 0 0 0-.07-.07v.242l.927.004V8.46c-.058.034-.083.09-.11.146a1.182 1.182 0 0 1-.018.04l-.043-.01a.951.951 0 0 0-.096-.437.678.678 0 0 0-.196-.26.693.693 0 0 0-.198.263Z" clip-rule="evenodd"/><path fill="#fff" d="M12.407 9.19v-.306c-.112.027-.117.067-.153.134a.56.56 0 0 0-.26-.477.57.57 0 0 0-.262.477c-.036-.067-.04-.107-.153-.135v.306h.828Z"/><path fill="currentColor" fill-rule="evenodd" d="m11.994 8.516.01.006c.077.043.148.12.199.208a.575.575 0 0 1 .071.205.158.158 0 0 1 .012-.014c.024-.027.058-.045.116-.06l.028-.006v.357h-.873v-.357l.028.007c.058.014.093.032.117.059l.012.016a.598.598 0 0 1 .072-.207.548.548 0 0 1 .197-.208l.01-.006Zm-.169.236a.508.508 0 0 0-.07.265l-.042.012-.013-.025v-.002a.96.96 0 0 0-.01-.019.16.16 0 0 0-.022-.032.14.14 0 0 0-.066-.038v.254h.783v-.254a.14.14 0 0 0-.066.038.16.16 0 0 0-.021.032.96.96 0 0 0-.01.02v.001l-.014.025-.042-.012a.481.481 0 0 0-.068-.265.521.521 0 0 0-.17-.184.514.514 0 0 0-.169.184Z" clip-rule="evenodd"/><path fill="#fff" d="M7.665 10.314v-.918c-.032-.117-.135-.225-.207-.243v-.81l.167.09.193.85v1.035l-.153-.004Z"/><path fill="currentColor" fill-rule="evenodd" d="m7.435 8.305.209.113.196.863v1.06l-.198-.005v-.937a.387.387 0 0 0-.083-.147.245.245 0 0 0-.107-.077l-.017-.005v-.865Zm.045.076v.756a.316.316 0 0 1 .113.085.43.43 0 0 1 .093.168l.001.003v.9l.108.002v-1.01l-.19-.837-.125-.067Z" clip-rule="evenodd"/><path fill="#fff" d="M7.665 10.319v-.923c-.032-.117-.135-.225-.207-.243V8.29c.113 0 .167.144.167.144l.193.85v1.031l-.153.005Z"/><path fill="currentColor" fill-rule="evenodd" d="M7.435 8.266h.023c.066 0 .114.043.143.08a.341.341 0 0 1 .043.077v.001h.001l-.02.009.02-.008v.001l.195.855v1.054l-.198.006V9.4a.387.387 0 0 0-.083-.147.245.245 0 0 0-.107-.078l-.017-.004v-.904Zm.167.173a.149.149 0 0 0-.008-.019.297.297 0 0 0-.029-.046.153.153 0 0 0-.085-.06v.822a.316.316 0 0 1 .113.086.43.43 0 0 1 .093.168l.001.003v.902l.108-.003V9.286l-.193-.847Z" clip-rule="evenodd"/><path fill="#fff" d="M7.543 10.552c.076-.031.189-.13.189-.225V9.175l-.054-.09h1.966l-.076.09v1.152a.27.27 0 0 0 .153.225H7.543Z"/><path fill="currentColor" fill-rule="evenodd" d="M7.638 9.063h2.055l-.102.12v1.143a.247.247 0 0 0 .14.206l-.01.043H7.543l-.008-.044a.358.358 0 0 0 .115-.083c.036-.04.06-.082.06-.121V9.181l-.072-.118Zm.08.044.037.062v1.158c0 .056-.033.11-.072.151a.426.426 0 0 1-.057.052h2.02a.294.294 0 0 1-.1-.201V9.166l.05-.06H7.718Z" clip-rule="evenodd"/><path fill="#fff" d="M9.32 10.553c-.076-.032-.189-.13-.189-.225V9.234l.162-.153H7.961l.162.153v1.094c0 .094-.112.193-.189.225H9.32Z"/><path fill="currentColor" fill-rule="evenodd" d="M7.905 9.058H9.35l-.196.185v1.084c0 .039.023.082.06.12.035.04.08.07.115.084l-.009.044H7.934l-.008-.044a.358.358 0 0 0 .115-.083c.036-.039.06-.082.06-.12V9.242l-.196-.185Zm.113.045.128.12v1.104c0 .056-.033.11-.072.152a.433.433 0 0 1-.057.05h1.22a.432.432 0 0 1-.056-.05c-.04-.043-.072-.096-.072-.152V9.224l.128-.12H8.018Z" clip-rule="evenodd"/><path fill="#fff" d="M9.136 10.553c-.077-.032-.194-.131-.194-.226v-.99l.108-.148h-.846l.108.148v.99c0 .095-.112.194-.193.226h1.017Z"/><path fill="currentColor" fill-rule="evenodd" d="M8.16 9.166h.935l-.13.178v.983c0 .039.024.082.062.12a.35.35 0 0 0 .118.084l-.009.043H8.119l-.008-.043a.352.352 0 0 0 .119-.083c.036-.04.06-.082.06-.121v-.983l-.13-.178Zm.089.045.086.119v.997c0 .056-.033.11-.073.152a.424.424 0 0 1-.058.05h.849a.442.442 0 0 1-.059-.05c-.04-.042-.074-.096-.074-.152V9.33l.086-.119H8.25Z" clip-rule="evenodd"/><path fill="#fff" d="M8.43 9.189h.4v1.368h-.405l.004-1.368Z"/><path fill="currentColor" fill-rule="evenodd" d="M8.407 9.166h.446v1.413h-.45l.004-1.413Zm.045.045-.004 1.323h.36V9.211h-.356Z" clip-rule="evenodd"/><path fill="#fff" d="M7.876 9.567h.162v.742h-.162v-.742Zm1.386 0h.157v.742h-.162l.005-.742ZM7.736 8.316h.198v.765h-.198v-.765Zm0-.144h.194v.144h-.194v-.144Zm1.602.31h.275v.585h-.275v-.585Z"/><path fill="currentColor" fill-rule="evenodd" d="m7.714 8.172.022-.023h.194l.022.023v.14l.005.004v.765l-.023.022h-.198l-.022-.022v-.91Zm.045.166v.72h.153v-.72h-.153Zm.148-.045H7.76v-.099h.148v.1Zm1.409.19.022-.023h.275l.022.022v.585l-.022.023h-.275l-.022-.023v-.585Zm.045.022v.54h.23v-.54h-.23ZM7.853 9.567l.023-.023h.162l.022.023v.742l-.022.023h-.162l-.023-.023v-.742Zm.045.022v.698h.117v-.698h-.117Zm1.341-.022.023-.023h.157l.023.023v.742l-.023.023h-.162l-.022-.023.004-.742Zm.045.022-.004.698h.117v-.698h-.113Z" clip-rule="evenodd"/><path fill="#fff" d="M7.93 9.072V7.767c.054 0 .063.194.19.194.067 0 .062-.081.022-.144-.032-.059-.072-.135-.018-.284.04.113.14.149.121.081-.031-.121-.126-.144-.054-.328.023.153.122.148.1.058-.028-.103-.086-.148-.014-.292.04.166.09.157.09.054 0-.153 0-.315.189-.374 0 0 .013-.135.085-.135.068 0 .081.135.081.135.194.059.19.225.19.374 0 .103.049.112.09-.054.071.144.013.189-.014.292-.023.09.076.095.099-.058.072.184-.023.207-.054.328-.018.068.08.032.121-.08.054.148.014.224-.018.283-.036.063-.045.144.023.144.126 0 .135-.19.189-.19v1.301H7.93Zm-.31-.985v.994h.112v-.994c-.04-.023-.076-.023-.112 0Z"/><path fill="currentColor" fill-rule="evenodd" d="m8.578 6.734-.002.015-.014.004c-.088.027-.13.077-.151.138a.664.664 0 0 0-.022.214c0 .027-.003.05-.01.067a.053.053 0 0 1-.017.024.035.035 0 0 1-.033.005.055.055 0 0 1-.024-.018.143.143 0 0 1-.018-.029.323.323 0 0 1-.014-.035.17.17 0 0 0-.005.089c.004.019.01.037.019.058v.003a.37.37 0 0 1 .024.069c.007.026.006.05-.005.068a.048.048 0 0 1-.024.02.05.05 0 0 1-.03.001.093.093 0 0 1-.052-.044.176.176 0 0 1-.01-.017.214.214 0 0 0-.003.032.15.15 0 0 0 .013.066c.006.015.014.029.022.044l.01.018a.344.344 0 0 1 .034.082c.005.019.006.044-.016.057a.044.044 0 0 1-.028.005.081.081 0 0 1-.027-.01.19.19 0 0 1-.067-.066.281.281 0 0 0-.006.11.294.294 0 0 0 .039.1.187.187 0 0 1 .032.11.077.077 0 0 1-.02.048.073.073 0 0 1-.054.02c-.078 0-.117-.06-.142-.108l-.015-.03a8.617 8.617 0 0 1-.01-.022V9.05h1.373V7.826a.816.816 0 0 0-.008.015c0 .002-.002.003-.003.005l-.014.03c-.025.048-.065.107-.142.107a.07.07 0 0 1-.053-.021.076.076 0 0 1-.02-.049.208.208 0 0 1 .031-.108.308.308 0 0 0 .039-.1.281.281 0 0 0-.006-.111.19.19 0 0 1-.067.067.081.081 0 0 1-.027.009.044.044 0 0 1-.029-.005c-.02-.013-.02-.038-.016-.057a.344.344 0 0 1 .045-.1c.008-.015.016-.029.022-.044a.153.153 0 0 0 .013-.066l-.003-.032a.176.176 0 0 1-.01.017.093.093 0 0 1-.051.044.05.05 0 0 1-.031 0 .048.048 0 0 1-.024-.021c-.011-.018-.012-.042-.006-.068a.615.615 0 0 1 .024-.07v-.002a.383.383 0 0 0 .02-.058.17.17 0 0 0-.005-.089.323.323 0 0 1-.014.035.143.143 0 0 1-.018.03.055.055 0 0 1-.025.017.035.035 0 0 1-.032-.005.053.053 0 0 1-.017-.024.184.184 0 0 1-.01-.075c0-.073 0-.144-.02-.205a.212.212 0 0 0-.153-.139l-.014-.004-.002-.015v-.001a.21.21 0 0 0-.003-.018.294.294 0 0 0-.01-.043.126.126 0 0 0-.021-.04c-.008-.009-.016-.013-.024-.013-.01 0-.019.005-.027.014a.122.122 0 0 0-.022.039.277.277 0 0 0-.014.06v.002Zm.164-.02a.313.313 0 0 0-.014-.057.17.17 0 0 0-.029-.054.076.076 0 0 0-.058-.029.08.08 0 0 0-.06.029.166.166 0 0 0-.031.053.321.321 0 0 0-.015.059.253.253 0 0 0-.166.16.696.696 0 0 0-.025.228v.002a.157.157 0 0 1-.006.047.447.447 0 0 1-.04-.106l-.014-.06-.028.055c-.038.076-.042.128-.032.176a.426.426 0 0 0 .021.066v.001c.009.02.017.041.023.065.005.02.002.03 0 .033a.007.007 0 0 1-.002.002h-.003c-.005-.001-.015-.007-.025-.024a.207.207 0 0 1-.025-.078L8.2 7.198l-.031.079a.357.357 0 0 0-.028.12.205.205 0 0 0 .016.085.486.486 0 0 0 .035.066.3.3 0 0 1 .03.071l.001.005a.049.049 0 0 1-.008-.003.178.178 0 0 1-.072-.096l-.02-.058-.022.058a.367.367 0 0 0-.024.187c.008.049.028.086.043.115l.001.001c.019.03.028.06.026.082 0 .01-.004.017-.008.02-.003.004-.01.008-.021.008-.049 0-.077-.037-.102-.085l-.014-.029L8 7.818a.483.483 0 0 0-.016-.032.117.117 0 0 0-.02-.027.05.05 0 0 0-.034-.015h-.023v1.35H9.37V7.75h-.023a.05.05 0 0 0-.033.014.114.114 0 0 0-.02.026.473.473 0 0 0-.034.066c-.025.047-.053.083-.102.083-.012 0-.018-.004-.02-.007-.004-.003-.007-.01-.007-.02a.165.165 0 0 1 .024-.084.352.352 0 0 0 .044-.115.367.367 0 0 0-.024-.187l-.021-.058-.021.058a.178.178 0 0 1-.073.096.049.049 0 0 1-.007.003V7.62a.3.3 0 0 1 .03-.072l.01-.016a.484.484 0 0 0 .026-.05.199.199 0 0 0 .016-.085.357.357 0 0 0-.028-.12l-.03-.08-.013.085a.207.207 0 0 1-.025.078c-.01.017-.02.023-.025.024H9.01l-.002-.002c-.002-.003-.005-.013 0-.033a.58.58 0 0 1 .022-.065v-.001a.426.426 0 0 0 .022-.066c.01-.048.006-.1-.032-.176l-.028-.055-.014.06a.447.447 0 0 1-.04.106.157.157 0 0 1-.006-.047v-.01c0-.071 0-.15-.023-.218a.251.251 0 0 0-.168-.162Zm.31.916Zm-.828 0Zm.005-.005Zm-.555.422a.14.14 0 0 1 .069.02l.011.006v1.03h-.157v-1.03l.01-.006a.124.124 0 0 1 .067-.02Zm-.032.052v.96h.067V8.1a.087.087 0 0 0-.035-.008.074.074 0 0 0-.032.007Z" clip-rule="evenodd"/><path fill="#fff" d="M7.628 8.73c.14.072.28.157.315.35h-.315v-.35Zm1.944-.297v.648h.09v-.648c-.027-.014-.067-.018-.09 0Z"/><path fill="currentColor" fill-rule="evenodd" d="M9.617 8.399c.02 0 .04.006.056.014l.012.006v.684H9.55v-.681l.009-.007a.088.088 0 0 1 .058-.016Zm-.022.047v.612h.045v-.61a.095.095 0 0 0-.025-.005.06.06 0 0 0-.02.003Zm-1.989.247.033.017c.14.072.289.162.327.367l.005.026h-.365v-.41Zm.045.074v.291h.265c-.038-.15-.145-.227-.265-.29Z" clip-rule="evenodd"/><path fill="#fff" d="M9.663 8.73c-.14.067-.28.148-.315.346h.315v-.347Zm-.927-1.517.08-.068v-.09c-.026 0-.044.014-.067.045a.225.225 0 0 0-.112-.135.225.225 0 0 0-.117.13c-.023-.03-.036-.035-.068-.044v.09l.081.072h.203Z"/><path fill="currentColor" fill-rule="evenodd" d="m8.638 6.94.01.005a.248.248 0 0 1 .109.112.082.082 0 0 1 .06-.024h.023v.123l-.096.08h-.219L8.43 7.15v-.13l.029.008c.015.005.03.009.043.017a.094.094 0 0 1 .012.009.248.248 0 0 1 .114-.11l.01-.005Zm-.001.05a.203.203 0 0 0-.096.113l-.014.042-.025-.036a.084.084 0 0 0-.027-.026v.048l.067.06h.186l.067-.056v-.05a.116.116 0 0 0-.027.029l-.027.037-.013-.044a.202.202 0 0 0-.091-.116Zm1.049 1.704v.404H9.32l.005-.026c.038-.21.187-.295.327-.363l.033-.015Zm-.31.36h.265v-.288c-.12.06-.227.134-.265.287Z" clip-rule="evenodd"/><path fill="#fff" d="m8.78 7.434.037-.086v-.112c-.027 0-.045.013-.068.045a.225.225 0 0 0-.112-.135.225.225 0 0 0-.117.13c-.023-.031-.036-.036-.068-.04v.112l.036.086h.293Z"/><path fill="currentColor" fill-rule="evenodd" d="m8.638 7.12.01.006a.247.247 0 0 1 .109.112.082.082 0 0 1 .06-.024h.023v.139l-.044.103h-.322l-.044-.103V7.21l.026.003c.016.003.03.005.045.013a.083.083 0 0 1 .012.009.248.248 0 0 1 .115-.11l.01-.004Zm-.001.051a.203.203 0 0 0-.096.112l-.014.042-.025-.036a.075.075 0 0 0-.023-.024.037.037 0 0 0-.004-.001v.08l.029.067h.262l.029-.067v-.08a.116.116 0 0 0-.027.03l-.027.037-.013-.044a.202.202 0 0 0-.091-.116Z" clip-rule="evenodd"/><path fill="#fff" d="m8.79 7.73.117-.148v-.144c-.045 0-.068.022-.1.072-.03-.104-.09-.122-.17-.171-.086.045-.144.067-.171.166-.036-.05-.059-.063-.104-.067v.144l.122.148h.306Z"/><path fill="currentColor" fill-rule="evenodd" d="m8.637 7.313.011.007.034.02c.026.015.051.03.073.047.023.02.043.043.058.076a.154.154 0 0 1 .025-.025.106.106 0 0 1 .068-.022h.023v.174l-.129.163h-.327l-.134-.163v-.177l.025.003a.14.14 0 0 1 .065.02c.01.007.02.015.028.024a.199.199 0 0 1 .058-.075.49.49 0 0 1 .09-.055l.02-.01.012-.007Zm-.094.107a.167.167 0 0 0-.056.092l-.012.045-.028-.038a.17.17 0 0 0-.042-.045.074.074 0 0 0-.02-.009v.11l.109.133h.284l.106-.133v-.111a.056.056 0 0 0-.018.01.192.192 0 0 0-.04.048l-.026.042-.014-.047a.182.182 0 0 0-.06-.095.341.341 0 0 0-.063-.04l-.027-.017a.462.462 0 0 0-.092.055Z" clip-rule="evenodd"/><path fill="#fff" d="M8.82 8.024s.145-.122.15-.19v-.157c-.055.005-.104.018-.145.086-.036-.13-.09-.167-.189-.225-.103.058-.157.094-.189.225-.045-.068-.09-.081-.148-.09v.162a.675.675 0 0 0 .148.189h.374Z"/><path fill="currentColor" fill-rule="evenodd" d="m8.637 7.51.01.007c.05.03.091.055.124.09a.302.302 0 0 1 .062.106.17.17 0 0 1 .05-.038.224.224 0 0 1 .085-.021l.024-.002v.183a.15.15 0 0 1-.03.07 1.002 1.002 0 0 1-.126.134l-.015-.016.014.017-.006.005h-.39l-.007-.005a.698.698 0 0 1-.153-.196l-.003-.005v-.194l.026.004c.03.005.06.011.087.026a.24.24 0 0 1 .049.038.28.28 0 0 1 .06-.106.509.509 0 0 1 .127-.09l.012-.006Zm.175.49a.956.956 0 0 0 .114-.12.112.112 0 0 0 .02-.047v-.131a.15.15 0 0 0-.043.013.145.145 0 0 0-.058.058l-.027.045-.014-.05a.295.295 0 0 0-.066-.13.445.445 0 0 0-.102-.075.428.428 0 0 0-.105.075.272.272 0 0 0-.062.129l-.012.05-.028-.043a.17.17 0 0 0-.061-.06.173.173 0 0 0-.047-.015v.13c.035.064.08.122.135.171h.356Z" clip-rule="evenodd"/><path fill="#fff" d="M8.88 8.563s.197-.211.202-.297v-.243c-.072.01-.144.059-.198.162-.045-.202-.117-.342-.248-.44-.135.098-.207.238-.252.44-.054-.103-.121-.153-.193-.162v.243c.013.086.198.297.198.297h.49Z"/><path fill="currentColor" fill-rule="evenodd" d="m8.637 7.716.014.01c.124.095.196.223.242.4a.269.269 0 0 1 .187-.125l.025-.003v.269a.225.225 0 0 1-.037.093c-.02.033-.046.069-.07.1a2.012 2.012 0 0 1-.1.116l-.001.002-.017-.015.016.016-.006.007h-.51l-.008-.008.017-.015-.017.015-.002-.002a1.314 1.314 0 0 1-.027-.033 2.329 2.329 0 0 1-.134-.183.283.283 0 0 1-.04-.09v-.272L8.194 8c.069.009.13.05.182.125.047-.177.12-.306.248-.4l.013-.01Zm-.237.825h.47l.002-.002a1.978 1.978 0 0 0 .09-.106.98.98 0 0 0 .068-.096.19.19 0 0 0 .03-.071V8.05c-.055.015-.111.06-.156.145l-.028.054-.014-.06c-.042-.192-.109-.323-.225-.417-.12.094-.187.225-.23.417l-.013.06-.029-.054c-.045-.086-.097-.13-.151-.145v.213a.255.255 0 0 0 .033.073 2.285 2.285 0 0 0 .151.202l.002.002Z" clip-rule="evenodd"/><path fill="#fff" d="M8.88 8.883s.166-.166.202-.238v-.243c-.072.009-.144.058-.198.157a.63.63 0 0 0-.248-.414c-.135.099-.207.212-.252.414-.054-.099-.121-.148-.193-.157v.243c.045.072.198.238.198.238h.49Z"/><path fill="currentColor" fill-rule="evenodd" d="m8.637 8.117.013.01a.653.653 0 0 1 .246.372.272.272 0 0 1 .184-.12l.025-.003v.274l-.002.005a.45.45 0 0 1-.05.071 1.752 1.752 0 0 1-.15.166l-.005.005-.002.002-.016-.016.016.016-.007.007h-.51l-.006-.008.016-.015-.016.015-.002-.002-.005-.005a5.44 5.44 0 0 1-.076-.085 1.513 1.513 0 0 1-.118-.15l-.003-.005v-.275l.025.003c.068.009.13.05.182.123a.61.61 0 0 1 .248-.375l.013-.01Zm-.238.744h.472a2.905 2.905 0 0 0 .147-.163.455.455 0 0 0 .042-.059v-.21c-.055.015-.111.06-.156.14l-.032.06-.01-.067a.607.607 0 0 0-.225-.389.554.554 0 0 0-.14.152.763.763 0 0 0-.09.239l-.013.059-.029-.053c-.045-.082-.097-.126-.151-.14v.208c.023.035.068.09.11.138l.058.065.017.02Z" clip-rule="evenodd"/><path fill="#fff" d="M8.947 9.072c-.045-.211-.09-.369-.32-.526-.234.157-.274.315-.324.526h.644Z"/><path fill="currentColor" fill-rule="evenodd" d="m8.628 8.518.012.008c.118.08.189.162.237.251.047.089.07.184.092.29l.006.027h-.7l.007-.028c.025-.105.048-.2.095-.289a.691.691 0 0 1 .238-.25l.013-.01Zm-.296.53h.587a.954.954 0 0 0-.082-.25.647.647 0 0 0-.21-.226.636.636 0 0 0-.21.226 1.08 1.08 0 0 0-.085.25Z" clip-rule="evenodd"/><path fill="#fff" d="M9.068 9.189v-.306c-.108.045-.202.104-.238.171-.036-.171-.113-.243-.207-.346a.692.692 0 0 0-.198.346c-.036-.067-.13-.13-.234-.171v.306h.877Z"/><path fill="currentColor" fill-rule="evenodd" d="m8.623 8.674.017.018.022.024a.652.652 0 0 1 .179.285.386.386 0 0 1 .069-.06.834.834 0 0 1 .15-.08l.031-.012v.362H8.17V8.85l.03.012a.63.63 0 0 1 .218.139.723.723 0 0 1 .19-.309l.016-.018Zm0 .067a.646.646 0 0 0-.176.318l-.014.057-.027-.052a.277.277 0 0 0-.085-.088.62.62 0 0 0-.107-.06v.25h.832v-.249a.728.728 0 0 0-.11.061.264.264 0 0 0-.086.086l-.029.055-.013-.06c-.031-.152-.095-.222-.18-.313a2.6 2.6 0 0 1-.004-.005Z" clip-rule="evenodd"/><path fill="#fff" d="M6.481 11.669H17.52v.562H6.481v-.562Zm-.292.562h11.623v.563H6.19v-.563Zm.873-1.408h9.873v.364H7.062v-.364Z"/><path fill="currentColor" fill-rule="evenodd" d="M7.039 10.8h9.918v.41H7.039v-.41Zm.045.045v.32h9.828v-.32H7.084Zm-.625.801h11.083v.563h.292v.607H6.166v-.607h.293v-.563Zm.045.563h10.993v-.518H6.504v.518Zm-.293.045v.517h11.578v-.517H6.212Z" clip-rule="evenodd"/><path fill="#fff" d="M6.773 11.187h10.458v.477H6.773v-.477Zm.46-.643h9.54v.278h-9.54v-.278Z"/><path fill="currentColor" fill-rule="evenodd" d="M7.21 10.52h9.585v.325H7.21v-.325Zm.045.046v.233h9.495v-.233H7.255Zm-.504.598h10.503v.522H6.752v-.522Zm.045.045v.432H17.21v-.432H6.796Z" clip-rule="evenodd"/><path fill="#fff" d="M8.268 10.543h.72v2.25h-.72v-2.25Z"/><path fill="currentColor" fill-rule="evenodd" d="M8.245 10.52h.765v2.296h-.765V10.52Zm.045.046v2.204h.675v-2.204H8.29Z" clip-rule="evenodd"/><path fill="#fff" d="M8.43 10.543h.4v2.25h-.405l.004-2.25Zm3.194 0h.72v2.25h-.72v-2.25Z"/><path fill="currentColor" fill-rule="evenodd" d="M8.407 10.52h.446v2.296h-.45l.004-2.296Zm.045.046-.004 2.204h.36v-2.204h-.356Zm3.15-.046h.765v2.296h-.765V10.52Zm.045.046v2.204h.675v-2.204h-.675Z" clip-rule="evenodd"/><path fill="#fff" d="M11.791 10.543h.405v2.25h-.405v-2.25Zm3.217 0h.72v2.25h-.72v-2.25Z"/><path fill="currentColor" fill-rule="evenodd" d="M11.768 10.52h.45v2.296h-.45V10.52Zm.045.046v2.204h.36v-2.204h-.36Zm3.173-.046h.765v2.296h-.765V10.52Zm.045.046v2.204h.675v-2.204h-.675Z" clip-rule="evenodd"/><path fill="#fff" d="M15.166 10.543h.405v2.25h-.405v-2.25Z"/><path fill="currentColor" fill-rule="evenodd" d="M15.143 10.52h.45v2.296h-.45V10.52Zm.045.046v2.204h.36v-2.204h-.36Z" clip-rule="evenodd"/><path fill="currentColor" fill-rule="evenodd" d="M7.665 10.291h8.685v.045H7.665v-.045Zm.756.508h.414v.046H8.42v-.046Zm3.375 0h.387v.046h-.387v-.046Zm3.78.046h-.414v-.046h.414v.046Zm-7.155.233h.414v.046H8.42v-.046Zm3.375 0h.387v.046h-.387v-.046Zm3.366 0h.414v.046h-.414v-.046Zm-6.741.284h.414v.045H8.42v-.045Zm3.375 0h.387v.045h-.387v-.045Zm3.366 0h.414v.045h-.414v-.045Zm-6.741.279h.414v.045H8.42v-.045Zm3.375 0h.387v.045h-.387v-.045Zm3.366 0h.414v.045h-.414v-.045Zm-6.741.284h.414v.044H8.42v-.044Zm3.762.044h-.387v-.044h.387v.044Zm2.979-.044h.414v.044h-.414v-.044Zm-6.741.278h.414v.046H8.42v-.046Zm3.762.046h-.387v-.046h.387v.046Zm2.979-.046h.414v.046h-.414v-.046Zm-6.741.284h.414v.045H8.42v-.045Zm3.375 0h.387v.045h-.387v-.045Zm3.366 0h.414v.045h-.414v-.045Z" clip-rule="evenodd"/></g><defs><clipPath id="a"><path fill="#fff" d="M0 0h24v18H0z"/></clipPath></defs></svg>