<svg xmlns="http://www.w3.org/2000/svg" width="24" height="18" fill="none"><g fill-rule="evenodd" clip-path="url(#a)" clip-rule="evenodd"><path fill="#E73E2D" d="M-2.739 0h29.384v10.775H-2.74V0Z"/><path fill="#FEC74A" d="M10.22 9.918c-.682-.535-1.955-.352-2.166-1.804.974.756.798-.042 2.25.679l-.084 1.125Z"/><path fill="#D8AA3F" d="m8.014 8.045.058.046c.242.188.41.277.549.318a.994.994 0 0 0 .377.028H9c.13-.008.277-.016.482.023.207.039.47.125.835.306l.018.01-.09 1.2-.044-.035a2.152 2.152 0 0 0-.588-.298L9.44 9.58a5.056 5.056 0 0 1-.494-.194 1.624 1.624 0 0 1-.585-.434c-.163-.2-.284-.467-.338-.834l-.01-.074Zm.081.139c.057.32.169.553.313.73.156.192.352.32.565.42.157.073.322.132.486.19l.174.063c.201.074.396.156.56.274l.08-1.05c-.352-.173-.606-.255-.802-.292a1.746 1.746 0 0 0-.468-.022H9c-.13.007-.249.014-.397-.03-.136-.04-.295-.124-.509-.283Z"/><path fill="#FEC74A" d="M10.403 9.26c-.489-.717-1.758-.935-1.512-2.38.7 1.016.774.2 1.94 1.332l-.428 1.048Z"/><path fill="#D8AA3F" d="m8.874 6.802.042.06c.174.253.307.39.426.47.12.082.226.11.352.142.127.032.27.069.455.169s.41.263.704.548l.014.014-.457 1.118-.032-.046c-.12-.176-.287-.321-.47-.465a14.656 14.656 0 0 0-.144-.11 5.359 5.359 0 0 1-.413-.337 1.622 1.622 0 0 1-.424-.594c-.094-.24-.127-.53-.065-.896l.012-.073Zm.035.156c-.044.322-.01.578.074.791.09.23.237.411.409.572.128.12.267.226.406.332.05.037.098.074.146.112.17.132.33.27.452.433l.4-.978c-.283-.273-.5-.43-.676-.524a1.743 1.743 0 0 0-.44-.164h-.002c-.125-.033-.241-.063-.37-.15-.117-.08-.243-.207-.399-.424Z"/><path fill="#FEC74A" d="M10.625 8.79c-.176-.848-1.266-1.534-.485-2.778.253 1.21.633.485 1.28 1.976l-.795.801Z"/><path fill="#D8AA3F" d="m10.153 5.933.016.072c.063.3.133.478.211.6.078.12.166.187.27.265l.002.002c.104.078.221.167.353.329.133.163.279.4.441.774l.008.019-.847.855-.012-.054a2.164 2.164 0 0 0-.256-.608l-.09-.157a4.907 4.907 0 0 1-.253-.469c-.1-.219-.17-.452-.165-.71.005-.26.085-.54.283-.856l.04-.062Zm.489 2.796.742-.749c-.158-.36-.3-.586-.425-.742a1.808 1.808 0 0 0-.343-.319l-.002-.001a1.058 1.058 0 0 1-.284-.281c-.077-.12-.144-.285-.204-.546-.164.281-.23.532-.235.76-.005.247.062.472.16.686.072.159.16.31.248.461l.092.16c.105.186.2.374.25.571Z"/><path fill="#FEC74A" d="M11.134 8.353c.095-.861-.731-1.85.39-2.791-.126 1.226.457.657.615 2.27l-1.005.52Z"/><path fill="#D8AA3F" d="m11.562 5.49-.008.074c-.031.305-.018.495.02.635.037.139.1.23.175.335l.002.003c.075.106.16.226.236.421.076.196.143.466.182.871l.002.02-1.023.53-.014-.027-.03-.003c.024-.21-.01-.43-.056-.658l-.038-.179a5.382 5.382 0 0 1-.095-.521 1.626 1.626 0 0 1 .06-.727c.084-.245.246-.487.53-.726l.057-.047Zm-.393 2.811.939-.486c-.04-.39-.104-.649-.177-.835a1.758 1.758 0 0 0-.23-.41 1.064 1.064 0 0 1-.185-.354c-.037-.138-.051-.316-.028-.583a1.545 1.545 0 0 0-.456.651c-.08.233-.085.467-.058.7.02.173.057.344.094.514l.039.182c.042.21.075.419.062.622Z"/><path fill="#FEC74A" d="M11.591 8.005c.436-.749.088-1.986 1.498-2.387-.619 1.065.148.784-.37 2.32l-1.128.067Z"/><path fill="#D8AA3F" d="m13.151 5.568-.037.064c-.154.265-.22.444-.242.586-.022.142-.002.25.023.377v.003c.025.127.053.272.043.48-.01.21-.06.483-.19.87l-.007.018-1.149.068-.001-.03-.026-.015c.107-.183.166-.396.216-.624l.038-.175c.036-.173.073-.349.127-.519.073-.229.177-.449.353-.637.177-.189.424-.344.781-.445l.071-.02Zm-1.508 2.403 1.054-.062c.124-.372.171-.634.181-.834.01-.201-.017-.34-.041-.466v-.002a1.058 1.058 0 0 1-.024-.398c.022-.14.083-.308.212-.542-.31.099-.526.24-.682.408-.169.18-.27.39-.34.614a5.22 5.22 0 0 0-.125.51l-.038.18a2.382 2.382 0 0 1-.197.592Z"/><path fill="#FEC74A" d="M12.248 8.096c.654-.57.718-1.856 2.18-1.79-.924.816-.105.792-1.09 2.089l-1.09-.299Z"/><path fill="#D8AA3F" d="m12.309 8.082 1.018.279c.237-.315.366-.55.44-.736.074-.189.092-.33.11-.458v-.001a1.05 1.05 0 0 1 .103-.385c.065-.126.176-.266.373-.447a1.544 1.544 0 0 0-.776.17 1.57 1.57 0 0 0-.518.477c-.102.14-.19.29-.279.44-.031.055-.063.108-.095.161-.111.184-.228.36-.376.5Zm1.24-1.63c.227-.123.51-.192.88-.175l.075.003-.056.05c-.23.202-.349.35-.415.478s-.08.237-.098.366v.001c-.017.13-.036.276-.113.472-.077.196-.212.44-.46.766l-.012.016-1.163-.319.042-.036c.16-.14.284-.323.405-.522l.093-.158c.089-.151.18-.306.284-.449.142-.194.31-.37.538-.493Z"/><path fill="#FEC74A" d="M12.832 8.434c.791-.356 1.227-1.565 2.605-1.073-1.125.51-.334.728-1.652 1.677l-.953-.604Z"/><path fill="#D8AA3F" d="m12.832 8.434-.016.025.97.615.016-.011c.331-.239.531-.432.662-.597.13-.164.192-.299.246-.417v-.002c.054-.118.1-.218.201-.321.101-.103.259-.21.538-.337l.068-.03-.07-.026c-.349-.124-.64-.142-.893-.091-.253.05-.465.17-.658.314-.142.106-.274.228-.403.347l-.134.122c-.173.155-.346.295-.54.381l.013.028Zm.567-.365c-.16.143-.323.277-.505.368l.89.565c.318-.23.509-.417.633-.573a1.74 1.74 0 0 0 .239-.405v-.001c.054-.119.104-.228.212-.339.1-.101.247-.203.489-.318a1.54 1.54 0 0 0-.791-.065 1.565 1.565 0 0 0-.634.303c-.14.104-.268.223-.397.34-.045.043-.09.084-.136.125Z"/><path fill="#FEC74A" d="M13.32 8.965c.859-.12 1.618-1.16 2.803-.295-1.22.172-.528.6-2.057 1.142l-.745-.85v.003Z"/><path fill="#D8AA3F" d="m13.312 8.997.745.85.02-.006c.383-.136.63-.266.801-.387.172-.12.268-.232.354-.33l.001-.002a1.01 1.01 0 0 1 .284-.251c.126-.07.307-.129.61-.172l.073-.01-.06-.043c-.3-.22-.574-.319-.832-.341a1.618 1.618 0 0 0-.72.115 5.334 5.334 0 0 0-.486.221l-.16.079a2.22 2.22 0 0 1-.607.213l-.044-.05v.116l.02-.002Zm.655-.223a2.38 2.38 0 0 1-.585.212l.693.791c.37-.132.605-.257.769-.372.165-.116.258-.223.343-.32l.001-.002c.085-.098.164-.189.3-.264.123-.07.293-.125.557-.168a1.544 1.544 0 0 0-.742-.287 1.558 1.558 0 0 0-.693.112c-.164.062-.322.14-.479.217-.055.028-.11.055-.164.08Z"/><path fill="#FEC74A" d="m16.38 9.126-3.941.088.165 1.062 3.776-1.15Z"/><path fill="#D8AA3F" d="m16.379 9.097.01.058-3.81 1.16-.175-1.13 3.975-.088Zm-3.906.147.155.994 3.535-1.077-3.69.083Z"/><path fill="#FEC74A" d="m15.8 7.678-3.65 1.403.608 1.17L15.8 7.679Z"/><path fill="#D8AA3F" d="m15.788 7.65.011.028.02.023-3.07 2.598-.641-1.234 3.68-1.415Zm-.143.12-3.453 1.327.575 1.108 2.878-2.435Z"/><path fill="#FEC74A" d="m12.902 9.868 1.888-3.431-2.896 2.696 1.008.735Z"/><path fill="#D8AA3F" d="m14.77 6.415.046.036-1.904 3.461-1.066-.776 2.924-2.721Zm-2.83 2.716.952.693 1.782-3.238L11.94 9.13Z"/><path fill="#FEC74A" d="m12.864 9.583.605-3.846-1.892 3.417 1.287.43Z"/><path fill="#D8AA3F" d="m13.442 5.723.056.019-.61 3.88-1.355-.45 1.909-3.45ZM11.62 9.137l1.22.407.572-3.644-1.792 3.237Z"/><path fill="#FEC74A" d="m12.635 9.27-.633-3.874-.703 3.892 1.336-.017Z"/><path fill="#D8AA3F" d="M11.973 5.391h.06l.638 3.91-1.407.018.71-3.928Zm-.638 3.867L12.6 9.24l-.599-3.668-.666 3.685Z"/><path fill="#FEC74A" d="M12.308 8.94 10.47 5.706l.703 3.93 1.135-.696Z"/><path fill="#D8AA3F" d="m10.44 5.711.055-.02 1.853 3.26-1.197.733-.711-3.973Zm.09.16.664 3.717 1.074-.658-1.739-3.058Z"/><path fill="#FEC74A" d="M12.024 8.916 9.171 6.507l2.025 3.446.827-1.037Z"/><path fill="#D8AA3F" d="m9.147 6.522.045-.038 2.851 2.409-.02.022.024.019-.853 1.071-2.047-3.483Zm2.835 2.398L9.287 6.643 11.201 9.9l.781-.98Z"/><path fill="#FEC74A" d="m8.17 7.696 3.059 2.527.471-1.321-3.53-1.206Z"/><path fill="#D8AA3F" d="m8.151 7.719.03-.052 3.557 1.216-.495 1.39L8.15 7.72Zm.165.058 2.9 2.396.446-1.253-3.347-1.143Z"/><path fill="#FEC74A" d="M11.198 9.172 7.6 9.12l3.583 1.195.014-1.143Z"/><path fill="#D8AA3F" d="m7.591 9.148.01-.058 3.597.053v.03h.03l-.015 1.183L7.59 9.148Zm3.576.054-3.374-.05 3.36 1.122.014-1.072Z"/><path fill="#FEC74A" d="M14.115 9.816a2.159 2.159 0 1 1-4.314.174 2.159 2.159 0 0 1 4.314-.174Z"/><path fill="#D8AA3F" d="M11.959 7.774a2.129 2.129 0 1 0 0 4.258 2.129 2.129 0 0 0 0-4.258Zm-1.516.55a2.189 2.189 0 1 1 3.032 3.158 2.189 2.189 0 0 1-3.032-3.158Z"/><path fill="#005989" d="M-2.767 10.666h29.528V18H-2.77l.003-7.334Z"/><path fill="#fff" d="M-2.784 15.961c.548.253 1.336.89 2.18.89 1.406-.011 1.44-.964 2.868-.918 1.431.035 1.17 1.04 3.1 1.037 1.597-.007 2.11-1.22 3.488-1.076 1.02-.052 1.435 1.15 3 1.167 1.623.036 2.218-1.31 3.234-1.198 1.09 0 1.441 1.082 2.963 1.09 1.94.01 2.282-1.125 3.491-1.055.865-.018 1.547.833 2.813.854 1.005.018 1.853-.745 2.426-1.02l.024-1.293c-.597.221-1.49.953-2.38.96-1.287.049-2.078-.844-2.97-.834-1.07.011-1.495 1.1-3.305 1.1-1.66 0-2.04-1.1-3.108-1.1-1.044.008-1.364 1.196-3.175 1.175-1.476-.018-2.05-1.136-3.093-1.125-1.108 0-2.25 1.086-3.48 1.033-1.688-.07-2.058-1.033-3.165-1.033-.826 0-1.723.9-2.718.914-.99.017-2.105-.897-2.207-.914l.014 1.346Zm0-2.566c.548.256 1.336.893 2.18.893 1.406-.01 1.44-.964 2.868-.921 1.431.035 1.17 1.044 3.1 1.037 1.597 0 2.11-1.217 3.488-1.073 1.02-.052 1.435 1.15 3 1.164 1.623.035 2.218-1.308 3.234-1.195 1.09 0 1.441 1.083 2.963 1.09 1.94.01 2.282-1.125 3.491-1.055.865-.018 1.547.833 2.813.854 1.005.018 1.853-.745 2.426-1.02l.024-1.293c-.597.222-1.49.95-2.38.96-1.287.045-2.078-.844-2.97-.834-1.07.011-1.495 1.1-3.305 1.1-1.66 0-2.04-1.1-3.108-1.1-1.044.008-1.364 1.196-3.175 1.175-1.476-.018-2.05-1.136-3.093-1.125-1.108 0-2.25 1.083-3.48 1.03-1.688-.07-2.058-1.034-3.165-1.034-.826 0-1.723.904-2.718.918-.99.014-2.105-.897-2.207-.914l.014 1.346v-.003Z"/><path fill="#fff" d="M-2.784 10.863c.548.253 1.336.886 2.176.886 1.406-.007 1.441-.963 2.869-.918 1.427.036 1.167 1.041 3.097 1.038 1.592-.004 2.11-1.22 3.48-1.073 1.02-.052 1.435 1.15 3 1.164 1.62.035 2.214-1.311 3.234-1.199 1.082 0 1.441 1.083 2.96 1.09 1.933.01 2.274-1.125 3.487-1.055.862-.017 1.544.834 2.806.855 1.009.017 1.852-.746 2.425-1.02l.025-1.294c-.598.225-1.487.953-2.38.96-1.28.05-2.074-.84-2.967-.833-1.065.01-1.49 1.1-3.305 1.1-1.652 0-2.032-1.1-3.1-1.1-1.045.01-1.365 1.195-3.168 1.174-1.477-.017-2.05-1.132-3.094-1.125-1.107 0-2.25 1.087-3.473 1.034-1.691-.07-2.057-1.034-3.164-1.034-.827 0-1.72.9-2.715.914-.99.018-2.102-.893-2.207-.914l.014 1.347v.003Z"/><path fill="#FFC84B" d="M7.847 2.672c2.145-.148 1.758-.33 2.62-.471 1.09.15 1.212.808 1.82 1.213 0 0-.228.773-.973.664-.102-.31.358-.408-.967-1.216-.774-.046-2.155.137-2.496-.19h-.004Zm6.655 1.192-1.547.063v.383c1.044.035 1.23-.105 1.547-.446Z"/><path fill="#D8AA3F" d="M10.466 2.169h.005c.552.077.861.283 1.108.52.082.079.157.162.232.243l.111.121c.114.12.234.235.383.334l.02.013-.007.023-.03-.01.03.01-.001.002-.002.007a1.206 1.206 0 0 1-.21.375.831.831 0 0 1-.796.303l-.02-.003-.006-.019a.45.45 0 0 1-.01-.21l.001-.01a.377.377 0 0 0-.015-.2c-.029-.075-.095-.169-.238-.295a5.009 5.009 0 0 0-.684-.48 10.72 10.72 0 0 0-.82.002c-.193.004-.39.01-.58.01a4.628 4.628 0 0 1-.666-.04c-.19-.03-.35-.081-.442-.17l.017-.018-.001-.037c1.071-.073 1.508-.156 1.784-.237.085-.025.157-.05.227-.075.155-.055.308-.11.605-.158l.005-.001Zm-2.529.528a1 1 0 0 0 .343.105c.188.03.415.038.656.039.186 0 .382-.005.574-.01.304-.007.6-.015.838 0h.008l.007.004c.332.202.554.361.7.49.147.13.221.232.255.32a.438.438 0 0 1 .018.238.42.42 0 0 0 .002.167.766.766 0 0 0 .718-.283 1.145 1.145 0 0 0 .194-.34 2.3 2.3 0 0 1-.374-.33l-.114-.124c-.074-.08-.147-.16-.227-.238-.238-.229-.534-.427-1.069-.502a2.882 2.882 0 0 0-.584.153c-.071.025-.144.052-.235.078-.275.08-.7.161-1.71.233Zm6.64 1.132-.052.056c-.159.172-.289.297-.513.373-.223.075-.535.102-1.058.084l-.03-.001v-.444l1.654-.068Zm-1.59.128v.323c.503.015.798-.012 1.004-.082.185-.062.301-.16.435-.3l-1.44.06Z"/><path fill="#FFC84B" d="M9.183 3.797c.27-.137.404-.081.64-.088.158.292.31.316.66.351a1.74 1.74 0 0 0 1.404.767c1.05-.028 1.385-.763 2.091-.844h.746c-.123-.21-.222-.334-.492-.348-.556-.028-1.273-.014-1.899.127l-.882.221c-.26-.126-.89-.787-1.294-.773-.236.063-.236.144-.352.235-.228.099-.457.05-.622.352Z"/><path fill="#D8AA3F" d="m11.454 3.952.872-.22c.63-.14 1.35-.155 1.907-.127.14.008.239.043.319.107.078.063.136.15.197.256a.03.03 0 0 1-.025.045h-.744c-.297.035-.526.187-.78.356a3.67 3.67 0 0 1-.122.08c-.305.2-.657.394-1.19.408h-.002a1.77 1.77 0 0 1-1.42-.768c-.167-.017-.294-.033-.398-.08a.58.58 0 0 1-.263-.27 2.402 2.402 0 0 1-.15-.003c-.147-.006-.264-.011-.459.088l-.013-.027-.026-.014a.526.526 0 0 1 .303-.266c.047-.017.096-.029.143-.04l.025-.007a1.07 1.07 0 0 0 .162-.05.59.59 0 0 0 .075-.073c.016-.017.032-.035.051-.052a.527.527 0 0 1 .24-.115.742.742 0 0 1 .35.1c.123.063.249.15.37.24.083.062.164.126.24.186l.098.077c.097.076.18.137.24.169Zm-2.191-.224a.873.873 0 0 1 .401-.052c.05.003.102.005.158.003a.03.03 0 0 1 .027.016c.077.142.15.215.244.259.096.044.217.06.394.077a.03.03 0 0 1 .021.013 1.711 1.711 0 0 0 1.378.753c.518-.014.858-.201 1.16-.397l.12-.08c.253-.169.496-.33.809-.366h.696a.716.716 0 0 0-.157-.195.469.469 0 0 0-.284-.094c-.554-.028-1.268-.014-1.89.126l-.882.221a.03.03 0 0 1-.02-.002 1.729 1.729 0 0 1-.26-.18 10.3 10.3 0 0 0-.337-.263 2.703 2.703 0 0 0-.362-.234.692.692 0 0 0-.318-.093.465.465 0 0 0-.263.16.64.64 0 0 1-.08.073 1.11 1.11 0 0 1-.201.061 1.409 1.409 0 0 0-.137.039.448.448 0 0 0-.217.155Z"/><path fill="#FFC84B" d="M10.248 3.48a.111.111 0 0 1-.024.092.113.113 0 0 1-.173 0 .113.113 0 0 1 .159-.158c.02.017.033.04.038.066Z"/><path fill="#D8AA3F" d="M10.137 3.418a.082.082 0 0 0-.08.104.083.083 0 0 0 .08.06.083.083 0 0 0 .082-.096.082.082 0 0 0-.082-.068Zm-.09-.027a.142.142 0 1 1 .182.218.142.142 0 0 1-.183-.218Z"/><path fill="#FFC84B" d="M10.969 3.79c1.579-1.902 2.957-1.67 4.757-1.8.06.221.035.552-.82.843-1.174.176-3.273 1.414-3.283 1.414-.39-.021-.664-.43-.654-.457Z"/><path fill="#D8AA3F" d="m15.75 1.956.006.025a.472.472 0 0 1-.072.422c-.11.155-.338.313-.767.46l-.003.001h-.003c-.582.088-1.396.439-2.069.77a22.103 22.103 0 0 0-1.108.587l-.033.019a8.755 8.755 0 0 1-.062.034l-.003.001a.08.08 0 0 1-.005.002l-.008.001h-.001a.815.815 0 0 1-.498-.234 1.062 1.062 0 0 1-.174-.213.152.152 0 0 1-.013-.033.04.04 0 0 1 .002-.02l.03.011-.024-.02c.793-.955 1.537-1.377 2.311-1.575.557-.142 1.13-.168 1.744-.196.235-.011.475-.022.723-.04l.026-.002Zm-4.746 1.841.002.005a.997.997 0 0 0 .161.196.756.756 0 0 0 .45.216l.016-.009.037-.02.033-.02a25.267 25.267 0 0 1 1.111-.588c.672-.33 1.493-.685 2.085-.775.423-.144.635-.297.734-.435a.403.403 0 0 0 .068-.344c-.242.017-.477.028-.704.038-.611.028-1.175.054-1.725.195-.756.193-1.487.604-2.268 1.541Z"/><path fill="#D9A43E" d="m15.376 2.633-1.164-.053.003-.063 1.164.053-.003.063Zm-1.32.106a.032.032 0 0 1 .034-.028l.847.07a.032.032 0 1 1-.005.063l-.847-.07a.032.032 0 0 1-.03-.035Z"/></g><defs><clipPath id="a"><path fill="#fff" d="M0 0h24v18H0z"/></clipPath></defs></svg>