<svg xmlns="http://www.w3.org/2000/svg" width="24" height="18" fill="none"><g fill-rule="evenodd" clip-path="url(#a)" clip-rule="evenodd"><path fill="#FF0" d="M0 0h27.028v4.5H0V0Z"/><path fill="#fff" d="M0 4.5h27.028V9H0V4.5Z"/><path fill="#BE0027" d="M0 9h27.028v4.5H0V9Z"/><path fill="#3B5AA3" d="M0 13.5h27.028V18H0v-4.5Z"/><path fill="#239E46" d="M0 0v18l13.426-8.975L0 0Z"/><path fill="#fff" d="M5.526 4.971C2.538 4.82 1.17 7.204 1.174 9.046c-.007 2.18 2.06 3.973 3.965 3.867-1.026-.485-2.285-1.853-2.292-3.878-.01-1.831 1.037-3.427 2.683-4.064h-.004Z"/><path fill="#fff" d="m5.484 6.926-.421-.327-.514.162.183-.507-.31-.435.535.02.317-.432.15.517.507.169-.443.299-.004.534Zm-.01 1.832-.422-.33-.513.16.186-.502-.313-.436.538.018.316-.43.148.514.51.172-.447.3-.003.534Zm.007 1.849-.422-.33-.51.161.183-.503-.31-.436.535.018.317-.429.15.513.507.17-.443.301-.007.535Zm-.007 1.863-.422-.327-.517.162.187-.506-.313-.436.538.02.316-.432.148.517.51.169-.447.299v.534Z"/></g><defs><clipPath id="a"><path fill="#fff" d="M0 0h24v18H0z"/></clipPath></defs></svg>