<svg xmlns="http://www.w3.org/2000/svg" width="24" height="18" fill="none"><g fill-rule="evenodd" clip-path="url(#a)" clip-rule="evenodd"><path fill="#FFE900" d="M-.973.007h25.931v17.975H-.973V.007Z"/><path fill="#35A100" d="m-.987.007.028 12.959L19.22 0-.987.007Z"/><path fill="#C70000" d="M24.99 17.983 24.94 4.51 4.585 17.993l20.405-.01Z"/><path fill="currentColor" d="M-.977 13.943-.959 18l4.405-.007L24.951 3.575 24.931.05 20.577.007-.973 13.943h-.004Z"/><path fill="#fff" d="m16.19 5.506-.344-1.484 1.17.95 1.336-.866-.611 1.452 1.174.95-1.554-.053-.608 1.452-.348-1.484-1.55-.053 1.335-.864Zm-9.675 6.293-.348-1.488 1.17.95 1.337-.865-.612 1.452 1.174.949-1.55-.053-.612 1.452-.344-1.483-1.55-.053 1.335-.861Z"/></g><defs><clipPath id="a"><path fill="#fff" d="M0 0h24v18H0z"/></clipPath></defs></svg>