<svg xmlns="http://www.w3.org/2000/svg" width="24" height="18" fill="none"><g fill-rule="evenodd" clip-path="url(#a)" clip-rule="evenodd"><path fill="#fff" d="M27.106 17.982H-2.853V.014h29.96v17.968Z"/><path fill="currentColor" d="M-2.87-.004h29.994V18H-2.87V-.005Zm.035.035v17.933H27.09V.031H-2.835Z"/><path fill="#3E5698" d="M27.106 14.73H-2.853v3.252h29.96V14.73Z"/><path fill="#C60000" d="M27.106 13.977H-2.853V4.02h29.96v9.958Z"/><path fill="#3E5698" d="M27.106.017H-2.853v3.25h29.96V.016Z"/><path fill="#fff" d="M11.37 8.998c0 2.232-1.863 4.043-4.17 4.043-2.306 0-4.17-1.81-4.17-4.043S4.894 4.96 7.2 4.96c2.304 0 4.17 1.807 4.17 4.04v-.003Z"/><path fill="#C40000" d="m6.001 9.511-2.004-1.43 2.497-.008.798-2.335.742 2.325 2.496-.014-2.036 1.448.75 2.325-2.005-1.432-2.04 1.453.802-2.332Z"/></g><defs><clipPath id="a"><path fill="#fff" d="M0 0h24v18H0z"/></clipPath></defs></svg>