<svg xmlns="http://www.w3.org/2000/svg" width="24" height="18" fill="none"><g fill-rule="evenodd" clip-path="url(#a)" clip-rule="evenodd"><path fill="#fff" d="M24.834 18H-.836V0h25.67v18Z"/><path fill="#fff" d="M12.224 9.015a3.955 3.955 0 1 1-7.91 0 3.955 3.955 0 0 1 7.91 0Z"/><path fill="#C70000" d="M17.185 9.246c0 2.848-2.286 5.161-5.109 5.161s-5.104-2.313-5.104-5.16c0-2.848 2.285-5.165 5.108-5.165 2.823 0 5.105 2.317 5.105 5.164Z"/><path fill="currentColor" d="m1.63 4.458 2.94-3.4.7.602-2.943 3.403-.696-.605Zm.964.833 2.94-3.4.699.598L3.29 5.896l-.696-.605Z"/><path fill="currentColor" d="m1.63 4.458 2.94-3.4.7.602-2.943 3.403-.696-.605Z"/><path fill="currentColor" d="m1.63 4.458 2.94-3.4.7.602-2.943 3.403-.696-.605Zm1.95 1.688 2.939-3.407.7.605-2.943 3.403-.696-.601Z"/><path fill="currentColor" d="m1.63 4.458 2.94-3.4.7.602-2.943 3.403-.696-.605Z"/><path fill="currentColor" d="m1.63 4.458 2.94-3.4.7.602-2.943 3.403-.696-.605Zm17.888-3.403 2.918 3.424-.703.598-2.918-3.424.703-.598Zm-1.958 1.67 2.918 3.424-.703.598-2.918-3.424.703-.598Z"/><path fill="#fff" d="m18.049 4.698 2.756-2.384.517.598-2.953 2.65-.327-.864h.007Z"/><path fill="currentColor" d="m21.445 13.093-2.827 3.368-.692-.577 2.826-3.368.693.577ZM18.548 1.88l2.918 3.425-.7.597-2.914-3.428.696-.594Zm3.857 12.01-2.83 3.368-.697-.577 2.83-3.368.697.577Zm-1.938-1.61-2.826 3.367-.693-.576 2.827-3.368.692.577Z"/><path fill="#3D5897" d="M7.045 8.336c.161 1.301.397 2.75 2.397 2.897.75.046 2.208-.176 2.707-2.222.661-1.962 2.637-2.524 3.984-1.462.77.499.98 1.29 1.03 1.888-.06 1.898-1.157 3.55-2.56 4.289-1.617.96-3.853.98-5.811-.475-.883-.826-2.116-2.355-1.747-4.915Z"/><path fill="#fff" d="m18.696 13.043 2.763 2.377-.513.598-3.062-2.525.808-.45h.004Z"/><path fill="currentColor" d="m3.3 12.572 2.919 3.421-.703.598-2.918-3.421.703-.598Z"/><path fill="#fff" d="m2.798 15.389 2.763-2.387.517.597-2.953 2.654-.327-.868v.004Z"/><path fill="currentColor" d="m4.272 11.746 2.918 3.42-.703.598-2.918-3.42.703-.598Zm-1.959 1.67 2.918 3.42-.703.598-2.918-3.42.703-.598Z"/></g><defs><clipPath id="a"><path fill="#fff" d="M0 0h24v18H0z"/></clipPath></defs></svg>