<svg xmlns="http://www.w3.org/2000/svg" width="24" height="18" fill="none"><g clip-path="url(#a)"><path fill="#006" d="M0 0h24v18H0V0Z"/><path fill="#006" fill-rule="evenodd" d="M0 0h15v7.5H0V0Z" clip-rule="evenodd"/><path fill="#fff" d="M0 0v1.012l12.54 8.074h1.579V8.074L1.579 0H0Zm14.119 0v1.012L1.579 9.09H0V8.078L12.54 0h1.579Z"/><path fill="#fff" d="M5.884 0v9.086h2.351V0H5.884ZM0 3.03v3.026h14.119V3.03H0Z"/><path fill="#C00" d="M0 3.638v1.814h14.119V3.634H0v.004ZM6.353 0v9.086h1.413V0H6.353ZM0 9.086l4.706-3.03h1.05l-4.699 3.03H0ZM0 0l4.706 3.03h-1.05L0 .675V0Zm8.363 3.03L13.06 0h1.054L9.412 3.03h-1.05Zm5.756 6.056-4.707-3.03h1.05l3.657 2.352v.678Z"/><path fill="#fff" fill-rule="evenodd" d="M16.81 6.716c-.037.023-.112.094-.187.072-.075-.023-.247-.323-.435-.278-.187.049-.303.116-.378.116-.075 0-.285.068-.285.252 0 .183.018.322.056.322.037 0 .094-.116.094-.116s.018.229.15.229c.13 0 .42.022.438.093.02.068-.13.225-.093.364.037.139.206.368.206.368s-.244.18-.244.3.038.225.038.225l-1.1.045s-.074 3.25-.037 3.502l.132.87s-.248-.082-.454.124c-.21.206-.938.562-.956.72-.02.161-.087.3-.012.412.075.113.345.428.267.413-.255-.041-.35-.405-.522-.536-.168-.132-.498-.105-.54.033a.991.991 0 0 0 0 .413c.02.045.23.776.285.937.057.162.653.402.92.375.502.015.727-.213.75-.19.014.022 1.075 1.117 3.254 1.12 1.695 0 2.97-1.098 2.97-1.076 0 .023.701.229.949.161.244-.07.604-.228.679-.39.075-.16.285-.982.303-1.12.02-.14 0-.3-.168-.346-.17-.045-.263-.034-.36.011-.098.045-.124.173-.263.402a3.503 3.503 0 0 0-.221.206c.056-.045.18-.386.199-.503.018-.112.075-.318-.057-.435-.13-.112-.337-.16-.566-.33-.225-.15-.397-.4-.532-.4-.132 0-.282-.068-.263-.068.019 0 .169-.338.131-.675-.037-.345.02-3.63 0-3.63-.018 0-.945.07-.945.022 0-.049.075-.364 0-.57-.075-.206-.4-.345-.303-.39.093-.045.51-.161.487-.341-.015-.188-.281-.161-.394-.229-.112-.071-.453-.39-.49-.39-.038 0 .982-.619.907-.619-.075 0-.473-.112-.608-.045 0-.112.551-.457.458-.502-.098-.049-.533-.094-.417-.113.113-.026.15-.3.132-.3l-.492.068s-.112-.161-.15-.161c-.037 0-.21.093-.21.093l-.097-.25-.206.134-.094-.112s-.173.045-.173 0c.008 0-.018-.113-.045-.113-.026 0-.213.143-.22.135-.008-.007-.215-.3-.215-.292l-.153.55c-.008 0-.15.016-.154.023-.008.012-.75-.427-.743-.42l.192.42s-.158.09-.158.098l.026.187-.495-.168s.188.375.173.375l-.36.018.165.315-.06.188s.532.375.495.397Zm3.162 7.965c.049.068.304.39.266.39-.037 0-.675.424-.926.503-.344.086-.692.159-1.042.217.048-.01.75-.393 1.03-.577.242-.155.469-.334.676-.533h-.004Zm-3.956-.01c-.038.044-.218.4-.218.4s.522.364.908.503c.39.135 1.05.184 1.012.172-.037-.01-.828-.367-1.057-.55-.225-.185-.638-.526-.645-.526Z" clip-rule="evenodd"/><path fill="#FEC500" fill-rule="evenodd" d="m16.43 6.198.408.298c.076.057.323.308.341.297.019-.01.152-.137.152-.137s-.275-.263-.447-.32c-.171-.055-.454-.113-.454-.137v-.001Z" clip-rule="evenodd"/><path fill="#6D6666" fill-rule="evenodd" d="m16.43 6.185.029.021a1.087 1.087 0 0 1 .72.303 2.817 2.817 0 0 1 .146.128l.01.009.002.002-.006.007.006.006-.006.006-.015.014a7.263 7.263 0 0 1-.132.12.012.012 0 0 1-.009 0 .024.024 0 0 1-.005-.001.438.438 0 0 1-.046-.034 3.167 3.167 0 0 1-.137-.126 2.648 2.648 0 0 0-.154-.138l-.383-.28a.153.153 0 0 1-.023-.012c-.002-.002-.006-.006-.006-.011v-.004l.008-.01Zm.075.055.339.248c.032.024.093.082.155.14l.038.035a3.17 3.17 0 0 0 .13.115.06.06 0 0 0 .01.006 3.667 3.667 0 0 0 .142-.129l-.006-.005a2.348 2.348 0 0 0-.146-.127 1.078 1.078 0 0 0-.285-.178 4.628 4.628 0 0 0-.292-.081 3.262 3.262 0 0 1-.085-.024Zm.826.415.006.006.007-.006-.007-.006-.006.006Z" clip-rule="evenodd"/><path fill="#FEC500" fill-rule="evenodd" d="M16.384 5.934c.029 0 .549.32.71.482.161.161.227.366.246.366.019 0 .265-.046.256-.046-.01 0-.114-.412-.35-.539-.237-.125-.852-.263-.862-.263Z" clip-rule="evenodd"/><path fill="#6D6666" fill-rule="evenodd" d="M16.732 6.01c.184.05.398.116.518.18.12.064.207.201.264.32a1.738 1.738 0 0 1 .075.184v.003l.007.018a.18.18 0 0 0 .006.014l.003.005v.005l-.003.004a.008.008 0 0 1-.003 0l-.002.002-.007.001a1.639 1.639 0 0 1-.11.021 6.89 6.89 0 0 1-.14.023c-.005 0-.008-.003-.01-.004a.294.294 0 0 1-.021-.034l-.014-.025-.033-.064a1.063 1.063 0 0 0-.175-.241 2.96 2.96 0 0 0-.403-.3 5.488 5.488 0 0 0-.273-.166.341.341 0 0 0-.028-.013v-.018h.004a.245.245 0 0 1 .029.007 5.048 5.048 0 0 1 .316.078Zm-.28-.052.036.021c.056.033.129.078.206.128a3 3 0 0 1 .406.302 1.075 1.075 0 0 1 .211.31 2.979 2.979 0 0 0 .03.054 7.651 7.651 0 0 0 .24-.043.386.386 0 0 1-.008-.027l-.001-.003a1.763 1.763 0 0 0-.074-.182c-.057-.119-.141-.251-.256-.313a2.958 2.958 0 0 0-.515-.178 7.816 7.816 0 0 0-.275-.069Zm1.144.787Zm-.253.028Z" clip-rule="evenodd"/><path fill="#FEC500" fill-rule="evenodd" d="M18.836 5.106c-.01 0-.104.344-.133.446-.029.104-.076.32-.076.32s-.416.047-.397-.01c.019-.058.633-.756.606-.756Z" clip-rule="evenodd"/><path fill="#6D6666" fill-rule="evenodd" d="M18.248 5.849a.084.084 0 0 0-.01.016v.001l.007.005a.143.143 0 0 0 .04.008c.036.003.085.003.136 0a3.243 3.243 0 0 0 .188-.014l.011-.001V5.86l.007-.025a16.033 16.033 0 0 1 .068-.286l.018-.066.055-.194.035-.118a.57.57 0 0 0-.555.678Zm.572-.73a2.296 2.296 0 0 1-.071.092l-.194.232-.011.014a22.508 22.508 0 0 0-.288.35.653.653 0 0 0-.034.052.019.019 0 0 0 .002.018.033.033 0 0 0 .014.01.159.159 0 0 0 .045.01c.037.003.088.003.139 0a3.241 3.241 0 0 0 .202-.016h.004v-.01.01l.007-.001.001-.006.002-.01.006-.026a15.883 15.883 0 0 1 .068-.284l.019-.066.054-.194a6.141 6.141 0 0 1 .05-.167.153.153 0 0 0 .01-.016.01.01 0 0 0 0-.007.01.01 0 0 0-.004-.005.01.01 0 0 0-.005-.001.01.01 0 0 0-.007.002l-.002.002-.002.005a.148.148 0 0 0-.005.011v.001Z" clip-rule="evenodd"/><path fill="#FEC500" fill-rule="evenodd" d="M16.479 5.522s.491.401.662.63c.17.229.34.63.35.63.01 0 .463-.116.463-.103 0 .012-.53-.64-.785-.835-.255-.195-.681-.298-.69-.32v-.002Z" clip-rule="evenodd"/><path fill="#6D6666" fill-rule="evenodd" d="m16.484 5.515-.005.007.005-.007.002.001.004.004.004.003a1.808 1.808 0 0 1 .68.313c.13.099.326.311.49.497.08.09.152.173.205.235l.006.007a9.568 9.568 0 0 0 .08.092l.002.003h.002a.01.01 0 0 1 .004.008v.005a.009.009 0 0 1-.01.004h-.003l-.014.001-.05.01-.157.036-.126.03-.034.008a9.268 9.268 0 0 1-.075.018h-.003c-.004 0-.006-.002-.007-.002l-.002-.002a1.949 1.949 0 0 1-.034-.067l-.008-.017a9.635 9.635 0 0 0-.072-.146 2.93 2.93 0 0 0-.235-.4 3.3 3.3 0 0 0-.393-.398 9 9 0 0 0-.188-.163l-.058-.048-.01-.009a.061.061 0 0 1-.009-.005.015.015 0 0 1-.005-.006v-.024l.014.012Zm.052.044.028.022.188.163c.144.129.31.287.396.402.085.115.17.273.236.402l.072.146.008.017.024.049.006.012h.002a1.307 1.307 0 0 0 .07-.017l.033-.008a31.664 31.664 0 0 1 .283-.066 1.08 1.08 0 0 1 .052-.01 9.442 9.442 0 0 1-.073-.084l-.006-.007a20.392 20.392 0 0 0-.204-.235c-.164-.186-.36-.398-.487-.494a1.794 1.794 0 0 0-.436-.224 2.914 2.914 0 0 0-.149-.053l-.027-.01-.016-.005Z" clip-rule="evenodd"/><path fill="#FEC500" fill-rule="evenodd" d="M16.99 5.415s.245.458.294.618c.06.191.123.381.189.57h.388s-.19-.514-.398-.765c-.208-.25-.464-.4-.473-.423Z" clip-rule="evenodd"/><path fill="#6D6666" fill-rule="evenodd" d="m16.99 5.415-.008.004.002.002.002.004.007.014a7.209 7.209 0 0 1 .118.23c.068.134.14.288.165.367.06.191.123.382.189.57l.002.007h.407l-.005-.012-.008.003.008-.003v-.002l-.002-.004-.006-.017a4.204 4.204 0 0 0-.112-.267 2.305 2.305 0 0 0-.278-.478 2.083 2.083 0 0 0-.313-.299l-.1-.076A7.695 7.695 0 0 0 17 5.415a.024.024 0 0 1 0-.003l-.008.003Zm.03.038a8.467 8.467 0 0 1 .107.207c.067.134.141.29.166.37.06.19.122.378.186.565h.37l-.005-.01a5.513 5.513 0 0 0-.111-.266 2.296 2.296 0 0 0-.276-.475 2.061 2.061 0 0 0-.31-.296 4.013 4.013 0 0 0-.1-.076c-.005-.003-.01-.006-.013-.01l-.014-.01Z" clip-rule="evenodd"/><path fill="#FEC500" fill-rule="evenodd" d="M17.122 5.163c.01.035.36.434.444.697.06.195.11.394.152.596l.341-.103s-.303-.675-.493-.859c-.188-.182-.425-.309-.444-.33Z" clip-rule="evenodd"/><path fill="#6D6666" fill-rule="evenodd" d="M17.286 5.262c.085.057.192.135.287.226.049.047.104.124.159.214.055.089.11.19.16.287.05.096.094.186.126.252l.037.08.01.02.002.007.001.001-.008.004.008-.004.004.01-.36.108-.002-.01a6.502 6.502 0 0 0-.151-.594c-.042-.13-.15-.294-.25-.431a5.67 5.67 0 0 0-.119-.16 1.935 1.935 0 0 0-.056-.074.34.34 0 0 1-.02-.032l.009-.003.007-.005.004.004a1.409 1.409 0 0 0 .044.03l.015.009.093.06Zm-.13-.064a5.233 5.233 0 0 0 .048.063l.12.16c.099.137.209.304.252.437.059.192.109.388.15.587l.322-.097a2.208 2.208 0 0 0-.046-.1 8.071 8.071 0 0 0-.125-.251 4.479 4.479 0 0 0-.16-.286 1.161 1.161 0 0 0-.156-.21 2.16 2.16 0 0 0-.285-.225 4.746 4.746 0 0 0-.092-.06l-.015-.01-.013-.008Z" clip-rule="evenodd"/><path fill="#FEC500" fill-rule="evenodd" d="M19.953 6.244s-.71.091-.966.17c-.256.08-.397.38-.397.38s.331.148.35.125c.018-.024.219-.263.435-.355.219-.09.598-.31.578-.32Z" clip-rule="evenodd"/><path fill="#6D6666" fill-rule="evenodd" d="m19.954 6.234.002.001a.01.01 0 0 1 .006.011.016.016 0 0 1-.004.007.523.523 0 0 1-.053.04 3.948 3.948 0 0 1-.528.279 1.08 1.08 0 0 0-.289.2 1.77 1.77 0 0 0-.142.151.017.017 0 0 1-.013.006h-.016a1.79 1.79 0 0 1-.163-.056 4.9 4.9 0 0 1-.165-.07l-.003-.002.003-.008-.008-.004v-.001l.002-.003.005-.01a.792.792 0 0 1 .097-.147.643.643 0 0 1 .299-.222c.128-.04.37-.083.58-.116a16.406 16.406 0 0 1 .356-.052l.023-.003h.008l.001.008-.001-.009h.003Zm-.025.021a2.938 2.938 0 0 1-.18.11c-.12.068-.27.145-.378.19-.11.046-.215.13-.295.205a1.59 1.59 0 0 0-.145.152l-.01-.001a1.808 1.808 0 0 1-.16-.055 5.062 5.062 0 0 1-.154-.065l-.006-.003.003-.004a.97.97 0 0 1 .095-.145.625.625 0 0 1 .29-.216c.127-.04.368-.082.577-.115a16.477 16.477 0 0 1 .356-.052l.007-.001Zm-.996.656Zm-.344-.118-.008-.004-.004.008.008.004.004-.008Z" clip-rule="evenodd"/><path fill="#FEC500" fill-rule="evenodd" d="M19.924 5.682a42.94 42.94 0 0 0-.767.756c-.18.182-.35.377-.369.39-.02.01-.37-.06-.35-.081.019-.023.52-.515.851-.732.332-.219.607-.31.634-.333Z" clip-rule="evenodd"/><path fill="#6D6666" fill-rule="evenodd" d="m19.917 5.676.002-.001.01.014-.001.001-.002.002-.006.005a10.959 10.959 0 0 0-1.001 1.005l-.026.028a11.162 11.162 0 0 1-.1.105.017.017 0 0 1-.006.002h-.006a2.156 2.156 0 0 1-.302-.059.249.249 0 0 1-.037-.013.038.038 0 0 1-.01-.008.014.014 0 0 1-.004-.007c0-.003 0-.007.002-.009.01-.012.142-.14.31-.294.17-.153.379-.33.544-.44a3.344 3.344 0 0 1 .557-.295l.015-.007a1.598 1.598 0 0 0 .06-.029Zm-.044.04a1.092 1.092 0 0 1-.01.005l-.015.007-.124.055c-.113.053-.265.13-.43.24a5.05 5.05 0 0 0-.541.437 8.697 8.697 0 0 0-.305.288l.002.001a1.443 1.443 0 0 0 .15.042 2.148 2.148 0 0 0 .18.029h.004a1.343 1.343 0 0 0 .038-.039l.058-.063.026-.028c.067-.073.155-.167.245-.258a42.775 42.775 0 0 1 .722-.715Z" clip-rule="evenodd"/><path fill="#FEC500" fill-rule="evenodd" d="M19.782 5.282c-.058.08-.615.63-.767.825-.152.195-.397.536-.397.536s-.294-.16-.275-.23c.02-.068.416-.469.7-.697.284-.23.768-.412.739-.436v.002Z" clip-rule="evenodd"/><path fill="#6D6666" fill-rule="evenodd" d="m19.773 5.262.014.012a.012.012 0 0 1 .005.01.015.015 0 0 1-.004.008 3.132 3.132 0 0 1-.123.131c-.044.048-.098.103-.155.163l-.07.072a8.087 8.087 0 0 0-.418.454 15.713 15.713 0 0 0-.356.48l-.03.041-.01.015-.008-.005-.004.008h-.001l-.003-.002a.63.63 0 0 1-.042-.025 1.75 1.75 0 0 1-.1-.063.72.72 0 0 1-.096-.076.183.183 0 0 1-.03-.038.047.047 0 0 1-.008-.036.288.288 0 0 1 .026-.043c.013-.018.032-.04.054-.066a6.038 6.038 0 0 1 .624-.593c.143-.115.335-.219.488-.296a12.21 12.21 0 0 1 .188-.095.523.523 0 0 0 .05-.028.22.22 0 0 0 .009-.011v-.017Zm-.046.07-.004.002-.1.05-.09.045a2.87 2.87 0 0 0-.484.294 6.03 6.03 0 0 0-.622.59 1.063 1.063 0 0 0-.069.088.073.073 0 0 0-.007.015c-.001.005 0 .013.006.023s.015.021.027.033c.024.024.059.05.094.075a1.75 1.75 0 0 0 .132.081l.005.003.007-.008a22.893 22.893 0 0 1 .386-.521c.076-.098.254-.285.42-.456l.069-.073a31.249 31.249 0 0 0 .23-.242Zm-1.11 1.31-.003.009.006.003.005-.006-.007-.005Z" clip-rule="evenodd"/><path fill="#FEC500" fill-rule="evenodd" d="M19.215 5.237c-.141.177-.277.36-.408.549a9.55 9.55 0 0 0-.264.617s-.294-.308-.294-.32c0-.01.368-.48.587-.663.219-.184.388-.15.379-.183Z" clip-rule="evenodd"/><path fill="#6D6666" fill-rule="evenodd" d="m19.218 5.218.005.017a.017.017 0 0 1-.001.011.02.02 0 0 1-.008.008 9.674 9.674 0 0 0-.4.536c-.032.057-.098.21-.156.35-.03.07-.056.137-.076.186l-.023.058-.007.017-.002.005-.008-.003-.007.006-.012-.013-.034-.035a21.114 21.114 0 0 1-.245-.267.092.092 0 0 1-.004-.007v-.009l.002-.002.003-.005a3.686 3.686 0 0 1 .585-.658.712.712 0 0 1 .337-.164l.02-.004a.13.13 0 0 0 .012-.003l.008-.01.011-.014Zm-.038.047a1.35 1.35 0 0 1-.01.002l-.058.013a.695.695 0 0 0-.271.146 3.682 3.682 0 0 0-.375.395 7.01 7.01 0 0 0-.206.26l-.002.002a8.654 8.654 0 0 0 .244.265l.033.036.004.003.003-.01.024-.058.075-.186c.058-.14.125-.295.158-.352.122-.178.25-.35.381-.516Zm-.638 1.138-.007.006.01.01.005-.013-.008-.003Z" clip-rule="evenodd"/><path fill="#FEC500" fill-rule="evenodd" d="M18.393 5.86a.176.176 0 0 1-.004.062.156.156 0 0 1-.025.054.125.125 0 0 1-.04.037.103.103 0 0 1-.1 0 .125.125 0 0 1-.042-.037.156.156 0 0 1-.025-.054.176.176 0 0 1-.003-.062.159.159 0 0 1 .039-.094.11.11 0 0 1 .08-.038.11.11 0 0 1 .082.038.158.158 0 0 1 .04.094h-.002Zm.242.195c0 .07-.054.13-.12.13s-.12-.06-.12-.13c0-.071.053-.13.119-.13s.12.057.12.13Zm-.536-.146c0 .072-.065.129-.147.129-.08 0-.147-.057-.147-.13 0-.072.067-.129.147-.129.08 0 .147.059.147.13Z" clip-rule="evenodd"/><path fill="#6D6666" fill-rule="evenodd" d="M18.273 5.738a.1.1 0 0 0-.074.035.15.15 0 0 0-.036.088.166.166 0 0 0 .003.06.148.148 0 0 0 .023.05.121.121 0 0 0 .038.034.094.094 0 0 0 .091 0 .116.116 0 0 0 .038-.034.147.147 0 0 0 .024-.05.166.166 0 0 0 .003-.06l-.001-.01h.001a.147.147 0 0 0-.035-.078.1.1 0 0 0-.075-.035Zm.13.132h.001v-.01a.168.168 0 0 0-.042-.1.12.12 0 0 0-.088-.04.12.12 0 0 0-.089.04.168.168 0 0 0-.041.1.184.184 0 0 0 .03.122.14.14 0 0 0 .044.04.113.113 0 0 0 .11 0 .135.135 0 0 0 .044-.04.182.182 0 0 0 .031-.112Zm-.451-.08c-.077 0-.138.053-.138.12 0 .065.061.12.138.12.077 0 .138-.055.138-.12s-.062-.12-.138-.12Zm-.157.12c0-.08.072-.14.157-.14.084 0 .157.062.157.14 0 .078-.072.138-.157.138s-.157-.06-.157-.139Zm.719.026c-.06 0-.11.053-.11.12 0 .066.05.12.11.12s.111-.054.111-.12c0-.068-.052-.12-.111-.12Zm-.13.12c0-.076.058-.14.13-.14.07 0 .13.062.13.14 0 .075-.058.138-.13.138-.07 0-.13-.063-.13-.139Z" clip-rule="evenodd"/><path fill="#FEC500" fill-rule="evenodd" d="M18.487 6.178c0 .138-.075.25-.167.25-.092 0-.167-.112-.167-.25s.075-.252.167-.252c.092 0 .167.112.167.25v.002Zm-.455.007c0 .107-.075.195-.167.195-.092 0-.168-.088-.168-.195 0-.107.075-.195.168-.195.093 0 .167.088.167.195Z" clip-rule="evenodd"/><path fill="#6D6666" fill-rule="evenodd" d="M18.21 6.005a.317.317 0 0 0-.048.173c0 .067.019.128.048.172.029.043.068.069.11.069.042 0 .08-.026.11-.07a.313.313 0 0 0 .047-.171v-.002a.313.313 0 0 0-.047-.172c-.03-.043-.068-.069-.11-.069-.042 0-.081.026-.11.07Zm-.016-.01c.031-.047.076-.079.126-.079s.094.03.126.078c.031.047.05.111.05.182v.002c0 .07-.019.135-.05.182-.032.047-.076.078-.126.078s-.095-.03-.126-.078a.332.332 0 0 1-.05-.182c0-.07.019-.135.05-.183ZM17.865 6c-.087 0-.159.082-.159.185s.073.185.16.185c.085 0 .157-.082.157-.185 0-.104-.072-.185-.158-.185Zm-.177.185c0-.111.077-.204.177-.204.099 0 .177.093.177.204 0 .11-.078.204-.177.204-.098 0-.177-.093-.177-.204Z" clip-rule="evenodd"/><path fill="#FEC500" fill-rule="evenodd" d="M17.805 6.337c0 .095-.057.17-.128.17-.07 0-.126-.075-.126-.17 0-.093.056-.17.126-.17s.127.077.127.17h.001Zm.936-.015a.198.198 0 0 1-.193.202.198.198 0 0 1-.195-.202c0-.111.086-.203.195-.203.107 0 .193.09.193.203Zm-.468-.292c0 .068-.07.122-.154.122-.084 0-.154-.055-.154-.122s.07-.121.154-.121c.086 0 .154.055.154.12Z" clip-rule="evenodd"/><path fill="#6D6666" fill-rule="evenodd" d="M18.12 5.919c-.083 0-.146.052-.146.111 0 .06.064.113.145.113.081 0 .144-.052.144-.113 0-.058-.062-.111-.144-.111Zm-.165.111c0-.074.076-.13.164-.13.089 0 .163.058.163.13 0 .076-.076.132-.163.132-.087 0-.163-.058-.163-.132Zm.593.099a.19.19 0 0 0-.186.194c0 .106.083.192.186.192a.188.188 0 0 0 .183-.192.188.188 0 0 0-.184-.194Zm-.205.194c0-.116.09-.213.204-.213.113 0 .203.095.203.213 0 .116-.09.21-.203.21a.207.207 0 0 1-.204-.21Zm-.748-.1a.193.193 0 0 0-.035.115c0 .045.014.086.035.115.022.028.05.045.082.045s.061-.017.083-.045a.187.187 0 0 0 .035-.106v-.009a.192.192 0 0 0-.036-.114.102.102 0 0 0-.082-.046.104.104 0 0 0-.082.046Zm.218.106a.21.21 0 0 0-.039-.117.123.123 0 0 0-.097-.053.122.122 0 0 0-.097.053.212.212 0 0 0-.039.126c0 .05.015.094.039.126a.122.122 0 0 0 .097.053c.039 0 .073-.02.098-.053a.21.21 0 0 0 .04-.126v-.01h-.002Z" clip-rule="evenodd"/><path fill="#FEC500" fill-rule="evenodd" d="M18.3 6.297c0 .098-.096.178-.214.178-.117 0-.214-.079-.214-.178 0-.097.096-.178.214-.178.119 0 .215.08.215.178Zm.549.316c0 .121-.09.219-.2.219-.111 0-.202-.098-.202-.219 0-.12.09-.218.201-.218.11 0 .2.097.2.218Zm-1.098-.056c0 .08-.05.145-.114.145-.063 0-.114-.065-.114-.146 0-.08.051-.145.114-.145.064 0 .114.064.114.145v.001Z" clip-rule="evenodd"/><path fill="#6D6666" fill-rule="evenodd" d="M18.086 6.129c-.115 0-.204.078-.204.168 0 .092.09.17.204.17.114 0 .205-.079.205-.17 0-.09-.09-.168-.205-.168Zm-.223.168c0-.104.101-.187.223-.187s.224.083.224.187c0 .105-.103.188-.224.188-.12 0-.223-.082-.223-.188Zm.785.107c-.106 0-.192.093-.192.21 0 .116.087.208.192.208.105 0 .19-.092.19-.209 0-.116-.085-.209-.19-.209Zm-.211.21c0-.126.093-.229.21-.229.117 0 .21.103.21.228 0 .126-.093.228-.21.228-.115 0-.21-.102-.21-.228Zm-.8-.193c-.056 0-.104.058-.104.135 0 .078.048.137.104.137.056 0 .105-.059.105-.135v-.002c0-.077-.049-.135-.105-.135Zm-.123.135c0-.083.053-.154.123-.154s.124.07.124.154v.002c0 .082-.053.154-.124.154-.07 0-.123-.072-.123-.156Z" clip-rule="evenodd"/><path fill="#FEC500" fill-rule="evenodd" d="M18.554 6.533c0 .103-.077.186-.173.186-.097 0-.175-.083-.175-.186s.078-.188.175-.188c.097 0 .174.083.174.186l-.001.002Zm-.548-.009c0 .09-.07.162-.154.162a.158.158 0 0 1-.155-.162c0-.089.07-.161.155-.161.085 0 .154.072.154.161Z" clip-rule="evenodd"/><path fill="#6D6666" fill-rule="evenodd" d="M18.38 6.354c-.09 0-.165.08-.165.178 0 .099.075.177.166.177.09 0 .163-.078.163-.177V6.53l.001-.001c-.002-.097-.074-.174-.164-.174Zm-.184.178c0-.107.082-.197.185-.197.102 0 .183.088.183.196v.003l-.001.002c-.002.106-.082.192-.182.192a.19.19 0 0 1-.185-.196Zm-.345-.16a.149.149 0 0 0-.145.152.15.15 0 0 0 .145.152c.08 0 .145-.068.145-.152a.149.149 0 0 0-.145-.152Zm-.163.152c0-.094.072-.171.163-.171.091 0 .164.077.164.171 0 .094-.073.17-.164.17a.168.168 0 0 1-.163-.17Z" clip-rule="evenodd"/><path fill="#FEC500" fill-rule="evenodd" d="M18.273 6.573c0 .097-.07.178-.16.178-.088 0-.16-.08-.16-.178 0-.097.072-.178.16-.178.09 0 .162.08.162.178h-.002Zm-.695-1.069c.04 0 .321.114.321.114s-.349.162-.294.145c.054-.017.388-.064.361-.064-.026 0-.295.308-.214.292.08-.016.24-.211.253-.211.014 0 .175.307.189.292.013-.017 0-.309.013-.309.012 0 .334.195.307.178a1.6 1.6 0 0 1-.2-.242c.014 0 .442.049.414.032l-.28-.161s.187-.21.147-.21c-.04 0-.348.21-.322.194.027-.016.334-.438.334-.438l-.306.178s.054-.259.028-.242c-.028.017-.242.34-.255.34-.012 0-.067-.323-.067-.323s.013.355-.067.371c-.081.017-.36.081-.36.066l-.002-.002Z" clip-rule="evenodd"/><path fill="#6D6666" fill-rule="evenodd" d="m18.313 5.275.288-.167.013.013-.008-.005.008.005-.014.019a15.056 15.056 0 0 1-.257.344l-.015.02a4.46 4.46 0 0 1 .19-.12.665.665 0 0 1 .062-.031.044.044 0 0 1 .013-.003c.005 0 .01.001.014.007a.02.02 0 0 1 0 .013.1.1 0 0 1-.011.027.781.781 0 0 1-.054.073 2.51 2.51 0 0 1-.08.097h-.001l.27.156.004.002a.01.01 0 0 1 .003.007.01.01 0 0 1-.004.008.011.011 0 0 1-.004.002 4.52 4.52 0 0 1-.344-.027h-.003l-.049-.005h-.002c.056.081.119.156.187.224h.001v.001h.001l.002.003c0 .005-.004.012-.008.013h-.006V5.95a.647.647 0 0 1-.036-.022l-.104-.062a8.383 8.383 0 0 0-.15-.086l-.008-.004a.37.37 0 0 0-.002.033v.102l-.001.106a.632.632 0 0 1-.005.055.02.02 0 0 1-.003.006.011.011 0 0 1-.01.004.016.016 0 0 1-.007-.003.357.357 0 0 1-.032-.041 2.897 2.897 0 0 1-.06-.102l-.017-.028a6.052 6.052 0 0 0-.071-.116.726.726 0 0 0-.039.039l-.055.055a.977.977 0 0 1-.08.072.21.21 0 0 1-.076.042.025.025 0 0 1-.018-.001.018.018 0 0 1-.009-.016l.003-.016a.755.755 0 0 1 .08-.122 1.626 1.626 0 0 1 .117-.129l-.07.011a47.168 47.168 0 0 0-.168.028.922.922 0 0 0-.091.018l-.004-.001a.01.01 0 0 1-.005-.007l.001-.005c0-.002.002-.003.003-.004a4.873 4.873 0 0 1 .249-.122l.033-.015a2.672 2.672 0 0 0-.125-.049 3.093 3.093 0 0 0-.154-.053.146.146 0 0 1-.015 0l-.006-.002a.012.012 0 0 1-.004-.005l-.013-.015h.02c.005 0 .011 0 .02.003a2.225 2.225 0 0 0 .13-.022l.148-.032a7.13 7.13 0 0 1 .061-.013.035.035 0 0 0 .02-.017.16.16 0 0 0 .018-.042.665.665 0 0 0 .019-.125 1.695 1.695 0 0 0 .004-.163v-.015h.01l.009-.002v.004l.002.01.006.036a11.057 11.057 0 0 0 .043.222.532.532 0 0 0 .009.036 1.12 1.12 0 0 0 .03-.04l.071-.099.01-.014a6.326 6.326 0 0 1 .126-.17.046.046 0 0 1 .01-.008.013.013 0 0 1 .007-.002c.003 0 .006 0 .008.003a.02.02 0 0 1 .005.01.959.959 0 0 1-.01.113 3.219 3.219 0 0 1-.02.107Zm-.307-.207.01-.001-.02.002h.01Zm.01.11a8.126 8.126 0 0 0 .032.165.545.545 0 0 0 .016.053l.003.003a.01.01 0 0 0 .006.002c.003 0 .004-.001.005-.002a8.757 8.757 0 0 0 .114-.152l.01-.014a7.067 7.067 0 0 1 .123-.166v.015a2.9 2.9 0 0 1-.026.17l-.006.029-.002.008v.003l-.005.02.286-.165-.022.03a28.975 28.975 0 0 1-.222.296 1.822 1.822 0 0 1-.065.076l-.001.003a.01.01 0 0 0 .001.009.01.01 0 0 0 .008.003h.005v-.002h.001a.651.651 0 0 1 .309-.192h.002a.765.765 0 0 1-.06.089l-.06.071-.021.024a.421.421 0 0 1-.006.007l-.002.002-.008.009.266.152h-.02a4.517 4.517 0 0 1-.14-.012l-.15-.015h-.003l-.048-.006a.481.481 0 0 0-.023-.002h-.018l.01.015c.046.069.097.133.152.193a15.856 15.856 0 0 0-.246-.142l-.002-.001h-.004a.01.01 0 0 0-.009.005.018.018 0 0 0-.002.005.478.478 0 0 0-.004.045v.102l-.001.105a.563.563 0 0 1-.002.04 2.885 2.885 0 0 1-.096-.156l-.046-.078a.747.747 0 0 0-.03-.045c0-.002-.002-.003-.003-.004l-.003-.002a.011.011 0 0 0-.011 0l-.004.003a.145.145 0 0 0-.008.007l-.023.023-.013.013a2.986 2.986 0 0 1-.054.055.948.948 0 0 1-.08.071.192.192 0 0 1-.07.04l.001-.01a.734.734 0 0 1 .078-.116 1.605 1.605 0 0 1 .126-.138.121.121 0 0 1 .011-.009h.001a.05.05 0 0 0 .006-.002l.003-.001s.003-.002.004-.006a.01.01 0 0 0-.008-.011.012.012 0 0 0-.003 0l-.007.001h-.002a1.15 1.15 0 0 1-.102.018l-.041.006a8.72 8.72 0 0 0-.152.026 8.661 8.661 0 0 1 .187-.09l.04-.017.014-.007-.004-.009.004.009.02-.01-.02-.008-.004.01.004-.01-.004-.001-.009-.004-.032-.013a8.08 8.08 0 0 0-.216-.08l.089-.017.15-.032.06-.013c.014-.002.024-.012.032-.025a.176.176 0 0 0 .02-.046.69.69 0 0 0 .02-.13l.004-.07Zm-.05.53Zm.3-.162Zm.011.016Zm-.27.226Zm.105.616c-.082 0-.151.076-.151.169 0 .093.069.168.15.168.084 0 .152-.075.152-.168v-.01c-.004-.09-.071-.159-.15-.159Zm.17.178v-.01c0-.102-.075-.187-.17-.187-.095 0-.17.086-.17.188 0 .101.075.187.169.187.093 0 .166-.08.17-.178Z" clip-rule="evenodd"/><path fill="#00389B" fill-rule="evenodd" d="M16.706 8.119c.008.033.221.615.551.6.33-.015.462-.113.447-.12a.674.674 0 0 1-.233-.32 1.641 1.641 0 0 1-.094-.3l-.67.14Zm1.17-.225s.244.573.349.656a.956.956 0 0 0 .461.135c.109-.008.236 0 .236 0s-.108-.056-.195-.371l-.112-.42h-.739Zm1.474.21s-.045.42 0 .525c.049.105.281.3.281.3s.281-.038.289-.3c0-.171-.031-.34-.094-.5l-.476-.03v.005Z" clip-rule="evenodd"/><path fill="#005120" fill-rule="evenodd" d="M16.478 7.368s.013.065 0 .114c-.012.049-.127.178-.127.283 0 .105.133.428.54.437.41.008.925-.268.918-.276-.007-.007-.977-.793-.99-.785-.014.009-.342.244-.342.227h.001Zm2.697.558s.087.284.12.316c.034.032.046.097.055.097.008 0 .561.145.561.145s.053-.185-.026-.331c-.08-.146-.382-.526-.382-.526l-.328.299Zm.382-.348c.013 0 .147.14.253.066.108-.073.282-.268.282-.268s-.147.056-.254.05c-.107-.01-.274.16-.281.152Z" clip-rule="evenodd"/><path fill="currentColor" fill-rule="evenodd" d="m17.813 7.916.004.003c.004.006.002.011.001.012a.016.016 0 0 1-.002.003 1.738 1.738 0 0 1-.924.277.569.569 0 0 1-.43-.185.45.45 0 0 1-.12-.262c0-.055.03-.115.06-.167l.029-.046.015-.024a.221.221 0 0 0 .024-.048.24.24 0 0 0 .002-.099l-.002-.006a.01.01 0 0 1-.002-.006v-.01h.013a4.334 4.334 0 0 0 .158-.102l.116-.082.011-.007.049-.034a.01.01 0 0 1 .007-.002l.003.001a40.945 40.945 0 0 1 .836.66l.11.09.033.026.009.008Zm-1.335-.557Zm.01.007-.009.002.008-.002Zm.002.009v.002a.255.255 0 0 1-.002.107.232.232 0 0 1-.026.053l-.015.024a1.81 1.81 0 0 0-.028.046.341.341 0 0 0-.058.157c0 .05.032.155.115.249a.55.55 0 0 0 .417.179 1.72 1.72 0 0 0 .611-.131 2.547 2.547 0 0 0 .291-.135l-.003-.003-.032-.026a46.981 46.981 0 0 0-.449-.362 39.9 39.9 0 0 0-.45-.355.937.937 0 0 0-.04-.028 7 7 0 0 0-.045.03l-.01.008a17.244 17.244 0 0 1-.231.158.654.654 0 0 1-.045.027Zm1.312.545Zm2.288-.553.01.015-.007-.006.007.006v.001l-.002.002-.006.006-.021.023-.072.075a1.388 1.388 0 0 1-.183.162c-.057.04-.122.022-.171-.004a.494.494 0 0 1-.088-.06.01.01 0 0 1-.007-.003l.008-.006v-.01l-.002.001.006-.003a.49.49 0 0 0 .021-.017l.007-.005a1.53 1.53 0 0 1 .065-.05.654.654 0 0 1 .091-.056.19.19 0 0 1 .093-.023.559.559 0 0 0 .164-.021 1.02 1.02 0 0 0 .085-.026h.001Zm-.514.211.008.006.01.007a.473.473 0 0 0 .06.039c.047.025.103.04.151.005.054-.035.124-.101.18-.16a3.304 3.304 0 0 0 .076-.078.577.577 0 0 1-.223.037.173.173 0 0 0-.084.02.582.582 0 0 0-.088.055 1.555 1.555 0 0 0-.09.07Zm-.02.009Zm-.052.026.007.008-.008.006.008-.006.003.004.01.012a17.62 17.62 0 0 1 .148.192c.085.113.181.245.222.319a.43.43 0 0 1 .044.225.625.625 0 0 1-.015.105l-.001.006v.002l-.01-.002-.002.009-.024-.006-.063-.017-.191-.05a55.378 55.378 0 0 0-.281-.071h-.002m-.174-.423-.006-.007.335-.306m-.318.316.002.006.01.033a4.636 4.636 0 0 0 .074.207.55.55 0 0 0 .03.06.181.181 0 0 1 .04.064l.005.014.005.012a.044.044 0 0 0 .003.005h.002l.003.001a1.235 1.235 0 0 1 .084.021 57.457 57.457 0 0 1 .384.1l.063.016.014.004a.526.526 0 0 0 .014-.1.412.412 0 0 0-.042-.215 3.487 3.487 0 0 0-.22-.317 12.416 12.416 0 0 0-.113-.146l-.035-.045-.007-.009-.316.289Zm.726.555-.002.009.009.002.002-.009-.009-.002Z" clip-rule="evenodd"/><path fill="#005120" fill-rule="evenodd" d="M16.458 7.4s-.04-.136-.147-.145c-.107-.008-.302.016-.369-.048-.066-.066-.085-.219-.12-.21-.034.006-.12 0-.126 0-.006 0-.041-.13.053-.195.094-.066.173-.009.227-.056a.41.41 0 0 1 .242-.09c.107-.007.28.162.361.203.08.04.253.089.321.048.067-.041.441-.218.576-.226.133-.009.414-.017.521-.009.107.009.53.074.657.146.126.073.803.355.896.42.094.066.302.162.302.162s-.368.437-.55.51a3.422 3.422 0 0 1-1.099.162c-.34-.024-.609-.065-.869-.227-.261-.161-.542-.316-.556-.396-.014-.081-.007-.185-.007-.185l-.314.136h.001Z" clip-rule="evenodd"/><path fill="currentColor" fill-rule="evenodd" d="M16.218 6.665a.4.4 0 0 0-.236.088c-.028.024-.062.024-.095.023h-.01a.195.195 0 0 0-.123.033.143.143 0 0 0-.06.115.198.198 0 0 0 .007.063h.013l.034.002a.397.397 0 0 0 .072-.002.023.023 0 0 1 .02.006.07.07 0 0 1 .015.019c.007.014.014.033.022.054l.002.004a.372.372 0 0 0 .07.13.143.143 0 0 0 .066.03c.028.007.062.01.096.012l.1.001h.006c.034 0 .067 0 .094.002a.165.165 0 0 1 .121.08.303.303 0 0 1 .031.061l.318-.138v.02l-.001.013a1.007 1.007 0 0 0 .007.166.07.07 0 0 0 .015.03.286.286 0 0 0 .038.038 1.2 1.2 0 0 0 .128.093c.068.045.148.094.232.144l.139.085c.258.16.524.202.864.225.37.007.738-.047 1.095-.16a.671.671 0 0 0 .16-.11c.06-.05.123-.112.18-.171a5.085 5.085 0 0 0 .19-.209l.008-.009-.022-.01a4.439 4.439 0 0 1-.082-.041 1.71 1.71 0 0 1-.187-.106 1.473 1.473 0 0 0-.16-.082l-.275-.125-.06-.026a7.387 7.387 0 0 1-.402-.187.665.665 0 0 0-.138-.051 3.469 3.469 0 0 0-.513-.094c-.107-.008-.387 0-.52.009a.598.598 0 0 0-.136.032 2.605 2.605 0 0 0-.436.193.148.148 0 0 1-.073.017.439.439 0 0 1-.09-.01.714.714 0 0 1-.168-.055.607.607 0 0 1-.102-.07l-.07-.05a.734.734 0 0 0-.099-.06.182.182 0 0 0-.085-.022Zm3.634.735.007.006-.001.001-.003.004-.012.014a4.676 4.676 0 0 1-.373.382.685.685 0 0 1-.165.112 3.43 3.43 0 0 1-1.102.162c-.342-.023-.612-.065-.874-.228l-.138-.084c-.084-.051-.165-.1-.233-.145a1.25 1.25 0 0 1-.13-.095.307.307 0 0 1-.04-.041.088.088 0 0 1-.02-.038.769.769 0 0 1-.007-.17v-.002l-.292.127.002.004h-.014l-.002-.008-.006.001-.002-.005a.338.338 0 0 0-.03-.061c-.023-.034-.058-.068-.107-.072a1.253 1.253 0 0 0-.093-.002h-.007l-.1-.001a.554.554 0 0 1-.1-.012.16.16 0 0 1-.075-.036.387.387 0 0 1-.075-.14c-.008-.02-.015-.04-.022-.052a.05.05 0 0 0-.01-.014l-.003-.002a.397.397 0 0 1-.077.003l-.035-.001h-.01l-.002-.001h-.005a.01.01 0 0 1-.008-.004.012.012 0 0 1-.002-.003.126.126 0 0 1-.007-.023.22.22 0 0 1-.004-.053.162.162 0 0 1 .068-.13.214.214 0 0 1 .134-.036h.009c.035 0 .061 0 .083-.018a.419.419 0 0 1 .247-.093.2.2 0 0 1 .096.024.751.751 0 0 1 .101.061l.07.051.026.019c.03.022.055.04.074.049a.695.695 0 0 0 .25.063.13.13 0 0 0 .062-.014 2.611 2.611 0 0 1 .44-.195.614.614 0 0 1 .14-.033 5.5 5.5 0 0 1 .523-.009 3.486 3.486 0 0 1 .517.095c.06.016.11.034.143.053.056.032.224.107.4.186a287.065 287.065 0 0 1 .334.15c.079.037.14.068.163.085.047.032.121.072.185.104l.082.04.024.012.007.003h.002v.001l-.003.009Zm0 0 .004-.009.01.005-.007.01-.007-.006Z" clip-rule="evenodd"/><path fill="#005120" fill-rule="evenodd" d="M16.043 6.875c-.014.007-.08.04-.068.056.014.017.04.065.121.056.08-.007.167-.064.167-.064s-.1-.056-.22-.048Z" clip-rule="evenodd"/><path fill="currentColor" fill-rule="evenodd" d="m16.268 6.914-.004.008.005.008-.001.001-.003.002a.587.587 0 0 1-.05.027.357.357 0 0 1-.117.036.127.127 0 0 1-.092-.02.128.128 0 0 1-.033-.034l-.004-.005a.016.016 0 0 1-.003-.015.03.03 0 0 1 .006-.012.115.115 0 0 1 .023-.018c.017-.011.037-.021.044-.025l.005.008v-.01a.427.427 0 0 1 .223.048h.001v.001Zm-.222-.03a.41.41 0 0 1 .196.038l.002.001a.528.528 0 0 1-.038.02.338.338 0 0 1-.11.034.108.108 0 0 1-.08-.016.146.146 0 0 1-.027-.03l-.005-.005.002-.003a.43.43 0 0 1 .06-.038Zm.218.038.005.008.013-.008-.014-.008-.004.008Zm-.005-.008Z" clip-rule="evenodd"/><path fill="currentColor" fill-rule="evenodd" d="M16.036 6.891v.09s.094.031.094.008c0-.024.007-.081-.014-.081s-.074-.009-.08-.017Z" clip-rule="evenodd"/><path fill="currentColor" fill-rule="evenodd" d="M16.015 6.881h.03v.005l.005.002a.28.28 0 0 0 .065.01c.011 0 .017.008.02.015a.083.083 0 0 1 .005.026.359.359 0 0 1-.001.05.016.016 0 0 1-.01.014.034.034 0 0 1-.014.003.442.442 0 0 1-.067-.013c-.005 0-.008-.002-.011-.003h-.003v-.001h-.001l-.007-.002v-.091l-.011-.015Zm.03.025v.067a.334.334 0 0 0 .075.014v-.015a7.353 7.353 0 0 0 0-.033.064.064 0 0 0-.003-.019.009.009 0 0 0-.001-.003.298.298 0 0 1-.07-.01Z" clip-rule="evenodd"/><path fill="#001707" fill-rule="evenodd" d="M16.974 6.96c.023-.052 0-.122.137-.201.137-.08.377-.059.377-.059s-.07.064-.072.13a.398.398 0 0 0 .005.094s-.13-.051-.23-.02c-.1.03-.215.064-.218.055h.001Zm.615-.282c-.014.008-.119.149-.107.192.011.042.152.146.197.137.046-.009.25-.129.262-.188.012-.06.022-.14.005-.158-.016-.018-.355.023-.357.017Zm.452-.022c-.026.03-.017.182-.008.199.01.018.173.216.209.227.035.01.299-.021.32-.056.02-.035.085-.18.065-.213-.018-.035-.075-.08-.25-.125a.827.827 0 0 0-.336-.032Zm.67.19c.042.027.29.173.437.29.147.117.207.25.248.263.043.011.216-.114.223-.149.008-.035-.211-.217-.357-.3-.147-.084-.552-.094-.552-.104Zm-.053.124c-.021.023.265.627.32.646.054.02.38-.117.376-.163-.005-.046-.09-.138-.292-.271-.2-.135-.363-.223-.404-.212Zm-.354.22c-.046.032-.116.572-.072.599.045.025.599-.067.62-.126.022-.062-.227-.54-.3-.54-.074 0-.208.023-.25.066l.002.001Zm-.574-.114c-.058.065-.046.57-.02.6.025.032.354.135.39.097.034-.036.083-.602.05-.645-.034-.044-.126-.147-.196-.155-.072-.008-.19.084-.224.103Zm-.742-.008c-.054.051-.058.185.002.208.059.023.206.1.343.172.138.07.216.157.256.154.04-.003.078-.506.034-.534a.6.6 0 0 0-.284-.048 1.5 1.5 0 0 0-.35.046l-.001.002Z" clip-rule="evenodd"/><path fill="#000007" fill-rule="evenodd" d="M18.04 6.646a.835.835 0 0 1 .338.032c.176.045.237.091.257.13a.044.044 0 0 1 .005.022.44.44 0 0 1-.022.092.773.773 0 0 1-.049.109.031.031 0 0 1-.009.009.255.255 0 0 1-.05.02 1.312 1.312 0 0 1-.246.033.1.1 0 0 1-.026-.003.075.075 0 0 1-.021-.013 1.499 1.499 0 0 1-.159-.174 1.046 1.046 0 0 1-.033-.044.27.27 0 0 1-.007-.037.647.647 0 0 1 0-.126.177.177 0 0 1 .006-.027.059.059 0 0 1 .01-.02l.002-.002h.003Zm.006.018a.047.047 0 0 0-.004.011.424.424 0 0 0-.009.085.642.642 0 0 0 .008.09 1.521 1.521 0 0 0 .187.212c.009.006.014.01.016.01l.02.002.039-.001a1.286 1.286 0 0 0 .202-.031.24.24 0 0 0 .044-.018.764.764 0 0 0 .07-.17.12.12 0 0 0 .002-.024.026.026 0 0 0-.002-.012c-.017-.032-.07-.077-.245-.121a.83.83 0 0 0-.328-.033Zm-.094-.01a.016.016 0 0 0-.005-.003 2.742 2.742 0 0 0-.26.01l-.045.005a1.571 1.571 0 0 1-.047.003l-.002-.005-.01.006a.775.775 0 0 0-.101.15.16.16 0 0 0-.009.027.052.052 0 0 0 0 .025.07.07 0 0 0 .01.022.47.47 0 0 0 .171.12.057.057 0 0 0 .026.002.274.274 0 0 0 .061-.026.973.973 0 0 0 .167-.111l.028-.03a.074.074 0 0 0 .014-.029.805.805 0 0 0 .013-.137.082.082 0 0 0-.003-.016.032.032 0 0 0-.008-.012Zm-.36.034a.753.753 0 0 0-.02.023.785.785 0 0 0-.072.116.149.149 0 0 0-.009.025.034.034 0 0 0 0 .015.05.05 0 0 0 .008.015l.018.021a.459.459 0 0 0 .143.093.04.04 0 0 0 .016.001.26.26 0 0 0 .057-.024.943.943 0 0 0 .162-.108c.01-.01.02-.019.026-.027a.055.055 0 0 0 .01-.021.808.808 0 0 0 .013-.132.057.057 0 0 0-.002-.012.017.017 0 0 0-.003-.005h-.002a11.66 11.66 0 0 1-.344.02h-.002Zm-.241.02a.55.55 0 0 0-.235.059c-.068.039-.094.074-.108.106a.25.25 0 0 0-.013.046v.002l-.008.029.005-.001a4.82 4.82 0 0 0 .195-.055.333.333 0 0 1 .158-.001.547.547 0 0 1 .064.017.13.13 0 0 1-.001-.008c-.002-.016-.003-.04-.002-.073a.181.181 0 0 1 .039-.094.34.34 0 0 1 .021-.027.915.915 0 0 0-.115 0Zm.143 0h-.001l-.002.002-.008.008a.314.314 0 0 0-.023.028.162.162 0 0 0-.035.084.547.547 0 0 0 .004.087v.004l.005.019-.017-.007h-.001a.257.257 0 0 0-.02-.007.524.524 0 0 0-.055-.014.315.315 0 0 0-.148 0 4.841 4.841 0 0 1-.197.055.125.125 0 0 1-.017.003h-.006c-.002 0-.007-.002-.01-.007l-.005-.014h.01l.008-.033a.264.264 0 0 1 .015-.05c.015-.037.045-.075.115-.116a.568.568 0 0 1 .244-.06 1.082 1.082 0 0 1 .135 0h.003v.01-.01l.021.003-.015.014Zm1.216.138h-.01a.01.01 0 0 0 .004.008.015.015 0 0 0 .003.002l.025.015a4.4 4.4 0 0 1 .41.272.96.96 0 0 1 .162.17l.016.02.033.042a.197.197 0 0 0 .02.02c.007.006.013.01.02.013.008.002.018 0 .027-.002a.573.573 0 0 0 .196-.133.054.054 0 0 0 .011-.021.024.024 0 0 0 0-.014.076.076 0 0 0-.008-.013.251.251 0 0 0-.026-.032 1.78 1.78 0 0 0-.327-.252.56.56 0 0 0-.15-.051 1.951 1.951 0 0 0-.184-.03l-.145-.014h-.01a1.799 1.799 0 0 1-.061-.007h-.001l-.005.007Zm.443.282a4.293 4.293 0 0 0-.398-.266l.398.266Zm.456.12v-.003a.228.228 0 0 0-.029-.038 1.763 1.763 0 0 0-.323-.249.541.541 0 0 0-.145-.05 1.936 1.936 0 0 0-.182-.029 4.969 4.969 0 0 0-.145-.014h-.01l-.02-.003m.05.15a3 3 0 0 1 .483.331.412.412 0 0 1 .054.062c.012.017.02.033.02.047a.025.025 0 0 1-.003.015.07.07 0 0 1-.012.014.247.247 0 0 1-.038.028 1.092 1.092 0 0 1-.299.117.081.081 0 0 1-.036-.001.046.046 0 0 1-.017-.013.98.98 0 0 1-.064-.097 3.785 3.785 0 0 1-.245-.533v-.009c0-.002 0-.006.003-.01l.007.007-.003-.01a.058.058 0 0 1 .025.001.767.767 0 0 1 .124.052Zm-.138-.033a1.058 1.058 0 0 0 .033.095 4.114 4.114 0 0 0 .255.504l.016.021a.032.032 0 0 0 .01.008.066.066 0 0 0 .027 0 1.074 1.074 0 0 0 .291-.115.224.224 0 0 0 .035-.025.05.05 0 0 0 .009-.01l.001-.003a.09.09 0 0 0-.018-.039.395.395 0 0 0-.051-.058 3 3 0 0 0-.48-.328.758.758 0 0 0-.118-.05.064.064 0 0 0-.01 0Zm-.777-.005a.147.147 0 0 1 .065-.01c.02.002.04.01.059.022a.4.4 0 0 1 .058.044c.036.033.068.07.085.091a.045.045 0 0 1 .007.018.799.799 0 0 1 .006.102 3.054 3.054 0 0 1-.055.522.047.047 0 0 1-.008.017.031.031 0 0 1-.015.008.08.08 0 0 1-.018.002.275.275 0 0 1-.048-.002 1.403 1.403 0 0 1-.298-.089.16.16 0 0 1-.016-.009.044.044 0 0 1-.01-.008l.007-.006-.007.005a.041.041 0 0 1-.006-.014.834.834 0 0 1-.011-.088 2.468 2.468 0 0 1 .004-.387.56.56 0 0 1 .013-.075.118.118 0 0 1 .021-.048l.007.007.005.008h.001a.106.106 0 0 0-.015.038.548.548 0 0 0-.013.072 2.48 2.48 0 0 0 .002.448.203.203 0 0 0 .007.028l.006.004a1.394 1.394 0 0 0 .306.094.247.247 0 0 0 .044.003c.006 0 .01 0 .014-.002.003 0 .005-.002.006-.003l.004-.009a.895.895 0 0 0 .02-.096 3.17 3.17 0 0 0 .032-.494.183.183 0 0 0-.004-.024.03.03 0 0 0-.003-.01.716.716 0 0 0-.083-.089.381.381 0 0 0-.055-.041.135.135 0 0 0-.052-.02.13.13 0 0 0-.056.009.414.414 0 0 0-.064.03.991.991 0 0 0-.07.045l-.026.016h.001l-.007-.007-.005-.008a.62.62 0 0 0 .039-.026c.017-.01.037-.024.059-.036a.434.434 0 0 1 .067-.032Zm-.552.037a.61.61 0 0 1 .289.048h.001a.03.03 0 0 1 .011.015.476.476 0 0 1 .012.087 1.773 1.773 0 0 1-.039.421.086.086 0 0 1-.008.019c-.003.004-.007.01-.015.01a.08.08 0 0 1-.043-.014.723.723 0 0 1-.054-.037l-.003-.002a1.184 1.184 0 0 0-.16-.102l-.059-.03a3.428 3.428 0 0 0-.284-.14v-.001a.072.072 0 0 1-.038-.04.157.157 0 0 1-.012-.063c0-.044.015-.093.045-.121l.002-.003.003-.001a1.51 1.51 0 0 1 .352-.046Zm.28.065a.591.591 0 0 0-.278-.046h-.001a1.49 1.49 0 0 0-.345.045.156.156 0 0 0-.038.107c0 .02.003.04.01.055.006.015.015.026.027.03.051.02.168.08.286.142l.058.03m1.076-.309a.666.666 0 0 1 .138-.016.04.04 0 0 1 .02.006.43.43 0 0 1 .068.073 1.887 1.887 0 0 1 .194.356.602.602 0 0 1 .03.097.05.05 0 0 1-.001.02.037.037 0 0 1-.014.016.527.527 0 0 1-.093.038 2.716 2.716 0 0 1-.485.082h-.025a.048.048 0 0 1-.018-.005.029.029 0 0 1-.01-.016.492.492 0 0 1-.008-.093 2.224 2.224 0 0 1 .049-.397.657.657 0 0 1 .028-.094.065.065 0 0 1 .005-.007l-.001-.002.006-.006a.148.148 0 0 1 .049-.03.422.422 0 0 1 .068-.022Zm-.098.06.002.002-.008.006-.006.008a.646.646 0 0 0-.027.09 2.196 2.196 0 0 0-.046.46.099.099 0 0 0 .004.018.017.017 0 0 0 .003.006c.001 0 .004.002.01.002l.024.001a2.711 2.711 0 0 0 .48-.081.514.514 0 0 0 .086-.035.021.021 0 0 0 .007-.007.034.034 0 0 0 0-.012.612.612 0 0 0-.028-.092 1.888 1.888 0 0 0-.191-.352.42.42 0 0 0-.063-.067.023.023 0 0 0-.011-.004.647.647 0 0 0-.199.036.15.15 0 0 0-.037.02Z" clip-rule="evenodd"/><path fill="#D40F0F" fill-rule="evenodd" d="M14.55 13.47c.098-.094.248-.326.45-.338.207-.007.424.18.424.18s.214.882.203.882c-.008 0-.357.251-.364.251-.011 0-.15-.345-.281-.311-.132.03-.12.502-.143.472-.019-.034-.57-.682-.547-.705.018-.022.27-.401.258-.431Zm5.697-.113c.063-.014.356-.232.562-.224.203.01.323.105.428.202.112.094.24.337.24.337s-.263.713-.282.713c-.018 0-.13.06-.15.008-.018-.053-.086-.218-.217-.24-.128-.023-.161.232-.161.232l-.42-1.035v.008Z" clip-rule="evenodd"/><path fill="#FDDC59" fill-rule="evenodd" d="M20.385 13.575c0 .064.4 1.05 1.046 1.238.649.19.851-.177.926-.3.075-.128.345-.117.345-.117s-.064.923-.172 1.039c-.105.112-.192.367-.795.375-.604.011-1.155-.563-1.34-.731a3.438 3.438 0 0 1-.517-.81c-.097-.199.518-.675.507-.694ZM13.35 15.54c.01 0 .292.304.705.274.408-.034 1.11-.274 1.432-.694a3.57 3.57 0 0 0 .488-.874s-.477-.84-.488-.84c-.011 0-.052.274-.139.45-.086.18-.326.687-.723.844-.398.158-.398.221-.563.199a2.224 2.224 0 0 1-.581-.285l-.206.498s-.042.327.075.432v-.004Z" clip-rule="evenodd"/><path fill="#FDDC59" fill-rule="evenodd" d="M14.542 13.44c-.03 0-.795.416-.765.596.034.176 1.313 2.7 4.058 2.734 2.748.03 4.425-2.288 4.305-2.674-.124-.386-.975-.832-.975-.832s.21.176.18.412c-.03.24-.975 2.288-3.357 2.231-2.377-.06-3.506-1.875-3.506-2.08 0-.207.12-.327.06-.387Z" clip-rule="evenodd"/><path fill="#D40F0F" fill-rule="evenodd" d="M21.983 15.278c.063-.053.46-1.144.69-1.114.225.03.15.356.127.443-.019.082-.247.84-.247.84s.01-.18-.14-.225c-.15-.045-.4.075-.43.056Zm-8.633.274c0-.06-.18-.27.034-.327.214-.06.487.057.487.057s-.15-.443-.337-.803c-.184-.356-.244-.296-.398-.236-.15.06-.15.217-.056.454.094.24.27.915.27.855Z" clip-rule="evenodd"/><path fill="#FDC400" fill-rule="evenodd" d="m15.87 13.515.263-.9-.735-.563.922-.022.3-.885.304.885.922.015-.735.57.27.896-.757-.536-.754.54Z" clip-rule="evenodd"/><path fill="#fff" fill-rule="evenodd" d="M20.835 8.843v3.45c.008 1.687-1.713 3.165-2.854 3.454-1.143-.286-2.86-1.763-2.857-3.45v-3.45h5.711v-.004Z" clip-rule="evenodd"/><path fill="#D40F0F" fill-rule="evenodd" d="m15.128 8.842.005 2.16s.027-.045.403-.018c.375.027.407.477.816.477.407 0 .407-.477.815-.477.407 0 .409.477.816.477.408 0 .408-.477.816-.477.409 0 .408.477.838.504.386-.027.386-.504.795-.53l.406.026V8.842h-5.71Z" clip-rule="evenodd"/><path fill="currentColor" fill-rule="evenodd" d="M15.127 8.834h5.72v2.16l-.416-.027c-.2.013-.299.136-.398.262l-.005.006c-.098.124-.196.25-.39.263h-.001c-.22-.014-.33-.143-.434-.265-.105-.123-.205-.24-.404-.24-.2 0-.3.117-.402.236v.001c-.102.119-.206.24-.414.24-.209 0-.313-.121-.415-.24-.103-.12-.203-.236-.402-.236s-.298.116-.4.235c-.102.12-.207.242-.415.242s-.321-.116-.427-.232l-.012-.012c-.102-.112-.2-.22-.378-.233a1.725 1.725 0 0 0-.34-.002.191.191 0 0 0-.054.015l-.017.027-.005-2.191h.01v-.01Zm.01.018.004 2.134a.227.227 0 0 1 .05-.012c.055-.008.157-.012.345.001.184.013.287.127.389.238l.012.014c.107.116.214.225.414.225.2 0 .299-.116.4-.235h.001c.102-.12.206-.242.414-.242s.313.122.415.241c.103.12.203.236.402.236s.298-.116.4-.235c.102-.12.207-.242.416-.242s.313.123.417.245c.105.123.21.246.42.259.186-.013.28-.132.378-.257l.004-.005c.1-.126.204-.255.413-.269l.397.027V8.852h-5.691Z" clip-rule="evenodd"/><path fill="#0062BB" fill-rule="evenodd" d="M15.124 11.7v.713h.412c.376.03.405.48.814.48.409 0 .405-.48.814-.48.409 0 .412.48.817.48.405 0 .41-.48.814-.48.405 0 .386.45.818.48.386-.03.405-.45.817-.48h.405V11.7h-.405c-.412 0-.412.476-.817.476-.405 0-.409-.476-.818-.476s-.405.476-.814.476c-.408 0-.408-.476-.817-.476s-.405.476-.814.476c-.409 0-.412-.476-.817-.476h-.409Zm.124 1.425.285.716c.375.03.409.477.817.477.405 0 .405-.477.814-.477.409 0 .412.477.817.477.405 0 .41-.477.814-.477.405 0 .386.45.818.477.386-.027.397-.45.806-.477l.293-.723-.282.01c-.412 0-.412.477-.817.477-.405 0-.409-.48-.818-.48s-.405.476-.814.476c-.408 0-.408-.476-.817-.476s-.405.476-.814.476c-.409 0-.412-.476-.817-.476h-.285Zm2.734 2.625c.408 0 1.342-.716 1.33-.716.012 0-.108-.476-.517-.476-.409 0-.405.476-.814.476-.408 0-.408-.476-.817-.476s-.51.476-.514.476c-.018 0 .923.712 1.332.712v.004Z" clip-rule="evenodd"/><path fill="#FDC400" fill-rule="evenodd" d="M15.872 10.494c.05 0 .467.058.765.039.304-.02.416-.123.416-.142v-.059h.394s.068.28.023.299c-.045.02-.163.102-.186.102-.022 0 0-.142-.045-.098-.045.045-.067.098-.067.098s-.051-.058-.073-.058c-.023 0-.068.058-.068.058s0-.058-.022-.058c-.023 0-.141.098-.141.098l-.113-.079s-.073.098-.095.098c-.023 0-.164-.078-.164-.078l-.225.122s0-.18-.05-.161c-.045.02-.299.02-.299.02s-.073.112-.095.112c-.023 0-.113-.098-.09-.098.022 0 .067-.059.045-.083-.023-.02-.14 0-.14-.02s-.046-.137-.023-.137l.112.02v-.123h.118l.023.123v.005Z" clip-rule="evenodd"/><path fill="currentColor" fill-rule="evenodd" d="M17.035 10.313h.427l.003.014-.018.004.018-.004v.003l.003.01.007.031a1.243 1.243 0 0 1 .028.204c0 .015 0 .03-.004.041-.002.01-.008.025-.022.03a.897.897 0 0 0-.084.049l-.015.01a1.348 1.348 0 0 1-.074.041.053.053 0 0 1-.02.005c-.015 0-.021-.012-.023-.017a.425.425 0 0 1-.009-.065.174.174 0 0 0-.003-.018.312.312 0 0 0-.057.08l-.003.007v.002l-.012.027-.02-.022c0-.001 0-.002-.002-.002 0-.002-.003-.004-.005-.007a.41.41 0 0 0-.041-.038.053.053 0 0 0-.01-.005h-.002a.178.178 0 0 0-.027.023.335.335 0 0 0-.018.02l-.005.006-.001.001-.034.044v-.062a.145.145 0 0 0-.002-.018.053.053 0 0 0-.004-.013h-.002a.82.82 0 0 0-.106.076c-.006.005-.01.01-.014.012l-.003.003h-.001v.001l-.011.009-.11-.076-.001.001a.953.953 0 0 1-.062.07.116.116 0 0 1-.016.013.039.039 0 0 1-.02.007.062.062 0 0 1-.02-.005 1.17 1.17 0 0 1-.13-.064l-.014-.007-.243.133v-.039a.716.716 0 0 0-.006-.078.186.186 0 0 0-.014-.05.025.025 0 0 0-.005-.009.57.57 0 0 1-.07.012 1.878 1.878 0 0 1-.195.009h-.03a1.819 1.819 0 0 1-.035.049.495.495 0 0 1-.05.055.038.038 0 0 1-.021.009.041.041 0 0 1-.02-.007.37.37 0 0 1-.084-.085.05.05 0 0 1-.008-.018c0-.004 0-.01.004-.017a.022.022 0 0 1 .018-.008l.008-.005a.083.083 0 0 0 .016-.019.059.059 0 0 0 .008-.02v-.007l-.005-.002a.109.109 0 0 0-.015-.002l-.046-.001h-.001c-.015 0-.032 0-.044-.002a.07.07 0 0 1-.02-.004.025.025 0 0 1-.015-.023v-.001l-.002-.006a.452.452 0 0 0-.004-.017l-.005-.014-.008-.033a.304.304 0 0 1-.01-.045l.001-.02a.021.021 0 0 1 .007-.012.023.023 0 0 1 .016-.007h.002l.093.016v-.119h.151l.024.128.078.008h.007c.05.006.116.012.19.018.148.013.325.022.473.013a.88.88 0 0 0 .315-.07.32.32 0 0 0 .068-.04.098.098 0 0 0 .016-.016v-.075Zm-1.182.177-.02-.106h-.084v.126l-.118-.02.008.035.009.03.004.016a.434.434 0 0 1 .005.019l.001.005h.004c.01.002.024.002.04.002h.001a.592.592 0 0 1 .07.005.05.05 0 0 1 .02.01h.002a.05.05 0 0 1 .01.04.092.092 0 0 1-.014.034.119.119 0 0 1-.033.034.348.348 0 0 0 .067.066h.001a.437.437 0 0 0 .069-.086.87.87 0 0 0 .009-.012l.002-.003v-.001l.006-.009h.021a1.905 1.905 0 0 0 .12-.002 1.858 1.858 0 0 0 .139-.01.11.11 0 0 0 .021-.006.036.036 0 0 1 .034.003.056.056 0 0 1 .02.023c.008.017.013.04.016.062a.622.622 0 0 1 .006.06l.207-.113.01.005v.001l.005.002.016.01a2.688 2.688 0 0 0 .125.06l.006.003.002-.001a.404.404 0 0 0 .069-.074l.008-.011.003-.003v-.001l.011-.015.116.08.008-.006a2.035 2.035 0 0 1 .092-.068.21.21 0 0 1 .03-.016.038.038 0 0 1 .011-.002c.015 0 .025.01.03.018a.07.07 0 0 1 .006.016.192.192 0 0 1 .037-.03.039.039 0 0 1 .017-.004c.007 0 .013.002.018.004l.014.008a.238.238 0 0 1 .026.022l.01.01a.38.38 0 0 1 .06-.078.043.043 0 0 1 .025-.014.028.028 0 0 1 .026.014.067.067 0 0 1 .008.02.228.228 0 0 1 .005.042l.002.025v.002a1.099 1.099 0 0 0 .082-.047.818.818 0 0 1 .087-.05l.003-.007a.14.14 0 0 0 .003-.032.705.705 0 0 0-.01-.099 1.884 1.884 0 0 0-.024-.126h-.361v.04c0 .005-.002.01-.004.013a.056.056 0 0 1-.006.01.135.135 0 0 1-.02.019.353.353 0 0 1-.075.046.932.932 0 0 1-.329.072c-.15.01-.33 0-.478-.012l-.191-.018h-.001a1.659 1.659 0 0 0-.096-.009h-.019v-.021Z" clip-rule="evenodd"/><path fill="#FDC400" fill-rule="evenodd" d="M16.294 9.342c-.028 0-.186.162-.169.343.028.18.422.44.422.44s.208-.078.276 0c.067.079.067.323.045.323-.023 0-.298.064-.298.025 0-.044 0-.083-.023-.083l-.281.02.022-.08-.225-.038.09-.083s-.371-.142-.349-.142c.023 0 .163-.079.163-.079l-.28-.161h.168s-.236-.162-.214-.162l.14.02-.067-.162h.068l-.068-.117.113-.044.073.102-.028-.244.169.024v.196s.067-.117.067-.137c0-.02.208.083.18.04h.006Z" clip-rule="evenodd"/><path fill="currentColor" fill-rule="evenodd" d="m15.85 9.198.209.03v.14a.905.905 0 0 0 .029-.06l.002-.005a.02.02 0 0 1 .006-.015.022.022 0 0 1 .01-.005h.014a.175.175 0 0 1 .026.007l.05.017a4.491 4.491 0 0 0 .062.022l-.003-.005h.039v.015l.01-.007c.002.004.005.01.005.017a.022.022 0 0 1-.013.02.032.032 0 0 1-.017.003.423.423 0 0 0-.136.311c.007.04.034.087.074.135.04.05.09.098.142.141a2.173 2.173 0 0 0 .191.146 1.051 1.051 0 0 1 .107-.027.35.35 0 0 1 .096-.004.127.127 0 0 1 .084.04c.02.022.033.055.042.09a.63.63 0 0 1 .014.24.049.049 0 0 1-.006.012.023.023 0 0 1-.02.01l-.004.001-.011.002-.036.007h-.001a3.39 3.39 0 0 1-.102.018.814.814 0 0 1-.1.01.14.14 0 0 1-.036-.003.041.041 0 0 1-.016-.008.026.026 0 0 1-.01-.02.35.35 0 0 0-.005-.065l-.305.022.024-.084-.242-.042.096-.089-.03-.011a23.712 23.712 0 0 1-.284-.115.082.082 0 0 1-.014-.008.02.02 0 0 1-.006-.011c0-.004 0-.01.003-.014a.018.018 0 0 1 .008-.006l.008-.002.008-.002a1.05 1.05 0 0 0 .118-.058l-.313-.18h.179a6.311 6.311 0 0 1-.143-.103.279.279 0 0 1-.022-.02.037.037 0 0 1-.008-.01.02.02 0 0 1 .002-.02.02.02 0 0 1 .016-.008h.001l.11.015-.065-.157h.063l-.062-.108.145-.058.04.057-.022-.198Zm.005.629.01-.015.05.033h-.16l.25.144-.029.015-.001.001-.005.003-.016.009-.051.027-.052.025.005.003a6.154 6.154 0 0 0 .246.097l.042.016.016.006-.007.018.007-.018.027.011-.084.078.208.037-.02.072.255-.018h.001c.012 0 .022.006.028.015a.064.064 0 0 1 .01.026.327.327 0 0 1 .003.054.766.766 0 0 0 .12-.008l.1-.018h.002l.035-.007a.265.265 0 0 1 .013-.002.567.567 0 0 0-.014-.217.2.2 0 0 0-.035-.077.093.093 0 0 0-.06-.026.318.318 0 0 0-.087.003.635.635 0 0 0-.1.026l-.007.002h-.001m-.007-.017-.01.016-.001-.001-.002-.001-.002-.001-.012-.009a1.862 1.862 0 0 1-.185-.142 1.219 1.219 0 0 1-.146-.145.346.346 0 0 1-.082-.154v-.001a.403.403 0 0 1 .07-.251c.02-.03.04-.056.06-.075a1.033 1.033 0 0 1-.035-.012l-.02-.007-.047-.017a.242.242 0 0 0-.013-.004.935.935 0 0 1-.063.123l-.002.004v.001l-.035.06V9.26l-.13-.019.026.222-.033.012-.065-.09-.08.03.073.127h-.071l.07.166-.116-.016a3.26 3.26 0 0 0 .16.113l.007.005.002.002-.01.015m-.05.258Zm.49-.725Z" clip-rule="evenodd"/><path fill="currentColor" fill-rule="evenodd" d="M19.874 10.59c-.03.026-.116.082-.116.082l.188-.015a.263.263 0 0 1-.076-.067h.004Zm.165.097c-.011.015-.045.173-.022.162.042-.04.08-.082.116-.128l-.094-.034Zm.266.02c.03.025.162.142.147.115-.019-.026-.038-.13-.049-.135-.011-.003-.086.03-.098.02Zm-2.328-.166c-.019.004-.162.101-.162.101l.23-.037c-.012 0-.076-.049-.068-.064Zm.15.12c-.023.023-.098.161-.072.158a1.02 1.02 0 0 0 .158-.098l-.086-.06Zm-.094-.195-.131-.056.161-.038-.03.094Zm-2.288-.064-.176-.123.221.06-.044.063Zm-.15.08c-.026 0-.243.12-.24.12.004 0 .308.007.3 0-.003-.005-.048-.113-.063-.12h.003Zm.14.175c-.066.038-.129.08-.188.128h.262l-.075-.128Zm-.027-1.252s-.064-.143-.056-.143l.161.113-.105.03Zm.176-.176.015-.09s.158.105.15.105c-.003 0-.153 0-.165-.015Zm.24.063.019-.13s.146.172.131.175c-.011.008-.139-.022-.15-.045Z" clip-rule="evenodd"/><path fill="#FDC400" fill-rule="evenodd" d="M18.45 10.177c0 .01.242.18.248.22 0 .04-.439.049-.439.049s-.13-.083-.169-.078c-.039 0-.056.088-.056.088l.101.049-.197.01.057.098.152-.01-.034.088s.09.063.113.049c.016-.005.073-.098.118-.113.045-.014.146-.014.146-.014s-.079.112-.04.112c.034 0 .192-.117.192-.117l.04.107.112-.122s0 .098.017.098.18-.123.18-.123.13.138.146.128c.017-.01.034-.147.056-.147.023 0 .124-.015.124-.025 0-.01-.073-.049-.084-.122-.012-.073.011-.235.005-.235-.005 0-.776.024-.787.01Z" clip-rule="evenodd"/><path fill="currentColor" fill-rule="evenodd" d="m19.215 10.149.023-.001a.019.019 0 0 1 .017.012l.002.006v.008a.407.407 0 0 1-.003.046v.003l-.003.035a.766.766 0 0 0 0 .14.14.14 0 0 0 .04.075l.023.021.003.003a.177.177 0 0 1 .01.009l.004.006a.02.02 0 0 1-.004.028.03.03 0 0 1-.007.004.673.673 0 0 1-.122.022.45.45 0 0 0-.018.056l-.003.012a.92.92 0 0 1-.017.06.052.052 0 0 1-.005.008.024.024 0 0 1-.027.01.049.049 0 0 1-.011-.003.817.817 0 0 1-.119-.107l-.01-.01-.012.01a5.466 5.466 0 0 1-.12.084.377.377 0 0 1-.034.02.031.031 0 0 1-.012.003.025.025 0 0 1-.021-.014.062.062 0 0 1-.006-.016.236.236 0 0 1-.006-.042l-.103.112-.041-.113-.006.004a2.626 2.626 0 0 1-.124.082.285.285 0 0 1-.028.014.068.068 0 0 1-.025.007.028.028 0 0 1-.026-.015.039.039 0 0 1-.002-.024.167.167 0 0 1 .017-.045.47.47 0 0 1 .016-.028l-.02.001a.399.399 0 0 0-.086.012.09.09 0 0 0-.028.02.403.403 0 0 0-.047.051l-.016.018a.165.165 0 0 1-.012.014.043.043 0 0 1-.013.009c-.007.003-.015.004-.02.003a.086.086 0 0 1-.02-.004.582.582 0 0 1-.089-.05h-.002l.01-.015-.01.015-.012-.008.029-.075-.135.009-.077-.134.155-.008-.049-.024.003-.013.018.003-.018-.003v-.005a.282.282 0 0 1 .014-.043.134.134 0 0 1 .02-.035.052.052 0 0 1 .039-.02.07.07 0 0 1 .024.002.579.579 0 0 1 .134.066.666.666 0 0 1 .016.01h.014l.05-.002a4.98 4.98 0 0 0 .15-.008c.055-.003.109-.008.15-.015a.315.315 0 0 0 .046-.01h.002a1.633 1.633 0 0 0-.114-.102l-.055-.043-.03-.024a.833.833 0 0 1-.036-.03l-.004-.005-.002-.003a.02.02 0 0 1-.002-.009h.018l.015-.011a.014.014 0 0 0-.005-.004.007.007 0 0 0-.002-.001h-.001.006l.025.002h.09c.073 0 .17-.002.268-.004.155-.003.312-.008.37-.01Zm-.71.05.024.019.054.043a1.644 1.644 0 0 1 .117.103l.01.014c.002.004.005.01.006.016v.002c0 .012-.008.02-.013.022a.077.077 0 0 1-.018.01.34.34 0 0 1-.053.01 1.869 1.869 0 0 1-.152.016 5.48 5.48 0 0 1-.152.008l-.05.001h-.018v-.018.019h-.005l-.005-.003-.002-.001-.004-.003a.915.915 0 0 0-.139-.07.034.034 0 0 0-.012-.002h-.002c-.002 0-.006.002-.012.008a.095.095 0 0 0-.014.025.231.231 0 0 0-.009.027l.088.043-.007.034-.167.009.036.062.169-.011-.04.101.003.001a.51.51 0 0 0 .067.036.051.051 0 0 0 .011.003h.002l.002-.001.002-.002a.148.148 0 0 0 .01-.01l.014-.018a.948.948 0 0 1 .05-.056.121.121 0 0 1 .042-.027.428.428 0 0 1 .095-.014l.04-.001h.017v.018-.019h.036l-.02.03h-.001l-.003.004a.461.461 0 0 0-.041.076 1 1 0 0 0 .145-.092.984.984 0 0 0 .019-.014l.005-.004h.001l.02-.016.038.103.124-.135v.062a.65.65 0 0 0 .005.06 2.011 2.011 0 0 0 .079-.053l.058-.042a1.74 1.74 0 0 1 .018-.014l.005-.004h.002l.011.014.014-.013.001.002.004.004a2.007 2.007 0 0 0 .109.104.154.154 0 0 0 .01.008.808.808 0 0 0 .013-.047l.004-.013a.499.499 0 0 1 .025-.07c.003-.004.01-.013.023-.013a.566.566 0 0 0 .091-.013.398.398 0 0 1-.018-.018.177.177 0 0 1-.052-.095.783.783 0 0 1 0-.149l.003-.035v-.003l.003-.026v-.006h-.017a44.45 44.45 0 0 0-.357.01 15.482 15.482 0 0 1-.341.004Zm.485.369.014-.013-.012-.012-.013.01.011.015Zm-.773.155Zm.984-.16v.001Z" clip-rule="evenodd"/><path fill="#FDC400" fill-rule="evenodd" d="M17.218 9.868h2.268c.225 0 .439-.079.439-.201 0-.122-.371-.142-.506-.098-.141.04-.743.28-.996.26-.253-.02-.49-.162-.512-.304-.023-.142.112-.26.371-.26s.58.079.647.06c.068-.02.23-.182.298-.201.073-.02.282-.04.282-.04l-.096.06.304-.06s-.23.22-.467.28c-.225.063-.715.039-.9.039-.186 0-.282-.02-.254.102.023.123.163.201.282.182.112-.02.455-.123.455-.123l-.09-.059.417-.02s-.023-.058 0-.058l.23.02s-.14-.064-.112-.064c.028 0 .113 0 .298.02.186.02.58.083.557.244-.028.162-.169.299-.326.299-.158 0-.298-.04-.298.024 0 .06.185.098.298.098.112 0 .253-.078.281-.078.028 0 .068.118.09.118.023 0 .163-.04.163-.04l-.095.22.163.04s-.09.083-.068.083c.023 0 .158 0 .158.02s-.18.142-.18.161c0 .02.135.079.135.079s-.09.122-.113.102l-.112-.122s-.028.083-.073.083-.14-.02-.14-.02.067-.122.044-.122c-.022 0-.135.079-.135.059l-.073-.059s.186-.064.186-.161c0-.098-.074-.191-.411-.206-.338-.015-.338.069-.591.059-.248-.01-.248-.098-.433-.098-.186 0-.754.206-1.024.196-.265 0-.597-.015-.586-.025.012-.01.22-.475.226-.49Z" clip-rule="evenodd"/><path fill="currentColor" fill-rule="evenodd" d="m19.775 9.055-.046.043-.012-.013.012.013-.002.003-.008.007a1.325 1.325 0 0 1-.137.109 1.12 1.12 0 0 1-.273.148c.044.001.127.005.269.02.093.01.24.03.36.07.06.019.116.043.155.075.04.03.065.07.058.12-.03.17-.176.315-.344.315-.04 0-.08-.003-.115-.006l-.023-.001c-.027-.003-.05-.004-.071-.005a.199.199 0 0 0-.06.004.021.021 0 0 0-.009.006c-.001.001-.002.003-.002.008 0 .004.004.013.022.024.017.01.042.02.071.029a.742.742 0 0 0 .187.026.51.51 0 0 0 .166-.038l.047-.018.021-.009a.463.463 0 0 1 .047-.013c.01 0 .018.005.023.01l.015.016a.445.445 0 0 1 .025.042l.003.005.02.034a.066.066 0 0 0 .007.01l.007-.001a.48.48 0 0 0 .076-.018l.05-.013.016-.005h.005l.001-.001.037-.01-.102.235.175.042-.025.024-.003.003-.01.01a.926.926 0 0 0-.038.038 1.25 1.25 0 0 1 .111.008.09.09 0 0 1 .02.007c.004.002.016.009.016.023a.027.027 0 0 1-.005.015 2.096 2.096 0 0 1-.092.08 2.127 2.127 0 0 0-.079.066.488.488 0 0 0 .099.053l.015.006.005.002h.001l.021.01-.013.018-.015-.01.015.01-.002.002-.002.004a1.084 1.084 0 0 1-.045.055.307.307 0 0 1-.04.038.073.073 0 0 1-.022.012.03.03 0 0 1-.029-.005l-.095-.103a.2.2 0 0 1-.01.018.137.137 0 0 1-.026.033.064.064 0 0 1-.042.018.64.64 0 0 1-.129-.017l-.012-.002-.003-.001-.025-.005.012-.022v-.002l.003-.003.007-.014a.853.853 0 0 0 .031-.068l-.002.002-.035.018-.01.006a.508.508 0 0 1-.062.027c-.003 0-.009 0-.014-.003a.021.021 0 0 1-.007-.007l-.096-.076m.229.115.028.005a.62.62 0 0 0 .085.01c.005 0 .01-.002.018-.009a.104.104 0 0 0 .02-.024.199.199 0 0 0 .013-.026l.003-.009.001-.002.01-.03.129.14a.775.775 0 0 0 .075-.078 1.48 1.48 0 0 1-.095-.05.127.127 0 0 1-.018-.013.048.048 0 0 1-.007-.008.026.026 0 0 1-.005-.015c0-.007.004-.012.005-.015a2.058 2.058 0 0 1 .092-.08 1.997 1.997 0 0 0 .074-.06.379.379 0 0 0-.044-.005c-.036-.002-.075-.002-.086-.002a.023.023 0 0 1-.016-.007.021.021 0 0 1-.005-.018c0-.007.005-.013.007-.017a.274.274 0 0 1 .045-.05l-.152-.036.09-.206a2.144 2.144 0 0 1-.132.03.032.032 0 0 1-.022-.01.54.54 0 0 1-.034-.053l-.003-.005a.378.378 0 0 0-.032-.049h-.002a.362.362 0 0 0-.03.01l-.02.009-.05.019a.544.544 0 0 1-.178.04.78.78 0 0 1-.197-.028.329.329 0 0 1-.08-.033c-.02-.012-.04-.03-.04-.055 0-.012.003-.023.01-.031a.057.057 0 0 1 .027-.017.216.216 0 0 1 .072-.007c.022 0 .047.003.073.005l.023.002c.035.002.073.005.112.005.147 0 .28-.129.308-.283.004-.032-.011-.06-.045-.087a.472.472 0 0 0-.143-.069 1.868 1.868 0 0 0-.353-.068 3.58 3.58 0 0 0-.234-.018l.037.017.015.007.004.002.002.001-.01.035-.22-.019.001.007a.168.168 0 0 0 .005.018l.002.006v.002l.01.024-.385.018.075.05-.038.01-.005-.017.006.018-.004.001-.012.003a12.205 12.205 0 0 1-.17.05c-.1.028-.215.059-.272.069a.28.28 0 0 1-.19-.04.237.237 0 0 1-.113-.156c-.007-.031-.008-.058.003-.08.012-.022.033-.033.057-.039a.41.41 0 0 1 .09-.007h.056l.065.001.132.002c.087.002.194.004.303.003.175-.002.35-.012.46-.043h.001a.988.988 0 0 0 .316-.159c.037-.026.069-.051.093-.072l-.238.046-.013-.033.027-.017a1.507 1.507 0 0 0-.198.03.246.246 0 0 0-.06.035l-.083.063-.084.064a.274.274 0 0 1-.071.04.15.15 0 0 1-.042.003 4.13 4.13 0 0 1-.197-.022l-.02-.003a2.931 2.931 0 0 0-.393-.037.47.47 0 0 0-.28.073.166.166 0 0 0-.073.165c.01.063.068.13.16.185a.79.79 0 0 0 .335.103.894.894 0 0 0 .237-.026c.094-.02.197-.05.296-.08a9.8 9.8 0 0 0 .276-.092l.02-.007a2.58 2.58 0 0 1 .16-.053.817.817 0 0 1 .312-.014c.055.007.108.02.148.04.039.019.07.048.07.09 0 .072-.063.127-.146.162a.821.821 0 0 1-.311.056H17.23a23.454 23.454 0 0 1-.208.456v.003l.022.002c.034.003.082.005.14.008.114.005.262.008.394.008h.001c.132.005.339-.043.539-.093l.074-.02c.073-.018.143-.036.206-.05.084-.019.156-.032.204-.032a.424.424 0 0 1 .201.046.756.756 0 0 0 .475.024c.006 0 .012-.002.017-.003.075-.018.162-.036.332-.028.17.007.277.034.341.074a.168.168 0 0 1 .088.15.12.12 0 0 1-.034.078.296.296 0 0 1-.068.055.555.555 0 0 1-.066.034l.045.036h.003a.475.475 0 0 0 .039-.021l.01-.006a1.397 1.397 0 0 1 .056-.028.054.054 0 0 1 .019-.005c.006 0 .013.002.017.008.004.005.005.01.006.014a.062.062 0 0 1-.003.02.966.966 0 0 1-.037.085Zm-2.825-.833v-.019h2.268c.11 0 .218-.019.297-.053.08-.034.123-.08.123-.129 0-.02-.014-.04-.05-.057a.456.456 0 0 0-.136-.036.782.782 0 0 0-.296.013 3.549 3.549 0 0 0-.179.06 9.82 9.82 0 0 1-.277.092c-.1.03-.204.06-.299.08a.927.927 0 0 1-.248.028.827.827 0 0 1-.35-.108c-.096-.057-.166-.132-.179-.211a.204.204 0 0 1 .088-.2c.067-.05.17-.08.302-.08a2.965 2.965 0 0 1 .418.04 4.153 4.153 0 0 0 .193.021c.015 0 .025 0 .03-.002a.244.244 0 0 0 .06-.034c.026-.018.055-.04.084-.063.029-.023.058-.046.084-.064a.272.272 0 0 1 .071-.04c.038-.01.11-.02.171-.027a5.304 5.304 0 0 1 .105-.012h.009l.011.033-.01.006.267-.051m-2.557.813-.017-.007v.002a.217.217 0 0 1-.003.005l-.007.017-.025.057a42.83 42.83 0 0 1-.185.4c0 .002-.001.003-.002.003a.02.02 0 0 0-.004.012.02.02 0 0 0 .005.014.024.024 0 0 0 .009.006 9.914 9.914 0 0 0 .589.024c.138.004.35-.046.549-.096l.075-.019c.072-.018.142-.036.204-.05a.963.963 0 0 1 .197-.032c.084 0 .128.02.178.04l.008.004c.055.024.12.05.246.054a.793.793 0 0 0 .252-.027l.017-.004a1.03 1.03 0 0 1 .322-.028c.168.008.266.035.323.07a.148.148 0 0 1 .055.055c.01.02.015.04.015.063a.084.084 0 0 1-.024.054.26.26 0 0 1-.06.048.501.501 0 0 1-.082.04h-.003l-.002.001h-.002v.001M18.79 9.558l-.104-.068.449-.021a.203.203 0 0 1-.002-.009.074.074 0 0 1 0-.027c0-.005.002-.01.007-.016a.027.027 0 0 1 .02-.008l.134.011a.292.292 0 0 1-.028-.017.033.033 0 0 1-.007-.007.021.021 0 0 1-.003-.01v-.005h-.002a2.05 2.05 0 0 1-.47.044c-.109.002-.218 0-.306-.002l-.129-.002h-.067l-.055-.001a.376.376 0 0 0-.08.006c-.02.005-.028.012-.033.02-.005.01-.007.026 0 .055v.001a.2.2 0 0 0 .096.132c.05.03.11.044.164.035.056-.01.169-.04.269-.069l.13-.037.017-.005Zm.378-.118Zm.11-.038Zm1.207 1.04v-.001Z" clip-rule="evenodd"/><path fill="#FDC400" fill-rule="evenodd" d="M16.777 9.753c-.023.01-.225.035-.236.22-.012.187.017.187.039.177.023-.01.068-.171.068-.171s-.068.22.005.269c.048.032.1.057.158.073l.028-.176s-.056.171.084.23c.135.059.192.015.175-.03a3.078 3.078 0 0 0-.05-.16l.112.117c.01.01.056.088.202.049.135-.03.04-.113.04-.113l-.17-.117s.17.151.248.098c.08-.054-.056-.177-.056-.172 0 .005.113.171.158.069.045-.103-.068-.137-.102-.24-.033-.098-.062-.108-.028-.171.034-.06.04-.177.04-.177s.146.035.135-.073c-.012-.108-.158-.132-.186-.137-.028 0-.023-.108-.034-.103a.89.89 0 0 0-.107.064s-.079-.167-.095-.157c-.017.01-.113.098-.18.098-.068.01-.113.098-.113.098s-.242-.103-.236.063c.005.167.146.123.146.128 0 .005-.023.235-.045.244Z" clip-rule="evenodd"/><path fill="currentColor" fill-rule="evenodd" d="M17.308 9.252a2.519 2.519 0 0 1 .09-.053.032.032 0 0 1 .007-.002.02.02 0 0 1 .017.005.025.025 0 0 1 .007.01l.003.014.003.021.002.015a.175.175 0 0 0 .009.038c.015.003.06.01.103.032.044.02.09.058.097.121.003.032-.005.056-.022.072a.1.1 0 0 1-.057.025.22.22 0 0 1-.054 0h-.004a.81.81 0 0 1-.006.047.36.36 0 0 1-.034.117.106.106 0 0 0-.012.033.054.054 0 0 0 .002.025l.013.032.003.006a.799.799 0 0 1 .023.06.261.261 0 0 0 .057.09l.02.025a.164.164 0 0 1 .033.06.119.119 0 0 1-.009.078.08.08 0 0 1-.026.035.054.054 0 0 1-.035.01.064.064 0 0 1-.014-.003v.002a.07.07 0 0 1-.033.067.091.091 0 0 1-.055.015.098.098 0 0 1 .015.03.057.057 0 0 1-.01.054.142.142 0 0 1-.074.036c-.076.02-.129.01-.164-.008a.157.157 0 0 1-.05-.04l-.002-.002a.035.035 0 0 0-.003-.003l-.057-.06.025.084a.056.056 0 0 1-.002.046.066.066 0 0 1-.04.03c-.035.012-.088.006-.157-.024a.164.164 0 0 1-.086-.076l-.005.029-.02-.006a.572.572 0 0 1-.162-.076l.01-.015-.01.016c-.025-.017-.036-.047-.04-.076a.258.258 0 0 1-.002-.032l.004-.006a.71.71 0 0 0 .053-.14l.004-.014-.006.022a.72.72 0 0 0-.015.08.333.333 0 0 0-.002.085c.004.026.012.042.024.05.04.027.085.05.133.065l-.004.02.018.004.006-.018a.655.655 0 0 1-.02-.006l.013-.085a.309.309 0 0 1 .012-.07v-.003l.018.005-.018-.005.036.008-.011.068v.021c.004.046.022.096.084.121.066.03.11.031.132.024.01-.004.016-.009.018-.013a.018.018 0 0 0 0-.016v-.001a3.104 3.104 0 0 0-.05-.162l.03-.018.112.117a.127.127 0 0 1 .009.009.1.1 0 0 0 .037.03c.027.014.07.024.14.005.032-.007.047-.016.053-.024.005-.006.006-.012.004-.02a.075.075 0 0 0-.015-.025.106.106 0 0 0-.008-.009l-.002-.002-.047-.033a.528.528 0 0 1-.115-.079l-.006-.005h-.001v-.001l.011-.014-.012.014.023-.03.119.084a.246.246 0 0 0 .05.02c.025.005.044.004.058-.005.014-.01.017-.02.016-.034 0-.01-.004-.02-.01-.032l-.002-.002a.347.347 0 0 1-.066-.08l-.001-.002s-.002-.003-.002-.007c0-.002.001-.006.004-.01a.019.019 0 0 1 .021-.007l.005.003a.331.331 0 0 1 .07.081c.013.01.025.016.034.017.005 0 .008 0 .012-.003a.046.046 0 0 0 .014-.02c.01-.022.01-.04.007-.054a.128.128 0 0 0-.026-.047.628.628 0 0 0-.018-.02.336.336 0 0 1-.065-.105.732.732 0 0 0-.023-.058l-.002-.005-.015-.036a.092.092 0 0 1-.004-.04.14.14 0 0 1 .017-.047.328.328 0 0 0 .03-.104.825.825 0 0 0 .007-.063v-.001l.001-.022.021.005h.002a.12.12 0 0 0 .02.003.184.184 0 0 0 .044 0 .064.064 0 0 0 .036-.015c.008-.007.014-.02.011-.042-.005-.044-.037-.073-.076-.092a.356.356 0 0 0-.093-.029.03.03 0 0 1-.021-.01.055.055 0 0 1-.01-.018.21.21 0 0 1-.01-.058l-.002-.01-.001.001a.94.94 0 0 0-.07.043l-.01.008-.004.002-.018.012-.01-.02v-.001l-.003-.005-.009-.019a1.74 1.74 0 0 0-.066-.117l-.008.007a.534.534 0 0 1-.053.04.392.392 0 0 1-.058.032.157.157 0 0 1-.06.016c-.027.004-.05.024-.07.046a.245.245 0 0 0-.026.038l-.002.003-.008.016-.015-.007-.003-.001a.363.363 0 0 0-.033-.012.377.377 0 0 0-.079-.016.117.117 0 0 0-.07.011c-.015.01-.027.027-.026.064.001.04.01.064.022.08a.073.073 0 0 0 .04.027.126.126 0 0 0 .055.003h.016a.019.019 0 0 1 .014.018v.013a7.038 7.038 0 0 1-.014.11 1.089 1.089 0 0 1-.024.115.07.07 0 0 1-.006.012.028.028 0 0 1-.012.012l-.018.005h-.002a.361.361 0 0 0-.101.037.19.19 0 0 0-.104.162.967.967 0 0 0-.002.106.13.13 0 0 0 .008.048.029.029 0 0 0 .003.006h.003c0-.002.002-.003.003-.005a.67.67 0 0 0 .049-.131c0-.005.002-.01.003-.013v-.002l.003-.008v-.002l.018.005.018.005v.002l-.002.005-.001.005v-.003l.002-.006v-.002l-.017-.006-.017-.005.035.01-.018-.005m-.079.157Zm.336-.84v-.002a.3.3 0 0 1 .025-.033.159.159 0 0 1 .093-.059h.002a.12.12 0 0 0 .047-.012.815.815 0 0 0 .096-.062l.007-.006.01-.007a.133.133 0 0 1 .011-.009.022.022 0 0 1 .02 0 .037.037 0 0 1 .011.007l.016.02a1.966 1.966 0 0 1 .062.113l.003.006m-.403.043a.549.549 0 0 0-.111-.026.152.152 0 0 0-.093.017c-.028.018-.044.05-.043.096a.177.177 0 0 0 .029.1.11.11 0 0 0 .06.042c.02.006.04.006.055.005a1.672 1.672 0 0 1-.033.205l-.002.004a.577.577 0 0 1-.01.003l-.03.008a.4.4 0 0 0-.08.033.226.226 0 0 0-.124.191 1.014 1.014 0 0 0-.002.11.208.208 0 0 0 .01.06c.006.013.014.024.028.028a.045.045 0 0 0 .03-.004.033.033 0 0 0 .01-.008l.003-.003" clip-rule="evenodd"/><path fill="currentColor" fill-rule="evenodd" d="M16.908 9.5c.026-.012.068-.046.113-.042.045.004.127.038.09.06-.038.019-.068.03-.113.019a.535.535 0 0 1-.09-.038Zm.473-.008c-.03-.008-.072-.041-.12-.038-.049.004-.12.038-.083.06a.15.15 0 0 0 .105.02c.045-.012.075-.035.098-.038v-.004Z" clip-rule="evenodd"/><path fill="#000039" fill-rule="evenodd" d="M17.013 9.792c0 .024.022.235.034.22l.095-.215-.13-.005Z" clip-rule="evenodd"/><path fill="currentColor" fill-rule="evenodd" d="m17.001 9.781.156.006-.103.23v.002a.012.012 0 0 1-.009.005.012.012 0 0 1-.01-.004.022.022 0 0 1-.004-.008 1.216 1.216 0 0 1-.017-.094A1.743 1.743 0 0 1 17 9.792v-.01Zm.021.022a2.384 2.384 0 0 0 .024.183l.079-.18-.102-.003Z" clip-rule="evenodd"/><path fill="currentColor" fill-rule="evenodd" d="M16.982 9.775c-.003.004-.005.01-.005.024v.005c0 .001.004.004.015.005a.347.347 0 0 0 .023.003.358.358 0 0 1 .069.01.302.302 0 0 0 .113-.016.252.252 0 0 0-.108-.034 1.066 1.066 0 0 0-.058-.006c-.016 0-.028 0-.036.002-.008.002-.011.004-.013.007Zm-.047.017c0-.015.004-.029.012-.04a.061.061 0 0 1 .038-.025.172.172 0 0 1 .048-.003c.017 0 .038.003.06.006.05.005.088.018.114.032a.112.112 0 0 1 .03.024.05.05 0 0 1 .009.015.03.03 0 0 1 0 .02l-.001.002v.002a.027.027 0 0 1-.008.008.11.11 0 0 1-.02.01.34.34 0 0 1-.14.021h-.003a.315.315 0 0 0-.048-.009l-.014-.001-.027-.003a.068.068 0 0 1-.037-.016c-.012-.011-.015-.027-.013-.043Z" clip-rule="evenodd"/><path fill="currentColor" fill-rule="evenodd" d="M16.795 9.348a.11.11 0 0 1 .043-.022l.022.075a.031.031 0 0 0-.013.007.059.059 0 0 0-.014.02.047.047 0 0 0 .01.01.111.111 0 0 0 .02.011l-.014.037-.015.036-.004-.001a.23.23 0 0 1-.035-.02c-.016-.013-.047-.041-.041-.084v-.005l.002-.004a.145.145 0 0 1 .039-.06Zm.7.004-.016.036.016-.036h.001l.003.002.01.005a.29.29 0 0 1 .03.017c.01.007.023.017.033.029.009.011.022.034.011.06a.086.086 0 0 1-.027.037.226.226 0 0 1-.066.032l-.01-.038.01.038-.05.013v-.22l.055.025Zm-.454.384.01-.098.079.009-.011.098-.078-.009Z" clip-rule="evenodd"/><path fill="currentColor" fill-rule="evenodd" d="m17.01 9.543.025.03.026.03h-.002v.002a.221.221 0 0 0 .057 0l.015-.023.02-.033h.001l.002.001.003.003a.197.197 0 0 1 .012.009.112.112 0 0 1 .03.035.057.057 0 0 1 .005.039.056.056 0 0 1-.027.034.176.176 0 0 1-.086.015.178.178 0 0 1-.087-.016.062.062 0 0 1-.032-.067.1.1 0 0 1 .022-.043.143.143 0 0 1 .014-.014v-.001h.001v-.001Z" clip-rule="evenodd"/><path fill="#FDC400" fill-rule="evenodd" d="m17.34 15.142.24-.791-.672-.495.84-.019.27-.78.278.776.836.015-.664.5.24.787-.686-.465-.683.472Z" clip-rule="evenodd"/><path fill="#003017" fill-rule="evenodd" d="m17.452 14.929.199-.627-.555-.393.697-.015.225-.62.233.616.693.015-.55.394.202.626-.574-.371-.57.375Z" clip-rule="evenodd"/><path fill="#FDC400" fill-rule="evenodd" d="m15.964 13.541.236-.746-.66-.469.825-.018.27-.74.274.74.825.01-.657.473.244.75-.682-.446-.675.446Z" clip-rule="evenodd"/><path fill="#003017" fill-rule="evenodd" d="m16.076 13.342.199-.596-.551-.371.69-.015.225-.585.225.585.69.011-.548.375.203.593-.57-.353-.563.356Z" clip-rule="evenodd"/><path fill="#FDC400" fill-rule="evenodd" d="m18.735 13.541.24-.75-.667-.465.836-.018.274-.74.277.74.836.01-.667.473.244.75-.687-.45-.686.45Z" clip-rule="evenodd"/><path fill="#003017" fill-rule="evenodd" d="m18.847 13.342.203-.596-.563-.371.698-.015.225-.585.236.585.698.011-.555.375.202.593-.574-.353-.57.356Z" clip-rule="evenodd"/><path fill="currentColor" d="m13.991 14.171.413-.232.037.082-.161.094.056.116.162-.09.037.082-.412.233-.038-.082.188-.106-.057-.12-.187.11-.038-.087Zm.173.36.386-.281.131.221-.063.045-.083-.139-.09.068.075.127-.056.045-.079-.127-.109.075.087.146-.064.049-.135-.225v-.004Zm.27.416.337-.345.06.068-.131.139.079.093.131-.135.06.072-.338.348-.06-.071.15-.157-.074-.098-.154.157-.06-.067v-.004Zm.442.21.056.053.102-.188-.158.135Zm-.213.064.382-.311.086.086-.225.465-.071-.071.06-.113-.075-.075-.094.083-.064-.064Zm.337.311.225-.345-.079-.067.045-.068.229.188-.045.067-.079-.064-.228.345-.072-.056H15Zm.184.15.244-.439.07.05-.093.172.101.067.094-.172.075.052-.244.439-.075-.049.113-.202-.101-.068-.113.199-.071-.049Zm.454.289.194-.469.222.113-.034.075-.143-.072-.045.113.135.068-.033.075-.131-.072-.087.207-.075-.038h-.004Zm.43-.075a.561.561 0 0 0-.037.157c0 .023.011.038.034.05.022.01.037.007.056-.012a.472.472 0 0 0 .064-.143.609.609 0 0 0 .037-.157.053.053 0 0 0-.037-.049c-.019-.011-.038-.007-.053.011a.462.462 0 0 0-.063.147v-.004Zm-.082-.034a.602.602 0 0 1 .09-.18.112.112 0 0 1 .064-.026c.019 0 .045 0 .075.015s.045.026.06.041a.125.125 0 0 1 .03.068c.004.019 0 .045-.004.075a.937.937 0 0 1-.037.127l-.045.12a.206.206 0 0 1-.045.06c-.02.015-.038.027-.06.027a.118.118 0 0 1-.075-.015.234.234 0 0 1-.064-.042.138.138 0 0 1-.03-.067l.004-.075.037-.128Zm.398-.108.082.03-.09.33a.176.176 0 0 0-.007.082c.003.015.018.026.037.037.023.004.038 0 .053-.007a.202.202 0 0 0 .033-.075l.087-.33.082.026-.09.338a.363.363 0 0 1-.026.075.108.108 0 0 1-.026.034.11.11 0 0 1-.06.022.18.18 0 0 1-.075-.011c-.05-.015-.08-.038-.094-.072-.015-.03-.015-.075 0-.138l.094-.338v-.003Zm.22.607.102-.503.086.023.05.379.067-.349.075.019-.098.502-.086-.022-.049-.383-.067.353-.08-.019Zm.45.026.038.008h.045a.037.037 0 0 0 .02-.011.138.138 0 0 0 .025-.053.903.903 0 0 0 .03-.218.111.111 0 0 0-.015-.052.038.038 0 0 0-.015-.019l-.037-.007-.038-.008-.048.36h-.004Zm-.09.06.072-.51.135.027c.03.003.049.01.068.018a.107.107 0 0 1 .037.034.2.2 0 0 1 .023.071c0 .026 0 .068-.008.124-.005.05-.014.1-.026.15a.24.24 0 0 1-.038.075.083.083 0 0 1-.048.038.335.335 0 0 1-.098-.008l-.116-.019Zm.357.06.045-.514.236.027-.007.086-.15-.019-.011.12.142.015-.007.079-.143-.015-.011.142.154.015-.008.087-.24-.023Zm.39-.041h.083a.037.037 0 0 0 .018-.019.141.141 0 0 0 .02-.052.88.88 0 0 0 .007-.113v-.112a.113.113 0 0 0-.023-.049.037.037 0 0 0-.019-.011l-.037-.008h-.038l-.01.364Zm-.086.071.019-.514.138.004c.022 0 .044.005.064.011.019.008.03.015.041.03.017.02.029.043.034.068l.008.124a1.202 1.202 0 0 1-.015.153.15.15 0 0 1-.027.075.087.087 0 0 1-.045.046.256.256 0 0 1-.097.007l-.12-.004Zm.517.008-.018-.514.086-.004.019.514h-.087v.004Zm.23-.015-.03-.428-.102.008-.004-.083.281-.026.008.082-.098.012.03.427-.086.008Zm.303-.555.086-.015.053.337c.007.041.015.068.026.079.011.015.026.019.049.011.022 0 .037-.011.04-.03.008-.015.008-.041 0-.082l-.052-.338.083-.018.056.352.008.075-.012.045a.123.123 0 0 1-.045.049.186.186 0 0 1-.067.026c-.053.011-.09.004-.116-.015-.027-.023-.045-.064-.053-.128l-.056-.348Zm.461.131.038-.011c.022-.008.037-.015.048-.03.008-.015.008-.038 0-.064 0-.026-.01-.045-.026-.053-.011-.007-.03-.01-.056 0l-.038.008.034.15Zm-.019.3-.112-.499.15-.037c.041-.011.075-.011.101.007.023.015.041.049.053.098.01.052.007.09-.008.12a.13.13 0 0 1-.086.064l-.064.015.049.213-.083.023v-.004Zm.33-.36c.012.052.03.103.057.15.015.015.033.019.056.011.022-.007.037-.022.037-.045a.606.606 0 0 0-.033-.157c-.027-.083-.038-.131-.057-.15-.01-.019-.03-.023-.052-.015a.052.052 0 0 0-.038.049.541.541 0 0 0 .03.157Zm-.086.03a.778.778 0 0 1-.026-.128.21.21 0 0 1 0-.075.16.16 0 0 1 .03-.067.188.188 0 0 1 .067-.037.154.154 0 0 1 .075-.012.14.14 0 0 1 .06.034.149.149 0 0 1 .038.06c.035.079.06.162.071.248a.226.226 0 0 1 0 .078.14.14 0 0 1-.03.064.15.15 0 0 1-.067.041.141.141 0 0 1-.075.012.113.113 0 0 1-.057-.034.188.188 0 0 1-.04-.06.896.896 0 0 1-.046-.124Zm.424.116-.173-.476.083-.037.232.284-.12-.333.075-.034.173.476-.083.038-.232-.285.12.337-.075.03Zm.536-.262-.18-.379-.086.049-.038-.075.252-.146.037.075-.086.052.18.379-.075.045h-.004Zm.206-.12-.247-.435.075-.053.094.173.1-.075-.097-.169.075-.049.244.435-.075.049-.112-.195-.098.068.113.198-.075.053h.003Zm.308-.225-.278-.413.188-.157.049.071-.124.101.064.094.112-.094.045.064-.112.094.075.112.127-.101.045.068-.187.16h-.004Zm.24-.435.06-.068.022.023c.02.022.038.037.045.037.015 0 .027 0 .038-.015.015-.015.022-.03.022-.045a.075.075 0 0 0-.018-.045.075.075 0 0 0-.034-.019.156.156 0 0 0-.056 0l-.053.012a.24.24 0 0 1-.097.007.123.123 0 0 1-.057-.037.142.142 0 0 1-.04-.101.154.154 0 0 1 .044-.102.116.116 0 0 1 .094-.049c.03 0 .064.02.097.053l.012.015-.06.064-.008-.012a.113.113 0 0 0-.049-.033.046.046 0 0 0-.037.018.048.048 0 0 0-.015.038.06.06 0 0 0 .015.037c.011.012.037.015.082.008l.057-.011a.198.198 0 0 1 .093-.004c.023.004.045.023.068.045a.15.15 0 0 1 .041.105.169.169 0 0 1-.049.109c-.033.037-.067.052-.097.052-.038 0-.068-.022-.101-.06l-.02-.022Zm.356-.146-.356-.33.154-.203.06.056-.098.128.083.075.09-.12.056.052-.09.12.097.094.098-.135.06.056-.15.207h-.004Zm.09-.462.041-.067-.18-.086.14.153Zm.086.229-.326-.383.064-.104.442.187-.052.086-.109-.049-.056.09.086.094-.049.079Zm.053-.416.041-.087.026.015c.027.016.045.023.057.02.01 0 .022-.012.03-.027a.092.092 0 0 0 .007-.049c0-.015-.015-.026-.03-.037a.057.057 0 0 0-.037-.008c-.012 0-.03.011-.053.023l-.049.03a.246.246 0 0 1-.09.037.113.113 0 0 1-.063-.018.133.133 0 0 1-.068-.08.161.161 0 0 1 .015-.112c.019-.041.045-.067.075-.075.034-.015.068-.007.105.015a.15.15 0 0 1 .015.008l-.037.082-.012-.007c-.022-.012-.037-.019-.052-.015-.011 0-.023.011-.034.03-.004.015-.007.026 0 .037 0 .015.008.023.023.03.015.011.045.004.082-.018l.049-.03c.037-.023.067-.038.09-.038.022 0 .049.008.075.023.037.018.06.048.071.082a.202.202 0 0 1-.019.12c-.018.049-.045.075-.075.086-.037.011-.075 0-.116-.022a.338.338 0 0 1-.022-.015"/></g><defs><clipPath id="a"><path fill="#fff" d="M0 0h24v18H0z"/></clipPath></defs></svg>