<svg xmlns="http://www.w3.org/2000/svg" width="24" height="18" fill="none"><g clip-path="url(#a)"><path fill="#6FDCFF" fill-rule="evenodd" d="M0 0h24v18H0V0Z" clip-rule="evenodd"/><path fill="#FFE400" fill-rule="evenodd" d="M2.257 17.513c.124.12.083.319.424.293.518 0 .533-.315.533-.537 0-.22-.777-.528-.814-.855-.038-.326.18-.412.36-.412.176 0 .3.101.3.191s-.083.12-.21.12c-.128 0 .056-.064-.053-.112-.108-.05-.18.075-.18.15 0 .082.27.105.45.048.038.177.053.188-.198.488.18-.116.195-.143.393-.075-.198-.173-.048-.518-.045-.604a.297.297 0 0 0-.112-.244c-.146-.13-.458-.138-.645-.052-.274.12-.289.48-.218.6l.758.765c.052.09.075.345-.248.356-.337.026-.457-.435-.517-.589-.079.17-.169.63-.51.604-.323-.011-.383-.262-.33-.356l.776-.788c.075-.12.06-.48-.214-.6-.187-.086-.498-.075-.641.053a.271.271 0 0 0-.12.244c.008.09.154.43-.041.6.195-.064.214-.038.394.075-.252-.297-.233-.308-.2-.488.18.06.45.038.45-.041s-.074-.21-.183-.158c-.105.053.075.117-.052.117-.124 0-.214-.027-.214-.113 0-.086.124-.199.304-.199s.393.09.356.417c-.038.326-.825.678-.825.9 0 .225.052.49.57.49.337.027.379-.172.502-.292v.004Z" clip-rule="evenodd"/><path fill="#FFE400" fill-rule="evenodd" d="M2.216 12.874c.124-.12.225-.473.563-.45.517 0 .712.289.712.51 0 .221-1.05 2.025-1.087 2.351-.038.326.18.416.356.416.18 0 .304-.1.304-.195 0-.093-.09-.112-.214-.112s.053.064-.052.112c-.105.05-.18-.075-.18-.153 0-.08.27-.105.45-.045.033-.177.048-.188-.2-.488.18.113.196.143.395.075-.2.173-.053.514-.045.6a.287.287 0 0 1-.117.248c-.142.13-.457.135-.645.052-.27-.124-.285-.48-.213-.6l1.02-2.197c.056-.09-.087-.39-.41-.402-.337-.026-.453.33-.513.484l.461-.037s.019.075 0 .12a4.137 4.137 0 0 0-.461.06l-.019.232h.225l-.015.105s-.191-.015-.21 0c-.018.011-.037.233-.037.233s-.038.015-.075.015a.232.232 0 0 1-.075-.015s-.015-.222-.034-.233c-.019-.015-.21 0-.21 0l-.019-.105H2.1l-.019-.232s-.225-.045-.461-.06c-.015-.045 0-.117 0-.117l.461.034c-.06-.154-.176-.51-.513-.487-.323.015-.465.315-.413.405l1.02 2.197c.071.116.056.476-.214.6-.187.083-.502.075-.645-.052a.28.28 0 0 1-.116-.244c.008-.086.15-.435-.045-.6.199.064.218.037.394-.079-.248.3-.233.311-.195.488.176-.06.446-.038.446.045 0 .075-.075.206-.18.153-.105-.052.075-.112-.052-.112-.124 0-.214.022-.214.112s.124.195.3.195.394-.09.36-.412C1.976 14.963.926 13.15.926 12.934c0-.225.195-.506.713-.506.337-.027.461.326.581.446h-.004Z" clip-rule="evenodd"/><path fill="#FFE400" fill-rule="evenodd" d="M2.216 11.978c.124.12.225.472.563.45.517 0 .712-.289.712-.51 0-.221-1.05-2.025-1.087-2.351-.038-.327.18-.417.356-.417.18 0 .304.102.304.195 0 .094-.09.113-.214.113s.053-.06-.052-.113c-.105-.052-.18.075-.18.154s.27.105.45.045c.033.176.048.188-.2.488.18-.113.196-.143.395-.075-.2-.173-.053-.514-.045-.6a.287.287 0 0 0-.117-.248c-.142-.127-.457-.135-.645-.052-.27.123-.285.48-.213.6l1.02 2.193c.056.09-.087.39-.41.402-.337.026-.453-.33-.513-.484l.461.037s.019-.075 0-.12a4.113 4.113 0 0 1-.461-.06l-.019-.232h.225l-.015-.105s-.191.015-.21 0c-.018-.011-.037-.233-.037-.233s-.038-.015-.075-.015a.232.232 0 0 0-.075.015s-.015.222-.034.233c-.019.015-.21 0-.21 0l-.019.105H2.1l-.019.232s-.225.045-.461.06a.279.279 0 0 0 0 .117l.461-.034c-.06.154-.176.51-.513.487-.323-.015-.465-.315-.413-.405l1.02-2.193c.071-.12.056-.477-.214-.6-.187-.083-.502-.075-.645.052a.28.28 0 0 0-.116.244c.008.086.15.431-.045.6.199-.064.218-.038.394.079-.248-.3-.233-.312-.195-.488.176.06.446.038.446-.045 0-.075-.075-.206-.18-.154-.105.053.075.113-.052.113-.124 0-.214-.023-.214-.113s.124-.195.3-.195.394.09.36.413C1.976 9.889.926 11.7.926 11.918c0 .225.195.506.713.506.337.026.461-.326.581-.446h-.004Z" clip-rule="evenodd"/><path fill="#FFE400" fill-rule="evenodd" d="M2.216 6.023c.124-.12.225-.473.563-.45.517 0 .712.289.712.51 0 .221-1.05 2.025-1.087 2.355-.038.322.18.412.356.412.18 0 .304-.1.304-.19s-.09-.12-.214-.12.053.067-.052.12c-.105.052-.18-.08-.18-.158 0-.075.27-.105.45-.045.033-.177.048-.188-.2-.488.18.116.196.143.395.075-.2.173-.053.518-.045.6a.291.291 0 0 1-.117.248c-.142.13-.457.135-.645.052-.27-.124-.285-.48-.213-.6l1.02-2.194c.056-.09-.087-.39-.41-.4-.337-.027-.453.33-.513.483l.461-.038s.019.075 0 .12c-.24.015-.461.06-.461.06l-.019.233h.225l-.015.105s-.191-.011-.21 0c-.018.011-.037.236-.037.236s-.038.011-.075.011c-.038 0-.075-.01-.075-.01s-.015-.226-.034-.237c-.019-.011-.21 0-.21 0l-.019-.105H2.1l-.019-.233s-.225-.045-.461-.06c-.015-.045 0-.116 0-.116l.461.034c-.06-.154-.176-.51-.513-.488-.323.015-.465.315-.413.405l1.02 2.194c.071.12.056.476-.214.6-.187.083-.502.075-.645-.052a.28.28 0 0 1-.116-.244c.008-.086.15-.431-.045-.6.199.064.218.037.394-.079-.248.3-.233.311-.195.488.176-.06.446-.034.446.045 0 .075-.075.206-.18.153-.105-.048.075-.112-.052-.112-.124 0-.214.022-.214.112s.124.195.3.195.394-.09.36-.412C1.976 8.112.926 6.304.926 6.083c0-.221.195-.506.713-.506.337-.027.461.326.581.45l-.004-.004Z" clip-rule="evenodd"/><path fill="#FFE400" fill-rule="evenodd" d="M2.216 5.127c.124.12.225.476.563.45.517 0 .712-.289.712-.51 0-.222-1.05-2.025-1.087-2.352-.038-.326.18-.416.356-.416.18 0 .304.105.304.195 0 .09-.09.116-.214.116s.053-.063-.052-.116c-.105-.052-.18.075-.18.154s.27.105.45.045c.033.176.048.187-.2.487.18-.112.196-.142.395-.075-.2-.168-.053-.513-.045-.6a.287.287 0 0 0-.117-.247c-.142-.128-.457-.135-.645-.049-.27.12-.285.48-.213.596l1.02 2.198c.056.09-.087.39-.41.405-.337.022-.453-.33-.513-.488l.461.038s.019-.075 0-.12a4.184 4.184 0 0 1-.461-.056l-.019-.237h.225l-.015-.105s-.191.015-.21 0c-.018-.01-.037-.232-.037-.232s-.038-.015-.075-.015c-.038 0-.075.015-.075.015s-.015.221-.034.232c-.019.015-.21 0-.21 0l-.019.105H2.1l-.019.237s-.225.041-.461.056a.294.294 0 0 0 0 .12l.461-.038c-.06.158-.176.51-.513.488-.323-.015-.465-.315-.413-.405l1.02-2.198c.071-.116.056-.476-.214-.6-.187-.082-.502-.075-.645.053a.28.28 0 0 0-.116.244c.008.086.15.435-.045.6.199-.064.218-.038.394.078-.248-.3-.233-.31-.195-.487.18.06.446.037.446-.045 0-.075-.075-.206-.18-.154-.105.053.075.116-.052.116-.124 0-.214-.026-.214-.116 0-.09.124-.195.3-.195s.397.09.36.413C1.976 3.038.926 4.849.926 5.067c0 .225.195.51.713.51.337.026.461-.33.581-.45h-.004Z" clip-rule="evenodd"/><path fill="#FFE400" fill-rule="evenodd" d="M2.257.488c.124-.12.083-.319.424-.293.518 0 .533.315.533.536 0 .222-.777.53-.814.855-.038.327.18.413.36.413.176 0 .3-.101.3-.191s-.083-.12-.21-.12c-.128 0 .056.063-.053.112-.108.049-.18-.075-.18-.15 0-.082.27-.109.45-.049.038-.176.053-.187-.198-.487.18.116.195.142.393.075-.198.172-.048.517-.045.604a.297.297 0 0 1-.112.243c-.15.14-.461.14-.649.057-.274-.12-.289-.48-.217-.6l.76-.769c.053-.09.076-.345-.247-.356-.337-.027-.457.435-.517.588-.079-.168-.169-.633-.51-.607-.323.011-.383.262-.33.356l.776.788c.075.12.06.48-.214.6-.187.086-.498.078-.641-.053a.271.271 0 0 1-.12-.244c.008-.09.154-.43-.041-.6.195.064.214.038.39-.075-.248.297-.229.308-.195.488.18-.06.45-.038.45.041s-.075.21-.184.158c-.105-.053.075-.117-.052-.117-.124 0-.214.027-.214.113 0 .086.124.199.304.199s.393-.09.356-.417c-.038-.326-.825-.678-.825-.9 0-.225.052-.49.57-.49.337-.027.379.172.502.292Z" clip-rule="evenodd"/><path fill="#FFE400" d="M16.557 7.722c0-1.783-1.525-3.228-3.406-3.228-1.881 0-3.406 1.445-3.406 3.228 0 1.782 1.525 3.228 3.406 3.228 1.881 0 3.406-1.446 3.406-3.228Z"/><path fill="#FFE400" fill-rule="evenodd" d="M12.991 2.569c-.032 0-.184 1.073-.24 1.313-.056.54.72.52.592-.02l-.352-1.297v.004Zm.272 10.398c.028 0 .26-1.06.336-1.297.092-.532-.684-.56-.6-.016l.264 1.313ZM7.836 7.7c0 .028 1.117.252 1.365.324.56.092.6-.64.024-.56l-1.39.24V7.7Zm10.874.128c0-.028-1.128-.212-1.38-.276-.565-.068-.569.664 0 .564l1.38-.288Zm-9.73-3.53c-.02.02.717.852.865 1.057.384.4.893-.16.384-.433l-1.248-.62v-.004Zm8.45 6.844c.02-.02-.789-.788-.957-.976-.42-.369-.872.228-.344.46l1.3.52v-.004Zm-6.764-8.005c-.024.012.32 1.045.376 1.289.192.508.888.176.528-.26l-.9-1.029h-.004Zm4.926 9.302c.029-.012-.24-1.065-.276-1.309-.156-.52-.872-.24-.548.224l.829 1.08-.005.005Zm1.213-8.581c-.024-.02-.912.664-1.128.8-.429.36.152.849.448.372l.68-1.172ZM9.481 11.61c.02.02.96-.6 1.185-.724.452-.328-.088-.857-.42-.4l-.761 1.124H9.48Zm-1.4-5.767c-.013.024.96.588 1.172.736.5.26.792-.42.22-.528L8.08 5.843ZM18.233 9.78c.012-.024-.92-.652-1.12-.812-.48-.296-.821.364-.257.508l1.377.304Zm-3.226-6.92c-.028-.008-.584.937-.732 1.14a.311.311 0 0 0 .56.189l.172-1.329Zm-3.757 9.78c.028.012.652-.897.812-1.093.293-.464-.416-.76-.548-.224l-.264 1.317ZM8.148 9.865c.012.024 1.12-.24 1.38-.28.545-.152.241-.824-.24-.512l-1.14.792Zm10.09-4.11c-.008-.024-1.133.164-1.393.188-.56.116-.3.808.2.528l1.193-.716Z" clip-rule="evenodd"/><path fill="#FFE400" fill-rule="evenodd" d="M14.096 2.637c-.028-.004-.405 1.016-.517 1.24-.164.52.6.649.589.097L14.1 2.633l-.004.004Zm-1.941 10.242c.027.008.48-.989.608-1.209.2-.504-.553-.68-.58-.132l-.033 1.34h.005Zm-.389-10.142c-.028.008.076 1.089.076 1.337.076.532.825.348.577-.148l-.653-1.19Zm2.722 10.082c.028-.004 0-1.089.02-1.337-.036-.54-.8-.404-.584.108l.56 1.229h.004Zm-4.65-9.186c-.025.016.507.973.607 1.201.289.468.909.028.473-.344l-1.08-.857Zm6.595 8.321c.024-.016-.44-1.008-.52-1.24-.252-.485-.9-.084-.497.312l1.017.928ZM8.428 4.978c-.016.024.845.737 1.025.92.444.337.856-.287.312-.484l-1.337-.436Zm9.374 5.591c.016-.024-.789-.792-.957-.984-.416-.364-.872.232-.344.464l1.3.52Zm-9.99-3.914c-.008.028 1.053.432 1.285.549.536.18.708-.537.124-.553l-1.41.004ZM18.514 8.97c.012-.024-1.016-.497-1.24-.629-.52-.216-.749.488-.169.545l1.41.084ZM7.776 8.716c.004.024 1.149.008 1.409.028.568-.028.432-.752-.112-.556l-1.297.528Zm10.814-1.8c0-.029-1.144-.089-1.4-.125-.573-.008-.489.725.067.56l1.333-.44v.004Zm-9.834 3.938c.016.024 1.041-.465 1.281-.557.496-.26.04-.856-.356-.452l-.925 1.009Zm8.898-6.096c-.016-.024-1.069.396-1.321.472-.516.228-.104.853.32.477l1-.949Zm-7.233 7.513c.024.011.757-.821.941-.997.348-.428-.32-.8-.516-.28l-.425 1.277Zm5.592-8.958c-.02-.016-.813.765-1.009.929-.376.404.264.82.497.316l.508-1.245h.004Z" clip-rule="evenodd"/><path fill="#FFE400" fill-rule="evenodd" d="M7.943 9.869c.061.206.07 1.362 1.302 2.477 1.223 1.106 3.319 1.354 3.319 1.354s.008.157-.14.165c-.148.017-.865-.124-1.223-.231-.35-.1-.664-.281-.699-.273-.043.017-.113.132-.218.116-.105-.017-.611-.512-.839-.644A6.797 6.797 0 0 1 8.25 11.57c-.245-.372-.306-.62-.385-.62-.078 0-.366.182-.366.182s-.262-.371-.49-.966c-.235-.594-.21-.941-.157-.966.061-.025.061.438.236.859.175.429.42.561.42.561s-.158-.223-.28-.776c-.122-.553-.175-1.09-.088-1.255.088-.165.166-.215.175-.206.018.016-.148.256-.035.891.114.636.42 1.173.49 1.148.07-.025-.044-.157-.088-.528-.044-.372.044-.603.14-.636.043-.033.113.413.122.61Zm-.856 1.057c-.236-.207-.603-.925-.681-.892-.088.041.594 1.073.611 1.156.018.099.166.38.053.338-.114-.04-.926-.85-.83-.693.096.157.707.867.672.908-.035.041-.506-.396-.524-.338-.008.05.463.478.455.528-.01.05-.306-.272-.306-.207 0 .067.306.389.306.438 0 .05-.263-.231-.175-.082.078.165.306.305.297.355-.009.05-.192-.066-.192-.042 0 .025.34.14.419.232.087.09.646.701 1.066 1.007.419.305 1.624.842 1.712.842.078 0 .2-.165.174-.231-.026-.066-1.205-.446-1.528-.727-.332-.28-1.136-.958-1.206-.99-.06-.042-.244-.025-.244-.067 0-.04.236.025.218 0-.009-.024-.323-.156-.314-.181.017-.025.218.05.218.025s-.367-.215-.35-.256c.01-.042.271.115.271.082 0-.016-.349-.248-.34-.289.008-.041.27.182.262.132-.009-.05-.21-.33-.21-.363 0-.041.315.28.35.215.017-.058-.114-.595-.105-.603.008-.008.236.115.27.041.044-.082-.157-.19-.349-.338Zm4.027 4.062c-.166.025-.245-.033-.149-.165.131 0 .48-.108.603-.157.122-.05.253-.116.358-.207.105-.107.175.058.114.149-.044.058-.245.165-.393.223-.219.066-.41.165-.533.157Zm1.092-.421c-.114-.116-.018-.198.148-.29.245-.123.175-.296.49-.437.14-.082 2.096-.825 2.733-1.222.638-.396 2.429-1.676 2.909-2.56.472-.874.245-.94.314-.974.062-.04.131.124.123.322-.018.19-.175.768-.122.826.052.058.716-.454.995-1.073.28-.62.49-1.263.62-1.263.14 0-.227 1.056-.463 1.47-.227.412-.497.618-.436.71.07.082.75-.455.987-.851.227-.405.445-.76.489-.685-.07.483-.271.941-.585 1.329-.367.396-.804.685-.734.743.061.066.559.132 1.074-.198.524-.339.577-.826.638-.801.07.025-.061.693-.56 1.106-.497.413-1.152.454-1.135.545.035.083 1.424-.38 1.398-.272-.026.099-1.8.76-1.817.825 0 .05.306.066.786-.04.472-.1.926-.455.987-.372.018.115-.34.396-.882.528-.55.132-.821.305-.838.347-.01.041.978-.116.978-.066s-1.293.289-1.302.355c-.017.057 1.223-.24 1.206-.166-.035.058-1.686.52-1.669.545.01.034 1.38-.28 1.354-.23-.035.057-2.306.66-2.323.701-.018.033 2.009-.43 1.991-.388-.017.041-1.048.28-1.048.305 0 .025.83-.123.813-.082-.01.033-2.097.537-2.14.61-.044.083 1.083-.206 1.065-.057-.017.149-2.42.908-2.428.768-.018-.14 1.459-.495 1.45-.537-.018-.041-.847.083-.865.009-.009-.083.55-.248.507-.281-.044-.041-.463.116-.428.025.043-.091.838-.438.82-.463-.008-.024-.287.083-.261 0 .035-.09 1.72-.553 1.694-.61-.026-.05-.777.115-.847.131-.026-.05 1.048-.429 1.03-.495-.034-.058-.576.223-.61.149-.018-.083.951-.438.89-.496-.06-.058-.498.149-.559.091-.06-.058.917-.694.769-.71-.149-.008-.332.198-.35.066.018-.165.76-.438.595-.57-.263-.074-1.145.058-1.512.265-.366.206-1.59 1.354-1.886 1.535-.297.174-1.31.578-1.503.66-.297.1-.35.248-.655.397-.55.14-.541.297-.804.388-.096.025-1.083.47-1.091.438Zm-1.38.578c-.166.082-.315.28-.219.363.053.1.219-.223.35-.206l.698.033c.376.024.56-.075.769-.058.21.016.673-.107.891-.107.218 0 .262.024.28-.067.026-.082-.682-.024-.996-.033-.315-.016-.708.058-.944.058-.218-.008-.594-.074-.83.017Z" clip-rule="evenodd"/><path fill="#FFE400" d="M11.874 15.046c0-.069-.067-.124-.149-.124-.082 0-.148.055-.148.124 0 .068.066.124.148.124.082 0 .149-.056.149-.124Z"/><path fill="#FFE400" fill-rule="evenodd" d="M15.359 14.807c.148-.025.55.107.83.165.506.19 1.45.099 1.45.19 0 .09-.061.198-.28.214-.218.017-.769-.082-.751-.082.017 0 .437.19.314.24-.122.049-.48-.108-.541-.067-.061.042.332.116.262.14-.053.025-.323-.032-.41-.024-.088.016.07.107-.036.14-.104.041-.28-.05-.349-.025-.079.025.157.166.052.182-.104.017-.349-.066-.489-.082-.14 0 .131.132.044.148-.087.008-.332-.107-.393-.107s0 .165-.087.165c-.088 0-.193-.14-.245-.14-.052 0 0 .165-.087.165-.088 0-.123-.174-.193-.165-.087.016 0 .223-.122.206-.113-.008-.13-.215-.227-.206-.087.016.017.206-.07.206-.087 0-.105-.19-.192-.206-.087-.009-.052.181-.105.181-.052 0-.105-.181-.14-.181-.026 0 0 .181-.104.165-.105-.017-.105-.198-.131-.19-.035.016-.035.148-.105.148-.07 0-.079-.132-.105-.115-.035.008-.14.173-.21.148-.078-.024.018-.156-.017-.156s-.122.09-.175.082c-.052-.008 0-.115-.017-.115-.018 0-.149.066-.21.066s-.227.082-.27.008c-.044-.083.113-.083.148-.157.026-.074-.088-.297.035-.371.113-.083.489.107 1.048-.025 1.013-.256 1.8-.553 1.878-.545Z" clip-rule="evenodd"/></g><defs><clipPath id="a"><path fill="#fff" d="M0 0h24v18H0z"/></clipPath></defs></svg>