<svg xmlns="http://www.w3.org/2000/svg" width="24" height="18" fill="none"><g clip-path="url(#a)"><path fill="red" fill-rule="evenodd" d="M-1.5 13.5h27V18h-27v-4.5Zm0-13.5h27v4.5h-27V0Z" clip-rule="evenodd"/><path fill="#fff" fill-rule="evenodd" d="M-1.5 4.5h27v9h-27v-9Z" clip-rule="evenodd"/><path fill="#007900" d="M11.863 4.57c-.274.545-.457.545-.914.914-.183.18-.457.271-.092.457-.369.18-.552.271-.734.637l.091.091s.351-.169.366-.091c.063.074-.457.351-.524.397l-.387.246c-.46.362-.738.27-1.009.82l.914-.092c.183.64-.457.731-.914 1.005l-.735.457c.187.64.735.275 1.192.092l.091.091v.183l-.914.457s-1.082.619-1.1.64c-.007.035 0 .183 0 .183.366.091.914.182 1.283 0 .457-.183.549-.366 1.097-.366a3.537 3.537 0 0 1-1.828.731v.366c.548 0 .914 0 1.371-.091l1.188-.366c.275 0 .552.274.457.548-.27 1.006-1.37.823-1.736 1.646l1.462-.552c.366-.183.731-.362 1.189-.271.548.183.548.549 1.28.731l-.184-.457c.183.092.366.092.552.183.457.183.549.366 1.097.274-.457-.548-.548-.457-.914-.822-.365-.549-.552-1.372 0-1.463l.64.183c.64.091.64-.091 1.554.274.552.183.735.457 1.37.274-.27-.64-1.275-1.096-1.919-1.28.735-.456.549.184 1.558-.09v-.184c-.728-.551-1.006-1.008-2.011-1.008l1.557-.183V8.95s-1.536-.4-1.571-.418c.01-.046.05-.117.151-.159.292.19 1.17.17 1.223.166-.028-.225-.446-.412-.808-.595 0 0-1.572-.966-1.579-1.05.032-.247.644.038 1.301.228-.183-.366-.548-.549-.914-.64l.548-.091c-.365-.823-1.28-.732-1.828-1.097-.369-.275-.369-.457-.917-.728v.003Z"/><path fill="#fff" fill-rule="evenodd" d="M10.875 10.653c.067-.215.155-.408-.253-.594-.408-.187.204.741.253.597v-.003Zm.482-.433c-.081.01-.127.31.039.394.182.028.035-.39-.04-.394Zm.475-.035c-.085.028-.088.45.21.373.303-.074 0-.405-.21-.37v-.003Zm.555-1.08c.063-.105-.004-.526-.26-.35-.26.179.175.379.26.35Zm-.563-.35c.081-.032.088-.293-.14-.222-.222.067.08.274.14.221Zm-.506.101s-.158-.218-.281-.172c-.151.148.292.176.281.172Zm-1.744.696c.067.007.563-.08.735-.274.172-.193-.882.081-.882.084 0 .004.098.173.147.19Zm4.961-1.23c.025-.046-.264-.25-.436-.169-.046.151.436.2.436.169Zm-.977-.492c.056-.078-.123-.398-.482-.218-.359.175.376.344.482.221V7.83Zm-1.129-.187s.088-.288.303-.232c.245.187-.292.243-.303.232Zm-.21-.218c-.036-.08-.258-.035-.514.137-.26.166.59.05.513-.14v.003Zm.657-.777s.228-.105.298 0c.095.152-.302 0-.298 0Zm-.194-.102c-.046-.09-.299-.101-.292.036-.042.105.33.084.292-.036Zm-.604 0c-.025-.052-.387 0-.493.218.176.085.573-.08.492-.218Zm-.774.222s-.471.292-.503.503c.014.183.591-.33.591-.33s.05-.205-.084-.173h-.004Zm-.524-.264c.014-.06.236-.197.253-.186.018.06-.179.221-.253.186Zm.151 1.111c.011-.088-.562-.08-.348.183.183.222.387-.144.348-.183Zm-.527.376c-.028-.056-.07-.21-.148-.225-.066 0-.41.07-.439.127-.014.046.144.33.197.337.063.025.383-.21.394-.239h-.004Zm3.108 1.941c.018-.063.608-.264.808-.07.24.327-.822.175-.808.07Zm1.617.383c.13-.218-.397-.478-.619-.228.078.299.514.408.62.228Z" clip-rule="evenodd"/><path fill="#fff" fill-rule="evenodd" d="M11.034 6.261a.06.06 0 0 1 .028.009.056.056 0 0 1 .025.032.098.098 0 0 1-.004.063.2.2 0 0 1-.027.046.437.437 0 0 1-.182.14c-.032.012-.078.024-.118.004a.056.056 0 0 1-.03-.063.126.126 0 0 1 .024-.048.315.315 0 0 1 .035-.037.821.821 0 0 1 .233-.145h.016Zm1.602.18a.175.175 0 0 1 .1.088.109.109 0 0 1-.008.085.14.14 0 0 1-.053.052.33.33 0 0 1-.136.039.321.321 0 0 1-.136-.015.119.119 0 0 1-.058-.044.09.09 0 0 1-.011-.073.14.14 0 0 1 .06-.113.224.224 0 0 1 .12-.038.307.307 0 0 1 .122.02Zm-.177.11c-.009.007-.014.014-.013.028v.007a.21.21 0 0 0 .084.006.221.221 0 0 0 .095-.028.092.092 0 0 0-.03-.017.195.195 0 0 0-.076-.012.114.114 0 0 0-.06.016Zm-.332-.031c-.015-.029-.045-.039-.06-.043a.24.24 0 0 0-.064-.006.593.593 0 0 0-.159.03.506.506 0 0 0-.31.239.056.056 0 0 0 .027.075.37.37 0 0 0 .192.026.67.67 0 0 0 .197-.05.423.423 0 0 0 .152-.104.172.172 0 0 0 .04-.077.128.128 0 0 0-.015-.09Zm-.452.21a.557.557 0 0 0 .23-.043.314.314 0 0 0 .111-.073.06.06 0 0 0 .015-.026v-.003a.482.482 0 0 0-.153.023.459.459 0 0 0-.203.122Zm.367-.143h-.001.002Zm1.064-.039a.163.163 0 0 1 .116.07c.013.022.027.052.022.083a.082.082 0 0 1-.061.065.188.188 0 0 1-.067.005.531.531 0 0 1-.07-.01 1.309 1.309 0 0 1-.175-.054l-.013-.005a.186.186 0 0 1-.005-.001l-.004-.003-.003-.001-.008-.006a.107.107 0 0 1-.01-.012.099.099 0 0 1-.006-.049.102.102 0 0 1 .03-.032v-.001l.003-.001.008-.004a.707.707 0 0 1 .124-.038.346.346 0 0 1 .12-.006Zm-1.66.405-.054-.013.037.042-.002.002-.005.004-.018.017a4.408 4.408 0 0 1-.27.215 1.123 1.123 0 0 1-.214.128.184.184 0 0 1-.1.016.09.09 0 0 1-.054-.032.103.103 0 0 1-.02-.07.42.42 0 0 1 .104-.195c.052-.06.117-.12.179-.17a2.613 2.613 0 0 1 .224-.163l.015-.01a.325.325 0 0 1 .005-.003h.001l.03.047-.03-.048a.056.056 0 0 1 .027-.008.124.124 0 0 1 .116.03.155.155 0 0 1 .039.095.356.356 0 0 1-.009.113v.003Zm-.123-.13a1.294 1.294 0 0 0-.388.318.405.405 0 0 0-.07.108 1.025 1.025 0 0 0 .204-.12 3.743 3.743 0 0 0 .271-.218l.002-.01a.253.253 0 0 0 .002-.053.059.059 0 0 0-.007-.027l-.014.001Zm.069.117.037.042a.057.057 0 0 0 .017-.029l-.054-.013Zm.865.442a.133.133 0 0 0-.09-.05.363.363 0 0 0-.136.013 1.195 1.195 0 0 0-.403.206.096.096 0 0 0-.029.053c-.004.03.01.053.028.067a.115.115 0 0 0 .046.02.392.392 0 0 0 .103.006 1.05 1.05 0 0 0 .127-.016.937.937 0 0 0 .257-.084.276.276 0 0 0 .093-.075.123.123 0 0 0 .017-.121.056.056 0 0 0-.013-.02Zm-.09.067a.044.044 0 0 0-.016-.005.255.255 0 0 0-.093.01 1.028 1.028 0 0 0-.284.13.921.921 0 0 0 .333-.086.168.168 0 0 0 .055-.042.027.027 0 0 0 .004-.007Zm-.46.183Zm.722.011-.054-.016a.056.056 0 0 0 .038.07.1.1 0 0 0 .022.003h.023a.964.964 0 0 0 .236-.046.411.411 0 0 0 .082-.037.169.169 0 0 0 .063-.064.114.114 0 0 0 .001-.101.235.235 0 0 0-.075-.085.057.057 0 0 0-.02-.01c-.139-.037-.236.042-.29.116a.533.533 0 0 0-.08.153v.001l.054.016Zm.115-.103a.382.382 0 0 0-.026.04.834.834 0 0 0 .14-.032.3.3 0 0 0 .059-.026.073.073 0 0 0 .022-.02l-.001-.003a.114.114 0 0 0-.032-.036c-.07-.013-.121.023-.162.077Zm1.067.309a.055.055 0 0 1-.011.02.176.176 0 0 1-.096.052.5.5 0 0 1-.118.01.946.946 0 0 1-.26-.043.55.55 0 0 1-.112-.048.204.204 0 0 1-.08-.076.113.113 0 0 1 .008-.118.268.268 0 0 1 .109-.085c.197-.098.355-.062.457.02.048.04.083.09.1.137a.214.214 0 0 1 .016.072c0 .019-.003.04-.013.059Zm-.175-.18c-.064-.053-.174-.087-.335-.007a.168.168 0 0 0-.065.046l-.002.004a.1.1 0 0 0 .037.031.44.44 0 0 0 .089.038c.07.023.155.037.228.038a.39.39 0 0 0 .09-.008.111.111 0 0 0 .031-.01l.002-.003v-.006a.104.104 0 0 0-.007-.034.223.223 0 0 0-.067-.09Zm-2.45-.07c-.005-.033-.033-.053-.049-.061a.245.245 0 0 0-.077-.024.564.564 0 0 0-.19.006c-.062.012-.133.04-.169.096a.142.142 0 0 0-.02.106.26.26 0 0 0 .058.112c.055.066.119.096.186.09a.257.257 0 0 0 .155-.08.456.456 0 0 0 .09-.13.264.264 0 0 0 .02-.061.118.118 0 0 0 .001-.034.077.077 0 0 0-.005-.02Zm-.36.163a.152.152 0 0 1-.034-.062c-.002-.011 0-.018.004-.024.01-.016.041-.035.096-.046a.452.452 0 0 1 .15-.005.171.171 0 0 1 .036.01v.001a.342.342 0 0 1-.078.128c-.03.03-.06.046-.085.048-.021.002-.052-.005-.088-.05Zm.26-.124Zm-.733.085a.705.705 0 0 1 .113-.012.148.148 0 0 1 .084.052c.02.022.036.05.049.075a.997.997 0 0 1 .033.076l.003.008.013.03a.056.056 0 0 1 .012.059c-.005.013-.013.022-.016.026a1.925 1.925 0 0 1-.319.221.38.38 0 0 1-.062.025.118.118 0 0 1-.064.002.11.11 0 0 1-.048-.028.339.339 0 0 1-.037-.041.99.99 0 0 1-.154-.307.086.086 0 0 1 .006-.041.116.116 0 0 1 .046-.045.377.377 0 0 1 .055-.026 2.164 2.164 0 0 1 .286-.074Zm.208.237v.001Zm-.023.022-.007-.018-.003-.008a.915.915 0 0 0-.03-.068.25.25 0 0 0-.032-.051.056.056 0 0 0-.017-.014 2.064 2.064 0 0 0-.341.079.32.32 0 0 0-.032.014.973.973 0 0 0 .151.258l.001.001a1.845 1.845 0 0 0 .31-.194Zm-.313.194Zm.007.002Zm-.16-.279Zm4.716.441a.078.078 0 0 0-.01-.07.214.214 0 0 0-.039-.046.57.57 0 0 0-.123-.084.572.572 0 0 0-.164-.056.3.3 0 0 0-.177.018.056.056 0 0 0-.03.035.12.12 0 0 0 .01.096.186.186 0 0 0 .062.062c.046.03.11.052.17.066a.97.97 0 0 0 .17.025.41.41 0 0 0 .063 0 .119.119 0 0 0 .03-.007.068.068 0 0 0 .021-.013.06.06 0 0 0 .017-.026Zm-.422-.148a.45.45 0 0 0 .146.06c.036.008.071.014.103.018a.543.543 0 0 0-.181-.075.238.238 0 0 0-.068-.003Zm.317.137-.001-.001v.001Zm-2.63.474a.145.145 0 0 0 .07-.09.223.223 0 0 0 0-.123.166.166 0 0 0-.085-.107.23.23 0 0 0-.171-.004c-.063.02-.115.057-.12.12-.003.054.032.1.062.13a.372.372 0 0 0 .116.075.21.21 0 0 0 .064.015.104.104 0 0 0 .064-.016Zm-.065-.22c-.013-.006-.04-.011-.088.004a.098.098 0 0 0-.038.018.011.011 0 0 0-.002.002c0 .003.004.018.027.041.023.022.053.04.08.051a.103.103 0 0 0 .027.008.056.056 0 0 1 .01-.005h-.001s.006-.004.011-.022a.112.112 0 0 0 .002-.06c-.006-.018-.015-.03-.028-.036Zm.01.124Zm-.437.114a.947.947 0 0 0-.1-.11.414.414 0 0 0-.106-.07.183.183 0 0 0-.138-.01.057.057 0 0 0-.02.013.15.15 0 0 0-.047.081.104.104 0 0 0 .026.085.19.19 0 0 0 .062.045.43.43 0 0 0 .071.026.981.981 0 0 0 .205.032h.008a.057.057 0 0 0 .052-.058.056.056 0 0 0-.013-.034Zm-.294-.087a.05.05 0 0 0-.004.005.098.098 0 0 0 .023.015.33.33 0 0 0 .082.026.267.267 0 0 0-.058-.037.086.086 0 0 0-.043-.009Zm1.398.246a.3.3 0 0 1-.03.155.056.056 0 0 1-.03.024.157.157 0 0 1-.073.003.598.598 0 0 1-.24-.11c-.047-.037-.094-.09-.102-.156-.01-.072.03-.136.104-.188.074-.05.146-.066.211-.04.061.025.1.08.123.135.024.056.035.12.037.177Zm-.307-.18c-.055.039-.059.067-.057.082.003.021.021.05.061.082a.485.485 0 0 0 .185.086.391.391 0 0 0-.023-.204c-.017-.041-.04-.065-.06-.073-.019-.008-.051-.01-.106.028Zm-1.776.458a.126.126 0 0 1-.031.058.64.64 0 0 1-.196.138 1.514 1.514 0 0 1-.237.09 2.013 2.013 0 0 1-.294.063.293.293 0 0 1-.056.001l.006-.056-.019.053a.125.125 0 0 1-.038-.023.748.748 0 0 1-.123-.162.808.808 0 0 1-.022-.044.057.057 0 0 1-.002-.013.1.1 0 0 1 .015-.038.058.058 0 0 1 .028-.017.419.419 0 0 1 .044-.012 6.502 6.502 0 0 1 .465-.105c.12-.022.242-.04.323-.038.02 0 .04.002.058.006.016.003.038.01.055.025.02.019.03.046.024.074Zm-.792.238.022-.001.071-.01a2.2 2.2 0 0 0 .203-.048 1.41 1.41 0 0 0 .22-.084.608.608 0 0 0 .136-.087 1.744 1.744 0 0 0-.3.036 6.802 6.802 0 0 0-.43.095 1.18 1.18 0 0 0 .06.082.185.185 0 0 0 .018.017Zm3.969.465Zm.045-.027a1.233 1.233 0 0 1 .254-.078.924.924 0 0 1 .249-.018.29.29 0 0 1 .17.061c.024.033.022.048.022.052-.001.002-.005.012-.03.023a.66.66 0 0 1-.266.029 1.684 1.684 0 0 1-.324-.046.725.725 0 0 1-.075-.023Zm.513-.208a.394.394 0 0 1 .248.103c.034.046.055.096.043.146-.011.052-.052.083-.092.102a.755.755 0 0 1-.318.038 1.795 1.795 0 0 1-.346-.049.655.655 0 0 1-.125-.043.178.178 0 0 1-.045-.03.08.08 0 0 1-.025-.076.086.086 0 0 1 .026-.04.202.202 0 0 1 .03-.022.575.575 0 0 1 .083-.04c.065-.026.15-.052.24-.07a1.06 1.06 0 0 1 .28-.019Zm1.048.395c.043.065.058.146.012.223a.238.238 0 0 1-.169.109.457.457 0 0 1-.216-.02.495.495 0 0 1-.336-.332.056.056 0 0 1 .012-.052c.134-.15.351-.14.505-.075a.44.44 0 0 1 .192.147Zm-.591-.018c.09-.078.233-.078.355-.025a.328.328 0 0 1 .143.106c.025.038.027.071.008.103-.015.027-.046.047-.092.055a.345.345 0 0 1-.162-.015.393.393 0 0 1-.252-.224Zm-4.006-.122c.023.005.05.014.077.027.21.096.31.201.336.326a.41.41 0 0 1-.005.174 1.498 1.498 0 0 1-.048.167.076.076 0 0 1-.06.052.098.098 0 0 1-.062-.013.384.384 0 0 1-.09-.079 1.58 1.58 0 0 1-.259-.41.391.391 0 0 1-.031-.13c0-.02.003-.043.014-.064a.097.097 0 0 1 .056-.048.142.142 0 0 1 .072-.002Zm.266.614a1.484 1.484 0 0 1-.272-.412.288.288 0 0 1-.023-.09v-.003a.24.24 0 0 1 .06.02c.197.09.257.174.272.247a.3.3 0 0 1-.005.127c-.008.036-.02.072-.032.111Zm.029.021Zm.981-.485a.056.056 0 0 0-.03 0 .109.109 0 0 0-.06.055.241.241 0 0 0-.023.07.407.407 0 0 0 .007.17.275.275 0 0 0 .1.156c.057.04.13.053.218.03.085-.02.146-.065.165-.133.017-.065-.01-.13-.047-.18a.445.445 0 0 0-.153-.128.341.341 0 0 0-.177-.04Zm.007.112a.14.14 0 0 0-.01.033.295.295 0 0 0 .006.12.16.16 0 0 0 .057.095c.024.017.062.028.124.012.066-.016.08-.04.084-.053.004-.017 0-.047-.028-.084a.33.33 0 0 0-.114-.095.228.228 0 0 0-.119-.028Zm.005-.009Zm-.507-.07h.01c.033.002.057.024.07.037a.303.303 0 0 1 .04.06c.024.044.045.1.058.155a.337.337 0 0 1 .003.165.127.127 0 0 1-.05.071.13.13 0 0 1-.093.018.054.054 0 0 1-.018-.006c-.11-.056-.143-.18-.142-.275 0-.05.01-.098.026-.136a.187.187 0 0 1 .034-.054.104.104 0 0 1 .062-.034Zm.009.13a.527.527 0 0 1 .06.148.233.233 0 0 1 .005.107c-.002.007-.004.009-.005.01h-.006c-.049-.03-.073-.095-.072-.169a.25.25 0 0 1 .017-.094v-.002Zm-.018-.021h.001Z" clip-rule="evenodd"/></g><defs><clipPath id="a"><path fill="#fff" d="M0 0h24v18H0z"/></clipPath></defs></svg>