<svg xmlns="http://www.w3.org/2000/svg" width="24" height="18" fill="none"><g clip-path="url(#a)"><path fill="#002B7F" d="M0 0h24v9H0V0Z"/><path fill="#CE1126" d="M0 9h24v9H0V9Z"/><path fill="#FFD83D" d="m6.492 3.67-.057 1.875H4.533c-.234-.456-.426-.84-.426-1.365 0-.438.345-.786.84-.786.525 0 1.104.177 1.545.276Zm-2.158.086v1.08-1.08Zm.15-.11v1.439-1.44Zm.156-.076v1.716V3.57Zm.15-.036v1.347-1.347Zm.153-.006v1.36-1.36Zm.153-.05v1.41-1.41Zm.153-.001v1.41-1.41Zm.153.015v1.41-1.41Zm.153.015v1.407-1.407Zm.153.087v1.41-1.41Zm.15.015v1.587-1.587Zm.156 0v1.41-1.41Zm.15 0v1.41-1.41Z"/><path fill="currentColor" fill-rule="evenodd" d="M5.096 3.454c.012 0 .023.01.023.023v1.41a.023.023 0 0 1-.045 0v-1.41c0-.013.01-.023.022-.023Zm.153 0c.012 0 .023.01.023.023v1.41a.023.023 0 0 1-.045 0v-1.41c0-.013.01-.023.022-.023Zm.153.015c.012 0 .023.01.023.023v1.41a.023.023 0 0 1-.045 0v-1.41c0-.013.01-.023.022-.023Zm.153.015c.012 0 .023.01.023.023v1.407a.023.023 0 0 1-.045 0V3.507c0-.013.01-.023.022-.023Zm-.612.021c.012 0 .023.01.023.023v1.359a.023.023 0 0 1-.045 0v-1.36c0-.012.01-.022.022-.022Zm-.153.006c.012 0 .023.01.023.023V4.88a.023.023 0 0 1-.045 0V3.534c0-.013.01-.023.022-.023Zm-.15.036c.012 0 .023.01.023.023v1.716a.022.022 0 1 1-.045 0V3.57c0-.013.01-.023.022-.023Zm1.068.024c.012 0 .023.01.023.023v1.41a.023.023 0 0 1-.045 0v-1.41c0-.013.01-.023.022-.023Zm.15.015c.012 0 .023.01.023.023v1.587a.023.023 0 0 1-.045 0V3.609c0-.013.01-.023.022-.023Zm.156 0c.012 0 .023.01.023.023v1.41a.023.023 0 0 1-.045 0v-1.41c0-.013.01-.023.022-.023Zm.15 0c.012 0 .023.01.023.023v1.41a.023.023 0 0 1-.045 0v-1.41c0-.013.01-.023.022-.023Zm-1.68.036c.012 0 .023.01.023.023v1.44a.023.023 0 0 1-.045 0v-1.44c0-.013.01-.023.022-.023Zm-.15.111c.012 0 .023.01.023.023v1.08a.023.023 0 0 1-.045 0v-1.08c0-.013.01-.023.022-.023Z" clip-rule="evenodd"/><path fill="currentColor" d="M5.292 3.54c.324.05 1.032.384.951.83-.114.637-.486.382-.978.292l-.372.123c-.135.135-.33.26-.462.096h-.222v.864h2.442V3.66l-1.359-.12Z"/><path fill="currentColor" fill-rule="evenodd" d="M5.27 3.537a.022.022 0 0 1 .024-.02l1.359.12c.011.002.02.011.02.023v2.085c0 .013-.01.023-.022.023H4.209a.022.022 0 0 1-.023-.023v-.864c0-.012.01-.022.023-.022h.222c.006 0 .013.003.017.008.03.038.063.058.097.066.033.008.07.004.108-.009a.633.633 0 0 0 .224-.155.022.022 0 0 1 .008-.005l.372-.123a.022.022 0 0 1 .012-.001 3.775 3.775 0 0 1 .345.082c.106.027.2.046.28.044a.263.263 0 0 0 .2-.084c.055-.06.098-.158.126-.315.038-.21-.108-.397-.314-.542a1.652 1.652 0 0 0-.618-.263.023.023 0 0 1-.019-.025Zm.266.047c.13.048.272.118.396.205.209.146.376.349.333.586-.03.16-.075.269-.138.338a.307.307 0 0 1-.231.098 1.132 1.132 0 0 1-.293-.045l-.075-.02c-.083-.021-.17-.044-.262-.06l-.361.119a.67.67 0 0 1-.237.162.24.24 0 0 1-.134.01.216.216 0 0 1-.114-.073h-.189v.819h2.397V3.68l-1.092-.097Z" clip-rule="evenodd"/><path fill="#FFD83D" d="M6.384 3.537a.147.147 0 1 0 0-.294.147.147 0 0 0 0 .294Z"/><path fill="currentColor" fill-rule="evenodd" d="M6.384 3.273a.117.117 0 1 0 0 .234.117.117 0 0 0 0-.234Zm-.177.117a.177.177 0 1 1 .354 0 .177.177 0 0 1-.354 0Z" clip-rule="evenodd"/><path fill="#FFD83D" d="M6.05 3.456a.147.147 0 1 0 0-.294.147.147 0 0 0 0 .294Z"/><path fill="currentColor" fill-rule="evenodd" d="M6.05 3.192a.117.117 0 1 0 0 .234.117.117 0 0 0 0-.234Zm-.176.117a.177.177 0 1 1 .354 0 .177.177 0 0 1-.354 0Z" clip-rule="evenodd"/><path fill="#FFD83D" d="M5.712 3.372a.147.147 0 1 0 0-.294.147.147 0 0 0 0 .294Z"/><path fill="currentColor" fill-rule="evenodd" d="M5.712 3.108a.117.117 0 1 0 0 .234.117.117 0 0 0 0-.234Zm-.177.117a.177.177 0 1 1 .354 0 .177.177 0 0 1-.354 0Z" clip-rule="evenodd"/><path fill="#FFD83D" d="M5.373 3.315a.147.147 0 1 0 0-.294.147.147 0 0 0 0 .294Z"/><path fill="currentColor" fill-rule="evenodd" d="M5.373 3.051a.117.117 0 1 0 0 .234.117.117 0 0 0 0-.234Zm-.177.117a.177.177 0 1 1 .354 0 .177.177 0 0 1-.354 0Z" clip-rule="evenodd"/><path fill="#FFD83D" d="M5.034 3.282a.147.147 0 1 0 0-.294.147.147 0 0 0 0 .294Z"/><path fill="currentColor" fill-rule="evenodd" d="M5.034 3.018a.117.117 0 1 0 0 .234.117.117 0 0 0 0-.234Zm-.177.117a.177.177 0 1 1 .354 0 .177.177 0 0 1-.354 0Z" clip-rule="evenodd"/><path fill="#FFD83D" d="M4.704 3.3a.147.147 0 1 0 0-.294.147.147 0 0 0 0 .294Z"/><path fill="currentColor" fill-rule="evenodd" d="M4.703 3.036a.117.117 0 1 0 0 .234.117.117 0 0 0 0-.234Zm-.177.117a.177.177 0 1 1 .354 0 .177.177 0 0 1-.354 0Z" clip-rule="evenodd"/><path fill="#FFD83D" d="M4.385 3.408a.147.147 0 1 0 0-.294.147.147 0 0 0 0 .294Z"/><path fill="currentColor" fill-rule="evenodd" d="M4.386 3.143a.117.117 0 1 0 0 .235.117.117 0 0 0 0-.235Zm-.177.118a.177.177 0 1 1 .354 0 .177.177 0 0 1-.354 0Z" clip-rule="evenodd"/><path fill="#FFD83D" d="M4.118 3.606a.147.147 0 1 0 0-.294.147.147 0 0 0 0 .294Z"/><path fill="currentColor" fill-rule="evenodd" d="M4.119 3.342a.117.117 0 1 0 0 .234.117.117 0 0 0 0-.234Zm-.177.117a.177.177 0 1 1 .354 0 .177.177 0 0 1-.354 0Z" clip-rule="evenodd"/><path fill="#FFD83D" d="M3.93 3.88a.147.147 0 1 0 0-.295.147.147 0 0 0 0 .294Z"/><path fill="currentColor" fill-rule="evenodd" d="M3.93 3.615a.117.117 0 1 0 0 .234.117.117 0 0 0 0-.234Zm-.178.117a.177.177 0 1 1 .354 0 .177.177 0 0 1-.354 0Z" clip-rule="evenodd"/><path fill="#FFD83D" d="M3.837 4.203a.147.147 0 1 0 0-.294.147.147 0 0 0 0 .294Z"/><path fill="currentColor" fill-rule="evenodd" d="M3.837 3.94a.117.117 0 1 0 0 .233.117.117 0 0 0 0-.234Zm-.177.116a.177.177 0 1 1 .354 0 .177.177 0 0 1-.354 0Z" clip-rule="evenodd"/><path fill="#FFD83D" d="M3.84 4.536a.147.147 0 1 0 0-.294.147.147 0 0 0 0 .294Z"/><path fill="currentColor" fill-rule="evenodd" d="M3.84 4.271a.117.117 0 1 0 0 .234.117.117 0 0 0 0-.234Zm-.177.117a.177.177 0 1 1 .354 0 .177.177 0 0 1-.354 0Z" clip-rule="evenodd"/><path fill="#FFD83D" d="M3.906 4.863a.147.147 0 1 0 0-.294.147.147 0 0 0 0 .294Z"/><path fill="currentColor" fill-rule="evenodd" d="M3.906 4.6a.117.117 0 1 0 0 .233.117.117 0 0 0 0-.234Zm-.177.116a.177.177 0 1 1 .354 0 .177.177 0 0 1-.354 0Z" clip-rule="evenodd"/><path fill="#FFD83D" d="m6.45 3.585-.016.195c-.369-.06-.89-.264-1.38-.264-.45 0-.798.18-.798.636 0 .447.19.855.441 1.269l-.26.12c-.235-.45-.43-.84-.43-1.362 0-.438.345-.87.94-.87.524 0 1.061.18 1.502.276Z"/><path fill="currentColor" fill-rule="evenodd" d="M4.946 3.34c-.577 0-.909.417-.909.84 0 .503.184.883.412 1.322l.205-.094c-.244-.405-.428-.81-.428-1.256 0-.236.091-.405.243-.513.15-.107.357-.153.585-.153.248 0 .504.052.742.11l.215.056c.143.037.277.072.396.093l.01-.136a12.29 12.29 0 0 1-.322-.078L6.09 3.53c-.12-.03-.243-.061-.368-.09a3.597 3.597 0 0 0-.777-.1Zm1.503.245.006-.029c-.11-.024-.225-.053-.346-.083l-.004-.001c-.119-.03-.243-.062-.37-.09a3.655 3.655 0 0 0-.789-.103c-.61 0-.969.446-.969.9 0 .53.199.926.432 1.376a.03.03 0 0 0 .04.014l.26-.12a.03.03 0 0 0 .014-.043c-.252-.413-.437-.815-.437-1.254 0-.219.083-.368.218-.464.136-.097.328-.142.55-.142.24 0 .49.05.728.109.071.017.142.036.21.054.159.041.308.08.437.1a.03.03 0 0 0 .035-.026l.015-.195-.03-.003Z" clip-rule="evenodd"/><path fill="#FFD83D" d="m6.66 1.593-.156.291.156.288.153-.288-.153-.294v.003Zm0 .732-.156.288.156.291.15-.294-.153-.288.003.003Zm-.552-.075.243.153.243-.153-.24-.156-.246.156Zm.615 0 .243.153.246-.153-.246-.156-.24.156h-.003Z"/><path fill="currentColor" fill-rule="evenodd" d="M6.653 1.56a.03.03 0 0 1 .034.016l.153.294a.03.03 0 0 1 0 .028l-.153.288a.03.03 0 0 1-.053 0l-.156-.288a.03.03 0 0 1 0-.028l.153-.285a.03.03 0 0 1 .022-.024Zm.008.096-.123.228.122.225.12-.225-.12-.228Zm-.323.413a.03.03 0 0 1 .032 0l.24.156a.03.03 0 0 1 0 .05l-.243.153a.03.03 0 0 1-.032 0l-.243-.153a.03.03 0 0 1 0-.05l.246-.156Zm.612 0a.03.03 0 0 1 .032 0l.246.156a.03.03 0 0 1 0 .05l-.246.154a.03.03 0 0 1-.032 0l-.243-.154a.03.03 0 0 1 .009-.054l.234-.152Zm-.17.182.186.117.19-.118-.19-.12-.186.12Zm-.616-.001.187.118.187-.118-.184-.12-.19.12Zm.475.048a.03.03 0 0 1 .04.003l.002.003a.03.03 0 0 1 .009.015l.147.277a.03.03 0 0 1 0 .028l-.15.294a.03.03 0 0 1-.053 0l-.156-.29a.03.03 0 0 1 0-.03l.15-.275a.03.03 0 0 1 .011-.025Zm.02.092-.12.223.12.226.117-.229-.117-.22Z" clip-rule="evenodd"/><path fill="#FFD83D" d="M6.66 2.37a.117.117 0 1 0 0-.234.117.117 0 0 0 0 .234Z"/><path fill="currentColor" fill-rule="evenodd" d="M6.66 2.165a.087.087 0 1 0 0 .174.087.087 0 0 0 0-.174Zm-.147.087a.147.147 0 1 1 .294 0 .147.147 0 0 1-.294 0Z" clip-rule="evenodd"/><path fill="#FFD83D" d="M6.66 3.315a.315.315 0 1 0 0-.63.315.315 0 0 0 0 .63Z"/><path fill="currentColor" fill-rule="evenodd" d="M6.66 2.715a.285.285 0 1 0 0 .57.285.285 0 0 0 0-.57ZM6.313 3a.345.345 0 1 1 .69 0 .345.345 0 0 1-.69 0Z" clip-rule="evenodd"/><path fill="currentColor" fill-rule="evenodd" d="M6.588 2.677a.022.022 0 0 1 .014.02v.198c0 .012-.01.022-.022.023a1.854 1.854 0 0 0-.22.023.023.023 0 0 1-.019-.038l.222-.222a.023.023 0 0 1 .025-.004Zm.141 0a.022.022 0 0 1 .025.004l.225.222a.022.022 0 0 1-.02.038 1.84 1.84 0 0 0-.222-.023.023.023 0 0 1-.021-.023v-.198a.02.02 0 0 1 .013-.02Zm.032.074v.123c.046.003.091.007.137.013l-.137-.136Zm-.34.136c.045-.006.09-.01.136-.013v-.122l-.136.135Zm.239.142c.103 0 .207.009.304.027a.022.022 0 0 1-.008.044 1.618 1.618 0 0 0-.598 0 .022.022 0 0 1-.008-.044c.103-.018.206-.027.31-.027Z" clip-rule="evenodd"/><path fill="#FFD83D" d="M6.354 3.53c-.03.51-.09 1.036-.29 1.414l.323-.132c.114-.43.138-.984.171-1.248l-.204-.033Zm.612 0-.207.034c.036.264.06.819.171 1.248l.324.132c-.198-.378-.258-.9-.288-1.413Z"/><path fill="currentColor" fill-rule="evenodd" d="m6.754 3.534.207-.033.005.03.03-.002c.03.513.09 1.03.285 1.4a.03.03 0 0 1-.038.042l-.324-.132a.03.03 0 0 1-.018-.02 4.993 4.993 0 0 1-.114-.69l-.028-.277c-.01-.112-.02-.21-.03-.284a.03.03 0 0 1 .025-.034Zm.184.031-.145.024c.009.071.017.16.026.26l.027.273c.024.22.057.459.11.668l.237.096c-.17-.368-.226-.85-.255-1.32Zm-.579-.064.204.033a.03.03 0 0 1 .025.033 8.17 8.17 0 0 0-.025.252c-.026.287-.062.68-.147 1a.03.03 0 0 1-.017.02l-.324.132a.03.03 0 0 1-.038-.041c.197-.372.257-.89.287-1.401l.03.002.005-.03Zm.023.065c-.029.468-.085.951-.257 1.32l.237-.097c.081-.312.115-.688.14-.97l.023-.23-.143-.023Z" clip-rule="evenodd"/><path fill="#FFD83D" d="M6.66 4.641c-.39 0-.675.18-.69.648-.096-.168-.495-.69-.87-.62-.222.041-.42.35-.384.701-.186-.528-.723-.615-1.119-.3.351.285.507 1.134.801 1.5H8.92c.294-.366.45-1.215.801-1.5-.393-.315-.933-.228-1.116.3.03-.35-.165-.66-.39-.702-.372-.069-.77.453-.867.621-.015-.465-.3-.648-.69-.648h.003Z"/><path fill="currentColor" fill-rule="evenodd" d="M6.656 4.61h.004m0 0c.198.001.374.048.502.158a.636.636 0 0 1 .208.428c.064-.092.165-.22.287-.329.16-.144.361-.266.562-.229.124.023.236.119.311.25a.814.814 0 0 1 .104.338.674.674 0 0 1 .442-.351.783.783 0 0 1 .663.171.03.03 0 0 1 0 .047.985.985 0 0 0-.225.294 4.114 4.114 0 0 0-.188.414l-.042.104c-.046.112-.09.225-.138.329-.062.136-.128.26-.204.355a.03.03 0 0 1-.023.01H4.398a.03.03 0 0 1-.023-.01 1.694 1.694 0 0 1-.204-.355 8.495 8.495 0 0 1-.18-.433c-.06-.147-.12-.29-.189-.414a.985.985 0 0 0-.224-.294.03.03 0 0 1 0-.047.786.786 0 0 1 .664-.171.677.677 0 0 1 .442.349.796.796 0 0 1 .101-.336.488.488 0 0 1 .31-.25c.202-.037.405.085.565.23.121.109.223.236.287.328a.635.635 0 0 1 .208-.43c.128-.109.304-.155.501-.155m.002.06c-.19 0-.35.044-.464.141-.114.097-.187.25-.194.478a.03.03 0 0 1-.056.014 1.804 1.804 0 0 0-.325-.392c-.157-.142-.34-.246-.514-.215-.1.02-.198.1-.268.22a.753.753 0 0 0-.091.45.03.03 0 0 1-.058.013c-.09-.255-.264-.401-.46-.447a.717.717 0 0 0-.584.138c.08.074.15.174.211.288.07.127.132.272.192.42l.042.104c.045.113.09.223.136.326a1.7 1.7 0 0 0 .187.33h4.492c.068-.086.129-.201.187-.33.047-.103.091-.213.137-.325l.042-.106c.06-.147.122-.292.192-.42.062-.113.13-.213.21-.287a.713.713 0 0 0-.582-.138c-.196.046-.37.191-.458.447a.03.03 0 0 1-.058-.013.774.774 0 0 0-.095-.449c-.07-.122-.17-.202-.27-.22-.172-.032-.355.072-.512.214a1.79 1.79 0 0 0-.324.392.03.03 0 0 1-.056-.014c-.007-.226-.08-.38-.194-.477-.114-.097-.275-.142-.465-.142Z" clip-rule="evenodd"/><path fill="currentColor" d="M8.913 6.57c0 .167-1.008.35-2.253.35s-2.256-.18-2.256-.35c0-.166 1.011-.256 2.256-.256 1.242 0 2.253.09 2.253.255Z"/><path fill="currentColor" fill-rule="evenodd" d="M4.462 6.53c-.029.018-.035.032-.035.04 0 .01.008.025.036.046.028.02.07.04.126.06.113.04.276.078.48.111.407.067.97.111 1.591.111.622 0 1.184-.045 1.59-.112.203-.033.367-.071.479-.111a.549.549 0 0 0 .126-.06c.028-.02.036-.036.036-.045 0-.008-.007-.022-.035-.04a.523.523 0 0 0-.126-.048 3.18 3.18 0 0 0-.48-.079 16.15 16.15 0 0 0-1.59-.066c-.622 0-1.185.023-1.592.066a3.182 3.182 0 0 0-.48.08.523.523 0 0 0-.126.048Zm.601-.172c.41-.043.974-.066 1.597-.066.622 0 1.186.023 1.595.066.204.022.371.049.487.08a.565.565 0 0 1 .137.054c.032.02.057.045.057.078s-.024.06-.055.082a.59.59 0 0 1-.137.065c-.116.041-.282.08-.487.114-.409.067-.973.112-1.597.112-.623 0-1.188-.045-1.598-.111a2.92 2.92 0 0 1-.488-.114.586.586 0 0 1-.137-.065c-.031-.023-.055-.05-.055-.083s.025-.058.057-.078a.564.564 0 0 1 .137-.053c.116-.032.283-.06.487-.08Z" clip-rule="evenodd"/><path fill="#FFD83D" d="M6.66 3.537a.105.105 0 1 0 0-.21.105.105 0 0 0 0 .21Z"/><path fill="currentColor" fill-rule="evenodd" d="M6.66 3.35a.082.082 0 1 0 0 .164.082.082 0 0 0 0-.165Zm-.128.082a.127.127 0 1 1 .255 0 .127.127 0 0 1-.255 0Z" clip-rule="evenodd"/><path fill="#FFD83D" d="M6.66 3.771a.111.111 0 1 0 0-.222.111.111 0 0 0 0 .222Z"/><path fill="currentColor" fill-rule="evenodd" d="M6.66 3.571a.088.088 0 1 0 0 .177.088.088 0 0 0 0-.177Zm-.134.089a.134.134 0 1 1 .267 0 .134.134 0 0 1-.267 0Z" clip-rule="evenodd"/><path fill="#FFD83D" d="M6.66 4.029a.123.123 0 1 0 0-.246.123.123 0 0 0 0 .246Z"/><path fill="currentColor" fill-rule="evenodd" d="M6.66 3.805a.1.1 0 1 0 0 .201.1.1 0 0 0 0-.2Zm-.145.1a.146.146 0 1 1 .29 0 .146.146 0 0 1-.29 0Z" clip-rule="evenodd"/><path fill="#FFD83D" d="M6.66 4.32a.141.141 0 1 0 0-.282.141.141 0 0 0 0 .282Z"/><path fill="currentColor" fill-rule="evenodd" d="M6.66 4.06a.119.119 0 1 0 0 .237.119.119 0 0 0 0-.237Zm-.163.119a.164.164 0 1 1 .327 0 .164.164 0 0 1-.327 0Z" clip-rule="evenodd"/><path fill="#FFD83D" d="M6.66 4.635a.153.153 0 1 0 0-.306.153.153 0 0 0 0 .306Z"/><path fill="currentColor" fill-rule="evenodd" d="M6.66 4.352a.13.13 0 1 0 0 .26.13.13 0 0 0 0-.26Zm-.176.13a.175.175 0 1 1 .351 0 .175.175 0 0 1-.35 0Z" clip-rule="evenodd"/><path fill="currentColor" d="M6.6 4.775c-.018 0-.033.015-.03.042l.018.13c.006.044.03.03.04 0 .005-.037.002-.06.005-.124 0-.033-.018-.048-.036-.048H6.6Zm.12 0c-.018 0-.033.015-.033.048 0 .063 0 .087.006.12.006.036.03.048.04 0l.014-.126c.006-.03-.012-.042-.027-.042Zm-.23.018a.03.03 0 0 0-.03.03c0 .03.008.07.011.114.006.045.04.03.042 0 0-.024.006-.066 0-.117 0-.018-.006-.027-.018-.03H6.49v.003Zm.332 0c-.009 0-.018.01-.02.03a.603.603 0 0 0 .005.114c0 .03.036.045.04 0 0-.045.011-.08.011-.11 0-.019-.015-.03-.03-.034h-.006Zm-.462.051c-.015.003-.03.021-.024.04a.553.553 0 0 1 .018.12c0 .032.027.02.03 0 .003-.04.004-.08.003-.12 0-.03-.015-.043-.03-.04h.003Zm.588 0c-.009.003-.018.015-.018.04l.006.12c0 .02.03.032.03 0 0-.04.006-.082.015-.12.006-.019-.009-.037-.02-.04h-.014Zm-1.77.006c-.018 0-.03.021-.018.045.018.042.04.066.057.108.015.04.042.015.033-.012l-.042-.11c-.009-.022-.02-.03-.03-.03Zm2.964 0c-.012 0-.02.01-.03.03-.027.057-.036.084-.045.111-.006.03.018.051.036.012l.054-.108c.012-.024 0-.045-.015-.045Zm-2.844 0c-.015.006-.02.021-.015.04.018.035.04.074.054.113.012.033.042.024.03-.006l-.03-.11c-.012-.03-.03-.04-.039-.037Zm2.715 0c-.012.003-.024.015-.03.036-.02.06-.024.078-.033.111-.012.03.018.04.03.006l.054-.114c.006-.018 0-.033-.012-.039h-.009Zm-2.565.03c-.018.003-.03.027-.018.057.012.036.03.07.048.111.018.042.045.033.04.006-.01-.027-.016-.069-.037-.135-.009-.03-.02-.042-.033-.039Zm2.424 0c-.012 0-.027.01-.036.04-.018.065-.03.107-.033.134-.009.03.021.036.036-.006.018-.042.036-.075.048-.11.012-.03 0-.055-.015-.058Zm-2.796.021c-.018 0-.03.03-.02.051.014.03.026.042.041.078.018.036.036.01.03-.015a.474.474 0 0 1-.024-.084c-.006-.024-.018-.03-.03-.03h.003Zm3.168 0c-.012 0-.02.006-.03.03l-.02.084c-.007.024.011.051.03.015.014-.036.023-.045.041-.078.01-.02-.006-.048-.02-.05Zm-2.01.084c-.02 0-.039.024-.03.045.006.036.024.066.033.111.012.04.04.021.036-.006a.86.86 0 0 0-.015-.12c-.006-.02-.015-.03-.027-.03h.003Zm.852 0c-.009 0-.02.01-.024.03a.862.862 0 0 0-.018.12c0 .027.027.045.036.006l.036-.11c.006-.022-.012-.046-.03-.046Zm-.426.036c-.024 0-.027.03-.027.051a.369.369 0 0 1-.06.192c-.03.036-.069.027-.105.006a.67.67 0 0 1-.099-.066c-.042-.03-.072-.012-.024.057.138.198.288.366.288.69 0 .04.01.051.027.051.018 0 .024-.012.024-.054 0-.32.15-.489.288-.69.048-.066.018-.084-.02-.054a.63.63 0 0 1-.1.066c-.039.021-.078.03-.105-.006a.37.37 0 0 1-.06-.192c-.003-.02-.006-.05-.03-.05h.003Zm-1.059-.048h-.006c-.009.003-.012.012-.009.03l.033.117c.01.03.042.021.036-.015l-.018-.093c-.006-.024-.024-.039-.036-.039Zm2.118 0c-.015 0-.03.015-.036.04-.012.041-.012.053-.018.09-.009.038.027.044.033.017L7.734 5c0-.015-.003-.024-.012-.027h-.006.003Zm-2.748.012c-.018 0-.03.024-.012.054.018.036.051.078.066.105.015.024.042.006.024-.024-.018-.03-.024-.069-.048-.114a.03.03 0 0 0-.03-.02Zm3.375 0c-.009 0-.02.006-.03.021-.02.045-.03.081-.045.114-.018.03.006.048.021.024.015-.027.048-.069.066-.105.018-.03.006-.054-.012-.054Zm-4.326.1c-.018 0-.024.035-.006.06.024.029.05.056.078.08.024.024.03-.006.018-.03l-.054-.08c-.015-.022-.027-.03-.036-.03Zm5.277 0c-.009 0-.02.008-.033.03l-.057.08c-.012.024-.006.054.021.03a.569.569 0 0 0 .078-.08c.018-.025.012-.06-.009-.06Zm-5.124.03c-.018 0-.03.011-.015.038l.057.114c.015.03.06.04.042-.006l-.039-.114a.05.05 0 0 0-.045-.03v-.003Zm4.974 0a.055.055 0 0 0-.048.032l-.036.114c-.018.045.027.036.042.006.015-.03.04-.075.054-.114.015-.027.003-.039-.012-.039Zm-5.268.011c-.024 0-.024.021-.003.036.027.021.06.042.09.07.04.03.051 0 .03-.025-.018-.024-.036-.048-.087-.075-.012-.006-.02-.006-.03-.006Zm5.56 0c-.007 0-.019 0-.03.006a.278.278 0 0 0-.09.075c-.019.027-.004.054.032.024.03-.027.066-.048.09-.069.024-.015.021-.036 0-.036h-.003Zm-3.289.021c-.015 0-.024.015-.02.036l.03.108c.005.033.044.033.038 0-.006-.03-.009-.069-.02-.117-.004-.018-.013-.027-.025-.03H6.15v.003Zm1.014 0c-.009 0-.018.01-.024.03-.012.045-.015.084-.02.117-.007.03.032.03.038-.003l.03-.108c.006-.02-.006-.036-.018-.036h-.006Zm-1.92-.06c-.009 0-.015.021-.006.051a.78.78 0 0 1 .048.27c-.009.036-.03.04-.057.03a.564.564 0 0 1-.084-.05c-.024-.016-.05.002-.015.032.18.15.31.321.36.528.006.042.033.048.027 0-.042-.26-.05-.477.012-.609.024-.05 0-.099-.036-.018-.027.054-.066.075-.099.03a1.438 1.438 0 0 1-.12-.23c-.006-.022-.015-.03-.024-.034h-.006Zm2.823 0c-.009 0-.018.012-.024.03a1.43 1.43 0 0 1-.12.234c-.033.048-.072.024-.096-.03-.039-.08-.06-.033-.039.018.063.132.054.348.015.61-.009.047.018.041.03 0a.972.972 0 0 1 .354-.529c.036-.03.01-.048-.015-.03a.539.539 0 0 1-.084.045c-.03.012-.048.01-.057-.03-.006-.036.006-.117.051-.27.006-.024 0-.045-.009-.048h-.006Zm-3.735.072c-.015 0-.03.012-.02.036.011.042.035.084.044.108.01.027.036.015.03-.02l-.015-.094c0-.018-.02-.03-.039-.03Zm4.653 0c-.018 0-.036.012-.039.03l-.012.093c-.006.036.021.048.03.021.006-.024.03-.066.042-.108.01-.024-.003-.036-.02-.036Zm-4.089-.05c-.018-.004-.02.044-.006.065l.084.093c.024.03.04.003.024-.02l-.078-.115c-.009-.015-.018-.024-.024-.024Zm3.525 0c-.006 0-.015.008-.024.023l-.078.114c-.015.024 0 .051.027.021l.081-.093c.015-.02.015-.069-.006-.066Zm-3.96.12c-.012 0-.02.005-.015.03.006.035.015.06.024.092.01.03.03.027.03-.003l-.009-.096a.033.033 0 0 0-.03-.027v.003Zm4.395 0a.03.03 0 0 0-.03.023l-.009.096c0 .03.024.036.03.003l.027-.09c.006-.027-.006-.036-.018-.036v.003Zm-4.002.041c-.018 0-.033.021-.012.048.033.045.072.075.087.09.012.018.045.012.024-.02l-.069-.106c-.006-.012-.018-.015-.03-.012Zm3.6 0c-.006 0-.015.003-.018.012l-.072.105c-.02.033.012.04.027.024.012-.018.051-.048.087-.093.021-.03.003-.048-.015-.048h-.009Zm-4.22.123c-.013 0-.019.012 0 .04a.51.51 0 0 1 .098.191c.003.042-.015.042-.033.042-.057 0-.084-.042-.132-.054-.05-.009-.06.015-.024.042.172.11.322.25.441.414.03.057.07.075.048.024a.711.711 0 0 1-.072-.378c.015-.084.036-.138.033-.186 0-.045-.03-.042-.039 0l-.03.084c-.012.015-.054.024-.09-.027a1.44 1.44 0 0 0-.168-.174.08.08 0 0 0-.03-.018h-.003Zm4.85 0c-.009 0-.02.006-.033.018-.06.054-.115.112-.165.174-.039.051-.08.042-.09.03a.36.36 0 0 1-.03-.087c-.012-.042-.039-.045-.042 0 0 .048.018.102.033.186a.708.708 0 0 1-.069.378c-.024.051.018.03.048-.024a1.59 1.59 0 0 1 .438-.414c.036-.027.03-.05-.02-.042-.052.012-.079.054-.133.054-.018 0-.039 0-.036-.042a.557.557 0 0 1 .1-.192c.017-.03.014-.039 0-.039Z"/><path fill="#FFD83D" d="m4.503 6.38.06.184-.06-.183Zm.12-.035.054.186-.054-.186Zm.132-.024.036.192-.036-.192Zm.12-.021.039.189-.04-.19Zm.153-.015.03.192-.03-.192Zm.165 0 .033.189-.033-.19Zm.162-.054.024.192-.024-.192Zm.15.009.024.192-.024-.192Zm.147-.018.024.192-.024-.192Zm.144-.018.015.195-.015-.195Zm.159 0 .012.195-.012-.195Zm.144-.01.009.196-.01-.195Zm.156-.008.009.192-.01-.192Zm.18-.006.009.195-.01-.195Zm2.379.2-.06.184.06-.183Zm-.12-.035-.051.186.05-.186Zm-.13-.024-.035.192.036-.192Zm-.12-.021-.038.189.039-.19Zm-.158-.015-.03.192.03-.192Zm-.162 0-.033.192.033-.192Zm-.16-.054-.023.192.024-.192Zm-.152.009-.024.192.024-.192Zm-.144-.018-.027.192.027-.192Zm-.147-.018-.015.195.015-.195Zm-.16 0-.011.195.012-.195Zm-.14-.01-.01.196.01-.195Zm-.16-.008-.005.192.006-.192Zm-.18-.006-.005.195.006-.195Zm-.221-.015v.216-.216Z"/><path fill="currentColor" fill-rule="evenodd" d="M6.66 6.143c.013 0 .023.01.023.022v.216a.022.022 0 1 1-.045 0v-.216c0-.012.01-.022.022-.022Zm-.226.015a.022.022 0 0 1 .024.021l.009.195a.023.023 0 0 1-.045.002l-.009-.195c0-.012.009-.023.021-.023Zm.45 0c.012 0 .021.01.021.023l-.006.195a.023.023 0 0 1-.045-.002l.006-.195c0-.012.01-.022.023-.021Zm-.63.006a.022.022 0 0 1 .024.021l.009.192a.022.022 0 1 1-.045.002l-.009-.192c0-.012.009-.023.021-.023Zm.81 0c.012 0 .021.01.021.023l-.006.192a.023.023 0 0 1-.045-.002l.006-.192c0-.012.01-.022.023-.021Zm-.966.009a.022.022 0 0 1 .024.021l.009.195a.023.023 0 0 1-.045.002l-.009-.195c0-.012.009-.023.021-.023Zm1.125 0a.02.02 0 0 1 .02.023l-.008.195a.022.022 0 1 1-.045-.002l.009-.195c0-.012.011-.022.024-.021Zm-1.428.009a.022.022 0 0 1 .024.02l.015.195a.023.023 0 0 1-.045.004l-.015-.195c0-.013.008-.023.02-.024Zm1.728 0a.023.023 0 0 1 .02.024L7.53 6.4a.023.023 0 1 1-.045-.004l.015-.195a.022.022 0 0 1 .024-.02Zm-1.569 0a.022.022 0 0 1 .024.02l.012.196a.023.023 0 0 1-.045.002l-.012-.195c0-.012.009-.023.021-.023Zm1.41 0a.02.02 0 0 1 .02.023l-.011.195a.023.023 0 0 1-.045-.002l.012-.195c0-.013.011-.022.024-.021Zm.308.018c.012.002.02.013.019.025l-.027.192a.022.022 0 1 1-.045-.006l.027-.192a.023.023 0 0 1 .026-.02Zm-2.022 0a.023.023 0 0 1 .025.02l.024.191a.023.023 0 0 1-.045.006l-.024-.192a.022.022 0 0 1 .02-.025Zm-.297.009a.023.023 0 0 1 .025.02l.024.191a.023.023 0 0 1-.045.006l-.024-.192a.022.022 0 0 1 .02-.025Zm2.615 0a.023.023 0 0 1 .02.025l-.024.192a.023.023 0 0 1-.045-.006l.024-.192a.022.022 0 0 1 .025-.02Zm-2.465.009a.023.023 0 0 1 .025.02l.024.191a.023.023 0 0 1-.045.006l-.024-.192a.022.022 0 0 1 .02-.025Zm2.312 0a.023.023 0 0 1 .02.025l-.024.192a.023.023 0 0 1-.045-.006l.024-.192a.022.022 0 0 1 .025-.02Zm-2.625.045a.023.023 0 0 1 .026.018l.033.19a.023.023 0 0 1-.045.007l-.033-.189a.023.023 0 0 1 .019-.026Zm2.938 0c.013.002.02.014.019.026l-.033.192a.022.022 0 0 1-.045-.008l.033-.192a.023.023 0 0 1 .026-.018Zm-3.103 0a.022.022 0 0 1 .026.019l.03.192a.023.023 0 1 1-.045.007l-.03-.192a.022.022 0 0 1 .019-.026Zm3.265 0c.012.002.02.013.019.026l-.03.192a.022.022 0 1 1-.045-.007l.03-.192a.023.023 0 0 1 .026-.02Zm-3.42.015a.022.022 0 0 1 .027.018l.04.189a.023.023 0 0 1-.045.009l-.039-.19a.023.023 0 0 1 .018-.026Zm3.58 0c.012.003.02.014.018.027l-.04.189a.022.022 0 1 1-.044-.01l.04-.188a.022.022 0 0 1 .026-.018Zm-3.699.021a.023.023 0 0 1 .027.018l.036.192a.022.022 0 0 1-.045.008l-.036-.192a.023.023 0 0 1 .018-.026Zm3.819 0c.012.002.02.014.018.026l-.036.192a.022.022 0 0 1-.045-.008l.036-.192a.023.023 0 0 1 .027-.018Zm-3.953.024a.023.023 0 0 1 .028.016l.054.186a.022.022 0 1 1-.043.012l-.054-.186a.022.022 0 0 1 .015-.028Zm4.083 0a.022.022 0 0 1 .016.028l-.05.186a.023.023 0 0 1-.044-.012l.05-.186a.022.022 0 0 1 .028-.016Zm-4.204.037a.022.022 0 0 1 .029.014l.06.183a.022.022 0 1 1-.043.014l-.06-.183a.023.023 0 0 1 .014-.028Zm4.325 0a.022.022 0 0 1 .015.028l-.06.183a.022.022 0 1 1-.043-.014l.06-.183a.022.022 0 0 1 .028-.014Z" clip-rule="evenodd"/></g><defs><clipPath id="a"><path fill="#fff" d="M0 0h24v18H0z"/></clipPath></defs></svg>