<svg xmlns="http://www.w3.org/2000/svg" width="24" height="18" fill="none"><g clip-path="url(#a)"><path fill="#FFB700" d="M0 0h24v18H0V0Z"/><path fill="#FF5B00" d="m1.001 9 3.3-8h3.3v15.998h-3.3l-3.3-8Z"/><path fill="#005641" d="M1.001 1.001h3.3v15.998h-3.3V1Z"/><path fill="#8D2029" d="M8.6 1.001h14.5v15.998H8.6V1Z"/><path fill="#FFB700" d="M21.724 15.323s.135.274.285.39c.225.165.675.15.873.348.23.23-.018.533-.018.563l.015.158s-.158 0-.225.01c-.098.016-.135.098-.323.087-.461-.03-.442-.45-.469-.806-.022-.135-.075-.315-.108-.45-.027-.113-.03-.3-.03-.3Z"/><path fill="currentColor" fill-rule="evenodd" d="M21.724 15.323h-.02v.031c0 .02.002.047.004.078.005.06.012.137.026.195l.031.122c.03.11.06.23.077.326l.006.093c.01.15.019.308.066.437.03.08.073.15.14.202a.489.489 0 0 0 .276.092.394.394 0 0 0 .238-.051l.002-.002a.634.634 0 0 1 .027-.013.206.206 0 0 1 .06-.02 1.233 1.233 0 0 1 .196-.01l.019-.001h.029l-.016-.177v-.002a.196.196 0 0 1 .007-.013l.01-.016.001-.004.014-.025a.787.787 0 0 0 .062-.142c.034-.112.04-.254-.082-.376a.569.569 0 0 0-.196-.12 1.966 1.966 0 0 0-.28-.083 3.142 3.142 0 0 1-.202-.055.697.697 0 0 1-.198-.093.957.957 0 0 1-.194-.233 1.923 1.923 0 0 1-.083-.147l-.001-.002-.04.009h.02Zm.024.088.002.018c.004.06.011.134.024.189l.03.118c.03.111.062.234.079.333v.002l.007.097c.009.15.018.3.063.423a.396.396 0 0 0 .127.183c.06.046.14.077.253.084a.354.354 0 0 0 .216-.047l.002-.001a.838.838 0 0 1 .029-.015.245.245 0 0 1 .07-.023 1.23 1.23 0 0 1 .203-.011h.003l-.013-.136v-.001l.002-.01c0-.003.002-.005.003-.007a.243.243 0 0 1 .017-.033l.002-.004.014-.024a.739.739 0 0 0 .058-.135c.032-.104.036-.228-.071-.335a.526.526 0 0 0-.182-.11 1.927 1.927 0 0 0-.274-.081c-.07-.018-.14-.035-.206-.057a.737.737 0 0 1-.21-.099.995.995 0 0 1-.203-.244 2.187 2.187 0 0 1-.045-.073Z" clip-rule="evenodd"/><path fill="#FFB700" d="m13.632 12.743.086-.053.038.053c.049.067.187.063.277 0l.072-.056.06.052c.075.071.217.071.31 0 .065-.045.076-.049.113-.011a.441.441 0 0 0 .165.056c.12.015.12.015.188-.09.06-.086.067-.12.056-.206a2.287 2.287 0 0 1-.022-.199c-.008-.098-.004-.098.135-.15.069-.021.136-.046.202-.075.056-.034.214-.217.214-.255 0-.007-.06-.022-.135-.03-.3-.037-.349-.195-.154-.488.311-.487.503-.956.503-1.252 0-.135.01-.18.026-.15.071.116-.056.615-.244.975l-.075.143.071-.015c.038-.012.278-.113.525-.226.683-.307.915-.367 1.358-.348.371.015.525.086.787.36.14.15.274.251.518.405.517.322.54.352.566.735.026.386.011.409-.281.472-.251.056-.409.173-.45.338-.023.082.026.086.15.004l.094-.06.04.06c.057.078.17.078.263 0l.075-.057.075.056c.113.094.263.072.308-.044.007-.02.03-.015.075.026.086.075.3.105.322.045.008-.023-.007-.075-.037-.12-.124-.188-.165-.274-.165-.375 0-.143.037-.214.202-.326.195-.143.255-.323.105-.323-.09 0-.183-.083-.243-.214-.12-.27-.094-.57.086-1.072a2.16 2.16 0 0 0 .202-.945c0-.278-.007-.323-.067-.477a1.698 1.698 0 0 0-.173-.303l-.105-.139.132-.113c.405-.333.322-.88-.165-1.09-.15-.068-.188-.072-.45-.072-.15 0-.394.022-.525.049a3.683 3.683 0 0 1-.533.045c-.255 0-.3-.008-.397-.06-.102-.053-.12-.079-.14-.207a.075.075 0 0 0-.04-.056c-.038-.011-.195.128-.218.188-.015.033-.022.03-.056-.012a.503.503 0 0 1-.075-.135c-.038-.123.011-.213.157-.285l.113-.052-.068-.041c-.135-.087-.367-.027-.45.112-.026.038-.052.075-.06.075a.428.428 0 0 1-.097-.086c-.176-.173-.116-.428.12-.503.124-.04.236-.01.259.075.037.124.142-.04.123-.195-.01-.1-.01-.105.06-.105.098 0 .3.128.368.225.075.117.067.3-.015.435l-.064.105.086-.015a.494.494 0 0 0 .3-.195.45.45 0 0 0 .015-.39c-.056-.1-.048-.116.034-.082.135.056.21.12.263.229.052.097.056.12.03.225a.633.633 0 0 1-.083.18c-.045.06-.049.071-.011.071a.494.494 0 0 0 .251-.113.506.506 0 0 0 .083-.15l.037-.093.038.075a.65.65 0 0 0 .303.255c.147.06.207.063.132.007-.053-.037-.15-.319-.117-.345.162.09.31.205.44.338.213.191.348.255.543.255.251 0 .397-.218.285-.424-.064-.12-.21-.139-.3-.038-.038.05-.049.087-.038.14.015.06.012.067-.045.067-.075 0-.217-.094-.472-.308a3.825 3.825 0 0 0-1.204-.701 2.64 2.64 0 0 0-.911-.049 1.53 1.53 0 0 0-.683.33c-.273.263-.277.611-.01.93l.074.09-.049.083a.35.35 0 0 0 .015.39c.038.052.075.093.087.093.007 0 .015-.033.018-.075.008-.1.053-.168.128-.195.067-.026.112-.01.42.113.326.127.862.135 1.432.022.247-.057.505-.054.75.008.27.112.33.401.135.619-.086.097-.165.135-.438.21a2.036 2.036 0 0 1-.732.056c-.405-.004-.55.004-.712.037-.184.038-.293.042-.818.03l-.61-.015.067.053a.829.829 0 0 0 .116.086c.049.026.045.03-.023.056a.689.689 0 0 1-.198.027h-.124l-.015.105c-.01.05-.01.1 0 .15.015.037.007.045-.03.03a.97.97 0 0 0-.161-.042 1.002 1.002 0 0 1-.188-.06c-.071-.037-.079-.037-.105.012-.022.037-.232.195-.262.195a.998.998 0 0 0-.083-.282c-.037-.078-.071-.168-.082-.195-.012-.04-.02-.045-.038-.01a.667.667 0 0 0-.037.12.58.58 0 0 1-.068.172l-.056.082-.038-.071c-.037-.075-.097-.158-.12-.158-.007 0-.018.023-.026.057-.019.06-.165.236-.202.236-.012 0-.023-.049-.023-.113 0-.056-.011-.108-.026-.108s-.026.018-.026.037c0 .045-.124.188-.17.188-.014 0-.044.015-.063.037-.045.049-.082.041-.064-.015a.337.337 0 0 0-.015-.142l-.037-.12c-.008-.019-.053-.012-.15.018-.15.05-.203.038-.124-.022a.426.426 0 0 0 .098-.173c.026-.075.063-.138.082-.146.026-.007.026 0-.007.045a.214.214 0 0 0-.042.098.415.415 0 0 1-.037.108c-.023.038-.038.075-.034.08a.592.592 0 0 0 .131-.05l.12-.06v.053c0 .03.015.105.034.169l.034.112.082-.037c.083-.038.162-.173.162-.282 0-.052.03-.045.045.012 0 .015.022.078.037.138l.038.105.056-.067a.515.515 0 0 0 .086-.161c.03-.09.075-.132.075-.064 0 .045.128.217.15.202.015-.007.038-.07.056-.142.038-.15.094-.248.132-.225.015.007.018.022.01.037a.722.722 0 0 0 .068.21l.098.237c.015.037.03.037.124-.049a.58.58 0 0 0 .116-.128c.011-.03.022-.026.075.008.11.058.232.094.356.105a.48.48 0 0 0 .015-.15l.004-.139.075.015a.52.52 0 0 0 .187 0l.113-.015-.101-.075a.593.593 0 0 1-.128-.109c-.011-.022-.064-.045-.12-.048-.154-.015-.427-.165-.427-.24 0-.015.037.011.082.052.105.094.248.15.375.15h.09l-.056-.075a.446.446 0 0 1-.075-.195c-.008-.112-.019-.127-.135-.206a1.32 1.32 0 0 1-.188-.161l-.063-.072-.034.087c-.019.048-.038.086-.049.086a.267.267 0 0 1-.075-.064.261.261 0 0 0-.075-.06c-.011 0-.037.045-.067.101l-.053.102-.037-.057a.888.888 0 0 0-.113-.127c-.045-.038-.064-.068-.049-.068s.064.038.113.087l.082.086.038-.064a.225.225 0 0 0 .019-.142c-.015-.068-.012-.072.01-.027a.6.6 0 0 0 .113.113l.083.067.056-.1c.056-.106.056-.106.079-.042.037.079.281.281.487.397.038.02.023-.04-.037-.187a.475.475 0 0 1-.03-.15c0-.068-.019-.098-.105-.165a.408.408 0 0 1-.188-.315.424.424 0 0 0-.052-.154c-.023-.037-.03-.015-.023.098a.53.53 0 0 1-.022.217l-.03.075-.023-.064a.43.43 0 0 0-.13-.13c-.057-.038-.098-.076-.09-.083.007-.008.067.026.13.075.102.078.12.086.135.052.015-.037 0-.21-.03-.33-.015-.06-.015-.06.06.015.053.053.083.12.11.233.03.142.044.168.175.285.08.071.15.123.154.12.008-.008.015-.188.023-.405.015-.417 0-.518-.102-.645l-.052-.068.082-.086a.6.6 0 0 0 .177-.33l.015-.101-.09.086c-.075.071-.113.086-.2.086-.085 0-.12-.015-.175-.075a.75.75 0 0 0-.312-.18c-.045-.015-.06-.007-.06.023a.438.438 0 0 1-.052.138l-.053.098-.112-.113a.574.574 0 0 0-.214-.135c-.154-.037-.161-.037-.161.08 0 .175-.075.21-.21.093-.105-.09-.188-.113-.386-.086l-.15.015.026.067c.022.056.019.083-.03.146-.079.105-.18.15-.338.15a.566.566 0 0 0-.202.034.805.805 0 0 1-.214.045 1.507 1.507 0 0 0-.187.03c-.038.015-.038 0-.027-.082.02-.128-.075-.225-.213-.225-.184 0-.267.165-.195.382.014.047.027.095.037.143.05.093.116.177.195.247.098.098.188.199.203.225.03.04.068.071.112.094l.083.045-.012-.09c-.01-.098.008-.113.06-.041a.515.515 0 0 0 .105.086c.064.037.075.037.075.007 0-.022.012-.07.027-.108l.026-.068.049.094a1.9 1.9 0 0 0 .19.262c.155.177.252.375.203.42-.022.02-.075.02-.187-.003a.923.923 0 0 0-.233-.019c-.086.011-.093 0-.037-.068.056-.075.045-.086-.068-.086-.13 0-.457-.064-.585-.112-.12-.049-.15-.038-.187.078l-.064.21-.037.113.135-.011c.07-.008.138-.02.206-.038a.225.225 0 0 1 .082-.011c.008.004-.01.049-.037.101l-.053.09.083-.015a.882.882 0 0 0 .15-.052c.067-.03.075-.03.127.056.064.101.113.097.124-.011.011-.113.049-.098.12.052.068.143.135.195.15.113.004-.03.038-.075.079-.105.082-.057.142-.038.176.048.038.094-.045.188-.277.33a1.613 1.613 0 0 0-.814 1.163c-.071.443.15.9.585 1.234.21.157.544.322.521.262-.09-.274-.086-.787.004-.873.015-.016.011.037-.011.116-.075.296-.038.528.15 1.076.165.495.142.709-.098.848-.075.044-.124.052-.33.048-.225 0-.251 0-.322.06a.59.59 0 0 0-.162.323c0 .049.053.041.15-.015h.004Z"/><path fill="#FFB700" d="m17.269 12.731.093-.06.064.06c.083.079.184.075.263-.004.037-.037.067-.06.07-.056l.035.06c.018.034.06.049.135.056.086.004.112 0 .15-.052l.037-.064.094.06c.255.165.39-.007.274-.349-.057-.172-.023-.27.16-.487.08-.094.143-.195.143-.225 0-.041-.015-.049-.12-.045-.097 0-.127-.011-.18-.068-.086-.093-.078-.202.015-.322l.075-.094-.135-.09a2.244 2.244 0 0 1-.3-.266.963.963 0 0 0-.656-.338l-.176-.018v.135c0 .168.082.333.3.61.247.316.262.365.274.777l.01.349-.074.067c-.064.06-.09.072-.3.083-.199.011-.244.022-.3.075a.326.326 0 0 0-.128.199c-.01.056-.007.067.034.067.026 0 .09-.026.143-.06Zm-5.333-.9a.218.218 0 0 0 .038-.112c0-.038.022-.053.12-.068l.116-.015-.075-.064c-.094-.075-.105-.13-.023-.13.083 0 .218-.083.24-.147a.097.097 0 0 0-.015-.086c-.045-.053-.13-.045-.146.015-.019.06-.045.06-.112 0-.094-.094-.098-.285 0-.398.04-.052.04-.052-.015-.109-.06-.06-.105-.172-.075-.202.007-.008.056 0 .105.019.075.022.1.022.13 0 .087-.072-.007-.162-.15-.14-.06.008-.082 0-.09-.03-.007-.022-.055-.052-.112-.067-.1-.026-.1-.026-.1.045 0 .075-.046.09-.128.042-.068-.038-.132-.008-.132.063 0 .068.064.098.188.09.09-.003.094.064.007.162l-.063.075.048.07c.075.106.068.282-.01.372l-.065.068-.04-.057c-.06-.075-.14-.07-.162.012-.011.052 0 .075.067.135a.296.296 0 0 0 .147.067c.086 0 .082.071-.008.139l-.075.056.113.015c.06.011.112.026.112.038 0 .048.075.195.098.195.015 0 .045-.027.067-.057v.004Z"/><path fill="#FFB700" d="M13.37 11.209c.1-.038.318-.225.318-.266a.59.59 0 0 0-.135-.15c-.15-.135-.319-.372-.364-.507-.022-.075-.131-.195-.439-.495l-.408-.394-.117.03c-.067.015-.146.03-.176.03-.056 0-.056 0 .019.06l.075.06.112-.06c.102-.06.105-.06.117-.01.007.025-.008.074-.038.108-.026.034-.041.075-.037.086.01.011-.015.038-.057.06-.075.038-.13.161-.07.161.055 0 .175-.15.16-.198-.007-.027 0-.053.008-.06.049-.027.045.09 0 .15-.03.03-.045.067-.038.082.008.011-.018.038-.06.06-.075.038-.13.162-.07.162s.175-.143.164-.196c-.007-.026-.007-.056.004-.063.034-.015.049.075.022.12a.086.086 0 0 0 0 .082c.027.049 0 .139-.048.169-.02.011-.008.037.045.075.075.053.075.06.075.3 0 .202.007.255.045.289.037.037.045.037.045 0 0-.038.075-.09.13-.09.02 0 .128.094.245.206.116.113.24.214.273.217l.083.015a.374.374 0 0 0 .116-.037v.004Zm-1.25-.979c0-.064-.135-.135-.296-.15-.131-.019-.131-.015-.131.049 0 .052.019.075.112.112.143.064.315.056.315-.011Z"/><path fill="#FFB700" d="M12.267 10.223c.067-.06.097-.128.056-.128-.045 0-.165.105-.165.15 0 .06.022.056.112-.022h-.003Zm-.14-.192c.005-.037-.018-.06-.085-.093-.15-.064-.323-.098-.364-.064-.079.064-.026.146.097.161.053.004.12.019.154.034.098.037.188.019.199-.038Zm0-.198c.008-.05-.025-.068-.3-.165-.205-.075-.295-.038-.228.086.023.041.06.06.146.075.064.007.15.026.192.041.112.038.18.023.187-.037h.004Zm.136-.184c.041-.041.075-.09.075-.113 0-.056-.161.05-.184.124-.022.086.019.083.113-.011h-.004Zm-.135-.011c.007-.06-.09-.113-.285-.154-.146-.034-.21-.015-.199.052.008.038.056.064.188.105.22.068.285.068.296-.003Zm.187-.278c.255-.112.274-.394.038-.469-.098-.03-.158-.01-.195.053-.03.052-.011.142.026.142.015 0 .026.02.026.038 0 .101-.382.142-.54.064-.056-.027-.075-.102-.033-.102.037 0 .06-.075.04-.123-.022-.075-.097-.098-.198-.068-.236.06-.229.338.011.45.266.098.557.103.825.015Z"/><path fill="#FFB700" d="M12.162 9.143c.015-.015.007-.038-.015-.053-.053-.041-.049-.105.007-.176.045-.053.05-.135.064-.941.026-1.392.131-2.438.266-2.693.057-.097.05-.097-.093 0a1.35 1.35 0 0 0-.44.51c-.232.431-.31 1.013-.31 2.258 0 .705.003.798.045.862.037.068.037.09.015.158-.02.04-.027.086-.02.093.053.05.428.038.48-.018Zm2.104-1.328c.01-.011-.008-.075-.038-.135-.045-.097-.064-.112-.127-.112a2.439 2.439 0 0 1-.863-.24c-.191-.087-.262-.105-.281-.083-.06.056.037.188.187.259.221.08.452.126.687.139.1 0 .105 0 .045.086l-.038.06h.113l.187.022c.113.027.113.027.128.004Z"/><path fill="currentColor" d="M15.45 8.442c0-.038-.108-.131-.213-.195-.086-.049-.101-.053-.101-.011 0 .06-.053.213-.075.213-.012 0-.03-.03-.038-.063a.57.57 0 0 0-.094-.162l-.075-.093-.052.086c-.053.082-.146.161-.188.161-.007 0-.01-.045 0-.094.004-.06 0-.105-.018-.112-.015-.011-.03-.008-.03.007 0 .03-.128.173-.15.173-.015 0-.03-.038-.038-.09l-.03-.18c-.007-.045.011-.015.038.075l.06.154.06-.094a.415.415 0 0 0 .06-.128c0-.018.01-.026.026-.018.015.007.034.07.041.138l.019.128.067-.075c.036-.038.068-.078.098-.12.026-.045.03-.045.086 0 .03.03.079.094.109.146.03.053.056.09.06.086l.022-.12.015-.112c.004-.019.203.112.278.176.045.041.09.071.097.064a.406.406 0 0 0 .015-.139c0-.105-.01-.135-.075-.191-.075-.068-.075-.068-.105-.019-.037.064-.078.064-.078 0 0-.045-.143-.221-.177-.221-.01 0-.04.037-.067.086-.026.049-.056.086-.064.086-.037 0-.236-.225-.236-.262 0-.03.015-.023.049.03.033.05.072.094.116.135.075.067.105.052.135-.079.011-.037.026-.067.037-.067.03 0 .203.183.225.243l.027.06.018-.067c.023-.083.05-.083.087-.008.015.03.09.098.165.143l.138.09.027-.09c.015-.049.037-.075.045-.06.015.019-.023.169-.05.199a.438.438 0 0 1-.097-.057l-.093-.067v.12a.944.944 0 0 1-.015.172c-.02.06-.064.075-.064.023h.004Zm-.693-.953c-.165-.135-.188-.165-.188-.232l.004-.068.011.064a.329.329 0 0 0 .105.143l.098.075.056-.068c.034-.037.06-.082.06-.097 0-.045.008-.042.12.056.098.086.101.086.113.03a.31.31 0 0 0 0-.131c-.038-.113-.03-.128.018-.06l.09.105c.038.04.042.04.057-.012a.478.478 0 0 0 .018-.127v-.071l.087.101c.086.097.093.101.116.052a.292.292 0 0 0 .03-.138c0-.068.007-.083.022-.06.03.045.012.157-.04.255l-.038.075-.05-.08c-.063-.097-.085-.097-.123.008-.037.102-.064.11-.101.03-.023-.048-.03-.04-.045.064l-.019.113-.112-.087-.113-.086-.056.056a.239.239 0 0 0-.049.09c0 .038-.03.038-.071 0Zm1.462-.51c-.056-.052-.097-.105-.09-.112.012-.011.02-.015.023-.008.036.04.074.077.112.113.128.135.102.139-.04.007h-.005Zm-1.95-.202c-.052-.075-.048-.12.02-.203.044-.056.067-.063.15-.052a.762.762 0 0 1 .258.105.795.795 0 0 0 .412.112l-.063-.105c-.083-.123-.083-.138.015-.063.097.078.213.101.476.093l.127-.003-.075-.075c-.1-.102-.07-.113.045-.012.105.094.102.102-.127.124a.862.862 0 0 1-.285-.019c-.128-.037-.135-.033-.109.008.015.026.038.045.049.045.015 0 .026.015.026.03 0 .049-.277.004-.412-.06-.3-.154-.338-.169-.413-.146a.162.162 0 0 0-.09.086c-.049.124.128.221.199.112.022-.033.019-.052-.019-.093-.052-.053-.045-.06.023-.038.048.019.052.135.007.18-.049.049-.169.038-.214-.026Z"/><path fill="currentColor" d="M15.466 6.473c-.038-.038-.008-.045.16-.049.21-.004.338-.037.488-.135.12-.075.154-.06.038.019a.888.888 0 0 1-.424.142l-.191.027c-.03.007-.064.003-.075-.004h.004Z"/></g><defs><clipPath id="a"><path fill="#fff" d="M0 0h24v18H0z"/></clipPath></defs></svg>