<svg xmlns="http://www.w3.org/2000/svg" width="24" height="18" fill="none"><g fill-rule="evenodd" clip-path="url(#a)" clip-rule="evenodd"><path fill="#fff" d="M0 0h26.997v18H0V0Z"/><path fill="#006" d="M0 0h8.18v8.184H0V0Z"/><path fill="#C00" d="M0 16.344h26.997V18H0v-1.656Z"/><path fill="#C00" d="M0 16.362h26.997V18H0v-1.638Zm0-3.266h26.997v1.624H0v-1.624Zm0-3.277h26.93v1.642H0V9.819ZM8.18 0h18.813v1.635H8.181V0Zm0 6.54h18.813v1.644H8.181V6.54Zm0-3.26h18.813v1.635H8.181V3.28Z"/><path fill="#fff" d="M5.847 6.24 4.064 5.15l-1.771 1.1.657-1.789-1.768-1.103 2.19-.015.678-1.782.696 1.779h2.19l-1.76 1.114.67 1.786Z"/></g><defs><clipPath id="a"><path fill="#fff" d="M0 0h24v18H0z"/></clipPath></defs></svg>