<svg xmlns="http://www.w3.org/2000/svg" width="24" height="18" fill="none"><g clip-path="url(#a)"><path fill="#fff" d="M0 0h24v18H0V0Z"/><path fill="#009543" d="M0 12.6h24V18H0v-5.4Z"/><path fill="#00209F" d="M0 0h24v5.4H0V0Z"/><path fill="currentColor" d="M11.986 5.738c-.102 0-.203.112-.203.112l.011 1.215-.386.401h.312v.694l-1.838 2.475-.27-.097-.476 1.012s1.174.735 2.876.713c1.867-.019 2.884-.746 2.884-.746l-.488-.998-.243.105-1.86-2.46v-.716h.307l-.42-.398V5.843s-.101-.113-.206-.109v.004Z"/><path fill="currentColor" fill-rule="evenodd" d="m12.214 5.822-.023.02.023-.02.007.009v1.206l.466.44h-.353v.677l1.84 2.433.248-.107.511 1.046-.02.015-.018-.025.018.025h-.001l-.003.002-.009.006-.036.024a4.355 4.355 0 0 1-.7.337 6.264 6.264 0 0 1-2.152.383 6 6 0 0 1-2.087-.35 5.337 5.337 0 0 1-.75-.335 1.875 1.875 0 0 1-.052-.03l-.003-.002.015-.026-.016.025-.022-.014.499-1.061.275.1 1.818-2.45v-.654h-.352l.427-.443-.011-1.214.007-.01.023.021-.023-.02.002-.002.004-.004a.412.412 0 0 1 .062-.054.31.31 0 0 1 .127-.06v-.005l.03-.001a.272.272 0 0 1 .16.058.493.493 0 0 1 .063.055l.004.004h.001v.001Zm-.401.04.011 1.215-.346.36h.27v.733l-1.856 2.5-.265-.095-.453.963.03.017a5.271 5.271 0 0 0 .741.331 5.94 5.94 0 0 0 2.066.347 6.201 6.201 0 0 0 2.132-.379 4.28 4.28 0 0 0 .689-.332l.025-.016-.464-.948-.239.103-1.88-2.487v-.757h.262l-.375-.354V5.855a.329.329 0 0 0-.05-.044.252.252 0 0 0-.096-.045v.001h-.03a.221.221 0 0 0-.121.05.468.468 0 0 0-.043.037l-.008.008Zm.199 6.43v-.03.03Z" clip-rule="evenodd"/><path fill="currentColor" fill-rule="evenodd" d="M11.968 6.117a.802.802 0 0 0-.565.214c-.143.138-.25.356-.285.676-.032.306.056.693.16 1.017a5.468 5.468 0 0 0 .175.467h1.077l.032-.074c.042-.1.097-.242.15-.403.106-.33.192-.721.149-1.028-.047-.33-.144-.543-.28-.673-.133-.128-.327-.198-.613-.196Zm.659 2.524v.15H11.26l-.04-.086.135-.064-.135.064v-.001l-.002-.003-.004-.009a5.75 5.75 0 0 1-.221-.576c-.107-.331-.212-.769-.173-1.141.04-.371.17-.661.375-.86a1.1 1.1 0 0 1 .77-.298c.337-.002.616.08.823.279.205.196.319.484.37.847.053.38-.052.826-.16 1.163a5.44 5.44 0 0 1-.23.587l-.002.004a.178.178 0 0 0-.003.006v.002h-.001v.001l-.135-.065Z" clip-rule="evenodd"/><path fill="#fff" d="M9.769 10.953a6.209 6.209 0 0 0-.176.334l.262-.056-.086-.278Zm.15.394-.277.09.333.131-.056-.22Zm.124-.386.139.409.337-.098-.086-.195-.39-.116Zm.217.555.045.165.45.112-.18-.382-.315.105Zm.495-.349.161.383.338-.132-.112-.168-.387-.083Zm.225.521.053.143.525.075-.222-.345-.36.127h.004Zm.503-.412.195.341.487-.18-.052-.131-.63-.026v-.004Zm.285.465.101.18.607-.019-.225-.337-.487.176h.004Zm.641-.45.165.285.39-.188-.105-.15-.45.053Zm.637.217-.386.192.101.168.518-.082-.232-.278Zm.124-.3.199.252.326-.26-.112-.112-.413.12Zm.597.132-.312.236.083.146.427-.112-.198-.27Zm.427-.488.075.109-.214.319-.221-.285.36-.143Zm.146.274.132.262-.263.09-.022-.123.15-.225.003-.004Z"/></g><defs><clipPath id="a"><path fill="#fff" d="M0 0h24v18H0z"/></clipPath></defs></svg>