<svg xmlns="http://www.w3.org/2000/svg" width="24" height="18" fill="none"><g clip-path="url(#a)"><path fill="#C1272D" d="M24 0H0v18h24V0Z"/><path fill="#006233" fill-rule="evenodd" d="m12 6.017.671 2.066h2.165l-1.752 1.27.668 2.058L12 10.14l-1.752 1.27.668-2.056-1.752-1.271h2.165L12 6.017Zm-.813 2.505h-.67l.542.393.128-.393Zm.245.664.216-.664h.704l.216.664-.568.412-.568-.412Zm-.142.439-.208.639.544-.395-.336-.244Zm1.084.244.544.395-.207-.64-.337.245Zm.567-.954.543-.393h-.67l.127.393Zm-.731-.832h-.42l.21-.646.21.646Z" clip-rule="evenodd"/></g><defs><clipPath id="a"><path fill="#fff" d="M0 0h24v18H0z"/></clipPath></defs></svg>