<svg xmlns="http://www.w3.org/2000/svg" width="24" height="18" fill="none"><g fill-rule="evenodd" clip-path="url(#a)" clip-rule="evenodd"><path fill="#00319C" d="M0 0h7.999v18H0V0Z"/><path fill="#FFDE00" d="M7.999 0h8.003v18H7.998V0Z"/><path fill="#DE2110" d="M16.001 0H24v18h-8V0Z"/><path fill="#FF1900" d="m13.515 12.015.907 1.312c.053.075.101.146.026.195-.075.049-.052.24 0 .315.102.146.225.169.3.12l.69-.435c.075-.045.102-.168 0-.315-.056-.075-.225-.168-.3-.12-.078.049-.13-.026-.18-.097l-.91-1.313"/><path fill="currentColor" d="m14.058 11.67.911 1.313c.025.036.05.07.076.09.013.01.026.016.04.017a.076.076 0 0 0 .046-.013.12.12 0 0 1 .08-.014.41.41 0 0 1 .238.137c.103.15.08.283-.004.334l-.69.435c-.083.054-.214.026-.317-.124a.357.357 0 0 1-.041-.267.115.115 0 0 1 .044-.066.069.069 0 0 0 .03-.034.064.064 0 0 0 0-.04.391.391 0 0 0-.06-.103l-.907-1.312.021-.015.908 1.312a.414.414 0 0 1 .063.112.09.09 0 0 1 0 .055.095.095 0 0 1-.04.047.09.09 0 0 0-.034.052.333.333 0 0 0 .037.245c.1.143.216.16.282.116l.69-.435c.066-.04.096-.153-.003-.296a.385.385 0 0 0-.22-.127.094.094 0 0 0-.062.01.102.102 0 0 1-.063.017.103.103 0 0 1-.054-.021.435.435 0 0 1-.081-.097l-.912-1.313.022-.015Z"/><path fill="#A77B3B" d="M13.871 11.09c.406.461.547.99.316 1.176-.231.186-.752-.038-1.158-.499-.406-.46-.545-.991-.314-1.177.232-.186.75.036 1.158.498l-.002.002Z"/><path fill="currentColor" d="M12.664 11.068c.055.208.189.452.39.68.2.227.428.395.632.483.207.089.379.092.48.011.1-.081.127-.244.07-.454a1.777 1.777 0 0 0-.39-.678l-.02-.024.001-.001a1.853 1.853 0 0 0-.612-.46c-.207-.09-.379-.092-.48-.011-.1.08-.127.244-.071.454Zm1.252.026.002-.002-.02-.023a1.937 1.937 0 0 0-.657-.501c-.213-.091-.417-.107-.547-.002-.13.105-.15.3-.093.517.058.219.197.47.403.704.205.233.44.408.656.5.213.092.417.107.547.002.13-.104.15-.3.092-.515a1.818 1.818 0 0 0-.383-.68Z"/><path fill="#FF1900" d="m9.825 11.479-.806 1.376c-.045.075-.09.15-.17.113-.078-.045-.247.063-.292.142-.09.15-.056.27.027.315l.72.383c.075.041.202.007.292-.143.041-.082.053-.273-.026-.315-.079-.041-.038-.12.011-.195l.803-1.376"/><path fill="currentColor" d="m9.008 12.848.806-1.376.023.013-.807 1.377v.001a.413.413 0 0 1-.074.1.106.106 0 0 1-.05.026c-.02.004-.04 0-.061-.01h-.001c-.016-.01-.038-.011-.064-.006a.352.352 0 0 0-.21.144.294.294 0 0 0-.05.188c.006.05.033.088.07.109l.72.382c.066.036.187.01.275-.137a.385.385 0 0 0 .016-.25c-.009-.023-.021-.04-.037-.047a.093.093 0 0 1-.044-.044.091.091 0 0 1-.005-.055.354.354 0 0 1 .055-.115l.803-1.376.022.013-.802 1.377a.332.332 0 0 0-.052.106.065.065 0 0 0 .003.04.067.067 0 0 0 .032.03.11.11 0 0 1 .05.063.41.41 0 0 1-.017.27h-.001c-.092.154-.226.194-.31.148l-.72-.382a.167.167 0 0 1-.085-.128.32.32 0 0 1 .053-.206.377.377 0 0 1 .23-.156.12.12 0 0 1 .08.009.07.07 0 0 0 .045.007.079.079 0 0 0 .038-.02.414.414 0 0 0 .069-.095Z"/><path fill="#A77B3B" d="M12.42 10.522h-.735c-.022.023-.232 1.335-.457 1.838-.274.61-1.095 1.15-1.095 1.15s.491.15.637.248c.038-.01.825-.176.915-1.136.09.96-.547 1.399-.547 1.399s.915.262.915.874c0-.612.915-.874.915-.874s-.458-.439-.551-1.399c.187.96.88 1.125.918 1.136.147-.097.638-.247.638-.247s-.821-.54-1.095-1.151c-.225-.503-.435-1.815-.458-1.838ZM9.308 6.146l1.372.439c.454 0 .915-.44.915-.878.015-.975-.367-1.312-.457-1.312l.18-.173-.274-.262s.094-.454 1.009-.44c.915.02.915.44.915.875s-.458.438-.458 1.312c0 .439.458.878.915.878l1.373-.44v4.377H9.304V6.146h.004Z"/><path fill="currentColor" d="m11.08 3.95.284.273-.167.16.003.001a.387.387 0 0 1 .071.056c.051.05.11.126.163.231.108.212.2.545.193 1.037 0 .23-.12.457-.297.626a.97.97 0 0 1-.65.283h-.005l-1.34-.428v4.302h5.43v-4.3l-1.335.426h-.005a.968.968 0 0 1-.651-.283c-.176-.169-.296-.396-.296-.626 0-.444.117-.67.235-.84.02-.03.04-.057.06-.083.091-.124.163-.221.163-.39 0-.22-.001-.422-.109-.574-.105-.15-.321-.258-.775-.268-.452-.007-.696.101-.827.207a.49.49 0 0 0-.145.19Zm1.317 6.605h-.689l-.009.04a10.812 10.812 0 0 0-.04.2c-.025.13-.058.295-.096.473-.083.393-.192.85-.306 1.105-.14.312-.418.604-.659.816a4.802 4.802 0 0 1-.393.312 15.253 15.253 0 0 1 .202.068c.07.025.147.053.214.08.06.026.115.052.154.076a1.19 1.19 0 0 0 .414-.204c.206-.158.42-.43.464-.901h.064c.046.488-.094.845-.245 1.08a1.466 1.466 0 0 1-.268.31 2.214 2.214 0 0 1 .408.192c.18.112.368.275.44.495.074-.22.26-.383.441-.495a2.067 2.067 0 0 1 .417-.195 1.89 1.89 0 0 1-.21-.309 2.775 2.775 0 0 1-.315-1.072l.063-.01c.092.473.308.748.504.906.172.138.329.188.378.202.04-.024.094-.05.154-.074a4.255 4.255 0 0 1 .4-.144l.017-.005a4.342 4.342 0 0 1-.394-.312c-.24-.212-.519-.504-.659-.816-.114-.255-.223-.712-.306-1.105a30.718 30.718 0 0 1-.136-.674 1.537 1.537 0 0 0-.01-.04Zm.593 3.444.04.038-.054.015h-.002l-.007.003-.029.01a1.999 1.999 0 0 0-.412.192c-.226.14-.441.35-.441.638h-.064c0-.288-.216-.498-.443-.639a1.999 1.999 0 0 0-.411-.192l-.028-.009-.008-.002h-.002l-.065-.02.056-.038.006-.004a1.406 1.406 0 0 0 .293-.326c.11-.171.214-.411.238-.725a1.219 1.219 0 0 1-.43.632c-.201.154-.398.205-.44.216l-.008.002-.014.004-.013-.008a1.015 1.015 0 0 0-.155-.077 4.2 4.2 0 0 0-.395-.142 4.594 4.594 0 0 0-.057-.018l-.016-.005-.004-.002h-.001l-.066-.02.057-.037.002-.002.007-.004.026-.018.096-.069c.08-.06.191-.146.31-.25.239-.211.509-.496.643-.795.11-.247.219-.698.302-1.092.038-.178.07-.343.096-.472l.008-.04.032-.162.006-.026H9.272v-4.44h.04l1.373.438a.908.908 0 0 0 .6-.265c.168-.16.278-.372.278-.58.008-.484-.084-.807-.186-1.008a.813.813 0 0 0-.15-.214.322.322 0 0 0-.06-.047.074.074 0 0 0-.03-.012h-.079l.213-.204-.262-.252.004-.017.03.006-.03-.006v-.002l.001-.005a.389.389 0 0 1 .03-.072.555.555 0 0 1 .141-.165c.145-.117.405-.228.868-.22.461.01.703.12.826.294.12.17.12.392.12.605v.006c0 .192-.085.307-.177.432a3.495 3.495 0 0 0-.057.078c-.111.16-.223.373-.223.803 0 .208.109.42.276.58a.906.906 0 0 0 .602.265l1.41-.45v4.452h-2.368l.006.026.033.162.008.04c.025.13.057.295.095.472.084.394.192.845.303 1.092.134.3.403.584.642.794a4.71 4.71 0 0 0 .406.32l.026.018.007.004.002.002.057.037-.065.02h-.002l-.004.002-.015.005a4.594 4.594 0 0 0-.242.08 4.2 4.2 0 0 0-.21.08 1.015 1.015 0 0 0-.156.077l-.013.008-.014-.005h-.005a1.145 1.145 0 0 1-.409-.217 1.396 1.396 0 0 1-.388-.506c.063.254.15.453.231.6a1.817 1.817 0 0 0 .23.328.093.093 0 0 1 .004.004ZM11.075 3.966Z"/><path fill="currentColor" d="m11.594 6.313.092.266.183-.263.089.274.093-.275.136.278.14-.278.09.262.09-.256.005.001-.095.27-.091-.264-.14.276-.134-.276-.094.279-.09-.28-.184.263-.09-.26-.092.263-.094-.27.005-.002.089.256.092-.264Z"/><path fill="currentColor" d="m11.592 6.322.183-.963.005.001-.183.963h-.005Zm.731.001-.09-.963h.005l.09.963h-.005Zm.184 0-.091-.963h.005l.09.963h-.004Zm-.636-.963v.963h-.005V5.36h.005Zm.183 0v.963h-.005V5.36h.005Z"/><path fill="#A77B3B" d="M8.388 3.524c-.915.437-.915 1.313-.915 1.75.031.398 0 8.749 0 8.749s.06-.494.457-.874l.455-.438.457-.437c.336-.29.458-.876.458-1.313V4.837s0-.439-.915-1.313h.003Z"/><path fill="currentColor" d="m8.393 3.516-.005-.024h-.081l.025.024c-.89.452-.89 1.327-.89 1.757v.003c.007.099.011.693.013 1.533a2390.544 2390.544 0 0 1-.013 7.12v.093h.031-.031l.062.004.001-.005a.65.65 0 0 1 .014-.075 1.571 1.571 0 0 1 .433-.775l.455-.437.457-.436c.174-.151.29-.377.363-.617.074-.24.105-.5.105-.72V4.837H9.3h.032v-.002a.14.14 0 0 0-.003-.022.539.539 0 0 0-.013-.066 1.223 1.223 0 0 0-.102-.253c-.117-.223-.348-.554-.807-.993l-.014.015Zm-.013.047c-.873.43-.875 1.275-.875 1.71.008.105.011.702.013 1.536a2372.577 2372.577 0 0 1-.012 6.956 1.599 1.599 0 0 1 .403-.64"/><path fill="currentColor" d="m8.845 4.793-.458.437-.457-.437-.48.458.044.046.436-.416.457.437.457-.437.048.047a59.362 59.362 0 0 0 .366.35.58.58 0 0 0 .032.025l.012.002v-.063a.03.03 0 0 1 .015.004v.001l-.002-.002a20.733 20.733 0 0 1-.43-.412l-.019-.019-.022.023.022-.023-.021-.021Zm0 1.397-.458-.436-.457.437-.48-.458.044-.046.436.416.457-.437.457.437a67.071 67.071 0 0 1 .414-.398.551.551 0 0 1 .032-.024.032.032 0 0 1 .012-.003v.064a.03.03 0 0 0 .014-.004l.002-.001-.003.002a20.935 20.935 0 0 0-.43.412l-.019.019-.022-.023.022.023-.021.02Zm0 .351-.458.437-.457-.437L7.45 7l.044.046.436-.416.457.437.457-.437a50.732 50.732 0 0 0 .43.412.12.12 0 0 0 .011.008.033.033 0 0 0 .017.005V6.99a.03.03 0 0 1 .014.004l.002.001-.003-.002a20.733 20.733 0 0 1-.379-.362l-.05-.05-.02-.019-.022.023.022-.023-.021-.021Z"/><path fill="currentColor" d="m8.889 12.274-.005-7.438h-.087l.005 7.438h.087Zm-.453.42-.005-7.42h-.083l.006 7.42h.082Zm-.456.456-.005-8.312h-.087l.005 8.312h.087Z"/><path fill="#A77B3B" d="M15.714 3.524c.915.437.915 1.313.915 1.75-.031.398 0 8.749 0 8.749s-.06-.494-.458-.874l-.454-.438-.458-.437c-.336-.29-.457-.876-.457-1.313V4.837s0-.439.915-1.313h-.003Z"/><path fill="currentColor" d="m15.708 3.516.006-.024h.081l-.025.024c.89.452.89 1.327.89 1.757v.003a54.81 54.81 0 0 0-.013 1.533c-.002.839 0 1.92.001 2.988a2164.704 2164.704 0 0 0 .01 3.866l.002.265v.094h-.032.032l-.063.004v-.005a1.063 1.063 0 0 0-.015-.075 1.584 1.584 0 0 0-.433-.775l-.455-.437-.456-.436c-.174-.151-.29-.377-.364-.617a2.54 2.54 0 0 1-.104-.72V4.837h.032-.032V4.83l.002-.017a.538.538 0 0 1 .013-.066 1.23 1.23 0 0 1 .103-.253c.116-.223.347-.554.806-.993l.014.015Zm.013.047c.874.43.876 1.275.876 1.71a52.16 52.16 0 0 0-.013 1.536c-.002.839 0 1.92.001 2.989a2364.128 2364.128 0 0 0 .01 3.865l.001.102a1.598 1.598 0 0 0-.403-.64"/><path fill="currentColor" d="m15.256 4.793.458.437.457-.437.48.458-.044.046-.436-.416-.457.437-.457-.437-.049.047a55.279 55.279 0 0 1-.365.35.524.524 0 0 1-.032.025.032.032 0 0 1-.012.002v-.063c-.006 0-.01.002-.011.002a.03.03 0 0 0-.004.002l-.001.001.003-.002a21.09 21.09 0 0 0 .224-.212l.154-.15.051-.05.02-.019.021.023-.022-.023.022-.021Zm0 1.397.458-.436.457.437.48-.458-.044-.046-.436.416-.457-.437-.457.437-.049-.047a53.895 53.895 0 0 0-.365-.35.5.5 0 0 0-.032-.025c-.002 0-.006-.003-.012-.003v.064a.03.03 0 0 1-.015-.004l-.001-.001.003.002a21.298 21.298 0 0 1 .224.212l.154.15.051.05.02.019.021-.023-.022.023.022.02Zm0 .351.458.437.457-.437.48.458-.044.046-.436-.416-.457.437-.457-.437-.049.047a53.774 53.774 0 0 1-.365.35.524.524 0 0 1-.032.025.032.032 0 0 1-.012.003V6.99a.03.03 0 0 0-.015.004l-.001.001.003-.002a21.09 21.09 0 0 0 .224-.212l.154-.15.051-.05.02-.019.021.023-.022-.023.022-.021Z"/><path fill="currentColor" d="m15.213 12.274.005-7.438h.087l-.005 7.438h-.087Zm.456.42.005-7.42h.083l-.006 7.42h-.082Zm.455.456.005-8.312h.087l-.005 8.312h-.087Z"/><path fill="#A77B3B" d="M10.848 11.358c-.242.556-.669.918-.948.807-.28-.111-.31-.656-.068-1.212.243-.556.672-.917.95-.806.28.11.312.653.069 1.211h-.003Z"/><path fill="currentColor" d="M10.314 10.323a1.788 1.788 0 0 0-.453.641 1.73 1.73 0 0 0-.16.76c.013.215.088.363.21.412.123.048.286-.004.455-.148a1.8 1.8 0 0 0 .452-.643l.013-.028h.002a1.71 1.71 0 0 0 .147-.73c-.012-.216-.088-.363-.21-.412-.123-.049-.287.004-.456.148Zm.55 1.075h.002l.013-.028c.123-.283.178-.563.165-.788-.013-.223-.093-.402-.25-.465-.156-.062-.346.01-.522.159-.177.15-.347.383-.47.665a1.79 1.79 0 0 0-.164.787c.012.223.092.403.248.466.157.062.347-.011.522-.16.17-.144.334-.368.456-.636Z"/><path fill="red" d="M9.304 6.585h5.494V9.21H9.304V6.585Z"/><path fill="#564DFF" d="M9.304 9.21h5.493v1.313c0 .874-1.372.874-2.745 1.748-1.376-.87-2.752-.87-2.752-1.748V9.21h.004Z"/><path fill="#FF0" d="M9.28 6.56h5.543v3.965c0 .227-.09.397-.244.538-.153.14-.371.25-.629.36-.122.052-.254.104-.392.159-.448.176-.97.382-1.493.715l-.014.01-.013-.01c-.522-.333-1.044-.539-1.492-.716-.138-.054-.27-.106-.393-.158-.257-.11-.476-.22-.63-.36a.694.694 0 0 1-.244-.54V6.56Zm.05.05v3.913c0 .211.082.37.228.502.147.134.358.242.615.351.12.052.251.103.389.157.445.176.967.382 1.49.713.523-.331 1.046-.537 1.49-.713.138-.054.268-.105.388-.156.257-.11.468-.218.615-.351a.642.642 0 0 0 .228-.5V6.61H9.33Z"/><path fill="#FF0" d="M11.043 6.76s-.915.644-.915 1.26c0 .615.96.821.96.821s-.32 0-.32.821c0 .412.96.207.96.412s-.012.701 0 1.027c0 .205-.64 0-.64.205 0 .102.482.616.963.616.48 0 .96-.514.96-.616 0-.205-.64 0-.64-.205v-1.027c0-.205.96 0 .96-.412 0-.82-.32-.82-.32-.82s.962-.206.962-.823c0-.616-.917-1.259-.917-1.259s.516.849.516 1.26c0 .205-.24.616-.881.616 0 0-.163-.206-.32 0 0 0-.185-.206-.32 0-.047.07-.13-.206-.322 0-.08.055-.145-.206-.32 0-.32 0-.96-.206-.96-.617 0-.41.594-1.259.594-1.259Z"/><path fill="currentColor" d="m13.04 6.769.027-.024-.01.014-.016.01Zm.04 2.073a2.134 2.134 0 0 0 .42-.165c.243-.13.492-.34.492-.658a.941.941 0 0 0-.146-.467 2.223 2.223 0 0 0-.318-.407 3.619 3.619 0 0 0-.459-.398l-.002-.002-.01.014-.016.01.001.002.005.007a2.357 2.357 0 0 1 .074.13c.048.085.113.204.177.335.064.131.128.275.176.412.048.136.08.264.08.364 0 .192-.23.595-.855.598l-.002-.002a.287.287 0 0 0-.1-.073.175.175 0 0 0-.114-.011.225.225 0 0 0-.114.077.384.384 0 0 0-.1-.067.18.18 0 0 0-.116-.01.208.208 0 0 0-.12.098c-.002 0-.006-.002-.015-.008a.36.36 0 0 1-.022-.018l-.005-.005a.415.415 0 0 0-.037-.029.149.149 0 0 0-.103-.029c-.04.005-.085.03-.134.081a.02.02 0 0 1-.015.004.057.057 0 0 1-.022-.01.366.366 0 0 1-.028-.023l-.002-.001a.458.458 0 0 0-.035-.028.13.13 0 0 0-.097-.025c-.036.006-.075.03-.118.08a1.425 1.425 0 0 1-.583-.153c-.199-.102-.35-.252-.35-.446 0-.1.035-.227.09-.364.056-.136.13-.28.204-.411a6.565 6.565 0 0 1 .272-.437l.018-.028.005-.007.002-.002-.015-.01-.01-.015-.003.002a.69.69 0 0 0-.037.027 3.62 3.62 0 0 0-.42.372 2.28 2.28 0 0 0-.318.407.941.941 0 0 0-.145.466c0 .318.248.528.49.657a2.043 2.043 0 0 0 .42.166.31.31 0 0 0-.106.09c-.083.107-.164.317-.164.73a.22.22 0 0 0 .045.138.304.304 0 0 0 .116.087c.093.043.216.063.336.076a6.7 6.7 0 0 0 .124.011c.076.007.146.013.204.024a.34.34 0 0 1 .104.031c.022.013.032.027.032.044l-.002.23c-.003.24-.008.563.002.797a.06.06 0 0 1-.021.046.153.153 0 0 1-.065.026 1.147 1.147 0 0 1-.216.013h-.002c-.079 0-.16 0-.222.013a.188.188 0 0 0-.08.034.091.091 0 0 0-.035.073c0 .01.003.02.007.03a.652.652 0 0 0 .08.12c.054.065.13.14.221.21.182.143.426.274.673.274.246 0 .49-.131.671-.273.091-.072.167-.146.22-.21a.667.667 0 0 0 .08-.12.087.087 0 0 0 .007-.03.091.091 0 0 0-.034-.074.188.188 0 0 0-.08-.034c-.062-.013-.144-.013-.222-.013h-.002c-.08 0-.159 0-.216-.013a.152.152 0 0 1-.065-.027.055.055 0 0 1-.021-.045v-1.027c0-.017.01-.031.032-.044a.34.34 0 0 1 .103-.031c.058-.01.129-.017.205-.024l.124-.011c.12-.013.243-.033.336-.076a.304.304 0 0 0 .115-.087.22.22 0 0 0 .045-.139c0-.412-.08-.622-.164-.729a.31.31 0 0 0-.105-.09Zm-.069.016-.004-.035h.003l.008-.003a1.432 1.432 0 0 0 .138-.038c.09-.029.209-.074.328-.137.24-.128.471-.329.471-.626a.905.905 0 0 0-.14-.448 2.185 2.185 0 0 0-.313-.4 3.57 3.57 0 0 0-.385-.344l.036.063a6.8 6.8 0 0 1 .177.337c.065.132.13.277.178.416.049.137.082.27.082.376 0 .216-.25.634-.899.634h-.009l-.005-.006-.002-.002a.278.278 0 0 0-.092-.07.14.14 0 0 0-.091-.01.202.202 0 0 0-.107.081l-.013.018-.015-.017-.001-.001-.006-.006a.327.327 0 0 0-.095-.065.144.144 0 0 0-.092-.01.185.185 0 0 0-.097.08c-.009.013-.02.02-.036.02a.066.066 0 0 1-.033-.015l-.025-.02a1.126 1.126 0 0 0-.038-.031.113.113 0 0 0-.079-.023c-.03.004-.067.022-.113.072l-.001.001-.002.001a.058.058 0 0 1-.043.01.092.092 0 0 1-.036-.016l-.031-.024-.002-.001a.426.426 0 0 0-.033-.026c-.022-.015-.044-.024-.07-.02-.026.005-.06.024-.102.074l-.005.006h-.008c-.164 0-.406-.052-.609-.156-.202-.104-.37-.263-.37-.478 0-.107.038-.24.094-.377.057-.138.131-.284.206-.416a6.541 6.541 0 0 1 .238-.387 3.584 3.584 0 0 0-.369.332 2.187 2.187 0 0 0-.312.4.905.905 0 0 0-.14.448c0 .297.23.498.47.625a2.006 2.006 0 0 0 .465.176l.008.002h.002l-.004.036h-.002a.155.155 0 0 0-.04.011.265.265 0 0 0-.103.085c-.077.098-.157.299-.157.707 0 .048.014.086.038.117a.268.268 0 0 0 .102.076c.087.04.204.06.324.073l.122.011c.077.007.15.013.21.024a.376.376 0 0 1 .114.035c.03.017.05.042.05.076l-.001.232c-.003.24-.007.56.002.795a.091.091 0 0 1-.034.074.187.187 0 0 1-.08.034c-.062.013-.144.013-.223.013h-.001c-.081 0-.159 0-.217.012a.153.153 0 0 0-.065.027.055.055 0 0 0-.02.045c0 .004 0 .01.004.018a.63.63 0 0 0 .074.11c.052.061.126.134.215.204.18.14.416.266.65.266.235 0 .471-.126.65-.266.09-.07.163-.143.215-.204a.633.633 0 0 0 .074-.11.054.054 0 0 0 .004-.018.055.055 0 0 0-.02-.045.152.152 0 0 0-.066-.027 1.147 1.147 0 0 0-.216-.012h-.002c-.078 0-.16 0-.222-.013a.188.188 0 0 1-.08-.034.091.091 0 0 1-.034-.074v-1.027c0-.034.02-.059.05-.076a.374.374 0 0 1 .115-.035c.06-.01.133-.017.21-.024l.121-.011a1.08 1.08 0 0 0 .325-.073.269.269 0 0 0 .102-.076.185.185 0 0 0 .037-.117c0-.408-.08-.609-.156-.707a.265.265 0 0 0-.103-.084.154.154 0 0 0-.042-.011Z"/><path fill="#FF0" d="M11.062 10.435c-.065.042.083.71.126.74.065.04.45.04.514 0 .045-.03 0-.658-.063-.698-.065-.042-.532-.07-.58-.042h.003Z"/><path fill="currentColor" d="M11.602 10.444c.019.005.036.01.047.018a.057.057 0 0 1 .018.02.653.653 0 0 1 .033.113 2.481 2.481 0 0 1 .039.464.682.682 0 0 1-.012.11.04.04 0 0 1-.015.021.144.144 0 0 1-.043.016 1.543 1.543 0 0 1-.446 0 .148.148 0 0 1-.044-.016.036.036 0 0 1-.01-.01 1.078 1.078 0 0 1-.046-.123 3.277 3.277 0 0 1-.093-.491.55.55 0 0 1 .003-.113h-.039l.057-.034a.062.062 0 0 1 .019-.006.754.754 0 0 1 .091-.007 2.39 2.39 0 0 1 .44.038Zm-.528.005-.002.001-.003.006a.52.52 0 0 0-.003.107 3.159 3.159 0 0 0 .119.567.225.225 0 0 0 .014.03.123.123 0 0 0 .032.01 1.494 1.494 0 0 0 .43 0 .122.122 0 0 0 .03-.01l.002-.003a.644.644 0 0 0 .01-.098 2.414 2.414 0 0 0-.058-.536.143.143 0 0 0-.014-.03l-.002-.001a.139.139 0 0 0-.036-.013 2.306 2.306 0 0 0-.515-.031l-.004.001Z"/><path fill="#FF0" d="M13.043 10.435c.065.042-.083.71-.126.74-.065.04-.45.04-.514 0-.045-.03 0-.658.063-.698.065-.042.532-.07.58-.042h-.003Z"/><path fill="currentColor" d="M12.504 10.444a.166.166 0 0 0-.047.018.057.057 0 0 0-.018.02.651.651 0 0 0-.033.113 2.447 2.447 0 0 0-.039.464.661.661 0 0 0 .012.11.04.04 0 0 0 .014.021.14.14 0 0 0 .044.016 1.542 1.542 0 0 0 .446 0 .146.146 0 0 0 .043-.016.036.036 0 0 0 .01-.01 1 1 0 0 0 .046-.123 3.18 3.18 0 0 0 .093-.491.537.537 0 0 0-.002-.113h.038l-.057-.034a.063.063 0 0 0-.018-.006.754.754 0 0 0-.091-.007 2.39 2.39 0 0 0-.441.038Zm.528.005.001.001.003.006a.522.522 0 0 1 .003.107 3.207 3.207 0 0 1-.119.567.229.229 0 0 1-.014.03.122.122 0 0 1-.031.01 1.495 1.495 0 0 1-.43 0 .122.122 0 0 1-.03-.01c-.001 0-.002-.001-.002-.003a.623.623 0 0 1-.01-.098 2.414 2.414 0 0 1 .058-.536.143.143 0 0 1 .014-.03l.001-.001a.14.14 0 0 1 .036-.013 2.301 2.301 0 0 1 .515-.031l.005.001Z"/><path fill="#FF0" d="M11.72 10.192c0 .061-.034.12-.097.163a.417.417 0 0 1-.235.068.417.417 0 0 1-.235-.068c-.062-.043-.097-.102-.097-.163 0-.062.035-.12.097-.164a.417.417 0 0 1 .235-.068c.088 0 .173.025.236.068.062.043.097.102.097.164Z"/><path fill="currentColor" d="M11.389 9.982a.396.396 0 0 0-.223.064c-.059.04-.088.093-.088.146 0 .052.03.105.088.146.058.04.138.064.223.064a.396.396 0 0 0 .222-.064c.058-.04.088-.094.088-.146 0-.053-.03-.105-.088-.146a.396.396 0 0 0-.223-.064Zm-.248.029a.44.44 0 0 1 .248-.072.44.44 0 0 1 .247.072c.067.046.107.11.107.18 0 .071-.04.136-.107.182a.44.44 0 0 1-.247.072.44.44 0 0 1-.248-.072c-.067-.046-.107-.111-.107-.181 0-.07.04-.135.107-.181Z"/><path fill="#FF0" d="M13.045 10.192c0 .061-.035.12-.098.163a.418.418 0 0 1-.235.068.417.417 0 0 1-.235-.068c-.063-.043-.098-.102-.098-.163 0-.062.035-.12.098-.164a.417.417 0 0 1 .235-.068.42.42 0 0 1 .235.068c.063.044.098.102.098.164Z"/><path fill="currentColor" d="M12.712 9.981a.396.396 0 0 0-.223.064c-.058.04-.088.093-.088.146 0 .052.03.105.088.146.059.04.139.063.223.063a.396.396 0 0 0 .223-.063c.058-.04.088-.094.088-.146 0-.053-.03-.105-.088-.146a.396.396 0 0 0-.223-.064Zm-.247.029a.44.44 0 0 1 .247-.072.44.44 0 0 1 .248.072c.066.046.107.11.107.18 0 .071-.04.136-.107.182a.44.44 0 0 1-.248.072.44.44 0 0 1-.247-.072c-.067-.046-.107-.11-.107-.181 0-.07.04-.135.107-.181Zm.165 1.521c0 .057-.075.102-.161.102-.09 0-.161-.045-.161-.102 0-.056.075-.1.16-.1.087 0 .162.044.162.1Zm-.836 0c0 .057-.071.102-.158.102-.09 0-.16-.045-.16-.102 0-.056.07-.1.16-.1.087 0 .158.044.158.1Z"/><path fill="#FF0" d="m12.052 8.25-.197-.248-.322.041.045-.308-.26-.185.26-.188-.045-.309.322.044.197-.248.197.248.32-.044-.043.309.257.188-.257.188.043.305-.323-.04-.194.248Z"/><path fill="currentColor" d="m12.052 6.827.202.255.33-.045-.044.318.266.194-.266.195.044.315-.332-.042-.2.255-.203-.255-.333.042.047-.318-.268-.191.268-.195-.047-.318.333.045.203-.255Zm0 .043-.191.241-.313-.042.044.299-.25.181.25.18-.044.299.313-.04.19.24.189-.24.313.04-.042-.297.249-.182-.249-.181.042-.299-.31.042-.191-.24Z"/><path fill="#FF0" d="m13.424 9.21.55.264.55-.264-.55-.262-.548.262h-.002Z"/><path fill="currentColor" d="m13.974 8.933.583.277-.583.28-.556-.268.005-.02-.002-.005.553-.264Zm-.517.277.517.249.518-.25-.518-.246-.517.247Z"/><path fill="#FF0" d="m9.486 9.21.55.264.551-.264-.55-.262-.548.262h-.003Z"/><path fill="currentColor" d="m10.036 8.933.583.277-.583.28-.556-.268.005-.02-.002-.005.553-.264Zm-.517.277.517.249.519-.25-.519-.246-.517.247Z"/><path fill="#FF0" d="M14.273 10.776c-.168-.107-.452-.054-.611.033-.16.088-.319.175-.34.491-.183-.304-.039-.585.203-.718a.611.611 0 0 1 .413-.037.586.586 0 0 1 .336.233l-.001-.002Z"/><path fill="currentColor" d="M13.312 11.254a.523.523 0 0 1 .117-.294.76.76 0 0 1 .224-.162h.001a.834.834 0 0 1 .308-.092.567.567 0 0 1 .262.03.576.576 0 0 0-.29-.178.597.597 0 0 0-.402.037.537.537 0 0 0-.255.287.465.465 0 0 0 .035.372Zm.97-.488a.6.6 0 0 0-.34-.234.625.625 0 0 0-.423.038h-.001a.564.564 0 0 0-.267.303.503.503 0 0 0 .059.434l.023.04.003-.045a.525.525 0 0 1 .115-.324.727.727 0 0 1 .217-.156.808.808 0 0 1 .297-.088.48.48 0 0 1 .3.053l.004-.006.017-.01-.003-.005Z"/><path fill="#FF0" d="M10.493 10.26a.17.17 0 0 1-.054.123.187.187 0 0 1-.257 0 .17.17 0 0 1-.054-.123c0-.046.02-.09.054-.123a.187.187 0 0 1 .257 0 .17.17 0 0 1 .054.123Z"/><path fill="currentColor" d="M10.311 10.1a.173.173 0 0 0-.119.047.156.156 0 0 0-.049.113c0 .042.018.083.05.113a.173.173 0 0 0 .238 0 .158.158 0 0 0 .049-.113.156.156 0 0 0-.05-.113.173.173 0 0 0-.119-.047Zm-.138.027a.2.2 0 0 1 .138-.055.2.2 0 0 1 .139.055.184.184 0 0 1 .057.133c0 .05-.02.098-.057.133a.2.2 0 0 1-.277 0 .184.184 0 0 1-.058-.133c0-.05.021-.098.058-.133Z"/><path fill="#FF0" d="M10.31 10.87a.17.17 0 0 1-.054.124.186.186 0 0 1-.129.05.186.186 0 0 1-.129-.05.17.17 0 0 1-.053-.123c0-.046.019-.09.053-.123a.186.186 0 0 1 .129-.051.19.19 0 0 1 .129.05.17.17 0 0 1 .053.124Z"/><path fill="currentColor" d="M10.127 10.71a.173.173 0 0 0-.12.048.156.156 0 0 0-.049.113c0 .042.018.083.05.113a.173.173 0 0 0 .238 0 .157.157 0 0 0 .049-.113.156.156 0 0 0-.05-.113.173.173 0 0 0-.118-.047Zm-.139.028a.2.2 0 0 1 .277 0 .184.184 0 0 1 .058.133c0 .05-.021.098-.058.133a.2.2 0 0 1-.138.055.2.2 0 0 1-.139-.055.184.184 0 0 1-.057-.133c0-.05.02-.098.057-.133Z"/><path fill="#FF0" d="M10.219 10.523a.17.17 0 0 1-.053.123.187.187 0 0 1-.258 0 .17.17 0 0 1-.054-.123c0-.046.02-.09.054-.123a.187.187 0 0 1 .258 0 .17.17 0 0 1 .053.123Z"/><path fill="currentColor" d="M10.037 10.362a.173.173 0 0 0-.119.047.156.156 0 0 0-.049.113c0 .043.018.083.05.114a.173.173 0 0 0 .238 0 .156.156 0 0 0 .049-.114.156.156 0 0 0-.05-.113.173.173 0 0 0-.119-.047Zm-.138.027a.2.2 0 0 1 .138-.054.2.2 0 0 1 .139.054.184.184 0 0 1 .057.133c0 .05-.02.098-.057.134a.2.2 0 0 1-.277 0 .184.184 0 0 1-.058-.134c0-.05.021-.098.058-.133Z"/><path fill="#FF0" d="M10.677 10.87a.17.17 0 0 1-.053.124.186.186 0 0 1-.13.05.186.186 0 0 1-.128-.05.17.17 0 0 1-.053-.123c0-.046.019-.09.053-.123a.186.186 0 0 1 .129-.051c.048 0 .094.018.129.05a.17.17 0 0 1 .053.124Z"/><path fill="currentColor" d="M10.494 10.71a.173.173 0 0 0-.119.048.156.156 0 0 0-.049.113c0 .042.018.083.05.113a.173.173 0 0 0 .238 0 .157.157 0 0 0 .049-.113.156.156 0 0 0-.05-.113.173.173 0 0 0-.119-.047Zm-.138.028a.2.2 0 0 1 .277 0 .184.184 0 0 1 .057.133c0 .05-.02.098-.057.133a.2.2 0 0 1-.139.055.2.2 0 0 1-.138-.055.184.184 0 0 1-.058-.133c0-.05.021-.098.058-.133Z"/><path fill="#FF0" d="M10.767 10.523a.17.17 0 0 1-.054.123.187.187 0 0 1-.257 0 .17.17 0 0 1-.054-.123c0-.046.02-.09.054-.123a.187.187 0 0 1 .257 0 .17.17 0 0 1 .054.123Z"/><path fill="currentColor" d="M10.584 10.362a.173.173 0 0 0-.119.047.156.156 0 0 0-.049.113.16.16 0 0 0 .049.114c.031.03.074.047.12.047a.173.173 0 0 0 .118-.047.156.156 0 0 0 .05-.114.156.156 0 0 0-.05-.113.173.173 0 0 0-.119-.047Zm-.138.027a.2.2 0 0 1 .138-.054.2.2 0 0 1 .139.054.184.184 0 0 1 .057.133c0 .05-.02.098-.057.134a.2.2 0 0 1-.277 0 .184.184 0 0 1-.058-.134c0-.05.021-.098.058-.133Z"/><path fill="#FF0" d="M10.493 10.608a.17.17 0 0 1-.054.123.186.186 0 0 1-.128.051.186.186 0 0 1-.13-.05.17.17 0 0 1-.053-.124c0-.046.02-.09.054-.123a.186.186 0 0 1 .129-.05c.048 0 .094.017.128.05a.17.17 0 0 1 .054.123Z"/><path fill="currentColor" d="M10.311 10.449a.173.173 0 0 0-.119.047.156.156 0 0 0-.049.113c0 .042.018.083.05.113a.173.173 0 0 0 .238 0 .157.157 0 0 0 .049-.113.156.156 0 0 0-.05-.113.173.173 0 0 0-.119-.047Zm-.138.027a.2.2 0 0 1 .277 0 .184.184 0 0 1 .057.133c0 .05-.02.098-.057.133a.2.2 0 0 1-.139.055.2.2 0 0 1-.138-.055.184.184 0 0 1-.058-.133c0-.05.021-.098.058-.133Z"/><path fill="#DA4500" d="M11.167 4.515c-.465 0-.525.075-.735.146 0-.202.518-.438.975-.438 0 .146-.12.292-.24.292Z"/><path fill="#CAC9C7" d="M11.868 4.05c0 .094-.082.173-.183.173a.18.18 0 0 1-.184-.176c0-.098.083-.173.184-.173.101 0 .183.075.183.173v.003Z"/><path fill="#FF0" d="M9.945 3.438v.261h.458V5.01h.276V3.7h.458v-.262h-.458v-.351H10.4v.35h-.457.002Z"/><path fill="currentColor" d="M10.386 3.073h.307v.35h.458v.29h-.458v1.311h-.304V3.713h-.457v-.276h.01v-.014h.444v-.35Zm-.427.378h.455v-.35h.252v.35h.457v.234h-.457v1.311h-.25v-1.31H9.96V3.45Z"/><path fill="#DA4500" d="M11.411 4.223a2.943 2.943 0 0 0-1.098.146c0-.27.314-.585.854-.585.12 0 .244.293.244.439Z"/><path fill="#008500" d="M6.647 8.868c-.131-.284-.128-.375.106-.05l2.824 5.354-.086.024L6.649 8.87h-.002Z"/><path fill="currentColor" d="M6.65 8.865a1.81 1.81 0 0 1-.071-.172.341.341 0 0 1-.015-.067c0-.004 0-.006.002-.008h.003c.003 0 .006 0 .01.003a.177.177 0 0 1 .036.032c.031.032.075.087.134.168l2.82 5.348-.077.022-2.84-5.325-.002-.001Zm-.028-.22c.031.034.075.09.134.17l2.827 5.36-.095.027-2.843-5.33h-.002V8.87a1.827 1.827 0 0 1-.073-.173.353.353 0 0 1-.015-.072c0-.005.001-.01.004-.013a.012.012 0 0 1 .01-.005c.005 0 .01.002.014.005a.2.2 0 0 1 .039.034Z"/><path fill="#008F00" d="M8.565 12.39c.03-.397-.698-.825-.728-.798-.026.03.045.262.184.378-.263-.135-.54-.217-.548-.16-.022.082.413.27.45.344 0 .053-.322.045-.315.098.008.052.912.51.957.138Zm-.728-1.155c.03-.397-.697-.824-.724-.798-.03.026.042.258.18.379-.262-.136-.54-.222-.547-.162-.019.079.412.27.45.345.004.053-.319.045-.315.098.007.052.911.506.956.139Zm-.555-1.05c.03-.397-.697-.825-.727-.798-.027.026.045.258.183.378-.262-.135-.54-.22-.547-.16-.019.078.412.27.45.344 0 .053-.319.045-.315.098.007.052.911.51.956.138Zm-.547-1.14c.026-.393-.698-.825-.728-.798-.03.03.045.262.18.382-.262-.138-.54-.221-.544-.161-.022.079.413.27.447.341.003.053-.32.049-.312.102.004.052.908.506.957.135Z"/><path fill="#008F00" d="M6.922 8.996c.353-.213.282-1.027.244-1.035-.041-.003-.195.188-.214.368-.04-.285-.135-.548-.187-.518-.079.03.015.477-.026.548-.038.037-.225-.218-.263-.18-.045.037.105 1.001.45.817h-.004Zm.51.998c.405-.09.627-.878.59-.896-.038-.02-.248.112-.327.277.06-.281.064-.559 0-.547-.086.003-.15.453-.214.506-.049.022-.139-.274-.187-.255-.053.022-.248.979.138.915Zm.608 1.02c.371-.18.375-.998.337-1.005-.037-.011-.206.169-.243.345-.015-.289-.083-.555-.14-.529-.082.023-.03.473-.074.54-.045.034-.206-.236-.251-.202-.045.03.015 1.005.375.85H8.04Zm.66 1.335c.386-.146.48-.956.442-.971-.037-.012-.225.15-.281.322.015-.289-.022-.562-.082-.54-.087.015-.08.469-.132.533-.048.026-.18-.255-.225-.225-.048.022-.093 1 .278.88Z"/><path fill="#FF1900" d="M9.55 13.74c-.097.169-.408.184-.697.03s-.438-.415-.34-.583c.098-.168.411-.182.698-.03.286.154.438.415.34.584Z"/><path fill="currentColor" d="M8.792 13.065c-.124.005-.221.05-.267.128-.046.078-.035.18.025.283a.78.78 0 0 0 .31.281c.143.077.29.11.413.105.123-.005.22-.05.265-.128.046-.079.035-.18-.025-.284a.782.782 0 0 0-.31-.28.826.826 0 0 0-.411-.105Zm-.001-.027c.13-.006.282.03.427.107a.809.809 0 0 1 .32.291c.062.108.078.22.025.31s-.16.138-.29.143a.854.854 0 0 1-.427-.107.809.809 0 0 1-.32-.292c-.063-.108-.078-.22-.025-.31.052-.09.16-.137.29-.142Z"/><path fill="#FF0" d="m17.007 8.108.048-.125.131.041.049-.125.13.04-.047.125.135.042-.05.127-.134-.042-.121.313-.131-.042.12-.312-.13-.042Zm-.282 1.106.131.04-1.407 3.633-.13-.042 1.406-3.631Z"/><path fill="currentColor" d="m17.232 7.892.14.044-.048.124.135.043-.053.136-.134-.043-.122.313-.14-.044.121-.313-.126-.04.002-.004-.005-.001.05-.13.131.04.049-.125Zm-.219.213.131.041-.121.313.122.038.12-.312.135.042.046-.118-.134-.043.047-.123-.121-.039-.049.126-.13-.042-.046.117Zm-.29 1.102.14.044-1.41 3.641-.141-.044 1.41-3.64Zm.005.012-1.403 3.623.121.038 1.404-3.623-.122-.038Z"/><path fill="#FF0" d="m15.275 12.762.266.084-.388 1.002-.266-.084.388-1.002Zm1.562-4.216.399.126c.263.083-.335.668-.335.668l-.264-.083s-.066-.794.2-.71Zm.366.008c-.02.053-.095.078-.168.055-.073-.023-.116-.085-.096-.136.02-.051.095-.077.168-.054.073.023.116.084.096.137v-.002Z"/><path fill="currentColor" d="M17.005 8.423a.094.094 0 0 0-.061.052c-.01.023-.004.05.013.074a.156.156 0 0 0 .08.055.175.175 0 0 0 .101.002.093.093 0 0 0 .06-.052.08.08 0 0 0-.012-.075.155.155 0 0 0-.08-.055.166.166 0 0 0-.101-.001Zm.203.133a.089.089 0 0 0-.014-.082.163.163 0 0 0-.085-.06.176.176 0 0 0-.107 0 .104.104 0 0 0-.067.058.088.088 0 0 0 .014.082.146.146 0 0 0 .031.032l-.14-.044a.107.107 0 0 0-.09.007.164.164 0 0 0-.06.071.746.746 0 0 0-.057.25 2.35 2.35 0 0 0-.002.353l.001.025v.009h.006-.005v.003l.27.085.002-.002-.003-.003.003.003.002-.002.005-.005a2.278 2.278 0 0 0 .083-.086 2.66 2.66 0 0 0 .177-.21.789.789 0 0 0 .128-.228.146.146 0 0 0 .002-.09c-.01-.025-.03-.044-.064-.055l-.144-.045a.161.161 0 0 0 .047-.007.11.11 0 0 0 .067-.057v-.002Zm-.372-.005a.096.096 0 0 0-.08.006.154.154 0 0 0-.057.067.74.74 0 0 0-.056.246 2.355 2.355 0 0 0-.003.352l.002.025v.006l.259.081.004-.004a2.676 2.676 0 0 0 .082-.086c.052-.056.119-.132.177-.21a.783.783 0 0 0 .126-.224.138.138 0 0 0 .003-.084c-.009-.022-.027-.04-.059-.05l-.398-.125Zm-1.563 4.205.275.087-.392 1.01-.275-.086.392-1.01Zm.262.093-.257-.081-.384.993.256.08.385-.992Z"/><path fill="#FF1900" d="M15.489 13.283c.11.16-.018.431-.293.606-.276.174-.587.182-.698.021-.112-.16.019-.433.292-.606.274-.173.587-.182.699-.021Z"/><path fill="currentColor" d="M14.513 13.618c-.052.107-.055.21-.004.285.052.074.152.112.275.108a.821.821 0 0 0 .404-.134.774.774 0 0 0 .287-.302c.051-.107.054-.21.002-.285-.052-.074-.152-.112-.276-.108a.822.822 0 0 0-.402.134.775.775 0 0 0-.286.302Zm-.026-.012a.801.801 0 0 1 .296-.313.849.849 0 0 1 .417-.138c.129-.004.24.035.3.12.06.086.054.2 0 .311a.8.8 0 0 1-.296.314.849.849 0 0 1-.418.139c-.13.003-.24-.036-.3-.121-.06-.086-.053-.2 0-.312Z"/></g><defs><clipPath id="a"><path fill="#fff" d="M0 0h24v18H0z"/></clipPath></defs></svg>