<svg xmlns="http://www.w3.org/2000/svg" width="24" height="18" fill="none"><g clip-path="url(#a)"><path fill="#D3AE3B" d="M0 0h24v18H0V0Z"/><path fill="#C40308" d="M.9.9h22.2v16.2H.9V.9Z"/><path fill="#B96B29" d="M15.919 8.854c.261-.069.508-.186.727-.345.263-.21.311-.379.33-.469.023-.09.03-.161-.037-.112-.068.052-.267.21-.402.285a1.714 1.714 0 0 1-.337.135c-.075.018-.135.033-.064.003a1.33 1.33 0 0 0 .488-.288c.176-.18.318-.45.322-.615 0-.165-.011-.15-.064-.113-.052.041-.24.274-.348.364a3.58 3.58 0 0 1-.364.259c-.086.048-.206.105-.038-.012.17-.112.488-.386.62-.738.078-.188.112-.39.1-.593 0-.037-.03-.105-.06-.041s-.243.487-.412.675c-.173.18-.131.146-.173.176-.037.03-.1.083-.018-.022a1.92 1.92 0 0 0 .457-1.19c0-.134-.056-.322-.082-.378-.027-.056-.053-.097-.064-.034-.06.234-.134.464-.218.69a2.812 2.812 0 0 1-.25.48c-.03.042-.106.135-.023-.018.15-.326.24-.677.262-1.035a1.651 1.651 0 0 0-.097-.784.512.512 0 0 0-.113-.158s.011.293-.075.713-.214.637-.214.637-.056.064-.018-.037a2.34 2.34 0 0 0 .052-1.294c-.086-.281-.232-.424-.232-.424-.038.402-.034.92-.18 1.34-.027-.027-.064-.072-.08.022a2.366 2.366 0 0 1-.262.727c-.18.33-.255.375-.255.375l-.056-.127c-.022-.045-.037-.068-.067-.008-.03.06-.132.293-.353.548-.221.255-.345.382-.337.573.003.188.105.29.24.375.135.087.157.135.138.24-.022.105-.142.14-.247.143-.101.004-.233-.004-.281.022-.045.027-.05.094-.098.14-.045.048-.067.074-.112.082l-.038.003c-.007-.506.188-.73.188-.73l-.548-.642a1.912 1.912 0 0 1-.082.037.146.146 0 0 0-.015-.022.413.413 0 0 1-.098-.293c.026 0 .083.023.131.012.05-.008.012-.06 0-.105a.824.824 0 0 1-.022-.274l.015-.086s.079.086.127.086c.05 0 .045-.049.053-.105a.421.421 0 0 1 .112-.244s.09.06.188.06a.474.474 0 0 0 .337-.131c.113-.101.11-.124.11-.124s.198.068.348.075c.15.008.311-.015.39-.176.075-.158-.023-.308-.038-.33-.022-.026-.07-.045-.07 0s.003.165-.09.225c-.09.06-.162.056-.248.03a.769.769 0 0 0-.492-.015.638.638 0 0 1 .23-.158c.112-.033.18.015.217.06.037.045.07.113.1.012a.386.386 0 0 0-.037-.3.285.285 0 0 0-.27-.113c-.112.008-.15.026-.15.026s-.056-.16-.198-.187a.787.787 0 0 0-.525.112s-.117.027-.24-.007a.786.786 0 0 1-.203-.105l.041-.131.072-.023c.037-.015.026-.026.033-.056.004-.03-.067-.083-.067-.083s-.011-.093.109-.153l.105-.053s.07.011.097-.007c.03-.023.03-.038.03-.038s.053-.015.075-.045a.176.176 0 0 0 .008-.116c-.015-.038-.034-.045-.015-.064a.15.15 0 0 0 .037-.09l.004-.037s.041-.015.037-.075c0-.064-.033-.087-.052-.094l-.034-.004s0-.037-.034-.086c-.03-.053-.052-.075-.052-.075s.022-.015.011-.056a.11.11 0 0 0-.071-.075c-.026-.008-.056 0-.056 0l-.14-.08-.055-.03s0-.037-.015-.06a.128.128 0 0 0-.075-.03c-.02 0-.038.012-.038.012l-.225-.052c-.067-.008-.071-.015-.071-.015s-.143-.068-.195-.075l-.075-.02s.06-.067.064-.15a.225.225 0 0 0-.105-.187l-.06-.03v-.048l.105.01.007-.172-.101.012.015-.102h-.218l.015.102-.105-.008.012.169.112-.015-.015.064s-.037.007-.075.033a.203.203 0 0 0-.097.177c0 .082.048.15.048.15l-.067.015c-.056.01-.199.078-.199.078s0 .008-.067.015l-.225.053s-.023-.011-.038-.011-.06.01-.075.03c-.015.022-.019.06-.019.06l-.052.03-.139.078s-.03-.007-.06 0a.123.123 0 0 0-.067.075c-.012.042.01.06.01.06s-.022.02-.055.072a.226.226 0 0 0-.034.086l-.03.004c-.023.007-.056.03-.056.093 0 .06.037.075.037.075v.038c.004.03.023.075.041.09.02.019 0 .026-.01.064a.13.13 0 0 0 .007.112c.018.038.075.053.075.053s0 .01.026.033.097.008.097.008l.11.052c.12.06.108.15.108.15s-.075.057-.068.087c.004.03 0 .04.034.056l.071.022.038.132a.786.786 0 0 1-.203.105c-.12.033-.24.007-.24.007a.787.787 0 0 0-.52-.112c-.143.026-.203.187-.203.187s-.038-.015-.15-.03c-.113-.011-.218.038-.267.113a.382.382 0 0 0-.037.303c.03.105.06.034.097-.01.038-.046.105-.095.218-.06.112.037.225.15.232.157 0 0-.018-.012-.146-.03a.735.735 0 0 0-.345.045c-.086.026-.157.03-.251-.03-.09-.06-.09-.18-.09-.225 0-.045-.049-.027-.068 0-.015.022-.112.172-.037.33.075.16.236.187.39.176.15-.008.349-.075.349-.075s0 .022.105.124a.488.488 0 0 0 .337.13c.101 0 .188-.06.188-.06a.421.421 0 0 1 .112.245c.008.056.004.105.053.105.052 0 .13-.087.13-.087l.016.087a.973.973 0 0 1-.023.273c-.015.045-.052.098 0 .105.05.012.102-.007.132-.01 0 .12-.027.198-.098.292a.168.168 0 0 0-.015.022 2.001 2.001 0 0 1-.082-.037l-.548.64s.199.226.188.736a.753.753 0 0 1-.038-.008c-.045-.007-.067-.037-.112-.082-.05-.045-.053-.113-.098-.139-.049-.03-.18-.019-.281-.022-.105 0-.225-.038-.248-.143-.018-.105.004-.15.14-.24.134-.086.235-.187.24-.375.007-.191-.113-.319-.338-.574-.222-.255-.323-.487-.353-.547-.03-.06-.045-.038-.067.007l-.057.124s-.075-.045-.255-.375a2.362 2.362 0 0 1-.262-.724c-.015-.093-.053-.048-.075-.022-.15-.42-.143-.938-.184-1.339 0 0-.146.143-.232.424-.075.255-.075.559-.05.825.023.251.076.401.102.469.038.1-.019.037-.019.037s-.127-.217-.213-.637c-.087-.42-.075-.713-.075-.713s-.053.038-.113.158a1.65 1.65 0 0 0-.097.787 2.9 2.9 0 0 0 .262 1.031c.083.15.008.06-.022.02a2.663 2.663 0 0 1-.252-.48 7.51 7.51 0 0 1-.217-.69c-.011-.065-.038-.023-.064.033a1.08 1.08 0 0 0-.082.382c.013.436.175.854.457 1.185.083.105.019.053-.019.023-.037-.03 0 .004-.168-.176a3.439 3.439 0 0 1-.413-.675c-.034-.064-.06.003-.064.04-.003.038-.026.245.102.593.131.353.45.627.618.74.17.115.05.06-.037.01a3.376 3.376 0 0 1-.364-.258c-.109-.09-.296-.323-.349-.364-.052-.038-.063-.053-.063.112.003.165.146.435.326.615.18.18.412.263.484.29.07.03.011.014-.064-.005a1.508 1.508 0 0 1-.338-.135 3.489 3.489 0 0 1-.4-.285c-.068-.052-.06.023-.038.113.018.09.07.259.33.469.218.16.465.276.727.345.109.03.034.03.034.03l-.255-.053a2.674 2.674 0 0 1-.626-.274c-.087-.056-.102-.075-.09.038a.75.75 0 0 0 .333.484c.203.098.421.16.645.18.094.003.068.015.027.018a1.894 1.894 0 0 1-.72-.12l-.02-.075c-.007-.045-.033-.037-.044-.03a.347.347 0 0 1-.075.042c-.049.026-.049-.004-.053-.02l-.01-.112c0-.03-.02-.033-.042-.022l-.176.075c-.038.015 0 .049.018.086l.057.098-.139.037c-.03.008-.023.03-.011.053l.07.172c.012.03.042.011.042.011l.101-.06.038.14s-.049.01-.101.044c-.049.038-.038.086.026.101.06.02.135.053.214.2.082.145.101.408.15.824a.97.97 0 0 0 .352.649c.038.026.015.049.015.049s-.037.052-.019.13a.198.198 0 0 0 .12.143c.038.012.027.05.027.05s-.02.085 0 .25a.78.78 0 0 0 .187.375c.038.03.038.045.038.06-.008.012-.034 0-.075.038a.458.458 0 0 0-.128.135c-.03.06-.019.094-.007.169.007.078.123.15.123.15s-.022.003-.026.063c-.004.057.038.12.09.165.049.038.15.06.15.06l.011.083c.008.037.072.071.113.094.041.022.124.01.157-.008.034-.015.057.004.075.038.023.037.015.165.015.217 0 .053-.03.105-.015.131.02.027.068.008.12-.018.05-.03.06-.008.105.018.04.027.085.045.132.053.018 0 .01-.049.01-.086 0-.038.008-.128.027-.143.008-.007.086-.011.143-.037.026-.012.063-.023.063-.05.004-.025-.037-.025-.12-.07-.086-.042-.1-.068-.157-.105-.053-.038-.026-.05-.026-.068 0-.015.026-.034.037-.052.008-.023 0-.068 0-.068l.068-.067.075-.087c.03-.022.075-.135.1-.168.031-.038.095-.075.136-.128.117-.127.262-.224.424-.285 0 0-.004.098.037.146.041.05.098-.037.281-.168.188-.132.323-.177.323-.177l.09.124c.049.06.094-.004.319-.319a4.07 4.07 0 0 1 .506-.555l.049.023-.015.037c-.02.068-.053.113-.098.2-.041.09-.112.112-.187.232a.611.611 0 0 0-.098.33c-.007.123.064.15.064.15s-.113.112-.15.195c-.034.082-.049.25-.049.25s-.019.008-.06.095c-.041.086-.116.097-.225.206-.112.112-.232.157-.289.187-.056.038-.037.072-.026.113.015.045.094.09.188.124.086.033.12.018.18.018.063-.003.015.045-.012.072-.026.026-.06.116-.056.217.008.101.083.075.176.06.069-.013.135-.033.2-.06l-.008.03c-.012.026-.015.049-.015.128 0 .078.01.12.037.138.019.023.068-.022.101-.033.034-.008.09-.042.173-.06.082-.02.112-.057.112-.057s-.018.027-.022.083a.672.672 0 0 0 .007.195.352.352 0 0 0 .11.157c.055.053.067.03.112-.037a.9.9 0 0 1 .123-.146l.064.206c.056.184.244.337.244.337s.187-.153.244-.337l.06-.206s.086.082.127.15c.041.063.056.086.113.037a.353.353 0 0 0 .105-.161.828.828 0 0 0 .01-.195c-.007-.056-.025-.083-.025-.083s.03.038.112.057c.083.018.143.052.176.06.034.01.08.056.102.037.022-.022.037-.064.037-.142 0-.08-.004-.102-.015-.128l-.011-.03s.109.045.202.06c.094.019.17.038.173-.06a.374.374 0 0 0-.053-.217c-.026-.027-.075-.075-.015-.075.064.003.094.018.188-.015.086-.038.165-.08.18-.124.015-.041.034-.075-.026-.113-.057-.03-.177-.075-.285-.187-.113-.109-.188-.12-.225-.206-.042-.087-.06-.094-.06-.094s-.02-.169-.053-.251a.914.914 0 0 0-.15-.195s.075-.027.064-.15a.615.615 0 0 0-.094-.33c-.079-.12-.15-.143-.187-.233-.05-.09-.083-.131-.102-.195l-.015-.037.068-.03c.09.082.326.307.506.555.225.315.27.378.319.315l.09-.12s.139.045.322.176c.188.131.24.214.282.165.022-.023.03-.064.03-.098.15.044.298.097.442.158.161.067.176.105.304.202.127.102.307.094.48.038.273-.084.543-.178.81-.281.184-.075.315-.15.337-.184a.74.74 0 0 0 .038-.176c0-.038-.038-.09-.053-.102-.015-.007-.007-.037-.003-.06a.248.248 0 0 0-.038-.123c-.03-.03-.026-.042-.022-.132.007-.187-.128-.427-.315-.502 0 0-.008-.023-.023-.038l-.037-.022v-.131c0-.023.007-.02.022-.015.011.007.034.033.064.04.03.008.049-.014.056-.048a.86.86 0 0 1 .045-.139c.011-.037-.004-.037-.019-.045l-.082-.015c-.023-.003-.023-.007-.015-.018l.037-.075c.03-.038.004-.042-.022-.053a2.198 2.198 0 0 0-.184-.049c-.034-.007-.037.023-.037.038v.097c0 .023-.02.015-.034.012a.472.472 0 0 1-.064-.045c-.026-.015-.037 0-.049.026l-.048.161c-.008.034-.004.056.007.06.011.008.075 0 .113 0 .033 0 .01.023.01.023l-.048.086c-.015.026-.037.03-.067.03h-.075s-.2.007-.345.112a.552.552 0 0 0-.21.252c-.023.052-.05.04-.072.06-.022.018-.086.086-.086.127 0 .041.015.064-.049.105-.063.041-.112.221-.03.311.087.094.12.188.15.233.023.045 0 .064-.026.064s-.067-.038-.109-.068l-.318-.244c-.087-.063-.023-.056-.023-.056s.023 0 .071-.019c.05-.022.057-.048.008-.063a.63.63 0 0 1-.173-.098c-.026-.026-.037-.052.012-.079.048-.026.157-.097.075-.12-.09-.026-.188-.04-.274-.067-.083-.023-.09-.045-.09-.045l.056-.079s.041-.064-.007-.071c-.053-.008-.18-.023-.293-.075a.706.706 0 0 1-.424-.469v-.004c.045.083.143.24.293.244.206.008.229-.056.184-.124-.05-.067-.102-.127-.113-.15-.015-.018-.019-.045.038.008.052.049.15.221.46.202.308-.022.308-.082.308-.097 0-.06-.063-.071-.1-.109-.02-.019-.03-.045.033-.022a.813.813 0 0 0 .424.007c.078-.019.3-.112.318-.225 0 0-.138-.007-.236-.049-.094-.037-.15-.075-.049-.052.102.019.3.06.477 0 .1-.034.232-.113.232-.266 0 0-.187-.038-.259-.068a.248.248 0 0 1-.093-.045s.273.086.517-.037c.248-.124.259-.297.259-.338 0-.037-.008-.049-.008-.049s-.225.053-.39.053c-.168 0-.22-.015-.22-.015s.468-.015.704-.158c.236-.146.251-.43.251-.43s-.266.097-.435.115c-.168.02-.27.02-.31.015-.042 0-.068-.015.025-.018.225-.02.443-.081.645-.18a.756.756 0 0 0 .334-.48c.011-.117 0-.098-.09-.038-.086.053-.412.221-.626.27l-.255.053s-.083-.004.026-.034h.008Zm-8.445.54-.094.052-.049-.1c-.007-.023-.004-.03.008-.03l.086-.016h.011c.011.026.023.06.041.09h-.003v.004Zm2.88 1.687a.754.754 0 0 1-.33.263c-.113.052-.237.067-.289.075-.053.007-.008.075-.008.075l.053.075s-.008.022-.09.049c-.083.022-.188.037-.27.063-.086.023.022.094.075.12.045.027.037.057.007.08a.58.58 0 0 1-.172.097c-.049.015-.038.04.007.063.053.02.188.045.188.045l-.086.068a.708.708 0 0 1-.327.112c-.093.004-.247.012-.438 0l-.218-.01-.019-.162a.806.806 0 0 0-.112-.293l-.139-.187.008-.056c.007-.03 0-.064-.02-.124a.554.554 0 0 0-.134-.143l-.008-.12c0-.06-.037-.288-.075-.397-.037-.109-.213-.394-.292-.525a1.47 1.47 0 0 1-.161-.743l.018-.048a.49.49 0 0 0 .132.12c.236.142.705.157.705.157s-.053.015-.222.015c-.168 0-.39-.052-.39-.052s-.007.01-.007.052c0 .038.011.21.259.338.243.12.517.037.517.037s-.022.019-.094.041c-.067.027-.262.068-.262.068 0 .15.135.232.236.27.176.056.375.015.476-.004.105-.022.045.011-.048.053-.098.04-.237.048-.237.048.023.113.24.207.323.225.206.045.36.015.42-.007.064-.023.052.004.034.022-.038.038-.102.05-.102.11 0 .014 0 .074.308.097.307.018.412-.15.465-.203.052-.052.049-.026.037-.004-.015.02-.067.08-.112.15-.049.064-.026.128.18.12.15 0 .247-.165.292-.247v.004l.012.01a1.95 1.95 0 0 1-.09.2v.003Zm2.49-6.682-.042-.075s.113.052.188.131c.067.075.064.12.075.158a.5.5 0 0 1-.011.176c-.012.064-.012.105.003.127a.097.097 0 0 0 .027.038l-.102.03c-.048.022-.112.037-.15.007-.033-.03-.04-.048-.018-.067.022-.019.105-.045.112-.188a.701.701 0 0 0-.082-.337Zm-.638.386c.03-.067.038-.131.019-.27-.015-.116-.038-.214-.045-.337 0 0 .086.015.21.127.124.113.15.229.15.285 0 .056-.026.128-.034.18a.4.4 0 0 0 .015.105s-.041.019-.082.049c-.042.026-.072.045-.132.037-.063 0-.1-.026-.138-.045l-.057-.022s.072-.041.098-.113l-.004.004Zm-.6-.48a.525.525 0 0 1 .21-.131c-.004.127-.026.225-.045.337-.019.143-.011.207.019.274a.251.251 0 0 0 .097.109s-.022 0-.06.022c-.037.02-.075.045-.135.05a.203.203 0 0 1-.13-.042.524.524 0 0 0-.087-.049s.019-.049.015-.101c-.004-.056-.038-.124-.038-.18a.44.44 0 0 1 .154-.289Zm-.442.686c-.038.03-.102.015-.15-.007l-.098-.03s.011-.011.023-.038c.015-.022.015-.063.003-.127a.613.613 0 0 1-.01-.176c.01-.038.01-.083.078-.158a.714.714 0 0 1 .187-.135l-.045.079a.701.701 0 0 0-.082.337c.011.143.094.17.112.188.023.019.015.037-.022.067h.004Zm1.642 1.19c-.12.063-.187.048-.187.1.007.05.116.087.116.087s-.113.12-.199.172c-.086.056-.187.09-.187.09s-.038.008-.015.06a.202.202 0 0 0 .082.109l.041.019s-.15.16-.217.213a.573.573 0 0 1-.161.094c-.053.023-.027.113-.015.15.015.038.06.094.09.101.026.008.037.03 0 .083-.027.041-.113.15-.15.21H12l-.158-.21c-.033-.053-.022-.075 0-.083.03-.007.075-.06.09-.1.012-.038.038-.128-.015-.15a.57.57 0 0 1-.157-.095 3.035 3.035 0 0 1-.218-.213l.038-.02a.203.203 0 0 0 .086-.108c.019-.052-.015-.06-.015-.06s-.101-.037-.187-.09c-.09-.052-.203-.172-.203-.172s.113-.038.113-.087c.007-.052-.06-.037-.184-.1-.12-.068-.161-.155-.161-.155s.142-.048.213-.187a.262.262 0 0 0 .027-.135h.003c.225.075.492.105.728.105.245.003.49-.033.724-.105h.007a.262.262 0 0 0 .026.135c.072.139.21.187.21.187s-.037.087-.16.15v.004Z"/><path fill="#D4AF3A" d="M13.545 8.917c0-.382.176-.626.176-.626l-.476-.547c-.458.176-.874.187-1.245 0-.371.187-.788.176-1.241 0l-.484.547s.176.244.176.623c0 .378-.075.667-.116.85-.045.188-.079.53.019.777a.986.986 0 0 0 .626.638c.424.18.649.273.795.397.15.12.221.221.221.221s.075-.1.225-.225c.146-.12.368-.213.788-.39a.99.99 0 0 0 .63-.64c.1-.248.063-.593.018-.777-.04-.188-.112-.469-.112-.848Z"/><path fill="#B96B29" d="M13.395 9.075c-.06-.368.15-.686.15-.686l-.41-.48c-.314.176-.753.153-1.136-.023-.378.176-.817.199-1.132.023l-.413.48s.214.318.15.686c-.056.364-.187.938-.153 1.174s.198.51.367.652c.184.14.39.25.608.326.214.086.409.214.573.375 0 0 .057-.056.14-.12.086-.063.262-.187.438-.255.217-.076.42-.186.604-.326.172-.142.337-.416.371-.652.03-.237-.098-.814-.157-1.178v.004Z"/><path fill="#1D5E91" d="M13.354 9.116a1.22 1.22 0 0 1 .12-.712l-.367-.413c-.315.165-.694.124-1.106-.022-.413.146-.792.187-1.103.026l-.371.413s.176.315.12.708c-.056.394-.15.84-.135 1.103l.007.052h.338s.019-.022.056-.037c.038-.015.049-.027.049-.027s.007-.067.045-.082c.041-.015.06-.015.075-.015.019 0 .03-.004.049-.022.018-.023.075-.068.097-.135.023-.072.038-.098.038-.143a.66.66 0 0 1 .015-.113s-.008-.022-.042-.01c-.037.01-.037-.023-.045-.057 0-.034 0-.101.02-.135l.025-.041-.015-.056s-.213.045-.25-.124c-.038-.169-.042-.244-.05-.263-.003-.018-.01-.026-.037-.026-.03 0-.09-.015-.135-.101-.038-.087-.045-.124-.03-.158.011-.034.034-.019.037-.011.012.011.068.094.09.071.023-.022.012-.022-.022-.086-.03-.067-.019-.086-.015-.12l-.011-.094c0-.015.018-.03.037-.022a.13.13 0 0 1 .049.037c.007.008.011.023.03.015.019-.011.007-.071.007-.09 0-.022.023-.037.05-.018a.083.083 0 0 1 .044.067c0 .023 0 .041.011.041.012 0 .023-.034.027-.052 0-.023.015-.056.033-.027a.138.138 0 0 1 .02.106c-.008.04.007.018-.008.09-.015.075-.023.105-.02.157 0 .056 0 .086.03.15.027.068.05.143.098.146h.064s.056-.105.098-.131c.045-.023.105-.026.15-.034.037-.003.056-.018.056-.03 0-.007-.011-.011-.064-.018-.052-.008-.094-.02-.097-.06 0-.038.01-.075-.023-.075-.037 0-.12-.03-.15-.083-.03-.056-.022-.067-.019-.101 0-.03.042-.09.068-.034.026.06.041.068.064.075.018.015.048.019.037-.019-.019-.037-.026-.064-.022-.094 0-.03.022-.04.045-.044l.127-.038.038-.008s.003-.026.052-.037a.337.337 0 0 1 .113-.019c.03 0 .056.004.1-.015a.213.213 0 0 1 .11-.026.13.13 0 0 1 .07.03c.02.011.016.034.016.053 0 .018 0 .03.03.03.034 0 .06 0 .086.01.03.012.068.027.045.057-.026.03-.026.064-.045.064-.015 0-.015.015-.019.026-.007.011-.015.019.004.03s.019.022.045.045c.023.022.06.049.023.086a.428.428 0 0 1-.102.068s-.037.018.004.041c.045.026.064.075.079.086l.045.03c.011.004.007.038.007.038l-.056.03a.229.229 0 0 1-.094.03c-.03 0-.048 0-.037.026.015.03.037.06.041.075l.011.045s.053.011.098.011l.161-.007c.098-.011.128-.015.221-.004.094.008.11.008.132.015l.052.022s.131 0 .206-.018c.075-.015.09-.064.08-.09-.012-.023-.008-.06-.136-.075-.131-.023-.18-.015-.281-.034-.105-.019-.263-.071-.289-.199-.03-.127.075-.18.124-.206l.217-.086a.576.576 0 0 1 .244-.026c.101.014.158.037.199.018.037-.026.071-.007.064.03-.008.038-.05.109-.162.143a.682.682 0 0 1-.318.018c-.075-.022-.128-.048-.173-.033-.045.015-.094.071-.049.139.05.063.297.086.36.09.068.007.312-.008.383.112.067.12.011.259-.068.289-.069.026-.14.045-.213.056l-.064.011s.03.064.03.09c0 .027-.004.075.026.098.03.019.075.034.124.026.052-.004.112.03.116.075.004.049.019.113.023.206.007.094 0 .169 0 .169s0 .037-.015.071c-.012.038-.075.165-.075.165h.356l.007-.052c.015-.266-.075-.713-.135-1.106v.003Z"/><path fill="#6D8C3E" d="M10.56 10.448c.08.223.233.413.435.536.308.188.443.161.732.349.288.187.27.217.274.217.003 0-.015-.03.273-.217.289-.188.424-.165.732-.349.202-.123.356-.313.434-.536h-2.88Z"/><path fill="#D4AF3A" d="M10.811 8.895c.034.037.056.045.109.037.049 0 .064.034.071.075.008.038.008.131.045.218.038.086.158.093.158.093 0-.04.018-.097.037-.146 0-.007.019-.045-.026-.045s-.041-.019-.068-.06a.802.802 0 0 1-.09-.225.6.6 0 0 1 .023-.214c.015-.037.015-.063 0-.07h-.038s.008.037-.003.037c-.012.007-.023-.015-.03-.038-.012-.026-.02-.022-.038-.022-.019 0-.019.018-.004.037.012.015.004.049.004.049l-.052-.038c-.02-.007-.053.008-.057.03a.135.135 0 0 0 .045.102c.034.026.038.082.023.112-.008.023-.056.019-.068.008a.03.03 0 0 0-.022-.01.03.03 0 0 0-.023.01c-.015.018-.03.026.004.06Zm-.019-.094-.026-.023a1.05 1.05 0 0 1-.019-.026l-.003.026c0 .02.022.045.022.045l.026-.022Zm.075-.24c.015-.004.027-.008.015-.026-.015-.02-.022-.038-.037-.038-.011-.007-.023-.004-.023-.004l.02.05c0 .018.007.025.022.018h.003Zm.09-.075c0 .019 0 .026.015.019.015-.008.02-.027.012-.038a.076.076 0 0 0-.023-.026l-.011-.008s.007.038.004.057l.003-.004Zm.128.022-.004-.037s0 .022-.011.037c-.008.012-.004.008 0 .02.011.007.015 0 .015-.02Zm.202.882c.027.06.09-.034.15-.11.06-.074.057-.014.05.046a.285.285 0 0 0 .037.169c.026.037.045.015.056-.015.007-.027.019-.09.037-.12.02-.027.038 0 .038.022a.363.363 0 0 0 .064.116c.03.038.045-.01.056-.052l.026-.131c.008-.023.038 0 .038 0l.06.056c.037.037.04-.023.045-.053.003-.03-.004-.093.007-.105.011-.01.045.015.094.038.052.026.049-.023.045-.049a.277.277 0 0 0-.075-.127c-.045-.038-.049-.075-.038-.094.015-.019.064 0 .098-.004l.067-.011c.027-.008.027-.03.027-.03s-.02-.03-.053-.06c-.034-.03-.052-.053-.094-.06-.04-.011-.097 0-.097 0l-.008-.015c-.003-.011-.015-.011-.022 0l-.045.041c-.015.015-.026.023-.038.019-.007-.008.012-.023.012-.023s.018-.015.037-.052c.023-.038.026-.075.011-.098-.015-.015-.056 0-.082 0-.023 0-.038.008-.038-.007 0-.011.023-.004.053-.008.03-.003.049-.037.056-.07.008-.035.019-.023.038-.008.015.018.033.015.037 0l.038-.068c.018-.03.03-.071.01-.097-.022-.03-.074-.027-.097-.008a.101.101 0 0 0-.04.079c-.008.045-.02.019-.02.007 0-.015-.015-.037-.007-.056.007-.015 0-.037 0-.037s-.004-.038-.045-.042a.322.322 0 0 0-.131.012c-.038.007-.034.045-.034.045l-.064.003c-.034.004-.075.02-.105.027-.03.007-.041.01-.041.026l.004.041s.026 0 .037.011c.011.012.008.02-.007.027-.015.007-.023.007-.023.026s.008.026.026.026c.015 0 .05 0 .087.015a.072.072 0 0 1 .045.075c0 .019-.057.045-.087.045-.03 0-.037.004-.037.023 0 .018.037.015.037.015l.098.01c.064.008.075.023.105.046.026.026.007.034-.008.037-.015.012-.037.03-.056.038-.022.007-.037.022-.056.026-.019.004-.068 0-.158.038-.09.037-.123.153-.123.153l.052-.026c.041-.019.094-.045.143-.075.045-.026.045.015.022.056-.022.042.023.034.038.023l.075-.049c.045-.022.03.015.03.015s-.015.026-.02.094c-.003.064.065 0 .095-.038.033-.04.045 0 .022.045-.022.05-.067.087-.094.087-.026 0-.045-.03-.048-.045 0-.015.01-.064-.004-.075-.019-.012-.064 0-.098.022-.033.019-.037.004-.048-.015-.008-.015.01-.022.003-.037-.007-.008-.022 0-.037.007l-.105.056c-.064.034-.06.05-.06.094 0 .045.011.056.037.113Z"/><path fill="#D4AF3A" d="m11.877 8.408.037-.019.056-.011c.027 0 .023-.019.015-.03-.003-.015-.014-.019-.052-.019-.034 0-.056.019-.075.026l-.041.015.015.023c.015.019.034.022.045.015Zm.142.139.03-.008.049-.022c.022-.008.03-.012.045-.038.015-.03-.015-.03-.056-.037-.038-.012-.06 0-.064.018-.004.015 0 .03-.019.06-.018.03 0 .027.015.027Zm-.011.037c-.037 0-.086.056-.101.068-.015.01-.008.022-.008.022l.015.045c.008.026.008.064.008.064h.03c.022 0 .037-.008.06-.026a.15.15 0 0 1 .067-.027.244.244 0 0 0 .083-.03c.037-.018-.019-.052-.057-.082a.139.139 0 0 0-.097-.038v.004Zm-.525.135c.03-.004.045-.019.045-.037 0-.02-.015-.038-.056-.034-.098.011-.191-.026-.21-.12 0 0-.03.06.03.127.06.068.161.068.191.064Zm-.334 1.538.019.015h.15c.026-.008.026-.03.026-.045 0-.02.015-.075.038-.177.018-.097.056-.168.071-.21.015-.037-.015-.052-.026-.075l-.03-.093c-.004-.023-.038-.02-.06-.02-.019 0-.023.035-.027.065 0 .03-.014.116-.03.19a.533.533 0 0 1-.123.2c-.023.022-.045.03-.06.03s-.053 0-.068.01a.09.09 0 0 0-.037.06c0 .023.033.038.033.038l.038-.03c.011-.015.037-.018.056-.022.027-.004.027.004.019.015s-.004.015.011.045v.004Zm-.225-.008c-.015 0-.022.015-.026.023h.097a.052.052 0 0 0-.01-.027c-.012-.01-.042-.003-.065 0l.004.004Z"/><path fill="#D4AF3A" d="M11.055 10.245a.112.112 0 0 0-.037.026h.108c0-.007.004-.022-.007-.033-.026-.02-.049 0-.064.007Zm.908-.045c-.012 0-.023.011-.038.023-.019.01-.022.03-.026.045v.003h.049v-.003c0-.015.007-.027.026-.042.019-.018 0-.026-.011-.026Zm.086.049c0-.015-.004-.026-.015-.026-.008 0-.026.018-.038.03a.092.092 0 0 0-.018.018h.063l.008-.022Z"/><path fill="#D4AF3A" d="M12.461 9.765c.03-.022.026-.03.026-.056 0-.022 0-.03-.01-.037a.221.221 0 0 0-.106-.03.421.421 0 0 0-.157.03c-.034.022-.05.1-.05.142 0 .038.008.045.02.045.01 0 .03-.03.03-.03l.067.094c.026.037.015.052 0 .082-.007.03-.052.11-.082.124-.038.019-.06 0-.098-.004-.041-.007-.064.004-.086.027-.023.022 0 .04.015.04.011 0 .03 0 .045.02.011.01.004.045 0 .06h.195c.034-.015.056-.06.064-.087a.312.312 0 0 1 .075-.082c.018-.019.018-.03.018-.075a.174.174 0 0 0-.022-.094c-.019-.03-.03-.075-.023-.097 0-.027.045-.053.075-.075l.004.003Z"/><path fill="#D4AF3A" d="M12.139 9.277c.022.034.01.038-.015.045a.319.319 0 0 1-.105.008c-.042-.004-.042 0-.042.022 0 .036-.01.071-.03.102-.026.037-.06.022-.075.007-.022-.011-.033-.007-.037.015l-.045.079c-.019.037-.034.037-.049.034-.015-.004-.026-.027-.041-.027-.015 0-.038-.03-.06-.067-.023-.034-.034.004-.049.037-.015.03-.026.049-.056.045-.026 0-.06-.056-.075-.086-.015-.03-.026-.06-.049-.06-.026 0-.064.053-.09.064-.026.015-.037.011-.049-.008-.01-.015-.026.008-.04.045-.016.042 0 .075.022.087.022.01.063-.02.093-.038.03-.022.042-.019.075-.019.03 0 .027.053.038.124.015.075.056.083.056.083s.015.01.049-.042c.034-.056.037-.112.067-.112.034 0 .038.007.068.052.03.042.056.075.075.042.019-.03.034-.08.056-.098.019-.015.038-.022.015.011-.019.03-.03.064.015.053.045-.015.214-.083.285-.098l.176-.018.15-.012c.038 0 .038 0 .042-.026 0-.026-.02-.019-.087-.019-.067 0-.112.008-.16.015-.05.008-.068.008-.06-.007.007-.011.022-.019.074-.026.075-.01.15-.017.225-.02.06 0 .038.02.038.057a.382.382 0 0 0 .007.131c0 .038.004.05.038.102.033.052.138.082.168.097.034.019.027 0 .027-.03s.026-.03.052-.011c.026.015.075.026.109.037.03.008.037.015.037.03 0 .02 0 .057.008.09 0 .038 0 .045-.015.068l-.075.086s-.03 0-.086.015c-.06.011-.08.041-.087.064-.003.026.012.034.015.041v.03h.015c0-.008.012-.019.02-.03.022-.026.074-.034.108-.019.022.011.022.038.019.049h.135l.075-.146a.224.224 0 0 0 .022-.098c0-.045.008-.217 0-.225-.011-.01 0-.041 0-.09-.004-.048 0-.086-.09-.093-.09-.008-.12-.045-.15-.075s-.022-.102-.045-.188c-.026-.082-.086-.097-.187-.116a.873.873 0 0 0-.263-.019c-.082.008-.18.019-.232.015-.057-.007-.045.008-.027.038l-.003.003Z"/><path fill="#D4AF3A" d="m12.65 10.253-.02.018h.09a.037.037 0 0 0-.007-.026c-.015-.015-.038-.007-.064.008Zm.164-.008a.083.083 0 0 0-.03.026h.094v-.01c-.004-.016-.034-.03-.064-.016Zm-2.287.06a.906.906 0 0 0 .018.086h2.91l.023-.086h-2.955.004Zm1.96-1.391c.09.06.383.064.522.09.135.03.128.135.086.187-.045.057-.236.064-.27.068a.219.219 0 0 1 .045.052l.08-.007a.412.412 0 0 0 .228-.075c.071-.06.067-.15.004-.218-.06-.06-.162-.067-.263-.078-.105-.012-.187-.02-.3-.038-.12-.022-.176-.067-.176-.135 0-.067.064-.105.109-.116a.274.274 0 0 1 .183-.008.58.58 0 0 0 .267.012c.127-.02.157-.105.157-.105s-.015.007-.082.007c-.064 0-.113-.026-.225-.026-.12 0-.162.037-.218.06-.056.019-.202.034-.244.127-.045.094.004.14.098.203Z"/><path fill="#B96B29" d="M11.723 8.528c.03 0 .056-.024.056-.053 0-.029-.025-.052-.056-.052s-.057.023-.057.052c0 .03.026.053.057.053Zm1.177.037c-.075-.007-.169.015-.169.015s.02.015.045.011c.023 0 .068 0 .14.012.07.01.12-.023.12-.023l-.136-.015Z"/><path fill="#1D5E91" d="M12.21 9.923c-.018-.03-.022-.026-.045-.008-.018.015-.037-.045-.04-.082l.014-.154s-.097.019-.15.038l-.15.033c-.041.008-.067.02-.09.015-.022-.007-.071-.007-.109-.007-.037 0-.037.007-.075.045a.273.273 0 0 0-.075.127.748.748 0 0 0-.052.225.586.586 0 0 1-.026.117h.457l.019-.045a.112.112 0 0 1 .052-.053c.02-.007.038-.007.045-.03a.09.09 0 0 1 .053-.045c.026-.011.067-.007.105.004.037.011.052-.015.064-.03.01-.015.015-.038.037-.06.019-.026 0-.049 0-.049l-.037-.041h.003Zm.732.011c-.004-.026 0-.03-.02-.034a.17.17 0 0 1-.063-.018c-.022-.008-.019.052-.019.052s-.056.008-.116 0c-.06-.007-.131-.064-.157-.082a.206.206 0 0 1-.053-.057l-.037.027c-.02.011-.03.048-.038.09 0 .037.049.082.053.12a.413.413 0 0 1-.068.15.337.337 0 0 0-.045.09h.221a.11.11 0 0 1 .023-.038.114.114 0 0 1 .06-.026l.007-.03c.008-.019.034-.045.087-.068.056-.018.123-.022.123-.022s.027-.023.045-.053c.02-.03 0-.075 0-.1h-.003Z"/><path fill="#D4AF3A" d="M11.107 12.36c.042.015.12-.015.158-.06.037-.048.053-.12.079-.16l.049-.072s-.008.067-.046.161a.58.58 0 0 0-.03.255c.015.101.083.116.12.101.03-.007.075-.052.113-.12l.037-.075c.023-.048.046-.13.057-.127.026.004.011.06 0 .097-.019.075-.056.188-.06.263 0 .064.007.187.075.195.067.004.105-.056.142-.195.038-.139.045-.188.064-.188.015 0 .015.098.015.14 0 .095.02.19.06.277.034.03.06.026.06.026s.026.004.06-.026.06-.237.06-.278c0-.037 0-.135.019-.135s.022.045.06.184c.037.139.075.199.142.195.072-.008.075-.131.075-.199 0-.067-.041-.18-.06-.259-.018-.075.008-.07.06.03l.049.094c.037.06.075.094.098.101.037.015.104 0 .12-.1.018-.102-.06-.395-.06-.395l.037.05c.026.04.037.112.075.16.038.045.116.075.158.064.037-.015.044-.09.014-.229-.03-.138-.15-.213-.24-.322a1.184 1.184 0 0 1-.15-.308c-.11.052-.21.123-.296.21l-.221.237s-.037-.05-.217-.237a1.012 1.012 0 0 0-.3-.21 1.337 1.337 0 0 1-.165.297c-.038.048-.094.086-.136.135a.464.464 0 0 0-.09.198c-.03.135-.022.214.02.225h-.005Z"/><path fill="#D4AF3A" d="M11.1 12.825c.056-.045.082-.075.082-.075s.038-.03.03.034a.888.888 0 0 0-.018.24c.015.052.018.1.086.06.067-.038.086-.064.116-.098.034-.034.068-.049.06.004-.011.052-.034.135-.022.24.01.112.063.124.135.034.051-.07.095-.143.13-.222.02-.045.06-.082.06 0 0 .18.042.443.24.51.2-.067.24-.33.24-.51 0-.082.042-.045.065 0 .035.079.08.153.13.222.068.09.12.075.132-.034.011-.105-.011-.188-.019-.24-.007-.053.023-.038.057-.004.033.034.048.056.112.098.071.037.075-.008.09-.06a.876.876 0 0 0-.019-.24c-.007-.064.03-.03.03-.03l.08.075a.225.225 0 0 0 .127.045s.033-.188-.045-.3c-.075-.113-.11-.15-.11-.15s-.04 0-.074-.015a.208.208 0 0 1-.068-.038v.105l.117.116c.022.03.067.075 0 .03a1.867 1.867 0 0 1-.117-.09s-.015.094-.04.12c-.027.023-.068.027-.083.02l-.015-.005-.008.038s.06.112.068.154c.01.045 0 .037-.03-.02-.027-.055-.083-.13-.105-.168-.023-.041-.06-.067-.057-.019a.44.44 0 0 1-.037.18.16.16 0 0 1-.026.045l.04.15c.005.027 0 .057-.018.023-.022-.03-.079-.158-.079-.158s-.078 0-.1-.026c-.023-.022-.06-.109-.06-.109s-.03.113-.057.15a.349.349 0 0 1-.09.068l-.008.225c-.007.037-.007.049-.022.049s-.015-.015-.019-.05l-.011-.224s-.06-.038-.086-.071c-.027-.038-.06-.147-.06-.147s-.038.087-.057.113c-.022.019-.1.022-.1.022s-.06.128-.083.158c-.02.034-.023.004-.02-.019l.042-.154s-.011-.01-.026-.045a.528.528 0 0 1-.038-.18c.004-.048-.03-.022-.056.02-.026.04-.075.112-.105.168-.03.056-.037.064-.03.019a.808.808 0 0 1 .068-.154l-.004-.038-.019.004c-.015.008-.052.004-.082-.019-.027-.022-.038-.12-.038-.12l-.12.09c-.067.045-.022 0 0-.03l.12-.116v-.105s-.037.026-.067.038c-.038.015-.08.015-.08.015l-.108.15c-.075.112-.045.3-.045.3s.075 0 .128-.05H11.1Zm.967 1.256L12 13.987s-.015.03-.068.09a1.593 1.593 0 0 1-.168.15s.01.158.067.244a.67.67 0 0 0 .169.188.616.616 0 0 0 .169-.188c.06-.086.07-.244.07-.244s-.12-.09-.172-.15v.004Z"/><path fill="#B96B29" d="M11.977 14.273c0 .037 0 .127.023.127.022 0 .018-.09.022-.127l.008-.124h-.06s0 .086.007.124Z"/><path fill="#D4AF3A" d="M12 5.673a1.983 1.983 0 0 1-.6-.075l-.143.03c.237.09.49.132.743.124.33-.004.517-.037.742-.124l-.15-.03a1.9 1.9 0 0 1-.592.075Zm.769-.176a.992.992 0 0 0-.14-.094c-.022-.015-.003-.048 0-.06.005-.015.113-.045.173-.063.06-.015.053-.027.053-.027s-.038-.04-.255-.063c-.218-.027-.6-.02-.6-.02s-.383-.007-.6.02c-.218.022-.255.063-.255.063s-.008.012.052.027a.67.67 0 0 1 .173.06c.004.015.022.048 0 .06-.048.03-.094.062-.139.097-.019.015-.019.038.008.038.026 0 .026 0 .1-.015a3.54 3.54 0 0 1 1.32 0 .404.404 0 0 0 .102.015c.026 0 .026-.023.008-.038Z"/><path fill="#D4AF3A" d="M12.521 5.587c-.15-.015-.243-.037-.52-.034-.278.004-.376.02-.522.038.094.037.248.056.521.056.274 0 .428-.019.521-.056v-.004Zm-.562-2.156-.004.105.113-.008-.011-.1.123.018.004-.098-.127.012.022-.109h-.143l.027.109-.124-.012v.098l.12-.015Zm.244.266h-.15V3.57a.225.225 0 0 0-.049-.008l-.037.004v.131h-.162a.172.172 0 0 0-.007.075h.412V3.75a.207.207 0 0 0-.007-.053Z"/><path fill="#1D5E91" d="M12.004 3.937a.206.206 0 0 0 .195-.127h-.386a.206.206 0 0 0 .194.131l-.003-.004Zm.086-.356v.09h.101a.2.2 0 0 0-.101-.09Zm-.169 0a.198.198 0 0 0-.105.09h.105v-.09Z"/><path fill="#B96B29" d="M12.123 5.25 12 5.194l-.124.064c-.045.018-.038.015-.053.045-.011.033 0 .045.023.052l.153.075.173-.075c.03-.015.026-.03.015-.056-.007-.023-.026-.03-.064-.049Z"/><path fill="#D4AF3A" d="m12 5.224-.131.064.135.07.13-.07L12 5.224Zm0-.461s-.011.045-.026.067c-.015.019-.027.038-.023.064 0 .022.03.037.049.037.015 0 .045-.015.049-.037a.095.095 0 0 0-.023-.064c-.015-.022-.026-.067-.026-.067Zm0 .244a.026.026 0 1 0 0-.053.026.026 0 0 0 0 .053Z"/><path fill="#D4AF3A" d="M11.91 4.852s.042-.048.06-.082l.03-.056.03.056c.015.034.06.082.06.082s.06-.037.098-.15c.037-.12-.011-.247-.026-.378a7.788 7.788 0 0 1-.03-.368.274.274 0 0 1-.132.038.274.274 0 0 1-.135-.038s-.01.233-.03.368c-.015.135-.06.258-.022.375.037.12.097.15.097.15v.003Z"/><path fill="#B96B29" d="M12 4.688a.103.103 0 0 0 .105-.101.103.103 0 0 0-.105-.102.103.103 0 0 0-.105.102c0 .056.047.1.105.1Zm0-.248a.1.1 0 0 0 .101-.098.1.1 0 0 0-.1-.097.1.1 0 0 0-.102.097.1.1 0 0 0 .101.098Zm0-.232a.096.096 0 0 0 .097-.094A.096.096 0 0 0 12 4.02a.096.096 0 0 0-.098.094c0 .052.044.094.098.094Z"/><path fill="#D4AF3A" d="M12 4.62a.055.055 0 0 0 .056-.053c0-.029-.025-.052-.056-.052s-.056.023-.056.052c0 .03.025.053.056.053Zm0-.24a.053.053 0 1 0 0-.105.053.053 0 0 0 0 .105Zm0-.24c.027 0 .049-.02.049-.045 0-.025-.022-.045-.05-.045-.026 0-.048.02-.048.045 0 .025.022.045.049.045Z"/><path fill="#B96B29" d="M11.996 12.6c.007.004.007-.01.007-.045l.015-.15c.008-.045-.01-.04-.022-.037-.011 0-.019.034-.019.052l.004.158c0 .022.007.022.015.026V12.6Z"/><path fill="#D4AF3A" d="m10.89 13.466.196-.135a.443.443 0 0 0 .15-.15h-.038c-.022 0-.037-.026-.041-.056 0-.03 0-.086.007-.154.008-.067-.01-.123-.01-.123s-.046.04-.113.075c-.075.037-.102.022-.102.022l-.015-.071-.075.139c-.041.075-.157.157-.24.217-.073.06-.153.111-.24.15-.067.026-.026.056-.026.056s.068.068.244.102c.172.03.258-.038.303-.072Z"/><path fill="#D4AF3A" d="M11.505 13.399c-.064-.008-.101-.03-.112-.098-.008-.045 0-.214 0-.214l-.042.045a.144.144 0 0 1-.075.038l-.037.06a.35.35 0 0 1-.113.12c-.06.037-.117.077-.172.12a1.06 1.06 0 0 1-.161.116.262.262 0 0 0-.135.176c-.019.09 0 .117.067.113.068-.004.075 0 .188-.026.112-.03.274-.154.39-.225a.825.825 0 0 0 .202-.225Z"/><path fill="#D4AF3A" d="M11.813 13.5s-.046-.06-.064-.128l-.049-.202-.056.124c-.038.078-.101.1-.101.1s0 .035-.057.102a.788.788 0 0 1-.213.18.742.742 0 0 0-.24.191c-.057.083-.064.165-.038.203.03.037.068-.004.12-.034.053-.026.206-.049.42-.165.21-.112.277-.371.277-.371Z"/><path fill="#D4AF3A" d="M11.906 13.976c.056-.09.067-.3.067-.3l-.048-.037a.738.738 0 0 1-.083-.109l-.075.143a.503.503 0 0 1-.135.161c-.079.075-.187.146-.232.225-.045.075-.02.229.01.281.03.056.076.038.113-.004l.14-.123c.078-.068.187-.15.243-.236Z"/><path fill="#B96B29" d="M11.212 12.199c.03-.064.064-.139.094-.18a.564.564 0 0 0 .049-.082s-.075.067-.105.116a.643.643 0 0 0-.064.15c-.011.052-.008.06.026 0v-.004Zm.3.056.019-.071s.011-.037.004-.041c-.008-.004-.038.022-.06.093-.02.068-.053.17-.045.173a.767.767 0 0 0 .082-.154Zm.236.188.012-.03s.026-.075.026-.094c0-.015-.008-.038-.03.004-.023.041-.023.082-.026.097 0 .019-.027.079-.02.087.008.003.023-.034.038-.064Zm-.735.72-.03-.019-.048.056c-.027.027-.057.038-.075.064a.299.299 0 0 1-.102.086c-.048.027-.067.038-.06.042.012.007.045-.012.045-.012s.012 0 .072-.037c.06-.034.075-.053.112-.086a1.04 1.04 0 0 0 .086-.094Zm.255.303c.023-.022.05-.037.038-.052-.015-.011-.03-.011-.053.008l-.105.097-.075.056c-.026.023-.086.053-.112.068-.03.018-.004.018-.004.018l.045-.018.094-.038s.026-.011.06-.037a.76.76 0 0 0 .112-.101Zm.297.207c.018-.038 0-.03-.034-.015-.03.011-.101.09-.143.116-.04.03-.075.041-.112.06-.034.015-.034.026-.03.034 0 .007.015.007.03 0l.06-.034.037-.008c.023 0 .05-.022.09-.06.045-.037.083-.056.102-.093Zm.138.27a.546.546 0 0 0-.168.15c-.023.045-.038.079-.03.086.007.008.033-.008.045-.026l.033-.045s.09-.09.124-.113a.312.312 0 0 0 .098-.112c.015-.038.003-.053.003-.053s-.056.079-.105.113Z"/><path fill="#C52126" d="M10.312 6.375a.836.836 0 0 0-.668-.06.424.424 0 0 1-.213.011c-.098-.026-.173-.112-.2-.225 0 0-.09.116 0 .244a.27.27 0 0 0 .166.109c.187.037.375-.075.536-.09.15-.008.274.09.274.09s.037.03.086 0c.053-.03.068-.053.019-.083v.004Z"/><path fill="#D4AF3A" d="m9.762 11.906-.045-.007a.4.4 0 0 1-.102-.03.054.054 0 0 0-.06.011c-.015.019-.15.101-.15.101h.225c.075 0 .132-.075.132-.075Z"/><path fill="#D4AF3A" d="M10.402 11.865v-.019l-.03-.067s-.037.022-.071.056c-.045.049-.09.112-.113.139-.037.048-.09.093-.045.018s.06-.112.098-.165c.037-.048.064-.075.056-.075l-.127-.018c-.094-.012-.154-.05-.199-.075l-.124-.072s-.161.072-.221.087-.098.022-.037.052c.06.03.108.038.138.056a.412.412 0 0 0 .173.045c.052 0 .146 0 .112.038a.761.761 0 0 0-.158.487v.094s.068-.075.248-.187c.18-.113.248-.15.281-.165.034-.015.05-.015.042-.057l-.023-.172Z"/><path fill="#D4AF3A" d="M11.085 11.325a2.482 2.482 0 0 1-.034-.015h-.008a.562.562 0 0 0-.172.157c-.045.072-.09.075-.041 0a.675.675 0 0 1 .12-.157l.037-.03a2.009 2.009 0 0 1-.274-.158l-.06.094a.516.516 0 0 1-.123.075s.067-.075.09-.124l.03-.093a1.19 1.19 0 0 1-.18-.173.669.669 0 0 1-.154.278c-.143.157-.424.236-.424.236s-.097.011-.018.034c.082.018.138.056.292.03l.188-.042c.022-.007.075 0 0 .027a1.14 1.14 0 0 1-.327.052c-.071-.007-.165-.022-.067.03.101.053.142.075.202.075.06 0 .086.019.146.019s.075-.011.113-.019c.045-.011.075.004.075.023 0 .015-.06.063-.056.176 0 .116.011.191.019.225.01.037.037.09.052.12.019.03.026.064.041-.004.019-.067.056-.165.072-.229.01-.063.022-.067.026-.1.007-.035.045-.06.026 0a4.233 4.233 0 0 0-.049.194c-.011.056-.041.158.008.075.052-.075.24-.289.274-.33l.074-.105c.027-.03.09-.071.124-.116.044-.055.093-.105.147-.15l-.17-.075ZM8.479 6.48c0 .116.13.337.206.457.071.117.09.165.075.173-.008.007-.038-.053-.079-.105-.041-.053-.12-.176-.187-.27-.06-.094-.158-.315-.17-.334-.014-.019-.018-.034-.052-.007-.03.026-.093.27-.018.435.075.165.187.285.236.345.049.056.112.15.101.153-.011.008-.03-.015-.086-.075l-.218-.24a1.934 1.934 0 0 1-.142-.225c-.008-.018-.023-.015-.03-.007-.019.022-.053.071-.038.202.02.147.09.282.199.383.086.09.173.169.158.184-.012.01-.102-.068-.162-.124-.06-.06-.206-.203-.24-.244-.033-.037-.078-.019-.075.139 0 .161.177.319.248.409.075.086.165.138.157.157-.007.019-.082-.026-.127-.06l-.263-.172c-.037-.027-.052.022-.007.172s.176.27.255.326c.075.057.202.124.195.143-.008.015-.06-.008-.135-.041a1.478 1.478 0 0 0-.225-.087c-.06-.018-.06.027-.06.027s-.011.13.082.232a.499.499 0 0 0 .3.161c.098.02.113.023.113.038-.004.015-.015.019-.038.019l-.202.007c-.083 0-.128.023-.128.06 0 .038-.003.086.124.173.128.086.27.097.33.112.06.011.064.015.053.034-.015.019-.042.015-.135.026-.098.008-.154.045-.17.075-.01.023.008.098.087.15.075.053.18.071.33.06.15-.011.188-.011.191.011.008.027-.045.038-.12.045-.075.015-.131.015-.176.049-.041.038-.007.109.064.161.075.053.255.053.33.05.075-.008.187-.035.199-.016.007.023-.057.053-.135.079-.075.03-.102.045-.113.079-.019.033-.004.063.086.097a.413.413 0 0 0 .3 0c.072-.03.109-.041.12-.03.015.011 0 .026-.015.041a.323.323 0 0 1-.15.087c-.078.022-.086.022-.112.082-.03.064.037.113.18.12a.97.97 0 0 0 .39-.086c.06-.038.082-.041.094-.03.007.011.007.019-.023.041a.733.733 0 0 1-.176.105c-.045.011-.053.049-.053.079 0 .037-.011.097.113.131.127.03.274.008.412-.09a.315.315 0 0 0 .083-.075c-.012-.1-.01-.2.007-.3a.376.376 0 0 1-.127-.034c-.075-.03-.105-.097-.124-.135-.015-.037-.041-.037-.075-.03a.234.234 0 0 1-.098.023.296.296 0 0 1-.198-.105c-.068-.075-.053-.15-.056-.188 0-.037-.064-.011-.094-.011a.404.404 0 0 1-.199-.071c-.079-.053-.079-.128-.086-.161-.008-.03-.038-.05-.064-.06-.026-.008-.067-.02-.124-.064a.259.259 0 0 1-.075-.165c-.003-.03-.037-.03-.15-.09-.112-.056-.101-.176-.097-.225.004-.049.056-.086.056-.105 0-.019-.037-.023-.075-.045-.037-.023-.131-.06-.135-.203 0-.138.09-.153.09-.153l-.052-.03c-.038-.023-.143-.094-.143-.177 0-.082.038-.12.068-.142a.343.343 0 0 1 .1-.038s-.048-.033-.067-.097c-.018-.064-.026-.146.019-.203.049-.06.128-.06.173-.06.04 0 .078.023.093.012.015-.012.019-.023 0-.057a.247.247 0 0 1 0-.138c.012-.03.015-.083.12-.12.109-.034.225.037.259.06.034.018.019-.03.019-.064 0-.038-.075-.124-.158-.248a2.736 2.736 0 0 1-.378-.885c-.012-.06-.038-.03-.038-.03s-.022.008-.082.154a.938.938 0 0 0-.06.394Z"/><path fill="#D4AF3A" d="M10.369 9.053a.278.278 0 0 1-.214-.135c-.064-.094-.161-.113-.33-.113-.165.004-.244-.075-.285-.195-.041-.112.004-.247.176-.333.173-.083.251-.177.255-.323.008-.146-.169-.326-.349-.529-.176-.206-.315-.495-.315-.495s-.052.068-.052.139c0 .067.026.139 0 .157-.026.02-.038-.03-.139-.074-.105-.046-.187-.053-.251.022-.068.075 0 .202.056.262.06.064.109.113.09.132-.015.022-.101-.034-.131-.053-.03-.018-.098-.093-.199-.086-.097.011-.135.037-.142.124-.012.086.09.157.153.191.064.034.09.06.075.075-.018.011-.033 0-.063-.011a.3.3 0 0 0-.162 0c-.052.022-.135.094-.056.18.079.086.24.12.27.123.034.008.049 0 .053.023 0 .026-.068.026-.154.03-.09.004-.113.09-.101.15.01.068.157.139.24.15.078.015.108 0 .112.026.008.023-.007.03-.052.045-.045.011-.132.023-.15.094-.015.071-.02.101.048.165.068.06.18.053.21.045.034-.008.075-.041.105-.011.034.034-.03.06-.086.097-.052.038-.049.113.045.165a.273.273 0 0 0 .225.019c.038-.011.09-.075.116-.037.027.04-.082.056-.127.112-.045.053-.026.143.064.199.09.056.24.015.262-.008.026-.022.06-.03.079-.011.019.019-.008.071-.03.112-.019.05-.053.18.082.233.135.053.26-.064.282-.086.022-.023.045-.026.063-.019.02.011.012.03-.003.053-.02.022-.053.12.045.187a.236.236 0 0 0 .176.038l.075-.27h-.023c-.01 0-.015.018-.015.026 0 .007 0 .015-.007.015-.011 0-.015.007-.03.018-.019.012-.034.027-.041.02-.012-.008.037-.03.045-.046.01-.015.037-.037.037-.052s.008-.023.034-.041l.015-.023c.031-.157.053-.316.064-.476h-.045ZM7.612 7.035c.084.174.203.328.35.454l-.038-.12c-.015-.053-.008-.109-.008-.109s-.049-.063-.142-.21c-.098-.146-.147-.36-.147-.36s.09.214.158.33c.067.113.15.207.15.207s.022-.102.045-.106c.019-.007.034.008.049.03.018.023.033.023.033.023l-.06-.105-.056-.082c-.056-.087-.172-.248-.229-.41a7.3 7.3 0 0 1-.213-.686c-.023-.12-.045-.052-.068.034a1.03 1.03 0 0 0-.037.402c.026.247.099.487.213.708Zm.188.788c.043.032.087.063.131.093l-.022-.063-.012-.109-.105-.094a1.563 1.563 0 0 1-.21-.225c-.112-.135-.022-.052.068.045.09.098.262.237.262.237v-.03a.11.11 0 0 1 .027-.072c.015-.022.007-.022-.09-.097a2.794 2.794 0 0 1-.66-.915s-.053.337.15.701c.202.371.405.488.457.529H7.8Zm1.069 2.111c.112-.045.078-.154.078-.154s-.067.019-.13.045a1.3 1.3 0 0 1-.278.068c-.064 0-.064-.008-.064-.015 0-.008.045 0 .135-.015.095-.027.186-.066.27-.117.026-.018.022-.022-.015-.026a.169.169 0 0 1-.09-.034c-.015-.01-.056.004-.158.03a1.905 1.905 0 0 1-.806.027c-.022-.008-.049.007.026.139.08.13.353.198.54.198.188 0 .38-.105.488-.146h.004Zm-.503-.27c.195 0 .266-.056.266-.056l-.026-.049c-.026-.037-.022-.109-.022-.109l-.128.023a.847.847 0 0 1-.277.003c-.105-.018-.06-.03.022-.018.083.007.24-.023.293-.038.052-.018.03-.037-.004-.049a.78.78 0 0 1-.131-.07s-.237.03-.454.007c-.225-.027-.36-.083-.405-.09-.045-.008-.045.011-.045.011s-.011.023.067.139c.075.12.225.198.35.236.127.038.3.06.494.06Zm-.052-.457-.02-.05c-.01-.037.023-.07.023-.07s-.045-.012-.19-.03c-.147-.02-.155-.03-.245-.05-.09-.022-.15-.048-.15-.056.004-.01.034 0 .087.023.052.019.277.045.37.056.095.015.147.023.162.015.019-.011.075-.026.075-.026L8.336 9a.315.315 0 0 1-.12-.049c-.026-.018-.034-.022-.15-.037-.124-.011-.217-.049-.431-.127a1.683 1.683 0 0 1-.416-.207c-.045-.037-.038-.011-.03.038.01.041.01.097.12.225.105.123.157.18.43.277.27.102.575.087.575.087Zm-.807-.657c.175.12.373.202.582.24.015-.015-.015-.075 0-.105.015-.041.037-.041.097-.045.06-.004.019-.015.008-.015L8.08 8.6c-.097-.026-.195-.041-.326-.09-.131-.053-.173-.086-.169-.098.004-.01.06.03.188.075.12.05.262.068.337.087.079.015.011-.019-.026-.038-.038-.022-.086-.105-.086-.105s-.087-.015-.225-.056a1.83 1.83 0 0 1-.375-.158 1.02 1.02 0 0 1-.124-.082l-.191-.139c-.05-.037-.038-.007-.03.015.007.023.037.12.112.229.075.112.101.143.341.311Zm-.037-.476c.236.188.439.248.472.262.038.015.034-.007.027-.026a.458.458 0 0 1-.012-.082l-.18-.105a2.983 2.983 0 0 1-.266-.176c-.071-.05-.03-.045-.007-.027.022.019.116.075.213.135l.24.146s.004-.033.027-.052c.018-.019.067-.015.067-.015l-.037-.049c-.015-.022-.094-.049-.184-.09a2.155 2.155 0 0 1-.36-.255 5.778 5.778 0 0 1-.356-.364c-.015-.018-.023-.014-.027.012 0 .022-.007.037.015.15.027.112.132.352.368.536Zm.836-1.77c.026.056.056.098.075.135l.053.09s.007-.019 0-.053a.502.502 0 0 1 0-.13l.01-.087c0-.026-.014-.053-.018-.071l-.056-.263a1.818 1.818 0 0 1-.034-.364c0-.12.019-.06.019 0 .004.22.04.436.105.646 0 0 0-.034.019-.08.018-.048.048-.1.075-.157.018-.06.01-.071.01-.071s-.082-.397-.104-.585c-.023-.188-.056-.679-.056-.679-.124.12-.214.443-.225.75-.015.225.022.439.033.525.02.169.05.3.094.394Zm-.27.63c.004-.09.026-.161.083-.18 0 0-.05-.09-.094-.217a1.712 1.712 0 0 1-.071-.29c-.03-.21-.057-.43.007-.074.064.364.139.487.139.487l.094.15a.648.648 0 0 1-.015-.183c.003-.072.015-.17.037-.244 0 0-.112-.225-.184-.488a3.082 3.082 0 0 1-.12-.851s-.112.086-.15.521c-.036.473.06.946.274 1.369Zm1.249 3.323-.075-.05c-.053-.033-.038-.138-.038-.138l-.052.037a.72.72 0 0 1-.139.083c-.056.022-.082.037-.112.045-.038.011-.03 0 0-.019.03-.015.037-.026.112-.052.071-.03.214-.158.214-.158l-.094-.004c-.06 0-.135-.033-.135-.033s-.06.052-.3.157c-.141.062-.29.106-.442.132 0 0 .026.12.142.16.094.042.225.068.484.008.152-.035.299-.092.435-.168Zm.315.243c.019-.101-.038-.172-.038-.172l-.048.041c-.038.034-.09.094-.188.146-.105.049-.139.045-.041-.007.097-.053.24-.199.24-.199l-.038-.015c-.037-.015-.105.011-.375.172-.27.162-.427.17-.427.17s.12.146.45.134c.326-.011.442-.168.465-.27Zm.619-.116s-.038.049-.087.082a.574.574 0 0 1-.176.053l-.03.045a.633.633 0 0 1-.139.15c-.06.045-.15.075-.153.06-.004-.011.052-.03.108-.067.057-.034.105-.098.143-.14.037-.044-.015-.037-.015-.037h-.131c-.064-.007-.053 0-.072.027l-.09.112-.165.191c-.037.045-.007.056-.007.056s.015.027.161.045a.48.48 0 0 0 .293-.06.864.864 0 0 0 .195-.168c.172-.192.165-.349.165-.349Zm.075.394-.053.067.045-.112c.011-.023.026-.038.038-.053a.648.648 0 0 1-.06-.176c-.02.053-.068.206-.128.304-.075.12-.142.165-.101.199.045.03.127.037.225-.008.09-.045.116-.124.131-.188a.929.929 0 0 1-.045-.078.187.187 0 0 0-.049.045h-.003Zm-.019-4.77c.037 0 .067-.027.067-.06s-.03-.06-.067-.06c-.037 0-.068.027-.068.06s.03.06.068.06Z"/><path fill="#D4AF3A" d="M10.136 5.832c.06 0 .09-.03.158-.023a.982.982 0 0 1 .322.124.547.547 0 0 0 .368.034c.037-.011.075-.034.108-.053.158-.09.12-.266.12-.266a.626.626 0 0 1-.4.12l.037.03c.018.023.063.053.048.064-.015.011-.075-.045-.12-.083a.728.728 0 0 0-.243-.12c-.124-.037-.263-.037-.357.015-.093.049-.1.113-.086.139.008.015.023.019.041.019h.004Zm1.733 1.301c-.03-.007-.08-.015-.143-.075a2.673 2.673 0 0 1-.236-.262c-.019-.03-.011-.057.034-.075.04-.02.075-.075.075-.075s-.098-.038-.162-.083a1.654 1.654 0 0 1-.232-.214c-.023-.037-.011-.037.019-.048.03-.012.037-.03.037-.03s-.067-.045-.131-.098a2.667 2.667 0 0 1-.15-.135c-.098.038-.251.023-.334.008a.868.868 0 0 1-.247-.087l-.023.068c-.019.045-.086.067-.15.026-.067-.045-.052-.139-.052-.139s-.057-.037-.165-.075c-.113-.041-.203-.048-.293-.007-.09.041-.135.165-.135.262 0 .09.053.049.06.038.011-.011.034-.079.146-.098.113-.018.214.038.345.143.128.105.154.112.222.18.063.067.01.101-.098.139-.112.037-.255-.038-.259-.034-.022.011.05.112.143.15.097.037.217.011.311-.03.064-.023.075 0 .098.022a.572.572 0 0 1 .15.338.15.15 0 0 0 .097-.113c0-.022.008-.067.045-.037.038.037.064.225.064.307 0 .083-.026.199-.026.199h.026l.086-.045c.041-.026.045 0 .045.049s.015.135.075.292c.064.158.154.207.154.207s.019-.03.037-.094c.02-.064.03-.18.03-.289 0-.105-.03-.33-.03-.33s.132.158.263.195c.135.038.27.015.326-.049.056-.063.004-.093-.022-.101Z"/><path fill="#D4AF3A" d="M10.987 7.537s-.037.094-.063.124l-.03.038s.037.037.097.052l.113.03s-.068-.09-.09-.153l-.027-.087v-.004Zm.803-.048a2.748 2.748 0 0 0-.03-.079.563.563 0 0 1-.308-.064s.064.124.124.169l.071.045s-.063.011-.146-.075a.468.468 0 0 1-.116-.173s.018.218-.015.35l-.041.15s.172.033.367-.023c.195-.053.21-.071.21-.071s.022-.004-.008-.045a1.052 1.052 0 0 1-.108-.188v.004Z"/><path fill="#B96B29" d="M11.437 7.013a.415.415 0 0 1-.067-.086s-.019.018 0 .048a.566.566 0 0 0 .161.139c.035.02.073.036.112.045v-.015s-.146-.064-.206-.131Zm-.236.45-.015-.311c0-.038-.026-.03-.026-.03l-.03.01.06.398c.004.045.026.038.037.038-.022-.011-.026-.094-.026-.105Zm-.367-1.178c-.023-.022-.075-.037-.027.015.049.053.113.12.131.177.02.052.03.123 0 .108-.033-.015-.056-.015-.09-.045a.563.563 0 0 0-.12-.078c-.026-.008-.075 0-.037.037.045.05.095.096.15.135.068.049.113.075.15.098.023.017.047.033.071.048 0 0-.034-.225-.093-.318a.985.985 0 0 0-.135-.177Zm-1.2 3.72a.263.263 0 0 1-.106.049s-.03 0-.03.008c0 .007.038 0 .068-.004a.3.3 0 0 0 .097-.053c.02-.015.045-.03.038-.052-.011-.023-.023.019-.068.052Zm.386.206-.083.068-.049.026c-.026.008-.033.023-.033.023s.007.007.033 0a.638.638 0 0 0 .128-.086c.026-.023.037-.027.026-.038s-.015 0-.022.007ZM8.448 7.425c.015.015.03.038.038.034.007-.007 0-.019-.019-.037l-.03-.034-.041-.056c-.015-.015-.038-.027-.011.01l.063.083Zm-.12.263.053.049c.019.018.03.04.041.03.011-.012-.026-.034-.045-.057a.28.28 0 0 0-.052-.052.374.374 0 0 0-.045-.03l.048.06Zm.045.42c.03.034.075.041.08.03.007-.015 0-.023-.027-.038a.902.902 0 0 1-.086-.052l-.053-.041c-.015-.015-.03-.027-.037-.023-.004.004.041.056.056.064.015.007.037.03.067.06Zm.087.337c0-.011 0-.018-.023-.018a1.008 1.008 0 0 1-.06-.008s-.049-.019-.049-.007c-.003.01.038.03.057.03l.052.015c.011.007.023 0 .023-.012Zm.037.368c-.052 0-.097-.011-.101 0-.004.004.022.019.049.026.03.011.075.011.112.015.038 0 .038-.007.038-.022 0-.02-.045-.02-.098-.02Zm.413.405c-.008-.008-.027 0-.057 0a.344.344 0 0 1-.105.019l-.09-.004-.033.007c0 .008.045.008.112.015.064.008.109-.007.139-.011.03-.007.041-.019.037-.026H8.91Zm.172.285A.21.21 0 0 1 9 9.518l-.083.011s-.03 0-.022.015c0 .011.011 0 .037-.004h.086c.042 0 .068-.015.094-.018.026-.004.056-.02.045-.038-.015-.015-.045.008-.075.019Zm.334.217-.09.068-.045.022c-.026.015-.026.023-.023.03.008.008.023-.011.038-.018a.35.35 0 0 0 .094-.06c.026-.023.06-.038.056-.057-.008-.015-.011-.003-.03.015Zm-.555-2.805.064.087c.06.07.026.003.011-.015l-.128-.17c-.03-.033-.033-.018-.018 0l.071.098Zm-.12.368c.007-.008-.011-.015-.045-.056l-.098-.124s-.018-.038-.026-.038a.22.22 0 0 0 .049.094.978.978 0 0 1 .082.101c.02.023.027.034.038.023Zm.157.694c0-.02-.063-.02-.093-.023l-.083-.019s-.06-.011-.064 0c0 .004.012.012.045.019l.128.03c.037.004.067.011.067-.007Zm-.157-.375a.37.37 0 0 0 .094.063c.022.015.037.03.052.019.011-.015-.011-.026-.049-.041-.037-.019-.052-.034-.052-.034l-.038-.019c-.022-.011-.052-.022-.007.012Zm.371-.244L9.06 7.32s-.03-.03-.038-.018c-.007.01.038.037.056.06.023.018.06.07.075.06.023-.012-.015-.042-.04-.064Zm-.244.964-.06.015c-.022.007-.026.015.02.015.04 0 .055-.012.1-.02.038-.007.057-.01.05-.025-.008-.012-.03-.008-.046 0l-.064.015Zm.064.348c0 .008.03 0 .053-.007.022-.008.067-.034.093-.038.027-.011.027-.015.027-.03s-.03 0-.064.008a.303.303 0 0 0-.075.045s-.03.015-.034.022Zm.45.21c.034-.018.038-.03.026-.037-.01-.011-.018-.011-.045.007a1.9 1.9 0 0 1-.075.057l-.037.018c-.023.008-.045.027-.038.038.004.004.045 0 .064-.023.019-.022.075-.037.105-.06Zm.214.282c.011-.012.049-.023.067-.038.015-.011.027-.049.012-.052-.012-.004-.019.015-.049.037l-.131.09-.027.011c-.03.008-.015.019.008.015.022-.003.037-.003.067-.026l.053-.037Zm.311.266a.375.375 0 0 0 .086-.064c.02-.015.042-.037.027-.049-.011-.011-.027.004-.049.023l-.079.082s-.011 0-.037.027c-.038.026 0 .018.007.01a.112.112 0 0 1 .045-.03Z"/><path fill="#D4AF3A" d="m11.07 5.381.12.053.127-.09-.15-.038-.097.075Z"/><path fill="#B96B29" d="M11.595 5.445c.066 0 .12-.052.12-.116a.118.118 0 0 0-.12-.117.118.118 0 0 0-.12.117c0 .064.054.116.12.116Z"/><path fill="#D4AF3A" d="M11.595 5.374a.071.071 0 1 0 0-.143.071.071 0 0 0 0 .143Zm-.255-.446c.034.01.075.007.075.007s.011-.052-.019-.079l-.075-.063-.018-.023-.004.075c0 .03.011.071.045.083h-.004Zm.068.082a.023.023 0 1 0 0-.045.023.023 0 0 0 0 .045Zm-.166-.045-.03.034s.023 0 .046.015c.018.015.045.026.067.022.026 0 .038-.026.03-.037-.004-.019-.015-.038-.056-.049-.038-.015-.049 0-.056.015Zm.083.139c-.075.007-.176-.075-.176-.075-.008.067-.049.101-.113.112l.004.004s.06.03.131.041a.248.248 0 0 0 .094-.007.332.332 0 0 0 .112-.038c.045-.026.03-.097.03-.097s-.007.056-.082.06Zm-.296-.075c-.03-.011-.075-.034-.098-.038-.018 0-.045 0-.041.034.004.038.041.053.075.053.037 0 .056-.012.079-.023.022-.011.018-.015-.015-.026Zm-.236-.128c-.034-.026-.064-.033-.064-.033s-.023.06-.011.097c.014.038.037.045.075.045.03 0 .075-.019.063-.045a.188.188 0 0 0-.063-.064Zm.029.184c.015 0 .026-.008.026-.018 0-.01-.011-.02-.026-.02-.014 0-.026.01-.026.02s.012.018.026.018Zm.076-.311a.412.412 0 0 1 .075-.35.579.579 0 0 1 .262-.19l.056-.068a1.21 1.21 0 0 1 .158-.127l-.195.056a.088.088 0 0 1-.023.062.087.087 0 0 1-.06.028.094.094 0 0 1-.048-.015.797.797 0 0 0-.2.109l.012.045a.086.086 0 0 1-.083.086c-.014 0-.026 0-.037-.008a.875.875 0 0 0-.075.158.087.087 0 0 1 .037.075c0 .049-.033.086-.074.086a.294.294 0 0 0 0 .056c.003.027.014.045.063.06.049.012.117.098.117.098.003 0 .037-.06.015-.161Z"/><path fill="#D4AF3A" d="M11.198 4.136c.018-.015.022-.038.007-.053-.015-.011-.037-.011-.056.004-.019.015-.023.037-.008.052.012.012.038.012.057-.003Zm-.32.213c.023-.018.027-.048.012-.063-.019-.015-.045-.015-.067.003-.023.02-.023.05-.008.064.015.015.045.015.068-.004h-.004Zm-.187.319a.049.049 0 1 0 0-.097.049.049 0 0 0 0 .097Zm1.057-.731a.646.646 0 0 0-.142.06c.049 0 .086.03.086.071 0 .038-.041.083-.09.083a.082.082 0 0 1-.082-.083l.003-.026-.063.045a.66.66 0 0 0-.27.3c-.075.143-.105.3-.075.39.037.094.157.113.16.113 0 0-.014-.012-.018-.03l.011-.06v-.08s.03-.004.045.015l.053.064.06.056s.022-.038.022-.079-.026-.086-.034-.161a.558.558 0 0 1 .106-.3.87.87 0 0 1 .247-.206.079.079 0 0 0 .049-.064l.011-.075c0-.045-.037-.041-.075-.034h-.004Z"/><path fill="#D4AF3A" d="M11.595 4.106c.026 0 .052-.026.052-.048 0-.023-.022-.038-.049-.038-.03 0-.052.015-.052.038 0 .022.022.048.049.048Zm.232.915a.119.119 0 0 0 .098-.007.042.042 0 0 0 .003-.068.075.075 0 0 0-.078-.007l-.075.049s.015.018.052.033Z"/><path fill="#D4AF3A" d="M11.947 5.063c-.014.022-.026.033-.067.037-.038 0-.086 0-.113-.03a.29.29 0 0 1-.048-.064h-.045s-.015.064-.038.08c-.018.018-.093.022-.123 0-.034-.027-.06-.053-.068-.05-.004 0 0 .027.034.053s.056.049.109.049h.3s.06 0 .075-.038c.018-.034.018-.056.01-.064-.007-.01-.014.004-.026.027Z"/><path fill="#D4AF3A" d="M11.49 5.014c.045.023.072.008.087-.011l.022-.03-.064-.026c-.022-.015-.037-.027-.056-.023l-.022.004s-.012.06.037.082l-.004.004Z"/><path fill="#B96B29" d="M11.276 4.67a.1.1 0 0 0 .101-.098.1.1 0 0 0-.1-.098.1.1 0 0 0-.102.098.1.1 0 0 0 .101.097Zm.172-.444c-.037-.026-.097-.015-.13.023-.035.041-.027.097.014.123.038.027.098.015.131-.022.03-.041.027-.098-.015-.124Z"/><path fill="#D4AF3A" d="M11.272 4.612c.034 0 .06-.025.06-.056 0-.03-.027-.056-.06-.056s-.06.025-.06.056.027.056.06.056Zm.135-.375a.067.067 0 0 0-.075.03c-.011.023.004.045.038.053.064.01.094-.068.037-.083Zm-1.526 7.725s-.154.075-.203.086l-.06.015s-.105.094-.183.143a.687.687 0 0 1-.267.09c-.12.015-.45.011-.6.004-.15-.004-.24.03-.303.1-.064.076-.079.177 0 .256.082.079.172.037.202-.008.03-.048.015-.112 0-.138-.011-.03.026-.038.068-.042a.913.913 0 0 1 .401.087c.049.026.022.03-.011.026a.718.718 0 0 1-.132-.041.481.481 0 0 0-.15-.038c-.037 0-.026.019-.018.034l.037.06c.004.015-.011.071-.011.071l.019.038.03-.057c.007-.018-.004-.056.003-.075.008-.015.038-.015.064.015a.251.251 0 0 1 .068.132c.011.075-.012.123-.012.123s.03.027.038.042l-.011.086s.022.011.037-.026a.544.544 0 0 0 .049-.135c.007-.027.022-.072.052-.038.03.038.053.075.057.098l.007.037s.068-.064.09-.105a.638.638 0 0 1 .135-.146c.064-.053.173-.158.225-.195a2.95 2.95 0 0 1 .24-.135c.041-.026.049-.03.056-.101.008-.075.045-.143.06-.192l.023-.07ZM7.413 9.198c0-.015-.026-.056-.03-.078-.007-.023-.03-.012-.03-.012s-.048.03-.086.038c-.037.011-.037 0-.045-.023l-.019-.12c-.007-.037-.015-.037-.03-.03l-.09.038c-.033.011-.022.026-.01.045l.06.116c.018.026 0 .038-.016.049l-.086.022c-.038.015-.038.023-.03.038 0 .011.03.064.041.086.015.023.026.008.026.008s.042-.038.075-.053c.034-.015.038-.011.045.015l.057.18c.007.026.018.023.037.015l.06-.015c.019-.007.026-.049.026-.049l-.093-.165c-.019-.037 0-.04.015-.045.015 0 .06-.007.097-.018.038-.008.026-.03.026-.045v.003Zm.837 3.62c-.004-.03 0-.065-.023-.087a.303.303 0 0 1-.067-.113c-.012-.037.011-.06.007-.082-.004-.023-.037-.023-.064 0-.03.026-.07.049-.07.12 0 .075.025.157.127.187.097.03.097.008.09-.022v-.004Zm.101-.035s-.019-.01-.03.008c-.008.019-.008.026.019.071.026.038.045.049.075.068.03.018.007-.02.003-.03 0-.012 0-.027-.007-.038-.008-.011-.011-.019-.011-.049 0-.03-.049-.03-.049-.03Z"/><path fill="#D4AF3A" d="M8.475 13.125c.019-.03.038-.037.079-.056a.573.573 0 0 1 .157-.038c.027 0 .094-.052.083-.112a.107.107 0 0 0-.086-.083c-.038-.01-.068-.01-.08.008-.01.019-.033.038-.074.053-.041.014-.041.026-.068.037-.022.004-.003.019-.026.038-.019.014-.049 0-.079-.012-.033-.007-.037-.015-.07-.015l-.128-.007h-.027c-.022 0-.022 0-.033.022-.012.023.003.079.026.109.022.026.097.037.146.056l.113.03c.045.004.048 0 .067-.03Zm.458.045c.037-.026.015-.075.007-.101-.011-.026-.064-.034-.094-.034-.026 0-.04 0-.056.015-.015.011-.037.03-.075.045-.045.011-.075.026-.135.049-.056.022-.075.06-.097.075-.023.015-.072 0-.072 0s-.033-.008-.045 0c-.01.011 0 .03.023.056.022.023.067.023.112.038.053.015.06 0 .08-.011.018-.012.037-.038.067-.06.037-.023.112-.027.146-.03a.344.344 0 0 0 .139-.042Zm0-.172c.015.015.037.037.048.011.015-.023.038-.075.023-.105s-.038-.056-.038-.056l-.037.112c-.015.019-.015.023 0 .038h.004Zm-.15-.263c0-.045-.038-.105-.038-.105s-.011.045-.034.083c-.018.037-.037.06-.037.06l.064.015c.018 0 .04 0 .04-.049l.005-.004Zm-.285.105c.052-.007.078-.03.1-.049.023-.018.038-.07.023-.097-.015-.026-.052-.053-.067-.053h-.03s-.015.05-.038.075c-.018.023-.04.038-.037.072 0 .03-.004.063.049.052Zm.105-.236a.09.09 0 0 0-.023-.071l-.03-.026-.007.06-.004.022.026.022c.015.004.038.015.038-.007Zm-.65-1.339.038-.225a1.462 1.462 0 0 0-.236-.577 2.559 2.559 0 0 1-.225-.495 1.403 1.403 0 0 1-.075-.375c0-.086.038-.131.038-.131s.018-.023.003-.038-.037 0-.063.023a.281.281 0 0 0-.057.097l-.01.041s-.046-.011-.125-.003c-.075.007-.112.01-.112.03 0 .015.011.026.064.052.056.023.09.034.116.064.03.034.097.195.12.274.022.078.067.292.086.457.022.187.073.369.15.54.03.056.169.319.289.262v.004Zm.14.39c-.053.03-.05.24-.027.349a.77.77 0 0 0 .162.281c.033.038.037.038.056.027l.026-.008s.045-.019.079-.045c.037-.026.022-.094.015-.15-.004-.06-.053-.18-.135-.319-.083-.135-.124-.165-.176-.135Zm.056-.168c0-.072-.06-.12-.128-.12a.123.123 0 0 0-.078.022c-.072.064-.027.218.075.218.033 0 .075-.004.1-.03.027-.023.03-.06.03-.09Zm.994 1.976a.263.263 0 0 1-.083-.045.375.375 0 0 1-.116-.113c-.011-.026-.011-.026-.053-.015-.037.015-.093.012-.135.015-.037 0 .008.049.038.09.026.045.015.191.015.191l-.004.034c-.007.023 0 .038.008.038.01.007.018 0 .048-.038.03-.034.083-.12.083-.12l.052.011a.348.348 0 0 0 .154-.007c.038-.011.023-.037-.007-.041Z"/><path fill="#D4AF3A" d="M8.97 13.575c-.019 0-.026-.004-.037.007l-.023.053c-.004.011 0 .022.008.034l.03.018s.015.02.03.027c.018.007.018-.015.018-.034l.012-.071c0-.023-.015-.03-.038-.034Z"/><path fill="#1D5E91" d="M16.313 12.158c-.049-.012-.071-.03-.071-.03s-.02 0-.038.026c-.011.03-.075.067-.075.067s-.082.023-.094.083c-.01.056.03.075.068.071.041-.008.139-.026.184-.079.04-.052.048-.082.056-.101.007-.019.015-.026-.034-.037h.004Zm.131-.465a.561.561 0 0 0-.277-.372l-.08.281c-.018.068-.018.064.035.075l.25.06c.035.012.09.038.072-.044Zm-.772-.12c.037.003.037-.012.048-.064l.08-.308s-.17-.004-.32.068a.489.489 0 0 0-.21.202s.038.015.14.038c.1.022.224.056.262.06v.003Zm-.394.348-.083-.015s.038.143.102.225c.063.083.13.12.262.124.131 0 .225-.071.244-.128.015-.056.041-.097.041-.097s-.232-.03-.33-.053l-.236-.056Z"/><path fill="#D4AF3A" d="m15.236 11.831.582.113c.037.011.075.019.082.007.011-.01.019-.018.06-.033.045-.015.041-.057.041-.057l.015-.082c.008-.038.03-.053.075-.004.049.049.056.12.064.188.011.075.12.09.165.097.041.008.06-.007.086-.049.027-.037.038-.12.045-.172.008-.053 0-.045-.052-.06l-.349-.083c-.045-.007-.038-.037-.026-.07.003-.03.105-.346.105-.346a.71.71 0 0 0-.289-.086l-.086.375c-.011.049-.045.049-.094.037a15.51 15.51 0 0 1-.424-.093l-.03.067a.582.582 0 0 0-.041.195c0 .045.015.045.071.056Z"/><path fill="#D4AF3A" d="M16.512 12.124c-.05-.034-.087-.041-.113.019-.026.06-.026.15-.09.21-.067.063-.157.127-.247.12-.09-.008-.14-.027-.12-.132.022-.1.16-.135.19-.187.035-.056.027-.116-.022-.158-.048-.04-.116-.048-.135-.037a.3.3 0 0 0-.105.139c-.026.075-.045.138-.105.187a.457.457 0 0 1-.337.075c-.116-.03-.161-.067-.206-.187-.045-.117-.098-.312-.12-.338-.027-.019-.057-.037-.105 0-.053.038-.057.09-.064.135-.008.041 0 .094.052.154.053.064.105.124.124.187.019.068.075.165-.004.17-.082.007-.12.007-.18-.053-.063-.06-.307-.225-.375-.278a1.108 1.108 0 0 0-.093-.075.594.594 0 0 1-.338-.124s.068.165.079.23c.015.063.011.097.011.097l.341.172c.132.068.26.14.387.218.093.056.176.15.34.112.17-.034.507-.135.62-.169.108-.033.412-.108.525-.187.112-.075.12-.071.138-.15.02-.075 0-.116-.048-.15Zm-.645-1.163.082-.01c.056-.005.038.048.026.07l-.052.102c-.023.037.007.045.022.052l.087.023c.048.01.037-.023.037-.038l.011-.142c.004-.034.038-.023.045-.02l.064.038c.023.012.038 0 .038-.015l.03-.075c.007-.037-.015-.03-.038-.03h-.09c-.037 0-.015-.037-.015-.037l.049-.079c.022-.034.015-.037-.008-.045l-.105-.026c-.018-.004-.026 0-.026.011l-.004.101c0 .027 0 .038-.037.038-.03.004-.049-.015-.075-.041-.026-.03-.038-.02-.038-.008l-.03.113c-.007.026.004.022.023.022l.004-.004Zm.18.818s-.004.064-.012.086c-.007.026-.022.06.004.068.03.007.053.018.068.015.018-.004.01-.038 0-.064a.24.24 0 0 0-.042-.083l-.018-.022Zm.393.262c.008.02.027.023.038.027.015.003.037.003.037-.02 0-.022 0-.055-.018-.082-.02-.03-.03-.048-.042-.007-.015.037-.022.06-.015.082Zm-1.376-.262.053.015s0-.064.01-.105c.008-.045.027-.075.012-.075s-.026.015-.037.034c-.012.018-.042.022-.053.075-.011.048.004.052.015.052v.004Z"/><path fill="#B96B29" d="M15.334 11.756a.086.086 0 1 0 0-.172.086.086 0 0 0 0 .172Zm.247.064a.09.09 0 1 0 0-.18.09.09 0 0 0 0 .18Zm.716.154a.09.09 0 1 0 0-.18.09.09 0 0 0 0 .18Zm-.469-.094a.09.09 0 1 0 0-.18.09.09 0 0 0 0 .18Zm.064-.218a.09.09 0 1 0 0-.18.09.09 0 0 0 0 .18Zm.064-.213a.09.09 0 1 0 0-.18.09.09 0 0 0 0 .18Z"/><path fill="#D4AF3A" d="M15.34 11.704a.045.045 0 1 0 0-.09.045.045 0 0 0 0 .09Zm.245.063a.045.045 0 1 0 0-.09.045.045 0 0 0 0 .09Zm.721.15a.045.045 0 1 0 0-.09.045.045 0 0 0 0 .09Zm-.474-.094a.045.045 0 1 0 0-.09.045.045 0 0 0 0 .09Zm.068-.213a.045.045 0 1 0 0-.09.045.045 0 0 0 0 .09Zm.064-.218a.045.045 0 1 0 0-.09.045.045 0 0 0 0 .09Zm-2.858 2.074-.195-.135a.443.443 0 0 1-.146-.15h.037c.023 0 .038-.026.038-.056a.809.809 0 0 0-.008-.154c-.007-.067.011-.123.011-.123s.05.04.117.075c.07.037.097.022.097.022l.019-.071.075.139c.037.075.154.157.236.217a.986.986 0 0 0 .24.15c.068.026.03.056.03.056s-.067.068-.244.102c-.176.03-.262-.038-.307-.072Z"/><path fill="#D4AF3A" d="M12.495 13.399c.063-.008.1-.03.112-.098a1.797 1.797 0 0 0-.004-.214l.045.045c.023.03.075.038.075.038s.008.022.034.06a.35.35 0 0 0 .113.12c.06.037.13.082.176.12.049.043.101.082.157.116a.262.262 0 0 1 .135.176c.023.09.004.117-.063.113-.072-.004-.075 0-.188-.026-.112-.03-.274-.154-.39-.225a.758.758 0 0 1-.202-.225Z"/><path fill="#D4AF3A" d="M12.187 13.5s.045-.06.06-.128l.053-.202.052.124a.185.185 0 0 0 .105.1s0 .035.057.102c.058.072.13.133.21.18a.756.756 0 0 1 .243.191c.057.083.06.165.038.203-.03.037-.068-.004-.12-.034-.056-.026-.21-.049-.42-.165-.21-.112-.281-.371-.281-.371h.003Z"/><path fill="#D4AF3A" d="M12.093 13.976c-.06-.09-.067-.3-.067-.3l.049-.037c.026-.026.082-.109.082-.109l.075.143c.038.067.053.09.135.161.075.075.188.146.229.225.049.075.022.229-.008.281-.03.056-.075.038-.116-.004l-.135-.123c-.079-.064-.187-.15-.244-.236Z"/><path fill="#B96B29" d="M12.787 12.199a1.931 1.931 0 0 0-.142-.262s.075.067.105.116c.03.052.049.097.06.15.015.052.007.06-.023 0v-.004Zm-.3.056-.018-.071s-.012-.037-.008-.041c.008-.004.037.022.06.093.022.068.056.17.049.173a.612.612 0 0 1-.083-.154Zm-.236.188-.015-.03s-.023-.075-.023-.094c0-.015.008-.038.027.004.018.041.022.082.026.097.004.019.026.079.019.087-.004.003-.019-.034-.038-.064h.004Zm.731.72.034-.019.045.056c.026.027.056.038.075.064a.302.302 0 0 0 .105.086c.049.027.068.038.056.042-.007.007-.041-.012-.041-.012s-.015 0-.075-.037c-.056-.034-.071-.053-.109-.086l-.09-.094Zm-.255.303c-.022-.022-.045-.037-.034-.052.016-.011.03-.011.05.008l.108.097.075.056c.026.023.086.053.113.068.03.018 0 .018 0 .018l-.046-.018-.09-.038-.063-.037a.76.76 0 0 1-.113-.101Zm-.292.207c-.019-.038 0-.03.03-.015.034.011.105.09.146.116.037.03.075.041.112.06.03.015.03.026.03.034 0 .007-.014.007-.03 0l-.063-.034-.038-.008c-.018 0-.049-.022-.09-.06-.041-.037-.079-.056-.097-.093Zm-.139.27a.48.48 0 0 1 .165.15.27.27 0 0 1 .034.086c-.011.008-.038-.008-.045-.026l-.038-.045s-.09-.09-.12-.113a.312.312 0 0 1-.101-.112c-.011-.038 0-.053 0-.053s.052.079.105.113Z"/><path fill="#C52126" d="M13.687 6.375a.837.837 0 0 1 .311-.098c.135-.01.24.008.357.038a.408.408 0 0 0 .21.011c.097-.026.172-.112.198-.225 0 0 .09.116 0 .244a.27.27 0 0 1-.16.109c-.192.037-.38-.075-.537-.09-.154-.008-.274.09-.274.09s-.037.03-.09 0c-.049-.03-.064-.053-.015-.083v.004Z"/><path fill="#D4AF3A" d="m14.235 11.906.045-.007a.4.4 0 0 0 .102-.03c.018-.008.045-.008.06.011.018.019.153.101.153.101h-.225c-.078 0-.13-.075-.13-.075h-.005Z"/><path fill="#D4AF3A" d="M13.598 11.865v-.019l.03-.067s.038.022.068.056c.045.049.093.112.112.139.038.048.094.093.049.018s-.06-.112-.098-.165l-.06-.075.128-.018a.458.458 0 0 0 .199-.075l.123-.072s.162.072.225.087c.06.015.094.022.038.052-.06.03-.113.038-.139.056a.448.448 0 0 1-.172.045c-.057 0-.15 0-.113.038a.825.825 0 0 1 .158.487l-.004.094s-.068-.075-.248-.187a2.658 2.658 0 0 0-.277-.165c-.034-.015-.049-.015-.045-.057l.026-.172Z"/><path fill="#D4AF3A" d="m12.915 11.325.03-.015h.011a.665.665 0 0 1 .173.157c.045.072.09.075.037 0a.672.672 0 0 0-.12-.157.912.912 0 0 0-.037-.03c.095-.045.187-.098.274-.158.015.023.037.064.063.094a.52.52 0 0 0 .12.075s-.067-.075-.09-.124l-.03-.093a1.18 1.18 0 0 0 .18-.173.65.65 0 0 0 .158.278c.139.157.42.236.42.236s.097.011.019.034c-.08.018-.135.056-.293.03l-.187-.042c-.02-.007-.075 0 0 .027.078.03.262.056.33.052.067-.007.165-.022.063.03-.097.053-.138.075-.198.075s-.087.019-.15.019c-.057 0-.075-.011-.113-.019-.045-.011-.071.004-.071.023 0 .015.056.063.056.176a.82.82 0 0 1-.022.225.894.894 0 0 1-.053.12c-.015.03-.022.064-.037-.004-.02-.067-.057-.165-.072-.229l-.03-.1c-.003-.035-.04-.06-.022 0 .016.064.031.129.045.194.015.056.041.158-.008.075-.048-.075-.24-.289-.27-.33l-.078-.105c-.027-.03-.09-.071-.12-.116a1.074 1.074 0 0 0-.15-.15l.168-.075h.004Zm2.606-4.845c-.003.116-.13.337-.206.457-.075.117-.094.165-.079.173.012.007.042-.053.083-.105l.184-.27c.063-.094.157-.315.172-.334.011-.019.015-.034.049-.007.034.026.097.27.019.435-.075.165-.188.285-.233.345-.049.056-.112.15-.101.153.011.008.026-.015.086-.075.146-.135.267-.293.36-.468.008-.015.019-.012.03 0 .019.018.053.067.038.198a.638.638 0 0 1-.2.383c-.085.09-.172.169-.16.184.015.01.1-.068.16-.124.06-.06.21-.203.24-.244.038-.037.083-.019.08.139 0 .161-.177.319-.252.409-.075.086-.16.138-.153.157.007.019.078-.026.127-.06l.263-.172c.033-.027.048.022.003.172a.683.683 0 0 1-.25.326c-.076.057-.203.124-.196.143.008.015.06-.008.131-.041.075-.038.162-.068.225-.087.06-.018.06.027.06.027s.015.13-.078.232a.499.499 0 0 1-.3.161c-.098.02-.113.023-.113.038s.015.019.038.019l.198.007c.087 0 .132.023.132.06 0 .038 0 .086-.124.173-.131.086-.274.097-.334.112-.06.011-.06.015-.049.034.012.019.038.015.135.026.094.008.15.045.165.075.012.023-.007.098-.086.15-.075.053-.176.071-.326.06-.15-.011-.188-.011-.195.011-.004.027.045.038.12.045.075.015.135.015.176.049.045.038.011.109-.064.161-.07.053-.25.053-.326.05-.075-.008-.191-.035-.199-.016-.007.023.057.053.132.079.078.03.1.045.116.079.015.033 0 .063-.09.097a.45.45 0 0 1-.3 0c-.068-.03-.105-.041-.12-.03-.011.011 0 .026.015.041a.32.32 0 0 0 .154.087c.075.022.086.022.112.082.03.064-.041.113-.184.12a.965.965 0 0 1-.386-.086c-.06-.038-.082-.041-.094-.03-.01.011-.007.019.023.041.03.023.124.094.172.105.05.011.053.049.053.079 0 .037.015.097-.113.131a.499.499 0 0 1-.408-.09.312.312 0 0 1-.083-.075c.01-.1.007-.201-.011-.3a.376.376 0 0 0 .127-.034c.075-.03.105-.097.124-.135.019-.037.045-.037.075-.03.03.012.06.023.101.023a.296.296 0 0 0 .2-.105c.063-.075.052-.15.055-.188 0-.037.06-.011.09-.011s.12-.015.2-.071c.082-.053.082-.128.09-.161.007-.03.037-.05.063-.06a.307.307 0 0 0 .12-.064.24.24 0 0 0 .075-.165c.007-.03.037-.03.15-.09.112-.056.105-.176.097-.225 0-.049-.056-.086-.056-.105 0-.019.038-.023.075-.045.038-.023.135-.06.135-.203 0-.138-.09-.153-.09-.153l.056-.03c.038-.023.14-.094.14-.177a.17.17 0 0 0-.065-.142.438.438 0 0 0-.1-.038s.044-.033.067-.097c.018-.064.026-.146-.023-.203-.045-.06-.127-.06-.169-.06-.045 0-.082.023-.097.012-.015-.012-.015-.023 0-.057a.25.25 0 0 0 .004-.138c-.012-.03-.015-.083-.124-.12-.109-.034-.221.037-.255.06-.038.018-.019-.03-.019-.064 0-.038.071-.124.154-.248a2.467 2.467 0 0 0 .379-.885c.015-.06.037-.03.037-.03s.026.008.083.154c.049.125.07.26.063.394Z"/><path fill="#D4AF3A" d="M13.627 9.053a.278.278 0 0 0 .214-.135c.064-.094.161-.113.33-.113.169.004.247-.075.289-.195.037-.112-.008-.247-.18-.334-.17-.082-.248-.176-.255-.322-.004-.146.172-.326.348-.529.18-.206.32-.495.32-.495s.052.068.052.139c0 .067-.027.139 0 .157.026.02.033-.03.138-.075.102-.045.188-.052.252.023.063.075 0 .202-.06.262-.057.064-.105.113-.09.132.015.022.105-.034.13-.053.03-.019.098-.094.2-.086.1.011.135.037.146.124.007.086-.09.157-.158.19-.063.035-.09.06-.075.076.02.011.038 0 .064-.011a.3.3 0 0 1 .161 0c.053.022.135.093.06.18-.078.086-.24.12-.273.123-.03.008-.05 0-.053.023 0 .026.068.026.158.03.086.004.112.09.1.15-.014.067-.16.139-.24.15-.082.015-.112 0-.115.026-.008.023.007.03.052.045.045.011.135.023.15.094.015.071.019.101-.049.165-.067.06-.176.052-.21.045-.033-.008-.07-.041-.105-.011-.03.033.03.06.087.097.056.038.052.113-.042.165a.273.273 0 0 1-.225.019c-.037-.011-.093-.075-.12-.038-.026.042.083.057.128.113.045.052.03.142-.06.199-.094.056-.24.015-.266-.008-.027-.022-.06-.03-.075-.011-.023.019.007.071.026.112.019.05.056.18-.083.233-.138.052-.258-.064-.28-.086-.023-.023-.046-.027-.065-.02-.018.012-.007.03.008.053a.137.137 0 0 1-.045.188.236.236 0 0 1-.176.037c-.023-.075-.05-.157-.075-.27h.018c.015 0 .02.02.02.027 0 .007-.005.015.007.015.01 0 .01.007.03.018.015.012.03.027.037.02.011-.008-.034-.03-.045-.046-.011-.015-.037-.037-.037-.052s-.008-.023-.03-.042a.092.092 0 0 1-.02-.022 3.733 3.733 0 0 1-.044-.27 2.155 2.155 0 0 1-.015-.206h.041Zm2.764-2.018c-.146.293-.349.454-.349.454l.038-.12c.01-.053.003-.109.003-.109s.053-.064.147-.21c.093-.146.142-.36.142-.36s-.086.214-.154.33c-.07.113-.15.206-.15.206s-.026-.1-.045-.105c-.018-.007-.037.008-.052.03-.015.023-.03.023-.03.023l.056-.105.06-.083c.053-.086.169-.247.225-.408a6.35 6.35 0 0 0 .214-.687c.026-.12.049-.052.071.034.023.086.053.214.034.401a2.008 2.008 0 0 1-.21.71Zm-.188.788a5.271 5.271 0 0 1-.13.093l.018-.063.011-.11.109-.093a1.57 1.57 0 0 0 .21-.225c.109-.135.019-.052-.071.045a2.73 2.73 0 0 1-.259.236v-.03a.117.117 0 0 0-.026-.07c-.015-.023-.008-.023.086-.098a2.77 2.77 0 0 0 .66-.915s.056.337-.15.7c-.203.372-.405.488-.458.53Zm-1.068 2.11c-.113-.044-.083-.153-.083-.153s.068.019.131.045c.091.033.186.055.282.068.06 0 .06-.008.063-.015 0-.008-.048 0-.138-.015a1.086 1.086 0 0 1-.27-.117c-.027-.018-.023-.022.018-.026a.169.169 0 0 0 .087-.034c.015-.01.056.004.157.03.264.067.539.076.807.027.026-.008.052.007-.027.138-.075.132-.349.2-.54.2-.187 0-.375-.106-.487-.147Zm.502-.27c-.195 0-.27-.055-.27-.055l.026-.05c.027-.04.023-.108.023-.108l.127.023a.873.873 0 0 0 .282.003c.105-.018.06-.03-.023-.018-.099 0-.197-.012-.292-.038-.053-.019-.034-.037 0-.049a.895.895 0 0 0 .13-.07s.237.03.458.007c.222-.027.36-.083.405-.09.042-.008.042.01.042.01s.011.023-.064.14c-.075.12-.225.198-.353.236-.16.041-.325.062-.49.06Zm.049-.457.022-.048c.012-.038-.022-.072-.022-.072s.045-.01.187-.03c.15-.018.158-.03.244-.048a.42.42 0 0 0 .15-.057c0-.01-.03 0-.082.023a3.525 3.525 0 0 1-.537.071.362.362 0 0 0-.075-.026l.09-.019a.314.314 0 0 0 .12-.049c.027-.018.038-.022.154-.037.12-.011.218-.049.432-.128.21-.075.375-.172.412-.206.045-.037.041-.011.03.038-.011.04-.008.097-.116.225-.109.123-.162.18-.431.277-.274.101-.578.086-.578.086Zm.802-.66a1.52 1.52 0 0 1-.58.24c-.012-.015.014-.075 0-.105-.012-.04-.038-.04-.098-.045-.057-.003-.02-.015-.004-.015l.112-.026c.094-.026.192-.041.323-.09.135-.052.172-.086.169-.097 0-.012-.06.03-.184.075-.12.048-.263.067-.338.086-.082.015-.015-.019.023-.038a.442.442 0 0 0 .09-.105s.086-.015.225-.056c.13-.038.256-.091.375-.157l.12-.083.195-.139c.049-.037.034-.007.026.015a.857.857 0 0 1-.112.23c-.075.112-.101.142-.338.31h-.004Zm.038-.476c-.232.188-.439.248-.473.263-.037.015-.03-.008-.026-.027.008-.018.011-.082.011-.082l.18-.105c.094-.053.2-.128.27-.176.068-.05.027-.045.004-.027-.018.02-.116.075-.213.135l-.24.147s0-.034-.023-.053c-.019-.019-.071-.015-.071-.015l.037-.049c.019-.022.098-.048.184-.09a2.04 2.04 0 0 0 .36-.255c.116-.097.341-.34.356-.363.015-.02.026-.015.026.01 0 .023.012.038-.015.15a1.03 1.03 0 0 1-.363.537h-.004Zm-.833-1.77c-.026.056-.056.098-.075.135l-.056.09v-.052c.004-.03.011-.075 0-.132 0-.03-.011-.06-.007-.086 0-.026.01-.052.015-.071l.06-.263c.015-.1.033-.24.03-.363 0-.12-.02-.06-.02 0a2.207 2.207 0 0 1-.1.645s-.004-.034-.023-.08l-.071-.157c-.023-.06-.015-.07-.015-.07s.086-.398.105-.586c.022-.187.06-.679.06-.679.12.12.21.443.225.75.015.225-.023.44-.038.525a1.26 1.26 0 0 1-.093.394h.003Zm.27.63c0-.09-.022-.161-.082-.18 0 0 .052-.09.097-.217.031-.094.054-.191.068-.29.034-.21.06-.43-.004-.074-.064.364-.142.487-.142.487l-.09.15a.729.729 0 0 0 .01-.183.802.802 0 0 0-.037-.244s.113-.225.188-.488c.079-.277.118-.563.116-.85 0 0 .113.085.15.52.037.473-.057.947-.274 1.37Zm-1.245 3.323.072-.05c.056-.033.037-.138.037-.138.063.044.128.084.195.12.053.023.079.038.113.045.037.011.026 0 0-.019-.03-.015-.038-.026-.113-.052a1.166 1.166 0 0 1-.217-.158l.093-.003c.06 0 .135-.034.135-.034s.06.052.3.157a1.9 1.9 0 0 0 .443.132s-.023.12-.139.16c-.097.042-.225.068-.487.008a1.63 1.63 0 0 1-.432-.168Zm-.315.243a.214.214 0 0 1 .038-.172l.049.041c.037.034.086.094.187.146.101.05.139.045.038-.007a1.472 1.472 0 0 1-.237-.199l.038-.015c.037-.015.101.011.375.173.266.16.427.168.427.168s-.12.147-.45.135c-.326-.01-.446-.168-.465-.27Zm-.622-.116s.037.049.086.083c.049.033.18.052.18.052l.03.045a.506.506 0 0 0 .139.15c.056.045.15.075.15.06.007-.011-.049-.03-.105-.067-.056-.034-.109-.098-.146-.14-.038-.044.018-.037.018-.037h.132c.063-.007.048 0 .067.027l.09.112.165.191c.038.045.011.057.011.057s-.018.026-.165.045a.464.464 0 0 1-.288-.06.874.874 0 0 1-.195-.17c-.177-.19-.17-.348-.17-.348Zm-.075.394.056.067s-.026-.075-.049-.112l-.033-.053a.815.815 0 0 0 .06-.176c.015.053.063.206.127.304.075.12.143.165.098.199-.042.03-.128.037-.225-.008-.09-.045-.113-.124-.128-.187a.915.915 0 0 0 .045-.08c.011.008.03.02.049.046Zm.016-4.766c-.038 0-.068-.027-.068-.06s.03-.06.068-.06c.037 0 .067.027.067.06s-.03.06-.067.06Z"/><path fill="#D4AF3A" d="M13.864 5.832c-.06 0-.094-.03-.161-.023a.976.976 0 0 0-.32.124.548.548 0 0 1-.367.034c-.037-.011-.075-.034-.108-.053-.162-.09-.12-.266-.12-.266a.626.626 0 0 0 .397.12l-.034.03c-.022.023-.063.053-.052.064.015.011.075-.045.124-.083a.723.723 0 0 1 .243-.12c.124-.037.263-.037.353.015.094.049.101.113.09.139-.008.015-.026.019-.045.019ZM12.13 7.133c.03-.007.075-.015.143-.075.085-.082.163-.17.236-.262.019-.03.011-.057-.037-.075-.038-.02-.072-.075-.072-.075s.094-.038.162-.083c.063-.045.21-.18.232-.214.019-.037.011-.037-.019-.048-.033-.012-.037-.03-.037-.03s.067-.045.131-.098c.052-.043.102-.088.15-.135.098.038.248.023.33.008a.922.922 0 0 0 .251-.087l.023.068c.019.045.082.067.15.026.067-.045.052-.139.052-.139s.053-.037.165-.075c.113-.041.2-.048.29-.007.09.041.134.165.134.262 0 .09-.049.049-.06.038-.011-.011-.03-.079-.142-.098-.113-.018-.218.038-.345.143-.128.105-.158.112-.225.18-.06.067-.012.101.1.139.113.037.252-.038.26-.034.018.011-.05.112-.147.15-.093.037-.217.011-.31-.03-.065-.023-.076 0-.095.022a.563.563 0 0 0-.15.338.15.15 0 0 1-.097-.113c-.004-.022-.011-.067-.045-.037-.038.037-.068.225-.068.307 0 .083.027.199.027.199h-.027l-.086-.045c-.037-.026-.045 0-.045.049a.897.897 0 0 1-.075.292c-.064.158-.15.207-.15.207s-.019-.03-.037-.094a1.235 1.235 0 0 1-.03-.289c0-.105.026-.33.026-.33s-.128.158-.263.195c-.135.038-.266.015-.322-.049-.056-.063-.008-.093.022-.101Z"/><path fill="#D4AF3A" d="M13.013 7.537s.038.094.06.124c.023.034.034.038.034.038s-.041.037-.101.052a1.316 1.316 0 0 1-.113.03s.068-.09.09-.153l.026-.087.004-.004Zm-.806-.048c.01-.027.022-.053.034-.079a.563.563 0 0 0 .303-.064s-.06.124-.123.169l-.068.045s.06.011.143-.075a.509.509 0 0 0 .12-.173s-.02.218.015.35l.037.15s-.172.033-.367-.023c-.195-.053-.21-.071-.21-.071s-.023-.004.007-.045a1.09 1.09 0 0 0 .113-.188l-.004.004Z"/><path fill="#B96B29" d="m12.562 7.013.064-.086s.022.018 0 .048a.6.6 0 0 1-.158.139.442.442 0 0 1-.116.045v-.015s.15-.064.206-.131h.004Zm.236.45.015-.311c0-.038.023-.03.023-.03l.03.01-.056.398c-.008.045-.027.038-.038.038.019-.011.022-.094.026-.105Zm.368-1.178c.022-.022.071-.037.022.015-.049.053-.112.12-.127.177-.019.052-.03.123 0 .108s.052-.015.086-.045c.037-.026.098-.075.124-.078.026-.008.075 0 .037.037a.934.934 0 0 1-.15.135l-.15.098c-.024.017-.05.033-.075.048 0 0 .038-.225.098-.318a.985.985 0 0 1 .135-.177Zm1.2 3.72a.26.26 0 0 0 .105.049s.026 0 .026.008c0 .007-.034 0-.067-.004a.301.301 0 0 1-.098-.053c-.015-.015-.041-.03-.034-.052.008-.023.023.019.068.052Zm-.39.206.086.068.049.026c.022.008.03.023.03.023s-.004.007-.03 0a.658.658 0 0 1-.132-.086c-.022-.023-.037-.027-.026-.038.011-.008.015 0 .023.007Zm1.575-2.79c-.015.016-.034.038-.038.034-.011-.007 0-.018.015-.037l.03-.034.042-.056c.014-.015.037-.026.01.011l-.063.083h.004Zm.116.263-.049.049c-.018.019-.034.041-.045.03-.011-.011.027-.034.045-.056a.28.28 0 0 1 .101-.083l-.052.06Zm-.045.42c-.03.034-.075.041-.075.03-.008-.015 0-.022.026-.037a.917.917 0 0 0 .173-.113c.007 0-.038.053-.053.06-.015.008-.037.03-.071.06Zm-.082.338c0-.012-.004-.02.018-.02l.06-.007s.049-.018.053-.007c0 .011-.038.03-.06.03l-.053.015c-.011.007-.018 0-.018-.011Zm-.038.367c.053 0 .098-.011.101 0 0 .004-.026.019-.052.026-.027.012-.075.012-.113.015-.034 0-.037-.007-.037-.022 0-.019.049-.019.101-.019Zm-.413.405c.004-.007.023 0 .053 0 .03.011.079.019.105.019l.09-.004.037.008c0 .007-.048.007-.112.015-.068.007-.113-.008-.143-.012-.03-.007-.037-.018-.033-.026h.003Zm-.172.285c.025.01.052.015.079.015l.086.011s.026 0 .022.015c-.003.012-.014 0-.037-.003h-.09c-.045 0-.068-.015-.094-.02-.026-.003-.056-.018-.041-.037.015-.015.041.008.075.019Zm-.338.218.094.067.041.023c.03.015.027.022.023.03-.004.007-.023-.012-.037-.02a.616.616 0 0 1-.094-.06c-.027-.022-.06-.037-.053-.055.004-.015.011-.004.03.015h-.004Zm.56-2.805-.064.086c-.06.075-.027.004-.015-.015l.127-.169c.03-.034.038-.019.019 0l-.068.098Zm.12.367c-.008-.007.01-.015.04-.056l.102-.124.022-.037c.008.003-.022.067-.049.093a.865.865 0 0 0-.078.102c-.019.022-.03.033-.038.022Zm-.162.694c0-.019.068-.019.098-.023l.082-.018s.06-.012.06 0c0 .003-.011.01-.045.018l-.124.03c-.037.004-.071.012-.071-.007Zm.161-.375a.575.575 0 0 1-.093.064c-.023.015-.042.03-.053.018-.015-.015.008-.026.045-.041l.056-.034.038-.018c.019-.012.049-.023.007.01Zm-.375-.244.053-.037s.034-.03.037-.02c.008.012-.037.038-.056.06-.019.02-.056.072-.075.06-.019-.01.019-.04.045-.063h-.004Zm.248.964.056.015c.026.007.026.015-.015.015-.041 0-.06-.011-.101-.019-.041-.007-.056-.011-.049-.026.004-.011.026-.008.045 0l.064.015Zm-.068.349c.004.007-.03 0-.052-.008-.019-.007-.064-.034-.09-.037-.026-.012-.026-.015-.026-.03s.026 0 .06.007a.239.239 0 0 1 .075.045l.037.023h-.004Zm-.45.21c-.03-.02-.037-.03-.026-.038.011-.011.023-.011.045.008l.075.056.041.019c.019.007.045.026.038.037-.008.004-.045 0-.064-.022-.019-.023-.075-.038-.109-.06Zm-.21.28c-.015-.01-.052-.022-.067-.037-.019-.011-.03-.048-.015-.052.015-.004.022.015.052.037l.132.09.026.012c.026.007.015.018-.008.015-.026-.004-.037-.004-.067-.027l-.053-.037Zm-.315.267a.344.344 0 0 1-.082-.064c-.019-.015-.045-.037-.03-.048.015-.012.03.003.052.022l.079.083s.008 0 .038.026c.033.026 0 .019-.012.011a.113.113 0 0 0-.045-.03Z"/><path fill="#D4AF3A" d="m12.682 5.344.15-.038.094.075-.116.053-.128-.09Z"/><path fill="#B96B29" d="M12.405 5.445a.118.118 0 0 1-.12-.116c0-.065.054-.117.12-.117s.12.052.12.117a.118.118 0 0 1-.12.116Z"/><path fill="#D4AF3A" d="M12.405 5.374a.071.071 0 1 1 0-.143.071.071 0 0 1 0 .143Zm.251-.446c-.03.01-.07.007-.07.007s-.012-.052.018-.079l.075-.063.019-.023v.075c.003.03-.012.071-.042.083Zm-.064.082a.023.023 0 1 1 0-.045.023.023 0 0 1 0 .045Zm.165-.045.03.034s-.026 0-.045.015c-.022.015-.045.026-.07.022a.033.033 0 0 1-.024-.012.033.033 0 0 1-.007-.025c.008-.019.019-.038.056-.049.038-.015.05 0 .06.015Zm-.082.139c.075.007.172-.075.172-.075.012.067.053.101.113.112v.004s-.064.03-.131.041a.263.263 0 0 1-.094-.007.397.397 0 0 1-.113-.038c-.045-.026-.033-.097-.033-.097s.007.056.082.06h.004Zm.292-.075c.03-.011.075-.034.098-.038.019 0 .049 0 .041.034 0 .038-.037.053-.075.053a.127.127 0 0 1-.075-.023c-.022-.011-.019-.015.011-.026Zm.237-.128c.037-.026.063-.033.063-.033s.023.06.012.097c-.012.038-.038.045-.072.045-.03 0-.078-.019-.067-.045a.253.253 0 0 1 .064-.064Zm-.03.184c-.015 0-.026-.008-.026-.018 0-.01.011-.02.026-.02.014 0 .026.01.026.02s-.012.018-.026.018Zm-.072-.311a.443.443 0 0 0-.075-.349.6.6 0 0 0-.262-.191l-.053-.071c-.052-.057-.16-.128-.16-.128l.194.056a.086.086 0 0 0 .086.09.122.122 0 0 0 .05-.015.717.717 0 0 1 .194.11.086.086 0 0 0-.011.044.086.086 0 0 0 .086.086c.011 0 .027 0 .038-.007l.011.019c.024.044.044.09.06.138a.087.087 0 0 0-.037.075c0 .05.037.087.074.087v.056c0 .026-.014.045-.063.06-.049.011-.113.097-.113.097-.007 0-.041-.06-.015-.16l-.004.003Z"/><path fill="#D4AF3A" d="M12.799 4.136c-.015-.015-.019-.038-.004-.053.011-.011.038-.011.056.004.02.015.023.037.008.052-.015.012-.038.012-.06-.003Zm.319.213c-.019-.018-.023-.048-.008-.063s.045-.015.064.003c.023.02.026.05.008.064-.016.015-.046.015-.064-.004Zm.188.319a.049.049 0 1 1 0-.097.049.049 0 0 1 0 .097Zm-1.058-.731a.646.646 0 0 1 .142.06c-.049 0-.086.03-.086.071 0 .038.045.083.094.083a.083.083 0 0 0 .082-.083c0-.007 0-.018-.007-.026l.067.045a.646.646 0 0 1 .27.3c.075.143.105.3.071.39-.033.094-.157.113-.157.113s.015-.012.015-.03l-.008-.06c-.007-.038 0-.079 0-.079s-.03-.004-.045.015l-.056.064-.056.056s-.026-.038-.026-.079.03-.086.037-.161a.567.567 0 0 0-.109-.3.826.826 0 0 0-.247-.206.08.08 0 0 1-.049-.064l-.007-.075c-.004-.045.037-.041.075-.034Z"/><path fill="#D4AF3A" d="M12.404 4.106c-.03 0-.052-.026-.052-.048 0-.023.019-.038.049-.038.026 0 .048.015.048.038 0 .022-.018.048-.045.048Zm-.232.915a.128.128 0 0 1-.101-.007c-.019-.015-.027-.049 0-.068a.075.075 0 0 1 .075-.007l.075.049s-.012.018-.05.033Z"/><path fill="#D4AF3A" d="M12.053 5.063c.01.022.022.033.063.037.042 0 .087 0 .113-.03a.287.287 0 0 0 .049-.064h.048s.015.064.038.08c.019.018.09.022.124 0a.279.279 0 0 1 .063-.05c.008 0 0 .027-.03.053s-.056.049-.112.049h-.296s-.06 0-.075-.038c-.02-.034-.023-.056-.012-.064.008-.01.012.004.027.027Z"/><path fill="#D4AF3A" d="M12.506 5.014c-.045.023-.071.008-.086-.011l-.02-.03.065-.026c.018-.015.033-.027.056-.023l.022.004s.008.06-.037.082v.004Z"/><path fill="#B96B29" d="M12.724 4.67a.1.1 0 0 1-.101-.098.1.1 0 0 1 .1-.098.1.1 0 0 1 .102.098.1.1 0 0 1-.101.097Zm-.174-.444c.038-.026.098-.015.132.023.03.041.026.097-.015.123-.037.027-.097.015-.131-.022-.034-.041-.026-.098.015-.124Z"/><path fill="#D4AF3A" d="M12.728 4.612c-.034 0-.06-.025-.06-.056 0-.03.027-.056.06-.056s.06.025.06.056-.027.056-.06.056Zm-.135-.375c.026-.007.056.008.071.03.011.023 0 .045-.037.053-.064.011-.094-.068-.038-.083h.004Z"/></g><defs><clipPath id="a"><path fill="#fff" d="M0 0h24v18H0z"/></clipPath></defs></svg>