<svg xmlns="http://www.w3.org/2000/svg" width="24" height="18" fill="none"><g fill-rule="evenodd" clip-path="url(#a)" clip-rule="evenodd"><path fill="#3B5AA3" d="M0 0h23.996v18H0V0Z"/><path fill="#E2AE57" d="M0 17.512 23.996 0v3.263L0 18v-.488Z"/><path fill="#fff" d="M.84 18 24 6.72l-.004-3.581L0 17.999h.84ZM6.577.57l-.24 3.855-1.012-2.46.39 2.617-1.571-2.115L5.175 4.88l-2.063-1.6 1.606 2.01-2.33-1.035L4.428 5.8 1.89 5.463l2.4.952-3.765.345 3.773.251-2.39.983 2.513-.338-2.036 1.5 2.362-1.035-1.612 2.025L5.183 8.6 4.17 10.957l1.635-2.05-.442 2.553 1.03-2.389.233 3.776.364-3.765.889 2.4-.338-2.587L9.17 10.95l-1.073-2.4 2.048 1.65-1.629-2.06 2.434 1.013-2.152-1.572 2.62.443-2.512-.964 3.904-.244-3.9-.363 2.569-.855-2.663.337L11.014 4.4l-2.475.993 1.71-2.073-2.085 1.627 1.001-2.49-1.616 2.115.348-2.64-.963 2.494L6.574.57h.003Z"/></g><defs><clipPath id="a"><path fill="#fff" d="M0 0h24v18H0z"/></clipPath></defs></svg>