<svg xmlns="http://www.w3.org/2000/svg" width="24" height="18" fill="none"><g clip-path="url(#a)"><path fill="#D20000" d="M0 0h24v18H0V0Z"/><path fill="#FFE600" d="M0 0h3.6L12 8.678 20.4 0H24L0 18h3.6L12 9.322 20.4 18H24L0 0Zm24 7.2v3.6L0 7.2v3.6l24-3.6ZM10.5 0 12 7.714 13.5 0h-3Zm0 18 1.5-7.714L13.5 18h-3Z"/><path fill="#FFE600" d="M12 11.89a2.891 2.891 0 1 0 0-5.782 2.891 2.891 0 0 0 0 5.783Z"/><path fill="#D20000" fill-rule="evenodd" d="M12 6.43a2.57 2.57 0 1 0 0 5.141 2.57 2.57 0 0 0 0-5.141ZM8.788 9a3.212 3.212 0 1 1 6.424 0 3.212 3.212 0 0 1-6.424 0Z" clip-rule="evenodd"/></g><defs><clipPath id="a"><path fill="#fff" d="M0 0h24v18H0z"/></clipPath></defs></svg>