<svg xmlns="http://www.w3.org/2000/svg" width="24" height="18" fill="none"><g clip-path="url(#a)"><path fill="#C4272F" d="M0 0h24v18H0V0Z"/><path fill="#015197" d="M7.999 0h8.003v18H7.998V0Z"/><path fill="#F9CF02" d="M4.013 8.404a1.313 1.313 0 1 0 0-2.625 1.313 1.313 0 0 0 0 2.625Z"/><path fill="#C4272F" d="M4.013 7.928a1.432 1.432 0 1 0 0-2.865 1.432 1.432 0 0 0 0 2.865Z"/><path fill="#F9CF02" fill-rule="evenodd" d="M3.417 4.943a.596.596 0 1 0 1.192 0c0-.236-.15-.27-.15-.356 0-.09.09-.21-.09-.36.09.15-.06.18-.06.33 0 .15.06.15.06.266a.12.12 0 0 1-.236 0c0-.116.116-.236.116-.413 0-.183-.026-.243-.116-.39-.09-.15-.24-.27-.12-.39-.18.06-.09.3-.09.45 0 .15-.12.237-.12.413s.09.214.09.33a.12.12 0 0 1-.236 0c0-.116.06-.116.06-.266 0-.15-.15-.18-.06-.33-.18.15-.09.27-.09.36 0 .09-.15.116-.15.356Z" clip-rule="evenodd"/><path fill="#F9CF02" d="M4.013 7.684a.953.953 0 1 0 0-1.905.953.953 0 0 0 0 1.905Zm-2.625.956v5.726H2.58V8.64H1.388Zm4.057 0v5.726h1.193V8.64H5.445Zm-2.625.956v.476h2.385v-.476H2.82Zm0 3.337v.48h2.385v-.476l-2.385-.004Zm0-4.293h2.385l-1.192.716L2.82 8.64Zm0 5.013h2.385l-1.192.71-1.193-.71Zm1.193-.883a1.264 1.264 0 1 0 0-2.528 1.264 1.264 0 0 0 0 2.527Z"/><path fill="#C4272F" fill-rule="evenodd" d="M4.012 10.312a1.192 1.192 0 1 0 0 2.385 1.192 1.192 0 0 0 0-2.385Zm-1.335 1.193a1.335 1.335 0 1 1 2.67 0 1.335 1.335 0 0 1-2.67 0Z" clip-rule="evenodd"/><path fill="#C4272F" fill-rule="evenodd" d="M4.41 10.474a.562.562 0 0 0-.398-.165v-.143a.705.705 0 0 1 0 1.41h-.005a.562.562 0 1 0 0 1.122l.01.142a.703.703 0 0 1-.7-.985.704.704 0 0 1 .698-.421.563.563 0 0 0 .395-.96Z" clip-rule="evenodd"/><path fill="#C4272F" d="M4.013 11.111a.24.24 0 1 0 0-.48.24.24 0 0 0 0 .48Zm0 1.264a.24.24 0 1 0 0-.48.24.24 0 0 0 0 .48Z"/></g><defs><clipPath id="a"><path fill="#fff" d="M0 0h24v18H0z"/></clipPath></defs></svg>