<svg xmlns="http://www.w3.org/2000/svg" width="24" height="18" fill="none"><g clip-path="url(#a)"><path fill="#00785E" d="M0 0h24v18H0V0Z"/><path fill="#FBD116" d="m11.063 4.076 1.518 1.106L12 3.394l-.581 1.788 1.522-1.106h-1.879Z"/><path fill="#fff" d="M12 12.435H8.156l-.142-.15H12a.078.078 0 0 1 .052.075.08.08 0 0 1-.052.075Zm0-1.174a.488.488 0 0 0 0-.427 3.039 3.039 0 0 1-2.1.844H7.534c.069.102.141.202.217.3h2.288c.75 0 1.432-.27 1.96-.717Zm-4.11-.926a1.23 1.23 0 0 1-.364.075 3.038 3.038 0 0 0 4.474.094 16.536 16.536 0 0 0 0-4.744c-.248.225-.713.701-.93 1.436a3.036 3.036 0 0 0-.12.866c0 .601.179 1.189.514 1.688a3.026 3.026 0 0 1-.345-3.158 1.22 1.22 0 0 1-.282-.487 3.02 3.02 0 0 0-.393 1.5c0 .675.22 1.301.596 1.804a3.562 3.562 0 0 0-2.753-1.103c.104.096.19.209.255.334a3.562 3.562 0 0 1 2.573 1.102 3.562 3.562 0 0 0-3.664-.558 3.045 3.045 0 0 0 3.098 1.957 3.03 3.03 0 0 1-2.655-.806H7.89Zm4.11 3.33h-1.991c.633.251 1.31.38 1.99.379a.413.413 0 0 0 .05-.188.413.413 0 0 0-.05-.191Zm0-.919H8.49c.095.08.192.158.292.232H12a.172.172 0 0 0 .049-.116.15.15 0 0 0-.05-.116Zm0 .469H9.124c.174.11.354.21.54.3H12a.285.285 0 0 0 .045-.158.281.281 0 0 0-.045-.142Z"/><path fill="#FBD116" d="m7.519 6.555.953.885-.252-1.275-.547 1.177 1.136-.63-1.29-.157Zm1.384-1.2 1.301.022-1.039-.787.379 1.249.424-1.234-1.065.75Z"/></g><defs><clipPath id="a"><path fill="#fff" d="M0 0h24v18H0z"/></clipPath></defs></svg>