<svg xmlns="http://www.w3.org/2000/svg" width="24" height="18" fill="none"><g clip-path="url(#a)"><path fill="#0071BC" fill-rule="evenodd" d="M-6 0h36v18H-6V0Z" clip-rule="evenodd"/><path fill="#fff" fill-rule="evenodd" d="M13.875 13.713s.57-.603 1.117-.487c.165-.638.788-.69.788-.69s-.064-.701.731-.855c.023-.476.506-.874.506-.874s-.097-.739.405-.911c-.307-.585.105-1.013.102-1.024-.008-.011-.525-.93-.06-1.192-.488-.413-.33-.878-.33-.878s-.533-.139-.342-.776c-.438-.075-.525-.784-.525-.784s-.675.139-.757-.45c-.45.071-.495-.367-.503-.367-.003 0-.88.236-1.057-.428a.336.336 0 0 1-.488-.139s-.487.244-.78-.225c-.58.364-.907-.015-.907-.015s-.761.503-1.013.113c-.45.457-.855.262-.855.262s-.337.6-.888.45c-.124.56-.758.57-.758.57s.068.492-.69.627c-.097.58-.495.675-.495.675s.038.57-.319.75c.128.318-.202.708-.202.708s.352.44-.128.934c.462.12.128.915.128.915s.637.285.236.814c.458.15.315.51.319.724.292.13.547.067.424.652.892.101.472.593.472.593s.413.018.251.348c.762-.018.874.57.874.57s.705-.187.799.087c.094.273-.308 2.126-.308 2.126s-.6 0-1.042-.48c-1.043-.026-.81-.713-.825-.713-.019 0-.349.128-.518-.446-.697.143-.675-.442-.682-.45-.004-.004-.311-.142-.199-.431-.716.064-.664-.638-.664-.638-.157-.063-.213-.21-.19-.356-.095-.034-.732-.045-.402-.885-.608-.367-.229-.787-.229-.787s-.84-.435-.191-.938c-.488-.712.037-1.069.037-1.069s-.67-.678.012-1.162c-.113-1.031.502-1.279.502-1.279s-.322-.84.555-1.192c.056-.852.671-.874.671-.874s.015-.675.983-.608c.187-.603.844-.483.844-.483s.202-.732 1.098-.38c.454-.888 1.133-.434 1.133-.434s.427-.278.637-.188c.274-.468.855-.022 1.227.072.138-.057.622-.42.993.037.495-.319.92.263.92.263s.678-.345.997.442c1.443-.131 1.237.814 1.237.814s1.133-.259.885.874c1.035.07.93.75.93.75s.653.495.368.937c.58.03.367.589.367.589s.446.172.075.862c.851.68.165 1.358.161 1.35-.007-.003.454.548.038 1.185.127 1.013-.383 1.268-.383 1.268s.132.656-.438.84c-.012.769-.74.862-.74.862s.196.338-.524.687c-.03.513-.78.555-.78.555s-.071.945-1.028.69c-.228.757-1.35.532-1.372.525-.019-.012-.214-1.628-.214-1.632h.004Z" clip-rule="evenodd"/><path fill="currentColor" fill-rule="evenodd" d="M11.415 1.578a.355.355 0 0 0-.232.183l-.016.028-.029-.013a.295.295 0 0 0-.167-.006.986.986 0 0 0-.202.066 1.811 1.811 0 0 0-.23.122l-.004.002-.02.014-.02-.013-.001-.001a.42.42 0 0 0-.026-.016.751.751 0 0 0-.35-.093.619.619 0 0 0-.348.102 1.07 1.07 0 0 0-.356.43L9.4 2.41l-.03-.012a1.077 1.077 0 0 0-.532-.087.598.598 0 0 0-.317.138.682.682 0 0 0-.202.303v.001l-.009.032-.032-.006h-.001a.242.242 0 0 0-.025-.004.87.87 0 0 0-.31.019.618.618 0 0 0-.467.444l-.008.027-.029-.002c-.474-.033-.707.116-.823.265a.595.595 0 0 0-.12.307h-.001v.034l-.034.001h-.006a.654.654 0 0 0-.29.11c-.15.107-.314.315-.341.731l-.002.022-.02.009a.974.974 0 0 0-.442.323.785.785 0 0 0-.143.376 1.046 1.046 0 0 0 .049.446v.001l.013.033-.032.013h-.002a.19.19 0 0 0-.021.011.832.832 0 0 0-.255.23c-.134.183-.258.493-.203 1.001l.002.02-.017.013c-.165.117-.245.243-.275.365a.61.61 0 0 0 .027.357 1.118 1.118 0 0 0 .24.385l.001.001.03.03-.035.025a.182.182 0 0 0-.018.014.603.603 0 0 0-.17.236c-.065.166-.078.421.16.769l.02.028-.027.02c-.158.122-.22.236-.23.335a.377.377 0 0 0 .089.273c.061.082.143.15.21.197a1.275 1.275 0 0 0 .108.068l.007.004h.001v.001l.042.021-.031.034-.001.001-.003.003a.485.485 0 0 0-.101.233.376.376 0 0 0 .046.232.742.742 0 0 0 .28.265l.025.015-.01.028c-.082.207-.102.359-.088.47.013.111.06.185.119.235.06.051.132.08.197.098.033.01.063.016.088.021l.008.001c.021.005.042.009.055.014l.028.01-.005.029c-.02.133.03.261.17.317l.024.01-.002.026v.007a.527.527 0 0 0 .003.095.707.707 0 0 0 .057.223.45.45 0 0 0 .18.207.628.628 0 0 0 .385.067l.057-.005-.02.054a.26.26 0 0 0 .049.286.44.44 0 0 0 .128.098l.004.002.002.002h.002a.036.036 0 0 1 .016.027v.008l.001.007v.007l.001.005a.491.491 0 0 0 .074.238.353.353 0 0 0 .183.145c.088.033.21.043.38.008l.032-.006.01.031c.082.28.2.38.293.415a.28.28 0 0 0 .162.01l.013-.002h.003l.003-.001.009-.001c.023 0 .032.018.034.024a.04.04 0 0 1 .002.012v.011l-.004.023a.739.739 0 0 0-.008.075.504.504 0 0 0 .036.223c.066.157.252.331.766.344h.015l.01.012c.216.234.47.351.671.41a1.549 1.549 0 0 0 .317.057 26.806 26.806 0 0 0 .182-.93c.044-.248.086-.505.11-.716.012-.105.02-.199.022-.274a.525.525 0 0 0-.012-.158c-.018-.052-.066-.086-.14-.106a.842.842 0 0 0-.258-.016 2.03 2.03 0 0 0-.35.057l-.006.001h-.001l-.038.01M11.137 1.7a.417.417 0 0 1 .262-.191.69.69 0 0 1 .34.025c.114.033.232.083.342.13l.002.001c.107.046.206.089.293.112.014-.006.032-.016.053-.027l.01-.006.085-.044a1.15 1.15 0 0 1 .257-.094.616.616 0 0 1 .31.005c.099.03.198.09.289.195.253-.148.488-.078.656.028a1.109 1.109 0 0 1 .264.234l.002.003a.856.856 0 0 1 .37-.066c.11.006.232.039.347.122.11.08.212.204.293.392.71-.059 1.03.144 1.168.378a.697.697 0 0 1 .089.43 1.39 1.39 0 0 1 .128-.014c.104-.007.243-.004.375.036.132.04.26.119.337.265.073.138.098.331.045.598.498.043.733.23.841.417a.633.633 0 0 1 .083.35 1.605 1.605 0 0 1 .282.298c.122.17.22.4.107.624a.467.467 0 0 1 .268.11c.07.063.1.145.11.222a.631.631 0 0 1-.025.27.42.42 0 0 1 .165.175c.07.139.086.36-.089.696.203.167.318.335.374.496a.773.773 0 0 1 .017.455.988.988 0 0 1-.228.413 1.112 1.112 0 0 1 .16.338c.064.222.075.526-.132.85.061.506-.035.827-.15 1.024a.821.821 0 0 1-.228.253l-.003.001.001.006a.995.995 0 0 1-.01.334.65.65 0 0 1-.433.508c-.014.382-.202.601-.39.723a1.03 1.03 0 0 1-.336.14.346.346 0 0 1-.007.196c-.044.14-.181.313-.532.487-.026.264-.232.406-.422.48a1.386 1.386 0 0 1-.356.084h-.004a1.092 1.092 0 0 1-.158.427.673.673 0 0 1-.325.264c-.143.053-.324.065-.553.01-.13.374-.475.504-.783.541a2.056 2.056 0 0 1-.603-.02l-.021-.006h-.004l-.003-.003a.037.037 0 0 1-.013-.013.076.076 0 0 1-.006-.014 163.898 163.898 0 0 1-.21-1.612l-.001-.008v-.005l-.001-.004v-.041h.024a2.227 2.227 0 0 1 .35-.282c.204-.132.48-.256.757-.211a.92.92 0 0 1 .464-.575 1.063 1.063 0 0 1 .312-.105.9.9 0 0 1 .072-.353c.086-.2.271-.417.662-.5.02-.238.147-.453.268-.608a1.942 1.942 0 0 1 .228-.245l.007-.007-.001-.014a1.457 1.457 0 0 1 .017-.368c.038-.201.135-.432.377-.533a.91.91 0 0 1-.047-.72 1.042 1.042 0 0 1 .153-.283l.003-.004a2.413 2.413 0 0 1-.2-.49 1.061 1.061 0 0 1-.041-.41.42.42 0 0 1 .164-.295.947.947 0 0 1-.325-.584.806.806 0 0 1 .01-.266.6.6 0 0 1-.224-.147c-.115-.12-.2-.316-.118-.625-.215-.056-.343-.255-.416-.434a1.6 1.6 0 0 1-.094-.336 1 1 0 0 1-.326-.01.574.574 0 0 1-.273-.136.539.539 0 0 1-.159-.305.474.474 0 0 1-.252-.035.402.402 0 0 1-.165-.142.574.574 0 0 1-.081-.188l-.007.001a1.532 1.532 0 0 1-.435.027.812.812 0 0 1-.37-.121.603.603 0 0 1-.242-.327.42.42 0 0 1-.201.038.333.333 0 0 1-.17-.062.416.416 0 0 1-.11-.12.731.731 0 0 1-.264.054.586.586 0 0 1-.511-.275c-.286.168-.513.165-.672.114a.628.628 0 0 1-.23-.132l-.01.006a2.199 2.199 0 0 1-.386.185.907.907 0 0 1-.35.058.365.365 0 0 1-.266-.128c-.22.212-.43.276-.59.284a.68.68 0 0 1-.246-.032v.001c-.01.017-.027.04-.047.068a1.225 1.225 0 0 1-.182.196c-.152.13-.373.245-.648.185a.718.718 0 0 1-.438.484 1.062 1.062 0 0 1-.309.076c0 .013 0 .03-.003.05a.529.529 0 0 1-.064.196c-.082.148-.259.306-.63.377-.052.284-.176.453-.29.552a.67.67 0 0 1-.198.118 1.224 1.224 0 0 1-.028.29c-.034.16-.11.35-.284.451.053.166-.001.341-.065.473a1.303 1.303 0 0 1-.136.22.72.72 0 0 1 .107.274c.028.174-.003.402-.216.643.095.04.153.112.184.197a.7.7 0 0 1 .024.326 1.663 1.663 0 0 1-.097.386l-.002.005a.888.888 0 0 1 .251.204.466.466 0 0 1 .108.276.558.558 0 0 1-.111.333.533.533 0 0 1 .212.14.409.409 0 0 1 .096.21.866.866 0 0 1 .002.212 1.521 1.521 0 0 0-.013.156c.047.02.092.035.136.05.016.004.032.01.047.015a.51.51 0 0 1 .173.088c.097.084.127.224.075.492.204.027.34.076.428.137a.288.288 0 0 1 .136.227.392.392 0 0 1-.07.232h.005a.52.52 0 0 1 .135.047c.046.026.09.065.11.125a.257.257 0 0 1-.009.168c.358.005.572.146.696.291a.782.782 0 0 1 .15.272m-1.225-.843.072.003-.072-.003Zm.072.003h.004l.012.002a.395.395 0 0 1 .155.045.15.15 0 0 1 .077.084c.012.036.011.09-.027.167l-.025.052.058-.001c.37-.01.578.129.695.265a.712.712 0 0 1 .143.275v.001M6.528 7.75l.003-.004a.758.758 0 0 0 .044-.059c.028-.04.065-.097.097-.164.065-.135.11-.3.052-.445l-.012-.03.03-.015c.163-.083.24-.257.274-.418a1.237 1.237 0 0 0 .025-.297v-.001l-.002-.03.029-.007a.136.136 0 0 0 .014-.004.599.599 0 0 0 .182-.108c.105-.09.225-.252.272-.534l.004-.025.025-.004c.37-.066.533-.218.604-.346a.458.458 0 0 0 .057-.237v-.003l-.006-.04.04-.001h.002a.29.29 0 0 0 .024-.002.991.991 0 0 0 .294-.071.646.646 0 0 0 .404-.47l.008-.036.036.01c.26.07.47-.034.619-.161a1.154 1.154 0 0 0 .229-.27v-.002l.017-.03.03.015a.117.117 0 0 0 .015.006.609.609 0 0 0 .226.03c.149-.007.354-.069.573-.291l.031-.032.024.038a.288.288 0 0 0 .237.13c.1.008.213-.017.322-.055a1.936 1.936 0 0 0 .396-.193l.006-.004.002-.001.026-.018.02.024h.001l.003.003.01.01a.558.558 0 0 0 .207.12c.143.046.36.052.642-.125l.03-.019.019.03a.52.52 0 0 0 .469.272.686.686 0 0 0 .26-.057l.002-.001.002-.001M6.528 7.796a.155.155 0 0 1 .013.017.65.65 0 0 1 .096.247c.026.16-.002.383-.234.622l-.043.044.06.016a.26.26 0 0 1 .19.171c.03.084.032.188.02.292a1.593 1.593 0 0 1-.104.395l-.001.004-.001.002v.002m8.492-5.148Zm2.152 2.354v.004a.417.417 0 0 0-.015.068.735.735 0 0 0 0 .196c.02.16.098.37.335.57l.039.034-.045.025a.342.342 0 0 0-.17.269.993.993 0 0 0 .04.38 2.276 2.276 0 0 0 .18.452l.022.04.003.004.002.005a.036.036 0 0 1-.001.024.567.567 0 0 1-.018.028l-.003.004-.04.057a.964.964 0 0 0-.103.207.845.845 0 0 0 .06.698l.02.037-.039.014c-.233.08-.33.291-.367.493a1.345 1.345 0 0 0-.015.372v.007l.003.02-.015.013h-.001l-.004.004-.007.006a.695.695 0 0 0-.062.057 1.856 1.856 0 0 0-.165.185c-.122.157-.243.368-.254.596l-.002.027-.027.006c-.385.074-.559.28-.638.464a.83.83 0 0 0-.065.351v.002l.004.035-.036.003h-.001l-.005.001a.48.48 0 0 0-.088.017.987.987 0 0 0-.224.084.852.852 0 0 0-.438.562l-.009.033-.033-.007c-.26-.055-.528.06-.737.195a2.146 2.146 0 0 0-.323.257l-.016.017.006.05a163.898 163.898 0 0 0 .164 1.3 10.185 10.185 0 0 0 .035.234l.033.006a1.97 1.97 0 0 0 .543.014c.306-.037.625-.166.733-.525l.01-.033.034.01c.233.062.41.05.542 0a.603.603 0 0 0 .291-.236.93.93 0 0 0 .148-.414l.001-.007v-.002m.034-.033h.008l.011-.002h.012a1.295 1.295 0 0 0 .337-.08c.187-.073.365-.204.378-.44l.002-.02.018-.01c.356-.172.477-.337.515-.452a.275.275 0 0 0 0-.173.187.187 0 0 0-.003-.007l-.001-.002-.001-.002-.027-.046.053-.007h.002a.959.959 0 0 0 .349-.137c.175-.115.352-.32.357-.69V12l.025-.008a.58.58 0 0 0 .409-.462.946.946 0 0 0 .008-.321l-.001-.01-.001-.005v-.001l-.006-.027.024-.012h.001l.003-.002a.492.492 0 0 0 .066-.048.753.753 0 0 0 .155-.19c.107-.183.202-.491.139-.991l-.002-.013.007-.011a.944.944 0 0 0 .13-.804 1.107 1.107 0 0 0-.162-.334V8.76a.2.2 0 0 1-.005-.005v-.003l-.002-.002a.03.03 0 0 1-.002-.004c0-.001-.003-.007-.002-.014a.04.04 0 0 1 .007-.02.064.064 0 0 1 .02-.013.033.033 0 0 0-.008.003c-.002 0-.002.001-.003.002l.003-.003a.844.844 0 0 0 .083-.1.917.917 0 0 0 .139-.294.702.702 0 0 0-.016-.414c-.052-.15-.164-.315-.373-.482l-.023-.018.014-.026c.182-.34.16-.542.101-.658a.348.348 0 0 0-.155-.154h-.002l-.034-.014.013-.033.002-.005a.718.718 0 0 0 .02-.077.561.561 0 0 0 .01-.184.288.288 0 0 0-.088-.179c-.054-.05-.14-.088-.28-.095l-.062-.003.034-.052c.13-.202.05-.419-.076-.595a1.48 1.48 0 0 0-.282-.294h-.001v-.001l-.017-.013.003-.02v-.007l.002-.02c0-.017 0-.042-.002-.072a.562.562 0 0 0-.073-.227c-.095-.165-.315-.349-.824-.384l-.041-.003.008-.04c.061-.278.036-.465-.03-.59a.473.473 0 0 0-.295-.23.988.988 0 0 0-.35-.033 1.314 1.314 0 0 0-.155.02l-.01.001h-.001l-.056.013.012-.055V3.36a.525.525 0 0 0 .008-.135.627.627 0 0 0-.08-.293c-.12-.203-.412-.405-1.127-.34l-.026.002-.01-.024a.852.852 0 0 0-.279-.386.576.576 0 0 0-.309-.109.767.767 0 0 0-.36.07l-.028.014m5.063 6.555Zm-5.436 4.995Zm3.26-6.896.013-.037-.037-.01h-.005a.52.52 0 0 1-.221-.138c-.1-.105-.183-.286-.09-.593l.011-.038-.04-.007c-.2-.034-.324-.214-.4-.399a1.538 1.538 0 0 1-.094-.347l-.001-.005v-.002m-4.888-3.66a.62.62 0 0 1 .304.024l-.304-.024Zm.304.024c.11.032.224.08.336.129l-.336-.129Zm.336.129Zm0 0Zm0 0c.11.047.219.094.315.118l-.314-.118Zm.408.082a.848.848 0 0 1-.071.035l-.01.004-.012-.003m.093-.036.01-.006-.01.006Zm.01-.006.083-.043-.083.043Zm.083-.043c.07-.034.152-.069.24-.088l-.24.088Zm.24-.088a.546.546 0 0 1 .274.004l-.274-.004Zm.274.004a.556.556 0 0 1 .275.195l-.275-.195Zm.928.214c-.16-.101-.374-.161-.606-.012l-.027.017-.02-.024m.653.019c.081.05.147.111.194.16l-.194-.16Zm.194.16.053.059-.053-.06Zm.053.059.013.017-.013-.017Zm.013.017a.188.188 0 0 1 .003.004l-.003-.004Zm.003.004.001.001Zm.001.001Z" clip-rule="evenodd"/><path fill="#217900" fill-rule="evenodd" d="M6.938 4.65s.24.21.195.525c-.045.311-.225.746-.188 1.069.023.13.012.363.012.363s-.214-.307-.218-.637c-.004-.33.233-.641.233-.885s-.042-.439-.038-.431l.004-.004Zm-.12.097s-.315.3-.356.59c-.03.15-.038.85-.045 1.162-.008.093-.045.468-.053.607-.011.135.229-.232.244-.536-.008-.311-.008-.968.022-1.07.03-.127.023-.266.068-.394l.12-.36Z" clip-rule="evenodd"/><path fill="currentColor" fill-rule="evenodd" d="M6.912 4.625a.035.035 0 0 0-.005.004.037.037 0 0 0-.008.017v.019l.003.013.001.01a2.763 2.763 0 0 1 .033.396.614.614 0 0 1-.035.184 2.453 2.453 0 0 1-.066.176l-.014.038c-.059.149-.12.315-.117.488.001.172.058.336.113.457a1.562 1.562 0 0 0 .108.196l.002.003v.001l.03-.02-.03.02a.036.036 0 0 0 .065-.018l-.035-.002.035.002v-.003a2.906 2.906 0 0 0 .003-.132 1.56 1.56 0 0 0-.014-.236c-.018-.154.016-.337.062-.525l.041-.162a3.61 3.61 0 0 0 .084-.372.616.616 0 0 0-.085-.403.736.736 0 0 0-.12-.152l-.001-.001-.004.004.003-.004a.036.036 0 0 0-.048.001h-.001Zm.073.132.002.013c.01.08.02.19.02.314a.683.683 0 0 1-.038.206c-.02.058-.043.12-.067.181l-.015.037c-.059.15-.114.304-.112.461.002.158.054.312.107.428.014.032.029.06.042.085v-.008a1.488 1.488 0 0 0-.014-.227c-.02-.168.018-.363.064-.55.013-.058.028-.114.042-.168a3.48 3.48 0 0 0 .082-.36.545.545 0 0 0-.113-.412Zm-.192-.036.025.026.034.011-.12.36a.85.85 0 0 0-.038.19l-.004.031a1.396 1.396 0 0 1-.025.172.361.361 0 0 0-.01.055 8.024 8.024 0 0 0-.015.39 18.185 18.185 0 0 0 .003.615c-.007.16-.074.332-.135.448a.557.557 0 0 1-.088.128.098.098 0 0 1-.023.017.048.048 0 0 1-.04.003.047.047 0 0 1-.027-.033.097.097 0 0 1-.001-.03c.005-.096.024-.3.038-.45l.014-.158.004-.207.01-.434c.003-.116.007-.228.012-.32a1.8 1.8 0 0 1 .02-.205.969.969 0 0 1 .2-.418 1.828 1.828 0 0 1 .162-.187l.003-.003h.001Zm-.062.173a1.703 1.703 0 0 0-.047.06.91.91 0 0 0-.187.389 1.736 1.736 0 0 0-.018.196c-.005.091-.01.202-.013.318a50.642 50.642 0 0 0-.014.644l-.015.164c-.011.125-.026.286-.034.39a1.077 1.077 0 0 0 .17-.486 18.278 18.278 0 0 1 .005-.904c.002-.04.004-.077.007-.106a.425.425 0 0 1 .01-.067c.013-.051.018-.104.024-.16l.004-.032a.918.918 0 0 1 .041-.205l.067-.2Z" clip-rule="evenodd"/><path fill="#FFD200" fill-rule="evenodd" d="M13.726 3.769s.404-.188.524-.54c.12-.353-.356-.353-.416-.24-.063.112.053.386.023.461-.03.075-.195.248-.131.315v.004Z" clip-rule="evenodd"/><path fill="#EF8A10" fill-rule="evenodd" d="M14.275 3.009c.035.059.041.136.01.231a.937.937 0 0 1-.32.42 1.364 1.364 0 0 1-.22.139l-.003.002h-.001l-.016-.032.015.032-.05.024v-.048a.109.109 0 0 1-.01-.088.387.387 0 0 1 .045-.097l.048-.073.012-.017a.428.428 0 0 0 .039-.065.068.068 0 0 0 .002-.023.37.37 0 0 0-.004-.046l-.015-.082a.971.971 0 0 1-.027-.186.246.246 0 0 1 .023-.128.131.131 0 0 1 .054-.05.277.277 0 0 1 .077-.028.416.416 0 0 1 .185.006c.061.017.121.05.156.109Zm-.528.709.002-.011a.317.317 0 0 1 .037-.078 1.646 1.646 0 0 1 .058-.088.469.469 0 0 0 .046-.078.133.133 0 0 0 .007-.05.429.429 0 0 0-.005-.056 2 2 0 0 0-.024-.13.89.89 0 0 1-.017-.13.177.177 0 0 1 .014-.09v-.001a.061.061 0 0 1 .026-.022.208.208 0 0 1 .057-.02.345.345 0 0 1 .152.005c.05.013.091.039.114.076.022.037.03.091.003.172a.866.866 0 0 1-.296.386 1.306 1.306 0 0 1-.174.115Z" clip-rule="evenodd"/><path fill="#FFD200" fill-rule="evenodd" d="M10.118 3.897s.263-.364.195-.728c-.071-.36-.48-.135-.48-.007 0 .127.233.31.244.39.011.078-.049.315.037.34l.004.005Zm-.716.213s.262-.363.195-.723c-.068-.364-.48-.14-.48-.012s.236.315.247.394c.008.075-.048.311.038.341Zm-.791.244s.262-.36.195-.724c-.072-.363-.48-.138-.48-.011 0 .128.232.315.243.394.012.075-.048.311.038.341h.004Zm-.563.559s.266-.364.199-.724c-.068-.364-.48-.139-.48-.011 0 .127.236.315.244.394.011.075-.049.31.037.34Zm-.585.54s.263-.364.195-.728c-.067-.363-.48-.135-.48-.007 0 .127.236.311.248.39.007.079-.049.315.037.345Z" clip-rule="evenodd"/><path fill="#EF8A10" fill-rule="evenodd" d="M10.231 2.957c.064.036.108.103.128.202v.001a.944.944 0 0 1-.075.527 1.403 1.403 0 0 1-.124.232l-.003.003v.001l-.039-.027.038.027-.032.045-.036-.036c-.036-.016-.052-.052-.06-.082a.412.412 0 0 1-.007-.11c0-.029.003-.059.006-.086l.002-.024a.403.403 0 0 0 .002-.072v-.002l-.002-.003a.344.344 0 0 0-.032-.05c-.015-.02-.033-.04-.052-.062a.987.987 0 0 1-.116-.152.257.257 0 0 1-.043-.128c0-.028.011-.054.025-.076a.288.288 0 0 1 .057-.063.422.422 0 0 1 .167-.086.265.265 0 0 1 .196.02Zm-.115.855a.42.42 0 0 1-.002-.069l.006-.08.002-.025a.466.466 0 0 0 .001-.094.145.145 0 0 0-.02-.05.448.448 0 0 0-.032-.048l-.056-.068a.9.9 0 0 1-.105-.137.168.168 0 0 1-.03-.08.06.06 0 0 1 .01-.026.195.195 0 0 1 .039-.041.328.328 0 0 1 .129-.067.173.173 0 0 1 .127.011c.033.02.066.059.082.14a.852.852 0 0 1-.07.473 1.316 1.316 0 0 1-.08.161Zm-.599-.64c.063.037.107.105.126.205a.935.935 0 0 1-.075.524 1.407 1.407 0 0 1-.127.235v.001H9.44l-.038-.027-.015.044c-.044-.015-.063-.055-.072-.088a.415.415 0 0 1-.008-.112c0-.032.004-.066.006-.095l.002-.014a.52.52 0 0 0 .003-.07v-.001l-.002-.004a.365.365 0 0 0-.032-.05c-.015-.02-.033-.04-.053-.063l-.03-.037a1.01 1.01 0 0 1-.087-.117.257.257 0 0 1-.044-.128c0-.028.011-.055.025-.077a.288.288 0 0 1 .057-.062.423.423 0 0 1 .169-.085.264.264 0 0 1 .196.021Zm-.115.85a.43.43 0 0 1-.001-.064c0-.03.003-.06.006-.09l.001-.015a.545.545 0 0 0 .003-.09v-.001a.146.146 0 0 0-.02-.051.454.454 0 0 0-.033-.048 2.147 2.147 0 0 0-.085-.103.921.921 0 0 1-.079-.105.17.17 0 0 1-.03-.08c0-.004.002-.013.01-.026a.196.196 0 0 1 .039-.042.33.33 0 0 1 .13-.065.172.172 0 0 1 .127.011c.033.02.066.06.08.142a.842.842 0 0 1-.068.47 1.313 1.313 0 0 1-.08.157Zm-.678-.606c.063.037.108.104.128.205a.937.937 0 0 1-.075.525 1.38 1.38 0 0 1-.127.234h-.001v.001l-.038-.027.038.027-.014.02h-.036l-.007-.003c-.045-.016-.063-.056-.071-.089a.42.42 0 0 1-.008-.111c.001-.029.004-.059.006-.086l.002-.023a.38.38 0 0 0 .002-.07v-.001c0-.001 0-.003-.002-.004a.367.367 0 0 0-.032-.05 1.945 1.945 0 0 0-.051-.064l-.03-.037a1.009 1.009 0 0 1-.086-.116.26.26 0 0 1-.043-.128c0-.029.01-.055.025-.077a.287.287 0 0 1 .056-.062.419.419 0 0 1 .168-.086.264.264 0 0 1 .196.022Zm-.115.854.001-.002c.023-.038.053-.093.08-.158a.844.844 0 0 0 .07-.471c-.016-.082-.05-.122-.083-.142a.171.171 0 0 0-.127-.012.325.325 0 0 0-.129.066.194.194 0 0 0-.038.042.053.053 0 0 0-.01.026c0 .018.009.045.03.08.02.033.047.069.077.105l.028.034.056.069a.457.457 0 0 1 .032.048.147.147 0 0 1 .02.05.446.446 0 0 1-.001.092l-.002.025a1.037 1.037 0 0 0-.006.08.42.42 0 0 0 .002.068Zm-.442-.295c.063.037.107.105.126.205a.927.927 0 0 1-.077.524 1.406 1.406 0 0 1-.129.235l-.039-.027.038.028-.02.028-.033-.011c-.044-.016-.063-.056-.071-.09a.42.42 0 0 1-.007-.11c0-.03.003-.06.006-.086l.001-.023a.38.38 0 0 0 .002-.07v-.003l-.001-.004a.33.33 0 0 0-.03-.049l-.055-.066a.258.258 0 0 1-.158-.278c0-.029.011-.055.025-.077a.288.288 0 0 1 .057-.063.423.423 0 0 1 .169-.085.265.265 0 0 1 .196.022Zm-.118.85a1.34 1.34 0 0 0 .08-.158.834.834 0 0 0 .072-.47c-.015-.081-.048-.122-.081-.141a.172.172 0 0 0-.127-.012.329.329 0 0 0-.13.066.196.196 0 0 0-.039.042.058.058 0 0 0-.01.025c0 .019.01.046.03.08a.94.94 0 0 0 .078.106l.026.03c.02.025.042.05.059.073a.422.422 0 0 1 .032.048.14.14 0 0 1 .018.051.455.455 0 0 1-.001.09l-.002.026a1.718 1.718 0 0 0-.006.08l.001.063Zm-.47-.313c.062.036.107.104.125.204a.945.945 0 0 1-.075.527 1.405 1.405 0 0 1-.127.235v.001l-.039-.027-.015.045c-.044-.016-.063-.055-.071-.089a.418.418 0 0 1-.009-.111c.001-.033.004-.066.007-.096v-.015a.541.541 0 0 0 .004-.073l-.001-.004a.353.353 0 0 0-.032-.05l-.053-.062-.031-.036a.989.989 0 0 1-.087-.116.254.254 0 0 1-.044-.128c0-.028.011-.054.026-.076a.292.292 0 0 1 .056-.063.427.427 0 0 1 .169-.087.264.264 0 0 1 .196.02Zm-.115.852a.434.434 0 0 1-.002-.064c0-.03.003-.06.006-.09l.001-.016a.571.571 0 0 0 .003-.091V5.1a.144.144 0 0 0-.02-.052.444.444 0 0 0-.033-.047c-.016-.021-.037-.045-.057-.068a.901.901 0 0 1-.107-.137.166.166 0 0 1-.03-.08c0-.003.002-.012.01-.026a.199.199 0 0 1 .039-.042.333.333 0 0 1 .13-.067.17.17 0 0 1 .127.01c.033.02.066.06.081.141a.852.852 0 0 1-.07.474 1.14 1.14 0 0 1-.078.157Z" clip-rule="evenodd"/><path fill="#FFD200" fill-rule="evenodd" d="M8.813 2.313s-.353.278-.383.645c-.03.368.424.263.458.139.037-.124-.139-.364-.128-.442.012-.075.132-.29.053-.338v-.004Zm1.174-.36s-.35.278-.383.645c-.03.368.424.263.461.14.034-.125-.142-.368-.13-.447.01-.075.13-.289.052-.338ZM5.61 5.122s.075.443.383.649c.307.202.431-.248.341-.338-.09-.09-.386-.052-.45-.097-.064-.049-.187-.255-.274-.214Zm-.585 1.5s0 .45.274.701c.27.248.465-.176.39-.277-.075-.101-.375-.113-.427-.169-.057-.06-.15-.281-.237-.251v-.004Zm1.35 1.68s-.157-.42-.498-.562c-.342-.135-.375.33-.27.4.108.068.39-.025.46.008.076.034.237.21.312.15l-.004.004Zm-.277-.727s.27-.357.21-.717c-.064-.363-.476-.15-.48-.022 0 .127.225.319.236.397.008.08-.056.312.034.345v-.003Zm8.46-3.447s.405-.187.525-.536c.12-.349-.356-.352-.416-.244-.064.113.052.39.022.462-.03.075-.195.25-.131.318Zm1.23.615s.24-.378.146-.735c-.094-.356-.487-.105-.48.023.008.124.255.296.27.375.015.075-.026.315.064.337Zm3.36 3.488s-.161-.416-.503-.559c-.34-.139-.375.33-.27.398.11.07.394-.027.462.007.075.038.236.214.31.154Zm-1.643.262s.008-.45.282-.697c.273-.248.465.184.39.285-.08.101-.375.105-.435.161-.053.056-.15.278-.237.248v.003Zm-.262-4.755s-.424-.161-.75 0c-.338.165-.008.503.112.469.124-.037.24-.311.315-.341.075-.03.315-.038.32-.128h.003Zm-.968-.802s-.416-.161-.75 0c-.33.165-.003.502.12.469.12-.038.24-.312.312-.342.075-.03.315-.037.318-.127ZM14.85 2.17s-.356.274-.39.637c-.037.368.42.267.458.147.037-.124-.139-.368-.128-.447.015-.075.135-.285.06-.337Zm-.93-.225s-.165.416-.003.75c.16.334.498.007.465-.113-.034-.123-.308-.243-.338-.315-.03-.075-.034-.318-.124-.322Zm-2.643 1.612s.288-.345.247-.712c-.041-.364-.469-.169-.476-.041-.011.127.21.33.214.408.003.075-.072.308.015.342v.003Z" clip-rule="evenodd"/><path fill="#EF8A10" fill-rule="evenodd" d="m9.984 1.91.021.013c.036.022.044.06.044.094 0 .033-.01.071-.02.106a1.677 1.677 0 0 1-.037.103.442.442 0 0 0-.023.07c0 .003 0 .01.003.023a1.934 1.934 0 0 0 .068.164c.02.043.04.09.052.134a.25.25 0 0 1 .008.13.137.137 0 0 1-.043.062.283.283 0 0 1-.069.043.411.411 0 0 1-.18.036.253.253 0 0 1-.175-.07c-.048-.05-.072-.123-.064-.222a.933.933 0 0 1 .211-.48 1.383 1.383 0 0 1 .18-.187l.003-.002h.001v-.001l.023.028-.023-.028.02-.016Zm-.007.099a1.168 1.168 0 0 0-.141.151.862.862 0 0 0-.196.442c-.007.084.014.135.044.166s.075.047.127.049a.34.34 0 0 0 .148-.03.212.212 0 0 0 .051-.032.07.07 0 0 0 .021-.028.185.185 0 0 0-.008-.09.935.935 0 0 0-.065-.165 2.07 2.07 0 0 1-.036-.082.434.434 0 0 1-.019-.053.133.133 0 0 1-.004-.05v-.001a.49.49 0 0 1 .032-.102l.03-.082a.323.323 0 0 0 .016-.093Zm4.1.246a.065.065 0 0 0 .014.017c.009.009.02.019.035.03a2.005 2.005 0 0 0 .106.075.985.985 0 0 1 .112.09.251.251 0 0 1 .072.107.13.13 0 0 1-.004.073.274.274 0 0 1-.037.072.41.41 0 0 1-.136.122.253.253 0 0 1-.186.03c-.067-.018-.125-.07-.168-.16a.909.909 0 0 1-.062-.52 1.35 1.35 0 0 1 .057-.238l.005-.015.002-.003v-.002l.033.013.002-.035c.041.001.067.03.083.06a.395.395 0 0 1 .034.102c.007.029.012.06.017.087l.004.02a.43.43 0 0 0 .017.075ZM13.94 2a.336.336 0 0 1 .03.089c.007.026.012.055.017.082l.004.022a.509.509 0 0 0 .021.089.132.132 0 0 0 .03.04.443.443 0 0 0 .042.037c.02.016.045.033.07.05l.038.026a.924.924 0 0 1 .103.083.18.18 0 0 1 .053.075.06.06 0 0 1-.003.033.204.204 0 0 1-.027.052.34.34 0 0 1-.112.1.182.182 0 0 1-.134.024c-.04-.011-.085-.044-.122-.121a.84.84 0 0 1-.056-.48A1.29 1.29 0 0 1 13.94 2Zm.887.514c0 .004 0 .01.003.023a1.903 1.903 0 0 0 .068.164c.019.043.038.09.05.134a.25.25 0 0 1 .005.13.132.132 0 0 1-.043.06.282.282 0 0 1-.07.042.415.415 0 0 1-.18.033.253.253 0 0 1-.174-.072c-.047-.05-.07-.124-.06-.223a.906.906 0 0 1 .215-.474 1.383 1.383 0 0 1 .187-.187h.001v-.001l.022.028.02-.029c.034.023.042.062.04.095a.398.398 0 0 1-.022.106c-.01.03-.023.062-.034.09a.55.55 0 0 0-.029.081Zm.013-.287v.007a.332.332 0 0 1-.019.086 2.383 2.383 0 0 1-.037.098.564.564 0 0 0-.027.084v.002a.133.133 0 0 0 .004.05.42.42 0 0 0 .018.053l.034.08.02.042a.899.899 0 0 1 .046.124c.01.04.012.07.006.091a.064.064 0 0 1-.021.027.208.208 0 0 1-.052.03.344.344 0 0 1-.148.028.182.182 0 0 1-.126-.05c-.03-.03-.05-.082-.041-.167a.835.835 0 0 1 .2-.436 1.31 1.31 0 0 1 .143-.149Zm-5.99.013v.06a.111.111 0 0 1 .026.08.39.39 0 0 1-.02.107l-.031.086-.006.017a.444.444 0 0 0-.022.07c0 .003 0 .01.003.023a1.896 1.896 0 0 0 .048.118l.02.044a.976.976 0 0 1 .05.133.242.242 0 0 1 .005.13.132.132 0 0 1-.04.06.273.273 0 0 1-.07.044.405.405 0 0 1-.178.036.253.253 0 0 1-.175-.07c-.048-.05-.072-.123-.064-.222a.913.913 0 0 1 .21-.48 1.371 1.371 0 0 1 .182-.188l.003-.001v-.001l.023.028-.022-.028.057-.046Zm-.046.129a.324.324 0 0 1-.017.097c-.008.027-.019.055-.029.082a.49.49 0 0 0-.032.102.132.132 0 0 0 .005.05.43.43 0 0 0 .018.053l.035.08.018.04a.876.876 0 0 1 .047.123c.01.04.012.07.006.091v.001a.063.063 0 0 1-.02.028.203.203 0 0 1-.05.031.334.334 0 0 1-.147.03.182.182 0 0 1-.127-.05c-.03-.03-.051-.08-.044-.165a.842.842 0 0 1 .195-.441 1.3 1.3 0 0 1 .142-.152Zm2.65.27c.057.038.095.105.107.203a.933.933 0 0 1-.112.514 1.404 1.404 0 0 1-.142.223l-.001.001v.001h-.001l-.027-.022.027.023-.063.075v-.082a.116.116 0 0 1-.038-.07.392.392 0 0 1 0-.109c.003-.03.008-.063.013-.09l.002-.018a.436.436 0 0 0 .008-.073.064.064 0 0 0-.007-.02.355.355 0 0 0-.024-.04c-.013-.022-.03-.044-.047-.068l-.028-.039a.973.973 0 0 1-.076-.12.242.242 0 0 1-.032-.126.13.13 0 0 1 .028-.068.275.275 0 0 1 .059-.056.412.412 0 0 1 .168-.072.254.254 0 0 1 .186.033Zm-.177.862a1.385 1.385 0 0 0 .108-.177c.066-.13.124-.3.105-.474-.01-.083-.04-.129-.075-.152a.183.183 0 0 0-.135-.022.34.34 0 0 0-.138.06.204.204 0 0 0-.044.04.062.062 0 0 0-.014.031v.001a.174.174 0 0 0 .025.087.903.903 0 0 0 .07.112l.026.036c.018.025.036.05.05.072a.279.279 0 0 1 .029.048.128.128 0 0 1 .014.049m4.991-.31-.013.034.013-.033.024.01-.001.025c-.002.04-.03.067-.059.083a.398.398 0 0 1-.1.036l-.09.018-.018.004a.482.482 0 0 0-.074.018.069.069 0 0 0-.017.013.381.381 0 0 0-.03.036l-.05.07a.258.258 0 0 1-.218.223.133.133 0 0 1-.074-.004.278.278 0 0 1-.073-.037.413.413 0 0 1-.124-.136.257.257 0 0 1-.031-.187c.017-.067.067-.126.156-.17a.919.919 0 0 1 .521-.065 1.366 1.366 0 0 1 .257.062h.001Zm-.066.054a1.136 1.136 0 0 0-.201-.045.85.85 0 0 0-.48.057c-.076.038-.108.083-.119.125-.01.042 0 .09.024.135a.342.342 0 0 0 .102.112c.02.013.038.022.054.027a.065.065 0 0 0 .034.004.194.194 0 0 0 .073-.055c.027-.03.054-.067.081-.105l.024-.034c.018-.027.036-.052.053-.074a.425.425 0 0 1 .035-.043.132.132 0 0 1 .04-.03h.001a.529.529 0 0 1 .107-.025c.028-.005.057-.01.084-.017a.334.334 0 0 0 .088-.032Zm-1.115.418c.036.059.042.136.01.23a.934.934 0 0 1-.32.415 1.393 1.393 0 0 1-.219.14l-.004.001h-.001l-.015-.031.015.032-.023.01-.018-.018c-.028-.03-.027-.069-.02-.1a.393.393 0 0 1 .046-.1c.015-.025.032-.05.048-.074l.011-.017a.446.446 0 0 0 .04-.065c0-.003.002-.01.002-.022a1.89 1.89 0 0 0-.028-.173.968.968 0 0 1-.02-.143.246.246 0 0 1 .024-.128.129.129 0 0 1 .055-.049.278.278 0 0 1 .077-.025.423.423 0 0 1 .185.008c.061.017.12.05.155.109Zm-.527.703a1.23 1.23 0 0 0 .174-.114.864.864 0 0 0 .295-.382c.028-.08.02-.134-.003-.17a.186.186 0 0 0-.113-.078.351.351 0 0 0-.153-.006.21.21 0 0 0-.057.018.06.06 0 0 0-.025.02v.001a.179.179 0 0 0-.015.09c.002.041.009.086.017.132l.009.044.016.086c.002.02.005.039.005.056a.127.127 0 0 1-.008.05.496.496 0 0 1-.045.078l-.012.018-.046.07a.324.324 0 0 0-.039.087Zm2.676-.372-.013.034.013-.034-.007.034.026.001c-.002.04-.03.067-.059.083a.4.4 0 0 1-.101.037l-.088.018c-.007 0-.013.002-.019.003a.477.477 0 0 0-.074.018.066.066 0 0 0-.019.014.343.343 0 0 0-.03.036c-.016.02-.033.045-.05.07a.258.258 0 0 1-.219.222h-.001a.129.129 0 0 1-.073-.003.278.278 0 0 1-.073-.037.412.412 0 0 1-.123-.136.253.253 0 0 1-.03-.188c.019-.067.07-.126.161-.17m.71.05a1.303 1.303 0 0 0-.202-.044.835.835 0 0 0-.476.058c-.078.038-.112.083-.123.125a.183.183 0 0 0 .023.134.341.341 0 0 0 .101.112c.02.014.037.023.053.028a.061.061 0 0 0 .033.003.192.192 0 0 0 .074-.055.967.967 0 0 0 .104-.137l.055-.076a.409.409 0 0 1 .036-.043.131.131 0 0 1 .042-.029.525.525 0 0 1 .088-.022l.019-.003c.028-.006.057-.011.084-.018a.33.33 0 0 0 .089-.032Zm-1.353.055c.062.03.11.091.135.188.05.188.01.38-.04.521a1.372 1.372 0 0 1-.11.24v.001h-.001l-.03-.018-.009.034c-.04-.01-.06-.043-.07-.075a.396.396 0 0 1-.017-.107 1.717 1.717 0 0 1 0-.109c0-.035 0-.06-.003-.074a.064.064 0 0 0-.01-.02.362.362 0 0 0-.03-.038c-.016-.02-.037-.04-.058-.064l-.03-.031a1.023 1.023 0 0 1-.093-.109.241.241 0 0 1-.05-.118.133.133 0 0 1 .02-.071.28.28 0 0 1 .05-.064.411.411 0 0 1 .158-.094.254.254 0 0 1 .188.008Zm-.055.876a1.141 1.141 0 0 0 .084-.19.841.841 0 0 0 .037-.48c-.022-.082-.059-.123-.097-.142a.183.183 0 0 0-.136-.004.34.34 0 0 0-.13.077.206.206 0 0 0-.037.047.064.064 0 0 0-.01.033c.001.02.013.048.037.081a.956.956 0 0 0 .114.13l.063.068a.43.43 0 0 1 .034.045.12.12 0 0 1 .021.046.487.487 0 0 1 .004.108v.086a.334.334 0 0 0 .013.088l.003.007Zm-9.874.62.021.007a.386.386 0 0 0 .047.007l.078.007c.016 0 .033.002.051.004a.812.812 0 0 1 .141.02c.043.01.087.026.116.055a.134.134 0 0 1 .034.066.28.28 0 0 1 .005.081.412.412 0 0 1-.055.175.253.253 0 0 1-.145.12c-.066.02-.142.006-.225-.05a.93.93 0 0 1-.32-.417 1.385 1.385 0 0 1-.077-.253v-.001l.034-.007-.015-.032c.037-.017.074-.006.103.01.03.018.058.044.084.071l.059.067.013.015a.403.403 0 0 0 .051.054Zm-.25-.15a1.165 1.165 0 0 0 .064.198.86.86 0 0 0 .294.385c.07.047.125.053.166.041a.182.182 0 0 0 .103-.088.341.341 0 0 0 .044-.144.21.21 0 0 0-.003-.06.065.065 0 0 0-.014-.031.175.175 0 0 0-.082-.038.89.89 0 0 0-.179-.021l-.083-.007a.454.454 0 0 1-.055-.009.135.135 0 0 1-.046-.019h-.001A.484.484 0 0 1 5.8 5.3l-.014-.016a1.165 1.165 0 0 0-.056-.064.327.327 0 0 0-.076-.062ZM5.242 6.79c.019.03.033.051.045.063a.063.063 0 0 0 .018.011 1.887 1.887 0 0 0 .125.036l.044.01c.046.012.095.025.137.042.04.017.081.04.106.073.015.02.021.045.023.07a.276.276 0 0 1-.009.08.41.41 0 0 1-.081.163.254.254 0 0 1-.162.096c-.068.008-.141-.017-.214-.084a.91.91 0 0 1-.25-.463 1.36 1.36 0 0 1-.033-.212l-.002.001v-.054h.034l-.01-.03c.038-.013.073.004.099.025.026.02.05.05.07.08a1.776 1.776 0 0 1 .06.093Zm-.18-.122a1.681 1.681 0 0 1 .11.143l.01.017a.531.531 0 0 0 .053.074l.026-.025-.026.025a.128.128 0 0 0 .042.027.423.423 0 0 0 .052.018c.026.008.056.015.087.022l.041.01c.046.012.09.024.127.039a.179.179 0 0 1 .075.05.062.062 0 0 1 .01.032.206.206 0 0 1-.007.059.34.34 0 0 1-.067.134.183.183 0 0 1-.116.07c-.042.006-.095-.009-.157-.066a.84.84 0 0 1-.229-.426 1.29 1.29 0 0 1-.031-.203Zm1.162-.015c.059.036.1.101.118.2a.916.916 0 0 1-.085.513 1.387 1.387 0 0 1-.125.22v.044l-.048-.018c-.038-.014-.056-.05-.064-.082a.39.39 0 0 1-.007-.109 1.691 1.691 0 0 1 .01-.109.472.472 0 0 0 .005-.074.08.08 0 0 0-.01-.022.391.391 0 0 0-.025-.039l-.05-.064a.257.257 0 0 1-.151-.277c0-.026.01-.05.024-.07a.276.276 0 0 1 .056-.06.407.407 0 0 1 .165-.078.254.254 0 0 1 .187.025Zm-.133.867a1.147 1.147 0 0 0 .1-.183.846.846 0 0 0 .08-.472c-.014-.084-.047-.128-.084-.15a.183.183 0 0 0-.135-.017.336.336 0 0 0-.135.064.206.206 0 0 0-.042.044.065.065 0 0 0-.013.03c0 .023.01.052.031.087a.95.95 0 0 0 .104.144c.019.024.038.047.053.068a.463.463 0 0 1 .03.047.14.14 0 0 1 .018.047v.001a.505.505 0 0 1-.004.09c0 .006 0 .012-.002.017a1.599 1.599 0 0 0-.007.088.323.323 0 0 0 .006.095Zm12.336.115c.061-.032.139-.033.23.004h.001c.18.076.31.222.395.346a1.387 1.387 0 0 1 .119.214l.006.014.002.004v.001l-.033.013.022.028c-.032.026-.07.023-.103.013a.381.381 0 0 1-.095-.052c-.025-.017-.05-.037-.073-.055a1.821 1.821 0 0 0-.078-.056.06.06 0 0 0-.02-.003l-.046.001a1.914 1.914 0 0 0-.13.016.968.968 0 0 1-.142.009.248.248 0 0 1-.127-.032.13.13 0 0 1-.046-.058.28.28 0 0 1-.02-.078.416.416 0 0 1 .02-.182.255.255 0 0 1 .118-.147Zm.67.571a1.253 1.253 0 0 0-.103-.18.866.866 0 0 0-.363-.32c-.079-.033-.133-.027-.171-.008a.184.184 0 0 0-.084.108.342.342 0 0 0-.016.15.206.206 0 0 0 .014.057.06.06 0 0 0 .02.027.18.18 0 0 0 .09.02.902.902 0 0 0 .178-.014l.085-.01a.42.42 0 0 1 .056-.001.12.12 0 0 1 .049.01.5.5 0 0 1 .075.053l.016.012.069.052a.314.314 0 0 0 .085.044ZM5.66 7.704c.061-.032.139-.034.23.003h.001c.18.075.31.222.394.348a1.378 1.378 0 0 1 .124.233v.001l-.025.01.021.025-.043.043-.007-.021a.135.135 0 0 1-.055-.007.384.384 0 0 1-.096-.05 1.752 1.752 0 0 1-.068-.051l-.019-.015a.396.396 0 0 0-.063-.042.067.067 0 0 0-.023-.004l-.046.001c-.025.002-.053.006-.083.01l-.046.005c-.046.005-.096.01-.141.009a.254.254 0 0 1-.126-.03V8.17h-.001a.134.134 0 0 1-.046-.059.282.282 0 0 1-.02-.078.415.415 0 0 1 .02-.183.256.256 0 0 1 .118-.147Zm.665.568a1.136 1.136 0 0 0-.1-.178.852.852 0 0 0-.36-.321c-.08-.031-.134-.026-.172-.006a.185.185 0 0 0-.084.108.344.344 0 0 0-.016.15.212.212 0 0 0 .015.059.067.067 0 0 0 .02.027.19.19 0 0 0 .089.02.948.948 0 0 0 .174-.014c.03-.004.061-.008.088-.01a.431.431 0 0 1 .056-.001.12.12 0 0 1 .049.01c.023.01.05.03.076.05l.02.016c.022.016.043.033.065.047a.318.318 0 0 0 .08.043Zm11.645-.515c-.042-.005-.096.009-.159.066a.848.848 0 0 0-.232.423 1.312 1.312 0 0 0-.034.202 1.672 1.672 0 0 0 .12-.158.537.537 0 0 1 .052-.072l.001-.002a.142.142 0 0 1 .044-.026.455.455 0 0 1 .054-.017l.086-.02.043-.01a.92.92 0 0 0 .127-.035.181.181 0 0 0 .077-.048.064.064 0 0 0 .01-.033.212.212 0 0 0-.007-.06.349.349 0 0 0-.066-.137.185.185 0 0 0-.116-.073Zm-.496.684.002-.025c.005-.048.015-.113.034-.187a.919.919 0 0 1 .254-.46c.074-.066.147-.091.215-.082.067.008.122.05.162.098.04.05.068.11.08.166.007.028.01.056.008.081a.133.133 0 0 1-.023.07v.001a.249.249 0 0 1-.108.071.988.988 0 0 1-.183.05 1.98 1.98 0 0 0-.126.032.083.083 0 0 0-.021.012.52.52 0 0 0-.05.072 1.756 1.756 0 0 1-.052.08.395.395 0 0 1-.072.08c-.025.02-.06.037-.1.024l.011-.03h-.034V8.44h.003Z" clip-rule="evenodd"/><path fill="#8C8A8C" fill-rule="evenodd" d="M12.855 4.29s.694.045.727.442a.943.943 0 0 1-.165.641s.087.863-.592 1.114c-.728.086-1.871.019-1.871.019s-.338.082-.473-.611a11.433 11.433 0 0 1-.172-1.185s.067-.39.558-.413c.488-.026 1.98 0 1.988-.007Z" clip-rule="evenodd"/><path fill="currentColor" fill-rule="evenodd" d="M13.442 5.392v.002c-.002 0-.003.002-.004.003a1.074 1.074 0 0 0-.053.07c-.034.046-.08.11-.123.179a1.429 1.429 0 0 0-.116.211c-.029.07-.041.126-.034.162a.036.036 0 1 1-.07.014.376.376 0 0 1 .039-.204c.03-.073.075-.15.12-.222a3.121 3.121 0 0 1 .17-.238l.011-.016a.133.133 0 0 1 .004-.004v-.001l.028.022-.027-.022a.036.036 0 0 1 .055.044Z" clip-rule="evenodd"/><path fill="#8C8A8C" fill-rule="evenodd" d="M12.912 6.461c.093.08.18.165.198.45l.038.578.487 4.372.428 3.162.03.487s-.101.364-.39.394c-.206.435-1.339.562-1.451.559-.102-.008-.462-.158-.68-.14-.22.02-.6.166-.768.143-.169-.026-.555-.157-.622-.435-.477-.15-.552-.513-.552-.513l.514-3.657.499-4.627s.06-.615.307-.709c.26-.022 1.59.026 1.962-.064Z" clip-rule="evenodd"/><path fill="currentColor" fill-rule="evenodd" d="m12.92 6.422.015.012c.047.04.097.085.136.158a.773.773 0 0 1 .075.317l.037.577.488 4.37.427 3.163.03.495v.006l-.035-.01.034.01v.003l-.001.001a.36.36 0 0 1-.02.057.81.81 0 0 1-.07.134.462.462 0 0 1-.31.222.729.729 0 0 1-.304.27 2.25 2.25 0 0 1-.47.175 4.089 4.089 0 0 1-.45.091c-.125.018-.22.026-.252.025h-.001a.727.727 0 0 1-.125-.029l-.062-.018a6.058 6.058 0 0 0-.116-.033 1.177 1.177 0 0 0-.37-.059 2.343 2.343 0 0 0-.338.07l-.06.016a2.91 2.91 0 0 1-.208.046.596.596 0 0 1-.17.01h-.001a1.156 1.156 0 0 1-.361-.127c-.125-.07-.243-.172-.286-.315a.884.884 0 0 1-.454-.32.708.708 0 0 1-.102-.213v-.001l.034-.008-.035.008v-.006l.514-3.662.498-4.627v-.002l.001-.005a1.08 1.08 0 0 1 .013-.092c.01-.06.025-.142.048-.226.024-.084.056-.173.098-.247a.355.355 0 0 1 .17-.166l.005-.002h.005c.089-.008.299-.008.552-.007h.39c.205-.001.414-.004.594-.013a2.56 2.56 0 0 0 .42-.043l.018-.005Zm-2.242.815-.498 4.629-.513 3.65a.636.636 0 0 0 .09.182.819.819 0 0 0 .435.3l.02.005.004.02c.03.124.134.22.256.289.122.068.256.106.337.119a.56.56 0 0 0 .15-.01 2.873 2.873 0 0 0 .26-.06 2.47 2.47 0 0 1 .35-.073m-.89-9.05V7.23l.002-.02a2.014 2.014 0 0 1 .057-.287c.023-.081.053-.164.09-.231a.293.293 0 0 1 .13-.133 9.75 9.75 0 0 1 .534-.006h.397c.206 0 .416-.004.598-.012.17-.008.318-.021.415-.042.04.035.077.07.106.126a.704.704 0 0 1 .067.288m0 0 .037.578.488 4.374.427 3.16.03.48" clip-rule="evenodd"/><path fill="currentColor" fill-rule="evenodd" d="m10.154 16.026.101-3.236.071.002-.101 3.237-.071-.003Zm3.529-.134-.285-2.67.07-.007.286 2.67-.071.007Zm4.873-4.855L18.544 11l.036-.01.012.037-.036.01Zm-13.463.106.012-.038.035.011-.01.038-.037-.011Z" clip-rule="evenodd"/><path fill="#6B18B5" fill-rule="evenodd" d="M4.763 6.743h-.036v.015a78.129 78.129 0 0 1-.026 1.516.571.571 0 0 1-.08.239l-.028.055c-.05.1-.09.224-.08.46.013.245.162.403.33.498a1.11 1.11 0 0 0 .472.136.582.582 0 0 0 .427-.222.63.63 0 0 0 .159-.387 1.052 1.052 0 0 0-.105-.314 4.346 4.346 0 0 0-.202-.373c-.13-.216-.266-.415-.329-.508a10.303 10.303 0 0 1-.022-.033 1.162 1.162 0 0 1-.115-.295 5.954 5.954 0 0 1-.074-.308L5.049 7.2a1.275 1.275 0 0 0-.145-.306 3.288 3.288 0 0 0-.11-.168l-.001-.003-.03.02Zm.035.116c-.003.317-.01 1.192-.026 1.42a.639.639 0 0 1-.09.27 1.842 1.842 0 0 0-.025.05c-.044.09-.083.201-.072.426m.213-2.166.045.071a1.217 1.217 0 0 1 .141.308c.019.083.044.199.076.31.033.122.075.244.123.317l.023.034c.064.093.198.29.327.504.073.123.144.25.199.366.055.116.09.217.098.29a.563.563 0 0 1-.142.335.512.512 0 0 1-.374.197 1.04 1.04 0 0 1-.435-.127c-.156-.088-.284-.227-.294-.44m8.175-7.122a4.71 4.71 0 0 0 .367.02 1.533 1.533 0 0 1 .292.03.937.937 0 0 1 .249.126 1.253 1.253 0 0 1 .105.082h.002v.001l-.012.014v.019h-.005a2.406 2.406 0 0 0-1.31.288c-.097.03-.156.063-.219.097-.02.011-.041.023-.064.034-.09.047-.205.092-.432.132a.586.586 0 0 1-.532-.164.837.837 0 0 1-.217-.379.562.562 0 0 1 .118-.452.594.594 0 0 1 .328-.23h.001a.68.68 0 0 1 .276.031c.1.029.21.072.325.118l.041.017c.22.089.455.184.687.216Zm.946.25a.901.901 0 0 0-.297-.165 1.504 1.504 0 0 0-.283-.028l-.054-.002a4.747 4.747 0 0 1-.316-.018h-.001c-.237-.032-.477-.13-.695-.218l-.042-.017a3.364 3.364 0 0 0-.321-.117.644.644 0 0 0-.26-.03.558.558 0 0 0-.305.215.525.525 0 0 0-.111.422.8.8 0 0 0 .207.36.549.549 0 0 0 .499.154 1.383 1.383 0 0 0 .483-.161c.062-.034.125-.069.225-.1a2.405 2.405 0 0 1 1.27-.294Zm-5.288.56v.018l.015.012c-.294.344-.533.73-.71 1.147a.57.57 0 0 0-.057.252 2.184 2.184 0 0 1-.004.059.854.854 0 0 1-.165.427c-.132.197-.337.252-.528.246a1.093 1.093 0 0 1-.465-.124.567.567 0 0 1-.245-.4.596.596 0 0 1 .063-.396.734.734 0 0 1 .213-.184 3.294 3.294 0 0 1 .371-.192 3.35 3.35 0 0 0 .6-.339c.14-.195.341-.313.474-.392l.04-.023a.91.91 0 0 1 .262-.092 1.274 1.274 0 0 1 .133-.02h.002Zm-.044.042a1.246 1.246 0 0 0-.085.014.873.873 0 0 0-.25.087l-.04.023c-.134.08-.328.194-.465.384a.019.019 0 0 1-.004.004c-.181.14-.403.247-.608.344l-.064.032a3.26 3.26 0 0 0-.303.16.7.7 0 0 0-.202.173.56.56 0 0 0-.056.368.53.53 0 0 0 .226.374c.088.049.263.113.447.119.184.005.373-.048.496-.23.125-.188.15-.307.158-.41l.004-.055a.612.612 0 0 1 .061-.267 4.45 4.45 0 0 1 .685-1.12Zm9.59 2.064a.6.6 0 0 1 .369.157.67.67 0 0 1 .12.252c.03.101.052.217.073.34l.01.053c.04.23.082.476.174.685.174.21.246.436.29.586.013.046.026.09.04.133v.003c.013.04.025.08.034.117a.65.65 0 0 1 .02.104.183.183 0 0 1-.012.087l-.017-.007-.004.018a.44.44 0 0 1-.2-.14 2.93 2.93 0 0 1-.195-.235l-.02-.026c-.156-.2-.342-.432-.593-.6h-.001a.565.565 0 0 0-.23-.117l-.054-.018a.84.84 0 0 1-.37-.26c-.16-.178-.166-.389-.115-.572a1.05 1.05 0 0 1 .235-.418.556.556 0 0 1 .447-.142Zm1.089 2.487a.177.177 0 0 0 .003-.054.558.558 0 0 0-.018-.098l-.034-.116v-.002a3.553 3.553 0 0 1-.04-.133 1.549 1.549 0 0 0-.287-.58c-.095-.214-.139-.465-.178-.695A.637.637 0 0 0 18.305 5a.563.563 0 0 0-.344-.145.52.52 0 0 0-.416.131 1.015 1.015 0 0 0-.226.402c-.049.176-.042.372.106.536.152.166.26.218.355.25l.052.018a.606.606 0 0 1 .243.123c.256.17.445.407.6.607l.02.025c.07.09.133.171.192.234.06.063.114.106.166.124Zm.122 1.277a.608.608 0 0 1 .238.32c.045.222-.013.436-.086.655l-.035.102c-.064.187-.13.38-.148.588a3.944 3.944 0 0 1-.03.277l-.01.064a5.056 5.056 0 0 0-.02.178.775.775 0 0 0-.004.126m-.199.433-.01.015c-.068-.05-.105-.13-.128-.226a2.423 2.423 0 0 1-.045-.338v-.003c-.022-.252-.048-.545-.182-.812l-.001-.002a.772.772 0 0 0-.128-.224 1.094 1.094 0 0 1-.215-.48.56.56 0 0 1 .163-.538.988.988 0 0 1 .387-.233.543.543 0 0 1 .453.098m-.297 2.716a1.12 1.12 0 0 0 .109-.174.441.441 0 0 0 .056-.228.806.806 0 0 1 .004-.133l.02-.18.009-.065c.014-.106.027-.207.03-.274.02-.214.087-.411.151-.598l.034-.101c.073-.219.128-.424.086-.634a.572.572 0 0 0-.224-.299.505.505 0 0 0-.42-.092.95.95 0 0 0-.371.223.523.523 0 0 0-.152.504 1.055 1.055 0 0 0 .206.464c.048.064.096.128.134.234.137.274.163.572.185.822v.005c.012.127.022.24.044.333.02.085.05.15.099.193Z" clip-rule="evenodd"/><path fill="currentColor" fill-rule="evenodd" d="m10.507 1.866.044.044c.005.005.008.01.008.012a.54.54 0 0 1 .002.143.597.597 0 0 1-.104.266l-.063-.03.113-.435Zm-1.12.512v-.083l-.437.438.117-.024c.18-.038.265-.115.3-.192a.242.242 0 0 0 .02-.139Zm-.196.215a.233.233 0 0 0 .117-.117l-.117.117Zm6.08-.05a.035.035 0 0 1 .025-.01h.03l.078.51-.07-.052c-.086-.064-.1-.179-.099-.266a.718.718 0 0 1 .026-.165l.002-.005a.04.04 0 0 1 .009-.013Zm-4.499.764Zm.111.128a.404.404 0 0 1-.086.323l-.07.081.04-.59h.033a.036.036 0 0 1 .027.013.562.562 0 0 1 .056.173Zm.847.168.225-.341.063.03a1.163 1.163 0 0 1-.158.279.296.296 0 0 1-.083.083l-.047-.051Zm1.12-.258.035.011-.065-.03-.19.312.048.049a.302.302 0 0 0 .086-.086.775.775 0 0 0 .064-.109c.018-.036.032-.07.042-.094l.01-.03.004-.009v-.002l-.033-.012Zm3.397.12.29-.105.026.066-.015-.032.015.032-.003.001-.007.004a2.864 2.864 0 0 1-.208.082.44.44 0 0 1-.081.021l-.017-.069Zm-2.954.022.059-.036-.025.025.025-.025.003.002.005.006a.555.555 0 0 1 .076.108.453.453 0 0 1 .05.298l-.069.005-.124-.383Zm.622.48a2.15 2.15 0 0 1 .397-.359l.044.056-.39.352-.05-.05Zm.989-.067.07-.005.019.127a.27.27 0 0 0 .015.037.389.389 0 0 0 .044.069l.019.025a.186.186 0 0 1 .04.118.404.404 0 0 1-.066.183l-.051.09-.071-.506a.462.462 0 0 1-.019-.138Zm.114.302.015.109a.165.165 0 0 0 .007-.042.109.109 0 0 0-.022-.067Zm2.428.108c0 .04-.019.09-.077.15l-.06-.034.053-.17.07.011a.033.033 0 0 0-.004-.015l-.001-.002v.002a.114.114 0 0 1 .02.058Zm-2.023-.036-.03.02.03-.02.001.001.001.003.005.008.018.032a.964.964 0 0 1 .105.5l-.07.005-.124-.521.064-.028Zm-6.811.044.417.08-.013.07.006-.036-.006.036-.014-.003a14.38 14.38 0 0 1-.265-.047.84.84 0 0 1-.063-.016.04.04 0 0 1-.015-.014l-.047-.07Zm-2.793.368.158.233-.06.04-.157-.233.06-.04Zm2.443.279H8.26l-.016.005-.044.013a36.513 36.513 0 0 0-.34.106l-.003.002-.009.006.036.06.397-.124-.02-.068.01.034-.01-.034Zm8.02.242h.214v.071h-.214v-.071Zm-9.036.367h-.001l-.002.072a.106.106 0 0 0 .011.001l.01.002.024.003c.027.004.064.01.102.013a1.07 1.07 0 0 0 .165.004.137.137 0 0 0 .044-.013l.116-.06-.469-.022Zm-.171.245-.018.03a.811.811 0 0 1 .018-.03.037.037 0 0 1 .004.003.095.095 0 0 1 .02.024c.01.016.02.04.027.077.014.072.017.199-.019.42l-.07-.004-.017-.551.055.03Zm-1.796.07a.04.04 0 0 0-.009-.007.036.036 0 0 0-.046.012.036.036 0 0 0-.006.02v.017l.012.01.003.003.003.004.018.022a.795.795 0 0 0 .08.088.6.6 0 0 0 .28.168l.028-.063-.363-.275Zm-.05.05Zm11.745.089c.092.029.202.09.27.222l.055.106-.618-.35.125-.004.001.035-.001-.035h.004a.318.318 0 0 1 .046.002.63.63 0 0 1 .118.024Zm-10.5 1.074.3-.075.02.068c-.099.034-.201.06-.305.076l-.014-.07Zm11.11.01.045.077-.03.018.03-.018v.002a.163.163 0 0 1 .007.013.422.422 0 0 1 .045.161.359.359 0 0 1-.167.333l-.076.053.146-.639Zm.022.224-.052.228a.274.274 0 0 0 .052-.228Zm1.526.027.052.049-.287.4-.028-.046a.099.099 0 0 1-.01-.069.213.213 0 0 1 .024-.065.675.675 0 0 1 .096-.125 1.599 1.599 0 0 1 .14-.132l.01-.008.002-.003h.001l.023.027-.023-.028Zm-12.727.674a.036.036 0 0 1-.03.016h-.07l.037-.052.003-.017a.357.357 0 0 1 .023-.075.41.41 0 0 1 .184-.196l.047.051-.192.27-.002.003Zm-.328.312.375.322h.007l.01.07-.456.168-.002.001-.024-.067h-.001.001a.26.26 0 0 0 .02-.013l.021-.015a1.11 1.11 0 0 1 .105-.063.734.734 0 0 1 .186-.07.986.986 0 0 1-.122-.104 1.413 1.413 0 0 1-.116-.133.037.037 0 0 1-.005-.018v-.078Zm11.701.137.036.003-.066-.021-.301.495.116-.063a.477.477 0 0 0 .213-.253.635.635 0 0 0 .037-.145V8.49l-.035-.003Zm-11.88.948.654.161-.004.057.006.01-.594.619v-.089a.036.036 0 0 1 .002-.012v-.001l.003-.006a1.353 1.353 0 0 1 .135-.226c.068-.091.162-.194.284-.273-.2.003-.318-.029-.387-.068a.208.208 0 0 1-.082-.078.13.13 0 0 1-.015-.046l.036-.002-.036.001-.001-.047Zm.125.104a.562.562 0 0 0 .253.062l-.253-.062Zm11.46.398c.023.058.063.179.135.43l-.068.022-.167-.494.01-.015.03.02-.03-.02.001-.001.002-.002.001-.001.002-.002a.037.037 0 0 1 .036-.007.045.045 0 0 1 .021.016.26.26 0 0 1 .026.054Zm-11.007.766-.034-.01-.034.112.443-.363-.035-.06a.757.757 0 0 0-.303.197.42.42 0 0 0-.07.11v.003h-.001v.001l.034.01Zm.334.668-.023-.028.043.057.292-.198-.03-.064a.385.385 0 0 0-.088.045 1.727 1.727 0 0 0-.182.132l-.025.02-.007.006-.002.002h-.001l.023.028Zm9.563.26.893.027.014.068c-.156.072-.354.067-.51.045a1.785 1.785 0 0 1-.285-.066l-.009-.004-.103-.07Zm-8.847.129.028.063c-.167.122-.29.151-.374.147a.237.237 0 0 1-.12-.04.12.12 0 0 1-.006-.006l-.002-.001v-.001H7.05v-.001l.025-.025-.026.025-.044-.046.52-.115Zm-.425.11Zm10.89.004.57.11-.005.071a1.062 1.062 0 0 1-.407-.042.314.314 0 0 1-.1-.058.099.099 0 0 1-.005-.005l-.001-.002v-.001h-.001l.004-.004a1.67 1.67 0 0 1 .025-.017l-.03.02-.05-.072ZM5.73 12.01l.346.068a.537.537 0 0 0-.276-.069l-.07.001Zm.071-.072c.146.003.322.038.413.178l.046.07-.757-.147v-.07l.004-.001a1.35 1.35 0 0 1 .294-.03Zm-.104.46-.005-.036.006.071.661-.018-.073-.06a.127.127 0 0 0-.06-.022.58.58 0 0 0-.078-.006 2.143 2.143 0 0 0-.195.008 5.126 5.126 0 0 0-.255.026h-.004l-.001.001.004.035Zm2.338-.024.018.068a3.147 3.147 0 0 1-.351.112.556.556 0 0 1-.173.02c-.036-.003-.064-.017-.074-.045a.06.06 0 0 1 .001-.044v-.001h.001l.032.015-.032-.016.008-.017.57-.092Zm-.516.126Zm8.213.023.664-.06.02.068a.978.978 0 0 1-.462.09 1.295 1.295 0 0 1-.222-.027h-.004l.008-.035-.009.034.005-.07Zm-9.138-.026.012.122c.016.16-.03.262-.088.327a.366.366 0 0 1-.11.085l-.003.002-.006.003c-.003.002-.002.002-.001 0l-.054-.043.25-.496Zm-.075.306a.283.283 0 0 1-.037.074l.037-.074Zm10.688-.024.03-.064.592.15-.007.07a1.158 1.158 0 0 1-.571-.129.65.65 0 0 1-.032-.02l-.009-.005-.001-.001-.002-.001.021-.03-.02.03Zm-9.033.133a.377.377 0 0 1 .054-.184l.064.028-.047.167.001.06v.012a.325.325 0 0 1-.01.11.169.169 0 0 1-.08.096l-.076.045.094-.334Zm8.801.131.314.513-.053.047c-.154-.121-.22-.226-.248-.305a.281.281 0 0 1-.014-.124l.001-.007v-.124Zm-1.982.18.036-.002-.07-.01-.252.758.1-.09c.12-.107.174-.275.2-.41a1.355 1.355 0 0 0 .022-.242v-.005h-.036Zm-6.704.122-.061-.062.912.009.008.07a1.739 1.739 0 0 1-.632.05.84.84 0 0 1-.202-.052.166.166 0 0 1-.018-.01l-.007-.005Zm-1.314-.02c.02.005.041.014.057.031l.043.048-.506.09-.016-.07h.002l.004-.002.015-.005a3.233 3.233 0 0 1 .184-.064.769.769 0 0 1 .15-.03.247.247 0 0 1 .067.002Zm.472.175-.172.408-.068-.02.035.006-.035-.005v-.004a1.022 1.022 0 0 1 .008-.047c.006-.03.015-.07.027-.112a.635.635 0 0 1 .048-.121c.018-.035.045-.071.084-.083l.073-.022Zm8.439.622-.009-.034.009.07h.63l.012-.069a.994.994 0 0 0-.426-.037 1.776 1.776 0 0 0-.207.032l-.008.002h-.005l-.004.002.008.034Zm-8.135.198.413-.097.03.063a.621.621 0 0 1-.27.09 1.43 1.43 0 0 1-.16.014H7.76v-.004.005l-.009-.07Zm7.45.121.288.349-.04.055c-.176-.073-.25-.155-.276-.228a.181.181 0 0 1 0-.125l.002-.002v-.001l.01.005-.01-.006.025-.047Zm.108.243a.237.237 0 0 1-.063-.076l.063.076Zm-.07-.163Zm-6.75.05.035-.006.035-.007.001.005.003.013.008.046a12.536 12.536 0 0 1 .052.311c.007.05.012.094.012.12h-.071a.993.993 0 0 0-.012-.11 6.07 6.07 0 0 0-.062-.367v-.004Z" clip-rule="evenodd"/><path fill="#DE2010" fill-rule="evenodd" d="M18.525 8.454a.428.428 0 0 0-.16-.295c-.092-.058-.189-.046-.253.031a.445.445 0 0 0-.088.327c.017.13.08.242.16.302.094.058.19.046.254-.032a.42.42 0 0 0 .088-.327l-.001-.006Z" clip-rule="evenodd"/><path fill="currentColor" fill-rule="evenodd" d="M18.222 8.078a.257.257 0 0 1 .168.041l.001.001a.475.475 0 0 1 .18.329v.005a.467.467 0 0 1-.097.363.224.224 0 0 1-.146.083.257.257 0 0 1-.168-.042h-.002v-.002a.491.491 0 0 1-.18-.333.491.491 0 0 1 .098-.362.224.224 0 0 1 .146-.083Zm.011.092a.131.131 0 0 0-.085.05.399.399 0 0 0-.078.291c.015.12.072.219.14.27a.165.165 0 0 0 .106.027.131.131 0 0 0 .086-.05.374.374 0 0 0 .078-.29l-.001-.008c-.014-.115-.073-.219-.139-.262a.165.165 0 0 0-.107-.028Z" clip-rule="evenodd"/><path fill="#DE2010" fill-rule="evenodd" d="M18.472 7.79a.432.432 0 0 0-.16-.295c-.093-.058-.19-.046-.253.032a.445.445 0 0 0-.088.326c.016.13.08.243.16.302.093.058.19.046.254-.031a.42.42 0 0 0 .087-.327V7.79Z" clip-rule="evenodd"/><path fill="currentColor" fill-rule="evenodd" d="M18.169 7.413a.257.257 0 0 1 .168.042.475.475 0 0 1 .18.33l.001.004a.467.467 0 0 1-.098.363.223.223 0 0 1-.145.083.257.257 0 0 1-.168-.041l-.002-.001-.001-.001a.491.491 0 0 1-.179-.334.491.491 0 0 1 .098-.362.224.224 0 0 1 .146-.083Zm.011.092a.131.131 0 0 0-.085.05.399.399 0 0 0-.078.292.4.4 0 0 0 .14.269.164.164 0 0 0 .106.027.131.131 0 0 0 .086-.05.374.374 0 0 0 .078-.289v-.001l-.001-.007c-.015-.115-.073-.22-.139-.263a.165.165 0 0 0-.107-.028Z" clip-rule="evenodd"/><path fill="#DE2010" fill-rule="evenodd" d="M18.333 7.08c-.026-.123-.1-.235-.185-.28-.098-.05-.193-.03-.25.053a.445.445 0 0 0-.058.333c.027.129.1.235.186.287.098.05.193.029.25-.054a.42.42 0 0 0 .058-.333l-.001-.006Z" clip-rule="evenodd"/><path fill="currentColor" fill-rule="evenodd" d="M17.998 6.73a.257.257 0 0 1 .17.027h.001v.001c.1.054.18.18.209.312l.001.005a.467.467 0 0 1-.066.37.224.224 0 0 1-.137.095.257.257 0 0 1-.171-.026l-.002-.001-.001-.001a.491.491 0 0 1-.208-.317.49.49 0 0 1 .066-.369.224.224 0 0 1 .138-.095Zm.02.091a.131.131 0 0 0-.082.058.398.398 0 0 0-.051.297.401.401 0 0 0 .163.256.17.17 0 0 0 .108.018.131.131 0 0 0 .081-.058.374.374 0 0 0 .052-.295l-.002-.008a.389.389 0 0 0-.16-.25.165.165 0 0 0-.11-.018Z" clip-rule="evenodd"/><path fill="#DE2010" fill-rule="evenodd" d="M18.092 6.347c-.057-.112-.157-.202-.25-.224-.108-.023-.194.02-.228.115a.445.445 0 0 0 .028.337c.06.118.157.202.253.23.107.023.194-.021.228-.116a.42.42 0 0 0-.028-.337l-.003-.005Z" clip-rule="evenodd"/><path fill="currentColor" fill-rule="evenodd" d="M17.68 6.095a.258.258 0 0 1 .171-.018h.001c.11.027.22.129.281.249l.003.004c.069.122.068.27.03.375a.224.224 0 0 1-.108.127.257.257 0 0 1-.172.018h-.004a.491.491 0 0 1-.281-.254.49.49 0 0 1-.03-.374.224.224 0 0 1 .108-.127Zm.041.082a.132.132 0 0 0-.063.077c-.03.082-.026.2.025.3a.4.4 0 0 0 .224.206c.044.01.08.004.108-.01a.131.131 0 0 0 .064-.076.374.374 0 0 0-.024-.299l-.004-.008a.391.391 0 0 0-.22-.2.165.165 0 0 0-.11.01Z" clip-rule="evenodd"/><path fill="#DE2010" fill-rule="evenodd" d="M17.83 5.751a.435.435 0 0 0-.251-.224c-.107-.023-.194.021-.228.116a.445.445 0 0 0 .028.337.45.45 0 0 0 .253.23c.107.022.194-.022.228-.116a.42.42 0 0 0-.028-.337l-.003-.006Z" clip-rule="evenodd"/><path fill="currentColor" fill-rule="evenodd" d="M17.417 5.5a.257.257 0 0 1 .172-.019h.002c.11.028.22.129.28.249l.002.004c.07.123.069.27.031.375a.224.224 0 0 1-.109.128.258.258 0 0 1-.172.017h-.003A.491.491 0 0 1 17.339 6a.49.49 0 0 1-.03-.373.224.224 0 0 1 .108-.128Zm.042.082a.132.132 0 0 0-.064.076.4.4 0 0 0 .026.3.401.401 0 0 0 .223.206c.045.01.082.004.11-.01a.131.131 0 0 0 .063-.076.374.374 0 0 0-.025-.299l-.004-.007c-.052-.103-.142-.181-.219-.2a.165.165 0 0 0-.11.01Z" clip-rule="evenodd"/><path fill="#DE2010" fill-rule="evenodd" d="M17.458 5.156a.433.433 0 0 0-.269-.202c-.108-.014-.191.037-.217.134a.445.445 0 0 0 .057.334.442.442 0 0 0 .271.207c.109.014.192-.037.217-.134a.42.42 0 0 0-.056-.334l-.003-.005Z" clip-rule="evenodd"/><path fill="currentColor" fill-rule="evenodd" d="M17.025 4.94a.257.257 0 0 1 .17-.032h.001c.112.018.23.11.3.224l.003.004c.08.116.091.263.063.371a.224.224 0 0 1-.098.136.257.257 0 0 1-.17.033h-.003a.491.491 0 0 1-.302-.23.491.491 0 0 1-.062-.37.224.224 0 0 1 .098-.135Zm.049.08a.131.131 0 0 0-.057.08.399.399 0 0 0 .05.298.4.4 0 0 0 .24.186.165.165 0 0 0 .108-.02.131.131 0 0 0 .057-.08.374.374 0 0 0-.05-.296l-.004-.007c-.061-.099-.158-.168-.235-.18a.165.165 0 0 0-.11.018Z" clip-rule="evenodd"/><path fill="#DE2010" fill-rule="evenodd" d="M17.043 4.58a.432.432 0 0 0-.287-.176c-.11-.003-.187.056-.203.155a.445.445 0 0 0 .088.326c.08.105.19.17.29.18.11.004.188-.055.204-.154a.42.42 0 0 0-.089-.327l-.003-.005Z" clip-rule="evenodd"/><path fill="currentColor" fill-rule="evenodd" d="M16.592 4.406a.257.257 0 0 1 .166-.048c.114.006.24.086.322.193l.003.004c.09.108.116.253.098.363a.223.223 0 0 1-.084.145.257.257 0 0 1-.166.049h-.004a.491.491 0 0 1-.322-.199.491.491 0 0 1-.098-.362c.01-.06.04-.11.085-.145Zm.056.074a.132.132 0 0 0-.05.086.398.398 0 0 0 .08.291.4.4 0 0 0 .257.162c.046.001.08-.01.106-.03a.131.131 0 0 0 .049-.086.375.375 0 0 0-.079-.289l-.005-.007c-.07-.092-.173-.152-.252-.157a.165.165 0 0 0-.106.03Z" clip-rule="evenodd"/><path fill="#DE2010" fill-rule="evenodd" d="M16.546 4.045c-.09-.087-.213-.14-.309-.132-.108.013-.176.083-.178.183-.002.1.045.223.135.31a.45.45 0 0 0 .313.137c.109-.013.177-.083.179-.183a.42.42 0 0 0-.135-.31l-.005-.005Z" clip-rule="evenodd"/><path fill="currentColor" fill-rule="evenodd" d="M16.075 3.94a.257.257 0 0 1 .157-.073h.001c.114-.01.25.051.346.145l.004.004a.467.467 0 0 1 .15.344.224.224 0 0 1-.063.156.257.257 0 0 1-.157.072h-.003a.491.491 0 0 1-.348-.149.491.491 0 0 1-.149-.344.224.224 0 0 1 .062-.156Zm.067.064a.132.132 0 0 0-.036.093.398.398 0 0 0 .12.276.401.401 0 0 0 .278.123.165.165 0 0 0 .1-.045.132.132 0 0 0 .036-.092.374.374 0 0 0-.12-.275l-.005-.006c-.083-.08-.194-.125-.273-.119a.165.165 0 0 0-.1.045Z" clip-rule="evenodd"/><path fill="#DE2010" fill-rule="evenodd" d="M15.992 3.554a.43.43 0 0 0-.32-.103c-.107.023-.168.099-.16.199.007.1.065.217.162.296.103.083.226.12.325.107.107-.023.169-.098.161-.198a.42.42 0 0 0-.163-.297l-.005-.004Z" clip-rule="evenodd"/><path fill="currentColor" fill-rule="evenodd" d="M15.513 3.493a.257.257 0 0 1 .15-.086h.001a.475.475 0 0 1 .358.112l.004.003a.467.467 0 0 1 .18.33.224.224 0 0 1-.047.16.257.257 0 0 1-.15.087h-.004a.491.491 0 0 1-.36-.116.49.49 0 0 1-.18-.33.224.224 0 0 1 .048-.16Zm.072.058a.131.131 0 0 0-.027.096.399.399 0 0 0 .146.264.401.401 0 0 0 .287.097.165.165 0 0 0 .096-.054.131.131 0 0 0 .027-.095.374.374 0 0 0-.144-.263l-.007-.005c-.09-.073-.204-.107-.281-.094a.165.165 0 0 0-.097.054Z" clip-rule="evenodd"/><path fill="#DE2010" fill-rule="evenodd" d="M15.403 3.162a.435.435 0 0 0-.332-.048c-.102.04-.15.125-.126.222a.446.446 0 0 0 .21.266.446.446 0 0 0 .338.05c.102-.04.15-.124.126-.221a.42.42 0 0 0-.21-.266l-.006-.003Z" clip-rule="evenodd"/><path fill="currentColor" fill-rule="evenodd" d="M14.92 3.18a.257.257 0 0 1 .134-.11.475.475 0 0 1 .372.052l.004.002a.467.467 0 0 1 .233.295.223.223 0 0 1-.02.167.257.257 0 0 1-.134.11h-.003a.491.491 0 0 1-.374-.055.49.49 0 0 1-.232-.294.224.224 0 0 1 .02-.167Zm.08.046a.131.131 0 0 0-.01.099c.02.084.089.18.187.236a.4.4 0 0 0 .3.048.165.165 0 0 0 .085-.069.132.132 0 0 0 .011-.099.374.374 0 0 0-.185-.235h-.001l-.007-.004c-.1-.057-.219-.072-.293-.045a.165.165 0 0 0-.086.069Z" clip-rule="evenodd"/><path fill="#DE2010" fill-rule="evenodd" d="M14.743 2.812c-.114-.051-.248-.058-.335-.017-.098.049-.138.138-.105.232a.445.445 0 0 0 .233.246c.12.054.248.058.341.02.098-.05.138-.138.105-.233a.42.42 0 0 0-.233-.245l-.006-.003Z" clip-rule="evenodd"/><path fill="currentColor" fill-rule="evenodd" d="M14.264 2.876a.257.257 0 0 1 .123-.122h.001a.475.475 0 0 1 .374.017l.005.002a.47.47 0 0 1 .259.273.224.224 0 0 1-.005.167.257.257 0 0 1-.123.122h-.002l-.001.002a.491.491 0 0 1-.378-.022.49.49 0 0 1-.258-.272.223.223 0 0 1 .005-.167Zm.085.038a.132.132 0 0 0-.002.099.399.399 0 0 0 .208.218.4.4 0 0 0 .303.02.165.165 0 0 0 .079-.076.132.132 0 0 0 .001-.099.374.374 0 0 0-.206-.217l-.008-.004c-.105-.047-.224-.051-.296-.018a.165.165 0 0 0-.08.077Z" clip-rule="evenodd"/><path fill="#DE2010" fill-rule="evenodd" d="M14.096 2.552c-.117-.044-.252-.042-.336.005-.094.055-.128.146-.089.239a.45.45 0 0 0 .25.229.445.445 0 0 0 .34-.003c.095-.055.13-.147.09-.239a.42.42 0 0 0-.249-.229l-.006-.002Z" clip-rule="evenodd"/><path fill="currentColor" fill-rule="evenodd" d="M13.623 2.646a.258.258 0 0 1 .114-.13h.001a.475.475 0 0 1 .375-.007l.005.001a.467.467 0 0 1 .276.255.224.224 0 0 1 .006.168.258.258 0 0 1-.114.13h-.002l-.001.001a.491.491 0 0 1-.379.004.49.49 0 0 1-.275-.254.224.224 0 0 1-.006-.168Zm.087.033a.132.132 0 0 0 .004.099c.034.08.117.164.223.204a.401.401 0 0 0 .303 0 .165.165 0 0 0 .074-.082.131.131 0 0 0-.005-.099.374.374 0 0 0-.22-.203h-.002l-.006-.003c-.109-.04-.228-.036-.297.002a.165.165 0 0 0-.075.082Z" clip-rule="evenodd"/><path fill="#DE2010" fill-rule="evenodd" d="M13.44 2.348c-.121-.035-.255-.023-.335.03-.09.063-.117.156-.07.246a.443.443 0 0 0 .265.209.446.446 0 0 0 .34-.029c.09-.063.117-.156.071-.245a.42.42 0 0 0-.266-.21l-.006-.001Z" clip-rule="evenodd"/><path fill="currentColor" fill-rule="evenodd" d="M12.974 2.479a.258.258 0 0 1 .104-.138l.001-.001a.475.475 0 0 1 .373-.036l.005.001a.467.467 0 0 1 .295.233.223.223 0 0 1 .019.167.257.257 0 0 1-.104.138h-.002l-.001.002a.491.491 0 0 1-.377.033.49.49 0 0 1-.294-.233.224.224 0 0 1-.02-.166Zm.089.025a.132.132 0 0 0 .012.099.4.4 0 0 0 .237.186.4.4 0 0 0 .303-.023.165.165 0 0 0 .067-.087.132.132 0 0 0-.012-.098.374.374 0 0 0-.236-.186l-.008-.002c-.111-.032-.23-.019-.296.024a.165.165 0 0 0-.067.087Z" clip-rule="evenodd"/><path fill="#DE2010" fill-rule="evenodd" d="M12.719 2.223c-.125-.015-.255.017-.326.082-.08.075-.091.172-.032.253.059.081.17.15.294.166a.446.446 0 0 0 .333-.08c.079-.077.09-.173.032-.254a.42.42 0 0 0-.295-.166h-.006Z" clip-rule="evenodd"/><path fill="currentColor" fill-rule="evenodd" d="M12.278 2.424a.258.258 0 0 1 .082-.153h.001a.475.475 0 0 1 .363-.094h.005c.14.012.262.095.328.185a.23.23 0 0 1 .044.162.258.258 0 0 1-.082.153h-.001l-.001.002a.491.491 0 0 1-.368.09.49.49 0 0 1-.326-.184.224.224 0 0 1-.045-.161Zm.092.011a.132.132 0 0 0 .028.096c.051.07.15.133.263.147.12.015.23-.016.295-.07a.165.165 0 0 0 .053-.095.13.13 0 0 0-.027-.096.374.374 0 0 0-.261-.147h-.001l-.008-.001c-.115-.014-.23.017-.288.07a.165.165 0 0 0-.054.096Z" clip-rule="evenodd"/><path fill="#DE2010" fill-rule="evenodd" d="M12.002 2.183c-.125-.005-.252.039-.317.11-.073.081-.077.179-.01.254a.445.445 0 0 0 .307.14.446.446 0 0 0 .324-.108c.073-.082.077-.18.01-.255a.42.42 0 0 0-.307-.14h-.007Z" clip-rule="evenodd"/><path fill="currentColor" fill-rule="evenodd" d="M11.582 2.42a.258.258 0 0 1 .068-.158l.001-.001a.475.475 0 0 1 .354-.124h.005c.14 0 .268.072.342.156.04.046.06.1.058.158a.257.257 0 0 1-.069.158v.002l-.002.001a.491.491 0 0 1-.358.122.49.49 0 0 1-.341-.156.224.224 0 0 1-.058-.158Zm.092.004a.132.132 0 0 0 .036.093c.057.066.161.12.274.124a.401.401 0 0 0 .29-.094.165.165 0 0 0 .043-.1.132.132 0 0 0-.035-.093.374.374 0 0 0-.273-.124H12c-.116-.005-.228.036-.282.093a.165.165 0 0 0-.045.101Z" clip-rule="evenodd"/><path fill="#DE2010" fill-rule="evenodd" d="M11.346 2.206a.43.43 0 0 0-.318.11c-.072.081-.076.179-.01.254a.444.444 0 0 0 .308.14.445.445 0 0 0 .324-.108c.072-.083.076-.18.01-.255a.42.42 0 0 0-.308-.14h-.006Z" clip-rule="evenodd"/><path fill="currentColor" fill-rule="evenodd" d="M10.925 2.443a.258.258 0 0 1 .069-.158v-.001a.475.475 0 0 1 .354-.124h.006c.14 0 .268.072.342.156.04.046.06.1.058.158a.258.258 0 0 1-.069.158l-.001.002h-.001a.491.491 0 0 1-.359.123.491.491 0 0 1-.34-.156.224.224 0 0 1-.059-.158Zm.093.004a.131.131 0 0 0 .035.093c.058.066.162.12.275.124a.4.4 0 0 0 .289-.094.165.165 0 0 0 .044-.1.131.131 0 0 0-.035-.093.375.375 0 0 0-.273-.124h-.008c-.116-.005-.228.036-.282.093a.165.165 0 0 0-.045.101Z" clip-rule="evenodd"/><path fill="#DE2010" fill-rule="evenodd" d="M10.582 2.297c-.123.028-.234.103-.279.188-.048.099-.026.193.057.25a.445.445 0 0 0 .334.054.446.446 0 0 0 .284-.19c.049-.098.027-.193-.056-.249a.42.42 0 0 0-.334-.055l-.006.002Z" clip-rule="evenodd"/><path fill="currentColor" fill-rule="evenodd" d="M10.236 2.636a.257.257 0 0 1 .025-.171v-.001a.475.475 0 0 1 .31-.213h.005a.467.467 0 0 1 .37.06.227.227 0 0 1 .098.137.257.257 0 0 1-.025.171v.002l-.002.001a.491.491 0 0 1-.313.212.491.491 0 0 1-.37-.062.224.224 0 0 1-.098-.136Zm.09-.021c.008.03.026.058.06.08a.399.399 0 0 0 .297.048.4.4 0 0 0 .254-.166.164.164 0 0 0 .016-.108.131.131 0 0 0-.058-.08.374.374 0 0 0-.296-.05v.001l-.008.002c-.113.026-.21.094-.247.164a.165.165 0 0 0-.017.109Z" clip-rule="evenodd"/><path fill="#DE2010" fill-rule="evenodd" d="M9.885 2.472c-.12.038-.225.122-.262.21-.04.102-.01.195.077.244a.445.445 0 0 0 .337.027.445.445 0 0 0 .268-.213c.04-.102.01-.195-.077-.243a.42.42 0 0 0-.337-.027l-.006.002Z" clip-rule="evenodd"/><path fill="currentColor" fill-rule="evenodd" d="M9.57 2.838a.257.257 0 0 1 .01-.173h.001a.475.475 0 0 1 .29-.238l.005-.001a.467.467 0 0 1 .375.03c.053.03.091.074.108.128a.257.257 0 0 1-.01.173v.002l-.002.001a.491.491 0 0 1-.295.237.49.49 0 0 1-.374-.03.224.224 0 0 1-.108-.13Zm.089-.028c.009.03.03.056.064.075a.399.399 0 0 0 .301.023.401.401 0 0 0 .24-.186.165.165 0 0 0 .007-.11.132.132 0 0 0-.065-.075.374.374 0 0 0-.298-.024h-.002l-.007.003c-.11.035-.201.111-.232.184a.165.165 0 0 0-.008.11Z" clip-rule="evenodd"/><path fill="#DE2010" fill-rule="evenodd" d="M9.25 2.745c-.115.052-.209.148-.236.24-.027.106.013.195.106.233a.445.445 0 0 0 .338-.014.445.445 0 0 0 .24-.242c.028-.106-.012-.195-.105-.233a.42.42 0 0 0-.338.013l-.006.003Z" clip-rule="evenodd"/><path fill="currentColor" fill-rule="evenodd" d="M8.98 3.147a.257.257 0 0 1-.01-.173.475.475 0 0 1 .26-.27l.004-.003a.467.467 0 0 1 .376-.014c.056.023.1.062.123.114a.257.257 0 0 1 .01.173v.002l-.001.001a.491.491 0 0 1-.265.27.49.49 0 0 1-.375.014.224.224 0 0 1-.122-.114Zm.084-.038a.131.131 0 0 0 .073.067.4.4 0 0 0 .302-.013.4.4 0 0 0 .215-.214.165.165 0 0 0-.006-.11.131.131 0 0 0-.073-.066.374.374 0 0 0-.3.011l-.007.004c-.105.048-.187.135-.21.21a.165.165 0 0 0 .006.11Z" clip-rule="evenodd"/><path fill="#DE2010" fill-rule="evenodd" d="M8.615 3.07a.427.427 0 0 0-.214.26c-.018.107.03.192.125.222.096.03.227.02.336-.042a.445.445 0 0 0 .219-.263c.018-.108-.03-.193-.125-.222a.42.42 0 0 0-.336.042l-.005.003Z" clip-rule="evenodd"/><path fill="currentColor" fill-rule="evenodd" d="M8.38 3.492a.257.257 0 0 1-.025-.17V3.32a.475.475 0 0 1 .237-.292l.004-.002a.467.467 0 0 1 .373-.047.224.224 0 0 1 .132.104c.028.05.036.108.025.17v.004a.491.491 0 0 1-.242.292.49.49 0 0 1-.372.046.224.224 0 0 1-.132-.104Zm.081-.045a.131.131 0 0 0 .079.06.39.39 0 0 0 .299-.038.4.4 0 0 0 .196-.231.165.165 0 0 0-.015-.109.131.131 0 0 0-.078-.06.374.374 0 0 0-.298.037l-.007.004c-.1.057-.175.15-.19.228a.165.165 0 0 0 .014.11Z" clip-rule="evenodd"/><path fill="#DE2010" fill-rule="evenodd" d="M8.011 3.478a.437.437 0 0 0-.184.281c-.006.11.05.189.149.208a.445.445 0 0 0 .33-.078.445.445 0 0 0 .188-.285c.007-.11-.05-.188-.148-.208a.42.42 0 0 0-.33.079l-.005.003Z" clip-rule="evenodd"/><path fill="currentColor" fill-rule="evenodd" d="M7.825 3.924a.257.257 0 0 1-.043-.167v-.001a.475.475 0 0 1 .203-.315l.004-.003a.467.467 0 0 1 .366-.087c.06.012.11.042.142.089a.257.257 0 0 1 .044.167v.004a.491.491 0 0 1-.209.316.49.49 0 0 1-.364.086.224.224 0 0 1-.143-.089Zm.075-.053a.131.131 0 0 0 .085.051.399.399 0 0 0 .294-.07.4.4 0 0 0 .17-.252.165.165 0 0 0-.027-.106.131.131 0 0 0-.085-.052.374.374 0 0 0-.291.07h-.001l-.006.004c-.094.068-.158.169-.165.247a.165.165 0 0 0 .026.108Z" clip-rule="evenodd"/><path fill="#DE2010" fill-rule="evenodd" d="M7.458 3.899a.435.435 0 0 0-.16.295c.003.11.067.184.166.195.1.01.226-.025.322-.106.1-.085.159-.2.164-.3-.003-.11-.066-.183-.166-.194a.42.42 0 0 0-.321.106l-.005.004Z" clip-rule="evenodd"/><path fill="currentColor" fill-rule="evenodd" d="M7.31 4.36a.257.257 0 0 1-.057-.164v-.001c0-.114.073-.244.176-.33l.003-.004a.467.467 0 0 1 .358-.118c.06.007.112.033.149.077.037.043.056.1.057.163v.003a.491.491 0 0 1-.18.333.49.49 0 0 1-.356.117.224.224 0 0 1-.15-.077Zm.07-.06a.13.13 0 0 0 .09.043c.086.01.2-.021.286-.095a.4.4 0 0 0 .148-.265.164.164 0 0 0-.035-.103.131.131 0 0 0-.09-.045.374.374 0 0 0-.284.094l-.006.006c-.089.075-.143.18-.144.26.002.045.015.08.036.104Z" clip-rule="evenodd"/><path fill="#DE2010" fill-rule="evenodd" d="M6.968 4.412c-.09.088-.145.21-.138.306.01.11.079.178.179.182.1.004.223-.04.313-.129a.445.445 0 0 0 .142-.31c-.01-.11-.079-.179-.18-.182a.42.42 0 0 0-.312.128l-.004.005Z" clip-rule="evenodd"/><path fill="currentColor" fill-rule="evenodd" d="M6.852 4.882a.257.257 0 0 1-.069-.159v-.001a.475.475 0 0 1 .152-.343l.003-.003a.467.467 0 0 1 .348-.143.226.226 0 0 1 .155.065c.04.04.062.096.069.159v.003a.491.491 0 0 1-.156.345.49.49 0 0 1-.347.142.224.224 0 0 1-.155-.065Zm.066-.065a.131.131 0 0 0 .092.037.399.399 0 0 0 .279-.115.4.4 0 0 0 .128-.275.165.165 0 0 0-.042-.101.131.131 0 0 0-.092-.038.374.374 0 0 0-.277.114l-.001.001L7 4.445c-.083.081-.13.191-.125.27a.17.17 0 0 0 .043.102Z" clip-rule="evenodd"/><path fill="#DE2010" fill-rule="evenodd" d="M6.545 4.983c-.082.095-.127.222-.112.317.02.107.093.17.194.166.1-.005.219-.06.3-.154a.445.445 0 0 0 .117-.322c-.02-.108-.094-.171-.194-.166a.42.42 0 0 0-.301.154l-.004.005Z" clip-rule="evenodd"/><path fill="currentColor" fill-rule="evenodd" d="M6.47 5.46a.257.257 0 0 1-.082-.151v-.001a.475.475 0 0 1 .122-.355l.003-.004a.467.467 0 0 1 .335-.171.224.224 0 0 1 .16.052.26.26 0 0 1 .081.152v.002l.001.002a.491.491 0 0 1-.127.356.49.49 0 0 1-.334.17.224.224 0 0 1-.16-.051Zm.06-.07c.024.02.056.032.095.03a.399.399 0 0 0 .268-.138.4.4 0 0 0 .105-.285.165.165 0 0 0-.05-.097.131.131 0 0 0-.096-.03.374.374 0 0 0-.266.137v.001l-.006.006c-.075.087-.113.2-.1.279a.165.165 0 0 0 .05.098Z" clip-rule="evenodd"/><path fill="#DE2010" fill-rule="evenodd" d="M6.158 5.564a.433.433 0 0 0-.078.327c.031.105.112.16.21.145a.445.445 0 0 0 .284-.186.445.445 0 0 0 .08-.332c-.03-.105-.11-.16-.21-.145a.42.42 0 0 0-.283.186l-.003.005Z" clip-rule="evenodd"/><path fill="currentColor" fill-rule="evenodd" d="M6.135 6.046a.257.257 0 0 1-.098-.142v-.001a.475.475 0 0 1 .083-.365l.003-.005a.467.467 0 0 1 .315-.206c.06-.01.117.003.164.035a.26.26 0 0 1 .098.143v.003a.491.491 0 0 1-.088.368.49.49 0 0 1-.313.205.224.224 0 0 1-.164-.035Zm.052-.076a.131.131 0 0 0 .098.02.399.399 0 0 0 .251-.166.4.4 0 0 0 .074-.295.165.165 0 0 0-.06-.09.131.131 0 0 0-.098-.02.374.374 0 0 0-.25.164H6.2l-.004.007c-.066.095-.091.212-.071.288a.165.165 0 0 0 .061.092Z" clip-rule="evenodd"/><path fill="#DE2010" fill-rule="evenodd" d="M5.838 6.223c-.052.114-.06.248-.02.335.049.099.137.14.232.107a.445.445 0 0 0 .247-.232.445.445 0 0 0 .022-.34c-.048-.099-.137-.14-.232-.107a.42.42 0 0 0-.246.231l-.003.006Z" clip-rule="evenodd"/><path fill="currentColor" fill-rule="evenodd" d="M5.897 6.702a.257.257 0 0 1-.12-.123l-.001-.002a.475.475 0 0 1 .02-.374l.002-.004a.467.467 0 0 1 .275-.257.224.224 0 0 1 .167.006.257.257 0 0 1 .121.123v.002l.001.002a.491.491 0 0 1-.023.377.49.49 0 0 1-.274.256.224.224 0 0 1-.168-.006Zm.039-.084a.131.131 0 0 0 .1.003.399.399 0 0 0 .219-.207.4.4 0 0 0 .022-.303.165.165 0 0 0-.075-.079.131.131 0 0 0-.1-.003.374.374 0 0 0-.218.205v.001l-.004.007c-.048.105-.053.224-.02.296a.16.16 0 0 0 .076.08Z" clip-rule="evenodd"/><path fill="#DE2010" fill-rule="evenodd" d="M5.584 6.917a.434.434 0 0 0 .01.336c.058.093.15.125.241.084a.445.445 0 0 0 .225-.252.445.445 0 0 0-.008-.342c-.058-.093-.15-.126-.241-.085a.42.42 0 0 0-.225.253l-.002.006Z" clip-rule="evenodd"/><path fill="currentColor" fill-rule="evenodd" d="M5.687 7.388a.257.257 0 0 1-.132-.112.475.475 0 0 1-.015-.375l.002-.005a.467.467 0 0 1 .25-.28.224.224 0 0 1 .168-.01.257.257 0 0 1 .131.112l.001.002v.001a.491.491 0 0 1 .012.379.49.49 0 0 1-.25.28.224.224 0 0 1-.167.008Zm.03-.087c.03.01.064.01.1-.006a.399.399 0 0 0 .2-.226.4.4 0 0 0-.006-.304.165.165 0 0 0-.082-.072.131.131 0 0 0-.1.007.374.374 0 0 0-.198.224l-.003.008c-.039.109-.033.228.006.296a.165.165 0 0 0 .083.073Z" clip-rule="evenodd"/><path fill="#DE2010" fill-rule="evenodd" d="M5.363 8.227a.3.3 0 0 0 .092.259.217.217 0 0 0 .255.018.342.342 0 0 0 .156-.24A.31.31 0 0 0 5.774 8a.217.217 0 0 0-.254-.019.324.324 0 0 0-.156.24v.006Z" clip-rule="evenodd"/><path fill="currentColor" fill-rule="evenodd" d="M5.73 8.54a.258.258 0 0 1-.302-.02v-.001a.34.34 0 0 1-.107-.295V8.22a.367.367 0 0 1 .177-.273.258.258 0 0 1 .302.02l.001.002h.002a.35.35 0 0 1 .104.299.385.385 0 0 1-.177.272Zm-.248-.086c.067.052.144.055.206.016a.299.299 0 0 0 .136-.209.27.27 0 0 0-.078-.229c-.067-.05-.144-.054-.205-.016-.071.045-.132.124-.136.207v.007a.26.26 0 0 0 .077.224Z" clip-rule="evenodd"/><path fill="#DE2010" fill-rule="evenodd" d="M5.42 7.617c-.027.122-.008.255.05.332.067.086.162.108.249.057a.445.445 0 0 0 .194-.277.446.446 0 0 0-.048-.339c-.068-.086-.162-.108-.249-.057a.42.42 0 0 0-.194.277l-.001.007Z" clip-rule="evenodd"/><path fill="currentColor" fill-rule="evenodd" d="M5.577 8.073a.257.257 0 0 1-.144-.096v-.001a.475.475 0 0 1-.057-.37V7.6a.467.467 0 0 1 .217-.307.22.22 0 0 1 .165-.028.257.257 0 0 1 .144.096v.001l.002.002a.491.491 0 0 1 .054.374.49.49 0 0 1-.216.307.224.224 0 0 1-.165.028Zm.02-.09a.132.132 0 0 0 .098-.018.399.399 0 0 0 .173-.247.4.4 0 0 0-.04-.301.165.165 0 0 0-.09-.062.131.131 0 0 0-.098.018.374.374 0 0 0-.172.245l-.002.008a.388.388 0 0 0 .04.294c.03.036.06.056.092.063Z" clip-rule="evenodd"/><path fill="#FFE300" fill-rule="evenodd" d="M18 7.301c.082-.086.157-.112.251-.079-.037-.228-.105-.307-.195-.277-.086.026-.127.142-.056.356Zm.124.683c.086-.08.161-.098.255-.06-.015-.225-.083-.312-.173-.29-.09.02-.135.136-.082.35ZM17.83 6.67c.056-.101.124-.142.225-.139-.094-.21-.18-.266-.262-.217-.075.049-.083.172.037.36V6.67Zm-.303-.622c.056-.105.123-.147.225-.14-.094-.213-.184-.27-.263-.22-.075.048-.082.172.038.36Zm-.732-1.144c.038-.113.098-.165.195-.173-.123-.195-.221-.236-.288-.176-.068.06-.057.188.093.349Zm-.483-.499c.037-.112.09-.165.187-.18-.128-.187-.225-.225-.293-.165-.067.064-.052.188.105.345Zm-1.002-.844c0-.12.038-.187.124-.232-.18-.139-.289-.143-.33-.064-.041.079.008.191.206.296Zm.525.394c.015-.116.064-.18.162-.206-.158-.169-.26-.195-.316-.124-.056.075-.026.191.15.33h.004Zm-1.125-.724c-.011-.116.019-.187.101-.243-.194-.12-.3-.113-.337-.03-.034.086.03.19.24.273h-.004Zm-.604-.27c-.03-.112-.01-.187.064-.255-.21-.09-.315-.07-.337.02-.023.09.056.183.274.235Zm-.656-.202c-.041-.113-.03-.188.041-.263-.217-.07-.318-.04-.337.05-.011.09.075.18.296.213Zm-.649-.128c-.044-.105-.037-.187.027-.262-.225-.056-.323-.019-.33.075-.011.09.082.172.303.187Zm-.682-.052c-.06-.101-.06-.18 0-.263-.229-.033-.326.015-.322.105 0 .094.1.165.322.158Zm-1.339.101c-.082-.082-.101-.161-.067-.255-.225.023-.308.09-.285.18.022.09.139.135.352.075Zm.66-.086c-.071-.094-.082-.173-.034-.263-.228-.007-.318.05-.307.143.011.09.12.15.338.12h.003Zm-1.309.225c-.09-.071-.123-.143-.1-.24-.226.056-.293.135-.26.217.038.087.158.113.36.023Zm-1.237.57c-.105-.053-.15-.116-.146-.218-.21.098-.263.188-.21.263.049.075.172.082.356-.045Zm.6-.304c-.101-.064-.135-.135-.12-.232-.221.067-.285.15-.244.232.042.083.165.105.36 0h.004Zm-1.71 1.08c-.112-.03-.172-.086-.187-.187-.188.142-.218.24-.154.303.067.064.187.045.337-.116h.004Zm.529-.435c-.113-.037-.165-.097-.173-.195-.195.12-.236.218-.176.289.06.067.188.056.349-.094Zm-1.001.9c-.113-.022-.177-.071-.203-.169-.172.154-.195.26-.124.315.072.06.188.027.327-.15v.004Zm-.424.544c-.12-.008-.188-.049-.218-.143-.157.17-.172.27-.097.323.075.052.191.007.315-.18Zm-.353.562c-.12.008-.187-.026-.24-.112-.127.191-.127.3-.045.337.083.038.192-.022.285-.225Zm-.311.6c-.112.023-.187 0-.251-.082-.101.206-.086.311 0 .337.086.03.187-.045.251-.258v.003Zm-.247.612c-.113.04-.188.03-.263-.038-.067.218-.037.319.056.334.09.011.177-.075.207-.3v.004Zm-.17.682c-.104.049-.183.045-.262-.019-.052.225-.015.32.075.327.094.01.177-.083.188-.308Zm-.067.57c-.097.053-.176.06-.262.019-.026.184.022.255.112.247.09-.007.162-.09.15-.266Zm11.513-2.707c.041-.113.101-.165.198-.173-.12-.195-.213-.236-.285-.18-.07.06-.06.188.087.353Zm.945 3.187c.086-.082.165-.101.255-.06-.015-.229-.083-.311-.173-.292-.086.022-.135.135-.082.352Z" clip-rule="evenodd"/><path fill="#217900" fill-rule="evenodd" d="M17.298 4.95s-.262.259-.213.57c.045.311.243.698.206 1.024-.038.322-.094.536-.094.536s.3-.341.3-.675c.008-.326-.202-.761-.202-1.001 0-.24.01-.458.003-.45V4.95ZM17.775 6s-.2.15-.18.488c.018.34.375.967.375.967s.255.525.243.664c-.007.139.05-.131.023-.431-.026-.3-.413-.968-.413-.968s-.082-.135-.075-.364c.008-.225.03-.352.03-.356h-.003Z" clip-rule="evenodd"/><path fill="currentColor" fill-rule="evenodd" d="M17.312 4.917c.011.005.02.015.021.027l.001.002.002.013v.028l-.001.1v.019c-.002.081-.005.187-.005.298a.93.93 0 0 0 .032.203c.016.064.035.132.056.204l.015.051c.051.179.104.374.1.544a.994.994 0 0 1-.155.48 1.662 1.662 0 0 1-.14.201l-.01.012a.052.052 0 0 1-.003.003v.001h-.001l-.027-.023.027.024a.036.036 0 0 1-.061-.033m0 0v-.002l.002-.007.007-.028a4.821 4.821 0 0 0 .084-.494c.017-.156-.021-.328-.072-.504a10.299 10.299 0 0 0-.038-.128c-.04-.132-.08-.263-.097-.383a.657.657 0 0 1 .093-.424.957.957 0 0 1 .128-.173l.002-.002h.001v-.001l.002.002-.002-.002a.036.036 0 0 1 .04-.008m-.046 2.01.05-.077a.924.924 0 0 0 .145-.445c.003-.157-.046-.343-.098-.523l-.014-.05c-.02-.072-.041-.143-.057-.208a.969.969 0 0 1-.034-.22c0-.112.002-.218.004-.3v-.019l.002-.04a.891.891 0 0 0-.06.091.586.586 0 0 0-.085.379c.016.114.054.238.093.368l.04.134c.05.176.093.36.073.531a4.7 4.7 0 0 1-.059.38Zm.056-1.951Zm.43.996a.036.036 0 0 1 .022-.007h.003a.036.036 0 0 1 .036.039v.003l-.001.006-.003.018a3.462 3.462 0 0 0-.026.327m-.03-.386.02.028-.02-.028Zm.02.028-.02-.028h-.001l-.003.002a.535.535 0 0 0-.103.125.678.678 0 0 0-.088.39c.01.179.107.426.198.625a5.29 5.29 0 0 0 .166.33l.012.021c0 .003.002.005.003.006v.001l.002.005a1.981 1.981 0 0 0 .037.077 5.227 5.227 0 0 1 .169.414c.011.033.02.064.025.09a.22.22 0 0 1 .007.058v.001a.242.242 0 0 0 0 .04l.003.013a.036.036 0 0 0 .059.012.039.039 0 0 0 .007-.008.225.225 0 0 0 .013-.045l.007-.057c.01-.09.018-.235.004-.387a1.158 1.158 0 0 0-.077-.288 3.977 3.977 0 0 0-.142-.321 6.807 6.807 0 0 0-.18-.344l-.013-.022-.004-.006v-.002l-.032.018.031-.018V6.7l-.003-.004a.54.54 0 0 1-.034-.084.768.768 0 0 1-.033-.255m.009.38-.001-.002-.004-.005a.44.44 0 0 1-.039-.096.839.839 0 0 1-.036-.28c.003-.107.01-.192.017-.252a.607.607 0 0 0-.1.383c.01.163.1.399.192.599a5.268 5.268 0 0 0 .175.346l.003.005v.001l-.03.018.032-.015v.001l.003.005.008.017a5.556 5.556 0 0 1 .193.46 1.68 1.68 0 0 0-.006-.232 1.096 1.096 0 0 0-.073-.268 3.958 3.958 0 0 0-.14-.316 6.97 6.97 0 0 0-.178-.34l-.012-.022-.003-.005-.001-.002Zm.177.717.032-.015L18 7.438l-.031.017Z" clip-rule="evenodd"/><path fill="#6B18B5" fill-rule="evenodd" d="M11.738 1.777c0-.067-.083-.127-.18-.127-.098 0-.177.06-.177.127 0 .068.075.128.177.128.1 0 .176-.056.176-.128h.004Zm.075.3c0-.067-.083-.123-.188-.123-.097 0-.18.052-.18.12 0 .067.083.123.184.123.101 0 .18-.056.18-.123l.004.003Zm.225-.352s-.21.154-.124.217c.086.064.322-.135.322-.135l-.198-.082Zm6.123 3.577a.128.128 0 0 0-.052-.108.097.097 0 0 0-.113 0 .129.129 0 0 0-.052.108c0 .045.019.087.052.11a.098.098 0 0 0 .113 0 .128.128 0 0 0 .052-.11Zm-.078-.3c0-.075-.053-.13-.113-.13-.06 0-.116.06-.116.134 0 .075.052.131.112.131.06 0 .117-.06.117-.13v-.005Zm.056.608c0-.038-.023-.068-.045-.068-.023 0-.045.03-.045.068 0 .037.019.071.045.071s.045-.034.045-.071Zm.184-.54c0-.045-.023-.079-.045-.079-.027 0-.045.034-.045.075 0 .041.018.083.045.083.022 0 .045-.038.045-.08Zm-.503.052c0-.037-.022-.063-.045-.063-.022 0-.045.03-.045.063 0 .034.019.068.045.068s.045-.03.045-.068Zm.079.428c0-.056-.041-.101-.094-.101-.052 0-.094.045-.094.1 0 .06.038.106.094.106s.094-.045.094-.105Zm-.248-.188c0-.048-.037-.09-.078-.09-.045 0-.083.038-.083.09 0 .053.038.09.083.09.04 0 .075-.037.075-.09h.003Zm-.037-.255a.075.075 0 0 0-.038-.063.067.067 0 0 0-.096.027.075.075 0 0 0-.009.036.076.076 0 0 0 .038.068.068.068 0 0 0 .067 0 .079.079 0 0 0 .038-.068Zm1.129 1.29c-.102-.135-.267-.19-.368-.127-.097.064-.097.225.008.364.1.135.262.19.363.127.102-.067.102-.225 0-.364h-.003Zm.292 2.502c.019-.17-.06-.315-.18-.33-.12-.012-.232.112-.255.277-.019.165.064.311.184.326.12.015.232-.112.251-.273Zm.06 1.455c.038-.165-.034-.32-.15-.345-.12-.023-.244.09-.277.255-.034.16.037.315.15.337.12.026.243-.086.277-.251v.004Zm.281-1.365c0-.064-.045-.117-.097-.117-.053 0-.101.053-.101.117 0 .067.045.12.1.12.057 0 .098-.053.098-.12Zm-.243.273-.203.233s-.191.004-.18.067c.008.06.263.248.263.323-.004.075.165-.019.165-.019l.138-.416s-.007-.289-.082-.285c-.075.007-.094.094-.101.097ZM5.73 9.172a.098.098 0 1 0-.191-.038.098.098 0 0 0 .191.038Zm.094-.3a.1.1 0 0 0-.098-.097.1.1 0 0 0-.097.101.1.1 0 0 0 .097.101.101.101 0 0 0 .098-.1v-.005ZM5.025 7.47c-.037-.083-.112-.128-.169-.101-.056.026-.075.112-.037.195.037.082.112.127.169.1.06-.025.075-.112.037-.194Zm.244.877c-.053-.105-.154-.165-.233-.13-.078.033-.1.145-.052.25.049.105.15.165.232.132.083-.034.102-.147.053-.252Zm.255.645c.019-.13-.038-.255-.12-.27-.086-.018-.165.075-.184.207-.015.13.038.25.124.27.082.018.165-.075.18-.207Zm-.413.094c.053-.124.034-.255-.04-.292-.076-.038-.18.026-.233.15-.053.123-.034.25.045.292.078.041.176-.026.228-.15Z" clip-rule="evenodd"/><path fill="#6B18B5" fill-rule="evenodd" d="M4.924 8.804a.11.11 0 0 0-.109-.112.112.112 0 0 0-.109.112c0 .06.05.113.113.113.064 0 .105-.049.105-.113Zm-.086-.28a.1.1 0 0 0-.098-.102.101.101 0 0 0-.097.105c0 .052.045.101.097.101.053 0 .098-.049.098-.105Zm.09-.537c0-.098-.042-.173-.094-.173-.053 0-.094.075-.094.173 0 .094.041.172.094.172.052 0 .094-.075.094-.172Zm.292-.041c.011-.094-.019-.177-.075-.188-.049-.004-.101.068-.112.161-.015.094.018.177.07.184.05.008.102-.064.113-.157h.004ZM7.283 3.82c.04-.135 0-.27-.087-.3-.086-.034-.187.048-.225.183-.037.135 0 .27.087.3.086.034.187-.048.225-.183Zm-.39.596c.112-.101.165-.236.112-.304-.056-.071-.195-.045-.311.053-.116.097-.161.232-.109.3.056.07.195.048.308-.05Zm-.225-.33c.112-.086.157-.203.105-.263-.053-.06-.188-.037-.3.045-.117.087-.165.203-.113.263.053.06.188.037.304-.045h.004Zm.88-.581c.076-.06.11-.143.076-.184-.038-.038-.131-.026-.21.034-.079.06-.109.138-.071.18.037.04.127.026.206-.03Z" clip-rule="evenodd"/><path fill="#6B18B5" fill-rule="evenodd" d="M7.088 4.07c.052-.083.056-.17.007-.196-.048-.026-.131.015-.183.098-.053.082-.057.169-.008.195.049.026.131-.019.184-.098Zm.664-.35c.082-.07.112-.16.075-.206-.045-.045-.15-.022-.233.045-.082.068-.112.162-.071.207.045.045.146.022.229-.045Zm-1.2.81c.075 0 .135-.04.127-.086 0-.041-.071-.075-.15-.071-.075.004-.135.045-.127.086.003.045.075.075.15.075v-.003Zm1.45-1.24c.053-.083.057-.17.008-.196-.045-.026-.127.015-.18.098-.052.082-.056.169-.007.195.049.026.127-.015.18-.098Z" clip-rule="evenodd"/><path fill="#FFD200" fill-rule="evenodd" d="M16.755 5.753s.24-.38.15-.74c-.094-.355-.488-.1-.48.027.007.124.255.296.27.375.015.075-.03.311.06.338Z" clip-rule="evenodd"/><path fill="#EF8A10" fill-rule="evenodd" d="M16.798 4.833c.056.027.1.084.125.176a.917.917 0 0 1-.041.516 1.382 1.382 0 0 1-.11.237h-.001l-.016-.01.016.01-.008.013-.013-.004c-.031-.01-.049-.036-.058-.066a.384.384 0 0 1-.014-.102v-.087l.001-.02a.434.434 0 0 0-.002-.077.08.08 0 0 0-.013-.027.364.364 0 0 0-.03-.039l-.06-.064-.03-.031a1.005 1.005 0 0 1-.091-.107.225.225 0 0 1-.047-.11.118.118 0 0 1 .017-.062.266.266 0 0 1 .048-.06.397.397 0 0 1 .15-.091.236.236 0 0 1 .177.005Zm-.05.895.001-.002a1.343 1.343 0 0 0 .097-.214.881.881 0 0 0 .04-.493c-.021-.085-.06-.131-.105-.152a.2.2 0 0 0-.148-.003.36.36 0 0 0-.136.082.232.232 0 0 0-.04.051.082.082 0 0 0-.013.042.19.19 0 0 0 .04.09.961.961 0 0 0 .087.103l.029.03a1.759 1.759 0 0 1 .095.109.117.117 0 0 1 .018.04.444.444 0 0 1 .004.085v.022a1.17 1.17 0 0 0-.001.084.35.35 0 0 0 .012.092.072.072 0 0 0 .02.034Z" clip-rule="evenodd"/><path fill="#217900" fill-rule="evenodd" d="M12.184 2.598s.862.034.866.593c0 .086 0 .187-.03.439a.577.577 0 0 0 .262-.514c.004-.566-.768-.956-1.098-.518Z" clip-rule="evenodd"/><path fill="currentColor" fill-rule="evenodd" d="M13.326 3.113a.568.568 0 0 1-.063.305.562.562 0 0 1-.222.25.043.043 0 0 1-.064-.043c.03-.25.03-.349.03-.433-.002-.252-.195-.39-.406-.466a1.51 1.51 0 0 0-.417-.084h-.002a.043.043 0 0 1-.033-.07c.182-.241.483-.25.728-.13.244.118.45.37.449.671Zm-1.052-.55a1.738 1.738 0 0 1 .356.082c.22.08.461.238.463.546 0 .075 0 .162-.02.346a.546.546 0 0 0 .113-.156.482.482 0 0 0 .053-.265c.002-.263-.177-.489-.4-.597-.196-.095-.415-.094-.565.044Z" clip-rule="evenodd"/><path fill="#217900" fill-rule="evenodd" d="M11.636 2.573s.694-.143.702.412c.003.563-.225.649-.225.649s.536-.113.54-.679c0-.57-.687-.821-1.017-.382Z" clip-rule="evenodd"/><path fill="currentColor" fill-rule="evenodd" d="M12.283 2.345a.636.636 0 0 1 .413.61.7.7 0 0 1-.29.587.845.845 0 0 1-.282.134h-.002l-.01-.042.01.042a.043.043 0 0 1-.025-.082l.005-.003a.303.303 0 0 0 .088-.094c.051-.082.107-.236.105-.511a.363.363 0 0 0-.1-.269.423.423 0 0 0-.219-.104.89.89 0 0 0-.33.002l-.01-.042-.034-.026a.581.581 0 0 1 .681-.202Zm-.008 1.179c.057-.103.108-.27.106-.539a.448.448 0 0 0-.126-.33.508.508 0 0 0-.263-.126.972.972 0 0 0-.245-.013.493.493 0 0 1 .506-.09.55.55 0 0 1 .357.53.614.614 0 0 1-.335.568Z" clip-rule="evenodd"/><path fill="#F7DF73" fill-rule="evenodd" d="M13.998 14.625s3.255-.923 4.238-4.913c-.574 4.092-4.136 5.4-4.136 5.4l-.105-.487h.003Z" clip-rule="evenodd"/><path fill="currentColor" fill-rule="evenodd" d="M18.245 9.666a.047.047 0 0 1 .037.053 6.79 6.79 0 0 1-2.299 4.263c-.484.422-.95.715-1.295.903a5.824 5.824 0 0 1-.561.267l-.008.003-.002.001h-.001l-.016-.044.016.044a.047.047 0 0 1-.062-.034l-.105-.487a.047.047 0 0 1 .042-.057h.003a1.571 1.571 0 0 0 .13-.045c.09-.032.22-.083.379-.157a6.35 6.35 0 0 0 1.217-.748c.93-.724 1.982-1.944 2.47-3.927a.047.047 0 0 1 .055-.035Zm-4.195 4.992.084.39a5.68 5.68 0 0 0 .509-.246c.34-.185.8-.474 1.279-.89a6.671 6.671 0 0 0 2.065-3.241c-.554 1.46-1.424 2.42-2.21 3.03a6.45 6.45 0 0 1-1.235.76 4.853 4.853 0 0 1-.492.197Z" clip-rule="evenodd"/><path fill="#8C1800" fill-rule="evenodd" d="M14.332 14.872c.101 0 .349-.277.491-.307.143-.03.158-.177-.003-.18-.165-.008-.308.187-.308.187s-.142.12-.292.135c-.15.015-.053.202.112.165Zm1.875-1.398s-.337.195-.292.244c.049.048.349-.188.356-.188.004-.007.127-.157-.064-.056Z" clip-rule="evenodd"/><path fill="#8C1800" fill-rule="evenodd" d="M16.31 13.556Zm.002-.002s0-.002.002-.003l.001-.002.013-.019a.217.217 0 0 0 .03-.056.069.069 0 0 0-.004-.05.06.06 0 0 0-.056-.032.149.149 0 0 0-.05.011.552.552 0 0 0-.063.03h-.001l.023.04-.023-.04-.001.001-.003.002-.011.006a2.447 2.447 0 0 0-.152.097.856.856 0 0 0-.108.087.182.182 0 0 0-.037.046c-.008.017-.017.05.008.077l.001.001a.078.078 0 0 0 .07.02.23.23 0 0 0 .058-.018.934.934 0 0 0 .125-.07c.042-.027.082-.056.112-.078l.017-.011.02-.014.002-.002h.015l.012-.023Zm-.378.123Zm-.908.686s-.1-.038.158-.136c.262-.1.244-.217.33-.266.082-.049.262-.176.3-.101.037.075-.188.225-.244.24-.052.015-.311.255-.386.274-.075.022-.128.011-.158-.011Zm1.722-1.43a.057.057 0 0 1 .004.08 10.838 10.838 0 0 1-.225.245l-.01.008c-.001 0-.01.007-.025.009a.056.056 0 0 1-.062-.049v-.005c0-.001 0-.002.055-.002h-.056c0-.019.01-.035.023-.045l.02-.021c.028-.03.084-.09.197-.215a.056.056 0 0 1 .079-.005Zm-.298.242Zm.055-.009Zm.571-.636a.052.052 0 0 1 .008.074l-.214.258a.052.052 0 0 1-.081-.067l.214-.258a.053.053 0 0 1 .073-.007Zm.326-.533a.047.047 0 0 1 .015.065l-.24.383a.047.047 0 1 1-.08-.05l.24-.383a.047.047 0 0 1 .065-.015Zm.398-.819c.022.01.031.035.022.056l-.06.136a.043.043 0 0 1-.079-.035l.06-.136a.043.043 0 0 1 .057-.021Zm-.379.694.2-.393.076.039-.199.393-.077-.038Zm.512-1.06c.014.005.022.02.017.033l-.052.165a.026.026 0 0 1-.033.017.026.026 0 0 1-.017-.033l.052-.165a.026.026 0 0 1 .033-.017Z" clip-rule="evenodd"/><path fill="#F7DF73" fill-rule="evenodd" d="M9.73 14.54s-3.228-.938-4.197-5.006C6.098 13.71 9.63 15.03 9.63 15.03l.1-.491Z" clip-rule="evenodd"/><path fill="currentColor" fill-rule="evenodd" d="M5.525 9.488a.047.047 0 0 0-.038.052c.284 2.102 1.316 3.486 2.276 4.344.48.43.942.727 1.284.917a5.692 5.692 0 0 0 .556.27l.008.003.002.001h.001l.017-.044-.017.044a.047.047 0 0 0 .063-.034l.1-.491a.047.047 0 0 0-.034-.055m0 0H9.74l-.006-.003a1.668 1.668 0 0 1-.129-.044 4.64 4.64 0 0 1-.375-.16 6.244 6.244 0 0 1-1.206-.762c-.921-.737-1.964-1.98-2.445-4.003a.047.047 0 0 0-.055-.035m4.07 5.478a5.591 5.591 0 0 1-.503-.248 7.094 7.094 0 0 1-1.266-.904 6.786 6.786 0 0 1-2.042-3.288c.548 1.48 1.406 2.453 2.182 3.074.467.374.904.62 1.224.773a4.744 4.744 0 0 0 .486.2l-.08.393Z" clip-rule="evenodd"/><path fill="#8C1800" fill-rule="evenodd" d="M9.4 14.79c-.1 0-.344-.281-.487-.311-.142-.034-.157-.18.004-.188.165 0 .304.192.304.192s.142.123.289.142c.15.015.052.203-.11.165Zm-1.856-1.423s.336.204.286.255c-.044.044-.341-.192-.348-.198-.006-.006-.124-.16.062-.057Z" clip-rule="evenodd"/><path fill="#8C1800" fill-rule="evenodd" d="M7.424 13.424a.292.292 0 0 0 .033.04l.011.009a1.96 1.96 0 0 0 .27.18.235.235 0 0 0 .057.02c.015.002.046.005.069-.019a.068.068 0 0 0 .012-.076.18.18 0 0 0-.035-.05.823.823 0 0 0-.107-.091 2.36 2.36 0 0 0-.15-.102l-.01-.007-.004-.001-.025.04.024-.04v-.002h-.002a.508.508 0 0 0-.062-.03.141.141 0 0 0-.05-.01.06.06 0 0 0-.056.032.07.07 0 0 0-.003.05c.005.02.019.043.028.057Zm.063-.082Zm.328.238h-.002.002Zm.9.693s.097-.038-.158-.139-.244-.225-.326-.27c-.083-.049-.263-.176-.3-.101-.038.075.187.225.244.24.052.019.307.262.382.281.075.023.124.011.158-.011ZM7.011 12.82a.057.057 0 0 0-.005.08l.217.248a.057.057 0 0 0 .085-.074l-.217-.249a.057.057 0 0 0-.08-.005Zm-.332-.413a.053.053 0 0 0-.008.075l.21.262a.054.054 0 0 0 .084-.068l-.21-.261a.053.053 0 0 0-.076-.008Zm-.32-.542a.047.047 0 0 0-.016.065l.236.39a.047.047 0 1 0 .08-.05l-.235-.389a.047.047 0 0 0-.065-.016Zm-.396-.841a.044.044 0 0 0-.022.058l.062.14a.044.044 0 1 0 .08-.035l-.062-.14a.044.044 0 0 0-.058-.023Zm.38.716-.198-.402-.08.04.2.401.078-.039Zm-.513-1.082a.025.025 0 0 0-.017.032l.056.172a.025.025 0 0 0 .048-.016l-.056-.172a.025.025 0 0 0-.031-.016Z" clip-rule="evenodd"/><path fill="#217900" fill-rule="evenodd" d="M18.39 8.974c.019.251.262.488.165.926-.12.5-.555 1.677-.48 1.883-.128-.176-.105-.338-.113-.585-.015-.244.353-1.159.387-1.466 0-.278.026-.657.04-.758Z" clip-rule="evenodd"/><path fill="currentColor" fill-rule="evenodd" d="M18.412 9.215a8.304 8.304 0 0 0-.02.52c-.009.082-.04.2-.078.333-.032.109-.07.23-.11.351l-.025.082a9.192 9.192 0 0 0-.125.419 1.075 1.075 0 0 0-.048.275v.001l.002.118c.002.113.003.203.026.286.006-.042.015-.088.026-.138.032-.149.084-.332.141-.524l.12-.389c.078-.255.153-.494.192-.659a.878.878 0 0 0-.037-.51 2.915 2.915 0 0 0-.046-.118l-.018-.047Zm-.021-.241-.043-.007a7.644 7.644 0 0 0-.042.762 2.16 2.16 0 0 1-.075.315c-.032.107-.07.227-.108.349l-.026.082a9.384 9.384 0 0 0-.126.423 1.137 1.137 0 0 0-.051.301l.002.11c.002.187.003.34.119.499a.043.043 0 0 0 .075-.04.267.267 0 0 1-.003-.101 1.47 1.47 0 0 1 .031-.187 7.86 7.86 0 0 1 .14-.517c.037-.126.078-.257.117-.384.08-.257.156-.501.196-.67a.964.964 0 0 0-.04-.557 3.275 3.275 0 0 0-.048-.126c-.011-.028-.022-.054-.03-.078a.652.652 0 0 1-.046-.178l-.043.004Z" clip-rule="evenodd"/><path fill="#217900" fill-rule="evenodd" d="M18.39 8.977s.402.506.38.908c-.02.4-.245.87-.17 1.076a.814.814 0 0 1-.172-.533c-.011-.243.199-.517.154-.783-.042-.263-.195-.668-.188-.668h-.004ZM5.292 9.09c-.015.25-.203.476-.105.91.12.5.562 1.126.487 1.846.131-.176.169-.375.18-.619.008-.244-.487-1.069-.517-1.38 0-.277-.03-.656-.045-.757Z" clip-rule="evenodd"/><path fill="currentColor" fill-rule="evenodd" d="M18.35 8.959a.043.043 0 0 1 .04-.024h.003c.02 0 .037.013.042.03l.006.01a2.326 2.326 0 0 1 .184.285c.098.178.198.414.186.627-.008.185-.06.383-.105.56l-.015.06a2.49 2.49 0 0 0-.057.261.393.393 0 0 0 .006.179.043.043 0 0 1-.074.041.857.857 0 0 1-.182-.559.988.988 0 0 1 .08-.361 3.99 3.99 0 0 0 .012-.037c.046-.133.083-.258.062-.379a3.18 3.18 0 0 0-.11-.426l-.049-.148-.006-.02a3.038 3.038 0 0 1-.018-.055.043.043 0 0 1-.004-.044Zm.006.045.034-.026-.034.026Zm0 0v.002c.002 0 .002.002.004.004l.012.016a2.062 2.062 0 0 1 .16.244 2.9 2.9 0 0 1 .091.368l-.042.007.042-.006c.025.145-.02.29-.066.42l-.011.035a.939.939 0 0 0-.076.333v.004a.77.77 0 0 0 .075.36.425.425 0 0 0 .014.185l.04-.015.035-.026a.775.775 0 0 1-.09-.143 2.544 2.544 0 0 1 .062-.306l.017-.06c.045-.179.094-.368.102-.543.01-.188-.079-.406-.175-.581a2.258 2.258 0 0 0-.018-.032 5.919 5.919 0 0 0-.022-.07c-.018-.058-.036-.109-.049-.149l-.006-.02a2.822 2.822 0 0 1-.019-.056m-13.057.87c.007.071.041.175.091.3.05.12.111.255.173.389l.005.011c.063.137.126.274.172.392.023.06.043.114.056.163a.456.456 0 0 1 .02.129c-.011.247-.05.457-.188.643a.043.043 0 0 1-.078-.03c.037-.35-.052-.68-.168-.986-.04-.107-.083-.21-.124-.31a21 21 0 0 1-.055-.13 2.89 2.89 0 0 1-.14-.405 1.105 1.105 0 0 1 .011-.545 3.164 3.164 0 0 1 .059-.2.823.823 0 0 0 .035-.178l.043.002.042-.006a7.1 7.1 0 0 1 .046.762Zm-.106-.48a7.332 7.332 0 0 1 .02.487c.008.085.047.2.097.325.05.122.113.258.174.392l.005.012c.064.138.125.273.17.388.023.057.042.11.054.154.012.045.018.08.017.103a1.247 1.247 0 0 1-.085.446 2.442 2.442 0 0 0-.182-.846 7.12 7.12 0 0 0-.127-.315 18.191 18.191 0 0 1-.053-.128 2.81 2.81 0 0 1-.135-.391 1.02 1.02 0 0 1 .01-.504c.011-.043.023-.083.035-.123Z" clip-rule="evenodd"/><path fill="#217900" fill-rule="evenodd" d="M5.29 9.098s-.39.487-.367.888c.004.266.495 1.38.42 1.59.132-.176.165-.154.162-.42-.143-.686-.402-1.121-.357-1.387.042-.267.15-.675.143-.675v.004Z" clip-rule="evenodd"/><path fill="currentColor" fill-rule="evenodd" d="M5.28 9.341a6.553 6.553 0 0 0-.088.435.57.57 0 0 0 .016.216c.02.086.051.185.09.3l.023.07c.073.214.162.474.226.786l.001.008c.002.133-.005.203-.034.263a.438.438 0 0 1-.055.082l-.017.02c-.018.023-.039.048-.063.081a.043.043 0 0 1-.076-.04.243.243 0 0 0 .002-.098 1.44 1.44 0 0 0-.036-.176 7.22 7.22 0 0 0-.19-.603 16.08 16.08 0 0 1-.118-.354 3.222 3.222 0 0 1-.057-.198.716.716 0 0 1-.023-.145c-.012-.213.085-.444.18-.617a2.442 2.442 0 0 1 .19-.291.043.043 0 0 1 .082.001l.002.013a1.939 1.939 0 0 1-.032.15l-.023.097Zm-.08-.037a6.628 6.628 0 0 0-.094.458.654.654 0 0 0 .018.25 3.266 3.266 0 0 0 .116.377c.072.214.159.468.222.772.002.13-.006.181-.026.22a.362.362 0 0 1-.045.066l-.001.002a1.552 1.552 0 0 0-.038-.183 7.324 7.324 0 0 0-.192-.61 11.083 11.083 0 0 1-.117-.351 3.158 3.158 0 0 1-.055-.193.633.633 0 0 1-.021-.128c-.01-.188.076-.401.17-.572a2.27 2.27 0 0 1 .064-.108Z" clip-rule="evenodd"/><path fill="#fff" d="m11.944 4.612.961 2.98h3.146l-2.534 1.845.966 2.98-2.535-1.84-2.534 1.84.962-2.98-2.54-1.844h3.138l.97-2.98Z"/><path fill="currentColor" fill-rule="evenodd" d="M11.945 4.575c.016 0 .03.01.035.025l.953 2.955h3.119c.016 0 .03.01.035.026a.037.037 0 0 1-.013.041L13.56 9.451l.958 2.954a.037.037 0 0 1-.058.042l-2.512-1.824-2.512 1.824a.037.037 0 0 1-.058-.042l.953-2.954-2.516-1.829a.037.037 0 0 1 .021-.067h3.11L11.91 4.6a.037.037 0 0 1 .036-.025Zm0 .157-.935 2.872a.037.037 0 0 1-.035.025H7.952l2.446 1.777c.013.01.018.026.013.042l-.926 2.872 2.442-1.773c.013-.01.03-.01.044 0l2.442 1.773-.93-2.872a.037.037 0 0 1 .013-.042l2.442-1.777h-3.032a.037.037 0 0 1-.036-.025l-.925-2.872Z" clip-rule="evenodd"/></g><defs><clipPath id="a"><path fill="#fff" d="M0 0h24v18H0z"/></clipPath></defs></svg>