<svg xmlns="http://www.w3.org/2000/svg" width="24" height="18" fill="none"><g clip-path="url(#a)"><path fill="#012169" d="M0 0h24v18H0V0Z"/><path fill="#fff" d="M14.434 4.163h7.706l-.01 5.486c.063 2.201-1.31 3.57-3.837 4.189-1.796-.45-3.863-1.37-3.87-4.125l.011-5.55Z"/><path fill="#00A2BD" d="M14.602 4.327h7.365l-.007 5.258c.06 2.11-1.253 3.42-3.668 4.012-1.717-.427-3.694-1.312-3.697-3.952l.007-5.318Z"/><path fill="currentColor" fill-rule="evenodd" d="m14.636 4.361-.007 5.284c.002 1.31.493 2.182 1.194 2.78.701.598 1.615.925 2.47 1.138 1.2-.296 2.122-.768 2.737-1.425.616-.658.926-1.504.897-2.552l.007-5.225h-7.298Zm-.033-.033v-.034h7.399l-.008 5.29c.03 1.064-.285 1.928-.915 2.6-.628.672-1.567 1.15-2.778 1.447l-.008.002-.008-.003c-.86-.214-1.79-.543-2.505-1.153-.717-.611-1.217-1.502-1.218-2.832l.007-5.317h.034Z" clip-rule="evenodd"/><path fill="#A53D08" d="M21.912 10.207c-.27 2.014-1.823 2.895-3.62 3.364-1.593-.427-3.307-1.11-3.637-3.356l7.257-.008Z"/><path fill="currentColor" d="m18 5.306-.012-.66.526.004.003.656h1.433l.003.514-1.436.007-.011 6.053-.51.003-.008-6.063-1.424.007v-.525L18 5.306Z"/><path fill="#FF9A08" fill-rule="evenodd" d="m16.838 10.455 1.313 1.36c.454-.498.139-2.362-.458-2.703-.071.221-.191.488-.322.57-.281.195-.979.42-.746.563.052-.072.19-.14.258.022.075.259-.292.274-.292.274s-.233-.03-.274-.263c-.038-.24.349-.457.383-.472.03-.011.536-.15.622-.596.109-.443.218-.375.236-.383.664.064 1.095 1.249 1.122 2.081.022.833-.338 1.388-.405 1.425-.064.034-1.575-1.796-1.575-1.796l.142-.082h-.004Z" clip-rule="evenodd"/><path fill="currentColor" fill-rule="evenodd" d="M17.555 8.813h.004c.17.016.325.104.46.24.137.134.254.316.352.52.195.41.31.917.323 1.336.011.418-.074.767-.17 1.016a1.867 1.867 0 0 1-.142.295.834.834 0 0 1-.082.112.096.096 0 0 1-.019.015.02.02 0 0 1-.014.002.039.039 0 0 1-.01-.004.785.785 0 0 1-.08-.068 5.093 5.093 0 0 1-.187-.2 26.667 26.667 0 0 1-.539-.619 83.05 83.05 0 0 1-.699-.832l-.048-.058-.017-.02.009-.008-.009.007-.003-.004a.665.665 0 0 1-.089.013h-.004v-.014l-.003.014h-.003l-.008-.001a.398.398 0 0 1-.116-.044.32.32 0 0 1-.16-.23.277.277 0 0 1 .042-.182.646.646 0 0 1 .128-.152c.097-.087.203-.146.222-.154l.01-.004a1.15 1.15 0 0 0 .278-.13.702.702 0 0 0 .326-.452c.054-.222.11-.32.156-.362a.111.111 0 0 1 .084-.032h.008Zm-.001 0Zm-.964 1.728-.002.015h.002v-.014Zm0-.014h.003a.3.3 0 0 0 .051-.007.501.501 0 0 0 .102-.027l.069-.04-.013-.013h.03a.16.16 0 0 0 .024-.028c.021-.034.03-.079.012-.14a.158.158 0 0 0-.055-.073.094.094 0 0 0-.064-.015.177.177 0 0 0-.113.07l-.008.011-.012-.007c-.03-.019-.05-.041-.053-.068-.004-.026.009-.051.028-.075a.764.764 0 0 1 .206-.144 6.22 6.22 0 0 1 .216-.11l.082-.042c.102-.05.197-.1.267-.149a.61.61 0 0 0 .179-.227c.054-.104.102-.225.137-.335l.006-.017.016.009c.153.087.286.271.393.503.107.232.189.514.237.8.048.287.064.578.039.83-.025.251-.091.465-.208.594l-.01.011-1.314-1.362a.296.296 0 0 1-.078.044l-.037.022.005.007.049.058a106.087 106.087 0 0 0 .698.832c.193.226.387.452.538.619.075.083.14.151.186.198a.805.805 0 0 0 .072.062.815.815 0 0 0 .086-.114 1.8 1.8 0 0 0 .14-.29c.095-.246.18-.59.168-1.005a3.524 3.524 0 0 0-.32-1.322 1.833 1.833 0 0 0-.345-.514.736.736 0 0 0-.446-.23h-.023a.08.08 0 0 0-.047.024c-.04.036-.093.126-.147.346a.731.731 0 0 1-.339.471c-.127.083-.249.122-.284.134l-.008.002c-.017.008-.12.065-.214.15a.619.619 0 0 0-.122.144.248.248 0 0 0-.038.163.29.29 0 0 0 .145.208.367.367 0 0 0 .114.041Zm.273-.067 1.287 1.334c.103-.122.165-.323.189-.564.025-.248.01-.537-.039-.822a3.22 3.22 0 0 0-.234-.793c-.102-.22-.226-.393-.365-.48a2.152 2.152 0 0 1-.134.322.636.636 0 0 1-.189.238c-.07.05-.168.1-.27.151a18.04 18.04 0 0 1-.083.042c-.074.037-.148.073-.213.109a.746.746 0 0 0-.198.137c-.017.021-.023.038-.021.052.001.012.009.025.028.04a.205.205 0 0 1 .125-.072.124.124 0 0 1 .083.02.18.18 0 0 1 .067.088l.001.002c.02.068.01.122-.016.164a.189.189 0 0 1-.009.012h.025l-.034.02Z" clip-rule="evenodd"/><path fill="#FF9A08" d="m17.798 9.188.007 2.456-.007-2.457Z"/><path fill="currentColor" fill-rule="evenodd" d="m17.79 11.643-.008-2.456h.03l.008 2.456h-.03Zm-.146-.179-.011-2.228h.03l.011 2.228h-.03Z" clip-rule="evenodd"/><path fill="#FF9A08" d="m17.49 9.559.007 1.77-.008-1.77Z"/><path fill="currentColor" fill-rule="evenodd" d="m17.482 11.329-.007-1.77h.03l.007 1.77h-.03Zm-.131-.18-.007-1.467h.03l.007 1.466h-.03Zm-.146-.161V9.75h.03v1.238h-.03Zm-.149-.162v-.978h.03v.978h-.03Zm-.132-.15v-.75h.03v.75h-.03Z" clip-rule="evenodd"/><path fill="#FFDF00" fill-rule="evenodd" d="M16.808 10.598a.015.015 0 0 1 .021 0l1.353 1.549a.015.015 0 0 1-.001.021.015.015 0 0 1-.022-.001l-1.353-1.548a.015.015 0 0 1 .002-.021Zm1.418-.988c.014-.007.03 0 .036.013l-.025.01.025-.01.002.004.005.012a2.218 2.218 0 0 1 .08.213c.05.144.109.347.15.585.083.476.095 1.093-.193 1.651a.027.027 0 0 1-.048-.025c.28-.542.27-1.146.188-1.616a3.884 3.884 0 0 0-.208-.743l-.019-.044-.005-.011v-.003h-.001m-1.529.69.002-.003a.171.171 0 0 1 .024-.042.051.051 0 0 1 .02-.017c.002-.001.006-.002.013.005.012.01.029.008.039-.004a.027.027 0 0 0-.004-.038.066.066 0 0 0-.066-.014.102.102 0 0 0-.045.035.228.228 0 0 0-.033.057v.002l.025.01-.025-.01a.027.027 0 0 0 .05.02Zm-.11-.369a.027.027 0 0 1-.002.038l-.018-.02.018.02m-.018-.02-.018-.02a.027.027 0 0 1 .038.002" clip-rule="evenodd"/><path fill="#008021" d="M18.525 6.578c.086-.075.135-.124.191-.113a.53.53 0 0 0 .188-.015c.148-.034.3-.04.45-.015a.372.372 0 0 1 .172.094c.08.067.195.187.158.51-.038.322-.026.461-.045.645-.03.319-.101.581-.225.562.169.3.188.563.3.77.113.205.18.63.139 1.087-.045.46-.165 1.488.198 2.182-.06.041-.206 0-.337-.139-.131-.138-.188-.135-.293-.052-.33.251-.637.555-1.09.251-.106-.067-.136-.15-.06-.364.187-.525.28-1.252.25-1.59V6.578h.004Z"/><path fill="currentColor" fill-rule="evenodd" d="M18.905 6.456a.535.535 0 0 1-.19.015c-.026-.005-.05.003-.08.023-.024.016-.051.04-.084.068l-.022.02-.002.001v3.808a3.43 3.43 0 0 1-.044.726c-.044.29-.114.603-.208.866a.463.463 0 0 0-.037.234c.01.054.043.09.095.124a.693.693 0 0 0 .313.123.57.57 0 0 0 .274-.041c.143-.057.276-.16.41-.266l.088-.067c.052-.042.094-.065.14-.058.046.006.094.041.16.11a.532.532 0 0 0 .193.136c.057.021.104.022.133.005-.18-.347-.241-.776-.251-1.176a7.57 7.57 0 0 1 .054-1.005c.02-.228.014-.448-.012-.636a1.366 1.366 0 0 0-.126-.448 1.643 1.643 0 0 1-.117-.308l-.013-.042a2.048 2.048 0 0 0-.17-.419l-.006-.01.012.002c.028.004.054-.007.078-.033a.356.356 0 0 0 .063-.118c.037-.102.062-.247.077-.406.008-.075.01-.142.013-.216l.002-.055a4.9 4.9 0 0 1 .03-.375.668.668 0 0 0-.035-.347.422.422 0 0 0-.12-.158.366.366 0 0 0-.17-.092 1.145 1.145 0 0 0-.448.015Zm-.382.116.02-.018a.926.926 0 0 1 .086-.07c.03-.02.058-.03.088-.024.056.007.13 0 .185-.015.149-.035.302-.04.453-.015a.377.377 0 0 1 .175.095.43.43 0 0 1 .124.161c.034.08.054.192.035.354a4.818 4.818 0 0 0-.03.374l-.001.054a3.411 3.411 0 0 1-.014.217 1.78 1.78 0 0 1-.077.409.366.366 0 0 1-.066.121c-.023.025-.048.039-.077.038a2.086 2.086 0 0 1 .18.454c.034.112.065.214.115.306a1.4 1.4 0 0 1 .127.451c.026.19.033.41.012.64l-.006.058a7.561 7.561 0 0 0-.048.945c.01.4.07.83.252 1.176l.002.004-.004.003c-.032.022-.086.021-.147-.001a.542.542 0 0 1-.197-.139c-.066-.069-.112-.101-.153-.107-.041-.006-.08.014-.132.056l-.087.067c-.135.105-.27.21-.414.267a.58.58 0 0 1-.28.042.702.702 0 0 1-.317-.125c-.053-.034-.088-.073-.1-.13a.476.476 0 0 1 .038-.24c.093-.262.163-.575.207-.865.043-.29.058-.555.044-.723v-3.82h.007Z" clip-rule="evenodd"/><path fill="#FFE1CF" d="M18.836 6.253a.36.36 0 0 1-.003.255.345.345 0 0 0 .018.318c.102-.15.249-.12.336-.204.087-.087.105-.168.168-.186-.063-.057-.162-.12-.141-.282.02-.165.249-.3.042-.549a.3.3 0 0 0-.501.045c-.012.03.006.09-.027.13a.31.31 0 0 1-.078.074c-.018.015-.03.033-.01.06.01.01.025.01.04.015l-.03.054c-.012.012-.006.024.006.036-.018.051.015.06-.006.096-.021.033-.045.075.024.114.02.01.114.03.162.024Z"/><path fill="currentColor" fill-rule="evenodd" d="M18.992 5.486a.306.306 0 0 1 .267.116.348.348 0 0 1 .085.17.27.27 0 0 1-.02.142.838.838 0 0 1-.061.123.353.353 0 0 0-.044.118c-.01.08.009.135.038.176a.44.44 0 0 0 .079.081l.022.02.008.007-.01.003c-.03.009-.049.032-.072.065a.678.678 0 0 1-.094.12.236.236 0 0 1-.077.047l-.055.02-.032.011a.319.319 0 0 0-.171.125l-.006.008-.005-.009a.352.352 0 0 1-.018-.323.354.354 0 0 0 .005-.246.374.374 0 0 1-.088-.007.42.42 0 0 1-.072-.018h-.001c-.036-.02-.049-.042-.049-.065 0-.021.012-.041.023-.058a.04.04 0 0 0 .006-.02.067.067 0 0 0-.003-.017l-.004-.024c0-.008.001-.018.005-.03a.044.044 0 0 1-.011-.018.023.023 0 0 1 .007-.023l.026-.047-.008-.002a.202.202 0 0 1-.006-.002.044.044 0 0 1-.02-.01c-.012-.015-.015-.028-.012-.04a.06.06 0 0 1 .021-.03.302.302 0 0 0 .077-.073.099.099 0 0 0 .02-.065v-.017l.001-.016c0-.011.002-.021.005-.03a.306.306 0 0 1 .244-.162Zm-.157.767.005-.002a.364.364 0 0 1-.003.26.337.337 0 0 0 .014.304c.05-.07.112-.1.17-.12l.034-.013.054-.019a.224.224 0 0 0 .073-.045.661.661 0 0 0 .081-.102l.01-.016c.022-.03.041-.054.07-.066l-.015-.012a.465.465 0 0 1-.081-.084.25.25 0 0 1-.04-.184.366.366 0 0 1 .045-.123l.016-.029c.016-.03.033-.06.046-.093a.258.258 0 0 0 .019-.135.336.336 0 0 0-.083-.165.293.293 0 0 0-.49.044.084.084 0 0 0-.005.025v.034a.115.115 0 0 1-.023.071.316.316 0 0 1-.08.076.048.048 0 0 0-.017.023c-.002.007 0 .016.01.028a.033.033 0 0 0 .014.007l.005.002a.14.14 0 0 1 .017.005l.006.002-.033.061c-.006.005-.006.01-.005.013 0 .004.004.01.01.015l.003.003-.002.003a.08.08 0 0 0-.005.03.06.06 0 0 0 .004.02v.001a.053.053 0 0 1-.005.046.112.112 0 0 0-.02.052c0 .017.008.035.041.054a.39.39 0 0 0 .07.017.34.34 0 0 0 .09.007v.005Z" clip-rule="evenodd"/><path fill="#FFE1CF" d="M17.992 7.117c-.12.03-.315-.024-.462-.006-.066.006-.117-.027-.108-.09a.912.912 0 0 0 .003-.258c.002-.193.052-.382.144-.552.075-.135.124-.284.144-.438 0-.069.006-.144.066-.183.045-.03.054-.057.069-.08.036-.055.072-.067.075-.034.003.018-.003.036-.021.06.039-.03.105-.069.12-.078.015-.012.09-.066.096-.015.03-.015.05-.015.06 0 .006.021 0 .027-.012.04.02-.004.045.032 0 .068.024-.009.048.03.006.063-.04.036-.09.06-.102.09a.512.512 0 0 1-.16.123c-.041.018-.044.042-.044.102 0 .666-.078.612-.078.774 0 .042-.01.081.033.07a.559.559 0 0 1 .17-.034v.378Z"/><path fill="currentColor" fill-rule="evenodd" d="M18.076 5.433a.235.235 0 0 0-.05.03 1.398 1.398 0 0 0-.12.078l-.009-.008c.018-.023.023-.04.02-.055 0-.008-.003-.011-.005-.013-.002-.001-.006-.001-.012.001a.125.125 0 0 0-.047.047.306.306 0 0 0-.008.013.181.181 0 0 1-.063.07.128.128 0 0 0-.053.076.382.382 0 0 0-.01.102 1.24 1.24 0 0 1-.145.44 1.18 1.18 0 0 0-.143.55.92.92 0 0 1-.003.258c-.004.03.006.052.024.066.018.014.045.02.077.018m.643-1.66c-.003-.005-.008-.008-.016-.008a.083.083 0 0 0-.035.01l-.008.005v-.009a.022.022 0 0 0-.005-.011.012.012 0 0 0-.007-.004c-.006-.002-.015 0-.025.004m.046.002a.029.029 0 0 0-.004-.01.024.024 0 0 0-.014-.008.057.057 0 0 0-.033.005.241.241 0 0 0-.052.032c-.001 0-.002 0-.003.002a1.458 1.458 0 0 0-.093.058.064.064 0 0 0 .006-.038c0-.01-.004-.017-.01-.02-.007-.005-.015-.004-.023-.001a.135.135 0 0 0-.053.051l-.008.014c-.012.02-.024.042-.06.066a.14.14 0 0 0-.057.083.393.393 0 0 0-.01.104c-.021.153-.07.3-.144.436a1.19 1.19 0 0 0-.145.554v.001a.903.903 0 0 1-.003.257.078.078 0 0 0 .028.076.123.123 0 0 0 .087.02 1.1 1.1 0 0 1 .24.008.723.723 0 0 0 .223-.002h.004v-.39h-.006a.564.564 0 0 0-.173.034c-.01.003-.015.002-.018 0-.003-.001-.005-.004-.006-.01a.344.344 0 0 1 .019-.175l.019-.075c.02-.09.04-.244.04-.577 0-.03 0-.05.005-.065.006-.014.015-.023.035-.032a.61.61 0 0 0 .135-.094.136.136 0 0 0 .027-.032.059.059 0 0 1 .015-.02.238.238 0 0 1 .024-.02l.015-.01a.513.513 0 0 0 .047-.038c.022-.017.028-.038.024-.053a.03.03 0 0 0-.019-.02c.015-.016.019-.032.016-.045a.032.032 0 0 0-.019-.023.033.033 0 0 0 .006-.01c.003-.007.003-.015 0-.026V5.44a.031.031 0 0 0-.028-.014.086.086 0 0 0-.034.009Z" clip-rule="evenodd"/><path fill="#FFE1CF" d="M18.02 8.551c.194-.099.42-.135.536-.165.135-.044.266-.1.39-.168.093-.048.168-.114.22-.129a.242.242 0 0 0 .143-.12c.148-.25.236-.53.258-.819 0-.15-.039-.32-.186-.2a1.11 1.11 0 0 0-.33.494c-.06.24-.11.294-.123.342-.015.048-.063.048-.12.06-.19.03-.366.113-.51.24-.17.126-.349.241-.534.345-.138.078-.165.084-.195.15a.67.67 0 0 1-.084.135.116.116 0 0 0-.03.096c.006.03-.006.16-.009.201 0 .045.01.054.027.057.015 0 .04-.006.048-.06-.009.054.063.036.066-.003 0 .057.075.024.078-.03 0 .04.06.012.063-.003.015-.045.024-.09.042-.126.024-.05.051-.117.102-.15.057-.042.03-.09.147-.15v.003Z"/><path fill="currentColor" fill-rule="evenodd" d="M19.564 7.038a.693.693 0 0 1 .009.112c-.023.29-.111.572-.26.822a.249.249 0 0 1-.147.123.402.402 0 0 0-.092.051l-.009.006a1.13 1.13 0 0 1-.117.072 2.346 2.346 0 0 1-.39.168h-.001l-.086.02c-.123.028-.296.067-.45.145l-.009.004v-.003a.2.2 0 0 0-.093.09.131.131 0 0 1-.044.055.197.197 0 0 0-.06.067.72.72 0 0 0-.033.066l-.007.015a.365.365 0 0 0-.028.08l-.014.045a.019.019 0 0 1-.005.008.046.046 0 0 1-.008.008.076.076 0 0 1-.024.01.038.038 0 0 1-.025-.001.02.02 0 0 1-.005-.004.075.075 0 0 1-.04.042c-.01.005-.021.006-.03 0a.027.027 0 0 1-.011-.01.055.055 0 0 1-.035.021c-.01.001-.02 0-.028-.008a.022.022 0 0 1-.003-.003.066.066 0 0 1-.016.026.043.043 0 0 1-.03.011h-.001a.04.04 0 0 1-.014-.004.03.03 0 0 1-.011-.012.103.103 0 0 1-.008-.047l.003-.028.005-.077a1.197 1.197 0 0 0 .002-.095.122.122 0 0 1 .031-.1.668.668 0 0 0 .083-.134.158.158 0 0 1 .059-.073c.02-.014.046-.028.083-.049a5.098 5.098 0 0 0 .589-.375 1.008 1.008 0 0 1 .54-.247l.013-.002a.234.234 0 0 0 .034-.009c.02-.007.034-.018.04-.04a.226.226 0 0 1 .017-.04l.006-.012.021-.047c.022-.05.05-.122.08-.242.063-.194.178-.366.331-.498.038-.03.07-.044.096-.042.027.002.047.018.062.042a.267.267 0 0 1 .03.093Zm-2.05 1.971.012.002c-.002.013.001.02.005.023.003.003.01.005.017.004a.043.043 0 0 0 .022-.01.03.03 0 0 0 .01-.021h.013c0 .013.004.02.008.022.005.003.012.003.021 0a.062.062 0 0 0 .037-.052h.012c0 .008.002.011.006.013.003.002.01.002.016 0a.064.064 0 0 0 .026-.014.372.372 0 0 1 .045-.13l.007-.014a.723.723 0 0 1 .034-.069.209.209 0 0 1 .063-.07c.02-.015.03-.03.04-.05a.22.22 0 0 1 .108-.1l.009-.005v.004c.153-.076.323-.115.444-.142.032-.007.06-.013.085-.02.134-.043.264-.1.389-.167.042-.022.081-.048.116-.07l.008-.007a.415.415 0 0 1 .096-.052.237.237 0 0 0 .14-.117c.148-.25.235-.529.258-.817a.685.685 0 0 0-.009-.11.258.258 0 0 0-.029-.088c-.013-.023-.03-.036-.052-.037-.022-.001-.05.01-.087.039a1.104 1.104 0 0 0-.328.492c-.03.12-.058.194-.08.244l-.022.047-.005.012a.212.212 0 0 0-.016.039.07.07 0 0 1-.048.047.243.243 0 0 1-.036.01l-.014.002-.026.005a.996.996 0 0 0-.508.239c-.17.126-.35.242-.535.346l-.002-.006.002.006-.056.031a.72.72 0 0 0-.081.048.146.146 0 0 0-.055.068.674.674 0 0 1-.085.136.11.11 0 0 0-.029.091l-.006.001h.006a1.35 1.35 0 0 1-.001.097l-.005.077-.003.027h-.006.006c0 .023.003.035.006.042a.016.016 0 0 0 .007.006.027.027 0 0 0 .009.003v.006-.006a.03.03 0 0 0 .022-.008c.007-.007.015-.02.02-.047Z" clip-rule="evenodd"/><path fill="#FFE1CF" d="M19.42 12.095c.012.048.036.102.045.135.009.03-.006.042-.015.06-.05.104-.084.216-.102.33-.003.045-.036.09-.051.12-.018.03-.009.054.03.084.015.012.075-.006.081-.036.024.02.06.015.078-.018.021.018.054.006.075-.027.018.012.048-.012.06-.03.03.015.06-.003.06-.06 0-.015.009-.036.018-.048a.144.144 0 0 0 .012-.066c0-.024.012-.072.033-.105s.057-.093.042-.15c-.015-.051-.036-.048-.057-.12-.048-.051-.111-.12-.18-.126-.066-.003-.105.042-.129.057Z"/><path fill="currentColor" fill-rule="evenodd" d="M19.466 12.055a.144.144 0 0 1 .083-.023.199.199 0 0 1 .102.047.792.792 0 0 1 .078.076l.005.005v.002a.213.213 0 0 0 .033.07c.01.013.018.026.025.05a.146.146 0 0 1-.008.088.362.362 0 0 1-.035.067.22.22 0 0 0-.032.102c0 .012 0 .025-.003.037a.094.094 0 0 1-.01.032.095.095 0 0 0-.012.022.068.068 0 0 0-.005.023c0 .03-.008.05-.02.061a.042.042 0 0 1-.044.006.1.1 0 0 1-.027.024c-.01.006-.022.01-.033.007a.082.082 0 0 1-.037.03.043.043 0 0 1-.038-.003.06.06 0 0 1-.037.027.053.053 0 0 1-.04-.007.048.048 0 0 1-.012.014.087.087 0 0 1-.026.015.092.092 0 0 1-.027.007.041.041 0 0 1-.023-.005.108.108 0 0 1-.038-.045c-.006-.016-.003-.031.007-.047a.438.438 0 0 1 .013-.024v-.001l.017-.03a.168.168 0 0 0 .02-.063c.019-.115.053-.226.103-.332l.006-.011.001-.002a.093.093 0 0 0 .007-.012.042.042 0 0 0 0-.03c-.003-.014-.01-.032-.017-.052l-.004-.01a.773.773 0 0 1-.024-.074l.006-.001-.003-.005a.189.189 0 0 0 .016-.012l.004-.003a.294.294 0 0 1 .029-.02Zm-.039.043a.758.758 0 0 0 .022.068l.004.01.018.052a.054.054 0 0 1-.001.039.097.097 0 0 1-.007.013l-.001.002a1.225 1.225 0 0 0-.108.339.181.181 0 0 1-.021.067.76.76 0 0 1-.017.03v.001a.488.488 0 0 0-.014.024c-.008.014-.01.025-.006.037a.107.107 0 0 0 .035.04c.002 0 .006.002.014.002a.082.082 0 0 0 .024-.006.076.076 0 0 0 .022-.013.03.03 0 0 0 .011-.016l.002-.01.008.006c.01.01.024.013.036.01a.05.05 0 0 0 .033-.026l.003-.006.006.004c.009.008.02.01.032.005a.073.073 0 0 0 .034-.03l.003-.005.005.003c.006.004.015.003.026-.004a.09.09 0 0 0 .026-.024l.003-.005.005.002c.013.007.025.006.034-.002.01-.008.017-.024.017-.052 0-.009.003-.018.006-.027a.11.11 0 0 1 .013-.024.08.08 0 0 0 .009-.028.229.229 0 0 0 .002-.035.233.233 0 0 1 .034-.108.35.35 0 0 0 .034-.065.133.133 0 0 0 .007-.08c-.006-.023-.014-.034-.023-.047l-.002-.004a.222.222 0 0 1-.031-.068l-.003-.003a.777.777 0 0 0-.078-.075.183.183 0 0 0-.094-.045.132.132 0 0 0-.077.02.258.258 0 0 0-.027.02l-.004.003-.014.01Z" clip-rule="evenodd"/><path fill="#FFE1CF" d="M18.19 12.466c.06.06.194.06.29-.039a.849.849 0 0 1-.143-.078c-.049.048-.102.102-.15.117h.002Z"/><path fill="currentColor" fill-rule="evenodd" d="m18.336 12.342.004.003a.442.442 0 0 0 .071.043l.072.034.008.004-.006.006c-.097.1-.234.102-.298.04h-.002l.001-.002-.001-.009a.231.231 0 0 0 .073-.045c.025-.021.05-.046.074-.07l.004-.004Zm-.136.126c.058.05.18.05.27-.038a1.604 1.604 0 0 1-.064-.031.508.508 0 0 1-.07-.041 1.163 1.163 0 0 1-.07.067.271.271 0 0 1-.066.043Z" clip-rule="evenodd"/><path fill="#870F00" d="M18.802 5.588c.022-.15.131-.15.198-.132.03.004.098.012.166-.007.127-.034.224.011.21.135.037.026.075.086.063.139-.003.052.008.075.053.078.049.008.15.068.082.15.064.038.113.14.079.203-.034.067-.135.079-.18.019-.049.022-.124.026-.172-.023-.034.038-.113.034-.132 0-.015-.037-.037-.052-.071-.064-.034-.01-.037-.105.015-.116-.004-.03 0-.06.011-.075.012-.015 0-.045-.03-.067-.03-.027-.056-.113-.026-.165-.053.018-.165-.034-.188-.068-.026-.037-.06-.037-.078-.007Z"/><path fill="currentColor" fill-rule="evenodd" d="M19.322 5.462c-.037-.021-.091-.024-.154-.007a.434.434 0 0 1-.168.007.175.175 0 0 0-.113.002c-.033.014-.062.045-.075.105a.04.04 0 0 1 .027-.008c.017 0 .033.012.047.031a.106.106 0 0 0 .03.026.3.3 0 0 0 .105.041.096.096 0 0 0 .046-.001l.014-.006-.007.014a.129.129 0 0 0-.01.088.14.14 0 0 0 .035.07.1.1 0 0 1 .032.038c.005.013.006.027-.002.037a.066.066 0 0 0-.01.029.157.157 0 0 0 0 .042v.005h-.004c-.023.006-.034.028-.035.054a.064.064 0 0 0 .005.034c.004.01.01.016.015.018a.133.133 0 0 1 .045.023c.012.01.022.025.03.044a.043.043 0 0 0 .02.017c.01.004.023.006.035.006a.089.089 0 0 0 .067-.024l.004-.005.004.004c.047.047.119.044.166.022l.005-.002.002.003c.021.029.056.04.09.037a.102.102 0 0 0 .08-.054c.017-.03.013-.07-.002-.107a.191.191 0 0 0-.074-.089l-.006-.003.005-.005a.08.08 0 0 0 .02-.053.07.07 0 0 0-.018-.043.151.151 0 0 0-.081-.045c-.023-.002-.04-.009-.049-.024-.009-.014-.01-.034-.009-.06v-.001a.116.116 0 0 0-.013-.076.161.161 0 0 0-.048-.057l-.003-.002v-.004c.008-.06-.012-.1-.048-.12Zm-.52.126-.005-.001c.011-.076.045-.116.086-.133a.186.186 0 0 1 .12-.003.42.42 0 0 0 .162-.007c.064-.017.122-.015.163.009.04.023.06.067.054.128a.175.175 0 0 1 .05.06c.012.026.02.055.014.083-.002.026 0 .043.007.053.006.011.018.017.04.019a.162.162 0 0 1 .088.049.08.08 0 0 1 .022.05.086.086 0 0 1-.02.055c.031.02.058.054.073.09.016.04.02.083.003.117a.113.113 0 0 1-.09.06.109.109 0 0 1-.097-.037c-.049.02-.121.024-.17-.022a.103.103 0 0 1-.072.025.103.103 0 0 1-.039-.008.053.053 0 0 1-.026-.022.095.095 0 0 0-.027-.04.12.12 0 0 0-.041-.021.044.044 0 0 1-.023-.025.095.095 0 0 1-.006-.039c.002-.025.013-.053.04-.062a.17.17 0 0 1 0-.04.077.077 0 0 1 .012-.034c.004-.005.005-.014 0-.025a.088.088 0 0 0-.028-.035.146.146 0 0 1-.038-.076.15.15 0 0 1 .004-.085.127.127 0 0 1-.038 0 .311.311 0 0 1-.11-.043.118.118 0 0 1-.034-.03c-.012-.017-.026-.025-.037-.026-.012 0-.023.005-.032.019l-.005-.003Zm.13.637a.24.24 0 0 1-.097.034l-.001-.011a.228.228 0 0 0 .093-.033l.001-.001c.025-.014.048-.027.08-.027V6.2c-.029 0-.05.012-.075.026Zm-.26-.188-.02-.012.005-.01.021.012a.089.089 0 0 0 .024.009l.019.004a.82.82 0 0 1 .006.001l-.002.012-.006-.001-.02-.005a.1.1 0 0 1-.027-.01Zm.04-.081-.036-.02.006-.011.036.02-.006.011Z" clip-rule="evenodd"/><path fill="currentColor" fill-rule="evenodd" d="M18.87 5.567c0 .005.003.011.008.016l-.009.009a.039.039 0 0 1-.011-.024.04.04 0 0 1 .005-.024.083.083 0 0 1 .05-.035c.048-.014.118-.002.19.068a.106.106 0 0 0 .057.021.151.151 0 0 0 .05-.001l.004.011a.162.162 0 0 1-.056.002.117.117 0 0 1-.064-.024c-.069-.068-.135-.078-.177-.066a.071.071 0 0 0-.043.03.03.03 0 0 0-.005.017Zm.307.098a.262.262 0 0 0-.107.004l-.003-.012a.274.274 0 0 1 .112-.004c.038.008.071.028.087.067a.07.07 0 0 0 .025.033.08.08 0 0 0 .028.013l.003.001a.127.127 0 0 1 .036.018.14.14 0 0 1 .037.046.383.383 0 0 0 .082.114c.016.013.032.02.047.022a.07.07 0 0 0 .048-.02l.008.008a.074.074 0 0 1-.056.024.095.095 0 0 1-.054-.025.393.393 0 0 1-.086-.117.117.117 0 0 0-.033-.042.116.116 0 0 0-.033-.017h-.003c-.01-.004-.021-.008-.031-.015a.082.082 0 0 1-.029-.038c-.014-.035-.043-.053-.078-.06Zm.099.303c-.001.023.003.044.013.057l.002.003v.003a.144.144 0 0 0 .014.115l-.01.006a.156.156 0 0 1-.017-.122.103.103 0 0 1-.014-.063.17.17 0 0 1 .015-.064l.01.006a.156.156 0 0 0-.013.059Zm-.14.053a.1.1 0 0 1-.029-.052l.012-.001c.002.011.01.03.026.045a.11.11 0 0 0 .06.034l-.003.011a.123.123 0 0 1-.066-.037Zm.32.094a.103.103 0 0 0 .022.054l-.01.008a.114.114 0 0 1-.024-.061.22.22 0 0 1 .006-.064l.012.002a.208.208 0 0 0-.006.06Z" clip-rule="evenodd"/><path fill="currentColor" fill-rule="evenodd" d="M19.168 5.805a.146.146 0 0 1-.016-.064h.012c0 .018.005.04.015.059.01.019.024.035.042.043l.002.001v.002c.012.023.052.08.136.072v.012a.144.144 0 0 1-.145-.077.106.106 0 0 1-.046-.048Zm.012-.319a.415.415 0 0 1 .202.094l-.008.01a.402.402 0 0 0-.195-.092l.002-.012Zm-.426 1.774a.552.552 0 0 1 .091-.437l.01.007a.54.54 0 0 0-.086.443c.017.094.038.208.04.315 0 .112-.02.218-.093.284l-.008-.009c.069-.062.09-.164.088-.275 0-.105-.022-.219-.04-.313 0-.005 0-.01-.002-.015Zm.489.966a.57.57 0 0 1 .169.014l-.003.012a.558.558 0 0 0-.165-.014.303.303 0 0 0-.15.046.265.265 0 0 1-.147.047.327.327 0 0 1-.154-.029l.005-.01c.043.02.096.03.149.027a.253.253 0 0 0 .139-.045.315.315 0 0 1 .157-.048Z" clip-rule="evenodd"/><path fill="currentColor" fill-rule="evenodd" d="M19.1 8.298a.13.13 0 0 1 .1-.068l.002.012a.119.119 0 0 0-.092.062.362.362 0 0 0-.03.17c0 .05-.003.11-.007.174-.002.036-.005.073-.006.11-.006.108-.007.224.008.339l-.012.001a1.914 1.914 0 0 1-.008-.34c.001-.038.004-.075.006-.111.004-.064.008-.123.008-.174 0-.08.01-.136.03-.175Zm-.07.005a.8.8 0 0 0 .014-.004l.003.012a.732.732 0 0 1-.015.003l-.028.008a.08.08 0 0 0-.034.02c-.018.019-.03.055-.024.13l-.012.002c-.006-.077.005-.118.027-.14A.092.092 0 0 1 19 8.31a.357.357 0 0 1 .03-.007Zm-.248.055a.296.296 0 0 0-.026.12l-.012-.001a.31.31 0 0 1 .027-.124.095.095 0 0 1 .032-.038.053.053 0 0 1 .045-.006l-.004.012a.04.04 0 0 0-.035.004.082.082 0 0 0-.027.033Zm.571-.075c.019.041.03.109.028.214h-.012a.518.518 0 0 0-.027-.21.089.089 0 0 0-.03-.038.06.06 0 0 0-.04-.01v-.012a.145.145 0 0 1 .059.007.1.1 0 0 1 .05.044c.03.046.054.135.072.303.017.182.05.278.09.392.015.043.031.09.047.143.079.256.098.581.108.876l.005.151.008.258c.007.12.016.222.036.29l-.012.004c-.02-.07-.03-.173-.036-.294a12.007 12.007 0 0 1-.009-.258c0-.049-.002-.1-.004-.15-.01-.296-.03-.619-.107-.873-.016-.054-.032-.099-.047-.142a1.463 1.463 0 0 1-.091-.396c-.018-.168-.041-.254-.07-.298a.09.09 0 0 0-.044-.038.11.11 0 0 1 .026.037Z" clip-rule="evenodd"/><path fill="currentColor" fill-rule="evenodd" d="M19.235 10.404c.267-.845.18-1.371.015-1.844l.011-.004c.166.474.253 1.003-.014 1.85a14.205 14.205 0 0 0 .251.646c.072.18.127.322.145.427l-.012.002a2.46 2.46 0 0 0-.144-.425 13.961 13.961 0 0 1-.252-.649v-.003Zm-.439-1.425a1.158 1.158 0 0 1-.036.201c-.048.19-.044.287-.032.35l.01.043.001.006.007.03a.143.143 0 0 1-.001.072l-.012-.003a.132.132 0 0 0 .002-.067.552.552 0 0 0-.01-.035.596.596 0 0 1-.01-.043c-.011-.066-.015-.165.033-.356.021-.082.033-.148.036-.199a.214.214 0 0 0-.014-.112l.01-.005c.014.027.02.066.016.118Z" clip-rule="evenodd"/><path fill="currentColor" fill-rule="evenodd" d="M18.772 9.24a.416.416 0 0 1-.002-.153l.012.003a.405.405 0 0 0 .002.147c.006.041.015.085.025.13l.01.053c.027.129.049.267.007.384l-.01-.004c.039-.113.018-.248-.008-.377a5.938 5.938 0 0 0-.01-.053 1.99 1.99 0 0 1-.026-.13Zm-.148.827a2.586 2.586 0 0 1-.014-.222h.012c0 .068.007.144.014.221l.002.023c.008.084.014.168.011.242-.007.114.028.178.076.268l.044.083c.252.501.42.86.4 1.335a.528.528 0 0 0-.001.07v.01c0 .03.001.063-.001.095a.315.315 0 0 1-.018.089.117.117 0 0 1-.05.062l-.006-.01a.105.105 0 0 0 .045-.056.302.302 0 0 0 .017-.086.986.986 0 0 0 .001-.094v-.08c.021-.472-.146-.828-.398-1.33a2.208 2.208 0 0 0-.043-.081c-.049-.091-.085-.158-.078-.275a1.968 1.968 0 0 0-.013-.264Zm.181 1.442c.022.292-.008.585-.09.866a.214.214 0 0 1-.048.077.063.063 0 0 1-.045.017v-.012a.051.051 0 0 0 .037-.014.2.2 0 0 0 .044-.072 2.41 2.41 0 0 0 .09-.861l.012-.001Zm-.008.826c.062-.16.062-.364.05-.462l.012-.001c.012.1.012.304-.05.467l-.012-.004Z" clip-rule="evenodd"/><path fill="currentColor" fill-rule="evenodd" d="M19.015 12.112c.03-.134.036-.325-.003-.535l.011-.002c.04.21.034.404.003.54l-.011-.003Zm-.085.058-.005-.056.012-.001c0 .015.003.034.005.056l.003.026c.004.032.007.068.008.102a.372.372 0 0 1-.005.09c-.006.024-.017.045-.037.05l-.003-.012c.013-.003.022-.017.028-.04a.357.357 0 0 0 .005-.088 1.44 1.44 0 0 0-.008-.1c0-.01-.002-.018-.003-.026Zm.531-.54c-.065-.195-.134-.399-.211-.519l.01-.007c.078.122.147.327.212.521l.009.027c.034.1.067.198.1.277.033.08.066.142.098.173l-.008.01a.554.554 0 0 1-.101-.178 4.637 4.637 0 0 1-.1-.279l-.009-.025Zm-.063.371v.007h-.012v-.006a.799.799 0 0 0-.009-.107.19.19 0 0 0-.034-.093l.009-.008a.2.2 0 0 1 .037.099.983.983 0 0 1 .009.108Zm-1.726-3.045v.022h-.013a.68.68 0 0 0 .001-.021c0-.016 0-.033.004-.051a.235.235 0 0 1 .044-.096l.01.007a.223.223 0 0 0-.042.09.285.285 0 0 0-.004.049Zm-.077.016-.002.036h-.012l.002-.036c.003-.06.005-.097.01-.123a.12.12 0 0 1 .015-.04.189.189 0 0 1 .029-.034l.008.009a.18.18 0 0 0-.026.031.107.107 0 0 0-.014.036.924.924 0 0 0-.01.121Zm-.069-.022.001.06h-.012v-.058c-.001-.03-.002-.054 0-.076a.211.211 0 0 1 .037-.103l.01.006a.198.198 0 0 0-.035.098c-.002.021-.001.044 0 .074Zm.417-3.382.171-.129.008.01-.171.129-.008-.01Zm.197-.08a.075.075 0 0 1 .025-.011l.002.011a.064.064 0 0 0-.02.01 4.954 4.954 0 0 0-.097.073l-.066.051-.007-.01a11.068 11.068 0 0 0 .124-.096.618.618 0 0 1 .039-.028Zm-.046.107a.36.36 0 0 1 .072-.05l.005.012a.35.35 0 0 0-.069.047 2.542 2.542 0 0 0-.023.019.986.986 0 0 1-.063.05l-.007-.01a1.582 1.582 0 0 0 .085-.068Zm-.256.001.06-.06.008.008-.06.06-.008-.008Zm1.57 7.179c.001.005.003.008.004.008l-.009.009a.028.028 0 0 1-.006-.015.092.092 0 0 1-.001-.022.19.19 0 0 1 .015-.06l.01.005a.175.175 0 0 0-.013.056v.019Zm.081-.022c0 .007.002.01.004.012l-.008.01c-.006-.005-.008-.013-.008-.02 0-.009 0-.018.002-.028a.567.567 0 0 1 .013-.056v-.002l.012.003v.001l-.014.056a.116.116 0 0 0-.001.024Zm.066-.036c0 .013.005.018.009.02l-.005.011c-.01-.004-.016-.017-.016-.03 0-.015.004-.034.013-.056l.01.005a.123.123 0 0 0-.011.05Zm.061-.022c0 .01.003.012.004.012l-.004.011c-.008-.003-.011-.012-.011-.023a.17.17 0 0 1 .01-.05l.012.003a.162.162 0 0 0-.01.047Z" clip-rule="evenodd"/><path fill="currentColor" d="M18.77 5.725c.03.039.062.036.068.06.006.03.01.03.015.039.006.006-.015.006-.024 0h-.05c-.016 0-.034-.021-.025-.021.012-.003.012-.006.01-.015 0-.01.005-.021.011-.024l-.003-.012c-.006-.012-.012-.036-.003-.03v.003Zm.017-.039a.24.24 0 0 1 .129.06c.024.03.003.02-.01.02-.011 0-.038-.005-.05-.023a.173.173 0 0 0-.072-.042c-.012-.003-.024-.018.003-.015Z"/><path fill="#012169" d="M0 0h12v9H0V0Z"/><path fill="#fff" d="m1.406 0 4.575 3.394L10.537 0H12v1.163L7.5 4.518 12 7.856V9h-1.5L6 5.644 1.519 9H0V7.875l4.481-3.338L0 1.2V0h1.406Z"/><path fill="#C8102E" d="M7.95 5.269 12 8.25V9L6.919 5.269H7.95Zm-3.45.375.112.656-3.6 2.7H0l4.5-3.356ZM12 0v.056L7.331 3.581l.038-.825L11.063 0H12ZM0 0l4.481 3.3H3.356L0 .788V0Z"/><path fill="#fff" d="M4.519 0v9h3V0h-3ZM0 3v3h12V3H0Z"/><path fill="#C8102E" d="M0 3.619v1.8h12v-1.8H0ZM5.119 0v9h1.8V0h-1.8Z"/></g><defs><clipPath id="a"><path fill="#fff" d="M0 0h24v18H0z"/></clipPath></defs></svg>