<svg xmlns="http://www.w3.org/2000/svg" width="24" height="18" fill="none"><g clip-path="url(#a)"><path fill="#CE0000" fill-rule="evenodd" d="M12 0h12v18H12V0Z" clip-rule="evenodd"/><path fill="#fff" fill-rule="evenodd" d="M0 0h12v18H0V0Z" clip-rule="evenodd"/><path fill="#F1EEEE" fill-rule="evenodd" d="M5.817 5.319c0 .054-.054.09-.12.09-.072 0-.12-.036-.12-.084 0-.048.048-.09.12-.09.066 0 .12.042.12.09v-.006Z" clip-rule="evenodd"/><path fill="#C00" fill-rule="evenodd" d="M1.975 4.9v2.23H4.21c0 .371.371.743.743.743v2.23H7.19v-2.23c.372 0 .743-.372.743-.743h2.23V4.9H7.927c0-.372-.371-.744-.743-.744v-2.23h-2.23v2.23c-.378 0-.75.372-.75.744h-2.23Z" clip-rule="evenodd"/><path fill="#FFE600" fill-rule="evenodd" d="M2.053 4.972v2.086h2.23c0 .372.371.743.743.743v2.23h2.08V7.807c.372 0 .744-.371.744-.743h2.236V4.978h-2.23c0-.372-.372-.743-.744-.743V1.999H5.026v2.23c-.372 0-.743.371-.743.743h-2.23Z" clip-rule="evenodd"/><path fill="#707070" fill-rule="evenodd" d="M2.125 5.05v1.93h2.23c0 .372.372.744.743.744v2.23h1.937v-2.23c.371 0 .743-.372.743-.744h2.23V5.05h-2.23c0-.372-.372-.743-.743-.743v-2.23H5.098V4.3c-.371 0-.743.371-.743.743h-2.23v.006Z" clip-rule="evenodd"/><path fill="#A0A0A0" fill-rule="evenodd" d="M2.202 5.121v1.787h2.23c0 .371.372.743.744.743v2.224h1.78v-2.23c.372 0 .743-.372.743-.743h2.23V5.115H7.7c0-.371-.371-.743-.743-.743V2.148h-1.78v2.23c-.372 0-.744.372-.744.743H2.196h.006Z" clip-rule="evenodd"/><path fill="#D0D0D0" fill-rule="evenodd" d="M5.194 4.193c.126.131.024.45-.24.713-.264.264-.575.36-.707.24-.132-.138-.024-.456.24-.72.263-.263.575-.36.707-.233Z" clip-rule="evenodd"/><path fill="gray" fill-rule="evenodd" d="M5.032 4.349c.132.132.096.378-.078.557-.173.18-.42.21-.551.078-.132-.132-.096-.377.078-.551.174-.174.42-.21.551-.084Z" clip-rule="evenodd"/><path fill="#D0D0D0" fill-rule="evenodd" d="m4.379 4.744.048-.048.21.102-.102-.21.054-.054.21.42-.42-.21Zm.312-.312.06-.06.311.324-.054.048-.317-.312Zm3.194.708c-.132.132-.45.024-.707-.24-.258-.264-.372-.576-.24-.707.132-.132.45-.024.713.24.264.263.36.575.24.707h-.006Z" clip-rule="evenodd"/><path fill="gray" fill-rule="evenodd" d="M7.729 4.984c-.132.132-.378.096-.552-.078-.173-.174-.21-.42-.084-.551.132-.132.384-.096.558.077.174.174.21.42.078.552Z" clip-rule="evenodd"/><path fill="#D0D0D0" fill-rule="evenodd" d="m7.334 4.325.054.054-.108.21.21-.108.06.06-.426.203.21-.42Zm.318.317.048.048-.312.318-.054-.054.318-.312Zm-.714 3.195c-.132-.132-.024-.45.24-.713.264-.264.575-.366.707-.24.132.132.024.45-.24.713-.263.264-.575.366-.707.24Z" clip-rule="evenodd"/><path fill="gray" fill-rule="evenodd" d="M7.1 7.675c-.132-.131-.096-.377.078-.551.174-.174.42-.21.552-.078.131.132.096.378-.078.551-.174.174-.42.21-.558.078H7.1Z" clip-rule="evenodd"/><path fill="#D0D0D0" fill-rule="evenodd" d="m7.754 7.28-.054.06-.21-.109.108.21-.054.048-.21-.42.42.21Zm-.306.317-.06.054-.312-.318.054-.054.318.318ZM4.246 6.89c.132-.132.45-.024.708.234.258.258.366.581.24.707-.132.132-.45.03-.714-.234-.263-.263-.36-.581-.24-.707h.006Z" clip-rule="evenodd"/><path fill="gray" fill-rule="evenodd" d="M4.402 7.046c.132-.131.378-.095.551.078.174.174.21.42.078.552-.126.132-.377.096-.551-.078-.174-.174-.21-.42-.078-.552Z" clip-rule="evenodd"/><path fill="#D0D0D0" fill-rule="evenodd" d="m4.798 7.705-.054-.06.108-.203-.21.102-.06-.054.426-.21-.21.42v.005Zm-.317-.317-.048-.054.311-.312.054.048-.317.318Z" clip-rule="evenodd"/><path fill="#707070" fill-rule="evenodd" d="M6.072 4.466a1.55 1.55 0 1 0 1.55 1.55v-.01h.002a1.55 1.55 0 0 0-1.552-1.54Zm1.57 1.56h.002v-.01a1.572 1.572 0 1 0-.002.01Z" clip-rule="evenodd"/><path fill="#707070" fill-rule="evenodd" d="M6.065 4.832a1.182 1.182 0 1 0 1.18 1.181v-.008h.002a1.182 1.182 0 0 0-1.182-1.173Zm1.196 1.19h.002v-.009a1.197 1.197 0 1 0-.002.008Z" clip-rule="evenodd"/><path fill="#D0D0D0" fill-rule="evenodd" d="M5.547 7.28a.075.075 0 1 1-.15 0 .075.075 0 0 1 .15 0Zm1.187 0a.075.075 0 1 1-.15 0 .075.075 0 0 1 .15 0Zm-.72 0v.077H5.92c-.102 0-.102.078 0 .078h.096v.072c0 .084.09.09.096.006V7.43h.102c.102 0 .102-.072 0-.072h-.096V7.28c0-.078-.102-.078-.102 0Zm-.316-1.103v.047s-.024.03-.174.042c-.15.012-.174 0-.174 0 .006.042.036.114.024.198.006.102-.024.192-.024.192 0 .006-.018.012-.048.006.024-.024.024-.084.024-.18 0-.084-.09-.222-.072-.258.018-.035.444-.047.444-.047Zm.587-.156.39-.006s.06.12.054.18c0 .06-.024.12-.048.09-.03-.03.012-.025.018-.09a.27.27 0 0 0-.048-.138s-.108.042-.264.036c-.156-.012-.084-.072-.102-.072Z" clip-rule="evenodd"/><path fill="#707070" fill-rule="evenodd" d="M6.678 6.014v.001l.002.004a.78.78 0 0 1 .046.122c.005.02.008.039.006.054 0 .03-.006.06-.015.08-.005.01-.01.017-.017.02a.014.014 0 0 1-.011 0 .025.025 0 0 1-.01-.008c-.008-.008-.011-.013-.012-.02 0-.005.004-.01.007-.015l.001-.002a.1.1 0 0 0 .021-.055.229.229 0 0 0-.024-.095.312.312 0 0 0-.021-.038V6.06h-.004a.404.404 0 0 1-.069.02.79.79 0 0 1-.19.015.237.237 0 0 1-.081-.016c-.016-.008-.023-.017-.025-.027a.042.042 0 0 1 .002-.023l.001-.004v-.008l.392-.006v.002Zm-.386.01.381-.006.002.004a.786.786 0 0 1 .045.12c.005.02.008.038.006.053 0 .03-.006.06-.015.077-.004.01-.009.015-.013.017a.008.008 0 0 1-.007 0 .019.019 0 0 1-.007-.006c-.008-.008-.01-.012-.01-.016 0-.003.001-.006.005-.012l.001-.001a.105.105 0 0 0 .022-.059.235.235 0 0 0-.024-.097.317.317 0 0 0-.024-.042l-.002-.002H6.65a.185.185 0 0 1-.018.007.784.784 0 0 1-.243.03.232.232 0 0 1-.078-.017c-.015-.007-.02-.015-.022-.022a.04.04 0 0 1 .002-.02.075.075 0 0 0 .002-.008Zm-1.028.197-.007.005a.03.03 0 0 0-.002.017l.006.025a.83.83 0 0 0 .025.065v.002c.01.025.021.05.03.076a.25.25 0 0 1 .013.072c0 .048 0 .087-.003.117a.118.118 0 0 1-.018.06.088.088 0 0 0 .029.001.026.026 0 0 0 .008-.003l.002-.001v-.002l.002-.003a.396.396 0 0 0 .013-.054.55.55 0 0 0 .01-.133.334.334 0 0 0-.006-.114l-.01-.043v-.003a.396.396 0 0 1-.009-.038v-.005l.005.002.005.002a1.075 1.075 0 0 0 .31-.027.118.118 0 0 0 .028-.015V6.18H5.68a6.506 6.506 0 0 0-.197.01c-.054.004-.109.01-.151.015a.433.433 0 0 0-.068.016Zm.434-.044v-.003H5.68a6.502 6.502 0 0 0-.197.01 3.41 3.41 0 0 0-.152.015.438.438 0 0 0-.07.017.027.027 0 0 0-.01.008.036.036 0 0 0-.002.02l.006.026a.83.83 0 0 0 .025.065v.002c.011.025.022.051.03.076s.013.05.013.07c0 .048 0 .087-.003.116-.003.03-.009.05-.02.062l-.004.004h.006a.1.1 0 0 0 .036.002.031.031 0 0 0 .01-.003c.003-.002.005-.004.005-.007a.437.437 0 0 0 .014-.057.557.557 0 0 0 .01-.135.34.34 0 0 0-.005-.115l-.01-.044v-.003a.478.478 0 0 1-.008-.032h.002a1.08 1.08 0 0 0 .313-.027.124.124 0 0 0 .03-.015.022.022 0 0 0 .001-.002l-.002-.002.002.002h.001v-.05h-.003Z" clip-rule="evenodd"/><path fill="#D0D0D0" fill-rule="evenodd" d="M6.333 6.135c.144-.006.24.012.24.012s.06.12.06.18c-.007.06-.025.12-.054.09-.024-.024.011-.018.018-.09 0-.066-.048-.138-.048-.138s-.102.042-.258.036c-.156-.012-.108-.018-.126-.024-.018 0-.024.048-.258.054a.954.954 0 0 1-.36-.054s-.024.036-.167.048H5.2c.006.036.036.108.03.198 0 .096-.03.192-.03.192h-.042c.024-.018.018-.084.024-.174 0-.09-.096-.222-.078-.264.024-.036.132 0 .15-.018.018-.024-.096-.162-.072-.288.018-.126.144-.09.293-.09.15.006.48.048.564 0 .084-.042.048-.203.12-.305a.246.246 0 0 1 .198-.09c.054 0 .12.18.12.222l-.018.024h-.024v.018c-.06.006-.066-.048-.102-.084-.012.06.048.263.048.395 0 .108-.042.156-.048.15Z" clip-rule="evenodd"/><path fill="#707070" fill-rule="evenodd" d="M6.357 5.412a.243.243 0 0 0-.196.089c-.032.046-.042.104-.052.158 0 .006-.002.01-.003.016a.387.387 0 0 1-.02.08.098.098 0 0 1-.046.052.26.26 0 0 1-.103.022 1.51 1.51 0 0 1-.155-.001 5.969 5.969 0 0 1-.167-.011h-.007a3.034 3.034 0 0 0-.133-.01c-.028 0-.056 0-.082-.002l-.024-.001a.546.546 0 0 0-.09.001.118.118 0 0 0-.063.025.1.1 0 0 0-.031.065.318.318 0 0 0 .033.18l.017.038.014.03a.14.14 0 0 1 .009.024c.001.007.001.013-.002.017a.022.022 0 0 1-.012.006.096.096 0 0 1-.018 0l-.03-.001-.015-.002a.227.227 0 0 0-.046 0c-.013.003-.023.007-.028.015a.037.037 0 0 0-.002.018c0 .007.003.016.006.026.006.018.016.04.027.064v.003c.012.025.023.05.032.077a.239.239 0 0 1 .015.074 1.899 1.899 0 0 0-.003.063v.002l-.002.05a.198.198 0 0 1-.006.038.053.053 0 0 1-.009.018h.033a.234.234 0 0 0 .004-.014.793.793 0 0 0 .025-.175.414.414 0 0 0-.01-.119l-.012-.043v-.002a.386.386 0 0 1-.008-.033v-.004h.183a.44.44 0 0 0 .136-.028.106.106 0 0 0 .028-.017v-.001h.001l.001-.003.003.001.001.001a.182.182 0 0 0 .02.008 1.232 1.232 0 0 0 .336.045.648.648 0 0 0 .21-.029.15.15 0 0 0 .034-.018l.007-.004a.016.016 0 0 1 .008-.003l.006.003.002.004v.001l.004.002a1.606 1.606 0 0 0 .114.014.75.75 0 0 0 .255-.035h.001l.003-.002.001.003.002.003a.307.307 0 0 1 .022.041.24.24 0 0 1 .025.095.125.125 0 0 1-.021.065l-.004.006a.011.011 0 0 0-.002.005c0 .003.002.006.008.012.007.007.012.008.017.006.005-.002.01-.007.014-.017a.257.257 0 0 0 .018-.077.205.205 0 0 0-.01-.052.624.624 0 0 0-.05-.125h-.002a.531.531 0 0 0-.062-.008 1.337 1.337 0 0 0-.175-.005l.002-.002v-.003h.002a.025.025 0 0 0 .006-.004.104.104 0 0 0 .015-.026.284.284 0 0 0 .022-.117 1.35 1.35 0 0 0-.029-.224v-.002l-.017-.1a.242.242 0 0 1-.002-.07v-.005l.005.004a.182.182 0 0 1 .028.036l.014.022a.068.068 0 0 0 .023.02.06.06 0 0 0 .032.005v-.018h.025l.017-.022a.608.608 0 0 0-.078-.19.105.105 0 0 0-.02-.02.033.033 0 0 0-.02-.008Zm-.012.719a1.337 1.337 0 0 1 .227.012h.001v.003l.002-.001v.001l.003.004a.885.885 0 0 1 .048.122.21.21 0 0 1 .01.054.262.262 0 0 1-.019.08c-.004.01-.01.017-.017.02-.008.003-.016 0-.024-.008-.006-.006-.009-.01-.009-.016l.002-.007.005-.007a.119.119 0 0 0 .02-.062.234.234 0 0 0-.024-.092.377.377 0 0 0-.022-.041v-.001a.132.132 0 0 1-.017.006.756.756 0 0 1-.24.03 1.605 1.605 0 0 1-.116-.015.015.015 0 0 1-.006-.004.008.008 0 0 1-.002-.003v-.002H6.16a.081.081 0 0 0-.008.006.155.155 0 0 1-.034.018.653.653 0 0 1-.21.03 1.238 1.238 0 0 1-.339-.047.363.363 0 0 1-.02-.007.112.112 0 0 1-.03.019.446.446 0 0 1-.14.028h-.176a.47.47 0 0 0 .008.03v.001a.42.42 0 0 1 .022.164.67.67 0 0 1-.029.188l-.001.004-.001.003h-.053l.007-.006a.033.033 0 0 0 .012-.02.193.193 0 0 0 .006-.037l.002-.05v-.002l.003-.062a.233.233 0 0 0-.015-.072.963.963 0 0 0-.03-.077l-.002-.003a.774.774 0 0 1-.033-.092c0-.008 0-.015.002-.021.007-.01.02-.015.033-.017a.232.232 0 0 1 .047 0h.016l.03.003a.09.09 0 0 0 .016-.001.017.017 0 0 0 .008-.004c.002-.002.002-.005 0-.011a.134.134 0 0 0-.007-.023l-.014-.03-.017-.038a.324.324 0 0 1-.034-.184.106.106 0 0 1 .033-.069.124.124 0 0 1 .067-.026.552.552 0 0 1 .114 0c.026.001.054.003.083.003.035.001.082.004.132.008h.007c.054.005.111.01.167.012.056.002.11.003.154 0a.255.255 0 0 0 .102-.02.092.092 0 0 0 .042-.05.381.381 0 0 0 .02-.078l.003-.016a.392.392 0 0 1 .054-.16v-.001a.249.249 0 0 1 .2-.091.04.04 0 0 1 .022.008.11.11 0 0 1 .022.022.35.35 0 0 1 .039.067.616.616 0 0 1 .028.074.216.216 0 0 1 .012.054l-.02.027h-.022v.017h-.003a.067.067 0 0 1-.038-.005.074.074 0 0 1-.025-.022.286.286 0 0 1-.014-.021l-.005-.008a.196.196 0 0 0-.018-.024.283.283 0 0 0 .003.062l.017.1v.002a1.4 1.4 0 0 1 .029.225.29.29 0 0 1-.022.12.11.11 0 0 1-.017.027Zm.228.015.002-.001v-.001h-.002v.002Z" clip-rule="evenodd"/><path fill="#D0D0D0" fill-rule="evenodd" d="M5.859 5.943c0 .042-.186.144-.204.18-.012.042.048.06.03.084-.018.024-.036.012-.042.018l-.072-.15s.18-.084.174-.12c-.006-.036-.132-.06-.156-.144-.024-.084-.012-.258-.03-.294-.018-.036-.24-.072-.24-.12 0-.06.228-.203.252-.227.024-.024.048.024.024.042-.024.024-.198.161-.198.18 0 .023.144.047.192.047.054 0 .078-.024.078-.048 0-.018-.054-.018-.054-.06 0-.041.03-.071.078-.071.024 0 .072.03.072.066 0 .036-.042.041-.048.065-.006.03.048.048.096.048s.216.126.24.15c.03.018.054.018.03.042-.024.024-.012.048-.036.024a.09.09 0 0 1-.024-.042c0-.018-.18-.108-.21-.09-.024.024 0 .288 0 .312 0 .042.054.042.048.108Z" clip-rule="evenodd"/><path fill="#707070" fill-rule="evenodd" d="M5.588 5.167c-.004-.002-.01 0-.015.005a.195.195 0 0 1-.018.014c-.008.007-.02.015-.032.023-.024.018-.055.04-.085.064a.81.81 0 0 0-.08.07.21.21 0 0 0-.026.03.048.048 0 0 0-.01.025c0 .004.003.01.009.015a.11.11 0 0 0 .025.016c.02.01.049.02.078.03l.02.007.061.021.03.014c.008.005.014.01.017.015a.077.077 0 0 1 .006.02.339.339 0 0 1 .003.03l.004.07v.01a.799.799 0 0 0 .017.164c.012.041.048.068.083.089l.02.01a.531.531 0 0 1 .045.03c.004.005.007.01.008.016a.032.032 0 0 1-.006.017.116.116 0 0 1-.02.02 1.25 1.25 0 0 1-.147.085l.07.144.005-.001h.009c.007-.001.015-.004.024-.015a.012.012 0 0 0 .002-.007l-.001-.007a.08.08 0 0 0-.012-.015l-.002-.002c-.011-.013-.024-.03-.018-.052a.069.069 0 0 1 .015-.018.366.366 0 0 1 .026-.02c.014-.012.03-.023.047-.036a4.964 4.964 0 0 0 .088-.066.162.162 0 0 0 .02-.022c.006-.007.008-.013.008-.017h.003-.003a.076.076 0 0 0-.005-.038.078.078 0 0 0-.016-.023.304.304 0 0 0-.005-.005c-.011-.011-.022-.022-.022-.042l-.002-.039a16.711 16.711 0 0 1-.007-.117 1.322 1.322 0 0 1 .002-.137.08.08 0 0 1 .003-.012.022.022 0 0 1 .005-.009c.005-.003.012-.003.02-.003l.028.006a.547.547 0 0 1 .167.089.087.087 0 0 0 .034.05l.002-.003.002-.004a.075.075 0 0 1 .017-.027c.006-.006.008-.01.008-.012v-.003a.01.01 0 0 0-.003-.004.083.083 0 0 0-.014-.007.235.235 0 0 1-.02-.011h-.001a1.088 1.088 0 0 0-.216-.144.067.067 0 0 0-.022-.006.181.181 0 0 1-.07-.013.063.063 0 0 1-.023-.015.026.026 0 0 1-.006-.023.035.035 0 0 1 .011-.017.154.154 0 0 1 .011-.01c.002 0 .004-.002.005-.003.012-.01.021-.019.021-.035 0-.017-.011-.033-.026-.045a.08.08 0 0 0-.043-.018.078.078 0 0 0-.055.02.066.066 0 0 0-.02.049c0 .019.012.029.026.036a.263.263 0 0 0 .008.004l.001.001a.12.12 0 0 1 .01.005c.004.003.01.007.01.014a.043.043 0 0 1-.02.035.105.105 0 0 1-.062.015.663.663 0 0 1-.17-.03.081.081 0 0 1-.017-.01c-.004-.002-.008-.006-.008-.01l.001-.004a1.715 1.715 0 0 1 .14-.13c.007-.004.012-.009.017-.013a.935.935 0 0 0 .041-.035.03.03 0 0 0 .006-.034.026.026 0 0 0-.011-.01Zm.274.776a.036.036 0 0 1-.009.02.82.82 0 0 1-.11.09l-.047.035a.361.361 0 0 0-.025.02.065.065 0 0 0-.013.016c-.005.02.005.033.017.046l.001.002c.005.005.01.01.013.016a.02.02 0 0 1 .002.01.018.018 0 0 1-.004.01c-.01.013-.019.017-.027.018h-.015l-.003.004-.075-.156.003-.002h.002a1.017 1.017 0 0 0 .147-.085.11.11 0 0 0 .018-.018c.004-.006.006-.01.005-.013a.023.023 0 0 0-.007-.012.092.092 0 0 0-.015-.012l-.028-.017a1.204 1.204 0 0 1-.02-.011c-.035-.021-.073-.049-.086-.092a.804.804 0 0 1-.017-.166v-.01l-.004-.07a.33.33 0 0 0-.008-.047c-.002-.004-.007-.008-.015-.012a.222.222 0 0 0-.029-.014l-.061-.021-.02-.007a.637.637 0 0 1-.079-.03.117.117 0 0 1-.026-.018c-.006-.006-.01-.012-.01-.02s.003-.017.01-.027a.215.215 0 0 1 .026-.032.815.815 0 0 1 .081-.07l.086-.063a2.596 2.596 0 0 0 .05-.037c.006-.007.013-.009.02-.007a.025.025 0 0 1 .014.013c.006.012.007.03-.007.04a.955.955 0 0 1-.04.036l-.017.013-.05.043a1.72 1.72 0 0 0-.088.082.016.016 0 0 0-.002.003c0 .002.002.004.005.007a.365.365 0 0 0 .07.024c.043.009.09.014.114.014a.1.1 0 0 0 .058-.014.037.037 0 0 0 .017-.03c0-.003-.002-.006-.007-.009a.112.112 0 0 0-.008-.005h-.002l-.008-.005c-.014-.007-.029-.019-.029-.041 0-.022.008-.04.022-.054a.084.084 0 0 1 .06-.021.09.09 0 0 1 .046.02c.015.012.028.03.028.049 0 .019-.011.03-.023.04-.002 0-.003.002-.005.004a.142.142 0 0 0-.01.008.03.03 0 0 0-.01.014.02.02 0 0 0 .005.018.07.07 0 0 0 .021.014.176.176 0 0 0 .067.012c.007 0 .015.003.024.006l.032.015a1.1 1.1 0 0 1 .186.13.23.23 0 0 0 .02.01.088.088 0 0 1 .015.009.016.016 0 0 1 .004.005.01.01 0 0 1 .001.007c0 .004-.004.01-.01.015a.053.053 0 0 0-.015.025l-.003.005a.012.012 0 0 1-.003.004.006.006 0 0 1-.006 0 .018.018 0 0 1-.006-.002.092.092 0 0 1-.007-.008m-.23-.131a.018.018 0 0 0-.003.006 1.316 1.316 0 0 0-.005.148 4.217 4.217 0 0 0 .007.116l.002.04c0 .016.01.025.02.037l.005.005a.084.084 0 0 1 .018.025c.004.01.006.023.005.04" clip-rule="evenodd"/><path fill="#A7A7A7" fill-rule="evenodd" d="M5.548 5.433h.3v.305h-.3v-.305Z" clip-rule="evenodd"/><path fill="gray" d="M6.5 6.537 5.517 5.06c-.01-.014-.022-.022-.028-.02-.005.004-.003.018.006.031l.984 1.477c.01.014.022.023.027.02.006-.004.004-.017-.006-.031Z"/><path fill="#D0D0D0" fill-rule="evenodd" d="M5.625 5.193a.042.042 0 0 1-.015.031.052.052 0 0 1-.034.013.052.052 0 0 1-.035-.013.042.042 0 0 1-.015-.031c0-.012.006-.023.015-.031a.052.052 0 0 1 .035-.013c.013 0 .025.005.034.013a.04.04 0 0 1 .015.031Z" clip-rule="evenodd"/><path fill="#707070" fill-rule="evenodd" d="M5.576 5.153a.05.05 0 0 0-.033.012.039.039 0 0 0-.013.028c0 .011.005.021.013.029.009.008.02.012.033.012a.049.049 0 0 0 .033-.012.039.039 0 0 0 .013-.029.039.039 0 0 0-.013-.028.05.05 0 0 0-.033-.012Zm-.037.007a.056.056 0 0 1 .037-.014c.014 0 .027.005.037.014.01.009.015.02.015.033a.045.045 0 0 1-.015.034.056.056 0 0 1-.037.014.056.056 0 0 1-.037-.014.045.045 0 0 1-.016-.034c0-.012.006-.024.016-.033Z" clip-rule="evenodd"/><path fill="gray" fill-rule="evenodd" d="M6.483 5.59c0 .017-.12.041-.246.041-.132 0-.246-.024-.246-.042 0-.018.114.03.24.03.138 0 .252-.047.252-.03Z" clip-rule="evenodd"/><path fill="#A7A7A7" fill-rule="evenodd" d="M5.571 5.739h.246v.09h-.24l-.006-.09Z" clip-rule="evenodd"/><path fill="gray" fill-rule="evenodd" d="M6.37 5.523c-.025.048-.043.077-.049.071 0 0 .012-.047.036-.09l.048-.071c.006.006-.012.048-.036.09Zm.06.12-.049.03a.192.192 0 0 1 .048-.055c.03-.024.054-.036.054-.03l-.048.048-.006.006Z" clip-rule="evenodd"/><path fill="gray" fill-rule="evenodd" d="m6.404 5.583.03.072-.048-.06-.03-.072.048.06Zm-.024.192s-.071.012-.167.012a.673.673 0 0 1-.174-.012l.174-.012c.096 0 .167 0 .167.012Zm-.563-.024c0 .006-.054.012-.12.012-.072 0-.12 0-.12-.012 0 0 .048-.012.12-.012.066 0 .12.006.12.012Z" clip-rule="evenodd"/><path fill="#D0D0D0" fill-rule="evenodd" d="M5.277 6.518s.042.096.216.096c.168 0 .228-.03.162-.078s-.204-.036-.18.006c.012.048-.054.06-.066.03-.018-.03-.078-.126.03-.132.114-.006.348-.042.408.024s-.066.12.03.138c.09.012.108-.018.27-.024.161-.012.227.03.281.024.06 0 .048-.102 0-.12-.042-.03-.126-.036-.15-.06-.018-.03-.077 0-.071-.036 0-.03.083.018.083.006l.012-.012h-.018l.006-.012-.012.006.006-.012s-.018.012-.018 0h-.012c.012-.012.006-.012 0-.018h-.017v-.018c-.012 0-.012 0-.018.012v-.03c0-.006.011-.012.03-.012.041 0 .06.048.077.048.012 0 .03-.048.084-.03l.09.036c.03.018-.018.036 0 .06s.126.102.096.192c-.03.084-.12.096-.12.132-.012.036.258.024.324.036a.18.18 0 0 1 .114.072l-.12.006s-.06-.03-.21-.036c-.15 0-.204-.06-.264-.072l-.24.012-.18-.018c-.035-.006-.251.096-.251.12h-.144s.018-.054.102-.06c.078-.012.162-.048.156-.072l.024-.156c0-.036.036-.06.03-.072-.006-.024-.102-.042-.192-.042-.09 0-.186.006-.204.024-.012.024 0 .09.018.078.018 0-.006-.048.012-.054a.408.408 0 0 1 .12-.018c.048 0 .126.042.126.06 0 .006.024.048-.012.066a.491.491 0 0 1-.366-.024.143.143 0 0 1-.042-.066Z" clip-rule="evenodd"/><path fill="gray" fill-rule="evenodd" d="m6.223 6.306-.001.002v.02c0-.001 0-.002.002-.003a.012.012 0 0 1 .005-.001h.011v.017h.016v.001a.035.035 0 0 0 .004.003.01.01 0 0 1 .004.005l-.001.007-.002.002h.009v.005h.005a.035.035 0 0 0 .007-.004m-.048-.03a.04.04 0 0 0-.004 0h-.003l-.002.003a.096.096 0 0 0-.004.007l-.005-.002v-.03a.01.01 0 0 1 .003-.006.022.022 0 0 1 .007-.005.06.06 0 0 1 .023-.004c.022 0 .038.013.05.025a.4.4 0 0 1 .007.008l.009.009c.005.004.008.006.011.006l.004-.001a.05.05 0 0 0 .005-.005l.002-.002a.132.132 0 0 1 .014-.013.06.06 0 0 1 .025-.011.068.068 0 0 1 .035.003l.09.036c.009.005.012.01.012.016a.032.032 0 0 1-.006.016v.001c-.003.005-.006.009-.007.013a.015.015 0 0 0 .003.015.417.417 0 0 1 .066.071c.025.034.046.077.03.123a.174.174 0 0 1-.072.086.93.93 0 0 1-.034.023c-.009.008-.014.014-.014.022v.005c.002 0 .003.002.006.004a.107.107 0 0 0 .028.007.849.849 0 0 0 .096.008l.07.002.041.001a.67.67 0 0 1 .08.006.183.183 0 0 1 .116.073l.004.005-.127.006m-.384-.534a.062.062 0 0 0-.032-.003.055.055 0 0 0-.022.011.125.125 0 0 0-.014.012l-.002.002a.056.056 0 0 1-.006.006.012.012 0 0 1-.007.002c-.005 0-.01-.003-.015-.008l-.01-.01-.007-.006c-.011-.012-.026-.024-.045-.024a.054.054 0 0 0-.021.004.016.016 0 0 0-.005.003m-.8.172a.058.058 0 0 0-.003.022c0 .01 0 .02.002.028a.058.058 0 0 0 .008.02c.001.003.003.004.004.004h.005c.002 0 .002-.001.003-.002l.001-.004V6.53a.091.091 0 0 1-.002-.02c.001-.005.003-.01.01-.013a.41.41 0 0 1 .12-.018m-.147 0a.03.03 0 0 1 .009-.006.372.372 0 0 1 .064-.012c.037-.004.083-.006.128-.006s.091.005.127.012a.222.222 0 0 1 .044.013l.013.008c.003.002.005.005.005.007.001.002 0 .005-.002.01l-.007.01-.003.005a.083.083 0 0 0-.018.046l-.024.156-.001.008a.037.037 0 0 1-.009.01.155.155 0 0 1-.035.02.444.444 0 0 1-.108.031.132.132 0 0 0-.084.033.09.09 0 0 0-.02.028v.001m.193-.32a.016.016 0 0 1 .004.01v.002l.002.003a.335.335 0 0 1 .006.022c0 .007 0 .015-.003.022a.037.037 0 0 1-.019.019.495.495 0 0 1-.368-.024.125.125 0 0 1-.031-.039.176.176 0 0 1-.013-.03m.422.015a.061.061 0 0 0-.01-.01l.01.01Zm-.01-.01a.188.188 0 0 0-.033-.02l.033.02Zm-.033-.02a.204.204 0 0 0-.082-.024l.082.024Z" clip-rule="evenodd"/><path fill="currentColor" fill-rule="evenodd" d="M6.369 6.369a.018.018 0 0 1-.011.016.018.018 0 0 1-.025-.016.018.018 0 1 1 .036 0Z" clip-rule="evenodd"/><path fill="#D0D0D0" d="m7.298 6.086.096.018.162-.108-.012.06-.084.054-.048.024.03.048.054.084-.012.06-.102-.174-.096-.018.012-.048Zm-.162-.707.18-.084-.048-.108.024-.012.12.264-.018.012-.054-.114-.18.09-.024-.048Zm-.288-.348.168-.156.036.036v.264l.132-.12.03.036-.168.156-.036-.036v-.264l-.132.12-.03-.036Zm-.743-.3.03-.228h.048l-.03.21.18.018v.03l-.228-.03Zm-.366.036-.042-.228.048-.012.036.204.18-.036v.03l-.222.042Zm-.677.33-.018-.018.12-.096.06.06a.341.341 0 0 1-.048.072.341.341 0 0 1-.054.06.312.312 0 0 1-.084.048c-.03.006-.06.012-.078 0a.096.096 0 0 1-.06-.03.102.102 0 0 1-.018-.06c0-.024.006-.054.024-.078a.207.207 0 0 1 .06-.066.288.288 0 0 1 .066-.042l.054-.012c.012 0 .03 0 .042.012l-.024.03a.078.078 0 0 0-.036-.006l-.036.006a.192.192 0 0 0-.042.03c-.018.012-.036.024-.042.042a.12.12 0 0 0-.024.036v.03c0 .018.006.036.018.048l.042.03.06-.006a.246.246 0 0 0 .126-.12l-.024-.036-.084.066Zm-.006 1.66-.192.138-.144-.203.024-.018.12.161.054-.042-.096-.137.018-.012.102.137.084-.06.03.036Zm-.282-.3c.03-.005.048-.023.06-.053v-.09a.156.156 0 0 0-.054-.078.079.079 0 0 0-.072-.018.084.084 0 0 0-.048.03c-.006.012-.018.03-.018.048l.006.066c.012.036.024.06.048.084.018.018.048.024.078.012Zm.018.049a.102.102 0 0 1-.102-.024.222.222 0 0 1-.066-.108c-.012-.036-.012-.06-.012-.096 0-.036.012-.048.024-.066a.096.096 0 0 1 .12-.036.152.152 0 0 1 .06.048.27.27 0 0 1 .048.18.138.138 0 0 1-.024.066.093.093 0 0 1-.048.036Zm.018-.468h-.24V5.87l.012-.072.024-.042a.048.048 0 0 1 .036-.012c.018 0 .03.006.042.024.006.018.018.042.018.078a.15.15 0 0 1 .042-.066l.066-.06v.06l-.048.042-.036.036a.102.102 0 0 0-.018.024.096.096 0 0 0 0 .024v.024l-.006.06h.108v.048Zm-.132-.054v-.102a.24.24 0 0 0 0-.054.06.06 0 0 0-.012-.024.03.03 0 0 0-.018-.012.033.033 0 0 0-.03.018l-.012.06v.12h.078l-.006-.006Zm.642-1.013v-.27l.048-.03.245.12-.048.03-.071-.036-.126.078v.084l-.048.024Zm.042-.138.108-.06-.06-.036a.495.495 0 0 1-.054-.03l.006.048v.078Zm1.115-.072.251-.102.042.03-.018.276-.042-.036.006-.078-.12-.09-.077.03-.042-.03Zm.144-.012.101.072V4.75a.505.505 0 0 1 .012-.06.222.222 0 0 1-.042.03l-.071.03Zm.617.857.228-.053.036.161.012.072-.012.042a.048.048 0 0 1-.03.024c-.018 0-.036 0-.048-.012a.168.168 0 0 1-.042-.072.15.15 0 0 1 0 .03l-.024.048-.048.072-.012-.06.036-.06.024-.036a.096.096 0 0 0 .012-.048.221.221 0 0 0-.006-.03l-.012-.054-.102.024-.012-.048Zm.138.018.024.102c0 .018.012.036.018.048 0 .012.012.018.018.024l.024.006c.006 0 .018-.012.018-.024a.126.126 0 0 0 0-.06l-.03-.114-.072.018Z"/></g><defs><clipPath id="a"><path fill="#fff" d="M0 0h24v18H0z"/></clipPath></defs></svg>