<svg xmlns="http://www.w3.org/2000/svg" width="24" height="18" fill="none"><g fill-rule="evenodd" clip-path="url(#a)" clip-rule="evenodd"><path fill="#F41408" d="M0 0h24v18H0V0Z"/><path fill="#21873B" d="M0 12h24v6H0v-6Z"/><path fill="currentColor" d="M0 0h24v6H0V0Z"/><path fill="#F31509" d="M8.269 5.288c.836-1.845 3.168-2.73 5.204-1.969a3.69 3.69 0 0 1 2.175 1.969h-7.38Zm-.975.24a12.461 12.461 0 0 1-1.965-.293c-.154-.048-.162-.135-.143-.198.019-.064.116-.135.233-.113.21.053 1.08.263 1.875.604Zm4.672-3.221c-.157-.788-.195-1.65-.18-1.8.015-.147.101-.17.176-.17.075 0 .177.068.177.177a9.16 9.16 0 0 1-.173 1.8v-.007Zm.435.018A9.338 9.338 0 0 1 12.39.518c.03-.146.12-.165.191-.158.075.004.169.08.158.188a9.236 9.236 0 0 1-.338 1.777Zm.39.05c-.008-.8.112-1.662.154-1.8.041-.147.135-.158.206-.147.075.011.161.094.143.199a9.67 9.67 0 0 1-.503 1.747Zm.412.082c.068-.795.274-1.643.33-1.782.057-.138.15-.142.218-.127.075.019.15.105.124.21-.06.191-.289.975-.668 1.699h-.004Zm.41.12c.146-.788.43-1.617.498-1.752.071-.13.161-.13.232-.108.068.022.14.12.102.217a9.904 9.904 0 0 1-.833 1.643Zm.378.142c.218-.776.581-1.575.664-1.706.082-.128.172-.116.24-.086a.166.166 0 0 1 .079.225c-.094.18-.47.915-.983 1.567Zm.375.176a9.93 9.93 0 0 1 .825-1.646c.09-.12.184-.101.247-.067a.165.165 0 0 1 .057.228c-.113.173-.559.878-1.129 1.485Zm.353.207c.363-.728.873-1.463.978-1.575.105-.113.195-.087.255-.05a.165.165 0 0 1 .038.233c-.132.165-.645.83-1.275 1.388l.004.004Zm.33.232c.434-.697 1.012-1.387 1.128-1.489.113-.105.203-.075.259-.03a.162.162 0 0 1 .011.233c-.142.154-.716.776-1.398 1.286Zm.31.259c.381-.502.805-.968 1.268-1.395.124-.094.207-.056.259-.011a.16.16 0 0 1-.011.236c-.154.142-.788.716-1.515 1.17Zm.286.281c.425-.47.892-.9 1.395-1.286.135-.086.213-.041.262.011.045.049.056.165-.037.233-.51.392-1.052.74-1.62 1.042Zm.244.293c.468-.437.974-.832 1.51-1.182.14-.075.214-.022.256.034.045.053.041.169-.053.229-.18.112-.911.585-1.713.919Zm.22.31a11.511 11.511 0 0 1 1.613-1.053c.15-.064.221-.007.259.049.037.06.022.172-.075.225-.578.308-1.18.57-1.8.78h.004Zm.203.36a11.824 11.824 0 0 1 1.718-.914c.153-.053.217.011.247.071.034.06.011.173-.097.218-.199.082-1.013.427-1.868.626Zm.158.346c.578-.309 1.18-.57 1.8-.78.157-.038.213.03.24.094.022.06-.012.172-.12.206-.207.071-1.05.349-1.92.48Zm.127.367a12.169 12.169 0 0 1 1.868-.633c.157-.023.21.045.229.112.018.064-.027.169-.14.199-.213.049-1.08.262-1.957.322Zm-5.055-3.225a9.468 9.468 0 0 1-.364-1.777c0-.146.087-.18.158-.188.075-.003.188.057.195.162.019.198.098 1.008.015 1.803h-.004Zm-.412.05a9.41 9.41 0 0 1-.537-1.74c-.014-.15.068-.188.14-.2.074-.01.187.038.21.143.117.592.18 1.193.187 1.796Zm-.413.082a9.707 9.707 0 0 1-.705-1.695c-.03-.147.049-.192.12-.21.072-.015.188.022.222.127.056.191.288.975.36 1.774l.003.004Zm-.394.112A9.902 9.902 0 0 1 9.47.938C9.428.795 9.5.743 9.567.72c.071-.022.191.008.233.105.075.188.382.953.524 1.74v.004Zm-.378.131a10.14 10.14 0 0 1-1.013-1.556c-.052-.139.015-.199.083-.225a.198.198 0 0 1 .24.09c.094.18.469.919.69 1.691Zm-.386.188c-.432-.454-.82-.946-1.163-1.47-.064-.131-.004-.195.06-.229a.2.2 0 0 1 .248.071c.112.173.562.874.855 1.628Zm-.353.202c-.471-.42-.904-.88-1.294-1.376-.078-.127-.026-.195.038-.236.056-.038.187-.038.251.052.128.162.641.825 1.005 1.557v.003Zm-.326.225c-.51-.381-.986-.807-1.421-1.27-.09-.12-.042-.188.015-.233a.206.206 0 0 1 .255.03c.142.15.72.776 1.15 1.473Zm-.319.263a11.213 11.213 0 0 1-1.537-1.151c-.105-.113-.064-.188-.012-.237a.206.206 0 0 1 .259.012c.158.138.788.712 1.29 1.372v.004Zm-.277.262a11.498 11.498 0 0 1-1.64-1.027c-.112-.105-.078-.18-.03-.233.046-.052.17-.078.26-.01.506.382.977.81 1.41 1.274V3.84Zm-.263.308a11.738 11.738 0 0 1-1.732-.893c-.124-.093-.098-.176-.057-.228.042-.057.162-.094.259-.034.18.116.911.581 1.53 1.155Zm-.236.33c-.833-.263-1.684-.66-1.815-.746-.135-.083-.113-.165-.079-.225s.15-.105.255-.053c.188.101.968.506 1.639 1.024Zm-.199.337c-.855-.198-1.736-.525-1.879-.6-.138-.075-.131-.157-.097-.217.03-.06.139-.116.247-.075.199.086 1.013.427 1.729.892Zm-.157.338A12.32 12.32 0 0 1 5.5 4.695c-.15-.06-.142-.146-.12-.206.026-.064.131-.127.24-.094.21.072 1.05.35 1.808.758Z"/><path fill="#F31509" d="M7.294 5.528a12.466 12.466 0 0 1-1.965-.293c-.154-.048-.162-.135-.143-.198.019-.064.116-.135.233-.113.21.053 1.08.263 1.875.604Z"/><path fill="currentColor" d="M4.852 5.307h14.295v.472H4.852v-.472Z"/></g><defs><clipPath id="a"><path fill="#fff" d="M0 0h24v18H0z"/></clipPath></defs></svg>