<svg xmlns="http://www.w3.org/2000/svg" width="24" height="18" fill="none"><g clip-path="url(#a)"><path fill="#CC0001" d="M0 0h24v18H0V0Z"/><path fill="#fff" d="M0 16.718h24V18H0v-1.282Z"/><path fill="#010066" d="M0 0h13.973v10.286H0V0Z"/><path fill="#FC0" d="M5.614 1.818A3.331 3.331 0 0 0 2.28 5.141a3.33 3.33 0 0 0 3.338 3.322 3.326 3.326 0 0 0 1.8-.525c-.312.106-.639.16-.968.158a2.951 2.951 0 0 1-2.955-2.944 2.951 2.951 0 0 1 3.983-2.764c-.55-.371-1.2-.57-1.864-.57Z"/><path fill="#FC0" d="m11.141 6.87-1.403-.73.413 1.5-.938-1.256-.292 1.526-.289-1.526-.941 1.252.42-1.5-1.41.732 1.05-1.174-1.594.06 1.463-.611-1.463-.62 1.594.065-1.043-1.174 1.403.731-.413-1.5.938 1.256.292-1.526.29 1.526.94-1.248-.42 1.496 1.41-.728-1.05 1.17 1.594-.06-1.462.615 1.462.619-1.594-.067 1.043 1.173Z"/></g><defs><clipPath id="a"><path fill="#fff" d="M0 0h24v18H0z"/></clipPath></defs></svg>