<svg xmlns="http://www.w3.org/2000/svg" width="24" height="18" fill="none"><g fill-rule="evenodd" clip-path="url(#a)" clip-rule="evenodd"><path fill="#009A00" d="M0 0h27v5.625H0V0Z"/><path fill="#fff" d="M0 5.625h27v.563H0v-.563Z"/><path fill="currentColor" d="M0 6.188h27v5.625H0V6.186Z"/><path fill="#fff" d="M0 11.813h27v.562H0v-.563Z"/><path fill="#FFCA00" d="M0 12.375h27V18H0v-5.625Z"/><path fill="red" d="M0 0v18l11.813-9L0 0Z"/><path fill="#FFCA00" d="m6.979 11.707-1.8-1.319-1.8 1.319.7-2.12-1.811-1.305L4.5 8.29l.679-2.123.682 2.127 2.232-.01-1.81 1.304.696 2.12Z"/><path fill="#fff" d="M3.614 10.227h1.301c.106.116.334.165.556 0 .407-.225 1.195 0 1.195 0l.155-.165-.377-1.238-.137-.147s-.292-.176-.844-.116c-.551.06-.745-.018-.745-.018s-.481.056-.619.127l-.154.154-.33 1.403Z"/><path fill="currentColor" d="M4.725 8.525a.02.02 0 0 0-.01-.001l.003.019-.002-.02h-.002l-.004.001a3.331 3.331 0 0 0-.072.01 6.109 6.109 0 0 0-.389.067.77.77 0 0 0-.163.055l-.155.154a.02.02 0 0 0-.005.01l-.33 1.402a.02.02 0 0 0 .019.024h1.291c.116.12.35.164.575-.003.198-.109.49-.11.738-.081a3.143 3.143 0 0 1 .407.074l.026.007.004.001h.002l.002.001a.02.02 0 0 0 .02-.005l.154-.165a.02.02 0 0 0 .005-.02l-.376-1.237a.02.02 0 0 0-.005-.007l-.137-.148a.02.02 0 0 0-.004-.003l-.01.016.01-.016h-.001a.278.278 0 0 0-.014-.008 1.11 1.11 0 0 0-.205-.075 1.782 1.782 0 0 0-.636-.036 2.85 2.85 0 0 1-.575.014.974.974 0 0 1-.16-.03Zm1.57.167a.356.356 0 0 0-.05-.024 1.073 1.073 0 0 0-.158-.053 1.744 1.744 0 0 0-.622-.035 2.85 2.85 0 0 1-.583.013 1.009 1.009 0 0 1-.166-.03h-.001c-.004 0-.009 0-.016.002a5.664 5.664 0 0 0-.44.074.761.761 0 0 0-.148.046l-.149.149-.324 1.373h1.277a.02.02 0 0 1 .014.007c.098.108.315.157.53-.003l.002-.001c.21-.116.514-.115.762-.087a3.188 3.188 0 0 1 .437.082l.139-.149-.372-1.222-.132-.142Z"/><path fill="currentColor" d="M4.931 10.233c.087.06.17.087.254.085a.497.497 0 0 0 .26-.095.673.673 0 0 0-.246-.178 1.05 1.05 0 0 0-.185.112.628.628 0 0 0-.083.076Zm.221-.208c-.067.034-.121.07-.162.101a.663.663 0 0 0-.07.062.21.21 0 0 0-.033.04.02.02 0 0 0 .006.025.464.464 0 0 0 .293.104.552.552 0 0 0 .299-.114.02.02 0 0 0 .004-.027.67.67 0 0 0-.244-.192l.03-.013c.237-.095.602-.167 1.128-.096a.02.02 0 0 0 .005-.038c-.532-.072-.904 0-1.147.098a1.322 1.322 0 0 0-.062.027 1.234 1.234 0 0 0-.12-.044 2.275 2.275 0 0 0-.537-.089 4.086 4.086 0 0 0-.663.018h-.003l.002.02-.003-.02a.02.02 0 0 0 .005.039l-.002-.02.002.02h.004a1.014 1.014 0 0 1 .05-.006 3.946 3.946 0 0 1 .606-.012 2.2 2.2 0 0 1 .527.087c.03.01.058.019.085.03Z"/><path fill="currentColor" d="m5.171 10.033.01-1.364h.043l-.01 1.364H5.17Zm1.347-.256-.232-1.086.042-.009.232 1.087-.042.008Zm-2.4-1.127a.02.02 0 0 1 .014.024l-.13.563a.02.02 0 0 1-.038-.01l.13-.562a.02.02 0 0 1 .024-.014Z"/><path fill="currentColor" d="m2.774 10.375.302.358c.035.021.07.021.102 0l.45-.541.19-.236a.133.133 0 0 0 .035-.105l.366-.327.077.007c-.035-.007-.06-.025-.035-.063l.084-.064.064.081s-.092.12-.102.12h-.099l-.19.172.085.07.123.345.155-.11-.099-.35.215-.236-.081-.127.056-.07s.749.47 1.04.344c.008 0 .018-.337.018-.337s-.78-.081-.798-.236c-.017-.154.176-.175.176-.175l-.084-.113.017-.063.137.168.306-.26 1.81 2.06c.1-.038.12-.063.127-.161L5.45 8.49l.134-.144c.028-.032.035-.042.035-.091l.211-.18a.257.257 0 0 1 .134.106l.576-.482c.014.014.06.028.092.014l.945-.91-1.03.727-.035-.024c0-.032.035-.035 0-.092-.042-.049-.102.046-.109.046-.01 0-.151-.05-.183-.112l-.007.165-.263.246-.2-.01-.29.28-.034.106.045.095s-.154.134-.154.127c0-.01-.032-.043-.035-.046l.133-.12.018-.08-.042-.07c-.015.01-.183.19-.194.168l-.492-.545.028-.102-.306-.334c-.112-.039-.292-.046-.327.2-.028.057-.26.008-.26.008l-.126.028-.718 1.009.398.478.815-1.03.025-.292.169.19c.06.007.112.01.165-.018l.482.538-.081.08.07.078.084-.056.032.046c-.039.02-.07.052-.109.074-.063-.043-.127-.095-.123-.176l-.27.225-.011.042-.805.668-.07.01-.018.211.524-.436v-.063l.052.046.408-.327s.028.035.018.035c-.01 0-.362.327-.362.327l-.007.035-.064.056-.035-.028-.492.436h-.07l-.271.271a.395.395 0 0 0-.19.053l-.485.429Z"/><path fill="currentColor" d="M7.591 6.79a.02.02 0 0 1-.001.026l-.946.911a.02.02 0 0 1-.005.004.125.125 0 0 1-.098-.007l-.566.471a.02.02 0 0 1-.029-.004.237.237 0 0 0-.113-.094l-.196.167c0 .02-.002.036-.008.05a.162.162 0 0 1-.031.045l-.123.131 1.76 2.023a.02.02 0 0 1 .006.014c-.004.05-.011.086-.034.114a.24.24 0 0 1-.105.064.02.02 0 0 1-.022-.005L5.282 8.654l-.291.248a.02.02 0 0 1-.028-.003l-.113-.14-.005.019.079.105a.02.02 0 0 1-.014.03.071.071 0 0 0-.007.002.273.273 0 0 0-.08.026.146.146 0 0 0-.055.047.116.116 0 0 0-.017.08c.002.011.01.025.032.041a.39.39 0 0 0 .088.045c.074.029.172.053.27.073a4.48 4.48 0 0 0 .383.058l.006.001h.002l-.002.02h.02v.015a17.257 17.257 0 0 1-.015.31.163.163 0 0 1-.003.018l-.003.005a.02.02 0 0 1-.01.007.496.496 0 0 1-.296 0 1.967 1.967 0 0 1-.348-.125 3.869 3.869 0 0 1-.398-.212l-.037.046.073.115a.02.02 0 0 1-.002.024l-.207.227.095.341a.02.02 0 0 1-.007.021l-.155.11a.02.02 0 0 1-.03-.01l-.12-.34-.08-.066a.02.02 0 0 1-.001-.03l.19-.172a.02.02 0 0 1 .012-.005h.093a1.118 1.118 0 0 0 .078-.093l.005-.007-.042-.054-.066.05a.034.034 0 0 0-.005.013V9.5c.004.004.012.01.03.013a.02.02 0 0 1-.006.038l-.07-.006-.352.315a.152.152 0 0 1-.04.11l-.19.235-.45.541a.022.022 0 0 1-.004.004.11.11 0 0 1-.127-.004l-.303-.358.015-.013-.013-.014.485-.429.003-.002a.401.401 0 0 1 .191-.055l.266-.266a.02.02 0 0 1 .014-.005h.063l.486-.431a.02.02 0 0 1 .025-.001l.023.018.046-.041.006-.029a.02.02 0 0 1 .006-.01l.013.014-.013-.014.015-.014.04-.037a33.234 33.234 0 0 1 .269-.246l-.362.29a.02.02 0 0 1-.025 0l-.021-.018v.021a.02.02 0 0 1-.007.015l-.524.436a.02.02 0 0 1-.031-.016l.017-.211a.02.02 0 0 1 .017-.018l.065-.01.796-.66.009-.036a.02.02 0 0 1 .006-.01l.27-.225a.02.02 0 0 1 .032.015c-.002.066.046.112.105.153a.546.546 0 0 0 .042-.03.656.656 0 0 1 .038-.027l-.009-.014-.068.046a.02.02 0 0 1-.025-.003l-.07-.077a.02.02 0 0 1 0-.027l.068-.068-.46-.513a.3.3 0 0 1-.162.013.02.02 0 0 1-.013-.007l-.138-.156-.021.247a.02.02 0 0 1-.004.01l-.816 1.03a.02.02 0 0 1-.03 0l-.397-.477a.02.02 0 0 1-.001-.024l.717-1.009a.02.02 0 0 1 .012-.007l.126-.029a.02.02 0 0 1 .008 0h.003a.73.73 0 0 0 .033.007.746.746 0 0 0 .081.01.42.42 0 0 0 .084.001.102.102 0 0 0 .028-.007.025.025 0 0 0 .009-.006v.005l.018.002-.017-.008-.001.001c.019-.125.075-.19.146-.218a.31.31 0 0 1 .206.007.02.02 0 0 1 .008.005l.306.334a.02.02 0 0 1 .004.018l-.025.092-.008-.008-.014.013.019.005.003-.01.477.529a.058.058 0 0 1-.005.003h-.001.001l.008.002a.016.016 0 0 1 .008.007.019.019 0 0 0-.003-.004l-.008-.008a4.537 4.537 0 0 0 .138-.128 3.54 3.54 0 0 1 .037-.035.02.02 0 0 1 .028.005l.022.036-.014.04h-.001l-.002.008-.025-.043a2.164 2.164 0 0 1 .013-.013l.002-.002-.011-.016-.017.01.013.02-.017.017a4.566 4.566 0 0 1-.128.12.163.163 0 0 1-.025.018.04.04 0 0 1-.014.005c-.003 0-.008 0-.012-.002a.022.022 0 0 1-.009-.007h.001l.014-.012-.017.008.002.004-.491-.544a.02.02 0 0 1-.005-.018l.026-.092.007.008.014-.013-.018-.005-.003.01-.295-.322.004.001.006-.018-.014.013.004.004a.269.269 0 0 0-.175-.006c-.055.021-.106.074-.122.192a.02.02 0 0 1-.002.006.057.057 0 0 1-.029.025.14.14 0 0 1-.039.01.456.456 0 0 1-.092 0 1.07 1.07 0 0 1-.118-.017h.004l-.004-.02-.004.02h.004m-.115.026.004-.006-.015-.012.004.02.007-.002Zm1.687.634v-.001.001Zm-.005.024a.02.02 0 0 1 0-.01l.005-.014-.005.024Zm.027.057-.026-.053a.02.02 0 0 1-.001-.004l-.01.042-.128.115a.02.02 0 0 0-.001.028.384.384 0 0 1 .03.035c0 .005.003.01.01.014a.02.02 0 0 0 .012.003.024.024 0 0 0 .008-.003 2.742 2.742 0 0 0 .15-.123l.006-.005-.012-.015.012.015a.02.02 0 0 0 .005-.024l-.042-.086.002-.01.029-.085.279-.272.192.01a.02.02 0 0 0 .014-.005l.264-.246a.02.02 0 0 0 .006-.013l.005-.116a.4.4 0 0 0 .073.047.578.578 0 0 0 .092.034.021.021 0 0 0 .01-.002.055.055 0 0 0 .009-.007l.008-.009a.453.453 0 0 1 .027-.027.058.058 0 0 1 .025-.014c.004-.001.009 0 .015.006a.08.08 0 0 1 .011.025v.011a.053.053 0 0 1-.005.009.203.203 0 0 0-.003.006.063.063 0 0 0-.007.029.02.02 0 0 0 .008.015l.035.025a.02.02 0 0 0 .022 0l.822-.58-.759.73a.073.073 0 0 1-.038.002.067.067 0 0 1-.029-.013.02.02 0 0 0-.026 0l-.56.467a.276.276 0 0 0-.132-.095.02.02 0 0 0-.018.003l-.211.18a.02.02 0 0 0-.007.014.117.117 0 0 1-.006.045.126.126 0 0 1-.024.034l.014.013-.014-.013-.134.144a.02.02 0 0 0 0 .026l1.766 2.03c-.003.043-.01.067-.024.084-.013.017-.036.03-.077.047L5.3 8.614a.02.02 0 0 0-.027-.002l-.291.248-.125-.154a.02.02 0 0 0-.033.007l-.018.064a.02.02 0 0 0 .003.016l.066.088a.302.302 0 0 0-.07.026.184.184 0 0 0-.068.06.155.155 0 0 0-.023.105c.003.028.023.05.047.068a.427.427 0 0 0 .097.05c.078.03.178.055.277.075a4.52 4.52 0 0 0 .376.058 40.857 40.857 0 0 1-.01.266.997.997 0 0 1-.004.038v.002a.478.478 0 0 1-.265-.005 1.93 1.93 0 0 1-.34-.123 3.839 3.839 0 0 1-.4-.214l-.007-.003-.001-.001-.01.016.01-.017a.02.02 0 0 0-.026.005l-.056.07a.02.02 0 0 0-.001.022l.072.114-.204.225a.02.02 0 0 0-.004.018l.094.339-.122.086-.115-.32a.02.02 0 0 0-.006-.009l-.067-.056.168-.152h.09a.022.022 0 0 0 .01-.002 1.154 1.154 0 0 0 .104-.12l.003-.004.001-.001a.02.02 0 0 0 0-.024l-.063-.08a.02.02 0 0 0-.027-.004l-.084.063a.02.02 0 0 0-.005.005.076.076 0 0 0-.013.034l.001.014h-.012a.02.02 0 0 0-.015.004l-.366.327a.02.02 0 0 0-.006.017.113.113 0 0 1-.03.09l-.19.236.014.013-.015-.012-.448.538c-.023.015-.049.015-.076 0l-.288-.342.47-.415a.379.379 0 0 1 .18-.049.02.02 0 0 0 .012-.006l.265-.265h.062a.02.02 0 0 0 .013-.004l.48-.426.022.018a.02.02 0 0 0 .025 0l.064-.057a.02.02 0 0 0 .006-.01l.005-.03.011-.009a40.814 40.814 0 0 1 .328-.298.351.351 0 0 1 .012-.01.021.021 0 0 0 .015-.016.026.026 0 0 0-.001-.015.246.246 0 0 0-.021-.034h-.001v-.001h-.002.001a.02.02 0 0 0-.027-.003l-.395.317-.04-.036a.02.02 0 0 0-.033.015v.054l-.481.4.012-.149.056-.008a.02.02 0 0 0 .01-.004l.804-.668a.02.02 0 0 0 .007-.01l.009-.037.237-.197c.014.07.075.118.128.153a.02.02 0 0 0 .02.001.47.47 0 0 0 .057-.038.439.439 0 0 1 .052-.036.02.02 0 0 0 .007-.027l-.032-.046a.02.02 0 0 0-.026-.005l-.07.047-.047-.052.067-.067a.02.02 0 0 0 .001-.027l-.482-.538a.02.02 0 0 0-.023-.004c-.045.024-.09.023-.147.016l-.163-.184a.02.02 0 0 0-.034.011l-.024.286-.798 1.007-.372-.448-.009.012-.015-.012.014-.012.01.012m.372.448-.014.019.015.012.015-.013-.016-.018Zm.798-1.007v.006l.018.002-.015-.013-.003.005ZM4.41 7.8h-.007l-.002.019.014-.013L4.41 7.8Zm.584.62-.013-.013-.014.013.013.013.014-.013Zm.046.052-.014.009.011.016.014-.013-.01-.012Zm-.135-.049.028-.024-.012-.014-.02-.001c0 .014.001.027.004.04Zm-.237.197.001-.006-.019-.004.013.014.005-.004Zm-.886.727.002-.015-.02-.002.003.02.015-.003Zm-.012.15-.035.03.012.014.02.002.003-.046Zm.481-.4v.008h.02l-.013-.015-.007.006Zm.073-.034-.013.01.012.015.013-.015-.012-.01Zm.432-.249h.001c0-.001 0 0 0 0a.017.017 0 0 1-.008.001h.007Zm-.474.397.012-.01-.013-.015-.012.015.013.01Zm-.555.43.005-.005-.013-.014v.02h.008Zm-.457.32.001-.001-.013-.015.01.017.002-.001Zm-.182.757-.003-.002-.01.017.015-.013-.002-.002Zm.076 0-.002.003.015.012-.01-.016-.003.001Zm1.068-1.213a.045.045 0 0 0 .008.017c.012.017.033.024.052.028l.003-.02.002-.019-.065-.006Zm-.017.119.005-.005-.013-.015v.02h.008Zm-.168.152-.017-.014-.012.015.013.014.016-.015Zm.188.385-.021.015.011.016.018-.007-.008-.024Zm.122-.086.004.013.019-.005-.011-.016-.012.008Zm.114-.582.008.013.017-.01-.015-.014-.01.011Zm1.033.133a.02.02 0 0 0-.01.01l.001-.007a.201.201 0 0 0 .009-.003Zm0 0Zm-.597-.732-.015.012-.019-.025a.313.313 0 0 1 .031-.006l.003.02Zm.073-.034-.015.013.012.014.015-.012-.012-.015Zm2.12 1.804-.013.005.007.018.014-.012-.009-.01Zm.1-.132.006.006.014-.012-.019-.002v.008Zm-1.234-2.38-.017.014.013.015.016-.01a.277.277 0 0 0-.012-.019Zm.653-.455-.003.002.014.014-.008-.018-.003.002Zm-.124-.271.015-.012-.016.01v.002Zm-.26-.028.003-.05h-.02l-.017.008a.14.14 0 0 0 .035.042Zm-.48.37.006-.006-.014-.014v.02h.008Zm-.28.272.002-.004-.018-.007.013.014.004-.003Zm-.03.094v.001l-.013.06v.001l.014.029-.013.011a8.16 8.16 0 0 1-.111.093.222.222 0 0 0-.015-.017l.12-.106a.02.02 0 0 0 .005-.01m-.11.133a.304.304 0 0 1-.014.01l.004-.001a.02.02 0 0 1 .022.019.031.031 0 0 0-.003-.014.067.067 0 0 0-.01-.014Zm-.015-.017-.014.013-.013-.014.013-.014a.07.07 0 0 1 .014.015Zm.138-.178.002-.008.003-.012a.02.02 0 0 0-.003-.014l-.02-.034.014-.043a.02.02 0 0 1 .004-.007l.289-.282a.02.02 0 0 1 .014-.005l.192.01-.006.006.014.014v-.02H5.94l.252-.235v.008h.02L6.198 7.5l-.006.005.007-.157a.02.02 0 0 1 .037-.008.118.118 0 0 0 .034.037.542.542 0 0 0 .125.062.136.136 0 0 1-.003.005l-.001.001.002-.001a.018.018 0 0 1 .01-.002.09.09 0 0 1-.006-.002h-.001l.002-.003.003-.003a.283.283 0 0 1 .03-.03.095.095 0 0 1 .042-.021.054.054 0 0 1 .054.022.12.12 0 0 1 .017.04.058.058 0 0 1-.003.032.088.088 0 0 1-.004.01l-.002.004-.002.004-.002.003-.01-.007-.01.016h.019l.001-.01.014.01-.01.008.01.016.011-.016-.01-.007 1.018-.72a.02.02 0 0 1 .026.003M5.447 8.225l.004-.004.007-.006.013.015-.018.008-.006-.013Zm-.15.134v-.003.003Zm.1-.178-.002.006.02.004-.014-.014-.004.004Zm.133 1.125h.02a.02.02 0 0 0-.018-.02l-.002.02Z"/></g><defs><clipPath id="a"><path fill="#fff" d="M0 0h24v18H0z"/></clipPath></defs></svg>