<svg xmlns="http://www.w3.org/2000/svg" width="24" height="18" fill="none"><g fill-rule="evenodd" clip-path="url(#a)" clip-rule="evenodd"><path fill="#fff" d="M0 0h24v18H0V0Z"/><path fill="#3662A2" d="m-.99.007.03 12.96L19.22 0-.99.007Z"/><path fill="#38A100" d="m24.99 17.985-.052-13.473L4.586 17.993l20.4-.008h.004Z"/><path fill="#C70000" d="M-.975 13.943-.96 18l4.406-.003L24.952 3.578 24.926.049l-4.35-.037L-.975 13.939v.004Z"/><path fill="#FFE700" d="m8.235 6.45-.817-.495-.473.83-.457-.833-.825.483.022-.952-.952.007.495-.817-.83-.469.833-.461-.48-.825.953.022-.004-.956.814.495.472-.829.458.833.825-.484-.023.953.953-.008-.495.818.829.468-.833.462.48.825-.952-.023.007.956Z"/><path fill="#3662A2" d="M8.716 4.215c0 .96-.784 1.736-1.748 1.736a1.742 1.742 0 0 1-1.747-1.736c0-.96.78-1.733 1.747-1.733a1.74 1.74 0 0 1 1.748 1.733Z"/><path fill="#FFE700" d="M8.336 4.214a1.369 1.369 0 1 1-2.737 0 1.369 1.369 0 0 1 2.737 0Z"/></g><defs><clipPath id="a"><path fill="#fff" d="M0 0h24v18H0z"/></clipPath></defs></svg>