<svg xmlns="http://www.w3.org/2000/svg" width="24" height="18" fill="none"><g clip-path="url(#a)"><path fill="#009543" d="M0 0h24v18H0V0Z"/><path fill="#ED4135" d="M0 0h24v12H0V0Z"/><path fill="#0035AD" d="M0 0h24v6H0V0Z"/><path fill="#FAE600" d="M9 14.9A5.899 5.899 0 1 0 9 3.1a5.899 5.899 0 0 0 0 11.8Z"/><path fill="currentColor" fill-rule="evenodd" d="M9 3.2a5.8 5.8 0 1 0 0 11.6A5.8 5.8 0 0 0 9 3.2ZM3.002 9a5.998 5.998 0 1 1 11.996 0A5.998 5.998 0 0 1 3.002 9Z" clip-rule="evenodd"/><path fill="currentColor" d="M7.999 9.881h1.999-1.999Zm0-1.48h1.999-1.999ZM9 3.12V13.2 3.12Z"/><path fill="currentColor" fill-rule="evenodd" d="M8.88 8.28V3.12h.24v5.16h.878v.24H9.12v1.241h.878v.24H9.12v3.2h-.24V10H8v-.24h.881V8.52H8v-.24h.881Z" clip-rule="evenodd"/><path fill="currentColor" d="M6.623 14.415c2.408.986 4.665.064 4.665.064s-.851-.923-1.286-1.283c-.428-.352-1.68-.337-2.108 0a18.31 18.31 0 0 0-1.271 1.219ZM9 12.679c.364 0 .66-.43.66-.96s-.296-.96-.66-.96c-.365 0-.66.43-.66.96s.295.96.66.96Zm0-3.035c.441 0 .799-.226.799-.506s-.358-.506-.8-.506c-.44 0-.798.226-.798.506s.358.506.799.506Zm0-2.046A.799.799 0 1 0 9 6a.799.799 0 0 0 0 1.598Zm.96-3.777s.067.113-.075.375c-.698 1.256-1.4 1.283-1.53 1.391-.15.12-.21.113-.21.113.01-.109.018-.548.026-.589.109-.589.994-.581 1.687-1.181.109-.094.102-.113.102-.113v.004Z"/><path fill="currentColor" d="M7.62 6.52s.16.449.18.9c.04.72.728.74 1.2.74v-.4c-.356 0-.664-.051-.92-.58a4.6 4.6 0 0 0-.46-.66Zm-.02 5.8s.252-.312.548-1.04a.95.95 0 0 1 .852-.6v-.56c-.76 0-1.128.28-1.164.697-.08.844-.236 1.503-.236 1.503Z"/></g><defs><clipPath id="a"><path fill="#fff" d="M0 0h24v18H0z"/></clipPath></defs></svg>