<svg xmlns="http://www.w3.org/2000/svg" width="24" height="18" fill="none"><g fill-rule="evenodd" clip-path="url(#a)" clip-rule="evenodd"><path fill="#fff" d="M7.306 0h9.39v18h-9.39V0Z"/><path fill="#198200" d="M0 0h7.305v18H0V0Zm16.695 0H24v18h-7.305V0Zm-4.939 13.173v1.973l.799.007s-.255-1.717-.117-1.95c.14-.225.27-.195.27-.195s.522.158.578.132c.056-.023-.008-.196.27-.173.09-.034.041-.188.124-.195.082-.011 1.668.442 2.013.015-.09-.24-.4-.019-.483-.008-.075 0-.387-.15-.567 0-.165-.123-.915-.206-.915-.206-.097-.097 1.785.049 1.894-.026.221-.221-.412-.195-.51-.124a.555.555 0 0 0-.532-.022c-.064-.154-.675-.09-1.013-.131-.112-.064-.094-.102-.019-.143.713.03 1.418.124 2.13.094.192-.252-.243-.349-.51-.132-.157-.262-.476-.01-.69-.037-.213-.022-.112-.285.158-.244.27.038.754-.015.844-.139.09-.123-.053-.25-.5-.13-.15-.15-.487 0-.64.048-.21-.116-.694-.019-.855.023-.162-.098.843-.263.843-.263.39-.008.612-.075.732-.105.588-.315-.008-.349-.315-.12-.192-.15-.375.011-.548.068-.162.054-.332.08-.502.075 0-.023.472-.312.472-.312s.574-.041.69-.056c.113-.019.705-.319-.101-.116-.278.022-.443.007-.551.015-.62-.064.06-.124.06-.124s.877-.079.888-.124c.015-.337-.716-.18-.723-.18 0-.244-.683.008-.683 0-.131-.075.075-.154.075-.154.18-.045.45-.06.521-.116 0 0 .51-.004.57-.139-.123-.348-1.08.06-1.207.12-.173 0 .112-.277.124-.285.007-.01.787-.04 1.158-.543.027-.304-.435.172-.435.172-.037-.397-.502.026-.772.056-.274.038-.281-.123-.094-.15.188-.022.405-.003.51-.292.109-.289.428.015.488-.09.056-.109-.117-.199-.117-.199s.24-.247-.15-.236c-.382.007-.885-.053-.885-.053s.402-.153.78-.15c.375.012.173-.266-.187-.266-.364 0-.551-.124-.551-.124l.615-.232-.038-.173s.36-.288-.15-.22l-.57.074-1.027.154c-.008 0-.278-.083-.015-.15.262-.068 1.192-.251 1.33-.203.14.05-.014-.345-.51-.393-.49-.049-.798.123-.798.123s-.319-.116-.022-.213c.296-.102.765.033.765.033s.525-.157.09-.225c-.435-.063-.574.06-.773.068-.079-.101.683-.124.731-.206-.082-.15-.555 0-.832 0-.113-.05-.124-.132.011-.18.281-.012.548.003.829-.008-.008-.15 0-.326-.008-.48-.36-.064-.78.049-.978.038.052-.162.825-.207.91-.252.18-.225-.753 0-.764 0-.161-.022-.15-.127-.049-.187.24-.026.773.037.735-.128-.03-.15-.375-.07-.51-.037-.142.034-.349.007-.349.007-.086-.12.807-.07.8-.165-.012-.105-.567-.03-.758-.022-.147-.101.712-.169.723-.18.034-.274-.573 0-.69 0-.112 0-.056-.173-.056-.173s.236-.108.229-.123a.825.825 0 0 0-.195-.075c-.019 0 0-.188 0-.188s.195-.15.18-.191c-.019-.041-.233.034-.233.034V3.88s.158-.015.173-.09c.019-.075-.188-.083-.188-.083l-.082-.862-.075.806-.27.037s.187.11.225.218c.03.105-.233.075-.233.075s.214.18.23.244c.018.067-.297.082-.297.082s.262.188.281.296c.015.105 0 .165 0 .165s-.435-.378-.712-.273c-.15.075.33.112.645.386 0 .064-.77-.188-.795-.03.015.041.82.157.877.262-.292.012-.9-.063-.877.034-.064.113.57.049.836.139.079.09.071.165-.064.172-.259-.123-.829-.213-.832-.056.003.038.592.015.806.154-.285.067-1.253-.131-1.256-.038.026.05.18.244.442.237.263-.008.874.105.915.187.038.083-.791-.172-1.102-.022-.315.15.896.056 1.09.236.2.184-.393-.015-.393-.015s-.825-.113-.945-.056a1.203 1.203 0 0 0-.262.187s.082.165.165.131c.082-.033-.027.102-.027.102s1.152.277 1.407.525c.255.247-1.463-.387-1.463-.387s-.694.255.038.27c-.083.124.045.2.045.2s1.215.254 1.338.45c.124.198-.828-.188-1.046-.297-.214-.105-.821.067-.814.109.012.037.3.097.304.172.011.075-.352.098-.352.165 0 .064 1.537.386 1.95.731.412.345-1.208-.412-1.208-.412s.09.124 0 .157c-.094.034-.412-.46-.937-.157-.098.127.457.225.6.24-.05.124-.09.165.105.289.195.123-.387-.18-.387-.165l.042.213c-.18-.15-.402-.19-.608-.04 0 0-.007.15.206.24-.116.235.132.16.525.385-.585-.153-.633.132-.213.195.42.064 1.57.11 1.84.462.275.352-.385-.135-.46-.15-.015.01-.03.183-.03.183-.177-.1-.338-.195-.548-.236-.019.034-.011.079-.03.113-.187-.139-.356-.233-.634-.248l-.033.131s-.23-.288-.683 0c-.251.184.956.068 1.151.282.2.213.042.247.042.247l-.492-.184s-.585-.105-.75.027c-.165.131 2.4.45 2.475.806.053.188-.6-.202-1.166-.371l-.067.187s-.225-.225-.477-.262c-.007 0 .05.225.05.225s-.63-.3-.953-.143c-.32.158 1.117.24 1.248.386.132.15-.435-.097-.487 0-.045.102-.746-.18-.735-.048a.308.308 0 0 0 .097.206s1.455.139 1.504.311c.049.173-.806-.097-.806-.097s-.083.123-.015.18c.064.06-.495-.327-.443-.075-.183-.072-.652-.293-.585-.12.064.172 1.324.42 1.324.42s-.551.037-.525.18c-.712-.431-.694-.158-.675-.15.015.007-.915-.229-.214.15.702.379.375.311.387.319.007.007.075.187.056.187-.015 0-.476-.244-.634-.263-.154-.014-.896.207-.105.556.791.348 1.275-.083 1.71-.038.435.053.638.128.6.263-.041.142-.446-.454-.87.063-.487-.097-.814-.15-.562.203-.788-.296-1.275.09-.278.247.975.03 1.575-.24 1.575-.24s.169.304.405.09c.24-.213.248.083.255.083l.233-.098h.056Z"/><path fill="currentColor" d="M12.101 2.833c.007 0 .013.005.013.012l.082.851a.712.712 0 0 1 .091.013.216.216 0 0 1 .07.027c.01.006.018.014.023.024a.05.05 0 0 1 .004.034.088.088 0 0 1-.039.054.23.23 0 0 1-.062.029.434.434 0 0 1-.071.016v.135a.931.931 0 0 1 .174-.04.09.09 0 0 1 .033.001c.01.003.02.007.024.018s0 .022-.003.031a.157.157 0 0 1-.02.03.65.65 0 0 1-.064.065 1.684 1.684 0 0 1-.088.074l-.004.004v.002l-.002.021a1.972 1.972 0 0 0-.006.127.11.11 0 0 0 .002.018.839.839 0 0 1 .2.081.015.015 0 0 1 0 .012.02.02 0 0 1-.003.006.268.268 0 0 1-.035.025 1.497 1.497 0 0 1-.16.082c-.011.005-.02.01-.027.012a.174.174 0 0 0-.005.002v.002a.417.417 0 0 0-.011.075.1.1 0 0 0 .011.052c.008.012.022.021.046.021a.293.293 0 0 0 .06-.01l.098-.028.013-.004c.07-.02.15-.044.227-.06a.541.541 0 0 1 .217-.013c.03.007.054.02.07.042a.12.12 0 0 1 .018.088.013.013 0 0 1-.004.008l-.004.002-.002.001-.004.001a.257.257 0 0 0-.706.124.062.062 0 0 0-.018.014l-.003.006c0 .002.003.005.008.01l.162-.013a13.592 13.592 0 0 1 .28-.019 1.35 1.35 0 0 1 .217.005c.029.004.054.01.072.019.018.008.033.022.036.041a.034.034 0 0 1-.014.028.104.104 0 0 1-.031.015.569.569 0 0 1-.1.02 4.496 4.496 0 0 1-.296.025 2.617 2.617 0 0 0-.28.029.235.235 0 0 0-.074.023c-.007.005-.01.008-.01.01v.005a1.988 1.988 0 0 0 .114.008c.07.002.155 0 .224-.016m1.77 3.213a2.118 2.118 0 0 0-.529.073 2.811 2.811 0 0 0-.193.057 14.222 14.222 0 0 0 .242.023c.173.014.394.027.584.023.099-.003.16.01.196.035.018.012.03.027.036.044a.097.097 0 0 1 .003.05.239.239 0 0 1-.042.09.404.404 0 0 1-.022.027.406.406 0 0 1 .068.053c.037.037.072.093.04.155a.057.057 0 0 1-.044.03.157.157 0 0 1-.057-.005.845.845 0 0 1-.067-.02l-.004-.001a1.326 1.326 0 0 0-.069-.02.266.266 0 0 0-.141-.008c-.042.012-.08.044-.105.113-.054.148-.137.218-.232.254a.624.624 0 0 1-.145.032 2.376 2.376 0 0 1-.073.008h-.002l-.069.007a.19.19 0 0 0-.096.037c-.019.016-.023.032-.02.045.005.013.02.029.055.038.034.01.084.013.151.004a.804.804 0 0 0 .226-.076l.076-.036c.058-.028.115-.055.169-.076.077-.03.151-.048.209-.031a.13.13 0 0 1 .073.056.24.24 0 0 1 .032.09 2.395 2.395 0 0 1 .21-.181.642.642 0 0 1 .083-.052.194.194 0 0 1 .074-.024c.024-.001.045.006.058.027.012.02.016.05.013.088a.013.013 0 0 1-.003.007c-.188.255-.479.389-.722.46a2.373 2.373 0 0 1-.313.07l-.092.013h-.004a1.046 1.046 0 0 0-.031.004l-.003.003a.625.625 0 0 0-.043.043 1.024 1.024 0 0 0-.081.096.397.397 0 0 0-.032.05.116.116 0 0 0-.014.04c0 .01.002.016.006.02.005.004.015.008.033.009a3.75 3.75 0 0 1 .605-.213c.136-.033.273-.054.384-.044.111.01.2.051.234.145a.013.013 0 0 1 0 .01.123.123 0 0 1-.047.05.336.336 0 0 1-.075.036c-.058.02-.128.033-.196.042a2.272 2.272 0 0 1-.242.018h-.018a.28.28 0 0 1-.087.036 1.55 1.55 0 0 1-.135.027l-.074.012a2.705 2.705 0 0 0-.226.041v.001l-.007.002a.445.445 0 0 0-.075.044c-.017.014-.027.028-.027.04 0 .01.005.024.033.041h.002a.697.697 0 0 0 .021-.007l.012-.003.065-.02c.065-.019.15-.042.236-.058a.743.743 0 0 1 .24-.013.167.167 0 0 1 .083.035c.019.016.03.037.033.064a1.738 1.738 0 0 1 .358-.034.621.621 0 0 1 .254.047.21.21 0 0 1 .084.07c.02.031.03.069.029.113v.002a.022.022 0 0 1-.009.012.054.054 0 0 1-.01.006 1.275 1.275 0 0 1-.135.03 6.774 6.774 0 0 1-.306.041c-.11.013-.221.024-.304.032l-.1.01-.02.002-.017.002-.001-.014.001.013h-.002l-.005.001-.02.002a1.525 1.525 0 0 0-.232.035.176.176 0 0 0-.046.016.25.25 0 0 0 .071.02c.04.008.097.016.173.024a2.1 2.1 0 0 1 .212-.002c.09 0 .2-.002.337-.013.2-.05.316-.07.374-.07.014 0 .026.001.035.004.01.003.018.008.022.018a.03.03 0 0 1-.005.025.104.104 0 0 1-.02.021.784.784 0 0 1-.152.089.732.732 0 0 1-.148.055 12.27 12.27 0 0 1-.39.034 61.485 61.485 0 0 1-.277.02l-.021.002-.003.002-.015.01a13.246 13.246 0 0 0-.427.274 1.42 1.42 0 0 0 .466-.075c.041-.013.083-.032.126-.052l.004-.002c.045-.021.09-.042.137-.057a.296.296 0 0 1 .285.04.809.809 0 0 1 .258-.118.604.604 0 0 1 .238-.022c.03.005.054.014.069.031a.05.05 0 0 1 .013.031.072.072 0 0 1-.009.037.274.274 0 0 1-.078.083 1.229 1.229 0 0 1-.173.107 2.753 2.753 0 0 1-.733.105h-.002l-.008.002a2.753 2.753 0 0 0-.143.026c-.092.017-.212.04-.328.067a2.16 2.16 0 0 0-.295.085.4.4 0 0 0-.045.02.1.1 0 0 0-.024.02c-.005.005-.005.007-.004.008 0 .001.001.004.006.008a2.79 2.79 0 0 1 .406-.07c.084-.007.17-.01.249-.003a.53.53 0 0 1 .2.05l.065-.022c.072-.025.162-.057.252-.075.12-.025.245-.027.326.048.22-.058.368-.057.452-.023.042.017.07.043.078.076.01.032 0 .068-.024.1a.29.29 0 0 1-.139.084 1.15 1.15 0 0 1-.225.052 1.91 1.91 0 0 1-.493.009c-.13-.02-.217.034-.246.09-.015.03-.015.058-.002.08.014.023.043.042.094.047a.485.485 0 0 0 .171-.02c.024-.005.048-.012.072-.019.04-.01.08-.022.12-.03a.418.418 0 0 1 .185-.006.238.238 0 0 1 .144.106.533.533 0 0 1 .426-.103c.061.015.11.045.131.092.02.047.01.105-.04.17a.013.013 0 0 1-.01.005c-.47.02-.938-.014-1.406-.048a23.81 23.81 0 0 0-.721-.045.18.18 0 0 0-.039.027c-.009.009-.012.016-.012.022 0 .007.003.015.015.027a.26.26 0 0 0 .056.04c.109.013.245.016.383.018.075.001.15.002.222.005.101.004.196.012.268.029a.36.36 0 0 1 .093.033c.02.01.037.025.048.042a.567.567 0 0 1 .526.024.232.232 0 0 1 .056-.021 1.114 1.114 0 0 1 .32-.024c.036.003.07.008.1.017a.17.17 0 0 1 .07.035.066.066 0 0 1 .023.063.159.159 0 0 1-.051.08.068.068 0 0 1-.02.008.804.804 0 0 1-.104.013c-.062.004-.144.004-.24.004a31.351 31.351 0 0 1-.603-.016l-.065-.002a18.21 18.21 0 0 0-.63-.013 1.756 1.756 0 0 0-.21.012h.005a7.605 7.605 0 0 1 .364.053c.104.018.213.04.308.066.087.023.163.05.208.08.094-.072.218-.07.325-.052a1.547 1.547 0 0 1 .207.05.18.18 0 0 0 .034.006.187.187 0 0 0 .037-.012l.047-.02.01-.005c.042-.018.092-.04.143-.053a.28.28 0 0 1 .15-.006c.047.014.086.048.11.112.002.004 0 .009-.002.013-.09.11-.259.163-.458.18-.2.019-.434.002-.66-.027a8.45 8.45 0 0 1-.608-.106l-.105-.022-.1-.02a1.623 1.623 0 0 0-.091-.016.04.04 0 0 0-.032.022c-.007.014-.011.033-.016.056a.292.292 0 0 1-.02.067.095.095 0 0 1-.053.05h-.006a.328.328 0 0 0-.145.014.116.116 0 0 0-.06.05.225.225 0 0 0-.02.05l-.004.01a.136.136 0 0 1-.012.028.047.047 0 0 1-.043.024l-.027-.001a.783.783 0 0 1-.074-.012 3.282 3.282 0 0 1-.197-.046 8.167 8.167 0 0 1-.246-.07l-.016-.004-.005-.001-.005-.001a.168.168 0 0 0-.07.013.414.414 0 0 0-.181.176.384.384 0 0 0-.033.145 2.285 2.285 0 0 0-.005.251c.004.193.023.43.046.659a21.04 21.04 0 0 0 .1.813l.007.054a.428.428 0 0 1 .002.015l.001.005-.013.002.013-.002c0 .004 0 .007-.003.01a.014.014 0 0 1-.01.005l-.799-.008a.013.013 0 0 1-.013-.013v-1.96h-.04l-.23.097-.003.001h-.003a.014.014 0 0 1-.01-.005l-.002-.004-.002-.004-.002-.01v-.003l-.006-.027a.217.217 0 0 0-.029-.074.07.07 0 0 0-.063-.033c-.03.002-.072.022-.132.074a.27.27 0 0 1-.171.08.226.226 0 0 1-.136-.043.397.397 0 0 1-.11-.117l-.002-.003a1.15 1.15 0 0 1-.1.038 3.193 3.193 0 0 1-.313.09 4.488 4.488 0 0 1-1.157.109H9.23c-.25-.04-.408-.094-.493-.15-.042-.027-.068-.056-.075-.086-.008-.031.005-.06.031-.081a.28.28 0 0 1 .117-.05.785.785 0 0 1 .184-.015c.134.002.3.03.482.095a.581.581 0 0 1-.046-.082.189.189 0 0 1-.02-.087.081.081 0 0 1 .03-.06.153.153 0 0 1 .072-.028.836.836 0 0 1 .233.009c.094.012.204.034.322.057a.546.546 0 0 1 .312-.207.476.476 0 0 1 .277.037 1.266 1.266 0 0 1 .2.107.18.18 0 0 0 .056.023c.006 0 .01 0 .011-.002.002 0 .005-.004.007-.01a.085.085 0 0 0-.015-.08.243.243 0 0 0-.1-.067 1.938 1.938 0 0 0-.474-.1.998.998 0 0 0-.335.036l-.144.037c-.076.02-.155.042-.238.06a1.53 1.53 0 0 1-.997-.096c-.198-.087-.303-.168-.345-.242a.14.14 0 0 1-.017-.106.182.182 0 0 1 .057-.088.593.593 0 0 1 .22-.112.601.601 0 0 1 .197-.032.772.772 0 0 1 .167.05c.066.025.139.058.207.09l.174.082.007.003.058.028.008.004-.001-.007a.671.671 0 0 0-.042-.125.554.554 0 0 0-.015-.035.013.013 0 0 1 .012-.016h.011l.023.001a.053.053 0 0 0 .019-.003v-.001c0-.004-.005-.013-.02-.027a.599.599 0 0 0-.071-.056 4.045 4.045 0 0 0-.353-.207 1.9 1.9 0 0 1-.193-.116.41.41 0 0 1-.05-.04.099.099 0 0 1-.024-.033c-.004-.012-.003-.023.005-.033a.053.053 0 0 1 .028-.015.32.32 0 0 1 .09-.002c.073.005.166.022.24.038.038.007.07.014.093.02l.011.002c0-.008.001-.018.004-.027.009-.025.031-.05.076-.058a.426.426 0 0 1 .21.033c.096.034.223.095.392.196a.078.078 0 0 1 .018-.034.189.189 0 0 1 .06-.043.81.81 0 0 1 .185-.056c.066-.014.134-.023.186-.029a12.333 12.333 0 0 1-.553-.127 4.806 4.806 0 0 1-.453-.137 1.122 1.122 0 0 1-.16-.072.316.316 0 0 1-.053-.036.1.1 0 0 1-.029-.038c-.008-.023-.01-.044 0-.06.01-.015.03-.02.049-.022.04-.003.1.012.166.033.091.03.197.074.285.11l.082.034a.078.078 0 0 1 .012-.054c.013-.019.036-.025.06-.025s.052.006.082.016c.03.01.061.023.093.037.063.03.125.064.168.088l.008.005a.144.144 0 0 1 .005-.087.314.314 0 0 1 .033-.07l.001-.002.011.007.004-.012h.003l.007.003a6.78 6.78 0 0 0 .41.11c.104.023.205.04.277.041a.188.188 0 0 0 .08-.01.052.052 0 0 0 .013-.013c.002-.004.002-.01 0-.018-.002-.007-.008-.015-.02-.025a.254.254 0 0 0-.052-.03 1.118 1.118 0 0 0-.174-.057 5.406 5.406 0 0 0-.514-.099 14.175 14.175 0 0 0-.716-.089l-.012-.001h-.004v-.014.013a.014.014 0 0 1-.008-.003h.001-.001l-.002-.002-.002-.002a.325.325 0 0 1-.098-.211c0-.011.002-.021.01-.03a.054.054 0 0 1 .026-.015.239.239 0 0 1 .082-.002c.066.006.155.026.245.046l.019.005c.083.02.166.038.233.047a.4.4 0 0 0 .087.005c.023-.002.032-.008.034-.013v-.001c.01-.018.03-.026.052-.029a.322.322 0 0 1 .079.002c.056.007.125.023.189.038l.008.002a.96.96 0 0 0 .159.03l.017-.002.002-.001-.001-.005a.099.099 0 0 0-.015-.02.116.116 0 0 0-.035-.024.489.489 0 0 0-.064-.025 1.928 1.928 0 0 0-.19-.047c-.108-.023-.234-.044-.36-.066a37.446 37.446 0 0 1-.137-.023 3.089 3.089 0 0 1-.415-.092.352.352 0 0 1-.059-.025.084.084 0 0 1-.034-.032.036.036 0 0 1-.004-.02c0-.008.004-.014.009-.02a.123.123 0 0 1 .044-.033.593.593 0 0 1 .292-.046c.105.006.215.03.315.057a2.534 2.534 0 0 1 .33.118l.002.002-.002-.009a7.13 7.13 0 0 1-.04-.182.06.06 0 0 1-.001-.008v-.006l.003-.005a.013.013 0 0 1 .01-.005h.003c.128.02.25.086.338.148a1.279 1.279 0 0 1 .13.104l.061-.168a.013.013 0 0 1 .016-.008c.228.067.47.171.674.258.05.022.098.043.143.061.114.048.207.084.268.096a.207.207 0 0 0 .038.005.05.05 0 0 0 .022-.004.012.012 0 0 0 .007-.008.044.044 0 0 0-.002-.021.122.122 0 0 0-.038-.06.45.45 0 0 0-.09-.064 1.826 1.826 0 0 0-.305-.125 9.926 9.926 0 0 0-.885-.23l-.325-.07a20.348 20.348 0 0 1-.516-.117 2.085 2.085 0 0 1-.252-.074.193.193 0 0 1-.06-.034.033.033 0 0 1-.012-.023c0-.01.006-.018.013-.023a.388.388 0 0 1 .193-.062c.08-.01.169-.008.252-.003a2.966 2.966 0 0 1 .313.036h.002l-.002.013.002-.013h.002l.488.183h.001a.08.08 0 0 0 .013-.006.06.06 0 0 0 .027-.029c.011-.027.006-.083-.093-.19a.267.267 0 0 0-.11-.062 1.106 1.106 0 0 0-.18-.042 5.232 5.232 0 0 0-.443-.044h-.001a2.987 2.987 0 0 1-.364-.038.288.288 0 0 1-.053-.016.072.072 0 0 1-.032-.025.037.037 0 0 1 0-.038.114.114 0 0 1 .034-.036c.23-.146.405-.147.523-.11a.417.417 0 0 1 .16.094l.028-.108a.013.013 0 0 1 .013-.01c.275.015.444.107.628.24a.233.233 0 0 0 .008-.037v-.001a.173.173 0 0 1 .016-.06.013.013 0 0 1 .014-.006c.205.04.364.13.534.227v-.007a2.92 2.92 0 0 1 .017-.124.22.22 0 0 1 .01-.033.024.024 0 0 1 .006-.008.013.013 0 0 1 .01-.003.62.62 0 0 1 .056.027c.026.014.057.033.091.054l.038.024c.059.037.124.077.18.11a1.046 1.046 0 0 0 .127.06c.01.003.016.003.02.003 0-.002 0-.007-.003-.015a.446.446 0 0 0-.06-.092c-.065-.085-.185-.153-.337-.207a3.123 3.123 0 0 0-.52-.127 9.526 9.526 0 0 0-.548-.073l-.111-.012a8.095 8.095 0 0 1-.317-.037.536.536 0 0 1-.232-.082.145.145 0 0 1-.05-.056.067.067 0 0 1 .002-.06.108.108 0 0 1 .055-.045.319.319 0 0 1 .1-.022.925.925 0 0 1 .246.021c-.105-.052-.197-.083-.27-.108a1.831 1.831 0 0 1-.094-.033c-.048-.02-.085-.04-.1-.076-.015-.033-.008-.073.016-.127a.348.348 0 0 1-.177-.154.229.229 0 0 1-.025-.092v-.001h.013-.013c0-.004.003-.008.006-.01a.461.461 0 0 1 .322-.094c.096.01.19.05.273.114l-.034-.18v-.002c0-.003 0-.006.003-.009a.014.014 0 0 1 .006-.004h.007l.007.001a1.897 1.897 0 0 1 .083.037l.119.058.06.029.044.02a.401.401 0 0 1-.045-.038.14.14 0 0 1-.042-.07.14.14 0 0 1 .008-.072.774.774 0 0 1 .025-.065c-.08-.01-.24-.036-.375-.076a.697.697 0 0 1-.18-.075.118.118 0 0 1-.046-.048c-.008-.02-.005-.04.01-.06a.674.674 0 0 1 .366-.104.649.649 0 0 1 .28.078c.071.037.13.08.18.115a2.143 2.143 0 0 0 .082.056c.018.01.029.01.035.009.019-.008.027-.018.03-.03a.084.084 0 0 0-.004-.046.226.226 0 0 0-.031-.06V8.04h-.001a.013.013 0 0 1 0-.016.013.013 0 0 1 .016-.004l-.006.012.006-.012.005.003.013.006.05.023a25.957 25.957 0 0 0 .69.304c.177.073.34.135.432.157a.266.266 0 0 0 .054.009l.012-.001v-.002a.405.405 0 0 0-.062-.064 1.845 1.845 0 0 0-.476-.249 8.632 8.632 0 0 0-.65-.22c-.133-.04-.262-.077-.376-.11l-.197-.057a3.43 3.43 0 0 1-.18-.057.448.448 0 0 1-.067-.032c-.003-.002-.01-.008-.01-.016 0-.015.01-.026.022-.034a.192.192 0 0 1 .044-.022c.032-.012.074-.023.115-.034l.01-.003a.971.971 0 0 0 .12-.037.128.128 0 0 0 .035-.02c.007-.006.008-.01.008-.013v-.002c0-.005-.004-.011-.01-.019a.145.145 0 0 0-.032-.023.692.692 0 0 0-.1-.046l-.042-.017a.748.748 0 0 1-.06-.024.31.31 0 0 1-.05-.027.03.03 0 0 1-.01-.015.02.02 0 0 1 .003-.013.035.035 0 0 1 .007-.008.557.557 0 0 1 .093-.042 1.859 1.859 0 0 1 .505-.094.507.507 0 0 1 .224.035c.108.054.4.177.65.262.125.043.238.076.312.085a.271.271 0 0 0 .046.003.06.06 0 0 0 .026-.005c.004-.002.005-.004.005-.007 0-.004-.002-.012-.01-.023a.257.257 0 0 0-.088-.071 1.32 1.32 0 0 0-.166-.077 4.867 4.867 0 0 0-.454-.145 11.192 11.192 0 0 0-.608-.149l-.01-.002h-.004l.003-.013-.007.01h-.002l-.004-.003a.193.193 0 0 1-.052-.053.133.133 0 0 1-.003-.14 1.466 1.466 0 0 1-.19-.016.278.278 0 0 1-.109-.035.06.06 0 0 1-.023-.026.045.045 0 0 1 0-.032.127.127 0 0 1 .044-.055.816.816 0 0 1 .161-.091 1.796 1.796 0 0 1 .09-.038l.006-.002h.001l.005.012.005-.012.005.001.014.006a12.954 12.954 0 0 0 .245.088c.157.055.364.127.562.19.2.064.39.12.514.144a.75.75 0 0 0 .079.012.144.144 0 0 0 .046-.001.016.016 0 0 0 .006-.003.03.03 0 0 0-.006-.01.132.132 0 0 0-.016-.02 1.142 1.142 0 0 0-.323-.183 5.4 5.4 0 0 0-.47-.169 10.415 10.415 0 0 0-.594-.166l-.01-.002h-.002l-.001-.001.003-.013-.003.013a.013.013 0 0 1-.01-.009.013.013 0 0 1 .002-.012l.002-.002.003-.004a.467.467 0 0 0 .048-.075l.001-.004a.071.071 0 0 0-.012.004.081.081 0 0 1-.072-.007.212.212 0 0 1-.056-.05.45.45 0 0 1-.05-.073l-.003-.005V6.28l.011-.006-.009-.01.002-.001a.443.443 0 0 0 .022-.02.872.872 0 0 1 .062-.052.932.932 0 0 1 .18-.117.245.245 0 0 1 .08-.015 4.282 4.282 0 0 1 .444.021 11.574 11.574 0 0 1 .419.048l.007.001h.002l-.002.013.005-.012h.001l.005.002.019.006a3.66 3.66 0 0 0 .245.068.6.6 0 0 0 .083.014.17.17 0 0 0 .055 0l.008-.004v-.004a.05.05 0 0 0-.009-.017.227.227 0 0 0-.027-.028.286.286 0 0 0-.11-.053 1.293 1.293 0 0 0-.18-.035c-.135-.02-.293-.029-.437-.038-.144-.009-.273-.017-.347-.032a.225.225 0 0 1-.045-.014c-.011-.005-.023-.012-.026-.025-.004-.013.004-.025.013-.033a.192.192 0 0 1 .045-.028.737.737 0 0 1 .315-.05c.122.002.254.018.375.035l.161.025c.056.009.106.017.146.022a.524.524 0 0 0 .097.005.047.047 0 0 0-.008-.008.57.57 0 0 0-.105-.047 2.213 2.213 0 0 0-.25-.062 2.835 2.835 0 0 0-.537-.06.511.511 0 0 1-.318-.1.498.498 0 0 1-.138-.15c0-.012.01-.02.019-.025a.116.116 0 0 1 .036-.01.708.708 0 0 1 .116-.001c.095.004.222.017.358.032h.008c.14.016.286.031.417.039.111.006.208.007.278-.003a.759.759 0 0 0-.181-.058 2.41 2.41 0 0 0-.265-.037 7.136 7.136 0 0 0-.124-.01l-.017-.002a6.694 6.694 0 0 1-.157-.016.118.118 0 0 1-.023-.006.032.032 0 0 1-.008-.005.018.018 0 0 1-.007-.012v-.002c0-.024.012-.043.031-.058a.186.186 0 0 1 .075-.03.807.807 0 0 1 .229-.002c.175.018.382.072.513.134.064-.005.09-.024.097-.046a.068.068 0 0 0-.006-.045.229.229 0 0 0-.037-.057 1.16 1.16 0 0 0-.246-.042c-.076-.007-.156-.011-.232-.015l-.057-.002a1.733 1.733 0 0 1-.23-.022.163.163 0 0 1-.065-.024.04.04 0 0 1-.016-.024.038.038 0 0 1 .003-.024.04.04 0 0 1 .006-.021.054.054 0 0 1 .021-.017.236.236 0 0 1 .072-.017c.06-.007.143-.007.236-.005l.195.008c.12.005.237.01.33.009a.793.793 0 0 0-.132-.055 3.906 3.906 0 0 0-.294-.075l-.135-.03-.152-.034a1.512 1.512 0 0 1-.127-.036.064.064 0 0 1-.01-.006.023.023 0 0 1-.008-.01.014.014 0 0 1-.001-.007c.004-.026.024-.042.05-.051a.302.302 0 0 1 .098-.013c.077 0 .177.016.275.033l.132.025.135.026a.665.665 0 0 0 .095.01 1.643 1.643 0 0 0-.479-.253l-.017-.006c-.028-.011-.054-.02-.076-.03a.426.426 0 0 1-.064-.03.083.083 0 0 1-.02-.016.032.032 0 0 1-.007-.023c0-.009.005-.016.011-.022a.1.1 0 0 1 .025-.016.39.39 0 0 1 .237-.002c.081.021.163.06.235.1a1.759 1.759 0 0 1 .236.163.455.455 0 0 0-.003-.138.21.21 0 0 0-.05-.086.918.918 0 0 0-.094-.095 1.76 1.76 0 0 0-.13-.105l-.002-.001a.013.013 0 0 1-.005-.015.013.013 0 0 1 .012-.01h.003a.831.831 0 0 0 .045-.003 1.47 1.47 0 0 0 .105-.012.495.495 0 0 0 .1-.025.082.082 0 0 0 .027-.015c.004-.005.005-.008.004-.01a.085.085 0 0 0-.013-.025 1.178 1.178 0 0 0-.104-.115 2.524 2.524 0 0 0-.074-.069l-.025-.02a.401.401 0 0 0-.006-.007l-.002-.001a.013.013 0 0 1 .01-.024h.002l.008.001a.786.786 0 0 0 .114.001.194.194 0 0 0 .076-.019.04.04 0 0 0 .017-.017.034.034 0 0 0 0-.024.233.233 0 0 0-.047-.075.934.934 0 0 0-.169-.134h-.002a.013.013 0 0 1-.007-.015.013.013 0 0 1 .011-.01l.26-.036.074-.796c0-.007.006-.012.013-.012m-.314 1.165a.386.386 0 0 1 .187.192.108.108 0 0 1 .016.033c.004.014-.002.026-.01.035a.107.107 0 0 1-.036.022.517.517 0 0 1-.106.026 1.502 1.502 0 0 1-.12.013 1.535 1.535 0 0 1 .203.185c.027.033.05.068.054.099a.607.607 0 0 1 .003.158l-.002.009v.003l-.014-.003-.008.01-.001-.001-.004-.003a1.86 1.86 0 0 0-.067-.053 1.715 1.715 0 0 0-.178-.118.973.973 0 0 0-.229-.098.366.366 0 0 0-.22.001.074.074 0 0 0-.017.011.018.018 0 0 0-.003.004v.001l.002.004a.06.06 0 0 0 .013.01.401.401 0 0 0 .06.029 3.46 3.46 0 0 0 .093.035c.14.053.341.132.5.27a.013.013 0 0 1 .005.01.02.02 0 0 1-.006.015.03.03 0 0 1-.012.006.096.096 0 0 1-.028.003.69.69 0 0 1-.09-.01l-.136-.026-.131-.025a1.72 1.72 0 0 0-.27-.032.276.276 0 0 0-.089.01c-.017.007-.027.015-.031.025l.002.001a1.48 1.48 0 0 0 .121.034l.152.034.136.03c.105.024.212.05.297.076a.818.818 0 0 1 .107.04.238.238 0 0 1 .036.022c.01.007.018.015.023.024a.013.013 0 0 1 0 .012.013.013 0 0 1-.011.007 4.755 4.755 0 0 1-.364-.008 12.28 12.28 0 0 0-.194-.007 1.784 1.784 0 0 0-.232.004.211.211 0 0 0-.063.014.028.028 0 0 0-.011.009c-.001.001-.002.003-.001.006 0 .003 0 .006-.002.01-.003.004-.003.007-.002.009 0 .002.002.005.006.008a.14.14 0 0 0 .054.02c.053.01.134.016.226.02l.057.003c.076.004.157.008.233.014a1.162 1.162 0 0 1 .261.049c.02.023.036.046.045.067a.093.093 0 0 1 .006.062c-.011.04-.056.061-.124.065l-.006-.001a1.727 1.727 0 0 0-.508-.133.781.781 0 0 0-.221.002.161.161 0 0 0-.064.025.048.048 0 0 0-.02.032.773.773 0 0 0 .085.013 6.492 6.492 0 0 0 .102.008l.125.01c.087.009.181.02.267.038a.673.673 0 0 1 .22.08.013.013 0 0 1-.004.023 1.212 1.212 0 0 1-.32.01 9.281 9.281 0 0 1-.418-.038l-.007-.001a6.752 6.752 0 0 0-.357-.032.686.686 0 0 0-.112.001.092.092 0 0 0-.03.009c.015.026.057.08.125.13a.485.485 0 0 0 .302.094 2.86 2.86 0 0 1 .543.06c.096.02.185.04.253.063a.591.591 0 0 1 .113.052.062.062 0 0 1 .018.02c.002.004.004.01.002.016a.021.021 0 0 1-.01.012.057.057 0 0 1-.027.007.546.546 0 0 1-.09-.006c-.042-.005-.092-.013-.149-.022l-.16-.025a2.961 2.961 0 0 0-.371-.034.712.712 0 0 0-.303.047.169.169 0 0 0-.039.023c-.005.005-.006.007-.006.008 0 0 .003.003.012.007a.2.2 0 0 0 .04.012c.071.015.198.023.342.032h.003c.143.009.302.019.438.038.068.01.131.02.183.036a.31.31 0 0 1 .121.059.255.255 0 0 1 .03.032.07.07 0 0 1 .014.027.03.03 0 0 1-.005.026.041.041 0 0 1-.022.012.194.194 0 0 1-.064.001.851.851 0 0 1-.087-.014 2.53 2.53 0 0 1-.266-.075l-.005-.002h-.011a14.01 14.01 0 0 0-.417-.049c-.11-.01-.225-.02-.319-.022a1.333 1.333 0 0 0-.122.001.224.224 0 0 0-.07.013.91.91 0 0 0-.175.113 1.52 1.52 0 0 0-.077.065.666.666 0 0 0 .046.067.186.186 0 0 0 .049.044c.017.01.033.012.049.006a.064.064 0 0 1 .029-.007.02.02 0 0 1 .013.006.02.02 0 0 1 .007.012.044.044 0 0 1-.004.023.49.49 0 0 1-.044.072 5.11 5.11 0 0 1 .165.042c.112.03.264.072.424.122.16.05.329.109.473.17.144.06.265.125.331.189a.165.165 0 0 1 .02.022.051.051 0 0 1 .01.022.026.026 0 0 1-.006.021.038.038 0 0 1-.02.011.167.167 0 0 1-.054.002.776.776 0 0 1-.082-.012 5.289 5.289 0 0 1-.517-.145 20.77 20.77 0 0 1-.822-.284l-.003.001a1.183 1.183 0 0 0-.09.037.793.793 0 0 0-.155.088c-.02.016-.032.03-.036.042a.02.02 0 0 0 0 .014.045.045 0 0 0 .014.015.255.255 0 0 0 .098.03c.05.008.118.014.21.016a.013.013 0 0 1 .01.02.133.133 0 0 0-.026.076c0 .021.008.04.018.056a.158.158 0 0 0 .044.045l.003.002h.001l.01.003a7.806 7.806 0 0 1 .179.04c.116.027.272.065.431.109.16.044.324.094.456.146.066.026.124.052.17.078a.28.28 0 0 1 .098.08.071.071 0 0 1 .013.038.034.034 0 0 1-.018.029.085.085 0 0 1-.038.009.3.3 0 0 1-.05-.003 1.897 1.897 0 0 1-.318-.087 6.644 6.644 0 0 1-.652-.264.483.483 0 0 0-.213-.032 1.834 1.834 0 0 0-.498.092.54.54 0 0 0-.081.036.286.286 0 0 0 .04.02c.018.009.038.016.06.024l.043.017c.037.015.075.03.104.048a.17.17 0 0 1 .036.028c.01.01.017.022.018.035.002.016-.006.028-.017.037a.154.154 0 0 1-.042.025.996.996 0 0 1-.123.038l-.01.002c-.041.011-.082.022-.113.033a.167.167 0 0 0-.038.019.027.027 0 0 0-.01.01 3.374 3.374 0 0 0 .237.083l.197.057.377.11c.218.066.45.14.652.22.202.08.377.166.482.254.026.022.045.04.057.054l.013.02a.03.03 0 0 1 0 .022.025.025 0 0 1-.015.014.064.064 0 0 1-.021.003.288.288 0 0 1-.06-.01 3.62 3.62 0 0 1-.436-.158 18.577 18.577 0 0 1-.69-.304l-.03-.014.013.032a.11.11 0 0 1 .004.06.069.069 0 0 1-.046.048c-.018.007-.037 0-.056-.01a.6.6 0 0 1-.086-.058 1.372 1.372 0 0 0-.176-.112.623.623 0 0 0-.27-.075.646.646 0 0 0-.345.095c-.008.012-.009.022-.005.032a.093.093 0 0 0 .036.037c.039.026.102.05.174.071.143.042.317.07.387.077a.013.013 0 0 1 .011.018l-.013.032a.699.699 0 0 0-.018.047.113.113 0 0 0-.007.058.115.115 0 0 0 .035.058.595.595 0 0 0 .103.078.67.67 0 0 1 .043.03l.003.008v.007a.014.014 0 0 1-.007.007.015.015 0 0 1-.008.002h-.004a2.996 2.996 0 0 1-.16-.072l-.06-.03-.118-.057a1.995 1.995 0 0 0-.065-.03l.037.192a.013.013 0 0 1-.006.014.013.013 0 0 1-.015-.001.536.536 0 0 0-.287-.13.433.433 0 0 0-.3.085l.003.016a.203.203 0 0 0 .02.058.33.33 0 0 0 .176.148.013.013 0 0 1 .007.017c-.03.059-.033.094-.023.118.011.024.039.042.087.062.025.01.055.02.09.032.094.032.22.075.365.157a.013.013 0 0 1-.01.025 1.057 1.057 0 0 0-.335-.043.294.294 0 0 0-.092.02c-.022.009-.035.02-.041.032a.04.04 0 0 0-.001.037.12.12 0 0 0 .04.046.517.517 0 0 0 .221.077c.081.012.19.024.315.037l.111.012c.172.019.364.042.551.073.187.032.37.073.524.128.153.055.279.125.349.216a.457.457 0 0 1 .063.099.05.05 0 0 1 .004.031.024.024 0 0 1-.008.013.029.029 0 0 1-.014.005.076.076 0 0 1-.03-.003 1.081 1.081 0 0 1-.132-.063c-.058-.032-.123-.073-.182-.11a43.075 43.075 0 0 1-.127-.077.581.581 0 0 0-.04-.02.977.977 0 0 0-.021.142l-.001.019v.007a.013.013 0 0 1-.008.01.013.013 0 0 1-.013 0l-.006-.004c-.171-.098-.327-.187-.527-.228a.194.194 0 0 0-.01.043.171.171 0 0 1-.016.06.013.013 0 0 1-.02.004c-.183-.135-.348-.227-.615-.244l-.031.121a.013.013 0 0 1-.023.005l-.002-.002a.39.39 0 0 0-.162-.101c-.11-.036-.277-.037-.501.106a.09.09 0 0 0-.027.026c-.003.006-.002.01 0 .012.003.004.009.01.021.015.012.005.028.01.048.014.08.018.212.028.36.038h.001c.147.01.309.022.445.044.07.011.132.025.184.043a.28.28 0 0 1 .121.07m1.375-5.148-.01.01a.013.013 0 0 0 .021-.007l-.011-.003Zm-.176-.772h.002a.659.659 0 0 0 .088 0 .218.218 0 0 0 .087-.023.066.066 0 0 0 .028-.029.06.06 0 0 0 .002-.042.257.257 0 0 0-.054-.085.63.63 0 0 0-.077-.071.976.976 0 0 0-.07-.05l.235-.033c.006 0 .01-.005.011-.011l.062-.668.07.724c0 .006.006.012.012.012h.011a.646.646 0 0 1 .09.013.19.19 0 0 1 .06.022c.008.005.012.01.015.015.002.005.003.01.002.016a.066.066 0 0 1-.029.038.205.205 0 0 1-.055.026.414.414 0 0 1-.071.015H12.2l-.001.001v.013-.013m.22.15v-.001a.02.02 0 0 0-.005-.002.09.09 0 0 0-.025-.002.451.451 0 0 0-.077.014 1.191 1.191 0 0 0-.106.03l-.001.001a.013.013 0 0 1-.013-.001.013.013 0 0 1-.005-.01V3.88c0-.007.005-.012.011-.013m.222.15-.003.009a.138.138 0 0 1-.017.024.632.632 0 0 1-.061.063 1.641 1.641 0 0 1-.086.073l-.007.005h-.001v.001a.013.013 0 0 0-.006.01v.007l-.002.022a1.994 1.994 0 0 0-.006.13c0 .01.002.018.003.024 0 .003.002.007.004.01a.017.017 0 0 0 .012.008c.06.015.12.037.176.066a6.243 6.243 0 0 1-.203.104.011.011 0 0 0-.007.003h-.003v.001a.013.013 0 0 0-.007.008l.012.004-.012-.004v.002l-.002.006-.005.02a.302.302 0 0 0-.008.062c0 .023.004.047.017.067.013.02.035.033.067.033.016 0 .04-.005.067-.012a2.664 2.664 0 0 0 .11-.031c.07-.02.15-.044.227-.06a.519.519 0 0 1 .205-.013.09.09 0 0 1 .055.032c.01.013.015.033.014.06h-.002a8.362 8.362 0 0 1-.102.013l-.024.003c-.08.01-.184.022-.283.038a1.67 1.67 0 0 0-.255.055.284.284 0 0 0-.04.017.088.088 0 0 0-.027.02.032.032 0 0 0-.008.03.05.05 0 0 0 .021.025.013.013 0 0 0 .009.002c.041-.001.1-.006.167-.011l.03-.003c.08-.006.167-.013.249-.016.082-.004.157-.003.213.004a.28.28 0 0 1 .064.016c.015.007.02.015.02.021 0 .002-.001.003-.003.005a.08.08 0 0 1-.023.01.544.544 0 0 1-.096.02 5.71 5.71 0 0 1-.248.02l-.046.003c-.106.008-.21.016-.282.03a.259.259 0 0 0-.085.027.045.045 0 0 0-.02.025.038.038 0 0 0 .007.032.013.013 0 0 0 .01.005V5.14v.003h.002a.78.78 0 0 0 .032.004c.022.001.052.004.087.005a.93.93 0 0 0 .231-.017 1.61 1.61 0 0 1 .292-.05.387.387 0 0 1 .138.013c.036.013.058.033.065.064.004.018 0 .03-.009.041a.11.11 0 0 1-.048.03.723.723 0 0 1-.195.03 4.687 4.687 0 0 1-.25.003 2.308 2.308 0 0 0-.227.01c-.052.031-.086.076-.08.12.005.047.051.08.133.092h.002a.02.02 0 0 0 .004 0h.002a.505.505 0 0 0 .01-.003l.018-.004.013-.003.105-.022c.087-.017.198-.038.304-.052.106-.015.205-.021.265-.011a.136.136 0 0 1 .036.01.035.035 0 0 1 .016.014c.004.007.004.021-.016.047a.307.307 0 0 1-.056.015c-.03.006-.066.012-.11.018a8.848 8.848 0 0 0-.297.047c-.105.019-.21.04-.292.069a.497.497 0 0 0-.104.047.126.126 0 0 0-.056.062.013.013 0 0 0 .001.012.013.013 0 0 0 .01.005c.051.003.116-.002.189-.01l.105-.012.01-.002.127-.014c.171-.019.36-.03.536-.001.003.073.003.152.003.23 0 .077 0 .154.003.226a9.028 9.028 0 0 1-.4.003 8.768 8.768 0 0 0-.419.005.226.226 0 0 0-.08.044.08.08 0 0 0-.027.058c0 .02.01.04.026.057a.212.212 0 0 0 .074.046c.07 0 .153-.01.238-.021l.085-.012c.057-.009.114-.017.168-.023a.988.988 0 0 1 .214-.007c.055.006.092.022.111.049a.775.775 0 0 1-.132.041c-.06.012-.134.023-.21.035l-.057.008c-.093.015-.183.03-.245.047a.225.225 0 0 0-.072.032.043.043 0 0 0-.017.023.04.04 0 0 0 .008.03.013.013 0 0 0 .011.005.72.72 0 0 0 .195-.036c.033-.008.067-.017.105-.025a1.276 1.276 0 0 1 .588.021c.027.01.038.02.042.028.003.006.002.013-.006.024a.157.157 0 0 1-.04.034.781.781 0 0 1-.184.079 1.057 1.057 0 0 1-.016.005h-.004a1.1 1.1 0 0 0-.073-.018 2.277 2.277 0 0 0-.195-.036c-.154-.021-.348-.03-.5.022a.393.393 0 0 0-.086.038.11.11 0 0 0-.042.043c-.016.033.002.062.024.084a.328.328 0 0 0 .113.068.587.587 0 0 0 .01.004h.003v.001h.001v-.001.001a.013.013 0 0 0 .01 0h.001V6.91l.003-.001a1.621 1.621 0 0 1 .788-.12.716.716 0 0 1 .484.228c.04.048.06.092.063.119 0 .013-.003.02-.005.022-.003.002-.01.004-.026-.002a.294.294 0 0 0-.091-.008c-.04 0-.09.004-.145.01a10.78 10.78 0 0 0-1.104.201.41.41 0 0 0-.077.026.098.098 0 0 0-.04.031.04.04 0 0 0-.004.037.08.08 0 0 0 .023.029.28.28 0 0 0 .1.048.261.261 0 0 0 .01.003l.003.001h.006l1.027-.153.57-.075a.922.922 0 0 1 .15-.01.217.217 0 0 1 .082.015c.016.007.023.016.025.026a.057.057 0 0 1-.004.036.308.308 0 0 1-.066.088.642.642 0 0 1-.039.036l-.004.004-.003.002a.013.013 0 0 0-.005.014l.035.161-.605.229a.013.013 0 0 0-.008.01c0 .005.002.01.006.013l.002-.003-.002.003h.001l.001.001a1.31 1.31 0 0 0 .556.124c.089 0 .167.018.23.043a.299.299 0 0 1 .129.09c.011.015.016.03.016.041a.043.043 0 0 1-.016.033c-.024.021-.078.037-.17.034h-.001a2.145 2.145 0 0 0-.536.074 2.86 2.86 0 0 0-.23.07l-.007.002a1.048 1.048 0 0 0-.01.004h-.002l.005.013-.005-.012a.013.013 0 0 0 .003.025h.006a2.169 2.169 0 0 0 .079.01l.215.019c.173.014.395.027.587.024.097-.003.152.01.18.03.014.009.022.02.026.03a.071.071 0 0 1 .002.038.213.213 0 0 1-.038.079.374.374 0 0 1-.02.026l-.007.008a.02.02 0 0 0-.002.002m.003.021.001.001a.17.17 0 0 1 .024.014c.014.01.033.024.05.042.036.035.06.078.035.124-.005.009-.012.014-.024.016a.132.132 0 0 1-.047-.005.823.823 0 0 1-.065-.019l-.004-.001c-.022-.007-.046-.015-.07-.021a.291.291 0 0 0-.156-.007c-.05.015-.094.054-.122.129-.051.14-.129.205-.216.238a.6.6 0 0 1-.14.031 2.417 2.417 0 0 1-.071.008h-.002a2.497 2.497 0 0 0-.07.007.216.216 0 0 0-.11.043c-.024.02-.036.047-.027.073.008.025.034.045.072.056.039.01.092.013.162.004a.827.827 0 0 0 .233-.079l.078-.036c.056-.027.113-.054.165-.074.078-.03.144-.045.192-.03.024.006.044.02.059.044a.242.242 0 0 1 .03.107c.001.005.005.01.01.011.004.002.01 0 .013-.003l-.01-.01.01.01.001-.002.004-.003.015-.015a2.438 2.438 0 0 1 .206-.179.62.62 0 0 1 .08-.05.169.169 0 0 1 .063-.02c.017-.002.027.003.034.014.008.012.013.033.01.068-.183.246-.467.378-.707.449a2.345 2.345 0 0 1-.4.08h-.004a1.213 1.213 0 0 0-.037.006l-.002.001-.002.001-.002.002a.417.417 0 0 0-.167.2.145.145 0 0 0-.017.05c-.001.016.002.032.015.043.012.01.03.015.053.015l.006-.001a3.72 3.72 0 0 1 .603-.213 1.22 1.22 0 0 1 .375-.043c.104.01.18.047.21.123a.103.103 0 0 1-.035.035.313.313 0 0 1-.07.032 1.03 1.03 0 0 1-.19.04 2.296 2.296 0 0 1-.256.02h-.005a.013.013 0 0 0-.008.002.237.237 0 0 1-.082.034c-.037.01-.083.018-.132.026l-.074.012c-.078.012-.16.025-.229.042h-.001v.002-.001h-.003l-.006.003a.513.513 0 0 0-.082.048c-.018.014-.035.035-.036.058-.002.025.015.048.049.068l.003.001h.008l.007-.001.022-.007.011-.003.066-.02a2.43 2.43 0 0 1 .233-.057.718.718 0 0 1 .23-.013c.03.005.055.015.071.029a.075.075 0 0 1 .025.06c0 .007.006.013.013.013h.005l.006-.002a4.691 4.691 0 0 0 .025-.005 2.03 2.03 0 0 1 .334-.03c.09.002.178.013.242.045a.183.183 0 0 1 .074.061.156.156 0 0 1 .025.092l-.004.002a1.226 1.226 0 0 1-.129.029 6.773 6.773 0 0 1-.304.04 18.724 18.724 0 0 1-.418.043l-.012.001-.01.001h-.002l-.006.001-.02.002a1.574 1.574 0 0 0-.236.036.182.182 0 0 0-.055.02c-.006.004-.014.01-.013.021 0 .011.008.018.014.022.014.009.04.017.081.024.042.008.1.016.177.024h.002c.04-.002.086-.002.144-.002h.067c.09 0 .201-.002.34-.013h.002c.202-.05.315-.07.369-.07a.1.1 0 0 1 .028.003l.003.001-.001.003a.078.078 0 0 1-.015.015.762.762 0 0 1-.146.085.724.724 0 0 1-.142.053c-.057.008-.23.022-.387.034l-.21.016-.067.005-.024.002h-.003l-.003.001.007.012-.007-.012-.006.004-.015.009a20.53 20.53 0 0 0-.379.24 1.222 1.222 0 0 0-.075.06.02.02 0 0 0-.004.01c0 .007.005.013.013.013.172.005.344-.02.507-.076l-.005-.012.005.012m.853.028-.037.01c-.126.032-.34.088-.69.094h-.001l.002.013-.002-.013h-.003l-.009.002-.031.006a9.819 9.819 0 0 0-.44.087 2.188 2.188 0 0 0-.3.087.394.394 0 0 0-.048.022.124.124 0 0 0-.031.024c-.007.008-.013.02-.01.032.003.011.012.02.023.027a.013.013 0 0 0 .01.002c.08-.02.24-.055.407-.07a1.45 1.45 0 0 1 .244-.004.496.496 0 0 1 .195.05.013.013 0 0 0 .01 0c.022-.006.046-.015.073-.024.072-.025.16-.056.248-.074.122-.024.237-.023.307.047a.013.013 0 0 0 .013.003c.222-.06.366-.057.442-.026.037.015.057.037.063.059.006.022 0 .05-.02.078-.02.028-.064.053-.126.075a1.212 1.212 0 0 1-.22.05 1.884 1.884 0 0 1-.486.009c-.139-.022-.238.035-.274.105a.107.107 0 0 0 0 .105c.02.031.057.053.113.06a.508.508 0 0 0 .18-.02l.075-.02c.038-.012.077-.022.116-.03a.394.394 0 0 1 .173-.006.216.216 0 0 1 .136.107.013.013 0 0 0 .01.006c.003 0 .007 0 .01-.003a.509.509 0 0 1 .415-.107c.057.013.097.04.113.076.015.034.01.08-.033.14-.467.018-.93-.015-1.395-.05-.241-.017-.484-.035-.728-.045-.002 0-.005 0-.007.002a.219.219 0 0 0-.047.033c-.012.011-.02.025-.02.041s.008.031.022.046c.014.014.035.03.064.045l.002.001h.003c.11.014.25.017.391.02.075 0 .149.002.219.004.101.005.193.012.263.028a.332.332 0 0 1 .087.03.09.09 0 0 1 .042.042.013.013 0 0 0 .007.007.013.013 0 0 0 .01 0 .542.542 0 0 1 .52.022c.005.003.01.002.015 0a.18.18 0 0 1 .055-.023 1.082 1.082 0 0 1 .311-.023.509.509 0 0 1 .094.016.153.153 0 0 1 .06.03c.013.01.018.023.015.038a.14.14 0 0 1-.04.064.763.763 0 0 1-.109.016 4.27 4.27 0 0 1-.239.003 27.979 27.979 0 0 1-.603-.015l-.065-.002a18.266 18.266 0 0 0-.63-.013c-.083 0-.15.003-.193.009a.166.166 0 0 0-.05.011c-.004.003-.011.008-.013.016a.018.018 0 0 0 .006.02.013.013 0 0 0 .008.005v-.003.003h.01l.004.001a2.722 2.722 0 0 1 .107.014c.072.01.171.023.275.041.104.018.213.04.306.065s.169.053.208.082a.013.013 0 0 0 .016 0c.086-.071.203-.072.312-.053.054.009.105.023.148.034l.003.001.053.014c.017.004.03.007.042.007h.002a.203.203 0 0 0 .044-.014l.047-.02.01-.004a1 1 0 0 1 .14-.053.254.254 0 0 1 .135-.006c.037.011.07.037.09.089-.083.098-.24.148-.434.166a3.13 3.13 0 0 1-.654-.028 8.359 8.359 0 0 1-.711-.128l-.1-.02a1.767 1.767 0 0 0-.086-.015h-.014a.063.063 0 0 0-.052.035.242.242 0 0 0-.019.06v.002a.272.272 0 0 1-.018.061.07.07 0 0 1-.036.036.349.349 0 0 0-.154.015.142.142 0 0 0-.073.061.257.257 0 0 0-.023.056l-.003.01a.11.11 0 0 1-.01.022.022.022 0 0 1-.01.01.032.032 0 0 1-.011.002.74.74 0 0 1-.095-.012 3.342 3.342 0 0 1-.195-.047 7.906 7.906 0 0 1-.185-.05l-.06-.018-.017-.005-.005-.002-.004.013.004-.013h-.001l-.003.013.003-.013h-.003l-.005-.001h-.019a.194.194 0 0 0-.064.015.434.434 0 0 0-.193.187.402.402 0 0 0-.037.156 2.32 2.32 0 0 0-.006.254c.005.194.024.43.047.66a20.723 20.723 0 0 0 .1.814l.007.055v.004l-.77-.007v-1.96h-.013v-.012h-.061l-.219.092c0-.007-.003-.017-.005-.028a.243.243 0 0 0-.033-.083.094.094 0 0 0-.086-.044c-.04.003-.088.027-.148.08a.243.243 0 0 1-.155.074.2.2 0 0 1-.12-.039.375.375 0 0 1-.108-.118l-.002-.002a.013.013 0 0 0-.017-.006H10.8l-.005.003-.02.008a3.15 3.15 0 0 1-.392.12 4.488 4.488 0 0 1-1.15.107c-.248-.039-.402-.092-.482-.144-.04-.026-.059-.05-.064-.071-.005-.019.002-.038.023-.055a.257.257 0 0 1 .106-.044.766.766 0 0 1 .178-.015c.14.003.316.034.511.107.006.002.012 0 .015-.004a.013.013 0 0 0 0-.015.656.656 0 0 1-.066-.112.164.164 0 0 1-.018-.074.054.054 0 0 1 .021-.041.127.127 0 0 1 .06-.023.814.814 0 0 1 .225.009c.095.013.206.034.328.059.005 0 .01-.001.013-.005a.525.525 0 0 1 .3-.204.45.45 0 0 1 .263.035c.057.024.107.054.15.08l.046.026a.2.2 0 0 0 .067.026c.01.001.02 0 .029-.006a.044.044 0 0 0 .017-.025.111.111 0 0 0-.019-.103.27.27 0 0 0-.111-.075 1.953 1.953 0 0 0-.48-.102h-.001a1.025 1.025 0 0 0-.344.037c-.048.011-.097.024-.146.037-.075.02-.153.042-.236.06a1.505 1.505 0 0 1-.98-.095c-.198-.087-.296-.165-.333-.23a.115.115 0 0 1-.015-.088.157.157 0 0 1 .05-.074.568.568 0 0 1 .209-.107.583.583 0 0 1 .187-.031.764.764 0 0 1 .16.048c.065.025.138.058.206.09l.173.081.007.004a5.636 5.636 0 0 0 .082.038h.003l.004.001a.016.016 0 0 0 .015-.01.028.028 0 0 0 .002-.01.69.69 0 0 0-.046-.152.616.616 0 0 0-.006-.015h.013c.01 0 .02-.001.03-.006a.029.029 0 0 0 .012-.011.026.026 0 0 0 .002-.02c-.002-.011-.012-.024-.028-.039a.613.613 0 0 0-.074-.058 4.081 4.081 0 0 0-.356-.21 1.896 1.896 0 0 1-.19-.113.396.396 0 0 1-.046-.038.076.076 0 0 1-.018-.024c-.002-.004 0-.005 0-.005.001-.002.005-.005.014-.007a.296.296 0 0 1 .082-.002 2.099 2.099 0 0 1 .329.057l.026.006h.004a.026.026 0 0 0 .007.001h.003a.02.02 0 0 0 .005-.003.022.022 0 0 0 .005-.011.024.024 0 0 0-.003-.007l-.002-.002-.001-.005c0-.005 0-.013.002-.021.005-.015.02-.034.056-.04a.401.401 0 0 1 .196.032c.097.035.229.098.407.205a.013.013 0 0 0 .02-.013.04.04 0 0 1 .011-.038.163.163 0 0 1 .052-.036.78.78 0 0 1 .179-.054 2.194 2.194 0 0 1 .247-.035l.017-.001h.006a.013.013 0 0 0 .002-.026l-.003.012.003-.013h-.004a1.094 1.094 0 0 1-1.24-.35.298.298 0 0 1-.048-.034.075.075 0 0 1-.022-.027c-.008-.021-.006-.031-.003-.036.003-.005.011-.01.029-.01.034-.003.09.01.156.031.09.03.194.073.28.109l.106.042c.004.002.01.001.013-.002a.013.013 0 0 0 .005-.013c-.007-.03-.003-.046.004-.056.006-.008.019-.014.039-.014s.045.006.073.015a1.909 1.909 0 0 1 .257.123h.001a1.176 1.176 0 0 0 .054.029h.008c.001 0 .004 0 .007-.003a.014.014 0 0 0 .003-.015.018.018 0 0 0-.002-.005.05.05 0 0 0-.006-.005c-.027-.023-.026-.06-.014-.098a.287.287 0 0 1 .026-.057.41.41 0 0 0 .009.002l.018.006a6.544 6.544 0 0 0 .386.102c.104.023.207.041.282.042a.213.213 0 0 0 .09-.013.053.053 0 0 0 .026-.024.05.05 0 0 0 .002-.037.079.079 0 0 0-.03-.039.281.281 0 0 0-.056-.032 1.139 1.139 0 0 0-.179-.06 5.467 5.467 0 0 0-.516-.099 14.283 14.283 0 0 0-.718-.09H9.37a.29.29 0 0 1-.04-.048.292.292 0 0 1-.05-.147c0-.005.001-.008.003-.01a.03.03 0 0 1 .014-.008.218.218 0 0 1 .073-.001c.064.006.15.025.24.046l.02.005c.083.019.168.038.235.047a.422.422 0 0 0 .094.005c.023-.002.046-.009.055-.028.004-.007.013-.012.031-.015a.289.289 0 0 1 .072.002c.056.007.123.023.187.038l.008.001c.065.016.127.03.164.03.01 0 .018 0 .026-.002a.028.028 0 0 0 .019-.016.033.033 0 0 0-.003-.026.122.122 0 0 0-.018-.027.144.144 0 0 0-.044-.03.509.509 0 0 0-.067-.026 1.921 1.921 0 0 0-.192-.048c-.109-.022-.236-.044-.362-.066a31.65 31.65 0 0 1-.136-.023 3.063 3.063 0 0 1-.411-.09.328.328 0 0 1-.055-.024.06.06 0 0 1-.024-.02.01.01 0 0 1 0-.006c0-.002 0-.005.003-.008a.1.1 0 0 1 .035-.025.566.566 0 0 1 .278-.042c.103.005.211.028.31.055a2.503 2.503 0 0 1 .325.118c.01.003.016.007.02.009l.006.002h.001v.001c.005.002.01.002.015-.002a.013.013 0 0 0 .004-.013l-.002-.01-.006-.025a6.084 6.084 0 0 1-.04-.171.83.83 0 0 1 .312.14 1.254 1.254 0 0 1 .132.107l.007.007.002.001a.013.013 0 0 0 .022-.004l.064-.176c.222.068.457.168.658.254l.144.062c.113.047.209.084.273.097.016.003.03.005.043.005a.074.074 0 0 0 .034-.006.038.038 0 0 0 .02-.025.068.068 0 0 0-.002-.035.147.147 0 0 0-.045-.072.471.471 0 0 0-.095-.068 1.845 1.845 0 0 0-.31-.127 9.96 9.96 0 0 0-.887-.23c-.11-.025-.22-.049-.326-.071-.194-.043-.373-.081-.515-.116a2.07 2.07 0 0 1-.248-.073.174.174 0 0 1-.052-.028.015.015 0 0 1-.004-.005l.003-.003a.365.365 0 0 1 .18-.056 1.46 1.46 0 0 1 .248-.003 2.95 2.95 0 0 1 .286.032c.008 0 .015.002.019.003h.005m-.74.027Zm2.482.79-.013.003.013-.002Zm-1.171-.352.004-.011-.012-.005-.004.013.012.003Zm-.538-.075a.27.27 0 0 1-.001-.008v-.005l-.001.001s0 .003-.002.004a.013.013 0 0 1-.01.005v-.013l-.002.013a.45.45 0 0 1 .016.003Zm-.912.078-.006-.011.006.011Zm.767.38-.012-.005.012.006Zm-.862.791-.003-.002.003.003Zm.185.492a.313.313 0 0 0-.012-.022v-.001l.004.007a.013.013 0 0 1-.01.015h-.001.006l.013.001Zm-.6-.075.002-.013-.002.013Zm.498 1.268h-.001v.013l.002-.013h-.001Zm2.242-.073-.014.006.005.012v-.013c.006 0 .01.004.01.005l.002.002a.13.13 0 0 1-.002-.008v-.004Zm.293 1.88h-.013v.013h.013v-.013Zm1.785-2.179-.002.001.004.012.001-.013h-.003Zm.124-.195.002.013-.001-.013Zm2 .026c.002.002.002.005.003.007l.013-.005-.01-.008-.005.006Zm-.064-.248v.001l.008.01-.007-.011Zm.058-.329-.004.005.01.008v-.013h-.006Zm-1.195-.143.002-.013-.002.013Zm.161-.27-.002.014.002-.013Zm.417-.565h.002l.003.012-.006-.011.001-.001Zm-2.62-6.768Zm-.893 1.68.005-.012h-.003l-.002.012Zm-1.207.132-.009-.01a.013.013 0 0 0-.003.016l.012-.006Zm.082.37.005-.011a.013.013 0 0 0-.009 0l.005.012Zm.083.47-.007.01.004.002.003-.012Zm-.439 4.102.004-.012a.013.013 0 0 0-.015.005l.011.007Zm3.896-.48Zm-3.138 2.356Z"/><path fill="#fff" d="M11.85 12.007v-.139s-.307-.056-.461-.026c-.086-.049-.173-.116-.281-.06-.02.045.198.161.27.161.154.046.315.068.476.064h-.004Zm0 .225s-.311-.116-.435.015c.019.139.364.206.439.169.071-.038 0-.18-.004-.188v.004Zm.525.053v.097s.367.071.435-.007c.064-.08-.3-.132-.439-.09h.004Zm-.019-.383.011.109s.323.071.447-.105c.123-.176-.281 0-.458-.004Zm.015-.375v.075s.244.038.3-.067c.053-.105-.292 0-.3-.008Zm-.502-.225c-.038-.049-.169-.18-.518-.217-.244 0 .439.356.518.22v-.003Zm.495-.364-.008.102s.825-.248 1.017-.23c.172-.048.21-.168.202-.168-.15-.109-.859.086-1.211.296Zm.018-.292-.01.097s.58-.112.738-.225c.154-.112-.72.132-.727.128Zm-.022-.285v.097s.386-.015.469-.09c.048-.078-.345-.01-.469-.007Zm.81.814s.203.03.24-.03c-.008-.105-.24.037-.24.03Zm-.795-1.178.004.214s.934-.296.994-.349c.056-.056.187-.225-.998.135Zm-.026-.296v.157s.375-.03.547-.168c.173-.143-.547.015-.547.01Zm-.45-.349.022.139-1.233-.398c.003 0-.06-.202 1.21.26Zm.019-.499c0 .015 0 .135-.008.132 0 0-.855-.357-.889-.327-.112-.262.9.203.9.195h-.003Zm.416.225.015.117s.525-.11.555-.162c.03-.052-.57.045-.57.042v.003Zm.011.278c.007.026.015.124.015.124s.21-.02.244-.068c.03-.049-.259-.056-.259-.056Zm-.03-.638v.113s.578-.113.638-.165c.063-.056-.65.052-.638.052Zm0-.318c0 .007-.019.116-.004.116s.698-.113.806-.214c.105-.094-.787.109-.798.098h-.004Zm-.008-.56v.125s.443-.094.525-.188c.083-.094-.525.075-.525.064Zm-.075-.81.008.18s.6-.082.682-.18c.087-.1-.693 0-.69 0Zm-.277-1.368v.113s-.281-.012-.214-.06c.068-.05.214-.042.214-.053Zm.262.15.008.158s.364-.038.39-.094c.03-.056-.39-.06-.398-.06v-.004Zm-.022.225s.008.098.015.098c.007 0 .146-.012.176-.05.03-.037-.176-.037-.187-.048h-.004Zm-.308.443c0 .01.012.15 0 .142-.01-.007-.795-.229-.87-.225-.07 0-.09-.184.87.083Zm.064.258c0 .027.019.173-.011.165-.026-.007-.536-.168-.484-.217.053-.049.495.064.495.052Zm-.045 1.088.004.131s-.889-.27-.919-.315c-.03-.045-.116-.255.915.184Zm.038.319v.123l-1.208-.423s-.097-.315 1.204.3h.004Z"/><path fill="currentColor" d="M11.955 5.647c.009 0 .015.007.015.015v.113a.015.015 0 0 1-.004.01.015.015 0 0 1-.011.005v-.015.015h-.004a1.848 1.848 0 0 1-.13-.012.32.32 0 0 1-.08-.02.059.059 0 0 1-.015-.008.03.03 0 0 1-.01-.015c-.003-.015.008-.026.017-.032a.317.317 0 0 1 .139-.043l.04-.005.018-.001a.157.157 0 0 0 .015-.003.015.015 0 0 1 .01-.004Zm-.015.036a.35.35 0 0 1-.007 0l-.019.002a1.331 1.331 0 0 0-.038.005.29.29 0 0 0-.128.039l.005.002a.297.297 0 0 0 .072.017 1.292 1.292 0 0 0 .115.011v-.076Zm-.194.048Zm.457.088v-.007a.015.015 0 0 1 .025-.01c.03 0 .118.001.204.008a.92.92 0 0 1 .138.019.147.147 0 0 1 .045.016.037.037 0 0 1 .015.015.026.026 0 0 1-.001.023.069.069 0 0 1-.031.027.307.307 0 0 1-.05.019 1.209 1.209 0 0 1-.135.03 2.927 2.927 0 0 1-.182.025h-.004l-.002-.014.002.015a.015.015 0 0 1-.017-.014l-.007-.152Zm.037.134-.006-.122a2.677 2.677 0 0 1 .329.027.125.125 0 0 1 .038.013.05.05 0 0 1-.017.012.28.28 0 0 1-.045.017 1.18 1.18 0 0 1-.131.03 2.867 2.867 0 0 1-.168.023Zm-.056.074a.015.015 0 0 1 .011-.005h.004c.003 0 .006.001.008.003l.007.001a.407.407 0 0 0 .047.006l.05.005a.35.35 0 0 1 .066.013.05.05 0 0 1 .022.015c.004.004.006.01.006.016a.027.027 0 0 1-.007.015.104.104 0 0 1-.045.028.67.67 0 0 1-.142.026c-.01 0-.014-.007-.015-.008a.027.027 0 0 1-.003-.006.613.613 0 0 1-.012-.082v-.015c0-.005 0-.009.003-.012Zm.028.03a.481.481 0 0 0 .046.005l.049.005a.316.316 0 0 1 .064.013.098.098 0 0 1-.029.016.713.713 0 0 1-.122.024v-.003a.442.442 0 0 1-.008-.06Zm-1.194.325a.02.02 0 0 1-.013-.003.006.006 0 0 1-.002-.002s.002-.005.012-.01a.167.167 0 0 1 .053-.013c.102-.012.333.007.805.138a.79.79 0 0 1 .001.01v.007l.003.05v.044a2.215 2.215 0 0 0-.115-.034 21.485 21.485 0 0 0-.575-.154 2.88 2.88 0 0 0-.145-.03.146.146 0 0 0-.024-.003Zm.046-.058c.11-.013.348.008.828.142a.015.015 0 0 1 .01.014l.002.019v.008a2.281 2.281 0 0 1 .004.099l-.002.017a.022.022 0 0 1-.005.01.016.016 0 0 1-.02.004v-.001h-.001a.288.288 0 0 0-.034-.011 2.86 2.86 0 0 0-.808-.21.119.119 0 0 0-.02-.003.05.05 0 0 1-.032-.01.032.032 0 0 1-.012-.033c.003-.012.014-.022.028-.03a.195.195 0 0 1 .062-.015Zm.405.372.003.003a.191.191 0 0 0 .042.028c.04.021.098.046.16.07.114.043.235.081.265.09l.001-.005a1.07 1.07 0 0 0-.003-.128l-.007-.001a1.6 1.6 0 0 1-.051-.01l-.03-.006a6.629 6.629 0 0 0-.128-.024 1.748 1.748 0 0 0-.166-.023.384.384 0 0 0-.08.003.031.031 0 0 0-.006.003Zm.468.038Zm.01-.01-.012-.001a1.549 1.549 0 0 1-.05-.01l-.03-.005a6.575 6.575 0 0 0-.129-.024c-.058-.01-.12-.02-.169-.024a.414.414 0 0 0-.09.005.05.05 0 0 0-.02.01.025.025 0 0 0-.008.025.042.042 0 0 0 .012.02c.01.01.028.022.048.033.042.022.102.048.165.071.124.048.259.09.272.094a.023.023 0 0 0 .026-.01.053.053 0 0 0 .008-.02.275.275 0 0 0 .002-.054 1.196 1.196 0 0 0-.005-.095.015.015 0 0 0-.02-.015Zm.997.288c.002.011-.003.021-.01.029a.177.177 0 0 1-.058.04.719.719 0 0 1-.09.034 2.408 2.408 0 0 1-.232.057 5.35 5.35 0 0 1-.305.053h-.005l-.001.001-.003-.015.002.015c-.004 0-.008 0-.011-.003a.015.015 0 0 1-.006-.011l-.007-.18h.004c0-.008.005-.014.006-.015h.005a1.981 1.981 0 0 1 .117-.015c.07-.008.166-.017.258-.024.092-.006.182-.01.244-.004a.19.19 0 0 1 .073.015c.008.004.017.011.019.023Zm-.69.182.01-.001a5.666 5.666 0 0 0 .284-.05c.08-.016.162-.036.229-.057a.688.688 0 0 0 .086-.033.15.15 0 0 0 .048-.031.02.02 0 0 0 .003-.004l-.003-.003a.18.18 0 0 0-.061-.012 1.839 1.839 0 0 0-.24.005 6.365 6.365 0 0 0-.362.036l.007.15Zm-1.25.44.002.001a27.375 27.375 0 0 0 .77.265l.1.031.019.006-.003-.1a5.906 5.906 0 0 0-.572-.217.927.927 0 0 0-.268-.052.103.103 0 0 0-.048.01c-.008.005-.011.01-.012.015a.04.04 0 0 0 .002.021.09.09 0 0 0 .01.02Zm.906.323-.004.015c.005.001.01 0 .013-.003a.015.015 0 0 0 .006-.012l-.003-.131a.015.015 0 0 0-.01-.014 5.985 5.985 0 0 0-.583-.22.951.951 0 0 0-.278-.054.132.132 0 0 0-.063.014.052.052 0 0 0-.026.036.071.071 0 0 0 .004.036c.004.011.009.02.013.027a.035.035 0 0 0 .01.009 2.113 2.113 0 0 0 .154.065 27.912 27.912 0 0 0 .725.235l.028.009.01.003.004-.015Zm.946-.194c0 .01-.006.018-.012.024a.2.2 0 0 1-.05.038.624.624 0 0 1-.072.035 1.8 1.8 0 0 1-.178.06 3.602 3.602 0 0 1-.214.055l-.009.002-.005.002h-.005l-.003-.014.003.015c-.004 0-.01 0-.013-.003a.015.015 0 0 1-.005-.012v-.124a.015.015 0 0 1 .018-.014h.002l.018-.004a3.13 3.13 0 0 0 .067-.015l.02-.004c.053-.013.118-.027.18-.04.071-.015.14-.027.187-.03h.031c.01.001.018.003.025.006.007.004.015.011.015.023Zm-.533.092a3 3 0 0 0 .082-.018l.02-.004.18-.04a1.425 1.425 0 0 1 .209-.029l.01.002c-.001 0-.002 0-.002.002a.172.172 0 0 1-.043.031.593.593 0 0 1-.069.033 1.76 1.76 0 0 1-.175.06 3.548 3.548 0 0 1-.211.054h-.001v-.09Zm-1.573-.021 1.18.414v-.092a6.573 6.573 0 0 0-.731-.303 1.16 1.16 0 0 0-.348-.074c-.067.001-.089.02-.096.034a.038.038 0 0 0-.005.02Zm1.194.296c.008 0 .015.007.015.015v.124c0 .005-.002.01-.006.012a.015.015 0 0 1-.014.002l-1.207-.424a.015.015 0 0 1-.01-.01l.015-.004-.015.004v-.005a.068.068 0 0 1 .008-.046c.014-.027.049-.048.12-.049.072 0 .184.018.358.075.174.057.412.153.736.306Zm1.194.172a.051.051 0 0 1-.01.012.26.26 0 0 1-.07.04.944.944 0 0 1-.105.039 3.21 3.21 0 0 1-.27.069 6.845 6.845 0 0 1-.371.07.018.018 0 0 1-.014-.007.025.025 0 0 1-.005-.01.325.325 0 0 1 0-.057l.005-.039.002-.014a.228.228 0 0 1 0-.005c0-.008.007-.015.015-.015h.014a5.52 5.52 0 0 0 .183-.033c.075-.015.162-.031.247-.046.106-.02.209-.036.279-.041a.295.295 0 0 1 .08 0c.004.002.009.003.013.006a.023.023 0 0 1 .01.014.024.024 0 0 1-.003.017Zm-.81.113v.008a1.27 1.27 0 0 0-.007.076 1.607 1.607 0 0 0 .105-.017c.068-.012.158-.029.25-.05a3.35 3.35 0 0 0 .268-.068c.04-.012.074-.025.103-.037a.25.25 0 0 0 .058-.033.34.34 0 0 0-.065 0c-.068.006-.17.022-.275.041a18.47 18.47 0 0 0-.247.046l-.052.01a5.718 5.718 0 0 1-.137.024Zm-1.297.227h.008l.034.008c.027.007.064.018.107.033.085.03.195.07.304.114a22.512 22.512 0 0 1 .395.159l.021.008a.693.693 0 0 0 .003-.1 2.46 2.46 0 0 1-.03-.013l-.024-.01-.09-.038a6.268 6.268 0 0 0-.335-.128 1.47 1.47 0 0 0-.31-.08.229.229 0 0 0-.05 0 .061.061 0 0 0-.027.01.02.02 0 0 0-.009.014c0 .006 0 .013.003.023Zm.892.197a2.535 2.535 0 0 1-.04-.016l-.022-.01-.09-.037a6.306 6.306 0 0 0-.337-.13 1.496 1.496 0 0 0-.318-.081.258.258 0 0 0-.055 0 .091.091 0 0 0-.042.015.05.05 0 0 0-.02.036.097.097 0 0 0 .009.049.015.015 0 0 0 .02.007h.007a1.478 1.478 0 0 1 .134.039c.085.03.195.07.304.114a23.163 23.163 0 0 1 .395.159l.027.01.01.005a.015.015 0 0 0 .013 0 .016.016 0 0 0 .007-.007.025.025 0 0 0 .002-.007.733.733 0 0 0 .005-.121l.002-.002a.027.027 0 0 0 .003-.008.015.015 0 0 0-.014-.015Zm-.013.146.006-.014-.006.014Zm1.06-.318a.028.028 0 0 1-.007.01.176.176 0 0 1-.05.025.925.925 0 0 1-.08.027 10.164 10.164 0 0 1-.489.112l-.02.004h-.006l-.003-.014.003.015c-.004 0-.009 0-.012-.003a.015.015 0 0 1-.006-.012V8.72c0-.005.005-.01.006-.012l.003-.002h.002l.002-.001a.252.252 0 0 1 .027-.005 7.615 7.615 0 0 1 .538-.063.356.356 0 0 1 .08.005.026.026 0 0 1 .01.008.019.019 0 0 1 .003.018Zm-.64.146.007-.001a9.842 9.842 0 0 0 .487-.112 1.079 1.079 0 0 0 .1-.035h-.045c-.057.003-.14.011-.223.021a9.84 9.84 0 0 0-.326.045v.082Zm.614-.159Zm-.024.372a.021.021 0 0 1-.003.015.05.05 0 0 1-.016.016.655.655 0 0 1-.092.039 2.883 2.883 0 0 1-.19.053 7.316 7.316 0 0 1-.244.056l-.017.003-.006.002-.003-.015.003.015a.015.015 0 0 1-.018-.013l-.015-.116v-.006a.015.015 0 0 1 .016-.015h.004a.88.88 0 0 0 .019-.003l.047-.006.02-.003.204-.027a2.12 2.12 0 0 1 .198-.017.403.403 0 0 1 .064.002.048.048 0 0 1 .021.008.022.022 0 0 1 .008.012Zm-.57.049Zm0 .013.012-.001.047-.007a8.007 8.007 0 0 1 .42-.046h.051a.63.63 0 0 1-.08.032c-.053.018-.12.037-.188.053a7.208 7.208 0 0 1-.243.057h-.007l-.011-.088Zm-1.644-.004 1.197.385-.017-.105c-.63-.229-.928-.292-1.069-.299-.07-.003-.098.008-.108.016a.023.023 0 0 0-.003.003Zm1.193.268.005-.014c-.635-.23-.94-.296-1.085-.303-.073-.003-.11.007-.129.023a.046.046 0 0 0-.017.033.015.015 0 0 0 .01.017l1.234.397c.005.002.01.001.014-.002a.015.015 0 0 0 .005-.014l-.022-.139-.015.002Zm.435-.005a.015.015 0 0 1 .012-.006v.015-.015h.008a.442.442 0 0 1 .037.002c.027.002.062.004.097.008.034.004.069.01.093.018a.082.082 0 0 1 .031.016c.004.004.008.01.009.016a.028.028 0 0 1-.004.02.076.076 0 0 1-.026.021.601.601 0 0 1-.119.037 1.244 1.244 0 0 1-.101.015h-.009l-.002-.014.002.015a.015.015 0 0 1-.011-.004.015.015 0 0 1-.006-.01v-.012a.418.418 0 0 1-.004-.04.557.557 0 0 0-.01-.069.015.015 0 0 1 .003-.013Zm.04.116a1.253 1.253 0 0 0 .173-.034.18.18 0 0 0 .03-.013.057.057 0 0 0 .013-.01.065.065 0 0 0-.018-.009.485.485 0 0 0-.088-.016 1.628 1.628 0 0 0-.12-.01.954.954 0 0 1 .01.092Zm.558.212a.12.12 0 0 1-.026.027.874.874 0 0 1-.345.139 1.883 1.883 0 0 1-.206.032h-.004l-.002-.014.001.015a.015.015 0 0 1-.011-.004.015.015 0 0 1-.005-.011V9.7c0-.008.007-.015.015-.015a.205.205 0 0 0 .028-.005l.016-.003a10.837 10.837 0 0 1 .293-.05.931.931 0 0 1 .2-.01.112.112 0 0 1 .03.007c.008.003.017.01.02.02.005.01.001.021-.004.03Zm-.568.04.018-.004.017-.003.063-.012c.064-.012.149-.027.228-.038a.91.91 0 0 1 .192-.011.08.08 0 0 1 .022.005.015.015 0 0 1 .004.003l-.002.004a.094.094 0 0 1-.019.02.847.847 0 0 1-.332.133 1.852 1.852 0 0 1-.19.03v-.128Zm-.003-.023Zm1.061.119a.076.076 0 0 1-.015.035.223.223 0 0 1-.024.027.674.674 0 0 1-.064.033 13.267 13.267 0 0 1-.46.164 32.424 32.424 0 0 1-.435.143l-.03.01-.01.002-.005-.014.005.014a.015.015 0 0 1-.02-.014l-.004-.213c0-.007.005-.013.011-.015.296-.09.51-.147.665-.181a1.34 1.34 0 0 1 .304-.043.132.132 0 0 1 .062.014c.007.004.013.01.017.017a.038.038 0 0 1 .003.02Zm-1.028.38a.126.126 0 0 1 .004-.002l.017-.005a39.32 39.32 0 0 0 .434-.142 13.51 13.51 0 0 0 .458-.163.655.655 0 0 0 .056-.028.2.2 0 0 0 .02-.022.047.047 0 0 0 .01-.021l-.001-.005a.014.014 0 0 0-.005-.005.105.105 0 0 0-.048-.01 1.316 1.316 0 0 0-.297.043 9.16 9.16 0 0 0-.651.178l.003.182Zm.454.164a.037.037 0 0 1-.006.022 1.386 1.386 0 0 1-.276.08c-.054.006-.105.01-.143.013l-.045.003h-.017v-.001.002a.015.015 0 0 1-.011-.005.015.015 0 0 1-.005-.01v-.098h.015v-.015c.03 0 .077-.005.131-.011l.008-.001a4.73 4.73 0 0 1 .16-.015.72.72 0 0 1 .137 0 .081.081 0 0 1 .042.015c.006.005.01.012.01.02Zm-.354.01c-.046.004-.088.009-.119.01v.068h.001a2.076 2.076 0 0 0 .186-.016c.053-.007.109-.015.155-.027a.454.454 0 0 0 .063-.02.143.143 0 0 0 .037-.02.01.01 0 0 0 .001-.003c-.003-.003-.01-.006-.026-.008a.695.695 0 0 0-.131 0c-.052.003-.108.01-.16.015h-.007Zm.647.143a.066.066 0 0 1-.022.023.786.786 0 0 1-.186.085 3.257 3.257 0 0 1-.247.072c-.083.021-.16.039-.218.051l-.068.014-.019.004-.005.001h-.001l-.001-.002v.002a.015.015 0 0 1-.017-.016l.011-.098a.015.015 0 0 1 .015-.013l.008-.002a13.966 13.966 0 0 0 .097-.024l.03-.007a7.168 7.168 0 0 1 .543-.121.356.356 0 0 1 .04-.003c.01 0 .02 0 .029.004a.028.028 0 0 1 .012.012.021.021 0 0 1 0 .018Zm-.745.151-.007.066.005-.001a5.25 5.25 0 0 0 .53-.137.758.758 0 0 0 .178-.08l.003-.003H13.1c-.01 0-.022 0-.037.003-.06.007-.153.026-.254.05-.1.022-.204.049-.285.07l-.03.007-.069.018a1.34 1.34 0 0 1-.029.007Zm1.187-.03a.016.016 0 0 1 .008.013v.008l-.006.018a.209.209 0 0 1-.032.05.345.345 0 0 1-.182.108 1.002 1.002 0 0 0-.235.028c-.103.02-.224.05-.34.08a12.839 12.839 0 0 0-.4.11l-.026.008-.007.002h-.002l-.004-.014.004.014a.015.015 0 0 1-.014-.002.015.015 0 0 1-.005-.013l.007-.101h.015l-.008-.012c.178-.106.445-.208.686-.27a1.9 1.9 0 0 1 .33-.058.63.63 0 0 1 .125.002.197.197 0 0 1 .086.03Zm-1.204.319-.006.071a9.224 9.224 0 0 1 .416-.115c.116-.03.237-.059.341-.08.102-.02.19-.032.241-.028a.315.315 0 0 0 .16-.097.185.185 0 0 0 .026-.043l.003-.006a.185.185 0 0 0-.067-.02.606.606 0 0 0-.12-.002 1.873 1.873 0 0 0-.324.058 2.81 2.81 0 0 0-.67.262Zm-1.067.127a.138.138 0 0 1 .04-.005h.001c.353.038.488.171.528.223a.015.015 0 0 1 .003.01v.003c0 .003 0 .006-.002.008-.013.022-.038.033-.066.036a.318.318 0 0 1-.098-.007 1.065 1.065 0 0 1-.41-.194.098.098 0 0 1-.02-.026.034.034 0 0 1 0-.03c.004-.01.014-.015.024-.018Zm.54.23c-.042-.05-.173-.17-.501-.205a.103.103 0 0 0-.03.003.015.015 0 0 0-.007.003l.002.005c.002.004.006.01.013.017a1.036 1.036 0 0 0 .394.186c.036.007.066.01.09.007.018-.003.031-.008.039-.016Zm1.556-.2c.01.01.016.023.017.039 0 .003 0 .006-.002.009-.013.02-.037.03-.063.037a.385.385 0 0 1-.084.008.801.801 0 0 1-.099-.007h-.006l-.006-.002a.015.015 0 0 1 .005-.03l.004-.001a.77.77 0 0 0 .016-.008l.01-.005a.904.904 0 0 1 .082-.036c.03-.01.063-.02.089-.018a.065.065 0 0 1 .037.014Zm-.181.06c.02-.009.043-.02.066-.027a.206.206 0 0 1 .076-.017c.01.001.015.003.019.007a.021.021 0 0 1 .007.013.087.087 0 0 1-.041.02.354.354 0 0 1-.078.007l-.05-.002Zm-.54.332c.008.014.006.03-.002.045a.139.139 0 0 1-.079.062.373.373 0 0 1-.105.02.704.704 0 0 1-.12-.005l-.009-.001h-.002l.002-.016-.003.015a.015.015 0 0 1-.012-.015v-.075a.015.015 0 0 1 .018-.014l.01-.002.036-.008h.005c.032-.008.075-.017.116-.023a.352.352 0 0 1 .109-.004c.014.003.028.008.036.02Zm-.3.092a.809.809 0 0 0 .113.004.338.338 0 0 0 .096-.017.11.11 0 0 0 .062-.048c.006-.01.004-.015.003-.015 0-.002-.005-.005-.016-.008a.327.327 0 0 0-.099.004c-.04.006-.081.015-.114.023h-.004l-.036.008-.005.001v.048Zm-.995.238a1.15 1.15 0 0 1 .287.002 2.673 2.673 0 0 1 .16.023h.005l.006.001h.003v.001a.015.015 0 0 1 .012.015v.129a.015.015 0 0 1 .004.01.015.015 0 0 1-.014.015 1.558 1.558 0 0 1-.48-.064.26.26 0 0 1-.077-.02.726.726 0 0 1-.176-.101.125.125 0 0 1-.024-.028c-.005-.01-.009-.021-.004-.033a.015.015 0 0 1 .007-.008.194.194 0 0 1 .16-.01.598.598 0 0 1 .106.053l.025.015Zm.443.166v-.112l-.037-.006a2.8 2.8 0 0 0-.122-.016 1.09 1.09 0 0 0-.284-.002c-.003 0-.007 0-.01-.002l-.033-.018a.55.55 0 0 0-.097-.05.163.163 0 0 0-.13.005l.002.003c.003.005.01.012.018.02a.702.702 0 0 0 .166.095.223.223 0 0 0 .074.02c.147.043.3.065.453.063Zm1.017-.137c0 .017-.01.036-.026.059-.066.094-.184.12-.28.125a.786.786 0 0 1-.18-.014h-.001l.003-.015-.003.015a.015.015 0 0 1-.012-.013l-.011-.109.015-.002v-.014c.042 0 .099-.01.16-.023l.077-.017.1-.023a.664.664 0 0 1 .075-.011.14.14 0 0 1 .056.004.043.043 0 0 1 .02.014.038.038 0 0 1 .007.024Zm-.479.061a.882.882 0 0 0 .15-.022l.079-.018a3.21 3.21 0 0 1 .099-.023.623.623 0 0 1 .07-.01.115.115 0 0 1 .044.002c.004.001.005.003.006.004l.001.005c0 .008-.005.02-.02.043-.058.082-.163.108-.258.112a.742.742 0 0 1-.16-.01l-.002-.001-.009-.082Zm-.531.328-.01-.003a.899.899 0 0 0-.155-.036.482.482 0 0 0-.14-.001.195.195 0 0 0-.106.047.137.137 0 0 0 .059.073.46.46 0 0 0 .128.059.675.675 0 0 0 .195.027.103.103 0 0 0 .034-.008.041.041 0 0 0 .022-.033.145.145 0 0 0-.003-.055.369.369 0 0 0-.024-.07Zm.003-.03-.004-.002a.844.844 0 0 0-.16-.037.514.514 0 0 0-.148-.001.221.221 0 0 0-.129.062.015.015 0 0 0-.004.012c.006.041.035.075.073.1a.49.49 0 0 0 .136.063.701.701 0 0 0 .207.028.13.13 0 0 0 .045-.01.073.073 0 0 0 .038-.055.173.173 0 0 0-.004-.067c-.01-.043-.03-.082-.031-.086a.015.015 0 0 0-.017-.008h-.002Zm.987.148a.046.046 0 0 1-.01.021.1.1 0 0 1-.045.028.286.286 0 0 1-.062.012.876.876 0 0 1-.149 0 1.874 1.874 0 0 1-.19-.026h-.003l.002-.015-.002.014a.015.015 0 0 1-.013-.014v-.088a.014.014 0 0 1-.003-.008.015.015 0 0 1 .01-.016.516.516 0 0 1 .14-.016c.054 0 .111.006.162.015a.43.43 0 0 1 .127.039.077.077 0 0 1 .033.032.038.038 0 0 1 .003.022Zm-.442-.067v.074h.004a1.86 1.86 0 0 0 .175.023c.05.004.1.006.143.001a.254.254 0 0 0 .056-.01.071.071 0 0 0 .03-.019.017.017 0 0 0 .005-.007l-.001-.005c-.002-.005-.008-.01-.021-.018a.407.407 0 0 0-.117-.035.974.974 0 0 0-.156-.014.539.539 0 0 0-.118.01Z"/><path fill="#fff" d="m10.511 12.326-.007.132s-.233-.068-.308-.2c.135-.037.32.072.315.068Z"/><path fill="currentColor" d="M10.22 12.268a.448.448 0 0 0 .165.125.902.902 0 0 0 .087.037l.018.007.006-.102a.88.88 0 0 0-.095-.042.383.383 0 0 0-.18-.025Zm.296.043-.003-.001-.001-.001-.023-.011a.753.753 0 0 0-.078-.033.381.381 0 0 0-.218-.021.015.015 0 0 0-.01.008.015.015 0 0 0 0 .014c.04.07.12.12.189.154a.917.917 0 0 0 .125.05l.002.001.005-.014-.004.014c.004.002.01 0 .013-.002a.015.015 0 0 0 .006-.011l.008-.13a.015.015 0 0 0-.004-.012.015.015 0 0 0-.007-.005Z"/></g><defs><clipPath id="a"><path fill="#fff" d="M0 0h24v18H0z"/></clipPath></defs></svg>