<svg xmlns="http://www.w3.org/2000/svg" width="24" height="18" fill="none"><g clip-path="url(#a)"><path fill="#0067C6" d="M0 0h24v18H0V0Z"/><path fill="#fff" d="M0 6h24v6H0V6Z"/><path fill="#C8A400" d="M9.3 8.981 9.6 9v-.045l-.113-.008.008-.142.124-.09.003-.056-.131.093c-.004-.03-.022-.063-.052-.075-.03-.007-.06-.007-.087.012-.03.022-.037.06-.037.093l-.015.199Zm.045-.041.011-.15c.004-.023.008-.053.03-.068a.038.038 0 0 1 .056.02c.015.037.008.078.004.119l-.004.083-.097-.004Zm-.008-.42.293.067.067-.285a7.282 7.282 0 0 1-.04-.007l-.057.24-.09-.019.052-.217-.04-.012-.053.218-.075-.019.052-.232-.045-.008-.064.274Zm.105-.394.285.101.015-.041-.112-.037.045-.132c.007-.037.015-.075-.004-.112a.094.094 0 0 0-.075-.038c-.037 0-.06.027-.075.057a.473.473 0 0 0-.049.127l-.03.075ZM9.5 8.1l.045-.128c.01-.022.022-.048.048-.056a.038.038 0 0 1 .045.034c.008.037-.011.075-.022.112l-.026.072L9.5 8.1Zm.1-.338.162.098a.12.12 0 0 0 .101.007.244.244 0 0 0 .09-.112c.015-.038.03-.083.008-.12-.023-.038-.064-.053-.101-.075l-.102-.06-.022.037.15.09c.026.015.045.038.041.072a.225.225 0 0 1-.045.093c-.015.023-.045.042-.075.038-.03-.008-.056-.03-.082-.045l-.102-.056-.022.037v-.004Zm.218-.348.237.18.112-.143c.023-.034.038-.075.026-.112a.093.093 0 0 0-.075-.053c-.018 0-.037.011-.045.015.008-.034-.018-.064-.045-.071-.037-.011-.075.011-.097.037l-.075.094-.038.053Zm.06-.012a.785.785 0 0 1 .083-.105c.015-.015.037-.037.056-.022.019.007.026.034.015.049-.015.033-.037.056-.06.086l-.03.041-.064-.049Zm.098.075.086-.112c.015-.015.038-.038.06-.03a.037.037 0 0 1 .03.049c-.011.037-.041.067-.067.1l-.038.05-.075-.057h.004Zm.112-.382.207.217.176-.168-.03-.03-.143.135h-.003l-.177-.188-.03.034Zm.263-.233.184.237.037-.027-.187-.236-.034.026Zm.27-.183a.252.252 0 0 0-.075.067.135.135 0 0 0-.004.158.153.153 0 0 0 .06.056.135.135 0 0 0 .075.015.243.243 0 0 0 .101-.038.203.203 0 0 0 .075-.075.127.127 0 0 0 .012-.09l-.038.015c.008.06-.03.09-.075.113-.067.045-.131.041-.172-.019-.042-.071 0-.127.06-.165.04-.026.082-.045.12-.019l.033-.03a.12.12 0 0 0-.075-.022.177.177 0 0 0-.097.037V6.68Zm.356-.177-.034.338.05-.019.007-.105.15-.06.082.068.045-.02-.255-.22-.045.018Zm.038.038.1.082-.112.045.012-.13v.003Zm.618-.225.02.3.16-.008c.045-.007.09-.015.117-.052.037-.038.045-.101.026-.154a.132.132 0 0 0-.101-.09c-.045-.007-.09 0-.135 0l-.087.008v-.004Zm.045.041.132-.004a.113.113 0 0 1 .067.02.102.102 0 0 1-.03.184c-.022.006-.049.006-.071.01l-.083.004-.015-.214Zm.375-.056-.018.3.292.015v-.041l-.247-.015.003-.09.225.01v-.04l-.22-.012.003-.082.24.015v-.045L12.05 6.3h.003Zm.78.124-.108.28.037.016.09-.225v-.008l.008.012.105.3.048.018.11-.28-.038-.016-.087.225-.003.008-.008-.012-.101-.3-.053-.018Zm.405.176-.138.262-.038-.018.135-.267.041.023Zm.225.131a.251.251 0 0 0-.09-.037.135.135 0 0 0-.15.056.153.153 0 0 0-.022.079.13.13 0 0 0 .022.078.236.236 0 0 0 .075.075.23.23 0 0 0 .102.038.14.14 0 0 0 .082-.026l-.03-.034c-.052.037-.094.011-.135-.015-.067-.045-.094-.105-.052-.169.045-.067.116-.049.176-.011.037.026.075.056.067.101l.038.015a.12.12 0 0 0-.011-.075.193.193 0 0 0-.072-.075Zm.285.214-.31.127.037.034.097-.037.124.105-.026.1.037.035.079-.33-.038-.034Zm-.01.052-.03.128-.095-.075.124-.053Zm.24.158-.233.187.026.038.094-.075.09.112-.027.15.034.042.03-.158c.026.019.064.03.094.015.026-.015.052-.037.052-.067 0-.042-.026-.075-.048-.105l-.113-.14Zm-.008.06.097.12c.015.022.034.052.015.075-.011.022-.041.022-.06.007-.037-.026-.06-.063-.09-.097l-.037-.041.075-.064Zm.356.416-.338.015.027.045.105-.004.082.143-.06.086.026.045.184-.285-.026-.045Zm-.026.045-.075.113-.057-.105.132-.008Zm.22.353a.22.22 0 0 0-.1-.128.143.143 0 0 0-.17.038c-.037.037-.037.093-.025.146a.329.329 0 0 0 .075.154l-.023.007.015.041.143-.048-.057-.154-.03.011.038.113-.045.018a.262.262 0 0 1-.079-.142c-.011-.041-.011-.09.019-.12.037-.038.097-.049.139-.019.04.03.063.079.075.128a.1.1 0 0 1-.015.097c-.008 0 0 .011.003.015l.012.019a.104.104 0 0 0 .04-.083.262.262 0 0 0-.014-.093Zm.087.236-.169.03a.154.154 0 0 0-.07.03.093.093 0 0 0-.03.056v.09a.31.31 0 0 0 .037.086c.01.023.026.038.045.038a.15.15 0 0 0 .075 0l.168-.03-.007-.041-.165.03c-.075.015-.098-.023-.113-.09-.01-.068 0-.113.072-.124l.165-.034-.008-.041Zm.09.51-.311-.135.004.052.097.038.011.165-.09.056.004.049.289-.176-.004-.05Zm-.045.026-.112.071-.008-.12.12.049Zm-5.119.75-.045.011.049.184.045-.011-.049-.184Zm4.935 0 .045.011-.048.184-.045-.011.048-.184Zm-4.47.769-.337.037.03.042.105-.012.09.135-.053.094.03.038.162-.293-.027-.041Zm-.026.049-.064.112-.067-.097.131-.015Zm.154.135-.214.198.03.03.18-.168-.097.262.037.034.255-.075-.176.161.03.03.214-.199-.045-.045-.263.075.098-.25-.05-.053Zm.311.315-.18.243.233.173.026-.034-.199-.15.056-.075.177.139.026-.038-.176-.13.048-.065.188.143.026-.038-.225-.168Zm.293.217-.14.263.038.022.057-.105.127.068.03.15.049.026-.034-.158c.034.012.075.004.094-.022.019-.023.034-.049.022-.079-.007-.037-.048-.06-.078-.079l-.165-.086Zm.018.056.135.075c.023.015.05.034.045.06 0 .027-.026.038-.048.034-.045-.007-.083-.034-.12-.052l-.057-.03.045-.087Zm.323.12-.113.278.038.019.112-.278-.037-.019Zm.27.094a.25.25 0 0 0-.098-.015.134.134 0 0 0-.127.098.154.154 0 0 0 0 .078c0 .03.015.053.037.075.026.023.057.04.09.05a.204.204 0 0 0 .11.007.128.128 0 0 0 .074-.045l-.037-.023c-.038.049-.087.038-.135.019-.075-.026-.117-.075-.094-.15.026-.075.101-.075.165-.056.045.015.086.037.09.078l.045.008a.12.12 0 0 0-.034-.075.203.203 0 0 0-.086-.049Zm.3.068-.195.273.049.008.06-.086.165.026.033.097.05.008-.113-.319-.05-.007Zm.019.048.045.128-.12-.019.075-.109Zm.686-.045a.174.174 0 0 0-.09.034.135.135 0 0 0-.064.146.141.141 0 0 0 .038.075c.015.02.037.03.067.038a.245.245 0 0 0 .105 0 .196.196 0 0 0 .098-.045.128.128 0 0 0 .04-.075h-.044c-.011.06-.056.075-.105.082-.079.015-.139-.01-.154-.086-.015-.079.049-.116.113-.131.048-.008.093-.011.12.026l.037-.015a.12.12 0 0 0-.06-.049.202.202 0 0 0-.101 0Zm.199-.037.086.289.281-.083-.015-.041-.236.071-.026-.09.213-.064-.01-.037-.215.06-.022-.075.225-.068-.011-.04-.27.078Zm.326-.101.124.273.037-.018-.105-.225.293.13h.018l.038-.018-.128-.274-.037.02.105.224-.3-.135-.045.023Zm.33-.154.022.037.105-.075h.008l.139.214.037-.026-.139-.21v-.004l.11-.075-.023-.034-.26.173Zm.3-.21.202.225.034-.034-.079-.086.105-.098.15.023.045-.038-.16-.022c.018-.026.025-.068.007-.098-.015-.026-.038-.048-.072-.045-.037 0-.075.03-.1.053l-.132.124v-.004Zm.06.004.112-.105c.023-.015.053-.034.075-.02.027.012.027.042.012.06-.023.038-.057.065-.09.098l-.042.038-.067-.075v.004Zm.289-.353.135.311.03-.037-.038-.098.101-.127.102.022.033-.037-.33-.075-.033.041Zm.052.011.131.027-.075.093-.056-.12Zm.079-.18.251.162.131-.203-.037-.022-.101.16-.004.008h-.004l-.214-.142-.022.037Z"/><path fill="#fff" d="m12 6.792-.945 1.635-.462.801h2.814l-.441-.762L12 6.792Z"/><path fill="#17C0EB" d="m12 6.792-.072.12.072 1.65.072-1.65-.072-.12Z" opacity=".6"/><path fill="#17C0EB" fill-rule="evenodd" d="m12 6.79.073.122-.072 1.65h-.003l-.072-1.65.074-.123Zm-.07.122L12 8.528l.07-1.616-.07-.117-.07.117Z" clip-rule="evenodd" opacity=".6"/><path fill="#fff" d="M12 8.325h-.003l.003.09.003-.09H12Z"/><path fill="red" d="M12 7.974c-.32 0-.629.114-.87.324l-.438.762a1.342 1.342 0 0 0-.024.249h.15a1.182 1.182 0 0 1 2.361 0h.15c0-.084-.006-.167-.021-.25l-.438-.761a1.33 1.33 0 0 0-.87-.324Z"/><path fill="#F60" d="M12 8.001c-.34 0-.665.13-.91.366l-.36.627a1.308 1.308 0 0 0-.038.312h.129a1.182 1.182 0 0 1 2.358 0h.129c0-.106-.013-.212-.04-.315l-.36-.624A1.305 1.305 0 0 0 12 8.001Z"/><path fill="#FF0" d="M12 8.024a1.281 1.281 0 0 0-.96.43l-.261.45c-.042.13-.062.267-.06.404h.099a1.182 1.182 0 0 1 2.36 0h.106c0-.14-.024-.276-.063-.402l-.264-.453A1.278 1.278 0 0 0 12 8.024Z"/><path fill="#0F0" d="M12 8.049a1.26 1.26 0 0 0-1.047.558l-.084.147a1.256 1.256 0 0 0-.129.555h.081a1.182 1.182 0 0 1 2.358 0h.081c0-.193-.044-.382-.129-.555l-.084-.15A1.26 1.26 0 0 0 12 8.046v.003Z"/><path fill="#0CF" d="M12 8.07a1.236 1.236 0 0 0-1.236 1.238h.057a1.182 1.182 0 0 1 2.358 0h.057A1.237 1.237 0 0 0 12 8.07Z"/><path fill="#00F" d="M12 8.094a1.212 1.212 0 0 0-1.212 1.212h.042a1.17 1.17 0 0 1 2.34 0h.042A1.212 1.212 0 0 0 12 8.1v-.006Z"/><path fill="purple" d="M12 8.121a1.188 1.188 0 0 0-1.188 1.21h.024v-.025a1.164 1.164 0 0 1 2.328.024h.024v-.024A1.188 1.188 0 0 0 12 8.118v.003Z"/><path fill="#510000" d="M12.012 8.643c-.021 0-.036-.015-.054-.018a.067.067 0 0 0-.021.063c.009.003.009.012.027.027.018.015.015.021.012.06 0 .012.003.045.018.048.015.003.03-.009.033-.036a.102.102 0 0 1 .021-.048c.009-.057-.006-.078-.036-.096Z"/><path fill="red" d="M11.916 8.505c-.018 0-.048.03-.06.015a.042.042 0 0 1 0-.042.144.144 0 0 1 .066-.07c.069-.041.117-.03.15.03a.412.412 0 0 1 .069.163c0 .015.009.042-.006.057-.04.042-.138-.045-.195-.03-.018.003-.042.018-.06.006-.012-.01 0-.03.009-.04.018-.014.045-.071.042-.095 0-.012 0 .006-.015.006Z"/><path fill="url(#b)" d="M11.91 8.478c-.036.012-.03.03-.048.045.006.003.024.01.042-.009a.032.032 0 0 1 .021-.009l-.02.021a.156.156 0 0 0-.043.054c-.009.024-.012.051-.009.054 0 0 .012.024.045.036.06.024.072.075.135.075.048 0 .042-.033.081-.027.03.006.051-.02.018-.036a.42.42 0 0 0-.162 0c-.012-.12 0-.078-.003-.132-.003-.05-.02-.054 0-.099-.015.03-.036.024-.06.024l.003.003Z"/><path fill="#FF2A2A" d="m12.03 8.394-.003.018.009.03.006.03c0 .009.012.012.02.018.013.009 0 .03.01.033.006 0 .015-.03.015-.036v-.021a.408.408 0 0 0-.021-.036.128.128 0 0 0-.024-.027.174.174 0 0 0-.01-.006l-.005-.003h.003Z"/><path fill="url(#c)" d="m12.04 8.622-.06-.021c-.04-.012-.079-.036-.106-.024-.009.003-.009.012-.012.027 0 .015-.015.039 0 .03.018-.012.072.024.09.033.01.006.03.018.033.03.006.018 0 .054 0 .072 0 .015.006.054.021.06.018.003.033-.012.04-.04.008-.026.011-.041.023-.056s.024-.024.04-.027c.017 0 .041.015.041-.006 0-.012-.012-.024-.006-.042.003-.015-.012-.012-.027-.018l-.08-.018h.002Z"/><path fill="#910000" d="M11.952 8.667c-.012-.006-.069-.045-.09-.03-.009 0-.012 0-.012-.01l.006-.026a.04.04 0 0 1 .015-.03c.021-.018.07.015.093.024l-.012.072Z"/><path fill="#FF3A3A" d="M12.054 8.743c.027-.048.045-.042.078-.042.012 0 .015-.01.012-.021-.01.018-.051 0-.075.009-.045.02-.036.11-.06.12.024.02.033-.051.045-.066Z"/><path fill="#fff" d="m10.593 9.228-.3.519h3.417l-.3-.516h-2.814l-.003-.003Z"/><path fill="url(#d)" d="M10.491 9.642a1.08 1.08 0 0 0-.141.009l-.015.027c.072-.01.141-.021.216-.021.096 0 .186.024.291.024h.138c.105 0 .192-.024.291-.024.099 0 .189.024.294.024h.138c.105 0 .192-.024.291-.024.099 0 .189.024.294.024h.135c.105 0 .195-.024.294-.024.099 0 .189.024.294.024h.135c.105 0 .195-.024.294-.024.078 0 .15.015.225.02l-.015-.03a1.141 1.141 0 0 0-.132-.005h-.135c-.105 0-.195.02-.294.024-.099 0-.189-.024-.294-.024h-.135c-.105 0-.195.02-.294.024-.099 0-.189-.024-.294-.024h-.132c-.105 0-.195.02-.294.024-.099 0-.189-.024-.294-.024h-.135c-.105 0-.195.02-.294.024-.099 0-.186-.024-.291-.024h-.141Z"/><path fill="url(#e)" d="M10.596 9.225v.006h2.811l-.003-.006h-2.808Zm-.006.009-.003.009h2.823l-.003-.01h-2.82.003Zm-.006.012-.006.009h2.844l-.006-.01h-2.832Zm-.009.015-.009.015h2.868l-.009-.015h-2.85Zm-.012.02-.009.016h2.892l-.009-.015h-2.874Zm-.012.022-.006.012h2.91l-.006-.012h-2.898Zm-.012.02-.006.013h2.937l-.009-.012H10.54Zm-.012.022-.009.018h2.964l-.009-.018h-2.946Z"/><path fill="url(#f)" d="M10.722 9.37c.102.02.111 0 .111 0h-.11Zm2.445 0s.01.02.111 0h-.11Z"/><path fill="url(#g)" d="M12.918 8.91c-.05 0-.066.027-.066.027-.08.318-.354.64-.678.64h-.24V9.9h1.842l-.186-.33c-.29-.042-.528-.339-.603-.633 0 0-.018-.027-.069-.027Z"/><path fill="#97C924" d="M12.918 8.925c-.024 0-.036.003-.045.01l-.01.008a1.009 1.009 0 0 1-.251.441.619.619 0 0 1-.438.207h-.231v.297h1.827l-.171-.3a.65.65 0 0 1-.372-.204 1.007 1.007 0 0 1-.252-.44l-.01-.01a.084.084 0 0 0-.047-.009Z"/><path fill="#EDE71F" d="M12.918 8.925h.012v.324a.39.39 0 0 1-.06.192c-.015.048-.03.03-.07.087a1.082 1.082 0 0 1-.483.039.69.69 0 0 0 .358-.255c.033-.042.063-.086.09-.132l.03-.06a1.025 1.025 0 0 0 .069-.177l.009-.01.018-.005.03-.003h-.003Z"/><path fill="#C6CB24" d="M12.9 8.968c-.015.18-.07.396-.201.534-.048.039-.111.078-.168.069.2-.165.324-.42.366-.603h.003Z"/><path fill="#9ECB34" d="M12.735 9.28c-.03.08-.144.2-.264.3h-.087c.075-.007.25-.15.351-.3Z"/><path fill="url(#h)" d="M12.066 8.94c.084.315.354.636.678.636h.243V9.9h-1.974v-.324h.24c.324 0 .597-.32.678-.639 0 0 .018-.024.07-.024.05 0 .065.024.065.024v.003Z"/><path fill="#97C924" d="M12 8.925c.024 0 .036.006.045.01l.01.008c.044.166.131.318.251.441s.27.207.438.207h.231v.297h-1.95v-.3h.231a.62.62 0 0 0 .438-.204 1.01 1.01 0 0 0 .25-.44l.008-.01A.09.09 0 0 1 12 8.925Z"/><path fill="#EDE71F" d="M11.98 8.925h-.01l-.018.009-.009.009a.887.887 0 0 1-.03.09 1.038 1.038 0 0 1-.066.147 1.017 1.017 0 0 1-.153.204.69.69 0 0 1-.294.183c.084.02.12 0 .195-.012.06-.01.126-.018.18-.036.045-.06.03-.04.045-.087.036-.066.09-.126.102-.201a.813.813 0 0 0 .057-.306Z"/><path fill="#C6CB24" d="M11.98 8.967c-.013.18-.07.396-.202.534-.048.039-.108.078-.168.069a1.16 1.16 0 0 0 .37-.603Z"/><path fill="#9ECB34" d="M11.814 9.28a.93.93 0 0 1-.264.3h-.084c.075-.007.246-.15.348-.3Z"/><path fill="#EDE71F" d="m12.03 8.928.016.006.011.009.03.09c.011.03.023.06.037.09l.03.057a.997.997 0 0 0 .152.204.72.72 0 0 0 .295.195c-.22 0-.313-.018-.39-.12a.57.57 0 0 1-.127-.21c-.014-.06-.06-.195-.056-.321h.002Z"/><path fill="#C6CB24" d="M12.045 8.967c.012.18.066.36.198.498.048.042.108.078.168.069a.933.933 0 0 1-.366-.567Z"/><path fill="url(#i)" d="M11.544 8.91c-.054 0-.069.027-.069.027-.075.294-.354.67-.645.714l-.144.25h1.47v-.34c-.264-.072-.477-.35-.546-.624 0 0-.015-.024-.069-.024l.003-.003Z"/><path fill="#97C924" d="M11.544 8.925c-.024 0-.04.006-.048.009l-.01.009a1.3 1.3 0 0 1-.242.45c-.102.129-.291.258-.42.27l-.13.225h1.44v-.321a.696.696 0 0 1-.284-.18 1.008 1.008 0 0 1-.252-.444l-.01-.009a.087.087 0 0 0-.044-.009Z"/><path fill="#93BC30" d="M11.502 8.968c-.018.27-.168.615-.339.672-.057.02-.153.027-.186.03a1.08 1.08 0 0 0 .528-.702h-.003Z"/><path fill="#EDE71F" d="M11.544 8.925h-.015v.324c0 .069.027.126.06.192l.006.015c.015.033.024.045.069.08a.66.66 0 0 0 .444.12 1.06 1.06 0 0 0-.102-.071l.135-.015a.69.69 0 0 1-.291-.186.916.916 0 0 1-.042-.045l-.018-.024a1.05 1.05 0 0 1-.096-.135 1.1 1.1 0 0 1-.096-.237l-.01-.01a.109.109 0 0 0-.048-.009h.004Z"/><path fill="#CCD11E" d="M11.562 8.968c.015.18.069.396.201.534.048.039.108.078.168.069a1.155 1.155 0 0 1-.369-.603Z"/><path fill="#9ECB34" d="M11.688 9.219c.098.19.25.346.438.447h.075c-.132-.072-.345-.174-.51-.45l-.003.003Z"/><path fill="#fff" d="M13.695 9.741c-.018.006-.132-.006-.192 0l-.04.009h-.098c-.108 0-.201.03-.303.03-.102 0-.195-.03-.3-.03h-.102c-.108 0-.201.03-.303.03-.102 0-.195-.03-.3-.03h-.102c-.108 0-.201.03-.3.03-.105 0-.195-.03-.303-.03h-.102c-.108 0-.198.03-.3.03-.105 0-.195-.03-.303-.03h-.102c-.084 0-.186.018-.267.024l-.19.327h3.823l-.216-.36Z"/><path fill="url(#j)" d="M13.44 9.693h-.018c-.096.003-.168.033-.336.033s-.186-.03-.378-.024c-.18 0-.252.036-.351.036-.096 0-.252-.02-.375-.009-.12.012-.264.04-.36.04-.117 0-.234-.022-.354-.01-.123.012-.18.045-.333.045-.132 0-.27-.02-.384-.02-.102 0-.216.03-.3.041l-.027.045c.069-.009.258-.039.324-.039.072 0 .32.015.459.01.14-.004.156-.037.32-.037.115 0 .199.012.316.012.075 0 .14-.036.252-.036l.084-.003c.093-.015.252 0 .36.006.099.006.165-.018.27-.02l.132-.004c.105-.006.192.018.29.018.097-.006.193-.03.295-.03l.135-.006c.069 0 .177 0 .249.015l-.024-.042c-.072-.003-.16-.02-.246-.02Z"/><path fill="url(#k)" d="M10.509 10.044c-.102 0-.192.024-.288.027a.929.929 0 0 1-.108-.009l-.015.024h.18c.105 0 .192-.024.288-.027.099.003.186.03.29.03h.136c.102 0 .192-.027.288-.03.099.003.189.03.29.03h.136c.105 0 .192-.027.29-.03.097.003.184.03.289.03h.135c.102 0 .192-.027.29-.03.097.003.187.03.289.03h.135c.105 0 .192-.027.288-.03.099.003.186.03.29.03h.136l.054-.003-.015-.024c-.03.003-.063.009-.096.009-.1 0-.186-.03-.291-.03h-.135c-.102 0-.192.03-.288.03-.1-.003-.186-.03-.291-.03h-.135c-.102 0-.192.03-.288.03-.1-.003-.186-.03-.291-.03h-.135c-.105 0-.192.03-.288.03-.1-.003-.186-.03-.291-.03h-.135c-.102 0-.192.03-.288.03-.1-.003-.186-.03-.291-.03h-.135v.003Z"/><path fill="#97C924" d="m10.317 9.74-.075.127c.087-.015.213-.051.32-.051.109 0 .24.027.373.03.15 0 .21-.036.33-.048.123-.012.24.015.36.018.093 0 .237-.033.36-.045.12-.015.23.009.375.009.147.003.17-.036.348-.04.192-.002.21.028.378.028.126.006.237-.027.35-.033.115-.01.166 0 .25 0l-.057-.096-3.04.069-.272.033Z"/><path fill="#fff" d="m13.5 9.738.12.01.087.008-.012-.015c-.018.006-.132-.006-.192 0l-.003-.003Z"/><path fill="#C8A400" d="m12 6.746-.964 1.669-.986 1.71h3.9l-.964-1.673L12 6.75v-.004Zm0 .09.945 1.639.926 1.605H10.13l.945-1.643.926-1.6Z"/></g><defs><linearGradient id="b" x1="11.961" x2="12.018" y1="8.673" y2="8.502" gradientUnits="userSpaceOnUse"><stop stop-color="#510000"/><stop offset=".3" stop-color="#8A0000"/><stop offset="1" stop-color="#A00"/></linearGradient><linearGradient id="c" x1="12.042" x2="12.087" y1="8.742" y2="8.622" gradientUnits="userSpaceOnUse"><stop stop-color="#FF2A2A"/><stop offset="1" stop-color="red"/></linearGradient><linearGradient id="d" x1="10.335" x2="16.032" y1="9.525" y2="9.525" gradientUnits="userSpaceOnUse"><stop stop-color="#025"/><stop offset=".5" stop-color="#04A"/><stop offset="1" stop-color="#025"/></linearGradient><linearGradient id="e" x1="10.335" x2="16.032" y1="9.525" y2="9.525" gradientUnits="userSpaceOnUse"><stop stop-color="#025"/><stop offset=".5" stop-color="#04A"/><stop offset="1" stop-color="#025"/></linearGradient><linearGradient id="f" x1="10.335" x2="16.032" y1="9.525" y2="9.525" gradientUnits="userSpaceOnUse"><stop stop-color="#025"/><stop offset=".5" stop-color="#04A"/><stop offset="1" stop-color="#025"/></linearGradient><linearGradient id="g" x1="11.544" x2="11.544" y1="9.351" y2="9.528" gradientUnits="userSpaceOnUse"><stop stop-color="#F5F549"/><stop offset="1" stop-color="#97C924"/></linearGradient><linearGradient id="h" x1="11.544" x2="11.544" y1="9.351" y2="9.528" gradientUnits="userSpaceOnUse"><stop stop-color="#F5F549"/><stop offset="1" stop-color="#97C924"/></linearGradient><linearGradient id="i" x1="11.544" x2="11.544" y1="9.351" y2="9.528" gradientUnits="userSpaceOnUse"><stop stop-color="#F5F549"/><stop offset="1" stop-color="#97C924"/></linearGradient><linearGradient id="j" x1="10.224" x2="13.714" y1="9.694" y2="9.694" gradientUnits="userSpaceOnUse"><stop stop-color="#025"/><stop offset=".5" stop-color="#04A"/><stop offset="1" stop-color="#025"/></linearGradient><linearGradient id="k" x1="10.111" x2="13.888" y1="10.042" y2="10.042" gradientUnits="userSpaceOnUse"><stop stop-color="#025"/><stop offset=".5" stop-color="#04A"/><stop offset="1" stop-color="#025"/></linearGradient><clipPath id="a"><path fill="#fff" d="M0 0h24v18H0z"/></clipPath></defs></svg>