<svg xmlns="http://www.w3.org/2000/svg" width="24" height="18" fill="none"><g clip-path="url(#a)"><path fill="#fff" d="M0 0h24v18H0V0Z"/><path fill="#CE0000" fill-rule="evenodd" d="M.229 17.771h13.317L4.83 8.934l9.046.01L.232.23v17.54H.229Z" clip-rule="evenodd"/><path fill="#000063" fill-rule="evenodd" d="m-.01-.215 14.718 9.402-9.297-.011 8.714 8.838H.228v-.243H-.01V-.215Zm.484 17.743h12.492L4.25 8.69l8.794.01L.474.672v16.857Z" clip-rule="evenodd"/><path fill="#fff" fill-rule="evenodd" d="m6.353 13.071-.95.316.746.697-1.002-.064.411.921-.896-.432.017 1.005-.66-.734-.377.935-.323-.925-.714.725.063-.974-.945.4.443-.879-1.03.022.755-.644-.96-.369.95-.316-.749-.696.998.063-.407-.921.9.432-.018-1.005.661.735.376-.936.32.925.717-.724-.067.974.95-.401-.447.879 1.034-.021-.756.643.96.37Zm-1.14-6.493-.397.295.197.162a3.298 3.298 0 0 0 1.08-1.266c.063.749-.623 2.426-2.416 2.444A2.482 2.482 0 0 1 1.164 5.74c.351.64.57.95 1.125 1.283l.165-.154-.373-.313.482-.127-.26-.436.506.035-.063-.506.443.26.14-.474.317.38.299-.363.161.492.415-.288-.053.503.5-.06-.236.464.482.14Z" clip-rule="evenodd"/></g><defs><clipPath id="a"><path fill="#fff" d="M0 0h24v18H0z"/></clipPath></defs></svg>