<svg xmlns="http://www.w3.org/2000/svg" width="24" height="18" fill="none"><g fill-rule="evenodd" clip-path="url(#a)" clip-rule="evenodd"><path fill="#002170" d="M-2.998 0h36v18h-36V0Z"/><path fill="#FFB20D" d="M-2.998 8.23h36v1.544h-36V8.23Z"/><path fill="#fff" d="m7.612 15.399-1.16-1.16-.37 1.596-.421-1.582-1.122 1.195.426-1.582-1.565.475 1.16-1.16-1.596-.373 1.582-.422-1.195-1.118 1.582.422-.478-1.565 1.16 1.16.373-1.596.422 1.582 1.118-1.195-.422 1.582 1.564-.474-1.16 1.16 1.596.369-1.582.422L8.72 14.26l-1.582-.43.475 1.569Z"/></g><defs><clipPath id="a"><path fill="#fff" d="M0 0h24v18H0z"/></clipPath></defs></svg>