<svg xmlns="http://www.w3.org/2000/svg" width="24" height="18" fill="none"><g clip-path="url(#a)"><path fill="#fff" fill-rule="evenodd" d="M0 0h24.172v12.004H0V0Z" clip-rule="evenodd"/><path fill="#C00" d="M0 0v.9l5.767 2.97 2.173.063L0 0Z"/><path fill="#006" d="m2.468 0 6.996 3.653V0H2.468Z"/><path fill="#C00" d="M10.397 0v4.664H0v2.661h10.402v4.664h3.194V7.325h10.402v-2.66H13.595V0h-3.198Z"/><path fill="#006" d="M14.524 0v3.44L21.366.029 14.524 0Z"/><path fill="#C00" d="m14.742 3.817 1.926-.015 7.47-3.774-1.984.03-7.407 3.764-.005-.005Z"/><path fill="#006" d="M0 8.104v2.555l4.8-2.53-4.8-.02v-.005Z"/><path fill="#C00" d="m18.477 8.21-2.003-.014 7.538 3.75-.048-.856-5.492-2.88h.005ZM1.872 12.015l7.07-3.716-1.854.014L0 12.004"/><path fill="#006" d="m24.09 1.055-5.71 2.83 5.632.024v4.214h-4.794l4.75 2.58.068 1.306-2.535-.03-6.948-3.41v3.444h-5.07v-3.45L2.966 12l-2.947.01v11.989h47.976V.019L24.143 0l-.053 1.055Zm-24.061.3L0 3.842l5.051.062-5.027-2.55H.03Z"/><path fill="#FFD900" fill-rule="evenodd" d="M23.997 0H48v23.998H24.002L23.997 0Z" clip-rule="evenodd"/><path fill="#FFD900" fill-rule="evenodd" d="M0 11.999h25.328v11.999H0V11.999Z" clip-rule="evenodd"/><path fill="#000067" fill-rule="evenodd" d="M14.075 6.062a2.072 2.072 0 0 1-3.568 1.528 2.07 2.07 0 1 1 3.568-1.528Z" clip-rule="evenodd"/><path fill="#FFF40D" fill-rule="evenodd" d="m11.621 5.53.397-1.19.396 1.19h1.292l-1.045.735.402 1.186-1.045-.74-1.045.735.401-1.186-1.045-.735 1.292.005Zm7.185.193.198-.556.194.561h.643l-.517.339.198.556-.518-.339-.518.34.199-.557-.518-.339.639-.005ZM11.81 9.87l.193-.557.199.557h.638l-.517.338.198.562-.518-.344-.517.339.198-.552-.518-.343h.644Zm0-8.08.193-.561.199.556h.638l-.517.343.198.557-.518-.339-.517.339.198-.557-.518-.338h.644ZM4.785 5.718l.198-.556.194.556h.643l-.518.344.199.556-.518-.338-.518.338.199-.556-.518-.339.639-.005Z" clip-rule="evenodd"/></g><defs><clipPath id="a"><path fill="#fff" d="M0 0h24v18H0z"/></clipPath></defs></svg>