<svg xmlns="http://www.w3.org/2000/svg" width="24" height="18" fill="none"><g clip-path="url(#a)"><path fill="#00247D" fill-rule="evenodd" d="M0 0h24v18H0V0Z" clip-rule="evenodd"/><path fill="#fff" fill-rule="evenodd" d="M5.375 4.113-.387.641.387-.643l6.44 3.881 6.44-3.88L14.04.64 8.28 4.113l5.761 3.473-.773 1.283-6.44-3.88-6.44 3.88-.774-1.283 5.762-3.473Z" clip-rule="evenodd"/><path fill="#CC142B" fill-rule="evenodd" d="M5.859 4.114-.258.428l.516-.856 6.569 3.959 6.568-3.959.516.856-6.116 3.686L13.91 7.8l-.516.856-6.568-3.958L.258 8.656-.258 7.8 5.86 4.114Z" clip-rule="evenodd"/><path fill="#fff" d="M5.689 0v2.978H0V5.25h5.689v2.977h2.276V5.254h5.685V2.978H7.965V0H5.689Z"/><path fill="#CC142B" d="M6.143 0v3.431H0v1.365h6.143v3.431h1.365V4.8h6.146V3.431H7.508V0H6.143Z"/></g><defs><clipPath id="a"><path fill="#fff" d="M0 0h24v18H0z"/></clipPath></defs></svg>