<svg xmlns="http://www.w3.org/2000/svg" width="24" height="18" fill="none"><g clip-path="url(#a)"><path fill="#EF2D29" fill-rule="evenodd" d="M-.124-.81h26.336v20.738H-.124V-.81Z" clip-rule="evenodd"/><path fill="#009025" fill-rule="evenodd" d="M6.547 11.898h20.089v7.79H6.546v-7.79Z" clip-rule="evenodd"/><path fill="#fff" fill-rule="evenodd" d="M6.548-1.327H27.73v7.125H6.544l.004-7.125Z" clip-rule="evenodd"/><path fill="#fff" d="M5.25 2.61h-.86c-.047 0-.084.036-.084.079v.408c0 .044.037.079.084.079h.86c.047 0 .084-.035.084-.079V2.69c0-.043-.037-.079-.084-.079Z"/><path fill="#EF2D28" fill-rule="evenodd" d="M4.39 2.615c-.044 0-.08.034-.08.074v.408c0 .04.036.074.08.074h.86c.044 0 .08-.033.08-.074V2.69c0-.04-.036-.074-.08-.074h-.86Zm-.09.074c0-.046.041-.084.09-.084h.86c.05 0 .09.038.09.084v.408c0 .047-.04.084-.09.084h-.86c-.049 0-.09-.037-.09-.084V2.69Z" clip-rule="evenodd"/><path fill="#fff" d="M5.23 2.634h-.817c-.044 0-.08.032-.08.072v.374c0 .04.036.073.08.073h.816c.044 0 .08-.033.08-.073v-.374c0-.04-.036-.072-.08-.072Z"/><path fill="#EF2D28" fill-rule="evenodd" d="M4.412 2.639c-.042 0-.075.03-.075.068v.374c0 .037.033.068.075.068h.817c.042 0 .075-.03.075-.068v-.374c0-.037-.033-.068-.075-.068h-.817Zm-.084.068c0-.043.038-.077.084-.077h.817c.046 0 .084.034.084.077v.374c0 .043-.038.077-.084.077h-.817c-.046 0-.084-.034-.084-.077v-.374Z" clip-rule="evenodd"/><path fill="#fff" fill-rule="evenodd" d="m4.787 2.774.05.002.001.023.04.02.032-.026.038.021-.035.023.008.03.045-.001v.04h-.035l-.019.025.04.03-.03.023-.035-.025-.049.01.003.037-.054.004-.007-.036-.045-.019-.024.026-.038-.02.022-.028-.027-.02H4.63l-.002-.053.038.004.027-.031-.032-.024.04-.028.03.023.049-.007.007-.023Z" clip-rule="evenodd"/><path fill="#EF2D28" fill-rule="evenodd" d="m4.784 2.772.054.003.002.023.038.02.031-.027.044.024-.038.024.008.027.045-.002v.047l-.037-.002-.016.022.042.03-.036.028-.035-.026-.046.01.003.037-.06.004-.006-.037-.042-.017-.025.025-.043-.021.023-.03-.024-.016h-.04l-.002-.06.04.004.024-.028-.032-.024.045-.031.03.023.046-.007.007-.023Zm.004.006-.007.022-.052.008-.028-.022-.036.024.031.023-.03.035-.036-.003.002.047h.036l.03.02-.022.03.033.016.025-.025.048.02.007.035.048-.003-.003-.038.053-.01.034.025.026-.02-.04-.03.021-.029.034.002V2.87l-.044.002-.01-.036.034-.02-.032-.018-.032.026-.043-.022-.002-.022-.045-.002Z" clip-rule="evenodd"/><path fill="#fff" d="M4.8 2.933c.03 0 .055-.02.055-.046 0-.025-.025-.046-.055-.046s-.054.02-.054.046.024.046.054.046Z"/><path fill="#EF2D28" fill-rule="evenodd" d="M4.8 2.844c-.028 0-.05.02-.05.043 0 .024.022.043.05.043.03 0 .052-.02.052-.043 0-.023-.023-.043-.051-.043Zm-.057.043c0-.027.026-.05.058-.05.03 0 .057.023.057.05 0 .028-.026.05-.057.05-.032 0-.058-.022-.058-.05Z" clip-rule="evenodd"/><path fill="#fff" fill-rule="evenodd" d="m4.464 2.657-.08.07.08-.07Zm.053 0-.08.07.08-.07Zm.052 0-.079.07.08-.07Zm.053 0-.079.07.079-.07Zm.053 0-.08.07.08-.07Zm.053 0-.08.07.08-.07Zm.053 0-.08.07.08-.07Zm.052 0-.079.07.08-.07Zm.053 0-.08.07.08-.07Zm.053 0-.08.07.08-.07Zm.051 0-.079.07.08-.07Zm.053 0-.079.07.08-.07Zm-.21 0-.079.07.079-.07Zm.264 0-.08.07.08-.07Zm.053 0-.08.07.08-.07Zm.053 0-.08.07.08-.07Zm.052 0-.079.07.08-.07Zm-.079 0 .08.07-.08-.07Zm-.052 0 .079.07-.08-.07Zm-.053 0 .079.07-.08-.07Zm-.053 0 .079.07-.08-.07Zm-.053 0 .079.07-.079-.07Zm-.053 0 .08.07-.08-.07Zm-.053 0 .08.07-.08-.07Zm-.052 0 .078.07-.078-.07Zm-.054 0 .08.07-.08-.07Zm-.052 0 .079.07-.08-.07Zm-.053 0 .079.07-.079-.07Zm-.053 0 .08.07-.08-.07Zm.212 0 .078.07-.078-.07Zm-.264 0 .078.07-.078-.07Zm-.054 0 .08.07-.08-.07Zm-.052 0 .08.07-.08-.07Zm-.053 0 .08.07-.08-.07Zm.08.4-.079.072.08-.071Zm.052 0-.08.072.08-.071Zm.054 0-.08.072.08-.071Zm.052 0-.079.072.079-.071Zm.053 0-.08.072.08-.071Zm.053 0-.08.072.08-.071Zm.053 0-.079.072.079-.071Zm.052 0-.079.072.08-.071Zm.053 0-.08.072.08-.071Zm.052 0-.08.072.08-.071Zm.055 0-.08.072.08-.071Zm.052 0-.08.072.08-.071Zm-.212 0-.079.072.08-.071Zm.264 0-.08.072.08-.071Zm.053 0-.08.072.08-.071Zm.053 0-.08.072.08-.071Zm.052 0-.079.072.08-.071Zm-.079 0 .08.072-.08-.071Zm-.052 0 .079.072-.08-.071Zm-.053 0 .079.072-.08-.071Zm-.053 0 .079.072-.08-.071Zm-.053 0 .079.072-.079-.071Zm-.053 0 .08.072-.08-.071Zm-.053 0 .08.072-.08-.071Zm-.052 0 .078.072-.078-.071Zm-.053 0 .08.072-.08-.071Zm-.052 0 .079.072-.08-.071Zm-.053 0 .079.072-.08-.071Zm-.053 0 .079.072-.08-.071Zm.211 0 .08.072-.08-.071Zm-.263 0 .078.072-.078-.071Zm-.054 0 .08.072-.08-.071Zm-.053 0 .08.072-.08-.071Zm-.052 0 .08.072-.08-.071Z" clip-rule="evenodd"/><path fill="#EF2D28" fill-rule="evenodd" d="m4.926 2.663.01-.009.006.007-.01.009.02.017.019-.018-.009-.008.006-.007.01.009.01-.009.006.007-.01.008.02.018.02-.018-.009-.008.006-.007.01.009.01-.009.005.007-.008.008.02.018.019-.018-.01-.008.007-.007.01.01.01-.01.006.007-.01.008.02.018.02-.018-.01-.008.007-.007.01.01.01-.01.006.007-.01.008.02.018.02-.018-.01-.008.007-.007.01.01.01-.01.006.007-.01.008.02.018.036-.033.006.007-.035.032.035.032-.006.007-.036-.033-.02.018.01.008-.006.007-.01-.01-.01.01-.006-.007.009-.008-.02-.018-.02.018.01.008-.006.007-.01-.01-.01.01-.006-.007.009-.008-.02-.018-.02.018.01.008-.006.007-.01-.01-.01.01-.006-.007.009-.008-.02-.018-.02.018.01.008-.006.007-.01-.01-.01.01-.006-.007.01-.008-.02-.018-.02.017.01.009-.007.007-.01-.01-.01.01-.007-.007.01-.009-.02-.017-.019.017.01.009-.006.007-.01-.01-.011.01-.006-.007.01-.009-.02-.017-.02.017.01.009-.007.007-.01-.01-.01.01-.006-.007.01-.009-.02-.017-.02.018.01.008-.006.007-.01-.01-.01.01-.006-.007.009-.008-.02-.017-.019.017.009.008-.006.007-.01-.009-.01.009-.002-.004-.004-.003.01-.008-.02-.018-.02.018.01.008-.007.007-.01-.009-.01.009-.005-.007.008-.008-.02-.018-.019.018.01.008-.007.007-.01-.009-.01.009-.005-.007.009-.008-.02-.018-.02.018.01.008-.007.007-.01-.009-.009.009-.006-.007.009-.008-.02-.018-.019.018.01.008-.007.007-.01-.01-.01.01-.006-.007.01-.008-.02-.018-.02.018.01.008-.007.007-.01-.01-.01.01-.006-.007.01-.008-.02-.018-.02.017.01.009-.006.007-.01-.01-.01.01-.007-.007.01-.009-.02-.017-.036.033-.006-.007.035-.032-.036-.032.006-.007.037.033.02-.017-.01-.009.006-.007.01.01.011-.01.006.007-.01.009.02.017.02-.017-.01-.009.006-.007.01.01.011-.01.006.007-.01.009.02.017.02-.018-.01-.008.006-.007.01.01.01-.01.006.007-.009.008.02.018.019-.017-.01-.009.006-.007.01.01.011-.01.006.007-.01.009.02.017.02-.017-.01-.009.006-.007.01.01.01-.01.007.007-.01.009.02.017.02-.017-.01-.009.006-.007.01.01.01-.01.007.007-.01.009.02.017.019-.017-.01-.009.006-.007.01.01.012-.01.006.007-.01.009.02.017.019-.018-.01-.008.007-.007.01.01.01-.01.006.007-.01.009.02.017.02-.017-.01-.009.007-.007.01.01.01-.01.006.007-.01.009.02.017.02-.017-.01-.009.006-.007.01.01Zm0 .013-.02.017.02.017.019-.017-.02-.017Zm-.053 0-.02.017.02.017.02-.017-.02-.017Zm-.087.017-.02-.017-.018.017.02.018.018-.018Zm-.052 0-.02-.017-.02.017.02.018.02-.018Zm-.053 0-.02-.017-.02.017.02.018.02-.018Zm-.072-.017-.02.017.02.018.02-.018-.02-.017Zm-.053 0-.02.017.02.018.02-.018-.02-.017Zm-.033.017-.02-.017-.02.017.02.018.02-.018Zm-.053 0-.02-.017-.019.017.02.017.019-.017Zm.33 0 .02.018.02-.018-.02-.017-.02.017Zm.178.017.02-.017-.02-.018-.02.018.02.017Zm.053 0 .02-.017-.02-.018-.02.018.02.017Zm.053 0 .02-.017-.02-.017-.02.017.02.017Zm.053 0 .02-.017-.02-.017-.02.017.02.017Zm.053 0 .02-.017-.02-.017-.02.017.02.017Zm-.74.413-.01.01-.006-.007.01-.009-.02-.017-.036.033-.006-.007.036-.032-.036-.032.006-.007.037.033.02-.018-.01-.008.006-.007.01.01.01-.01.006.007-.01.008.02.017.02-.017-.01-.008.006-.007.01.009.01-.01.006.008-.009.008.02.018.02-.018-.01-.008.007-.007.01.009.01-.01.006.008-.01.008.02.018.02-.018-.01-.008.006-.007.01.009.01-.01.006.008-.01.008.02.018.02-.018-.01-.008.007-.007.01.009.01-.01.006.008-.01.008.02.018.02-.018-.01-.008.007-.007.01.009.01-.01.006.008-.01.008.02.018.02-.018-.01-.008.007-.007.01.009.01-.01.006.008-.01.008.02.018.02-.018-.01-.008.006-.007.01.009.01-.01.006.008-.009.008.02.018.019-.017-.01-.01.006-.006.01.01.011-.01.006.007-.01.009.02.017.02-.018-.01-.008.006-.007.01.009.01-.01.006.008-.009.008.02.018.02-.017-.01-.01.006-.006.01.01.012-.01.006.007-.01.009.019.017.02-.018-.01-.008.006-.007.01.01.01-.01.007.007-.01.008.02.018.02-.018-.01-.008.006-.007.01.009.01-.01.006.008-.01.008.02.018.02-.018-.01-.008.007-.007.01.009.01-.01.006.008-.01.008.02.018.02-.018-.01-.008.007-.007.01.009.01-.01.006.008-.01.008.02.018.036-.033.007.007-.036.032.036.032-.007.007-.036-.033-.02.018.01.008-.006.007-.01-.01-.01.01-.007-.007.01-.008-.02-.018-.02.018.01.008-.006.007-.01-.01-.01.01-.006-.007.009-.008-.02-.018-.02.018.01.008-.006.007-.01-.01-.01.01-.006-.007.01-.008-.02-.018-.02.018.01.008-.007.007-.01-.01-.01.01-.006-.007.01-.008-.02-.018-.02.018.01.008-.006.007-.01-.01-.01.01-.006-.007.009-.008-.02-.018-.02.018.01.008-.007.007-.01-.009-.009.009-.006-.007.009-.008-.02-.018-.02.017.01.01-.006.006-.01-.01-.011.01-.006-.007.01-.009-.02-.017-.02.017.01.01-.006.006-.01-.01-.01.01-.006-.007.01-.009-.02-.017-.02.018.01.008-.006.007-.01-.01-.01.01-.007-.007.01-.008-.02-.018-.02.018.01.008-.006.007-.01-.009-.01.009-.006-.007.01-.008-.02-.018-.02.018.009.008-.006.007-.01-.01-.01.01-.006-.007.009-.008-.02-.018-.02.018.01.008-.006.007-.01-.01-.01.01-.006-.007.01-.008-.02-.018-.02.017.01.01-.006.006-.01-.01-.01.01-.007-.007.01-.009-.02-.017-.02.018.01.008-.006.007-.01-.01-.01.01-.007-.007.01-.008-.02-.018-.02.017.01.01-.006.006-.01-.01Zm0-.012.02-.017-.02-.018-.018.018.019.017Zm.054 0 .02-.017-.02-.018-.02.018.02.017Zm.052 0 .02-.017-.02-.018-.019.018.02.017Zm.053 0 .02-.017-.02-.018-.02.018.02.018Zm.053 0 .02-.017-.02-.018-.02.018.02.018Zm.053 0 .02-.017-.02-.018-.02.018.02.018Zm.033-.017.02.018.02-.018-.02-.018-.02.018Zm.072.017.02-.017-.02-.017-.02.017.02.017Zm.053 0 .019-.017-.02-.017-.019.017.02.017Zm.053.001.02-.018-.02-.018-.02.018.02.018Zm.033-.018.02.018.02-.018-.02-.017-.02.017Zm.053 0 .019.018.02-.018-.02-.017-.02.017Zm.072.018.02-.018-.02-.018-.02.018.02.018Zm.053 0 .02-.018-.02-.018-.02.018.02.018Zm.053 0 .02-.018-.02-.018-.02.018.02.018Z" clip-rule="evenodd"/><path fill="#fff" d="M1.792 2.588h-.86c-.047 0-.084.035-.084.078v.409c0 .043.037.078.084.078h.86c.047 0 .084-.035.084-.078v-.409c0-.043-.037-.078-.084-.078Z"/><path fill="#EF2D28" fill-rule="evenodd" d="M.932 2.593c-.044 0-.08.033-.08.073v.409c0 .04.036.074.08.074h.86c.044 0 .08-.034.08-.074v-.409c0-.04-.036-.073-.08-.073h-.86Zm-.09.073c0-.046.041-.083.09-.083h.86c.05 0 .09.037.09.083v.409c0 .046-.04.083-.09.083h-.86c-.049 0-.09-.037-.09-.083v-.409Z" clip-rule="evenodd"/><path fill="#fff" d="M1.771 2.611H.955c-.044 0-.08.033-.08.073v.374c0 .04.036.072.08.072h.816c.044 0 .08-.032.08-.072v-.374c0-.04-.036-.073-.08-.073Z"/><path fill="#EF2D28" fill-rule="evenodd" d="M.954 2.617c-.042 0-.075.03-.075.068v.373c0 .038.033.068.075.068h.817c.042 0 .075-.03.075-.068v-.373c0-.038-.033-.068-.075-.068H.954Zm-.084.068c0-.043.038-.078.084-.078h.817c.046 0 .084.035.084.078v.373c0 .043-.038.078-.084.078H.954C.908 3.136.87 3.1.87 3.058v-.373Z" clip-rule="evenodd"/><path fill="#fff" fill-rule="evenodd" d="m1.33 2.752.048.002.002.022.04.021.032-.026.038.02-.035.023.008.031.045-.002v.041l-.035-.001-.019.025.04.03-.03.024-.035-.026-.049.01.003.038-.054.004-.007-.037-.045-.018-.024.025-.038-.019.022-.029-.027-.019h-.038l-.002-.053.038.004.027-.032-.032-.024.04-.027.03.022.049-.007.007-.022Z" clip-rule="evenodd"/><path fill="#EF2D28" fill-rule="evenodd" d="m1.326 2.75.054.002.002.024.038.019.031-.026.044.023-.038.025.008.026.045-.002v.047l-.037-.001-.016.022.042.03-.036.027-.035-.026-.046.01.003.038-.06.004-.006-.038-.042-.017-.025.026-.043-.022.023-.03-.024-.016h-.04l-.002-.06.04.005.024-.028-.032-.025.045-.03.03.022.046-.006.007-.023Zm.004.006-.007.022-.052.007-.028-.021-.036.023.031.024-.03.035-.036-.004.002.047h.036l.03.021-.022.03.033.016.025-.026.048.02.007.036.048-.004-.003-.037.053-.01.034.024.026-.02-.04-.029.021-.03.034.002v-.034l-.044.001-.01-.035.034-.021-.032-.017-.032.026-.043-.023-.002-.021-.045-.002Z" clip-rule="evenodd"/><path fill="#fff" d="M1.342 2.91c.03 0 .055-.02.055-.045 0-.026-.024-.047-.055-.047-.03 0-.054.021-.054.047 0 .025.024.046.054.046Z"/><path fill="#EF2D28" fill-rule="evenodd" d="M1.343 2.822c-.03 0-.052.02-.052.043 0 .023.023.043.052.043.028 0 .05-.02.05-.043 0-.024-.022-.043-.05-.043Zm-.058.043c0-.028.026-.05.058-.05.03 0 .057.022.057.05 0 .028-.026.05-.057.05-.032 0-.058-.022-.058-.05Z" clip-rule="evenodd"/><path fill="#fff" fill-rule="evenodd" d="m1.006 2.635-.08.07.08-.07Zm.053 0-.08.07.08-.07Zm.052 0-.079.07.08-.07Zm.053 0-.079.07.079-.07Zm.053 0-.08.07.08-.07Zm.053 0-.08.07.08-.07Zm.052 0-.078.07.078-.07Zm.053 0-.079.07.08-.07Zm.053 0-.08.07.08-.07Zm.053 0-.08.07.08-.07Zm.051 0-.079.07.08-.07Zm.053 0-.079.07.08-.07Zm-.21 0-.079.07.079-.07Zm.264 0-.08.07.08-.07Zm.053 0-.08.07.08-.07Zm.053 0-.08.07.08-.07Zm.052 0-.079.07.08-.07Zm-.079 0 .08.07-.08-.07Zm-.052 0 .079.07-.08-.07Zm-.053 0 .079.07-.08-.07Zm-.053 0 .079.07-.08-.07Zm-.053 0 .079.07-.079-.07Zm-.053 0 .08.07-.08-.07Zm-.053 0 .08.07-.08-.07Zm-.052 0 .078.07-.078-.07Zm-.054 0 .08.07-.08-.07Zm-.052 0 .079.07-.08-.07Zm-.053 0 .079.07-.079-.07Zm-.053 0 .08.07-.08-.07Zm.212 0 .078.07-.078-.07Zm-.264 0 .078.07-.078-.07Zm-.054 0 .08.07-.08-.07Zm-.052 0 .08.07-.08-.07Zm-.053 0 .08.07-.08-.07Zm.08.4-.079.072.08-.072Zm.052 0-.08.072.08-.072Zm.054 0-.08.072.08-.072Zm.052 0-.079.072.079-.072Zm.053 0-.08.072.08-.072Zm.053 0-.08.072.08-.072Zm.052 0-.078.072.078-.072Zm.053 0-.079.072.08-.072Zm.053 0-.08.072.08-.072Zm.052 0-.08.072.08-.072Zm.055 0-.08.072.08-.072Zm.052 0-.08.072.08-.072Zm-.212 0-.079.072.08-.072Zm.264 0-.08.072.08-.072Zm.053 0-.08.072.08-.072Zm.053 0-.08.072.08-.072Zm.052 0-.079.072.08-.072Zm-.079 0 .08.072-.08-.072Zm-.052 0 .079.072-.08-.072Zm-.053 0 .079.072-.08-.072Zm-.053 0 .079.072-.08-.072Zm-.053 0 .079.072-.079-.072Zm-.053 0 .08.072-.08-.072Zm-.053 0 .08.072-.08-.072Zm-.052 0 .078.072-.078-.072Zm-.053 0 .08.072-.08-.072Zm-.052 0 .078.072-.078-.072Zm-.053 0 .079.072-.08-.072Zm-.053 0 .079.072-.08-.072Zm.211 0 .08.072-.08-.072Zm-.263 0 .078.072-.078-.072Zm-.054 0 .08.072-.08-.072Zm-.053 0 .08.072-.08-.072Zm-.052 0 .08.072-.08-.072Z" clip-rule="evenodd"/><path fill="#EF2D28" fill-rule="evenodd" d="m1.468 2.641.01-.01.006.008-.01.008.02.017.019-.017-.009-.008.006-.007.01.008.01-.008.006.007-.01.008.02.017.02-.017-.009-.008.006-.007.01.008.01-.008.005.007-.008.008.02.017.019-.017-.01-.008.007-.007.01.009.01-.01.006.008-.01.008.02.017.02-.017-.01-.008.007-.007.01.009.01-.01.006.008-.01.008.02.017.02-.017-.01-.008.007-.007.01.009.01-.01.006.008-.01.008.02.017.036-.032.006.007-.035.032.035.031-.006.007-.036-.032-.02.017.01.008-.006.007-.01-.009-.01.01-.006-.008.009-.008-.02-.017-.02.017.01.008-.006.007-.01-.009-.01.01-.006-.008.009-.008-.02-.017-.02.017.01.008-.006.007-.01-.009-.01.01-.006-.008.009-.008-.02-.017-.02.017.01.008-.006.007-.01-.009-.01.01-.006-.008.01-.008-.02-.018-.02.018.01.008-.007.007-.01-.009-.01.01-.007-.008.01-.008-.02-.018-.019.018.01.008-.006.007-.01-.01-.011.01-.006-.007.01-.008-.02-.018-.02.018.01.008-.007.007-.01-.009-.01.01-.006-.008.01-.008-.02-.017-.02.017.01.008-.006.007-.01-.009-.01.01-.006-.008.009-.008-.02-.017-.019.017.009.008-.006.007-.01-.008-.01.008-.002-.003-.004-.004.01-.008-.02-.017-.02.017.009.008-.006.007-.01-.008-.01.008-.005-.007.008-.008-.02-.017-.019.017.01.008-.007.007-.01-.008-.01.008-.005-.007.009-.008-.02-.017-.02.017.01.008-.007.007-.01-.008-.009.008-.006-.007.009-.008-.02-.017-.019.017.01.008-.007.007-.01-.009-.01.01-.006-.008.01-.008-.02-.017-.02.017.01.008-.007.007-.01-.009-.01.01-.006-.008.01-.008-.02-.017-.02.017.01.008-.006.007-.01-.009-.01.01-.007-.008.01-.008-.02-.017-.036.032-.006-.007.035-.031-.036-.032.006-.007.037.033.02-.018-.01-.008.006-.007.01.01.011-.01.006.007-.01.008.02.018.02-.018-.01-.008.006-.007.01.01.011-.01.006.007-.01.008.02.018.02-.018-.01-.008.006-.007.01.009.01-.01.006.008-.009.008.02.018.019-.018-.01-.008.006-.007.01.01.011-.01.006.007-.01.008.02.018.02-.018-.01-.008.006-.007.01.01.01-.01.007.007-.01.008.02.018.02-.018-.01-.008.006-.007.01.01.01-.01.007.007-.01.008.02.018.019-.017-.01-.01.006-.006.01.01.012-.01.006.007-.01.009.02.017.019-.018-.01-.008.007-.007.01.009.01-.01v.001l.006.007-.01.008.02.018.02-.018-.01-.008.007-.007.01.009.01-.01.006.008-.01.008.02.017.02-.017-.01-.008.006-.007.01.009Zm0 .012-.02.017.02.017.019-.017-.02-.017Zm-.053 0-.02.018.02.017.02-.018-.02-.017Zm-.087.018-.02-.017-.018.017.02.017.018-.017Zm-.052 0-.02-.018-.02.018.02.017.02-.017Zm-.053 0-.02-.018-.02.018.02.017.02-.017Zm-.072-.018-.02.018.02.017.02-.017-.02-.018Zm-.053 0-.02.018.02.017.02-.017-.02-.018Zm-.033.018-.02-.017-.02.017.02.017.02-.017Zm-.053 0-.02-.017-.019.017.02.017.019-.017Zm.33 0 .02.017.02-.017-.02-.018-.02.018Zm.178.017.02-.018-.02-.017-.02.017.02.018Zm.053 0 .02-.017-.02-.018-.02.017.02.018Zm.053 0 .02-.017-.02-.018-.02.018.02.017Zm.053 0 .02-.017-.02-.018-.02.018.02.017Zm.053 0 .02-.017-.02-.018-.02.018.02.017Zm-.74.413-.01.01-.006-.007.01-.01-.02-.016-.036.032-.006-.006.036-.033-.036-.032.006-.007.037.033.02-.017-.01-.009.006-.007.01.01.01-.01.006.007-.01.009.02.017.02-.018-.01-.008.006-.007.01.01.01-.01.006.007-.009.008.02.018.02-.017-.01-.009.007-.007.01.01.01-.01.006.007-.01.009.02.017.02-.017-.01-.009.006-.007.01.01.01-.01.006.007-.01.009.02.017.02-.017-.01-.009.007-.007.01.01.01-.01.006.007-.01.009.02.017.02-.017-.01-.009.007-.007.01.01.01-.01.006.007-.01.009.02.017.02-.017-.01-.009.007-.007.01.01.01-.01.006.007-.01.009.02.017.02-.017-.01-.009.006-.007.01.01.01-.01.006.007-.009.009.02.017.019-.017-.01-.009.006-.007.01.01.011-.01.006.007-.01.01.02.016.02-.018-.01-.008.006-.007.01.01.01-.01.006.007-.009.008.02.019.02-.018-.01-.009.006-.007.01.01.012-.01.006.007-.01.01.019.017.02-.018-.01-.009.006-.007.01.01.01-.01.007.007-.01.009.02.017.02-.017-.01-.009.006-.007.01.01.01-.01.006.007-.01.009.02.017.02-.017-.01-.009.007-.007.01.01.01-.01.006.007-.01.009.02.017.02-.017-.01-.009.007-.007.01.01.01-.01.006.007-.01.009.02.017.036-.033.007.007-.036.032.036.033-.007.006-.036-.032-.02.017.01.009-.006.006-.01-.009-.01.01-.007-.007.01-.009-.02-.017-.02.017.01.009-.006.006-.01-.009-.01.01-.006-.007.009-.009-.02-.017-.02.017.01.009-.006.006-.01-.009-.01.01-.006-.007.01-.009-.02-.017-.02.017.01.009-.007.006-.01-.009-.01.01-.006-.007.01-.009-.02-.017-.02.017.01.009-.006.006-.01-.009-.01.01-.006-.007.009-.009-.02-.017-.02.018.01.008-.007.006-.01-.008-.009.008-.006-.006.009-.008-.02-.018-.02.017.01.009-.006.006-.01-.009-.011.01-.006-.007.01-.009-.02-.017-.02.017.01.009-.006.006-.01-.009-.01.01-.006-.007.01-.009-.02-.017-.02.017.01.009-.006.006-.01-.009-.01.01-.007-.007.01-.009-.02-.017-.02.018.01.008-.006.006-.01-.008-.01.008-.006-.006.01-.008-.02-.018-.02.017.009.009-.006.006-.01-.009-.01.01-.006-.007.009-.009-.02-.017-.02.017.01.009-.006.006-.01-.009-.01.01-.006-.007.01-.009-.02-.018-.02.018.01.009-.006.006-.01-.009-.01.01-.007-.007.01-.009-.02-.017-.02.017.01.009-.006.006-.01-.009-.01.01-.007-.007.01-.009-.02-.018-.02.018.01.009-.006.006-.01-.01Zm0-.012.02-.018-.02-.017-.018.017.019.018Zm.054 0 .02-.018-.02-.017-.02.017.02.018Zm.052 0 .02-.018-.02-.017-.019.017.02.018Zm.053 0 .02-.018-.02-.017-.02.017.02.018Zm.053 0 .02-.018-.02-.017-.02.017.02.018Zm.053 0 .02-.017-.02-.018-.02.017.02.018Zm.033-.017.02.017.02-.018-.02-.017-.02.018Zm.072.017.02-.017-.02-.018-.02.017.02.018Zm.053 0 .019-.018-.02-.017-.019.017.02.018Zm.053 0 .02-.017-.02-.018-.02.017.02.019Zm.033-.017.02.017.02-.017-.02-.018-.02.018Zm.053 0 .019.017.02-.018-.02-.017-.02.018Zm.072.017.02-.018-.02-.017-.02.017.02.018Zm.053 0 .02-.018-.02-.017-.02.017.02.018Zm.053 0 .02-.018-.02-.017-.02.017.02.018Z" clip-rule="evenodd"/><path fill="#fff" fill-rule="evenodd" d="M2.463 3.772C1.183 5.027.637 5.186.893 5.287c.257.101 1.081-.547 1.938-1.406.858-.86 1.383-1.626 1.126-1.728-.257-.1-.133.285-1.494 1.619Z" clip-rule="evenodd"/><path fill="#EF2D28" fill-rule="evenodd" d="M3.804 2.73c-.206.312-.551.718-.98 1.147-.428.43-.848.807-1.193 1.063a2.839 2.839 0 0 1-.451.286.736.736 0 0 1-.166.059A.207.207 0 0 1 .9 5.28c-.031-.012-.05-.025-.055-.04-.007-.014-.002-.032.014-.055a.582.582 0 0 1 .089-.089c.041-.036.095-.08.161-.132.015-.01.03-.023.045-.035.27-.213.711-.562 1.317-1.155l-.007-.003.007.003c.681-.668.99-1.098 1.162-1.349l.041-.06.065-.095a.625.625 0 0 1 .076-.092.114.114 0 0 1 .061-.034.15.15 0 0 1 .077.014.09.09 0 0 1 .057.064.244.244 0 0 1-.008.122c-.026.098-.094.23-.197.386Zm.222-.51a.1.1 0 0 0-.063-.072.172.172 0 0 0-.088-.015.138.138 0 0 0-.075.04.637.637 0 0 0-.077.094c-.02.027-.041.06-.066.096l-.04.06c-.172.25-.48.68-1.161 1.346-.605.593-1.046.941-1.315 1.154a45.06 45.06 0 0 0-.208.168.596.596 0 0 0-.09.09c-.018.026-.025.047-.017.066.008.018.03.032.062.045a.23.23 0 0 0 .129.005.757.757 0 0 0 .171-.061c.128-.06.283-.16.455-.288A11.49 11.49 0 0 0 2.84 3.883c.428-.43.774-.837.981-1.15.103-.155.172-.288.199-.388a.252.252 0 0 0 .007-.126Z" clip-rule="evenodd"/><path fill="#fff" fill-rule="evenodd" d="m1.387 4.685.449.117c-.422.402-.897.566-1.029.495-.131-.07.238-.235.58-.612Z" clip-rule="evenodd"/><path fill="#EF2D28" fill-rule="evenodd" d="m1.388 4.682-.002.003-.002-.001a3.551 3.551 0 0 1-.414.376l-.054.044a.718.718 0 0 0-.126.12c-.01.016-.016.03-.014.044.002.014.012.025.029.034.034.019.09.021.16.01a1.12 1.12 0 0 0 .249-.08c.188-.083.413-.224.624-.425l.006-.006-.456-.12Zm.001.009.438.115a2.23 2.23 0 0 1-.617.418 1.09 1.09 0 0 1-.247.08c-.07.01-.123.008-.154-.01-.016-.008-.023-.017-.025-.027-.002-.01.003-.023.013-.038a.713.713 0 0 1 .125-.118.922.922 0 0 1 .054-.044c.114-.093.266-.215.413-.376Z" clip-rule="evenodd"/><path fill="#fff" fill-rule="evenodd" d="m1.387 4.731.37.095c-.411.385-.818.495-.923.447-.106-.046.22-.179.553-.542Z" clip-rule="evenodd"/><path fill="#EF2D28" fill-rule="evenodd" d="m1.385 4.727-.002.002c-.16.173-.317.293-.426.377l-.015.011a.877.877 0 0 0-.118.1c-.01.013-.017.024-.016.035 0 .011.01.02.023.025a.253.253 0 0 0 .133.005.986.986 0 0 0 .217-.066 1.99 1.99 0 0 0 .578-.387l.006-.006-.38-.096Zm.362.1c-.203.19-.405.312-.57.38a.978.978 0 0 1-.214.066.245.245 0 0 1-.128-.004c-.013-.005-.018-.011-.018-.018 0-.007.004-.016.014-.028a.872.872 0 0 1 .131-.11c.11-.084.266-.204.425-.377l.36.092ZM2.764 3.73l.002-.01-.01-.002a.429.429 0 0 0-.002.02.287.287 0 0 1-.004.023v.001a.249.249 0 0 1-.003.036l-.002.008a.044.044 0 0 1-.003.006.012.012 0 0 1-.003.004.015.015 0 0 1-.005.003h-.002v.002a.046.046 0 0 1-.025.019.146.146 0 0 1-.033.017.063.063 0 0 1-.036.003.199.199 0 0 1-.014-.01l-.002-.001a.257.257 0 0 0-.01-.008H2.61a.141.141 0 0 0-.006-.03l-.009.002.004.016v.004l.002.009a.13.13 0 0 1 0 .008c0 .01-.003.015-.008.023a.231.231 0 0 0-.004.006l.008.005.003-.006c.005-.008.01-.015.01-.026a.824.824 0 0 1 .023.016h.002a.073.073 0 0 0 .041-.002.155.155 0 0 0 .034-.018.055.055 0 0 0 .027-.021.021.021 0 0 0 .012-.011.052.052 0 0 0 .003-.008l.002-.006V3.8c.002-.012.004-.023.004-.037a.315.315 0 0 0 .004-.024l.001-.01Zm-.18.159h-.047a.16.16 0 0 0-.043.005h-.001l-.001.001a.081.081 0 0 1-.016.01l-.002.001-.015.01a.057.057 0 0 0-.02.024.045.045 0 0 0-.011.013.054.054 0 0 1-.011.012h-.002v.002a.021.021 0 0 1-.006.011l-.002.001a.06.06 0 0 0-.003.003h-.01a.037.037 0 0 0-.022 0l-.006.002c-.004.001-.008.003-.013.003h-.001a.054.054 0 0 1-.01.005.04.04 0 0 1-.011.001v.01L2.345 4a.059.059 0 0 0 .01-.005.101.101 0 0 0 .02-.005.028.028 0 0 1 .017 0H2.4l-.003.005h.007A.082.082 0 0 1 2.428 4a.21.21 0 0 0 .009.006h.001l.004.002h.005a.004.004 0 0 0 0-.007L2.444 4l-.004-.002a.035.035 0 0 0-.01-.006.028.028 0 0 1-.004-.003l-.001-.001h-.001l-.007-.002-.002-.001a.03.03 0 0 0 .008-.014.069.069 0 0 0 .011-.012v-.001l.011-.012h.001v-.002a.048.048 0 0 1 .018-.021.112.112 0 0 1 .017-.01.094.094 0 0 0 .016-.01.15.15 0 0 1 .04-.005h.046a.172.172 0 0 1 .04.01l.015.008.002.001.002.001h.002a.004.004 0 0 0 .003-.006l-.001-.001-.003-.003-.001-.001a.417.417 0 0 0-.014-.007.181.181 0 0 0-.044-.011Zm-.194.159a.05.05 0 0 0 .024.014.042.042 0 0 0 .014.002.133.133 0 0 0 .03-.001h.008v-.01a.113.113 0 0 0-.01.001.397.397 0 0 1-.027.002l-.01-.002h-.001a.041.041 0 0 1-.015-.007.056.056 0 0 1-.013-.013s0-.002-.002-.002a.005.005 0 0 0-.006 0 .006.006 0 0 0-.001.004v.003a.074.074 0 0 0 0 .01l.002.011c-.001.008-.003.012-.005.014a.098.098 0 0 0-.01.012.33.33 0 0 0-.01.006l-.004.003a.129.129 0 0 1-.015.008.405.405 0 0 1-.036.017.273.273 0 0 0-.023.012.03.03 0 0 0-.012.014.099.099 0 0 0-.002.005v.002a.063.063 0 0 1-.004.007l-.001.002v.001c.002.014.004.024.014.031a.09.09 0 0 0 .02.026.131.131 0 0 0 .004.007l.002.002a.021.021 0 0 1 .002.005.024.024 0 0 1-.008.002h-.001a.025.025 0 0 1-.013.003l-.005-.001h-.002l-.008-.002v.01h.008l.006.001c.005 0 .01 0 .017-.002a.03.03 0 0 0 .011-.004.009.009 0 0 0 .004-.004v-.005a.026.026 0 0 0-.004-.008.149.149 0 0 0-.006-.009.077.077 0 0 1-.02-.025v-.002c-.008-.005-.01-.012-.012-.024a.076.076 0 0 0 .003-.008l.001-.002a.09.09 0 0 1 .002-.004.021.021 0 0 1 .009-.01.288.288 0 0 1 .02-.01v-.001a.4.4 0 0 0 .053-.027l.005-.002.01-.007a.088.088 0 0 1 .007-.008l.005-.005a.033.033 0 0 0 .007-.019.13.13 0 0 0-.001-.013Zm-.18.194h-.048a.058.058 0 0 0-.027.008l-.01.004-.001.001-.002.002a.083.083 0 0 1-.027.018h-.001l-.007.008-.007.008a.097.097 0 0 0-.013.018.11.11 0 0 0-.007.04.063.063 0 0 0 .003.02.058.058 0 0 1 .003.015.09.09 0 0 0 .02.037l.004.005a.013.013 0 0 0 .006.002l.002-.008-.002-.001-.001-.002v-.001h-.001a.082.082 0 0 1-.019-.033.067.067 0 0 0-.004-.018.054.054 0 0 1-.002-.017c0-.012.002-.024.006-.035a.476.476 0 0 1 .02-.024l.005-.007a.07.07 0 0 0 .028-.019h.001l.011-.006a.064.064 0 0 1 .023-.006h.045c.013.004.04.013.049.014l.002-.008a.83.83 0 0 1-.049-.015Zm-.205.17a.033.033 0 0 0-.015-.006l-.002.009.006.001v.001l.004.002a.146.146 0 0 0 .006.007.092.092 0 0 1 .007.01.064.064 0 0 1 .006.01v.001l.004.008v.001l.002.004.002.015c0 .012 0 .02-.005.03a.132.132 0 0 0-.007.008.14.14 0 0 0-.025.026l-.02.013a.054.054 0 0 1-.023.008.046.046 0 0 1-.02-.006.173.173 0 0 0-.006-.003l-.01-.006-.013-.01a.073.073 0 0 1-.015-.017l-.001-.001h-.002a.044.044 0 0 0-.017-.002.028.028 0 0 0-.014.007.065.065 0 0 0-.017.016.082.082 0 0 0-.006.005.061.061 0 0 1-.007.004l.004.008.008-.005a.062.062 0 0 1 .006-.005h.001v-.001a.057.057 0 0 1 .016-.015.02.02 0 0 1 .01-.005h.013c.004.007.01.013.016.018a.296.296 0 0 0 .024.017l.006.003c.007.003.012.006.024.007a.063.063 0 0 0 .028-.01l.022-.014a.131.131 0 0 1 .024-.027l.003-.003.005-.005v-.001c.006-.012.006-.021.006-.034V4.47a.12.12 0 0 1 .006.009l.002.001c.004.001.005.003.007.004l.002.001a.028.028 0 0 0 .016.005c.008 0 .013 0 .018-.002a.058.058 0 0 0 .013-.011l.006-.01.002-.003h-.002v-.008a.005.005 0 0 0-.003.001l-.002.002-.002.003-.005.009a.038.038 0 0 1-.01.009.037.037 0 0 1-.015.001c-.007 0-.01-.001-.011-.003h-.001a.02.02 0 0 0-.009-.005l-.005-.008-.002-.002a.097.097 0 0 1-.008-.012.117.117 0 0 1-.002-.008.22.22 0 0 0-.012-.022.085.085 0 0 1-.006-.005l-.005-.005Z" clip-rule="evenodd"/><path fill="#EF2D28" fill-rule="evenodd" d="M1.853 4.557a.037.037 0 0 0-.005-.002l-.003.008.004.002a.262.262 0 0 1 .017.01.106.106 0 0 0 .006.016l.005.015a.15.15 0 0 1 .003.039.126.126 0 0 1-.014.034l-.007.005a.121.121 0 0 1-.017.01.223.223 0 0 1-.036.004h-.001a.068.068 0 0 1-.017.003.033.033 0 0 1-.015-.003h-.001a.092.092 0 0 1-.03-.01v-.001a.164.164 0 0 1-.014-.009.12.12 0 0 0-.014-.008.14.14 0 0 0-.01-.012L1.7 4.656a.277.277 0 0 1-.01-.011l-.004-.005a.097.097 0 0 1-.013-.02l-.008.004.006.014a.222.222 0 0 1 .008.02l.003.005.005.01a.043.043 0 0 1 .004.015v.001a.055.055 0 0 1 .003.018v.013a.388.388 0 0 0-.001.016l-.001.01a.05.05 0 0 1-.004.014v.011h.009v-.008a.062.062 0 0 0 .004-.017v-.009l.002-.008v-.022a.065.065 0 0 0-.004-.02.051.051 0 0 0-.004-.018l-.006-.011v-.002a.557.557 0 0 0 .005.006l.002.002a.123.123 0 0 1 .01.012l.002.001a.11.11 0 0 1 .016.01.177.177 0 0 0 .012.008h.002c.009.005.018.01.031.012a.046.046 0 0 0 .019.002.078.078 0 0 0 .018-.002.233.233 0 0 0 .037-.004h.001a.135.135 0 0 0 .027-.018l.001-.001.003-.006c.005-.01.01-.02.013-.032v-.001c0-.014 0-.028-.004-.04a.06.06 0 0 0-.005-.018l-.001-.003a.087.087 0 0 1-.005-.012V4.57h-.002l-.009-.006-.003-.002a.264.264 0 0 0-.007-.005Zm-.437.264h.001v.004l.004.014v.001a.038.038 0 0 0 .023.011.073.073 0 0 0 .028 0l.001-.001a.094.094 0 0 0 .01-.009h.001l.006-.006a.047.047 0 0 1 .023-.01.094.094 0 0 1 .048.016h.002v.001a.065.065 0 0 1 .035.027.084.084 0 0 1 .003.008v.007c0 .001 0 .003-.002.004a.022.022 0 0 1-.008.004.118.118 0 0 1-.059.016.17.17 0 0 0-.02 0 .032.032 0 0 0-.02.01.038.038 0 0 0-.014.021.101.101 0 0 0-.001.026.033.033 0 0 0-.003.008.127.127 0 0 0-.003.011v.004l-.002.007a.055.055 0 0 1-.001.006.083.083 0 0 1-.036.007.429.429 0 0 1-.01-.035L1.42 4.96a.17.17 0 0 1-.002-.011v-.001l-.002-.012a.049.049 0 0 0-.01-.023.122.122 0 0 0-.033-.03.065.065 0 0 0-.03-.017l-.003.008a.031.031 0 0 1 .016.013.06.06 0 0 1 .004.018l-.006.003h-.001a.079.079 0 0 1-.034.008.059.059 0 0 1-.025-.006.044.044 0 0 1-.013-.013l-.007-.01-.001.012a.075.075 0 0 1-.008.027c-.002.005-.005.01-.007.018a.118.118 0 0 0-.01.019l-.002.003a.254.254 0 0 1-.01.019v.003c.001.009.004.014.007.02v.002a.05.05 0 0 1 .006.022v.002a.142.142 0 0 1 .004.011v.002l.003.01a.041.041 0 0 0 .012.02.092.092 0 0 1-.05-.023.247.247 0 0 0-.075-.039h-.03a.03.03 0 0 0-.02.01.079.079 0 0 0-.03.044c-.004.021-.006.038.006.053a.048.048 0 0 1 .006.018c0 .004-.002.01-.006.019a.04.04 0 0 1-.019.011.21.21 0 0 1-.023.006l-.007.002a.171.171 0 0 1-.044-.008l-.003.008a.18.18 0 0 0 .047.008h.001l.007-.002a.223.223 0 0 0 .025-.006.048.048 0 0 0 .023-.014.048.048 0 0 0 .007-.025.057.057 0 0 0-.007-.02v-.001c-.01-.013-.008-.026-.005-.047a.07.07 0 0 1 .027-.04.03.03 0 0 1 .016-.007h.027a.17.17 0 0 1 .053.024l.019.013.019.013a.12.12 0 0 0 .063.012V5.08a.06.06 0 0 1-.014-.002.015.015 0 0 1-.007-.005.032.032 0 0 1-.01-.017.156.156 0 0 0-.007-.023.057.057 0 0 0-.006-.025l-.002-.003-.006-.015.01-.019.001-.003a.107.107 0 0 1 .01-.018h.001v-.001a.123.123 0 0 1 .009-.022.086.086 0 0 0 .005-.016.039.039 0 0 0 .01.009.067.067 0 0 0 .028.007.088.088 0 0 0 .049-.013l.002-.002v-.003a.092.092 0 0 0-.003-.02l.001.002a.113.113 0 0 1 .032.03.04.04 0 0 1 .008.019l.003.011v.001l.002.013.003.01a.21.21 0 0 0 .012.04v.003h.003a.09.09 0 0 0 .044-.009h.001l.001-.002a.05.05 0 0 0 .003-.01l.001-.007v-.003l.003-.01c0-.004.001-.006.002-.007l.001-.001v-.001a1.151 1.151 0 0 0 .001-.026c.001-.006.004-.01.011-.017a.03.03 0 0 1 .017-.007.152.152 0 0 1 .026 0 .126.126 0 0 0 .054-.017.03.03 0 0 0 .011-.006.015.015 0 0 0 .005-.009v-.01a.095.095 0 0 0-.004-.01.073.073 0 0 0-.04-.03v-.002l-.021-.01a.103.103 0 0 0-.032-.006.056.056 0 0 0-.028.011l-.007.006v.001a.089.089 0 0 1-.009.007.065.065 0 0 1-.023 0 .032.032 0 0 1-.017-.006.666.666 0 0 1-.005-.021v-.001a.004.004 0 0 0-.008 0v.007Z" clip-rule="evenodd"/><path fill="#fff" fill-rule="evenodd" d="M3.925 2.64c.568-.983.944-1.82.842-1.867-.104-.048-.649.712-1.216 1.694l.374.173Z" clip-rule="evenodd"/><path fill="#EF2D28" fill-rule="evenodd" d="m3.925 2.64-.003.005-.38-.176.003-.005c.284-.491.562-.927.782-1.234.11-.153.206-.275.281-.355.037-.04.07-.07.096-.088a.142.142 0 0 1 .036-.02.051.051 0 0 1 .03 0c.008.004.013.012.016.022a.11.11 0 0 1 .003.037.567.567 0 0 1-.025.121c-.03.101-.085.241-.161.41-.153.339-.389.794-.673 1.285l-.005-.002Zm.667-1.287a15.2 15.2 0 0 1-.67 1.28l-.363-.169c.282-.489.56-.922.778-1.228.11-.153.206-.274.28-.354a.65.65 0 0 1 .094-.086.13.13 0 0 1 .033-.018c.009-.003.015-.003.02 0 .004.002.008.006.01.014.003.009.004.02.003.034a.558.558 0 0 1-.025.119c-.03.1-.084.24-.16.408Z" clip-rule="evenodd"/><path fill="#fff" fill-rule="evenodd" d="M3.888 2.623c.547-.948.924-1.749.842-1.787-.083-.038-.595.7-1.142 1.649" clip-rule="evenodd"/><path fill="#EF2D28" fill-rule="evenodd" d="M4.54 1.387c-.153.323-.384.76-.657 1.234l.009.004c.274-.474.505-.91.657-1.235.077-.161.133-.295.166-.39a.636.636 0 0 0 .03-.114.111.111 0 0 0 0-.035C4.743.842 4.739.835 4.732.832 4.725.829 4.716.83 4.707.834a.14.14 0 0 0-.031.02.725.725 0 0 0-.087.088 4.319 4.319 0 0 0-.26.346c-.207.299-.472.72-.746 1.195l.01.004c.273-.474.538-.895.744-1.194a4.37 4.37 0 0 1 .26-.345.715.715 0 0 1 .086-.088.129.129 0 0 1 .027-.017c.008-.004.013-.004.016-.002.003.001.006.005.008.012a.103.103 0 0 1 0 .032.628.628 0 0 1-.03.112 4.054 4.054 0 0 1-.165.39Z" clip-rule="evenodd"/><path fill="#fff" fill-rule="evenodd" d="M3.793 2.13c-.066.11-.137.237-.205.355l.3.139c.068-.118.143-.243.206-.356l-.3-.139Z" clip-rule="evenodd"/><path fill="#EF2D28" fill-rule="evenodd" d="m4.102 2.265-.31-.143-.003.005c-.045.073-.091.155-.137.236l-.069.12-.003.005.311.143.003-.005.07-.12c.047-.08.094-.16.136-.236l.002-.005Zm-.016.005c-.04.074-.087.153-.133.232l-.067.114-.29-.134.066-.115c.045-.079.09-.158.134-.23l.29.133Z" clip-rule="evenodd"/><path fill="#fff" fill-rule="evenodd" d="M3.82 2.167c-.067.112-.113.196-.182.315l.224.104c.069-.119.12-.202.182-.315l-.224-.104Z" clip-rule="evenodd"/><path fill="#EF2D28" fill-rule="evenodd" d="m4.052 2.268-.235-.108-.003.005c-.044.072-.079.134-.117.2-.02.036-.04.073-.065.114l-.003.005.235.109.003-.005.066-.113c.04-.067.075-.128.116-.202l.003-.005Zm-.016.005c-.04.072-.075.131-.113.196l-.063.109-.214-.099.062-.109c.037-.065.071-.125.114-.195l.214.098Z" clip-rule="evenodd"/><path fill="#fff" fill-rule="evenodd" d="m3.983 2.296-.15-.07-.134.231.15.07.134-.231Zm0 0-.284.161.284-.161Zm-.134.23-.017-.3.017.3Zm.811-1.403-.15-.07.15.07Z" clip-rule="evenodd"/><path fill="#EF2D28" fill-rule="evenodd" d="m4.507 1.058.15.07.006-.01-.15-.07-.006.01ZM3.99 2.293l-.16-.074-.14.24.161.075.14-.24Zm-.02.003-.124.07-.008-.13.132.06Zm-.143-.05.007.127-.12.069.113-.196Zm-.116.21.124-.07.007.13-.13-.06Zm.143.05-.007-.127.12-.068-.113.195Z" clip-rule="evenodd"/><path fill="#EF0000" d="M4.66 1.014c-.023.006-.046-.006-.052-.026-.005-.02.01-.042.033-.048.023-.006.046.006.051.026.005.02-.01.042-.032.048Z"/><path fill="#EF2D28" fill-rule="evenodd" d="M4.643.947c.02-.005.038.005.042.02.004.016-.007.034-.027.039-.02.005-.038-.005-.042-.02-.004-.016.007-.034.027-.04ZM4.7.964C4.693.939 4.666.926 4.64.932c-.027.007-.045.032-.038.057.006.025.034.038.06.031.026-.006.044-.03.038-.056Z" clip-rule="evenodd"/><path fill="#fff" fill-rule="evenodd" d="M3.702 3.749c1.28 1.255 1.826 1.413 1.57 1.515-.257.101-1.081-.547-1.938-1.407-.858-.86-1.383-1.626-1.126-1.727.257-.101.133.285 1.494 1.619Z" clip-rule="evenodd"/><path fill="#EF2D28" fill-rule="evenodd" d="M2.361 2.708c.206.311.551.717.98 1.147.428.43.848.806 1.193 1.063.172.128.325.226.451.285.063.03.118.05.166.06a.206.206 0 0 0 .115-.004c.031-.013.05-.025.056-.04.006-.015.002-.032-.015-.056a.581.581 0 0 0-.088-.088 5.098 5.098 0 0 0-.162-.132l-.045-.035c-.27-.214-.711-.562-1.317-1.156l.007-.003-.007.003c-.681-.667-.99-1.098-1.162-1.349-.015-.02-.028-.04-.041-.06a5.535 5.535 0 0 0-.065-.095.624.624 0 0 0-.076-.092.114.114 0 0 0-.061-.034.15.15 0 0 0-.077.014.09.09 0 0 0-.057.065.244.244 0 0 0 .008.121c.026.099.094.23.197.386Zm-.222-.511a.101.101 0 0 1 .064-.072.172.172 0 0 1 .087-.015.138.138 0 0 1 .075.04.638.638 0 0 1 .077.095c.02.027.041.059.066.095l.04.06c.172.25.48.68 1.161 1.346.605.593 1.046.942 1.315 1.154l.045.036c.066.052.12.096.163.132a.596.596 0 0 1 .09.091c.019.026.025.047.017.065-.008.018-.03.033-.062.046a.23.23 0 0 1-.129.004.763.763 0 0 1-.171-.061 2.86 2.86 0 0 1-.455-.288 11.491 11.491 0 0 1-1.196-1.064c-.428-.43-.774-.837-.981-1.15a1.463 1.463 0 0 1-.199-.389.252.252 0 0 1-.007-.125Z" clip-rule="evenodd"/><path fill="#fff" fill-rule="evenodd" d="m4.778 4.663-.449.118c.422.401.897.565 1.029.495.131-.07-.238-.236-.58-.612Z" clip-rule="evenodd"/><path fill="#EF2D28" fill-rule="evenodd" d="m4.776 4.658.002.004.002-.002c.147.161.299.284.414.377l.054.044a.674.674 0 0 1 .126.12c.01.015.017.03.014.044-.002.013-.012.025-.029.034-.034.018-.09.02-.16.01a1.097 1.097 0 0 1-.249-.08 2.242 2.242 0 0 1-.624-.426l-.006-.005.456-.12Zm-.001.01-.438.114c.21.198.43.337.617.419.093.04.178.067.247.079.07.011.123.008.154-.009.016-.008.024-.017.025-.028.002-.01-.003-.023-.013-.038a.713.713 0 0 0-.125-.118l-.053-.044a3.567 3.567 0 0 1-.414-.376Z" clip-rule="evenodd"/><path fill="#fff" fill-rule="evenodd" d="m4.778 4.706-.37.094c.411.386.818.495.923.448.106-.047-.22-.18-.553-.542Z" clip-rule="evenodd"/><path fill="#EF2D28" fill-rule="evenodd" d="m4.78 4.701.001.002c.16.173.317.294.426.378l.015.011a.877.877 0 0 1 .118.1c.01.012.017.024.016.035 0 .01-.01.019-.023.025a.253.253 0 0 1-.133.005.986.986 0 0 1-.217-.066 1.99 1.99 0 0 1-.578-.388L4.4 4.798l.38-.097Zm-.363.101c.203.19.405.312.57.38a.978.978 0 0 0 .214.066c.06.01.103.007.128-.004.013-.006.018-.012.018-.018 0-.007-.004-.016-.014-.028a.873.873 0 0 0-.116-.099l-.015-.011a3.163 3.163 0 0 1-.425-.377l-.36.091ZM3.4 3.702a.358.358 0 0 0 0-.01l.008-.002a.422.422 0 0 1 .003.02.292.292 0 0 0 .004.024v.001a.249.249 0 0 0 .005.043l.003.007.003.004a.015.015 0 0 0 .005.003h.002v.002a.046.046 0 0 0 .025.018c.01.008.021.014.033.018a.063.063 0 0 0 .036.003.199.199 0 0 0 .016-.012l.01-.007h.001a.141.141 0 0 1 .006-.031l.009.002a.215.215 0 0 0-.004.016v.004l-.002.01a.13.13 0 0 0 0 .007c0 .01.003.016.008.023l.004.007-.008.004-.003-.006a.058.058 0 0 1-.01-.025.555.555 0 0 0-.006.004h-.001a.199.199 0 0 1-.016.012H3.53a.072.072 0 0 1-.042-.003.154.154 0 0 1-.034-.018.055.055 0 0 1-.027-.02.02.02 0 0 1-.012-.011.052.052 0 0 1-.003-.008.076.076 0 0 0-.002-.007v-.002a.182.182 0 0 1-.004-.037.315.315 0 0 1-.004-.023l-.001-.01Zm.18.16h.047a.16.16 0 0 1 .043.006h.001l.001.001a.08.08 0 0 0 .016.01l.002.001.015.01a.05.05 0 0 1 .02.023.095.095 0 0 1 .011.013l.001.001a.054.054 0 0 0 .01.012h.002v.002a.02.02 0 0 0 .006.01l.002.002.003.003h.01a.037.037 0 0 1 .022 0l.006.002.013.003h.001a.054.054 0 0 0 .01.005.04.04 0 0 0 .011.001v.009c-.006 0-.01 0-.013-.002a.058.058 0 0 1-.011-.004l-.015-.004a.156.156 0 0 0-.005-.002.028.028 0 0 0-.017 0H3.77a.1.1 0 0 0-.006 0l.003.005H3.76a.082.082 0 0 0-.024.005.202.202 0 0 1-.009.006l-.001.001a.104.104 0 0 1-.004.002H3.72l-.003-.001a.004.004 0 0 1 0-.006v-.001l.003-.001.003-.002a.035.035 0 0 1 .01-.006.028.028 0 0 0 .004-.004h.002a.107.107 0 0 0 .01-.004.03.03 0 0 1-.01-.013.068.068 0 0 1-.01-.012v-.001a.082.082 0 0 0-.011-.013h-.001v-.001a.048.048 0 0 0-.018-.021.114.114 0 0 0-.015-.01h-.002a.094.094 0 0 1-.016-.01.15.15 0 0 0-.04-.006H3.58a.172.172 0 0 0-.04.01l-.014.009a.134.134 0 0 1-.004.002H3.52a.004.004 0 0 1-.003-.007h.001l.003-.003.001-.001a.457.457 0 0 1 .014-.007.18.18 0 0 1 .044-.012Zm.194.164a.05.05 0 0 1-.024.014.042.042 0 0 1-.013.002.138.138 0 0 1-.03-.001L3.7 4.04v-.01h.01a.396.396 0 0 0 .027.002c.005 0 .008 0 .01-.002h.001a.041.041 0 0 0 .028-.02l.002-.002a.005.005 0 0 1 .006.001l.001.003v.014l-.002.012c.001.008.003.011.005.014a.096.096 0 0 1 .01.012l.01.006c.002 0 .003.002.004.003a.13.13 0 0 0 .015.008.404.404 0 0 0 .036.017l.009.004.014.008a.03.03 0 0 1 .012.013l.002.006v.002a.064.064 0 0 0 .004.007l.001.001v.002c-.002.013-.004.023-.014.03a.086.086 0 0 1-.02.027.135.135 0 0 1-.004.007l-.002.002a.02.02 0 0 0-.002.005l.008.002h.001a.024.024 0 0 0 .013.002h.005l.002-.001.008-.001v.009h-.007l-.001.001h-.006a.034.034 0 0 1-.017-.001.03.03 0 0 1-.011-.004.009.009 0 0 1-.004-.004V4.21c0-.003.002-.006.004-.008l.001-.002a.108.108 0 0 0 .005-.007v-.001a.077.077 0 0 0 .02-.025v-.002c.008-.005.01-.011.012-.024a.076.076 0 0 1-.004-.01l-.002-.004a.021.021 0 0 0-.009-.01.288.288 0 0 0-.02-.01.342.342 0 0 1-.058-.03l-.01-.006V4.07a.084.084 0 0 0-.007-.007.033.033 0 0 1-.011-.024v-.013Zm.181.193h.047c.013 0 .02.004.027.007l.01.005h.001l.002.002a.085.085 0 0 0 .027.018l.002.001a.451.451 0 0 1 .027.033.111.111 0 0 1 .006.04.056.056 0 0 1-.003.02v.001a.058.058 0 0 0-.003.014v.001a.09.09 0 0 1-.02.036.013.013 0 0 1-.004.005.013.013 0 0 1-.006.003l-.002-.009h.002l.001-.003.001-.001a.082.082 0 0 0 .019-.033c0-.007.002-.011.003-.016v-.001a.054.054 0 0 0 .003-.017.102.102 0 0 0-.006-.036.473.473 0 0 0-.02-.024h.001a.4.4 0 0 1-.006-.006.092.092 0 0 1-.028-.02h-.001a.16.16 0 0 1-.011-.005A.054.054 0 0 0 4 4.228h-.045a.834.834 0 0 1-.049.014l-.002-.009a.832.832 0 0 0 .05-.014Zm.208.171a.033.033 0 0 1 .015-.005l.002.008a.02.02 0 0 0-.006.002l-.004.002a.16.16 0 0 1-.006.007v.001a.096.096 0 0 0-.007.01.064.064 0 0 0-.006.01.129.129 0 0 1-.004.008v.002l-.002.003-.002.015c0 .013 0 .02.005.03l.005.006.002.002a.14.14 0 0 1 .025.026l.02.013a.054.054 0 0 0 .023.009.047.047 0 0 0 .02-.006.553.553 0 0 1 .03-.019.073.073 0 0 0 .014-.017l.001-.002h.002a.045.045 0 0 1 .017-.001c.005 0 .01.003.014.007.007.004.012.01.017.016l.006.004a.062.062 0 0 0 .007.005l-.004.007c-.002 0-.005-.003-.008-.005a.063.063 0 0 0-.006-.004h-.001v-.001a.057.057 0 0 0-.016-.016.02.02 0 0 0-.01-.005l-.013.001a.082.082 0 0 1-.016.018l-.014.01a.472.472 0 0 0-.01.006.14.14 0 0 0-.006.003c-.007.003-.012.006-.024.007a.063.063 0 0 1-.028-.01l-.022-.014a.13.13 0 0 0-.024-.026l-.003-.003a.099.099 0 0 0-.005-.005v-.002c-.006-.011-.006-.02-.006-.033V4.45a.12.12 0 0 0-.006.008v.001h-.002a.022.022 0 0 0-.007.005h-.002a.028.028 0 0 1-.016.005c-.008 0-.013 0-.018-.002a.045.045 0 0 1-.013-.01v-.001a.027.027 0 0 1-.006-.01 4644136.902 4644136.902 0 0 0 0-.002v-.009c.002 0 .003.001.003.002l.002.001.002.004.005.008a.038.038 0 0 0 .01.01.037.037 0 0 0 .015 0c.007 0 .01 0 .011-.002l.001-.001.009-.005.005-.007a.17.17 0 0 0 .01-.014V4.43l.002-.007v-.001a.219.219 0 0 1 .012-.021V4.4l.006-.005.005-.004Z" clip-rule="evenodd"/><path fill="#EF2D28" fill-rule="evenodd" d="M4.311 4.531a.036.036 0 0 1 .005-.003l.003.009-.003.002a.262.262 0 0 0-.007.004s-.002 0-.003.002l-.008.005-.005.012v.002a.151.151 0 0 0-.008.054c.002.012.006.02.01.03l.003.004a.264.264 0 0 1 .007.005l.017.012a.223.223 0 0 0 .036.003h.001l.017.002c.006 0 .011 0 .015-.002h.001a.093.093 0 0 0 .03-.01V4.66a.163.163 0 0 0 .012-.008l.002-.001a.12.12 0 0 1 .014-.008.138.138 0 0 1 .013-.015l.01-.01.004-.006a.097.097 0 0 0 .013-.02l.008.004a.297.297 0 0 1-.008.018.163.163 0 0 0-.006.016v.001l-.003.004a.089.089 0 0 0-.005.01.044.044 0 0 0-.004.016.055.055 0 0 0-.003.019v.02a.198.198 0 0 1 .001.01l.001.008a.05.05 0 0 0 .004.015v.011h-.009v-.008a.062.062 0 0 1-.004-.017V4.71a.394.394 0 0 0-.001-.016V4.68c0-.007 0-.014.003-.02 0-.008.001-.013.004-.018a.1.1 0 0 1 .007-.013.466.466 0 0 1-.018.02l-.002.001a.109.109 0 0 0-.014.008l-.002.002a.173.173 0 0 1-.012.007l-.002.001a.101.101 0 0 1-.031.011.046.046 0 0 1-.019.003.077.077 0 0 1-.018-.003.233.233 0 0 1-.037-.003h-.002a.135.135 0 0 1-.019-.013l-.007-.005-.001-.002a.135.135 0 0 1-.015-.038c0-.015 0-.029.003-.041a.06.06 0 0 1 .005-.017l.001-.003a.086.086 0 0 0 .005-.013v-.001l.002-.001.01-.006.002-.002a.296.296 0 0 1 .007-.004Zm.439.267h-.002V4.8a.893.893 0 0 0-.004.017v.001a.038.038 0 0 1-.023.01.073.073 0 0 1-.028 0l-.002-.001a.094.094 0 0 1-.01-.008v-.001a.047.047 0 0 0-.029-.014.094.094 0 0 0-.029.005.075.075 0 0 0-.02.01h-.001a.065.065 0 0 0-.035.027.084.084 0 0 0-.003.009v.006c0 .002 0 .003.002.005a.022.022 0 0 0 .008.004.118.118 0 0 0 .059.016h.02a.03.03 0 0 1 .02.01.038.038 0 0 1 .014.02.101.101 0 0 1 .001.027.033.033 0 0 1 .003.008l.003.01v.004l.002.008.001.006a.083.083 0 0 0 .036.007.428.428 0 0 0 .01-.036c0-.004.002-.008.003-.01l.002-.013.002-.013a.049.049 0 0 1 .01-.023.122.122 0 0 1 .033-.03.065.065 0 0 1 .03-.016l.003.008c-.009.004-.013.007-.016.012a.052.052 0 0 0-.004.019l.006.002a.17.17 0 0 0 .01.005.08.08 0 0 0 .025.004.059.059 0 0 0 .025-.006.044.044 0 0 0 .014-.014l.006-.009.001.011a.075.075 0 0 0 .008.027l.007.018a.12.12 0 0 1 .01.02l.002.002.01.02v.002c-.001.01-.004.015-.007.02v.002a.05.05 0 0 0-.006.023v.001a.139.139 0 0 0-.004.012v.002l-.003.01a.041.041 0 0 1-.012.019.092.092 0 0 0 .05-.022.244.244 0 0 1 .075-.04h.001a.586.586 0 0 0 .029.001.03.03 0 0 1 .02.01.08.08 0 0 1 .03.043c.004.022.006.038-.006.054a.048.048 0 0 0-.006.017c0 .005.002.01.006.02a.04.04 0 0 0 .019.011.211.211 0 0 0 .03.007.17.17 0 0 0 .045-.008l.002.008a.18.18 0 0 1-.047.009h-.001l-.007-.002a.222.222 0 0 1-.025-.006.048.048 0 0 1-.023-.015.048.048 0 0 1-.007-.024c0-.007.003-.013.007-.021v-.001c.01-.012.008-.025.005-.046a.07.07 0 0 0-.027-.04c-.004-.005-.009-.007-.016-.007h-.028a.24.24 0 0 0-.073.037h.001a.245.245 0 0 1-.018.012.124.124 0 0 1-.064.013v-.009l.014-.001a.015.015 0 0 0 .007-.005.032.032 0 0 0 .01-.017l.004-.01v-.001a.157.157 0 0 1 .004-.012c0-.013.003-.02.006-.026v-.002a.058.058 0 0 0 .007-.016.274.274 0 0 1-.011-.021.108.108 0 0 0-.01-.018L4.9 4.925a.061.061 0 0 0-.007-.018l-.002-.005a.087.087 0 0 1-.005-.015.039.039 0 0 1-.01.008.067.067 0 0 1-.028.007.088.088 0 0 1-.04-.009l-.009-.004-.002-.001v-.003c0-.008.002-.014.004-.02l-.002.002a.113.113 0 0 0-.032.029.04.04 0 0 0-.008.02.254.254 0 0 0-.002.01v.002a.889.889 0 0 0-.005.023l-.012.04-.001.002h-.003a.09.09 0 0 1-.044-.008h-.001l-.001-.002a.326.326 0 0 1-.007-.03.022.022 0 0 0-.002-.007l-.001-.002v-.007l-.001-.02c-.001-.005-.004-.01-.011-.016-.004-.005-.01-.006-.016-.007h-.028a.126.126 0 0 1-.053-.018.03.03 0 0 1-.011-.005.015.015 0 0 1-.005-.01v-.009l.004-.01a.073.073 0 0 1 .04-.032c.007-.004.014-.008.021-.01a.103.103 0 0 1 .032-.006.056.056 0 0 1 .028.01l.007.007a.087.087 0 0 0 .009.008.065.065 0 0 0 .023 0 .032.032 0 0 0 .017-.006.666.666 0 0 0 .003-.013v-.003l.002-.004V4.79l.003-.002a.004.004 0 0 1 .005.002v.008Z" clip-rule="evenodd"/><path fill="#fff" fill-rule="evenodd" d="M2.24 2.617C1.672 1.635 1.296.797 1.398.75c.104-.047.649.712 1.216 1.695l-.374.172Z" clip-rule="evenodd"/><path fill="#EF2D28" fill-rule="evenodd" d="m2.24 2.617.003.005.38-.175-.003-.005a15.668 15.668 0 0 0-.782-1.234 3.778 3.778 0 0 0-.281-.355.662.662 0 0 0-.096-.089.142.142 0 0 0-.036-.019.044.044 0 0 0-.03 0c-.008.004-.013.012-.016.021a.11.11 0 0 0-.003.038c.002.03.01.07.025.12.03.102.085.242.161.41.153.34.389.794.673 1.286l.005-.003Zm-.667-1.286c.152.337.387.79.67 1.279l.363-.168a15.53 15.53 0 0 0-.778-1.228 3.766 3.766 0 0 0-.28-.354.65.65 0 0 0-.094-.087.13.13 0 0 0-.033-.017c-.009-.003-.015-.003-.02 0-.004.001-.008.006-.01.014a.101.101 0 0 0-.003.034c.002.028.01.068.025.118.03.1.084.24.16.41Z" clip-rule="evenodd"/><path fill="#fff" fill-rule="evenodd" d="M2.278 2.6C1.73 1.654 1.353.853 1.435.815c.083-.039.595.7 1.142 1.648" clip-rule="evenodd"/><path fill="#EF2D28" fill-rule="evenodd" d="M1.625 1.364c.153.324.384.76.658 1.235l-.01.004a17.739 17.739 0 0 1-.657-1.235 4.061 4.061 0 0 1-.166-.39.636.636 0 0 1-.03-.115.111.111 0 0 1 0-.034c.002-.01.006-.016.013-.02.007-.003.016-.002.025.002.009.004.02.01.031.02a.726.726 0 0 1 .087.088c.068.08.157.198.26.347.207.299.472.72.746 1.194l-.01.005a18.16 18.16 0 0 0-.744-1.194 4.31 4.31 0 0 0-.26-.346.715.715 0 0 0-.086-.086.129.129 0 0 0-.028-.019C1.446.817 1.44.817 1.438.818c-.003.002-.006.005-.008.013a.103.103 0 0 0 0 .031.628.628 0 0 0 .03.113c.033.095.09.228.165.39Z" clip-rule="evenodd"/><path fill="#fff" fill-rule="evenodd" d="M2.372 2.107c.066.11.137.238.205.356l-.3.139c-.068-.119-.143-.244-.206-.356l.3-.14Z" clip-rule="evenodd"/><path fill="#EF2D28" fill-rule="evenodd" d="m2.063 2.243.31-.144.003.005c.045.074.091.155.137.236l.069.12.003.005-.311.144-.003-.005-.07-.12c-.047-.08-.094-.161-.136-.236l-.002-.005Zm.016.005a12.17 12.17 0 0 0 .2.346l.29-.134a12.129 12.129 0 0 0-.2-.346l-.29.134Z" clip-rule="evenodd"/><path fill="#fff" fill-rule="evenodd" d="M2.345 2.145c.067.111.113.196.182.315l-.224.103c-.069-.118-.12-.202-.182-.314l.224-.104Z" clip-rule="evenodd"/><path fill="#EF2D28" fill-rule="evenodd" d="m2.113 2.246.235-.109.003.005c.044.073.079.134.117.2.02.036.04.074.065.115l.003.005-.235.108-.003-.005a19.297 19.297 0 0 0-.066-.113 6.816 6.816 0 0 1-.116-.201l-.003-.005Zm.016.005.113.196.063.108.214-.098-.062-.11a7.899 7.899 0 0 0-.114-.195l-.214.099Z" clip-rule="evenodd"/><path fill="#fff" fill-rule="evenodd" d="m2.183 2.274.15-.07.133.23-.15.07-.133-.23Zm0 0 .283.16-.283-.16Zm.133.23.017-.3-.017.3Zm-.811-1.403.15-.07-.15.07Z" clip-rule="evenodd"/><path fill="#EF2D28" fill-rule="evenodd" d="m1.658 1.036-.15.07-.006-.01.15-.07.006.01Zm.517 1.235.16-.075.14.241-.161.074-.14-.24Zm.02.003.124.07.008-.13-.132.06Zm.143-.05-.007.127.12.068-.113-.195Zm.116.21-.124-.07-.007.13.131-.06Zm-.143.05.007-.127-.12-.069.113.196Z" clip-rule="evenodd"/><path fill="#EF0000" d="M1.505.991c.023.006.046-.006.052-.026.005-.02-.01-.041-.033-.047-.023-.006-.046.006-.051.026-.005.02.01.041.032.047Z"/><path fill="#EF2D28" fill-rule="evenodd" d="M1.522.924C1.502.92 1.484.93 1.48.945c-.004.016.007.033.027.038.02.005.038-.005.042-.02.004-.016-.007-.034-.027-.039Zm-.057.018c.007-.026.034-.039.06-.032.027.006.045.031.038.056-.006.025-.034.039-.06.032-.026-.007-.044-.031-.038-.056Z" clip-rule="evenodd"/><path fill="#fff" fill-rule="evenodd" d="M2.694 2.117c0 .825.005 1.136-.055 1.179-.058.046-1.659 0-1.659.235 0 .236 1.318.473 1.714.473.528 0 .791-.237.791-.708V2.118h-.79Z" clip-rule="evenodd"/><path fill="#EF2D28" fill-rule="evenodd" d="M2.694 2.112h.796v1.183c0 .237-.066.416-.2.535-.132.12-.332.179-.596.179-.199 0-.628-.06-1.007-.148a3.202 3.202 0 0 1-.497-.152.707.707 0 0 1-.156-.086c-.037-.03-.06-.06-.06-.092 0-.033.028-.06.072-.08a.784.784 0 0 1 .184-.055c.151-.03.353-.047.557-.06.162-.009.325-.014.464-.02.036 0 .071-.002.104-.003a5.953 5.953 0 0 0 .254-.015.167.167 0 0 0 .018-.004.025.025 0 0 0 .008-.003.058.058 0 0 0 .018-.027.28.28 0 0 0 .014-.056 1.68 1.68 0 0 0 .016-.209c.006-.158.006-.388.005-.708v-.174h.006v-.005Zm.005.01v.169c0 .32 0 .55-.005.709a1.728 1.728 0 0 1-.016.21.29.29 0 0 1-.015.058.068.068 0 0 1-.022.032.034.034 0 0 1-.011.004 5.978 5.978 0 0 1-.378.023c-.14.005-.303.01-.464.02-.204.012-.405.03-.556.06a.773.773 0 0 0-.18.053c-.045.021-.067.045-.067.07 0 .028.02.056.056.085a.697.697 0 0 0 .153.084c.13.055.306.107.496.151.378.089.806.148 1.004.148.263 0 .46-.059.59-.176.13-.116.195-.292.195-.527V2.123H2.7Z" clip-rule="evenodd"/><path fill="#fff" fill-rule="evenodd" d="M2.694 2.353v.117c.262.04.53.04.79 0v-.117a2.67 2.67 0 0 1-.79 0Z" clip-rule="evenodd"/><path fill="#EF2D28" fill-rule="evenodd" d="M3.489 2.347v.127h-.004c-.262.04-.53.04-.792 0H2.69v-.122h.005v-.005c.262.04.529.04.79 0h.005Zm-.79.01v.109c.258.038.522.038.78 0v-.109a2.675 2.675 0 0 1-.78 0Z" clip-rule="evenodd"/><path fill="#fff" fill-rule="evenodd" d="M2.694 2.117v.118c.262.04.53.04.79 0v-.118a2.67 2.67 0 0 1-.79 0Z" clip-rule="evenodd"/><path fill="#EF2D28" fill-rule="evenodd" d="M3.489 2.112v.127h-.004c-.262.04-.53.04-.792 0H2.69v-.121h.005v-.005c.262.04.529.04.79 0h.005Zm-.79.01v.11c.258.038.522.038.78 0v-.11a2.674 2.674 0 0 1-.78 0Z" clip-rule="evenodd"/><path fill="#fff" fill-rule="evenodd" d="M2.694 2.234v.118c.262.04.53.04.79 0v-.118a2.67 2.67 0 0 1-.79 0Z" clip-rule="evenodd"/><path fill="#EF2D28" fill-rule="evenodd" d="M3.489 2.23v.127h-.004c-.262.04-.53.04-.792 0H2.69v-.122h.005V2.23c.262.04.529.04.79 0h.005Zm-.79.01v.109c.258.038.522.038.78 0V2.24a2.674 2.674 0 0 1-.78 0Z" clip-rule="evenodd"/><path fill="#fff" fill-rule="evenodd" d="M2.694 2.47v.117c.262.04.53.04.79 0V2.47a2.67 2.67 0 0 1-.79 0Z" clip-rule="evenodd"/><path fill="#EF2D28" fill-rule="evenodd" d="M3.489 2.465v.127h-.004c-.262.04-.53.04-.792 0H2.69V2.47h.005v-.004c.262.039.529.039.79 0l.005-.001Zm-.79.01v.109c.258.038.522.038.78 0v-.109a2.674 2.674 0 0 1-.78 0Z" clip-rule="evenodd"/><path fill="#fff" d="M2.73 2.326c.02 0 .037-.011.037-.025 0-.014-.017-.026-.037-.026-.02 0-.036.012-.036.026 0 .014.017.025.036.025Z"/><path fill="#EF2D28" fill-rule="evenodd" d="M2.707 2.287c-.006.004-.009.009-.009.014 0 .006.003.01.009.015a.04.04 0 0 0 .023.006.04.04 0 0 0 .023-.006.019.019 0 0 0 .009-.015c0-.005-.003-.01-.009-.014a.04.04 0 0 0-.023-.007.04.04 0 0 0-.023.007Zm-.005-.007a.05.05 0 0 1 .028-.009c.01 0 .02.004.028.009a.027.027 0 0 1 .012.021.027.027 0 0 1-.012.022.05.05 0 0 1-.028.008.05.05 0 0 1-.028-.008.027.027 0 0 1-.013-.022c0-.009.006-.016.013-.021Z" clip-rule="evenodd"/><path fill="#fff" d="M2.873 2.34c.02 0 .036-.011.036-.025 0-.015-.016-.026-.036-.026-.02 0-.036.011-.036.026 0 .014.016.025.036.025Z"/><path fill="#EF2D28" fill-rule="evenodd" d="M2.851 2.3c-.005.004-.008.009-.008.014 0 .005.003.01.008.014a.04.04 0 0 0 .023.007.04.04 0 0 0 .024-.007c.005-.004.008-.009.008-.014 0-.005-.003-.01-.008-.014a.04.04 0 0 0-.024-.007.04.04 0 0 0-.023.007Zm-.005-.008a.049.049 0 0 1 .028-.008c.011 0 .021.003.028.008a.027.027 0 0 1 .013.022.027.027 0 0 1-.013.022.049.049 0 0 1-.028.008.049.049 0 0 1-.028-.008.027.027 0 0 1-.012-.022c0-.009.005-.016.012-.022Z" clip-rule="evenodd"/><path fill="#fff" d="M3.018 2.353c.02 0 .036-.012.036-.026 0-.014-.016-.025-.036-.025-.02 0-.037.011-.037.025 0 .014.017.026.037.026Z"/><path fill="#EF2D28" fill-rule="evenodd" d="M2.995 2.313a.019.019 0 0 0-.009.015c0 .005.003.01.009.014a.04.04 0 0 0 .023.007.04.04 0 0 0 .023-.007c.006-.004.009-.01.009-.014 0-.006-.003-.01-.009-.015a.04.04 0 0 0-.023-.006.04.04 0 0 0-.023.006Zm-.005-.007a.049.049 0 0 1 .028-.008c.01 0 .02.003.028.008a.027.027 0 0 1 .012.022.027.027 0 0 1-.012.021.05.05 0 0 1-.028.008.049.049 0 0 1-.028-.008.027.027 0 0 1-.012-.021c0-.01.005-.017.012-.022Z" clip-rule="evenodd"/><path fill="#fff" d="M3.161 2.353c.02 0 .036-.012.036-.026 0-.014-.016-.025-.036-.025-.02 0-.036.011-.036.025 0 .014.016.026.036.026Z"/><path fill="#EF2D28" fill-rule="evenodd" d="M3.139 2.313c-.006.004-.01.01-.01.015 0 .005.004.01.01.014a.04.04 0 0 0 .023.007.04.04 0 0 0 .023-.007c.005-.004.008-.01.008-.014 0-.006-.003-.01-.008-.015a.04.04 0 0 0-.023-.006.04.04 0 0 0-.023.006Zm-.005-.007a.049.049 0 0 1 .028-.008c.01 0 .02.003.028.008a.027.027 0 0 1 .012.022.027.027 0 0 1-.012.021.049.049 0 0 1-.028.008.049.049 0 0 1-.028-.008.027.027 0 0 1-.013-.021c0-.01.005-.017.013-.022Z" clip-rule="evenodd"/><path fill="#fff" d="M3.306 2.34c.02 0 .036-.011.036-.025 0-.015-.016-.026-.036-.026-.02 0-.036.011-.036.026 0 .014.016.025.036.025Z"/><path fill="#EF2D28" fill-rule="evenodd" d="M3.282 2.3c-.006.004-.009.009-.009.014 0 .005.003.01.01.014a.04.04 0 0 0 .022.007.04.04 0 0 0 .023-.007c.006-.004.009-.009.009-.014 0-.005-.003-.01-.009-.014a.04.04 0 0 0-.023-.007.04.04 0 0 0-.023.007Zm-.005-.008a.049.049 0 0 1 .028-.008c.01 0 .02.003.028.008a.027.027 0 0 1 .013.022.027.027 0 0 1-.013.022.049.049 0 0 1-.028.008.049.049 0 0 1-.028-.008.027.027 0 0 1-.012-.022c0-.009.005-.016.012-.022Z" clip-rule="evenodd"/><path fill="#fff" d="M3.45 2.326c.02 0 .035-.011.035-.025 0-.014-.016-.026-.036-.026-.02 0-.036.012-.036.026 0 .014.016.025.036.025Z"/><path fill="#EF2D28" fill-rule="evenodd" d="M3.427 2.287c-.006.004-.01.009-.01.014 0 .006.004.01.01.015a.04.04 0 0 0 .023.006.04.04 0 0 0 .023-.006.02.02 0 0 0 .008-.015c0-.005-.003-.01-.008-.014a.04.04 0 0 0-.023-.007.04.04 0 0 0-.023.007Zm-.005-.007a.049.049 0 0 1 .028-.009c.01 0 .02.004.028.009a.027.027 0 0 1 .012.021.027.027 0 0 1-.012.022.049.049 0 0 1-.028.008.049.049 0 0 1-.028-.008.027.027 0 0 1-.013-.022c0-.009.005-.016.013-.021Z" clip-rule="evenodd"/><path fill="#fff" fill-rule="evenodd" d="m2.694 2.705.79.637-.79-.637Zm.079 0 .712.566-.712-.566Zm.105.024.607.472-.607-.472Zm.078 0 .529.4-.529-.4Zm.08 0 .448.33-.448-.33Zm.079 0 .37.26-.37-.26Zm.079 0 .29.188-.29-.188Zm.08 0 .212.141-.212-.141Zm.078 0 .133.095-.133-.095Zm.08 0 .052.047-.052-.047Zm-.738.047.79.637-.79-.637Zm.79-.07-.87.706.87-.706Zm-.08 0-.764.613.764-.614Zm-.104.023-.607.471.607-.471Zm-.08 0-.527.4.527-.4Zm-.078 0-.448.33.448-.33Zm-.08 0-.368.26.369-.26Zm-.078 0-.29.188.29-.188Zm-.08 0-.211.141.21-.141Zm-.08 0-.131.095.132-.095Zm-.079 0-.052.047.052-.047Zm.74.047-.872.708.871-.708Zm0 .071-.872.707.871-.707Zm0 .07-.872.708.871-.708Zm0 .07-.872.71.871-.71Zm0 .073-.872.706.871-.706Zm0 .07-.872.707.871-.707Zm0 .07-.872.707.871-.707Zm0 .071-.872.708.871-.708Zm0 .07-.819.66.818-.66Zm0 .071-.74.59.74-.59Zm-.028.095-.58.472.58-.472Zm-.025.094-.475.377.475-.377Zm-.053.117-.238.189.238-.189Zm-.685-.872.764.613-.764-.613Zm0 .07.764.614-.764-.613Zm0 .073.738.588-.738-.588Zm0 .07.738.59-.738-.59Zm0 .07.711.566-.711-.565Zm-.027.048.712.565-.712-.565Zm0 .071.66.52-.66-.52Zm-.026.047.66.519-.66-.52Zm-.028.046.633.495-.633-.495Zm0 .07.607.473-.607-.472Zm0 .072.529.424-.529-.424Z" clip-rule="evenodd"/><path fill="#EF2D28" fill-rule="evenodd" d="m2.806 2.738-.035-.029.005-.007.038.03.009-.006.005.007-.006.005.028.023.033-.022-.007-.006.005-.007.01.007.01-.007.006.007-.009.006.03.023.035-.023-.008-.006.005-.008.01.008.012-.007.005.008-.009.005.031.024.033-.024-.008-.006.006-.007.01.008.011-.008.005.007-.008.006.032.024.032-.024-.009-.006.006-.007.01.008.011-.008.005.007-.008.006.033.023.03-.023-.008-.005.005-.008.012.007.009-.007.006.007-.007.006.035.022.029-.022-.008-.006.005-.007.01.007.01-.007.005.007-.006.005.033.023.028-.023-.007-.005.005-.007.009.006.038-.03.005.007-.035.029.035.025.029-.024-.007-.006.006-.007.008.008.038-.031.006.007-.037.03.037.033-.003.003.003.004-.026.021.026.02-.005.007-.029-.02-.024.02.04.026.012-.01.006.008-.01.008.011.007-.005.008-.013-.01-.026.022.043.027-.003.004.003.004-.042.034.042.03-.003.003.003.003-.041.034.04.03-.002.004.003.004-.04.032.04.03-.003.005.003.003-.04.032.04.032-.002.004.002.002-.04.032.04.032-.003.004.003.004-.04.031.04.032-.003.004.003.003-.04.032.04.032-.003.003.003.004-.038.03.012.01-.006.006-.013-.01-.037.03.038.03.011-.009.006.007-.01.008.01.008-.005.007-.012-.01-.035.03.027.02-.006.008-.028-.023-.037.03.038.03.027-.021.006.007-.026.02.026.02-.006.008-.027-.022-.036.028.042.033-.006.007-.043-.034-.035.028.04.032.012-.01.006.008-.01.008.01.009-.006.007-.012-.01-.036.028-.005.006h-.001l-.035.027.016.013-.006.007-.018-.014-.034.027.004.002-.006.008-.005-.004-.036.028.02.016-.005.007-.022-.017-.051.04-.003-.003-.002.003-.045-.036-.134.107-.006-.007.133-.105-.034-.028-.173.14-.006-.006.172-.14-.042-.033-.255.203L2.744 4l.253-.202-.034-.028-.293.237L2.664 4l.292-.235-.035-.028-.304.247-.006-.007.303-.246-.037-.03-.26.212-.006-.007.259-.21-.036-.03-.217.176-.006-.007.215-.175-.036-.029-.173.14-.006-.007.172-.138-.037-.03-.129.106-.006-.007.128-.104-.037-.03-.085.069-.006-.007.084-.068-.037-.03-.04.034-.007-.007.04-.032-.04-.032.003-.003-.003-.003.041-.033-.04-.032.002-.003-.003-.003.04-.033-.04-.032.006-.007.042.033.035-.029-.038-.03-.012.01-.006-.006.011-.01-.01-.007.006-.007.011.009.035-.028-.026-.02.006-.008.028.022.037-.03-.071-.056.006-.007.025.02.036-.028-.04-.032.002-.003-.003-.004.041-.032-.04-.032.002-.004-.002-.003.041-.03-.041-.033.003-.004-.003-.004.043-.03-.043-.034.002-.003-.002-.004.044-.028-.026-.02-.014.009-.005-.008.012-.008-.011-.009.005-.007.014.01.04-.026-.025-.02-.03.02-.005-.007.027-.019-.026-.021.002-.003-.003-.004.038-.034-.037-.03.005-.007.039.03.007-.006.006.007-.006.006.03.023.033-.024Zm-.042.03-.028-.023-.035.03.025.02.038-.027Zm-.03.034.025.02.04-.027-.027-.021-.039.028Zm.046-.034.026.022.036-.024-.028-.022-.034.024Zm-.014.06.04-.027.027.022-.04.026-.027-.021Zm.034.027.04-.026.035.028-.04.027-.035-.029Zm.043.035.04-.027.034.027-.039.029-.035-.029Zm.043.035.038-.029.034.028-.038.028-.034-.027Zm.042.033.037-.028.035.027-.038.03-.034-.029Zm.042.034.037-.029.035.028-.037.03-.035-.029Zm.043.035.036-.03.035.029-.036.03-.035-.03Zm.042.034.037-.03.036.03-.036.03-.037-.03Zm.03.035-.037-.029-.036.029.037.03.035-.03Zm-.029.035.036-.029.036.03-.035.028-.037-.029Zm.03.035-.037-.03-.036.03.036.03.037-.03Zm-.03.036.037-.03.036.03-.036.029-.037-.03Zm.03.035-.037-.03-.036.03.036.03.036-.03Zm-.03.035.037-.03.036.03-.036.03-.037-.03Zm.045.035.036-.029.036.03-.036.029-.036-.03Zm.03.035-.038-.029-.036.03.037.03.036-.03Zm-.045.036-.036-.03-.036.03.036.03.036-.03Zm-.028.035.036-.03.036.03-.036.029-.036-.029Zm.029.035-.037-.029-.035.029.037.028.035-.028Zm-.028.034.035-.028.037.029-.035.028-.037-.029Zm.03.035-.037-.029-.036.029.037.029.035-.029Zm-.029.035.036-.029.037.03-.036.028-.037-.03Zm.03.035-.037-.03-.035.029.037.029.035-.028Zm-.027.034.034-.028.036.028-.035.028-.035-.028Zm.028.034-.035-.028-.035.028.036.027.034-.027Zm-.042.033-.035-.028-.036.03.036.027.035-.029Zm-.028.035.036-.029.035.027-.036.029-.035-.027Zm.027.033-.034-.027-.043.035.034.027.043-.035Zm-.036.04.042.034.044-.036-.042-.032-.044.035Zm.051-.04.042.032.036-.028-.042-.033-.036.029Zm.043-.035.042.033.034-.028-.041-.032-.035.027Zm.042-.033.041.032.035-.028-.041-.032-.035.028Zm.042-.034.041.032.035-.028-.04-.032-.036.028Zm.043-.034.04.032.035-.028-.04-.032-.035.028Zm.043-.034.04.032.034-.029-.039-.031-.035.028Zm.042-.034.04.031.037-.03-.04-.03-.037.029Zm.045-.036.039.031.035-.028-.039-.03-.035.027Zm-.302.32.034.028.046-.036-.036-.028-.044.036Zm.052-.042.035.028.036-.029-.036-.028-.035.03Zm.042-.034.036.028.034-.028-.036-.028-.034.028Zm.042-.034.036.029.035-.028-.037-.03-.034.03Zm.041-.034.037.029.035-.028-.037-.03-.035.029Zm.042-.034.037.03.036-.029-.038-.03-.035.029Zm.043-.034.037.03.036-.029-.038-.03-.035.029Zm-.22.246.04.031.045-.036-.04-.032-.045.037Zm.053-.042.04.031.036-.028-.04-.032-.036.029Zm.043-.035.04.032.034-.027-.04-.032-.034.027Zm.041-.033.04.032.036-.028-.04-.031-.036.027Zm.043-.033.04.031.035-.027-.04-.032-.035.028Zm-.32.03.043-.034-.035-.027-.042.034.034.028Zm-.042-.033.042-.034-.037-.03-.042.034.037.03Zm-.044-.035.042-.034-.037-.029-.041.033.036.03Zm-.044-.035.041-.034-.037-.028-.04.032.036.03Zm-.043-.035.04-.033-.037-.029-.04.033.037.029Zm-.044-.035.04-.032-.038-.03-.039.032.037.03Zm-.044-.036.039-.031-.037-.03-.038.032.036.03Zm-.044-.035.038-.03-.036-.03-.038.031.036.03Zm.441.202.034-.027-.035-.028-.034.028.035.027Zm.007-.06.035.027.035-.028-.036-.028-.034.029Zm.042-.034.035.027.035-.028-.035-.028-.035.029Zm.042-.035.035.028.036-.028-.036-.028-.035.028Zm.043-.034.035.028.036-.028-.036-.029-.035.03Zm.042-.034.036.028.037-.03-.036-.028-.037.03Zm.045-.036.036.029.035-.029-.036-.029-.035.029Zm.042-.035.036.03.038-.03-.037-.03-.037.03Zm.045-.035.036.029.034-.028-.036-.029-.034.028Zm-.436.272.036-.03-.038-.028-.036.029.038.029Zm-.045-.035.036-.03-.037-.028-.036.03.037.028Zm-.044-.034.036-.03-.037-.029-.036.03.037.029Zm-.045-.035.037-.03-.037-.028-.036.03.036.028Zm-.044-.034.036-.03-.037-.03-.037.03.038.03Zm-.045-.035.037-.03-.037-.029-.037.03.037.029Zm-.044-.035.036-.03-.036-.028-.037.03.037.028Zm-.044-.034.036-.03-.037-.03-.037.03.038.03Zm.354.207.034-.028-.037-.03-.034.029.037.029Zm-.045-.035.035-.028-.037-.029-.035.028.037.029Zm-.044-.035.035-.028-.037-.029-.035.029.037.028Zm-.044-.034.035-.028-.037-.03-.035.029.037.029Zm-.044-.035.034-.028-.037-.03-.035.029.038.03Zm-.045-.035.035-.028-.037-.03-.035.03.037.028Zm-.044-.034.035-.029-.037-.029-.035.029.037.029Zm-.044-.035.035-.028-.038-.03-.035.029.038.03Zm.436.209.035-.029-.035-.028-.035.029.035.028Zm.007-.063.036.029.035-.029-.036-.028-.035.028Zm.043-.034.035.028.036-.028-.036-.029-.035.029Zm.042-.035.036.029.037-.03-.036-.029-.037.03Zm.044-.036.036.029.036-.029-.036-.028-.036.028Zm.043-.034.036.029.037-.03-.036-.03-.037.03Zm.044-.036.036.029.035-.028-.037-.029-.034.028Zm.042-.034.036.03.037-.03-.037-.03-.036.03Zm-.394.237.035-.028-.037-.03-.035.03.037.028Zm-.044-.035L3 3.517l-.036-.029-.035.029.037.028Zm-.044-.034.035-.028-.037-.03-.035.029.037.029Zm-.044-.035.034-.028-.037-.03-.035.029.038.029Zm-.045-.035.035-.028-.037-.03-.035.029.037.029Zm-.044-.035.035-.028-.037-.029-.034.028.036.03Zm-.044-.034.035-.029-.038-.029-.034.028.037.03Zm-.045-.036.035-.028-.037-.03-.035.029.037.03Zm.439.21.035-.028-.037-.03-.035.03.037.028Zm.005-.063.037.029.036-.029-.037-.03-.036.03Zm.043-.035.037.03.037-.03-.037-.03-.037.03Zm.044-.036.037.03.036-.03-.037-.029-.036.03Zm.043-.035.037.03.037-.03-.037-.03-.037.03Zm.044-.035.037.029.034-.028-.036-.03-.035.029Zm.042-.034.036.03.037-.03-.037-.03-.036.03Zm.044-.036.036.03.038-.03-.037-.03-.037.03Zm-.396.24.035-.03-.036-.029-.036.03.037.028Zm-.044-.035L3 3.447l-.037-.029-.036.03.037.029Zm-.044-.035.036-.03-.037-.029-.037.03.038.029Zm-.045-.035.036-.03-.036-.029-.037.03.037.029Zm-.044-.035.036-.03-.036-.028-.037.03.037.028Zm-.044-.034.037-.03-.038-.03-.036.03.037.03Zm-.045-.036.037-.03-.037-.029-.037.03.037.03Zm.395.175.036-.03-.037-.028-.036.029.037.029Zm.006-.064.037.029.037-.03-.037-.029-.037.03Zm.044-.036.037.03.035-.03-.036-.029-.036.03Zm.043-.035.037.03.036-.03-.036-.03-.037.03Zm.044-.035.037.029.034-.028-.036-.03-.035.029Zm.042-.035.036.03.037-.03-.036-.03-.037.03Zm.044-.035.036.03.037-.03-.036-.03-.037.03Zm.044-.036.036.03.037-.03-.037-.029-.036.03Zm-.397.24.035-.028-.037-.03-.035.03.037.029Zm-.044-.034.035-.029-.037-.03-.035.03.037.029Zm-.045-.036.036-.028-.037-.03-.035.03.036.028Zm-.043-.034.035-.029-.037-.029-.035.029.037.029Zm-.044-.035.035-.029-.037-.03-.035.03.037.029Zm-.045-.035.036-.029-.037-.03-.036.03.037.029Zm-.044-.036.036-.028-.04-.032-.036.029.04.031Zm.394.176.037-.03-.036-.029-.037.03.036.029Zm.008-.065.036.03.036-.03-.036-.029-.036.03Zm.043-.035.036.03.037-.03-.036-.03-.037.03Zm.044-.035.036.029.035-.028-.036-.03-.035.029Zm.042-.034.036.029.037-.03-.036-.03-.037.03Zm.044-.036.036.029.036-.03-.036-.028-.036.029Zm.043-.035.037.028.035-.029-.036-.028-.036.029Zm.043-.035.037.029.037-.03-.037-.029-.037.03Zm-.398.24.036-.03-.037-.029-.036.03.037.03Zm-.044-.035.036-.03-.036-.028-.036.029.036.029Zm-.044-.035.037-.03-.037-.028-.036.03.036.028Zm-.044-.035.037-.03-.037-.029-.037.03.037.03Zm-.044-.035.037-.03-.037-.029-.037.03.037.03Zm-.044-.035.037-.03-.039-.03-.037.029.039.031Zm-.047-.037.038-.03-.037-.029-.038.03.037.029Zm.31.177.037-.03-.037-.03-.036.03.037.03Zm-.044-.035.037-.03-.036-.029-.037.03.036.029Zm-.043-.035.036-.03-.036-.029-.037.03.037.029Zm-.044-.035.036-.03-.036-.03-.037.03.037.03Zm-.044-.036.036-.029-.036-.029-.037.03.037.028Zm-.044-.034.037-.03-.038-.03-.037.029.038.03Zm-.046-.037.037-.029-.036-.03-.038.03.037.029Zm-.044-.036.037-.028-.037-.03-.037.029.037.03Zm.44.213.037-.03-.036-.03-.037.03.037.03Zm.008-.066.037.03.034-.028-.036-.03-.035.028Zm.042-.034.037.03.036-.03-.037-.03-.036.03Zm.044-.036.037.03.036-.03-.037-.029-.036.03Zm.043-.035.037.03.035-.029-.037-.029-.035.028Zm.042-.034.038.03.037-.03-.039-.03-.036.03Zm.044-.036.038.03.037-.03-.039-.03-.036.03Zm-.266.205.036-.03-.036-.029-.037.03.037.03Zm.007-.065.036.03.035-.029-.036-.03-.035.03Zm.042-.034.037.03.036-.03-.036-.03-.037.03Zm.044-.036.036.03.036-.03-.037-.029-.035.03Zm.043-.035.036.03.035-.029-.037-.029-.034.028Zm.041-.033.037.028.037-.03-.038-.028-.036.03Zm.044-.036.037.029.037-.03-.038-.028-.036.03Zm.043-.035.038.028.038-.03-.039-.028-.037.03Zm-.395.24.036-.03-.037-.03-.036.03.037.03Zm-.044-.036.036-.03-.037-.029-.036.03.037.03Zm-.045-.035.037-.03-.036-.028-.037.03.036.028Zm-.043-.035.037-.03-.037-.03-.038.03.038.03Zm-.045-.036.037-.029-.036-.029-.038.03.037.028Zm-.044-.035.038-.029-.036-.029-.039.029.037.03ZM2.74 3.02l.039-.029-.038-.03-.04.028.039.031Zm.395.175.036-.028-.037-.03-.035.03.036.028Zm.007-.063.036.029.036-.03-.036-.029-.036.03Zm.044-.036.036.03.035-.03-.036-.028-.035.028Zm.042-.034.036.028.035-.027-.037-.029-.034.028Zm.041-.034.037.029.036-.03L3.306 3l-.036.03Zm.043-.035.037.029.036-.03-.038-.027-.035.028Zm.043-.034.037.028.037-.03-.038-.028-.036.03Zm.043-.036.039.027.04-.032-.04-.025-.039.03Zm-.394.238.037-.03-.037-.03-.036.03.036.03Zm-.044-.035.037-.03-.036-.029-.037.03.036.029Zm-.043-.035.037-.03-.037-.029-.037.03.037.029Zm-.044-.036.037-.029-.035-.028-.038.028.036.03Zm-.043-.034.037-.03-.035-.027-.038.028.036.029Zm-.044-.035.039-.028-.037-.03-.04.028.038.03Zm-.044-.036.039-.028-.039-.03-.04.026.04.032Zm.392.176.037-.03-.037-.03-.036.03.036.03Zm.008-.065.036.03.036-.03-.037-.029-.035.029Zm.042-.035.037.03.034-.028L3.218 3l-.033.027Zm.04-.033.038.03.035-.03-.038-.028-.035.028Zm.043-.034.038.029.035-.029-.039-.028-.034.028Zm.042-.034.038.028.036-.029-.04-.028-.034.029Zm.042-.035.04.028.037-.03-.04-.027-.037.03Zm.044-.035.04.026.027-.02-.04-.028-.027.022Zm-.39.235.035-.029-.036-.028-.035.028.035.029Zm-.044-.034.036-.03-.036-.028-.036.028.036.03ZM2.92 3.02l.036-.028-.035-.028-.037.028.036.028Zm-.043-.034.037-.028-.035-.028-.037.028.035.028Zm-.043-.034.038-.028-.036-.028-.038.027.036.029Zm-.044-.035.04-.027-.037-.03-.04.027.037.03Zm-.045-.036.04-.027-.026-.02-.04.026.026.02Zm.391.174.035-.028-.036-.03-.035.029.036.029Zm.006-.063.036.029.034-.027-.037-.03-.033.028Zm.025-.033-.032.027-.036-.028.033-.026.035.027Zm-.042-.033-.033.026-.034-.027.032-.026.035.027Zm-.042-.032-.033.025-.034-.027.033-.025.034.027ZM3.04 2.86l-.032.025-.034-.027.033-.024.033.026ZM3 2.83l-.033.024-.034-.026.033-.023.033.025Zm-.041-.031-.033.023-.033-.026.034-.022.032.025Zm-.04-.031-.029-.022-.032.022.027.022.034-.022Zm-.042.027-.027-.022-.036.024.027.022.036-.024Zm.008.006-.037.024.035.027.035-.025-.033-.026Zm.04.032-.035.025.034.028.035-.026-.033-.027Zm.042.033-.035.026.033.027L3 2.892l-.033-.027Zm.04.032-.034.027.034.028.035-.027-.034-.028Zm.042.034-.035.027.035.028.035-.028-.035-.027Zm.008.06.035.029.034-.028-.035-.028-.034.028Zm.161-.003.035-.029-.037-.028-.035.028.037.029Zm-.044-.035.034-.028-.035-.027-.035.028.036.027ZM3.13 2.92l.034-.027-.034-.026-.034.027.034.026Zm-.042-.032.035-.027-.034-.026-.035.026.034.027Zm-.041-.033.034-.026-.033-.025-.034.026.033.025Zm-.04-.031.033-.025-.032-.025-.035.024.033.026Zm-.041-.032L3 2.768l-.03-.023-.036.023.032.024Zm.05-.024.032.025.033-.024-.032-.024-.033.023Zm.073.006-.033.025.033.025.033-.025-.033-.025Zm.04.019-.032-.024.032-.024.033.023-.033.025Zm-.033.036.034.026.034-.026-.035-.025-.033.025Zm.041-.03.034.025.033-.026-.034-.024-.033.024Zm.04-.031.035.024.031-.025-.035-.023-.03.024Zm-.04.093.035.026.033-.027-.034-.025-.033.026Zm.042-.032.033.025.034-.027-.034-.024-.033.026Zm.04-.031.034.023.033-.026-.034-.022-.033.025Zm.04-.031.034.022.028-.022-.033-.023-.029.023Zm.07.005-.027.022.037.024.027-.022-.037-.024Zm.045.03-.027.022.04.025.026-.021-.04-.026Zm.047.02.024-.02-.038-.027-.026.02.04.027Zm-.048-.032.027-.021-.036-.025-.027.022.036.024Zm.08.006.024-.02-.034-.03-.028.023.038.027Zm-.074.06-.04-.026-.034.028.038.027.036-.03Zm-.043.035L3.3 2.864l-.035.027.038.028.035-.028Zm-.042.034-.038-.028-.034.028.037.028.035-.028Zm-.08-.006.034-.027-.035-.026-.034.026.035.027Zm.042-.033.034-.028-.037-.025-.033.027.036.026Zm.041-.034.034-.028-.037-.024-.033.027.036.025Z" clip-rule="evenodd"/><path fill="#fff" fill-rule="evenodd" d="M2.694 2.589v.118c.262.039.53.039.79 0v-.118a2.67 2.67 0 0 1-.79 0Z" clip-rule="evenodd"/><path fill="#EF2D28" fill-rule="evenodd" d="M3.489 2.583v.127h-.004c-.262.04-.53.04-.792 0H2.69v-.122h.005v-.004c.262.039.529.039.79 0l.005-.001Zm-.79.01v.11c.258.038.522.038.78 0v-.11a2.674 2.674 0 0 1-.78 0Z" clip-rule="evenodd"/><path fill="#fff" fill-rule="evenodd" d="m2.614 3.556.475.377-.475-.377Zm0 .07.422.33-.422-.33Zm0 .07.37.284-.37-.283Zm0 .071.264.213-.264-.213Zm0 .071.21.165-.21-.165Zm0 .071.131.094-.132-.094Z" clip-rule="evenodd"/><path fill="#EF2D28" fill-rule="evenodd" d="m3.087 3.936-.475-.377.006-.007.475.377-.006.007Zm-.053.024-.422-.33.006-.007.422.33-.006.007Zm-.053.023L2.612 3.7l.006-.007.369.283-.006.007Zm-.105 0-.264-.212.006-.008.264.213-.006.007Zm-.053.024-.212-.165.006-.007.211.165-.005.007Zm-.08 0-.132-.095.006-.007.132.094-.006.008Z" clip-rule="evenodd"/><path fill="#fff" d="M2.73 2.68c.02 0 .037-.01.037-.025 0-.014-.017-.025-.037-.025-.02 0-.036.011-.036.025 0 .014.017.026.036.026Z"/><path fill="#EF2D28" fill-rule="evenodd" d="M2.707 2.64a.019.019 0 0 0-.009.015c0 .005.003.01.009.014a.04.04 0 0 0 .023.007.04.04 0 0 0 .023-.007c.006-.004.009-.009.009-.014 0-.005-.003-.01-.009-.015a.04.04 0 0 0-.023-.006.04.04 0 0 0-.023.006Zm-.005-.007a.05.05 0 0 1 .028-.008c.01 0 .02.003.028.008a.027.027 0 0 1 .012.022.027.027 0 0 1-.012.021.05.05 0 0 1-.028.009.05.05 0 0 1-.028-.009.027.027 0 0 1-.013-.021c0-.009.006-.017.013-.022Z" clip-rule="evenodd"/><path fill="#fff" d="M2.873 2.693c.02 0 .036-.01.036-.025 0-.014-.016-.025-.036-.025-.02 0-.036.011-.036.025 0 .014.016.025.036.025Z"/><path fill="#EF2D28" fill-rule="evenodd" d="M2.851 2.654c-.005.004-.008.01-.008.014 0 .006.003.01.008.015a.04.04 0 0 0 .023.007.04.04 0 0 0 .024-.007.02.02 0 0 0 .008-.015c0-.005-.003-.01-.008-.014a.04.04 0 0 0-.024-.007.04.04 0 0 0-.023.007Zm-.005-.007a.049.049 0 0 1 .028-.008c.011 0 .021.003.028.008a.027.027 0 0 1 .013.021.027.027 0 0 1-.013.022.049.049 0 0 1-.028.008.049.049 0 0 1-.028-.008.027.027 0 0 1-.012-.022c0-.008.005-.016.012-.021Z" clip-rule="evenodd"/><path fill="#fff" d="M3.018 2.705c.02 0 .036-.011.036-.025 0-.014-.016-.026-.036-.026-.02 0-.037.012-.037.026 0 .014.017.025.037.025Z"/><path fill="#EF2D28" fill-rule="evenodd" d="M2.995 2.667c-.006.004-.009.009-.009.014 0 .005.003.01.009.015a.04.04 0 0 0 .023.006.04.04 0 0 0 .023-.006.019.019 0 0 0 .009-.015c0-.005-.003-.01-.009-.014a.04.04 0 0 0-.023-.007.04.04 0 0 0-.023.007ZM2.99 2.66a.049.049 0 0 1 .028-.009c.01 0 .02.003.028.009a.027.027 0 0 1 .012.021.027.027 0 0 1-.012.022.05.05 0 0 1-.028.008.049.049 0 0 1-.028-.008.027.027 0 0 1-.012-.022c0-.009.005-.016.012-.021Z" clip-rule="evenodd"/><path fill="#fff" d="M3.161 2.705c.02 0 .036-.011.036-.025 0-.014-.016-.026-.036-.026-.02 0-.036.012-.036.026 0 .014.016.025.036.025Z"/><path fill="#EF2D28" fill-rule="evenodd" d="M3.139 2.667c-.006.004-.01.009-.01.014 0 .005.004.01.01.015a.04.04 0 0 0 .023.006.04.04 0 0 0 .023-.006.02.02 0 0 0 .008-.015c0-.005-.003-.01-.008-.014a.04.04 0 0 0-.023-.007.04.04 0 0 0-.023.007Zm-.005-.007a.049.049 0 0 1 .028-.009c.01 0 .02.003.028.009a.027.027 0 0 1 .012.021.027.027 0 0 1-.012.022.049.049 0 0 1-.028.008.049.049 0 0 1-.028-.008.027.027 0 0 1-.013-.022c0-.009.005-.016.013-.021Z" clip-rule="evenodd"/><path fill="#fff" d="M3.306 2.693c.02 0 .036-.01.036-.025 0-.014-.016-.025-.036-.025-.02 0-.036.011-.036.025 0 .014.016.025.036.025Z"/><path fill="#EF2D28" fill-rule="evenodd" d="M3.282 2.654c-.006.004-.009.01-.009.014 0 .006.003.01.01.015a.04.04 0 0 0 .022.007.04.04 0 0 0 .023-.007.019.019 0 0 0 .009-.015c0-.005-.003-.01-.009-.014a.04.04 0 0 0-.023-.007.04.04 0 0 0-.023.007Zm-.005-.007a.049.049 0 0 1 .028-.008c.01 0 .02.003.028.008a.027.027 0 0 1 .013.021.027.027 0 0 1-.013.022.049.049 0 0 1-.028.008.049.049 0 0 1-.028-.008.027.027 0 0 1-.012-.022c0-.008.005-.016.012-.021Z" clip-rule="evenodd"/><path fill="#fff" d="M3.45 2.68c.02 0 .035-.01.035-.025 0-.014-.016-.025-.036-.025-.02 0-.036.011-.036.025 0 .014.016.026.036.026Z"/><path fill="#EF2D28" fill-rule="evenodd" d="M3.427 2.64c-.006.004-.01.01-.01.015 0 .005.004.01.01.014a.04.04 0 0 0 .023.007.04.04 0 0 0 .023-.007c.005-.004.008-.009.008-.014 0-.005-.003-.01-.008-.015a.04.04 0 0 0-.023-.006.04.04 0 0 0-.023.006Zm-.005-.007a.049.049 0 0 1 .028-.008c.01 0 .02.003.028.008a.027.027 0 0 1 .012.022.027.027 0 0 1-.012.021.049.049 0 0 1-.028.009.049.049 0 0 1-.028-.009.027.027 0 0 1-.013-.021c0-.009.005-.017.013-.022Z" clip-rule="evenodd"/><path fill="#fff" fill-rule="evenodd" d="m1.56 3.814.949-.495-.95.495Zm-.053-.024.897-.47-.897.47Zm-.026-.047.817-.424-.817.424Zm-.027-.046.712-.378-.712.378ZM1.4 3.649l.66-.33-.66.33Zm.027-.07.448-.236-.448.236ZM1.4 3.53l.343-.188-.343.188Zm0-.07.239-.118-.239.117Zm.239.377.896-.472-.896.472Zm.08.023.843-.448-.844.448Zm.078.024.791-.425-.79.425Zm.079.023.66-.353-.66.353Zm.105 0 .58-.306-.58.306Zm.079.024.5-.26-.5.26Zm.079.023.396-.212-.396.212Zm.105.001.317-.166-.317.166Zm.106.023.212-.118-.212.118Zm.107 0 .132-.07-.132.07Z" clip-rule="evenodd"/><path fill="#EF2D28" fill-rule="evenodd" d="m2.062 3.324-.66.33-.003-.009.659-.33.004.009Zm.238 0-.817.423-.004-.008.817-.424.004.009Zm.211 0-.949.495-.004-.008.949-.496.004.009Zm-.105 0-.897.47-.004-.007.897-.472.004.009Zm-.237 0-.713.377-.004-.008.712-.378.005.009Zm-.528.023-.238.118-.004-.009.238-.117.004.008Zm.237 0-.448.236-.005-.008.448-.236.005.008Zm-.133 0-.342.188-.005-.008.343-.188.004.008Zm-.108.487.896-.472.004.008-.896.472-.004-.008Zm.927-.417-.843.448-.005-.008.844-.448.004.008Zm.027.048-.791.424-.005-.008.791-.424.005.008Zm-.053.094-.66.353-.004-.008.66-.353.004.008Zm.026.047-.58.306-.005-.008.58-.306.005.008Zm0 .07-.502.26-.004-.008.5-.26.005.009Zm-.027.071-.396.213-.004-.008.396-.213.004.008Zm.026.048-.316.165-.004-.008.316-.165.004.008Zm.001.07-.211.119-.005-.008.212-.119.004.008Zm.027.048-.131.07-.005-.007.132-.071.004.008Z" clip-rule="evenodd"/><path fill="#fff" fill-rule="evenodd" d="M2.64 3.296h-.132a1.914 1.914 0 0 0 0 .707h.132a1.914 1.914 0 0 1 0-.707Z" clip-rule="evenodd"/><path fill="#EF2D28" fill-rule="evenodd" d="M2.646 4.008h-.14l-.001-.004a1.918 1.918 0 0 1 0-.708v-.004h.136v.005h.004a1.909 1.909 0 0 0 0 .705l.001.006Zm-.01-.707h-.123a1.905 1.905 0 0 0 0 .698h.122a1.918 1.918 0 0 1 0-.698Zm-1.451.256-.098.073-.006-.008.097-.071-.097-.087.006-.006.098.087.213-.158.005.007-.211.157.211.19-.006.006-.212-.19Z" clip-rule="evenodd"/><path fill="#fff" fill-rule="evenodd" d="m1.56 3.343-.159.023a.87.87 0 0 0 0 .425l.159.047a1.176 1.176 0 0 1 0-.495Z" clip-rule="evenodd"/><path fill="#EF2D28" fill-rule="evenodd" d="M1.564 3.842 1.4 3.793v-.002a.873.873 0 0 1 0-.426v-.002l.16-.024.001.003h.003a1.18 1.18 0 0 0 0 .495l.001.005Zm-.008-.496-.152.023a.865.865 0 0 0 0 .419l.152.045a1.184 1.184 0 0 1 0-.487Z" clip-rule="evenodd"/><path fill="#fff" fill-rule="evenodd" d="M3.485 2.163v-.119c-.12.002-.198-.07-.198-.14h-.395c0 .07-.078.142-.198.142v.117h.791Z" clip-rule="evenodd"/><path fill="#EF2D28" fill-rule="evenodd" d="M3.292 1.897v.006c0 .067.075.137.193.136h.005v.124h-.005v.006h-.797v-.13h.006c.118 0 .192-.07.192-.135v-.006h.406Zm.187.26V2.05c-.115-.001-.194-.069-.198-.141h-.384c-.004.072-.082.14-.197.142v.107h.78Z" clip-rule="evenodd"/><path fill="#fff" fill-rule="evenodd" d="M2.919 1.764h.34v.141h-.34v-.141Zm.029-.142h.282v.142h-.283l.001-.142Zm0-.141h.282v.141h-.283l.001-.141Zm.028-.189h.226v.189h-.226v-.189Zm-.01-.165h.246v.165h-.245v-.165Z" clip-rule="evenodd"/><path fill="#EF2D28" fill-rule="evenodd" d="M2.96 1.121h.256v.175h-.01v.18h.028v.282h.028v.151h-.349v-.151h.028l.001-.132v-.15h.028v-.18h-.01v-.175Zm.02.175v.18h.216v-.18H2.98Zm-.028.189v.131h.272v-.131h-.272Zm.272.141h-.272v.132h.272v-.132Zm-.301.142V1.9h.33v-.132h-.33Zm.283-.482v-.155h-.235v.155h.235Z" clip-rule="evenodd"/><path fill="#fff" d="M3.102 1.198c.18 0 .327-.1.327-.225C3.43.85 3.283.75 3.102.75c-.18 0-.327.1-.327.224s.147.225.327.225Z"/><path fill="#EF2D28" fill-rule="evenodd" d="M2.874.818c-.059.04-.094.095-.094.155s.035.115.094.155c.058.04.139.065.228.065a.41.41 0 0 0 .229-.065c.058-.04.093-.095.093-.155S3.39.858 3.331.818a.408.408 0 0 0-.229-.065c-.09 0-.17.025-.228.065ZM2.868.811a.417.417 0 0 1 .234-.067c.091 0 .174.025.234.067.06.04.098.098.098.162s-.038.121-.098.162a.417.417 0 0 1-.234.067.417.417 0 0 1-.234-.067c-.06-.04-.097-.098-.097-.162s.037-.121.097-.162Z" clip-rule="evenodd"/><path fill="#fff" fill-rule="evenodd" d="M3.266.962c0 .061.081.165.081.165a.46.46 0 0 1-.245.07c-.09 0-.202-.016-.246-.07 0 0 .082-.103.082-.165 0-.062-.082-.141-.082-.141a.465.465 0 0 1 .491 0s-.081.08-.081.141Z" clip-rule="evenodd"/><path fill="#EF2D28" fill-rule="evenodd" d="M3.103.745c.09 0 .187.03.247.071l.005.004-.004.004a.316.316 0 0 0-.04.047.28.28 0 0 0-.028.045.112.112 0 0 0-.012.046c0 .014.005.031.012.05a.404.404 0 0 0 .056.095l.009.012.002.003.001.001.003.004-.004.003a.464.464 0 0 1-.248.072.608.608 0 0 1-.141-.015.197.197 0 0 1-.108-.058l-.002-.003.002-.003h.001a.6.6 0 0 0 .068-.111.137.137 0 0 0 .012-.05.112.112 0 0 0-.012-.046.443.443 0 0 0-.067-.091L2.854.823 2.85.82l.005-.004a.47.47 0 0 1 .248-.07Zm-.239.076a.426.426 0 0 1 .066.09.12.12 0 0 1 .013.051.146.146 0 0 1-.013.054.411.411 0 0 1-.056.096.629.629 0 0 1-.01.013l-.001.001a.198.198 0 0 0 .1.052.6.6 0 0 0 .14.015.45.45 0 0 0 .238-.068.625.625 0 0 1-.066-.11.148.148 0 0 1-.013-.053c0-.017.005-.034.013-.05a.448.448 0 0 1 .066-.09.465.465 0 0 0-.477 0Z" clip-rule="evenodd"/><path fill="#fff" fill-rule="evenodd" d="M3.211.962c0 .061.082.189.082.189-.06.04-.1.046-.191.046-.09 0-.148.007-.19-.046 0 0 .08-.127.08-.19 0-.062-.08-.164-.08-.164.058-.04.1-.047.19-.047s.131.007.19.047c0 0-.08.103-.08.165Z" clip-rule="evenodd"/><path fill="#EF2D28" fill-rule="evenodd" d="M2.918.797v.001a.615.615 0 0 1 .066.11.147.147 0 0 1 .013.053.177.177 0 0 1-.013.058.574.574 0 0 1-.065.128l-.002.003a.11.11 0 0 0 .072.04.525.525 0 0 0 .113.002.479.479 0 0 0 .106-.008.23.23 0 0 0 .078-.035v-.002a.888.888 0 0 1-.067-.128.176.176 0 0 1-.013-.058c0-.016.006-.035.013-.053A.414.414 0 0 1 3.276.81a.599.599 0 0 1 .01-.014.23.23 0 0 0-.078-.034.478.478 0 0 0-.106-.009.479.479 0 0 0-.106.009.23.23 0 0 0-.078.034ZM3.296.8 3.3.795 3.295.792A.245.245 0 0 0 3.21.754a.487.487 0 0 0-.108-.009.487.487 0 0 0-.108.009.244.244 0 0 0-.086.038l-.004.003.003.004.001.001.003.004a.603.603 0 0 1 .065.107.138.138 0 0 1 .012.05.169.169 0 0 1-.013.055.567.567 0 0 1-.064.126.523.523 0 0 1-.003.004v.001l-.003.004.002.002a.12.12 0 0 0 .08.045.57.57 0 0 0 .086.004h.029a.487.487 0 0 0 .108-.009.244.244 0 0 0 .085-.039l.004-.002-.003-.004v-.002a1.717 1.717 0 0 1-.04-.07.574.574 0 0 1-.028-.06.168.168 0 0 1-.012-.055.13.13 0 0 1 .012-.05.405.405 0 0 1 .056-.095A.624.624 0 0 1 3.295.8h.001Z" clip-rule="evenodd"/><path fill="#fff" d="M2.776 1.055c.045 0 .081-.031.081-.07 0-.04-.036-.07-.081-.07-.045 0-.082.03-.082.07 0 .039.037.07.082.07Z"/><path fill="#EF2D28" fill-rule="evenodd" d="M2.776.918c-.043 0-.077.03-.077.066 0 .036.034.066.077.066s.077-.03.077-.066c0-.035-.034-.066-.077-.066Zm-.087.066c0-.042.04-.075.087-.075.047 0 .086.033.086.075 0 .042-.04.076-.086.076-.047 0-.087-.034-.087-.076Z" clip-rule="evenodd"/><path fill="#fff" d="M3.43 1.055c.045 0 .082-.031.082-.07 0-.04-.037-.07-.082-.07-.045 0-.081.03-.081.07 0 .039.036.07.081.07Z"/><path fill="#EF2D28" fill-rule="evenodd" d="M3.43.918c-.043 0-.077.03-.077.066 0 .036.034.066.077.066s.077-.03.077-.066c0-.035-.034-.066-.077-.066Zm-.086.066c0-.042.039-.075.086-.075.047 0 .086.033.086.075 0 .042-.04.076-.086.076-.047 0-.086-.034-.086-.076Z" clip-rule="evenodd"/><path fill="#fff" d="M3.103 1.055c.045 0 .082-.031.082-.07 0-.04-.037-.07-.082-.07-.045 0-.082.03-.082.07 0 .039.037.07.082.07Z"/><path fill="#EF2D28" fill-rule="evenodd" d="M3.103.918c-.043 0-.077.03-.077.066 0 .036.034.066.077.066s.077-.03.077-.066c0-.035-.034-.066-.077-.066Zm-.086.066c0-.042.039-.075.086-.075.047 0 .086.033.086.075 0 .042-.04.076-.086.076-.047 0-.086-.034-.086-.076Z" clip-rule="evenodd"/><path fill="#fff" d="M3.103.82c.045 0 .082-.032.082-.07 0-.04-.037-.071-.082-.071-.045 0-.082.031-.082.07 0 .04.037.07.082.07Z"/><path fill="#EF2D28" fill-rule="evenodd" d="M3.103.683c-.043 0-.077.03-.077.066 0 .036.034.066.077.066s.077-.03.077-.066c0-.036-.034-.066-.077-.066ZM3.017.75c0-.042.039-.075.086-.075.047 0 .086.033.086.075 0 .042-.04.075-.086.075-.047 0-.086-.033-.086-.075Z" clip-rule="evenodd"/><path fill="#fff" d="M2.864 2.164c.046 0 .084-.032.084-.071 0-.039-.038-.07-.084-.07-.047 0-.085.031-.085.07 0 .039.038.07.085.07Z"/><path fill="#EF2D28" fill-rule="evenodd" d="M2.864 2.027c-.045 0-.08.03-.08.066 0 .035.035.066.08.066.044 0 .08-.03.08-.066 0-.036-.036-.066-.08-.066Zm-.09.066c0-.042.041-.075.09-.075.048 0 .089.033.089.075 0 .042-.041.075-.09.075-.048 0-.089-.033-.089-.075Z" clip-rule="evenodd"/><path fill="#fff" d="M3.315 2.164c.047 0 .084-.032.084-.071 0-.039-.037-.07-.084-.07-.047 0-.085.031-.085.07 0 .039.038.07.085.07Z"/><path fill="#EF2D28" fill-rule="evenodd" d="M3.315 2.027c-.045 0-.08.03-.08.066 0 .035.035.066.08.066s.08-.03.08-.066c0-.036-.035-.066-.08-.066Zm-.09.066c0-.042.041-.075.09-.075.048 0 .089.033.089.075 0 .042-.04.075-.09.075-.048 0-.088-.033-.088-.075Z" clip-rule="evenodd"/><path fill="#fff" fill-rule="evenodd" d="M2.892 1.904h.395l-.198.213-.197-.213Z" clip-rule="evenodd"/><path fill="#EF2D28" fill-rule="evenodd" d="m2.892 1.904-.003.003.2.216.21-.224h-.407v.005Zm.384.005h-.373l.187.2.186-.2Z" clip-rule="evenodd"/><path fill="#fff" d="M3.09 2.164c.061 0 .112-.042.112-.094s-.05-.094-.113-.094c-.062 0-.112.042-.112.094s.05.094.112.094Z"/><path fill="#EF2D28" fill-rule="evenodd" d="M3.089 1.981c-.06 0-.107.04-.107.088 0 .048.047.088.107.088s.106-.04.106-.088c0-.047-.047-.088-.106-.088Zm-.12.088c0-.056.055-.1.12-.1.064 0 .119.044.119.1 0 .057-.055.1-.12.1-.064 0-.118-.043-.118-.1Z" clip-rule="evenodd"/><path fill="#fff" d="M3.23 2.773h-.542c-.017 0-.032.011-.032.025v.093c0 .013.015.024.032.024h.543c.018 0 .032-.01.032-.024v-.093c0-.014-.014-.025-.032-.025Z"/><path fill="#EF2D28" fill-rule="evenodd" d="M2.668 2.783a.018.018 0 0 0-.008.014v.093c0 .005.003.01.008.014a.033.033 0 0 0 .02.006h.542a.033.033 0 0 0 .02-.006.018.018 0 0 0 .008-.014v-.093a.018.018 0 0 0-.008-.014.033.033 0 0 0-.02-.006h-.542a.033.033 0 0 0-.02.006Zm-.006-.006a.041.041 0 0 1 .026-.008h.542a.04.04 0 0 1 .025.008.026.026 0 0 1 .011.02v.093a.026.026 0 0 1-.01.02.041.041 0 0 1-.026.009h-.542a.041.041 0 0 1-.026-.008.026.026 0 0 1-.01-.021v-.093c0-.008.004-.015.01-.02Z" clip-rule="evenodd"/><path fill="#fff" fill-rule="evenodd" d="M3.447 2.655c-.073 0-.132.055-.132.123v.107a.119.119 0 0 0 .037.086.148.148 0 0 0 .095.037.148.148 0 0 0 .095-.037.119.119 0 0 0 .028-.04.109.109 0 0 0 .009-.046v-.106a.108.108 0 0 0-.009-.047.119.119 0 0 0-.028-.04.148.148 0 0 0-.095-.037Zm0 .046c-.044 0-.079.045-.079.1v.061c0 .055.035.099.08.099.043 0 .078-.044.078-.099v-.061c0-.055-.035-.099-.079-.099Zm-.685-.023c-.045 0-.08.044-.08.1v.108c0 .055.036.099.08.099.044 0 .079-.044.079-.099v-.11c0-.055-.035-.099-.08-.099v.001Zm0-.046a.147.147 0 0 0-.095.036.119.119 0 0 0-.028.04.108.108 0 0 0-.01.047v.154a.119.119 0 0 0 .037.086.147.147 0 0 0 .095.037c.074 0 .132-.055.132-.123v-.154a.108.108 0 0 0-.008-.047.119.119 0 0 0-.028-.04.135.135 0 0 0-.044-.027.148.148 0 0 0-.051-.01Z" clip-rule="evenodd"/><path fill="#EF2D28" fill-rule="evenodd" d="M2.758 2.627h.004a.152.152 0 0 1 .098.038.123.123 0 0 1 .029.042c.006.015.01.032.009.048v.154c0 .07-.061.128-.136.128a.152.152 0 0 1-.098-.038.123.123 0 0 1-.029-.042.112.112 0 0 1-.009-.048v-.154a.123.123 0 0 1 .038-.09.152.152 0 0 1 .093-.038Zm.008.009h-.004a.144.144 0 0 0-.05.01.13.13 0 0 0-.042.026.115.115 0 0 0-.027.038.104.104 0 0 0-.009.045v.155a.115.115 0 0 0 .036.083.143.143 0 0 0 .092.036c.07 0 .128-.054.128-.12v-.154a.104.104 0 0 0-.009-.045.115.115 0 0 0-.027-.038.131.131 0 0 0-.042-.027.143.143 0 0 0-.046-.01Zm.546.142c0-.07.06-.127.135-.127v.004-.004a.152.152 0 0 1 .098.038.123.123 0 0 1 .03.042.1.1 0 0 1 .008.048v.106a.113.113 0 0 1-.009.048.123.123 0 0 1-.029.042.152.152 0 0 1-.097.038.152.152 0 0 1-.098-.038.123.123 0 0 1-.03-.042.113.113 0 0 1-.008-.048v-.107Zm.135-.119c-.07 0-.127.054-.127.12v.107a.115.115 0 0 0 .036.083.143.143 0 0 0 .092.036.143.143 0 0 0 .091-.037.115.115 0 0 0 .027-.038.104.104 0 0 0 .009-.044v-.107a.104.104 0 0 0-.008-.045.115.115 0 0 0-.028-.039.13.13 0 0 0-.041-.026.144.144 0 0 0-.05-.01Zm-.69.015c-.045.003-.078.049-.078.104v.109c0 .056.036.102.083.102.047 0 .083-.046.083-.102v-.11c0-.057-.036-.103-.083-.103h-.004Zm.01.008h-.005c-.041 0-.075.042-.075.096v.109c0 .053.034.094.075.094.04 0 .075-.041.075-.094v-.11c0-.052-.032-.092-.07-.095Zm.597.119c0-.056.036-.103.083-.103h.005c.045.003.079.049.079.103v.062c0 .056-.036.103-.084.103-.047 0-.083-.047-.083-.103V2.8Zm.08-.095c-.04.003-.071.044-.071.095v.062c0 .053.034.094.074.094.041 0 .075-.041.075-.094V2.8c0-.053-.034-.094-.075-.094h-.004Z" clip-rule="evenodd"/><path fill="#fff" fill-rule="evenodd" d="M2.55 2.726c-.043 0-.078.044-.078.098v.026c0 .055.035.099.079.099s.08-.044.08-.099v-.026c0-.054-.036-.098-.08-.098Zm0-.047a.147.147 0 0 0-.094.037.119.119 0 0 0-.028.04.108.108 0 0 0-.009.046v.071c0 .016.003.032.009.046a.119.119 0 0 0 .028.04.136.136 0 0 0 .095.037c.073 0 .132-.055.132-.123v-.07a.108.108 0 0 0-.009-.047.119.119 0 0 0-.028-.04.135.135 0 0 0-.043-.027.148.148 0 0 0-.052-.01Z" clip-rule="evenodd"/><path fill="#EF2D28" fill-rule="evenodd" d="M2.546 2.675h.004a.152.152 0 0 1 .098.038.123.123 0 0 1 .03.041c.006.016.01.032.009.049v.07c0 .07-.062.128-.137.128a.152.152 0 0 1-.097-.038.123.123 0 0 1-.03-.042.113.113 0 0 1-.009-.048v-.07a.123.123 0 0 1 .038-.09.152.152 0 0 1 .093-.038Zm.008.008-.004.001a.143.143 0 0 0-.05.01.13.13 0 0 0-.042.026.115.115 0 0 0-.027.038.104.104 0 0 0-.008.045v.07c0 .016.002.03.008.045a.115.115 0 0 0 .027.038c.012.011.026.02.042.027a.17.17 0 0 0 .05.01c.071 0 .128-.054.128-.12v-.07a.104.104 0 0 0-.008-.045.114.114 0 0 0-.027-.039.13.13 0 0 0-.043-.026.143.143 0 0 0-.046-.01Zm-.087.142c0-.056.036-.103.083-.103.047 0 .084.047.084.103v.026c0 .056-.036.102-.084.102-.047 0-.083-.046-.083-.102v-.026Zm.083-.094c-.04 0-.075.04-.075.094v.026c0 .053.034.094.075.094.042 0 .076-.041.076-.094v-.026c0-.053-.035-.094-.076-.094Z" clip-rule="evenodd"/><path fill="#fff" fill-rule="evenodd" d="M2.235 2.66c-.08 0-.144.05-.144.11v.123c0 .06.065.11.144.11.077 0 .142-.049.142-.11V2.77c0-.06-.065-.11-.142-.11Zm0-.052a.412.412 0 0 0-.093.011.295.295 0 0 0-.078.03.158.158 0 0 0-.051.044.083.083 0 0 0-.017.052v.173a.083.083 0 0 0 .016.052.155.155 0 0 0 .05.044.293.293 0 0 0 .078.03.36.36 0 0 0 .093.012c.133 0 .239-.062.239-.138v-.173a.083.083 0 0 0-.016-.052.157.157 0 0 0-.051-.044.293.293 0 0 0-.078-.03.412.412 0 0 0-.092-.012v.001Z" clip-rule="evenodd"/><path fill="#EF2D28" fill-rule="evenodd" d="M2.23 2.604h.005a.334.334 0 0 1 .173.041.16.16 0 0 1 .052.046.087.087 0 0 1 .017.055v.172c0 .04-.028.076-.072.102a.347.347 0 0 1-.171.041.416.416 0 0 1-.094-.011.297.297 0 0 1-.08-.031.16.16 0 0 1-.051-.046.087.087 0 0 1-.017-.055v-.172c0-.02.006-.038.018-.055a.162.162 0 0 1 .052-.045.3.3 0 0 1 .08-.03.416.416 0 0 1 .089-.012Zm.01.009h-.005a.408.408 0 0 0-.091.011.29.29 0 0 0-.077.03.154.154 0 0 0-.05.042.079.079 0 0 0-.016.05v.172a.078.078 0 0 0 .015.05c.011.016.028.03.05.043a.288.288 0 0 0 .076.03c.029.007.06.01.092.011a.338.338 0 0 0 .167-.04c.042-.024.067-.058.067-.094v-.173a.078.078 0 0 0-.015-.049.152.152 0 0 0-.05-.043.289.289 0 0 0-.076-.03.406.406 0 0 0-.087-.01Zm-.153.158c0-.065.067-.115.148-.115a.17.17 0 0 1 .103.033c.027.021.044.05.044.082v.122c0 .065-.068.115-.147.115a.171.171 0 0 1-.104-.033.104.104 0 0 1-.044-.081V2.77Zm.148-.106c-.079 0-.139.048-.139.106v.123c0 .028.016.054.04.074.026.019.06.031.1.031.076 0 .137-.048.137-.106V2.77a.095.095 0 0 0-.04-.074.16.16 0 0 0-.098-.032Z" clip-rule="evenodd"/><path fill="#fff" fill-rule="evenodd" d="M3.949 2.684c-.08 0-.144.049-.144.11v.122c0 .06.065.11.144.11.077 0 .142-.049.142-.11v-.122c0-.061-.065-.11-.142-.11Zm0-.052a.413.413 0 0 0-.093.01.296.296 0 0 0-.078.03.158.158 0 0 0-.051.045.083.083 0 0 0-.017.051v.173a.083.083 0 0 0 .016.052.156.156 0 0 0 .05.045.293.293 0 0 0 .078.03c.03.007.061.011.093.011.133 0 .239-.061.239-.138v-.173a.083.083 0 0 0-.016-.051.157.157 0 0 0-.051-.045.294.294 0 0 0-.078-.03.412.412 0 0 0-.092-.011Z" clip-rule="evenodd"/><path fill="#EF2D28" fill-rule="evenodd" d="M3.945 2.627h.004c.032 0 .064.004.094.011.03.007.056.018.079.03a.16.16 0 0 1 .052.047.088.088 0 0 1 .017.054v.173c0 .04-.028.076-.072.101a.347.347 0 0 1-.171.041.416.416 0 0 1-.094-.011.297.297 0 0 1-.08-.03.16.16 0 0 1-.051-.047.087.087 0 0 1-.017-.055V2.77c0-.019.005-.037.018-.054a.162.162 0 0 1 .052-.046.3.3 0 0 1 .08-.03.415.415 0 0 1 .089-.011v-.001Zm.009.009h-.005a.408.408 0 0 0-.092.011.291.291 0 0 0-.076.03.154.154 0 0 0-.05.043.079.079 0 0 0-.016.049v.173a.078.078 0 0 0 .015.05c.01.015.028.03.05.042a.288.288 0 0 0 .076.03c.029.007.06.011.092.011a.338.338 0 0 0 .167-.04c.042-.024.067-.057.067-.093v-.173a.078.078 0 0 0-.015-.05.152.152 0 0 0-.05-.042.289.289 0 0 0-.076-.03.405.405 0 0 0-.087-.011Zm-.153.158c0-.064.066-.114.148-.114a.17.17 0 0 1 .103.033c.027.02.044.05.044.081v.122c0 .066-.068.116-.147.116a.171.171 0 0 1-.104-.034.104.104 0 0 1-.044-.081v-.123Zm.148-.105c-.079 0-.139.048-.139.105v.123c0 .028.015.055.04.074.026.02.06.032.1.032.076 0 .137-.048.137-.107v-.122a.095.095 0 0 0-.04-.074.16.16 0 0 0-.098-.031Z" clip-rule="evenodd"/><path fill="#fff" d="M3.8 2.773h-.283c-.01 0-.017.011-.017.025v.093c0 .013.008.024.017.024H3.8c.01 0 .017-.01.017-.024v-.093c0-.014-.007-.025-.017-.025Z"/><path fill="#EF2D28" fill-rule="evenodd" d="M3.508 2.782a.027.027 0 0 0-.004.015v.093c0 .006.001.011.004.015a.01.01 0 0 0 .008.005H3.8a.008.008 0 0 0 .008-.005.027.027 0 0 0 .004-.015v-.093a.027.027 0 0 0-.004-.015c-.002-.003-.005-.005-.008-.005h-.283c-.002 0-.006.002-.008.005ZM3.5 2.778a.02.02 0 0 1 .015-.01H3.8a.02.02 0 0 1 .015.01.035.035 0 0 1 .006.02v.092a.035.035 0 0 1-.006.02.02.02 0 0 1-.015.009h-.283a.02.02 0 0 1-.015-.01.035.035 0 0 1-.006-.02v-.092c0-.007.002-.014.006-.02Z" clip-rule="evenodd"/><path fill="#fff" d="M3.385 2.75H3.22c-.006 0-.01.015-.01.033v.123c0 .018.004.033.01.033h.165c.005 0 .01-.015.01-.033v-.123c0-.018-.005-.033-.01-.033Z"/><path fill="#EF2D28" fill-rule="evenodd" d="M3.217 2.76a.08.08 0 0 0-.002.022v.124a.08.08 0 0 0 .002.022.02.02 0 0 0 .003.005v.001h.165l.003-.006a.08.08 0 0 0 .003-.022v-.124a.08.08 0 0 0-.003-.022.02.02 0 0 0-.003-.006H3.22a.02.02 0 0 0-.003.006Zm-.004-.01a.008.008 0 0 1 .007-.005h.165c.004 0 .006.002.007.004a.029.029 0 0 1 .004.009.089.089 0 0 1 .003.024v.124a.083.083 0 0 1-.003.024.029.029 0 0 1-.004.008c-.001.002-.003.005-.007.005H3.22c-.003 0-.006-.003-.007-.005a.029.029 0 0 1-.004-.008.089.089 0 0 1-.003-.024v-.124c0-.01.001-.018.003-.024l.004-.009Z" clip-rule="evenodd"/><path fill="#fff" d="M2.515 2.75H2.35c-.006 0-.01.015-.01.033v.123c0 .018.004.033.01.033h.165c.005 0 .01-.015.01-.033v-.123c0-.018-.005-.033-.01-.033Z"/><path fill="#EF2D28" fill-rule="evenodd" d="M2.346 2.76a.08.08 0 0 0-.003.022v.124a.08.08 0 0 0 .003.022.02.02 0 0 0 .003.005v.001h.165a.02.02 0 0 0 .003-.006.08.08 0 0 0 .003-.022v-.124a.08.08 0 0 0-.003-.022.02.02 0 0 0-.003-.006h-.165a.02.02 0 0 0-.003.006Zm-.004-.01c.001-.003.003-.005.007-.005h.165c.004 0 .006.002.007.004a.029.029 0 0 1 .004.009.089.089 0 0 1 .003.024v.124a.083.083 0 0 1-.003.024.029.029 0 0 1-.004.008c-.001.002-.003.005-.007.005H2.35c-.004 0-.006-.003-.007-.005a.029.029 0 0 1-.004-.008.089.089 0 0 1-.003-.024v-.124c0-.01.001-.018.003-.024 0-.003.002-.006.004-.009Z" clip-rule="evenodd"/><path fill="#fff" d="M2.11 2.726h-.33c-.012 0-.02.018-.02.04v.155c0 .022.008.04.02.04h.33c.01 0 .019-.018.019-.04v-.155c0-.022-.009-.04-.02-.04Z"/><path fill="#EF2D28" fill-rule="evenodd" d="M1.769 2.74a.064.064 0 0 0-.006.026v.155c0 .01.002.02.006.027.003.007.007.01.01.01h.33c.003 0 .006-.003.01-.01a.064.064 0 0 0 .005-.027v-.155c0-.01-.002-.02-.005-.026-.004-.007-.007-.01-.01-.01h-.33c-.003 0-.007.003-.01.01Zm-.008-.004c.004-.008.01-.014.017-.014h.33c.009 0 .015.006.018.014a.073.073 0 0 1 .006.03v.155a.073.073 0 0 1-.006.03c-.003.008-.01.015-.017.015h-.33c-.008 0-.014-.007-.018-.015a.073.073 0 0 1-.006-.03v-.155a.07.07 0 0 1 .006-.03Z" clip-rule="evenodd"/><path fill="#fff" d="M4.378 2.75h-.306c-.01 0-.018.018-.018.04v.155c0 .022.008.04.018.04h.306c.01 0 .019-.018.019-.04v-.154c0-.023-.009-.041-.019-.041Z"/><path fill="#EF2D28" fill-rule="evenodd" d="M4.063 2.763a.067.067 0 0 0-.005.027v.154c0 .011.002.02.005.027.004.007.007.01.01.01h.306c.002 0 .006-.003.009-.01a.067.067 0 0 0 .005-.027V2.79c0-.01-.002-.02-.005-.027-.003-.007-.007-.01-.01-.01h-.305c-.003 0-.006.003-.01.01Zm-.007-.004c.003-.007.009-.014.017-.014h.306c.007 0 .013.007.017.014a.075.075 0 0 1 .005.03v.155a.075.075 0 0 1-.005.03c-.004.008-.01.015-.017.015h-.306c-.008 0-.014-.007-.017-.014a.075.075 0 0 1-.006-.03V2.79c0-.012.002-.023.006-.03Z" clip-rule="evenodd"/></g><defs><clipPath id="a"><path fill="#fff" d="M0 0h24v18H0z"/></clipPath></defs></svg>