<svg xmlns="http://www.w3.org/2000/svg" width="24" height="18" fill="none"><g clip-path="url(#a)"><path fill="#fff" d="M0 0h24v18H0V0Z"/><path fill="#fff" fill-rule="evenodd" d="M3.469 0h17.895v18h-17.9L3.47 0Z" clip-rule="evenodd"/><path fill="#DB0000" fill-rule="evenodd" d="M12.112.136h13.425v8.313H12.112V.136Z" clip-rule="evenodd"/><path fill="#0000AB" fill-rule="evenodd" d="M.12 8.45h11.996V18H.12V8.45Zm7.935-1.786L6.48 5.562l-1.564 1.11.582-1.8-1.56-1.121 1.935-.015.6-1.8.61 1.796H9.02L7.463 4.857l.596 1.8-.004.007Z" clip-rule="evenodd"/><path fill="#D80000" fill-rule="evenodd" d="m19.383 15.52-1.59-1.038-1.578 1.05.585-1.71-1.575-1.05 1.95-.019.607-1.702.615 1.698h1.95l-1.567 1.07.6 1.702h.003Z" clip-rule="evenodd"/></g><defs><clipPath id="a"><path fill="#fff" d="M0 0h24v18H0z"/></clipPath></defs></svg>