<svg xmlns="http://www.w3.org/2000/svg" width="24" height="18" fill="none"><g clip-path="url(#a)"><path fill="#fff" d="M0 0h24v18H0V0Z"/><path fill="#fff" d="M3 0h18v18H3V0Z"/><path fill="#083D9C" fill-rule="evenodd" d="M10.399 12.78s.405-.33.803-.33c.397 0 .502.274.78.296.273.023.502-.273.843-.285.341-.01.769.24.769.24l-1.492.45-1.703-.374v.003Zm-.859-.487 5.078.026s-.439-.476-.957-.488c-.517-.007-.374.226-.768.255-.398.034-.495-.24-.859-.232-.36.011-.57.232-.844.244-.277.011-.626-.274-.836-.263-.21.011-.956.326-.956.326l.142.136v-.004Zm-.648-.6 6.262.018c.101-.142-.307-.483-.679-.513-.307.011-.525.319-.78.33-.255.011-.54-.319-.825-.308-.285.011-.581.308-.866.308-.289 0-.495-.319-.859-.319s-.525.349-.802.33c-.274-.022-.518-.352-.78-.352-.263 0-.701.393-.788.375-.09-.027.109.16.117.127v.004Z" clip-rule="evenodd"/><path fill="#083D9C" fill-rule="evenodd" d="M9.325 11.213a.596.596 0 0 1 .238-.065c.073 0 .143.024.21.056.067.033.133.076.196.118l.004.003c.13.086.249.166.372.176.12.008.215-.06.333-.143l.012-.008c.12-.085.26-.18.455-.18.193 0 .344.086.477.166l.02.012c.128.076.237.142.362.142.132 0 .268-.07.416-.146l.012-.006c.14-.072.288-.15.437-.156.155-.006.307.08.444.159l.01.006c.066.038.13.074.19.1a.412.412 0 0 0 .18.043.425.425 0 0 0 .172-.051c.053-.027.106-.06.162-.097l.018-.011c.124-.08.264-.165.429-.171h.004c.195.015.397.112.537.222a.64.64 0 0 1 .16.174c.033.057.048.123.01.177l-.012.015-6.282-.018a.05.05 0 0 1-.011 0h-.026v-.01a.494.494 0 0 1-.084-.067.256.256 0 0 1-.05-.063.06.06 0 0 1-.006-.023c0-.01.003-.025.017-.036a.049.049 0 0 1 .031-.01c.007 0 .014.001.02.003h.005a.656.656 0 0 0 .092-.045l.113-.072.09-.058c.078-.049.162-.098.243-.136Zm-.434.471v-.028h-.012a.033.033 0 0 0-.023.024l.036.004Zm0-.028v-.001l6.24.018c.004-.018 0-.044-.02-.08a.566.566 0 0 0-.142-.152.988.988 0 0 0-.495-.206c-.14.006-.263.079-.388.159l-.019.012a1.913 1.913 0 0 1-.169.1.502.502 0 0 1-.201.059.487.487 0 0 1-.213-.048c-.066-.029-.132-.067-.197-.104l-.012-.007c-.14-.081-.274-.154-.403-.149-.132.005-.268.076-.414.152l-.004.002c-.143.074-.297.154-.45.154-.147 0-.273-.076-.396-.15a3.338 3.338 0 0 0-.025-.015c-.133-.08-.267-.154-.438-.154-.169 0-.291.08-.412.165l-.019.014c-.111.078-.228.16-.374.15-.144-.011-.278-.1-.4-.182l-.012-.008a1.688 1.688 0 0 0-.188-.114.408.408 0 0 0-.177-.048.525.525 0 0 0-.206.058 2.167 2.167 0 0 0-.234.131l-.089.057c-.043.027-.083.053-.117.073a.702.702 0 0 1-.101.051l.007.008a.422.422 0 0 0 .069.055Zm4.476.172a.918.918 0 0 1 .295-.035c.27.006.516.133.693.255a2.025 2.025 0 0 1 .285.24l.004.003v.002h.001l-.027.025.027-.025.059.063-5.126-.026v.053l-.248-.234.053-.023.015.035-.015-.035h.002l.007-.003a4.34 4.34 0 0 0 .024-.01l.087-.036c.074-.03.174-.07.28-.11.108-.04.221-.081.322-.112.099-.031.19-.055.247-.058a.503.503 0 0 1 .195.04 2.818 2.818 0 0 1 .215.095c.15.07.299.133.427.128.119-.005.226-.053.348-.107l.028-.012c.132-.058.28-.12.468-.125a.785.785 0 0 1 .435.13.69.69 0 0 0 .421.103.5.5 0 0 0 .2-.05.55.55 0 0 0 .095-.065l.024-.02a.493.493 0 0 1 .159-.086Zm-3.902.345.086.082 4.974.025-.01-.008a1.952 1.952 0 0 0-.203-.162c-.171-.119-.403-.236-.651-.242a.842.842 0 0 0-.271.031.416.416 0 0 0-.157.092c-.032.025-.066.052-.11.075a.576.576 0 0 1-.227.057.763.763 0 0 1-.463-.11l-.017-.01c-.113-.06-.218-.115-.381-.112-.172.005-.31.06-.44.119l-.03.013c-.12.053-.24.106-.373.112-.15.006-.315-.067-.461-.135l-.028-.013a2.655 2.655 0 0 0-.182-.08.43.43 0 0 0-.165-.035 1.138 1.138 0 0 0-.229.054c-.098.031-.21.071-.317.111a12.618 12.618 0 0 0-.345.136Zm.928.563-.032-.007v.13l.051-.042 1.69.373 1.585-.478-.074-.043-.02.032.02-.032-.002-.001-.003-.002-.015-.009a2.126 2.126 0 0 0-.241-.115 1.363 1.363 0 0 0-.528-.118c-.18.005-.33.087-.463.158v.001c-.138.074-.253.136-.377.126-.111-.01-.191-.062-.287-.125l-.04-.026a.782.782 0 0 0-.456-.146c-.208 0-.415.086-.568.17a2.015 2.015 0 0 0-.24.154Zm.098.022 1.609.354 1.397-.42a2.346 2.346 0 0 0-.174-.08 1.291 1.291 0 0 0-.497-.114c-.16.006-.295.078-.43.151l-.007.004c-.13.07-.263.142-.41.13-.133-.01-.23-.074-.324-.136-.013-.01-.026-.018-.039-.026a.708.708 0 0 0-.415-.134c-.189 0-.383.08-.532.16a1.94 1.94 0 0 0-.178.11Z" clip-rule="evenodd"/><path fill="red" fill-rule="evenodd" d="m11.299 8.209 1.44.382V6.536c-.66.038-1.208-1.252-.045-1.338-1.144-.165-1.275.13-1.406.45l.01 2.56Z" clip-rule="evenodd"/><path fill="currentColor" fill-rule="evenodd" d="M11.59 5.199c.206-.1.537-.13 1.11-.048a.047.047 0 0 1-.003.093c-.282.021-.451.114-.542.233a.503.503 0 0 0-.076.426.837.837 0 0 0 .243.418.57.57 0 0 0 .414.169.047.047 0 0 1 .05.046v2.055a.047.047 0 0 1-.06.046l-1.44-.383.013-.045h-.047l-.011-2.561c0-.006 0-.013.003-.018.066-.16.137-.33.347-.431Zm-.244 2.974 1.346.357V6.584a.68.68 0 0 1-.434-.195.93.93 0 0 1-.27-.465.596.596 0 0 1 .093-.504.644.644 0 0 1 .308-.21c-.384-.033-.613.003-.757.073-.172.084-.233.218-.297.374l.01 2.516Z" clip-rule="evenodd"/><path fill="#083D9C" fill-rule="evenodd" d="m10.388 9.701 3.25.011-3.25-.01Z" clip-rule="evenodd"/><path fill="#083D9C" fill-rule="evenodd" d="M10.294 9.7c0-.05.042-.093.094-.093l3.251.012a.094.094 0 0 1 0 .187l-3.252-.011a.094.094 0 0 1-.093-.094Z" clip-rule="evenodd"/><path fill="currentColor" fill-rule="evenodd" d="M13.278 8.813a.075.075 0 0 1 .072.077l-.003.078.069-.083.116.095-.179.217.147.197-.12.09-.125-.168-.14.17L13 9.391l.163-.198-.17-.227.121-.09.083.111.003-.102a.075.075 0 0 1 .078-.072Zm-2.014.377-.168-.224.12-.09.083.111.004-.102.15.005-.003.074.065-.08.116.096-.177.215.149.199-.12.09-.127-.17-.142.172-.116-.095.166-.2Zm.626 0-.168-.224.12-.09.083.111.004-.102.15.005-.003.074.065-.08.116.096-.177.215.149.199-.12.09-.127-.17-.141.172-.116-.095.165-.2Zm.648.001-.167-.225.12-.09.08.109.003-.1.15.004-.002.078.068-.082.116.095-.178.216.146.198-.12.09-.124-.168-.14.17-.117-.095.165-.2Zm-1.89 0-.167-.22.12-.091.083.11.004-.105.15.005-.003.074.065-.08.116.096-.178.215.15.199-.12.09-.127-.17-.142.172-.116-.095.165-.2Z" clip-rule="evenodd"/><path fill="#EF7D08" fill-rule="evenodd" d="m8.201 9.735 1.384.01V8.88L8.002 8.8l.2.935Zm-.067-1.2 1.473.146-.01-.615-1.44-.574-.023 1.046v-.003Zm.3-1.227 1.128.548.162-.169s-.105-.071-.098-.139c0-.063.105-.075.105-.15 0-.063-.112-.075-.116-.138-.008-.075.09-.15.09-.15l-1.02-.89-.255 1.088h.004Zm7.425 2.438h-1.463l-.011-.848 1.605-.12-.131.968ZM14.407 8.7l1.737-.21-.375-1.002-1.373.585.011.627Zm1.264-1.485-1.252.66c-.02-.075-.034-.143-.12-.2 0 0 .075-.044.075-.12 0-.074-.098-.09-.098-.13 0-.042.09-.083.098-.184-.012-.068-.098-.165-.083-.184l.975-.742.405.9ZM12.956 8.68l.626-.026.012-.252-.638.278Zm-1.912-.019-.657-.019V8.38l.66.281h-.003Zm0-.075-.657-.337v-.443s-.075.011-.067-.075c.004-.184.484.334.727.503l-.003.352Zm1.912-.041v-.289s.593-.532.716-.634c0 .113-.067.195-.067.195v.42l-.649.308ZM9.112 6.142l.668.739c.015-.068.169-.079.322-.068.15.012.274-.011.274.098s-.075.094-.075.172c0 .079.113.072.113.169 0 .098-.083.079-.083.154 0 .064.09.067.09.067l.623.604v-.645L9.76 5.418l-.649.724Zm1.028-.765.874 1.781s.007-1.642.153-1.728l-.243-.45-.784.397Zm3.787.071-.975 1.733V6.45s.083-.12-.045-.113a1.597 1.597 0 0 1-.28-.007l.39-1.373.91.488v.003Zm.998.739a55.15 55.15 0 0 1-.656.675c-.03-.075-.225-.037-.413-.037-.184 0-.21.06-.199.108.02.124.083.03.083.15 0 .117-.09.075-.101.158.01.101.142.075.063.15l-.746.72v-.683l1.391-2.16.578.919Z" clip-rule="evenodd"/><path fill="red" fill-rule="evenodd" d="M11.618 10.065c-.312.518-1.148.364-1.347 0-.056-.015-.022-2.231-.022-2.231s-.094-.042-.098-.113c-.003-.067.128-.075.128-.161 0-.086-.135-.053-.139-.143 0-.082.146-.075.139-.15-.008-.09-.161-.075-.169-.157 0-.064.113-.12.143-.15h-.105l-.24.004c-.173 0 0 .037 0 .135 0 .063-.087.108-.094.161-.004.06.12.097.124.169 0 .06-.124.063-.12.123.007.094.112.117.108.177 0 .056-.135.078-.138.123.007.09.022 2.28.022 2.28.214 1.118 1.455 1.4 1.808-.067Zm.82 0c.312.518 1.148.364 1.343 0 .06-.015.027-2.231.027-2.231s.093-.042.097-.113c.004-.067-.12-.075-.12-.161 0-.086.128-.053.128-.143 0-.082-.132-.075-.124-.157.007-.086.112-.075.116-.158.004-.07-.064-.112-.097-.142h.1l.24.004c.17 0 0 .037 0 .135 0 .063.087.108.095.161 0 .06-.12.097-.124.169 0 .06.124.063.12.123-.008.094-.113.117-.113.177.004.056.14.078.14.123l-.02 2.28c-.213 1.118-1.458 1.4-1.807-.067Z" clip-rule="evenodd"/><path fill="currentColor" fill-rule="evenodd" d="M10.296 6.942a.047.047 0 0 1-.01.051.336.336 0 0 1-.04.032h-.001l-.004.003-.041.03a.197.197 0 0 0-.034.034.04.04 0 0 0-.009.016c0 .003.003.006.01.011.01.008.024.014.046.024.02.009.046.02.067.037a.117.117 0 0 1 .046.083.095.095 0 0 1-.035.083.257.257 0 0 1-.055.034l-.003.002a.19.19 0 0 0-.039.023c-.006.005-.007.008-.007.012 0 .007.003.01.006.012a.138.138 0 0 0 .038.019.211.211 0 0 1 .056.03.102.102 0 0 1 .039.082c0 .07-.056.107-.085.126h-.002a.22.22 0 0 0-.041.032c.001.016.012.033.033.05a.198.198 0 0 0 .034.022h.002m-.065.071a.285.285 0 0 1-.03-.02.166.166 0 0 1-.068-.117.099.099 0 0 1 .033-.078.296.296 0 0 1 .046-.034l.005-.004c.035-.023.044-.033.044-.048 0-.007-.001-.008-.004-.01a.143.143 0 0 0-.034-.016l-.002-.001a.215.215 0 0 1-.058-.031.108.108 0 0 1-.04-.083v-.002c0-.037.017-.064.038-.082a.267.267 0 0 1 .06-.037.195.195 0 0 0 .04-.025V7.27c0-.006-.003-.011-.011-.018a.213.213 0 0 0-.046-.024l-.003-.002c-.018-.008-.042-.018-.061-.033a.11.11 0 0 1-.048-.084.12.12 0 0 1 .028-.074.235.235 0 0 1 .025-.029l-.194.003a.146.146 0 0 1 .032.089c0 .052-.034.092-.055.115l-.007.008c-.01.01-.016.019-.022.027a.067.067 0 0 0-.009.014.314.314 0 0 0 .042.04v.001a.38.38 0 0 1 .05.047.128.128 0 0 1 .031.078.093.093 0 0 1-.035.072.267.267 0 0 1-.049.03l-.002.001a.178.178 0 0 0-.033.02c.003.026.018.044.043.067l.006.005c.01.01.024.023.035.036.013.017.026.04.024.07a.096.096 0 0 1-.038.071.32.32 0 0 1-.055.035l-.007.004-.035.02a.102.102 0 0 0-.003.002 288.207 288.207 0 0 1 .021 2.175v.09c.106.543.457.87.81.894.312.022.654-.193.846-.76a.85.85 0 0 1-.613.181c-.278-.02-.552-.15-.665-.348a.063.063 0 0 1-.012-.022.867.867 0 0 1-.014-.104 5.61 5.61 0 0 1-.01-.257c-.005-.21-.007-.49-.006-.767a91.99 91.99 0 0 1 .009-1.016V7.86Zm-.392 2.272h-.047v-.094a748.498 748.498 0 0 0-.016-1.792 17.128 17.128 0 0 0-.006-.398c.003-.034.029-.055.043-.065a.435.435 0 0 1 .046-.027l.006-.004a.238.238 0 0 0 .044-.028.223.223 0 0 0-.028-.03l-.008-.007a.198.198 0 0 1-.073-.132.09.09 0 0 1 .033-.075.25.25 0 0 1 .049-.031l.001-.001a.2.2 0 0 0 .036-.022.048.048 0 0 0-.01-.016.295.295 0 0 0-.037-.035l-.003-.002a.37.37 0 0 1-.045-.042.105.105 0 0 1-.028-.079.135.135 0 0 1 .027-.059l.029-.035a.989.989 0 0 0 .005-.006c.024-.028.033-.043.033-.054 0-.01-.005-.02-.015-.034-.007-.01-.015-.017-.024-.025a.634.634 0 0 1-.012-.012c-.005-.005-.016-.016-.021-.029a.055.055 0 0 1-.003-.037.055.055 0 0 1 .024-.03.102.102 0 0 1 .043-.013.551.551 0 0 1 .054-.002l.24-.004h.105c.019 0 .036.01.044.029m-.404.484Zm3.872-.483a.047.047 0 0 1 .044-.03h.102l.24.004c.02 0 .038 0 .052.002a.1.1 0 0 1 .043.013.055.055 0 0 1 .024.03.055.055 0 0 1-.003.037.096.096 0 0 1-.02.028.727.727 0 0 1-.013.012c-.008.009-.016.016-.023.026a.056.056 0 0 0-.014.034c0 .011.008.026.032.054l.006.006.029.035a.135.135 0 0 1 .026.066.11.11 0 0 1-.03.072.387.387 0 0 1-.043.041l-.004.003a.28.28 0 0 0-.036.034.047.047 0 0 0-.01.017l.002.002a.198.198 0 0 0 .034.02h.002c.013.008.033.018.049.032a.09.09 0 0 1 .033.074v.001a.197.197 0 0 1-.075.132l-.008.008a.242.242 0 0 0-.028.029.258.258 0 0 0 .045.028l.004.003a.395.395 0 0 1 .048.028c.014.01.04.033.04.068l-.019 2.28v.01c-.11.572-.487.944-.896.972-.415.03-.827-.294-1.004-1.038l.046-.011.04-.024c.144.239.41.326.671.308.264-.019.503-.144.59-.306a.047.047 0 0 1 .004-.006l.001-.008a5.21 5.21 0 0 0 .018-.32c.006-.21.008-.487.007-.765a85.217 85.217 0 0 0-.009-1.085v-.025h.047-.047c0-.018.01-.035.028-.043l.002-.001a.167.167 0 0 0 .034-.022c.021-.017.033-.034.033-.05l-.004-.006c-.006-.007-.015-.013-.03-.023l-.004-.003c-.03-.02-.082-.056-.082-.126 0-.036.014-.062.036-.081a.197.197 0 0 1 .056-.032.116.116 0 0 0 .031-.016c.002-.002.005-.004.005-.014a.017.017 0 0 0-.007-.014.18.18 0 0 0-.035-.024h-.001c-.015-.01-.036-.022-.053-.04a.106.106 0 0 1-.028-.083m.113.605a40.104 40.104 0 0 0 .004.319l.005.764c0 .278-.001.557-.006.767a5.288 5.288 0 0 1-.012.257.812.812 0 0 1-.015.105.07.07 0 0 1-.008.016l-.004.005c-.111.198-.385.329-.662.348a.848.848 0 0 1-.614-.181c.191.567.534.782.847.76.353-.025.704-.35.81-.893l.018-2.267-.002-.001a.298.298 0 0 0-.037-.022l-.004-.002a.346.346 0 0 1-.055-.034.1.1 0 0 1-.04-.07v-.003c0-.03.013-.053.027-.07.01-.013.024-.025.035-.035a.229.229 0 0 0 .006-.005c.025-.023.04-.041.044-.067h-.001a.177.177 0 0 0-.033-.02l-.002-.001a.235.235 0 0 1-.048-.03.093.093 0 0 1-.036-.072v-.002a.13.13 0 0 1 .031-.076.367.367 0 0 1 .049-.047h.001a.323.323 0 0 0 .042-.042.072.072 0 0 0-.008-.013l-.022-.027-.007-.008c-.021-.023-.056-.063-.056-.115 0-.037.016-.067.031-.089l-.21-.003a.16.16 0 0 1 .029.098c-.003.065-.049.095-.075.112l-.003.002c-.029.019-.037.027-.039.045 0 .006.001.008.004.012a.152.152 0 0 0 .035.024c.015.008.035.02.051.037.02.019.034.045.034.08a.107.107 0 0 1-.035.083.192.192 0 0 1-.055.033h-.002a.129.129 0 0 0-.031.016c-.002.002-.004.004-.004.011 0 .016.009.027.041.05l.005.002c.013.01.03.021.044.035a.1.1 0 0 1 .03.077l-.047-.003.047.003a.166.166 0 0 1-.068.117.295.295 0 0 1-.03.02Zm.34-.601Zm.027.605Zm-.057-.44v.001Zm-3.855 2.613-.002-.008a5.455 5.455 0 0 1-.017-.32 32.61 32.61 0 0 1-.005-.766 92.246 92.246 0 0 1 .01-1.085v-.025h-.047m.062 2.208Zm-.001-.004a.071.071 0 0 1 .002.005c.09.162.33.287.594.306.261.018.528-.07.671-.308a.047.047 0 0 1 .086.035c-.179.744-.59 1.067-1.005 1.038-.408-.028-.784-.4-.894-.973v-.008h.046" clip-rule="evenodd"/><path fill="#083D9C" fill-rule="evenodd" d="M11.314 11.085h1.398c.012-.012-.315-.488-.697-.45-.431.01-.724.45-.701.45Zm4.458-.038H13.86s.247-.142.315-.277c.124.067.09.135.337.146.248.011.484-.281.72-.27.237.011.54.412.54.405v-.004Zm-7.537 0h1.912s-.247-.142-.315-.277c-.123.067-.09.135-.337.146-.248.011-.488-.281-.72-.27-.236.011-.54.412-.54.405v-.004Zm.142-.6 1.362.011s-.087-.187-.098-.416c-.352-.12-.637.263-.892.274-.252.011-.514-.274-.514-.274l.142.405Zm7.275 0-1.365.011s.087-.187.098-.416c.352-.12.637.263.892.274.252.011.514-.274.514-.274l-.142.405h.003Zm-3.99.015.69-.019s.012-.21-.348-.21-.33.24-.342.23Zm-.42-.296a.638.638 0 0 0 .308-.285l-.473.011s-.217.131-.326.274h.491Zm1.53 0a.638.638 0 0 1-.307-.285l.472.011s.218.131.327.274h-.492Z" clip-rule="evenodd"/><path fill="#083D9C" fill-rule="evenodd" d="m11.613 9.842-.03.056a.675.675 0 0 1-.325.302l-.008.003h-.575l.046-.06c.058-.075.143-.146.212-.198a1.86 1.86 0 0 1 .115-.079l.008-.004.001-.002h.001l.02.032-.02-.032.009-.005.546-.013Zm-.524.087h-.001a1.288 1.288 0 0 0-.11.077 1.264 1.264 0 0 0-.144.122h.4a.6.6 0 0 0 .249-.208l-.394.01Zm1.313-.087.546.013.009.005-.02.032.02-.032.003.002.007.004a1.78 1.78 0 0 1 .115.08c.07.05.154.122.212.197l.046.06h-.575l-.008-.003a.675.675 0 0 1-.325-.302l-.03-.056Zm.525.087a1.772 1.772 0 0 1 .11.077c.047.034.1.077.144.122h-.4a.6.6 0 0 1-.249-.208l.395.01Zm-3.787.168c.149-.083.32-.156.513-.09l.025.008v.025a1.197 1.197 0 0 0 .092.395l.002.006v.001l.026.054-1.447-.012-.151-.43.063-.037.002.002.009.009a1.004 1.004 0 0 0 .146.125c.095.069.215.13.327.125a.45.45 0 0 0 .182-.06c.04-.02.077-.043.117-.066.03-.018.061-.037.094-.055Zm-.82.074.084.239 1.28.01a1.31 1.31 0 0 1-.079-.35c-.15-.041-.29.015-.428.092l-.09.052c-.041.025-.084.05-.123.07a.524.524 0 0 1-.214.07c-.138.006-.276-.07-.374-.14a1.29 1.29 0 0 1-.056-.043Zm6.1-.1a1.293 1.293 0 0 1-.077.35l1.28-.011.083-.239a1.332 1.332 0 0 1-.055.043c-.099.07-.236.146-.375.14a.524.524 0 0 1-.213-.07 2.834 2.834 0 0 1-.125-.07 3.77 3.77 0 0 0-.088-.052c-.139-.077-.278-.133-.43-.092Zm1.344-.054.063.038-.143.405-.031-.012v.037l-1.424.011m1.535-.48Zm0 0v.001l-.003.002a.45.45 0 0 1-.04.04 1.22 1.22 0 0 1-.114.094c-.096.069-.215.13-.328.125a.45.45 0 0 1-.181-.06c-.04-.02-.078-.043-.118-.066a3.622 3.622 0 0 0-.094-.055c-.148-.083-.32-.156-.513-.09l-.024.008-.001.025a1.195 1.195 0 0 1-.082.372l-.01.023a.073.073 0 0 0 0 .004l-.002.002v.001m-2.583-.11c.048-.072.144-.136.333-.136.187 0 .287.055.338.119a.218.218 0 0 1 .048.126v.004l-.037-.002.037.002-.002.035-.718.02a.04.04 0 0 1-.034-.011l.027-.027-.001-.037a.037.037 0 0 0-.032.022.02.02 0 0 0-.002.004v-.002l.001-.004.004-.022a.262.262 0 0 1 .038-.092Zm.04.091.598-.016a.147.147 0 0 0-.025-.045c-.033-.041-.107-.091-.28-.091-.171 0-.24.056-.27.102a.18.18 0 0 0-.024.05Zm1.04.662a.038.038 0 0 1-.012.026l-.01.011h-1.415a.038.038 0 0 1-.028-.012.038.038 0 0 1-.01-.022.045.045 0 0 1 .002-.02.498.498 0 0 1 .046-.075c.032-.043.081-.1.145-.157a.87.87 0 0 1 .544-.239c.207-.02.394.099.524.216a1.293 1.293 0 0 1 .196.228.206.206 0 0 1 .016.032c0 .002.002.007.001.012Zm-.265-.216c-.125-.114-.292-.214-.467-.197h-.003a.795.795 0 0 0-.497.22 1.05 1.05 0 0 0-.136.146l-.006.01h1.27a1.211 1.211 0 0 0-.161-.178Zm2.225.042a.46.46 0 0 1-.2.042c-.127-.005-.189-.026-.235-.059-.016-.01-.03-.024-.044-.036a.892.892 0 0 0-.044-.037.781.781 0 0 1-.173.168l-.029.02h1.7a2.063 2.063 0 0 0-.12-.127 1.112 1.112 0 0 0-.17-.135.357.357 0 0 0-.165-.064.364.364 0 0 0-.16.036c-.057.024-.113.058-.172.093l-.003.001c-.06.035-.122.071-.185.098Zm1.075.099-.003-.003a2.917 2.917 0 0 0-.166-.179 1.203 1.203 0 0 0-.18-.145.431.431 0 0 0-.203-.075.438.438 0 0 0-.194.042c-.06.027-.12.062-.177.096l-.005.002c-.06.036-.118.07-.176.094a.388.388 0 0 1-.168.036c-.12-.005-.165-.024-.195-.045a.28.28 0 0 1-.034-.028.402.402 0 0 0-.092-.069l-.034-.018-.018.035a.602.602 0 0 1-.171.176 1.524 1.524 0 0 1-.09.062l-.029.018-.007.004-.002.001-.122.07h2.036l.006.003c.004.001.01.002.02 0a.037.037 0 0 0 .028-.036v-.041h-.024Zm-6.46-.168a.39.39 0 0 0 .167.036c.121-.005.166-.024.196-.045.012-.008.021-.017.033-.028a.403.403 0 0 1 .092-.069l.035-.018.017.035c.03.059.102.123.172.176.034.025.066.047.09.062l.028.018.008.004.002.001m-1.393-.406a.433.433 0 0 1 .193.042c.06.026.119.061.176.095l.006.004c.06.035.12.069.177.093" clip-rule="evenodd"/><path fill="#DE2010" fill-rule="evenodd" d="M-1.5 13.5h27V18h-27v-4.5Zm0-13.5h27v4.5h-27V0Z" clip-rule="evenodd"/></g><defs><clipPath id="a"><path fill="#fff" d="M0 0h24v18H0z"/></clipPath></defs></svg>