<svg xmlns="http://www.w3.org/2000/svg" width="24" height="18" fill="none"><g clip-path="url(#a)"><path fill="currentColor" fill-rule="evenodd" d="M.06 0 .042 18h24L.06 0Z" clip-rule="evenodd"/><path fill="red" fill-rule="evenodd" d="m24.023 18 .018-18h-24l23.982 18Z" clip-rule="evenodd"/><path fill="#FC0" d="m14.86 4.478-.317-.016c-.1-.232-.374-.315-.55-.216-.321 0-.643-.005-.965-.016l.591.257c.158.406.658.489.658.489-.05.73-.741-.091-1.324.324-.416.248-.416.539-.64 1.02-.076.133-.367.48-.367.48l.491-.04-.158.207.582-.083-.124.116c.083.017.666-.141.666-.141l-.042.19.666-.24s.133.108.25.158l.083-.332.333.083.083-.332c.5.664.666 1.327 1.582 1.493l-.083-.332c.243.107.485.217.724.332l.075-.14c.4.281.724.273.949.306l-.167-.415.167.083-.25-.663.25.083-.333-.498.125-.083-.042-.249c.5.166 1.166.415 1.249.996.083.912-.916 1.16-1.582 1.078.5.415 1.415.249 1.831-.166.167-.166.25-.415.333-.664.084.25.25.581.25.913-.083.746-1.082.995-1.748 1.078.75.415 2.081-.083 2.164-1.161 0-.913-.582-1.327-.832-1.742l-.083-.448.25.116s-.15-.274-.167-.332c0 0-.258-.705-.35-.862l.183.033-.682-.854.191-.017s-.79-.622-1.007-.705l.25-.083c-.5-.249-1.082-.083-1.582.249l.083-.249-.15.017v-.29l.15-.225-.25-.083.167-.414-.25.083.084-.415s-.183.083-.3.074c.048-.092.092-.186.133-.282-.083-.124 0-.373 0-.373-.583.083-.666.166-.999.664-.5.912-.333 1.327-.25 2.24Z"/><path fill="#FC0" fill-rule="evenodd" d="M16.045 1.632c-.248.038-.39.079-.505.158-.126.087-.225.224-.392.473-.246.45-.327.775-.337 1.098-.007.22.018.438.049.698.014.127.03.264.044.416l.005.053-.397-.021-.011-.026c-.09-.21-.336-.28-.485-.194l-.01.006h-.013c-.243 0-.486-.003-.73-.01l.391.17.007.018a.717.717 0 0 0 .366.373 1.093 1.093 0 0 0 .252.087h.004v.001l.042.007-.003.041c-.013.188-.069.297-.175.34a.347.347 0 0 1-.162.016 1.312 1.312 0 0 1-.182-.035l-.051-.012c-.246-.062-.52-.131-.773.049h-.002l-.001.002a.892.892 0 0 0-.375.404c-.038.077-.07.16-.107.256l-.003.01a4.911 4.911 0 0 1-.138.33v.002l-.002.001c-.04.07-.133.194-.215.297-.031.04-.061.076-.087.107l.486-.04-.153.2.617-.088-.131.122a11.484 11.484 0 0 0 .497-.118l.019-.005.006-.002.012.044-.012-.044.073-.02-.04.184.612-.222.02.017h.001l.005.004.016.012a1.587 1.587 0 0 0 .168.111l.081-.321.333.083.095-.38.058.076c.12.16.221.319.317.47l.014.023c.1.158.195.306.303.439.201.248.446.44.85.53l-.089-.353.085.038c.23.1.46.205.686.313l.08-.148.041.03c.327.23.599.26.814.285l.038.004-.183-.454.17.085-.242-.645.214.071-.284-.425.138-.092-.05-.294.073.024c.25.083.546.188.79.347.246.16.445.377.49.685v.002a.942.942 0 0 1-.125.594 1.013 1.013 0 0 1-.41.364c-.278.143-.62.195-.924.184.221.122.498.157.773.124.335-.04.658-.183.858-.381.157-.157.237-.394.322-.646l.043-.13.043.13c.02.058.044.12.07.187l.004.012c.027.071.056.147.082.226.053.157.096.329.096.502v.005c-.044.396-.331.655-.681.824a3.461 3.461 0 0 1-.951.273c.343.128.776.092 1.15-.086.426-.202.766-.583.807-1.1 0-.445-.142-.768-.315-1.032a4.533 4.533 0 0 0-.27-.358l-.002-.003a3.048 3.048 0 0 1-.239-.324l-.004-.008-.101-.543.206.096-.013-.024a4.285 4.285 0 0 1-.057-.112.681.681 0 0 1-.035-.082l-.002-.007a12.755 12.755 0 0 0-.138-.363 5.08 5.08 0 0 0-.206-.484l-.05-.086.161.03-.66-.827.16-.013-.034-.027c-.078-.06-.183-.14-.295-.223a9.217 9.217 0 0 0-.334-.237 1.544 1.544 0 0 0-.24-.14l-.12-.046.258-.086c-.453-.167-.97-.011-1.428.293l-.111.074.103-.308-.13.015v-.356l.124-.185-.239-.08.148-.368-.23.077.082-.41-.03.01a.604.604 0 0 1-.212.037l-.07-.005.033-.062c.043-.084.085-.17.122-.258a.307.307 0 0 1-.03-.109.595.595 0 0 1 .02-.211Zm.21.483.081-.037-.085.425.269-.089-.186.461.261.087-.175.262v.226l.17-.02-.065.196c.48-.29 1.034-.424 1.518-.183l.099.05-.251.083c.046.027.1.06.156.098.105.07.225.157.337.24a19.308 19.308 0 0 1 .39.295l.025.02.009.007-.028.036.028-.036.09.072-.22.019.705.883-.213-.039c.048.106.113.266.17.413a23.457 23.457 0 0 1 .137.365l.003.008-.043.015.043-.015v.001l.001.002c.003.01.014.034.03.069a4.57 4.57 0 0 0 .127.242l.004.008.002.003.067.122-.296-.137.066.352c.06.099.14.198.227.307l.004.005c.089.11.185.23.273.364.18.275.33.616.33 1.083v.003c-.043.56-.41.966-.858 1.179-.447.212-.983.235-1.374.02l-.122-.069.139-.017c.33-.041.741-.124 1.078-.286.336-.163.59-.4.63-.75 0-.158-.04-.317-.091-.47a5.56 5.56 0 0 0-.082-.222l-.004-.013-.026-.066c-.071.207-.156.412-.302.557-.217.216-.56.365-.911.407-.351.043-.72-.02-.982-.238l-.12-.1.155.02c.326.04.733 0 1.045-.162a.922.922 0 0 0 .374-.33.85.85 0 0 0 .112-.536c-.04-.272-.215-.469-.448-.62a3.162 3.162 0 0 0-.698-.313l.034.203-.111.074.381.57-.285-.095.257.683-.163-.081.151.377-.079-.012-.11-.013c-.207-.023-.487-.054-.816-.272l-.071.134-.04-.019c-.21-.1-.423-.199-.637-.293l.078.31-.07-.013a1.52 1.52 0 0 1-.974-.576 4.686 4.686 0 0 1-.323-.47c-.08-.126-.162-.256-.256-.386l-.07.281-.333-.083-.086.34-.049-.021a1.066 1.066 0 0 1-.237-.146l-.003-.002-.72.26.043-.199-.02.006a11.59 11.59 0 0 1-.437.102 1.313 1.313 0 0 1-.09.014.236.236 0 0 1-.067 0l-.088-.017.084-.077-.549.078.164-.214-.498.042.07-.084.003-.004.01-.011a8.276 8.276 0 0 0 .142-.175c.082-.104.17-.22.206-.283.055-.118.096-.225.134-.323l.005-.012c.036-.093.07-.18.11-.261a.982.982 0 0 1 .408-.442c.288-.204.603-.124.842-.063l.055.014c.063.015.119.027.168.032a.26.26 0 0 0 .12-.01c.052-.02.098-.074.114-.222a1.063 1.063 0 0 1-.24-.087.814.814 0 0 1-.404-.404l-.574-.25.02-.087c.317.01.635.016.952.016.194-.1.475-.014.591.218l.236.012a18.264 18.264 0 0 0-.038-.354 4.93 4.93 0 0 1-.05-.719c.01-.34.096-.679.348-1.14l.002-.002v-.002c.166-.247.275-.4.418-.5.145-.1.322-.142.613-.183l.073-.01-.023.07v.002l-.003.007a.705.705 0 0 0-.03.234.195.195 0 0 0 .027.09l.014.02-.01.023a4.37 4.37 0 0 1-.098.213.775.775 0 0 0 .176-.053 1.19 1.19 0 0 0 .02-.009l.006-.002h.002Z" clip-rule="evenodd"/><path fill="red" fill-rule="evenodd" d="M18.006 5.84c.041.075.516.298.866.498-.092-.382-.783-.465-.866-.498Z" clip-rule="evenodd"/><path fill="red" fill-rule="evenodd" d="m17.875 5.725.152.06a.49.49 0 0 0 .078.02l.072.016c.079.018.178.044.28.082.1.037.203.087.288.154a.485.485 0 0 1 .183.266l.032.13-.117-.066c-.118-.067-.25-.137-.376-.203a26.16 26.16 0 0 1-.171-.091 4.333 4.333 0 0 1-.217-.123.895.895 0 0 1-.074-.05.189.189 0 0 1-.05-.052l-.08-.143Zm.472.263.004.002a24.952 24.952 0 0 0 .363.193.549.549 0 0 0-.04-.034.974.974 0 0 0-.259-.137 1.689 1.689 0 0 0-.068-.024Z" clip-rule="evenodd"/><path fill="#fff" fill-rule="evenodd" d="m6.563 14.963-.533-.338-.712.341.161-.607-.544-.566.627-.038.375-.69.228.582.777.142-.488.398.109.776ZM7.92 12l-.247-.112-.236.135.037-.27-.202-.184.266-.049.112-.247.132.24.27.03-.188.195.056.262Zm1.2-1.695-.543-.262-.522.292.087-.588-.443-.405.589-.105.247-.54.285.525.593.067L9 9.72l.12.585ZM6.653 7.943l-.638-.319-.618.341.105-.697-.518-.488.701-.112.3-.638.327.627.705.086-.5.502.136.698Zm-2.28 2.452-.638-.375-.637.386.161-.723-.566-.488.739-.067.288-.686.297.682.742.06-.559.488.173.723Z" clip-rule="evenodd"/></g><defs><clipPath id="a"><path fill="#fff" d="M0 0h24v18H0z"/></clipPath></defs></svg>