<svg xmlns="http://www.w3.org/2000/svg" width="24" height="18" fill="none"><g clip-path="url(#a)"><path fill="#0038A8" d="M0 0h24v9H0V0Z"/><path fill="#CE1126" d="M0 9h24v9H0V9Z"/><path fill="#fff" d="M15.589 9 0 18V0"/><path fill="#FCD116" d="m1.001 1.59.536.472.623-.345-.278.657.525.487-.712-.06-.304.645-.161-.694-.705-.09.611-.375-.135-.697Zm12.143 6.46.015.713.675.236-.675.232-.015.713-.432-.566-.682.206.405-.585-.405-.585.682.206.432-.57Zm-11.75 6.503.3.645.713-.06-.52.487.277.656-.623-.34-.54.464.135-.701-.611-.368.709-.09.16-.693Zm4.284-9.337-.233.232.117 1.763-.113.011-.214-1.609-.19.188.284 1.44c-.23.045-.45.136-.645.266L3.87 6.292H3.6l.99 1.286a1.8 1.8 0 0 0-.09.075l-1.166-1.33h-.33v.33l1.328 1.162-.075.093-1.287-.986v.266l1.22.814a1.81 1.81 0 0 0-.267.645l-1.436-.285-.192.188 1.61.213a.61.61 0 0 0-.012.117L2.13 8.767 1.898 9l.232.232 1.763-.116.011.116-1.609.214.188.187 1.44-.285c.045.23.136.45.266.645l-1.219.814v.27l1.287-.986.075.09-1.328 1.162v.33h.334L4.5 10.346l.094.075-.994 1.286h.27l.814-1.219c.191.128.413.222.645.267l-.285 1.44.188.187.213-1.609a.582.582 0 0 0 .117.012l-.113 1.762.229.233.236-.233-.116-1.762.112-.012.214 1.613.191-.191-.285-1.44c.23-.046.45-.136.645-.267l.814 1.22h.27l-.99-1.287c.031-.024.061-.05.09-.075l1.166 1.327h.33v-.33l-1.327-1.162.075-.09 1.286.986v-.27L7.17 9.993c.128-.19.222-.412.267-.645l1.436.285.191-.187-1.609-.214a.582.582 0 0 0 .012-.116l1.762.112L9.462 9l-.233-.233-1.762.113-.012-.113 1.61-.214-.188-.187-1.44.281a1.781 1.781 0 0 0-.267-.645l1.22-.814v-.266l-1.287.986a1.8 1.8 0 0 0-.075-.09l1.327-1.162v-.334h-.33L6.863 7.653a1.8 1.8 0 0 0-.094-.075l.99-1.286h-.27l-.814 1.215a1.781 1.781 0 0 0-.645-.266l.285-1.436-.187-.188-.214 1.605-.116-.011.112-1.763-.232-.232Z"/></g><defs><clipPath id="a"><path fill="#fff" d="M0 0h24v18H0z"/></clipPath></defs></svg>