<svg xmlns="http://www.w3.org/2000/svg" width="24" height="18" fill="none"><g fill-rule="evenodd" clip-path="url(#a)" clip-rule="evenodd"><path fill="#0C590B" d="M-1.502 0h27v18h-27V0Z"/><path fill="#fff" d="M-1.502 0h6.767v18h-6.767V0ZM16.03 7.925l-1.097-.232-.577.96-.12-1.112-1.089-.253 1.02-.457-.095-1.114.752.83 1.03-.436-.559.97.738.844h-.003Z"/><path fill="#fff" d="M16.442 10.758a4.263 4.263 0 0 1-5.671 2.088 4.293 4.293 0 0 1-2.092-5.699 4.17 4.17 0 0 1 2.51-2.26 5.5 5.5 0 0 0-.415.383 3.948 3.948 0 0 0 5.671 5.488h-.003Z"/></g><defs><clipPath id="a"><path fill="#fff" d="M0 0h24v18H0z"/></clipPath></defs></svg>