<svg xmlns="http://www.w3.org/2000/svg" width="24" height="18" fill="none"><g clip-path="url(#a)"><path fill="#00247D" d="M0 0h24v18H0V0Z"/><path fill="#00247D" d="M12.001 22c8.836 0 16-7.163 16-16s-7.164-16-16-16c-8.837 0-16 7.163-16 16s7.163 16 16 16Z"/><path fill="currentColor" d="m-3.999-2 32 16-32-16Zm0 16 32-16-32 16Z"/><path fill="#fff" fill-rule="evenodd" d="M9.317 6-4.536-.927l1.073-2.146 15.464 7.731 15.463-7.731 1.073 2.146L14.684 6l13.853 6.927-1.073 2.146L12 7.342l-15.464 7.731-1.073-2.146L9.317 6Z" clip-rule="evenodd"/><path fill="currentColor" d="m-3.999-2 32 16-32-16Zm0 16 32-16-32 16Z"/><path fill="#CF142B" fill-rule="evenodd" d="m10.213 6-14.57-7.284.716-1.43 15.642 7.82 15.643-7.82.715 1.43L13.79 6.001l14.57 7.284-.716 1.431L12 6.896l-15.642 7.82-.715-1.43L10.213 6Z" clip-rule="evenodd"/><path fill="#fff" d="m12 6 16 8h-2.4l-16-8H12Zm0 0 16-8h2.4l-16 8H12Zm0 0-16 8h-2.4l16-8H12Zm0 0L-4-2h2.4l16 8"/><path fill="#fff" fill-rule="evenodd" d="M10.001 4v-6h4v6h14v4h-14v6h-4V8h-14V4h14Z" clip-rule="evenodd"/><path fill="#CF142B" fill-rule="evenodd" d="M10.801 4.8V-2h2.4v6.8h14.8v2.4h-14.8V14h-2.4V7.2h-14.8V4.8h14.8Z" clip-rule="evenodd"/><path fill="#F7E017" d="M15.375 11.64c-.357.281-.62.664-.754 1.098-.225 1.084-.525 1.324-.993 1.088 0 .585.51.63.735.289 0 .543.198 1.016.64 1.421.188.169.226.053.136-.135s-.09-.795-.266-1.144c.285.207.705.09.667-.472-.364.213-.731.206-.769-.304-.045-.6.188-1.466.6-1.841h.004Zm-.435-4.305c.023-.214-.022-.435-.18-.57-.3-.27-.6-.18-.821.037-.33-.18-.506.45-.881.345.063.207.16.293.348.225-.195.177 0 .39-.232.608.42.131.645-.101.626-.503.161.143.413.135.544-.026-.225-.075-.225-.266-.135-.45.135-.262.765-.255.731.338v-.004Z"/><path fill="currentColor" fill-rule="evenodd" d="M14.768 6.756c.16.137.206.361.184.575v.008h-.023V7.33a.508.508 0 0 0-.079-.325.37.37 0 0 0-.215-.145.436.436 0 0 0-.246.01.294.294 0 0 0-.17.136.415.415 0 0 0-.05.258c.016.076.07.14.179.176l.015.005-.01.013c-.13.16-.375.173-.54.043.004.191-.048.344-.154.435-.11.096-.276.12-.488.054l-.019-.006.014-.013a.368.368 0 0 0 .104-.157.567.567 0 0 0 .023-.154v-.014c.005-.086.008-.172.075-.25-.076.019-.138.01-.189-.025-.059-.04-.1-.117-.132-.22l-.006-.02.02.005c.09.025.168.006.24-.034a1.105 1.105 0 0 0 .207-.164.864.864 0 0 1 .202-.154.243.243 0 0 1 .227.004.67.67 0 0 1 .382-.199c.144-.016.297.03.449.167Zm.157.35a.535.535 0 0 0-.172-.333c-.148-.134-.295-.177-.431-.162a.653.653 0 0 0-.375.199l-.006.006-.007-.004a.221.221 0 0 0-.214-.007.846.846 0 0 0-.197.15l-.008.006a1.12 1.12 0 0 1-.202.16.33.33 0 0 1-.238.042c.03.092.068.155.117.19.052.036.12.041.21.008l.012.02c-.09.08-.093.169-.098.267v.013a.59.59 0 0 1-.024.16.383.383 0 0 1-.096.153c.198.058.349.031.448-.055.103-.088.154-.243.145-.442l-.001-.026.02.017c.153.135.388.131.517-.012-.105-.04-.16-.107-.177-.187a.437.437 0 0 1 .051-.273.317.317 0 0 1 .182-.147.458.458 0 0 1 .26-.011.393.393 0 0 1 .284.267Zm.442 4.522h.04l-.025.02-.025.02c-.193.188-.346.486-.446.81-.104.338-.15.703-.128 1.002a.6.6 0 0 0 .083.287.292.292 0 0 0 .17.126c.138.038.318-.012.499-.118l.015-.01.002.019c.018.284-.078.458-.22.535a.434.434 0 0 1-.431-.03c.077.172.117.395.149.598l.016.111.03.192c.015.089.031.16.053.206a.47.47 0 0 1 .044.127c.007.035.005.065-.008.085a.045.045 0 0 1-.03.02.082.082 0 0 1-.042-.005.378.378 0 0 1-.116-.08c-.436-.397-.637-.861-.645-1.394-.116.154-.292.22-.444.18-.162-.044-.291-.208-.291-.503v-.019l.016.008a.61.61 0 0 0 .316.082.389.389 0 0 0 .26-.128c.158-.163.29-.491.402-1.033v-.001a2.25 2.25 0 0 1 .753-1.104l.003-.003Zm-.145.159a2.23 2.23 0 0 0-.59.954c-.112.541-.244.875-.408 1.044a.411.411 0 0 1-.274.134.63.63 0 0 1-.31-.075c.004.277.128.423.274.462.15.04.33-.03.44-.198l.02-.031v.037c0 .54.197 1.01.638 1.413a.356.356 0 0 0 .109.074.059.059 0 0 0 .03.004.023.023 0 0 0 .015-.01c.008-.011.011-.035.005-.069a.494.494 0 0 0-.042-.12.881.881 0 0 1-.056-.212l-.03-.193-.016-.11c-.033-.22-.077-.457-.164-.63l.017-.013c.14.1.31.122.442.051.128-.07.222-.228.208-.496-.177.101-.357.15-.5.112a.314.314 0 0 1-.183-.136.621.621 0 0 1-.087-.298c-.022-.301.025-.67.13-1.009.079-.258.191-.5.332-.685Z" clip-rule="evenodd"/><path fill="#337321" d="M15.907 10.444c-.472.251-1.339.142-1.421-.473-.079-.615.517-.892.679-.975.25-.123.45.098.367.357a.404.404 0 0 0 .206-.608c.364.026.705-.247.848-.641-.128.124-.48.037-.769.019.09-.098.09-.29.064-.387-.304.312-.743.169-1.324 1.073.09-.311.263-.938.36-1.35a1.04 1.04 0 0 0 .023-.124c.033-.589-.597-.6-.732-.33.15.165.075.36.02.653-.06.348-.196 1.15-.312 1.42-.038-.42-.315-.45-.368-.652-.078.053-.123.195-.108.293-.098-.105-.435.026-.563-.131-.131.266.083.536.308.648-.132.012-.165.169-.308.169a.873.873 0 0 0 .619.33c.225.019.397.101.536.379.225.446 1.073.735 1.875.33Z"/><path fill="currentColor" fill-rule="evenodd" d="M14.868 6.991a.53.53 0 0 1 .083.345 1.02 1.02 0 0 1-.023.126c-.09.383-.245.95-.34 1.28.276-.41.519-.59.73-.701.07-.037.136-.066.199-.094a4 4 0 0 0 .106-.049.839.839 0 0 0 .25-.17l.014-.013.005.019c.014.05.02.124.012.197a.374.374 0 0 1-.064.182c.065.005.133.013.2.02l.003.001c.076.009.15.018.22.022s.134.004.188-.005a.232.232 0 0 0 .127-.055l.019.012c-.14.39-.475.664-.837.65a.416.416 0 0 1-.224.606l-.02.007.006-.021c.04-.126.011-.242-.056-.31-.067-.069-.174-.093-.296-.033a2.12 2.12 0 0 1-.019.01c-.088.044-.26.132-.407.276a.777.777 0 0 0-.246.677c.04.302.272.48.556.552a1.272 1.272 0 0 0 .848-.088l.006.01.005.01a1.725 1.725 0 0 1-1.162.155c-.342-.077-.614-.263-.728-.49a.685.685 0 0 0-.232-.282.618.618 0 0 0-.296-.09.884.884 0 0 1-.626-.335l-.015-.018h.024c.066 0 .107-.036.15-.077l.006-.006a.295.295 0 0 1 .117-.08.704.704 0 0 1-.263-.255.407.407 0 0 1-.02-.393l.007-.016.011.014c.03.037.072.057.122.068.05.011.106.013.162.013h.034c.044 0 .088 0 .126.003a.23.23 0 0 1 .096.028.381.381 0 0 1 .023-.14.27.27 0 0 1 .094-.136l.013-.008.004.015a.293.293 0 0 0 .072.124 1.19 1.19 0 0 0 .06.06l.054.056c.076.08.15.185.176.37.053-.143.11-.386.16-.638.051-.256.097-.521.127-.698l.008-.042c.008-.046.017-.088.026-.129.02-.091.037-.171.041-.244a.337.337 0 0 0-.084-.27l-.005-.006L14.2 7a.318.318 0 0 1 .182-.15.454.454 0 0 1 .26-.012c.087.021.17.071.227.153Zm.69 3.576a1.315 1.315 0 0 1-.51-.023c-.289-.074-.53-.257-.573-.57a.8.8 0 0 1 .253-.697c.15-.147.324-.236.413-.28l.019-.01c.13-.064.247-.04.322.037.07.071.1.186.068.31a.394.394 0 0 0 .18-.582l-.013-.02.023.002c.346.025.673-.226.822-.597a.298.298 0 0 1-.107.036.9.9 0 0 1-.193.005 4.113 4.113 0 0 1-.222-.021h-.003a3.662 3.662 0 0 0-.22-.023l-.024-.001.016-.018a.33.33 0 0 0 .073-.186.566.566 0 0 0-.007-.17.88.88 0 0 1-.242.16 3.941 3.941 0 0 1-.109.05c-.061.027-.126.055-.195.092-.219.115-.472.304-.762.754l-.02-.009c.09-.311.262-.937.36-1.35a.99.99 0 0 0 .022-.121.509.509 0 0 0-.08-.33.37.37 0 0 0-.214-.146.43.43 0 0 0-.246.012.299.299 0 0 0-.167.133.36.36 0 0 1 .085.28 1.854 1.854 0 0 1-.042.25c-.009.04-.018.082-.026.126a31.59 31.59 0 0 0-.008.042c-.03.177-.075.442-.127.698-.056.278-.119.547-.177.684l-.022-.004a.615.615 0 0 0-.175-.4c-.018-.02-.037-.038-.055-.056l-.005-.004a1.278 1.278 0 0 1-.055-.057.33.33 0 0 1-.072-.118.34.34 0 0 0-.091.272l.005.037-.025-.027c-.022-.023-.057-.034-.104-.04-.037-.003-.08-.003-.124-.003h-.034a.778.778 0 0 1-.167-.013.24.24 0 0 1-.123-.063.386.386 0 0 0 .027.357.685.685 0 0 0 .283.262l.036.018-.04.003c-.059.005-.096.041-.138.08l-.005.006c-.038.036-.08.074-.143.081a.863.863 0 0 0 .597.31.64.64 0 0 1 .306.093c.09.06.17.151.24.291.11.22.375.402.713.479.24.054.518.055.802-.021Z" clip-rule="evenodd"/><path fill="#F7E017" d="M17.089 9.9c-.27.74-1.001 1.268-1.335 1.35-.563.135-1.71.69-2.018.975"/><path fill="currentColor" fill-rule="evenodd" d="M16.438 10.812a2.39 2.39 0 0 0 .64-.916l.021.007a2.41 2.41 0 0 1-.646.926c-.26.235-.527.39-.697.431-.28.068-.706.24-1.102.43-.396.192-.758.401-.91.543l-.015-.017c.155-.144.52-.354.915-.545.396-.192.825-.365 1.107-.433.164-.04.429-.192.687-.426Z" clip-rule="evenodd"/><path fill="#337321" d="M15.375 11.64c-.427.36-.649 1.241-.6 1.841.011.165.056.281.128.349.03-.338.266-1.215.87-1.609.51-.33 1.305-1.072 1.601-1.92a.675.675 0 0 0-.315-.367c-.293.802-1.076 1.185-1.688 1.706h.004Z"/><path fill="currentColor" fill-rule="evenodd" d="m17.053 9.918.012.006c.15.08.263.214.32.374l.001.004v.003c-.298.851-1.095 1.595-1.607 1.926-.299.195-.508.51-.646.82-.137.31-.204.613-.219.78l-.002.024-.017-.017c-.074-.07-.12-.19-.13-.356a2.878 2.878 0 0 1 .121-1.014c.1-.33.255-.632.46-.816h-.005l.024-.02a9.32 9.32 0 0 1 .48-.374l.008-.006c.162-.12.323-.24.475-.368.308-.26.576-.555.72-.954l.005-.012Zm-1.65 1.711h.003l-.023.02c-.211.178-.373.486-.475.825a2.87 2.87 0 0 0-.121 1.007c.01.15.048.257.107.324.02-.174.086-.465.219-.762.139-.312.35-.632.654-.83.508-.33 1.3-1.069 1.596-1.911a.664.664 0 0 0-.297-.352c-.149.398-.417.692-.723.951-.153.13-.315.25-.476.37l-.008.005c-.156.115-.31.23-.456.353Z" clip-rule="evenodd"/><path fill="#316D3A" d="M16.815 9.555c-.15.225-.495.54-.825.667a.444.444 0 0 0 .098-.27 3.03 3.03 0 0 1-1.602.02 2.183 2.183 0 0 0 2.164-.646c.075.083.135.15.165.229Z"/><path fill="currentColor" fill-rule="evenodd" d="m16.65 9.31.008.009a.784.784 0 0 1 .168.232l-.011.004.01.006a1.9 1.9 0 0 1-.348.373 1.786 1.786 0 0 1-.483.299l-.012-.018a.424.424 0 0 0 .093-.247 3.04 3.04 0 0 1-1.592.014l.006-.022a2.171 2.171 0 0 0 2.153-.641l.008-.01Zm-1.59.742a3.02 3.02 0 0 0 1.024-.11l.015-.005v.016a.474.474 0 0 1-.075.244 1.85 1.85 0 0 0 .439-.28c.143-.12.265-.253.34-.363a.754.754 0 0 0-.153-.211 2.194 2.194 0 0 1-1.59.71Z" clip-rule="evenodd"/><path fill="#337321" d="M13.6 11.426c-.682.637-.232 1.2.038 1.323-.075.447.35.39.338.765.172-.097.217-.356.187-.562.218.232.762-.026.878.405.075-.476-.296-.949-.75-.904.187-.168.079-.446-.098-.517-.037.348-.43.348-.58.24-.15-.105-.278-.454-.012-.75Z"/><path fill="currentColor" fill-rule="evenodd" d="M13.252 12.284c-.062-.241-.002-.545.342-.866l.007.008.009.008a.543.543 0 0 0-.148.438.436.436 0 0 0 .157.295.421.421 0 0 0 .324.05.317.317 0 0 0 .157-.089.325.325 0 0 0 .083-.193l.001-.015.014.006a.342.342 0 0 1 .192.23c.024.094.01.2-.069.284a.673.673 0 0 1 .552.263.842.842 0 0 1 .18.656l-.023.001a.315.315 0 0 0-.15-.205.617.617 0 0 0-.24-.063l-.089-.008a1.78 1.78 0 0 1-.177-.02.408.408 0 0 1-.195-.082.797.797 0 0 1-.022.296.397.397 0 0 1-.175.247l-.018.01.001-.02a.334.334 0 0 0-.056-.209.7.7 0 0 0-.112-.12l-.021-.019a.504.504 0 0 1-.125-.157.43.43 0 0 1-.025-.253.76.76 0 0 1-.374-.473Zm.254-.745c-.247.277-.285.534-.232.739.06.232.237.401.37.462l.007.003-.001.009a.414.414 0 0 0 .022.248.48.48 0 0 0 .12.15l.02.02c.04.037.083.076.115.124a.35.35 0 0 1 .06.2.385.385 0 0 0 .148-.223.784.784 0 0 0 .018-.317l-.005-.036.024.027a.358.358 0 0 0 .206.097c.055.01.114.015.173.02l.09.007a.64.64 0 0 1 .25.066.323.323 0 0 1 .145.171.821.821 0 0 0-.18-.589.646.646 0 0 0-.563-.252l-.035.003.026-.023a.277.277 0 0 0 .084-.284.323.323 0 0 0-.165-.208.341.341 0 0 1-.086.19.34.34 0 0 1-.169.096.444.444 0 0 1-.342-.054.458.458 0 0 1-.166-.31.544.544 0 0 1 .066-.336Z" clip-rule="evenodd"/><path fill="#F7E017" d="M15.082 15.49c-.075.042-.07.14-.022.2.094.127-.068.412.236.472.09.019.158-.037.191-.139.094-.28-.206-.315-.232-.45-.026-.13-.113-.12-.173-.082Z"/><path fill="currentColor" fill-rule="evenodd" d="M15.185 15.459c.038.01.068.045.081.113.006.03.027.055.057.081l.044.035.005.005a.657.657 0 0 1 .052.043.27.27 0 0 1 .081.114.27.27 0 0 1-.007.177.243.243 0 0 1-.078.12.15.15 0 0 1-.126.027c-.078-.016-.127-.046-.158-.086a.254.254 0 0 1-.047-.135.891.891 0 0 1-.004-.073v-.012l-.002-.058a.21.21 0 0 0-.032-.113.168.168 0 0 1-.037-.114.12.12 0 0 1 .063-.101c.031-.02.071-.034.108-.023Zm-.102.032.006.01c.029-.018.062-.028.09-.02.026.007.053.032.065.095.008.038.034.067.065.094a1.136 1.136 0 0 0 .05.04.969.969 0 0 1 .05.042.26.26 0 0 1 .075.105.248.248 0 0 1-.007.163.22.22 0 0 1-.07.11.128.128 0 0 1-.108.022c-.074-.015-.118-.043-.145-.078a.232.232 0 0 1-.043-.124.868.868 0 0 1-.004-.07v-.012c0-.02 0-.04-.002-.06a.231.231 0 0 0-.036-.125.146.146 0 0 1-.033-.099.099.099 0 0 1 .052-.083l-.005-.01Z" clip-rule="evenodd"/><path fill="#F7E017" d="M15.337 16.02c-.101.044-.188.112-.15.43.019.136.008.458-.105.462.071.037.225.075.285-.011.06.1.195.075.251-.053.072.06.169-.037.169-.124.064.038.188-.018.154-.21.075.027.176-.026.213-.075-.112-.022-.393-.176-.46-.3-.068-.116-.24-.176-.357-.12Z"/><path fill="currentColor" fill-rule="evenodd" d="M15.538 16.006c.068.023.13.068.166.13a.37.37 0 0 0 .082.092.971.971 0 0 0 .128.091c.092.057.19.1.244.11l.017.004-.01.015a.24.24 0 0 1-.098.069.2.2 0 0 1-.112.014c.012.089-.01.15-.046.184a.11.11 0 0 1-.111.028.176.176 0 0 1-.06.108.116.116 0 0 1-.061.028.082.082 0 0 1-.053-.012.19.19 0 0 1-.127.106.126.126 0 0 1-.13-.052c-.034.038-.087.047-.138.044a.4.4 0 0 1-.151-.042l-.038-.02h.043c.021-.002.04-.018.056-.05a.424.424 0 0 0 .035-.123c.014-.097.012-.21.003-.276-.02-.16-.007-.26.024-.325a.239.239 0 0 1 .132-.118.274.274 0 0 1 .205-.005Zm-.007.02a.252.252 0 0 0-.188.005.216.216 0 0 0-.122.108c-.028.06-.04.153-.022.312.01.068.011.184-.003.283a.443.443 0 0 1-.037.13.119.119 0 0 1-.044.052.375.375 0 0 0 .115.027c.054.003.102-.009.129-.047l.01-.015.009.015a.105.105 0 0 0 .115.055.175.175 0 0 0 .116-.106l.006-.014.011.01a.062.062 0 0 0 .048.016.094.094 0 0 0 .049-.023.15.15 0 0 0 .054-.108v-.02l.017.01c.027.016.068.013.1-.018.03-.03.053-.087.037-.18l-.004-.02.018.007a.165.165 0 0 0 .113-.009.24.24 0 0 0 .076-.049 1.023 1.023 0 0 1-.232-.108 1.04 1.04 0 0 1-.13-.094.384.384 0 0 1-.088-.099.283.283 0 0 0-.153-.12Z" clip-rule="evenodd"/><path fill="currentColor" fill-rule="evenodd" d="M13.78 6.977c.044-.067.095-.13.152-.186l.016.015-.15.184-.018-.013Zm1.703 1.177c.082-.043.205-.05.34-.039v.023l-.333.037-.007-.021Zm-.155 8.602a.962.962 0 0 1 .007-.201h.022l.025.384-.023-.03a.162.162 0 0 1-.02-.06.73.73 0 0 1-.011-.093Z" clip-rule="evenodd"/><path fill="#F7E017" d="M20.063 11.437c1.099.92 1.17 1.65 1.001 2.078-.09-.401-.544-1.024-1.02-1.185l.019-.896v.003Z"/><path fill="currentColor" fill-rule="evenodd" d="m20.073 11.461-.018.86c.238.084.47.28.652.504.174.214.306.455.359.652.148-.424.058-1.13-.993-2.016Zm-.007-.027.004-.005c1.1.92 1.175 1.656 1.004 2.09l-.013.034-.008-.036c-.045-.198-.18-.452-.363-.678-.184-.225-.415-.419-.65-.498l-.008-.003.02-.905h.014Z" clip-rule="evenodd"/><path fill="#337321" d="M18.097 10.916h2.037v2.415c0 2.051-1.144 3.266-2.307 3.911a4.287 4.287 0 0 1-2.302-3.911v-2.419h1.425c0 .128.015.315.161.503.338-.038.72-.29.983-.503l.003.004Z"/><path fill="currentColor" fill-rule="evenodd" d="m18.094 10.898.008.007h2.042v2.426c0 2.057-1.146 3.275-2.312 3.921l-.005.003-.005-.002a4.297 4.297 0 0 1-2.309-3.922v-2.43h1.448v.012a.76.76 0 0 0 .155.49c.165-.02.34-.09.509-.183.17-.094.33-.21.461-.316l.008-.006Zm-2.558.026v2.408a4.274 4.274 0 0 0 2.29 3.898c1.159-.645 2.296-1.856 2.296-3.899v-2.403h-2.03a3.22 3.22 0 0 1-.456.312 1.461 1.461 0 0 1-.524.186l-.006.001-.004-.005a.781.781 0 0 1-.164-.498h-1.402Z" clip-rule="evenodd"/><path fill="#006EC7" d="M20.134 10.917v2.415c0 .619-.105 1.162-.281 1.635l-2.025-3.713-2.021 3.713"/><path fill="currentColor" fill-rule="evenodd" d="M20.123 13.332v-2.415h.022v2.415a4.66 4.66 0 0 1-.281 1.639l-.01.023-2.026-3.716-2.011 3.694-.02-.01 2.031-3.731 2.023 3.709c.17-.466.272-1 .272-1.608Z" clip-rule="evenodd"/><path fill="#F7E017" d="m18.75 16.11.195.098c.104-.248.135-.521.09-.787-.112.296-.51.285-.614.465.063.033.123.07.18.112a2.062 2.062 0 0 1-.627.413v-1.913c0-.135-.045-.247-.045-.36v-.393c0-.09-.018-.222-.101-.222-.079 0-.098.132-.098.222v.393c0 .113-.044.24-.044.36v1.913c-.098-.285-.484-.188-.66-.473a.507.507 0 0 1 .213-.007c-.131-.458-.498-.491-.57-.626 0 .187-.079.626.045.813a.501.501 0 0 1 .12-.097c.15.33.837.33.994.874.131-.2.596-.432.922-.784Z"/><path fill="currentColor" fill-rule="evenodd" d="M17.738 13.596c.015-.044.042-.084.09-.084.048 0 .076.04.092.084.015.046.02.103.02.148v.394c0 .053.01.105.02.162l.002.007c.012.06.023.122.023.191v1.895a2.07 2.07 0 0 0 .598-.394 1.277 1.277 0 0 0-.168-.104l-.01-.005.005-.01a.314.314 0 0 1 .13-.111c.037-.02.08-.04.124-.058l.056-.025c.126-.056.25-.126.305-.27l.014-.038.007.04c.045.268.014.543-.09.794l-.005.011-.198-.099c-.163.175-.36.32-.53.445l-.014.01c-.082.06-.157.115-.22.167a.763.763 0 0 0-.152.154l-.014.02-.006-.023c-.078-.267-.285-.4-.494-.51a6.236 6.236 0 0 0-.093-.047 2.617 2.617 0 0 1-.206-.11.507.507 0 0 1-.195-.194.487.487 0 0 0-.107.09l-.01.01-.008-.012a.453.453 0 0 1-.06-.184 1.39 1.39 0 0 1-.01-.23 4.46 4.46 0 0 1 .013-.227v-.004c.006-.069.01-.13.01-.175l.022-.005c.016.03.05.057.096.086l.048.029c.035.021.075.045.115.073a.769.769 0 0 1 .312.44l.005.018-.018-.004a.495.495 0 0 0-.194.004c.084.125.21.17.335.215l.01.004c.115.04.226.083.286.193v-1.859c0-.061.011-.124.022-.185v-.002a.915.915 0 0 0 .023-.173v-.394c0-.045.005-.102.02-.148Zm.022.007a.478.478 0 0 0-.019.141v.394a.92.92 0 0 1-.022.176v.003a1.014 1.014 0 0 0-.023.181v1.912l-.022.004c-.046-.137-.162-.182-.293-.23a.033.033 0 0 1-.013-.004c-.127-.045-.265-.095-.353-.236l-.008-.013.015-.004a.518.518 0 0 1 .2-.01.744.744 0 0 0-.297-.411 1.798 1.798 0 0 0-.113-.072l-.049-.03a.392.392 0 0 1-.084-.066c-.001.041-.005.09-.009.142v.005c-.006.07-.012.148-.014.226-.002.078 0 .156.01.226a.43.43 0 0 0 .05.162.512.512 0 0 1 .112-.088l.01-.006.006.01a.47.47 0 0 0 .192.195c.061.038.13.073.203.11l.094.047c.205.107.414.24.498.502a.88.88 0 0 1 .143-.14c.064-.053.14-.109.222-.168l.013-.01c.174-.127.37-.273.533-.448l.005-.006.192.095a1.42 1.42 0 0 0 .09-.732c-.063.129-.183.195-.3.247l-.057.025a1.584 1.584 0 0 0-.122.056.31.31 0 0 0-.114.093c.06.032.117.068.17.108l.011.008-.01.01a2.075 2.075 0 0 1-.629.414l-.016.006v-1.929a.974.974 0 0 0-.022-.186l-.001-.009a.883.883 0 0 1-.021-.165v-.394a.464.464 0 0 0-.02-.14c-.014-.043-.037-.07-.07-.07-.032 0-.054.026-.068.07Z" clip-rule="evenodd"/><path fill="#F7E017" d="M17.828 14.518c.15 0 .638-.05.81-.05.045 0 .083-.067.083-.15 0-.082-.038-.15-.083-.15-.172 0-.656-.052-.806-.052-.15 0-.637.049-.81.049-.045 0-.082.068-.082.15 0 .083.037.154.082.154.173 0 .656.049.806.049Z"/><path fill="currentColor" fill-rule="evenodd" d="M17.452 14.128c.155-.012.307-.024.38-.024.072 0 .223.013.378.025l.017.002c.162.013.325.026.41.026.03 0 .053.021.069.05.016.029.026.068.026.111s-.01.082-.026.112c-.016.028-.04.05-.068.05-.086 0-.25.012-.413.024l-.017.001a7.046 7.046 0 0 1-.38.023 6.65 6.65 0 0 1-.378-.023l-.018-.001a7.185 7.185 0 0 0-.41-.024c-.03 0-.053-.023-.069-.052a.246.246 0 0 1-.025-.114c0-.042.01-.082.025-.11.016-.03.04-.05.069-.05.085 0 .25-.013.412-.025l.018-.001Zm-.016.023a7.264 7.264 0 0 1-.415.025c-.016 0-.034.012-.048.038a.213.213 0 0 0-.023.1c0 .04.01.077.023.103.015.027.032.04.049.04.086 0 .25.012.412.024l.016.002c.156.011.306.023.378.023.072 0 .222-.012.379-.023l.017-.002c.161-.012.327-.024.414-.024.016 0 .034-.013.048-.038a.212.212 0 0 0 .023-.1.212.212 0 0 0-.023-.101c-.014-.026-.032-.038-.048-.038a6.69 6.69 0 0 1-.413-.027l-.016-.001a6.486 6.486 0 0 0-.378-.025c-.071 0-.222.011-.379.023l-.016.001Z" clip-rule="evenodd"/><path fill="#F7E017" d="M17.021 14.468c.046 0 .083-.068.083-.15 0-.082-.037-.15-.082-.15"/><path fill="currentColor" fill-rule="evenodd" d="M17.09 14.206c.015.03.025.069.025.112 0 .042-.01.082-.025.11-.016.03-.04.05-.069.05v-.022c.017 0 .035-.012.049-.038a.213.213 0 0 0 .023-.1.213.213 0 0 0-.023-.101c-.014-.026-.032-.038-.049-.038v-.023c.029 0 .053.021.069.05Z" clip-rule="evenodd"/><path fill="#F7E017" d="M17.089 14.468c.045 0 .082-.068.082-.15 0-.082-.037-.15-.082-.15v.3Zm.439.03c.056 0 .1-.079.1-.18 0-.101-.044-.184-.1-.184v.364Zm.105.011c.056 0 .105-.086.105-.191 0-.105-.05-.191-.105-.191v.382Zm.34 0c.06 0 .106-.086.106-.191 0-.109-.045-.195-.105-.195v.386Zm.113-.004c.053 0 .102-.086.102-.187 0-.105-.05-.188-.105-.188l.003.375Zm.477-.033c.045 0 .082-.068.082-.154s-.037-.154-.082-.154v.308ZM16.83 16.02a.682.682 0 0 1 .195-.082l-.195.082Zm1.823.015-.053-.037.053.037Zm.097.075a1.29 1.29 0 0 0 .285-.457l-.285.457Z"/><path fill="currentColor" fill-rule="evenodd" d="M17.963 14.111h.01c.037 0 .066.026.086.063.005.01.01.02.013.03v-.085h.01c.035 0 .064.025.084.06.02.036.033.085.033.139a.291.291 0 0 1-.032.137c-.02.035-.048.061-.08.061h-.012v-.094a.218.218 0 0 1-.016.036c-.02.036-.05.062-.085.062h-.011v-.409Zm.022.024v.361c.02-.004.039-.02.054-.049a.279.279 0 0 0 .029-.13.29.29 0 0 0-.029-.132c-.015-.029-.034-.045-.054-.05Zm-.364-.02h.012c.034 0 .063.026.083.062.02.037.033.087.033.14a.295.295 0 0 1-.033.141c-.02.036-.05.062-.083.062h-.012v-.095a.201.201 0 0 1-.012.026c-.02.034-.047.058-.081.058h-.012v-.386h.012c.034 0 .062.025.081.06a.215.215 0 0 1 .012.026v-.094Zm.023.024v.357c.018-.005.037-.021.052-.049a.272.272 0 0 0 .03-.13.273.273 0 0 0-.03-.129c-.015-.028-.034-.044-.052-.049Zm.45.004.003.35c.017-.006.035-.022.05-.05a.27.27 0 0 0 .03-.125.263.263 0 0 0-.03-.128c-.016-.027-.034-.043-.053-.047Zm-.555.003v.339c.018-.004.036-.02.05-.045a.254.254 0 0 0 .029-.122.264.264 0 0 0-.028-.125c-.015-.026-.033-.042-.051-.046Zm1.012.007h.012c.028 0 .052.02.068.05.016.03.025.07.025.115 0 .044-.01.085-.025.114-.016.03-.04.05-.068.05h-.012v-.33Zm.023.024v.281c.013-.004.026-.016.037-.037a.223.223 0 0 0 .023-.103.223.223 0 0 0-.023-.104c-.011-.02-.024-.033-.037-.037Zm-1.496-.02h.01c.03 0 .053.02.069.05a.23.23 0 0 1 .026.11c0 .043-.01.083-.026.112-.016.029-.04.05-.068.05h-.011v-.323Zm.022.024v.273c.013-.004.026-.016.037-.036a.213.213 0 0 0 .023-.1.205.205 0 0 0-.023-.1c-.01-.02-.024-.033-.037-.037Zm1.946 1.475c-.06.175-.163.33-.288.462l-.016-.016c.123-.13.223-.282.282-.453l.022.007Zm-2.222.354a.691.691 0 0 1 .198-.083l.008.02-.196.083-.01-.02Zm1.783-.022.052.038-.013.018-.052-.037.013-.019Z" clip-rule="evenodd"/><path fill="#fff" d="M17.419 12.624c0-.045.037-.064.079-.094.048-.038.07-.056.116-.056h.585c.045 0 .056.01.056.052v.795c0 .041-.011.053-.056.053h-.78v-.758"/><path fill="currentColor" fill-rule="evenodd" d="m17.508 12.535-.004.003a1.172 1.172 0 0 1-.018.013c-.014.01-.026.018-.036.028a.058.058 0 0 0-.02.044v.739h.768c.023 0 .033-.003.038-.008.004-.004.008-.013.008-.033v-.795c0-.02-.004-.03-.008-.034-.005-.005-.015-.008-.038-.008h-.585c-.039 0-.058.015-.105.051Zm-.1.85h.79c.023 0 .041-.003.053-.014.012-.012.015-.03.015-.05v-.795c0-.021-.003-.039-.015-.05-.012-.012-.03-.014-.053-.014h-.585c-.047 0-.072.02-.116.053a1.225 1.225 0 0 0-.006.005l-.017.012a.32.32 0 0 0-.04.03.082.082 0 0 0-.027.054v.768Z" clip-rule="evenodd"/><path fill="#E5E5E5" d="M18.056 13.444c.075 0 .064 0 .112-.056.06-.056.057-.052.057-.105v-.727c0-.038-.012-.05-.053-.05h-.54c-.041 0-.06.016-.109.053-.037.03-.07.05-.07.087v.798h.603Z"/><path fill="currentColor" fill-rule="evenodd" d="M17.575 12.509a.114.114 0 0 1 .057-.014h.54c.02 0 .038.003.05.014.01.01.013.027.013.046v.759a.06.06 0 0 1-.006.025.103.103 0 0 1-.019.024l-.033.032h-.001l-.015.018v.001a.994.994 0 0 1-.012.014.085.085 0 0 1-.022.019.069.069 0 0 1-.028.007l-.043.001h-.616v-.81c0-.023.01-.04.025-.054a.341.341 0 0 1 .05-.04l.001-.001.003-.003c.023-.017.04-.03.056-.038Zm-.045.059-.018.014a.304.304 0 0 0-.03.025c-.013.012-.02.023-.02.038v.788h.593l.042-.001c.01-.001.015-.003.02-.005a.064.064 0 0 0 .015-.014l.011-.013v-.001l.016-.019.002-.001.033-.032a.086.086 0 0 0 .015-.018.04.04 0 0 0 .004-.017v-.757c0-.018-.003-.026-.007-.03-.005-.004-.014-.007-.034-.007h-.54a.091.091 0 0 0-.047.01.42.42 0 0 0-.053.038l-.002.002Z" clip-rule="evenodd"/><path fill="#fff" d="M18.113 13.426c0 .037-.012.052-.053.052h-.589c-.04 0-.052-.011-.052-.052v-.8c0-.037.011-.048.052-.048h.59c.04 0 .052.011.052.053v.795Z"/><path fill="currentColor" fill-rule="evenodd" d="M17.437 12.597c-.004.004-.007.012-.007.03v.8c0 .02.003.028.007.033.005.004.014.007.034.007h.589c.02 0 .029-.003.033-.008.005-.005.008-.015.008-.033v-.795c0-.02-.003-.03-.008-.034-.004-.004-.013-.007-.033-.007h-.589c-.02 0-.03.003-.034.007Zm-.015-.016c.011-.011.028-.014.049-.014h.589c.02 0 .038.003.05.014.01.012.014.03.014.05v.795c0 .02-.003.036-.014.048-.012.012-.029.016-.05.016h-.589c-.02 0-.038-.003-.05-.014-.011-.012-.014-.03-.014-.05v-.799c0-.019.003-.035.015-.046Z" clip-rule="evenodd"/><path fill="#96877D" d="M19.248 10.451a.45.45 0 0 1 .09.465h-.168c.071-.214.026-.42-.278-.446-.454-.038-.982.84-1.777.949-.233-.278-.222-.807.075-1.054a3.253 3.253 0 0 0-.698-1.133"/><path fill="currentColor" fill-rule="evenodd" d="M16.5 9.225c.31.326.548.713.7 1.136l.003.007-.006.005a.706.706 0 0 0-.232.508c-.01.193.043.39.155.526.391-.056.718-.3 1.005-.527l.058-.046c.122-.097.237-.188.346-.257.127-.079.247-.128.364-.118.155.013.246.072.289.159.04.081.035.184.004.287h.145a.439.439 0 0 0-.09-.446l.016-.015a.462.462 0 0 1 .092.476l-.002.007h-.193l.005-.014c.036-.106.041-.208.003-.285-.038-.077-.121-.134-.27-.147-.11-.009-.226.037-.35.116-.109.067-.223.158-.345.255l-.058.046c-.288.228-.622.477-1.022.532h-.007l-.004-.004a.795.795 0 0 1-.163-.546.732.732 0 0 1 .234-.519 3.24 3.24 0 0 0-.693-1.12l.017-.016Z" clip-rule="evenodd"/><path fill="currentColor" d="M17.27 10.688a2.183 2.183 0 0 0-.62-1.425.937.937 0 0 0 .713-.113c.3-.199 1.065-.544 1.346-.394a.439.439 0 0 1 .019.23c-.068-.177-.81.1-1.02.187-.199.09-.289.217-.218.498-.116-.097-.075-.19-.198-.262.057.16.092.326.105.495-.045-.12-.128-.379-.3-.533.184.436.26.91.22 1.38.179-.028.347-.099.492-.206-.094.135-.364.229-.536.263-.075.097-.131.337-.128.472-.01-.165.038-.57.124-.596v.004Zm1.98-.237c-.15-.165-.425-.255-.777-.157a1.1 1.1 0 0 1 .274-.09c-.015-.094-.102-.499-.113-.596l.098-.038c.04.213.09.423.15.63a.75.75 0 0 1 .168.053c-.03-.094-.18-.769-.176-.84l.135-.075c.053.367.139.9.24 1.114Z"/><path fill="#96877D" d="M19.17 10.917c.071-.214.026-.42-.277-.446-.237-.019-.488.21-.795.45h1.072v-.004Z"/><path fill="currentColor" fill-rule="evenodd" d="M18.515 10.589c.131-.085.256-.14.378-.13.154.014.246.073.289.16.042.084.034.192-.001.3v.013h-1.117l.026-.02.112-.089a4.3 4.3 0 0 1 .313-.234Zm-.385.32h1.03c.034-.104.04-.204.001-.28-.038-.078-.12-.134-.27-.147-.114-.01-.233.041-.363.126-.098.063-.201.145-.311.232l-.087.07ZM16.597 8.93a1.2 1.2 0 0 1 .178-.356l.019.013c-.08.116-.145.238-.172.339.073.024.18.041.285.051.11.01.218.012.285.005l.002.022A1.598 1.598 0 0 1 16.905 9a1.41 1.41 0 0 1-.3-.056l-.01-.004.002-.01Zm.581 1.438.022-.006c.049.143.083.28.087.405l-.022.002-.087-.401Z" clip-rule="evenodd"/><path fill="currentColor" fill-rule="evenodd" d="m17.449 9.1-.08.06a.946.946 0 0 1-.722.114l-.157-.03.004-.022.158.03a.923.923 0 0 0 .704-.111l.079-.058c.12-.089.295-.22.509-.341.267-.153.593-.293.94-.32l.002.023c-.343.026-.666.164-.931.316a4.998 4.998 0 0 0-.506.34Z" clip-rule="evenodd"/><path fill="currentColor" fill-rule="evenodd" d="M18.713 8.419a3.004 3.004 0 0 0-1.513.583c-.114.077-.282.11-.448.118a1.773 1.773 0 0 1-.442-.034l.005-.022c.107.024.271.041.436.033.165-.008.328-.04.436-.113a3.026 3.026 0 0 1 1.524-.588l.002.023Z" clip-rule="evenodd"/><path fill="#337321" d="M20.063 11.438c.75.517 1.305 1.016 1.462 1.822.165.803.469 1.017.844.803-.09.465-.555.517-.949.161.038.536-.18 1.178-.731 1.41-.038-.322.176-.574.112-.84-.022-.113-.033-.383.12-.51-.296.101-.76-.086-.806-.525.338.161.78.188.949-.24.169-.431.097-1.162-1.001-2.085v.004Zm.948-4.182c.23-.61.84-.547 1.043-.288.6-.338.679.431 1.189.277-.008.143-.18.278-.364.27.195.176-.083.446.337.608-.356.176-.858-.012-.993-.503-.113.233-.537.233-.705.045.367-.097.337-.439.135-.57-.207-.135-.574-.082-.642.158v.003Zm-1.815 1.332a3.26 3.26 0 0 0 .885 1.38c.428.393 1.077.292 1.437-.083.01.75-.765.806-1.197.574-.187-.105-.345-.049-.16.113.277.25.884.438 1.6.592 1.25.266.803 1.26.435 1.252.11-.003.195-.112.042-.25-1.088-.976-3.293-.59-3.255-2.772-.233.574-1.19.349-.743-.33.143.116.394.124.465-.053.056-.138.019-.382-.232-.588.04-.004.13 0 .12-.102.01.06.067.15.206.12.041.06.082.105.142.083.012-.008.045-.023.03-.086.012.116.15.161.225.15Z"/><path fill="currentColor" fill-rule="evenodd" d="M21.051 7.189a1.01 1.01 0 0 0-.03.071L21 7.256v-.007a.277.277 0 0 1 .032-.072c.12-.257.315-.376.509-.403.206-.028.41.05.515.179.148-.082.266-.097.367-.074a.648.648 0 0 1 .266.15l.044.036c.064.054.127.108.198.144a.392.392 0 0 0 .308.025l.015-.005v.016a.28.28 0 0 1-.12.2.405.405 0 0 1-.228.081.247.247 0 0 1 .06.134.68.68 0 0 1 .005.082v.019l.003.062a.287.287 0 0 0 .049.155.41.41 0 0 0 .197.134l.024.009-.023.011c-.356.177-.855-.005-1.002-.483-.065.105-.194.157-.328.162a.498.498 0 0 1-.382-.139l-.012-.013.017-.005c.18-.048.26-.154.273-.263a.308.308 0 0 0-.14-.287.501.501 0 0 0-.365-.06.349.349 0 0 0-.23.145Zm.045-.084a.42.42 0 0 1 .181-.083.523.523 0 0 1 .381.063.33.33 0 0 1 .152.309c-.014.115-.097.224-.272.277.084.081.22.123.352.118.14-.006.268-.063.322-.174l.013-.027.008.029c.13.474.607.66.955.506a.41.41 0 0 1-.184-.132.31.31 0 0 1-.052-.166c-.002-.021-.002-.043-.003-.064v-.019a.635.635 0 0 0-.006-.079.222.222 0 0 0-.072-.14l-.023-.02h.031a.38.38 0 0 0 .24-.076.262.262 0 0 0 .11-.167.411.411 0 0 1-.308-.031 1.123 1.123 0 0 1-.204-.147l-.043-.036a.626.626 0 0 0-.256-.145c-.096-.022-.21-.007-.359.076l-.008.005-.006-.008c-.099-.126-.298-.205-.501-.177a.615.615 0 0 0-.448.308ZM18.58 8.322l.022-.003a.148.148 0 0 0 .052.087c.03.024.075.038.141.024l.008-.002.004.007c.02.03.04.054.061.069a.07.07 0 0 0 .067.01l.002-.002a.051.051 0 0 0 .018-.017.058.058 0 0 0 .007-.036.154.154 0 0 1-.003-.02l.022-.004a.146.146 0 0 1 .003.02.15.15 0 0 0 .08.095.224.224 0 0 0 .13.026l.001.011.01-.003c.172.526.476 1 .883 1.375.422.389 1.064.29 1.42-.082l.02-.02v.028a.72.72 0 0 1-.124.445.613.613 0 0 1-.317.22 1.04 1.04 0 0 1-.772-.082.421.421 0 0 0-.127-.048c-.038-.007-.066-.004-.083.005a.03.03 0 0 0-.015.016.04.04 0 0 0 0 .026c.008.024.03.056.076.096.137.124.357.233.633.33.275.098.605.183.963.26.314.066.522.18.652.312s.182.284.18.428a.63.63 0 0 1-.127.375c-.076.098-.175.161-.272.16v-.023c.05-.002.095-.028.108-.068.014-.038.001-.096-.074-.164-.27-.242-.61-.4-.97-.535-.133-.05-.269-.097-.405-.144-.229-.08-.457-.158-.672-.252-.342-.15-.65-.337-.87-.625-.213-.279-.343-.651-.342-1.171a.522.522 0 0 1-.618.263.335.335 0 0 1-.229-.224c-.032-.112-.006-.256.106-.428l.007-.01.01.008a.372.372 0 0 0 .251.08c.087-.005.163-.045.196-.128.054-.133.02-.372-.229-.576l-.021-.017.027-.003a.538.538 0 0 1 .038-.003.131.131 0 0 0 .038-.01.056.056 0 0 0 .027-.024.087.087 0 0 0 .007-.052Zm.607.278a.252.252 0 0 1-.134-.03.187.187 0 0 1-.075-.07.076.076 0 0 1-.03.031l-.002.002-.002.001a.09.09 0 0 1-.089-.012.276.276 0 0 1-.063-.068c-.068.013-.118-.003-.152-.03a.163.163 0 0 1-.042-.051.078.078 0 0 1-.042.045.153.153 0 0 1-.057.013c.236.205.272.444.215.584-.038.093-.123.137-.215.143a.398.398 0 0 1-.258-.078c-.104.163-.125.298-.096.399.029.103.11.175.214.209a.5.5 0 0 0 .612-.299l.021.005c-.009.543.121.926.338 1.21.217.283.52.469.861.618.214.093.441.171.67.25.135.047.272.094.407.145.359.135.702.294.976.54.078.07.099.136.08.188a.11.11 0 0 1-.018.032.43.43 0 0 0 .143-.123.608.608 0 0 0 .123-.362.574.574 0 0 0-.174-.412c-.126-.128-.33-.24-.64-.306a8.052 8.052 0 0 1-.967-.26c-.276-.097-.5-.207-.64-.335a.261.261 0 0 1-.082-.105.063.063 0 0 1 0-.041.053.053 0 0 1 .026-.028.155.155 0 0 1 .097-.007.44.44 0 0 1 .133.05c.214.116.512.16.756.081a.591.591 0 0 0 .305-.212.683.683 0 0 0 .119-.405c-.367.362-1.007.455-1.433.064a3.267 3.267 0 0 1-.885-1.376Zm.863 2.81.019.015.024.02c.737.512 1.285 1.01 1.442 1.813.082.4.199.651.34.776.07.062.145.092.226.095a.502.502 0 0 0 .26-.076l.022-.013-.005.024c-.045.237-.187.37-.37.398-.174.026-.384-.045-.576-.212.028.533-.192 1.163-.74 1.394l-.014.006-.002-.015a1.076 1.076 0 0 1 .064-.438l.003-.008c.04-.137.077-.263.046-.393a.811.811 0 0 1-.006-.253.448.448 0 0 1 .097-.236.66.66 0 0 1-.463-.074.605.605 0 0 1-.314-.473l-.002-.02.018.008c.167.08.36.126.53.1a.497.497 0 0 0 .403-.334c.165-.421.1-1.14-.973-2.05l-.024-.018-.005-.003v-.034Zm.202.175c.925.85.982 1.526.821 1.938a.52.52 0 0 1-.42.347.956.956 0 0 1-.526-.093c.028.205.15.352.301.437a.623.623 0 0 0 .488.059l.011.02a.392.392 0 0 0-.122.253.787.787 0 0 0 .006.245c.033.137-.006.269-.047.405l-.002.006a1.07 1.07 0 0 0-.065.415c.535-.235.747-.864.71-1.393l-.001-.028.02.02c.196.176.407.25.58.224.165-.025.297-.143.345-.356a.505.505 0 0 1-.25.067.373.373 0 0 1-.242-.1c-.146-.13-.264-.387-.346-.789-.143-.73-.613-1.207-1.261-1.677Z" clip-rule="evenodd"/><path fill="#F7E017" d="M20.325 10.463c.514.337 1.099.337 1.639-.285.172-.2.439-.368.626-.387.188-.018.18-.195.323-.232-.09-.026-.124-.131-.26-.12.338-.116.237-.383.402-.514-.135.049-.341-.15-.536.105.049-.12-.019-.259-.068-.311.019.135-.262.161-.315.502-.03.188-.135.177-.15-.116-.015-.217-.12-.814-.244-1.117-.123-.304-.153-.72.015-.788l-1.432 3.263Zm.176 5.527c.113.056.206.131.146.488-.026.15-.03.51.102.52-.083.038-.255.072-.319-.022-.075.11-.225.072-.277-.075-.083.064-.188-.048-.188-.146-.067.045-.206-.026-.161-.24-.086.026-.195-.037-.233-.094.124-.018.446-.176.525-.307.083-.131.278-.188.405-.124Z"/><path fill="currentColor" fill-rule="evenodd" d="m21.779 7.179-.128.289v.036c.002.15.04.328.102.479.062.153.12.378.163.593.043.214.074.418.081.528a.682.682 0 0 0 .025.165.187.187 0 0 0 .02.044.06.06 0 0 0 .018.02.02.02 0 0 0 .015 0 .045.045 0 0 0 .018-.017.25.25 0 0 0 .032-.097m-.496-1.756a.534.534 0 0 1 .027-.159c.02-.055.05-.097.097-.115l.026-.01m-.15.34-1.29 2.939c.253.164.522.245.794.21.274-.035.553-.189.822-.498.087-.1.198-.193.31-.263a.808.808 0 0 1 .324-.128c.089-.008.131-.054.17-.104l.012-.016a.288.288 0 0 1 .11-.102.609.609 0 0 1-.061-.043l-.003-.001-.024-.02a.184.184 0 0 0-.139-.044l-.004-.022a.422.422 0 0 0 .177-.107.406.406 0 0 0 .081-.137l.023-.064.002-.009.026-.07a.327.327 0 0 1 .06-.097.311.311 0 0 1-.08-.006l-.046-.01a.918.918 0 0 0-.085-.016.287.287 0 0 0-.139.012.32.32 0 0 0-.142.113l-.019-.01a.262.262 0 0 0 .003-.174.365.365 0 0 0-.05-.103.133.133 0 0 1-.036.064.59.59 0 0 1-.062.057l-.035.03a.505.505 0 0 0-.18.322h-.001a.269.269 0 0 1-.036.107.067.067 0 0 1-.027.025.039.039 0 0 1-.034-.001.073.073 0 0 1-.027-.028.211.211 0 0 1-.022-.05.703.703 0 0 1-.026-.17 4.695 4.695 0 0 0-.081-.525 3.647 3.647 0 0 0-.162-.589 1.42 1.42 0 0 1-.103-.472Zm.028-.119.076-.174a.185.185 0 0 0-.056.086.43.43 0 0 0-.02.088Zm-1.372 8.589a.32.32 0 0 0-.18.13.41.41 0 0 1-.1.104 1.146 1.146 0 0 1-.15.096 1.133 1.133 0 0 1-.264.11.253.253 0 0 0 .083.06c.04.018.087.027.126.015l.018-.006-.004.019c-.022.104.002.171.036.207.034.035.08.04.108.021l.018-.012v.021c0 .045.024.095.059.125a.108.108 0 0 0 .055.028.071.071 0 0 0 .055-.015l.012-.01.006.015c.025.07.073.113.122.126.05.013.1-.003.135-.054l.01-.013.009.013c.029.042.083.057.143.056a.443.443 0 0 0 .133-.026.131.131 0 0 1-.052-.061.482.482 0 0 1-.035-.147 1.25 1.25 0 0 1 .008-.316c.03-.178.021-.283-.008-.35-.028-.067-.077-.098-.132-.126a.292.292 0 0 0-.211-.01Zm-.007-.022a.315.315 0 0 1 .228.012.268.268 0 0 1 .143.137c.031.073.04.184.01.363-.014.074-.021.2-.01.31a.464.464 0 0 0 .035.14c.017.036.038.056.065.058l.043.004-.039.017a.466.466 0 0 1-.17.04c-.058 0-.117-.012-.153-.054a.143.143 0 0 1-.15.05.207.207 0 0 1-.133-.126.093.093 0 0 1-.06.012.13.13 0 0 1-.067-.034.204.204 0 0 1-.066-.124c-.037.015-.085.004-.12-.033-.039-.04-.062-.11-.045-.21a.215.215 0 0 1-.125-.02.256.256 0 0 1-.102-.082l-.01-.015.017-.002a1.188 1.188 0 0 0 .422-.205.39.39 0 0 0 .095-.098.343.343 0 0 1 .192-.14Z" clip-rule="evenodd"/><path fill="currentColor" fill-rule="evenodd" d="M20.262 16.184a.987.987 0 0 1-.459.342l-.007-.021a.963.963 0 0 0 .448-.334l.018.013Zm-.014.185.02.01a.798.798 0 0 1-.136.236.96.96 0 0 1-.088.1.273.273 0 0 1-.075.054l-.038.016.317-.416Zm-.23.338a.754.754 0 0 0 .097-.106.888.888 0 0 0 .097-.147l-.194.253Zm.444.209a.193.193 0 0 1-.027.067l-.024.031.041-.425h.022a.885.885 0 0 1-.012.327Zm-.001-.183-.014.145a.874.874 0 0 0 .014-.145Zm-.322.166.191-.307.02.008a.6.6 0 0 1-.194.314l-.017-.015Zm.159-.212a.578.578 0 0 1-.088.141l.088-.141Z" clip-rule="evenodd"/><path fill="#F7E017" d="M18.983 9.398c-.015.918.364 1.38.893 1.68-.195-.113-.113-.518-.375-.65.063 0 .161.087.319.05-.076-.17-.203-.428-.492-.462.075-.011.24.015.345-.022-.15-.233-.551-.124-.69-.596Zm-.097-.87a.2.2 0 0 1-.087-.087c-.138.03-.194-.056-.206-.12.008.105-.078.102-.12.105.252.207.289.45.233.589-.075.176-.323.169-.465.053-.019.378.472.506.652.026 0 .082.101.075.128.18.127-.206.034-.503-.135-.746Z"/><path fill="currentColor" fill-rule="evenodd" d="m18.582 8.322.022-.003c.005.03.02.065.051.089.03.023.075.037.142.022l.008-.001.004.007c.025.044.054.071.08.081l-.004.01.01-.006c.085.123.15.26.18.391a.488.488 0 0 1-.045.368l-.014.022-.007-.025c-.012-.049-.04-.071-.07-.093a.155.155 0 0 1-.05-.052c-.093.218-.256.301-.398.282-.15-.02-.272-.152-.262-.347l.001-.022.017.014c.07.056.164.086.25.08.086-.005.162-.045.198-.128.054-.133.019-.372-.23-.576l-.02-.017.027-.003h.012a.168.168 0 0 0 .062-.013.058.058 0 0 0 .027-.026.1.1 0 0 0 .009-.054Zm.296.215a.197.197 0 0 1-.084-.083c-.069.013-.118-.002-.153-.029a.158.158 0 0 1-.042-.052.08.08 0 0 1-.043.049.16.16 0 0 1-.055.013c.235.205.272.444.215.584-.04.093-.125.137-.217.143a.395.395 0 0 1-.248-.072c0 .172.111.284.242.302.137.018.3-.066.39-.302l.021.004c0 .035.02.05.05.072a.19.19 0 0 1 .069.08.478.478 0 0 0 .03-.329 1.115 1.115 0 0 0-.175-.38Zm.648 1.322c.062.03.117.068.156.129l.008.012-.013.004a.572.572 0 0 1-.188.022h-.052l-.015-.001c.231.073.341.299.407.448l.006.012-.013.004a.357.357 0 0 1-.201-.011.932.932 0 0 1-.05-.018l-.006-.002c.091.074.128.19.159.3l.009.031c.015.055.029.108.049.154a.247.247 0 0 0 .099.125l-.011.02a1.712 1.712 0 0 1-.655-.613c-.16-.27-.251-.617-.244-1.078h.012l.01-.003a.583.583 0 0 0 .143.255.614.614 0 0 0 .192.126c.03.014.059.025.088.037l.013.005c.034.013.066.027.097.042Zm-.532-.394c.002.424.091.746.24.999.141.236.335.412.562.554a.388.388 0 0 1-.035-.066 1.235 1.235 0 0 1-.05-.157l-.009-.032c-.036-.132-.08-.261-.207-.324l.005-.021c.018 0 .038.006.059.013l.022.008.047.018a.336.336 0 0 0 .175.012c-.076-.168-.202-.41-.477-.441v-.023a.481.481 0 0 1 .073-.003h.04l.05.002a.606.606 0 0 0 .166-.016.357.357 0 0 0-.139-.109 1.384 1.384 0 0 0-.095-.041l-.013-.005-.089-.037a.635.635 0 0 1-.199-.13.57.57 0 0 1-.126-.201Z" clip-rule="evenodd"/><path fill="#CF142B" d="M18.263 5.651c0-.082.135-.187.322-.187.225.007.401.21.581.191.18-.019.094.079.053.109-.038.026-.06.067-.045.112.015.053-.011.083-.083.038-.16-.101-.322.037-.536-.038-.184-.067-.289-.105-.292-.225Z"/><path fill="currentColor" fill-rule="evenodd" d="M18.273 5.65a.14.14 0 0 0 .02.071c.012.02.03.037.054.053.048.031.117.057.208.09l.003.001c.1.035.188.022.273.01l.01-.001c.087-.013.171-.023.256.03.017.01.03.017.041.019.011.002.017 0 .02-.001.004-.002.007-.006.008-.013a.072.072 0 0 0-.003-.03c-.017-.05.009-.097.049-.125a.197.197 0 0 0 .032-.03.081.081 0 0 0 .02-.035l-.001-.01a.037.037 0 0 0-.011-.01.188.188 0 0 0-.085-.003c-.094.01-.186-.038-.28-.087a.72.72 0 0 0-.303-.104.422.422 0 0 0-.225.06c-.056.036-.085.08-.086.116Zm.074-.133a.445.445 0 0 1 .238-.065c.114.004.216.057.31.105l.002.002c.096.05.182.093.268.084a.207.207 0 0 1 .095.006.04.04 0 0 1 .022.018.038.038 0 0 1 .004.026.102.102 0 0 1-.024.045.222.222 0 0 1-.037.034c-.035.025-.054.062-.04.1a.096.096 0 0 1 .003.04.04.04 0 0 1-.017.029.049.049 0 0 1-.037.004.159.159 0 0 1-.049-.022c-.077-.048-.154-.04-.24-.027l-.012.002a.557.557 0 0 1-.282-.011l-.006-.003a1.047 1.047 0 0 1-.21-.092.195.195 0 0 1-.06-.059.161.161 0 0 1-.024-.082c0-.047.038-.097.096-.134Z" clip-rule="evenodd"/><path fill="#96877D" d="M17.343 7.762a1.368 1.368 0 0 0-.596-.664l-.008-.15c.146-.082.281-.183.401-.3.672.32 1.583-.135 2.003-.61l.161.1-.082.105-.083-.045a4.928 4.928 0 0 1-.604.563c.14.035.284.056.428.064.375-.267.671-.51.814-.525l.12.157-.109.075-.082-.045c-.454.43-.81.956-1.04 1.538-.247-.057-1.143-.02-1.323-.267v.004Z"/><path fill="currentColor" fill-rule="evenodd" d="m19.142 6.022.18.113-.096.123-.083-.045a4.358 4.358 0 0 1-.293.294c-.11.103-.222.202-.287.249.13.03.264.05.398.057.085-.06.167-.12.243-.176.09-.066.173-.127.247-.178.07-.049.133-.089.187-.118a.39.39 0 0 1 .138-.053h.007l.13.172-.123.085-.082-.044c-.45.428-.801.95-1.03 1.528l-.004.009-.009-.002a2.219 2.219 0 0 0-.284-.03L18.319 8a9.245 9.245 0 0 1-.34-.027 2.375 2.375 0 0 1-.39-.067c-.113-.032-.206-.076-.253-.141h-.002a1.358 1.358 0 0 0-.592-.658l-.005-.003-.008-.163.006-.003a2.01 2.01 0 0 0 .399-.299l.005-.005.007.003c.332.158.724.125 1.087-.008.363-.132.694-.364.902-.6l.007-.008ZM17.35 7.747l.003.005c.043.058.13.102.242.134.112.032.248.052.387.066.115.012.232.02.338.027l.062.004c.116.008.215.016.279.029.23-.58.585-1.103 1.038-1.533l.005-.006.084.046.093-.064-.108-.143a.409.409 0 0 0-.125.048 2.102 2.102 0 0 0-.184.117c-.074.052-.156.112-.246.177-.078.057-.16.118-.248.18l-.003.002h-.004a2.3 2.3 0 0 1-.43-.064l-.025-.007.022-.014c.057-.036.181-.144.305-.26.123-.115.244-.237.296-.3l.006-.007.083.045.069-.088-.143-.09a2.333 2.333 0 0 1-.905.6c-.364.133-.76.168-1.097.01-.119.114-.25.212-.392.294l.007.137c.263.148.47.378.59.655Z" clip-rule="evenodd"/><path fill="currentColor" fill-rule="evenodd" d="M18.969 6.835a1.346 1.346 0 0 1-1.386.026c-.078.055-.141.17-.178.313a1.17 1.17 0 0 0-.017.485l-.022.004a1.2 1.2 0 0 1 .017-.494c.038-.15.106-.272.194-.33l.005-.005.007.004a1.324 1.324 0 0 0 1.368-.023l.012.02Z" clip-rule="evenodd"/><path fill="currentColor" fill-rule="evenodd" d="m17.509 7.259.098.098-.098.099-.098-.099.098-.098Zm0 .032-.067.066.067.067.067-.067-.067-.066Zm.013.205 1.277.201c0-.003 0-.007-.002-.01a.06.06 0 0 0-.018-.022.33.33 0 0 0-.09-.045 1.437 1.437 0 0 0-.252-.06 10.75 10.75 0 0 0-.915-.064Zm-.145-.023c.286-.007.91.042 1.064.064.075.012.177.033.256.062a.35.35 0 0 1 .096.048c.011.01.02.02.025.03a.043.043 0 0 1-.002.038l-.003.007-1.437-.226.001-.023Z" clip-rule="evenodd"/><path fill="#337321" d="M17.703 5.775c-.1-.142-.386-.187-.446.004-.026.086-.067.176-.135.217-.064.038-.049.162-.022.214.075.128.011.251.15.338 0-.102.15-.21.28-.237.128-.026.327-.142.353-.27.027-.13.072-.24-.18-.262v-.004Z"/><path fill="currentColor" fill-rule="evenodd" d="M17.713 5.768a.336.336 0 0 0-.247-.128c-.095-.005-.187.033-.219.135a.604.604 0 0 1-.051.123.24.24 0 0 1-.08.088c-.036.022-.049.068-.05.11a.27.27 0 0 0 .024.119.38.38 0 0 1 .044.144l.006.037a.211.211 0 0 0 .104.16l.018.011v-.02c0-.045.034-.095.087-.137a.452.452 0 0 1 .185-.088.63.63 0 0 0 .218-.099c.07-.049.129-.112.143-.18a2.838 2.838 0 0 1 .018-.094.175.175 0 0 0-.004-.084c-.02-.052-.075-.085-.196-.097Zm-.445.014c.028-.09.108-.124.197-.12.087.006.179.05.228.116v.01l.01.002c.125.01.17.043.184.083.008.02.008.045.004.073a.835.835 0 0 1-.012.062l-.006.03c-.012.06-.066.119-.134.167a.608.608 0 0 1-.21.095.475.475 0 0 0-.194.092c-.049.039-.086.086-.094.135a.18.18 0 0 1-.052-.057.245.245 0 0 1-.027-.078.986.986 0 0 1-.005-.035.41.41 0 0 0-.047-.153.25.25 0 0 1-.021-.107c0-.04.013-.076.04-.091a.262.262 0 0 0 .086-.096.63.63 0 0 0 .053-.128Z" clip-rule="evenodd"/><path fill="#96877D" d="M17.063 7.062h.033v.243l.023.012.21-.12.018.033-.213.12a.06.06 0 0 1 0 .023l.213.124-.018.03-.214-.12"/><path fill="currentColor" fill-rule="evenodd" d="M17.085 7.072h-.023V7.05h.046v.248l.01.005.215-.122.03.053-.217.122a.06.06 0 0 1 0 .01l.217.126-.03.05-.223-.126.01-.02.205.115.007-.011-.21-.122V7.37a.052.052 0 0 0 0-.018v-.008l.21-.119-.008-.014-.205.118-.034-.017v-.24Z" clip-rule="evenodd"/><path fill="#337321" d="M16.901 8.062a.345.345 0 0 1-.075-.18.23.23 0 0 1 .154.06c-.004-.045-.023-.142-.011-.187.048.019.15.075.187.142"/><path fill="currentColor" fill-rule="evenodd" d="m16.96 7.74.012.005c.025.01.064.029.1.054a.3.3 0 0 1 .094.093l-.02.011a.28.28 0 0 0-.086-.085.522.522 0 0 0-.083-.047.39.39 0 0 0 .002.077l.006.05v.001l.006.043.002.028-.021-.019a.221.221 0 0 0-.135-.057.342.342 0 0 0 .072.16l-.017.016a.367.367 0 0 1-.078-.187V7.87h.012c.05.001.099.017.14.046l-.003-.015V7.9l-.006-.05a.32.32 0 0 1 0-.097l.003-.013Z" clip-rule="evenodd"/><path fill="#F7E017" d="M18.394 5.696c0-.034.075-.109.206-.105.157 0 .3.112.427.109.128-.012.064.03.038.041-.027.011-.038.03-.03.049.007.018-.008.033-.06.015-.113-.042-.225.015-.375-.019-.128-.026-.203-.038-.206-.09ZM17.04 8.332c-.135.158-.27.131-.296.03-.027-.105.075-.15.037-.244-.037-.086.056-.127.101-.086.045.038.188-.09.252.045.06.131.112.225.075.281-.038.053-.143.027-.17-.026Zm.574-.244c-.027-.056.112-.172.187-.09.071.08.184-.09.244.038.064.127.082.195.112.266.034.075-.168.113-.228.049.007.041-.177.075-.225-.045l-.09-.218Zm.93.075c-.034-.063.13-.15.213-.037.023-.049.188-.056.195.079l.02.27c.003.056-.098.105-.17-.034-.13.03-.195-.045-.21-.124a.638.638 0 0 0-.048-.154Z"/><path fill="currentColor" fill-rule="evenodd" d="M17.63 8.044a.048.048 0 0 0-.007.04l.09.217c.023.054.075.075.124.076a.155.155 0 0 0 .062-.01.047.047 0 0 0 .015-.01c.003-.002.003-.004.003-.005l-.007-.037.026.028a.104.104 0 0 0 .06.026.233.233 0 0 0 .08-.002.138.138 0 0 0 .06-.026.036.036 0 0 0 .012-.016.025.025 0 0 0-.001-.019 1.884 1.884 0 0 1-.027-.067 1.895 1.895 0 0 0-.086-.199c-.014-.03-.03-.04-.045-.042a.12.12 0 0 0-.058.01l-.012.005a.263.263 0 0 1-.057.017.075.075 0 0 1-.07-.025.073.073 0 0 0-.056-.024.14.14 0 0 0-.106.064Zm.106-.086a.1.1 0 0 1 .073.032c.015.017.031.02.05.018.016-.002.033-.009.052-.016a.947.947 0 0 1 .012-.004.142.142 0 0 1 .07-.012c.025.004.046.02.062.054.044.09.067.15.087.202l.025.065a.048.048 0 0 1 .003.034.059.059 0 0 1-.019.027.16.16 0 0 1-.071.031.255.255 0 0 1-.088.002.143.143 0 0 1-.058-.021.068.068 0 0 1-.026.018.178.178 0 0 1-.072.012c-.053-.002-.116-.025-.143-.09l-.09-.218c-.009-.019-.003-.04.008-.06a.162.162 0 0 1 .125-.074Zm-.834.092a.045.045 0 0 1-.027-.01c-.019-.017-.048-.017-.069-.004a.05.05 0 0 0-.02.03.073.073 0 0 0 .005.047c.02.053.003.091-.015.127v.002c-.017.036-.034.07-.022.117a.094.094 0 0 0 .096.073c.05 0 .115-.03.18-.108l.012-.013.007.016c.012.022.04.04.073.046.032.006.062 0 .077-.021.015-.024.013-.057-.002-.103a1.314 1.314 0 0 0-.052-.121l-.022-.047c-.015-.031-.034-.046-.053-.052a.13.13 0 0 0-.067 0 .553.553 0 0 0-.036.009h-.003a.565.565 0 0 1-.03.009.121.121 0 0 1-.032.003Zm.175-.043c.026.009.05.029.066.065l.021.045c.022.047.042.089.054.125.016.047.021.09 0 .122-.023.032-.064.038-.1.031a.135.135 0 0 1-.08-.045c-.066.072-.132.104-.187.105a.117.117 0 0 1-.119-.09c-.014-.056.006-.096.023-.132l.001-.002c.017-.036.031-.067.014-.109a.095.095 0 0 1-.006-.063.073.073 0 0 1 .03-.041.079.079 0 0 1 .095.005.024.024 0 0 0 .015.005l.025-.003.03-.008.002-.001a.564.564 0 0 1 .037-.01.152.152 0 0 1 .079.001Zm1.483.114c-.01.013-.013.026-.007.037l-.01.005.01-.005c.023.05.04.103.05.157l-.011.002.011-.002a.151.151 0 0 0 .057.095c.031.023.076.034.14.02l.008-.002.004.007c.034.068.074.086.102.084.028-.001.047-.023.045-.044l-.018-.27a.104.104 0 0 0-.028-.07.105.105 0 0 0-.055-.028.128.128 0 0 0-.059.002c-.017.005-.028.013-.032.021l-.008.017-.011-.015a.12.12 0 0 0-.138-.043.107.107 0 0 0-.05.032Zm-.027.047a.055.055 0 0 1 .009-.06.13.13 0 0 1 .061-.04.142.142 0 0 1 .154.039.086.086 0 0 1 .036-.02.15.15 0 0 1 .07-.002.127.127 0 0 1 .067.035c.018.02.031.047.033.083l.019.27c.002.036-.028.066-.067.069-.038.002-.083-.023-.119-.089a.186.186 0 0 1-.15-.025.174.174 0 0 1-.065-.11.628.628 0 0 0-.048-.15Z" clip-rule="evenodd"/><path fill="#337321" d="M17.125 8.072c-.022-.045.113-.135.203-.067.094.067.221-.057.274.063.112.244.116.263.082.308-.034.049-.176.03-.21-.038-.007.045-.131.038-.195.004-.075-.037-.127-.187-.154-.27Zm.938.011c-.03-.067.18-.127.27-.007.049-.045.15-.045.21.086.056.131.067.206.023.24-.03.023-.136.038-.173-.019-.049.03-.203.004-.236-.078a2.334 2.334 0 0 0-.09-.225l-.004.003Zm.893.132c-.008-.06.108-.09.15 0 .04.093.18.011.187.161a.338.338 0 0 1-.056.195c-.041.052-.248 0-.263-.113"/><path fill="currentColor" fill-rule="evenodd" d="M17.144 8.04c-.01.013-.01.022-.008.028l-.01.005.01-.004c.014.041.033.099.059.15.012.027.026.05.042.07a.15.15 0 0 0 .048.044.27.27 0 0 0 .114.026.153.153 0 0 0 .047-.006c.012-.005.017-.01.018-.016l.005-.034.016.031c.014.029.054.05.097.056a.162.162 0 0 0 .058 0c.017-.004.03-.011.036-.02a.073.073 0 0 0 .015-.029.088.088 0 0 0-.003-.04 1.807 1.807 0 0 0-.096-.227c-.012-.028-.027-.04-.045-.045a.151.151 0 0 0-.064 0l-.017.002a.421.421 0 0 1-.062.007.133.133 0 0 1-.082-.024c-.04-.03-.092-.026-.132-.007a.128.128 0 0 0-.046.034Zm-.028.037c-.008-.017 0-.036.01-.05a.15.15 0 0 1 .054-.04c.045-.021.106-.028.155.01a.11.11 0 0 0 .068.019.39.39 0 0 0 .059-.007c.006 0 .011-.002.017-.003a.172.172 0 0 1 .075.001.1.1 0 0 1 .059.057c.056.122.085.188.096.23a.109.109 0 0 1 .004.052.097.097 0 0 1-.019.037.079.079 0 0 1-.05.029.185.185 0 0 1-.066 0 .169.169 0 0 1-.102-.051.059.059 0 0 1-.022.013.16.16 0 0 1-.056.008.292.292 0 0 1-.123-.03.17.17 0 0 1-.056-.049.446.446 0 0 1-.044-.073 1.15 1.15 0 0 1-.06-.153Zm.957-.012.005.01c.03.065.06.14.09.226.015.036.057.062.105.075.023.006.047.01.068.009a.098.098 0 0 0 .047-.01l.009-.006.006.009c.016.023.047.033.08.034a.183.183 0 0 0 .046-.006.09.09 0 0 0 .03-.012c.018-.014.027-.036.023-.073a.58.58 0 0 0-.049-.154c-.029-.063-.067-.093-.102-.103a.095.095 0 0 0-.09.02l-.009.01-.007-.01c-.042-.056-.112-.071-.17-.063a.146.146 0 0 0-.068.025.042.042 0 0 0-.014.02Zm-.01.035-.003.004-.007-.015a.042.042 0 0 1 0-.034.064.064 0 0 1 .02-.026.168.168 0 0 1 .079-.03.204.204 0 0 1 .183.062.118.118 0 0 1 .102-.018c.043.012.086.047.117.115a.601.601 0 0 1 .05.16c.004.042-.004.074-.031.094a.111.111 0 0 1-.038.016.205.205 0 0 1-.052.006.123.123 0 0 1-.093-.036.137.137 0 0 1-.049.01.27.27 0 0 1-.074-.01c-.05-.014-.101-.042-.12-.088v-.001a2.365 2.365 0 0 0-.083-.21Zm.915.085a.032.032 0 0 0-.01.029l-.023.003a.055.055 0 0 1 .018-.048.085.085 0 0 1 .049-.021.101.101 0 0 1 .104.063c.01.02.023.03.04.037a.236.236 0 0 0 .04.012.877.877 0 0 1 .02.004.12.12 0 0 1 .059.03c.017.017.028.043.03.082a.35.35 0 0 1-.058.202c-.014.018-.04.024-.066.025a.255.255 0 0 1-.088-.015.25.25 0 0 1-.084-.048.13.13 0 0 1-.045-.08l.022-.002a.109.109 0 0 0 .038.065.245.245 0 0 0 .156.058c.025-.001.041-.007.048-.016a.326.326 0 0 0 .054-.188c-.001-.036-.01-.056-.023-.068a.099.099 0 0 0-.05-.023.274.274 0 0 1-.062-.016.092.092 0 0 1-.051-.05c-.019-.04-.053-.053-.082-.05a.063.063 0 0 0-.036.015Zm-1.938.128.009.012.019.027-.25-.074.01-.013c.022-.03.045-.048.067-.054a.078.078 0 0 1 .063.012.215.215 0 0 1 .05.047c.012.014.023.03.032.043Zm-.184-.048.155.046a.654.654 0 0 0-.02-.027.194.194 0 0 0-.045-.042.056.056 0 0 0-.045-.009.094.094 0 0 0-.045.032Z" clip-rule="evenodd"/></g><defs><clipPath id="a"><path fill="#fff" d="M0 0h24v18H0z"/></clipPath></defs></svg>