<svg xmlns="http://www.w3.org/2000/svg" width="24" height="18" fill="none"><g clip-path="url(#a)"><path fill="red" d="M9.6 0H24v18H9.6V0Z"/><path fill="#060" d="M0 0h9.6v18H0V0Z"/><path fill="#FF0" fill-rule="evenodd" d="M12.732 11.482c-1.211-.037-6.75-3.495-6.788-4.05l.304-.506c.551.799 6.214 4.162 6.773 4.042l-.29.514Z" clip-rule="evenodd"/><path fill="currentColor" fill-rule="evenodd" d="M6.247 6.915c.004 0 .008.002.01.005.068.098.215.237.424.405.208.168.477.365.785.578a40.34 40.34 0 0 0 2.17 1.38c.778.462 1.555.896 2.173 1.207.309.155.578.28.786.362a2.5 2.5 0 0 0 .266.089.389.389 0 0 0 .157.017.011.011 0 0 1 .012.016l-.289.514a.011.011 0 0 1-.01.006c-.153-.005-.374-.064-.641-.163-.268-.1-.585-.24-.93-.409a29.675 29.675 0 0 1-2.268-1.26 28.814 28.814 0 0 1-2.049-1.359 7.7 7.7 0 0 1-.654-.53 1.741 1.741 0 0 1-.185-.197c-.043-.056-.069-.104-.071-.143l.001-.006.304-.506a.011.011 0 0 1 .01-.006Zm.001.032-.293.488a.3.3 0 0 0 .067.127c.042.055.104.12.182.194.157.147.381.328.653.53.543.402 1.276.887 2.046 1.356.77.47 1.577.922 2.267 1.26.345.169.66.309.927.408.264.098.479.155.628.161l.274-.488a.503.503 0 0 1-.144-.02 2.324 2.324 0 0 1-.268-.09 9.901 9.901 0 0 1-.788-.363 37.022 37.022 0 0 1-2.174-1.208A40.37 40.37 0 0 1 7.453 7.92a13.64 13.64 0 0 1-.786-.578 2.54 2.54 0 0 1-.419-.396Z" clip-rule="evenodd"/><path fill="#FF0" fill-rule="evenodd" d="M6.184 6.855c-.109.293 1.447 1.253 3.315 2.393 1.871 1.136 3.484 1.838 3.6 1.74l.056-.105c-.022.038-.075.049-.161.023-.506-.147-1.822-.75-3.454-1.74-1.635-.99-3.052-1.902-3.274-2.288a.236.236 0 0 1-.022-.116h-.008l-.045.082-.007.011Zm6.574 4.643c-.019.038-.06.038-.131.03-.45-.049-1.823-.716-3.447-1.688-1.89-1.132-3.45-2.16-3.277-2.43l.045-.082.007.004c-.15.457 3.079 2.302 3.27 2.422 1.868 1.155 3.443 1.834 3.582 1.658l-.05.086Z" clip-rule="evenodd"/><path fill="currentColor" fill-rule="evenodd" d="M6.226 6.756a.011.011 0 0 1 .01-.006h.008a.011.011 0 0 1 .01.012.225.225 0 0 0 .022.11c.054.095.183.223.372.378.19.155.438.336.731.536.586.4 1.35.874 2.167 1.37 1.63.99 2.946 1.592 3.45 1.738a.23.23 0 0 0 .1.012.065.065 0 0 0 .05-.03.011.011 0 0 1 .019.012l-.057.105a.01.01 0 0 1-.002.003c-.01.009-.027.012-.047.012a.397.397 0 0 1-.074-.01 1.921 1.921 0 0 1-.239-.07 9.388 9.388 0 0 1-.794-.338 26.94 26.94 0 0 1-2.46-1.333c-.933-.57-1.79-1.095-2.398-1.514a6.537 6.537 0 0 1-.709-.543 1.098 1.098 0 0 1-.176-.199c-.037-.057-.052-.108-.036-.15l.01.004-.009-.006.007-.011.045-.082Zm-.032.104c-.011.031-.001.074.034.129.035.055.093.12.173.195.159.148.4.33.705.54.609.419 1.465.944 2.398 1.514a26.933 26.933 0 0 0 2.457 1.332c.326.152.597.266.793.336.098.035.177.058.235.07.03.006.053.01.07.01.017 0 .026-.003.03-.006l.03-.056a.123.123 0 0 1-.02.005.251.251 0 0 1-.109-.013c-.508-.147-1.825-.751-3.456-1.741a50.623 50.623 0 0 1-2.168-1.37c-.293-.2-.542-.382-.732-.538-.19-.155-.321-.285-.378-.384a.248.248 0 0 1-.024-.091l-.031.057v.001l-.007.01Zm-.257.462a.011.011 0 0 1 .015-.005l.008.004a.011.011 0 0 1 .005.014c-.008.025-.005.056.01.093.015.038.041.08.078.127.074.093.188.203.33.322.284.239.679.516 1.085.783a41.007 41.007 0 0 0 1.763 1.084 22.624 22.624 0 0 0 2.437 1.328c.322.145.59.25.786.306.098.029.177.045.236.049.029.002.053 0 .071-.004.018-.004.03-.01.036-.019a.011.011 0 0 1 .019.013l-.049.086a.07.07 0 0 1-.054.037.347.347 0 0 1-.088-.001 2.228 2.228 0 0 1-.503-.149 10.595 10.595 0 0 1-.784-.35 30.328 30.328 0 0 1-2.164-1.19c-.945-.567-1.808-1.107-2.413-1.54a5.799 5.799 0 0 1-.693-.558.928.928 0 0 1-.162-.201c-.03-.057-.038-.108-.013-.147l.044-.082Zm6.82 4.176-.01-.006.028-.05a.278.278 0 0 1-.087.006 1.198 1.198 0 0 1-.24-.048 6.297 6.297 0 0 1-.789-.308 22.662 22.662 0 0 1-2.44-1.329l-.146-.086c-.295-.175-.97-.574-1.617-.999a12.228 12.228 0 0 1-1.088-.783 2.406 2.406 0 0 1-.332-.326.559.559 0 0 1-.082-.132.2.2 0 0 1-.016-.07l-.026.048v.001c-.018.029-.015.07.014.124a.89.89 0 0 0 .158.196c.15.152.388.34.69.556.604.432 1.467.972 2.412 1.538.811.486 1.56.895 2.162 1.19.301.147.565.265.782.35.217.084.386.134.497.146a.325.325 0 0 0 .082.002c.02-.003.03-.01.038-.026l.01.005Z" clip-rule="evenodd"/><path fill="#FF0" fill-rule="evenodd" d="M9.607 7.77c1.208-.01 2.7-.165 3.563-.51l-.188-.3c-.506.282-2.006.47-3.386.495C7.97 7.44 6.817 7.287 6.24 6.9l-.173.323c1.058.45 2.145.544 3.54.547Z" clip-rule="evenodd"/><path fill="currentColor" fill-rule="evenodd" d="M6.238 6.889c.003 0 .006 0 .009.002.286.191.717.326 1.28.415.562.088 1.256.13 2.07.138a17.56 17.56 0 0 0 2.019-.152c.305-.043.583-.093.816-.15.233-.058.42-.122.545-.192a.011.011 0 0 1 .015.004l.188.3a.011.011 0 0 1-.005.016c-.865.346-2.36.5-3.567.511a.011.011 0 0 1 0-.022c-1.39-.004-2.473-.097-3.524-.542l.16-.3c.291.19.722.323 1.279.41.564.09 1.26.132 2.074.14.69-.014 1.41-.067 2.022-.153.306-.043.584-.093.818-.15a2.4 2.4 0 0 0 .542-.19l.175.28c-.863.341-2.345.493-3.546.505m-3.37-.87a.011.011 0 0 0-.008.006l.008-.006Zm-.008.006-.172.322.172-.322Zm3.378.886c-1.395-.004-2.485-.097-3.545-.548a.011.011 0 0 1-.005-.016" clip-rule="evenodd"/><path fill="#FF0" fill-rule="evenodd" d="M13.219 7.267c-.03.05-.592.24-1.417.383-.728.11-1.462.164-2.198.161a15.603 15.603 0 0 1-2.107-.135c-.867-.135-1.313-.322-1.482-.39l.042-.082c.476.187.926.3 1.45.382a15.431 15.431 0 0 0 4.28-.022c.843-.139 1.304-.315 1.372-.394l.06.101v-.004Zm-.165-.303c-.09.075-.547.236-1.35.363-.693.1-1.392.15-2.092.15a14.1 14.1 0 0 1-2.018-.135c-.817-.105-1.252-.3-1.41-.352l.049-.083c.124.064.54.233 1.369.35.666.088 1.337.131 2.01.127.695 0 1.39-.05 2.077-.15.806-.113 1.241-.315 1.309-.368l.056.098ZM5.637 9.225c.742.401 2.396.6 3.96.615 1.425.004 3.277-.218 3.97-.585l-.018-.401c-.217.337-2.205.663-3.967.652-1.763-.015-3.402-.285-3.95-.637v.356" clip-rule="evenodd"/><path fill="currentColor" fill-rule="evenodd" d="M13 6.856c.003 0 .005.002.007.005l.056.098-.01.005.008.009a.584.584 0 0 1-.14.072c-.068.028-.159.06-.272.092a7.908 7.908 0 0 1-.944.202c-.693.1-1.393.15-2.094.15v-.011.011a14.102 14.102 0 0 1-2.019-.135l.002-.011-.002.011a5.607 5.607 0 0 1-1.419-.36.011.011 0 0 1 0-.01l.05-.082a.011.011 0 0 1 .014-.004c.123.063.538.231 1.366.348l-.002.01.002-.01c.665.089 1.336.131 2.008.127.695 0 1.388-.05 2.076-.15a5.46 5.46 0 0 0 .93-.206 2.67 2.67 0 0 0 .256-.097.674.674 0 0 0 .117-.062.011.011 0 0 1 .01-.002Zm.039.105-.045-.078a.837.837 0 0 1-.112.058c-.063.028-.15.062-.258.098-.22.071-.53.15-.934.206-.688.1-1.383.15-2.079.15A14.45 14.45 0 0 1 7.6 7.268c-.81-.114-1.227-.277-1.363-.345l-.037.061.075.027c.206.077.624.231 1.32.32.513.076 1.192.136 2.016.136.7 0 1.398-.05 2.09-.15.402-.064.716-.136.942-.201.112-.033.203-.064.27-.092a.644.644 0 0 0 .126-.063Zm.12.198c.004 0 .007.003.01.006l.054.093a.011.011 0 0 1 .007.01v.004a.011.011 0 0 1-.01.01 3.715 3.715 0 0 1-.409.152 9.568 9.568 0 0 1-1.008.228 14.33 14.33 0 0 1-2.2.161c-.705.003-1.41-.043-2.108-.135-.836-.13-1.282-.31-1.465-.383a11.003 11.003 0 0 0-.02-.008.011.011 0 0 1-.005-.015l.041-.083a.011.011 0 0 1 .014-.005 6.6 6.6 0 0 0 1.449.382 15.391 15.391 0 0 0 4.275-.022c.422-.07.747-.149.976-.22.114-.035.204-.069.27-.099a.742.742 0 0 0 .079-.04.179.179 0 0 0 .041-.032.011.011 0 0 1 .01-.004Zm.044.109-.047-.08a.756.756 0 0 1-.117.067 2.099 2.099 0 0 1-.272.1c-.23.072-.557.15-.98.22a15.44 15.44 0 0 1-4.282.023 6.627 6.627 0 0 1-1.443-.38l-.032.063.009.003c.182.073.626.252 1.459.382.698.092 1.401.137 2.106.134.735.003 1.469-.05 2.195-.16a9.542 9.542 0 0 0 1.006-.227 3.69 3.69 0 0 0 .291-.095.893.893 0 0 0 .107-.05Zm.349 1.575a.011.011 0 0 1 .008.01l.019.402a.011.011 0 0 1-.006.01c-.35.185-.988.333-1.716.433a16.9 16.9 0 0 1-2.26.154h-.001a17.615 17.615 0 0 1-2.29-.163c-.7-.102-1.3-.251-1.673-.452a.011.011 0 0 1-.012-.012V8.87a.011.011 0 0 1 .017-.01c.272.176.816.331 1.515.444.698.114 1.547.185 2.428.192.88.006 1.818-.073 2.561-.195a7.05 7.05 0 0 0 .94-.21c.121-.04.223-.08.3-.12a.413.413 0 0 0 .157-.122.011.011 0 0 1 .013-.005Zm-7.908.374c.37.199.966.348 1.666.45.7.101 1.505.155 2.286.162m-3.952-.612V8.89v.327Z" clip-rule="evenodd"/><path fill="#FF0" fill-rule="evenodd" d="M13.605 9.169v.094c-.105.127-.757.315-1.575.45-.812.116-1.632.172-2.452.165a15.002 15.002 0 0 1-2.325-.162 5.813 5.813 0 0 1-1.665-.45v-.108c.364.24 1.346.42 1.676.472.593.09 1.354.158 2.314.158a16.43 16.43 0 0 0 2.437-.165c.59-.087 1.425-.308 1.59-.454Zm0-.338v.094c-.105.124-.757.311-1.575.446-.812.118-1.631.175-2.452.17-.778.004-1.555-.05-2.325-.162a5.813 5.813 0 0 1-1.665-.45v-.113c.364.244 1.35.42 1.676.473a15.3 15.3 0 0 0 2.314.161c1.009 0 1.819-.075 2.437-.169.59-.082 1.425-.303 1.59-.45Zm-4.012 2.58c-1.71-.007-3.176-.465-3.488-.54l.225.353a9.37 9.37 0 0 0 3.278.536c1.301-.037 2.437-.139 3.236-.529l.233-.367c-.544.259-2.4.547-3.488.547" clip-rule="evenodd"/><path fill="currentColor" fill-rule="evenodd" d="M5.582 8.807a.011.011 0 0 1 .012 0c.18.121.515.226.848.307.333.08.66.138.823.164a15.29 15.29 0 0 0 2.312.161c1.009 0 1.818-.075 2.436-.168.294-.041.65-.117.953-.201.151-.042.29-.086.4-.128a.85.85 0 0 0 .231-.119l.008.009h.011v.094c0 .002 0 .005-.002.007a.265.265 0 0 1-.068.052.972.972 0 0 1-.112.054c-.09.037-.207.077-.346.116-.28.08-.647.16-1.056.228a16.26 16.26 0 0 1-2.455.169c-.778.005-1.556-.05-2.326-.161a5.824 5.824 0 0 1-1.668-.451.011.011 0 0 1-.007-.01v-.113c0-.004.002-.008.006-.01Zm8.012.048a1.03 1.03 0 0 1-.22.108c-.112.043-.25.087-.402.129-.304.084-.66.16-.955.201-.62.094-1.43.169-2.44.169V9.45v.01a15.208 15.208 0 0 1-2.315-.16 11.173 11.173 0 0 1-.825-.165c-.322-.079-.651-.18-.838-.298v-.021h-.012l-.006.01a.794.794 0 0 0 .018.01v.085c-.003 0-.005-.002-.007-.003l-.005.01H5.6v-.007a5.79 5.79 0 0 0 1.655.446c.77.112 1.546.166 2.323.161.82.006 1.64-.05 2.451-.168l.002.01-.002-.01a9.891 9.891 0 0 0 1.053-.227c.14-.04.256-.079.344-.116a.938.938 0 0 0 .11-.053.256.256 0 0 0 .059-.044v.005h.01l-.008-.008a.042.042 0 0 1-.002.003v-.066Zm-8.012.293a.011.011 0 0 1 .012 0c.18.12.514.224.847.306.332.081.66.14.824.166.592.09 1.353.157 2.312.157 1.009 0 1.814-.071 2.436-.165.294-.043.65-.12.953-.204.151-.042.29-.086.4-.129a.851.851 0 0 0 .231-.118l.008.008h.011v.094c0 .003 0 .005-.002.007a.263.263 0 0 1-.068.053.943.943 0 0 1-.112.056 3.43 3.43 0 0 1-.346.117c-.28.08-.647.16-1.056.228-.813.117-1.634.172-2.455.165a15.01 15.01 0 0 1-2.326-.16 5.824 5.824 0 0 1-1.668-.452.011.011 0 0 1-.007-.01v-.109c0-.004.002-.008.006-.01Zm8.012.045c-.047.034-.124.07-.22.107-.112.043-.25.087-.402.13-.304.084-.66.161-.955.204a16.44 16.44 0 0 1-2.44.165c-.96 0-1.722-.067-2.315-.157a10.867 10.867 0 0 1-.826-.166c-.322-.08-.65-.18-.837-.297v.08c.526.23 1.084.38 1.655.447.77.114 1.546.168 2.323.16.82.008 1.64-.047 2.451-.164a9.767 9.767 0 0 0 1.053-.227c.14-.04.256-.08.344-.117a.922.922 0 0 0 .11-.054.252.252 0 0 0 .059-.045v-.066Zm-.51 1.664c.004.004.004.01.002.013l-.233.368a.011.011 0 0 1-.004.004c-.802.391-1.94.492-3.241.53a9.378 9.378 0 0 1-3.288-.542l-.225-.352a.011.011 0 0 1 .013-.017l.164.043c.51.137 1.82.49 3.32.497.543 0 1.276-.073 1.943-.177.668-.104 1.266-.241 1.536-.37a.011.011 0 0 1 .014.003Zm-3.496.566h.004m-.004 0c-1.501-.007-2.814-.36-3.322-.497l-.136-.036.207.325a9.355 9.355 0 0 0 3.27.534c1.3-.037 2.433-.138 3.229-.526l.21-.333c-.287.126-.867.256-1.508.356-.667.105-1.401.177-1.945.177" clip-rule="evenodd"/><path fill="#FF0" fill-rule="evenodd" d="m12.934 11.148-.105.15a8.432 8.432 0 0 1-1.222.315 11.06 11.06 0 0 1-2.014.188c-1.515-.023-2.756-.319-3.337-.574l-.05-.079.008-.015.08.034c1.066.353 2.182.537 3.307.544.705 0 1.406-.079 1.972-.18.87-.177 1.223-.308 1.331-.368l.027-.015h.003Zm.2-.33-.076.132c-.202.075-.75.232-1.549.345-.525.07-.85.142-1.897.16a13.028 13.028 0 0 1-3.533-.524l-.04-.094c1.165.322 2.367.499 3.577.525.956-.019 1.365-.09 1.886-.161.93-.143 1.399-.3 1.537-.341v-.008l.098-.037-.004.003Z" clip-rule="evenodd"/><path fill="currentColor" fill-rule="evenodd" d="M13.146 10.809a.011.011 0 0 1-.002.014l-.002.003-.075.13a.01.01 0 0 1-.005.005c-.204.075-.752.232-1.552.345l-.233.033c-.41.06-.78.113-1.665.128a13.043 13.043 0 0 1-3.536-.525.011.011 0 0 1-.007-.006l-.042-.094a.011.011 0 0 1 .014-.015c1.165.322 2.366.498 3.574.524a12.278 12.278 0 0 0 1.718-.138l.167-.023c.848-.13 1.312-.272 1.492-.327l.036-.011c0-.005.003-.008.007-.01l.097-.037c.005-.002.01 0 .014.004Zm-.037.029-.059.022a.011.011 0 0 1-.008.01l-.044.014c-.18.056-.646.198-1.495.328l-.167.024c-.45.063-.868.121-1.72.138h-.001a14.635 14.635 0 0 1-3.558-.52l.03.068c1.145.335 2.331.511 3.524.523a11.15 11.15 0 0 0 1.663-.128l.233-.033c.793-.112 1.338-.268 1.543-.343l.06-.104Zm-6.905.29c.002-.005.009-.007.014-.005l.079.034c1.066.353 2.18.536 3.303.543.704 0 1.405-.079 1.97-.18.87-.176 1.221-.307 1.328-.366l.027-.015a.012.012 0 0 1 .005-.002h.004c.004 0 .008.003.01.006a.011.011 0 0 1 0 .012 5.392 5.392 0 0 1-.111.154 8.444 8.444 0 0 1-1.225.316 11.09 11.09 0 0 1-2.015.188c-1.517-.023-2.76-.32-3.342-.575a.012.012 0 0 1-.005-.005l-.05-.078a.011.011 0 0 1 0-.011l.008-.015Zm.015.02.044.07c.58.255 1.819.55 3.33.572a11.073 11.073 0 0 0 2.011-.187 8.433 8.433 0 0 0 1.218-.314l.078-.11c-.12.063-.479.192-1.325.363-.567.102-1.27.18-1.975.18a10.753 10.753 0 0 1-3.312-.544l-.069-.03Z" clip-rule="evenodd"/><path fill="#FF0" fill-rule="evenodd" d="M13.154 8.91c.004 1.125-.573 2.137-1.035 2.58a3.724 3.724 0 0 1-2.542 1.057c-1.136.02-2.205-.72-2.494-1.046a3.788 3.788 0 0 1-1.031-2.527c.067-1.23.551-2.085 1.249-2.674a3.735 3.735 0 0 1 2.407-.851 3.682 3.682 0 0 1 2.663 1.335c.468.57.675 1.189.783 2.126Zm-3.57-3.848a3.975 3.975 0 0 1 3.975 3.946 3.964 3.964 0 0 1-7.927 0c-.004-2.175 1.774-3.945 3.952-3.945Z" clip-rule="evenodd"/><path fill="currentColor" fill-rule="evenodd" d="M12.377 6.224a3.964 3.964 0 0 0-2.792-1.15c-2.173 0-3.945 1.764-3.941 3.933a3.952 3.952 0 1 0 7.905 0 3.964 3.964 0 0 0-1.172-2.783ZM9.585 5.05a3.986 3.986 0 0 1 3.986 3.956 3.974 3.974 0 1 1-7.95 0C5.617 6.826 7.4 5.051 9.585 5.051Zm.123.409a3.724 3.724 0 0 0-2.4.848c-.695.587-1.177 1.439-1.244 2.665a3.776 3.776 0 0 0 1.028 2.52c.143.162.481.428.926.65.444.223.993.402 1.56.393a3.712 3.712 0 0 0 2.534-1.054c.46-.441 1.035-1.45 1.032-2.572-.109-.936-.315-1.552-.782-2.12a3.671 3.671 0 0 0-2.654-1.33Zm3.447 3.45.011-.002c-.109-.938-.316-1.56-.786-2.132a3.694 3.694 0 0 0-2.67-1.339h-.001a3.746 3.746 0 0 0-2.415.854c-.7.59-1.185 1.449-1.253 2.682a3.799 3.799 0 0 0 1.034 2.535c.146.165.487.432.933.655.446.224.999.405 1.57.395a3.735 3.735 0 0 0 2.55-1.06l-.008-.008.008.008" clip-rule="evenodd"/><path fill="#FF0" fill-rule="evenodd" d="M9.596 5.044a3.966 3.966 0 0 1 3.96 3.96 3.965 3.965 0 0 1-3.956 3.96 3.968 3.968 0 0 1-3.96-3.96 3.966 3.966 0 0 1 3.96-3.96h-.004ZM5.722 9a3.89 3.89 0 0 0 3.874 3.874A3.89 3.89 0 0 0 13.47 9a3.89 3.89 0 0 0-3.874-3.874A3.89 3.89 0 0 0 5.722 9Z" clip-rule="evenodd"/><path fill="currentColor" fill-rule="evenodd" d="M9.597 5.055A3.955 3.955 0 0 0 5.65 9.003a3.957 3.957 0 0 0 3.95 3.95 3.954 3.954 0 0 0 3.944-3.95 3.955 3.955 0 0 0-3.947-3.948Zm.002-.023a3.977 3.977 0 0 1 3.968 3.971 3.976 3.976 0 0 1-3.968 3.972 3.98 3.98 0 0 1-3.971-3.972 3.975 3.975 0 0 1 3.967-3.97H9.6ZM5.71 9a3.902 3.902 0 0 1 3.885-3.885A3.902 3.902 0 0 1 13.48 9a3.902 3.902 0 0 1-3.885 3.885A3.902 3.902 0 0 1 5.71 9Zm3.885-3.863A3.88 3.88 0 0 0 5.733 9a3.88 3.88 0 0 0 3.862 3.862A3.88 3.88 0 0 0 13.458 9a3.88 3.88 0 0 0-3.863-3.863Z" clip-rule="evenodd"/><path fill="#FF0" fill-rule="evenodd" d="M9.6 5.374A3.637 3.637 0 0 1 13.226 9 3.641 3.641 0 0 1 9.6 12.63 3.644 3.644 0 0 1 5.974 9 3.641 3.641 0 0 1 9.6 5.374ZM6.06 9c0 1.95 1.597 3.54 3.54 3.54A3.554 3.554 0 0 0 13.14 9c0-1.95-1.598-3.54-3.54-3.54A3.555 3.555 0 0 0 6.06 9Z" clip-rule="evenodd"/><path fill="currentColor" fill-rule="evenodd" d="M12.153 6.447A3.626 3.626 0 0 0 9.6 5.385 3.63 3.63 0 0 0 5.985 9 3.633 3.633 0 0 0 9.6 12.619a3.63 3.63 0 0 0 3.615-3.62 3.626 3.626 0 0 0-1.062-2.552ZM9.6 5.374v-.012A3.649 3.649 0 0 1 13.238 9 3.653 3.653 0 0 1 9.6 12.64 3.656 3.656 0 0 1 5.963 9 3.652 3.652 0 0 1 9.6 5.362v.012Zm0 .075a3.563 3.563 0 0 1 3.552 3.55A3.565 3.565 0 0 1 9.6 12.552 3.563 3.563 0 0 1 6.05 9h.01-.01A3.566 3.566 0 0 1 9.6 5.449Zm-3.528 3.55A3.54 3.54 0 0 0 9.6 12.53 3.543 3.543 0 0 0 13.13 9 3.54 3.54 0 0 0 9.6 5.472 3.544 3.544 0 0 0 6.072 9Z" clip-rule="evenodd"/><path fill="#FF0" fill-rule="evenodd" d="M9.761 5.025H9.42v7.962h.337l.004-7.962Z" clip-rule="evenodd"/><path fill="currentColor" fill-rule="evenodd" d="M9.408 5.025c0-.006.005-.011.011-.011h.342a.011.011 0 0 1 .011.01l-.004 7.962a.011.011 0 0 1-.011.011h-.338a.011.011 0 0 1-.01-.01V5.024Zm.023.011v7.939h.315l.003-7.939h-.318Z" clip-rule="evenodd"/><path fill="#FF0" fill-rule="evenodd" d="M9.724 4.98h.086v8.052h-.082V4.98h-.004Zm-.337 0h.09v8.052H9.39V4.98h-.003Z" clip-rule="evenodd"/><path fill="currentColor" fill-rule="evenodd" d="M9.375 4.98c0-.006.005-.011.011-.011h.09c.006 0 .011.005.011.011v8.051a.011.011 0 0 1-.01.011H9.39a.011.011 0 0 1-.011-.01V4.987a.011.011 0 0 1-.004-.008Zm.026.011v8.029h.064V4.991h-.064Zm.312-.011c0-.006.005-.011.01-.011h.087c.006 0 .011.005.011.011v8.051a.011.011 0 0 1-.011.011h-.082a.011.011 0 0 1-.012-.01V4.987a.011.011 0 0 1-.003-.008Zm.026.011v8.029h.06V4.991h-.06Z" clip-rule="evenodd"/><path fill="#FF0" fill-rule="evenodd" d="M13.56 9.157v-.292l-.24-.225-1.361-.36L10 8.08l-2.362.12-1.68.398-.338.25v.297l.859-.386 2.04-.319h1.961l1.44.158.998.24.64.318Z" clip-rule="evenodd"/><path fill="currentColor" fill-rule="evenodd" d="M10 8.07h.002l1.957.198h.002l1.361.36c.002 0 .004.002.005.003l.24.225a.011.011 0 0 1 .004.008v.293a.011.011 0 0 1-.017.01l-.64-.318-.995-.24-1.439-.157H8.52l-2.037.318-.858.386a.011.011 0 0 1-.016-.01v-.297c0-.003.002-.007.005-.009l.337-.25a.011.011 0 0 1 .005-.003l1.68-.397h.002L10 8.07Zm-2.36.142-1.677.397-.331.246v.273l.843-.379h.003l2.04-.32h1.962l1.44.158h.002l.998.24.002.001.625.31V8.87l-.234-.22-1.358-.359L10 8.092l-2.36.12Z" clip-rule="evenodd"/><path fill="#FF0" fill-rule="evenodd" d="M9.6 8.392c.934 0 1.838.087 2.562.225.742.15 1.263.338 1.443.544v.105c-.217-.262-.918-.45-1.462-.562a14.124 14.124 0 0 0-2.546-.225c-.98 0-1.894.097-2.6.232-.562.113-1.315.338-1.41.555v-.109c.05-.15.612-.375 1.4-.536a14.036 14.036 0 0 1 2.61-.229H9.6Zm0-.341a14.38 14.38 0 0 1 2.562.225c.742.15 1.263.338 1.443.548v.1c-.217-.258-.918-.45-1.462-.558a13.79 13.79 0 0 0-2.546-.225 14.1 14.1 0 0 0-2.595.233c-.544.1-1.328.333-1.414.55V8.82c.052-.15.622-.386 1.399-.536A14.05 14.05 0 0 1 9.6 8.05Zm-.022-1.732c1.474-.008 2.76.206 3.349.506l.213.375c-.51-.278-1.897-.563-3.558-.525-1.354.011-2.802.15-3.525.54l.255-.428c.596-.311 1.998-.468 3.266-.468Z" clip-rule="evenodd"/><path fill="currentColor" fill-rule="evenodd" d="M11.582 6.467a12.888 12.888 0 0 0-2.005-.138m2.005.138c.577.09 1.043.217 1.336.366l-1.336-.366Zm1.336.366.193.338c-.264-.133-.725-.266-1.317-.363a12.23 12.23 0 0 0-2.213-.145c-.677.006-1.378.043-2 .128-.602.082-1.132.209-1.495.395l.233-.39c.297-.155.793-.271 1.375-.35a14.63 14.63 0 0 1 1.883-.117m0-.022c-.634 0-1.302.04-1.886.118-.584.078-1.085.195-1.385.352a.011.011 0 0 0-.004.004l-.255.428a.011.011 0 0 0 .015.015c.36-.194.9-.326 1.522-.41a16.19 16.19 0 0 1 1.997-.128c.83-.02 1.592.043 2.21.144.617.101 1.09.241 1.343.38.005.002.01 0 .014-.003a.011.011 0 0 0 .002-.013l-.214-.375a.011.011 0 0 0-.005-.005c-.296-.15-.766-.28-1.346-.37-.58-.09-1.27-.14-2.008-.137Zm2.582 1.98a14.351 14.351 0 0 0-2.56-.225V8.05v.01c-.988 0-1.899.095-2.61.233a5.715 5.715 0 0 0-.97.268 1.845 1.845 0 0 0-.294.14.545.545 0 0 0-.086.066.156.156 0 0 0-.04.053v.06a.31.31 0 0 1 .044-.047.72.72 0 0 1 .12-.083 2.28 2.28 0 0 1 .356-.156 6.06 6.06 0 0 1 .88-.233 14.112 14.112 0 0 1 2.597-.233 13.8 13.8 0 0 1 2.549.226c.272.054.584.13.855.223.135.047.26.099.366.155.094.05.172.104.228.162v-.068c-.09-.101-.261-.199-.504-.29a6.297 6.297 0 0 0-.931-.25Zm-2.56-.248c.86-.001 1.718.074 2.564.226.372.075.688.16.935.251.246.092.423.192.515.3a.011.011 0 0 1 .003.007v.101a.011.011 0 0 1-.007.01.011.011 0 0 1-.013-.002.82.82 0 0 0-.24-.179 2.57 2.57 0 0 0-.364-.154 6.744 6.744 0 0 0-.852-.222 13.779 13.779 0 0 0-2.544-.225c-.87-.003-1.738.075-2.593.232-.271.05-.602.134-.876.232-.138.049-.26.1-.353.154a.698.698 0 0 0-.116.08.218.218 0 0 0-.06.078.011.011 0 0 1-.022-.004v-.108a.174.174 0 0 1 .047-.065.567.567 0 0 1 .09-.067c.074-.046.175-.095.298-.143a5.71 5.71 0 0 1 .973-.269A14.06 14.06 0 0 1 9.6 8.039Zm-.003.364c-.985 0-1.9.09-2.608.229-.393.08-.73.177-.974.271a1.815 1.815 0 0 0-.292.139.515.515 0 0 0-.085.063.146.146 0 0 0-.038.054v.065a.541.541 0 0 1 .164-.13c.093-.055.214-.107.35-.156.271-.098.6-.182.882-.238a14.246 14.246 0 0 1 2.601-.233c.935 0 1.835.09 2.549.225.272.056.584.131.855.225.135.047.26.1.366.156.094.05.172.104.228.163v-.071c-.09-.1-.261-.197-.504-.287a6.36 6.36 0 0 0-.931-.25 14.044 14.044 0 0 0-2.56-.225h-.003Zm-2.612.207c.71-.14 1.625-.23 2.612-.23H9.6c.934 0 1.839.087 2.563.226.372.075.688.16.935.251.246.092.423.19.515.296a.011.011 0 0 1 .003.008v.105a.011.011 0 0 1-.007.01.011.011 0 0 1-.013-.003.81.81 0 0 0-.24-.18 2.55 2.55 0 0 0-.364-.154 7.086 7.086 0 0 0-.852-.225 14.111 14.111 0 0 0-2.544-.225c-.978 0-1.892.098-2.596.233a6.53 6.53 0 0 0-.88.237 2.23 2.23 0 0 0-.346.154c-.093.053-.154.106-.176.157a.011.011 0 0 1-.022-.004v-.113a.165.165 0 0 1 .045-.064.536.536 0 0 1 .089-.066 1.81 1.81 0 0 1 .296-.14c.246-.096.584-.193.978-.273Z" clip-rule="evenodd"/><path fill="#FF0" fill-rule="evenodd" d="M9.6 6.626a13.3 13.3 0 0 1 2.299.161c.6.113 1.174.278 1.256.368l.064.112c-.199-.127-.697-.273-1.335-.393s-1.451-.162-2.287-.158c-.95-.004-1.688.045-2.318.158-.434.06-.856.191-1.249.386l.064-.116c.225-.113.574-.252 1.166-.36.657-.12 1.403-.154 2.34-.158Zm0-.337c.803-.008 1.598.037 2.216.15.401.06.79.186 1.148.375l.094.15c-.158-.177-.75-.345-1.279-.435-.615-.109-1.376-.15-2.179-.158a13.537 13.537 0 0 0-2.231.165 3.65 3.65 0 0 0-1.11.341l.083-.123c.217-.113.57-.218 1.012-.304A13.389 13.389 0 0 1 9.6 6.285v.004Zm1.965 4.361a10.303 10.303 0 0 0-1.968-.15c-2.457.03-3.248.506-3.345.649l-.188-.3c.63-.45 1.965-.705 3.548-.683.82.015 1.53.072 2.122.188l-.169.3" clip-rule="evenodd"/><path fill="currentColor" fill-rule="evenodd" d="M7.356 6.46c-.44.086-.791.19-1.007.302l-.058.087a3.66 3.66 0 0 1 1.076-.324A13.548 13.548 0 0 1 9.6 6.36c.803.007 1.565.048 2.18.157.265.045.546.11.78.186.118.038.224.078.31.12a.9.9 0 0 1 .137.08l-.051-.081a3.589 3.589 0 0 0-1.142-.373c-.618-.112-1.412-.157-2.214-.15a.011.011 0 0 1-.008-.003 13.375 13.375 0 0 0-2.236.165Zm2.252-.183a.011.011 0 0 0-.008-.004 13.4 13.4 0 0 0-2.248.165c-.443.087-.797.192-1.016.305a.011.011 0 0 0-.004.004l-.083.124a.011.011 0 0 0 .015.016 3.637 3.637 0 0 1 1.106-.34 13.526 13.526 0 0 1 2.23-.165c.802.008 1.563.049 2.177.157.264.045.543.11.777.185.116.038.221.078.306.12a.63.63 0 0 1 .189.127c.004.004.01.005.015.001a.011.011 0 0 0 .003-.015l-.094-.15a3.61 3.61 0 0 0-1.155-.38c-.618-.112-1.41-.157-2.21-.15Zm2.289.521c-.76-.12-1.528-.174-2.297-.161v-.011.011c-.938.004-1.683.038-2.338.157-.589.108-.936.246-1.16.358l-.045.082a4.095 4.095 0 0 1 1.22-.372c.63-.112 1.37-.161 2.32-.157.835-.004 1.65.037 2.289.157.319.06.603.127.833.195.203.06.365.12.469.179l-.042-.075a.206.206 0 0 0-.05-.034.909.909 0 0 0-.092-.042 3.251 3.251 0 0 0-.286-.095 9.014 9.014 0 0 0-.821-.192ZM9.6 6.615c-.938.003-1.685.037-2.342.157-.594.11-.943.248-1.17.361a.011.011 0 0 0-.004.005l-.064.116a.011.011 0 0 0 .015.016 4.073 4.073 0 0 1 1.245-.386c.63-.112 1.368-.16 2.316-.157.836-.004 1.649.038 2.286.157.318.06.602.127.83.194.23.068.403.136.5.198a.011.011 0 0 0 .016-.015l-.063-.112-.002-.002a.22.22 0 0 0-.056-.04.943.943 0 0 0-.095-.043 3.277 3.277 0 0 0-.288-.096 9.037 9.037 0 0 0-.823-.192A13.33 13.33 0 0 0 9.6 6.615ZM6.079 10.85l.173.278c.032-.038.1-.09.212-.148.127-.066.313-.14.572-.21.518-.141 1.331-.268 2.56-.283v.011-.01a10.27 10.27 0 0 1 1.965.148l-.006.01a.011.011 0 0 0 0 .012 10.353 10.353 0 0 0-1.959-.148c-1.227.015-2.038.141-2.554.282-.258.07-.442.143-.567.208a.626.626 0 0 0-.215.154.011.011 0 0 1-.018 0l-.188-.3a.011.011 0 0 1 .003-.016c.317-.226.81-.403 1.421-.52a10.72 10.72 0 0 1 2.133-.165c.822.015 1.531.072 2.125.188.003 0 .006.003.008.006a.012.012 0 0 1 0 .01l-.17.3a.011.011 0 0 1-.019.001m.161-.298-.155.276.155-.276Zm0 0 .015.003.003-.01-.01-.006-.008.013Zm0 0c-.588-.114-1.291-.17-2.105-.184v-.011.011c-.79-.011-1.52.047-2.129.164-.604.116-1.09.29-1.403.51" clip-rule="evenodd"/><path fill="#FF0" fill-rule="evenodd" d="M9.584 10.458c.683.011 1.35.038 2 .158l-.046.082c-.6-.112-1.245-.15-1.95-.15-.911-.007-1.826.079-2.625.308-.251.071-.667.232-.712.367l-.045-.075c.015-.082.262-.247.735-.375.915-.262 1.77-.311 2.643-.315Zm.03-.345c.72 0 1.44.062 2.15.188l-.05.086a11.221 11.221 0 0 0-2.1-.184c-.907 0-1.87.068-2.748.323-.282.082-.773.262-.788.401l-.045-.082c.008-.128.431-.297.814-.405.881-.26 1.849-.323 2.767-.327Z" clip-rule="evenodd"/><path fill="currentColor" fill-rule="evenodd" d="M11.746 10.31a12.258 12.258 0 0 0-2.131-.185c-.918.004-1.885.068-2.764.326a3.812 3.812 0 0 0-.546.195 1.061 1.061 0 0 0-.188.106.282.282 0 0 0-.053.05.085.085 0 0 0-.019.04l.03.056a.15.15 0 0 1 .022-.031.357.357 0 0 1 .065-.058c.053-.038.126-.077.206-.113.16-.073.354-.14.495-.18.879-.256 1.844-.323 2.752-.323.702-.005 1.403.056 2.094.182l.037-.065Zm-2.131-.196v-.012c.721 0 1.44.063 2.15.188.004 0 .007.003.009.007a.011.011 0 0 1 0 .01l-.05.086a.011.011 0 0 1-.011.006 11.207 11.207 0 0 0-2.098-.184c-.907 0-1.87.068-2.746.322-.14.041-.333.107-.492.18a1.24 1.24 0 0 0-.202.11.334.334 0 0 0-.061.054.093.093 0 0 0-.024.048.011.011 0 0 1-.01.01.011.011 0 0 1-.011-.006l-.045-.083a.011.011 0 0 1-.002-.006.103.103 0 0 1 .024-.055.3.3 0 0 1 .057-.055 1.13 1.13 0 0 1 .192-.109c.156-.072.358-.141.55-.196.882-.259 1.85-.323 2.77-.327v.012Zm-.03.333c.683.012 1.351.038 2 .158.004 0 .007.003.009.006a.011.011 0 0 1 0 .01l-.045.083a.011.011 0 0 1-.012.006c-.6-.113-1.244-.15-1.948-.15-.911-.008-1.825.079-2.622.307a3.05 3.05 0 0 0-.432.16c-.07.032-.134.067-.182.102-.05.035-.081.068-.091.098a.011.011 0 0 1-.01.008.011.011 0 0 1-.01-.005l-.045-.075a.011.011 0 0 1-.002-.008c.005-.025.025-.053.058-.082a.798.798 0 0 1 .144-.097 2.49 2.49 0 0 1 .541-.205c.917-.263 1.773-.312 2.647-.316Zm0 .023c-.873.004-1.727.053-2.64.315a2.484 2.484 0 0 0-.537.203.777.777 0 0 0-.14.094.159.159 0 0 0-.05.065l.032.053c.017-.03.05-.06.09-.09.05-.035.114-.07.185-.104.142-.066.31-.125.436-.16.8-.23 1.716-.316 2.628-.309.702 0 1.345.038 1.944.15l.033-.062c-.643-.118-1.304-.144-1.981-.155Z" clip-rule="evenodd"/><path fill="#FF0" fill-rule="evenodd" d="m13.103 10.894-.292.461-.852-.753L9.762 9.12 7.279 7.76l-1.286-.44.274-.51.094-.048.798.198L9.8 8.322l1.523.96 1.279.918.52.6-.018.094Z" clip-rule="evenodd"/><path fill="currentColor" fill-rule="evenodd" d="M6.355 6.751a.011.011 0 0 1 .008 0l.799.198.002.001 2.64 1.361 1.523.96.001.001 1.279.919.002.002.52.6a.012.012 0 0 1 .004.01l-.02.093v.004l-.293.461a.011.011 0 0 1-.008.005c-.003 0-.007 0-.01-.003l-.85-.753-2.196-1.48-2.482-1.36-1.285-.44a.011.011 0 0 1-.006-.015l.274-.51A.011.011 0 0 1 6.26 6.8l.094-.049Zm.007.022-.087.045-.266.496 1.274.434h.001L9.767 9.11l2.198 1.482h.001l.842.746.284-.448.017-.087-.516-.595-1.278-.917-1.522-.96-2.638-1.36-.793-.198Z" clip-rule="evenodd"/><path fill="#FF0" fill-rule="evenodd" d="M5.948 7.332c.225-.15 1.883.585 3.623 1.635 1.728 1.05 3.386 2.234 3.236 2.456l-.049.079-.022.018c.003-.003.03-.037 0-.116-.075-.244-1.253-1.181-3.2-2.359C7.637 7.917 6.054 7.234 5.9 7.43l.05-.098Zm7.215 3.558c.143-.285-1.395-1.443-3.304-2.572C7.91 7.212 6.5 6.559 6.241 6.754l-.053.109c0 .003 0-.008.015-.019.045-.038.124-.038.158-.038.442.008 1.706.59 3.48 1.606.78.45 3.285 2.062 3.273 2.512 0 .037.004.045-.01.068l.063-.098-.004-.004Z" clip-rule="evenodd"/><path fill="currentColor" fill-rule="evenodd" d="M7.42 7.037c.629.277 1.47.717 2.444 1.27.955.565 1.817 1.137 2.423 1.604.303.233.542.44.696.608.077.083.134.157.167.22.03.058.042.109.026.149a.011.011 0 0 1 0 .012l-.063.095v.002a.011.011 0 0 1-.016.003.011.011 0 0 1-.004-.015l.002-.002a.043.043 0 0 0 .008-.021v-.038a.206.206 0 0 0-.025-.093.697.697 0 0 0-.078-.12 2.535 2.535 0 0 0-.29-.298 11.161 11.161 0 0 0-.943-.737 27.727 27.727 0 0 0-1.932-1.255 29.88 29.88 0 0 0-2.239-1.18 8.338 8.338 0 0 0-.758-.313 1.725 1.725 0 0 0-.478-.11.46.46 0 0 0-.073.004.161.161 0 0 0-.077.03.032.032 0 0 0-.01.012l-.001.002v.001l-.002.002-.004.004a.011.011 0 0 1-.013-.002l-.003-.005v-.009l.053-.108c0-.002.002-.003.003-.004.036-.027.09-.038.157-.037.069.001.153.016.253.041.2.051.462.15.777.288Zm5.705 3.899.027-.042a.012.012 0 0 1 0-.01c.016-.03.01-.075-.022-.135a1.088 1.088 0 0 0-.163-.215 5.886 5.886 0 0 0-.694-.605c-.604-.466-1.466-1.038-2.42-1.602-.975-.553-1.814-.992-2.442-1.27a5.341 5.341 0 0 0-.773-.286 1.13 1.13 0 0 0-.248-.04c-.065-.002-.111.009-.14.03l-.029.057a.22.22 0 0 1 .063-.018c.03-.005.06-.005.076-.005.113.002.276.04.485.111.209.072.464.177.76.314a29.9 29.9 0 0 1 2.24 1.181c.391.225 1.213.741 1.935 1.257.362.258.699.516.944.738a2.5 2.5 0 0 1 .293.302.723.723 0 0 1 .08.123.228.228 0 0 1 .028.103v.012ZM5.956 7.339l-.028.056a.28.28 0 0 1 .094-.011c.063.003.146.018.246.045.2.055.472.157.799.301.653.288 1.524.74 2.475 1.305a28.294 28.294 0 0 1 2.302 1.53c.274.207.49.384.641.524.076.07.136.133.18.184a.414.414 0 0 1 .08.127.195.195 0 0 1 .016.075l.036-.059c.007-.01.01-.025.006-.044a.228.228 0 0 0-.031-.07 1.18 1.18 0 0 0-.173-.201 7.267 7.267 0 0 0-.713-.587 31.669 31.669 0 0 0-2.322-1.538 23.278 23.278 0 0 0-2.378-1.267 7.186 7.186 0 0 0-.825-.323 1.577 1.577 0 0 0-.266-.06.42.42 0 0 0-.087-.002.125.125 0 0 0-.052.015Zm-.008-.008-.007-.01a.141.141 0 0 1 .064-.02.442.442 0 0 1 .093.003c.071.008.162.029.27.06.214.065.497.176.827.324.66.297 1.51.743 2.381 1.268a31.71 31.71 0 0 1 2.324 1.54c.306.228.553.43.715.589.08.08.14.149.176.205.018.029.03.055.034.078a.078.078 0 0 1-.01.06l-.048.079a.015.015 0 0 1-.002.003l-.023.018a.011.011 0 0 1-.015 0 .011.011 0 0 1 0-.016l.004-.006a.067.067 0 0 0 .006-.018.154.154 0 0 0-.012-.08v-.001a.394.394 0 0 0-.078-.12 2.15 2.15 0 0 0-.177-.181 8.42 8.42 0 0 0-.64-.523 28.293 28.293 0 0 0-2.3-1.529c-.95-.564-1.82-1.016-2.472-1.303a6.072 6.072 0 0 0-.796-.3 1.13 1.13 0 0 0-.241-.044.26.26 0 0 0-.074.006.072.072 0 0 0-.04.022.011.011 0 0 1-.018-.011l.049-.098.01.005Z" clip-rule="evenodd"/><path fill="#fff" d="M7.225 9.44a2.348 2.348 0 0 0 .7 1.669 2.36 2.36 0 0 0 3.352.008 2.362 2.362 0 0 0 .696-1.672V6.277l-4.748-.008V9.44Z"/><path fill="currentColor" fill-rule="evenodd" d="m7.21 6.255 4.776.008v3.182a2.375 2.375 0 0 1-.7 1.682m-3.372-.008a2.372 2.372 0 0 0 1.682.708 2.39 2.39 0 0 0 1.69-.7m-3.372-.008A2.361 2.361 0 0 1 7.21 9.44V6.255m.028 3.186a2.334 2.334 0 0 0 .696 1.658 2.346 2.346 0 0 0 1.662.7c.626 0 1.227-.249 1.67-.692a2.345 2.345 0 0 0 .692-1.662V6.29l-4.72-.008V9.44Z" clip-rule="evenodd"/><path fill="red" d="M7.313 9.445a2.256 2.256 0 0 0 .671 1.6 2.28 2.28 0 0 0 1.609.672 2.276 2.276 0 0 0 2.275-2.264v-3.08H7.32v3.072h-.008Zm3.647-2.148v1.956l-.004.204a1.328 1.328 0 0 1-.4.96c-.254.255-.6.4-.96.4a1.35 1.35 0 0 1-.956-.408 1.36 1.36 0 0 1-.4-.96V7.29l2.72.008Z"/><path fill="currentColor" fill-rule="evenodd" d="M7.31 6.362h4.569v3.09a2.266 2.266 0 0 1-.671 1.607 2.286 2.286 0 0 1-1.615.667 2.29 2.29 0 0 1-1.615-.675 2.266 2.266 0 0 1-.675-1.607v-.01h.008V6.362Zm.013 3.092a2.247 2.247 0 0 0 .669 1.583c.424.426 1 .667 1.6.67a2.266 2.266 0 0 0 2.267-2.255v-3.07H7.33v3.072h-.008Zm.908-2.176 2.74.008v1.966l-.004.204a1.34 1.34 0 0 1-.403.967 1.37 1.37 0 0 1-.967.403c-.38 0-.714-.161-.963-.41a1.37 1.37 0 0 1-.403-.968v-2.17Zm.02.02v2.15c0 .358.143.7.397.953.246.247.576.405.949.405.357 0 .7-.143.953-.397a1.318 1.318 0 0 0 .397-.953l.004-.204V7.306l-2.7-.008Z" clip-rule="evenodd"/><path fill="#FF0" d="M7.607 7.176c.004-.22.16-.272.16-.272.004 0 .172.056.172.276h-.332"/><path fill="#FF0" d="m7.471 6.908-.028.252h.168c0-.208.16-.24.16-.24.004 0 .16.044.164.24h.168l-.032-.256h-.6v.004Zm-.04.256h.68c.012 0 .024.012.024.028 0 .02-.012.032-.024.032h-.68c-.012 0-.024-.012-.024-.032 0-.016.012-.028.028-.028h-.004Z"/><path fill="currentColor" fill-rule="evenodd" d="M7.461 6.895h.62l.032.26c.018 0 .032.018.032.038 0 .023-.014.042-.034.042h-.68c-.019 0-.034-.019-.034-.042 0-.02.015-.036.034-.038h.003l.027-.247v-.013Zm.02.02-.026.236h.147a.25.25 0 0 1 .083-.196.22.22 0 0 1 .071-.04h-.275Zm.29.006v-.006.006Zm.015-.006a.245.245 0 0 1 .074.045c.04.036.08.095.085.19h.147l-.03-.235h-.276Zm.14.24a.242.242 0 0 0-.08-.18.225.225 0 0 0-.074-.044.137.137 0 0 0-.022.007.2.2 0 0 0-.052.032c-.037.032-.075.087-.076.185h.303Zm-.49.02a.017.017 0 0 0-.019.018c0 .016.01.022.014.022h.68c.005 0 .014-.006.014-.022 0-.012-.008-.018-.014-.018h-.676Z" clip-rule="evenodd"/><path fill="#FF0" d="M7.68 7.16c0-.131.092-.167.092-.167s.092.04.092.168H7.68Zm-.232-.36H8.1c.012 0 .024.017.024.033a.026.026 0 0 1-.024.024h-.652c-.012 0-.024-.012-.024-.028 0-.012.012-.024.024-.024V6.8Zm.016.06h.616c.012 0 .024.013.024.029s-.012.028-.024.028h-.62c-.016 0-.024-.012-.024-.028s.008-.028.024-.028h.004Zm.2-.423h.048v.032h.036v-.032H7.8v.036h.036v-.04h.048v.08c0 .016-.008.024-.02.024h-.176c-.012 0-.024-.008-.024-.02v-.08Zm.184.108.012.256h-.172l.012-.26h.148"/><path fill="currentColor" fill-rule="evenodd" d="M7.825 6.423h.068v.09c0 .01-.002.018-.008.024a.028.028 0 0 1-.022.01h-.006l.012.244h.23c.01 0 .02.007.025.014a.05.05 0 0 1 .01.028.03.03 0 0 1-.011.023.036.036 0 0 1-.017.01.04.04 0 0 1 .007.023c0 .02-.015.038-.034.038h-.62a.032.032 0 0 1-.026-.012.042.042 0 0 1-.008-.026c0-.01.002-.019.008-.026a.04.04 0 0 1-.02-.034c0-.01.005-.018.01-.024a.037.037 0 0 1 .014-.008V6.79h.24l.012-.244h-.002a.037.037 0 0 1-.023-.008.028.028 0 0 1-.01-.022v-.09h.067v.032h.016v-.032h.072v.036h.016v-.04Zm-.116.128-.011.24h.15l-.01-.24h-.13Zm-.252.26v.004h-.01a.014.014 0 0 0-.01.004.014.014 0 0 0-.004.01c0 .011.009.018.014.018H8.1a.014.014 0 0 0 .01-.005.014.014 0 0 0 .004-.01.028.028 0 0 0-.005-.015c-.004-.005-.007-.006-.009-.006h-.642Zm.388-.368v.04H7.79v-.036h-.032v.032h-.056v-.032h-.028v.07c0 .002.001.004.004.006a.017.017 0 0 0 .01.004h.176c.004 0 .006-.001.007-.003.001-.001.003-.005.003-.011v-.07h-.028Zm-.396.432a.022.022 0 0 0-.004.014c0 .006.002.01.004.014a.013.013 0 0 0 .01.004h.62c.006 0 .014-.007.014-.018 0-.012-.008-.018-.014-.018h-.62a.013.013 0 0 0-.01.004Zm.326.109-.004.009-.004-.01.004-.001.004.002Zm-.004.02a.142.142 0 0 0-.038.03.178.178 0 0 0-.044.117h.164a.18.18 0 0 0-.043-.116.154.154 0 0 0-.04-.031Zm-.004-.02.004.009.004-.01a.035.035 0 0 1 .005.003.174.174 0 0 1 .045.036.203.203 0 0 1 .048.139v.01H7.67v-.01c0-.069.024-.113.049-.14a.162.162 0 0 1 .048-.037h.001Z" clip-rule="evenodd"/><path fill="#FF0" d="M7.64 6.665v.136h-.16v-.136h.16Z"/><path fill="currentColor" fill-rule="evenodd" d="M7.47 6.655h.18v.156h-.18v-.156Zm.02.02v.116h.14v-.116h-.14Z" clip-rule="evenodd"/><path fill="#FF0" d="M7.451 6.562H7.5v.04h.036v-.04h.048v.04h.036v-.04h.048v.08c0 .016-.008.024-.02.024h-.172a.024.024 0 0 1-.024-.024v-.08Z"/><path fill="currentColor" fill-rule="evenodd" d="M7.461 6.57v.07a.014.014 0 0 0 .014.015h.172c.004 0 .006-.001.007-.003.002-.001.003-.005.003-.011v-.07H7.63v.04h-.056v-.04h-.028v.04H7.49v-.04h-.028Zm-.01-.01v-.01h.058v.04h.016v-.04h.068v.04h.016v-.04h.068v.09c0 .01-.002.019-.008.025a.028.028 0 0 1-.022.01h-.172a.034.034 0 0 1-.034-.034v-.08h.01Z" clip-rule="evenodd"/><path fill="currentColor" d="M7.755 6.625c0-.024.036-.024.036 0v.064h-.036v-.064Zm-.212.088c0-.024.032-.024.032 0v.048h-.032v-.048Z"/><path fill="#039" d="M9.304 9.097a.332.332 0 0 0 .184.298.288.288 0 0 0 .116.026c.084 0 .16-.04.212-.096a.332.332 0 0 0 .088-.228v-.432h-.6v.432Z"/><path fill="#fff" d="M9.444 8.889a.06.06 0 1 0 0-.12.06.06 0 0 0 0 .12Zm.332 0a.06.06 0 1 0 0-.12.06.06 0 0 0 0 .12Zm-.168.16a.06.06 0 1 0 0-.12.06.06 0 0 0 0 .12Zm-.164.169a.06.06 0 1 0 0-.12.06.06 0 0 0 0 .12Zm.332 0a.06.06 0 1 0 0-.12.06.06 0 0 0 0 .12Z"/></g><defs><clipPath id="a"><path fill="#fff" d="M0 0h24v18H0z"/></clipPath></defs></svg>