<svg xmlns="http://www.w3.org/2000/svg" width="24" height="18" fill="none"><g fill-rule="evenodd" clip-path="url(#a)" clip-rule="evenodd"><path fill="#4AADD6" d="M-3.866 0H27.87v18H-3.866V0Z"/><path fill="#FFDE00" d="M15.221 8.704a4.7 4.7 0 0 1-.347 1.908 4.86 4.86 0 0 1-1.095 1.627 5.11 5.11 0 0 1-1.67 1.092 5.293 5.293 0 0 1-3.964 0 5.11 5.11 0 0 1-1.67-1.091 4.861 4.861 0 0 1-1.095-1.628 4.693 4.693 0 0 1-.347-1.908c-.019-.651.1-1.3.347-1.907A4.86 4.86 0 0 1 6.475 5.17a5.11 5.11 0 0 1 1.67-1.091 5.293 5.293 0 0 1 3.964 0 5.11 5.11 0 0 1 1.67 1.091 4.86 4.86 0 0 1 1.095 1.628 4.68 4.68 0 0 1 .347 1.907Z"/></g><defs><clipPath id="a"><path fill="#fff" d="M0 0h24v18H0z"/></clipPath></defs></svg>