<svg xmlns="http://www.w3.org/2000/svg" width="24" height="18" fill="none"><g clip-path="url(#a)"><path fill="#0038A8" d="M0 11.99h24V18H0v-6.01Z"/><path fill="#fff" d="M0 6h24v6H0V6Z"/><path fill="#D52B1E" d="M0 0h24v6H0V0Z"/><path fill="currentColor" fill-rule="evenodd" d="M11.998 6.729a2.272 2.272 0 1 0 0 4.544 2.272 2.272 0 0 0 0-4.544ZM9.666 9a2.332 2.332 0 1 1 4.664 0 2.332 2.332 0 0 1-4.664 0Z" clip-rule="evenodd"/><path fill="currentColor" fill-rule="evenodd" d="M11.998 7.121a1.88 1.88 0 1 0 0 3.758 1.88 1.88 0 0 0 0-3.758Zm-1.906 1.88a1.906 1.906 0 1 1 3.813 0 1.906 1.906 0 0 1-3.813 0Z" clip-rule="evenodd"/><path fill="currentColor" fill-rule="evenodd" d="M11.998 7.562a1.44 1.44 0 1 0 0 2.88 1.44 1.44 0 0 0 0-2.88Zm-1.461 1.44a1.462 1.462 0 1 1 2.923 0 1.462 1.462 0 0 1-2.923 0Z" clip-rule="evenodd"/><path fill="currentColor" d="m10.774 9.888-.267.158-.082-.139a.234.234 0 0 1-.027-.06.076.076 0 0 1 .004-.049.09.09 0 0 1 .038-.037.086.086 0 0 1 .041-.011.083.083 0 0 1 .041.007l.03.023v-.05l.011-.018.057-.086.052.094-.052.09-.011.03.003.022.004.008.113-.064.045.082Zm-.207.012-.022-.038-.015-.019a.026.026 0 0 0-.019-.007.03.03 0 0 0-.019.004l-.015.022c0 .008.004.019.015.034l.019.037.056-.033Zm-.251-.207-.083-.243.064-.023.049.154.049-.015-.049-.143.06-.018.049.138.056-.018-.052-.158.067-.019.082.248-.292.097Zm-.109-.363-.015-.158c-.007-.037 0-.06.015-.079.015-.022.038-.033.068-.037.03 0 .056.004.075.022.018.015.03.045.037.083l.004.052.113-.015.014.098-.31.034Zm.124-.113-.004-.022a.05.05 0 0 0-.015-.038.03.03 0 0 0-.026-.008.038.038 0 0 0-.023.016c-.007.003-.007.018-.007.037l.004.026.071-.01Zm-.131-.469.011-.097.18.022a.158.158 0 0 1 .053.015c.014.008.03.015.037.03.015.012.019.027.023.038a.15.15 0 0 1 .003.071l-.007.049a.105.105 0 0 1-.019.041.112.112 0 0 1-.067.049h-.053l-.184-.019.011-.094.188.02c.015 0 .03 0 .038-.008.014-.008.018-.023.022-.038a.052.052 0 0 0-.011-.037c-.008-.015-.023-.02-.038-.023l-.187-.019Zm.037-.225.064-.172c.008-.03.022-.049.041-.056a.075.075 0 0 1 .06-.008c.019.008.03.019.038.034a.063.063 0 0 1 .011.037.097.097 0 0 1 .041-.037.075.075 0 0 1 .053 0 .082.082 0 0 1 .056.067v.038l-.011.037-.056.158-.297-.098Zm.15-.052.015-.041c0-.015.004-.027 0-.03 0-.008-.007-.015-.015-.02a.026.026 0 0 0-.022 0 .065.065 0 0 0-.019.03l-.015.038.056.023Zm.113.037.018-.045c.004-.015.008-.026 0-.037a.03.03 0 0 0-.014-.015.026.026 0 0 0-.027 0l-.018.034-.015.045.056.018Zm-.113-.36.049-.082.203.12.075-.128.067.038-.128.21-.266-.158Zm.188-.285.06-.075.24.2-.06.074-.24-.199Zm.416-.16.082-.038c.012.022.015.045.02.063a.115.115 0 0 1-.012.057.169.169 0 0 1-.045.056.15.15 0 0 1-.075.041.131.131 0 0 1-.075 0 .176.176 0 0 1-.075-.06c-.037-.037-.053-.075-.049-.116a.16.16 0 0 1 .06-.109.158.158 0 0 1 .087-.037.126.126 0 0 1 .086.018l-.053.072a.07.07 0 0 0-.022-.012.056.056 0 0 0-.027 0 .057.057 0 0 0-.022.015.056.056 0 0 0-.023.053c0 .015.015.034.03.052.023.027.042.042.06.045.015 0 .03 0 .045-.015.015-.01.023-.022.023-.037a.091.091 0 0 0-.015-.049Zm.33-.12-.094.052.011.052-.086.045-.045-.326.094-.049.247.218-.09.048-.037-.04Zm-.049-.05-.082-.082.022.112.06-.03Zm.293-.318.142-.023a.172.172 0 0 1 .068 0 .079.079 0 0 1 .048.026c.012.015.027.027.034.045a.139.139 0 0 1 .015.057c.008.033.008.06.004.075a.127.127 0 0 1-.06.086.225.225 0 0 1-.056.019l-.139.022-.056-.307Zm.109.052.03.169.022-.004c.019-.004.034-.007.037-.015.012-.004.015-.015.02-.026v-.053a.125.125 0 0 0-.03-.063c-.012-.012-.03-.015-.057-.012l-.022.004Zm.292-.105.255.011v.068l-.161-.008-.004.05.15.007-.004.063-.15-.007v.06l.165.007-.004.072-.262-.012.015-.31Zm.375.03.09.023-.056.225.15.037-.023.075-.236-.06.075-.3Zm.495.165.139.083c.03.015.049.037.052.06.008.022 0 .048-.011.075a.095.095 0 0 1-.064.048.12.12 0 0 1-.086-.022l-.045-.026-.06.097-.082-.049.157-.266Zm.015.165.022.011.038.012a.03.03 0 0 0 .023-.015.037.037 0 0 0 0-.027c0-.01-.008-.018-.023-.03l-.022-.01-.038.06Zm.27.36-.079-.075-.045.026-.075-.063.3-.15.075.075-.127.303-.075-.067.026-.049Zm.03-.064.053-.105-.102.06.049.045Zm.037.207.26-.177.085.132.038.063-.004.045a.085.085 0 0 1-.037.042.054.054 0 0 1-.038.015.086.086 0 0 1-.045-.008c-.007 0-.018-.011-.03-.019l.008.027-.008.022a.113.113 0 0 1-.007.023l-.049.086-.06-.086.049-.098.011-.026a.037.037 0 0 0-.008-.026l-.003-.008-.105.075-.056-.082Zm.207-.023.026.034.015.015c.008.007.011.007.019.007a.03.03 0 0 0 .018-.003.03.03 0 0 0 .012-.023c0-.007 0-.019-.011-.034l-.027-.033-.052.037Zm.097.465-.037-.105-.056.008-.038-.094.334-.004.037.098-.243.225-.038-.098.041-.03Zm.056-.045.09-.075-.116.011.027.064Zm.08.338.063-.008.022.146-.13.02a.3.3 0 0 1-.05-.068.256.256 0 0 1-.022-.075.189.189 0 0 1 .004-.094.15.15 0 0 1 .048-.06.184.184 0 0 1 .083-.034.187.187 0 0 1 .09.008c.026.01.048.028.064.052a.237.237 0 0 1 .03.083v.075a.1.1 0 0 1-.023.048c-.011.015-.026.023-.045.034l-.03-.09a.05.05 0 0 0 .027-.022c.007-.012.003-.023 0-.038a.065.065 0 0 0-.027-.045c-.015-.011-.037-.015-.075-.007a.113.113 0 0 0-.063.026c-.015.015-.02.037-.015.056 0 .011.003.023.01.03l.02.03h.03l-.012-.067Zm.202.45-.008.097-.187-.015a.158.158 0 0 1-.049-.015.113.113 0 0 1-.037-.03.113.113 0 0 1-.023-.041.19.19 0 0 1-.008-.068l.008-.048.019-.045a.114.114 0 0 1 .03-.03.098.098 0 0 1 .037-.015.184.184 0 0 1 .053-.008l.187.019-.011.094-.188-.015c-.018 0-.033 0-.04.01a.052.052 0 0 0-.02.038c0 .015 0 .03.012.038.007.011.018.019.037.019l.188.015Zm-.341.33.033-.105-.045-.03.03-.094.263.21-.038.097-.33.015.034-.093h.053Zm.07 0 .113.003-.094-.067-.018.064Zm.113.255-.056.09h-.124l.056.108-.052.09-.094-.195-.112-.067.052-.083.113.068.217-.011Z"/><path fill="#009B3A" d="M12.304 7.925s.877.379.723 1.159c-.15.78-.637.772-.832.862-.188.082-.323.206-.398.188-.075-.016-.176-.075-.176-.075s-.007.13.146.15c.154.026.357-.2.45-.225.098-.023.694-.09.84-.882.17-.847-.75-1.151-.75-1.177h-.003Z"/><path fill="currentColor" fill-rule="evenodd" d="M12.303 7.925v-.003h.006v.002l.005.002a1.12 1.12 0 0 1 .11.059l.025.013c.084.045.193.112.298.205.209.186.397.474.312.899-.073.396-.259.61-.439.73-.158.104-.31.134-.379.148a.823.823 0 0 0-.023.004.334.334 0 0 0-.088.05l-.046.033-.068.05a.73.73 0 0 1-.126.072.223.223 0 0 1-.123.02c-.077-.01-.114-.047-.132-.083a.158.158 0 0 1-.016-.067v-.001h.002l.001-.002h.001l.004.003.012.007.043.022a.53.53 0 0 0 .116.043c.018.004.04 0 .066-.01a.67.67 0 0 0 .128-.07c.059-.034.126-.074.202-.108.034-.015.076-.028.124-.042a3.7 3.7 0 0 0 .068-.02.988.988 0 0 0 .24-.11c.165-.107.325-.3.4-.689.076-.389-.104-.678-.304-.87a1.6 1.6 0 0 0-.365-.257l-.011-.006a.59.59 0 0 1-.037-.02l-.001-.001-.003-.001-.002-.001v-.002.001Zm.188.1c.071.047.154.108.233.184.2.193.382.483.305.874-.075.39-.235.584-.4.691a.99.99 0 0 1-.242.11 3.526 3.526 0 0 1-.068.02.98.98 0 0 0-.123.043 1.807 1.807 0 0 0-.202.108l-.04.023a.69.69 0 0 1-.089.046.116.116 0 0 1-.068.01m.694-2.108c.076.044.167.103.253.18.209.185.396.472.312.895-.074.395-.259.61-.438.728a1.018 1.018 0 0 1-.401.152.337.337 0 0 0-.089.05 3.71 3.71 0 0 0-.114.082.737.737 0 0 1-.125.072.22.22 0 0 1-.121.02c-.077-.009-.113-.046-.13-.08a.15.15 0 0 1-.015-.062v-.002m-.002-.004.001-.001-.003-.002v.003h.002Z" clip-rule="evenodd"/><path fill="#009B3A" d="M12.746 8.094a.179.179 0 0 1 0 .049c-.002.012-.006.018-.012.018s-.013-.006-.021-.018a.464.464 0 0 1-.05-.16.136.136 0 0 1 .002-.04c.003-.01.006-.014.012-.014.005 0 .011.005.018.014a.447.447 0 0 1 .05.15Z"/><path fill="currentColor" fill-rule="evenodd" d="M12.672 7.932a.024.024 0 0 0-.004.01.134.134 0 0 0-.002.04.379.379 0 0 0 .026.11.28.28 0 0 0 .034.062c.004.003.007.004.01.004.001 0 .003 0 .005-.004a.035.035 0 0 0 .005-.013.183.183 0 0 0-.001-.048.426.426 0 0 0-.05-.15.053.053 0 0 0-.01-.01c-.003-.003-.005-.003-.008-.003-.002 0-.003 0-.005.002Zm-.003-.002a.01.01 0 0 1 .008-.004c.004 0 .007.001.01.004a.055.055 0 0 1 .01.01c.007.01.015.024.022.04a.452.452 0 0 1 .03.112.187.187 0 0 1 0 .05.04.04 0 0 1-.005.014c-.002.004-.005.006-.009.006-.003 0-.007-.002-.01-.005a.067.067 0 0 1-.013-.014.468.468 0 0 1-.05-.161.136.136 0 0 1 .002-.04.03.03 0 0 1 .005-.012Z" clip-rule="evenodd"/><path fill="#009B3A" d="M12.716 8.101a.567.567 0 0 1 .033.085.108.108 0 0 1 .004.029c0 .007-.002.011-.005.012-.004.001-.009 0-.015-.005a.371.371 0 0 1-.07-.102.464.464 0 0 1-.033-.086c-.006-.023-.005-.038.002-.04.007-.003.02.007.035.027.016.02.034.049.049.08Zm-.086.056c.027.01.052.02.07.03.017.012.026.022.025.03 0 .007-.012.01-.03.011a.291.291 0 0 1-.142-.041c-.018-.011-.027-.021-.026-.029 0-.007.012-.011.03-.012.02 0 .045.004.073.011Z"/><path fill="currentColor" fill-rule="evenodd" d="M12.637 7.995h-.005s-.002 0-.003.002a.02.02 0 0 0-.001.008c0 .007.001.016.004.028a.455.455 0 0 0 .057.129.41.41 0 0 0 .02.029.078.078 0 0 1 .011.01.023.023 0 0 1 .007.012.078.078 0 0 0 .007.006.03.03 0 0 0 .008.005h.005a.005.005 0 0 0 .003-.003.02.02 0 0 0 .001-.007.105.105 0 0 0-.004-.028.563.563 0 0 0-.082-.165.13.13 0 0 0-.02-.022.033.033 0 0 0-.008-.004Zm.09.222a.126.126 0 0 0 .005.005.035.035 0 0 0 .009.005.011.011 0 0 0 .007 0 .01.01 0 0 0 .005-.004.028.028 0 0 0 .002-.01.115.115 0 0 0-.004-.028.356.356 0 0 0-.033-.086.486.486 0 0 0-.05-.08.136.136 0 0 0-.02-.023.035.035 0 0 0-.01-.005.011.011 0 0 0-.007 0 .01.01 0 0 0-.005.005.026.026 0 0 0-.002.009c0 .007.001.017.004.029a.459.459 0 0 0 .072.151.336.336 0 0 0-.07-.03v.001-.002a.295.295 0 0 0-.072-.01.068.068 0 0 0-.023.003c-.006.002-.01.005-.01.01 0 .004.002.01.006.014a.1.1 0 0 0 .02.016.294.294 0 0 0 .143.042c.01 0 .017-.001.023-.003a.018.018 0 0 0 .01-.009Zm-.021-.024.005.007.012.014v.001c0 .003-.002.005-.007.007a.065.065 0 0 1-.022.003.29.29 0 0 1-.14-.041.093.093 0 0 1-.02-.015c-.004-.005-.006-.009-.005-.012 0-.002.002-.005.007-.007a.065.065 0 0 1 .022-.003.291.291 0 0 1 .148.046Z" clip-rule="evenodd"/><path fill="#009B3A" d="M12.641 8.126c.029.02.055.04.072.059.018.018.026.032.023.038-.004.007-.018.005-.041-.004a.459.459 0 0 1-.12-.074.376.376 0 0 1-.032-.028c-.018-.018-.026-.032-.023-.039.004-.006.019-.005.041.004a.459.459 0 0 1 .08.044Z"/><path fill="currentColor" fill-rule="evenodd" d="M12.525 8.078c-.002 0-.002 0-.003.002v.005a.03.03 0 0 0 .003.008.361.361 0 0 0 .09.081c.03.02.058.035.08.044.012.005.02.007.028.008h.007c.002 0 .003-.002.004-.003v-.005a.03.03 0 0 0-.003-.008.126.126 0 0 0-.019-.023.476.476 0 0 0-.179-.11h-.008Zm.009-.005.028.008c.023.01.052.025.08.045.029.019.055.04.073.058l.02.024a.035.035 0 0 1 .003.01.01.01 0 0 1 0 .007.009.009 0 0 1-.006.004h-.01a.11.11 0 0 1-.028-.007.456.456 0 0 1-.12-.074.373.373 0 0 1-.052-.053.035.035 0 0 1-.004-.01.01.01 0 0 1 0-.007.01.01 0 0 1 .006-.004h.01Z" clip-rule="evenodd"/><path fill="#009B3A" d="M12.68 8.112a.457.457 0 0 1 .055.07c.013.02.017.034.012.04-.005.004-.019 0-.039-.014a.452.452 0 0 1-.122-.127c-.013-.02-.017-.035-.012-.04.005-.005.019 0 .038.013.02.014.044.034.067.058Z"/><path fill="currentColor" fill-rule="evenodd" d="m12.58 8.04-.005.001-.001.004v.008a.116.116 0 0 0 .013.026.45.45 0 0 0 .147.14.024.024 0 0 0 .008.001l.004-.001.001-.004-.001-.008a.116.116 0 0 0-.013-.025.45.45 0 0 0-.146-.14.024.024 0 0 0-.008-.002Zm.008-.002a.115.115 0 0 1 .025.014.45.45 0 0 1 .136.154.03.03 0 0 1 .002.009.01.01 0 0 1-.003.007.01.01 0 0 1-.006.002c-.003 0-.006 0-.01-.002a.116.116 0 0 1-.025-.013.449.449 0 0 1-.136-.154.03.03 0 0 1-.001-.01c0-.002 0-.005.002-.006a.01.01 0 0 1 .007-.003.02.02 0 0 1 .01.002Z" clip-rule="evenodd"/><path fill="#009B3A" d="m12.738 8.221-.037.023c-.011 0-.023-.012-.045 0a.09.09 0 0 0-.042.045c-.003.01.008.018.034.003.027-.01.034-.033.045-.04l.049-.027.03-.049c.011-.015.045-.037.06-.067.011-.023.007-.042-.008-.034a.112.112 0 0 0-.044.049c-.008.015 0 .037-.012.052l-.03.045Zm.274.09a.68.68 0 0 1-.01.136c-.007.036-.017.054-.028.051-.01-.002-.022-.025-.03-.064a.757.757 0 0 1-.005-.278c.007-.035.018-.053.028-.05.011.002.022.025.03.063.009.039.014.09.015.142Z"/><path fill="currentColor" fill-rule="evenodd" d="M12.84 8.08a.048.048 0 0 1-.005.029.153.153 0 0 1-.032.04.608.608 0 0 1-.01.01l-.007.005a.104.104 0 0 0-.012.012l-.03.05-.049.026a.037.037 0 0 0-.008.007c0 .002-.002.003-.003.005a.119.119 0 0 1-.005.007.075.075 0 0 1-.029.022c-.013.008-.023.01-.03.008a.01.01 0 0 1-.006-.005.012.012 0 0 1 0-.009.09.09 0 0 1 .042-.046.04.04 0 0 1 .028-.004l.008.002a.062.062 0 0 0 .01.002l.036-.022.03-.045a.042.042 0 0 0 .006-.025v-.003l.001-.011c0-.005.002-.009.004-.013m-.04.098.001.002-.024.015.026-.014.02-.034-.021.032h-.002Zm.035-.049a.141.141 0 0 1 .01-.01l.006-.006.01-.01a.152.152 0 0 0 .031-.038.045.045 0 0 0 .006-.027c0-.003-.002-.005-.003-.005h-.008a.11.11 0 0 0-.044.049.034.034 0 0 0-.003.011.12.12 0 0 0 0 .011l-.001.003a.058.058 0 0 1-.004.022Zm-.073.074-.008-.002h-.002a.085.085 0 0 0-.008-.003.037.037 0 0 0-.025.004.086.086 0 0 0-.04.044c-.002.003-.002.005 0 .006 0 .002.001.003.003.004.005 0 .014 0 .027-.008a.072.072 0 0 0 .028-.022l.004-.005.001-.001a.134.134 0 0 1 .004-.005.04.04 0 0 1 .008-.008l.008-.004Zm.253-.128a.148.148 0 0 0-.012.039.77.77 0 0 0 .005.277.16.16 0 0 0 .014.045c.002.006.005.01.007.013a.014.014 0 0 0 .007.005c.002 0 .005 0 .007-.002a.027.027 0 0 0 .007-.009.144.144 0 0 0 .012-.039.77.77 0 0 0-.005-.277.219.219 0 0 0-.013-.045.053.053 0 0 0-.008-.013.014.014 0 0 0-.007-.005c-.002 0-.004 0-.007.002a.027.027 0 0 0-.007.009Zm.005-.012a.011.011 0 0 1 .01-.003.018.018 0 0 1 .009.007.06.06 0 0 1 .008.013c.005.011.01.027.014.046a.762.762 0 0 1 .005.279.146.146 0 0 1-.013.04.031.031 0 0 1-.008.01.011.011 0 0 1-.01.002.018.018 0 0 1-.009-.006.06.06 0 0 1-.008-.013.225.225 0 0 1-.014-.046.779.779 0 0 1-.005-.28.146.146 0 0 1 .013-.04.031.031 0 0 1 .008-.01Z" clip-rule="evenodd"/><path fill="#009B3A" d="M12.968 8.306a.747.747 0 0 1 .018.142c0 .037-.006.059-.017.06-.01 0-.026-.02-.041-.058a.811.811 0 0 1-.06-.273.15.15 0 0 1 .005-.04c.003-.01.007-.015.012-.015s.011.005.018.014a.593.593 0 0 1 .061.174l.004-.004Z"/><path fill="currentColor" fill-rule="evenodd" d="M12.88 8.128a.029.029 0 0 0-.006.01.149.149 0 0 0-.004.04.862.862 0 0 0 .059.272.22.22 0 0 0 .023.042.05.05 0 0 0 .01.011.01.01 0 0 0 .007.003l.006-.003a.034.034 0 0 0 .005-.011.165.165 0 0 0 .004-.044.742.742 0 0 0-.017-.137l-.004.004V8.31a.908.908 0 0 0-.04-.132.212.212 0 0 0-.022-.04.049.049 0 0 0-.009-.01c-.003-.003-.005-.004-.007-.004s-.004 0-.006.003Zm-.004-.003a.01.01 0 0 1 .009-.004c.003 0 .006.002.01.004a.054.054 0 0 1 .01.011.22.22 0 0 1 .021.041.624.624 0 0 1 .04.13l.003-.004v.004a.742.742 0 0 1 .019.141.167.167 0 0 1-.005.045.035.035 0 0 1-.005.012.011.011 0 0 1-.009.005.016.016 0 0 1-.01-.004.055.055 0 0 1-.01-.011.224.224 0 0 1-.023-.043.808.808 0 0 1-.06-.274.15.15 0 0 1 .005-.041.03.03 0 0 1 .005-.012Z" clip-rule="evenodd"/><path fill="#009B3A" d="M12.825 8.353a.74.74 0 0 1 .1.082.196.196 0 0 1 .027.035c.005.01.008.018.006.023-.002.005-.007.008-.016.008a.112.112 0 0 1-.036-.008.677.677 0 0 1-.207-.14.196.196 0 0 1-.028-.034c-.005-.01-.008-.018-.006-.024.002-.005.007-.008.016-.008.01 0 .022.003.036.008a.675.675 0 0 1 .107.058Z"/><path fill="currentColor" fill-rule="evenodd" d="M12.717 8.296a.111.111 0 0 0-.035-.008c-.009 0-.013.003-.015.007v.009a.057.057 0 0 0 .006.013.497.497 0 0 0 .127.116.672.672 0 0 0 .107.057.111.111 0 0 0 .035.008c.009 0 .013-.002.014-.007v-.009a.057.057 0 0 0-.005-.012.497.497 0 0 0-.127-.116.672.672 0 0 0-.107-.058Zm-.035-.012c.009 0 .021.003.036.008a.682.682 0 0 1 .208.14.197.197 0 0 1 .028.036.06.06 0 0 1 .006.013.02.02 0 0 1 0 .011c-.002.007-.009.01-.018.01a.114.114 0 0 1-.037-.008.679.679 0 0 1-.208-.14.202.202 0 0 1-.027-.035.06.06 0 0 1-.006-.014.02.02 0 0 1 0-.011c.002-.007.008-.01.018-.01Z" clip-rule="evenodd"/><path fill="#009B3A" d="M12.855 8.31c.033.04.062.082.08.116.019.034.025.058.018.066-.007.008-.026 0-.055-.023a.752.752 0 0 1-.174-.21c-.018-.034-.024-.056-.017-.064.007-.007.027 0 .054.023a.699.699 0 0 1 .094.096V8.31Z"/><path fill="currentColor" fill-rule="evenodd" d="M12.715 8.194c-.003 0-.005 0-.006.002-.002.002-.002.004-.003.007 0 .004 0 .008.002.013a.19.19 0 0 0 .018.041.744.744 0 0 0 .208.233.031.031 0 0 0 .012.003c.003 0 .005 0 .006-.002l.002-.008c0-.004 0-.008-.002-.014a.212.212 0 0 0-.018-.042.768.768 0 0 0-.078-.111v.003l-.003-.004a.698.698 0 0 0-.093-.095.158.158 0 0 0-.034-.023.03.03 0 0 0-.011-.003Zm.138.115v-.004l.003.004a.738.738 0 0 1 .1.159l.002.015a.016.016 0 0 1-.003.01.011.011 0 0 1-.01.004.035.035 0 0 1-.012-.003.166.166 0 0 1-.036-.024.752.752 0 0 1-.174-.211.198.198 0 0 1-.018-.042.046.046 0 0 1-.002-.014c0-.004 0-.007.003-.01a.011.011 0 0 1 .009-.003l.012.004c.01.004.022.012.035.023.027.021.06.054.09.092Z" clip-rule="evenodd"/><path fill="#009B3A" d="M12.911 8.307a.766.766 0 0 1 .056.128c.011.036.012.06.003.064-.008.005-.027-.008-.05-.037a.763.763 0 0 1-.11-.185.585.585 0 0 1-.022-.06c-.011-.037-.013-.06-.004-.065.01-.005.028.009.051.038a.763.763 0 0 1 .076.117Z"/><path fill="currentColor" fill-rule="evenodd" d="M12.792 8.153h-.007c-.002 0-.003.003-.004.006a.04.04 0 0 0-.001.013c0 .01.003.025.009.043a.584.584 0 0 0 .056.128.764.764 0 0 0 .075.117.181.181 0 0 0 .031.03.038.038 0 0 0 .011.007h.007c.002-.001.003-.003.004-.006a.043.043 0 0 0 0-.013.19.19 0 0 0-.008-.043.756.756 0 0 0-.056-.128.756.756 0 0 0-.076-.117.188.188 0 0 0-.03-.031.04.04 0 0 0-.011-.006Zm.013.003c.009.006.02.017.031.032a.767.767 0 0 1 .076.117.766.766 0 0 1 .056.129.195.195 0 0 1 .01.044l-.001.014c-.002.003-.003.006-.006.008a.013.013 0 0 1-.01 0 .043.043 0 0 1-.012-.006.19.19 0 0 1-.032-.032.77.77 0 0 1-.109-.186.587.587 0 0 1-.023-.06.194.194 0 0 1-.009-.044l.001-.014c.001-.004.003-.007.006-.008.003-.002.006-.002.01 0a.041.041 0 0 1 .012.006Z" clip-rule="evenodd"/><path fill="#009B3A" d="m12.96 8.49-.067.015c-.012 0-.023-.026-.057-.019a.143.143 0 0 0-.075.045c-.007.015.004.03.045.023.045-.008.06-.038.083-.038a.243.243 0 0 1 .075-.015.274.274 0 0 1 .056-.06c.019-.018.075-.037.101-.067.027-.03.027-.06 0-.056a.18.18 0 0 0-.075.048c-.018.023-.015.057-.033.075l-.053.05Zm.191.184a.636.636 0 0 1-.033.128c-.013.032-.026.047-.036.042-.01-.005-.016-.03-.017-.068a.765.765 0 0 1 .045-.268.135.135 0 0 1 .019-.035c.006-.007.012-.01.017-.007.004.003.008.01.011.022a.605.605 0 0 1-.006.186Z"/><path fill="currentColor" fill-rule="evenodd" d="M13.143 8.333c0 .012-.007.027-.02.042a.2.2 0 0 1-.054.039l-.009.004a.688.688 0 0 0-.039.025.353.353 0 0 0-.056.06h-.001a.24.24 0 0 0-.074.015h-.001a.031.031 0 0 0-.015.005l-.013.008-.004.003a.119.119 0 0 1-.05.022c-.021.004-.035.002-.043-.003a.015.015 0 0 1-.006-.01.017.017 0 0 1 .002-.012.147.147 0 0 1 .076-.046.046.046 0 0 1 .038.006.157.157 0 0 1 .008.006l.003.003.007.003.067-.015.052-.048a.077.077 0 0 0 .017-.035v-.001c.004-.013.008-.027.017-.039a.182.182 0 0 1 .076-.05c.007 0 .012.001.016.004s.006.008.006.014Zm-.021-.014c.006 0 .01 0 .013.003.003.002.004.006.004.011 0 .01-.006.025-.02.04a.196.196 0 0 1-.052.037l-.009.005-.019.01a.37.37 0 0 0-.076.074.246.246 0 0 0-.075.016.035.035 0 0 0-.016.005l-.013.008-.004.003a.115.115 0 0 1-.049.021c-.02.004-.033.002-.04-.002a.012.012 0 0 1-.005-.008c0-.003 0-.006.002-.01a.144.144 0 0 1 .074-.044.042.042 0 0 1 .035.007l.007.005a.125.125 0 0 0 .004.003c.003.002.006.004.01.004l.068-.015.053-.05a.08.08 0 0 0 .017-.036.096.096 0 0 1 .017-.038.178.178 0 0 1 .074-.049Zm.016.149a.024.024 0 0 0-.008.007.134.134 0 0 0-.019.034.809.809 0 0 0-.045.266c.001.02.003.036.006.047l.005.014a.015.015 0 0 0 .006.006.007.007 0 0 0 .006 0 .023.023 0 0 0 .008-.006.133.133 0 0 0 .02-.035.644.644 0 0 0 .042-.201.577.577 0 0 0-.003-.112.06.06 0 0 0-.006-.014.015.015 0 0 0-.005-.006.007.007 0 0 0-.007 0Zm-.001-.004a.01.01 0 0 1 .01 0 .019.019 0 0 1 .007.009.062.062 0 0 1 .005.014.234.234 0 0 1 .006.048.635.635 0 0 1-.012.14.641.641 0 0 1-.033.128.135.135 0 0 1-.02.035.027.027 0 0 1-.01.008.01.01 0 0 1-.009 0 .019.019 0 0 1-.007-.008.059.059 0 0 1-.005-.015.224.224 0 0 1-.006-.047.76.76 0 0 1 .045-.268.135.135 0 0 1 .02-.036.027.027 0 0 1 .009-.008Z" clip-rule="evenodd"/><path fill="#009B3A" d="M13.11 8.662a.903.903 0 0 1-.006.143.18.18 0 0 1-.012.044c-.004.01-.01.015-.015.014-.005 0-.01-.007-.015-.019a.633.633 0 0 1-.027-.194.904.904 0 0 1 .005-.142.18.18 0 0 1 .011-.044c.005-.01.01-.015.015-.014.005.001.01.007.016.019.005.011.01.027.014.047a.688.688 0 0 1 .013.146Z"/><path fill="currentColor" fill-rule="evenodd" d="M13.06 8.455a.033.033 0 0 0-.006.01.179.179 0 0 0-.011.044.578.578 0 0 0-.006.143.936.936 0 0 0 .013.145.24.24 0 0 0 .014.048c.003.005.005.01.008.012.002.003.005.005.007.005s.004 0 .006-.002a.033.033 0 0 0 .006-.01.178.178 0 0 0 .012-.044.577.577 0 0 0 .005-.143h.002-.002a.936.936 0 0 0-.013-.145.226.226 0 0 0-.014-.048.053.053 0 0 0-.008-.012c-.002-.003-.004-.005-.006-.005s-.004 0-.006.002Zm.052.208a.9.9 0 0 0-.014-.146.239.239 0 0 0-.014-.048.058.058 0 0 0-.008-.014.015.015 0 0 0-.009-.006.012.012 0 0 0-.009.004.037.037 0 0 0-.008.011.182.182 0 0 0-.011.044.586.586 0 0 0-.006.144.943.943 0 0 0 .014.146c.004.02.009.037.014.048.002.006.005.01.008.014a.02.02 0 0 0 .01.006.01.01 0 0 0 .008-.004.035.035 0 0 0 .008-.011.181.181 0 0 0 .011-.044.588.588 0 0 0 .006-.144Z" clip-rule="evenodd"/><path fill="#009B3A" d="M12.963 8.677a.72.72 0 0 1 .106.115.278.278 0 0 1 .03.05c.006.014.007.025.004.03-.003.007-.01.008-.021.005a.162.162 0 0 1-.044-.022.516.516 0 0 1-.112-.103.723.723 0 0 1-.106-.115.273.273 0 0 1-.03-.05c-.005-.014-.007-.024-.004-.03.003-.006.01-.008.022-.005a.185.185 0 0 1 .043.023.516.516 0 0 1 .112.102Z"/><path fill="currentColor" fill-rule="evenodd" d="M12.794 8.554a.009.009 0 0 0-.006.005.019.019 0 0 0-.001.01c0 .006.002.011.005.018a.634.634 0 0 0 .135.164.756.756 0 0 0 .112.103.16.16 0 0 0 .043.022.03.03 0 0 0 .013.001.009.009 0 0 0 .007-.004.02.02 0 0 0 0-.011.075.075 0 0 0-.005-.018.272.272 0 0 0-.03-.05.636.636 0 0 0-.105-.114.721.721 0 0 0-.112-.103.16.16 0 0 0-.043-.022.03.03 0 0 0-.013-.001Zm0-.004.014.001a.166.166 0 0 1 .044.023.521.521 0 0 1 .113.103.725.725 0 0 1 .106.115.279.279 0 0 1 .03.05.074.074 0 0 1 .005.02.024.024 0 0 1-.001.012.012.012 0 0 1-.01.007l-.014-.001a.164.164 0 0 1-.044-.023.52.52 0 0 1-.112-.103.724.724 0 0 1-.107-.115.279.279 0 0 1-.03-.05.083.083 0 0 1-.005-.019l.001-.013a.012.012 0 0 1 .01-.007Z" clip-rule="evenodd"/><path fill="#009B3A" d="M13.001 8.644a.965.965 0 0 1 .058.13c.005.019.009.034.01.046 0 .012-.001.02-.005.023-.004.003-.011.002-.02-.004a.168.168 0 0 1-.03-.03.553.553 0 0 1-.077-.116.965.965 0 0 1-.057-.13.21.21 0 0 1-.01-.046c-.002-.011 0-.019.004-.022.005-.003.011-.002.02.004a.535.535 0 0 1 .069.08l.038.065Z"/><path fill="currentColor" fill-rule="evenodd" d="m12.882 8.494-.006.001-.004.007a.047.047 0 0 0 0 .014c0 .012.004.027.01.045a.6.6 0 0 0 .057.13.925.925 0 0 0 .076.116.167.167 0 0 0 .03.03.031.031 0 0 0 .011.004h.007l.004-.008a.05.05 0 0 0 0-.014.215.215 0 0 0-.01-.045.624.624 0 0 0-.057-.13.888.888 0 0 0-.076-.115.163.163 0 0 0-.03-.03.03.03 0 0 0-.012-.005Zm.001-.003a.02.02 0 0 1 .012.005c.01.006.02.016.032.03a.9.9 0 0 1 .134.247.16.16 0 0 1 .01.046v.015a.015.015 0 0 1-.006.01.011.011 0 0 1-.01 0 .036.036 0 0 1-.011-.005.168.168 0 0 1-.032-.03.542.542 0 0 1-.076-.116.927.927 0 0 1-.058-.13.213.213 0 0 1-.01-.046v-.015c.001-.005.003-.008.006-.01a.012.012 0 0 1 .01-.001Z" clip-rule="evenodd"/><path fill="#009B3A" d="M13.053 8.651a.763.763 0 0 1 .031.134c.004.037.002.06-.008.064-.01.003-.025-.013-.042-.045a.739.739 0 0 1-.073-.202.618.618 0 0 1-.011-.065.205.205 0 0 1-.001-.046c.001-.011.004-.018.01-.02.004-.002.01.002.018.01a.19.19 0 0 1 .026.037.608.608 0 0 1 .054.133h-.004Z"/><path fill="currentColor" fill-rule="evenodd" d="M12.967 8.475c-.003-.002-.005-.002-.007-.001-.002 0-.004.002-.005.005a.041.041 0 0 0-.004.013.201.201 0 0 0 .002.046.592.592 0 0 0 .032.14.741.741 0 0 0 .051.126.175.175 0 0 0 .024.035.037.037 0 0 0 .01.008h.006c.002 0 .004-.002.005-.004a.043.043 0 0 0 .003-.013.19.19 0 0 0 0-.044.762.762 0 0 0-.032-.133V8.65h.003a.947.947 0 0 0-.053-.13.191.191 0 0 0-.025-.037.04.04 0 0 0-.01-.008Zm.09.179a.758.758 0 0 1 .03.132.192.192 0 0 1 .001.045c0 .005-.002.01-.003.013a.013.013 0 0 1-.007.007h-.01a.04.04 0 0 1-.01-.01.186.186 0 0 1-.025-.035.745.745 0 0 1-.072-.202.62.62 0 0 1-.012-.066.203.203 0 0 1-.001-.046c0-.006.002-.011.003-.015a.018.018 0 0 1 .008-.007.02.02 0 0 1 .01.002.043.043 0 0 1 .01.008.192.192 0 0 1 .026.038.614.614 0 0 1 .055.133v.003h-.003Z" clip-rule="evenodd"/><path fill="#009B3A" d="M13.069 8.843h-.064c-.011 0-.019-.03-.052-.03a.124.124 0 0 0-.079.03c-.015.015-.004.03.037.03.042 0 .064-.019.087-.023h.075l.067-.045c.023-.015.079-.022.113-.048.026-.023.034-.053.011-.053a.187.187 0 0 0-.086.034c-.019.015-.023.049-.045.064-.015.007-.06.04-.064.037v.004Zm.094.236a.63.63 0 0 1-.078.103c-.024.024-.041.032-.048.024-.007-.009-.003-.034.01-.07a.742.742 0 0 1 .141-.223c.024-.024.041-.033.048-.024.007.008.003.033-.01.069a.741.741 0 0 1-.063.121Z"/><path fill="currentColor" fill-rule="evenodd" d="M13.264 8.702c.006 0 .01.002.013.006a.017.017 0 0 1 0 .014.073.073 0 0 1-.024.036.208.208 0 0 1-.06.029l-.011.003-.02.007a.107.107 0 0 0-.021.01l-.068.045h-.076a.087.087 0 0 0-.016.005l-.008.003h-.001a.138.138 0 0 1-.087.011.035.035 0 0 1-.015-.006.013.013 0 0 1-.005-.011c0-.005.003-.009.007-.013a.124.124 0 0 1 .08-.03.05.05 0 0 1 .036.015.106.106 0 0 1 .006.006l.004.005c.003.003.005.004.007.004h.062v-.007l.002.003h.002a.321.321 0 0 0 .024-.014l.01-.006a.336.336 0 0 1 .026-.017.076.076 0 0 0 .023-.031l.002-.003a.085.085 0 0 1 .02-.03.19.19 0 0 1 .087-.034Zm-.194.14v.003h-.065c-.004 0-.007-.003-.01-.006a.07.07 0 0 1-.004-.004.189.189 0 0 0-.005-.006.045.045 0 0 0-.034-.014.122.122 0 0 0-.077.03.018.018 0 0 0-.006.009c0 .003 0 .006.003.008a.031.031 0 0 0 .014.006.133.133 0 0 0 .084-.011h.001l.008-.003a.09.09 0 0 1 .018-.006h.075l.067-.044a.62.62 0 0 1 .042-.017l.01-.004a.204.204 0 0 0 .06-.028.07.07 0 0 0 .023-.034v-.01c-.002-.003-.005-.005-.01-.005a.186.186 0 0 0-.086.033c-.008.007-.013.018-.019.029l-.001.002a.079.079 0 0 1-.025.033.334.334 0 0 0-.026.017l-.01.006a.335.335 0 0 1-.027.015Zm.149.048a.126.126 0 0 0-.03.024.741.741 0 0 0-.14.223.224.224 0 0 0-.013.045l-.001.014c0 .004.001.007.003.008a.007.007 0 0 0 .005.003l.01-.003a.126.126 0 0 0 .03-.024.74.74 0 0 0 .14-.223.224.224 0 0 0 .013-.044l.001-.015a.016.016 0 0 0-.003-.008.007.007 0 0 0-.005-.003l-.01.003Zm.01-.006a.01.01 0 0 1 .008.004.02.02 0 0 1 .004.01l-.001.015a.227.227 0 0 1-.013.045.743.743 0 0 1-.142.225.13.13 0 0 1-.03.024.026.026 0 0 1-.012.004.01.01 0 0 1-.008-.004.02.02 0 0 1-.004-.01l.001-.016a.227.227 0 0 1 .013-.045.743.743 0 0 1 .142-.225.13.13 0 0 1 .03-.024.026.026 0 0 1 .011-.003Z" clip-rule="evenodd"/><path fill="#009B3A" d="M13.129 9.05a.707.707 0 0 1-.06.121c-.019.03-.035.044-.044.039-.009-.006-.01-.03-.003-.068a.78.78 0 0 1 .099-.256c.019-.03.035-.044.044-.039.009.006.01.03.003.068a.779.779 0 0 1-.04.134Zm-.139-.046c.019.05.033.1.04.14.007.04.006.066-.003.074-.009.007-.025-.005-.044-.035a.794.794 0 0 1-.1-.262c-.008-.04-.006-.067.003-.074.009-.008.025.005.044.034.02.03.041.074.06.123Z"/><path fill="currentColor" fill-rule="evenodd" d="m12.893 8.848-.006.001a.016.016 0 0 0-.005.008.066.066 0 0 0-.002.016c0 .012 0 .029.004.049a.783.783 0 0 0 .1.261c.01.015.018.025.026.03a.023.023 0 0 0 .01.006c.002 0 .004 0 .006-.002a.011.011 0 0 0 .002-.003.01.01 0 0 1-.004-.002.016.016 0 0 1-.006-.008.056.056 0 0 1-.002-.015.215.215 0 0 1 .008-.066.856.856 0 0 0-.095-.24.129.129 0 0 0-.026-.03.023.023 0 0 0-.01-.005Zm.133.266a.87.87 0 0 0-.094-.233.133.133 0 0 0-.027-.031.027.027 0 0 0-.011-.006c-.004 0-.007 0-.01.002a.021.021 0 0 0-.006.01.07.07 0 0 0-.002.017c0 .012.001.03.005.05a.797.797 0 0 0 .1.262c.01.015.019.026.027.032a.027.027 0 0 0 .01.005c.004 0 .007 0 .01-.002a.018.018 0 0 0 .005-.007.033.033 0 0 0 .012-.007.16.16 0 0 0 .026-.033.781.781 0 0 0 .099-.257.215.215 0 0 0 .004-.046.056.056 0 0 0-.002-.015.016.016 0 0 0-.006-.009.011.011 0 0 0-.01 0 .033.033 0 0 0-.01.007.159.159 0 0 0-.027.033.87.87 0 0 0-.093.229Zm0 .018-.002.011a.216.216 0 0 0-.004.046c0 .006 0 .01.002.013.001.004.002.006.004.007h.004a.065.065 0 0 0 .003-.015.24.24 0 0 0-.007-.062Zm.008.077a.069.069 0 0 0 .002-.015.239.239 0 0 0-.008-.071.83.83 0 0 1 .094-.235.158.158 0 0 1 .026-.033.03.03 0 0 1 .01-.006h.006l.004.007a.05.05 0 0 1 .003.014.768.768 0 0 1-.128.333.035.035 0 0 1-.009.006Z" clip-rule="evenodd"/><path fill="#009B3A" d="M13.035 8.988a.788.788 0 0 1 .001.14c-.003.038-.011.061-.021.064-.01.002-.022-.016-.032-.05a.723.723 0 0 1-.027-.21.588.588 0 0 1 .01-.11c.004-.01.008-.017.013-.018.005-.001.01.002.016.011a.25.25 0 0 1 .016.04.541.541 0 0 1 .024.133Z"/><path fill="currentColor" fill-rule="evenodd" d="M12.986 8.808c-.003-.001-.005-.002-.006-.001-.002 0-.004.002-.006.004a.05.05 0 0 0-.006.013.583.583 0 0 0-.007.184c.005.051.014.1.024.134.005.017.01.03.016.038a.033.033 0 0 0 .007.01h.006c.002 0 .004-.001.006-.004a.047.047 0 0 0 .006-.012.219.219 0 0 0 .008-.045.784.784 0 0 0-.04-.312.03.03 0 0 0-.008-.009Zm.002-.003a.035.035 0 0 1 .008.01.164.164 0 0 1 .017.04.547.547 0 0 1 .023.134.791.791 0 0 1 .002.14.21.21 0 0 1-.008.046.051.051 0 0 1-.007.013.015.015 0 0 1-.008.006.01.01 0 0 1-.009-.002.034.034 0 0 1-.008-.01.163.163 0 0 1-.017-.04.737.737 0 0 1-.027-.209c0-.024 0-.046.002-.065a.22.22 0 0 1 .008-.045.054.054 0 0 1 .007-.014.015.015 0 0 1 .008-.006.01.01 0 0 1 .009.002Z" clip-rule="evenodd"/><path fill="#009B3A" d="M13.088 9.014a.782.782 0 0 1-.024.137c-.01.036-.022.056-.032.056-.01 0-.018-.022-.021-.058a.761.761 0 0 1 .011-.212.594.594 0 0 1 .014-.063.197.197 0 0 1 .017-.042c.005-.01.01-.014.015-.014.01 0 .018.022.022.059a.78.78 0 0 1-.002.137Z"/><path fill="currentColor" fill-rule="evenodd" d="M13.062 8.824a.043.043 0 0 0-.008.01.196.196 0 0 0-.016.041.614.614 0 0 0-.024.137.776.776 0 0 0-.002.137.184.184 0 0 0 .008.042.037.037 0 0 0 .006.011c.002.003.004.004.006.004l.006-.003a.041.041 0 0 0 .008-.01.196.196 0 0 0 .016-.041.786.786 0 0 0 .018-.317.035.035 0 0 0-.006-.01c-.002-.003-.004-.004-.006-.004s-.004 0-.006.003Zm-.003-.003c.003-.002.006-.004.01-.004.003 0 .005.002.008.005a.041.041 0 0 1 .006.012c.004.01.006.025.008.043a.765.765 0 0 1-.002.138.779.779 0 0 1-.024.138.204.204 0 0 1-.016.041.047.047 0 0 1-.008.012c-.003.002-.006.004-.01.004-.003 0-.006-.002-.008-.005a.039.039 0 0 1-.006-.012.184.184 0 0 1-.008-.043.765.765 0 0 1 .011-.213.6.6 0 0 1 .015-.063.198.198 0 0 1 .016-.042.044.044 0 0 1 .008-.01Z" clip-rule="evenodd"/><path fill="#009B3A" d="M13.023 9.199s-.053-.019-.06-.026c-.011-.008-.004-.03-.037-.05a.116.116 0 0 0-.083 0c-.019 0-.015.023.023.038.037.023.067.008.086.015l.067.034c.019-.007.06-.011.083-.015.022-.004.079.015.12 0 .034-.011.049-.037.026-.045a.169.169 0 0 0-.086 0c-.027.004-.042.038-.068.038-.018 0-.071.015-.075.01h.004Zm.034.289a.847.847 0 0 1-.137.104.183.183 0 0 1-.05.021c-.014.003-.022 0-.025-.007-.004-.007-.002-.018.006-.033a.293.293 0 0 1 .036-.053.69.69 0 0 1 .128-.122.881.881 0 0 1 .144-.114.2.2 0 0 1 .055-.024c.014-.003.023 0 .026.007.003.008 0 .02-.008.037a.33.33 0 0 1-.04.057.759.759 0 0 1-.139.127"/><path fill="currentColor" fill-rule="evenodd" d="M12.844 9.123a.118.118 0 0 1 .083 0 .059.059 0 0 1 .03.036h.001l.002.006.005.007.005.003a.383.383 0 0 0 .047.02l.005.002h.002v.001a.515.515 0 0 0 .027-.005h.003a.787.787 0 0 1 .041-.006c.012 0 .022-.008.033-.017l.001-.002c.01-.008.02-.017.033-.019a.17.17 0 0 1 .087 0 .02.02 0 0 1 .012.01c.001.004 0 .01-.002.014a.064.064 0 0 1-.036.025.156.156 0 0 1-.068.004.807.807 0 0 1-.03-.004.088.088 0 0 0-.022 0 .775.775 0 0 1-.043.006.201.201 0 0 0-.04.009l-.068-.034a.041.041 0 0 0-.015-.002h-.02a.094.094 0 0 1-.051-.013c-.02-.008-.03-.017-.034-.025-.001-.005-.002-.009 0-.012.003-.003.007-.004.012-.004Zm.173.076.002.002.002.001h.01a.454.454 0 0 0 .021-.005h.002l.022-.004a.121.121 0 0 1 .02-.003c.013 0 .024-.009.034-.018h.001c.01-.01.02-.018.032-.02a.167.167 0 0 1 .085 0 .017.017 0 0 1 .01.008c0 .003 0 .007-.003.011a.06.06 0 0 1-.033.023.152.152 0 0 1-.066.004.896.896 0 0 1-.016-.002h-.002l-.013-.001a.091.091 0 0 0-.023 0 .796.796 0 0 1-.042.005.213.213 0 0 0-.04.009l-.066-.034a.045.045 0 0 0-.017-.002h-.01a.29.29 0 0 1-.01 0 .09.09 0 0 1-.05-.012c-.018-.008-.028-.017-.031-.024-.002-.003-.001-.006 0-.007.001-.002.004-.003.008-.003a.114.114 0 0 1 .082 0 .055.055 0 0 1 .028.033v.001l.002.005a.02.02 0 0 0 .007.009.403.403 0 0 0 .052.024h.002Zm.215.064a.036.036 0 0 0-.017 0 .199.199 0 0 0-.054.024.85.85 0 0 0-.272.235.293.293 0 0 0-.036.053.08.08 0 0 0-.007.019.02.02 0 0 0 .001.013.01.01 0 0 0 .008.005.035.035 0 0 0 .015 0 .18.18 0 0 0 .05-.02.837.837 0 0 0 .134-.102l-.001-.003a.823.823 0 0 0 .138-.126.329.329 0 0 0 .04-.057.09.09 0 0 0 .008-.021.023.023 0 0 0 0-.014.01.01 0 0 0-.008-.006Zm-.175.225a.824.824 0 0 0 .136-.125.334.334 0 0 0 .042-.058.092.092 0 0 0 .008-.022.026.026 0 0 0 0-.015.015.015 0 0 0-.01-.009.04.04 0 0 0-.019 0 .203.203 0 0 0-.055.024.856.856 0 0 0-.273.236.298.298 0 0 0-.036.054.083.083 0 0 0-.007.02v.015a.014.014 0 0 0 .01.008h.018a.183.183 0 0 0 .05-.021.87.87 0 0 0 .137-.105v-.002Z" clip-rule="evenodd"/><path fill="#009B3A" d="M13.023 9.447a.748.748 0 0 1-.103.11c-.03.026-.052.034-.06.024-.007-.01 0-.037.02-.076a.865.865 0 0 1 .19-.243.16.16 0 0 1 .04-.025c.01-.004.016-.004.02.001s.004.015 0 .028a.25.25 0 0 1-.02.05.673.673 0 0 1-.087.131Z"/><path fill="currentColor" fill-rule="evenodd" d="M13.122 9.235a.03.03 0 0 0-.012.003.159.159 0 0 0-.038.025.938.938 0 0 0-.19.242.255.255 0 0 0-.02.048.065.065 0 0 0-.003.017c0 .004.001.007.003.01l.006.003a.03.03 0 0 0 .013-.003.16.16 0 0 0 .037-.025.747.747 0 0 0 .153-.178.692.692 0 0 0 .038-.064.254.254 0 0 0 .02-.049.061.061 0 0 0 .002-.016.017.017 0 0 0-.002-.01.009.009 0 0 0-.007-.003Zm0-.004c.004 0 .007.002.01.005a.02.02 0 0 1 .003.012c0 .005 0 .01-.003.017a.263.263 0 0 1-.02.05.694.694 0 0 1-.087.133.743.743 0 0 1-.104.11.161.161 0 0 1-.039.025.033.033 0 0 1-.014.003.012.012 0 0 1-.01-.005.02.02 0 0 1-.003-.011l.003-.018a.258.258 0 0 1 .02-.05.865.865 0 0 1 .191-.242.162.162 0 0 1 .04-.026.033.033 0 0 1 .013-.003Z" clip-rule="evenodd"/><path fill="#009B3A" d="M12.889 9.346a.83.83 0 0 1 .008.188.33.33 0 0 1-.012.07c-.005.017-.012.028-.02.031-.007.003-.015-.001-.023-.014a.2.2 0 0 1-.022-.055.868.868 0 0 1-.021-.182.83.83 0 0 1-.009-.188.33.33 0 0 1 .012-.07c.005-.017.012-.028.02-.031.007-.003.015.001.023.013a.2.2 0 0 1 .022.056.868.868 0 0 1 .021.182Z"/><path fill="currentColor" fill-rule="evenodd" d="M12.832 9.096a.01.01 0 0 0-.01 0 .023.023 0 0 0-.01.009.086.086 0 0 0-.008.02.331.331 0 0 0-.012.07.755.755 0 0 0 .008.187.864.864 0 0 0 .022.182.2.2 0 0 0 .021.055c.004.006.008.01.012.012a.01.01 0 0 0 .01.001.023.023 0 0 0 .01-.01.094.094 0 0 0 .008-.02.331.331 0 0 0 .012-.07.737.737 0 0 0-.008-.187h.002-.002a.864.864 0 0 0-.022-.182.2.2 0 0 0-.021-.055.037.037 0 0 0-.012-.012Zm.058.249a.869.869 0 0 0-.021-.183.203.203 0 0 0-.022-.056.04.04 0 0 0-.013-.013.015.015 0 0 0-.013-.001.027.027 0 0 0-.011.011.093.093 0 0 0-.01.022.341.341 0 0 0-.012.07.744.744 0 0 0 .009.188.823.823 0 0 0 .021.182.2.2 0 0 0 .022.056.04.04 0 0 0 .013.013.014.014 0 0 0 .013.002.027.027 0 0 0 .012-.011.097.097 0 0 0 .009-.022.341.341 0 0 0 .012-.07.764.764 0 0 0-.009-.188Z" clip-rule="evenodd"/><path fill="#009B3A" d="M12.94 9.345a.623.623 0 0 1-.038.109c-.013.027-.025.04-.035.04-.01 0-.016-.017-.019-.045a.56.56 0 0 1 .006-.112 1.069 1.069 0 0 1 .045-.195.35.35 0 0 1 .03-.066c.01-.016.018-.024.025-.023.007 0 .013.009.016.025a.284.284 0 0 1 .003.067.837.837 0 0 1-.032.196"/><path fill="currentColor" fill-rule="evenodd" d="M12.944 9.06a.082.082 0 0 0-.013.018.352.352 0 0 0-.029.065.872.872 0 0 0-.045.195.563.563 0 0 0-.006.112.11.11 0 0 0 .007.032c.003.007.006.01.01.01.004.001.009-.001.015-.008a.141.141 0 0 0 .018-.03.616.616 0 0 0 .039-.109h.003a.613.613 0 0 1-.038.11.143.143 0 0 1-.02.031c-.006.007-.012.011-.017.01-.006 0-.01-.005-.014-.013a.115.115 0 0 1-.006-.033.562.562 0 0 1 .005-.112 1.073 1.073 0 0 1 .046-.196.35.35 0 0 1 .03-.066.084.084 0 0 1 .013-.018c.005-.004.009-.006.013-.006.005 0 .008.003.011.007a.066.066 0 0 1 .007.02c.003.015.004.038.003.067a.841.841 0 0 1-.033.196h-.003a1.064 1.064 0 0 0 .032-.196.284.284 0 0 0-.003-.067.053.053 0 0 0-.006-.018c-.002-.004-.005-.005-.008-.005s-.006 0-.01.005Z" clip-rule="evenodd"/><path fill="#009B3A" d="M12.987 9.39a1.113 1.113 0 0 1-.083.19.345.345 0 0 1-.042.06c-.012.013-.022.019-.029.016-.007-.002-.01-.013-.01-.031a.34.34 0 0 1 .012-.072.922.922 0 0 1 .073-.194 1.114 1.114 0 0 1 .083-.19.35.35 0 0 1 .041-.06c.013-.014.023-.02.03-.017.006.003.01.014.01.032a.34.34 0 0 1-.012.071.922.922 0 0 1-.073.194Z"/><path fill="currentColor" fill-rule="evenodd" d="M13.05 9.097a.072.072 0 0 0-.016.014.343.343 0 0 0-.042.06.89.89 0 0 0-.082.19 1.071 1.071 0 0 0-.073.194.331.331 0 0 0-.012.07c0 .01 0 .017.002.022.002.005.004.007.007.008.002.001.006 0 .01-.002a.07.07 0 0 0 .017-.014.343.343 0 0 0 .041-.06.935.935 0 0 0 .083-.19l.002.001h-.002a1.071 1.071 0 0 0 .073-.194.338.338 0 0 0 .011-.071c0-.01 0-.016-.002-.021a.013.013 0 0 0-.006-.009c-.003 0-.006 0-.011.002Zm-.062.294a1.08 1.08 0 0 0 .073-.194.336.336 0 0 0 .012-.072c0-.01 0-.017-.002-.022-.002-.006-.005-.01-.009-.011-.004-.002-.009-.001-.014.002a.073.073 0 0 0-.017.014.347.347 0 0 0-.042.061.947.947 0 0 0-.083.19 1.11 1.11 0 0 0-.073.195.343.343 0 0 0-.012.072c0 .009 0 .016.003.022.001.005.004.01.008.01.004.002.01.001.014-.002a.075.075 0 0 0 .018-.014.348.348 0 0 0 .042-.06.903.903 0 0 0 .082-.191Z" clip-rule="evenodd"/><path fill="#009B3A" d="M12.862 9.574a.598.598 0 0 1-.06-.053c-.007-.011.004-.037-.026-.067a.13.13 0 0 0-.09-.038c-.022.004-.022.026.011.06.038.038.075.03.09.045a.245.245 0 0 1 .064.06l.097.015c.027 0 .083.041.132.041.037 0 .067-.018.045-.037a.198.198 0 0 0-.098-.038c-.03 0-.056.03-.082.023l-.087-.011h.004Zm-.09.273a.68.68 0 0 1-.155.01c-.04-.003-.063-.013-.061-.028.001-.014.026-.032.069-.049a.797.797 0 0 1 .314-.051c.02.001.036.005.046.01.01.004.016.01.015.018 0 .007-.007.015-.019.023a.249.249 0 0 1-.05.026.643.643 0 0 1-.159.041Z"/><path fill="currentColor" fill-rule="evenodd" d="M12.686 9.415c.023 0 .06.008.091.038.016.015.02.03.022.042l.002.011v.005c0 .004.001.007.003.01a.618.618 0 0 0 .06.052l.081.01c.012.004.025 0 .039-.007l.003-.002c.013-.006.026-.013.04-.013a.2.2 0 0 1 .099.038c.006.005.009.01.008.016 0 .005-.003.01-.008.013a.08.08 0 0 1-.046.012.197.197 0 0 1-.075-.02l-.01-.005a.54.54 0 0 0-.022-.01.073.073 0 0 0-.025-.006l-.098-.015v-.001a.3.3 0 0 0-.063-.06h-.001a.035.035 0 0 0-.014-.007.218.218 0 0 0-.01-.003h-.002l-.01-.003a.12.12 0 0 1-.054-.032c-.017-.017-.026-.031-.027-.042-.001-.006 0-.01.003-.014a.022.022 0 0 1 .014-.007Zm.172.159a.627.627 0 0 1-.057-.05v-.001a.026.026 0 0 1-.004-.012v-.005l-.001-.01a.069.069 0 0 0-.021-.04.128.128 0 0 0-.089-.037.016.016 0 0 0-.011.005.02.02 0 0 0-.003.011c.002.01.01.024.026.04a.117.117 0 0 0 .063.034h.002a.189.189 0 0 1 .01.003.309.309 0 0 1 .08.068l.096.015c.007 0 .015.003.025.007.007.002.014.006.022.01a.193.193 0 0 0 .084.025.078.078 0 0 0 .044-.012c.004-.003.006-.007.006-.01 0-.004-.001-.008-.007-.013a.196.196 0 0 0-.096-.037.091.091 0 0 0-.038.012l-.004.002c-.013.006-.027.012-.04.009l-.087-.012v-.002Zm.08.158a.868.868 0 0 0-.313.051.245.245 0 0 0-.05.025.068.068 0 0 0-.012.012.02.02 0 0 0-.006.01c0 .006.004.012.014.017.01.004.026.007.046.01a.938.938 0 0 0 .313-.051.245.245 0 0 0 .05-.027.067.067 0 0 0 .013-.011.02.02 0 0 0 .005-.01c0-.007-.003-.012-.014-.017a.145.145 0 0 0-.045-.01Zm-.07-.004a.5.5 0 0 1 .071 0 .15.15 0 0 1 .047.01c.01.005.017.011.016.02a.024.024 0 0 1-.006.012.073.073 0 0 1-.014.013.248.248 0 0 1-.05.025.638.638 0 0 1-.16.042.68.68 0 0 1-.155.01.15.15 0 0 1-.047-.01c-.011-.005-.017-.012-.016-.02 0-.004.002-.008.006-.012a.074.074 0 0 1 .014-.013.248.248 0 0 1 .05-.026.8.8 0 0 1 .244-.051Z" clip-rule="evenodd"/><path fill="#009B3A" d="M12.769 9.787a.86.86 0 0 1-.161.047c-.044.007-.07.004-.073-.01-.002-.012.02-.034.06-.059a.943.943 0 0 1 .155-.075.888.888 0 0 1 .167-.049c.045-.007.072-.003.075.01.002.013-.02.036-.062.062a.98.98 0 0 1-.161.078"/><path fill="currentColor" fill-rule="evenodd" d="M12.97 9.641a.197.197 0 0 0-.053.003.947.947 0 0 0-.322.123.26.26 0 0 0-.045.035.062.062 0 0 0-.01.013c-.003.004-.003.008-.003.01 0 .003.002.005.005.007a.037.037 0 0 0 .014.004c.012.001.03 0 .051-.003a.858.858 0 0 0 .161-.047l.001.004a.979.979 0 0 0 .16-.078.272.272 0 0 0 .047-.035.062.062 0 0 0 .011-.014c.003-.004.003-.008.003-.01 0-.003-.002-.006-.006-.008a.038.038 0 0 0-.014-.004Zm-.202.15.002.003a.984.984 0 0 0 .161-.079.277.277 0 0 0 .048-.036.065.065 0 0 0 .012-.015.02.02 0 0 0 .002-.012.014.014 0 0 0-.007-.01.042.042 0 0 0-.015-.004.2.2 0 0 0-.054.002.891.891 0 0 0-.168.049.947.947 0 0 0-.156.075.265.265 0 0 0-.046.035.066.066 0 0 0-.01.015.02.02 0 0 0-.004.012c.001.004.004.007.008.01a.041.041 0 0 0 .015.004.26.26 0 0 0 .052-.003.86.86 0 0 0 .16-.047Z" clip-rule="evenodd"/><path fill="#009B3A" d="M12.69 9.615a.653.653 0 0 1-.073.112c-.024.028-.043.042-.056.04-.012-.003-.016-.02-.012-.052a.529.529 0 0 1 .036-.119.96.96 0 0 1 .091-.168.32.32 0 0 1 .045-.052c.013-.012.024-.017.032-.015.008.001.013.01.014.023a.197.197 0 0 1-.008.06.924.924 0 0 1-.07.172Z"/><path fill="currentColor" fill-rule="evenodd" d="M12.74 9.366a.084.084 0 0 0-.018.013.313.313 0 0 0-.044.051.75.75 0 0 0-.091.168.523.523 0 0 0-.036.118.103.103 0 0 0 0 .036c.002.008.005.013.01.014.006 0 .013-.002.023-.009a.18.18 0 0 0 .031-.03.945.945 0 0 0 .143-.283.198.198 0 0 0 .007-.059.04.04 0 0 0-.004-.015.011.011 0 0 0-.008-.007c-.004 0-.008 0-.013.003Zm-.002-.003a.025.025 0 0 1 .016-.003c.004 0 .008.003.01.008.003.004.004.01.005.017a.203.203 0 0 1-.008.06.95.95 0 0 1-.143.285.19.19 0 0 1-.032.03c-.01.007-.018.01-.025.01-.007-.002-.012-.008-.014-.017a.108.108 0 0 1 0-.037.531.531 0 0 1 .036-.12.964.964 0 0 1 .091-.168.317.317 0 0 1 .046-.052.086.086 0 0 1 .018-.013Z" clip-rule="evenodd"/><path fill="#009B3A" d="M12.746 9.647a1.203 1.203 0 0 1-.132.126.275.275 0 0 1-.05.033c-.014.006-.024.007-.03.003-.005-.003-.007-.012-.003-.025a.21.21 0 0 1 .022-.05 1.19 1.19 0 0 1 .238-.27c.04-.03.069-.044.08-.036.012.007.005.035-.019.076a.934.934 0 0 1-.106.143Z"/><path fill="currentColor" fill-rule="evenodd" d="M12.842 9.432a.27.27 0 0 0-.05.032 1 1 0 0 0-.192.202.706.706 0 0 0-.045.067.213.213 0 0 0-.023.05.043.043 0 0 0-.001.016c0 .004.002.006.004.008.002.001.006.002.01.001a.05.05 0 0 0 .018-.005.272.272 0 0 0 .05-.032.803.803 0 0 0 .131-.127.927.927 0 0 0 .107-.142.21.21 0 0 0 .022-.05.04.04 0 0 0 .001-.016c0-.004-.002-.006-.004-.008-.002-.001-.006-.002-.01-.001a.063.063 0 0 0-.018.005Zm.017-.009c.005 0 .01 0 .013.002a.014.014 0 0 1 .006.01l-.001.018a.22.22 0 0 1-.023.05 1.21 1.21 0 0 1-.239.27.278.278 0 0 1-.05.033.068.068 0 0 1-.019.006.02.02 0 0 1-.013-.002c-.003-.002-.005-.006-.006-.01 0-.005 0-.01.002-.017a.214.214 0 0 1 .022-.051 1.157 1.157 0 0 1 .239-.27.273.273 0 0 1 .051-.033.066.066 0 0 1 .018-.006Z" clip-rule="evenodd"/><path fill="#009B3A" d="M12.762 9.716a1.198 1.198 0 0 1-.165.113.304.304 0 0 1-.062.026c-.016.004-.026.003-.03-.003-.005-.005-.003-.015.005-.03a.29.29 0 0 1 .04-.052.84.84 0 0 1 .152-.129.783.783 0 0 1 .125-.074c.035-.016.058-.02.065-.01.007.009-.002.03-.026.059a.773.773 0 0 1-.104.1Z"/><path fill="currentColor" fill-rule="evenodd" d="M12.87 9.555a.178.178 0 0 0-.043.014.785.785 0 0 0-.125.075 1.213 1.213 0 0 0-.151.129.286.286 0 0 0-.04.051.059.059 0 0 0-.007.018.015.015 0 0 0 .001.01c.002.002.005.004.01.004s.011 0 .02-.002a.298.298 0 0 0 .06-.026.847.847 0 0 0 .165-.112.77.77 0 0 0 .104-.1.175.175 0 0 0 .024-.037.038.038 0 0 0 .004-.013c0-.003 0-.006-.002-.007l-.007-.004a.04.04 0 0 0-.013 0Zm.013-.004.01.005a.014.014 0 0 1 .002.01.041.041 0 0 1-.003.014.174.174 0 0 1-.025.038.772.772 0 0 1-.105.1 1.181 1.181 0 0 1-.165.113.305.305 0 0 1-.062.026.066.066 0 0 1-.02.003c-.006 0-.01-.002-.013-.006-.002-.003-.003-.007-.002-.013a.065.065 0 0 1 .007-.019.29.29 0 0 1 .041-.052.84.84 0 0 1 .152-.13.784.784 0 0 1 .126-.074.182.182 0 0 1 .043-.014h.014Z" clip-rule="evenodd"/><path fill="#009B3A" d="M12.54 9.814a.698.698 0 0 1-.027-.082c-.004-.015.023-.03.011-.075a.16.16 0 0 0-.07-.086c-.02-.012-.035.007-.02.06.015.052.053.07.064.097l.03.09.083.071c.022.019.056.09.1.117.038.026.076.018.068-.008a.234.234 0 0 0-.075-.09c-.026-.022-.067-.011-.093-.03-.015-.019-.075-.06-.075-.064"/><path fill="currentColor" fill-rule="evenodd" d="M12.455 9.57c.034.02.06.05.072.087a.075.075 0 0 1-.003.05l-.003.008a.108.108 0 0 0-.004.007c-.001.004-.002.007-.001.01a.677.677 0 0 0 .026.082l-.003.002h.001a.11.11 0 0 0 .007.007l.015.01.008.007a.767.767 0 0 1 .043.038.096.096 0 0 0 .046.013.089.089 0 0 1 .047.016.234.234 0 0 1 .076.091.022.022 0 0 1-.002.018.024.024 0 0 1-.016.008.077.077 0 0 1-.052-.016.22.22 0 0 1-.06-.061l-.012-.018-.011-.015a.128.128 0 0 0-.019-.022l-.083-.072-.03-.09a.077.077 0 0 0-.012-.019.337.337 0 0 0-.018-.02.15.15 0 0 1-.034-.06c-.007-.025-.007-.044-.003-.054.002-.006.006-.009.01-.01a.02.02 0 0 1 .015.003Zm.057.163a.674.674 0 0 0 .026.082l-.026-.082Zm.026.082h-.003v.002l.003.003.007.006.014.01.008.007a.81.81 0 0 1 .043.037c.013.01.03.012.045.014h.003c.017.003.033.005.046.016a.23.23 0 0 1 .074.09.017.017 0 0 1-.001.014.026.026 0 0 1-.014.007.074.074 0 0 1-.05-.016.215.215 0 0 1-.058-.06.954.954 0 0 1-.012-.018l-.011-.016a.132.132 0 0 0-.02-.022l-.081-.071-.03-.09a.077.077 0 0 0-.013-.02.426.426 0 0 0-.009-.009l-.01-.01a.147.147 0 0 1-.032-.058c-.007-.026-.007-.044-.003-.053.002-.004.004-.007.008-.008.003 0 .007 0 .011.003a.16.16 0 0 1 .07.085.07.07 0 0 1-.002.048l-.004.007-.003.007c-.002.005-.003.009-.002.013" clip-rule="evenodd"/><path fill="#009B3A" d="M12.405 10.05a.465.465 0 0 1-.126-.023c-.032-.011-.049-.025-.049-.04 0-.016.017-.03.049-.043a.475.475 0 0 1 .126-.026c.05.003.094.01.126.022.032.011.05.026.05.04 0 .016-.018.03-.05.043a.471.471 0 0 1-.126.026Z"/><path fill="currentColor" fill-rule="evenodd" d="M12.405 9.917a.47.47 0 0 1 .127.022.123.123 0 0 1 .037.02c.008.007.013.014.013.023 0 .008-.005.016-.013.023a.126.126 0 0 1-.037.021.48.48 0 0 1-.127.026v-.002.002a.47.47 0 0 1-.127-.022.12.12 0 0 1-.037-.02c-.008-.006-.013-.014-.013-.023 0-.008.005-.016.013-.023a.129.129 0 0 1 .037-.021.478.478 0 0 1 .127-.026Zm0 .131a.476.476 0 0 0 .125-.025.123.123 0 0 0 .036-.02c.008-.007.012-.014.012-.021 0-.007-.004-.014-.012-.02a.12.12 0 0 0-.036-.02.466.466 0 0 0-.125-.021.474.474 0 0 0-.125.026.125.125 0 0 0-.036.02c-.008.006-.012.013-.012.02 0 .007.004.014.012.02a.12.12 0 0 0 .036.02.466.466 0 0 0 .125.021Z" clip-rule="evenodd"/><path fill="#009B3A" d="M12.375 9.845a.685.685 0 0 1-.12.123c-.037.028-.065.038-.079.027-.013-.01-.01-.042.008-.085a.701.701 0 0 1 .149-.216.82.82 0 0 1 .057-.052.175.175 0 0 1 .048-.027c.013-.004.023-.004.03.002.006.005.008.015.007.03a.196.196 0 0 1-.016.054.828.828 0 0 1-.088.144"/><path fill="currentColor" fill-rule="evenodd" d="M12.466 9.617c-.006-.005-.015-.005-.028-.001a.176.176 0 0 0-.047.027.813.813 0 0 0-.206.267.19.19 0 0 0-.015.054c-.002.014.001.024.007.028.006.005.016.006.029.001a.183.183 0 0 0 .048-.027.679.679 0 0 0 .117-.122l-.002-.001a.826.826 0 0 0 .088-.144.194.194 0 0 0 .016-.053c0-.015-.002-.024-.007-.029Zm-.092.226a.834.834 0 0 0 .087-.143.198.198 0 0 0 .015-.054c.002-.015 0-.026-.008-.032-.007-.006-.018-.006-.031-.002a.18.18 0 0 0-.048.028.823.823 0 0 0-.117.12.703.703 0 0 0-.09.148.202.202 0 0 0-.016.055c-.002.015.001.026.009.032.007.007.018.007.032.002a.186.186 0 0 0 .05-.028.687.687 0 0 0 .119-.124l-.002-.002Z" clip-rule="evenodd"/><path fill="#009B3A" d="M12.405 9.95a.662.662 0 0 1-.162.048c-.046.006-.075 0-.08-.016-.007-.016.01-.042.048-.071.037-.03.09-.06.149-.085a.662.662 0 0 1 .162-.049c.046-.006.075 0 .08.016.007.017-.01.042-.048.072a.685.685 0 0 1-.149.085Zm.064-2.003a.422.422 0 0 1 .06.067c.012.019.015.031.008.035-.007.004-.024-.002-.047-.015a.526.526 0 0 1-.166-.161c-.003-.008-.002-.012.002-.014s.01-.002.02.002c.01.003.022.01.035.017a.482.482 0 0 1 .088.069Zm-.071.056a.459.459 0 0 1 .079.021c.02.008.032.016.033.023.001.007-.008.012-.026.015a.35.35 0 0 1-.075.001.693.693 0 0 1-.127-.021.247.247 0 0 1-.044-.017c-.01-.005-.016-.01-.017-.015-.001-.005.003-.01.012-.012a.152.152 0 0 1 .04-.006.488.488 0 0 1 .125.011Z"/><path fill="currentColor" fill-rule="evenodd" d="m12.333 7.86-.007.001a.005.005 0 0 0-.002.004v.008a.106.106 0 0 0 .016.027.637.637 0 0 0 .131.121l.006.003.024.012a.034.034 0 0 1 .008.007.098.098 0 0 0 .01.004.043.043 0 0 0 .01.002h.007a.005.005 0 0 0 .002-.004v-.007a.078.078 0 0 0-.012-.022.682.682 0 0 0-.147-.135.195.195 0 0 0-.034-.018.05.05 0 0 0-.012-.003Zm.178.188a.098.098 0 0 0 .007.003.046.046 0 0 0 .011.002l.008-.001a.008.008 0 0 0 .005-.006v-.009a.08.08 0 0 0-.013-.023.694.694 0 0 0-.148-.136.2.2 0 0 0-.035-.018.054.054 0 0 0-.012-.003h-.01a.009.009 0 0 0-.004.007l.001.01a.108.108 0 0 0 .016.029.638.638 0 0 0 .121.115.54.54 0 0 0-.127-.025.489.489 0 0 0-.059-.002.154.154 0 0 0-.04.006.029.029 0 0 0-.01.006c-.003.002-.004.005-.004.008s.003.006.006.009a.063.063 0 0 0 .013.008.587.587 0 0 0 .247.037.065.065 0 0 0 .02-.006c.005-.003.008-.007.007-.01Zm-.041-.023a.398.398 0 0 0 .038.023c0 .003-.001.005-.005.007a.06.06 0 0 1-.02.006.35.35 0 0 1-.075.001.69.69 0 0 1-.126-.021.242.242 0 0 1-.043-.016.061.061 0 0 1-.013-.008l-.004-.007c0-.001 0-.003.002-.005a.025.025 0 0 1 .01-.005.15.15 0 0 1 .038-.005.486.486 0 0 1 .125.011.478.478 0 0 1 .073.019Zm.106 1.754a.173.173 0 0 0-.054 0 .66.66 0 0 0-.162.05.685.685 0 0 0-.149.084.195.195 0 0 0-.04.04c-.008.012-.01.022-.007.03.002.007.01.012.024.015a.174.174 0 0 0 .054 0 .66.66 0 0 0 .162-.05.686.686 0 0 0 .148-.084.195.195 0 0 0 .04-.04c.009-.012.011-.022.008-.03-.002-.007-.01-.012-.024-.015Zm.001-.003c.014.002.024.008.027.017.003.01 0 .02-.008.033a.199.199 0 0 1-.041.04.692.692 0 0 1-.15.086.664.664 0 0 1-.163.049.176.176 0 0 1-.055 0c-.014-.002-.024-.008-.027-.017-.003-.01 0-.02.008-.033a.199.199 0 0 1 .041-.04.691.691 0 0 1 .15-.086.664.664 0 0 1 .162-.049.177.177 0 0 1 .056 0Z" clip-rule="evenodd"/><path fill="#009B3A" d="M12.427 7.966a.866.866 0 0 1 .099.059c.012.009.02.017.026.024.006.006.008.012.006.015-.002.003-.008.004-.017.003a.555.555 0 0 1-.144-.053.696.696 0 0 1-.098-.06c-.024-.018-.036-.032-.032-.038.004-.006.023-.005.053.004.03.01.069.026.107.046Zm-1.038 1.86s.19.04.36.1c.168.065.423.27.49.286.076 0 .185-.027.226-.135-.12.03-.188.079-.3.018-.041-.014-.173-.134-.319-.198a3.413 3.413 0 0 0-.431-.135l-.026.064Zm.206-1.744.221-.116-.244.063-.03.042.053.01Z"/><path fill="currentColor" fill-rule="evenodd" d="m12.273 7.913-.005.003v.005l.006.008a.159.159 0 0 0 .026.023.692.692 0 0 0 .155.086.548.548 0 0 0 .086.027h.01l.005-.003v-.005a.03.03 0 0 0-.005-.008.522.522 0 0 0-.124-.083.719.719 0 0 0-.107-.045.18.18 0 0 0-.036-.008h-.01Zm.01-.004a.724.724 0 0 1 .27.137.033.033 0 0 1 .006.01c.001.003.002.005 0 .008-.001.002-.004.003-.007.004a.04.04 0 0 1-.011 0 .552.552 0 0 1-.144-.053.702.702 0 0 1-.1-.06.167.167 0 0 1-.026-.024.033.033 0 0 1-.006-.01v-.007c.002-.002.004-.004.007-.004a.04.04 0 0 1 .012 0Zm-.467.054v.003l-.22.116-.001-.001v.002l-.056-.012.032-.044.245-.064Zm-.222.116.207-.109-.228.06-.028.038.05.01Zm-.179 1.68h.003a.563.563 0 0 1 .045.012l.114.031c.09.026.198.06.27.092a1.157 1.157 0 0 1 .24.147l.032.024a.28.28 0 0 0 .046.028c.056.03.101.032.147.024a.599.599 0 0 0 .07-.02c.003 0 .006 0 .009-.002l.073-.021.004-.001-.002.003c-.041.11-.151.137-.226.137a.151.151 0 0 1-.035-.015 3.965 3.965 0 0 1-.142-.089l-.032-.021a1.66 1.66 0 0 0-.283-.16 2.97 2.97 0 0 0-.351-.1l-.007-.001h-.001v-.003h-.002l.027-.066h.001Zm-.024.064a2.446 2.446 0 0 1 .115.028c.069.018.159.043.243.073.085.032.19.1.284.16l.033.023a4.549 4.549 0 0 0 .141.088.148.148 0 0 0 .033.014c.074 0 .18-.026.222-.13a1.33 1.33 0 0 0-.07.02l-.008.002a.61.61 0 0 1-.072.02.212.212 0 0 1-.148-.025.257.257 0 0 1-.047-.028 4.205 4.205 0 0 1-.073-.053 1.15 1.15 0 0 0-.199-.118 2.275 2.275 0 0 0-.269-.09 5.338 5.338 0 0 0-.15-.041l-.008-.003h-.002l-.025.06Z" clip-rule="evenodd"/><path fill="#009B3A" d="M11.805 8.138c-.086-.019-.217-.049-.3-.052.057-.064.135-.177.188-.24-.038.063-.086.15-.105.206.056.034.15.06.217.082"/><path fill="currentColor" fill-rule="evenodd" d="M11.509 8.083a2.04 2.04 0 0 1 .295.052l-.041-.013a2.775 2.775 0 0 1-.072-.024.595.595 0 0 1-.105-.045V8.05a1.21 1.21 0 0 1 .092-.185 4.81 4.81 0 0 0-.061.08l-.015.02a2.227 2.227 0 0 1-.093.117Zm.295.052h.001v.004a1.977 1.977 0 0 0-.3-.052H11.5l.003-.003c.028-.032.061-.076.095-.12l.015-.02.077-.1.003.002a1.367 1.367 0 0 0-.104.204.6.6 0 0 0 .103.045l.071.023.042.014-.002.003Z" clip-rule="evenodd"/><path fill="#009B3A" d="M11.553 8.097c.066-.052.132-.103.2-.154l-.23.102-.022.048h.053"/><path fill="currentColor" fill-rule="evenodd" d="m11.752 7.94.001.004c-.066.05-.133.101-.198.153l-.003-.003h-.054l.024-.052.23-.102Zm-.199.154.185-.144-.213.095-.021.045h.05v.004Z" clip-rule="evenodd"/><path fill="#009B3A" d="M11.764 8.135c-.086-.019-.218-.049-.3-.056.052-.064.131-.177.18-.248-.03.068-.083.154-.101.218.06.033.153.06.225.086"/><path fill="currentColor" fill-rule="evenodd" d="M11.467 8.076c.074.007.185.032.268.05l.01.002a3.688 3.688 0 0 0-.044-.015l-.05-.018a.714.714 0 0 1-.11-.046v-.002a.687.687 0 0 1 .046-.108l.016-.03.03-.06c-.049.07-.117.168-.166.227Zm.296.058v.002l-.028-.007a2.618 2.618 0 0 0-.271-.05h-.004l.002-.003a3.92 3.92 0 0 0 .18-.247l.003.002a1.699 1.699 0 0 1-.054.11.71.71 0 0 0-.046.106c.03.016.067.031.106.045l.051.017.066.023-.001.004-.003-.002Z" clip-rule="evenodd"/><path fill="#009B3A" d="m11.524 8.107.228-.097-.247.041-.034.038.049.018"/><path fill="currentColor" fill-rule="evenodd" d="m11.752 8.01.001.003-.229.098-.001-.004.214-.09-.231.038-.032.035.046.017v.004l-.052-.02.036-.04.248-.041Z" clip-rule="evenodd"/><path fill="#009B3A" d="M11.738 8.137a2.16 2.16 0 0 0-.308-.022c.049-.075.113-.2.154-.274-.023.071-.064.165-.075.229.064.03.161.045.229.063"/><path fill="currentColor" fill-rule="evenodd" d="M11.433 8.114c.083-.003.219.012.304.023a3.549 3.549 0 0 1-.116-.028.618.618 0 0 1-.113-.036h-.001V8.07a.746.746 0 0 1 .046-.147.93.93 0 0 0 .022-.062l-.024.045a2.937 2.937 0 0 1-.118.207Zm.304.023v.004a2.16 2.16 0 0 0-.307-.023h-.004l.002-.003a3.334 3.334 0 0 0 .154-.273l.003.001a1.876 1.876 0 0 1-.041.118.746.746 0 0 0-.033.11.623.623 0 0 0 .155.045l.072.017-.001.004Z" clip-rule="evenodd"/><path fill="#009B3A" d="m11.497 8.107.158-.187-.199.146-.011.049.052-.008Z"/><path fill="currentColor" fill-rule="evenodd" d="m11.654 7.92.003.003-.158.187-.001-.001v.002l-.055.008.012-.052.2-.147Zm-.157.187.147-.175-.186.137-.01.045.049-.007Z" clip-rule="evenodd"/><path fill="#009B3A" d="M11.737 8.148c-.094 0-.24-.011-.33 0 .045-.086.101-.225.135-.311-.015.079-.049.187-.052.259.067.022.172.037.247.052Z"/><path fill="currentColor" fill-rule="evenodd" d="M11.41 8.148a1.24 1.24 0 0 1 .16-.004l.066.002.08.002a1.445 1.445 0 0 1-.228-.049v-.002a.783.783 0 0 1 .022-.127l.01-.04.016-.07a3.586 3.586 0 0 1-.126.288Zm.327.002v.002l-.101-.003a7.66 7.66 0 0 0-.065-.002 1.2 1.2 0 0 0-.164.005h-.003l.002-.003c.044-.086.1-.225.134-.311h.004c-.005.029-.013.06-.02.093l-.01.04a.782.782 0 0 0-.022.125c.048.016.116.028.178.04l.068.012v.002Z" clip-rule="evenodd"/><path fill="#009B3A" d="m11.468 8.152.187-.183-.228.131-.015.053h.056Z"/><path fill="currentColor" fill-rule="evenodd" d="m11.653 7.968.003.003-.188.184h-.06l.016-.056.23-.131Zm-.226.134-.014.05h.053l.177-.174-.216.124Z" clip-rule="evenodd"/><path fill="#009B3A" d="M11.696 8.152c-.101 0-.255-.004-.356.008a4.19 4.19 0 0 0 .21-.342c-.038.087-.09.203-.113.282.072.026.18.037.26.052Z"/><path fill="currentColor" fill-rule="evenodd" d="M11.344 8.158a2.939 2.939 0 0 1 .331-.007l-.053-.009a4.17 4.17 0 0 1-.058-.01.76.76 0 0 1-.127-.03h-.002V8.1c.02-.069.063-.167.098-.248-.052.093-.13.222-.19.306Zm-.006.001c.068-.093.158-.247.21-.34l.004.001-.015.033c-.035.08-.077.177-.097.246a.77.77 0 0 0 .124.03l.058.01.075.012v.004h-.063a2.796 2.796 0 0 0-.294.007h-.004l.002-.003Z" clip-rule="evenodd"/><path fill="#009B3A" d="m11.4 8.168.247-.206-.277.146-.03.06h.06Z"/><path fill="currentColor" fill-rule="evenodd" d="m11.647 7.96.002.004-.248.206-.001-.001v.002h-.063l.031-.064.279-.146Zm-.248.207.234-.194-.262.137-.028.057h.056Z" clip-rule="evenodd"/><path fill="#009B3A" d="M11.662 8.161c-.101.015-.259.03-.352.056.048-.101.116-.262.157-.363-.022.09-.064.21-.075.292.075.015.188.011.266.015"/><path fill="currentColor" fill-rule="evenodd" d="M11.314 8.213c.068-.018.168-.031.256-.043.025-.003.05-.006.071-.01h-.059l-.058-.002a.838.838 0 0 1-.132-.011h-.002v-.002c.006-.042.02-.093.034-.144l.014-.048.02-.074c-.04.1-.1.241-.144.334Zm.345-.055h.003v.004l-.092.012c-.09.012-.191.025-.26.044h-.003l.001-.003c.05-.101.117-.262.158-.363h.003c-.007.032-.017.066-.027.102l-.014.048a.908.908 0 0 0-.033.141.85.85 0 0 0 .13.012h.057l.077.003Z" clip-rule="evenodd"/><path fill="#009B3A" d="m11.37 8.21.187-.263-.236.214-.011.064.06-.015Z"/><path fill="currentColor" fill-rule="evenodd" d="m11.556 7.946.003.003-.188.262h-.002v.001l-.062.016.012-.068.237-.214Zm-.188.263.177-.248-.223.201-.01.06.056-.013Z" clip-rule="evenodd"/><path fill="#009B3A" d="M11.602 8.19c-.097.011-.255.019-.352.037.056-.097.131-.255.18-.352-.03.086-.075.206-.09.289.075.018.188.018.262.026Z"/><path fill="currentColor" fill-rule="evenodd" d="M11.253 8.226a1.949 1.949 0 0 1 .23-.026l.1-.009-.06-.004-.052-.003a.805.805 0 0 1-.132-.018h-.001v-.002c.013-.07.047-.166.075-.247l.005-.013-.024.05a6.733 6.733 0 0 1-.14.272Zm.35-.035v.002a11.512 11.512 0 0 0-.176.016 1.89 1.89 0 0 0-.177.021h-.004l.002-.003c.043-.074.097-.184.142-.275l.038-.077.003.001-.014.043c-.028.08-.062.175-.075.244.037.01.083.014.13.017l.05.003.08.006v.002Z" clip-rule="evenodd"/><path fill="#009B3A" d="m11.336 8.235.24-.207-.273.147-.027.06h.06Z"/><path fill="currentColor" fill-rule="evenodd" d="m11.575 8.028.002.003-.24.207h-.064l.028-.063.274-.147Zm-.271.15-.025.056h.056l.227-.194-.258.138Z" clip-rule="evenodd"/><path fill="#009B3A" d="M11.577 8.2c-.102.023-.26.05-.353.08.045-.102.105-.267.143-.368-.02.09-.053.21-.06.293.075.01.187 0 .27-.004Z"/><path fill="currentColor" fill-rule="evenodd" d="M11.227 8.277c.064-.02.157-.038.241-.055l.085-.017a8.32 8.32 0 0 0-.115.006.75.75 0 0 1-.132-.004h-.002v-.002c.004-.041.014-.092.026-.144l.014-.057.015-.066-.004.01c-.037.1-.088.239-.128.33Zm.124-.33a.304.304 0 0 0 .013-.035l.004.001-.02.091-.014.058a1.11 1.11 0 0 0-.026.142.757.757 0 0 0 .13.003 3.794 3.794 0 0 0 .138-.007v.003l-.107.023c-.086.017-.18.035-.245.056l-.004.001.002-.003c.04-.09.092-.232.13-.333Z" clip-rule="evenodd"/><path fill="#009B3A" d="m11.295 8.25.15-.288-.203.247-.003.064.056-.026"/><path fill="currentColor" fill-rule="evenodd" d="m11.443 7.96.003.002-.15.289-.003-.002-.057.026.004-.067.203-.248Zm-.148.286.14-.27-.191.233-.004.06.054-.025v.002Z" clip-rule="evenodd"/><path fill="#009B3A" d="M11.576 8.217c-.112.03-.277.067-.375.105.038-.117.079-.3.109-.417-.011.102-.034.237-.03.33.086.008.206-.011.292-.018"/><path fill="currentColor" fill-rule="evenodd" d="M11.205 8.318c.073-.028.181-.055.278-.08a9.94 9.94 0 0 0 .073-.019 4.768 4.768 0 0 0-.053.006l-.076.008a.87.87 0 0 1-.147.004h-.001v-.002c-.003-.07.009-.165.02-.25l.006-.052-.021.088c-.025.1-.053.215-.08.297Zm.368-.103h.003l.001.003-.094.024c-.098.025-.208.053-.28.08l-.004.002V8.32c.027-.082.056-.198.08-.3.011-.042.02-.082.03-.116l.003.001c-.002.025-.006.052-.01.08-.01.085-.022.178-.02.248.043.004.094 0 .145-.004l.075-.008.07-.007v.001Z" clip-rule="evenodd"/><path fill="#009B3A" d="m11.265 8.313.195-.285-.248.23-.01.074.063-.019Z"/><path fill="currentColor" fill-rule="evenodd" d="m11.458 8.027.003.003-.195.285-.002-.001v.002l-.066.02.012-.08.248-.229Zm-.195.285.185-.27-.235.216-.01.072.06-.018Z" clip-rule="evenodd"/><path fill="#009B3A" d="M11.531 8.25c-.105.034-.27.08-.367.124.03-.12.067-.304.09-.42-.004.101-.02.236-.012.326.083.004.203-.022.29-.03Z"/><path fill="currentColor" fill-rule="evenodd" d="M11.167 8.371c.072-.033.18-.066.274-.094l.073-.023a2.457 2.457 0 0 0-.085.012l-.043.006a.843.843 0 0 1-.143.01h-.002v-.001a1.205 1.205 0 0 1 .005-.223l.005-.078a9.27 9.27 0 0 1-.084.391Zm.364-.12.001.001c-.027.01-.057.018-.09.028a2.456 2.456 0 0 0-.277.096l-.004.002.001-.004c.03-.12.068-.304.09-.42h.004a3.763 3.763 0 0 1-.01.168 1.227 1.227 0 0 0-.002.157.906.906 0 0 0 .141-.01l.043-.007.103-.013v.002Z" clip-rule="evenodd"/><path fill="#009B3A" d="m11.227 8.356.147-.315-.21.27v.075l.063-.03Z"/><path fill="currentColor" fill-rule="evenodd" d="m11.372 8.04.003.001-.146.315h-.002.001l-.066.032V8.31l.21-.27Zm-.146.314.139-.3-.2.257v.071l.06-.028Z" clip-rule="evenodd"/><path fill="#009B3A" d="M11.49 8.295c-.105.023-.274.056-.375.09.041-.112.094-.3.127-.412-.015.1-.041.24-.041.326.082.011.202-.004.289-.008"/><path fill="currentColor" fill-rule="evenodd" d="M11.118 8.384c.088-.03.224-.058.326-.08l.045-.01.001.005-.045.01a3.517 3.517 0 0 0-.33.08h-.003l.001-.003a5.959 5.959 0 0 0 .128-.412h.003a7.157 7.157 0 0 1-.011.074c-.014.087-.03.184-.03.25.04.006.09.005.141.002a4.113 4.113 0 0 0 .146-.009v.004a2.875 2.875 0 0 0-.146.01.797.797 0 0 1-.143-.003h-.002V8.3c0-.066.016-.165.03-.252L11.237 8l-.019.062c-.03.106-.069.234-.1.32Z" clip-rule="evenodd"/><path fill="#009B3A" d="m11.19 8.384.24-.247-.281.183-.023.068.064-.004Z"/><path fill="currentColor" fill-rule="evenodd" d="m11.428 8.137.003.003-.24.247-.002-.001v.002l-.066.004.024-.071.281-.184Zm-.24.247.228-.235-.266.174-.022.064.06-.003Z" clip-rule="evenodd"/><path fill="#009B3A" d="M11.445 8.336c-.109.015-.274.03-.375.056a5.87 5.87 0 0 0 .15-.405c-.023.102-.056.237-.064.327.083.018.203.015.289.022Z"/><path fill="currentColor" fill-rule="evenodd" d="M11.073 8.391c.075-.019.182-.032.276-.043l.078-.01a2.662 2.662 0 0 0-.08-.004c-.016 0-.032 0-.048-.002a.857.857 0 0 1-.143-.015h-.002v-.002a2.22 2.22 0 0 1 .056-.291 5.713 5.713 0 0 1-.137.367Zm.372-.053v.001l-.096.013a2.433 2.433 0 0 0-.278.044h-.004l.001-.003c.05-.112.113-.292.15-.405l.004.001-.013.058c-.02.09-.044.193-.05.267a.864.864 0 0 0 .188.017.97.97 0 0 1 .098.005v.002Z" clip-rule="evenodd"/><path fill="#009B3A" d="m11.145 8.363.16-.311-.22.262v.072l.06-.027"/><path fill="currentColor" fill-rule="evenodd" d="m11.305 8.052.003.002-.161.311-.003-.002-.06.027v-.075l.221-.263Zm-.16.308.152-.293-.21.25v.067l.058-.025v.001Z" clip-rule="evenodd"/><path fill="#009B3A" d="M11.456 8.3c-.113.048-.3.112-.41.172.038-.139.076-.357.098-.492 0 .117-.018.278-.01.38.093 0 .224-.042.322-.06Z"/><path fill="currentColor" fill-rule="evenodd" d="M11.05 8.468a1.95 1.95 0 0 1 .268-.115l.12-.048a2.994 2.994 0 0 0-.145.033.782.782 0 0 1-.16.023h-.002V8.36a1.552 1.552 0 0 1 .005-.219c.003-.047.006-.094.006-.136a5.783 5.783 0 0 1-.092.463Zm.406-.168a4.21 4.21 0 0 1-.205.082c-.075.03-.149.06-.203.09l-.004.003.001-.004a6.11 6.11 0 0 0 .098-.492h.003c0 .05-.003.105-.006.161l-.002.035a1.582 1.582 0 0 0-.003.182c.046 0 .102-.01.158-.023l.064-.015c.035-.009.068-.017.098-.022V8.3Z" clip-rule="evenodd"/><path fill="#009B3A" d="m11.123 8.452.195-.352-.26.3-.007.082.072-.03Z"/><path fill="currentColor" fill-rule="evenodd" d="m11.316 8.099.003.002-.195.352h-.001v.001l-.074.031.008-.086.26-.3Zm-.195.352.186-.336-.246.286-.007.078.067-.028Z" clip-rule="evenodd"/><path fill="#009B3A" d="M11.411 8.344c-.112.053-.292.128-.397.191.03-.135.056-.356.075-.487 0 .112-.008.274.003.375.094-.011.225-.056.32-.079Z"/><path fill="currentColor" fill-rule="evenodd" d="M11.016 8.532c.078-.047.196-.1.296-.145l.08-.036-.086.024-.054.015c-.056.015-.113.03-.16.035h-.001v-.002a2.19 2.19 0 0 1-.005-.274v-.073l-.01.076c-.017.124-.037.276-.06.38Zm.056-.38.015-.104h.003v.101c-.002.095-.004.199.004.272.046-.006.102-.02.157-.035l.054-.015.106-.028v.003l-.097.045c-.103.046-.222.099-.3.146l-.003.002v-.004a5.32 5.32 0 0 0 .062-.384Z" clip-rule="evenodd"/><path fill="#009B3A" d="m11.081 8.506.143-.379-.214.337.007.087.064-.045Z"/><path fill="currentColor" fill-rule="evenodd" d="m11.222 8.126.004.002-.143.378h-.002l.002.001-.067.047-.008-.09.214-.338Zm-.142.379.136-.362-.204.322.007.082.06-.042Z" clip-rule="evenodd"/><path fill="#009B3A" d="M11.362 8.374c-.112.056-.292.13-.397.198.026-.138.052-.356.071-.49 0 .112-.007.273.008.374.093-.011.225-.06.318-.082Z"/><path fill="currentColor" fill-rule="evenodd" d="M10.968 8.569c.052-.033.122-.068.192-.102a12.704 12.704 0 0 1 .186-.087 2.877 2.877 0 0 0-.142.041 1.061 1.061 0 0 1-.16.037h-.002v-.001a2.027 2.027 0 0 1-.008-.288v-.06a12.4 12.4 0 0 0-.011.086 8.3 8.3 0 0 1-.055.374Zm.395-.195v.001a4.946 4.946 0 0 1-.201.096c-.072.034-.144.07-.196.103l-.004.002.001-.004c.02-.104.04-.253.056-.378l.015-.113h.004v.088c-.002.098-.004.208.007.285a1.08 1.08 0 0 0 .203-.05c.04-.012.08-.024.114-.032v.002Z" clip-rule="evenodd"/><path fill="#009B3A" d="m11.052 8.55.217-.334-.277.274-.012.082.072-.022Z"/><path fill="currentColor" fill-rule="evenodd" d="m11.267 8.217.003.002-.218.334-.075.024.012-.086.278-.274Zm-.274.276-.01.079.067-.022.207-.318-.264.26Z" clip-rule="evenodd"/><path fill="#009B3A" d="M11.351 8.355c-.101.083-.262.203-.352.293 0-.143-.019-.357-.03-.488.022.109.049.263.086.356.09-.033.206-.112.3-.157"/><path fill="currentColor" fill-rule="evenodd" d="M10.967 8.16h.003l.013.063c.02.098.043.214.073.29a1.145 1.145 0 0 0 .175-.09c.034-.02.069-.039.101-.055l.018-.015.002.003-.004.004a.955.955 0 0 0 .006-.003l.002.003a1.071 1.071 0 0 0-.022.01c-.023.02-.049.04-.075.06-.09.072-.194.153-.259.218l-.003.004v-.005c0-.138-.018-.342-.03-.474V8.16Zm.35.22a3.2 3.2 0 0 0-.085.047l-.028.016c-.052.03-.103.058-.148.075h-.002v-.001a1.882 1.882 0 0 1-.074-.294l-.007-.031c.011.13.027.32.027.45.066-.064.168-.144.257-.215l.06-.047Z" clip-rule="evenodd"/><path fill="#009B3A" d="m11.063 8.57.022-.402-.105.39.03.075.053-.064Z"/><path fill="currentColor" fill-rule="evenodd" d="M11.083 8.168h.003l-.022.402h-.002.002l-.055.067-.032-.078.106-.391Zm-.023.401.022-.383-.1.372.028.072.05-.061Z" clip-rule="evenodd"/><path fill="#009B3A" d="M11.325 8.392c-.105.083-.263.199-.356.289 0-.139-.02-.356-.03-.488.026.113.048.263.086.357.09-.03.206-.113.3-.158Z"/><path fill="currentColor" fill-rule="evenodd" d="M10.937 8.194h.004a3.85 3.85 0 0 1 .039.185c.013.062.028.122.046.169a.894.894 0 0 0 .147-.073l.032-.019c.041-.024.082-.047.12-.065l.001.003c-.024.019-.05.04-.078.06-.095.074-.205.16-.278.229l-.003.003V8.68a6.735 6.735 0 0 0-.03-.487Zm.006.027c.011.131.027.326.028.456a3.86 3.86 0 0 1 .339-.275 1.86 1.86 0 0 0-.103.058.882.882 0 0 1-.181.092h-.002v-.001a1.114 1.114 0 0 1-.048-.172 5.252 5.252 0 0 1-.033-.158Z" clip-rule="evenodd"/><path fill="#009B3A" d="m11.036 8.637.102-.394-.177.36.012.083.063-.05Z"/><path fill="currentColor" fill-rule="evenodd" d="m11.136 8.242.003.001-.101.394h-.002l.001.001-.066.051-.012-.086.177-.36Zm-.102.394.097-.376-.168.343.01.08.061-.047Z" clip-rule="evenodd"/><path fill="#009B3A" d="M11.31 8.4c-.094.098-.247.24-.334.338a7.139 7.139 0 0 0-.082-.495c.037.113.079.266.127.356.087-.04.203-.135.29-.195"/><path fill="currentColor" fill-rule="evenodd" d="M10.892 8.243h.003l.03.09.03.096c.02.063.043.123.067.168a1.12 1.12 0 0 0 .142-.09l.067-.048c.023-.017.045-.034.066-.048l.011-.012.003.003-.002.001.002.003-.011.007-.12.12-.039.037c-.06.06-.12.12-.164.169l-.002.003v-.004a7.144 7.144 0 0 0-.083-.495Zm.39.183a7.603 7.603 0 0 0-.116.084.973.973 0 0 1-.144.09l-.002.001V8.6a1.106 1.106 0 0 1-.069-.17l-.03-.096a6.461 6.461 0 0 0-.02-.062 6.6 6.6 0 0 1 .076.461c.043-.048.102-.107.162-.165l.038-.038.105-.104Z" clip-rule="evenodd"/><path fill="#009B3A" d="m11.036 8.685.018-.416-.1.405.03.075.052-.064Z"/><path fill="currentColor" fill-rule="evenodd" d="M11.053 8.27h.004l-.019.416h-.002l.002.001-.055.067-.031-.079.101-.405Zm-.019.416.018-.397-.096.386.028.071.05-.06Z" clip-rule="evenodd"/><path fill="#009B3A" d="M11.28 8.475c-.101.082-.263.206-.36.3 0-.143-.026-.368-.038-.506.027.112.057.273.094.37.094-.037.214-.115.304-.168"/><path fill="currentColor" fill-rule="evenodd" d="m10.88 8.27.004-.001.02.089a2.2 2.2 0 0 0 .073.28c.07-.029.156-.08.232-.126.024-.015.048-.03.07-.042l.002.003-.002.001.002.003-.082.066a4.468 4.468 0 0 0-.278.234l-.003.003v-.005c0-.104-.014-.251-.026-.377l-.012-.129Zm.396.206-.065.039a1.8 1.8 0 0 1-.234.127h-.002v-.001c-.03-.074-.053-.184-.075-.283l-.014-.063.01.102c.011.125.025.27.026.374.073-.07.182-.158.274-.231l.08-.064Z" clip-rule="evenodd"/><path fill="#009B3A" d="m11.006 8.735.143-.394-.218.349.008.086.067-.041Z"/><path fill="currentColor" fill-rule="evenodd" d="m11.147 8.339.003.002-.142.393h-.002l.001.001-.07.043-.008-.09.218-.35Zm-.142.393.136-.376-.208.333.007.083.065-.04Z" clip-rule="evenodd"/><path fill="#009B3A" d="M11.28 8.476c-.094.093-.236.24-.319.34-.015-.142-.056-.367-.079-.502.038.113.075.27.12.36.087-.045.192-.138.278-.198Z"/><path fill="currentColor" fill-rule="evenodd" d="M10.88 8.314h.003c.013.036.025.078.038.12l.02.068c.02.064.04.125.062.17a1.05 1.05 0 0 0 .177-.124c.034-.027.067-.053.098-.074l.001.001.002.002c-.094.093-.237.24-.32.34l-.002.004v-.004a6.904 6.904 0 0 0-.063-.405l-.016-.098Zm.382.176c-.026.018-.053.04-.08.06l-.04.032a1.034 1.034 0 0 1-.14.094h-.001v-.001a1.178 1.178 0 0 1-.064-.172 7.91 7.91 0 0 1-.05-.164 7.443 7.443 0 0 1 .074.473 5.34 5.34 0 0 1 .301-.322Z" clip-rule="evenodd"/><path fill="#009B3A" d="m11.01 8.753-.015-.412-.068.412.038.072.045-.072Z"/><path fill="currentColor" fill-rule="evenodd" d="m10.992 8.34.004.001.015.413-.047.075-.04-.075.068-.413Zm-.063.413.035.068.043-.068-.014-.393-.064.393Z" clip-rule="evenodd"/><path fill="#009B3A" d="M11.235 8.505c-.09.098-.229.244-.308.349-.018-.15-.067-.368-.093-.506.037.112.086.27.13.36.083-.045.188-.143.27-.203Z"/><path fill="currentColor" fill-rule="evenodd" d="m10.832 8.348.003-.001.02.057c.033.103.073.225.11.3a1.03 1.03 0 0 0 .133-.094l.04-.032a2.42 2.42 0 0 1 .095-.075l.003.003-.04.043c-.087.094-.2.215-.267.306l-.003.003v-.004a5.838 5.838 0 0 0-.068-.371l-.027-.135Zm.009.027.021.107c.024.12.053.26.066.367.068-.09.179-.21.265-.302l.027-.029-.08.063-.04.032a1.017 1.017 0 0 1-.134.096h-.003a2.582 2.582 0 0 1-.112-.304l-.01-.03Z" clip-rule="evenodd"/><path fill="#009B3A" d="m10.987 8.794.045-.42-.123.398.026.082.052-.06Z"/><path fill="currentColor" fill-rule="evenodd" d="M11.03 8.373h.004l-.045.42h-.002l.002.002-.055.062-.027-.086.124-.398Zm-.044.42.042-.4-.117.378.025.079.05-.057Z" clip-rule="evenodd"/><path fill="#009B3A" d="M11.212 8.52c-.075.11-.206.263-.277.376-.03-.143-.094-.357-.132-.488.049.105.105.255.158.341.079-.052.176-.157.255-.225"/><path fill="currentColor" fill-rule="evenodd" d="m10.802 8.409.004-.002.05.116c.01.02.018.041.027.062.027.06.053.119.08.162.038-.027.081-.065.125-.106l.036-.034.075-.07.012-.018.003.003-.003.005.004-.004.003.003a.894.894 0 0 0-.017.014c-.03.043-.068.091-.106.141l-.02.027a2.705 2.705 0 0 0-.138.189l-.003.003v-.004a7.578 7.578 0 0 0-.112-.42l-.02-.067Zm.386.143a4.01 4.01 0 0 0-.098.092c-.044.041-.088.08-.127.107h-.003a1.432 1.432 0 0 1-.08-.165c-.01-.02-.018-.04-.027-.061l-.04-.093.012.042c.037.128.086.297.111.417.036-.056.085-.121.135-.186l.02-.026c.035-.045.069-.088.097-.127Z" clip-rule="evenodd"/><path fill="#009B3A" d="m10.988 8.836-.03-.424-.053.42.038.075.041-.075"/><path fill="currentColor" fill-rule="evenodd" d="M10.955 8.411h.004l.03.424h-.004l-.028-.404-.05.4.035.071.04-.072.003.002-.043.078-.04-.078.053-.42Z" clip-rule="evenodd"/><path fill="#009B3A" d="M11.209 8.547c-.075.112-.2.273-.263.39-.037-.143-.112-.357-.157-.488.052.105.116.255.176.338.075-.057.169-.169.244-.24Z"/><path fill="currentColor" fill-rule="evenodd" d="m10.787 8.45.003-.002.044.09a1.755 1.755 0 0 0 .131.246 1.125 1.125 0 0 0 .153-.147c.03-.033.061-.065.09-.092l.002.003-.088.126-.047.067a2.313 2.313 0 0 0-.127.196l-.003.005v-.005a7.277 7.277 0 0 0-.143-.441l-.015-.046Zm.013.026.006.019c.045.13.107.31.14.437a2.355 2.355 0 0 1 .173-.26l.078-.112a3.184 3.184 0 0 0-.11.114 1.11 1.11 0 0 1-.121.114l-.002.001v-.001a1.152 1.152 0 0 1-.092-.16l-.042-.088a9.078 9.078 0 0 0-.03-.064Z" clip-rule="evenodd"/><path fill="#009B3A" d="m11.01 8.873.045-.424-.12.398.022.086.053-.06Z"/><path fill="currentColor" fill-rule="evenodd" d="m11.053 8.448.003.001-.045.424-.055.063-.023-.09.12-.398Zm-.117.398.022.083.05-.057.043-.404-.114.378Z" clip-rule="evenodd"/><path fill="#009B3A" d="M11.19 8.588c-.064.116-.17.3-.226.424-.048-.135-.142-.338-.198-.465.063.097.138.236.206.315.071-.068.15-.195.217-.278"/><path fill="currentColor" fill-rule="evenodd" d="m10.764 8.548.003-.002a3.616 3.616 0 0 1 .102.164c.035.056.07.11.103.15.035-.034.072-.082.109-.132l.028-.04c.027-.037.054-.074.08-.105l.002.003-.002.002.002.001-.042.076c-.061.11-.137.248-.183.348l-.002.004-.001-.004a5.774 5.774 0 0 0-.16-.376 13.88 13.88 0 0 1-.039-.09Zm.42.046a2.552 2.552 0 0 0-.072.097l-.028.039c-.037.05-.075.1-.11.133l-.002.002-.001-.002a1.29 1.29 0 0 1-.105-.15l-.037-.061a5.172 5.172 0 0 0-.052-.084l.03.067c.053.119.12.266.158.372.045-.1.12-.235.181-.344l.038-.069Z" clip-rule="evenodd"/><path fill="#009B3A" d="m10.998 8.91-.12-.404.038.424.056.06.023-.08"/><path fill="currentColor" fill-rule="evenodd" d="m10.877 8.506.003-.001.12.405h-.004l-.114-.386.036.404.053.057.022-.075h.003l-.023.083-.059-.063-.037-.424Z" clip-rule="evenodd"/><path fill="#009B3A" d="M11.19 8.633c-.068.12-.18.3-.236.424a5.726 5.726 0 0 0-.203-.461c.064.097.143.236.21.31.075-.067.157-.19.225-.273"/><path fill="currentColor" fill-rule="evenodd" d="m10.75 8.597.003-.002.055.087.048.077c.036.055.072.108.105.145a.952.952 0 0 0 .114-.13l.042-.054c.023-.032.046-.062.068-.088l.002.002.001-.002.004.002-.07.12c-.06.102-.127.217-.167.304l-.002.004-.001-.004a5.701 5.701 0 0 0-.203-.461Zm.436.04-.066.085a6.659 6.659 0 0 1-.042.055.905.905 0 0 1-.116.131l-.001.002-.001-.002a1.205 1.205 0 0 1-.107-.147l-.048-.077-.039-.062c.06.124.142.305.188.43.04-.087.106-.2.165-.3l.067-.115Z" clip-rule="evenodd"/><path fill="#009B3A" d="m11.002 8.985-.045-.423-.037.423.041.075.041-.075Z"/><path fill="currentColor" fill-rule="evenodd" d="M10.955 8.563h.004l.045.423h-.002l.002.001-.043.078-.043-.078.037-.424Zm.045.423-.043-.404-.036.404.04.072.039-.072Z" clip-rule="evenodd"/><path fill="#009B3A" d="M11.197 8.67c-.071.117-.187.297-.244.417-.048-.135-.138-.337-.195-.465.064.098.14.24.207.315.075-.064.16-.187.232-.266Z"/><path fill="currentColor" fill-rule="evenodd" d="m10.757 8.623.003-.002a3.209 3.209 0 0 1 .102.166c.035.057.07.11.103.148a1.052 1.052 0 0 0 .148-.166l.083-.1.003.003-.045.073c-.069.11-.153.246-.199.343l-.002.004-.001-.004c-.046-.128-.13-.316-.186-.444a8.7 8.7 0 0 1-.01-.021Zm.013.02c.056.127.137.312.184.44a4.026 4.026 0 0 1 .23-.395l-.068.083-.032.04c-.04.049-.08.096-.118.128h-.003a1.08 1.08 0 0 1-.104-.15l-.037-.061a4.032 4.032 0 0 0-.052-.085Z" clip-rule="evenodd"/><path fill="#009B3A" d="m10.998 9.018-.078-.413-.004.42.049.068.034-.075Z"/><path fill="currentColor" fill-rule="evenodd" d="M10.918 8.606h.004l.079.412h-.002L11 9.02l-.035.078-.051-.07.003-.421Zm.079.412-.075-.393-.004.4.047.065.032-.072Z" clip-rule="evenodd"/><path fill="#009B3A" d="M11.167 8.73c-.075.113-.198.281-.262.401-.041-.138-.124-.352-.173-.48.057.102.128.248.188.33.079-.06.172-.176.247-.25Z"/><path fill="currentColor" fill-rule="evenodd" d="m10.731 8.653.003-.002.051.095c.045.083.093.174.136.234a1.099 1.099 0 0 0 .163-.163c.029-.031.057-.062.082-.087l.003.002-.07.103a3.429 3.429 0 0 0-.192.298l-.002.004-.002-.004a7.488 7.488 0 0 0-.164-.458l-.008-.022Zm.013.024c.05.128.123.32.162.45a3.53 3.53 0 0 1 .19-.294l.059-.086a1.662 1.662 0 0 0-.068.073l-.04.044c-.043.045-.086.09-.126.12h-.002a2.31 2.31 0 0 1-.137-.237 8.974 8.974 0 0 0-.038-.07Z" clip-rule="evenodd"/><path fill="#009B3A" d="M10.961 9.064 11 8.641l-.117.4.027.083.052-.06Z"/><path fill="currentColor" fill-rule="evenodd" d="m10.996 8.64.004.001-.037.424h-.002l.001.001-.055.063-.027-.087.116-.401Zm-.037.424.036-.404-.111.382.025.08.05-.058Z" clip-rule="evenodd"/><path fill="#009B3A" d="M11.171 8.738c-.064.123-.172.31-.225.435a5.506 5.506 0 0 0-.214-.45c.068.09.15.225.218.3.075-.072.15-.2.221-.282"/><path fill="currentColor" fill-rule="evenodd" d="m10.73 8.725.004-.002a3.342 3.342 0 0 1 .108.155c.037.054.074.106.108.143a.929.929 0 0 0 .11-.135l.02-.026c.028-.04.056-.08.084-.113l.005-.01.004.003a.04.04 0 0 0-.002.003h.001a.556.556 0 0 0-.005.006l-.067.127a3.958 3.958 0 0 0-.152.299l-.002.004-.002-.005a5.51 5.51 0 0 0-.214-.45Zm.426.038c-.024.03-.049.064-.074.1l-.019.025a.957.957 0 0 1-.112.137l-.002.001v-.001a1.527 1.527 0 0 1-.137-.185l-.066-.095c.062.12.15.3.2.424.036-.083.096-.194.15-.295l.06-.11Z" clip-rule="evenodd"/><path fill="#009B3A" d="m10.95 9.102-.131-.398.049.42.056.06.022-.082"/><path fill="currentColor" fill-rule="evenodd" d="M10.817 8.704h.003l.132.397h-.004l-.125-.38.046.402.054.057.021-.08.004.002-.023.085-.06-.062-.048-.421Z" clip-rule="evenodd"/><path fill="#009B3A" d="M11.153 8.772c-.045.135-.12.338-.15.477-.075-.12-.207-.293-.285-.402.079.08.184.195.262.252.06-.087.12-.225.173-.327Z"/><path fill="currentColor" fill-rule="evenodd" d="M11.07 8.94a1.414 1.414 0 0 1-.089.158v.001h-.002a1.144 1.144 0 0 1-.132-.118 5.648 5.648 0 0 1-.068-.07l-.002-.002-.044-.045.05.068c.073.1.161.219.219.31.023-.107.072-.25.114-.372l.027-.076a1.309 1.309 0 0 0-.037.075l-.035.071Zm.032-.073.049-.097.003.001-.034.1a3.74 3.74 0 0 0-.116.376v.005L11 9.248a5.708 5.708 0 0 0-.22-.314l-.065-.087.003-.003a5.875 5.875 0 0 1 .13.134c.046.045.091.088.13.116.03-.043.06-.098.088-.156l.035-.07Z" clip-rule="evenodd"/><path fill="#009B3A" d="m11.063 9.131-.14-.39.06.42.057.053.023-.083Z"/><path fill="currentColor" fill-rule="evenodd" d="M10.921 8.742h.004l.139.39h-.002.002l-.024.086-.058-.055-.06-.42Zm.139.39-.132-.372.057.4.054.05.021-.078Z" clip-rule="evenodd"/><path fill="#009B3A" d="M11.153 8.813c-.045.134-.12.34-.15.476a5.3 5.3 0 0 0-.285-.394c.079.075.184.188.262.248.06-.087.12-.23.173-.33Z"/><path fill="currentColor" fill-rule="evenodd" d="M11.072 8.984c-.03.059-.06.116-.09.16v.001l-.002-.001c-.056-.042-.123-.11-.186-.172l-.058-.057c.082.104.196.257.266.369.024-.106.075-.254.117-.377l.024-.071a6.535 6.535 0 0 0-.072.148Zm.081-.172h-.001c-.017.031-.034.067-.052.104l-.032.066a1.31 1.31 0 0 1-.088.158 2.18 2.18 0 0 1-.183-.17l-.077-.076-.003.002c.082.105.21.274.285.394l.002.004.001-.005c.024-.106.075-.256.118-.38l.032-.096h-.002Z" clip-rule="evenodd"/><path fill="#009B3A" d="m11.062 9.199-.18-.364.105.405.064.045.015-.086"/><path fill="currentColor" fill-rule="evenodd" d="m10.88 8.836.003-.001.18.364-.003.001-.172-.347.1.387.061.043.015-.084h.003l-.015.09-.067-.047-.105-.406Z" clip-rule="evenodd"/><path fill="#009B3A" d="M11.138 8.848c-.027.138-.075.356-.094.495a4.954 4.954 0 0 0-.326-.353c.086.064.202.165.289.206.048-.093.09-.243.13-.348Z"/><path fill="currentColor" fill-rule="evenodd" d="M11.077 9.026a1.35 1.35 0 0 1-.069.17v.002l-.002-.001a.92.92 0 0 1-.145-.095l-.067-.052-.056-.044c.09.09.224.23.305.33.013-.094.04-.223.063-.34l.026-.13a3.795 3.795 0 0 0-.055.16Zm.06-.18h-.001c-.015.038-.03.082-.046.128l-.017.05a1.377 1.377 0 0 1-.067.169.93.93 0 0 1-.143-.094l-.067-.052a3.667 3.667 0 0 0-.077-.06l-.003.003c.09.09.24.244.326.353l.003.003v-.004c.014-.095.04-.227.065-.345l.03-.15h-.002Z" clip-rule="evenodd"/><path fill="#009B3A" d="m11.078 9.256-.098-.408.015.423.053.064.03-.075"/><path fill="currentColor" fill-rule="evenodd" d="M10.978 8.847h.004l.097.408-.003.001-.094-.39.015.404.05.061.029-.072.003.001-.031.078-.055-.066-.015-.425Z" clip-rule="evenodd"/><path fill="#009B3A" d="M11.138 8.887c-.015.146-.045.367-.045.506a6.406 6.406 0 0 0-.357-.304c.09.053.214.135.304.165.038-.097.068-.255.098-.364"/><path fill="currentColor" fill-rule="evenodd" d="M11.135 8.894v-.006h.005v.004l-.001.002-.012.11a4.016 4.016 0 0 0-.032.39V9.4l-.004-.004a6.399 6.399 0 0 0-.356-.303l.003-.003a4.384 4.384 0 0 1 .151.09.897.897 0 0 0 .15.074c.019-.048.035-.111.051-.176l.014-.06.031-.123Zm-.002.024-.025.1-.014.06a1.577 1.577 0 0 1-.052.178v.002h-.002a.894.894 0 0 1-.152-.075 4.308 4.308 0 0 1-.08-.047l-.006-.004-.044-.027c.097.079.242.197.333.285 0-.106.018-.257.032-.387l.01-.085Z" clip-rule="evenodd"/><path fill="#009B3A" d="m11.081 9.286-.259-.293.195.356.075.023-.011-.086Z"/><path fill="currentColor" fill-rule="evenodd" d="m10.82 8.994.003-.002.26.293h-.002.002l.011.09-.078-.024-.196-.357Zm.259.293-.247-.28.186.341.072.022-.011-.083Z" clip-rule="evenodd"/><path fill="#009B3A" d="M11.145 8.941c-.015.143-.045.364-.049.503-.098-.094-.259-.225-.356-.308.094.053.217.14.303.17.042-.098.068-.256.102-.365Z"/><path fill="currentColor" fill-rule="evenodd" d="M11.098 9.127a1.24 1.24 0 0 1-.053.177v.002h-.002a.9.9 0 0 1-.15-.077 6.161 6.161 0 0 1-.059-.035l-.078-.047.058.048c.092.077.204.17.28.243.003-.102.02-.248.035-.374l.011-.104-.032.125-.01.042Zm.046-.187h-.001a1.673 1.673 0 0 0-.038.145l-.01.04a1.27 1.27 0 0 1-.053.176.913.913 0 0 1-.147-.075c-.02-.011-.04-.024-.059-.036a2.951 2.951 0 0 0-.096-.057l-.002.003.074.062c.093.078.207.173.282.246l.004.003v-.004c.002-.103.02-.25.034-.378l.014-.125h-.002Z" clip-rule="evenodd"/><path fill="#009B3A" d="M11.111 9.352 10.913 9l.123.401.064.042.011-.087"/><path fill="currentColor" fill-rule="evenodd" d="M10.91 9h.005l.199.353-.003.001-.19-.337.118.384.06.04.011-.084h.004l-.012.09-.066-.044-.124-.401Z" clip-rule="evenodd"/><path fill="#009B3A" d="M11.156 9c-.011.143-.03.365-.03.507a4.384 4.384 0 0 0-.368-.285c.098.045.225.124.312.15.037-.101.06-.262.086-.375"/><path fill="currentColor" fill-rule="evenodd" d="M11.119 9.19a1.314 1.314 0 0 1-.048.183v.002h-.002a.982.982 0 0 1-.195-.092 3.091 3.091 0 0 0-.096-.05c.12.085.235.175.346.27a7.014 7.014 0 0 1 .028-.481l-.02.1-.013.068Zm.038-.19v-.003h-.003c-.009.036-.017.08-.025.123l-.014.068a1.333 1.333 0 0 1-.046.181 1 1 0 0 1-.193-.09 2.559 2.559 0 0 0-.117-.06l-.002.004c.128.088.25.184.368.285l.003.003v-.004c0-.13.015-.325.027-.467 0-.014.002-.027.003-.04h-.001Z" clip-rule="evenodd"/><path fill="#009B3A" d="m11.137 9.42-.247-.31.18.367.067.03V9.42Z"/><path fill="currentColor" fill-rule="evenodd" d="m10.888 9.11.003-.002.248.312v.09l-.07-.032-.18-.368Zm.011.014.172.352.065.028v-.083l-.237-.297Z" clip-rule="evenodd"/><path fill="#009B3A" d="M11.16 9.068c-.011.143-.03.364-.026.506a5.136 5.136 0 0 0-.371-.285c.097.05.225.124.315.15.037-.1.056-.262.082-.375"/><path fill="currentColor" fill-rule="evenodd" d="M11.124 9.257a1.21 1.21 0 0 1-.045.184l-.001.001h-.002a.972.972 0 0 1-.155-.067 6.18 6.18 0 0 1-.078-.04c-.02-.012-.04-.022-.06-.032.104.074.253.183.348.268-.003-.133.013-.33.024-.471v-.01a3.807 3.807 0 0 0-.03.167Zm.036-.188.001-.004h-.003a2.921 2.921 0 0 0-.037.191 1.211 1.211 0 0 1-.045.182.981.981 0 0 1-.153-.066l-.078-.041a4.2 4.2 0 0 0-.082-.043l-.002.003c.105.075.27.195.37.285l.004.003v-.004a5.27 5.27 0 0 1 .024-.475l.002-.031Z" clip-rule="evenodd"/><path fill="#009B3A" d="m11.156 9.473-.168-.375.094.412.06.049.014-.086Z"/><path fill="currentColor" fill-rule="evenodd" d="m10.986 9.099.003-.001.17.375-.016.09-.063-.051-.094-.413Zm.008.017.09.394.056.046.014-.082-.16-.358Z" clip-rule="evenodd"/><path fill="#009B3A" d="M11.163 9.11c.008.146.008.367.023.51a5.03 5.03 0 0 0-.39-.233c.097.034.229.09.322.105.027-.109.03-.266.045-.383Z"/><path fill="currentColor" fill-rule="evenodd" d="M11.147 9.304a1.366 1.366 0 0 1-.027.189v.001h-.002a.975.975 0 0 1-.16-.046l-.08-.029a5.777 5.777 0 0 0-.06-.022c.125.068.247.14.366.219-.01-.091-.013-.213-.016-.328a9.35 9.35 0 0 0-.005-.156 4.093 4.093 0 0 0-.016.172Zm.016-.194h-.002c-.005.04-.009.088-.013.135l-.005.059a1.4 1.4 0 0 1-.026.186.978.978 0 0 1-.158-.045 5.32 5.32 0 0 1-.079-.029c-.03-.011-.058-.022-.084-.03l-.001.003c.133.071.263.149.39.232l.003.002V9.62c-.01-.091-.013-.215-.017-.33a4.497 4.497 0 0 0-.006-.18h-.002Z" clip-rule="evenodd"/><path fill="#009B3A" d="m11.186 9.457-.311-.214.262.293.075.003-.026-.082Z"/><path fill="currentColor" fill-rule="evenodd" d="m10.873 9.246.003-.003.311.214v.001h.001l.027.085-.078-.004-.264-.293Zm.312.214-.298-.205.251.28.072.004-.025-.08Z" clip-rule="evenodd"/><path fill="#009B3A" d="M11.175 9.124c.011.146.026.368.049.506a5.332 5.332 0 0 0-.405-.217c.101.03.236.082.33.094.019-.11.015-.267.026-.383Z"/><path fill="currentColor" fill-rule="evenodd" d="M11.166 9.317a1.557 1.557 0 0 1-.015.19h-.002a.965.965 0 0 1-.163-.04l-.073-.023a4.673 4.673 0 0 0-.074-.024c.112.056.276.139.382.206a6.308 6.308 0 0 1-.044-.446l-.002-.034a3.38 3.38 0 0 0-.007.133c0 .013 0 .026-.002.038Zm-.002-.038a2.32 2.32 0 0 1 .01-.156h.003l.004.057c.01.142.025.327.045.45v.003l-.003-.002a5.521 5.521 0 0 0-.405-.217l.001-.004.096.03.072.024a.977.977 0 0 0 .16.04c.01-.054.013-.12.016-.187l.001-.038Z" clip-rule="evenodd"/><path fill="#009B3A" d="m11.224 9.537-.263-.3.2.36.07.027-.01-.087"/><path fill="currentColor" fill-rule="evenodd" d="m10.959 9.238.003-.002.263.3-.003.003.01.088-.074-.028-.199-.36Zm.261.3-.25-.286.19.344.068.025-.01-.083h.002Z" clip-rule="evenodd"/><path fill="#009B3A" d="M11.198 9.18c.018.143.037.364.07.503-.112-.064-.3-.142-.412-.191.102.022.24.067.33.075.015-.113.008-.27.012-.386Z"/><path fill="currentColor" fill-rule="evenodd" d="M11.197 9.18h-.001c-.002.039-.002.082-.002.127v.067c0 .068-.002.134-.01.19a1.08 1.08 0 0 1-.158-.032 7.148 7.148 0 0 1-.057-.014l-.112-.029-.002.004.043.018c.113.049.27.117.37.173l.004.002-.001-.004a3.213 3.213 0 0 1-.056-.373 7.213 7.213 0 0 0-.016-.13h-.002Zm.002.024v.103l-.001.067c0 .068-.002.136-.01.192v.002h-.002a1.065 1.065 0 0 1-.161-.032l-.057-.015a3.83 3.83 0 0 0-.092-.023l.024.01c.111.048.266.115.366.17a3.53 3.53 0 0 1-.055-.369 10.085 10.085 0 0 0-.012-.105Z" clip-rule="evenodd"/><path fill="#009B3A" d="m11.273 9.59-.312-.222.263.3.075.004-.026-.083Z"/><path fill="currentColor" fill-rule="evenodd" d="m10.96 9.37.002-.003.312.222.027.085-.079-.003-.262-.301Zm.013.01.251.287.072.003-.025-.079-.298-.212Z" clip-rule="evenodd"/><path fill="#009B3A" d="M11.21 9.241c.025.143.063.364.1.499-.116-.056-.307-.116-.423-.154.105.011.243.045.337.038.008-.109-.011-.263-.015-.383Z"/><path fill="currentColor" fill-rule="evenodd" d="M11.208 9.24h-.002l.008.136.004.06c.004.066.007.13.004.184a.78.78 0 0 1-.163-.011 2.237 2.237 0 0 0-.173-.026v.003a7.2 7.2 0 0 0 .026.009c.117.038.29.093.397.145l.004.002-.002-.004a5.515 5.515 0 0 1-.087-.425l-.014-.074h-.002Zm.003.026.007.11.004.059c.004.067.007.133.003.187v.002h-.002a.775.775 0 0 1-.165-.012L11 9.602c-.033-.004-.065-.01-.094-.013l.008.002c.116.038.286.092.394.144a5.615 5.615 0 0 1-.087-.42l-.009-.05Z" clip-rule="evenodd"/><path fill="#009B3A" d="m11.31 9.634-.263-.308.195.364.075.03-.008-.086Z"/><path fill="currentColor" fill-rule="evenodd" d="m11.045 9.328.004-.002.262.308.008.09-.078-.031-.196-.365Zm.012.014.186.348.072.028-.007-.082-.251-.294Z" clip-rule="evenodd"/><path fill="#009B3A" d="M11.223 9.278c.042.14.098.357.15.488a4.8 4.8 0 0 0-.434-.098c.104 0 .243.012.337-.003 0-.113-.037-.267-.053-.383"/><path fill="currentColor" fill-rule="evenodd" d="M11.223 9.282a.04.04 0 0 0-.002-.004h.004l.035.121c.036.125.076.269.115.366l.002.003h-.004a4.798 4.798 0 0 0-.435-.098v-.004l.099.002.074.002c.06 0 .116 0 .163-.007 0-.056-.01-.122-.02-.188l-.011-.063a2.968 2.968 0 0 1-.021-.13Zm.005.017a3.48 3.48 0 0 0 .03.175c.01.067.02.134.02.19v.002h-.002a1.003 1.003 0 0 1-.165.008l-.074-.002-.078-.002c.12.022.294.057.411.092a4.138 4.138 0 0 1-.113-.362l-.03-.101Z" clip-rule="evenodd"/><path fill="#009B3A" d="m11.325 9.635-.364-.075.342.168.07-.026-.052-.067"/><path fill="currentColor" fill-rule="evenodd" d="m10.96 9.561.001-.003.364.075v.003l.051.067-.074.027-.342-.169Zm.36.074-.345-.07.327.161.068-.025-.05-.065Z" clip-rule="evenodd"/><path fill="#009B3A" d="M11.25 9.322c.038.139.094.353.143.484a4.457 4.457 0 0 0-.432-.097c.105 0 .244.01.338 0 0-.113-.038-.27-.049-.387Z"/><path fill="currentColor" fill-rule="evenodd" d="M11.25 9.323h-.002c.005.046.013.098.022.151l.007.044c.01.067.02.134.02.19a1.239 1.239 0 0 1-.163.003l-.062-.001-.11-.003-.001.004c.12.022.311.06.431.097l.004.001-.002-.003a5.911 5.911 0 0 1-.142-.484h-.002Zm.005.024c.004.039.011.082.018.126l.008.044c.01.068.02.136.02.192v.002h-.002a1.227 1.227 0 0 1-.227.002l-.09-.002c.12.023.294.058.408.093a5.97 5.97 0 0 1-.131-.442l-.005-.015Z" clip-rule="evenodd"/><path fill="#009B3A" d="m11.382 9.673-.345-.17.307.252.075-.007-.037-.075Z"/><path fill="currentColor" fill-rule="evenodd" d="m11.035 9.505.002-.003.346.169.039.078-.079.008-.308-.252Zm.015.007.294.24.072-.006-.036-.072-.33-.162Z" clip-rule="evenodd"/><path fill="#009B3A" d="M11.231 9.346c.068.127.169.326.244.438-.128-.007-.323 0-.443 0 .101-.018.24-.037.326-.075-.026-.108-.09-.25-.127-.363Z"/><path fill="currentColor" fill-rule="evenodd" d="m11.23 9.346.002-.001.035.066c.065.123.146.278.21.372l.001.003h-.003a4.67 4.67 0 0 0-.313-.001l-.13.001v-.003l.06-.011.108-.02a.83.83 0 0 0 .156-.044 1.633 1.633 0 0 0-.059-.178l-.018-.048c-.018-.047-.036-.094-.05-.136Zm.01.022.043.113.018.047c.024.063.046.126.06.18v.002l-.002.001a.822.822 0 0 1-.158.045 4.034 4.034 0 0 1-.148.026l.108-.001a4.79 4.79 0 0 1 .31.001 4.907 4.907 0 0 1-.207-.37l-.024-.044Z" clip-rule="evenodd"/><path fill="#009B3A" d="m11.437 9.71-.36-.098.338.188.067-.019-.049-.075"/><path fill="currentColor" fill-rule="evenodd" d="m11.077 9.614.001-.004.355.096.002-.001.002.003h.001l.047.074-.07.02-.338-.188Zm.358.097-.343-.093.323.18.065-.018-.045-.07Z" clip-rule="evenodd"/><path fill="#009B3A" d="M11.265 9.401c.072.124.173.323.252.435-.128-.007-.323 0-.443.008.098-.026.24-.045.323-.083-.023-.108-.09-.25-.128-.36"/><path fill="currentColor" fill-rule="evenodd" d="m11.273 9.42-.01-.017.004-.002v.002l.004-.001a.821.821 0 0 0 .005.017l.064.114c.058.107.123.226.178.303l.002.003h-.004a4.31 4.31 0 0 0-.442.008v-.004c.034-.01.073-.018.114-.026l.052-.011a.835.835 0 0 0 .154-.045 1.218 1.218 0 0 0-.058-.178l-.023-.058-.04-.105Zm.012.02c.01.027.02.055.032.083l.023.059c.024.062.047.125.058.18v.001l-.001.001a.827.827 0 0 1-.156.046 5.728 5.728 0 0 1-.148.032 4.2 4.2 0 0 1 .42-.007 3.926 3.926 0 0 1-.177-.3 12.973 12.973 0 0 0-.051-.094Z" clip-rule="evenodd"/><path fill="#009B3A" d="m11.479 9.74-.334-.199.293.278h.074l-.033-.08Z"/><path fill="currentColor" fill-rule="evenodd" d="m11.144 9.542.002-.003.334.199-.001.001h.001l.035.081h-.078l-.293-.278Zm.333.199-.319-.19.28.265h.071l-.032-.075Z" clip-rule="evenodd"/><path fill="#009B3A" d="M11.295 9.43c.079.117.199.3.285.41a3.378 3.378 0 0 0-.435.063c.098-.037.232-.075.315-.124-.038-.105-.116-.243-.165-.348Z"/><path fill="currentColor" fill-rule="evenodd" d="M11.295 9.432h-.002c.017.037.038.078.059.12l.028.055c.03.06.059.12.077.173a.936.936 0 0 1-.15.065 5.18 5.18 0 0 1-.163.057l.001.004c.144-.03.289-.052.435-.064h.003l-.002-.003c-.07-.087-.16-.223-.234-.333a13.553 13.553 0 0 0-.05-.075h-.002Zm.012.021.048.097.028.055c.03.061.06.122.079.175v.001l-.001.001a.93.93 0 0 1-.152.066 5.13 5.13 0 0 1-.14.05c.134-.028.27-.048.407-.06a5.976 5.976 0 0 1-.232-.33l-.037-.055Z" clip-rule="evenodd"/><path fill="#009B3A" d="m11.505 9.77-.36-.012.356.109.064-.042-.06-.056Zm.21-1.748.259-.042-.259.004-.045.023.045.015Z"/><path fill="currentColor" fill-rule="evenodd" d="M11.974 7.978v.003l-.26.042-.049-.017.05-.025.259-.003Zm-.258.007-.041.02.04.014.233-.037-.232.003Zm-.571 1.774v-.004l.36.011v.002l.001-.001.062.058-.066.043-.357-.11Zm.36.011-.346-.01.342.104.061-.04-.058-.054Z" clip-rule="evenodd"/><path fill="#009B3A" d="M11.857 8.078c-.075-.022-.187-.06-.266-.075l.277-.13c-.056.037-.142.082-.187.12.045.03.124.06.176.085Z"/><path fill="currentColor" fill-rule="evenodd" d="M11.597 8.002c.06.012.14.037.207.058l.03.01a2.858 2.858 0 0 0-.069-.032.651.651 0 0 1-.085-.045l-.002-.001.002-.002a.774.774 0 0 1 .115-.075l.048-.029-.246.116Zm.26.076v.002a2.204 2.204 0 0 0-.266-.075l-.006-.001.283-.134.002.003a1.793 1.793 0 0 1-.098.06.8.8 0 0 0-.088.059.676.676 0 0 0 .083.043l.03.013.061.028v.002Z" clip-rule="evenodd"/><path fill="#009B3A" d="m11.7 8.03.255-.068-.262.034-.038.026.049.007"/><path fill="currentColor" fill-rule="evenodd" d="M11.954 7.959v.004l-.251.066v.001H11.7l-.05-.008.041-.03.263-.033Zm-.253.067.225-.06-.233.03-.034.024.042.006Z" clip-rule="evenodd"/><path fill="#009B3A" d="M11.869 8.095a2.986 2.986 0 0 0-.311-.026c.067-.06.157-.154.213-.214-.037.057-.097.128-.123.18.06.027.153.042.22.06Z"/><path fill="currentColor" fill-rule="evenodd" d="M11.563 8.069a2.8 2.8 0 0 1 .278.022l-.048-.01-.038-.01a.675.675 0 0 1-.108-.033h-.002l.001-.002a.68.68 0 0 1 .058-.089l.019-.026.033-.045a3.672 3.672 0 0 1-.193.193Zm.306.028v.002a2.985 2.985 0 0 0-.311-.027h-.005l.003-.003a3.82 3.82 0 0 0 .214-.214l.003.003-.047.066-.02.025a.716.716 0 0 0-.056.087c.03.013.067.023.106.032l.038.009.075.018v.002Z" clip-rule="evenodd"/><path fill="#009B3A" d="m11.61 8.047.263-.03-.255-.007-.05.022.038.015"/><path fill="currentColor" fill-rule="evenodd" d="m11.617 8.009.255.007v.004l-.262.03v-.004l.236-.027-.229-.006-.044.02.033.013-.001.004-.042-.017.054-.024Z" clip-rule="evenodd"/><path fill="#009B3A" d="m11.801 8.103-.281-.048.259-.143c-.053.038-.128.09-.165.128.048.022.131.045.187.063Z"/><path fill="currentColor" fill-rule="evenodd" d="m11.525 8.054.25.044-.03-.01a1.224 1.224 0 0 1-.133-.046l-.002-.001.002-.002c.031-.032.09-.074.139-.109l-.226.124Zm.275.05v.002l-.286-.05.263-.145.002.003a2.845 2.845 0 0 0-.013.01c-.05.036-.115.082-.15.116.034.015.084.03.13.045l.055.017v.002Z" clip-rule="evenodd"/><path fill="#009B3A" d="m11.587 8.049.229-.102-.251.068-.03.03h.052"/><path fill="currentColor" fill-rule="evenodd" d="M11.816 7.944v.004l-.228.101-.002-.003h-.056l.034-.034.252-.068Zm-.229.101.206-.09-.227.06-.027.027h.048v.003Z" clip-rule="evenodd"/><path fill="#009B3A" d="M11.794 8.134c-.064-.026-.169-.075-.232-.094l.165-.18c-.03.05-.075.113-.098.165.045.038.113.075.165.11Z"/><path fill="currentColor" fill-rule="evenodd" d="M11.565 8.04c.046.015.112.043.17.068l.039.017-.028-.017a1.064 1.064 0 0 1-.118-.08h-.001v-.002c.017-.04.046-.084.072-.125l.015-.023-.15.163Zm.229.095v.002l-.062-.026a1.79 1.79 0 0 0-.171-.068h-.003l.167-.183.003.003a2.1 2.1 0 0 1-.026.04.951.951 0 0 0-.07.123.835.835 0 0 0 .116.078l.047.03-.001.001Z" clip-rule="evenodd"/><path fill="#009B3A" d="m11.599 8.062.18-.075-.195.023-.022.037.037.015Zm-.15 1.673h-.367l.374.094.06-.038-.067-.056Z"/><path fill="currentColor" fill-rule="evenodd" d="m11.778 7.986.001.004-.18.075-.04-.016.023-.04.196-.023Zm-.193.026-.021.035.034.014.167-.07-.18.021Zm-.504 1.726v-.004h.368l.07.058-.063.04-.375-.094Zm.015 0 .36.09.057-.036-.065-.054h-.352Z" clip-rule="evenodd"/><path fill="#009B3A" d="m11.516 9.758-.375-.086.36.176.075-.022-.06-.068Z"/><path fill="currentColor" fill-rule="evenodd" d="m11.14 9.674.002-.003.375.086v.002-.001l.063.07-.079.023-.36-.177Zm.375.087-.358-.083.345.169.071-.021-.058-.065Z" clip-rule="evenodd"/><path fill="#009B3A" d="m11.58 9.784-.375-.018.375.112.064-.037-.064-.057Z"/><path fill="currentColor" fill-rule="evenodd" d="M11.204 9.766v-.003l.376.018.067.059-.067.04-.376-.114Zm.016.001.36.108.06-.036-.061-.054-.359-.018Z" clip-rule="evenodd"/><path fill="#009B3A" d="M11.344 9.522c.093.105.24.278.34.372a3.95 3.95 0 0 0-.427.101c.09-.045.225-.098.3-.15-.052-.098-.15-.225-.213-.323Z"/><path fill="currentColor" fill-rule="evenodd" d="M11.344 9.523h-.002a4.262 4.262 0 0 0 .111.162c.039.056.076.111.102.16a1.022 1.022 0 0 1-.143.076c-.019.01-.038.018-.058.027-.034.016-.068.031-.097.046l.001.003c.116-.034.304-.082.428-.101h.003l-.002-.003a4.046 4.046 0 0 1-.273-.294 12.771 12.771 0 0 0-.069-.078l-.001.002Zm.016.02.06.088.037.052c.038.056.076.112.102.161l.001.002h-.001c-.038.027-.09.053-.145.079l-.058.026a3.596 3.596 0 0 0-.078.037c.115-.033.286-.077.403-.095a4.629 4.629 0 0 1-.27-.292l-.05-.057Z" clip-rule="evenodd"/><path fill="#009B3A" d="m11.628 9.802-.375-.123.353.21.075-.015-.053-.075"/><path fill="currentColor" fill-rule="evenodd" d="m11.253 9.682.002-.003.372.123.003-.003.055.078-.079.015-.353-.21Zm.376.122v.002l-.36-.118.338.2.071-.014-.049-.07Z" clip-rule="evenodd"/><path fill="#009B3A" d="M11.377 9.543c.105.097.263.251.375.337-.12.034-.3.105-.412.15.086-.052.21-.12.277-.187-.06-.09-.168-.206-.24-.3Z"/><path fill="currentColor" fill-rule="evenodd" d="m11.376 9.544.003-.002.073.069c.097.09.213.2.302.268l.003.003h-.004c-.12.034-.3.106-.412.15l-.002-.003.05-.03.096-.058a.802.802 0 0 0 .13-.098 1.863 1.863 0 0 0-.115-.147l-.023-.028a3.32 3.32 0 0 1-.101-.123Zm.017.016c.026.034.056.07.086.106l.024.028c.044.052.086.103.116.148v.002a.799.799 0 0 1-.132.1l-.097.059-.03.018a4.7 4.7 0 0 1 .388-.14 4.662 4.662 0 0 1-.355-.32Z" clip-rule="evenodd"/><path fill="#009B3A" d="m11.662 9.824-.356.071.375.023.053-.049-.075-.045"/><path fill="currentColor" fill-rule="evenodd" d="M11.66 9.825h.002v.001l.075.045-.055.05-.376-.022v-.004l.354-.07Zm0 .004-.339.067.36.022.05-.047-.071-.042Z" clip-rule="evenodd"/><path fill="#009B3A" d="m11.587 9.804-.367.03.378.063.06-.045-.074-.048"/><path fill="currentColor" fill-rule="evenodd" d="m11.22 9.83.367-.03v.003l.075.048-.063.047-.38-.063V9.83Zm.363-.025-.348.028.363.061.057-.042-.072-.047Z" clip-rule="evenodd"/><path fill="#009B3A" d="m11.655 9.825-.383-.063.375.15.067-.027-.06-.063v.003Z"/><path fill="currentColor" fill-rule="evenodd" d="m11.271 9.763.002-.003.38.063v-.006l.065.07-.07.027-.377-.15Zm.385.063v.002l-.367-.062.358.144.064-.025-.055-.059Z" clip-rule="evenodd"/><path fill="#009B3A" d="m11.719 9.844-.375.007.382.086.06-.04-.067-.053Z"/><path fill="currentColor" fill-rule="evenodd" d="m11.72 9.842.07.054-.063.043-.384-.086v-.004l.376-.007Zm-.36.01.366.083.057-.039-.065-.05-.359.007Z" clip-rule="evenodd"/><path fill="#009B3A" d="M11.464 9.601c.105.098.263.255.371.345-.123.027-.31.09-.423.128.09-.049.217-.109.288-.169-.06-.094-.165-.214-.236-.307V9.6Z"/><path fill="currentColor" fill-rule="evenodd" d="m11.462 9.592.003.004.01.013.103.098c.087.084.184.176.258.238l.003.002-.004.001a4.049 4.049 0 0 0-.4.12l-.023.007-.002-.003.064-.034.088-.046a.887.887 0 0 0 .135-.088 1.93 1.93 0 0 0-.152-.201 5.564 5.564 0 0 1-.073-.091l-.01-.01v-.01Zm.028.036.058.073.04.049c.042.053.083.107.113.154l.001.001-.001.001a.887.887 0 0 1-.138.09l-.087.045-.045.024.004-.001c.112-.038.28-.094.396-.119a5.584 5.584 0 0 1-.256-.235 15.06 15.06 0 0 0-.085-.082Z" clip-rule="evenodd"/><path fill="#009B3A" d="m11.771 9.86-.382-.098.367.187.071-.022-.056-.068Z"/><path fill="currentColor" fill-rule="evenodd" d="m11.388 9.764.001-.003.383.097-.001.002.002-.001.058.07-.075.023-.368-.188Zm.382.098-.366-.093.352.179.068-.021-.054-.065Z" clip-rule="evenodd"/><path fill="#009B3A" d="M11.497 9.618c.113.09.285.233.401.308-.12.04-.292.13-.397.183.082-.063.199-.138.262-.206-.067-.09-.187-.199-.262-.285h-.004Z"/><path fill="currentColor" fill-rule="evenodd" d="M11.492 9.617h.01a.032.032 0 0 0 .01.01l.043.037c.109.087.247.198.344.261l.004.002-.004.001a3.322 3.322 0 0 0-.352.161l-.045.023-.002-.003c.025-.02.053-.04.081-.06l.057-.042c.047-.035.091-.07.123-.103a1.623 1.623 0 0 0-.127-.143l-.029-.028c-.034-.036-.068-.07-.097-.102a5.446 5.446 0 0 1-.012-.01l-.004-.004Zm.035.029.081.084.028.029c.048.05.095.099.129.144v.002a.992.992 0 0 1-.125.105l-.057.042a4.263 4.263 0 0 0-.065.048l.028-.014c.103-.053.244-.124.348-.16a4.55 4.55 0 0 1-.34-.26l-.027-.02Z" clip-rule="evenodd"/><path fill="#009B3A" d="m11.805 9.879-.348.097h.374l.05-.056-.076-.037v-.004Z"/><path fill="currentColor" fill-rule="evenodd" d="M11.807 9.875v.005l.076.038-.05.059h-.376v-.004l.35-.098Zm-.337.098h.36l.047-.054-.074-.037V9.88l-.333.093Z" clip-rule="evenodd"/><path fill="#FEDF00" d="M12.285 9.356 12 9.158l-.285.198.109-.315-.251-.195h.322L12 8.531l.105.315h.323l-.252.195.11.315Z"/><path fill="currentColor" fill-rule="evenodd" d="m12 8.508.111.331h.34l-.265.205.114.332-.3-.21-.299.21.115-.332-.265-.205h.34l.11-.331Zm0 .047-.099.299h-.306l.238.185-.103.298.27-.188.271.188-.103-.298.238-.185H12.1l-.1-.299Z" clip-rule="evenodd"/></g><defs><clipPath id="a"><path fill="#fff" d="M0 0h24v18H0z"/></clipPath></defs></svg>