<svg xmlns="http://www.w3.org/2000/svg" width="24" height="18" fill="none"><g clip-path="url(#a)"><path fill="#20603D" d="M0 0h24v18H0V0Z"/><path fill="#FAD201" d="M0 0h24v13.5H0V0Z"/><path fill="#00A1DE" d="M0 0h24v9H0V0Z"/><path fill="#E5BE01" d="m22.065 4.7-2.01.118 1.91.635-1.97-.407 1.683 1.105-1.8-.905 1.335 1.507-1.503-1.337.905 1.8-1.107-1.683.405 1.968-.633-1.908-.117 2.01-.025-2.927 2.927.025Z"/><path fill="#E5BE01" d="M19.162 5.56a.857.857 0 1 0 0-1.715.857.857 0 0 0 0 1.715Z"/><path fill="#00A1DE" fill-rule="evenodd" d="M19.163 3.887a.815.815 0 1 0 0 1.63.815.815 0 0 0 0-1.63Zm-.9.815a.9.9 0 1 1 1.8 0 .9.9 0 0 1-1.8 0Z" clip-rule="evenodd"/></g><defs><clipPath id="a"><path fill="#fff" d="M0 0h24v18H0z"/></clipPath></defs></svg>