<svg xmlns="http://www.w3.org/2000/svg" width="24" height="18" fill="none"><g fill-rule="evenodd" clip-path="url(#a)" clip-rule="evenodd"><path fill="#199D00" d="M-1.5 0h27v18h-27V0Z"/><path fill="#fff" d="M5.303 5.1c-.028.422-.07 1.16.292 1.238.432.042.193-.731.351-.872.028-.07.081-.07.085.018v.657c0 .211.14.274.246.317.112-.008.19 0 .232.105l.056 1.136s.26.077.274-.637c.01-.422-.084-.77-.028-.85 0-.081.106-.085.176-.046.112.077.162.176.337.14.268-.077.43-.207.433-.411a1.652 1.652 0 0 0-.123-.584c.014-.035-.05-.13-.035-.165.045.078.12.07.133 0-.045-.147-.116-.292-.228-.351-.095-.085-.236-.07-.281.105-.029.2.07.436.214.633.032.074.074.2.056.313-.077.046-.154.024-.221-.042 0 0-.211-.159-.211-.197.056-.359.01-.401-.021-.503-.021-.137-.088-.183-.14-.274-.054-.056-.124-.056-.16 0-.094.162-.048.51.018.668.05.144.123.235.088.235-.028.081-.088.06-.133-.035a2.341 2.341 0 0 1-.074-.612C6.62 4.925 6.6 4.58 6.49 4.49c-.063-.085-.158-.042-.193.035-.01.157-.006.315.01.471.07.26.095.492.13.756.011.355-.203.155-.193-.025a1.582 1.582 0 0 0-.01-.682c-.036-.091-.074-.112-.162-.098-.067 0-.24.186-.288.503 0 0-.043.161-.06.305-.025.162-.13.282-.208-.02-.063-.222-.105-.76-.21-.634h-.004Z"/><path fill="#fff" d="m6.48 6.828-1.125.541c.011-.256.531-.717.89-.72.228.003.172.087.232.179h.003Z"/><path fill="#fff" d="M6.28 7.18c-.59 1.53 1.389 1.744 1.61.063.021-.07.106-.137.12-.024-.046 1.522-1.533 1.624-1.786 1.146a1.473 1.473 0 0 1-.088-.514c-.035-.298-.193-.182-.218.113-.025.165-.018.21-.018.369.078 1.202 1.994.686 2.307-.306.165-.548-.029-.953.06-.953.19.204.456.029.516-.042.025-.035.088-.06.13-.014.148.106.408.056.464-.13.032-.186.057-.376.064-.57-.123.036-.211.06-.222.113l-.025.162c-.01.053-.112.053-.119-.014-.046-.211-.236-.236-.352.088-.073.063-.214.077-.228-.018.017-.218-.07-.246-.246-.144L8.08 5.232c.07 0 .14.053.207-.031-.07-.229-.228-.693-.316-.728-.039-.05-.074-.018-.13-.004-.091.028-.176.106-.148.26.106.661.176 1.164.285 1.829.018.073-.046.175-.13.165-.14-.095-.176-.288-.422-.281-.176 0-.373.193-.397.376a.857.857 0 0 0 0 .432c.123.148.27.134.4.102.106-.046.194-.151.233-.126.024.031.003.383-.503.65-.306.14-.552.169-.682-.08-.081-.16.007-.753-.197-.616Z"/><path fill="#fff" d="M8.801 5.624c.116-.042.678-.689.678-.689l-.084-.07c-.032-.025-.028-.053 0-.077.14-.085.095-.26.025-.345a.341.341 0 0 0-.306.004c-.099.095-.12.246-.042.337.073.035.147.113.098.155-.232.246-.861.671-.787.685.014.021.404.021.414 0h.004ZM5.391 7.91c-.211.337-.229.84-.113.991.064.07.166.102.24.077.133-.056.193-.327.161-.422-.046-.07-.08-.08-.126-.024-.092.19-.13.06-.141-.046-.01-.179 0-.358.028-.534.025-.148 0-.106-.05-.042Zm9.039-.538c-.204-.443-.49-.88-.577-1.044a19.6 19.6 0 0 0-.872-1.266c-.218-.26.359.109-.07-.411l-.313-.264c-.07-.05-.24-.14-.267.007a.908.908 0 0 0 .014.313c.017.07.123.193.175.263a19.881 19.881 0 0 1 1.892 3.042c.091-.046.07-.567.018-.64Z"/><path fill="#fff" d="M13.533 8.843c-.042.045.098.239.281.239.303-.035.57-.204.816-.654.1-.15.164-.32.186-.5.03-.853-.039-1.707-.204-2.545a.52.52 0 0 1 .007-.175c.021-.025.088 0 .123-.06.053-.053-.14-.492-.246-.658-.035-.077-.053-.126-.116.007a.95.95 0 0 0-.105.479c.144 1.002.19 1.877.281 2.879.01.098-.003.239-.07.295a2.82 2.82 0 0 1-.953.693Zm4.096-.004c-.218.127-.218.271-.043.274.303-.035.661-.06.908-.432.086-.175.137-.367.147-.562.044-.84-.011-1.683-.165-2.51-.007-.07-.039-.236-.028-.257.02-.05.12.003.154-.053.05-.053-.256-.446-.365-.615-.035-.078-.05-.127-.116.007a.784.784 0 0 0-.063.478c.161 1.09.28 1.905.305 2.869-.014.091-.017.14-.06.256-.094.12-.2.275-.298.348-.099.07-.31.141-.376.197Z"/><path fill="#fff" d="M17.79 7.864c0-.257.004-.475-.003-.668a1.194 1.194 0 0 0-.106-.475c-.063-.144-.024-.26-.056-.414-.028-.155-.021-.387-.063-.566-.014-.07-.05-.3-.039-.324.018-.05.084 0 .12-.056.049-.053-.176-.633-.289-.798-.038-.074-.116-.05-.204.07-.088.081-.056.26-.02.433.214 1.135.379 2.165.344 3.244-.014.092.316-.274.316-.446Zm-1.607-1.406c-.137-.007-.421-.27-.506-.422a.282.282 0 0 1 .014-.229c.053-.035.13-.07.19-.035 0 0 .06.085.05.095.07.035.105.018.112-.014.003-.053-.021-.084-.021-.14.031-.162.21-.187.281-.085.05.063.07.193.074.281 0 .046-.07-.007-.116 0-.039.014-.05.064-.053.106-.007.116-.021.302-.024.44v.003ZM13.66 8.145c.035-.344-.014-.96-.017-1.163a16.79 16.79 0 0 0-.13-1.568c-.043-.296.12.031.098-.141-.053-.292-.214-.492-.408-.756-.06-.088-.06-.105-.154.021-.106.236-.014.401.014.587.137.605.218 1.16.256 1.712.04.574.046 1.15.014 1.723.106.004.268-.165.327-.415Z"/><path fill="#fff" d="M18.257 7.594c-.242-.408-.605-.844-.703-1.009a23.12 23.12 0 0 0-1.027-1.329c-.298-.316.141-.053-.056-.299-.165-.179-.21-.239-.355-.348-.07-.045-.112-.133-.14.018a2.924 2.924 0 0 0-.008.394c0 .06.064.175.12.246.728.896 1.526 1.81 2.166 2.96.091-.046.06-.563 0-.633h.003Z"/><path fill="#1BA400" d="M7.31 6.845c-.018.032-.056.07-.042.11.024.035.049.045.091.045.039 0 .095.01.106-.01a.127.127 0 0 0 .02-.116c-.042-.106-.154-.064-.175-.029Z"/><path fill="#fff" d="M15.452 12.745c.323.014.534.017.82.05l.337-.036c.372-.035.386.53.386.53 0 .335-.13.352-.295.388-.095.014-.14-.057-.193-.127a.492.492 0 0 1-.247.014c-.137-.007-.27-.007-.404-.018-.14-.01-.218.018-.362.004-.028.046-.07.109-.155.091-.07-.01-.158-.21-.133-.369.053-.112.035-.074.035-.123-1.322-.035-2.654-.095-3.948-.077-1.012.003-2.011.046-3.013.088-.534-.007-.942-.092-1.223-.503.028 0 1.364.074 1.754.05.72-.008 1.382-.068 2.116-.089 1.449.025 2.887.025 4.335.127-.14-.095-.14-.316.07-.373.018-.014.028.11.06.106.173-.01.095.221.06.267ZM9.63 4.757c-.218.626.127 1.315.366 1.248.175.07.281-.26.351-.618.053-.102.088-.113.113-.06-.007.478.035.587.158.731a.4.4 0 0 0 .52.01l.211-.214c.05-.052.113-.052.18-.01.066.06.056.161.196.232.12.049.37.014.43-.088.077-.137.098-.183.133-.232.056-.074.151-.042.151-.018-.01.042-.067.081-.028.158.07.05.084.018.123.007.14-.07.246-.372.246-.372.004-.113-.06-.106-.102-.078l-.109.074c-.07.01-.2.057-.267-.045-.067-.12-.067-.292-.116-.415 0-.007-.091-.194-.007-.204.042.007.13.031.144-.042.042-.074-.091-.282-.186-.387-.081-.088-.194-.099-.303-.007-.077.07-.066.148-.08.221a.345.345 0 0 0 .07.306c.077.148.214.341.169.615 0 0-.081.127-.222.11-.06-.011-.155-.036-.204-.415-.039-.282.007-.682-.112-.869-.046-.116-.078-.225-.183-.031-.028.077-.151.193-.063.429.083.212.107.443.07.667-.053.078-.063.102-.13.176-.092.106-.193.078-.27.039-.071-.046-.127-.07-.163-.229.007-.246.022-.65-.024-.734-.067-.134-.176-.085-.222-.043a1.68 1.68 0 0 0-.404.827c-.063.204-.13.144-.176.063-.112-.106-.123-.939-.26-.802Z"/><path fill="#fff" d="M10.292 6.12c.102-.07.056-.12.204.028.19.338.3.714.323 1.1-.007.092.056.149.088.127.014-.21.53-.506 1.005-.548.07-.018.035-.155.046-.225-.028-.264.148-.503.394-.52.337.049.45.228.457.499-.039.527-.587.615-.893.657-.046.018-.067.039 0 .064l1.287.007.066.035c.007.035-.02.007-.07.091-.07.125-.115.262-.13.404-.383.127-.78.176-1.181.229-.14.07-.211.165-.183.27.05.117.358.236.358.24.06.035.127.123-.017.302-.626-.028-1.114-.295-1.283-.671-.05-.039-.106 0-.14.049-.247.316-.486.598-.904.752a.609.609 0 0 1-.623-.2c-.08-.095-.077-.197-.105-.218-.137.06-1.297.552-1.15.32.282-.3.774-.524 1.203-.82.031-.101.087-.439.256-.548.01 0-.024.197-.02.281 0 .07-.008.095.006.078.032-.018.552-.43.598-.556.049-.07.01-.253.01-.26-.098-.253-.235-.274-.284-.4-.046-.166-.025-.356.07-.412.084-.074.183-.067.278.018a.871.871 0 0 1 .225.418c-.018.053-.141-.035-.176-.01a.564.564 0 0 1 .13.274c.07.288.05.4-.021.587-.232.488-.527.633-.788.815-.007 0-.01.123.085.19.035.035.172.053.33 0 .338-.187.611-.473.784-.819.03-.263.001-.53-.084-.78a8.77 8.77 0 0 1-.222-.577c-.003-.148.007-.197.07-.27ZM6.924 4.763c.147.07.429.039.415-.2l-.008-.11c-.028-.07-.112-.052-.13.019-.007.024.011.063-.01.073-.014.014-.06.007-.06-.06 0-.02-.014-.042-.025-.056-.007-.007-.014-.007-.031-.007-.021 0-.021.004-.032.021-.003.018-.01.036-.01.057 0 .024-.014.031-.028.035-.022 0-.018 0-.036-.007-.007-.01-.017-.014-.017-.035l-.01-.057a.064.064 0 0 0-.036-.02c-.08 0-.088.094-.08.13-.008.006-.011.172.098.217Z"/><path fill="#fff" d="M11.265 6.6c.148.07.503.031.415-.197l-.007-.113c-.031-.07-.112-.052-.13.021-.007.022.01.06-.014.07-.01.015-.06.008-.056-.055a.115.115 0 0 0-.025-.06c-.01-.004-.014-.007-.035-.007-.018 0-.018.007-.028.024a.146.146 0 0 0-.01.057c-.004.02-.015.028-.032.035-.018 0-.014 0-.028-.01-.011-.011-.022-.015-.022-.032l-.01-.057a.058.058 0 0 0-.035-.02c-.081 0-.088.09-.085.126-.003.007-.007.176.106.218h-.004Zm2.531-.76c.148.07.426.04.415-.196l-.007-.113c-.031-.07-.112-.053-.13.018-.007.024.01.063-.014.077-.01.01-.06.003-.056-.063 0-.021-.014-.043-.025-.057-.01-.007-.014-.007-.035-.007-.017 0-.017.007-.028.025l-.01.053c-.004.024-.014.035-.032.035-.018 0-.014 0-.028-.007-.01-.01-.021-.014-.021-.032a.165.165 0 0 0-.01-.06c-.008-.01-.022-.014-.036-.017-.08 0-.088.091-.084.126-.004.007-.007.173.105.218h-.004Zm1.312 1.91c-.257.291-.144.773-.085.878.085.169.152.278.317.362.151.11.27.043.334-.035.151-.158.155-.562.225-.64.05-.147.176-.123.235-.056a.58.58 0 0 0 .218.186c.141.124.31.148.479.036a.568.568 0 0 0 .253-.313c.07-.197.035-1.111.017-1.653l-.147-.755a5.37 5.37 0 0 0-.036-.44c0-.035-.01-.046.025-.042.039.035.042.035.07.046.035.007.07-.06.046-.116l-.352-.654c-.028-.028-.066-.057-.112.007a.256.256 0 0 0-.084.193c.01.155.035.313.045.468l.14.794c.047.563.057 1.027.103 1.593-.007.239-.081.446-.151.478 0 0-.106.06-.176-.007-.053-.021-.26-.348-.26-.348-.106-.095-.176-.07-.25 0-.21.204-.302.576-.446.837-.036.06-.14.105-.253-.004-.289-.397-.12-.96-.155-.816Zm-1.245-3.295c.134.053.225.324.197.457-.028.158-.098.334-.147.313-.057-.02.035-.162-.018-.31-.028-.098-.211-.273-.19-.323-.035-.109.078-.158.158-.14v.003Z"/><path fill="#fff" d="M15.536 7.91c.025-.323-.02-.52-.028-.71-.007-.19-.214-1.638-.256-1.779-.053-.274.2-.035.172-.197-.088-.197-.303-.488-.37-.66-.042-.071-.024-.141-.115-.018a1.486 1.486 0 0 0-.081.675c.218 1.135.44 2.077.404 3.157.106 0 .222-.236.274-.468ZM17.8 4.911c.123.06.194.398.18.493-.025.175-.088.365-.134.34-.053-.02.01-.26-.014-.333-.028-.106-.193-.296-.176-.352-.035-.12.07-.169.144-.148ZM8.811 7.298c.116.046.186.292.176.363-.028.13-.088.27-.134.25-.046-.015.01-.19-.01-.247-.01-.13-.173-.2-.17-.257-.027-.105.071-.123.142-.109H8.81Z"/><path fill="#1B9D00" d="M11.61 7.67c.148.008.222.127.085.176-.141.046-.271.085-.275.282.053.281-.07.183-.14.147-.085-.063-.324-.21-.359-.527-.003-.074.056-.14.151-.14.14.038.352.042.538.063Z"/><path fill="#fff" d="M5.721 4.373c.169.05.18.303.169.376-.025.134-.084.278-.127.26-.049-.017 0-.2-.024-.256-.025-.077-.169-.225-.155-.267-.032-.088.07-.13.137-.113Zm3.372 1.182c-.134.07-.183.28-.102.407.077.106.197.067.21.067.13.014.208-.242.208-.242s.004-.07-.148.066c-.066.01-.07-.014-.087-.049a.316.316 0 0 1 .017-.2c.025-.064-.025-.092-.098-.05Zm.984-1.28c-.07.046-.2.183-.204.337-.003.088-.021.088.035.141.046.063.085.06.169.014a.178.178 0 0 0 .08-.12c.022-.098-.105.05-.119-.063-.028-.105.053-.147.13-.246 0-.07 0-.116-.095-.063h.004Zm.787.14c-.03.128-.05.26-.056.39-.02.1.106.141.159.015.084-.229.084-.327.09-.422-.024-.151-.126-.148-.193.017Zm4.993 2.542c.014-.017.703-.506.703-.506.07-.025.053.253.021.25-.214.206-.46.375-.728.502-.035.025-.067-.186 0-.246h.004Zm.622-.007c.123.06.172.415.158.51 0 .19-.116.337-.165.316-.05-.024.007-.235-.018-.309-.028-.105-.13-.299-.112-.355-.035-.12.063-.183.14-.162h-.003Zm-4.078 1.526a.912.912 0 0 1 .197-.172c.07-.035.133.028.13.024.01.07-.042.13-.025.222.014.035.025.077.092.063a.474.474 0 0 1 .316-.098c.088.003.091.147.035.147-.2.043-.288.099-.432.152-.07.042-.127-.011-.127-.015 0-.003-.038-.038-.014-.13.007-.07-.021-.112-.084-.105-.042.028-.085.042-.106-.01-.01-.036-.014-.057.018-.078Zm4.802.19c.028.035.05.07-.003.133l-.13.113c-.021.035-.035.098.035.116.126.035.422-.158.422-.162.049-.035.035-.105.028-.105-.028-.032-.092-.01-.134-.018-.02 0-.088-.007-.056-.07a.401.401 0 0 0 .056-.102c.018-.042 0-.07-.07-.095-.074-.014-.106-.007-.186 0-.043.007-.057.028-.067.08.003.082.053.078.105.106v.004Z"/><path fill="#259F00" d="M12.426 6.67c-.018.035-.081.035-.14 0-.06-.035-.096-.092-.075-.123.021-.032.081-.032.141 0 .06.031.091.091.074.123ZM9.297 4.785c-.035.011-.084-.02-.106-.07-.02-.05-.01-.091.025-.102.035-.01.081.025.106.07.024.046.01.095-.029.106l.004-.004Z"/><path fill="#209000" d="M15.487 13.184c.33.014.64 0 .967.017.06.053.017.176-.021.169l-.274-.01c-.004-.106-.271-.088-.264.003-.144.018-.274-.004-.422-.01-.042-.053-.035-.148.014-.17Z"/></g><defs><clipPath id="a"><path fill="#fff" d="M0 0h24v18H0z"/></clipPath></defs></svg>