<svg xmlns="http://www.w3.org/2000/svg" width="24" height="18" fill="none"><g fill-rule="evenodd" clip-path="url(#a)" clip-rule="evenodd"><path fill="#0000D6" d="M0 17.831 34.713 0H0v17.831Z"/><path fill="#006000" d="M36 0 .956 18H36V0Z"/><path fill="#FC0" d="M36 0h-1.93L0 17.065V18h1.93L36 .97V0Z"/><path fill="#fff" d="m2.51.32.415 1.213h1.354l-1.094.742.419 1.21-1.094-.742-1.093.745.418-1.21L.742 1.53h1.35L2.51.32Zm6.719 0 .418 1.213H11l-1.096.746.421 1.209-1.1-.745-1.09.748.419-1.209-1.097-.749H8.81L9.23.32Zm0 5.08.418 1.213H11l-1.096.746.421 1.209-1.096-.749-1.09.749.418-1.21L7.46 6.61h1.354l.415-1.21Zm-3.34-2.51.418 1.21h1.35l-1.09.748.415 1.21-1.09-.749-1.097.749.422-1.21L4.12 4.1h1.354l.415-1.21ZM2.51 5.4l.415 1.213h1.354l-1.094.746.419 1.209-1.094-.749-1.093.749.422-1.21-1.1-.748h1.35L2.51 5.4Z"/></g><defs><clipPath id="a"><path fill="#fff" d="M0 0h24v18H0z"/></clipPath></defs></svg>