<svg xmlns="http://www.w3.org/2000/svg" width="24" height="18" fill="none"><g fill-rule="evenodd" clip-path="url(#a)" clip-rule="evenodd"><path fill="#fff" d="M-.75 0h27v18h-27V0Z"/><path fill="#DF0000" d="M-.75 0h27v9h-27V0Z"/><path fill="#fff" d="M5.475 1.507a3.165 3.165 0 0 0 .03 6.195A3.225 3.225 0 0 1 1.508 5.49 3.225 3.225 0 0 1 3.72 1.515a3.085 3.085 0 0 1 1.76-.008h-.005Z"/><path fill="#fff" d="m4.987 4.126.184.562-.487-.345-.48.353.176-.57-.48-.349.596-.007.188-.563.187.563h.593l-.477.356Zm.657 1.95.187.566-.487-.345-.484.349.18-.566-.48-.353.596-.004.184-.566.187.563h.6l-.483.356Zm2.193-.015.184.57-.487-.349-.48.349.176-.566-.48-.35.596-.007.188-.562.187.562h.593l-.477.353Zm.653-1.935.184.566-.488-.345-.48.349.18-.566-.484-.353.6-.004.18-.566.188.563h.6l-.48.356ZM6.754 2.84l.187.57-.487-.35-.484.353.18-.57-.48-.352.592-.004.188-.566.187.562h.6l-.483.357Z"/></g><defs><clipPath id="a"><path fill="#fff" d="M0 0h24v18H0z"/></clipPath></defs></svg>