<svg xmlns="http://www.w3.org/2000/svg" width="24" height="18" fill="none"><g clip-path="url(#a)"><path fill="#006" d="M24 18V0H0v18h24Z"/><path fill="#fff" d="M0 2.749h2.85L0 1.005V0h1.631l3.99 2.43V0h2.246v2.43L11.85 0h1.65v1.005l-2.865 1.744H13.5V5.5h-2.865L13.5 7.25v1h-1.65L7.86 5.824V8.25H5.625V5.824L1.627 8.25H0V7.249L2.85 5.5H0V2.75Z"/><path fill="#CE1126" d="M12.439 0 7.93 2.752h1.08L13.5 0h-1.061ZM13.5 8.25 9.008 5.501h1.08l3.408 2.096v.653h.004ZM4.515 2.752 0 0v.656l3.428 2.096h1.087Zm-.011 2.75L0 8.25h1.076l4.511-2.749H4.5h.004Z"/><path fill="#CE1126" d="M0 3.322h6.098V0h1.32v3.322H13.5v1.613H7.418V8.25h-1.32V4.931H0V3.32v.003Z"/><path fill="#8FC5FF" d="M22.584 9.978c0 2.742-.438 5.703-4.004 7.117-3.55-1.414-3.987-4.375-4.004-7.117h8.008Z"/><path fill="#fff" fill-rule="evenodd" d="M14.483 9.886h8.193v.092c0 1.374-.109 2.816-.672 4.095-.565 1.282-1.585 2.393-3.39 3.108l-.034.014-.034-.014c-1.797-.715-2.813-1.826-3.377-3.109-.564-1.277-.677-2.72-.686-4.093v-.093Zm.186.185c.013 1.339.134 2.713.669 3.927.542 1.23 1.51 2.3 3.242 2.998 1.74-.698 2.713-1.769 3.255-2.998.534-1.214.651-2.588.656-3.927H14.67Z" clip-rule="evenodd"/><path fill="#366CC9" d="M18.58 17.079a5.771 5.771 0 0 0 3.163-2.692h-.337c-.1-.017-3.415-.337-3.819-.505-.336-.118-1.648.118-2.254.337a5.72 5.72 0 0 0 3.247 2.86Z"/><path fill="currentColor" fill-rule="evenodd" d="M17.174 13.76c.18-.008.341-.002.444.034h.003l.002.001c.04.017.127.04.258.064.127.025.289.05.473.078.367.053.822.11 1.267.161.445.051.881.098 1.213.133l.234.025.345.037h.485l-.074.137a5.863 5.863 0 0 1-3.213 2.735l-.031-.087-.03.087a5.813 5.813 0 0 1-3.3-2.906l-.046-.094.098-.035a7.63 7.63 0 0 1 1.872-.369Zm1.406 3.22a5.678 5.678 0 0 0 3.005-2.502h-.186l-.008-.001h-.004l-.01-.002a19.708 19.708 0 0 0-.318-.034l-.245-.026c-.331-.035-.768-.081-1.214-.133a45.51 45.51 0 0 1-1.273-.162 11.52 11.52 0 0 1-.481-.079 1.777 1.777 0 0 1-.291-.074 1.171 1.171 0 0 0-.372-.022 7.999 7.999 0 0 0-1.72.325 5.628 5.628 0 0 0 3.117 2.71Z" clip-rule="evenodd"/><path fill="#5D3100" d="M16.09 15.396h.201c.051 0 .051 0 .068-.05.017-.05.067-.034.1-.017.034.017.102 0 .135-.034.034-.034.034-.034.068 0 .033.034.05.017.084 0 .017 0 .084-.034.1-.084.017-.05.068-.067.085-.034.017.034.05.034.084.034s.034.017.034.067c0 .034 0 .05.084-.017.067.068.084.034.084-.033s0-.337-.034-.354c-.034-.016-.05-.134-.067-.218 0-.168 0-.168-.168-.253 0-.05-.034-.067-.169-.067.017-.017 0-.067-.033-.084-.034-.017-.034-.034 0-.101.033 0 .1 0 .117-.05.034-.034.135-.034.202 0 .068.033.135.033.253 0L17.52 14c.084-.05.1-.068.1-.135 0-.168-.05-.337-.084-.42-.05-.085-.05-.169-.117-.32-.068-.135-.068-.169-.135-.253-.034-.033-.05-.05-.05-.1a.252.252 0 0 0-.085-.169c-.134-.118-.168-.505-.235-.79-.034-.169 0-.556-.067-.623-.118-.084-.169-.067-.253-.101-.067-.084-.084-.236-.151-.387-.084.017-.135.1-.185.134-.05.034-.067.034-.067.118 0 .067-.05.168-.118.303-.067.135-.219.084-.337.27-.235-.287-.235-.37-.252-.455 0-.084-.05-.1-.185-.219v-.252c-.118-.084-.185-.067-.236 0-.05.05-.084.134-.168.168-.034.067-.168.202-.269.387.1 1.514.437 3.029 1.464 4.24Z"/><path fill="currentColor" fill-rule="evenodd" d="M15.156 10.534c.04-.002.09.016.149.059l.003.002v.253l.076.064.007.005c.023.02.043.036.058.051.015.015.026.03.033.046a.125.125 0 0 1 .011.056.47.47 0 0 0 .043.149c.031.065.088.154.2.292a.392.392 0 0 1 .185-.147l.01-.005c.057-.025.105-.046.135-.107.034-.067.063-.126.084-.176a.345.345 0 0 0 .033-.123c0-.042.004-.066.016-.083a.087.087 0 0 1 .023-.021.477.477 0 0 1 .016-.01l.016-.01a.265.265 0 0 0 .037-.033l.013-.013.029-.028a.23.23 0 0 1 .109-.063l.007-.001.002.006c.029.064.048.127.066.185l.01.035a.532.532 0 0 0 .073.164c.027.01.05.015.073.02l.038.01c.039.01.082.028.141.07v.001h.001a.11.11 0 0 1 .023.043c.006.018.01.04.014.064.007.05.01.11.012.173l.002.076c.003.103.006.205.019.271.017.072.032.15.046.228l.002.007c.014.076.028.152.044.224.017.073.036.14.059.198a.34.34 0 0 0 .082.13.26.26 0 0 1 .087.173v.001a.1.1 0 0 0 .011.053c.008.013.02.025.037.042a.497.497 0 0 1 .069.11l.017.039.05.106c.033.074.05.132.064.182l.002.004a.54.54 0 0 0 .051.133h.001c.034.086.085.255.085.425 0 .034-.005.057-.021.078a.308.308 0 0 1-.084.063l-.203.102h-.001c-.119.034-.189.035-.259 0a.256.256 0 0 0-.16-.019.075.075 0 0 0-.03.016c-.01.028-.034.04-.058.048a.25.25 0 0 1-.062.006.412.412 0 0 0-.017.036.074.074 0 0 0-.005.025c0 .006.001.01.004.013a.052.052 0 0 0 .016.011.086.086 0 0 1 .045.074.04.04 0 0 1-.001.01c.06 0 .099.004.124.015a.06.06 0 0 1 .03.024c.006.009.008.02.009.03.04.02.07.036.093.05a.159.159 0 0 1 .052.046.133.133 0 0 1 .02.063.916.916 0 0 1 .003.099l.008.039c.006.032.012.065.02.094.004.02.01.04.016.053.007.015.013.023.019.026a.024.024 0 0 1 .009.009.065.065 0 0 1 .006.013l.009.037c.004.029.008.066.01.105.004.078.004.163.004.196a.206.206 0 0 1-.004.045c-.003.013-.008.024-.017.03-.01.006-.021.005-.034 0a.156.156 0 0 1-.038-.03.496.496 0 0 1-.06.04.035.035 0 0 1-.013.004.017.017 0 0 1-.012-.005.022.022 0 0 1-.006-.01l-.001-.022v-.032a.063.063 0 0 0-.004-.019.009.009 0 0 0-.006-.006.036.036 0 0 0-.015-.003h-.001c-.016 0-.034 0-.05-.005a.062.062 0 0 1-.041-.033.022.022 0 0 0-.013-.012.029.029 0 0 0-.019.001.068.068 0 0 0-.037.043.14.14 0 0 1-.053.066.193.193 0 0 1-.032.017.08.08 0 0 1-.021.007l-.01.005a.385.385 0 0 1-.011.006.08.08 0 0 1-.022.008c-.017.003-.032-.003-.05-.021l-.019-.019c-.005-.004-.007-.004-.008-.004-.002 0-.004 0-.009.004l-.019.019a.157.157 0 0 1-.071.038.11.11 0 0 1-.073-.003.129.129 0 0 0-.053-.016.036.036 0 0 0-.022.006.042.042 0 0 0-.015.022.353.353 0 0 1-.01.03.044.044 0 0 1-.014.018.04.04 0 0 1-.02.007l-.03.001h-.203v-.008l-.006.005c-1.028-1.213-1.365-2.73-1.466-4.245v-.002l.001-.002c.051-.093.11-.174.16-.239l.031-.039.037-.047a.44.44 0 0 0 .041-.062l.002-.003.003-.001a.229.229 0 0 0 .093-.075l.025-.034.01-.014a.408.408 0 0 1 .037-.043c.026-.034.057-.057.098-.06Zm.938 4.852h.227c.006-.001.01-.002.012-.004.003-.002.005-.005.008-.012a.307.307 0 0 0 .01-.028.058.058 0 0 1 .022-.031.054.054 0 0 1 .03-.009.15.15 0 0 1 .061.018.092.092 0 0 0 .062.001.14.14 0 0 0 .063-.033.281.281 0 0 1 .02-.02.03.03 0 0 1 .02-.008.03.03 0 0 1 .019.008.281.281 0 0 1 .02.02c.016.016.026.018.035.016a.06.06 0 0 0 .017-.006l.01-.005a.601.601 0 0 1 .013-.007h.004a.055.055 0 0 0 .017-.006.17.17 0 0 0 .028-.016.121.121 0 0 0 .047-.057.084.084 0 0 1 .048-.054.045.045 0 0 1 .03-.001c.009.003.017.01.022.02a.046.046 0 0 0 .03.025.17.17 0 0 0 .047.004c.009 0 .016.001.023.005a.029.029 0 0 1 .014.015.08.08 0 0 1 .004.024v.032a.091.091 0 0 0 .003.021.02.02 0 0 0 .007-.002.524.524 0 0 0 .061-.043l.006-.004.005.005c.017.017.03.027.04.031.01.005.014.004.017.002.004-.003.007-.008.01-.02a.19.19 0 0 0 .003-.04c0-.034 0-.118-.004-.196a1.008 1.008 0 0 0-.018-.138.045.045 0 0 0-.004-.01.01.01 0 0 0-.003-.002.066.066 0 0 1-.026-.034.36.36 0 0 1-.018-.056 1.637 1.637 0 0 1-.02-.096l-.008-.039v-.002c0-.042 0-.073-.002-.097a.118.118 0 0 0-.018-.056.144.144 0 0 0-.047-.04 1.39 1.39 0 0 0-.096-.052l-.005-.002v-.005a.052.052 0 0 0-.006-.027.044.044 0 0 0-.023-.018.383.383 0 0 0-.13-.014h-.021l.014-.014c.002-.002.004-.006.004-.012a.07.07 0 0 0-.036-.058.066.066 0 0 1-.02-.016.035.035 0 0 1-.01-.024.09.09 0 0 1 .008-.03.45.45 0 0 1 .019-.043l.002-.005h.006c.016 0 .04 0 .062-.006s.04-.017.047-.038v-.002l.002-.002a.09.09 0 0 1 .04-.02.27.27 0 0 1 .172.02c.064.03.129.031.245-.002l.201-.1a.292.292 0 0 0 .08-.059c.013-.017.017-.035.017-.068 0-.167-.05-.334-.083-.417a.554.554 0 0 1-.053-.136l-.002-.005a1.31 1.31 0 0 0-.063-.18 1.445 1.445 0 0 1-.05-.106l-.017-.038a.48.48 0 0 0-.066-.105.267.267 0 0 1-.04-.046.117.117 0 0 1-.013-.06.244.244 0 0 0-.081-.163.358.358 0 0 1-.087-.136 1.357 1.357 0 0 1-.059-.2 5.938 5.938 0 0 1-.045-.225l-.001-.007a5.163 5.163 0 0 0-.046-.227c-.014-.069-.017-.172-.02-.275 0-.026 0-.051-.002-.076a1.683 1.683 0 0 0-.012-.17.369.369 0 0 0-.013-.062.092.092 0 0 0-.018-.035.412.412 0 0 0-.136-.068l-.035-.009a.512.512 0 0 1-.08-.023h-.001l-.002-.002a.527.527 0 0 1-.077-.171 5.056 5.056 0 0 1-.01-.035c-.018-.056-.036-.117-.062-.177a.22.22 0 0 0-.095.058l-.028.027-.013.013a.291.291 0 0 1-.04.034l-.016.01a.38.38 0 0 0-.015.01.07.07 0 0 0-.02.018c-.008.012-.012.03-.012.073a.36.36 0 0 1-.035.13c-.02.05-.05.11-.084.176-.033.067-.086.09-.142.115l-.011.005a.373.373 0 0 0-.184.15l-.006.01-.007-.009a1.523 1.523 0 0 1-.21-.304.486.486 0 0 1-.045-.154v-.001a.117.117 0 0 0-.009-.05.137.137 0 0 0-.03-.041.824.824 0 0 0-.057-.05l-.007-.005-.079-.067-.003-.002v-.252c-.056-.04-.1-.055-.134-.053-.034.002-.062.021-.086.054a.384.384 0 0 0-.046.056l-.026.034a.248.248 0 0 1-.097.08.475.475 0 0 1-.041.06l-.038.049-.03.038a1.84 1.84 0 0 0-.158.235c.101 1.511.437 3.021 1.46 4.23Z" clip-rule="evenodd"/><path fill="#FF0" d="M22.584 9.978c0-1.043-.05-2.053-.034-2.928a10.699 10.699 0 0 0-3.97-.723c-.892 0-2.642.134-3.97.723.033.875-.034 1.885-.034 2.928h8.008Z"/><path fill="#fff" fill-rule="evenodd" d="M18.58 6.234a10.79 10.79 0 0 1 4.004.73l.06.023-.001.065c-.01.487.002 1.011.014 1.562.01.44.02.896.02 1.363v.093h-8.194v-.093c0-.435.012-.861.023-1.273.016-.583.03-1.138.011-1.65l-.002-.063.057-.026c1.347-.596 3.111-.731 4.007-.731Zm3.877.879a10.606 10.606 0 0 0-3.876-.694h-.001c-.875 0-2.572.13-3.876.69.017.5.002 1.045-.013 1.611-.01.382-.02.772-.022 1.165h7.822c-.001-.426-.01-.849-.02-1.26-.01-.531-.022-1.042-.015-1.512Z" clip-rule="evenodd"/><path fill="#CF6200" d="M14.798 11.17c.045.072.124.188.131.255.03-.064.056-.09.06-.131.004-.041.056-.113.038-.158-.02-.044-.03-.074.015-.044.048.033.037.086.03.165-.03.213-.117.255-.132.4.128.3.034.413.173.713.022.012.079-.011.097-.007.075-.053.132-.038.237-.011.105.018.16.093.16.16 0 .068 0 .083.023.12.023.038.064.102.057.147-.012.045.007.071.022.09.015.019-.007.075-.019.101-.01.026-.007.071.045.135.053.068.173.341.173.503 0 .165.011.24.075.27.067.03.086.056.079.123-.008.068.03.436.037.492.008.056.034.045.06.075.026.03.041.064.131.064s.173-.012.225 0a.916.916 0 0 1 .15.348c.02.094.015.218.045.218s.06 0 .053-.113c-.008-.112-.019-.127-.056-.187-.042-.056-.064-.083-.042-.117.023-.033.027-.09.02-.135-.008-.045-.023-.112.052-.022l.116.139c.022.026.03.09.026.142-.004.053.004.075.038.045.03-.026.067.019.048.075-.018.056.008.094.06.113.053.018.075.03.087.067.01.038.056.056.056-.022 0-.075-.03-.244-.053-.296a1.065 1.065 0 0 1-.045-.233c-.007-.068-.015-.082-.045-.094-.03-.011-.06-.037-.063-.067-.004-.03-.03-.042-.05-.042-.018 0-.037-.014-.048-.037-.011-.022-.022-.022-.045-.026-.022-.004-.056.011-.067-.023-.012-.034-.027-.086-.05-.112-.022-.027-.037-.038-.04-.139 0-.098-.004-.113-.038-.146-.034-.034-.082-.128-.105-.165-.019-.038-.041-.079-.041.003 0 .083 0 .128.052.158.053.03.064.03.042.075-.023.045 0 .075.01.105.012.03.027.06 0 .09-.025.03-.052.023-.048-.026 0-.05-.012-.1-.037-.143-.02-.037-.038-.067-.064-.045-.026.023-.049-.003-.03-.022.019-.019.011-.03 0-.041-.011-.012-.019-.027.004-.053.022-.026.022-.037.007-.101a2.906 2.906 0 0 0-.15-.439c-.041-.071-.037-.12.015-.053.053.068.105.132.113.188 0 .06.015.094.033.112.02.02.03.015.038-.033.007-.049.045-.03-.015-.12-.064-.094-.176-.248-.221-.525-.045-.278-.06-.454-.105-.529-.042-.075-.057-.094-.06-.161-.004-.068 0-.143-.03-.195-.03-.053-.053-.06-.057.018-.003.075 0 .255.027.285.026.03.007.11 0 .15-.008.042-.072.09.075.177.056.037.045.082.037.112-.007.034-.019.03-.049-.018a.42.42 0 0 0-.09-.113c-.03-.023-.037-.045-.03-.109.008-.064.015-.105 0-.123-.018-.023-.026-.008-.037.03-.008.033-.015.13-.038.157-.022.026-.022.007-.037-.049s.007-.146.037-.243a.661.661 0 0 0 .023-.338c-.026-.131-.015-.172-.113-.281-.1-.109-.217-.214-.262-.349-.049-.135-.06-.255-.113-.315a.727.727 0 0 0-.172-.161v-.203c0-.049-.023-.075-.079-.067-.056.007-.094.056-.127.12-.038.067-.06.037-.113.15-.052.112-.112.168-.112.292h-.004Z"/><path fill="#CF6200" d="M15.113 12.45c.037.027.071.038.124.012.052-.027.112-.102.187-.027a.474.474 0 0 1 .105.293c0 .097 0 .277.113.375a.461.461 0 0 1 .168.337c.01.13.032.26.064.387a.41.41 0 0 0 .079.15c.034.037.064.135.067.24.004.105-.015.176 0 .228.015.053 0 .098-.037.075-.038-.022-.049-.04-.075-.086-.026-.045-.045-.037-.023.03.023.068.087.128.143.128.056 0 .075.007.112.045.034.033.038.052.098.052.06 0 .071 0 .127.015.057.015.057.011.087 0 .03-.011.063.019.082.075.019.056.075.214.075.259 0 .045 0 .086.03.131.03.045.023.086-.011.06-.034-.026-.038-.019-.06-.011-.023.007-.045-.011-.079-.034-.037-.019-.015-.015-.049-.067-.033-.053-.056-.072-.056-.03 0 .04-.007.086-.034.063-.026-.022-.037-.022-.06 0-.022.023-.03.038-.056-.003-.026-.042-.056-.045-.082-.053-.027-.007-.027-.007-.038-.049-.015-.037-.056-.048-.09-.048-.034 0-.052-.015-.056-.042-.004-.026-.026-.045-.045-.056-.019-.011-.008-.045-.011-.075-.004-.03-.03-.019-.05-.026-.018-.008-.03-.004-.03-.049s-.018-.056-.03-.086c-.014-.034 0-.064.008-.098.008-.037.004-.056-.022-.086-.026-.03-.004-.064-.075-.124s-.105-.007-.128-.15c-.018-.15-.063-.446-.105-.49-.04-.046-.063-.087-.105-.098-.04-.012-.063-.004-.067-.087-.004-.082-.03-.187-.083-.24l-.1-.093c-.027-.02-.038-.06 0-.135.037-.075.022-.177.018-.225a.537.537 0 0 1-.011-.162.384.384 0 0 0-.008-.15c-.011-.033-.03-.045-.007-.075h-.004Zm1.054-1.237a.95.95 0 0 1-.203.195c-.082.06-.187.105-.127.202.056.102.105.113.112.188.015.075.034.142.09.157.06.02.083.008.083.128s0 .172.052.217c.053.045.045.094.068.203.026.112.026.352.093.514.068.16.23.472.21.536-.018.064-.037.112.03.187a.505.505 0 0 1 .124.252c.004.063.015.086.086.063a.255.255 0 0 0 .128-.075c.022-.03.071-.022.135.012.064.037.165.067.225.037.056-.037.082-.09.135-.09.082-.06.112-.18.131-.217.015-.034.004-.034-.03-.068s-.019-.094-.022-.15a.761.761 0 0 0-.102-.277c-.067-.128-.112-.285-.157-.327-.045-.037-.068-.138-.075-.187-.004-.045-.056-.086-.094-.12-.037-.038-.067-.09-.112-.293-.038-.202-.068-.348-.068-.386 0-.037-.007-.037-.041-.052s-.053-.068-.038-.098c.008-.03-.015-.06-.026-.094a.197.197 0 0 1 .023-.135c.022-.037.018-.13-.004-.213-.023-.083-.049-.15-.143-.165-.09-.012-.112-.038-.142-.113a1.512 1.512 0 0 1-.083-.236c-.01-.03-.03-.038-.1.022-.068.06-.095.075-.095.188 0 .071.015.094.038.135.022.037.03.052.045.161.015.109.116.285-.011.386-.128.098-.113.124-.105.192.007.07-.038.116-.057.018-.026-.1 0-.157.068-.206.071-.045.135-.105.09-.169-.049-.063-.068-.213-.075-.285-.008-.07-.015-.093-.056-.037Z"/><path fill="#00B800" d="M15.128 12.695c0 .048.007.1.011.142.004.049.019.15-.019.225-.034.075-.026.113 0 .135h.004c.075-.022.082-.101.064-.139a.139.139 0 0 1 .007-.13c.023-.042.023-.065.004-.095-.022-.03-.022-.03 0-.112.023-.071-.03-.071-.071-.026Zm.75 1.132a2.045 2.045 0 0 1-.068-.386c-.004-.131-.064-.236-.172-.338-.083-.075-.101-.202-.109-.3-.064-.037-.09-.022-.082.053.003.075.082.112.075.229-.015.112-.015.086.037.138.053.053.075.113.049.132-.03.022-.03.063.007.078.041.015.045.06.038.102-.004.037.037.048.056.075.026.03.026.1.004.142-.023.038-.026.105.015.071.037-.037.06-.003.09.053.026.045.052.03.082.019a.371.371 0 0 1-.026-.068h.004Zm.562 1.016c-.022.053-.052.038-.079.012-.026-.027-.056-.027-.044-.075.01-.05.007-.057-.027-.083l-.011-.011h-.038c-.063 0-.067-.015-.104-.053a.287.287 0 0 0-.023-.018v.033c0 .05 0 .038-.045.053s-.037-.049-.049-.086a.131.131 0 0 0-.007-.027c-.053-.007-.113-.063-.128-.123-.022-.068 0-.075.027-.03.026.045.03.056.067.082.038.026.053-.019.038-.071a.221.221 0 0 1 0-.056.09.09 0 0 0-.038-.038c-.075-.034-.052-.037-.049-.097.008-.057-.007-.057-.052-.027-.042.03-.045-.003-.045-.093s-.06-.087-.072-.027c-.014.064-.037.023-.06-.063-.022-.087-.063-.113-.067-.027 0 .072-.023.087-.068.05l.02.134c.022.143.056.09.127.15.071.06.049.094.075.124.026.034.03.052.022.09-.011.034-.022.064-.011.094.015.033.034.045.034.09s.011.037.03.048l.037.004.03-.045c.053-.052.131.004.158.071.026.068.056.083.097.03.042-.052.027-.045.072.004.044.049.06.038.06.038s.044-.015.075.01c.03.027.048.023.105-.06.056-.085-.027-.06-.053-.007h-.004Zm.158-2.4c.018-.127.007-.255.06-.3.052-.048.112-.142.112.057-.007.198-.015.187-.056.232-.037.049-.075.06-.037.135.044.075.048.083.044.199-.007.116-.007.165.038.225.049.056.06.06.075.124.008.063.049.15.101.198.053.05.113.18.117.274.007.094.09.116.165.184.075.064-.02.109-.075.079-.06-.027-.038 0-.072.04-.037.042-.045.05-.075-.022-.03-.07-.127-.116-.176-.135-.049-.018-.086-.093-.127-.168a.224.224 0 0 0-.17-.117.232.232 0 0 1 .023.105c-.019.064-.037.113.03.188a.505.505 0 0 1 .124.251c.004.064.015.086.086.064a.312.312 0 0 0 .128-.075c.022-.03.071-.026.135.011.064.034.161.068.221.034.056-.038.086-.086.139-.086.082-.06.112-.184.127-.218.019-.037.008-.037-.026-.071-.034-.034-.019-.094-.026-.15a.66.66 0 0 0-.098-.274c-.071-.127-.112-.285-.157-.326-.045-.041-.072-.139-.075-.188-.008-.045-.06-.086-.094-.123-.038-.034-.071-.087-.113-.29-.03-.16-.056-.284-.063-.348-.041.068-.072.086-.086.038-.02-.053-.038-.08-.064-.045-.023.037-.03-.03-.03-.06s-.004-.034-.038-.034 0-.045-.015-.135c-.011-.086-.03-.098-.037.007-.015.105-.075.17-.049.192.023.022.011.07-.011.138a.221.221 0 0 0 .003.158c.015.045-.01.135-.022.21-.011.075.049.15.064.026v-.004Zm-1.065-1.042c-.041.004-.075.041-.049.176.019.083-.045.064-.068.023-.022-.042-.04-.128-.09-.203-.045-.075-.022.049-.026.12-.007.071.038.071.079.128.041.06.008.082-.037.082-.046 0-.027.094-.016.158.012.063-.01.075-.045.022-.037-.052-.01-.131-.007-.232.008-.098.015-.075-.052-.098-.064-.026-.053-.037-.027-.094.023-.06.045-.09.015-.116-.026-.03-.022-.049.026-.052.045-.008.027-.042.068-.053.041-.011.06.004.064-.071.007-.064.026-.101.075-.083.03.098.064.248.09.293Zm.589.69c0 .12 0 .169.052.214.053.045.045.093.067.202.027.113.027.353.094.514l.079.176a.33.33 0 0 0 .086-.112c.015-.038-.037-.12-.075-.188-.041-.075.004-.097.045-.187.042-.083-.003-.09-.071-.113-.064-.022-.064-.082-.098-.176-.033-.094-.03-.135-.007-.188.023-.052.008-.093-.038-.105-.048-.01-.037-.045-.018-.105.018-.056.03-.067-.041-.052-.053.015-.068.026-.083.045l.008.075Z"/><path fill="#5D3100" d="M16.792 12.33c-.008.068-.008.105-.026.128-.015.022-.004.056.015.094a.206.206 0 0 1 .011.146c-.015.067.011.112.045.131.034.019.053 0 .041.083a.252.252 0 0 0 .075.206c.041.034.072.09.064.127-.004.034.03.068.071.087.041.018.038.022.038.045 0 .022.015.026.06.037s.082.038.135.105c.052.068.127.098.116.03-.011-.067 0-.12-.068-.15-.07-.037-.123-.206-.15-.322-.033-.12-.123-.274-.176-.304-.007-.082.004-.124-.049-.165a.17.17 0 0 1-.07-.135c0-.038-.027-.09-.053-.105-.023-.011-.034-.037-.034-.075 0-.037-.038-.03-.045.038Z"/><path fill="#00D860" d="M16.481 15.458c.145-.022.286-.062.42-.12.072.049.192.112.244.112-.097.023-.165.012-.187-.007.01.03.045.079.067.082-.097 0-.206-.026-.24-.06-.086.038-.225.045-.3-.007h-.004Zm.188.131c.037.011.225.038.247.038-.06.056-.007.105.094.097-.049.008-.105.026-.067.034.13-.001.26-.026.382-.075-.082.105-.487.206-.656-.094Zm.169.263a.383.383 0 0 1 .232.01c-.064.027-.195.027-.232-.007v-.003Z"/><path fill="currentColor" d="M17.025 15.851c.09-.015.341.045.431-.011-.03.082-.187.094-.244.075-.056-.015-.108-.038-.146-.038.023-.01-.011-.01-.041-.026Z"/><path fill="#00D860" d="M17.115 15.976c.13.002.26-.014.386-.05.075.027.232.068.27.065-.075.044-.218.018-.262 0a.469.469 0 0 1-.394-.015Z"/><path fill="#00D860" d="M17.23 16.012a.51.51 0 0 0 .278-.023c.03.011.098.026.165.026.045.023.102.057.162.064a.712.712 0 0 1-.323-.026.823.823 0 0 0-.341.064.13.13 0 0 1 .06-.102v-.003Z"/><path fill="currentColor" d="M17.115 15.526a.977.977 0 0 0 .488-.056c.06-.026.094.019.03.037-.225.083-.409.113-.536.042-.053-.027-.06-.053.018-.027v.004Z"/><path fill="#00D860" d="M18.457 15.15c-.337.158-.559.207-1.027.06-.041-.01-.075 0-.026.03.048.034.307.102.367.11.06.007.037.03 0 .04-.038.012-.045.038.004.02.049-.02.334-.027.45.033.048.026.06.019.056 0-.004-.019.023-.034.06-.038.037-.003.06-.015.03-.026s-.034-.019-.011-.03c.022-.011.026-.022-.008-.03-.034-.007-.056-.015-.026-.03a.385.385 0 0 1 .113-.03c.007-.022-.008-.086.018-.109Z"/><path fill="currentColor" d="M17.899 15.189c.191.015.547-.075.735-.255a.783.783 0 0 0 .206.09c.049.007.09.052.015.052a.641.641 0 0 1-.225-.052c-.218.134-.471.2-.727.187-.053 0-.064-.022-.004-.019v-.003Z"/><path fill="#00D860" d="M17.329 14.138a.506.506 0 0 0 .334.112.73.73 0 0 0 .243.124c-.1.037-.21.075-.24.109-.045-.045-.105-.038-.12-.06-.045.037-.037.056-.007.075.03.018.247.052.3.037.052-.015.075.03.026.049-.116.037-.345 0-.424-.128-.082-.123-.15-.172-.363-.056-.023-.064-.023-.075-.064-.075s-.12-.056-.06-.056a.7.7 0 0 0 .375-.128v-.003Z"/><path fill="#00D860" d="M17.381 14.422c-.038.008-.139.064-.176.068-.038.007-.101.06-.038.06.071 0 .158-.075.206-.075.05 0 .053-.064.008-.053Zm.214.221c-.026.004-.139.03-.169.03s-.064.004-.06.027c.004.022.011.037-.038.03a.111.111 0 0 0-.093.026c-.011.011-.019.026.026.03s.071.011.124-.015c.052-.026.101-.06.157-.064.056 0 .113-.075.053-.064Z"/><path fill="currentColor" d="M17.437 14.774a.991.991 0 0 0 .368.109c.082-.004.07.034.007.049a.525.525 0 0 1-.412-.12c-.053-.041 0-.06.033-.038h.004Z"/><path fill="#00D860" d="M18.555 14.895a.842.842 0 0 1-.439.015c-.075-.023-.142-.023-.09.026.05.049.21.079.3.056-.322.075-.408.068-.487.057a1.64 1.64 0 0 0-.3-.008.25.25 0 0 1-.143-.018c-.03-.02-.037-.05.05-.038.085.004.097-.011.022-.022-.075-.012-.177.018-.075.082.101.064.319-.004.461.037a.802.802 0 0 0 .716-.16c.015-.012.038-.046-.015-.027Zm-.889-.266c.008.022.008.045 0 .06-.007.015-.003.037.023.015.026-.023.045-.049.075-.034s.101.015.135.008c.03 0 .041-.012-.008-.03a.264.264 0 0 0-.12-.023.156.156 0 0 1-.082-.015c-.023-.011-.026 0-.023.019Z"/><path fill="#00D860" d="M18.134 14.711a.448.448 0 0 1-.138-.037c-.034-.015-.086-.015-.049.037.038.053.199.075.255.053.056-.023.037-.053.09-.015a.35.35 0 0 0 .157.056c.042 0 .057 0 .012-.027-.045-.026-.068-.03-.075-.052-.008-.023-.008-.038.037-.023.045.016.087.038.12.02.034-.02.094-.057.15-.057l.011-.034c-.078-.003-.13.019-.15.027a.23.23 0 0 1-.104.007c-.042-.008-.094-.011-.11-.023-.014-.01-.01-.018.023-.026.034-.007.045-.03 0-.022a.719.719 0 0 1-.247-.015c-.068-.023-.098-.027-.124-.015-.03.011-.026.041.015.045.041.004.139.011.169.041.03.03.03.034-.008.019-.037-.015-.105-.008-.037.041h.003Z"/><path fill="#00D860" d="m18.704 14.633-.015.033c.083 0 .278.02.342.057.064-.05.052-.064.094-.053.04.011.1.023.123.011a.104.104 0 0 1 .068-.007.236.236 0 0 0 .116-.026.375.375 0 0 1 .139-.045c.037 0 .086-.012.015-.023a.53.53 0 0 0-.218.026c-.037.012-.15.023-.213.023-.064 0-.154.03-.23.011-.074-.019-.18-.007-.224-.007h.003Z"/><path fill="currentColor" d="M19.717 14.595c-.131.098-.289.116-.476.131-.056.004-.038.019.007.023.2.022.424-.053.5-.132.022-.022.018-.06-.03-.022Z"/><path fill="#00D860" d="M18.825 14.82c.107.018.212.043.315.076.049-.008.064-.019.053-.038-.012-.018-.015-.037.075-.03h.322c.034-.01.101-.063.131-.063-.078 0-.408.018-.45.015a.136.136 0 0 0-.09.015c-.026.015-.037.022-.075.007-.037-.015-.09-.03-.123-.007-.03.018-.102 0-.158.026Z"/><path fill="#00D860" d="M19.59 14.828c.03-.012.097-.064.131-.068.056-.004.12.019.15.026.03.008.064-.003.045-.026-.019-.022-.004-.067.086-.056.09.011.135.026.225.019.09-.008.124.056.289-.012-.011.068.019.072.049.06.03-.01.067-.01.12.03.052.042.371.042.446.03.075-.015.113.027.056.045-.056.015-.071.042-.056.06.011.02.026.038-.045.03-.071-.007-.082.015-.116.038-.034.022-.045.037-.143.019-.094-.015-.112-.004-.165.003-.052.008-.067.012-.12-.007a.414.414 0 0 0-.236-.011c-.071.026-.12.04-.184.026-.064-.015-.064-.011-.026-.049.038-.037.049-.037.124-.045.075-.007.131-.03.079-.06-.053-.03-.068-.026-.14.008-.07.033-.104.056-.187.015-.075-.045-.112-.038-.169-.023-.056.015-.138-.019-.213-.052Zm.262.13c-.101.016-.127-.048-.232-.037-.034.008-.094.05-.012.042.08-.004.17.037.248.033.079-.003.045-.04 0-.037h-.004Zm-.112.076c.049-.019.157.019.206.011.049-.007.09.019.037.038-.052.018-.16-.03-.213-.015-.053.015-.105-.008-.034-.034h.004Zm-1.05.285c.075 0 .337-.011.438-.225.008-.019.015-.026.046-.004.03.023.153.094.378.113.064.003.131.037.004.03-.128-.008-.326-.045-.394-.087-.112.18-.319.2-.468.195-.094 0-.072-.026 0-.022h-.004Z"/><path fill="#00D860" d="M19.257 15.019a.503.503 0 0 1-.21.138c-.056 0-.221-.01-.263-.026-.041-.015-.09-.011-.034.03a.477.477 0 0 0 .263.056c.064-.015.131-.033.176-.003.045.03.131.082.18.07a.444.444 0 0 1 .188.005c.034.015.09.063.004.037-.087-.026-.154-.007-.195-.022.044.06.142.157.224.157.023 0 .038.038-.003.056.037.02.135.038.187-.01-.015.018-.007.03.015.037.023.007.049.026.008.033-.041.008-.128.015-.154 0a.768.768 0 0 0 .529.102c.045-.008.067-.027 0-.023-.15 0-.158 0-.184-.015-.026-.015-.019-.03.023-.041.037-.011.146-.03.187-.03.041 0 .09-.015 0-.015s-.199 0-.244-.015c-.045-.015-.075-.038-.03-.068.045-.03.094-.022.113-.048-.143 0-.319-.08-.221-.15.022-.015.015-.02-.02-.023a.951.951 0 0 1-.194-.06c-.045-.022-.015-.049.022-.056-.086.015-.255-.03-.367-.113v-.003Zm1.278 0a.597.597 0 0 1-.288.082c-.064 0-.075.023-.023.026.053.004.105.015.128.008.022-.008.037-.008.067.007a.266.266 0 0 0 .165.004.713.713 0 0 1 .203-.026c.041.004.086.004.004-.019a.692.692 0 0 0-.252 0c-.034.008-.123 0-.075-.011a.245.245 0 0 0 .113-.06l-.038-.011h-.004Zm-.037.168a.507.507 0 0 1-.266.102c.09.033.165.127.225.123-.03.02-.064.045-.102.05.06.014.154 0 .233-.046.131.038.3.011.36-.037a.41.41 0 0 1-.236-.072.132.132 0 0 0 .101-.048.494.494 0 0 1-.315-.075v.003Z"/><path fill="#00D860" d="M20.355 15.462a.232.232 0 0 0 .1-.05.825.825 0 0 1-.48-.108c-.093-.082-.093-.019-.03.038a.48.48 0 0 0 .413.12h-.003Zm.232.198c-.038.023-.225.038-.289.023-.063-.015-.086-.008-.075.019.012.026.027.045-.026.037a.519.519 0 0 0-.176.019c-.038.011-.083.045-.004.034.079-.012.15-.03.21-.015s.266.018.308 0c.04-.02.014-.015-.004-.015-.019 0-.03-.012 0-.027a.123.123 0 0 0 .056-.075Zm-1.819-.25a2.24 2.24 0 0 1-.412.108.608.608 0 0 1-.199.06c.03.026.15.052.195.037-.026.03-.086.06-.109.075.072-.01.15.008.188.012a.524.524 0 0 1-.285.06c.022.03.052.06.093.06a.487.487 0 0 1-.236.007c.023.041.041.068.075.075-.071.008-.157.019-.232-.022.056.075.183.097.371.075a.84.84 0 0 0 .39-.14.842.842 0 0 1-.236.005c.13-.036.256-.09.371-.162a.21.21 0 0 1-.12-.037c.115.004.23-.008.341-.038a.251.251 0 0 1-.15-.097c.238.069.49.077.732.022.037-.01.037-.056-.03-.048a1.339 1.339 0 0 1-.42-.057.434.434 0 0 0 .176.075c-.113.034-.27.057-.503-.075v.004Z"/><path fill="#00D860" d="M18.244 15.69c.022-.015.082-.045.108-.075a.306.306 0 0 1-.195-.037.526.526 0 0 0 .2-.06c-.158-.004-.263-.004-.323-.038s-.162-.019-.203-.011c-.041.007-.026.075.143.056a.578.578 0 0 1-.33.049c.018.056.03.112.015.146.09.053.33.116.45.109-.105-.038-.162-.083-.075-.094.086-.011.135-.026.21-.045Z"/><path fill="currentColor" d="M17.973 15.976c.207-.019.488-.023.713-.214.056-.045.094-.03.037.019-.198.153-.44.242-.69.255-.112 0-.165-.053-.06-.064v.004Z"/><path fill="#00D860" d="M19.537 15.627a.781.781 0 0 1-.24.037c-.045-.007-.108-.007-.142.012-.034.018-.038.037.011.037l.139.012a.232.232 0 0 0-.075.063.463.463 0 0 1 .24.038.11.11 0 0 1-.086-.019c.116.127.468.127.524.105a.323.323 0 0 1-.075.045.46.46 0 0 0 .323-.049 1.369 1.369 0 0 1-.18-.007.21.21 0 0 1 .086-.049.505.505 0 0 0-.213.011.15.15 0 0 1 .063-.071c-.172 0-.382 0-.457-.041.12.011.255-.06.311-.06-.094 0-.199-.023-.225-.064h-.004Zm-.435.094a1.629 1.629 0 0 0-.251.075c-.037.019-.071.03.004.03l.026-.008c-.03 0-.064 0-.008-.018.057-.02.132-.057.226-.075l.003-.004Zm-.172.206c.03 0 .161 0 .213-.045.057.037.162.098.226.098.07 0 .063.018.003.026a.45.45 0 0 1-.232-.075c-.079.03-.143.007-.214-.004h.004Zm-1.013.589c.135.052.311.09.443.049.075.063.229.067.311.052a.474.474 0 0 1 .251 0c.09.034.278.037.33.079-.049 0-.15 0-.176.007-.023.008-.011.023.037.045-.15-.007-.408.056-.487.124a.273.273 0 0 1 .255-.161c-.075-.026-.33-.03-.413.022a.251.251 0 0 1-.052-.09c-.135.075-.398-.034-.503-.127h.004Zm-.349-.248a.6.6 0 0 0 .32-.12c.03.026.15.053.277.012-.026.018-.03.056-.019.075a.982.982 0 0 0-.3.075c-.056.026-.218.048-.27.018-.053-.026-.053-.052-.008-.06Z"/><path fill="#00D860" d="M18.146 16.239a.982.982 0 0 0-.3.075l.018.075a1.91 1.91 0 0 1 .657-.068c-.068.004-.192.075-.263.079.173-.011.338.022.383.037.041.008.052.038.019.075-.034.038-.05.03.022.038.068 0 .214-.011.277-.075-.026-.026-.093-.015-.112-.038a.299.299 0 0 0 .116-.07 1.083 1.083 0 0 1-.198-.012c-.038-.011-.068-.023-.02-.049a.283.283 0 0 0 .083-.064c-.082.023-.217.045-.33-.045a.394.394 0 0 0 .176-.01.226.226 0 0 0-.097-.035c.09-.045.262-.082.487.004.105-.007.226 0 .308.019.038-.038.109-.12.15-.139-.262.019-.724-.026-.712-.165-.087.113-.278.173-.36.154-.008.037.026.09.056.112a.968.968 0 0 1-.308.02c.041.037.113.074.158.07-.09 0-.139.02-.21.012Z"/><path fill="#00D860" d="M18.68 16.545c.074 0 .217-.008.28-.071-.026-.026-.093-.015-.112-.038a.3.3 0 0 0 .116-.071c.188-.015.349-.007.428-.03.079-.023.281-.011.319-.023-.177.03-.21.046-.218.075-.008.03.056.05.098.05-.076 0-.177.078-.188.112-.105-.06-.15.011-.165.037a.326.326 0 0 0-.262.049.496.496 0 0 0-.255-.03c.06-.011.048-.053-.038-.06h-.004Zm.84-.514c.06 0 .187.008.236 0a.282.282 0 0 0-.08.056c.15-.018.353-.03.413-.018-.075-.011-.15.037-.187.06-.038.022-.015.037.037.045.053.007.116.045.026.034a1.903 1.903 0 0 0-.318-.008c-.045.008-.068-.015 0-.026a.426.426 0 0 0 .135-.045.524.524 0 0 1-.188 0c-.034-.012-.049-.023-.011-.034.038-.011.011-.019-.026-.015a.414.414 0 0 0-.188.094c.06-.06.113-.113.15-.139v-.004Z"/><path fill="currentColor" d="M18.855 16.134a.375.375 0 0 0 .292.13c.027 0 .083.038.012.042-.184.008-.274-.037-.357-.154-.015-.026.015-.06.053-.018Zm1.095-1.53a1.1 1.1 0 0 0 .442.078c.027 0 .075.027.012.034a.788.788 0 0 1-.465-.086c-.038-.023-.027-.045.01-.026Z"/><path fill="#00D860" d="M20.048 14.601c.15-.003.263 0 .304.038a1.03 1.03 0 0 1 .273-.03c.034.007.076-.011-.007-.03a1.227 1.227 0 0 0-.326-.015c-.06.011-.244.019-.3.011.022 0 .037.008.056.026Zm.578.057c.067-.038.27 0 .33-.027-.042.053.142.057.3.015-.06.038-.192.045-.248.072-.056.026-.09.003-.131-.015a.51.51 0 0 0-.252-.045Z"/><path fill="#00D860" d="M21.255 14.648c-.157.037-.341.037-.3-.015-.06.026-.262-.012-.33.026.075-.041.128-.008.18-.098.034.008.109.012.135-.022.045.011.127.03.15.052.023.027.06-.007.03-.04.075-.027.026.03.195-.012a.793.793 0 0 1 .15-.026 1.037 1.037 0 0 1-.21.135Z"/><path fill="#FF0" d="m18.16 13.915-.034-3.736c0-.168-.084-.134-.084 0v3.702l.118.034Zm1.211-3.937.135 3.937-.017.033h-.084l-.084-3.97h.05Zm1.144 3.33-.067-3.196c0-.1-.084-.084-.084.017l.067 3.18h.084Z"/><path fill="currentColor" fill-rule="evenodd" d="M19.311 9.969h.067l.135 3.947-.02.04h-.097L19.31 9.97Zm.017.017.084 3.954h.07l.014-.028-.134-3.926h-.034Zm1.127.126.068 3.205h-.101l-.068-3.188c0-.027.006-.048.015-.064.008-.015.02-.026.034-.029.014-.003.028.003.038.017a.102.102 0 0 1 .014.059Zm-.084.017c0-.025.005-.043.012-.056.007-.013.016-.019.024-.02.006-.002.014 0 .02.01a.086.086 0 0 1 .012.049l.067 3.188h-.068l-.067-3.171Zm-2.237.05.033 3.746-.134-.038v-3.708a.22.22 0 0 1 .014-.084.09.09 0 0 1 .014-.025.038.038 0 0 1 .02-.013.027.027 0 0 1 .023.006.057.057 0 0 1 .016.023c.008.02.014.05.014.093Zm-.072-.077a.21.21 0 0 0-.013.077v3.695l.101.03-.033-3.725a.233.233 0 0 0-.013-.087.042.042 0 0 0-.01-.016c-.004-.002-.007-.003-.01-.002a.021.021 0 0 0-.01.007.072.072 0 0 0-.012.02Z" clip-rule="evenodd"/><path fill="#fff" d="m18.698 10.635-1.178-.017c-.05.235.235.218.336.168.135.084.236.084.303 0 .101.084.236.067.286 0 .135.118.286 0 .253-.168v.017Zm.084.572h-1.178c-.219.201.05.302.286.168.034.067.168.1.27.05.1.068.235.017.302-.05.118.05.27.067.336-.168h-.016Zm-.034.757h-1.144c-.017.185.219.168.303.117.084.135.286.101.353.017.118.084.219.068.27 0 .117.101.235-.033.218-.134Zm.067.74-1.295-.017c-.067.219.134.253.218.202.034.118.202.084.253 0 .067.05.151.017.185-.034.017.118.168.135.286.034.236.168.454-.034.336-.185h.017Zm1.127-.303h-1.06c.051.202.152.253.32.135.135.134.337.084.387.017.236.185.353-.034.353-.169v.017Zm-.1-.74-1.044-.034c.017.27.27.253.404.152.084.117.252.084.337 0 .117.134.336.05.302-.118Zm.134-.825h-1.11c0 .186.252.287.437.118.05.219.252.152.337.068.134.168.42-.034.336-.169v-.017Zm-.067-.555-1.01.017c0 .168.236.236.32.101.05.084.219.067.27 0 .066.118.167.034.201 0 .118.084.236.034.219-.118Zm1.16.37-1.21-.016c0 .117.117.168.201.117 0 .135.168.169.286.068.067.117.286.134.37 0 .168.151.37.033.337-.169h.017Zm-.016.993h-1.178c0 .168.185.219.303.135.017.134.168.151.252.067.118.118.286.135.387 0 .135.05.253-.067.236-.202Zm-.068.892h-.942c0 .168.202.168.286.084.101.118.236.118.32.034.118.1.32.067.336-.118Z"/><path fill="currentColor" fill-rule="evenodd" d="m19.916 10.273.001.007c.009.078-.017.133-.063.156-.045.022-.104.013-.163-.026a.223.223 0 0 1-.087.054.097.097 0 0 1-.064-.003.12.12 0 0 1-.053-.048.202.202 0 0 1-.133.051c-.051.002-.105-.012-.135-.05-.046.062-.125.077-.194.056a.18.18 0 0 1-.134-.172v-.008l1.025-.017Zm-1.008.033a.164.164 0 0 0 .122.148c.067.02.142.004.182-.06l.007-.011.007.011c.023.039.074.055.127.053.054-.002.105-.022.128-.053l.008-.01.007.01a.11.11 0 0 0 .05.051.08.08 0 0 0 .054.002.212.212 0 0 0 .084-.054l.005-.005.006.004c.057.04.113.048.151.029.037-.019.06-.062.055-.131l-.993.016Zm-1.395.303 1.176.017v-.008l.017-.002c.017.087-.013.162-.067.2-.052.037-.125.037-.193-.018a.174.174 0 0 1-.125.053.246.246 0 0 1-.16-.054.162.162 0 0 1-.128.06.35.35 0 0 1-.177-.062.347.347 0 0 1-.1.027.36.36 0 0 1-.127-.005.164.164 0 0 1-.099-.062c-.023-.033-.031-.079-.018-.14l.001-.006Zm1.18.034-1.166-.017c-.01.054-.002.092.017.12.02.028.052.045.09.055.037.009.08.01.12.005a.322.322 0 0 0 .099-.028l.004-.002.004.003a.338.338 0 0 0 .172.061.15.15 0 0 0 .12-.06l.005-.006.007.005a.23.23 0 0 0 .156.055.153.153 0 0 0 .117-.053l.006-.008.007.006c.064.057.132.056.179.023.042-.03.07-.088.063-.16Zm1.157-.017 1.22.017v.017h-.007c.013.1-.03.179-.099.215-.069.037-.162.029-.246-.043a.224.224 0 0 1-.193.09.223.223 0 0 1-.18-.09.228.228 0 0 1-.188.05.127.127 0 0 1-.105-.116.14.14 0 0 1-.202-.132v-.008Zm1.196.033-1.179-.016c.003.051.03.087.065.106.037.02.084.02.124-.004l.013-.008v.015c0 .032.01.057.026.076a.12.12 0 0 0 .066.038.213.213 0 0 0 .18-.053l.008-.007.005.01c.031.055.1.088.171.09a.205.205 0 0 0 .184-.091l.006-.009.007.007c.082.074.17.081.234.047.063-.033.103-.106.09-.2Zm-2.189.169h1.128v.023a.116.116 0 0 1 0 .112.235.235 0 0 1-.09.095c-.078.046-.185.057-.256-.024a.284.284 0 0 1-.18.076.15.15 0 0 1-.1-.035.204.204 0 0 1-.06-.106.3.3 0 0 1-.286.067c-.09-.029-.156-.103-.156-.2v-.008Zm.017.017c.004.084.063.149.144.175.083.026.19.01.28-.072l.01-.01.003.014a.197.197 0 0 0 .06.11.13.13 0 0 0 .088.03.268.268 0 0 0 .175-.077l.006-.006.006.007c.064.08.164.073.24.027a.217.217 0 0 0 .084-.087.096.096 0 0 0-.001-.098l-.001-.003v-.01h-1.094Zm-1.273.353h1.209l-.003.01c-.034.12-.09.178-.155.198a.28.28 0 0 1-.188-.021.306.306 0 0 1-.139.074.216.216 0 0 1-.166-.024.26.26 0 0 1-.161.017c-.048-.01-.09-.033-.111-.066a.471.471 0 0 1-.17.056.267.267 0 0 1-.144-.018c-.037-.018-.06-.048-.058-.088.002-.039.028-.085.083-.136l.003-.002Zm.006.017c-.052.049-.074.09-.075.122-.002.032.016.056.048.072a.25.25 0 0 0 .134.016.456.456 0 0 0 .172-.058l.008-.004.004.008c.015.03.054.054.103.065.049.01.106.006.154-.018l.005-.003.004.003a.198.198 0 0 0 .157.024.29.29 0 0 0 .135-.073l.004-.004.005.002c.059.025.124.04.182.023.055-.018.107-.067.14-.175h-1.18Zm1.183.403 1.052.034v.009l.008-.002a.156.156 0 0 1-.1.182.194.194 0 0 1-.212-.05.28.28 0 0 1-.167.072.192.192 0 0 1-.17-.073.332.332 0 0 1-.247.06.19.19 0 0 1-.11-.066.27.27 0 0 1-.054-.157v-.009Zm1.044.05-1.026-.032a.246.246 0 0 0 .048.137.172.172 0 0 0 .102.06.317.317 0 0 0 .24-.061l.006-.005.005.007c.04.056.1.076.16.072a.263.263 0 0 0 .164-.073l.006-.007.006.007a.178.178 0 0 0 .199.052.139.139 0 0 0 .09-.156Zm.033-.033h1.186v.009l.008-.001a.205.205 0 0 1-.064.177.174.174 0 0 1-.177.036.228.228 0 0 1-.19.093.307.307 0 0 1-.2-.092.177.177 0 0 1-.153.045.133.133 0 0 1-.105-.11.22.22 0 0 1-.192.022.172.172 0 0 1-.113-.17v-.009Zm1.178.017h-1.161a.155.155 0 0 0 .101.146.204.204 0 0 0 .188-.026l.012-.009.001.014c.008.064.048.1.095.109a.161.161 0 0 0 .143-.046l.006-.006.006.006c.058.058.128.09.194.092a.212.212 0 0 0 .18-.091l.004-.005.006.002a.158.158 0 0 0 .166-.03.188.188 0 0 0 .06-.156Zm-3.449.303h1.152v.008h.008a.168.168 0 0 1-.062.15.126.126 0 0 1-.078.03.137.137 0 0 1-.085-.033.15.15 0 0 1-.11.053.264.264 0 0 1-.16-.054.247.247 0 0 1-.17.071.21.21 0 0 1-.187-.088.31.31 0 0 1-.188.027.156.156 0 0 1-.09-.046.14.14 0 0 1-.03-.11v-.008Zm1.145.017h-1.13a.12.12 0 0 0 .028.09.14.14 0 0 0 .08.04.291.291 0 0 0 .184-.028l.007-.004.004.007c.04.064.108.088.176.086a.226.226 0 0 0 .164-.07l.005-.006.006.004c.058.042.11.058.155.056a.133.133 0 0 0 .103-.054l.005-.007.007.006a.124.124 0 0 0 .08.034.11.11 0 0 0 .069-.026.154.154 0 0 0 .057-.128Zm.85.592a.174.174 0 0 1-.061.04.306.306 0 0 1-.329-.058c-.082.057-.15.074-.206.05-.056-.025-.095-.092-.12-.193l-.003-.01h1.062v-.009h.017v.025h-.001a.282.282 0 0 1-.09.186.159.159 0 0 1-.117.037.296.296 0 0 1-.152-.068Zm.342-.155a.265.265 0 0 1-.084.173.142.142 0 0 1-.105.033.285.285 0 0 1-.15-.07l-.006-.005-.006.007a.148.148 0 0 1-.059.042.292.292 0 0 1-.315-.06l-.005-.004-.005.004c-.084.058-.148.073-.196.052-.047-.021-.083-.077-.108-.172h1.039Zm.102.118h.95v.009h.009c-.009.096-.066.154-.137.174a.236.236 0 0 1-.207-.045.202.202 0 0 1-.155.056.25.25 0 0 1-.166-.09.22.22 0 0 1-.175.05.143.143 0 0 1-.084-.044.146.146 0 0 1-.035-.101v-.009Zm.941.017h-.924a.126.126 0 0 0 .03.082c.02.02.045.033.074.038a.2.2 0 0 0 .168-.05l.006-.007.006.007c.05.058.106.086.16.09a.186.186 0 0 0 .147-.057l.006-.005.005.005a.22.22 0 0 0 .199.047.169.169 0 0 0 .123-.15Zm-3.462.134 1.301.017v.017c.023.036.03.074.022.11a.165.165 0 0 1-.07.101c-.071.05-.186.058-.305-.024a.251.251 0 0 1-.182.064.133.133 0 0 1-.074-.032.116.116 0 0 1-.034-.056c-.04.043-.115.068-.179.026a.187.187 0 0 1-.134.072.136.136 0 0 1-.078-.015.106.106 0 0 1-.047-.057.178.178 0 0 1-.074.017.181.181 0 0 1-.092-.022.132.132 0 0 1-.062-.076.225.225 0 0 1 .006-.136l.002-.005Zm1.28.034-1.268-.017a.204.204 0 0 0-.004.12c.01.031.03.053.055.067.024.013.054.02.082.019a.154.154 0 0 0 .075-.02l.01-.005.003.01a.091.091 0 0 0 .042.057.12.12 0 0 0 .069.013.167.167 0 0 0 .126-.071l.005-.008.007.005c.063.047.141.016.173-.031l.012-.019.003.022a.103.103 0 0 0 .098.092.236.236 0 0 0 .175-.063l.005-.005.005.004c.115.082.225.073.291.027a.148.148 0 0 0 .063-.09.132.132 0 0 0-.027-.107Z" clip-rule="evenodd"/><path fill="currentColor" d="M19.488 13.949c-.505 0-1.026 0-1.38-.034-.353-.033-.454-.1-.706-.252l-.942-.572c-.085-.034-.169.017-.05.084l.941.622c.253.169.42.32.572.505.202.219.337.219.438.185.1-.033.235-.084.387-.05.134.033.336.05.437.034.084.084.303.067.42.033a.569.569 0 0 1 .287-.017h.286c.084 0 .302-.05.454-.033.168.033.32 0 .42 0a.843.843 0 0 1 .337-.017c.1-.067.134-.152.168-.236.101-.017.135-.033.152-.084l.1-.27h.034v-.1l-.067-.101.033-.168.084-.034-.033-.168-1.48.034a.337.337 0 0 0-.101.185l-.438.067c-.05.017-.1.017-.151.084l-.202.303Z"/><path fill="currentColor" fill-rule="evenodd" d="M16.4 13.072a.148.148 0 0 1 .063.012h.001l.943.572.026.016c.113.068.195.117.288.154.1.04.213.065.389.081.352.034.87.034 1.374.034l.2-.3c.042-.056.085-.067.126-.078a.445.445 0 0 0 .03-.008l.432-.067a.345.345 0 0 1 .102-.184l.003-.002 1.49-.034.037.182-.087.035-.032.16.067.1v.112h-.036l-.099.263a.097.097 0 0 1-.048.06.353.353 0 0 1-.105.03.446.446 0 0 1-.17.234l-.002.002h-.004a.831.831 0 0 0-.333.016h-.002a1.044 1.044 0 0 0-.102.007 2.718 2.718 0 0 1-.082.006.921.921 0 0 1-.238-.012c-.074-.009-.166 0-.25.01l-.07.01-.046.006a.743.743 0 0 1-.087.007h-.287a.562.562 0 0 0-.282.017.799.799 0 0 1-.226.027c-.078-.002-.155-.018-.2-.06a.963.963 0 0 1-.204.002 1.494 1.494 0 0 1-.233-.036.663.663 0 0 0-.364.044l-.018.006a.286.286 0 0 1-.186.002.641.641 0 0 1-.26-.19 2.441 2.441 0 0 0-.57-.503l-.943-.622a.143.143 0 0 1-.056-.05.04.04 0 0 1-.006-.023.035.035 0 0 1 .01-.02.072.072 0 0 1 .047-.018Zm-.036.053a.127.127 0 0 0 .05.043l.942.623c.253.169.422.32.574.506.1.109.183.162.253.185.07.022.126.014.176-.002l.018-.006c.098-.033.228-.077.373-.045.067.017.15.03.23.036a.93.93 0 0 0 .204-.002l.005-.001.003.003c.04.04.112.056.192.059a.78.78 0 0 0 .22-.027.577.577 0 0 1 .29-.018h.284c.02 0 .05-.003.084-.007l.047-.006.07-.01c.084-.01.178-.019.254-.01h.001a.911.911 0 0 0 .233.013l.082-.007.019-.001a.874.874 0 0 1 .084-.005.849.849 0 0 1 .335-.017.437.437 0 0 0 .163-.23l.002-.005h.004a.352.352 0 0 0 .105-.029.08.08 0 0 0 .04-.05l.103-.275h.031v-.09l-.068-.102.036-.176.082-.032-.031-.155-1.47.033a.329.329 0 0 0-.097.179v.006l-.443.068-.031.009a.176.176 0 0 0-.116.072l-.204.306h-.005c-.504 0-1.026 0-1.38-.034a1.386 1.386 0 0 1-.393-.082c-.095-.038-.178-.088-.29-.155l-.027-.016-.942-.572a.134.134 0 0 0-.055-.01c-.017.001-.03.006-.036.012a.016.016 0 0 0-.005.01c0 .004 0 .009.004.014Z" clip-rule="evenodd"/><path fill="currentColor" d="m21.255 13.293.219-.824c.033-.084-.05-.101-.084 0l-.22.824h.085Z"/><path fill="currentColor" fill-rule="evenodd" d="M21.48 12.47a.084.084 0 0 0 .007-.055.035.035 0 0 0-.03-.025c-.014-.002-.029.005-.042.017a.14.14 0 0 0-.034.058l-.222.835h.102l.22-.83Zm-.083 0a.122.122 0 0 1 .03-.05c.01-.01.02-.014.028-.013.007 0 .013.005.016.013.003.01.002.024-.006.044v.001l-.217.819h-.067l.216-.814Z" clip-rule="evenodd"/><path fill="#fff" d="M22.113 12.366c-.185.084-.286.135-.37.101-.084-.034-.185-.05-.252-.017a.08.08 0 0 1 0 .017l-.185.64c.134.05.37.05.42 0 .068-.068.219-.051.303-.051.05-.067.067-.151.05-.185-.016-.034 0-.118 0-.168 0-.05.068-.236.034-.337Z"/><path fill="currentColor" fill-rule="evenodd" d="m22.118 12.356.003.01a.254.254 0 0 1 .01.09.727.727 0 0 1-.014.1l-.015.071-.005.02a.332.332 0 0 0-.01.057l-.003.058a1.395 1.395 0 0 0-.004.077.08.08 0 0 0 .007.03c.005.01.007.023.007.037a.2.2 0 0 1-.007.049.306.306 0 0 1-.052.108l-.002.003h-.048a1.1 1.1 0 0 0-.113 0c-.057.004-.109.017-.14.048a.146.146 0 0 1-.073.03.747.747 0 0 1-.357-.029l-.007-.002.002-.007c.063-.213.124-.426.185-.639v-.02l.005-.002a.23.23 0 0 1 .124-.018.501.501 0 0 1 .135.034c.04.016.083.012.141-.006.052-.017.113-.045.19-.08l.032-.015.009-.004Zm-.226.115c-.06.019-.108.024-.152.006a.486.486 0 0 0-.13-.033.22.22 0 0 0-.111.013v.014a81.4 81.4 0 0 1-.183.632.744.744 0 0 0 .34.025c.031-.006.053-.015.064-.026.036-.036.093-.048.15-.053.04-.002.081-.001.116 0h.038a.295.295 0 0 0 .047-.098.185.185 0 0 0 .006-.045.069.069 0 0 0-.005-.03.096.096 0 0 1-.008-.036.37.37 0 0 1 .003-.08.66.66 0 0 0 .004-.056c0-.013.004-.035.01-.061l.004-.02.015-.07a.73.73 0 0 0 .013-.097.261.261 0 0 0-.006-.076l-.022.01c-.078.035-.14.064-.193.08Zm-2.527-2.436.01-.014.454.253-.006.016a.743.743 0 0 1-.23-.096 1.584 1.584 0 0 1-.228-.159Zm.097.054a1.398 1.398 0 0 0 .3.167l-.3-.167Zm-.55.202.404-.236.01.013a.681.681 0 0 1-.408.238l-.006-.015Zm.367-.195a.663.663 0 0 1-.313.183l.313-.183Zm-1.574.479c.047-.028.095-.065.142-.105l.072-.064-.214.169Zm-.073.036.404-.32.011.013c-.05.05-.118.118-.19.18a.805.805 0 0 1-.216.142l-.009-.015Zm.486-.292.013-.01.429.321-.032-.004a.532.532 0 0 1-.231-.115.736.736 0 0 1-.179-.192Zm.042.032a.813.813 0 0 0 .147.146.604.604 0 0 0 .187.104l-.334-.25Zm1.87.271a.513.513 0 0 0 .162-.072.838.838 0 0 0 .125-.097l-.286.169Zm.329-.213.01.012a.74.74 0 0 1-.168.143.434.434 0 0 1-.208.079h-.03l.396-.234Zm.08.011.014-.01.287.233h-.024a.161.161 0 0 1-.074-.023.666.666 0 0 1-.202-.2Zm.05.04a.659.659 0 0 0 .161.145.204.204 0 0 0 .036.016l-.197-.16Zm-1.53-.023.014-.01.2.238.16-.088.01.013c-.045.04-.092.076-.141.108l.758.9.18-.12a4.99 4.99 0 0 1-.272-.419l.013-.01.339.374.155-.106.011.013a1.213 1.213 0 0 1-.135.128l.936 1.033c-.177-.365-.304-.797-.46-1.325l-.086-.293.016-.006.63 1.734.01.01.087-.081.012.01a3.11 3.11 0 0 1-.075.099l.024.026-.01.012-.026-.016.02.057-.014.007-.027-.045c-.069.082-.14.162-.217.236l.156.186-.01.013a2.478 2.478 0 0 1-.205-.142 3.16 3.16 0 0 1-.102.091l.083.226-.015.006-.017-.045h-.081l.013.04-.016.005-.015-.045h-.065l.011.04-.016.004-.013-.044h-.084l.013.057-.017.004-.014-.067a3.07 3.07 0 0 1-.107.072l-.01-.013.107-.102-.049-.22h-.003v-.012l-.016-.072h-.017v-.017h.014l-.015-.068h-.016v-.016h.012l-.015-.068h-.014v-.017h.01l-.001-.006.016-.004.002.01h.044l-.012-.04.016-.004.014.044h.05l-.01-.03a6.379 6.379 0 0 1-.306-.324.552.552 0 0 1-.206.15.207.207 0 0 1-.071.02h-.026l.276-.2c-.14-.16-.277-.33-.408-.502-.282-.37-.54-.748-.748-1.056l-.03-.044c-.086.05-.177.09-.273.118l-.007-.015.254-.14c-.062-.093-.12-.177-.172-.252Zm.183.265-.175.097c.063-.024.123-.053.181-.087l-.006-.01Zm.02.001-.006-.009.014-.007.006.008-.013.008Zm.01.014.03.044c.209.308.465.686.747 1.055.132.172.268.342.409.502l.058-.042-.012.027a.237.237 0 0 1-.023.042c.101.114.204.223.307.323h.003l.001.004.042.04h.016v.015l.025.024-.016-.044.016-.006.027.075c.056.05.112.098.167.143l.046-.043-.483-.573a1.231 1.231 0 0 1-.04-.048l-.527-.625a1.288 1.288 0 0 1-.053.022l-.008-.015.042-.029-.759-.9-.015.01Zm.81.906.523.622.335.284-.01.014a1.196 1.196 0 0 1-.178-.124l.375.445.238-.224-.008-.014c-.396-.276-.787-.695-1.088-1.107a1.23 1.23 0 0 1-.188.104Zm.2-.114c.294.401.672.809 1.057 1.083a3.301 3.301 0 0 1-.024-.045l-.977-1.079a1.159 1.159 0 0 1-.055.041Zm.045-.053a1.226 1.226 0 0 1-.054.04 1.187 1.187 0 0 1-.01-.014l.054-.037.01.01Zm.013-.01a1.22 1.22 0 0 0 .076-.068l-.085.057.009.01Zm-.034-.014-.282-.31c.068.112.145.229.23.346l.052-.036Zm-.057.06.01.013a1.207 1.207 0 0 1-.177.1l.167-.114Zm1.111 1.104.01.018.006.004-.003-.008-.012-.013Zm-.003-.028-.522-1.438.009.031c.163.555.294 1.001.485 1.376l.029.031Zm.022.096a.376.376 0 0 0-.005-.008l-.236.221.022.027c.077-.076.15-.156.219-.24Zm-.231.251-.022-.026-.043.04.028.022.037-.036Zm-.024.046c.052.04.104.077.155.11l-.12-.143a3.59 3.59 0 0 1-.035.033Zm-.026.002-.028-.022-.079.074.012.033c.033-.028.064-.056.095-.085Zm-.108.096-.012-.032-.041.039h.045l.008-.007Zm-.028.024h-.037l.008.023.029-.023Zm-.043.034-.009-.026-.047.045.004.014h.01l.042-.033Zm-.014.033.02-.015.004.015h-.024Zm-.022.017h.052l.022.067h-.065l-.018-.06.01-.007Zm-.029 0a2.674 2.674 0 0 1-.067.05l-.002-.009.045-.041h.024Zm-.005-.017v-.001h-.002.002Zm-.026 0 .02-.02-.014-.047h-.071l.015.067h.05Zm-.047.017.005.022.024-.022h-.029Zm-.022-.101h.07l-.025-.084h-.064l.019.084Zm-.023-.101h.063l-.02-.067h-.058l.015.067Zm-.018-.084h.056l-.02-.068h-.051l.015.068Zm-.019-.084h.05l-.02-.068h-.045l.015.068Zm.048-.068.02.068h.053l-.022-.068h-.051Zm.069 0 .021.068h.052v.016h-.046l.022.068h.057v.017h-.052l.022.067h.068l-.067-.18a4.488 4.488 0 0 1-.06-.056h-.017Zm-.001-.017-.007-.006.002.006h.005Zm.105.098.07.188.072-.068a3.706 3.706 0 0 1-.142-.12Zm.057.2-.011-.028h-.069l.026.079.054-.05Zm-.07.056-.027-.084h-.058l.025.084h.06Zm-.055.017.01.035.037-.035h-.047Zm-.035-.118h.057l-.021-.067h-.056l.02.067Zm-.025-.084h.055l-.022-.068h-.053l.02.068Zm-.016.34-.027.026.029-.02-.002-.006Zm.021.013.067-.05.015.05h-.082Zm.146-.11.05-.041h.01l.025.067h-.076l-.009-.027Zm.014.043.022.067h.08l-.024-.067h-.078Zm.458-.541a.91.91 0 0 0 .012-.015l-.014.013.002.002Zm-.575-.164a1.166 1.166 0 0 1-.149-.126l.149.126Zm-.365-.13.002-.004-.003.003Zm-.015.008-.227.165a.538.538 0 0 0 .232-.159l-.005-.005Zm-1.164-1.655a.817.817 0 0 0 .07-.05l-.076.043.006.007Zm-.032-.011-.012.006-.074-.108.086.102Zm.222-.084.01-.013.455.269-.007.015a1.129 1.129 0 0 1-.229-.104 1.14 1.14 0 0 1-.229-.167Zm.08.047a1.332 1.332 0 0 0 .297.176l-.298-.176Zm-2.87 2.409c.445-.574.817-1.2 1.11-1.863l-.059.024-1.05 1.839Zm1.03-1.836-1.101 1.927.014.01c.48-.605.88-1.268 1.19-1.974.114-.053.223-.118.323-.195l-.01-.014-.295.165a8.96 8.96 0 0 0 .139-.34l-.015-.007-.234.409-.015.008.005.01Zm.261-.14-.094.053.094-.053Zm-.221.104.057-.031a7.93 7.93 0 0 0 .105-.253l-.162.284Zm.46-.196.008-.015.521.236-.003.016a.698.698 0 0 1-.277-.087 1.974 1.974 0 0 1-.25-.15Zm.094.043c.048.03.105.063.162.092.077.038.155.07.22.08l-.383-.172Zm.076.732.484-.535.014.01a9.177 9.177 0 0 1-.407.573l.303.155-.004.016a.437.437 0 0 1-.147-.036 1.459 1.459 0 0 1-.173-.083l-.014-.007a9.171 9.171 0 0 1-.854.952l-.086.54.318-.327.058-.06.012.011-.058.06-.14.15-.081.09a6.027 6.027 0 0 1-.117.124l-.005.033-.034.212-.017-.003.033-.218a2.085 2.085 0 0 1-.154.142l-.011-.013.172-.177.08-.536c-.19.183-.388.358-.594.524l-.011-.012.634-.702.104-.69.016.002c-.02.178-.052.411-.089.654l.734-.811a1.69 1.69 0 0 1-.05-.033.453.453 0 0 1-.088-.075l.01-.013.162.083Zm-.012.013-.104-.053a.962.962 0 0 0 .093.065l.011-.012Zm.004.021.012-.013.062.032-.014.018a1.889 1.889 0 0 1-.06-.037Zm-.012.013-.752.832-.022.138c.3-.291.579-.603.836-.933a1.958 1.958 0 0 1-.062-.037Zm-.783.866-.543.6c.18-.149.355-.305.523-.467l.02-.133Zm.87-.834a.597.597 0 0 0 .278.118l-.264-.136-.014.018Zm.01-.04-.062-.03.407-.45c-.11.164-.226.324-.346.48Zm2.089-.446.013-.01.32.302-.01.013a.95.95 0 0 1-.323-.305Zm.256.243a.937.937 0 0 1-.19-.18l.19.18Zm-1.441-.175a1.424 1.424 0 0 1-.333.189l.333-.189Zm-.427.223.505-.286.01.013a1.44 1.44 0 0 1-.508.288l-.007-.015Zm.57-.256.011-.013.37.286-.008.015c-.153-.068-.272-.187-.373-.288Zm.294.227a1.143 1.143 0 0 1-.175-.135l.175.135Zm-2.076.332.404-.253.01.014c-.12.108-.257.194-.406.254l-.008-.015Zm.303-.17c-.058.044-.12.082-.184.115l.184-.115Zm1.022.593a.646.646 0 0 0 .178-.115 2.18 2.18 0 0 0 .124-.117l-.302.232Zm-.047.015.438-.337.01.013-.044.045c-.054.055-.11.112-.168.161a.562.562 0 0 1-.229.133l-.007-.015Zm.52-.291.012-.012.454.32-.008.014a1.186 1.186 0 0 1-.458-.322Zm.389.274a1.168 1.168 0 0 1-.32-.225l.32.225Zm-2.137.32.858-.59.011.013a2.146 2.146 0 0 1-.372.325l.505.268-.006.015a1.065 1.065 0 0 1-.265-.112 3.128 3.128 0 0 1-.252-.158l-.04.027c-.16.108-.32.192-.431.226l-.008-.015Zm.602-.178a2.154 2.154 0 0 0 .313.167l-.313-.167Zm-.121-.083-.018-.01-.009.015a.557.557 0 0 1 .01.007l-.035.023a2.065 2.065 0 0 1-.365.202l.743-.51c-.092.095-.207.19-.326.273Zm.988.191.025-.078.016.005-.023.073h.032v.017h-.038l-.01.034h.048l.026-.095.016.005-.092.342h.017v.017h-.021l-.014.05h.018V13h-.023l-.013.05h.019v.017h-.024l-.022.084h.012v.017h-.017l-.018.067h.018v.017h-.022l-.027.1h.016v.018h-.02l-.023.084h.01v.017h-.015l-.023.084H19v.016h-.024l-.102.381-.016-.004.01-.04h-.114l-.015.045-.016-.005.013-.04h-.117l.02.056-.017.006-.018-.056-.017.04-.015-.007.016-.039h-.046l.012.04-.016.005-.014-.045h-.074l-.002.005.005.018-.016.005v-.001l-.001.002-.015-.008.009-.018v-.003h-.083l.005.023-.016.004-.068-.296h-.008v-.017h.004l-.163-.713.016-.004.025.111h.028l-.014-.05h-.014v-.017h.009l-.017-.056.016-.005.018.061h.052l-.002-.006.017-.005.003.011h.056v.008l.008-.002.138.415h.005v.015l.08.237h.004v.015l.015.044.55-1.114.015.007-.02.038h.03l.025-.062.016.007-.023.056h.015Zm-.005.017h-.017l-.014.034h.02l.01-.034Zm-.016.05h-.022l-.02.051h.025l.017-.05Zm-.022.068h-.027l-.021.05h.032l.016-.05Zm-.022.067h-.033l-.014.034h.037l.01-.034Zm-.016.05h-.038l-.02.051h.042l.016-.05Zm-.022.068h-.043l-.02.05h.047l.016-.05Zm-.021.068h-.05l-.02.05h.054l.016-.05Zm-.022.067h-.055l-.035.084h.063l.027-.084Zm-.032.1h-.065l-.027.068h.07l.022-.067Zm-.027.085h-.072l-.041.1h.08l.033-.1Zm-.038.118h-.082l-.035.084h.09l.027-.084Zm-.032.1h-.092l-.034.085h.098l.027-.084Zm-.033.101h-.1l-.035.085h.108l.027-.085Zm-.032.101h-.11l-.034.085h.117l.027-.085Zm-.033.101h-.118l-.048.117v.001h.128l.038-.118Zm-.174.092.038-.092h-.068l.005.017h.017v.017h-.011l.02.059Zm-.036-.108h.08l.035-.085h-.087v-.016h.094l.035-.085h-.062v-.016h.069l.034-.084h-.07v-.017h.077l.034-.084h-.06v-.017h.067l.042-.101h-.042v-.017h.049l.027-.067h-.042v-.017h.049l.035-.084h-.034v-.017h.04l.021-.05h-.027v-.017h.034l.02-.05h-.054v-.003l-.382.773.001.003h.01v.017h-.004l.011.034Zm.371-.842h.054l.021-.05h-.032v-.017h.04l.013-.034H19v-.016h.043l.02-.05h-.029v-.018h.036l.021-.05h-.023v-.017h.03l.014-.034h-.027v-.005l-.145.291Zm-.652.05h-.045l.016.051h.046l-.017-.05Zm.022.068h-.045l.01.034h.046l-.01-.034Zm.017.05h-.046l.016.051h.047l-.017-.05Zm.017.052v.016h-.042l.021.067h.049l-.028-.083Zm.033.1h-.049l.017.05h.05l-.018-.05Zm.023.067h-.05l.021.068h.051L18.4 13.3Zm.028.085h-.052l.016.05h.053l-.017-.05Zm.022.067h-.052l.021.067h.054l-.023-.067Zm.028.084h-.054l.027.084h.055l-.028-.084Zm.034.1h-.056l.022.068h.053l.002-.004-.021-.063Zm.01.085h-.039l.016.05.024-.05Zm-.296-.757h-.053l.015.05h.054l-.016-.05Zm.021.067h-.054l.01.034h.055l-.011-.034Zm.016.05h-.056l.015.051h.057l-.016-.05Zm.021.068h-.057l.02.067h.059l-.022-.067Zm.027.084h-.06l.015.05h.06l-.015-.05Zm.021.067h-.061l.02.068h.063l-.022-.068Zm.027.085h-.064l.015.05h.065l-.016-.05Zm.021.067h-.065l.02.067h.066l-.02-.067Zm.027.084h-.068l.025.084h.07l-.027-.084Zm.032.1h-.07l.019.068h.072l-.021-.067Zm.026.085h-.072l.02.067h.074l-.022-.067Zm.016.084h-.064l.024.082.04-.082Zm-.306-.774h-.029l.08.35v-.013h.047l-.02-.068h-.043v-.017h.038l-.014-.05h-.041v-.017h.036l-.02-.067h-.033v-.017h.028l-.014-.05h-.03v-.017h.025l-.01-.034Zm.103.354h-.05l.032.142v-.008h.057l-.02-.067h-.054v-.017h.05l-.015-.05Zm.044.15h-.06l.02.085h.064l-.024-.084Zm.029.102h-.066l.016.067h.07l-.02-.067Zm.024.084h-.07l.04.173v-.005h.08l-.025-.084h-.073v-.017h.068l-.02-.067Zm.084.168h.06l-.024-.074-.037.074Zm.077 0h.059v-.002l-.027-.082h-.058l.026.084Zm-.028-.1h.055l-.006-.018h-.04l-.009.017Zm.017-.034h.026l-.01-.032-.016.032Zm.234.134h.114l.031-.118h-.107l-.038.118Zm.043-.134h.107l.023-.085h-.103l-.027.085Zm.033-.101h.098v.01l.026-.095h-.097l-.027.085Zm.032-.101h.096l.023-.084h-.092l-.027.084Zm.032-.101h.091l.023-.084h-.086l-.027.084Zm.033-.101h.085l.027-.101h-.08l-.032.1Zm.038-.118h.079l.018-.067h-.076l-.021.067Zm.027-.084h.074l.023-.084h-.07l-.027.084Zm.032-.101h.07l.013-.05h-.066l-.017.05Zm.022-.067h.066l.013-.05h-.063l-.016.05Zm.022-.068h.062l.013-.05h-.06l-.015.05Zm.021-.067h.058v.004l.046-.172h-.05l-.016.05h.037v.017h-.042l-.017.05h.042v.017h-.047l-.01.034Zm1.192.576-.016.074-.016-.004.008-.04h-.061l-.015.06-.008-.001-.008.003-.03-.062h-.048l-.024.078-.008-.003-.008.003-.03-.078h-.039l-.033.095-.008-.003-.008.003-.286-.943.017-.004.278.917.023-.065h-.024v-.017h.03l.02-.06-.023-.058h-.06v-.017h.054l-.033-.084h-.055V13.2h.049l-.04-.1h-.043v-.017h.037l-.033-.085h-.037v-.016h.03l-.039-.101h-.025v-.017h.019l-.04-.101h-.012v-.017h.006l-.033-.084h-.007v-.017l-.008-.022.016-.006.01.028h.035l-.01-.021.015-.008.014.03h.043l-.021-.039.014-.008.027.046h.033v.017h-.024l.048.084h.043v.017h-.033l.058.1h.026v.018h-.017l.058.1h.026V13h-.016l.047.084h.003l.143-.415.016.005-.002.006h.057l.013-.045.016.005-.011.04h.043l.003-.01.016.003-.002.007h.027v.017h-.03l-.02.084h.043l.016-.078.017.004-.153.717Zm.116-.626h-.044l-.024.1h.046v.004l.022-.104Zm-.025.117h-.047l-.02.085h.05l.017-.085Zm-.021.101h-.05l-.024.101h.052l.021-.1Zm-.026.118h-.052l-.02.084h.055l.018-.084Zm-.021.101h-.056l-.016.067h.008v.017h-.012l-.002.009.005.008h.052l.021-.101Zm-.025.118h-.039l.028.049.01-.05Zm.081-.656h-.045l-.025.084h.05l.02-.084Zm-.024.1h-.051l-.03.102h.057l.024-.101Zm-.028.118h-.059L20.23 13h.064l.02-.085Zm-.025.101h-.064l-.03.101h.07l.024-.1Zm-.028.118h-.072l-.02.067h.027v.017h.045l.02-.084Zm-.024.101h-.058l.038.067h.004l.016-.067Zm.067-.538h-.058l-.029.084h.061l.026-.084Zm-.03.1h-.061v-.003l-.036.105h.066l.03-.101Zm-.036.118h-.067l-.03.085h.071l.026-.085Zm-.03.101h-.072l-.024.068h.017v.016h-.022l-.002.005.007.012h.065l.03-.1Zm-.036.118h-.05l.032.058.018-.058Zm-.34-.471h-.044l.04.084h.053l-.048-.084Zm.059.1h-.056l.048.102h.065l-.057-.101Zm.067.119h-.067l.047.1h.078l-.058-.1Zm.067.117h-.079l.04.085h.087l-.048-.085Zm.058.101h-.09l.049.101h.012l.033-.094-.004-.007Zm-.314-.437h-.036l.033.084h.043l-.04-.084Zm.047.1h-.043l.039.102h.052l-.047-.101Zm.056.119h-.054l.04.1h.062l-.048-.1Zm.056.117h-.064l.033.085h.07l-.04-.085Zm.047.101h-.072l.04.101h.08l-.048-.1Zm.056.118h-.082l.033.084h.037l.022-.063-.01-.02Zm-.018.101h-.024l.012.034.012-.034Zm-.023.118h.026l-.014-.035-.012.035Zm.021-.06.023.06h.046l.021-.07-.007-.014h-.075l-.008.024Zm.014-.041h.061l-.008-.017h-.047l-.006.017Zm.012-.034h.034l-.02-.04-.014.04Zm.022-.064.03.064h.032l.02-.067h-.08l-.002.003Zm.057.081h-.019l.008.017h.006l.005-.017Zm-.04.135h-.035l.02.05.014-.05Zm.022-.017h.036l-.022-.047-.014.047Zm.021-.07.034.07h.035l.02-.084h-.085l-.004.013Zm.01-.031h.084l.001-.006-.006-.01h-.075l-.005.016Zm.01-.034h.06l-.04-.067-.02.067Zm.045.152h-.023l.015.033.008-.033Zm.022-.017h.061l.002-.01-.042-.074h-.001l-.02.084Zm-.065-.236-.039-.067h-.007l-.023.067h.069Zm-2.124-.294h.017l-.011.11h.003v.016h-.005l-.004.037v.03h.009v.017h-.009v.068h.009v.016h-.009v.068h.025v.016h-.025v.068h.025v.017h-.025v.084h.025v.017h-.025v.067h.009v.017h-.009v.067h.025v.017h-.025v.084h.025v.017h-.025v.067h.025v.017h-.025v.076H18v-.076h-.06l-.007.06-.017-.002.006-.058h-.086l-.004.026-.017-.002.004-.024h-.07l-.001.01-.017-.003.002-.007h-.027v-.017h.03l.013-.067h-.07l-.015.06-.017-.003.014-.057h-.006v-.017h.01l.024-.1v-.001l.017-.07v-.014h.003l.017-.067h-.003v-.017h.007l.04-.168h-.014v-.017h.018l.016-.068h-.017v-.016h.021l.016-.068h-.003V13.1h.007l.017-.067h-.007v-.017h.01l.009-.033h-.002v-.017h.006l.002-.01.017.003-.002.007h.034l.002-.01.016.003-.001.007h.029l.006-.043.017.002-.006.04H18v-.058h.016Zm-.017.076h-.042l-.005.033H18v-.033Zm-.05.05H18v.036l-.003.031h-.056l.01-.067Zm-.011.084h.056l-.007.068h-.06l.01-.068Zm-.013.084h.06l-.006.068h-.063l.01-.068Zm-.012.085h.064l-.007.067h-.067l.01-.068Zm-.012.084h.067l-.008.084h-.071l.012-.084Zm-.015.1h.072l-.007.068h-.075l.01-.067Zm-.012.085h.075l-.007.067h-.078l.01-.067Zm-.012.084h.078l-.008.084h-.082l.012-.084Zm-.015.1h.083l-.007.068h-.086l.01-.067Zm.093-.756h-.03l-.006.033h.031l.005-.033Zm-.007.05H17.9l-.013.067h.035l.01-.067Zm-.012.084h-.036l-.013.068h.039l.01-.068Zm-.013.084h-.04l-.012.068h.043l.01-.068Zm-.012.085h-.044l-.013.067h.047l.01-.068Zm-.012.084h-.048l-.016.084h.052l.012-.084Zm-.015.1h-.052l-.013.068h.056l.01-.067Zm-.012.085h-.056l-.013.067h.06l.009-.067Zm-.012.084h-.06l-.017.084h.065l.012-.084Zm-.015.1h-.065l-.013.068h.068l.01-.067Zm.063-.756h-.034l-.008.033h.036l.006-.033Zm-.01.05h-.036l-.016.067h.04l.013-.067Zm-.015.084h-.041l-.017.068h.045l.012-.068Zm-.017.084h-.044l-.017.068h.048l.013-.068Zm-.016.085h-.049l-.016.067h.052l.013-.068Zm-.016.084h-.053l-.02.084h.057l.016-.084Zm-.02.1h-.057l-.016.068h.06l.014-.067Zm-.016.085h-.061l-.017.067h.066l.012-.067Zm-.016.084h-.066l-.02.084h.07l.016-.084Zm.173.168H18v-.067h-.053l-.007.067Zm.009-.084h.05v-.084h-.042l-.008.084Zm.01-.101H18v-.067h-.033l-.007.067Zm.009-.084h.031v-.067h-.024l-.007.067Zm.009-.084h.022v-.084h-.014l-.008.084Zm.01-.101h.012v-.068h-.005l-.007.068Zm.009-.084h.003v-.036l-.003.036Z" clip-rule="evenodd"/><path fill="#00B800" d="M17.985 14.261a.482.482 0 0 1 .488.02c.139-.08.394-.057.51.048.18-.124.334-.143.506-.023a.45.45 0 0 1 .51.008c.158-.075.33-.135.484.026a.4.4 0 0 0-.488.03c-.15-.15-.416-.094-.506.011a.33.33 0 0 0-.499.008c-.157-.131-.39-.135-.517-.038a.563.563 0 0 0-.488-.09Z"/><path fill="#CF6200" d="M20.374 14.073c-.694.12-2.213.038-2.543-.048-.112-.027-.082-.068.015-.045.383.086 1.2.086 1.65.063.087-.112.225-.31.267-.367.04-.056.06-.06.15-.075l.375-.064v.053c-.008.01-.02.026-.03.03 0 .09.018.307.037.386l.049-.011c.03-.008.06.07.03.078Z"/><path fill="#CF6200" d="M21.514 14.107h.094a.097.097 0 0 0 .082-.063l.094-.274-.071-.105.037-.229.09-.037c.004-.015-.004-.071-.022-.086l-1.358.044c-.041 0-.06 0-.075.053a1.013 1.013 0 0 0 .345.998c.023.018.053 0 .015-.03a1.117 1.117 0 0 1-.187-.244l.225-.004c.015.075.07.225.082.255.011.03.038.03.023-.011-.03-.09-.045-.195-.057-.248h.225l.02.225c0 .03.025.03.025-.004v-.224l.207-.008-.02.225c-.003.037.016.053.023 0l.03-.225.143-.008c-.004.05-.049.188-.06.226-.011.037.007.037.022.003.03-.073.052-.148.068-.225v-.004Z"/><path fill="currentColor" d="M20.52 14.075a1.182 1.182 0 0 1-.105-.345l.3-.004c.011.093.037.296.056.341l-.251.008Zm.247-.353a5.4 5.4 0 0 0 .053.345l.24-.004-.015-.349-.278.008Zm-.337-.304a1.43 1.43 0 0 0-.011.255l.288-.007-.022-.255-.255.007Zm.311-.007c0 .06.015.21.019.255l.285-.008-.015-.258-.289.01Zm.345-.011.011.258c.068 0 .203 0 .244-.007.004-.056.011-.221.008-.263l-.263.011Zm.311-.012-.007.263.266-.011a2.02 2.02 0 0 0 .038-.263l-.297.011Zm.27.312-.281.007-.026.345.27-.008c.038-.085.07-.173.097-.262-.018-.037-.037-.053-.06-.082Zm-.57.014.008.345.206-.007.026-.345-.24.007Zm-1.162-.067-.113.019a8.443 8.443 0 0 1-.27.378l.398-.01-.011-.387h-.004Zm.052-.011.015.394.24-.02-.037-.412-.218.038Zm-1.171-.932H17.52v-.034l1.296.017v.017Zm1.01-1.043c.016 0 .016 0 0 0l-1.01-.017c-.017 0-.017 0 0 0h1.01v.017Zm-1.077.286c.016 0 .016.016 0 .016h-1.144c-.017 0 0-.016 0-.016h1.144Zm.033-.74c.017 0 .017.016 0 .016h-1.194c-.017 0-.017-.017 0-.017h1.194Zm-.084-.59c.017 0 .017.017 0 .017h-1.16c-.018 0 0-.033 0-.033l1.177.016h-.017Z"/><path fill="currentColor" fill-rule="evenodd" d="m17.531 10.593 1.183.017v.006a.015.015 0 0 1 .004.01c0 .011-.01.017-.02.017h-1.162c-.003 0-.007 0-.01-.003a.015.015 0 0 1-.005-.008.034.034 0 0 1 .001-.016.094.094 0 0 1 .004-.013l.002-.004v-.001l.003-.005Zm.01.017a.065.065 0 0 0-.003.01v.007h1.16l-1.156-.017Zm.025.605c0-.01.01-.017.02-.017h1.195c.011 0 .021.006.021.017 0 .011-.01.017-.02.017h-1.195c-.01 0-.021-.006-.021-.017Zm1.236.421h1.03v.017h.005v.017h-.021l-1.001-.017h-.013v-.017Zm-1.202.303h1.148c.01 0 .02.006.02.017 0 .01-.01.017-.02.017h-1.144c-.005 0-.012-.002-.015-.008a.012.012 0 0 1 0-.008.02.02 0 0 1 0-.005l.006-.008.002-.002.007.005-.006-.006.002-.002Zm-.089.723 1.312.017v.034h-1.312v-.05Zm.017.017v.017h1.279l-1.279-.017Zm1.372-2.391 1.009-.017v.017l-1.01.017v-.017Z" clip-rule="evenodd"/><path fill="currentColor" d="M19.96 10.852c.016 0 .016 0 0 0h-1.094c-.017 0-.017 0 0 0h1.093Zm1.093.774v.017h-1.178c-.034 0-.034 0 0 0h1.178v-.017Zm0-.992c.033 0 .033.017 0 .017h-1.195c-.017 0-.017-.017 0-.017h1.212-.017Zm-1.11 1.75c.016 0 .016.016 0 .016h-1.077v-.016h1.076Zm1.042.151c.017 0 .017 0 0 0h-.942.942Z"/><path fill="currentColor" fill-rule="evenodd" d="m21.07 10.627.005.001a.022.022 0 0 1 .007.005.013.013 0 0 1 .004.009.013.013 0 0 1-.004.009.023.023 0 0 1-.008.005.065.065 0 0 1-.021.003h-1.195c-.01 0-.02-.006-.02-.017 0-.011.01-.017.02-.017h1.212v.002Zm-2.217.217h1.119v.017h-1.119v-.017Zm2.208.782v.025H19.85v-.017h1.194v-.008h.017Zm-2.204.749h1.085c.011 0 .021.006.021.017 0 .01-.01.017-.02.017h-1.086v-.034Zm1.186.168v-.017h.955v.017h-.955Z" clip-rule="evenodd"/><path fill="#EF072D" d="M21.844 12.703a.504.504 0 0 0 0-.236.184.184 0 0 1-.101 0 .515.515 0 0 0-.05-.033c0 .067-.034.252-.068.32-.05 0-.168 0-.219-.034l-.05.168a.59.59 0 0 0 .252 0c0 .1-.017.185-.067.252.084 0 .168 0 .185-.05.05-.067.05-.168.067-.219l.085-.017.084-.033.117-.017v-.101l.034-.067-.27.084v-.017Z"/><path fill="currentColor" fill-rule="evenodd" d="m21.684 12.419.013.007c.017.01.034.021.05.034a.177.177 0 0 0 .095 0l.008-.003.002.008a.514.514 0 0 1 0 .239v.004l.277-.086-.041.083v.106l-.124.018-.084.033-.08.016a.38.38 0 0 0-.011.054 1.21 1.21 0 0 1-.009.044.3.3 0 0 1-.047.118c-.01.029-.039.042-.073.048-.034.007-.077.007-.119.007h-.017l.01-.014a.389.389 0 0 0 .066-.237.598.598 0 0 1-.246-.002l-.009-.002.057-.188.009.007a.252.252 0 0 0 .105.028c.04.004.078.004.104.004a.79.79 0 0 0 .043-.153.972.972 0 0 0 .02-.158v-.015Zm.016.03a1.143 1.143 0 0 1-.067.308l-.003.005h-.005c-.025 0-.068 0-.11-.005a.303.303 0 0 1-.104-.025l-.044.15c.079.016.16.015.24-.002l.01-.003v.01a.428.428 0 0 1-.06.245.603.603 0 0 0 .1-.006c.033-.006.054-.018.061-.039v-.001l.001-.001a.282.282 0 0 0 .045-.113l.008-.043a1.245 1.245 0 0 1 .013-.06l.002-.005.088-.018.084-.034.112-.016v-.095l.026-.052-.262.082v-.03a.497.497 0 0 0 .002-.224.193.193 0 0 1-.096-.002h-.002l-.001-.001a.527.527 0 0 0-.038-.026Z" clip-rule="evenodd"/><path fill="currentColor" d="M17.672 7.016c-.135 0-.438 0-.505.034-.05.034-.067.05.034.067.1.017.286.084.387.135.1.067.168.168.168.336a1.01 1.01 0 0 0 .505 1.06c.016.017.033.034.016.101l-.05.185c0 .034-.017.068.034.05a3.385 3.385 0 0 1-.169.27c-.269-.034-.504 0-.504.303 0 .033 0 .067.033 0 .05-.067.101-.135.219-.168-.067.117-.1.218-.084.286 0 .05.034.084.067 0 .017-.068.084-.135.135-.185.033-.017.033-.017.017.033-.017.05.016.152.05.185.034.034.05.017.034-.033 0-.068 0-.185.084-.22.1-.066.202-.033.235.035.05.084.084 0 .034-.068-.05-.067-.1-.151-.168-.151l.168-.286c0-.034.034-.05.067-.034 0 .017.034.017.05-.034l.119-.235.1-.034.169.253V9c0 .068-.068.22-.084.27-.202 0-.303 0-.37.118-.034.05.016.067.067.05a.336.336 0 0 1 .168-.05c.034 0 .05.033 0 .05-.118.05-.202.135-.202.252 0 .034.034.05.05 0a.357.357 0 0 1 .22-.168c0 .084.016.219.083.253.05.033.05 0 .034-.05a.204.204 0 0 1 .05-.22c.085-.1.287.034.337.068.034.033.067.05.034-.05-.017-.119-.185-.17-.337-.203l.202-.706c.084.05.168-.085.303-.034.235.1.589.32.64.37.066.05.083.034.117 0 .034-.017.084 0 .134 0 .034.017.068.034.017-.067a1.212 1.212 0 0 0-.403-.438c.134 0 .302 0 .302-.033 0-.034-.201-.101-.286-.101.1-.02.194-.066.27-.135.033-.034 0-.05-.135-.05-.353 0-.538 0-.723-.101-.303-.169-.488-.37-.64-.438-.067-.05-.117-.151-.168-.235-.084-.253-.084-.387-.303-.471-.218-.084-.505.016-.622.134Z"/><path fill="currentColor" fill-rule="evenodd" d="M17.942 6.865a.59.59 0 0 1 .354.008.346.346 0 0 1 .207.177.94.94 0 0 1 .05.132l.014.048c.01.036.023.076.037.119l.026.045c.017.028.033.057.051.084a.403.403 0 0 0 .088.103 1.336 1.336 0 0 1 .264.181c.102.08.224.172.375.256.183.1.365.1.72.1.033 0 .06 0 .082.003a.191.191 0 0 1 .05.01c.012.005.021.012.022.023.001.01-.006.02-.014.029a.564.564 0 0 1-.225.125.837.837 0 0 1 .207.067c.01.006.019.011.025.017.006.005.012.012.012.02a.02.02 0 0 1-.011.018.08.08 0 0 1-.024.01.432.432 0 0 1-.074.01 2.68 2.68 0 0 1-.175.004c.16.11.291.255.384.425a.38.38 0 0 1 .024.058.061.061 0 0 1 .003.017.02.02 0 0 1-.005.013.017.017 0 0 1-.013.005.04.04 0 0 1-.012-.002.2.2 0 0 1-.023-.01l-.052-.005-.02-.002a.11.11 0 0 0-.056.005.23.23 0 0 1-.023.02.057.057 0 0 1-.027.013c-.02.002-.044-.008-.078-.034a.716.716 0 0 0-.087-.064 3.663 3.663 0 0 0-.55-.304c-.064-.024-.116-.005-.164.016l-.008.004c-.021.009-.042.018-.062.022a.094.094 0 0 1-.06-.005l-.197.689a.94.94 0 0 1 .212.068c.063.032.113.075.122.138a.266.266 0 0 1 .014.056l-.001.017a.018.018 0 0 1-.009.012.019.019 0 0 1-.014 0 .046.046 0 0 1-.012-.005.163.163 0 0 1-.025-.021.797.797 0 0 0-.153-.083.26.26 0 0 0-.097-.02.097.097 0 0 0-.075.034.196.196 0 0 0-.049.21v.001a.221.221 0 0 1 .01.035c.001.01.001.02-.002.028a.02.02 0 0 1-.008.01.022.022 0 0 1-.014.002.08.08 0 0 1-.032-.015c-.037-.018-.058-.063-.07-.112a.606.606 0 0 1-.018-.137.354.354 0 0 0-.203.162.067.067 0 0 1-.017.028.027.027 0 0 1-.024.008c-.016-.003-.025-.021-.025-.04 0-.123.088-.209.207-.26a.052.052 0 0 0 .023-.013c.004-.004.004-.007.003-.01 0-.004-.008-.011-.023-.011a.328.328 0 0 0-.164.049h-.001c-.027.01-.055.01-.073 0a.032.032 0 0 1-.017-.025.07.07 0 0 1 .012-.037.207.207 0 0 1 .14-.107 1.03 1.03 0 0 1 .232-.015.526.526 0 0 1 .018-.047v-.002l.028-.074a.975.975 0 0 0 .025-.077.252.252 0 0 0 .01-.06v-.1l-.163-.244-.091.03-.116.232c-.01.027-.023.042-.037.047a.026.026 0 0 1-.02 0 .017.017 0 0 1-.01-.01.042.042 0 0 0-.034 0 .03.03 0 0 0-.016.027v.003l-.163.276a.151.151 0 0 1 .082.052c.02.022.04.049.059.074l.02.028a.134.134 0 0 1 .024.054.077.077 0 0 1-.002.045.03.03 0 0 1-.012.014.024.024 0 0 1-.02.002c-.012-.004-.025-.017-.038-.039-.03-.062-.126-.096-.223-.03h-.001c-.04.016-.06.05-.07.091a.498.498 0 0 0-.01.119.124.124 0 0 1 .007.032c0 .01-.001.018-.007.024-.006.006-.015.006-.023.003a.077.077 0 0 1-.025-.018.228.228 0 0 1-.046-.09.188.188 0 0 1-.006-.104l.009-.028V9.49a.31.31 0 0 0-.013.006 1.05 1.05 0 0 0-.078.085.264.264 0 0 0-.053.095v.001a.138.138 0 0 1-.027.046c-.01.009-.02.013-.03.01a.041.041 0 0 1-.021-.022.098.098 0 0 1-.006-.036.248.248 0 0 1 .01-.127.784.784 0 0 1 .064-.145.383.383 0 0 0-.213.192.026.026 0 0 1-.01.008.012.012 0 0 1-.013-.002.02.02 0 0 1-.005-.01.075.075 0 0 1-.001-.01v-.024c0-.077.014-.138.041-.185a.246.246 0 0 1 .115-.1c.093-.043.22-.044.352-.027.056-.08.108-.163.156-.248h-.012a.02.02 0 0 1-.01-.007.023.023 0 0 1-.005-.01.079.079 0 0 1 0-.023v-.003a.17.17 0 0 0 .002-.02v-.001l.05-.186a.128.128 0 0 0 .005-.065.06.06 0 0 0-.018-.027 1.018 1.018 0 0 1-.508-1.068.418.418 0 0 0-.046-.201.355.355 0 0 0-.118-.127 1.759 1.759 0 0 0-.441-.147.058.058 0 0 1-.016-.008.021.021 0 0 1-.008-.013.02.02 0 0 1 .003-.014.049.049 0 0 1 .01-.011.257.257 0 0 1 .03-.023h.001v-.001a.315.315 0 0 1 .092-.02c.04-.005.088-.008.139-.01.1-.004.207-.005.274-.005a.634.634 0 0 1 .275-.142Zm-.271.15v.01c-.067 0-.177 0-.277.003-.05.003-.099.006-.138.01a.309.309 0 0 0-.086.019.257.257 0 0 0-.028.021.03.03 0 0 0-.007.007v.003l.002.002a.043.043 0 0 0 .01.006 1.775 1.775 0 0 1 .443.148h.001a.371.371 0 0 1 .125.134c.03.056.047.125.047.21v.001a1 1 0 0 0 .5 1.052h.002l.001.001c.008.009.018.018.023.035a.145.145 0 0 1-.004.074l-.05.184-.002.021v.003a.068.068 0 0 0 0 .017v.003l.002.001c.003 0 .01 0 .022-.004l.02-.006-.01.019a3.4 3.4 0 0 1-.169.27l-.002.004-.006-.001c-.134-.017-.258-.017-.348.024a.229.229 0 0 0-.107.095.344.344 0 0 0-.039.201.393.393 0 0 1 .24-.202l.02-.006-.01.018a.809.809 0 0 0-.072.16.23.23 0 0 0-.01.12v.002a.08.08 0 0 0 .005.03c.003.008.007.012.01.013.002 0 .006 0 .013-.006a.12.12 0 0 0 .022-.04.282.282 0 0 1 .056-.1c.026-.033.056-.062.08-.088h.001l.003-.002.02-.009a.023.023 0 0 1 .008-.001l.005.001a.012.012 0 0 1 .005.005.017.017 0 0 1 .001.01.072.072 0 0 1-.002.01l-.01.028a.174.174 0 0 0 .007.094c.01.035.027.068.042.083a.06.06 0 0 0 .02.014.01.01 0 0 0 .003.001h.001c0-.001.002-.004.002-.011a.107.107 0 0 0-.006-.03v-.002c0-.034 0-.08.01-.124.011-.043.033-.084.078-.102.104-.069.21-.035.247.037.012.02.022.029.029.03h.005a.013.013 0 0 0 .005-.006.06.06 0 0 0 .002-.035.117.117 0 0 0-.022-.047.786.786 0 0 0-.077-.1c-.027-.03-.054-.048-.084-.048h-.015l.175-.297c0-.019.01-.033.025-.04a.06.06 0 0 1 .054.001l.005.003v.006h.007c.008-.004.019-.014.027-.038l.12-.24.11-.036.173.26V9a.303.303 0 0 1-.01.066 1.04 1.04 0 0 1-.054.153.502.502 0 0 0-.02.053l-.002.006h-.006c-.102 0-.176 0-.234.014a.191.191 0 0 0-.13.1c-.007.012-.01.02-.009.026 0 .005.003.01.009.012.012.007.033.008.057 0a.345.345 0 0 1 .172-.051c.019 0 .037.01.04.025a.027.027 0 0 1-.008.024.068.068 0 0 1-.029.018c-.116.05-.196.131-.196.244 0 .015.007.022.012.023.002 0 .005 0 .01-.003a.053.053 0 0 0 .012-.023v-.001a.365.365 0 0 1 .225-.172l.01-.002v.01a.62.62 0 0 0 .016.143c.013.048.033.087.063.102h.001c.013.008.02.012.025.012h.004v-.002a.038.038 0 0 0 0-.018.209.209 0 0 0-.008-.032.212.212 0 0 1 .053-.228.113.113 0 0 1 .086-.04.277.277 0 0 1 .103.021c.069.026.132.068.158.085l.001.001a.143.143 0 0 0 .023.02.03.03 0 0 0 .008.004h.001a.018.018 0 0 0 .001-.011.254.254 0 0 0-.013-.054v-.001c-.008-.055-.052-.095-.114-.126a.98.98 0 0 0-.216-.069l-.01-.002.208-.726.01.006a.075.075 0 0 0 .057.008 1.421 1.421 0 0 0 .067-.025c.049-.021.106-.044.177-.017a3.665 3.665 0 0 1 .642.371c.033.025.052.032.065.03a.04.04 0 0 0 .019-.009.22.22 0 0 0 .022-.02l.001-.001h.001c.02-.01.043-.01.066-.008l.022.002c.017.002.034.004.05.004h.003l.001.001a.197.197 0 0 0 .03.012v-.002l-.001-.012a.331.331 0 0 0-.023-.054 1.202 1.202 0 0 0-.4-.434l-.025-.015h.029c.067 0 .143 0 .201-.005a.417.417 0 0 0 .071-.01.065.065 0 0 0 .018-.007c.004-.002.004-.004.004-.004s0-.003-.006-.007a.526.526 0 0 0-.1-.047.632.632 0 0 0-.172-.038l-.001-.017a.547.547 0 0 0 .265-.132c.008-.008.01-.013.01-.016 0 0-.002-.004-.012-.008a.177.177 0 0 0-.045-.01.87.87 0 0 0-.082-.002h-.002c-.351 0-.538 0-.725-.102a2.91 2.91 0 0 1-.378-.258l-.021-.016a1.321 1.321 0 0 0-.24-.163l-.002-.001a.414.414 0 0 1-.092-.108c-.018-.027-.035-.057-.052-.085l-.026-.045v-.002a4.316 4.316 0 0 1-.038-.12l-.015-.048a.85.85 0 0 0-.048-.13.329.329 0 0 0-.198-.168.573.573 0 0 0-.344-.008.614.614 0 0 0-.27.14l-.005-.005Z" clip-rule="evenodd"/><path fill="#fff" d="M17.688 7.084h-.286c-.034 0 0 0 0 0l.252.067c.051 0 .034.05 0 .034-.033-.017-.067 0-.033.034.168.117.202.168.168.622l.084.067c.034 0 .017.034 0 .017s-.084 0-.033.034c.05.033.084.033.033.033-.05 0-.1.034 0 .017.084 0 .135.034 0 .05-.1 0-.067.034 0 .034.118 0 .084.034.05.034-.033 0-.05.034.034.034h.118c.017 0 .034 0 0 .017-.034 0-.034.033.017.033.05 0 .084 0 .034.017-.017 0-.05.017 0 .034.117 0 .134.033.1.05-.033.017-.05.017 0 .017.051 0 .101.017.051.034-.034 0-.05.033 0 .033s.084.034.05.05c-.033.018-.05.034 0 .034s.068.017.034.034c-.034.034-.05.034-.084 0 0-.034-.034-.034-.034 0l-.033-.05c-.017-.05-.05-.05-.05 0s-.034.016-.068 0a.555.555 0 0 0 .673.134c.017 0 .034 0 .05.05l.101.186c.017.033.05 0 .05-.034l.102-.286c0-.05.067-.084.05.05.05-.033.253-.05.42 0 .162.065.315.15.455.253a.101.101 0 0 0 .084.017c.05 0 .067 0-.017-.084-.084-.085-.05-.118 0-.085.05.034.084.017.034-.033l-.168-.152c-.017 0-.017-.033-.101-.033h-.253c-.033 0-.067 0 .034.033.1.034.286.169.336.202.05.034.068.101-.016.034a3.717 3.717 0 0 0-.606-.337c-.454.05-.824.101-1.093-.185-.135-.151-.135-.47.084-.605-.034-.034-.034-.068-.017-.068v-.1c-.034-.017-.067-.051-.067-.085-.051 0-.085-.084-.169-.05-.084.033-.1 0-.134-.017-.017-.034-.034-.034-.084-.034s-.085 0-.085-.033c0-.034.034-.034.101 0 .118.05.22.084.303-.034.068-.1-.033-.185-.168-.219-.151-.033-.252.084-.32.135h.017Z"/><path fill="currentColor" fill-rule="evenodd" d="M17.795 6.977a.261.261 0 0 1 .198-.036.33.33 0 0 1 .164.086c.018.02.03.043.032.068a.119.119 0 0 1-.023.077c-.043.061-.092.084-.146.084a.45.45 0 0 1-.167-.047.187.187 0 0 0-.072-.025c-.007 0-.011.002-.013.004s-.004.006-.004.013c0 .007.002.012.004.014a.025.025 0 0 0 .013.008.245.245 0 0 0 .059.004h.001a.22.22 0 0 1 .056.004c.015.005.024.015.033.031a.206.206 0 0 1 .017.011l.005.003a.1.1 0 0 0 .023.012c.016.005.04.006.08-.01a.103.103 0 0 1 .105.013.408.408 0 0 1 .018.013l.017.012a.059.059 0 0 0 .032.011h.008v.009c0 .014.007.029.019.043a.142.142 0 0 0 .044.034l.004.002v.114h-.008l-.002.002a.018.018 0 0 0 0 .01c.001.01.009.025.025.041l.007.008-.009.005a.372.372 0 0 0-.17.29.41.41 0 0 0 .088.303c.133.141.29.2.472.216a2.97 2.97 0 0 0 .614-.033h.004a3.78 3.78 0 0 1 .608.338.142.142 0 0 0 .045.027c0-.002 0-.004-.002-.007a.115.115 0 0 0-.036-.04l-.033-.023c-.03-.02-.072-.05-.116-.078a.977.977 0 0 0-.252-.127.02.02 0 0 1-.004-.003.011.011 0 0 1-.003-.007.01.01 0 0 1 .004-.008.016.016 0 0 1 .005-.003.045.045 0 0 1 .01-.001l.023-.001h.253c.043 0 .066.009.08.018l.013.01.002.002.006.004h.003l.17.153a.108.108 0 0 1 .026.035c.004.01.004.02-.005.027-.007.005-.018.005-.028.002a.12.12 0 0 1-.036-.017.06.06 0 0 0-.03-.011h-.006a.006.006 0 0 0-.002.004c-.001.004 0 .013.007.027a.24.24 0 0 0 .041.051.674.674 0 0 1 .057.066.03.03 0 0 1 .005.014c0 .005-.003.01-.007.013a.028.028 0 0 1-.012.004c-.008.002-.02.002-.031.002a.109.109 0 0 1-.09-.019 2.043 2.043 0 0 0-.452-.25.827.827 0 0 0-.353-.022.18.18 0 0 0-.06.02l-.015.01.002-.018a.192.192 0 0 0 0-.068c-.004-.014-.01-.017-.012-.017-.003 0-.008.001-.013.008a.046.046 0 0 0-.009.028v.001l-.1.286a.065.065 0 0 1-.023.047.029.029 0 0 1-.023.007c-.01-.001-.016-.008-.021-.018l-.101-.185V8.65c-.009-.025-.017-.035-.023-.04-.005-.004-.01-.005-.018-.005a.563.563 0 0 1-.681-.137l.01-.013a.322.322 0 0 1 .025.014.113.113 0 0 0 .02.01c.005.002.006.001.007 0 0 0 .003-.004.003-.017a.07.07 0 0 1 .006-.032c.005-.008.012-.014.021-.014.009 0 .017.005.023.012a.09.09 0 0 1 .016.03l.023.034a.022.022 0 0 1 .02-.013c.014 0 .024.013.025.03.016.015.026.02.034.02.009 0 .02-.005.036-.022l.001-.001h.001l.013-.01a.03.03 0 0 0-.013-.006.138.138 0 0 0-.03-.003.09.09 0 0 1-.029-.003.018.018 0 0 1-.008-.006.013.013 0 0 1-.002-.012.023.023 0 0 1 .005-.008.172.172 0 0 1 .03-.02c.008-.004.01-.007.01-.009 0-.002-.001-.005-.005-.01a.075.075 0 0 0-.051-.016.058.058 0 0 1-.03-.006.021.021 0 0 1-.009-.01.017.017 0 0 1 0-.011.029.029 0 0 1 .014-.017.05.05 0 0 1 .024-.006.06.06 0 0 0 .01-.005l.002-.001-.002-.001a.092.092 0 0 0-.025-.007.217.217 0 0 0-.034-.003H18.2a.03.03 0 0 1-.007-.001s-.002 0-.003-.002a.01.01 0 0 1-.003-.004.01.01 0 0 1 .002-.01.016.016 0 0 1 .003-.002l.003-.001a.192.192 0 0 1 .007-.003l.02-.01c.008-.004.01-.007.011-.01 0 0 0-.003-.005-.007a.09.09 0 0 0-.034-.012.368.368 0 0 0-.068-.005h-.003a.065.065 0 0 1-.027-.015.018.018 0 0 1-.005-.01c0-.005 0-.009.002-.011a.032.032 0 0 1 .015-.011.053.053 0 0 1 .014-.004h-.03a.075.075 0 0 1-.032-.006.03.03 0 0 1-.016-.017.02.02 0 0 1 .007-.02.037.037 0 0 1 .022-.007h-.116a.161.161 0 0 1-.048-.006c-.01-.003-.019-.009-.02-.017-.003-.01.003-.017.01-.021a.048.048 0 0 1 .025-.007.044.044 0 0 0 .019-.004.018.018 0 0 0 .003-.003.044.044 0 0 0-.013-.005.27.27 0 0 0-.06-.005.167.167 0 0 1-.045-.005.072.072 0 0 1-.015-.006.025.025 0 0 1-.01-.01.014.014 0 0 1-.002-.008c0-.003.002-.006.004-.008a.03.03 0 0 1 .014-.007.194.194 0 0 1 .054-.006.267.267 0 0 0 .066-.014.03.03 0 0 0 .008-.006.02.02 0 0 0-.005-.003.081.081 0 0 0-.016-.005.235.235 0 0 0-.052-.006.226.226 0 0 1-.058.004.015.015 0 0 1-.007-.004.01.01 0 0 1-.002-.01c0-.003.002-.005.004-.006a.036.036 0 0 1 .01-.007.146.146 0 0 1 .045-.01.322.322 0 0 1-.031-.019c-.013-.008-.021-.018-.022-.028-.001-.01.007-.018.014-.022a.057.057 0 0 1 .036-.004l-.083-.067V7.84c.018-.227.017-.352-.007-.434-.025-.082-.073-.122-.157-.181h-.001a.052.052 0 0 1-.016-.027.022.022 0 0 1 .008-.022.037.037 0 0 1 .024-.006c.008 0 .018.002.027.007.007.003.012.003.014.002a.009.009 0 0 0 .006-.007c0-.002 0-.005-.003-.007-.003-.003-.01-.006-.02-.006h-.002l-.252-.067h-.014v-.017h.282l.033-.027.021-.018a.594.594 0 0 1 .072-.053Zm-.107.104v.01h-.222l.19.051c.013 0 .023.004.03.01.007.007.01.015.008.024a.026.026 0 0 1-.015.018.033.033 0 0 1-.028-.002.05.05 0 0 0-.021-.006c-.006 0-.01.002-.012.003s-.003.003-.002.006c0 .003.003.01.01.017.084.058.137.102.163.189.025.085.025.212.009.436l.078.063c.008 0 .015.002.02.007a.018.018 0 0 1 .004.018.018.018 0 0 1-.013.012c-.007.002-.014 0-.02-.006-.002-.002-.007-.004-.014-.004a.04.04 0 0 0-.018.003c-.005.003-.006.005-.006.006 0 .002.003.007.015.015.02.013.037.021.047.026a.26.26 0 0 1 .007.003l.003.002.004.004a.01.01 0 0 1 .002.006.009.009 0 0 1-.004.006.012.012 0 0 1-.005.002h-.01a.251.251 0 0 1 .041.006.097.097 0 0 1 .02.007.03.03 0 0 1 .013.01.015.015 0 0 1 .003.01.016.016 0 0 1-.004.008.039.039 0 0 1-.016.011.282.282 0 0 1-.07.016h-.001a.18.18 0 0 0-.054.006l.001.001a.054.054 0 0 0 .012.005c.01.003.024.005.04.005.03 0 .05.002.064.005a.058.058 0 0 1 .017.007.02.02 0 0 1 .01.01c0 .006-.001.01-.004.014a.03.03 0 0 1-.01.008.06.06 0 0 1-.026.006.031.031 0 0 0-.017.004c-.002.001-.002.002-.002.003 0 0 .002.003.01.005a.146.146 0 0 0 .042.005h.118a.176.176 0 0 1 .018.001.01.01 0 0 1 .009.015.017.017 0 0 1-.005.006.108.108 0 0 1-.018.01l-.002.002h-.002c-.007 0-.011.001-.013.003-.002.001-.002.002-.002.003l.007.006a.059.059 0 0 0 .025.004 1.294 1.294 0 0 1 .057.003l.004.001c.001.001.004.002.005.005a.01.01 0 0 1 0 .01.014.014 0 0 1-.004.004.23.23 0 0 1-.026.011h-.002c-.003 0-.008 0-.012.002a.018.018 0 0 0-.006.005.049.049 0 0 0 .019.01.38.38 0 0 1 .07.006.105.105 0 0 1 .04.014c.01.007.015.016.013.026a.033.033 0 0 1-.02.02l-.002.001c.013 0 .025.001.036.003a.109.109 0 0 1 .03.009.027.027 0 0 1 .01.007.014.014 0 0 1 .001.014.023.023 0 0 1-.01.01.077.077 0 0 1-.015.007h-.003a.034.034 0 0 0-.017.005c-.005.002-.006.005-.006.006l.001.003c.004.001.01.003.022.003.027 0 .05.01.063.022.006.006.01.014.01.024-.002.009-.009.016-.019.02a.163.163 0 0 0-.025.017c.004 0 .01.002.021.002.013 0 .025 0 .034.003a.044.044 0 0 1 .02.01.018.018 0 0 1 .006.01c0 .004 0 .007-.003.01a.044.044 0 0 1-.018.016c-.016.016-.03.026-.047.026-.016 0-.031-.01-.048-.027l-.002-.003v-.003c0-.015-.007-.017-.009-.017-.002 0-.008.002-.008.017v.027l-.05-.074v-.001a.077.077 0 0 0-.014-.026c-.004-.005-.008-.006-.01-.006-.001 0-.004 0-.006.005a.053.053 0 0 0-.004.024c0 .013-.002.024-.009.03-.007.007-.016.006-.023.003h-.002a.547.547 0 0 0 .627.094h.004c.009 0 .02 0 .03.007.01.008.02.023.028.048l.1.185c.004.007.008.008.01.009.002 0 .005 0 .01-.004a.048.048 0 0 0 .015-.035v-.002l.101-.286c0-.014.005-.026.012-.036.007-.009.018-.017.03-.015.012.002.02.013.024.03a.179.179 0 0 1 .003.058.258.258 0 0 1 .052-.014.844.844 0 0 1 .361.022c.163.064.316.15.457.253a.092.092 0 0 0 .077.015h.002a.195.195 0 0 0 .034-.003s0-.002-.003-.005a.65.65 0 0 0-.054-.062.254.254 0 0 1-.044-.055c-.008-.015-.011-.029-.008-.04a.022.022 0 0 1 .01-.012.029.029 0 0 1 .015-.004c.011 0 .025.005.038.014a.104.104 0 0 0 .03.015c.01.002.014 0 .015 0v-.007a.093.093 0 0 0-.022-.028l-.166-.15a.028.028 0 0 1-.013-.007l-.003-.003-.01-.008c-.011-.007-.03-.015-.071-.015h-.263l.047.017c.051.017.124.06.189.102.045.029.087.058.117.079l.032.022a.132.132 0 0 1 .042.047c.002.005.004.01.004.015 0 .005-.002.01-.008.014-.005.003-.01.002-.016 0a.156.156 0 0 1-.049-.029 3.593 3.593 0 0 0-.602-.334l-.036.004a2.98 2.98 0 0 1-.579.03.715.715 0 0 1-.483-.222.427.427 0 0 1-.092-.316.39.39 0 0 1 .17-.297.092.092 0 0 1-.023-.044.033.033 0 0 1 .002-.02.018.018 0 0 1 .008-.008v-.09a.16.16 0 0 1-.044-.035.091.091 0 0 1-.022-.046.084.084 0 0 1-.033-.014.353.353 0 0 1-.018-.012v-.001l-.018-.012a.109.109 0 0 0-.039-.018.086.086 0 0 0-.05.006c-.043.018-.07.018-.092.01a.113.113 0 0 1-.031-.016.081.081 0 0 0-.018-.01l-.003-.002v-.003c-.009-.015-.016-.022-.025-.025a.184.184 0 0 0-.052-.004h-.002c-.024 0-.046 0-.062-.004a.042.042 0 0 1-.021-.013.038.038 0 0 1-.008-.025c0-.01.003-.018.009-.025a.034.034 0 0 1 .025-.008.2.2 0 0 1 .079.026.434.434 0 0 0 .16.045c.048 0 .092-.02.132-.076a.102.102 0 0 0 .02-.067.102.102 0 0 0-.027-.057.313.313 0 0 0-.156-.082.245.245 0 0 0-.185.035.582.582 0 0 0-.09.068l-.026.021Zm.184.92a.121.121 0 0 0-.03.004.39.39 0 0 0 .03-.004Zm.005-.084.002.002a.008.008 0 0 0 .003.002h.001l.001-.001v-.001s-.003-.002-.008-.002Z" clip-rule="evenodd"/><path fill="#fff" d="M18.428 7.035a.471.471 0 0 0-.168-.101c-.05 0-.05.033-.034.05v.101c.034.017.05.05 0 .05-.033.034 0 .152.05.118h.035s0 .05.033.05c.034 0 0 .034 0 .051h.034c.034 0 .017.068-.017.084.05 0 .067 0 .067.034.017.034.068.05.068.1 0 .051 0 .051-.068.035-.067-.017-.067 0-.084.033-.017.034-.033.05 0 .05.034 0 .067.018.017.034-.05.017-.1 0-.118.05 0 .051 0 .068.034.051l.118-.067.084.017c.033.017 0 .084-.034.05-.034-.033-.067 0-.084.017l-.084.034c-.034 0-.067 0-.05.084 0 .235.184.404.521.404h.555c-.1-.068-.168-.101-.219-.101h-.05c.017-.017 0-.05-.017-.05s-.05-.034-.084 0l-.168.083c-.034 0-.084 0-.034-.033l.152-.068c.033 0 .016-.033.016-.033s0-.05.05-.034c.102.067.253.152.304.152.05 0 .067-.034.033-.05-.033-.018-.05-.051-.05-.068 0-.017.017-.034.084 0a.82.82 0 0 0 .219.1c.05.018.084.018 0-.033l-.387-.286c-.05-.05-.05 0-.034.034.017.033-.05.05-.084.017-.034-.034-.05-.05 0-.068.05-.017.034-.033-.017-.084-.067-.05-.084-.05-.067 0s.017.084-.034.067c-.05-.016-.1-.05-.05-.067.033-.034.084-.05 0-.1-.084-.051-.034 0-.05.033a.048.048 0 0 1-.085 0c-.017-.034-.05-.05-.034-.067.017-.017.017-.034.051 0 .034.033.067 0 .017-.05-.05-.051-.067-.035-.05 0 .016.033-.034.066-.102 0-.033-.018-.033-.051 0-.068.034 0 .034-.017 0-.05-.117-.203-.067-.354-.201-.505h.016Z"/><path fill="currentColor" fill-rule="evenodd" d="M18.21 6.948c.006-.015.023-.024.05-.024h.002a.48.48 0 0 1 .172.103l.016.015h-.02a.5.5 0 0 1 .102.243c.017.076.035.157.088.248a.16.16 0 0 1 .02.022.038.038 0 0 1 .007.02c0 .004 0 .008-.003.011a.02.02 0 0 1-.008.007.049.049 0 0 1-.02.004c-.014.007-.02.017-.02.025 0 .009.006.019.021.026h.002v.002c.033.032.06.039.075.035.007-.001.012-.005.014-.01.002-.004.002-.01-.001-.016a.059.059 0 0 1-.007-.025c0-.003 0-.007.003-.01a.016.016 0 0 1 .01-.008c.007-.002.016.001.025.006.009.006.02.015.033.028a.101.101 0 0 1 .025.037.039.039 0 0 1 0 .03.024.024 0 0 1-.025.011.05.05 0 0 1-.029-.016.1.1 0 0 0-.018-.015.013.013 0 0 0-.004-.002c-.002 0-.003.001-.006.005l-.002.002-.009.01-.001.003v.002c0 .003.002.006.006.011a.173.173 0 0 1 .03.041c.015.028.056.028.07 0a.039.039 0 0 0 .002-.021.267.267 0 0 0-.001-.01v-.002a.061.061 0 0 1-.002-.01c0-.004 0-.01.005-.013.005-.004.01-.003.015-.002.009.002.022.01.043.022a.143.143 0 0 1 .043.034.038.038 0 0 1 .007.017.03.03 0 0 1-.002.016.073.073 0 0 1-.02.024l-.009.007-.017.016-.002.001h-.002c-.012.005-.014.009-.015.01 0 .001 0 .005.006.01a.17.17 0 0 0 .06.032c.012.004.02.005.024.004s.006-.003.007-.007a.048.048 0 0 0 0-.02.22.22 0 0 0-.008-.034.095.095 0 0 1-.006-.03.02.02 0 0 1 .004-.013.016.016 0 0 1 .012-.005.03.03 0 0 1 .013.002.47.47 0 0 1 .057.037l.001.001.032.032a.082.082 0 0 1 .017.026.025.025 0 0 1 0 .013.024.024 0 0 1-.006.012.075.075 0 0 1-.03.015.07.07 0 0 0-.022.011.01.01 0 0 0-.003.004v.003c0 .003.003.007.008.013.005.007.013.014.021.022a.06.06 0 0 0 .053.015.027.027 0 0 0 .017-.01c.003-.002.003-.006 0-.012a.108.108 0 0 1-.009-.029.05.05 0 0 1 .001-.026.018.018 0 0 1 .009-.01.02.02 0 0 1 .014-.001c.01.002.02.01.032.022l.386.286a.326.326 0 0 1 .044.03.044.044 0 0 1 .01.01.015.015 0 0 1 .001.007.011.011 0 0 1-.003.008.014.014 0 0 1-.006.003h-.019a.83.83 0 0 1-.255-.111c-.032-.017-.051-.02-.06-.018-.005 0-.008.002-.009.004a.011.011 0 0 0-.002.006.06.06 0 0 0 .012.03.09.09 0 0 0 .034.03.04.04 0 0 1 .02.02.026.026 0 0 1-.002.024c-.008.014-.029.023-.055.023a.177.177 0 0 1-.058-.015 1.934 1.934 0 0 1-.25-.137.037.037 0 0 0-.022-.002.019.019 0 0 0-.01.009.04.04 0 0 0-.005.012v.005l.002.004a.05.05 0 0 1 .002.014.024.024 0 0 1-.007.018c-.005.005-.012.007-.02.008l-.15.066a.095.095 0 0 0-.016.014.41.41 0 0 0 .043.004l.166-.083a.055.055 0 0 1 .028-.016c.01-.001.02 0 .028.002l.019.008h.002a.094.094 0 0 0 .012.005c.007 0 .013.003.018.007a.046.046 0 0 1 .013.043h.037c.026 0 .057.009.093.026.037.017.08.043.13.076l.023.016h-.583a.614.614 0 0 1-.392-.116.37.37 0 0 1-.138-.296c-.008-.041-.005-.066.009-.08a.044.044 0 0 1 .024-.012.146.146 0 0 1 .024-.001l.081-.032a.126.126 0 0 1 .038-.028.05.05 0 0 1 .028-.004c.01.001.02.007.03.016.006.007.011.007.015.006.005 0 .01-.004.013-.01a.032.032 0 0 0 .004-.02.016.016 0 0 0-.008-.012l-.08-.016-.115.066a.055.055 0 0 1-.023.007c-.004 0-.008-.001-.01-.003a.019.019 0 0 1-.008-.008.058.058 0 0 1-.005-.022V7.77a.06.06 0 0 1 .022-.031c.01-.007.02-.01.031-.013l.025-.003a.759.759 0 0 0 .046-.009.052.052 0 0 0 .019-.01.032.032 0 0 0-.012-.005.089.089 0 0 0-.022-.002c-.008 0-.016-.001-.021-.005a.015.015 0 0 1-.006-.009.02.02 0 0 1 0-.01.083.083 0 0 1 .008-.017l.003-.005.009-.017a.307.307 0 0 0 .004-.008l.007-.014a.044.044 0 0 1 .015-.017.048.048 0 0 1 .027-.006.2.2 0 0 1 .04.007.558.558 0 0 0 .053.01c.001-.001.002-.002.003-.008l.001-.027c0-.022-.01-.037-.025-.051a.338.338 0 0 0-.01-.01l-.012-.012a.1.1 0 0 1-.02-.025V7.47a.036.036 0 0 0-.003-.016.012.012 0 0 0-.006-.006.061.061 0 0 0-.019-.003h-.03l-.005-.017c.014-.006.026-.025.03-.042a.036.036 0 0 0 0-.02.008.008 0 0 0-.003-.004.01.01 0 0 0-.006-.002h-.042v-.008c0-.006.003-.013.005-.019l.003-.006.005-.01a.023.023 0 0 0 .002-.005v-.001l-.007-.001c-.022 0-.033-.017-.037-.031a.094.094 0 0 1-.004-.02h-.024a.039.039 0 0 1-.02.006.036.036 0 0 1-.02-.007.079.079 0 0 1-.027-.038.134.134 0 0 1-.007-.05.06.06 0 0 1 .016-.043l.002-.002h.004c.012 0 .018-.002.02-.004a.005.005 0 0 0 .003-.002v-.003a.027.027 0 0 0-.008-.012.075.075 0 0 0-.02-.014l-.004-.002v-.103c-.008-.01-.013-.025-.008-.038Zm.69 1.212h-.009v-.002l.001-.007c0-.005.003-.012.007-.018a.036.036 0 0 1 .02-.016.054.054 0 0 1 .034.002h.002a1.911 1.911 0 0 0 .246.137c.023.01.04.014.052.014.024 0 .037-.008.04-.015a.01.01 0 0 0 .002-.009.025.025 0 0 0-.012-.01.108.108 0 0 1-.041-.037.075.075 0 0 1-.015-.039c0-.005.002-.011.006-.016a.028.028 0 0 1 .018-.01c.016-.003.039.002.073.019h.001a.814.814 0 0 0 .248.11h.002a.326.326 0 0 0-.04-.028l-.389-.287a.07.07 0 0 0-.025-.019h-.003v.001a.035.035 0 0 0 0 .017.091.091 0 0 0 .008.025.027.027 0 0 1-.003.03.046.046 0 0 1-.026.015.076.076 0 0 1-.069-.019l-.022-.023a.051.051 0 0 1-.012-.021l.001-.012a.027.027 0 0 1 .007-.01.084.084 0 0 1 .03-.015.06.06 0 0 0 .022-.011.007.007 0 0 0 .002-.004v-.004a.065.065 0 0 0-.014-.02l-.03-.03a.447.447 0 0 0-.053-.035.022.022 0 0 0-.007-.002v.002c0 .004.002.013.006.025a.229.229 0 0 1 .01.036c0 .01.001.02-.002.028a.025.025 0 0 1-.019.018.068.068 0 0 1-.033-.004.184.184 0 0 1-.067-.036c-.007-.006-.013-.016-.01-.026.003-.01.012-.016.024-.02a.286.286 0 0 1 .018-.016l.007-.006a.06.06 0 0 0 .016-.019.013.013 0 0 0 .001-.007.02.02 0 0 0-.004-.009.126.126 0 0 0-.038-.03.203.203 0 0 0-.037-.02.173.173 0 0 0 .003.019c.001.01.001.02-.004.031-.02.04-.08.04-.1 0a.145.145 0 0 0-.02-.03.345.345 0 0 1-.008-.008.048.048 0 0 1-.01-.018.02.02 0 0 1 .004-.018c-.022.001-.05-.01-.08-.04-.019-.01-.03-.025-.03-.04 0-.018.012-.033.03-.042l.002-.001h.002a.036.036 0 0 0 .016-.002l.001-.001v-.001c0-.002 0-.005-.005-.011a.147.147 0 0 0-.017-.021h-.001v-.002c-.055-.094-.074-.177-.092-.253l-.004-.02a.473.473 0 0 0-.106-.23l-.012-.014h.013a.462.462 0 0 0-.147-.084c-.023 0-.03.008-.033.013-.003.007 0 .016.007.023l.002.002v.1a.09.09 0 0 1 .019.014.043.043 0 0 1 .012.02v.013a.021.021 0 0 1-.009.01.05.05 0 0 1-.027.006.053.053 0 0 0-.009.03c0 .014.002.03.007.043a.062.062 0 0 0 .02.03.02.02 0 0 0 .011.004.024.024 0 0 0 .013-.004l.003-.002h.044v.016l.004.015c.004.012.01.02.021.02.01 0 .018.002.022.01a.018.018 0 0 1 .001.011.037.037 0 0 1-.002.01l-.006.012-.002.005-.002.002h.023c.006 0 .01.002.015.005a.025.025 0 0 1 .01.012.052.052 0 0 1 0 .03.094.094 0 0 1-.019.038h.01c.008 0 .016.002.023.004a.029.029 0 0 1 .015.014.048.048 0 0 1 .005.022.085.085 0 0 0 .015.019.387.387 0 0 1 .022.021c.016.015.03.034.03.063l-.001.03a.027.027 0 0 1-.012.02c-.007.003-.016.002-.025 0l-.04-.008a.182.182 0 0 0-.037-.007.03.03 0 0 0-.017.003.027.027 0 0 0-.01.011.144.144 0 0 0-.005.012l-.005.01a.392.392 0 0 1-.01.017l-.002.005a.074.074 0 0 0-.006.014c0 .001.004.002.01.002.01 0 .018.001.026.003a.044.044 0 0 1 .02.01.017.017 0 0 1 .005.01.017.017 0 0 1-.004.012.062.062 0 0 1-.027.015.205.205 0 0 1-.05.01.301.301 0 0 0-.023.003.06.06 0 0 0-.024.01.043.043 0 0 0-.015.02.505.505 0 0 0 .003.046l.001.002h.002a.04.04 0 0 0 .015-.005l.12-.07.089.018v.001a.033.033 0 0 1 .019.026.049.049 0 0 1-.006.03.038.038 0 0 1-.024.019c-.01.003-.022-.001-.032-.011a.037.037 0 0 0-.02-.012.034.034 0 0 0-.019.003.115.115 0 0 0-.033.026l-.001.001-.087.035h-.002a.14.14 0 0 0-.023.001.027.027 0 0 0-.015.007c-.007.007-.013.024-.004.066v.002c0 .115.045.213.131.283a.6.6 0 0 0 .382.112h.527a.919.919 0 0 0-.104-.06.211.211 0 0 0-.087-.024h-.07l.014-.015c.005-.005.006-.013.003-.022a.029.029 0 0 0-.007-.01c-.003-.003-.005-.004-.007-.004l-.01-.001a.104.104 0 0 1-.01-.005l-.018-.007a.042.042 0 0 0-.02-.001.04.04 0 0 0-.02.012l-.172.086h-.029a.084.084 0 0 1-.025-.004.02.02 0 0 1-.01-.008.015.015 0 0 1 0-.013.034.034 0 0 1 .008-.012.117.117 0 0 1 .016-.012l.154-.068h.002c.007 0 .01-.002.01-.003.002-.001.002-.003.002-.006a.03.03 0 0 0-.001-.009l-.002-.003V8.16h.008Zm-.175-.481.008.003.021.018c.008.008.014.01.019.011.004 0 .007 0 .008-.003.001-.002.002-.007 0-.016a.084.084 0 0 0-.022-.03.164.164 0 0 0-.03-.025l-.012-.005v.002c0 .004.001.01.005.018a.035.035 0 0 1 .002.027Zm.096.048Z" clip-rule="evenodd"/><path fill="#CF6200" d="M18.435 7.065c-.011.019-.015.015-.037.03-.023.019-.03.067.015.064a.104.104 0 0 0 .06-.038.382.382 0 0 0-.038-.056Zm-.135-.109c-.034.034-.037.049-.022.049.022 0 .01 0 0 .026-.02.023.026.034.045.015.018-.019.018-.022.03 0 .003.019.037 0 .052-.015a.493.493 0 0 0-.105-.075Zm-.06.188c-.045.022-.03.138.038.105.022-.012.037-.004.037.01a.04.04 0 0 0 0 .03.203.203 0 0 0 .075-.052c.038-.048 0-.045-.06-.045s-.075-.011-.019-.045c.053-.033.015-.052-.056-.045.011.015.008.03-.015.042Zm.251.258c-.033-.037-.01-.052.023-.07a.045.045 0 0 0 .019-.016l-.03-.112c-.015.007-.038.048-.045.067-.008.03-.015.045-.045.038-.027-.008-.053.022-.057.052h.02c.01.004.014.023.01.038.08 0 .094.052.11.09.014.04.03.037.04.01.012-.022-.015-.063-.045-.097Z"/><path fill="#FF0" d="M18.514 7.859c-.015.034-.015.03-.064.03-.045.004-.105.011-.131.037-.011.015-.094.023-.094.057 0 .037 0 .063.038.067.033 0 .037.008.026.034-.015.026-.023.067.037.075.06 0 .105-.015.12.019.015.037 0 .09.012.112.01.023.052.034.116.053.045.01.206.022.255.015.049-.008.03-.038-.019-.038-.049-.007-.086-.015-.097-.049-.012-.037-.023-.056.007-.086.026-.034.053-.056.038-.109-.015-.048-.042-.108-.102-.123-.056-.02-.037-.098-.097-.105-.023 0-.038 0-.045.01Z"/><path fill="#CF6200" d="M18.229 8.332c.052.007.094.022.052.034-.037.01-.063.033-.01.037.052.004.097.026.055.038-.04.01-.045.037.004.037s.071.023.038.045c-.038.019-.06.03-.083-.004-.022-.037-.037-.045-.041-.018-.008.026-.023.007-.038-.03-.015-.038-.052-.053-.04-.023.01.03-.03.038-.068.023.037.037.075.075.123.1.053-.018.113 0 .132 0 .022 0 .09.02.127.038.038.02.064-.015.049-.056-.019-.037-.019-.026-.038 0-.022.019-.026-.011-.022-.056 0-.038-.026-.03-.034-.008-.007.023-.03-.015-.019-.037.012-.023 0-.034-.018-.026-.02.007-.023 0-.027-.045-.003-.045-.022-.038-.026-.02-.004.02-.026-.007-.052-.04-.023-.03-.05-.012-.094.003l.03.008Z"/><path fill="#FF0" d="M18.762 8.605c-.24.094-.413.053-.54-.034.052-.018.112 0 .135 0 .018 0 .09.02.123.038.034.019.064-.015.05-.056.03.041.055.071.093.067a.826.826 0 0 0 .139-.015Zm-.51-1.106c-.015-.049-.03-.06-.056-.056a.158.158 0 0 1-.068-.015c-.026-.011-.064 0-.071.056-.008.056-.038.075-.083.112-.041.03-.067.057-.067.11 0 .052-.012.063-.041.104l-.05.057.053.03c.034.014.023.037-.007.03-.03-.008-.064.007-.011.018.052.011.075.038.026.038-.053-.008-.113.037-.011.026.097-.011.134.037.022.037-.116 0-.075.038-.011.038.108 0 .075.034.045.034-.027 0-.038.037.034.03l.026-.041c.011-.038.022-.14.064-.165.037-.03.06-.075.06-.102a.49.49 0 0 1 .1-.187.157.157 0 0 0 .046-.15v-.004Z"/><path fill="#CF6200" d="M18.165 7.508c-.037-.03-.079-.012-.079.037s-.03.068-.063.086a.15.15 0 0 0-.075.102c0 .04.007.067-.02.1-.03.03-.033.057-.014.076.022.019.022.019.03.045.011.026.06 0 .06-.03s.011-.03.041-.049c.034-.015.086-.101.075-.124-.011-.022-.041-.045 0-.075.038-.033.075-.037.075-.067 0-.034.011-.045.023-.056.01-.012-.027-.03-.053-.045Z"/><path fill="currentColor" d="M18.165 7.462c-.026-.008-.041.048-.004.056.037.007.041-.038.004-.053v-.003Zm-.004.075c-.03.003-.064.04-.015.037.049-.004.067-.041.011-.037h.004Zm-.06.07c-.03.016-.023.057.023.027.045-.03.052-.064-.023-.026Zm-.045.06c-.03.016-.026.057.019.027.045-.026.056-.064-.019-.026Z"/><path fill="currentColor" d="M17.996 7.7c-.03.014-.012.052.03.026.04-.027.04-.064-.03-.027Zm.037.037c-.034.015-.015.052.03.026s.041-.064-.034-.026h.004Z"/><path fill="currentColor" d="M17.977 7.752c-.026.015-.007.053.038.026.045-.026.037-.063-.038-.026Zm.038.041c-.034.015-.015.053.03.027.045-.03.041-.064-.034-.027h.004Z"/><path fill="currentColor" d="M17.962 7.819c-.03.015-.01.052.034.026.045-.026.038-.064-.034-.026Z"/><path fill="currentColor" d="M17.963 7.855c-.027.015-.008.057.037.027.045-.03.038-.064-.037-.027Z"/><path fill="#CF6200" d="M17.944 8.223c-.03.003-.053.048-.015.056.037.007.049.011.049.037 0 .027.01.075.052.075.038.004.075-.04.038-.056-.034-.015-.064-.026-.068-.06 0-.03-.037-.052-.056-.052Z"/><path fill="#FF0" d="m19.013 7.972.022.023c.03.022.083 0 .075-.019-.007-.019-.037-.086.038-.034l.397.278c.083.06.03.067-.007.049-.038-.02-.15-.064-.214-.102-.064-.037-.075-.022-.083-.01-.007.01 0 .037.023.06-.038.003-.101 0-.12-.046a.87.87 0 0 0-.113-.157c-.015-.019-.018-.03-.015-.038l-.003-.004Z"/><path fill="#00D860" d="M21.184 15.136c-.053.037-.128.105-.079.195l.019-.008a5.33 5.33 0 0 0 .551-.813l.004-.027a.766.766 0 0 1-.195.117c.026.07-.098.16-.161.187.026.045.018.113-.038.124.011.037-.034.037-.086.06-.053.022-.075.037-.094.067.026-.018.068-.03.086-.022.02.007.027.037-.01.049a.19.19 0 0 0-.08.045c.057-.02.14-.012.083.026Z"/><path fill="currentColor" d="M18.597 7.89c-.067-.05-.084-.016-.067 0 .017.018 0 .068-.05.085h-.169c-.034 0-.084.067 0 .05l.27-.05c.033 0 .067-.034 0-.084h.016Zm.118.102c-.05-.05-.067-.034-.05 0 .016.034-.017.05-.051.05l-.236.068c-.067 0-.067.05.017.05s.253-.084.27-.084c.016 0 .033-.05.05-.034.017.017.05 0 0-.05Zm.05.134-.168.085c-.05 0-.084.05 0 .05s.168-.084.202-.1l.067-.035s.068-.016 0-.067c-.067-.05-.134 0-.1.017.033.017 0 .05 0 .05Z"/><path fill="currentColor" fill-rule="evenodd" d="M18.558 7.859a.166.166 0 0 1 .043.025l.02.015h-.019c.02.02.028.039.023.055-.005.02-.026.029-.045.03l-.268.05a.122.122 0 0 1-.027.002.039.039 0 0 1-.02-.004.02.02 0 0 1-.009-.014.027.027 0 0 1 .002-.015.065.065 0 0 1 .021-.025.055.055 0 0 1 .031-.012h.167a.077.077 0 0 0 .044-.037.047.047 0 0 0 .006-.02.022.022 0 0 0-.004-.013.028.028 0 0 1-.008-.02.02.02 0 0 1 .013-.019c.008-.003.018-.002.03.002Zm.01.023a.102.102 0 0 0-.016-.007c-.01-.004-.015-.003-.018-.002l-.003.004c0 .002.001.005.004.008a.033.033 0 0 1 .009.023.063.063 0 0 1-.008.028.094.094 0 0 1-.055.047h-.171a.038.038 0 0 0-.02.009.048.048 0 0 0-.016.018l-.001.005.001.002a.023.023 0 0 0 .011.002c.006 0 .014 0 .024-.002l.27-.05c.015 0 .027-.008.03-.018.003-.009-.001-.027-.035-.052l-.02-.015h.014Zm.119.076a.177.177 0 0 1 .058.062.03.03 0 0 1 .002.026.02.02 0 0 1-.019.01.029.029 0 0 1-.02-.008l-.001-.001h-.001a.043.043 0 0 0-.01.01.209.209 0 0 1-.004.005l-.01.012a.042.042 0 0 1-.008.007.02.02 0 0 1-.01.003h-.003a.302.302 0 0 1-.267.084.129.129 0 0 1-.05-.008c-.012-.006-.021-.014-.023-.024-.002-.011.005-.02.015-.026a.083.083 0 0 1 .04-.01l.236-.066h.001c.016 0 .03-.004.039-.011a.019.019 0 0 0 .007-.011c.001-.004 0-.01-.003-.017a.059.059 0 0 1-.007-.025c0-.004 0-.007.003-.011a.016.016 0 0 1 .01-.007c.007-.002.016.001.025.006Zm.02.089Zm-.041-.077c0 .004.001.01.005.018.005.01.007.019.005.027a.036.036 0 0 1-.013.02.08.08 0 0 1-.049.015l-.235.068h-.001a.069.069 0 0 0-.034.006c-.006.004-.007.008-.007.01 0 .001.003.006.013.01.01.004.024.007.044.007.02 0 .046-.005.073-.012a.992.992 0 0 0 .141-.052l.015-.006a.779.779 0 0 1 .04-.014h.002a.027.027 0 0 0 .005-.005l.008-.01.004-.005a.058.058 0 0 1 .015-.014.02.02 0 0 1 .012-.003c.004 0 .008.003.011.006a.012.012 0 0 0 .008.004l.004-.002s.001-.004-.002-.012a.161.161 0 0 0-.052-.054c-.007-.004-.01-.004-.012-.004v.002Zm.108.064c.024-.01.06-.009.096.018a.086.086 0 0 1 .032.036.029.029 0 0 1-.005.029.051.051 0 0 1-.019.013.084.084 0 0 1-.01.004l-.066.033a.274.274 0 0 0-.033.022l-.002.002-.046.033a.24.24 0 0 1-.125.045.094.094 0 0 1-.047-.009.026.026 0 0 1-.01-.012.021.021 0 0 1-.001-.015c.003-.01.011-.017.021-.022a.08.08 0 0 1 .035-.01l.165-.082.004-.004a.053.053 0 0 0 .006-.011.018.018 0 0 0 .002-.011c-.001-.003-.003-.006-.01-.01a.025.025 0 0 1-.012-.012.02.02 0 0 1 0-.015c.004-.01.014-.017.025-.022Zm-.01.092.004.008-.17.085h-.002a.064.064 0 0 0-.029.007c-.008.004-.012.009-.013.012v.003c0 .001.001.003.004.005a.079.079 0 0 0 .038.006c.04 0 .08-.02.116-.043a.876.876 0 0 0 .045-.031l.002-.002a.293.293 0 0 1 .035-.024l.069-.034h.003a.06.06 0 0 0 .006-.003.035.035 0 0 0 .012-.009c.003-.003.004-.007.002-.013-.002-.006-.01-.015-.026-.027-.03-.024-.061-.024-.08-.016a.032.032 0 0 0-.016.012v.003l.004.003c.01.005.017.012.019.02a.034.034 0 0 1-.002.022.066.066 0 0 1-.014.022l-.006-.006Z" clip-rule="evenodd"/><path fill="currentColor" d="M18.075 7.03c-.105-.07-.225.076-.109.158.105.071.214-.09.113-.157h-.004Z"/><path fill="#fff" d="M17.943 7.096h.03c-.003.037.03.086.075.075-.037.03-.112-.008-.105-.075Zm.413 1.593a.986.986 0 0 0 .187.023l-.052.094c-.011.03-.015.033-.019-.012 0-.045-.026-.075-.049-.026l-.045.083c-.01.018-.03.026-.022-.023a.574.574 0 0 0 0-.139Z"/><path fill="currentColor" fill-rule="evenodd" d="M18.58 6.302c1.36-.013 2.711.233 3.98.725l.016.007v.017c-.01.488.002 1.015.014 1.568.01.432.019.88.02 1.334v.05c-.002 1.365-.113 2.786-.667 4.043-.558 1.266-1.564 2.364-3.354 3.073l-.009.004-.01-.004c-1.78-.71-2.782-1.807-3.34-3.073-.554-1.257-.67-2.678-.679-4.042v-.051c0-.423.012-.839.022-1.242.016-.586.031-1.145.012-1.66l-.001-.016.016-.007c1.333-.591 3.087-.726 3.98-.726Zm-3.978 3.702c.01 1.362.125 2.774.674 4.021.552 1.252 1.541 2.34 3.304 3.043 1.772-.704 2.765-1.791 3.317-3.043.549-1.247.66-2.659.662-4.021h-7.957Zm7.957-.05H14.6c0-.42.012-.835.023-1.239.015-.58.03-1.138.012-1.648 1.322-.58 3.057-.714 3.944-.714 1.349-.013 2.687.23 3.945.715-.009.483.003 1.007.014 1.554.01.432.02.88.02 1.331Z" clip-rule="evenodd"/></g><defs><clipPath id="a"><path fill="#fff" d="M0 0h24v18H0z"/></clipPath></defs></svg>