<svg xmlns="http://www.w3.org/2000/svg" width="24" height="18" fill="none"><g fill-rule="evenodd" clip-path="url(#a)" clip-rule="evenodd"><path fill="#fff" d="M-1.65 0h36v18h-36V0Z"/><path fill="#D50000" d="M-1.65 11.999h36V18h-36v-6Z"/><path fill="#0000BF" d="M-1.65 6.001h36v5.998h-36V6Z"/><path fill="#D50000" d="M8.559 3.27c-.14 2.165-.225 3.353-.552 3.902-.359.59-.703 1.023-2.099 1.547-1.392-.524-1.737-.956-2.095-1.547-.33-.549-.412-1.737-.552-3.902l.204-.07c.414-.127.724-.23.952-.275.327-.07.609-.148 1.487-.165.88.014 1.16.098 1.488.169.225.049.548.14.96.27l.207.07Z"/><path fill="#0000BF" d="M8.355 3.2c-.134 2.161-.246 3.153-.422 3.627-.337.816-.872 1.262-2.025 1.688-1.153-.426-1.687-.872-2.028-1.688-.176-.478-.282-1.466-.415-3.631.408-.127.724-.225.953-.271.327-.07.608-.151 1.487-.165.879.014 1.16.095 1.487.165.325.074.647.164.963.27V3.2Z"/><path fill="#FFDF00" d="m5.908 3.86.053.13.246.036-.158.095.151.101-.221.036-.07.12-.07-.124-.212-.028.14-.105-.147-.095.236-.036.052-.13Z"/><path fill="#fff" d="m7.852 6.314-.137-.105-.095-.162-.19-.165-.102-.165-.19-.173-.09-.165-.106-.08-.064-.068-.175.152-.092.165-.116.105-.13-.102-.095-.168-.362-.644-.362.644-.095.168-.13.102-.116-.105-.095-.165-.172-.152-.067.064-.102.084-.091.165-.19.173-.102.165-.19.165-.095.162-.137.105c.077.484.306.931.654 1.276.377.323.814.568 1.286.721a3.66 3.66 0 0 0 1.294-.72c.204-.212.584-.68.654-1.277Z"/><path fill="#FFDF00" d="m6.485 2.95.056.13.246.035-.161.095.154.102-.221.035-.07.12-.07-.123-.212-.029.14-.105-.147-.095.232-.035.056-.13h-.003Zm-1.16 0 .056.13.246.032-.158.094.151.102-.221.036-.07.12-.071-.12-.21-.032.14-.106-.148-.094.236-.036.052-.13-.003.004Z"/><path fill="#0000BF" d="M7.55 7.136h-.26l-.246-.017-.292-.14h-.33l-.285.14-.229.02-.225-.02-.285-.14h-.334l-.295.14-.242.02-.268-.003-.126-.218.003-.007.394.067.243-.017.291-.145h.33l.29.141.224.021.229-.021.284-.14h.33l.296.14.243.021.38-.07.007.014-.13.214h.003Zm-3.037.334.26-.017.291-.14h.33l.29.14.224.017.225-.017.288-.14h.33l.293.14.263.017.17-.21h-.004l-.183.049-.243-.018-.292-.14h-.33l-.288.14-.225.021-.229-.021-.285-.14h-.334l-.295.14-.242.021-.176-.046v.007l.158.197h.003Z"/></g><defs><clipPath id="a"><path fill="#fff" d="M0 0h24v18H0z"/></clipPath></defs></svg>