<svg xmlns="http://www.w3.org/2000/svg" width="24" height="18" fill="none"><g clip-path="url(#a)"><path fill="#EE1C25" d="M0 0h24v18H0V0Z"/><path fill="#0B4EA2" d="M0 0h24v12H0V0Z"/><path fill="#fff" d="M0 0h24v6H0V0Z"/><path fill="#fff" d="M8.737 13.906c-1.613-.777-3.923-2.322-3.923-5.37 0-3.053.15-4.44.15-4.44h7.55s.146 1.387.146 4.44c0 3.052-2.31 4.59-3.923 5.37Z"/><path fill="#EE1C25" d="M8.738 13.5c-1.482-.713-3.6-2.13-3.6-4.928 0-2.797.135-4.072.135-4.072h6.93s.13 1.275.13 4.072c.005 2.802-2.114 4.216-3.595 4.928Z"/><path fill="#fff" d="M9.053 7.838c.4.008 1.185.023 1.878-.21 0 0-.015.252-.015.54 0 .29.02.54.02.54-.638-.213-1.43-.217-1.883-.213v1.545h-.63V8.495c-.45-.004-1.242 0-1.88.213 0 0 .02-.25.02-.54 0-.292-.02-.54-.02-.54.695.233 1.478.218 1.876.21v-.97c-.364 0-.889.014-1.485.213 0 0 .019-.248.019-.54 0-.289-.02-.54-.02-.54a4.442 4.442 0 0 0 1.486.214C8.4 5.6 8.22 4.827 8.22 4.827s.371.026.518.026c.15 0 .517-.026.517-.026s-.18.773-.199 1.388c.364.003.89-.015 1.485-.214 0 0-.018.251-.018.54 0 .292.018.54.018.54a4.462 4.462 0 0 0-1.488-.214v.975-.004Z"/><path fill="#0B4EA2" d="M8.738 9.873c-.746 0-1.144 1.031-1.144 1.031s-.225-.487-.832-.487c-.413 0-.713.364-.908.705.75 1.188 1.947 1.924 2.884 2.377.938-.45 2.138-1.189 2.884-2.377-.195-.338-.495-.705-.908-.705-.607 0-.832.487-.832.487s-.394-1.031-1.144-1.031Z"/></g><defs><clipPath id="a"><path fill="#fff" d="M0 0h24v18H0z"/></clipPath></defs></svg>