<svg xmlns="http://www.w3.org/2000/svg" width="24" height="18" fill="none"><g clip-path="url(#a)"><path fill="#19B6EF" fill-rule="evenodd" d="M0 9h24v9H0V9Z" clip-rule="evenodd"/><path fill="#fff" fill-rule="evenodd" d="M0 0h24v9H0V0Z" clip-rule="evenodd"/><path fill="#FD0" fill-rule="evenodd" d="M11.887 12.72c1.973-1.47 4.088-4.47 1.609-6.053-.461-.09-.975-.064-1.226.135-.132-.075-.237-.068-.368.071-.094-.112-.187-.165-.375-.109a1.53 1.53 0 0 0-1.181-.112c-2.171 1.29-.844 4.372 1.541 6.064v.003Z" clip-rule="evenodd"/><path fill="#7D6C00" fill-rule="evenodd" d="M10.332 6.61a1.575 1.575 0 0 1 1.2.107.387.387 0 0 1 .232-.003c.055.019.1.053.14.095a.343.343 0 0 1 .175-.095.3.3 0 0 1 .187.036c.134-.096.325-.148.534-.168.222-.02.47-.004.705.042l.008.001.007.005c.628.401.97.895 1.092 1.435.122.538.025 1.117-.21 1.688-.47 1.142-1.498 2.265-2.488 3.004l-.072.053v-.07c-1.19-.85-2.117-2.044-2.477-3.192-.181-.578-.22-1.146-.073-1.654.147-.508.479-.952 1.031-1.28l.005-.002.005-.002Zm1.557 6.053c.973-.732 1.973-1.833 2.43-2.944.23-.56.322-1.12.205-1.635-.116-.511-.438-.984-1.045-1.374a2.454 2.454 0 0 0-.67-.038c-.215.02-.396.075-.511.166l-.024.02-.027-.016c-.06-.035-.109-.047-.154-.04-.045.008-.096.037-.158.103l-.035.037-.032-.039a.307.307 0 0 0-.133-.104c-.046-.016-.107-.017-.195.01l-.018.005-.016-.009a1.485 1.485 0 0 0-1.142-.11c-.53.316-.846.74-.985 1.224-.14.486-.105 1.036.072 1.602.353 1.124 1.263 2.302 2.438 3.142Z" clip-rule="evenodd"/><path fill="#4FD46B" fill-rule="evenodd" d="M15.525 9.379s.225-.3.232-.3c.222-.128.244-.296.244-.296.221-.068.15-.252.169-.274a.24.24 0 0 0 .052-.266c0-.03.075-.315-.03-.353.004-.3-.18-.274-.33-.075-.157.045-.191.176-.135.319-.206 0-.213.3-.154.465-.273-.008-.123.3-.13.315-.09.045.07.48.085.465h-.003ZM13.8 11.936l.135.083c.03.105.127.172.198.153.038.162.21.14.338.045.101.15.225.15.397.102.15.112.35.063.48-.053.14.113.233.03.304-.094.113.03.195.012.237-.097.213-.019.108-.221-.068-.307.139-.12.296-.376.075-.413-.068-.049-.199-.037-.296.008-.027-.113-.18-.14-.353-.015-.056-.124-.262-.064-.356.022-.124-.105-.27-.105-.484.015l-.607.551Zm0-.326c.022-.143-.075-.397.075-.42-.027-.236.011-.499.281-.476.045-.222.037-.428.292-.458 0 0 .207-.716.42-.221.083.146.068.383-.1.338.033.176-.027.333-.222.326.086.127.06.296-.037.375l-.713.536h.004Zm1.241-.896.225-.045c.225-.15.319-.214.431-.045.192-.038.375-.023.368.127.225.019.225.162.198.278.038.198-.052.461-.187.142-.446-.27-.697-.232-1.399-.075l.364-.382Zm.116-.222c.008-.007.656-.176.589-.375.184-.03.221-.213.225-.213.386-.12.364-.341.364-.341.108-.117.3-.237.258-.443.012-.236.034-.382-.285-.229-.236-.022-.318.113-.386.319-.112-.131-.292.079-.315.266 0 0-.288.285-.288.293l-.244.45.082.274Z" clip-rule="evenodd"/><path fill="#3A9D4F" fill-rule="evenodd" d="M16.237 7.865a.144.144 0 0 1 .048.082c.01.04.01.085.006.126-.002.042-.009.084-.014.116l-.005.026a.426.426 0 0 0-.002.014l-.002.008a.284.284 0 0 1-.057.295v.019a.37.37 0 0 1-.006.088.225.225 0 0 1-.054.107.282.282 0 0 1-.112.072l-.002.007a.41.41 0 0 1-.036.081.582.582 0 0 1-.217.21c0 .002-.002.003-.004.006a1.863 1.863 0 0 0-.022.027.182.182 0 0 1 .065-.023.14.14 0 0 1 .077.012.544.544 0 0 1 .12-.204c.069-.066.158-.097.28-.088a.6.6 0 0 1 .185-.06c.053-.006.098.008.127.049.024.035.03.082.032.128a1.7 1.7 0 0 1-.004.129l-.001.026a.343.343 0 0 1-.084.286.957.957 0 0 1-.097.103l-.022.021c-.02.019-.04.036-.056.054a.302.302 0 0 1-.043.13c-.049.08-.144.167-.331.229l-.004.01a.403.403 0 0 1-.038.074.308.308 0 0 1-.168.128c-.002.057-.04.105-.083.141a.904.904 0 0 1-.215.125 2.523 2.523 0 0 1-.293.106l-.004.001-.021.007-.004.002v-.001l.004-.002s.005-.002.01-.007l-.033-.031-.043.013-.082-.274a.045.045 0 0 1 .003-.035l.243-.448a.048.048 0 0 1 .005-.008 12.782 12.782 0 0 1 .248-.252l.032-.032.002-.002a.467.467 0 0 1 .022-.084l-.015.02a.045.045 0 0 1-.012.02.046.046 0 0 1-.04.013.045.045 0 0 1-.036-.026 1.522 1.522 0 0 1-.081-.217.867.867 0 0 1-.032-.17.243.243 0 0 1 .005-.075.112.112 0 0 1 .017-.037v-.002l-.009-.028a.507.507 0 0 1-.02-.12.193.193 0 0 1 .04-.136.177.177 0 0 1 .11-.056.62.62 0 0 1-.007-.262.295.295 0 0 1 .068-.142.196.196 0 0 1 .093-.057.292.292 0 0 1 .005-.174.246.246 0 0 1 .162-.146.53.53 0 0 1 .118-.113.214.214 0 0 1 .136-.042c.05.004.09.034.114.082a.37.37 0 0 1 .034.161Zm-.703 1.428a36.785 36.785 0 0 1 .177-.23.34.34 0 0 1 .01-.01l.005-.006a.047.047 0 0 1 .01-.007.493.493 0 0 0 .187-.178.323.323 0 0 0 .033-.08v-.004a.045.045 0 0 1 .032-.037.21.21 0 0 0 .097-.056.134.134 0 0 0 .032-.065.278.278 0 0 0 .005-.066v-.005a.36.36 0 0 1 .001-.043.06.06 0 0 1 .015-.028.195.195 0 0 0 .043-.217.045.045 0 0 1-.004-.017.946.946 0 0 1 .007-.046l.004-.024c.005-.032.011-.07.014-.107a.348.348 0 0 0-.005-.099c-.006-.026-.015-.033-.02-.035a.045.045 0 0 1-.03-.042.316.316 0 0 0-.023-.145c-.014-.026-.029-.033-.043-.035-.018-.001-.044.005-.078.028a.456.456 0 0 0-.105.104.045.045 0 0 1-.023.016c-.068.02-.103.055-.118.096a.231.231 0 0 0 .012.163.045.045 0 0 1-.042.062.112.112 0 0 0-.086.035.207.207 0 0 0-.046.1.534.534 0 0 0 .02.27.045.045 0 0 1-.043.06c-.06-.002-.087.014-.1.028-.013.016-.02.04-.019.075a.42.42 0 0 0 .018.098l.007.024.004.014.004.016.002.01c0 .003 0 .014-.005.025a.044.044 0 0 1-.018.019l-.002.006a.162.162 0 0 0-.002.046.788.788 0 0 0 .028.152c.014.05.03.098.045.135Zm.073.184.032.032-.012.013-.033.032a33.928 33.928 0 0 0-.237.24l-.234.43.064.213.06-.02c.061-.02.14-.047.215-.08a.817.817 0 0 0 .192-.111c.049-.042.057-.071.05-.093a.045.045 0 0 1 .035-.059.216.216 0 0 0 .15-.098.309.309 0 0 0 .03-.058l.006-.02a.134.134 0 0 1 .006-.014c0-.001.002-.005.006-.008 0-.002.008-.01.022-.015.184-.057.265-.136.3-.195a.21.21 0 0 0 .031-.094v-.004a.045.045 0 0 1 .012-.035c.022-.024.048-.048.073-.072l.021-.02a.953.953 0 0 0 .09-.093c.05-.064.08-.133.063-.218a.045.045 0 0 1 0-.011l.001-.033c.003-.046.005-.086.004-.12-.002-.044-.008-.068-.016-.08-.004-.006-.013-.014-.044-.011a.546.546 0 0 0-.166.058.045.045 0 0 1-.024.004c-.108-.01-.173.016-.22.061a.551.551 0 0 0-.119.227.045.045 0 0 1-.077.015c-.02-.022-.037-.027-.054-.024a.137.137 0 0 0-.072.041.402.402 0 0 0-.11.226.045.045 0 0 1-.013.026l-.032-.032Zm.379.47h-.002a.045.045 0 0 1 .002 0Zm-1.494.323v-.003l.002-.005.007-.02a.967.967 0 0 1 .115-.255.274.274 0 0 1 .054-.063c.017-.014.03-.018.04-.017.01 0 .026.005.046.027a.418.418 0 0 1 .073.124.33.33 0 0 1 .039.21c-.006.03-.017.047-.03.057-.01.008-.027.014-.06.005a.045.045 0 0 0-.055.052.297.297 0 0 1-.02.201c-.025.044-.072.075-.155.072a.045.045 0 0 0-.04.07c.075.11.05.252-.027.314l-.634.477-.002-.031-.004-.043a.91.91 0 0 1-.006-.087.228.228 0 0 1 .01-.091.045.045 0 0 1 .013-.02.048.048 0 0 1 .024-.008.045.045 0 0 0 .037-.05.652.652 0 0 1 .027-.312c.017-.04.04-.07.072-.09a.217.217 0 0 1 .134-.024.045.045 0 0 0 .048-.036l.018-.099a4.4 4.4 0 0 1 .011-.062c.01-.05.02-.094.036-.13a.204.204 0 0 1 .064-.087.25.25 0 0 1 .125-.044.045.045 0 0 0 .038-.032Zm-.735 1.318a.045.045 0 0 0 .039.068h.004a.045.045 0 0 0 .037-.02l.699-.525v-.001a.325.325 0 0 0 .082-.37.23.23 0 0 0 .163-.112.35.35 0 0 0 .038-.204.137.137 0 0 0 .074-.028.18.18 0 0 0 .063-.11.418.418 0 0 0-.047-.27.502.502 0 0 0-.087-.143.158.158 0 0 0-.107-.056.151.151 0 0 0-.101.036.36.36 0 0 0-.073.083 1.05 1.05 0 0 0-.127.281.321.321 0 0 0-.14.057.294.294 0 0 0-.092.123.716.716 0 0 0-.041.149l-.012.068-.01.054a.286.286 0 0 0-.148.04.276.276 0 0 0-.108.13.695.695 0 0 0-.037.32.131.131 0 0 0-.065.07.314.314 0 0 0-.016.13c0 .03.004.064.007.095 0 .014.002.027.003.04a.623.623 0 0 1 .002.095Zm1.537-.882-.003.001a.047.047 0 0 1-.016.007l-.211.042-.252.265c.274-.06.48-.096.661-.091.216.004.398.066.626.204a.045.045 0 0 1 .018.02.53.53 0 0 0 .045.087.12.12 0 0 0 .03.034.044.044 0 0 0 .005-.005.224.224 0 0 0 .027-.094.48.48 0 0 0-.005-.138.047.047 0 0 1 0-.018c.013-.057.017-.108-.001-.146-.016-.033-.054-.068-.157-.077a.045.045 0 0 1-.041-.047c.001-.027-.006-.045-.017-.056a.115.115 0 0 0-.059-.032.583.583 0 0 0-.238.007.045.045 0 0 1-.046-.02.212.212 0 0 0-.068-.07.082.082 0 0 0-.059-.007.348.348 0 0 0-.098.043c-.04.023-.086.054-.142.09Zm.423-.13a.265.265 0 0 0-.081-.076.172.172 0 0 0-.121-.016.433.433 0 0 0-.125.053 2.757 2.757 0 0 0-.142.09l-.216.044a.045.045 0 0 0-.024.013l-.363.382a.045.045 0 0 0 .042.075c.352-.079.585-.126.784-.121.193.004.357.057.57.184a.576.576 0 0 0 .046.087.2.2 0 0 0 .056.06c.022.013.048.02.074.012a.102.102 0 0 0 .055-.042.307.307 0 0 0 .042-.135.574.574 0 0 0-.005-.155.31.31 0 0 0-.01-.196c-.03-.064-.092-.107-.191-.123a.155.155 0 0 0-.037-.078.203.203 0 0 0-.104-.06.628.628 0 0 0-.25.001Zm-.092.73a.48.48 0 0 1 .132-.026.273.273 0 0 1 .156.034c.06.012.104.04.125.087a.195.195 0 0 1-.002.145.632.632 0 0 1-.14.214.37.37 0 0 1 .148.173.138.138 0 0 1-.015.127.167.167 0 0 1-.11.057.192.192 0 0 1-.106.102.26.26 0 0 1-.14.006.319.319 0 0 1-.129.125c-.06.027-.126.019-.194-.026-.136.104-.331.15-.49.045a.508.508 0 0 1-.226.019.292.292 0 0 1-.174-.108.36.36 0 0 1-.193.057.186.186 0 0 1-.111-.04.186.186 0 0 1-.054-.075.203.203 0 0 1-.11-.043.28.28 0 0 1-.095-.13l-.12-.073a.045.045 0 0 1-.007-.072l.607-.551a.652.652 0 0 1 .305-.104.338.338 0 0 1 .208.065.438.438 0 0 1 .187-.077c.063-.01.136-.001.183.05a.38.38 0 0 1 .222-.064.177.177 0 0 1 .143.082Zm-.15.006c-.05-.004-.12.015-.201.073a.045.045 0 0 1-.067-.018c-.016-.034-.055-.05-.117-.041a.34.34 0 0 0-.168.078.045.045 0 0 1-.06.001.254.254 0 0 0-.178-.066.56.56 0 0 0-.25.084l-.56.507.084.051c.01.006.017.016.02.027a.19.19 0 0 0 .068.1c.03.022.058.027.076.022a.045.045 0 0 1 .055.033.11.11 0 0 0 .036.064.096.096 0 0 0 .058.02.295.295 0 0 0 .173-.065.045.045 0 0 1 .064.011c.046.068.092.097.144.107.054.01.12 0 .204-.024a.045.045 0 0 1 .04.008c.126.095.3.058.423-.05a.045.045 0 0 1 .058-.002c.06.05.1.05.13.036.036-.016.072-.057.106-.117a.045.045 0 0 1 .05-.02c.053.013.091.014.119.004.024-.01.047-.03.065-.075a.045.045 0 0 1 .038-.029c.047-.004.066-.018.072-.026.005-.007.01-.02.001-.043a.315.315 0 0 0-.157-.153.045.045 0 0 1-.01-.074.583.583 0 0 0 .16-.218c.013-.037.012-.063.005-.079-.006-.013-.021-.03-.067-.038a.046.046 0 0 1-.02-.007.177.177 0 0 0-.108-.023.395.395 0 0 0-.142.034.045.045 0 0 1-.063-.03c-.008-.034-.034-.058-.081-.062Z" clip-rule="evenodd"/><path fill="#4FD46B" fill-rule="evenodd" d="M15.168 9.99c-.154-.116-.24-.259-.214-.397-.1-.139-.172-.222-.075-.345l-.075-.282c-.202-.075-.116-.243-.063-.303-.094-.132-.098-.27-.008-.39 0-.244.173-.15.311 0 0 0 .24.168.064.318.176.064.225.214.128.278.153.067.176.206.093.3.154.12.098.277.143.416l-.304.405Z" clip-rule="evenodd"/><path fill="#3A9D4F" fill-rule="evenodd" d="M14.799 8.178c-.01.01-.02.038-.02.096 0 .01-.003.019-.009.027a.259.259 0 0 0-.056.163.312.312 0 0 0 .064.174.045.045 0 0 1-.002.055.217.217 0 0 0-.053.12.09.09 0 0 0 .016.058.168.168 0 0 0 .082.054.045.045 0 0 1 .028.03l.075.282a.045.045 0 0 1-.008.04.163.163 0 0 0-.035.067.106.106 0 0 0 .005.057c.014.04.046.084.09.145l.016.021c.007.01.01.023.008.035-.02.104.037.22.161.325l.263-.35a.594.594 0 0 1-.018-.128 1.001 1.001 0 0 0-.008-.071.244.244 0 0 0-.095-.173.045.045 0 0 1-.006-.065.128.128 0 0 0 .032-.118c-.01-.04-.043-.081-.11-.11a.045.045 0 0 1-.007-.08.06.06 0 0 0 .027-.035.077.077 0 0 0-.005-.049c-.016-.038-.06-.084-.14-.113a.045.045 0 0 1-.014-.077c.037-.03.047-.059.049-.081a.131.131 0 0 0-.024-.076.327.327 0 0 0-.077-.084l-.007-.005-.001-.001a.227.227 0 0 0-.19-.14c-.019-.004-.026 0-.031.007Zm.277.062a.805.805 0 0 0-.111-.1.313.313 0 0 0-.119-.058c-.042-.008-.087 0-.118.04a.23.23 0 0 0-.039.137.345.345 0 0 0-.003.403.293.293 0 0 0-.053.146.18.18 0 0 0 .033.115.241.241 0 0 0 .102.078l.063.238a.235.235 0 0 0-.038.088.196.196 0 0 0 .008.103c.019.055.06.11.102.168l.005.007c-.02.157.082.307.234.422a.045.045 0 0 0 .063-.009l.304-.405a.045.045 0 0 0 .007-.04.449.449 0 0 1-.018-.098l-.002-.03c-.003-.026-.005-.054-.009-.08a.337.337 0 0 0-.096-.202.21.21 0 0 0 .025-.164.245.245 0 0 0-.106-.14.143.143 0 0 0 .016-.039.166.166 0 0 0-.009-.106.288.288 0 0 0-.133-.137.184.184 0 0 0 .035-.095.221.221 0 0 0-.037-.129.417.417 0 0 0-.099-.107c-.003-.003-.005-.005-.008-.006Z" clip-rule="evenodd"/><path fill="#4FD46B" fill-rule="evenodd" d="M15.442 8.85c-.007-.004-.259-.326-.187-.349-.02-.097-.094-.206-.05-.304-.123-.127-.127-.273-.03-.39-.082-.112-.044-.266.068-.367-.037-.188.098-.233.214-.266.086-.3.225-.225.308.007.12.105.1.263.06.383.142.093.056.213-.008.262l-.375 1.028V8.85Z" clip-rule="evenodd"/><path fill="#3A9D4F" fill-rule="evenodd" d="M15.565 7.046a.399.399 0 0 0-.064.141.045.045 0 0 1-.031.031.384.384 0 0 0-.147.066.114.114 0 0 0-.035.054.197.197 0 0 0 0 .094.045.045 0 0 1-.014.042c-.102.092-.126.22-.062.308a.045.045 0 0 1-.002.055.223.223 0 0 0-.057.16c.003.054.03.112.085.17a.045.045 0 0 1 .009.05c-.016.034-.012.072.002.12a.626.626 0 0 0 .02.056l.006.02a.587.587 0 0 1 .024.08.045.045 0 0 1-.01.039.726.726 0 0 0 .068.127c.024.037.05.073.071.102l.347-.95a.046.046 0 0 1 .015-.02.18.18 0 0 0 .065-.089.07.07 0 0 0-.004-.046.13.13 0 0 0-.051-.054.045.045 0 0 1-.018-.052c.04-.117.05-.248-.047-.334a.045.045 0 0 1-.013-.019.506.506 0 0 0-.064-.13c-.024-.03-.042-.042-.054-.044-.007-.001-.02 0-.04.023ZM15.4 8.872a.812.812 0 0 1-.19-.29.164.164 0 0 1-.014-.058.08.08 0 0 1 .008-.035.727.727 0 0 0-.015-.047l-.006-.017a1.235 1.235 0 0 1-.02-.062.276.276 0 0 1-.01-.154.35.35 0 0 1-.09-.207.305.305 0 0 1 .057-.196c-.07-.125-.028-.277.074-.381a.27.27 0 0 1 .006-.113.204.204 0 0 1 .062-.095.417.417 0 0 1 .158-.079.444.444 0 0 1 .075-.15c.033-.04.076-.062.124-.053a.18.18 0 0 1 .11.079.577.577 0 0 1 .073.142c.121.114.11.273.074.392a.199.199 0 0 1 .057.073.16.16 0 0 1 .008.103.263.263 0 0 1-.087.13l-.37 1.016a.045.045 0 0 1-.084.002Z" clip-rule="evenodd"/><path fill="#4FD46B" fill-rule="evenodd" d="m15.405 7.242-.214-.214c.057-.112.102-.311-.06-.405-.09-.214-.532-.484-.603.03-.068-.154-.21-.307-.312-.127-.232-.199-.356-.139-.236.112 0 0-.109.169.173.3.022.023-.09.304.247.311-.064.098.038.233.173.225-.094.117.067.244.168.195-.04.132-.037.195.147.214l.206.236.169.23.142-1.107Z" clip-rule="evenodd"/><path fill="#3A9D4F" fill-rule="evenodd" d="M15.166 6.592a.266.266 0 0 1 .121.226.495.495 0 0 1-.043.2l.192.192c.01.01.015.024.013.038l-.143 1.106a.045.045 0 0 1-.08.021l-.168-.227-.194-.222a.393.393 0 0 1-.1-.024.142.142 0 0 1-.074-.062.152.152 0 0 1-.015-.089l.004-.026a.21.21 0 0 1-.127-.059.17.17 0 0 1-.052-.1.147.147 0 0 1 .003-.053.234.234 0 0 1-.128-.084.186.186 0 0 1-.039-.14.301.301 0 0 1-.142-.052.213.213 0 0 1-.08-.127.399.399 0 0 1-.006-.118v-.015l.001-.01c-.132-.067-.184-.148-.194-.222a.21.21 0 0 1 .014-.107.427.427 0 0 1-.041-.15c-.002-.046.012-.093.058-.115.04-.02.09-.01.136.01a.6.6 0 0 1 .124.077.164.164 0 0 1 .079-.055.15.15 0 0 1 .123.021c.037.023.072.06.1.102a.338.338 0 0 1 .102-.16.25.25 0 0 1 .222-.046.5.5 0 0 1 .205.11.512.512 0 0 1 .129.16Zm-1.149.07Zm.65-.225c-.04.033-.079.1-.096.222a.045.045 0 0 1-.085.012.395.395 0 0 0-.126-.168c-.021-.014-.037-.015-.05-.012-.013.004-.033.017-.055.057a.045.045 0 0 1-.069.012.595.595 0 0 0-.14-.095c-.04-.016-.057-.013-.061-.011l-.004.004a.061.061 0 0 0-.003.027.37.37 0 0 0 .042.134.045.045 0 0 1-.003.043l-.002.004a.118.118 0 0 0-.01.067c.005.039.034.103.166.165l.013.008a.057.057 0 0 1 .015.033.552.552 0 0 1-.002.06.318.318 0 0 0 .004.09c.007.03.02.056.047.076.028.02.074.038.152.04a.045.045 0 0 1 .037.07c-.02.028-.016.065.01.1.026.033.07.057.122.055a.045.045 0 0 1 .038.073c-.017.02-.02.038-.018.052a.08.08 0 0 0 .025.047c.033.031.078.04.107.027a.045.045 0 0 1 .062.054.42.42 0 0 0-.018.077c-.002.02 0 .03.004.037.003.006.01.014.029.022.02.008.05.015.093.02a.045.045 0 0 1 .03.015l.206.236.002.003.102.138.126-.973-.198-.198a.045.045 0 0 1-.009-.052.422.422 0 0 0 .047-.188.175.175 0 0 0-.09-.158.045.045 0 0 1-.018-.021.407.407 0 0 0-.11-.141.41.41 0 0 0-.167-.09c-.056-.013-.105-.006-.145.027Z" clip-rule="evenodd"/><path fill="#3A9D4F" fill-rule="evenodd" d="m14.88 6.778.081-.012.212.967a.804.804 0 0 1 .114.232l-.057.028.013.059-.08.023a4.463 4.463 0 0 1-.075-.233l-.773-.955.06-.056-.028.03.029-.03.002.002.007.007a7.139 7.139 0 0 1 .121.12 8.32 8.32 0 0 1 .492.538 6.194 6.194 0 0 1-.117-.712v-.008h-.001l.041-.004-.041.004Zm.738.833-.04.003.04-.003v.002l.001.007.002.025a4.113 4.113 0 0 1 .008.414 3.072 3.072 0 0 1-.129.866l-.08-.017.116-1.297h.082Zm-.12 1.62.465-1.208.079.023c-.027.144-.143.447-.25.711a17.288 17.288 0 0 1-.217.504c0 .002-.002.003-.003.005a.04.04 0 0 1-.007.009l-.067-.044Zm.867-.105-.027-.032.057.06-1.215 1.301-.065-.05c.202-.308.508-.636.763-.886a10.328 10.328 0 0 1 .424-.393l.027-.024.007-.006.002-.001.027.03Zm-1.796 1.106a.04.04 0 0 1 .04.041l-.001.014a.042.042 0 0 1-.002.004l-.002.005a4.683 4.683 0 0 1-.028.051l-.028.049-.05.087c-.065.113-.15.265-.237.429a6.983 6.983 0 0 0-.24.492 1.32 1.32 0 0 0-.116.372.041.041 0 1 1-.083-.005c.007-.1.056-.244.123-.4.068-.158.156-.334.243-.498.087-.164.173-.318.238-.43l.05-.09.027-.046a2.294 2.294 0 0 0 .027-.048.041.041 0 0 1 .039-.027Zm1.023 1.32.006.04-.01-.081-1.552.161.005.082c.238-.005.628-.046.957-.085a35.972 35.972 0 0 0 .553-.07l.035-.005.012-.001-.006-.041Zm-1.902.283 1.553.137-.004.082v-.04.04h-.015l-.043-.001-.154-.005a21.099 21.099 0 0 1-.473-.02 8.609 8.609 0 0 1-.493-.04 1.955 1.955 0 0 1-.18-.028.494.494 0 0 1-.063-.018.132.132 0 0 1-.047-.027l-.08-.08Z" clip-rule="evenodd"/><path fill="#65C7FF" fill-rule="evenodd" d="M11.883 12.502c-1.417-1.335-2.868-3.84-1.424-5.107.255.142.558.015.975-.15.127.138.288.172.45.067a.337.337 0 0 0 .4-.079c.413.237.934.36 1.058.124 1.418 1.35-.022 3.87-1.462 5.149l.003-.004Z" clip-rule="evenodd"/><path fill="#7D6C00" fill-rule="evenodd" d="m12.275 7.176.032.018c.203.116.431.204.622.234a.636.636 0 0 0 .243-.001c.064-.016.107-.047.13-.091l.028-.053.043.041c.728.693.717 1.684.352 2.65-.366.966-1.091 1.922-1.815 2.565l-.031-.032-.026.027c-.713-.67-1.435-1.636-1.797-2.595-.362-.959-.37-1.926.373-2.579l.024-.02.027.015c.115.064.242.069.396.036.147-.032.313-.098.508-.176l.033-.013.029-.011.02.023c.06.064.123.1.187.111a.286.286 0 0 0 .206-.051l.021-.014.023.011a.293.293 0 0 0 .348-.068l.024-.027Zm-.39 5.265c.704-.635 1.402-1.564 1.755-2.5.354-.933.36-1.86-.291-2.515a.298.298 0 0 1-.155.088.723.723 0 0 1-.28.003 1.996 1.996 0 0 1-.621-.228.383.383 0 0 1-.406.074.367.367 0 0 1-.248.05.407.407 0 0 1-.217-.116l-.008.003a3.545 3.545 0 0 1-.519.179.645.645 0 0 1-.43-.03c-.678.615-.678 1.524-.325 2.458.352.93 1.05 1.871 1.745 2.534Z" clip-rule="evenodd"/><path fill="#8FC753" fill-rule="evenodd" d="M11.887 12.466a7.98 7.98 0 0 1-1.586-2.16c.075-.064.108-.083.146-.188.218.03.334.037.619-.015.06.217.071.398.206.578l.289-.563c.203.051.415.051.619 0 .12.157.075.401.288.585.128-.375.252-.397.379-.6.188.068.308.037.461-.011.075.093.038.09.188.225a7.264 7.264 0 0 1-1.605 2.149h-.004Z" clip-rule="evenodd"/><path fill="#fff" fill-rule="evenodd" d="M10.222 6.162a.126.126 0 0 1-.028.104.128.128 0 0 1-.195 0 .127.127 0 0 1-.028-.104.127.127 0 1 1 .255 0h-.004Zm-.13-.288a.127.127 0 1 1-.248 0 .127.127 0 0 1 .25 0h-.003Zm-.15-.267a.127.127 0 1 1-.252.044.127.127 0 0 1 .251-.044Zm-.106-.262a.127.127 0 1 1-.25.043.127.127 0 0 1 .25-.043Zm.019-.285a.127.127 0 1 1-.251.043.127.127 0 0 1 .25-.043Zm.66-.469a.126.126 0 0 1-.028.104.128.128 0 0 1-.195 0 .126.126 0 0 1-.028-.104.128.128 0 0 1 .25 0Z" clip-rule="evenodd"/><path fill="currentColor" fill-rule="evenodd" d="M10.39 4.504a.107.107 0 1 0 0 .213.107.107 0 0 0 0-.213Zm-.096-.006a.148.148 0 1 1 .19.226.148.148 0 0 1-.19-.226Zm-.565.475a.107.107 0 1 0 0 .214.107.107 0 0 0 0-.214Zm-.095-.007a.148.148 0 1 1 .125.259.148.148 0 0 1 .045.255.15.15 0 0 1 .107.034.148.148 0 1 1-.189-.002.15.15 0 0 1-.125-.052.148.148 0 0 1 .084-.24.147.147 0 0 1-.095-.102.148.148 0 0 1 .048-.152Zm.077.292a.107.107 0 1 0 0 .214.107.107 0 0 0 0-.214Zm.105.262a.107.107 0 1 0 0 .214.107.107 0 0 0 0-.214Zm.153.267a.107.107 0 0 0-.105.088v.001a.107.107 0 1 0 .207 0l-.006-.025h.003a.107.107 0 0 0-.099-.064Zm.146.105h.005l-.005-.024a.148.148 0 0 0-.291 0 .148.148 0 0 0 .181.178.148.148 0 0 0-.054.113.148.148 0 1 0 .294.022h.002v-.02a.148.148 0 0 0-.186-.144.148.148 0 0 0 .054-.125Zm.089.248a.107.107 0 0 0-.18-.055.107.107 0 0 0-.032.075v.004a.107.107 0 1 0 .21 0l-.004-.024h.006Z" clip-rule="evenodd"/><path fill="#fff" fill-rule="evenodd" d="M10.267 4.635a.128.128 0 0 1-.18.138.127.127 0 1 1 .18-.138Zm-.274.161a.127.127 0 1 1-.25.044.127.127 0 0 1 .25-.044Zm.84-.202a.129.129 0 0 1-.023.11.127.127 0 0 1-.225-.053.127.127 0 0 1 .248-.057Zm.353.03a.128.128 0 0 1-.223.104.126.126 0 0 1-.028-.104.128.128 0 0 1 .25 0Zm.307-.019a.129.129 0 0 1-.023.11.127.127 0 0 1-.225-.053.127.127 0 0 1 0-.057.127.127 0 0 1 .252 0h-.004Z" clip-rule="evenodd"/><path fill="currentColor" fill-rule="evenodd" d="M10.71 4.517a.107.107 0 1 0 0 .214.107.107 0 0 0 0-.214Zm-.092-.01a.148.148 0 1 1 .183.233.148.148 0 0 1-.183-.233Zm.754.012a.107.107 0 0 0-.106.089v.001a.107.107 0 1 0 .207 0l-.006-.025h.003a.106.106 0 0 0-.098-.065Zm.146.106h.004l-.004-.024a.148.148 0 0 0-.292-.001.147.147 0 0 0 .027.126.147.147 0 0 0 .233 0 .148.148 0 0 0 .031-.101Zm-.458-.087a.107.107 0 0 0 0 .214.107.107 0 0 0 .104-.08.107.107 0 0 0-.035-.109.107.107 0 0 0-.069-.025Zm-.095-.007a.148.148 0 1 1 .19.227.148.148 0 0 1-.19-.227Zm-.823.018a.107.107 0 1 0 0 .214.107.107 0 0 0 0-.214Zm-.096-.006a.148.148 0 1 1 .191.227.148.148 0 0 1-.19-.227Zm-.178.167a.107.107 0 1 0 0 .214.107.107 0 0 0 0-.214Zm-.096-.006a.148.148 0 1 1 .191.227.148.148 0 0 1-.19-.227Z" clip-rule="evenodd"/><path fill="#FD0" fill-rule="evenodd" d="M12.221 4.406a.322.322 0 1 1-.645 0 .322.322 0 0 1 .645 0Z" clip-rule="evenodd"/><path fill="#7D6C00" fill-rule="evenodd" d="M11.899 4.105a.302.302 0 1 0 0 .604.302.302 0 0 0 0-.604Zm-.243.059a.343.343 0 1 1 .485.485.343.343 0 0 1-.485-.485Z" clip-rule="evenodd"/><path fill="#fff" fill-rule="evenodd" d="M12.563 4.602a.127.127 0 1 1-.255 0 .128.128 0 0 1 .25 0h.005Zm.322.026a.128.128 0 1 1-.247 0 .128.128 0 0 1 .25 0h-.003Zm.319-.015a.126.126 0 0 1-.028.104.128.128 0 0 1-.152.033.128.128 0 0 1-.071-.137.128.128 0 0 1 .25 0Zm.266-.011a.128.128 0 0 1-.18.137.128.128 0 1 1 .18-.137Zm.334.037a.126.126 0 0 1-.028.104.128.128 0 0 1-.152.034.128.128 0 1 1 .18-.138Zm.262.165a.126.126 0 0 1-.028.104.128.128 0 0 1-.151.034.128.128 0 1 1 .18-.138Z" clip-rule="evenodd"/><path fill="currentColor" fill-rule="evenodd" d="M12.432 4.517a.107.107 0 0 0-.105.087.107.107 0 0 0 .183.074.107.107 0 0 0 .03-.06l-.002-.013a.107.107 0 0 0-.106-.088Zm.142.064h.008v.02a.148.148 0 1 1-.296 0v-.003a.148.148 0 0 1 .288-.017Zm.77-.064a.107.107 0 1 0 0 .214.107.107 0 0 0 0-.214Zm-.096-.007a.148.148 0 1 1-.035.184.147.147 0 0 1-.136.09.148.148 0 1 1 .13-.22.147.147 0 0 1 .041-.054Zm-.17.018a.107.107 0 1 0 0 .213.107.107 0 0 0 0-.213Zm-.316.015a.107.107 0 0 0-.105.089v.001a.107.107 0 1 0 .207 0l-.006-.025h.002a.106.106 0 0 0-.098-.065Zm.146.106h.005l-.005-.024a.148.148 0 0 0-.291-.001.148.148 0 1 0 .291.025Zm.77-.095a.107.107 0 1 0 0 .214.107.107 0 0 0 0-.214Zm-.096-.006a.148.148 0 1 1 .19.227.148.148 0 0 1-.19-.227Zm.358.171a.107.107 0 1 0 0 .214.107.107 0 0 0 0-.214Zm-.095-.006a.148.148 0 1 1 .19.227.148.148 0 0 1-.19-.227Z" clip-rule="evenodd"/><path fill="#E40000" fill-rule="evenodd" d="m10.102 5.688.323.618h2.97l.345-.596c-.203-.139-.338-.244-.626-.18-.162-.232-.338-.274-.6-.251a.468.468 0 0 0-.285-.15l-.623.019c-.165.015-.292.142-.3.142-.262-.034-.506-.026-.57.233-.244-.06-.412.007-.634.165Z" clip-rule="evenodd"/><path fill="#AC0000" fill-rule="evenodd" d="M12.231 5.084h.005a.538.538 0 0 1 .178.06c.043.024.08.054.116.089a.78.78 0 0 1 .337.034c.1.038.186.106.266.213a.61.61 0 0 1 .341.022c.093.035.175.092.264.153l.027.018.034.024-.379.655h-3.023l-.353-.678.032-.023c.112-.08.214-.14.322-.17a.634.634 0 0 1 .306-.011.343.343 0 0 1 .079-.129.344.344 0 0 1 .15-.087.923.923 0 0 1 .36-.01l.012-.01a.819.819 0 0 1 .068-.047.527.527 0 0 1 .229-.084h.001l.628-.019Zm-.623.109a.438.438 0 0 0-.187.07.714.714 0 0 0-.06.043l-.011.008a.604.604 0 0 1-.008.006l-.008.006a.047.047 0 0 1-.028.01h-.003l-.003-.001a.874.874 0 0 0-.341.005.254.254 0 0 0-.112.064.272.272 0 0 0-.068.13l-.01.043-.044-.01a.561.561 0 0 0-.302 0 .93.93 0 0 0-.263.135l.292.56h2.916l.312-.538a1.13 1.13 0 0 0-.237-.137.537.537 0 0 0-.32-.013l-.03.007-.017-.025a.514.514 0 0 0-.24-.205.72.72 0 0 0-.319-.027l-.02.002-.016-.015a.507.507 0 0 0-.111-.089.444.444 0 0 0-.145-.048l-.617.019Z" clip-rule="evenodd"/><path fill="#fff" fill-rule="evenodd" d="M14.175 5.074a.128.128 0 0 1-.223.104.126.126 0 0 1-.028-.104.128.128 0 0 1 .251 0Zm.023.3a.128.128 0 0 1-.223.104.126.126 0 0 1-.029-.104.128.128 0 0 1 .252 0Zm-.094.27a.128.128 0 0 1-.18.138.127.127 0 1 1 .18-.138Zm-.113.225a.128.128 0 1 1-.255 0 .128.128 0 0 1 .252 0h.003Zm-.138.282a.128.128 0 0 1-.223.104.126.126 0 0 1-.029-.104.128.128 0 0 1 .126-.106.127.127 0 0 1 .126.106Zm-1.755-.36a.187.187 0 1 1-.375 0 .187.187 0 0 1 .375 0Z" clip-rule="evenodd"/><path fill="currentColor" fill-rule="evenodd" d="M14.05 4.988a.107.107 0 0 0 0 .213.107.107 0 0 0 .103-.079.107.107 0 0 0-.035-.11.107.107 0 0 0-.068-.024Zm-.096-.007a.148.148 0 1 1 .191.227.148.148 0 0 1-.19-.227Zm.118.307a.107.107 0 0 0 0 .213.107.107 0 0 0 .103-.079.107.107 0 0 0-.034-.11.107.107 0 0 0-.069-.024Zm-.095-.007a.148.148 0 1 1 .085.261.148.148 0 0 1-.073.27.15.15 0 0 1 .015.035h.008v.02a.148.148 0 0 1-.296 0v-.003a.148.148 0 0 1 .136-.122.15.15 0 0 1-.02-.103.148.148 0 0 1 .156-.122.148.148 0 0 1-.011-.236Zm-.034.484a.15.15 0 0 0-.026-.013.106.106 0 0 1-.044-.106.107.107 0 1 1 .07.12Zm-.045.024a.107.107 0 0 0-.14.08.106.106 0 0 0 .106.106.107.107 0 0 0 .106-.091l-.003-.013a.107.107 0 0 0-.043-.069.132.132 0 0 1-.026-.013Zm-1.988-.167a.167.167 0 1 0 0 .334.167.167 0 0 0 0-.334Zm-.147.02a.208.208 0 1 1 .294.294.208.208 0 0 1-.294-.294Zm1.964.422a.107.107 0 0 0 0 .214.107.107 0 0 0 .103-.08.107.107 0 0 0-.034-.11.107.107 0 0 0-.069-.024Zm-.095-.007a.148.148 0 1 1 .19.227.148.148 0 0 1-.19-.227Z" clip-rule="evenodd"/><path fill="#fff" fill-rule="evenodd" d="M12.136 5.363a.225.225 0 1 1-.45 0 .225.225 0 0 1 .45 0Z" clip-rule="evenodd"/><path fill="currentColor" fill-rule="evenodd" d="M11.91 5.158a.205.205 0 1 0 0 .41.205.205 0 0 0 0-.41Zm-.173.031a.245.245 0 1 1 .347.347.245.245 0 0 1-.347-.347Z" clip-rule="evenodd"/><path fill="#fff" fill-rule="evenodd" d="M12.101 4.95a.203.203 0 1 1-.405 0 .203.203 0 0 1 .405 0Z" clip-rule="evenodd"/><path fill="currentColor" fill-rule="evenodd" d="M11.899 4.768a.182.182 0 1 0 0 .364.182.182 0 0 0 0-.364Zm-.158.024a.223.223 0 1 1 .316.316.223.223 0 0 1-.316-.316Z" clip-rule="evenodd"/><path fill="#FD0" fill-rule="evenodd" d="M11.831 4.088v-.157l-.135-.004.008-.12h.112v-.105h.169v.094h.131l-.003.127h-.136v.17h-.15l.004-.005Z" clip-rule="evenodd"/><path fill="#7D6C00" fill-rule="evenodd" d="M11.796 3.68h.21v.094h.132l-.005.17h-.134v.168h-.22l.032-.033V3.95l-.136-.004.01-.16h.111V3.68Zm.056.39h.105v-.168h.136l.002-.086h-.13v-.094h-.128v.105h-.113l-.005.08.133.003v.16Z" clip-rule="evenodd"/><path fill="#FD0" fill-rule="evenodd" d="m12.149 4.61.079.035c.114.051.248.07.393.076.111.003.225-.001.34-.006l.112-.004c.15-.006.303-.006.44.02a.62.62 0 0 1 .36.188c.075.083.098.19.091.302a1.16 1.16 0 0 1-.096.358 5.244 5.244 0 0 1-.363.671l-.042.07-.042-.025-.007.055h-.113l.018-.03a.484.484 0 0 1-.039-.018h-.001c-.018-.01-.028-.016-.054-.02l-.031-.005-.015-.027c-.04-.077-.088-.108-.13-.114-.042-.006-.099.01-.164.068l-.052.045-.04-.056c-.086-.122-.169-.166-.239-.166-.07 0-.151.045-.234.159l-.04.055-.288-.253.061-.045c.029-.022.054-.073.07-.164.017-.089.021-.2.02-.325 0-.08-.002-.165-.005-.251a4.725 4.725 0 0 1 .003-.506l.008-.087Zm1.234 1.604.016-.027c.126-.21.266-.442.355-.655.05-.119.08-.227.087-.319.005-.09-.014-.16-.06-.21v-.001a.498.498 0 0 0-.292-.15 1.907 1.907 0 0 0-.412-.018l-.107.004c-.117.005-.237.01-.353.006a1.316 1.316 0 0 1-.358-.054c-.005.121-.001.259.003.399.002.088.005.178.005.265 0 .126-.003.246-.021.346a.484.484 0 0 1-.068.187l.084.073c.085-.098.184-.157.292-.157.11 0 .213.061.301.167a.303.303 0 0 1 .213-.056c.084.012.154.067.206.152a.26.26 0 0 1 .065.027.325.325 0 0 0 .044.02ZM11.676 4.63l.007.085c.013.148.008.33.002.508-.002.085-.005.168-.005.247 0 .124.004.236.019.324.016.092.041.143.069.164l.06.046-.285.25-.04-.05c-.057-.07-.124-.136-.199-.154-.063-.015-.155.001-.274.16l-.04.052-.05-.043c-.066-.056-.126-.072-.172-.065-.044.007-.089.038-.122.108l-.014.03-.033.005c-.025.004-.035.01-.055.02v.001a.447.447 0 0 1-.117.049l-.017-.06-.053.032a58.981 58.981 0 0 0-.051-.087 5.386 5.386 0 0 1-.352-.656 1.159 1.159 0 0 1-.095-.36.393.393 0 0 1 .093-.302.613.613 0 0 1 .358-.188c.136-.026.288-.025.438-.02l.115.005c.115.005.228.01.338.006.146-.004.28-.023.396-.073l.079-.034Zm-1.238 1.603a.279.279 0 0 0 .043-.022h.001c.018-.01.038-.022.067-.03a.28.28 0 0 1 .2-.15.32.32 0 0 1 .22.056c.123-.142.247-.185.364-.157a.464.464 0 0 1 .223.147l.086-.075a.488.488 0 0 1-.065-.187c-.017-.1-.021-.22-.02-.346 0-.086.002-.173.005-.26.004-.141.008-.28.003-.401-.114.036-.237.05-.36.053a5.096 5.096 0 0 1-.35-.007 14.458 14.458 0 0 0-.11-.004 1.89 1.89 0 0 0-.412.018.49.49 0 0 0-.289.149h-.001c-.047.051-.067.12-.06.212.005.092.036.2.085.32a5.3 5.3 0 0 0 .344.639l.026.045Z" clip-rule="evenodd"/><path fill="#FD0" fill-rule="evenodd" d="M10.399 6.64c.989-.09 1.984-.09 2.973 0l.117-.337c-1.04-.188-1.756-.21-3.113-.023l.023.36Z" clip-rule="evenodd"/><path fill="#7D6C00" fill-rule="evenodd" d="M10.37 6.238c1.362-.188 2.083-.166 3.127.023l.052.009-.145.42-.035-.003c-.987-.09-1.98-.09-2.966 0l-.004-.045-.045.003-.025-.402.041-.005Zm.071.355a16.434 16.434 0 0 1 2.9.001l.089-.254c-.996-.176-1.702-.197-3.006-.019l.017.272Z" clip-rule="evenodd"/><path fill="#C76E2E" fill-rule="evenodd" d="m11.779 12.353.022-.158a.41.41 0 0 0 .278-.014l.09-.14-.068-.078c-.06.011-.112.068-.15.116-.06.004-.112-.026-.172-.037l-.056-.24c-.057-.068-.177-.064-.15.056l.01.094c.023.056.034.135.072.176v.098l.124.127Zm.045-.686c-.075.037-.173-.03-.274-.072-.094-.003-.165.075-.277.05.022-.06.07-.072.104-.106-.026-.153.057-.206.08-.206.022 0 .115.022.115.022l.09.012c.057.101.132.187.162.3Z" clip-rule="evenodd"/><path fill="#FFE100" fill-rule="evenodd" d="M11.28 13.724c.262-.428 2.107-1.29 3.84-3.158-1.763 1.7-2.865 2.115-4.305 3.15l.465.012v-.004Z" clip-rule="evenodd"/><path fill="#E9BF00" fill-rule="evenodd" d="M12.103 12.813c.9-.566 1.789-1.124 2.986-2.278l.064.063c-.87.937-1.767 1.622-2.478 2.125-.177.125-.34.237-.49.34-.153.106-.291.2-.412.287a4.33 4.33 0 0 0-.294.227.875.875 0 0 0-.154.161v.037l-.645-.016.109-.078c.463-.333.89-.601 1.314-.868Zm-.85.87a.98.98 0 0 1 .167-.174c.08-.07.182-.146.3-.232.12-.086.26-.182.415-.289.15-.103.314-.216.488-.338.274-.194.575-.414.89-.665-.48.35-.925.63-1.37.91a26.37 26.37 0 0 0-1.192.78l.303.008Z" clip-rule="evenodd"/><path fill="#9D4916" fill-rule="evenodd" d="M13.815 11.744a.135.135 0 1 1-.27 0 .135.135 0 0 1 .27 0Zm1.29-1.309a.152.152 0 1 1-.26-.106.15.15 0 0 1 .256.106h.004Zm.427-1.11a.134.134 0 0 1-.076.145.135.135 0 1 1 .076-.145Zm-.42-1.44a.134.134 0 0 1-.076.145.135.135 0 1 1 .076-.145Z" clip-rule="evenodd"/><path fill="#68300E" fill-rule="evenodd" d="M14.98 7.794a.114.114 0 1 0 0 .229.114.114 0 0 0 0-.229Zm-.101-.004a.156.156 0 1 1 .2.238.156.156 0 0 1-.2-.238Zm.52 1.444a.114.114 0 1 0 0 .229.114.114 0 0 0 0-.229Zm-.1-.004a.156.156 0 1 1 .2.237.156.156 0 0 1-.2-.237Zm-.348 1.077a.13.13 0 0 0-.09.222.131.131 0 0 0 .222-.072h-.002v-.02a.13.13 0 0 0-.13-.13Zm.17.108a.17.17 0 1 0-.29.143.172.172 0 0 0 .295-.122v-.02h-.005Zm-1.441 1.216a.114.114 0 1 0 0 .228.114.114 0 0 0 0-.229Zm-.11.004a.156.156 0 1 1 .22.22.156.156 0 0 1-.22-.22Z" clip-rule="evenodd"/><path fill="#fff" fill-rule="evenodd" d="M10.466 10.11v-.57l-.056-.045V9.36l.105-.011.019-.638-.068-.037-.007-.105s.075.03.075.011l.019-.128s-.05-.007-.05-.026.06-.067.06-.067-.03-.03-.037-.049l-.03-.105.03-.109-.018-.056-.05-.086.068-.068-.018-.105a.373.373 0 0 1 .056-.109c.011-.007.086-.112.086-.112l.165-.038.191.027.105.067.02.173s-.02.105-.027.105l-.086.037s-.098.011-.11 0a.624.624 0 0 0 .03.12v.113l-.007.146s0 .067-.01.075a.149.149 0 0 0-.03.037l-.008.15.15.038-.008.086-.105.008.019.588.154.027v.165l-.068.037-.019.589h-.54Zm2.34.011v-.57l-.056-.049v-.135l.105-.007.019-.638-.068-.037-.007-.105s.075.026.075.007l.019-.123s-.05-.012-.05-.03c0-.019.06-.068.06-.068s-.03-.026-.037-.049l-.03-.105.03-.105-.022-.056-.045-.086.067-.068-.022-.108a.376.376 0 0 1 .06-.105l.086-.113.165-.041.191.03.105.067.02.173s-.02.105-.027.105l-.086.037s-.098.012-.11 0a.595.595 0 0 0 .03.117v.116l-.01.146s0 .064-.008.075l-.03.038-.007.146.15.037-.008.087-.105.011.019.585.154.03v.165l-.068.037-.019.59h-.54Zm-1.185.019v-.57l-.056-.045v-.139l.105-.007.019-.638-.068-.037-.007-.105s.075.03.075.011l.019-.128s-.045-.007-.045-.026.056-.071.056-.071-.03-.026-.038-.045l-.03-.109.03-.105-.018-.056-.05-.086.068-.068-.018-.109a.336.336 0 0 1 .056-.105c.011-.007.086-.112.086-.112l.165-.038.191.027.105.067.023.173s-.023.105-.03.105l-.086.037s-.098.011-.105 0a.868.868 0 0 0 .026.116v.117l-.008.146s0 .067-.01.075l-.03.037-.008.147.15.037-.008.086-.105.012.019.588.154.027v.165l-.068.037-.019.589h-.54Z" clip-rule="evenodd"/><path fill="#A9A9A9" fill-rule="evenodd" d="m10.814 7.502.2.027.117.076.02.185v.004l-.001.003-.002.012a1.52 1.52 0 0 1-.022.089l-.004.007a.022.022 0 0 1-.011.009l-.088.038h-.007a1.08 1.08 0 0 1-.083.005 3.154 3.154 0 0 0 .02.068l.004.015.001.004v.001l.002.003v.117l-.008.146v.011a.583.583 0 0 1-.005.053.071.071 0 0 1-.004.013.033.033 0 0 1-.011.015l-.002.001a.154.154 0 0 0-.02.025l-.006.128.15.038-.01.121-.103.007.018.552.154.027v.194l-.067.038-.02.597h-.56v-.02h-.02v-.56l-.056-.046v-.163l.105-.011.018-.607-.066-.037-.01-.15.03.013.003.001a.277.277 0 0 0 .045.014l.015-.096a.085.085 0 0 1-.03-.013.036.036 0 0 1-.017-.03.04.04 0 0 1 .005-.017.25.25 0 0 1 .046-.051c0-.001 0-.002-.002-.003a.15.15 0 0 1-.025-.037l-.032-.113.03-.108-.016-.048-.056-.098.071-.071-.017-.1.001-.005a.395.395 0 0 1 .06-.114l.002-.003.002-.002.003-.004a.507.507 0 0 0 .04-.05l.027-.037.008-.012.003-.003v-.002l.005-.006.176-.04Zm-.152.077a1.047 1.047 0 0 0-.034.047 1.636 1.636 0 0 1-.049.061.355.355 0 0 0-.05.096l.02.11-.064.065.042.074.021.064-.03.11.028.098a.13.13 0 0 0 .018.024l.01.012.004.003v.001l.017.017-.018.014-.002.002a.255.255 0 0 0-.027.024.193.193 0 0 0-.018.02l-.003.003a.138.138 0 0 0 .027.008h.002l.02.004-.021.146a.025.025 0 0 1-.015.022.04.04 0 0 1-.018.003.136.136 0 0 1-.04-.008l.004.063.069.038-.02.668-.104.01v.107l.056.045v.56h.5l.018-.58.067-.038v-.135l-.153-.027-.02-.625.107-.008.005-.05-.15-.038.009-.172.003-.005V8.41l.003-.003a.37.37 0 0 1 .03-.04.188.188 0 0 0 .005-.047v-.01l.007-.146v-.112l-.005-.015a2.598 2.598 0 0 1-.027-.103v-.005c.001-.002.002-.007.006-.012a.021.021 0 0 1 .03-.002h.01A.356.356 0 0 0 11 7.914l.011-.001h.001l.078-.034a.336.336 0 0 0 .01-.04l.007-.036.002-.012v-.002l-.017-.16L11 7.57l-.183-.025-.154.035Zm.257.335Zm-.014.459Zm-.38.193Zm.37-.62Zm2.26-.437.199.032.117.075.02.185v.004l-.001.004-.002.012a1.52 1.52 0 0 1-.022.088l-.004.007a.022.022 0 0 1-.011.009l-.088.038h-.007a1.08 1.08 0 0 1-.083.005l.007.023.012.042.005.014.001.004v.002l.002.003v.12l-.012.146v.01a.632.632 0 0 1-.005.063.04.04 0 0 1-.006.013l-.026.034-.007.123.15.037-.01.12-.103.012.018.55.154.03v.194l-.067.037-.02.597h-.56v-.02h-.02v-.56l-.056-.05V9.35l.105-.008.018-.606-.066-.037-.01-.147.029.01h.003a.971.971 0 0 0 .046.013l.015-.095a.147.147 0 0 1-.01-.004.09.09 0 0 1-.021-.012.037.037 0 0 1-.016-.029.04.04 0 0 1 .005-.018.25.25 0 0 1 .045-.05v-.001a.122.122 0 0 1-.026-.04v-.001l-.032-.111.03-.104-.02-.049-.051-.098.07-.07-.021-.105.002-.005a.394.394 0 0 1 .063-.11l.09-.119.176-.044Zm-.238.874-.002.002a.303.303 0 0 0-.045.043l-.003.004a.144.144 0 0 0 .024.01l.005.002h.001l.019.004-.021.142a.026.026 0 0 1-.015.021.04.04 0 0 1-.017.004.134.134 0 0 1-.041-.006l.004.064.069.038-.02.669-.104.007v.106l.056.05v.558h.5l.018-.58.067-.038v-.136l-.153-.03-.02-.62.107-.012.005-.051-.15-.038.009-.17.033-.04.001-.009a.288.288 0 0 0 .003-.046v-.01l.011-.146V8.06l-.005-.014a2.433 2.433 0 0 1-.024-.085.09.09 0 0 1-.002-.016.024.024 0 0 1 .006-.017.021.021 0 0 1 .028-.002l.01.001a.356.356 0 0 0 .07-.003l.01-.001h.001l.078-.034a.336.336 0 0 0 .01-.04l.007-.036.002-.012V7.8l-.017-.16-.093-.06-.183-.029-.154.039-.082.107a.355.355 0 0 0-.055.094l.024.114-.065.064.039.074.025.064-.03.106.028.099c.003.007.01.016.017.025a.182.182 0 0 0 .014.013v.001l.019.016-.019.016Zm-.948-.851.2.027.117.075.024.186v.003l-.001.002v.003c-.002.003-.002.007-.003.012a1.232 1.232 0 0 1-.025.088.044.044 0 0 1-.004.007.024.024 0 0 1-.011.009l-.088.038h-.007a1.443 1.443 0 0 1-.079.005l.006.024.01.042.005.014.001.006v.122l-.007.146v.011a.583.583 0 0 1-.005.053.071.071 0 0 1-.004.013.034.034 0 0 1-.008.012l-.024.03-.007.123.15.038-.01.12-.102.012.017.552.154.027v.194l-.068.038-.018.597H11.6v-.58l-.056-.046v-.168l.105-.007.018-.606-.066-.037-.01-.15.03.013.003.001a.277.277 0 0 0 .045.014l.015-.097a.08.08 0 0 1-.028-.014.036.036 0 0 1-.015-.027c0-.007.003-.013.005-.018a.297.297 0 0 1 .043-.054h-.002a.127.127 0 0 1-.026-.037v-.001l-.032-.115.03-.105-.016-.048-.056-.098.071-.071-.017-.104.001-.004a.358.358 0 0 1 .06-.112l.002-.002.002-.002.003-.004a.507.507 0 0 0 .04-.05l.027-.037.008-.012.003-.003v-.002l.005-.006.176-.04Zm-.151.077a1.207 1.207 0 0 0-.035.047 1.656 1.656 0 0 1-.041.053l-.008.008a.317.317 0 0 0-.05.093l.02.114-.064.064.042.074.021.064-.03.106.028.102a.229.229 0 0 0 .027.032l.004.003.018.016-.017.015v.001l-.002.002-.006.006a.526.526 0 0 0-.04.045.11.11 0 0 0 .024.008h.002l.02.004-.021.146a.026.026 0 0 1-.015.022.04.04 0 0 1-.018.003.136.136 0 0 1-.04-.008l.004.063.069.038-.02.668-.104.008v.11l.056.044v.56h.5l.018-.58.067-.038v-.135l-.153-.027-.02-.624.107-.012.005-.052-.15-.037.009-.17.035-.044.002-.005a.188.188 0 0 0 .004-.046v-.01l.007-.146v-.116l-.004-.015a2.306 2.306 0 0 1-.02-.084l-.003-.014v-.004s0-.005.003-.01a.02.02 0 0 1 .032-.007l.007.002a.34.34 0 0 0 .068-.003l.01-.001h.001l.078-.034.002-.007a.52.52 0 0 0 .02-.082h.001l-.02-.16-.094-.06-.183-.025-.153.035Zm.242.793Zm-.38.194Zm1.58-.67Z" clip-rule="evenodd"/><path fill="currentColor" fill-rule="evenodd" d="M10.612 10.107v-.45h.248v.469l-.252-.019h.004Zm1.178.038.01-.458h.226v.446l-.236.008v.004Zm1.162-.012-.015-.431.244-.008v.45l-.225-.01h-.004Zm-2.28-1.35h.143v.229h-.143v-.229Zm1.136.008h.2v.225h-.2V8.79Zm1.163.018h.172v.214h-.168l-.004-.214Z" clip-rule="evenodd"/><path fill="#A8A8A8" fill-rule="evenodd" d="m10.732 7.776.031-.028.194.207h-.048v-.02.02a.014.014 0 0 1-.004 0l-.003-.001-.004-.002a3.231 3.231 0 0 1-.166-.177Zm1.142-.004.035-.022.164.233-.05-.01a.1.1 0 0 1-.053-.032.303.303 0 0 1-.04-.056.917.917 0 0 1-.037-.074l-.02-.04Zm1.232.023.02-.007.019-.007v.002l.002.004a.962.962 0 0 0 .029.061c.01.018.02.035.033.049a.081.081 0 0 0 .035.025l-.012.04a.121.121 0 0 1-.054-.038.54.54 0 0 1-.071-.127v-.001Z" clip-rule="evenodd"/><path fill="#B97700" fill-rule="evenodd" d="M10.583 7.275c.45-.146-.105-.435-.199 0-.142.026-.16.131-.476.086-.765 1.238-.199 3.244 2.029 5.317-3.99-3.397-2.37-5.91-1.264-5.812.6.038.3.788-.09.413v-.004Z" clip-rule="evenodd"/><path fill="#7D6C00" fill-rule="evenodd" d="m11.092 6.571-.018.041.018-.04h.003a1.674 1.674 0 0 1 .136.07c.036.02.075.045.11.07a.323.323 0 0 1 .083.088l-.064.06-.311-.21.043-.079Zm-.37.024-.012.044.012-.044h.002l.003.002a.813.813 0 0 1 .055.017c.035.013.082.03.13.054a.589.589 0 0 1 .136.088c.038.034.071.08.071.138v.086l-.434-.304.037-.08Zm2.355.059-.007-.045.022.087-.532.193.087-.12a.272.272 0 0 1 .11-.077.93.93 0 0 1 .138-.047 1.718 1.718 0 0 1 .171-.035h.004l.007.044Zm-.52-.005.063.064-.206.242.046-.004.156.483-.088-.033a.093.093 0 0 1-.03-.022.51.51 0 0 1-.08-.124.54.54 0 0 1-.046-.296l.027-.003-.024-.056a.074.074 0 0 1 .002-.055.18.18 0 0 1 .022-.039.607.607 0 0 1 .063-.072 1.494 1.494 0 0 1 .093-.083l.001-.002.03.035-.03-.035Zm-.097.23Zm-.265-.17.081.082c.08.08.08.199.068.288a.951.951 0 0 1-.033.146l-.004.013a.36.36 0 0 0-.003.01v.002-.004l-.09.002-.007-.192-.205.103-.052-.072a.49.49 0 0 1 .152-.091.999.999 0 0 1 .085-.03l.005-.002h.002v-.001l.011.04-.01-.04.01.028-.01-.281Zm-.754.042.087.018-.013.24.002-.002A.073.073 0 0 1 11.534 7a.336.336 0 0 1 .103-.008c.054.004.13.025.168.094l-.08.043c-.015-.028-.05-.044-.096-.047a.246.246 0 0 0-.067.004l.004-.002a.044.044 0 0 0 .02-.036h-.072l-.011.216-.088.01a.581.581 0 0 1-.022-.1.426.426 0 0 1-.054.095l-.003.005-.002.001v.001l-.034-.03.034.03-.077-.043.086-.281.051.007a1.113 1.113 0 0 1 .046-.204l.001-.003V6.75l.043.015-.042-.015Zm.42.557-.014-.413.09-.003.015.413-.09.003Z" clip-rule="evenodd"/><path fill="#C76E2E" fill-rule="evenodd" d="M11.273 11.321c.008 0 .143-.026.143-.09.067-.045.018-.168.018-.168l-.127-.023-.173-.195c-.007-.06.011-.116-.026-.18-.12.03-.188.131-.225.244.026.037.03.075.086.108.056.008.094-.026.147-.014.026.048.018.09.03.134.07.05.086.12.127.184Zm-.154-.832v-.233l-.165-.007c-.022.037-.06.052-.082.082l-.117.06c.05.056.11.09.143.12.086.023.154.023.221-.022Zm-.517.341-.09-.15a.27.27 0 0 1 .176.011s.037.094.011.128c-.015.033-.101.018-.097.011Zm1.368.154a.172.172 0 0 0 .102-.124l-.169-.191-.15-.004c-.037-.037-.09-.045-.135-.045 0 0 .045.075.105.086.045.098.232.278.247.278Zm.162.022c0-.004.15-.052.225-.049-.004-.06.112-.198.112-.198l.21.274c-.037.03-.105.022-.157.03 0 0-.101.097-.113.1-.011.005-.195.05-.285-.007-.037-.075.011-.161.008-.15Zm.12-.48a.525.525 0 0 0 0-.285h-.24l-.158.075s.049.158.113.143c.026.079.108.06.15.09l.135-.023Zm.933-.24c-.037.101-.052.207-.007.3.045.011.097.038.135.03l.191-.345c-.131-.041-.24-.037-.322.015h.003Z" clip-rule="evenodd"/><path fill="#B97700" fill-rule="evenodd" d="M13.241 7.244c-.45-.146.105-.439.2 0 .145.023.164.131.48.086.76 1.238.194 3.244-2.033 5.318 3.993-3.398 2.37-5.91 1.263-5.816-.6.037-.3.787.09.412Z" clip-rule="evenodd"/><path fill="#C76E2E" fill-rule="evenodd" d="M13.287 10.677c-.008 0-.113.075-.113.075l-.157.063-.165.004-.037-.112.127-.113c-.105-.019-.214.026-.3.105 0 0 0 .124.075.188.041.052.169.15.169.15a.262.262 0 0 0 .202-.038l.199-.322Zm-.87 1.128c.053.015.424-.476.424-.476a.375.375 0 0 0-.184-.202s-.18.213-.184.285c-.03.063-.112.31-.075.345-.003.007-.018.108.019.048Z" clip-rule="evenodd"/><path fill="#006800" fill-rule="evenodd" d="M9.99 11.903c-.555-.484-1.305-.75-2.351-.386.28.12.585.161.843.296l1.508.09Z" clip-rule="evenodd"/><path fill="#004100" fill-rule="evenodd" d="M9.008 11.347c.396.084.73.275 1.012.521l-.03.034-.003.045-1.507-.09a.046.046 0 0 1-.018-.005 2.225 2.225 0 0 0-.454-.165 3.41 3.41 0 0 1-.387-.13.045.045 0 0 1 .003-.084c.53-.184.987-.21 1.384-.126Zm.847.502a2.092 2.092 0 0 0-.866-.414c-.349-.073-.751-.06-1.217.085.086.03.173.055.261.081l.049.014c.14.042.281.086.413.153l1.36.081Z" clip-rule="evenodd"/><path fill="#00A400" fill-rule="evenodd" d="M8.336 11.56c0-.022.02-.04.042-.04.553.012.911.086 1.125.153a1.464 1.464 0 0 1 .261.108l.004.002v.001a.047.047 0 0 1 .007.006c0 .001.004.004.006.01a.074.074 0 0 1 .005.02.07.07 0 0 1-.023.035.076.076 0 0 1-.022.004l-.007-.001a.045.045 0 0 1-.006-.002l-.002-.001-.002-.001-.003-.002-.036-.02a1.368 1.368 0 0 0-.206-.08c-.206-.064-.557-.138-1.103-.149a.041.041 0 0 1-.04-.042Z" clip-rule="evenodd"/><path fill="#006800" fill-rule="evenodd" d="M10.013 11.963c-.33.06-.78.375-.915.364-.356-.041-.694-.187-1.039-.3-.142-.045-.289 0-.435 0 1.23-.581 1.65-.502 2.389-.067v.003Z" clip-rule="evenodd"/><path fill="#004100" fill-rule="evenodd" d="M7.85 11.968a.585.585 0 0 1 .22.02h.001c.087.028.173.058.258.088.257.09.509.179.772.21.01 0 .025-.002.049-.01a.734.734 0 0 0 .084-.031 4.43 4.43 0 0 0 .193-.093l.036-.018c.138-.068.297-.145.444-.188-.328-.187-.592-.292-.905-.293-.301-.001-.652.093-1.151.315Zm1.152-.398c.362.002.66.135 1.031.353.013.008.02.021.02.036v.004a.04.04 0 0 1-.034.04c-.158.029-.347.12-.52.205l-.035.018c-.072.036-.14.07-.197.095a.839.839 0 0 1-.094.035.222.222 0 0 1-.08.011c-.274-.031-.539-.124-.798-.216a9.229 9.229 0 0 0-.25-.085.522.522 0 0 0-.2-.015 2.928 2.928 0 0 0-.068.006c-.05.005-.103.01-.154.01a.041.041 0 0 1-.017-.078c.616-.291 1.035-.42 1.396-.419Z" clip-rule="evenodd"/><path fill="#006800" fill-rule="evenodd" d="M9.202 11.1s-.413.06-.596.071c-.18-.011-.45-.18-.743-.487-.15-.173-.502-.15-.502-.15.772-.165 1.376-.008 1.837.57l.004-.004Zm-.563-.795c-.558-.038-1.256-.536-1.413-1.133 0 .008.206.132.172.162.915.232.975.42 1.241.97Zm.938.956c.079-.506.101-.84-.135-1.14-.199-.225-.248-.364-.39-.686-.041.667-.188 1.219.525 1.826Zm-.878-1.399c.413-.603.488-1.061.42-1.781-.01.056-.15.413-.157.413-.619.386-.345.993-.263 1.368Z" clip-rule="evenodd"/><path fill="#006800" fill-rule="evenodd" d="M8.333 6.938c.412.603.352 1.173.285 1.893a3.894 3.894 0 0 0-.158-.412c-.619-.386-.206-1.107-.127-1.482Z" clip-rule="evenodd"/><path fill="#004100" fill-rule="evenodd" d="M8.324 6.892a.045.045 0 0 1 .046.02c.416.608.362 1.186.296 1.888l-.004.035a.045.045 0 0 1-.088.004 5.985 5.985 0 0 0-.146-.387l-.001-.002a.717.717 0 0 1-.301-.358.89.89 0 0 1-.036-.425 2.47 2.47 0 0 1 .1-.409l.027-.085c.03-.093.057-.176.072-.246a.045.045 0 0 1 .035-.035Zm.027.155-.05.157-.026.082c-.04.125-.078.26-.096.393a.8.8 0 0 0 .031.382.63.63 0 0 0 .272.318.047.047 0 0 1 .016.014 5.759 5.759 0 0 1 .094.227c.052-.59.065-1.073-.241-1.573Z" clip-rule="evenodd"/><path fill="#006800" fill-rule="evenodd" d="M8.674 7.875c1.005-.51.619-1.152.802-1.65-.697.52-.787 1.072-.798 1.65h-.004Z" clip-rule="evenodd"/><path fill="#004100" fill-rule="evenodd" d="M9.503 6.189a.045.045 0 0 1 .016.051 1.237 1.237 0 0 0-.06.383c0 .022 0 .045-.002.068-.003.117-.007.24-.03.363a.999.999 0 0 1-.194.445 1.526 1.526 0 0 1-.555.42h-.004a.045.045 0 0 1-.041-.063c.006-.285.033-.567.145-.844.114-.284.317-.558.671-.823a.045.045 0 0 1 .054 0Zm-.778 1.608c.206-.114.344-.233.437-.353a.909.909 0 0 0 .177-.407c.02-.115.025-.23.028-.347l.003-.07a1.79 1.79 0 0 1 .027-.276c-.277.23-.44.464-.536.701a2.162 2.162 0 0 0-.136.752Z" clip-rule="evenodd"/><path fill="#00A400" fill-rule="evenodd" d="M9.193 6.752a.044.044 0 0 1 .021-.006h.062l-.425 1.017-.077-.03a14.665 14.665 0 0 1 .347-.863 1.286 1.286 0 0 1 .053-.1.077.077 0 0 1 .01-.011.05.05 0 0 1 .009-.007Zm-.848.703a.041.041 0 0 1 .047.034l.015.081c.037.202.128.706.147.916a.041.041 0 0 1-.082.008c-.018-.206-.108-.697-.145-.904a10.009 10.009 0 0 1-.016-.087.041.041 0 0 1 .034-.048Z" clip-rule="evenodd"/><path fill="#006800" fill-rule="evenodd" d="M8.561 9.619c-.562-.038-1.162-.8-1.324-1.392 0 .008.207.128.173.158.802.36.885.682 1.151 1.234Zm-.165-.525c-.412-.604-.487-1.062-.424-1.782.012.057.15.413.162.413.615.386.34.994.262 1.369Zm.371-1.062c1.04-.461.72-.945 1.028-1.45-.698.517-1.016.877-1.028 1.45Z" clip-rule="evenodd"/><path fill="#004100" fill-rule="evenodd" d="M9.825 6.547c.016.014.02.038.008.057-.073.12-.11.24-.139.362l-.02.09a2.2 2.2 0 0 1-.076.282c-.094.256-.285.5-.812.735l-.019-.042h-.045c.012-.597.348-.969 1.046-1.487a.045.045 0 0 1 .057.003ZM8.815 7.96c.46-.217.618-.435.698-.653.032-.087.052-.174.072-.265a6.5 6.5 0 0 1 .022-.097c.017-.07.036-.142.065-.215-.562.434-.824.76-.856 1.23Zm-.845-.694a.045.045 0 0 1 .047.037 5.385 5.385 0 0 0 .149.388.87.87 0 0 1 .32.337.826.826 0 0 1 .084.385c0 .128-.024.255-.051.372l-.038.152c-.016.058-.03.113-.04.165a.045.045 0 0 1-.067.03c.054.097.102.2.155.313l.073.153-.04.02-.004.045c-.299-.02-.6-.23-.843-.503a2.428 2.428 0 0 1-.523-.934.045.045 0 0 1 .079-.03l.002.002a.948.948 0 0 0 .021.015l.006.003.063.044c.024.018.05.038.067.057a.116.116 0 0 1 .025.038c.388.177.61.348.766.545a2.23 2.23 0 0 1-.26-.645c-.063-.286-.066-.585-.033-.948a.045.045 0 0 1 .042-.04Zm-.65 1.076c.093.255.259.532.461.758.214.24.463.417.703.462a29.732 29.732 0 0 1-.04-.083c-.095-.204-.173-.37-.294-.522-.148-.187-.363-.354-.76-.532a.045.045 0 0 1-.026-.046.363.363 0 0 0-.044-.037Zm.847-.646Zm-.166-.164a2.6 2.6 0 0 0 .048.704c.054.246.157.482.326.745l.018-.07c.013-.049.026-.098.037-.146.027-.115.048-.234.049-.353a.736.736 0 0 0-.075-.344.784.784 0 0 0-.298-.308.05.05 0 0 1-.009-.007 4.328 4.328 0 0 1-.096-.22Z" clip-rule="evenodd"/><path fill="#00A400" fill-rule="evenodd" d="M9.4 7.114c.02.01.029.035.019.056-.143.295-.34.563-.579.788a.041.041 0 1 1-.056-.06 2.61 2.61 0 0 0 .56-.764c.01-.02.035-.03.056-.02Z" clip-rule="evenodd"/><path fill="#FFE100" fill-rule="evenodd" d="m12.51 13.74.503.008c-1.677-1.575-4.894-2.257-4.448-5.152-.461 3.138 2.629 3.43 3.945 5.145Z" clip-rule="evenodd"/><path fill="#E9BF00" fill-rule="evenodd" d="M11.572 12.647c.53.33 1.049.67 1.472 1.067l.084.08-.64-.01-.013-.017c-.325-.422-.76-.759-1.227-1.075-.153-.105-.311-.207-.469-.31-.32-.208-.64-.417-.935-.645-.443-.342-.833-.731-1.082-1.235-.22-.445-.33-.977-.274-1.64.008-.089.018-.18.033-.274l.089.013a4.501 4.501 0 0 0-.032.27c-.046.592.07 1.083.298 1.507.26.488.668.89 1.144 1.252.397.302.84.576 1.284.85l.268.167Zm-2.48-1.778c.221.302.5.56.807.797.292.226.607.431.925.638.159.103.318.206.475.313.462.314.901.652 1.234 1.078l.362.005c-.399-.356-.877-.669-1.371-.977l-.267-.165c-.444-.275-.89-.551-1.291-.856a4.798 4.798 0 0 1-.875-.833Z" clip-rule="evenodd"/><path fill="#9D4916" fill-rule="evenodd" d="M8.827 7.976a.161.161 0 1 1-.322 0 .161.161 0 0 1 .322 0Zm-.097.885a.152.152 0 1 1-.26-.106.15.15 0 0 1 .256.106h.004Zm.142 1.263a.135.135 0 1 1-.27 0 .135.135 0 0 1 .27 0Zm1.174 1.396a.135.135 0 1 1-.27 0 .135.135 0 0 1 .27 0Zm.168.4a.135.135 0 1 1-.27 0 .135.135 0 0 1 .27 0Z" clip-rule="evenodd"/><path fill="#68300E" fill-rule="evenodd" d="M8.666 7.836a.14.14 0 1 0 0 .281.14.14 0 0 0 0-.28Zm-.129.012a.182.182 0 1 1 .258.257.182.182 0 0 1-.258-.257Zm.039.884a.13.13 0 0 0-.091.223.131.131 0 0 0 .222-.073h-.002v-.02a.13.13 0 0 0-.13-.13Zm.17.11a.17.17 0 1 0-.29.142.172.172 0 0 0 .294-.122v-.02h-.005Zm-.009 1.17a.114.114 0 1 0 0 .228.114.114 0 0 0 0-.229Zm-.11.003a.156.156 0 1 1 .22.22.156.156 0 0 1-.22-.22Zm1.284 1.391a.114.114 0 1 0 0 .229.114.114 0 0 0 0-.229Zm-.11.005a.156.156 0 1 1 .22.22.156.156 0 0 1-.22-.22Zm.279.396a.115.115 0 1 0 0 .23.115.115 0 0 0 0-.23Zm-.11.005a.156.156 0 1 1 .22.22.156.156 0 0 1-.22-.22Z" clip-rule="evenodd"/><path fill="#fff" fill-rule="evenodd" d="M10.807 13.088a.582.582 0 0 1-.18-.217l-.525-.056-.007.3.712-.027Z" clip-rule="evenodd"/><path fill="currentColor" fill-rule="evenodd" d="m10.082 12.792.558.06.005.01c.04.083.1.155.174.21l.048.035-.794.03.009-.345Zm.04.046-.006.256.635-.024a.6.6 0 0 1-.138-.18l-.491-.052Z" clip-rule="evenodd"/><path fill="#fff" fill-rule="evenodd" d="M6.948 12.735c.308.056.77-.03.92.168.18.203-.567.522-.462.698.232.244.469.142.727.007.064-.13.113-.367.143-.438-.094-.214-.349-.323-.281-.65.423-.157 1.245-.145 1.335-.082.067.135.003.195.018.304-.07.139-.25.368-.25.491.45.158.562-.022.967-.015.472.008.757.135.862-.052-.075-.165-.506-.03-.667-.135-.083-.026-.135-.094-.207-.165-.07-.071-.27-.075-.3-.259.083-.382.638-.322.724-.382l1.44.1c.263-.007.413.462.056.6-.352.143-1.39-.205-1.845.035-.022-.098-.348-.248-.37-.252-.14.038-.41.027-.41.027-.063.12-.142.21-.206.333-.3-.13-.581.102-.907.034l-.51.056-.323-.03-.495.143.353-.311-.312-.225Z" clip-rule="evenodd"/><path fill="currentColor" fill-rule="evenodd" d="M10.465 12.209a.02.02 0 0 1 .013-.004l1.439.101c.144-.003.253.123.28.262a.336.336 0 0 1-.027.215.343.343 0 0 1-.19.163c-.093.038-.228.042-.382.033a7.36 7.36 0 0 1-.387-.037l-.125-.014a4.25 4.25 0 0 0-.528-.033 1.046 1.046 0 0 0-.382.066.258.258 0 0 0 .094.054.331.331 0 0 0 .152.039c.05.003.102.003.156.002h.047a.91.91 0 0 1 .193.015c.056.013.104.037.127.087a.02.02 0 0 1 0 .019.2.2 0 0 1-.126.098.556.556 0 0 1-.187.012 3.634 3.634 0 0 1-.251-.026c-.095-.01-.2-.02-.318-.02-.15-.004-.259.02-.362.042l-.1.02a.917.917 0 0 1-.511-.05.02.02 0 0 1-.014-.018.31.31 0 0 1 .03-.118.798.798 0 0 1 .016-.033c-.14-.057-.275-.034-.42-.002l-.038.01a1.1 1.1 0 0 1-.385.04l.015.03a.02.02 0 0 1 0 .017c-.01.025-.024.074-.04.133l-.018.061a1.618 1.618 0 0 1-.085.245.02.02 0 0 1-.009.01 1.099 1.099 0 0 1-.381.14c-.127.013-.25-.026-.37-.152a.1.1 0 0 1-.007-.094.302.302 0 0 1 .059-.089 1.84 1.84 0 0 1 .208-.186l.078-.067h-.007l-.319-.03-.49.142a.02.02 0 0 1-.02-.035l.333-.295-.29-.21.012-.016.003-.02c.076.013.16.018.25.021l.088.003c.06.001.12.003.178.006.087.005.17.015.242.036a.329.329 0 0 1 .173.11.118.118 0 0 1 .032.096.215.215 0 0 1-.042.098.483.483 0 0 1-.031.04l.361-.04a1.084 1.084 0 0 0-.07-.09 1.677 1.677 0 0 1-.075-.096.454.454 0 0 1-.083-.382.02.02 0 0 1 .013-.015c.215-.08.529-.117.799-.126a3.34 3.34 0 0 1 .358.006 1.187 1.187 0 0 1 .166.026.115.115 0 0 1 .03.014.021.021 0 0 1 .007.007.281.281 0 0 1 .031.174.938.938 0 0 1-.005.036.383.383 0 0 0-.007.076 2.913 2.913 0 0 0 .134 0 1.184 1.184 0 0 0 .258-.027.242.242 0 0 1-.026-.078.02.02 0 0 1 0-.007c.044-.203.214-.287.376-.328.076-.02.152-.03.215-.038l.013-.001c.033-.005.061-.009.084-.014a.139.139 0 0 0 .045-.014Zm-.477.594a1.458 1.458 0 0 0-.152-.082.188.188 0 0 1-.062-.112c.04-.177.188-.254.344-.293a1.71 1.71 0 0 1 .211-.037.2.2 0 0 0 .152-.032l1.434.1h.002c.117-.003.215.101.24.229a.294.294 0 0 1-.024.188.3.3 0 0 1-.168.144c-.083.034-.21.039-.364.03-.118-.007-.249-.022-.385-.037l-.126-.014a4.284 4.284 0 0 0-.533-.033c-.156.003-.3.023-.414.076l-.022-.022a.268.268 0 0 0-.133-.104Zm-.174-.047h-.002a1.126 1.126 0 0 0-.056-.025 1.265 1.265 0 0 1-.256.026 2.845 2.845 0 0 1-.136 0c-.023.043-.056.095-.09.15l-.061.098a1.188 1.188 0 0 0-.069.128.316.316 0 0 0-.026.087.866.866 0 0 0 .475.043l.096-.02c.104-.022.219-.047.375-.044a3.524 3.524 0 0 1 .403.03c.062.007.117.014.167.017a.516.516 0 0 0 .174-.01.159.159 0 0 0 .095-.07c-.017-.027-.048-.044-.095-.055a.874.874 0 0 0-.183-.013h-.045c-.055 0-.11 0-.16-.003a.374.374 0 0 1-.17-.044.316.316 0 0 1-.112-.07l-.002-.001a.02.02 0 0 1-.017 0 .02.02 0 0 1-.011-.015.078.078 0 0 0-.018-.03l-.016-.017-.006-.006a.789.789 0 0 0-.099-.072.355.355 0 0 1-.155-.084Zm-.488-.023c-.004-.039.002-.073.007-.104a.787.787 0 0 0 .004-.03.238.238 0 0 0-.024-.145.324.324 0 0 0-.054-.015 1.118 1.118 0 0 0-.119-.015 3.301 3.301 0 0 0-.353-.006c-.264.01-.567.045-.775.12a.41.41 0 0 0 .079.339c.022.031.046.06.071.09l.036.045a.99.99 0 0 1 .054.074c.14.025.27-.005.403-.035l.038-.009c.143-.032.288-.058.439.001a1.79 1.79 0 0 1 .095-.153l.004-.006a2.04 2.04 0 0 0 .095-.151Zm-1.098.392-.431.047a2.15 2.15 0 0 1-.12.107c-.01.01-.022.018-.033.028a1.798 1.798 0 0 0-.17.154.264.264 0 0 0-.053.076c-.008.021-.007.038 0 .052.112.117.223.15.336.138.114-.01.233-.066.36-.133a1.64 1.64 0 0 0 .096-.29c.015-.054.028-.103.04-.133a.48.48 0 0 0-.025-.046Zm-.45.008a.567.567 0 0 0 .06-.07.175.175 0 0 0 .035-.08.08.08 0 0 0-.022-.065l-.001-.001a.287.287 0 0 0-.153-.095 1.053 1.053 0 0 0-.232-.035 4.92 4.92 0 0 0-.176-.006l-.09-.003a2.473 2.473 0 0 1-.172-.01l.244.176a.02.02 0 0 1 .002.032l-.284.25.407-.116.007-.001.32.03.055-.006Z" clip-rule="evenodd"/><path fill="#fff" fill-rule="evenodd" d="M6.926 12.676a.135.135 0 1 1-.27 0 .135.135 0 0 1 .27 0Zm-.038.675a.135.135 0 1 1-.23-.097.137.137 0 0 1 .234.097h-.004Z" clip-rule="evenodd"/><path fill="currentColor" fill-rule="evenodd" d="M6.79 12.56a.114.114 0 1 0 0 .23.114.114 0 0 0 0-.23Zm-.11.005a.156.156 0 1 1 .22.22.156.156 0 0 1-.22-.22Zm.075.669a.116.116 0 0 0-.116.116.114.114 0 1 0 .229 0v-.02h.002a.116.116 0 0 0-.115-.096Zm.153.137h.005v-.02a.157.157 0 1 0-.27.11.156.156 0 0 0 .265-.09Z" clip-rule="evenodd"/><path fill="#fff" fill-rule="evenodd" d="M12.986 13.092c.087-.079.143-.131.177-.218l.525-.06.01.3-.712-.022Z" clip-rule="evenodd"/><path fill="currentColor" fill-rule="evenodd" d="m13.707 12.791.012.344-.734-.023v-.02l-.013-.016c.086-.079.139-.128.17-.21l.005-.011.56-.064Zm-.67.281.64.02-.01-.255-.49.056a.523.523 0 0 1-.14.18Z" clip-rule="evenodd"/><path fill="#fff" fill-rule="evenodd" d="M16.841 12.735c-.304.056-.765-.026-.915.168-.184.207.562.525.458.698-.233.247-.47.146-.728.011-.06-.131-.109-.367-.143-.438.098-.218.35-.323.286-.65-.428-.16-1.25-.15-1.335-.085-.072.138-.008.198-.023.307.075.135.255.367.255.487-.45.162-.566-.022-.967-.01-.473.007-.762.13-.863-.057.071-.161.502-.03.668-.131.082-.03.134-.094.206-.169.071-.075.27-.075.3-.255-.083-.383-.638-.326-.728-.383l-1.44.098c-.262-.008-.409.461-.056.604.352.142 1.395-.21 1.845.03.026-.098.349-.244.375-.252.135.042.405.027.405.027.067.123.143.213.21.337.3-.135.581.102.908.03l.506.056.326-.026.495.139-.352-.308.307-.224v-.004Z" clip-rule="evenodd"/><path fill="currentColor" fill-rule="evenodd" d="M13.31 12.209a.02.02 0 0 1 .013.003c.008.005.023.01.047.014.023.005.052.008.085.013h.006c.065.01.144.02.223.04.163.04.332.126.376.329v.008a.232.232 0 0 1-.024.073h.006c.065.02.163.027.248.029a2.354 2.354 0 0 0 .133-.002.395.395 0 0 0-.007-.07 1.03 1.03 0 0 1-.005-.04.288.288 0 0 1 .034-.176.022.022 0 0 1 .006-.007.11.11 0 0 1 .03-.014 1.141 1.141 0 0 1 .165-.026c.098-.008.223-.01.358-.005.27.01.585.047.802.129a.02.02 0 0 1 .013.015.456.456 0 0 1-.086.381 1.72 1.72 0 0 1-.109.137l-.035.046.358.04a.469.469 0 0 1-.03-.038.215.215 0 0 1-.04-.1.126.126 0 0 1 .033-.096.33.33 0 0 1 .174-.108 1.09 1.09 0 0 1 .24-.036c.058-.004.118-.006.178-.007l.088-.003a1.75 1.75 0 0 0 .247-.022.02.02 0 0 1 .024.02v.004a.02.02 0 0 1-.008.016l-.286.21.333.29a.02.02 0 0 1-.02.035l-.49-.137-.323.026h-.009a2.754 2.754 0 0 0 .117.1c.063.054.126.106.17.155a.3.3 0 0 1 .06.089.097.097 0 0 1-.006.092c-.12.128-.244.168-.371.156-.125-.012-.252-.073-.381-.14a.02.02 0 0 1-.01-.01 1.869 1.869 0 0 1-.082-.245l-.009-.032-.024-.084a.626.626 0 0 0-.027-.078.02.02 0 0 1 0-.017.481.481 0 0 1 .016-.034 1.08 1.08 0 0 1-.383-.039l-.037-.008c-.145-.033-.28-.056-.42.002l.015.031a.303.303 0 0 1 .03.117.02.02 0 0 1-.013.019.907.907 0 0 1-.513.052 2.984 2.984 0 0 1-.098-.02 1.382 1.382 0 0 0-.363-.042c-.117.002-.223.01-.318.02l-.075.009a3.617 3.617 0 0 1-.177.016.556.556 0 0 1-.188-.013.198.198 0 0 1-.123-.1.02.02 0 0 1 0-.017c.021-.05.07-.074.125-.086a.92.92 0 0 1 .192-.015h.048c.053 0 .106.001.155-.002a.351.351 0 0 0 .159-.04.29.29 0 0 0 .09-.054 1.024 1.024 0 0 0-.385-.066 4.23 4.23 0 0 0-.528.034l-.124.014c-.137.016-.27.031-.389.038-.154.01-.29.006-.383-.032a.331.331 0 0 1-.215-.381c.027-.14.134-.266.279-.263l1.439-.097Zm.345.718-.006.005a1.03 1.03 0 0 0-.416-.078 4.28 4.28 0 0 0-.533.035l-.126.014a6.964 6.964 0 0 1-.386.038c-.154.01-.28.004-.364-.03a.29.29 0 0 1-.19-.334c.024-.129.12-.233.238-.23h.002l1.434-.096a.218.218 0 0 0 .054.016c.025.005.055.008.088.013h.005c.065.009.142.019.219.039.157.04.305.117.345.294a.18.18 0 0 1-.064.11 1.873 1.873 0 0 0-.14.074l-.011.005a.255.255 0 0 0-.08.05l-.015.017a.323.323 0 0 0-.054.058Zm.003.054a.352.352 0 0 1-.115.074.394.394 0 0 1-.172.042c-.05.004-.106.003-.16.003h-.046a.88.88 0 0 0-.183.013c-.046.01-.077.027-.092.053a.156.156 0 0 0 .093.07.517.517 0 0 0 .174.012c.052-.003.11-.01.174-.016l.076-.008c.095-.01.202-.02.321-.021.156-.005.27.02.375.043l.095.019c.13.023.264.03.476-.045a.315.315 0 0 0-.026-.085 1.165 1.165 0 0 0-.069-.128 4.487 4.487 0 0 0-.073-.116l-.01-.017a2.37 2.37 0 0 1-.073-.117 1.913 1.913 0 0 1-.134.002 1.086 1.086 0 0 1-.252-.028.983.983 0 0 0-.058.026h-.002a.358.358 0 0 1-.062.04 1.018 1.018 0 0 1-.081.037.85.85 0 0 0-.094.064l-.002.001-.008.008-.043.046a.054.054 0 0 0-.006.013.02.02 0 0 1-.023.015Zm1.002.066c.15-.061.296-.035.44-.003l.036.009c.133.03.264.06.403.033a1.015 1.015 0 0 1 .09-.117c.024-.03.049-.059.07-.09a.414.414 0 0 0 .081-.338c-.21-.077-.513-.113-.778-.122a3.248 3.248 0 0 0-.352.005 1.123 1.123 0 0 0-.155.024.109.109 0 0 0-.016.006.245.245 0 0 0-.027.148c0 .01.003.021.004.033.005.03.01.062.007.098.032.058.066.109.1.16.033.049.066.098.097.154Zm.904.078a.505.505 0 0 0-.028.05.798.798 0 0 1 .025.074l.025.085.009.032c.023.082.049.169.077.232.127.067.246.122.36.133.113.01.223-.023.335-.141.008-.015.008-.03 0-.051a.26.26 0 0 0-.052-.076 1.797 1.797 0 0 0-.203-.181 2 2 0 0 1-.122-.11l-.426-.047Zm.445.008.056.006.324-.026a.02.02 0 0 1 .008 0l.407.115-.284-.248a.02.02 0 0 1 .001-.032l.247-.18a2.341 2.341 0 0 1-.266.014c-.059.002-.118.003-.175.007a1.063 1.063 0 0 0-.232.035.29.29 0 0 0-.153.094.084.084 0 0 0-.024.067c.002.024.014.05.034.08a.55.55 0 0 0 .057.068Z" clip-rule="evenodd"/><path fill="#fff" fill-rule="evenodd" d="M16.863 12.675a.136.136 0 0 0 .234.097.137.137 0 1 0-.234-.097Zm.038.675a.135.135 0 1 0 .27 0 .135.135 0 0 0-.27 0Z" clip-rule="evenodd"/><path fill="currentColor" fill-rule="evenodd" d="M16.889 12.565a.157.157 0 1 1 .222.222.157.157 0 0 1-.222-.222ZM17 12.56a.116.116 0 1 0 0 .233.116.116 0 0 0 0-.233Zm-.074.681a.155.155 0 1 1 .22.22.155.155 0 0 1-.22-.22Zm.11-.004a.114.114 0 1 0 0 .228.114.114 0 0 0 0-.228Z" clip-rule="evenodd"/><path fill="#fff" fill-rule="evenodd" d="M11.887 12.35c-.12-.023-.165-.015-.248-.023l-.19.593c.3.026.573.026.573.026-.18-.038-.139-.593-.135-.596Z" clip-rule="evenodd"/><path fill="currentColor" d="M10.608 12.495v-.241h.033v.212h.11v.03h-.143Zm.319.019v-.241h.033v.24h-.033Zm.256.031h-.069v-.241c.03-.002.05-.002.064-.002a.09.09 0 0 1 .055.015c.013.01.02.025.02.044a.045.045 0 0 1-.013.03.054.054 0 0 1-.027.018c.019.005.033.012.041.023.009.01.013.025.013.044a.062.062 0 0 1-.023.05.094.094 0 0 1-.06.02Zm-.036-.215v.07h.026c.031 0 .047-.012.047-.037 0-.023-.015-.034-.043-.034l-.03.001Zm0 .095v.092l.026.002c.02 0 .036-.004.045-.012.01-.007.015-.02.015-.037 0-.015-.005-.027-.014-.034-.009-.008-.024-.012-.045-.012l-.027.001Zm.369-.068v.067h.08v.028h-.08v.087h.11v.03h-.143v-.242h.145v.03h-.112Zm.457.219-.064-.104-.035-.001v.105h-.033v-.242a1.609 1.609 0 0 0 .06-.002c.058 0 .087.023.087.07a.066.066 0 0 1-.014.04.058.058 0 0 1-.033.023l.07.11h-.038Zm-.1-.212v.079a.168.168 0 0 0 .024.001c.02 0 .034-.003.043-.01.009-.006.014-.017.014-.033 0-.014-.005-.024-.015-.03a.09.09 0 0 0-.046-.008l-.02.001Zm.404-.012v.212h-.033v-.212h-.077v-.03h.19v.03h-.08Zm.386.154-.017-.05h-.09l-.017.05h-.037l.098-.244h.009l.09.244h-.036Zm-.06-.181-.038.106h.072l-.034-.106Zm.3.158.012-.03a.086.086 0 0 0 .048.016.045.045 0 0 0 .03-.01.035.035 0 0 0 .012-.027.042.042 0 0 0-.006-.023.08.08 0 0 0-.033-.023l-.02-.009a.078.078 0 0 1-.034-.027.071.071 0 0 1-.01-.038.06.06 0 0 1 .02-.045.07.07 0 0 1 .049-.018c.026 0 .045.004.055.013l-.01.029a.075.075 0 0 0-.02-.01.08.08 0 0 0-.025-.004.036.036 0 0 0-.026.01.033.033 0 0 0-.01.024.04.04 0 0 0 .004.017c.002.005.005.01.01.013a.147.147 0 0 0 .025.014l.02.01a.077.077 0 0 1 .034.027c.007.011.01.025.01.042a.059.059 0 0 1-.022.046.085.085 0 0 1-.058.019.097.097 0 0 1-.055-.016Z"/><path fill="#00A400" fill-rule="evenodd" d="M8.1 7.997a.041.041 0 0 1 .057-.01.48.48 0 0 1 .154.212c.035.086.058.182.073.272a2.25 2.25 0 0 1 .03.335v.002h-.04.04a.041.041 0 0 1-.082 0m0 0v-.006a1.407 1.407 0 0 0-.003-.09 2.168 2.168 0 0 0-.026-.227 1.218 1.218 0 0 0-.069-.254.396.396 0 0 0-.124-.177.041.041 0 0 1-.01-.057m1 .56-.342 1.118-.08-.015c.022-.325.056-.534.106-.683a.705.705 0 0 1 .203-.315l.112-.105Zm-1.567.088.06-.056.833.888-.06.057.03-.028-.03.028-.028-.03a241.598 241.598 0 0 1-.805-.86Zm1.275.584.105-.343a.75.75 0 0 0-.05.118c-.021.06-.04.134-.055.225Zm-1.267.356.04-.072c.375.168.535.3.709.442.076.063.156.128.257.2l-.046.068-.96-.638Zm1.614.57.08-.024.042.136c.022.062.045.119.068.177l.04.103c.054.14.109.306.162.57l-.08.021-.268-.845a2.426 2.426 0 0 1-.044-.138Zm-1.08.535.04-.071 1.002.4.005.001.006.004a.084.084 0 0 1 .009.008.081.081 0 0 1 .009.031.071.071 0 0 1-.02.03.08.08 0 0 1-.013.006h-.016l-.007-.002-.016-.004-.005-.002a6.46 6.46 0 0 1-.353-.1c-.213-.069-.473-.171-.64-.301Zm.594 1.298.005-.082h1.132l.002.082-.069.004c-.253.013-.722.037-1.07-.004Z" clip-rule="evenodd"/></g><defs><clipPath id="a"><path fill="#fff" d="M0 0h24v18H0z"/></clipPath></defs></svg>