<svg xmlns="http://www.w3.org/2000/svg" width="24" height="18" fill="none"><g clip-path="url(#a)"><path fill="#12AD2B" d="M0 0h24v18H0V0Z"/><path fill="#FFCE00" d="M0 5.142h24v7.72H0v-7.72Z"/><path fill="#D21034" d="M0 0v18l9-9"/><path fill="currentColor" d="m13 6 .674 2.073h2.18L14.09 9.354l.673 2.073L13 10.146l-1.763 1.281.673-2.073-1.763-1.281h2.18L13 6Zm6 0 .674 2.073h2.18L20.09 9.354l.673 2.073L19 10.146l-1.763 1.281.673-2.073-1.763-1.281h2.18L19 6Z"/></g><defs><clipPath id="a"><path fill="#fff" d="M0 0h24v18H0z"/></clipPath></defs></svg>