<svg xmlns="http://www.w3.org/2000/svg" width="24" height="18" fill="none"><g clip-path="url(#a)"><path fill="#ED2939" fill-rule="evenodd" d="M0 0h27v9H11.999L0 0Z" clip-rule="evenodd"/><path fill="#002395" fill-rule="evenodd" d="M0 18h27V9H11.999L0 18Z" clip-rule="evenodd"/><path fill="#fff" fill-rule="evenodd" d="m0 0 11.999 9L0 18V0Z" clip-rule="evenodd"/><path fill="#FF0" d="m6.057 6.792.004-.14s-.074-.12.014-.247c0 0-.187-.098-.14-.253 0 0-.17-.042-.159-.225 0 0-.176-.01-.197-.165 0 0-.18.028-.26-.12 0 0-.176.036-.225-.088 0 0-.172.057-.27-.087 0 0-.184.073-.257-.064-.074.137-.257.064-.257.064-.098.144-.27.084-.27.084-.05.123-.222.088-.222.088-.081.151-.26.12-.26.12-.018.154-.197.168-.197.168a.21.21 0 0 1-.155.225c.046.151-.14.25-.14.25.09.13.017.246.017.246l-.004.13 2.978.014Z"/><path fill="currentColor" fill-rule="evenodd" d="m4.571 5.393.005.01c.035.065.096.08.15.08a.305.305 0 0 0 .096-.019l.005-.002.003.004c.049.07.116.091.17.094a.29.29 0 0 0 .096-.011h.001m-.782-.085a.08.08 0 0 0 .008.003.308.308 0 0 0 .09.016c.054 0 .116-.015.153-.08l.005-.01" clip-rule="evenodd"/><path fill="red" d="M5.987 6.617c-.468-.046-1.006-.159-1.42.077-.282-.165-.668-.155-.999-.123-.18.035-.39.035-.58.063l-.028.004c-.341.024-.65-.078-.95-.211.1.534.201 1.08.254 1.638.112.83-.39 1.522-.19 2.341.123.394.555.623.95.668.38.024.758.077 1.131.159.067.016.131.038.194.066a.693.693 0 0 1 .232.166c.21-.222.527-.285.833-.317.555-.067 1.24-.031 1.582-.534v-.028c.186-.281.162-.703.08-1.02-.006-.109-.034-.207-.052-.313-.337-.896-.046-1.905.098-2.812a2.145 2.145 0 0 1-.576.193 2.56 2.56 0 0 1-.492.004l-.07-.018"/><path fill="#80CFE1" d="M6.686 9.194c0 .056.032.105.043.158.066.394.126.914-.275 1.157-.45.28-1.033.161-1.55.313a.894.894 0 0 0-.316.19c-.05-.032-.095-.078-.155-.106-.426-.225-.981-.151-1.46-.274-.242-.074-.491-.264-.555-.51-.154-.647.218-1.199.176-1.842a7.823 7.823 0 0 0-.225-1.42c.376.175.809.203 1.23.119.326-.06.662-.03.97.088.163-.07.352-.102.528-.12.327.035.682.092 1.023.092a1.81 1.81 0 0 0 .633-.166c-.116.76-.344 1.554-.067 2.32Z"/><path fill="#fff" d="M6.011 9.344v-.717h.085l-1.09-.703-.004-.37h.106l-.549-.386-.541.387h.105v.369l-1.086.703h.088v.714h2.886"/><path fill="currentColor" fill-rule="evenodd" d="m4.563 7.137.623.449h-.155l.004.325 1.146.742h-.143v.693h-.024v.02h-2.91v-.713h-.146l1.146-.742-.004-.33h-.156l.62-.444ZM5.99 9.318v-.713h.027l-1.03-.668-.005-.4h.054l-.473-.34-.469.336h.054l.004.404-1.03.668h.03v.713H5.99Z" clip-rule="evenodd"/><path fill="#fff" d="M6.35 10.283v.221H2.83v-.225h3.516"/><path fill="currentColor" fill-rule="evenodd" d="M2.806 10.256h3.57v.274h-3.57v-.274Zm.048.048v.178h3.474v-.178H2.854Z" clip-rule="evenodd"/><path fill="#fff" d="M3.062 10.269v-.756h.14l-.006.763.007-.76-.204-.003v-.165l3.143.007v.158h-.19v.766l-.003-.766h.14l.007.76"/><path fill="currentColor" fill-rule="evenodd" d="m2.979 9.326 3.192.004v.21h-.053l.004.733h-.048L6.07 9.54h-.093l.004.74v.001h-.048l-.009-.79h.198V9.38l-3.095-.004v.113h.202v.008l-.009.781h-.048l.008-.734-.093-.004v.73H3.04v-.732l-.06-.002v-.209Z" clip-rule="evenodd"/><path fill="currentColor" fill-rule="evenodd" d="M3.29 9.53h.475v.552h-.029v.024l-.447-.004V9.53Zm.426.528v-.48h-.379v.476l.38.004Z" clip-rule="evenodd"/><path fill="currentColor" fill-rule="evenodd" d="M5.36 9.534h.468l.005.572H5.36v-.572Zm.05.049v.475h.374l-.004-.475h-.37Zm-1.758.056v.355H3.41v-.33h.02v-.025h.222Zm-.193.048h.145v.258h-.145v-.258Z" clip-rule="evenodd"/><path fill="currentColor" fill-rule="evenodd" d="M5.356 8.677h.472v.572h-.472v-.572Zm.049.048v.476h.375v-.476h-.375Zm.068.919h.242v.354h-.242v-.354Zm.049.048v.258h.145v-.258h-.145Z" clip-rule="evenodd"/><path fill="currentColor" fill-rule="evenodd" d="M3.29 8.673h.47v.552h-.024v.02H3.29v-.572Zm.422.524V8.72h-.375v.476h.375Zm1.757-.411h.242v.354H5.47v-.354Zm.049.048v.258h.145v-.258h-.145Z" clip-rule="evenodd"/><path fill="currentColor" fill-rule="evenodd" d="M4.055 8.673h.472v.552h-.025v.02h-.447v-.572Zm.423.524V8.72h-.375v.476h.375Zm-1.072-.415h.242v.354h-.242v-.354Zm.049.048v.258H3.6V8.83h-.145Z" clip-rule="evenodd"/><path fill="currentColor" fill-rule="evenodd" d="m4.643 8.672.471.004v.573l-.471-.005v-.572Zm.048.049v.475l.375.004v-.476l-.375-.003Zm-.524.06h.242v.354h-.242v-.354Zm.048.048v.258h.145V8.83h-.145Z" clip-rule="evenodd"/><path fill="currentColor" fill-rule="evenodd" d="M4.756 8.782h.246v.355h-.246v-.355Zm.048.049v.257h.15v-.257h-.15Z" clip-rule="evenodd"/><path fill="#fff" d="M5.192 9.063 5.2 10.28H3.972L3.97 9.063h1.22"/><path fill="currentColor" fill-rule="evenodd" d="M4.216 7.603h.7v.354h-.7v-.354Zm.048.048v.258h.604V7.65h-.604Zm-.093.37h.794l.751.549H3.42l.751-.548Zm.016.049-.619.451h2L4.95 8.07h-.762Zm-.238.971h1.27l.004 1.265h-1.27L3.95 9.041Zm.049.048.001.299h1.173l-.001-.299H3.998Zm1.174.347h-.098v.822h.1l-.002-.822Zm-.146.822v-.822h-.883v.822h.883Zm-.931 0v-.822h-.096l.003.822h.093Z" clip-rule="evenodd"/><path fill="currentColor" fill-rule="evenodd" d="M4.28 7.505h.57l-.286-.202-.285.202Zm.284-.236-.012-.017-.424.302H5l-.425-.302-.012.017Zm-.17.41h.346v.201h-.347v-.2Zm.047.048v.105h.25v-.105h-.25Z" clip-rule="evenodd"/><path fill="#fff" d="M6.025 7.102c.102 0 .127.421.127.632.091.029.285.152.373.26h-.992a.944.944 0 0 1 .366-.256c0-.211.02-.64.126-.633"/><path fill="currentColor" fill-rule="evenodd" d="M5.95 7.343a2.99 2.99 0 0 0-.025.395v.018l-.017.005a.976.976 0 0 0-.32.21h.884a.963.963 0 0 0-.323-.21l-.018-.005v-.018a3.01 3.01 0 0 0-.025-.395.773.773 0 0 0-.038-.163.15.15 0 0 0-.024-.044c-.008-.009-.014-.01-.018-.01-.003 0-.008 0-.016.01a.152.152 0 0 0-.023.043.8.8 0 0 0-.037.164Zm.023-.239a.07.07 0 0 1 .053-.027c.022 0 .04.012.054.027a.195.195 0 0 1 .033.058.818.818 0 0 1 .04.174c.019.127.025.277.026.384a.863.863 0 0 1 .176.095.86.86 0 0 1 .19.166l.03.039h-1.09l.03-.039a.868.868 0 0 1 .19-.166.887.887 0 0 1 .172-.095c0-.106.007-.257.025-.384a.845.845 0 0 1 .04-.174.198.198 0 0 1 .031-.058ZM3.992 9.072h.167l-.036.071a.133.133 0 0 1 0 .121l.04.066h-.175l.04-.066a.207.207 0 0 1-.012-.036.12.12 0 0 1 .011-.086l-.035-.07Zm.083.206-.001.003h.003l-.002-.003Zm0-.026a.085.085 0 0 0 .005-.087.072.072 0 0 0-.004-.007l-.002.002c-.014.016-.015.037-.01.058a.147.147 0 0 0 .011.033Zm0-.122.006-.01h-.01l.004.01Zm.098-.058h.167l-.036.071a.133.133 0 0 1 0 .121l.04.066H4.17l.04-.066-.001-.002a.195.195 0 0 1-.011-.034.12.12 0 0 1 .01-.086l-.035-.07Zm.084.206-.002.003h.003l-.001-.003Zm0-.026a.086.086 0 0 0 0-.093v-.001l-.002.002c-.013.016-.014.037-.01.058a.146.146 0 0 0 .012.033Zm0-.122.005-.01h-.01l.005.01Zm.114-.058h.167l-.036.071a.133.133 0 0 1 0 .121l.04.066h-.167l.032-.065-.001-.003a.194.194 0 0 1-.01-.034.12.12 0 0 1 .01-.086l-.035-.07Zm.083.207-.001.002h.003l-.002-.002Zm0-.027a.085.085 0 0 0 .004-.087.072.072 0 0 0-.003-.007l-.002.002c-.014.016-.015.037-.01.058a.145.145 0 0 0 .011.033Zm0-.122.005-.01h-.01l.005.01Zm.157-.058h.154l-.04.075a.12.12 0 0 1 0 .118l.038.065h-.17l.04-.066-.001-.002a.195.195 0 0 1-.011-.034.12.12 0 0 1 .01-.085l-.02-.037v-.034Zm.067.176a.072.072 0 0 0 0-.084l-.002-.002c-.011.016-.012.036-.008.056a.146.146 0 0 0 .01.03Zm0-.12.006-.008h-.01l.005.009Zm.13-.056h.154l-.04.075a.12.12 0 0 1 0 .118l.038.065h-.162l.032-.065v-.003a.194.194 0 0 1-.012-.034.12.12 0 0 1 .01-.085l-.02-.037v-.034Zm.068.176a.072.072 0 0 0 0-.083l-.001-.001-.001-.002c-.012.016-.012.036-.008.056a.147.147 0 0 0 .01.03Zm0-.12.005-.008h-.01l.005.009Zm.114-.052h.171l-.042.071a.12.12 0 0 1 0 .118l.039.065h-.163l.033-.065a.277.277 0 0 1-.012-.037.12.12 0 0 1 .01-.085l-.036-.067Zm.083.172a.072.072 0 0 0 0-.084l-.002-.002c-.011.016-.012.036-.008.056a.145.145 0 0 0 .01.03Zm.001-.119.003-.005h-.006l.003.005Z" clip-rule="evenodd"/><path fill="#FF0" d="M4.588 11.84c.457 0 1.02-.095 1.283-.228l.58-.053.014.707c-.492.27-1.624.33-1.873.327-.25 0-1.396-.056-1.892-.327l.007-.71.58.052c.415.16.857.24 1.301.232Z"/><path fill="currentColor" fill-rule="evenodd" d="m2.703 11.55.588.054c.133.069.344.126.579.166.235.04.493.063.72.063.23 0 .485-.023.715-.063.23-.04.436-.098.569-.166l.585-.05.012.716-.003.002c-.245.135-.652.218-1.028.267a7.074 7.074 0 0 1-.845.06c-.126 0-.475-.014-.856-.063-.38-.048-.793-.13-1.042-.268l-.003-.002.009-.715Zm.011.014-.007.695c.247.135.655.217 1.034.265.38.049.729.063.854.063a7.05 7.05 0 0 0 .843-.06c.374-.049.778-.13 1.02-.264l-.011-.695-.569.048c-.134.068-.34.126-.57.166a4.36 4.36 0 0 1-.717.063 4.48 4.48 0 0 1-.723-.063 2.187 2.187 0 0 1-.58-.166l-.574-.052Z" clip-rule="evenodd"/><path fill="#FF0" d="m1.21 8.824.51.162-.155.826-.482.077s-.081-.435.126-1.065Z"/><path fill="currentColor" fill-rule="evenodd" d="m1.209 8.818.518.165-.154.835-.494.079-.001-.006.006-.001h-.006a.25.25 0 0 1-.003-.02 1.894 1.894 0 0 1-.011-.277c.006-.188.038-.454.143-.769l.002-.006Zm-.12 1.065.473-.075.152-.817-.497-.158a2.707 2.707 0 0 0-.141.76 1.879 1.879 0 0 0 .013.29Z" clip-rule="evenodd"/><path fill="#7E7E7E" d="m1.565 9.805-.482.084.306-.436.176.352Z"/><path fill="currentColor" fill-rule="evenodd" d="m1.392 9.443.185.367-.506.084.32-.45Zm-.294.435.461-.077-.169-.334-.292.41Z" clip-rule="evenodd"/><path fill="#FF0" d="m.903 9.422.493.035c.01.415.063 2.004 1.961 2.092l-.06.58C.988 12.15.813 10.178.908 9.422"/><path fill="currentColor" fill-rule="evenodd" d="M.913 9.428c-.046.38-.024 1.057.295 1.638.16.292.394.56.733.752.33.188.759.305 1.313.306l.038-.008.002.008h.002l.06-.569c-.95-.046-1.438-.465-1.69-.926-.25-.458-.267-.956-.273-1.17l-.48-.03Zm2.343 2.708h.051l.062-.592h-.007c-.949-.045-1.435-.463-1.685-.921-.25-.46-.266-.96-.272-1.169V9.45l-.497-.033v.006H.902c-.047.379-.027 1.063.295 1.65.16.293.397.563.738.757.321.182.735.298 1.265.306l-.488.106.002.011.542-.116Z" clip-rule="evenodd"/><path fill="#FF0" d="m7.924 8.831-.506.162.162.822.485.078s.077-.433-.14-1.062Z"/><path fill="currentColor" fill-rule="evenodd" d="m7.932 8.823.002.006c.109.317.143.584.15.773a1.857 1.857 0 0 1-.012.292v.004L8.07 9.9h-.006.006l-.001.006-.494-.082-.163-.835.519-.165Zm.128 1.069a.663.663 0 0 0 .008-.072c.004-.05.007-.124.004-.218a2.683 2.683 0 0 0-.148-.764l-.497.158.16.817.473.079Z" clip-rule="evenodd"/><path fill="#7E7E7E" d="m7.58 9.809.481.088-.31-.436-.175.348"/><path fill="currentColor" fill-rule="evenodd" d="m7.754 9.452.325.451-.507-.088.182-.363Zm.002.023-.166.33.461.081-.295-.41Z" clip-rule="evenodd"/><path fill="#FF0" d="m8.237 9.426-.492.035c-.007.415-.046 2.004-1.944 2.092l.07.576c2.31.028 2.468-1.947 2.37-2.703"/><path fill="currentColor" fill-rule="evenodd" d="M8.244 9.42v.01c.05.378.036 1.06-.28 1.646a1.884 1.884 0 0 1-.733.755c-.322.184-.74.3-1.276.305l.503.105-.003.012-.559-.117h-.033l-.066-.588h.006c.95-.042 1.431-.46 1.677-.92.246-.459.256-.96.26-1.17v-.005l.504-.033Zm-2.347 2.704-.02-.004v.004h-.003l-.064-.564c.95-.044 1.433-.464 1.68-.926.246-.458.258-.957.262-1.17l.48-.031c.05.376.036 1.056-.279 1.637-.157.292-.39.559-.727.75-.332.19-.765.307-1.329.304Z" clip-rule="evenodd"/><path fill="#009FC5" d="M4.281 12.188a.093.093 0 0 1-.053.007l-.091-.003.007-.116.091.007c.018 0 .036.003.043.01.017.008.024.025.024.05 0 .02-.01.035-.024.045h.003Zm-.155.176.007-.137.106.007a.098.098 0 0 0 .08-.025.077.077 0 0 0 .029-.063.088.088 0 0 0-.021-.07.112.112 0 0 0-.07-.032l-.155-.01-.021.33h.045Zm.33-.27h.113l.04.007c.017.01.024.024.024.049 0 .02-.004.035-.018.045a.091.091 0 0 1-.05.01h-.108v-.112Zm0 .288v-.14l.106.003c.018 0 .036 0 .043.007a.045.045 0 0 1 .024.042v.08l.007.011h.056v-.007a.028.028 0 0 1-.014-.017.119.119 0 0 1-.003-.029v-.045c0-.021-.007-.035-.014-.042a.06.06 0 0 0-.028-.021.096.096 0 0 0 .035-.029c.007-.014.014-.028.014-.049a.08.08 0 0 0-.05-.077.164.164 0 0 0-.063-.014h-.158v.33h.046v-.003Zm.352-.067a.158.158 0 0 1-.035-.091c0-.046.007-.081.028-.106a.11.11 0 0 1 .085-.035.105.105 0 0 1 .084.028c.025.021.035.053.039.091a.176.176 0 0 1-.021.099.097.097 0 0 1-.088.046c-.042 0-.07-.008-.095-.032h.003Zm-.056-.207a.21.21 0 0 0-.028.115c.004.05.018.092.05.12a.161.161 0 0 0 .126.046.153.153 0 0 0 .123-.063.211.211 0 0 0 .035-.127.176.176 0 0 0-.042-.11.163.163 0 0 0-.137-.048.145.145 0 0 0-.127.066Zm1.547-.475a.237.237 0 0 1 .088.003c.035.014.06.04.077.081l-.045.007a.084.084 0 0 0-.043-.045.123.123 0 0 0-.11.008.105.105 0 0 0-.03.03c-.018.025-.025.06-.018.106a.158.158 0 0 0 .042.091c.022.021.053.028.092.025a.112.112 0 0 0 .07-.039c.021-.021.025-.05.018-.088l-.106.018-.003-.035.147-.025.029.176h-.032l-.018-.035-.035.035c-.017.017-.042.024-.07.031a.151.151 0 0 1-.113-.024.176.176 0 0 1-.066-.12.18.18 0 0 1 .024-.14.145.145 0 0 1 .106-.06h-.004Zm.334-.025.106-.038c.014-.007.028-.007.038-.007.021 0 .035.014.042.035.007.02.007.038 0 .052a.113.113 0 0 1-.045.029l-.099.035-.042-.106Zm.106.271-.05-.13.099-.035a.106.106 0 0 1 .038-.01c.018.003.032.013.043.034l.02.05.011.024.007.01.053-.02v-.007c-.01 0-.018-.004-.021-.014-.007-.004-.01-.014-.014-.025l-.018-.042a.1.1 0 0 0-.024-.035.085.085 0 0 0-.035-.007l.02-.043c0-.014 0-.031-.006-.049-.014-.035-.036-.056-.07-.056a.16.16 0 0 0-.067.01l-.148.053.12.31.042-.014v-.004Zm.386-.162-.186-.274.204-.134.024.036L7 11.45l.056.084.158-.098.021.032-.158.098.063.095.176-.112.021.035-.21.133Zm.166-.485.052-.06c.028-.028.053-.038.081-.035.032 0 .06.018.092.046a.171.171 0 0 1 .049.07.102.102 0 0 1 0 .056.14.14 0 0 1-.025.036l-.053.056-.196-.169Zm.284.127c.039-.043.046-.085.025-.141a.236.236 0 0 0-.06-.074.183.183 0 0 0-.109-.049.124.124 0 0 0-.109.046l-.091.098.253.222.091-.099v-.003Zm.197-.254-.292-.175.025-.035.292.172-.025.035v.003Zm.116-.2-.316-.126.091-.222.039.014-.074.183.095.035.07-.165.035.014-.07.169.106.042.08-.183.036.014-.092.225Zm.14-.387-.33-.07.014-.053.306-.105-.27-.06.01-.039.33.07-.01.05-.306.105.27.06-.01.042H8.03Zm-.024-.421.004-.043c.02 0 .035 0 .049-.007.025-.014.035-.038.042-.073a.13.13 0 0 0-.003-.05c-.007-.024-.021-.042-.046-.042-.021-.003-.035 0-.042.01a.123.123 0 0 0-.025.053l-.017.043a.134.134 0 0 1-.029.06c-.014.02-.035.027-.063.024a.099.099 0 0 1-.07-.035c-.021-.021-.028-.053-.025-.092a.132.132 0 0 1 .035-.084.085.085 0 0 1 .085-.028l-.004.042c-.017 0-.035 0-.042.01-.021.011-.032.036-.035.067 0 .025 0 .043.014.057.01.014.021.02.035.02.018 0 .032 0 .039-.013l.024-.06.014-.046a.164.164 0 0 1 .029-.049.096.096 0 0 1 .07-.025c.039.004.067.021.077.05a.165.165 0 0 1 .018.095.137.137 0 0 1-.042.09c-.025.022-.053.03-.092.026Zm-6.876-.021.01.042a.08.08 0 0 0-.046.02c-.017.018-.024.046-.017.085a.14.14 0 0 0 .014.042c.014.025.035.035.06.032.017-.004.028-.01.035-.025l.01-.056v-.046c0-.028.007-.052.011-.063.01-.021.032-.035.06-.042.028-.004.056 0 .077.021.025.014.039.042.046.077a.14.14 0 0 1-.01.092c-.015.028-.036.042-.075.049l-.007-.039a.105.105 0 0 0 .036-.02c.017-.018.02-.043.017-.075-.007-.028-.014-.045-.028-.052a.053.053 0 0 0-.042-.01.035.035 0 0 0-.035.024l-.004.063-.003.046a.12.12 0 0 1-.014.056.077.077 0 0 1-.06.042c-.035.007-.07-.003-.088-.028a.175.175 0 0 1-.044-.137.134.134 0 0 1 .02-.05.105.105 0 0 1 .077-.045v-.004Zm-.021.435.327-.098.073.229-.038.014-.064-.187-.098.028.06.176-.039.01-.056-.175-.113.035.064.19-.036.01-.08-.232Zm.144.398.299-.159.035.057-.208.214.3-.05.03.054-.298.158-.021-.035.176-.095.031-.014.046-.025-.299.053-.021-.039.204-.218-.01.007-.036.018a.24.24 0 0 1-.031.017l-.176.092-.021-.035Zm.555.44a.098.098 0 0 1-.042-.029l-.063-.063.084-.078.063.064c.01.01.02.021.025.035.007.017 0 .035-.018.053-.017.014-.035.02-.049.017Zm-.239.027.106-.095.07.074c.028.025.053.035.077.035.026 0 .051-.01.07-.028a.106.106 0 0 0 .029-.07.098.098 0 0 0-.032-.067l-.105-.105-.247.225.036.035-.004-.004Zm.299.267.18-.28.21.126-.02.035-.177-.106-.052.088.158.095-.018.035-.162-.098-.06.095.176.105-.02.036-.215-.13Zm.527-.056.11.035.034.018c.014.014.018.032.007.053-.007.02-.014.035-.031.038l-.053-.003-.102-.035.035-.106Zm-.091.278.046-.134.098.032c.018.004.035.01.039.018.01.01.014.028.01.049l-.017.053-.004.024v.01l.053.018v-.007l-.007-.024.007-.025.014-.042c.003-.021.007-.035 0-.042 0-.01-.01-.021-.021-.032a.067.067 0 0 0 .046-.018.085.085 0 0 0 .024-.042c.014-.035.007-.067-.021-.088a.182.182 0 0 0-.056-.031l-.151-.046-.106.313.046.014Z"/><path fill="#BC715F" d="M2.76 6.173c.034-.095.396-.352 1.574-.24 0 0 .2.124.317.106.07-.007-.036.007-.127-.066-.088-.07-.106-.222.095-.215.204.004.96.046.974.116.014.067-.401.095-.552.091-.155-.003-.14.074.014.07.481-.02 1.005-.19 1.557.205.067.045-.165.052-.344-.021 0 0-.492.024-.703-.011 0 0-.159.134-.373.12.028.07-.077.323-.738.13-.113.035-.51.102-.468-.018-.105 0-.288.035-.316-.025-.028-.06.323-.147.386-.21 0 0-.745.007-.886-.046 0 0-.439.098-.41.014Z"/><path fill="#008737" d="M3 7.214c.013-.021.02-.064.055-.06.07.018.123.155.211.067.036-.007.046.035.07.042.018.074.082-.018.124-.01a.612.612 0 0 1 .33-.036c0 .078-.056.158-.126.2 0 .071.07.12.066.194-.01.028 0 .07-.042.08-.056-.01-.105-.013-.15-.045-.008-.003-.011-.014-.022-.01-.007.024.035.049.05.073-.029.046-.071.004-.11.004-.01.028 0 .06-.028.077-.046 0-.056-.052-.084-.077-.032.032.02.05.028.074-.021.098-.018.193-.113.256l-.066.032c-.018-.05-.007-.123-.018-.176a.735.735 0 0 1-.123.173c-.07-.022-.106-.099-.12-.166a.204.204 0 0 1 .046-.218c-.017-.035-.088-.028-.098-.084-.106-.07-.159.116-.225.021a.302.302 0 0 1 .07-.267c-.018-.035-.067-.028-.095-.05-.063-.056-.158-.112-.151-.21a.492.492 0 0 1 .517.116"/><path fill="#FF0" d="M3.09 7.203c-.003.081.053.021.1.07-.036-.014-.06.06-.096.018l-.02.021c.013.028.034.032.013.063-.035.014-.046-.035-.063-.052 0-.007.007-.021-.007-.028a.085.085 0 0 1-.07.02c-.007-.013-.025-.035-.007-.049.028-.035.07.014.09-.01.004-.025-.017-.053.012-.07.017.003.042-.007.049.017Zm.219.067c.003.014-.007.035.014.05a.051.051 0 0 1 .07.02c0 .014.004.035-.014.042l-.042-.01c.003-.007-.01-.01-.014-.021-.018-.004-.032.01-.042.02.01.015.035.025.028.043-.025.025-.035-.021-.064-.007-.02-.007.004-.046-.024-.06-.035 0-.01.057-.056.035-.015-.017-.029-.042-.015-.06a.056.056 0 0 1 .067.008c.028-.032.028-.144.095-.06H3.31Zm-.271.116c.018.028-.007.063.018.091.035-.07.07.014.112.007.014.018.004.039.007.057-.053.014-.116.031-.162-.01L3 7.543c.028.025.053.056.032.099-.039.007-.102.01-.12-.032-.01-.035.025-.056-.014-.084-.024.035-.024.077-.077.045a.067.067 0 0 1-.028-.088c.035-.056.098 0 .133-.024.008-.05-.01-.092.036-.116.035-.007.052.02.077.042Z"/><path fill="#fff" d="M3.186 7.418c-.018.08-.078-.004-.106-.007.035-.07.06.02.106.007Zm.19.088c-.043.01-.036-.043-.057-.064l.018-.014c.014.018.024.053.038.078Z"/><path fill="#FF0" d="M3.319 7.49c.01.028-.029.052.007.07l.028-.025c.031.007.063.014.084.042.021.06-.039.06-.07.078h-.035c.007-.021-.018-.028-.021-.035a.035.035 0 0 0-.04.01c.008.035.054.07.008.102-.042 0-.106.014-.102-.042-.014-.035.042-.081-.018-.084-.02.045-.042.084-.095.045l.007-.063c.05 0 .11.01.13-.046.015-.038-.024-.077.011-.105.053-.014.081.02.106.053Z"/><path fill="currentColor" d="M3.284 7.58c.01.032-.022.035-.04.05a.064.064 0 0 1-.048-.022c-.01-.035.017-.042.035-.056.024-.01.035.018.053.028Z"/><path fill="#fff" d="M3.252 7.6c-.004.007-.014.004-.021.007l-.007-.035c.017 0 .035.004.028.028Z"/></g><defs><clipPath id="a"><path fill="#fff" d="M0 0h24v18H0z"/></clipPath></defs></svg>