<svg xmlns="http://www.w3.org/2000/svg" width="24" height="18" fill="none"><g clip-path="url(#a)"><path fill="#fff" d="M24 6H0v6h24V6Z"/><path fill="currentColor" d="M24 12H0v6h24v-6Z"/><path fill="red" fill-rule="evenodd" d="M0 0h24v6H0V0Z" clip-rule="evenodd"/><path fill="#090" fill-rule="evenodd" d="m7.57 10.537-1.08-.784-1.076.791.402-1.282-1.077-.795 1.328-.011.412-1.28.424 1.276h1.328l-1.07.806.41 1.283v-.004Zm11.535 0-1.08-.784-1.076.791.401-1.282-1.072-.795 1.328-.011.412-1.28.42 1.276h1.328l-1.07.802.413 1.283h-.004Z" clip-rule="evenodd"/></g><defs><clipPath id="a"><path fill="#fff" d="M0 0h24v18H0z"/></clipPath></defs></svg>