<svg xmlns="http://www.w3.org/2000/svg" width="24" height="18" fill="none"><g clip-path="url(#a)"><path fill="#3E5EB9" fill-rule="evenodd" d="M-1.5 0h27v18h-27V0Z" clip-rule="evenodd"/><path fill="#FFD900" fill-rule="evenodd" d="M-1.5 3.213h27v11.573h-27V3.213Z" clip-rule="evenodd"/><path fill="#B10C0C" fill-rule="evenodd" d="M-1.5 4.5h27v9h-27v-9Z" clip-rule="evenodd"/><path fill="#FFD900" d="M22.846 8.807H1.397A.199.199 0 0 0 1.193 9c0 .107.092.193.204.193h21.45A.199.199 0 0 0 23.05 9a.199.199 0 0 0-.204-.193Z"/><path fill="currentColor" fill-rule="evenodd" d="M1.397 8.833c-.1 0-.177.076-.177.167 0 .09.078.167.177.167h21.45c.098 0 .177-.076.177-.167a.172.172 0 0 0-.178-.167H1.397ZM1.167 9c0-.123.104-.22.23-.22h21.45c.125 0 .23.097.23.22s-.105.22-.23.22H1.396a.225.225 0 0 1-.23-.22Z" clip-rule="evenodd"/><path fill="#fff" fill-rule="evenodd" d="m20.678 6.943-1.093.386 1.093.385 1.093-.385-1.093-.386Z" clip-rule="evenodd"/><path fill="currentColor" fill-rule="evenodd" d="m20.686 6.92 1.158.408-1.166.411-1.166-.41 1.158-.41.008.024.008-.023Zm-.008.049-1.02.36 1.02.359 1.02-.36-1.02-.36Z" clip-rule="evenodd"/><path fill="#FFD900" d="M19.95 7.2H4.177c-.082 0-.149.057-.149.128 0 .071.067.129.15.129H19.95c.082 0 .149-.058.149-.129 0-.071-.067-.129-.149-.129Z"/><path fill="currentColor" fill-rule="evenodd" d="M4.177 7.223c-.072 0-.125.05-.125.105 0 .055.053.105.125.105H19.95c.073 0 .125-.05.125-.105 0-.055-.052-.105-.125-.105H4.177Zm-.172.105c0-.087.08-.152.172-.152H19.95c.092 0 .173.065.173.152s-.08.153-.173.153H4.177c-.092 0-.172-.066-.172-.153Z" clip-rule="evenodd"/><path fill="currentColor" fill-rule="evenodd" d="M19.785 7.255c.02.02.032.046.032.07a.108.108 0 0 1-.032.073.102.102 0 0 1-.07.033v.05a.15.15 0 0 0 .105-.049.157.157 0 0 0 .046-.107c0-.04-.02-.078-.047-.105a.152.152 0 0 0-.104-.046v.049c.024 0 .05.012.07.032Z" clip-rule="evenodd"/><path fill="currentColor" fill-rule="evenodd" d="M19.658 7.255c.02.02.032.046.032.07a.109.109 0 0 1-.033.073.102.102 0 0 1-.07.033v.05a.15.15 0 0 0 .106-.049.157.157 0 0 0 .046-.107c0-.04-.02-.078-.047-.105a.152.152 0 0 0-.104-.046v.049c.024 0 .05.012.07.032Z" clip-rule="evenodd"/><path fill="currentColor" fill-rule="evenodd" d="M19.527 7.26c.02.02.032.045.032.07a.108.108 0 0 1-.032.073.102.102 0 0 1-.07.033v.05a.15.15 0 0 0 .105-.049.157.157 0 0 0 .046-.107c0-.04-.02-.078-.047-.105a.152.152 0 0 0-.104-.046v.049c.024 0 .05.012.07.032Z" clip-rule="evenodd"/><path fill="#fff" fill-rule="evenodd" d="m19.648 7.713-1.093.385 1.093.386 1.093-.386-1.093-.385Z" clip-rule="evenodd"/><path fill="currentColor" fill-rule="evenodd" d="m19.656 7.69 1.158.408-1.166.41-1.167-.41 1.159-.409.008.023.008-.023Zm-.008.048-1.02.36 1.02.36 1.02-.36-1.02-.36Z" clip-rule="evenodd"/><path fill="#FFD900" d="M18.92 7.969H3.147c-.082 0-.149.057-.149.129 0 .07.067.128.149.128H18.92c.082 0 .149-.057.149-.128 0-.072-.067-.13-.15-.13Z"/><path fill="currentColor" fill-rule="evenodd" d="M3.147 7.992c-.072 0-.125.05-.125.106 0 .055.053.105.125.105H18.92c.072 0 .125-.05.125-.105 0-.055-.053-.106-.125-.106H3.147Zm-.172.106c0-.088.08-.153.172-.153H18.92c.092 0 .172.065.172.153 0 .087-.08.152-.172.152H3.147c-.092 0-.172-.065-.172-.152Z" clip-rule="evenodd"/><path fill="currentColor" fill-rule="evenodd" d="M18.755 8.024c.02.02.032.046.032.07a.108.108 0 0 1-.033.074.102.102 0 0 1-.07.033v.049a.15.15 0 0 0 .105-.048.157.157 0 0 0 .047-.107c0-.04-.02-.078-.047-.106a.152.152 0 0 0-.105-.046v.05c.024 0 .05.011.07.031Z" clip-rule="evenodd"/><path fill="currentColor" fill-rule="evenodd" d="M18.628 8.024c.02.02.032.046.032.07a.109.109 0 0 1-.033.074.102.102 0 0 1-.07.033v.049a.15.15 0 0 0 .105-.048.157.157 0 0 0 .047-.107c0-.04-.02-.078-.047-.106a.152.152 0 0 0-.104-.046v.05c.023 0 .05.011.07.031Z" clip-rule="evenodd"/><path fill="currentColor" fill-rule="evenodd" d="M18.497 8.03c.02.02.032.045.032.07a.108.108 0 0 1-.033.072.102.102 0 0 1-.07.034v.049a.15.15 0 0 0 .106-.048.157.157 0 0 0 .046-.107c0-.04-.02-.079-.047-.106a.152.152 0 0 0-.104-.046v.05c.024 0 .05.011.07.031Z" clip-rule="evenodd"/><path fill="#3D5DA7" fill-rule="evenodd" d="M21.51 8.848c-.192.336.15-.112.993.452.154.103.29.38.29.572-.038-.027-.07-.08-.112-.122-.063.063.06.342.077.475-.133-.073-.119-.108-.164-.2.01.108-.021.411.031.525-.105-.027-.098-.11-.15-.13.035.133-.035.274-.014.423-.063-.06-.126-.108-.154-.133-.003.07-.115.255-.119.323a.165.165 0 0 1-.073-.114c-.063.081-.29.38-.304.466-.175-.154-.622-.528-.682-.729-.052.114-.126.152-.273.236-.059-.317-.28-.672-.16-.944-.08.05-.158.104-.231.16.05-.255.17-.499.35-.716a2.18 2.18 0 0 1 .695-.544Z" clip-rule="evenodd"/><path fill="currentColor" fill-rule="evenodd" d="M21.457 8.9a2.137 2.137 0 0 0-.626.505 1.62 1.62 0 0 0-.333.65c.06-.043.122-.085.186-.125l.06-.037-.029.064c-.056.128-.033.278.015.44.017.057.036.114.056.172l.024.073c.024.072.046.145.062.216.13-.074.191-.111.238-.211l.024-.052.016.055c.013.045.05.104.103.169.052.065.119.134.189.203.112.11.233.216.322.293l.036.032a2.226 2.226 0 0 1 .127-.21c.067-.095.14-.19.17-.231l.03-.037.009.045a.157.157 0 0 0 .038.08.482.482 0 0 1 .014-.038.86.86 0 0 1 .04-.09v-.003a1.59 1.59 0 0 0 .04-.09.24.24 0 0 0 .018-.064l.002-.044.033.029.031.026.084.07c-.001-.053.007-.106.014-.155l.002-.013a.49.49 0 0 0 .002-.197l-.01-.04.038.015a.082.082 0 0 1 .041.031.32.32 0 0 1 .017.026l.008.013a.14.14 0 0 0 .042.042.579.579 0 0 1-.012-.075 1.582 1.582 0 0 1-.006-.152l.002-.108v-.041c.001-.046 0-.084-.002-.11l.041-.011c.01.02.018.038.024.054l.003.007a.27.27 0 0 0 .021.044c.013.019.03.038.067.062a1.433 1.433 0 0 0-.019-.073l-.014-.049-.026-.094a.789.789 0 0 1-.026-.132.212.212 0 0 1 .002-.055.083.083 0 0 1 .021-.044l.015-.015.015.015c.02.018.036.039.051.058l.008.01.013.015a.805.805 0 0 0-.082-.256.652.652 0 0 0-.195-.244c-.417-.28-.71-.307-.873-.308h-.061l-.04.001c-.012 0-.024 0-.035-.002a.064.064 0 0 1-.03-.011.04.04 0 0 1-.015-.03.086.086 0 0 1 .006-.035.306.306 0 0 1 .014-.034Zm.053-.053-.01-.019c-.28.143-.52.33-.702.55-.182.22-.303.467-.354.726l-.011.056.045-.035c.057-.044.116-.085.177-.125-.034.127-.008.268.034.409.017.058.036.117.056.175l.024.071c.027.082.052.163.066.24l.006.03.026-.015.022-.012c.114-.065.186-.106.237-.191a.77.77 0 0 0 .093.14c.054.066.122.137.193.206.113.11.235.218.324.295l.06.053.03.026.006-.039a.152.152 0 0 1 .013-.036 2.13 2.13 0 0 1 .117-.19c.052-.074.108-.148.144-.197a.172.172 0 0 0 .071.086l.031.02.002-.037c0-.013.007-.035.018-.063a1.21 1.21 0 0 1 .039-.088v-.002a1.834 1.834 0 0 0 .054-.131 2.259 2.259 0 0 1 .125.109l.045.042-.009-.061a.708.708 0 0 1 .01-.2l.003-.012a.759.759 0 0 0 .011-.144l.007.01a.17.17 0 0 0 .107.077l.044.011-.02-.041a.363.363 0 0 1-.023-.108 1.54 1.54 0 0 1-.006-.148l.002-.107v-.048a.31.31 0 0 0 .13.113l.038.021-.005-.042a.965.965 0 0 0-.03-.125l-.014-.05a3.517 3.517 0 0 1-.026-.092.748.748 0 0 1-.024-.125.166.166 0 0 1 0-.043c.01.01.019.022.028.033l.008.01a.32.32 0 0 0 .059.06l.034.024v-.042c0-.1-.036-.221-.09-.33a.693.693 0 0 0-.21-.26c-.425-.284-.726-.315-.896-.315a2.134 2.134 0 0 0-.063 0l-.038.001a.202.202 0 0 1-.038-.004c0-.002 0-.007.003-.017a.631.631 0 0 1 .046-.089l-.019-.01Z" clip-rule="evenodd"/><path fill="#A70000" fill-rule="evenodd" d="M20.786 10.518c.081-.162.155-.21.208-.316.091-.183.105-.33.186-.31.08.021.08.099-.025.278-.105.176-.154.218-.369.348Zm.545.387c-.01-.127.028-.176.021-.257-.01-.14-.07-.235.004-.242.073-.008.109.042.109.182 0 .141-.021.176-.134.317Zm.415.239c-.032-.176-.007-.246-.028-.359-.035-.197-.106-.323-.035-.34.066-.018.105.045.133.242.025.197.01.253-.07.457Zm.432-1.206c-.102-.074-.161-.08-.225-.13-.116-.088-.175-.18-.21-.134-.036.046-.011.095.108.176.123.08.162.088.327.088Zm-.07.573c-.053-.112-.109-.14-.144-.21-.063-.127-.063-.236-.127-.208-.07.028-.07.084 0 .207.07.12.106.14.271.211Z" clip-rule="evenodd"/><path fill="#3D5DA7" fill-rule="evenodd" d="M2.136 9.173c-.012-.1.012-.11-.052-.184.088.036.092.136.2.066.04-.022.056-.022.008-.13.112 0 .48.13.536.134.156.007.436-.163.628.044.188.188.124.384.124.646-.072-.037-.04-.052-.12-.148.064.229 0 .642 0 .885-.032-.059-.028-.036-.056-.095-.08.221-.176.269-.176.527-.028-.1 0-.081-.032-.133-.08.166-.6.31-.4.48-.176-.103-.256-.092-.34-.188-.036.022-.064.066-.096.125-.32-.147-.2-.46-.451-.671-.04.088-.024.074-.072.217-.048-.199-.064-.328-.12-.472-.048.081-.04.048-.132.174-.04-.244-.096-.303-.072-.462-.096.067-.032.037-.128.122.088-.627.476-1.085.751-.937Z" clip-rule="evenodd"/><path fill="currentColor" fill-rule="evenodd" d="M2.25 8.898h.042c.031 0 .078.01.13.021a3.726 3.726 0 0 1 .243.068 9.841 9.841 0 0 0 .135.038.224.224 0 0 0 .03.006.522.522 0 0 0 .156-.024c.043-.01.09-.021.138-.028.118-.016.246-.007.35.105.1.1.133.201.14.312.004.054.002.11 0 .169l-.002.027c-.003.05-.006.101-.006.156v.044l-.039-.02a.182.182 0 0 1-.044-.03.112.112 0 0 1-.015-.017c.01.096.008.206.002.314l-.011.183a4.208 4.208 0 0 0-.013.264l-.05.013a.35.35 0 0 0-.026-.043l-.002-.002c-.022.051-.045.094-.065.132a1.682 1.682 0 0 0-.033.066.568.568 0 0 0-.056.266l-.052.007a.351.351 0 0 1-.016-.08.578.578 0 0 1-.1.083c-.028.02-.06.04-.09.06l-.007.004-.083.054a.385.385 0 0 0-.12.108.057.057 0 0 0-.008.042c.003.013.013.03.035.048l-.03.044a1.246 1.246 0 0 0-.174-.084l-.028-.011a.371.371 0 0 1-.128-.08.407.407 0 0 0-.07.102l-.011.022-.023-.01c-.17-.08-.224-.204-.266-.329l-.012-.036c-.034-.103-.066-.202-.153-.287a.406.406 0 0 0-.02.062 1.93 1.93 0 0 1-.036.12l-.03.088-.022-.09c-.016-.065-.028-.122-.039-.174a2.202 2.202 0 0 0-.062-.245.362.362 0 0 1-.025.03c-.015.018-.035.04-.078.1l-.038.05-.01-.063a2.052 2.052 0 0 0-.047-.21 2.679 2.679 0 0 1-.013-.05.517.517 0 0 1-.018-.147l-.01.011-.001.003-.017.022a.57.57 0 0 1-.05.048l-.054.048.01-.072a1.6 1.6 0 0 1 .31-.772.634.634 0 0 1 .236-.19.286.286 0 0 1 .202-.014.948.948 0 0 1-.001-.023c0-.014 0-.024-.002-.033-.003-.017-.009-.033-.04-.068l.031-.043a.23.23 0 0 1 .062.041l.017.017a30188700696.795 30188700696.795 0 0 0 .02.02c.01.008.018.01.027.011.01 0 .024-.004.05-.02V9.03l.01-.005a.102.102 0 0 0 .014-.01s.001-.007-.003-.02a.523.523 0 0 0-.024-.06l-.017-.038Zm-.114.275-.013.023a.223.223 0 0 0-.198-.003.582.582 0 0 0-.214.175 1.506 1.506 0 0 0-.286.66l.001-.001a.24.24 0 0 1 .071-.061l.051-.036-.01.062a.437.437 0 0 0 .012.188l.013.049c.011.042.024.092.037.155a.974.974 0 0 1 .047-.056.347.347 0 0 0 .046-.066l.028-.048.02.052c.04.1.06.195.084.308l.015.07.006-.021.003-.012a.542.542 0 0 1 .035-.092l.014-.032.027.023c.12.1.16.223.197.335l.012.036c.039.115.083.216.215.285a.301.301 0 0 1 .093-.113l.02-.011.014.017a.304.304 0 0 0 .126.084l.027.011c.027.011.059.024.095.042a.114.114 0 0 1 .015-.067.43.43 0 0 1 .137-.128c.026-.018.055-.036.084-.054l.007-.005.089-.058a.348.348 0 0 0 .115-.11l.022-.045.022.036a.588.588 0 0 1 .046-.136l.036-.072a1.24 1.24 0 0 0 .081-.176l.022-.06.028.058.007.014c.002-.055.006-.115.01-.178.004-.058.009-.119.011-.179a1.478 1.478 0 0 0-.023-.428l.047-.025a.459.459 0 0 1 .061.092l.005.009a.115.115 0 0 0 .007.012l.005-.108.001-.026c.004-.058.006-.112.002-.162a.406.406 0 0 0-.125-.279c-.088-.094-.195-.104-.304-.089-.046.006-.09.017-.134.027l-.028.006a.568.568 0 0 1-.144.02 1.809 1.809 0 0 1-.176-.046l-.077-.023a3.678 3.678 0 0 0-.239-.06.332.332 0 0 1 .008.024.1.1 0 0 1 .005.047.055.055 0 0 1-.022.034l-.023.014-.004.003a.146.146 0 0 1-.079.028.093.093 0 0 1-.06-.024l-.001-.001v.029c.001.016.002.035.005.058l-.027.004Z" clip-rule="evenodd"/><path fill="#A70000" fill-rule="evenodd" d="M1.745 10.188c.081-.2.155-.264.211-.394.091-.225.106-.408.183-.38.08.029.077.12-.028.345a.88.88 0 0 1-.366.429Zm.31.503c.035-.18.084-.247.105-.363.035-.203.018-.355.091-.348.07.011.088.085.039.289-.05.204-.08.25-.236.422Zm.369.348c.01-.176.052-.243.056-.352.01-.2-.025-.34.042-.34.07 0 .095.07.074.266-.021.197-.046.246-.172.422v.004Zm.798-1.14c-.155-.15-.246-.179-.345-.28-.172-.17-.256-.331-.316-.271-.064.056-.025.14.158.306.183.161.246.182.503.246Zm-.095.584c-.099-.148-.169-.19-.232-.288-.113-.172-.151-.32-.211-.281-.07.035-.053.112.07.28.12.166.169.194.376.29h-.003Z" clip-rule="evenodd"/><path fill="#fff" fill-rule="evenodd" d="M18.428 9.002c-1.284 1.285-3 3.858-6.43 3.858-2.999 0-5.142-2.571-6.427-3.858C6.856 7.718 9 5.146 12 5.146c3.43 0 5.142 2.57 6.43 3.856Z" clip-rule="evenodd"/><path fill="currentColor" fill-rule="evenodd" d="M5.605 9.002c.128.128.264.269.408.418.58.6 1.294 1.337 2.143 1.974 1.07.802 2.35 1.441 3.842 1.441 2.888 0 4.554-1.829 5.779-3.173.218-.24.422-.464.617-.66-.195-.196-.4-.42-.618-.66-1.225-1.345-2.89-3.172-5.778-3.172-1.492 0-2.773.64-3.842 1.442-.847.635-1.56 1.37-2.14 1.969-.145.15-.282.292-.41.42Zm2.522-2.429c1.074-.805 2.364-1.45 3.871-1.45 2.912 0 4.592 1.844 5.817 3.19.224.245.432.474.63.672l.017.017-.017.017a20.37 20.37 0 0 0-.63.672c-1.224 1.345-2.906 3.193-5.817 3.193-1.506 0-2.797-.646-3.87-1.452-.853-.639-1.57-1.38-2.15-1.98-.15-.155-.292-.301-.424-.433l-.017-.017.017-.017c.133-.133.275-.28.427-.437.58-.598 1.296-1.337 2.146-1.975Z" clip-rule="evenodd"/><path fill="currentColor" fill-rule="evenodd" d="M11.55 6.483c.344.387.056.541.421.566.38.028.162.408.486.422.224.007-.025.903.193 1.202.221.306.404.088.408.313.003.229-.598.208-.609.914-.017.412-.51.44-.534.703-.028.246.967.387.956.608-.014.222-1.079.187-1.125.437-.02.228 1.463.414 1.582 1.068-.221.07-.854.14-1.329.14-2.998 0-5.143-2.57-6.43-3.856C6.856 7.713 9.001 5.144 12 5.144c0 0-.889.812-.45 1.343v-.004Z" clip-rule="evenodd"/><path fill="#fff" fill-rule="evenodd" d="M7.97 7.629h.314v1.026H7.97V7.63Zm0 1.716h.314v1.026H7.97V9.345Zm.623-1.716h.313v1.026h-.313V7.63Zm0 1.716h.313v1.026h-.313V9.345Zm.63-1.716h.309v1.026h-.31V7.63Zm0 1.716h.309v1.026h-.31V9.345Zm.622-1.716h.312v1.026h-.312V7.63Zm0 1.716h.312v1.026h-.312V9.345Zm.622-1.716h.313v1.026h-.313V7.63Zm0 1.716h.313v1.026h-.313V9.345Zm.626-1.716h.309v1.026h-.31V7.63Zm0 1.716h.309v1.026h-.31V9.345Z" clip-rule="evenodd"/><path fill="currentColor" fill-rule="evenodd" d="M12.685 7.629h.313v1.026h-.313V7.63Zm0 1.716h.313v1.026h-.313V9.345Zm.623-1.716h.313v1.026h-.313V7.63Zm0 1.716h.313v1.026h-.313V9.345Zm.626-1.716h.309v1.026h-.31V7.63Zm0 1.716h.309v1.026h-.31V9.345Zm.622-1.716h.313v1.026h-.317l.004-1.026Zm0 1.716h.313v1.026h-.317l.004-1.026Zm.622-1.716h.313v1.026h-.313V7.63Zm0 1.716h.313v1.026h-.313V9.345Zm.626-1.716h.31v1.026h-.31V7.63Zm0 1.716h.31v1.026h-.31V9.345Z" clip-rule="evenodd"/><path fill="#3D5DA7" fill-rule="evenodd" d="M9.918 5.83c-.176.343.313-.113 1.08.462.193.209.314.46.349.726-.163-.033-.454-.194-.454-.194s.339.338.339.73c-.118-.074-.18-.063-.217-.154 0 .124.105.207.105.404a1.585 1.585 0 0 0-.233-.158c.111.197-.208.579-.048.706-.279-.041-.566-.221-.678-.415-.06.039-.064.102-.07.172.01.005-.426-.324-.384-.452a.387.387 0 0 0-.08.222 1.2 1.2 0 0 1-.361-.52l-.147.185c-.052-.324-.052-.313.054-.59a2.611 2.611 0 0 0-.211.163c.046-.26.155-.51.32-.731.164-.222.381-.412.636-.556Z" clip-rule="evenodd"/><path fill="currentColor" fill-rule="evenodd" d="M9.872 5.88a2.01 2.01 0 0 0-.573.518 1.72 1.72 0 0 0-.305.665 2.64 2.64 0 0 1 .167-.126l.056-.039-.024.063-.007.017c-.048.128-.072.189-.078.255-.006.062.003.129.024.26l.141-.178.013.036c.062.182.174.349.326.486a.39.39 0 0 1 .078-.193l.037.02c-.003.009-.002.023.005.042a.29.29 0 0 0 .036.064c.034.047.083.099.133.147a2.724 2.724 0 0 0 .173.15c.006-.055.019-.111.076-.148l.018-.012.011.02c.054.092.15.183.27.257.103.063.221.112.34.137a.199.199 0 0 1-.015-.108.948.948 0 0 1 .051-.195l.005-.013c.021-.064.043-.128.054-.188.011-.063.01-.118-.015-.16l-.037-.065.065.036c.07.039.138.083.2.131a.548.548 0 0 0-.048-.176l-.01-.02a.398.398 0 0 1-.045-.164l.04-.008a.14.14 0 0 0 .03.046c.01.01.023.02.04.028l.032.015c.02.01.046.021.074.037a.997.997 0 0 0-.165-.464 1.465 1.465 0 0 0-.152-.2l-.01-.011a.259.259 0 0 0-.003-.003h-.001l.024-.034h.001l.003.002.009.005a3.364 3.364 0 0 0 .152.077c.082.04.179.08.254.101a1.307 1.307 0 0 0-.337-.682c-.379-.284-.687-.313-.88-.314l-.068.001h-.056a.226.226 0 0 1-.084-.01.057.057 0 0 1-.028-.024.065.065 0 0 1-.007-.038.17.17 0 0 1 .01-.042Zm.046-.05-.01-.018a2.065 2.065 0 0 0-.643.56 1.753 1.753 0 0 0-.323.741l-.01.058.044-.038c.05-.043.1-.083.153-.122a.839.839 0 0 0-.062.218c-.007.073.005.152.03.303l.001.015.008.046.153-.193c.071.187.193.356.355.494l.029.025.005-.038a.638.638 0 0 1 .021-.111.28.28 0 0 1 .023-.052v.002a.33.33 0 0 0 .042.074c.036.05.087.104.139.153.051.05.104.095.143.127l.046.038.006.004.001.001v.002l.011.007.002.001h.002l.004.002a.037.037 0 0 0 .017-.006.035.035 0 0 0 .005-.013h.002v-.005c.006-.06.01-.106.043-.138.06.093.157.181.272.252.123.076.267.132.409.153l.077.012-.061-.049c-.032-.025-.042-.064-.037-.118a.925.925 0 0 1 .05-.186l.004-.013c.022-.064.044-.13.056-.193a.346.346 0 0 0 .002-.132c.063.038.124.08.18.127l.034.027v-.043a.563.563 0 0 0-.063-.258.933.933 0 0 1-.027-.064.817.817 0 0 0 .07.038.65.65 0 0 1 .1.052l.032.02v-.038c0-.202-.087-.389-.173-.524a1.44 1.44 0 0 0-.098-.136l.068.033c.093.044.209.094.293.11l.029.007-.004-.03a1.345 1.345 0 0 0-.354-.736l-.001-.002h-.002c-.388-.292-.707-.323-.906-.323h-.075l-.05.001a.193.193 0 0 1-.068-.007c-.005-.003-.007-.005-.008-.007s-.002-.006-.002-.014a.278.278 0 0 1 .034-.087l-.019-.01Zm.159 2.293Z" clip-rule="evenodd"/><path fill="#A70000" fill-rule="evenodd" d="M9.483 7.51c.029-.236.088-.327.106-.478.035-.27-.004-.464.091-.46.095.003.123.105.078.372-.05.267-.088.334-.275.566Zm.496.436c-.017-.2.018-.285.007-.415-.021-.225-.091-.38-.01-.394.084-.014.126.06.133.292.01.229-.01.288-.13.517Zm.777.352c-.084-.17-.158-.222-.21-.334-.1-.197-.117-.356-.19-.327-.078.028-.071.112.034.305.106.19.159.229.366.359v-.003Zm.267-1.547c-.21-.116-.323-.116-.464-.19-.242-.127-.386-.27-.436-.194-.049.081.018.159.27.275.25.116.328.123.634.105l-.004.004Zm.081.647c-.158-.13-.25-.152-.351-.236-.176-.144-.268-.288-.327-.232-.057.06-.018.137.168.274.187.14.25.158.51.194Z" clip-rule="evenodd"/></g><defs><clipPath id="a"><path fill="#fff" d="M0 0h24v18H0z"/></clipPath></defs></svg>