<svg xmlns="http://www.w3.org/2000/svg" width="24" height="18" fill="none"><g clip-path="url(#a)"><path fill="#006" d="M24 18V0H0v18h24Z"/><path fill="#006" fill-rule="evenodd" d="M0 0h14.014v8.707H0V0Z" clip-rule="evenodd"/><path fill="#fff" d="M0 0v.975l12.446 7.732h1.568v-.975L1.564 0H0Zm14.014 0v.975L1.564 8.707H0v-.975L12.446 0h1.568Z"/><path fill="#fff" d="M5.839 0v8.707h2.336V0H5.839ZM0 2.902v2.903h14.014V2.903H0Z"/><path fill="#C00" d="M0 3.484v1.74h14.014v-1.74H0ZM6.308 0v8.707h1.398V0H6.304h.003ZM0 8.707l4.673-2.902h1.042L1.043 8.707H0ZM0 0l4.673 2.902H3.626L0 .65V0Zm8.299 2.902L12.967 0h1.047L9.338 2.902H8.295h.004Zm5.715 5.805L9.338 5.805h1.05l3.626 2.25v.652Z"/><path fill="#fff" d="M22.969 7.965v3c0 2.46-.964 4.71-3.833 6.079-2.861-1.37-3.832-3.62-3.832-6.083V7.97h7.668l-.003-.004Z"/><path fill="#FDC300" d="M22.714 8.272v2.79c0 2.295-.9 4.395-3.574 5.674-2.674-1.275-3.578-3.375-3.578-5.674V8.27h7.152v.003Z"/><path fill="#FF9E3D" d="M17.48 9.503a.293.293 0 0 0-.19-.073c.015-.19-.117-.264-.22-.293-.103-.044-.146-.088-.146-.161a.188.188 0 0 0-.162-.147.48.48 0 0 1-.205-.161c-.03-.044-.044-.044-.073.029-.03.073-.132.22-.03.22-.073.059-.117.117-.073.205-.044.044-.073.103-.015.117l.088.06c-.058 0-.073.116.059.146-.03 0-.044.088.015.088-.074 0-.147.117-.235.117-.102 0-.146.03-.146.073l-.088.118c.073 0 .117 0 .146-.03.03-.03.103-.044.147 0 .044.03.146.044.176.03-.088.073-.147.146-.162.234 0 .088-.073.176-.146.205-.044.03-.147.088-.161.176.073.206.19.25.307.308.206.088.338.161.425.264.088.088.118.015.25.19.132.147.249.47.38.514.133.058.294.029.382-.147.103-.147.147-1.818-.323-2.096v.014Z"/><path fill="currentColor" fill-rule="evenodd" d="M16.542 8.637a.127.127 0 0 1 .021.026.46.46 0 0 0 .201.158c.09.016.151.076.167.153v.001c0 .035.01.063.033.087a.319.319 0 0 0 .109.067.35.35 0 0 1 .156.088.261.261 0 0 1 .069.205.3.3 0 0 1 .175.065v-.012l.011.007c.12.071.206.23.266.429.06.198.096.439.113.674.018.236.017.468.006.65a2.32 2.32 0 0 1-.024.23.73.73 0 0 1-.017.077.168.168 0 0 1-.019.046.308.308 0 0 1-.178.165.297.297 0 0 1-.212-.015.24.24 0 0 1-.1-.08 1.217 1.217 0 0 1-.094-.141l-.038-.065c-.05-.086-.1-.171-.152-.229-.066-.088-.105-.112-.138-.126l-.02-.008a.215.215 0 0 1-.09-.056h-.001c-.087-.102-.217-.175-.422-.263l-.027-.013a.462.462 0 0 1-.285-.3v-.002a.203.203 0 0 1 .071-.115.642.642 0 0 1 .08-.058l.013-.008h.001a.24.24 0 0 0 .142-.2c.014-.084.066-.153.142-.221h-.007a.299.299 0 0 1-.05-.004.262.262 0 0 1-.096-.032l-.001-.001a.093.093 0 0 0-.074-.025.102.102 0 0 0-.063.025.104.104 0 0 1-.06.028c-.025.003-.055.003-.09.003h-.016l.095-.127c.001-.024.014-.043.039-.057a.25.25 0 0 1 .115-.02c.02 0 .04-.008.06-.018a.374.374 0 0 0 .058-.04l.006-.004a.562.562 0 0 1 .052-.037l.029-.014a.047.047 0 0 1-.007-.007.057.057 0 0 1-.011-.035.07.07 0 0 1 .008-.034.043.043 0 0 1 .006-.007c-.056-.018-.083-.053-.089-.086a.068.068 0 0 1 .01-.049.05.05 0 0 1 .02-.018l-.072-.048c-.015-.004-.026-.011-.032-.022a.045.045 0 0 1-.003-.034.17.17 0 0 1 .044-.07.132.132 0 0 1-.005-.115.246.246 0 0 1 .07-.083.05.05 0 0 1-.016-.006.037.037 0 0 1-.017-.022c-.005-.017 0-.04.009-.062a.689.689 0 0 1 .033-.073l.005-.01.026-.055a.29.29 0 0 1 .02-.043.044.044 0 0 1 .021-.02c.009-.003.017 0 .024.006Zm-.014.888a.033.033 0 0 1-.026-.011.042.042 0 0 1-.007-.026c0-.01.002-.02.006-.026.004-.008.009-.01.012-.01l.002-.015c-.064-.014-.09-.049-.096-.078a.054.054 0 0 1 .007-.039.033.033 0 0 1 .028-.015h.025l-.11-.073c-.014-.003-.021-.009-.025-.015a.037.037 0 0 1-.002-.024.163.163 0 0 1 .044-.066l.004-.004-.002-.005a.118.118 0 0 1-.008-.107.257.257 0 0 1 .079-.089l.016-.013h-.02a.05.05 0 0 1-.026-.005.022.022 0 0 1-.01-.014c-.004-.012 0-.03.008-.054a.651.651 0 0 1 .037-.08l.027-.057a.277.277 0 0 1 .019-.04c.005-.01.01-.013.013-.014.002 0 .005 0 .01.004a.115.115 0 0 1 .018.022.474.474 0 0 0 .209.164h.001c.085.015.14.071.155.14 0 .039.012.07.037.097a.334.334 0 0 0 .114.071h.001c.05.015.108.04.15.085a.248.248 0 0 1 .065.201l-.001.008h.008c.068 0 .134.026.186.071l.012.011v-.018c.109.072.19.222.248.414.06.197.095.436.113.671.017.236.017.467.006.648-.006.09-.014.169-.024.229a.71.71 0 0 1-.017.075.153.153 0 0 1-.017.042v.001a.293.293 0 0 1-.17.158.282.282 0 0 1-.202-.014.225.225 0 0 1-.094-.076 1.18 1.18 0 0 1-.093-.14 6.915 6.915 0 0 1-.038-.064c-.05-.085-.1-.172-.154-.232-.066-.088-.107-.115-.143-.13a.426.426 0 0 0-.022-.008.198.198 0 0 1-.084-.052c-.09-.104-.223-.178-.428-.266l-.026-.013a.447.447 0 0 1-.277-.289.191.191 0 0 1 .067-.104.694.694 0 0 1 .077-.056l.013-.009a.255.255 0 0 0 .15-.21c.015-.086.072-.158.16-.23l-.009-.012a.078.078 0 0 1-.03.004.285.285 0 0 1-.048-.003.25.25 0 0 1-.09-.03.107.107 0 0 0-.084-.03.117.117 0 0 0-.072.03.089.089 0 0 1-.053.024.52.52 0 0 1-.074.004l.08-.108v-.002c0-.02.01-.035.032-.047a.236.236 0 0 1 .108-.02.141.141 0 0 0 .067-.018.484.484 0 0 0 .06-.041l.006-.004a.475.475 0 0 1 .05-.036.104.104 0 0 1 .052-.017v-.015Z" clip-rule="evenodd"/><path fill="#FF927F" d="M17.7 8.8c-.132.146-.293.264-.249.498.044.235.044.616-.176.733-.205.147-.308.47-.058.66.264.19.278.425.307.63.044.22.162.396.338.25.176.029.264-.044.264-.191 0-.147 0-.205.146-.25.117-.043.147-.087.22-.204.059-.118.088-.176.059-.235a.543.543 0 0 1-.03-.323c.03-.102-.03-.146-.058-.22a.279.279 0 0 1-.03-.205c0-.088-.029-.146-.088-.19-.058-.044-.088-.088-.073-.147 0-.073-.044-.117-.117-.176-.074-.058-.103-.117-.103-.22 0-.102-.205-.337-.352-.41Z"/><path fill="currentColor" fill-rule="evenodd" d="M18.024 9.11a.223.223 0 0 1 .035.1c0 .05.007.09.023.123.016.034.04.062.077.091.073.059.12.105.12.182v.002a.098.098 0 0 0 .008.073.214.214 0 0 0 .062.066c.06.045.091.106.091.196v.002a.271.271 0 0 0 .028.2.396.396 0 0 0 .026.05l.003.005.023.044a.172.172 0 0 1 .008.126.535.535 0 0 0 .029.318.129.129 0 0 1 .004.1.986.986 0 0 1-.063.14v.001a.74.74 0 0 1-.095.132.34.34 0 0 1-.129.076c-.073.022-.107.047-.124.083a.19.19 0 0 0-.015.066c-.003.026-.003.057-.003.094 0 .074-.022.132-.069.167-.045.034-.112.045-.2.031a.203.203 0 0 1-.122.054.144.144 0 0 1-.103-.043.512.512 0 0 1-.121-.267l-.006-.042c-.027-.195-.056-.408-.3-.583a.356.356 0 0 1-.143-.354.504.504 0 0 1 .202-.318h.001c.107-.057.162-.18.183-.318a1.283 1.283 0 0 0-.01-.408.367.367 0 0 1 .06-.287.883.883 0 0 1 .09-.11l.039-.042.061-.065.006.005.003-.007a.854.854 0 0 1 .233.196c.035.04.066.082.088.12Zm-.323-.301a.853.853 0 0 1 .224.19.79.79 0 0 1 .086.118.21.21 0 0 1 .033.093c0 .052.008.093.025.13a.273.273 0 0 0 .08.096c.074.058.115.1.115.169a.112.112 0 0 0 .01.083.227.227 0 0 0 .066.07c.057.043.085.099.085.184a.286.286 0 0 0 .03.21.424.424 0 0 0 .026.05l.003.006.023.042a.158.158 0 0 1 .007.116.55.55 0 0 0 .03.328c.013.027.013.054.003.09-.011.036-.033.079-.062.138a.722.722 0 0 1-.092.128.324.324 0 0 1-.124.074c-.074.022-.113.048-.132.09a.206.206 0 0 0-.017.07c-.002.028-.002.059-.002.095 0 .073-.022.125-.063.156-.042.031-.106.043-.193.028h-.003l-.003.002a.19.19 0 0 1-.116.052.13.13 0 0 1-.092-.04.499.499 0 0 1-.117-.257l-.006-.042c-.026-.195-.056-.414-.304-.593a.342.342 0 0 1-.139-.34.49.49 0 0 1 .197-.308c.112-.06.168-.188.19-.327.022-.14.011-.296-.011-.413a.353.353 0 0 1 .057-.277.86.86 0 0 1 .09-.109l.038-.04c.02-.02.04-.041.058-.062Z" clip-rule="evenodd"/><path fill="#FF9EE1" d="M17.745 11.613c.293-.073.264-.542.22-.733-.044-.205-.147-.483-.073-.718.117-.308-.147-.616-.074-.733.073-.132.059-.19.044-.235 0-.029-.073-.058-.073.015 0 .088-.03.117-.073.161-.044.044-.044.176 0 .294.029.132.117.322 0 .571-.147.25-.088.352-.044.47.088.19.264.82.073.908Z"/><path fill="currentColor" fill-rule="evenodd" d="M17.869 9.194a.036.036 0 0 0-.014-.025.056.056 0 0 0-.03-.013.037.037 0 0 0-.03.011c-.009.01-.014.023-.014.043a.19.19 0 0 1-.02.093.275.275 0 0 1-.051.063.113.113 0 0 0-.027.05.286.286 0 0 0-.008.074c0 .054.01.117.033.176l.018.069c.034.126.08.291-.017.497a.543.543 0 0 0-.095.288c.002.063.021.113.04.163l.01.024v.001c.044.095.11.3.141.491a.99.99 0 0 1 .014.262c-.01.074-.034.126-.078.146l.005.014c.151-.038.218-.177.242-.329a1.178 1.178 0 0 0-.017-.413 3.75 3.75 0 0 0-.03-.128l-.01-.038a2.72 2.72 0 0 1-.04-.182.78.78 0 0 1 .007-.366c.06-.156.022-.312-.02-.443a4.368 4.368 0 0 0-.021-.063c-.014-.04-.027-.077-.035-.11-.013-.05-.015-.09.002-.116a.407.407 0 0 0 .056-.153.193.193 0 0 0-.011-.086Zm-.064-.017c-.005.006-.01.015-.01.033a.203.203 0 0 1-.02.1.285.285 0 0 1-.054.066.1.1 0 0 0-.023.045.27.27 0 0 0-.009.069c0 .052.011.114.033.171v.001l.018.068c.035.127.081.297-.018.509a.53.53 0 0 0-.093.28c.002.06.02.108.04.158l.009.025c.044.096.11.302.142.495a1 1 0 0 1 .013.265.238.238 0 0 1-.048.13c.113-.049.167-.168.189-.302a1.168 1.168 0 0 0-.017-.407 3.657 3.657 0 0 0-.03-.128l-.01-.038a2.636 2.636 0 0 1-.04-.183.796.796 0 0 1 .007-.374c.058-.152.022-.303-.02-.433l-.021-.063a1.164 1.164 0 0 1-.035-.112c-.013-.05-.017-.094.003-.126a.39.39 0 0 0 .054-.148.181.181 0 0 0-.01-.08v-.003c0-.004-.003-.01-.01-.015a.041.041 0 0 0-.02-.009.022.022 0 0 0-.02.006Zm-1.115-.301.015.004a.122.122 0 0 1 .057.031.105.105 0 0 1 .023.042.41.41 0 0 1 .005.016c.007.022.013.043.035.06a.098.098 0 0 1 .041.05.162.162 0 0 1 .006.052c0 .016 0 .029.005.038.004.008.012.016.033.02h.001a.222.222 0 0 1 .044.021.05.05 0 0 1 .021.027.077.077 0 0 1 0 .038.513.513 0 0 1-.016.054.113.113 0 0 0 .004.056.142.142 0 0 0 .022.037l.001.002a.1.1 0 0 1 .02.033.069.069 0 0 1-.004.049l-.006.015-.307-.645Zm.027.024.232.487a.13.13 0 0 1-.004-.06v-.002a.507.507 0 0 0 .016-.053.062.062 0 0 0 .001-.03.036.036 0 0 0-.016-.02.206.206 0 0 0-.04-.02c-.022-.004-.036-.013-.043-.027-.006-.012-.006-.028-.006-.043a.15.15 0 0 0-.005-.048.084.084 0 0 0-.035-.044.11.11 0 0 1-.041-.068.374.374 0 0 0-.005-.014.09.09 0 0 0-.02-.036.094.094 0 0 0-.034-.022Zm.244.512.034.07a.045.045 0 0 0-.002-.02.096.096 0 0 0-.018-.03V9.43a.251.251 0 0 1-.014-.019Zm-.441-.481-.004-.001.004.001Zm.017-.008a.027.027 0 0 1 .012.023v.01l-.097-.032.002-.015c.015 0 .037 0 .057.004.01.002.018.005.026.01Zm-.061.177.08-.014.004.013a.186.186 0 0 1-.083.016l-.103.018.016-.016a.058.058 0 0 1 .034-.015c.012-.002.026-.002.04-.002h.011Zm-.024.191.19-.059.007.013c-.075.06-.15.06-.195.06l-.002-.014Zm.145-.03a.252.252 0 0 1-.085.027l.085-.026Zm.088.066-.004.016a.123.123 0 0 1-.068.084.223.223 0 0 1-.1.025h-.025l.197-.125Zm-.144.108a.205.205 0 0 0 .066-.02.116.116 0 0 0 .054-.056l-.12.076Zm.749-.012.003.013-.237.127.007-.018a.175.175 0 0 1 .114-.107c.046-.015.09-.015.113-.015Zm-.205.108.174-.093a.296.296 0 0 0-.077.014.162.162 0 0 0-.097.079Zm-.446.016a1.151 1.151 0 0 0-.111-.007v-.015h.246l-.005.01a.026.026 0 0 1-.014.013.07.07 0 0 1-.02.004.349.349 0 0 1-.058-.001 2.502 2.502 0 0 1-.038-.004Zm.05.198.099-.058.009.012a.226.226 0 0 1-.051.034 1.323 1.323 0 0 1-.05.025l-.15.089-.01-.012a.516.516 0 0 1 .133-.08l.01-.005.01-.005Zm.08.685.038-.063.002-.004a.835.835 0 0 1 .04-.066.25.25 0 0 1 .12-.098l-.004-.014a.264.264 0 0 0-.128.104.824.824 0 0 0-.041.067l-.002.003a1.018 1.018 0 0 1-.038.064.147.147 0 0 1-.034.052.085.085 0 0 1-.03.018.357.357 0 0 1-.01.003l-.004.002a.06.06 0 0 0-.012.005.025.025 0 0 0-.01.01.033.033 0 0 0-.004.014.045.045 0 0 1-.017.015.151.151 0 0 1-.033.013.294.294 0 0 1-.075.011.07.07 0 0 0-.052.02.156.156 0 0 0-.027.042c-.008.015-.014.024-.025.03a.116.116 0 0 1-.057.01v.015c.03 0 .05-.003.064-.012a.077.077 0 0 0 .03-.036.146.146 0 0 1 .025-.038.056.056 0 0 1 .043-.016.307.307 0 0 0 .078-.011.166.166 0 0 0 .036-.015.056.056 0 0 0 .024-.022v-.004c0-.004.002-.007.003-.009 0-.002.002-.003.004-.004a.045.045 0 0 1 .01-.004l.003-.002a.1.1 0 0 0 .046-.025.162.162 0 0 0 .036-.055Z" clip-rule="evenodd"/><path fill="#00A728" d="M19.798 12.567c.044.059 0 .147.073.176.103.03.015.147.132.206.103.043 0 .146.103.22.102.043 0 .146.117.22.146.073-.03.22.073.278.103.059-.03.205.088.264.103.058-.058.161.059.249.102.073-.03.205.073.279.103.073-.059.175.044.278.088.073-.03.147.03.293.043.074-.045.396-.264.367-.088.146-.396.264-.514.22-.117.088-.483.19-.674.014-.19.176-.557.074-.674 0-.117.03-.44-.102-.513-.234-.235.03-.308-.293-.264-.381.058-.118-.059-.206.03-.293.102-.089-.074-.191.043-.264.117-.074-.03-.206.073-.294.118-.073-.058-.19.06-.234.116-.059-.015-.205.087-.264.088-.059-.059-.205.073-.279.132-.058 0-.176.118-.22.102-.058 0-.175.102-.22.117-.043.03-.175.132-.205.088-.044.03-.117.073-.19.25.102.997.176 1.32 0v.014Z"/><path fill="currentColor" fill-rule="evenodd" d="M19.805 12.541v.025a.15.15 0 0 1 .02.049.393.393 0 0 1 .005.051.17.17 0 0 0 .01.043.058.058 0 0 0 .033.028.077.077 0 0 1 .051.04c.009.016.011.035.014.054v.004a.18.18 0 0 0 .015.058c.01.018.025.036.053.05a.082.082 0 0 1 .048.046.164.164 0 0 1 .007.058v.001c0 .02 0 .04.006.06a.105.105 0 0 0 .042.055.083.083 0 0 1 .048.046.17.17 0 0 1 .009.059c0 .02.002.04.01.06a.118.118 0 0 0 .05.055c.038.019.056.043.062.07a.182.182 0 0 1-.005.083l-.004.013a.248.248 0 0 0-.01.06c0 .011.002.02.007.03a.06.06 0 0 0 .023.022c.028.016.04.038.044.063a.261.261 0 0 1-.001.071v.005a.214.214 0 0 0 0 .072c.005.02.018.04.045.053a.085.085 0 0 1 .03.026c.006.01.01.02.01.031a.18.18 0 0 1-.01.06l-.003.005a.16.16 0 0 0-.009.065c.003.02.014.042.042.063a.1.1 0 0 1 .043.069.243.243 0 0 1-.004.076v.001c-.003.026-.007.05-.003.073a.085.085 0 0 0 .037.06c.027.019.038.041.039.065a.21.21 0 0 1-.014.068v.003a.223.223 0 0 0-.014.071c.001.023.01.047.034.071a.09.09 0 0 1 .035.061.192.192 0 0 1-.008.066v.003c-.011.045-.024.097.003.166a.1.1 0 0 1 .011.04.247.247 0 0 1-.002.056.424.424 0 0 1-.042.132c-.044.086-.121.162-.233.15a.543.543 0 0 1-.247.18.68.68 0 0 1-.152.043.26.26 0 0 1-.117-.003.715.715 0 0 1-.31.105c-.129.014-.268-.003-.365-.09-.098.087-.237.104-.366.092a.808.808 0 0 1-.31-.093.298.298 0 0 1-.12-.007.836.836 0 0 1-.301-.133.339.339 0 0 1-.095-.095c-.119.013-.196-.063-.239-.151a.42.42 0 0 1-.038-.136.203.203 0 0 1 .01-.105c.027-.053.016-.1.006-.145l-.002-.008a.224.224 0 0 1-.008-.071.113.113 0 0 1 .036-.071.08.08 0 0 0 .031-.063c0-.021-.008-.042-.016-.065v-.002a.174.174 0 0 1-.015-.07c.001-.024.014-.046.045-.065a.086.086 0 0 0 .043-.06.22.22 0 0 0-.004-.074l-.001-.004c-.01-.052-.019-.109.034-.155h.001c.028-.018.037-.037.039-.056a.167.167 0 0 0-.013-.066.37.37 0 0 1-.01-.03.094.094 0 0 1-.003-.032.05.05 0 0 1 .013-.03.083.083 0 0 1 .034-.021.078.078 0 0 0 .044-.053.209.209 0 0 0 0-.072v-.005a.266.266 0 0 1-.001-.071.085.085 0 0 1 .044-.063c.02-.013.026-.03.026-.052a.292.292 0 0 0-.007-.058l-.003-.016a.2.2 0 0 1-.001-.082.11.11 0 0 1 .058-.07c.032-.015.047-.032.055-.05a.142.142 0 0 0 .006-.06v-.003c-.001-.02-.002-.04.004-.059.007-.02.022-.037.053-.049a.084.084 0 0 0 .041-.048c.006-.019.006-.04.006-.06v-.001c0-.02 0-.042.007-.062a.081.081 0 0 1 .049-.048.09.09 0 0 0 .052-.044.177.177 0 0 0 .015-.063.207.207 0 0 1 .014-.057.076.076 0 0 1 .051-.042.084.084 0 0 0 .039-.034.102.102 0 0 0 .01-.044v-.017c0-.028.002-.06.02-.092l.004-.006.006.003c.123.05.371.094.63.103.258.01.523-.016.683-.103l.01-.006Zm-1.324.022a.155.155 0 0 0-.015.078v.02a.115.115 0 0 1-.013.048.098.098 0 0 1-.045.042h-.001a.062.062 0 0 0-.043.034.185.185 0 0 0-.012.054v.003a.19.19 0 0 1-.017.064.104.104 0 0 1-.06.05.067.067 0 0 0-.04.04.175.175 0 0 0-.006.058c0 .02 0 .043-.007.064a.099.099 0 0 1-.048.057l-.001.001c-.028.01-.04.024-.045.04-.006.016-.005.034-.004.054v.003a.151.151 0 0 1-.007.066c-.009.022-.027.041-.06.057a.095.095 0 0 0-.052.061.186.186 0 0 0 .002.075l.003.015c.003.022.007.043.007.063a.074.074 0 0 1-.033.064.07.07 0 0 0-.038.053c-.003.02 0 .043.002.067v.005a.225.225 0 0 1 0 .077.093.093 0 0 1-.053.062.069.069 0 0 0-.03.018.035.035 0 0 0-.008.021.066.066 0 0 0 .003.027l.009.03v.001a.182.182 0 0 1 .014.07c-.003.025-.015.048-.046.067-.046.04-.038.09-.028.142v.003a.234.234 0 0 1 .004.08.1.1 0 0 1-.05.068c-.027.018-.037.036-.038.055a.176.176 0 0 0 .014.063l.001.003a.214.214 0 0 1 .017.069c0 .025-.01.05-.036.074a.098.098 0 0 0-.031.061.206.206 0 0 0 .007.067l.002.009c.01.045.023.096-.006.154a.19.19 0 0 0-.01.096.409.409 0 0 0 .038.132c.04.086.116.156.228.142h.005l.003.004c.017.031.05.064.092.094a.804.804 0 0 0 .297.131.28.28 0 0 0 .116.006h.005a.78.78 0 0 0 .307.093c.129.013.266-.005.359-.091l.005-.005.005.005c.093.085.23.104.358.09a.692.692 0 0 0 .306-.106l.004-.002.003.002a.24.24 0 0 0 .114.004.665.665 0 0 0 .149-.043.52.52 0 0 0 .242-.178l.002-.005.005.001c.105.014.18-.056.223-.14a.41.41 0 0 0 .04-.128.236.236 0 0 0 .003-.052.085.085 0 0 0-.01-.035v-.001c-.03-.074-.016-.13-.005-.175l.001-.004a.177.177 0 0 0 .008-.06c-.002-.018-.01-.034-.031-.052a.117.117 0 0 1-.038-.082.232.232 0 0 1 .014-.076v-.002c.007-.023.014-.044.013-.063 0-.02-.009-.038-.033-.055a.1.1 0 0 1-.043-.069.268.268 0 0 1 .004-.077c.003-.026.007-.05.003-.073a.085.085 0 0 0-.037-.06c-.03-.022-.044-.047-.047-.072a.174.174 0 0 1 .01-.071l.001-.006a.169.169 0 0 0 .01-.054.047.047 0 0 0-.007-.024.071.071 0 0 0-.025-.021.093.093 0 0 1-.052-.063.222.222 0 0 1-.001-.076v-.005a.255.255 0 0 0 .002-.068.07.07 0 0 0-.037-.052.074.074 0 0 1-.03-.029.074.074 0 0 1-.008-.035c0-.02.006-.043.011-.065l.003-.013a.168.168 0 0 0 .006-.075c-.005-.023-.02-.044-.055-.061a.133.133 0 0 1-.057-.063.187.187 0 0 1-.011-.065v-.003a.146.146 0 0 0-.008-.05c-.005-.015-.017-.029-.04-.04H20.1a.12.12 0 0 1-.048-.063c-.006-.021-.006-.043-.006-.063 0-.021 0-.04-.006-.055a.07.07 0 0 0-.041-.038.124.124 0 0 1-.06-.056.195.195 0 0 1-.016-.063v-.003a.16.16 0 0 0-.013-.05c-.007-.015-.019-.026-.043-.033a.073.073 0 0 1-.04-.035.137.137 0 0 1-.012-.048l-.002-.016a.4.4 0 0 0-.004-.034.106.106 0 0 0-.019-.046l-.001-.002v-.005c-.164.085-.427.11-.68.1a2.165 2.165 0 0 1-.629-.102Z" clip-rule="evenodd"/><path fill="#FDC300" d="M18.58 12.994c0 .029 0 .073-.029.117-.073.088.03.146-.058.25-.074.102.014.175-.074.263-.088.088.015.176-.073.264-.088.103.015.176-.073.264-.088.088.014.19-.074.278-.088.088.015.206-.073.293-.103.118 0 .206-.073.294-.073.073 0 .146-.059.205.088-.073.088-.19.161-.235.074-.058-.014-.146.03-.19.044-.044 0-.206.073-.293.073-.088 0-.25.073-.294.074-.044.015-.234.103-.293.088-.059 0-.19.058-.264.074-.073 0-.19.074-.293.059-.073 0-.161.044-.234.03-.03.03-.264-.03-.147v.015Zm.235.102c-.059.103.044.132-.03.235-.073.102.045.19-.043.293-.088.103.044.161-.03.264-.073.117.03.176-.029.25-.073.087.044.16-.03.263-.087.103.03.176-.043.264-.059.088.03.19-.03.264-.058.073.045.176-.043.278-.088.103.014.147-.03.22.103-.03.059-.161.103-.19.03-.03-.015-.22.044-.264.058-.059-.044-.206 0-.264.102-.117.03-.19.073-.279.059-.088-.015-.19.03-.249.073-.103-.03-.19.014-.264.073-.102 0-.176.044-.25.073-.102 0-.204.015-.263.044-.044.088-.278 0-.308h-.015Zm.322.088c-.058.147.044.19 0 .308-.029.117.044.205 0 .322-.043.133.06.22 0 .382-.058.161.044.205 0 .366-.043.176.074.279 0 .41-.087.133.088.177 0 .309-.029.073 0 .234.074.029.073-.19-.044-.22 0-.293.073-.088 0-.293.015-.425.029-.103-.06-.264 0-.382.044-.132-.088-.264-.03-.366.044-.103-.03-.235.03-.323.044-.088-.044-.205-.03-.249.03-.044-.015-.235-.059-.088Z"/><path fill="currentColor" fill-rule="evenodd" d="M18.616 13.13c-.019.031-.017.066-.015.104v.008c.002.04.002.083-.029.122-.035.05-.035.102-.035.153v.002c0 .05 0 .1-.039.139a.101.101 0 0 0-.02.06.423.423 0 0 0 .003.058v.014c.004.049.005.1-.043.133a.104.104 0 0 0-.04.06.454.454 0 0 0-.013.086l-.001.008c-.003.028-.005.055-.01.079-.007.025-.018.048-.039.06a.069.069 0 0 0-.028.047c-.005.022-.005.048-.005.077 0 .028 0 .059-.004.088a.163.163 0 0 1-.034.08c-.035.042-.042.102-.046.159l-.001.02a.767.767 0 0 1-.005.058c-.003.023-.009.044-.022.057-.009.008-.011.02-.01.034 0 .011.003.023.006.036l.003.013a.152.152 0 0 1 .003.055.082.082 0 0 1-.032.053c-.035.02-.052.059-.073.103a.344.344 0 0 1-.088.131l-.01-.01c.026-.026.024-.054.022-.087v-.005a.192.192 0 0 1 .003-.056.12.12 0 0 1 .034-.058c.031-.038.028-.075.024-.118a.387.387 0 0 1 .003-.089.193.193 0 0 1 .046-.086c.042-.041.038-.09.035-.141v-.001c-.004-.05-.008-.105.039-.151.04-.042.038-.086.034-.134-.004-.048-.008-.099.039-.145a.116.116 0 0 0 .034-.06.215.215 0 0 0 0-.06.309.309 0 0 1 0-.068.156.156 0 0 1 .039-.075.115.115 0 0 0 .034-.063.24.24 0 0 0 0-.064c-.001-.022-.003-.045.001-.068a.129.129 0 0 1 .038-.07.129.129 0 0 0 .037-.06.206.206 0 0 0 .003-.06v-.006a.193.193 0 0 1 .033-.137.14.14 0 0 0 .035-.067.175.175 0 0 0-.002-.058v-.005a.215.215 0 0 1-.003-.054.119.119 0 0 1 .029-.065.19.19 0 0 0 .027-.113v-.016l.001-.002a.102.102 0 0 1 .021-.03.023.023 0 0 1 .012-.006c.004-.001.008 0 .012.003a.04.04 0 0 1 .012.022l.005.032a.392.392 0 0 1-.01.112.057.057 0 0 1-.01.021Zm-.028-.15a.084.084 0 0 1 .017-.025.01.01 0 0 1 .004-.002c.003.002.005.006.007.014a.385.385 0 0 1-.004.136.043.043 0 0 1-.007.017l-.001.001c-.022.036-.02.076-.018.113v.009c.002.04.002.078-.026.112-.038.053-.038.11-.038.162 0 .052 0 .096-.034.13v.001a.117.117 0 0 0-.024.068c-.001.02 0 .041.002.062l.001.013c.004.05.003.093-.037.12a.119.119 0 0 0-.046.068.459.459 0 0 0-.014.09v.007c-.003.028-.005.054-.01.076-.007.024-.016.042-.032.052-.021.012-.03.033-.036.056-.004.024-.004.052-.004.08 0 .028 0 .058-.005.085a.148.148 0 0 1-.03.073c-.039.046-.046.111-.05.168v.02c-.002.021-.003.04-.006.057-.003.023-.008.039-.017.048a.057.057 0 0 0-.015.046c0 .012.004.026.007.039l.002.012a.14.14 0 0 1 .004.05.068.068 0 0 1-.027.043c-.038.023-.057.065-.076.107l-.001.002a.456.456 0 0 1-.05.089.161.161 0 0 0 .002-.049v-.006a.176.176 0 0 1 .002-.051.105.105 0 0 1 .03-.052c.036-.043.033-.086.029-.13l-.001-.011a.18.18 0 0 1 .046-.152c.046-.046.042-.1.038-.151v-.001c-.003-.052-.007-.1.035-.141.046-.046.042-.097.039-.144v-.001c-.004-.048-.007-.092.034-.134a.128.128 0 0 0 .038-.067.223.223 0 0 0 .001-.064.236.236 0 0 1 0-.064.142.142 0 0 1 .035-.069.129.129 0 0 0 .038-.07.243.243 0 0 0 0-.067.24.24 0 0 1 0-.064.115.115 0 0 1 .035-.062.142.142 0 0 0 .04-.068.219.219 0 0 0 .004-.064v-.005c-.002-.04-.004-.08.03-.128a.153.153 0 0 0 .037-.073.189.189 0 0 0-.001-.063v-.005a.199.199 0 0 1-.004-.05.105.105 0 0 1 .026-.058c.031-.046.031-.092.031-.122v-.013Zm.223.108h.021c.026.01.04.032.048.06.008.028.01.062.007.097a.466.466 0 0 1-.02.098.18.18 0 0 1-.03.064.124.124 0 0 0 .002.047l.005.023a.72.72 0 0 1 .008.04.2.2 0 0 1-.03.155c-.018.03-.015.059-.012.094l.002.014a.19.19 0 0 1-.035.14.08.08 0 0 0-.009.054.332.332 0 0 0 .014.062c.011.044.02.095-.02.149a.077.077 0 0 0-.013.047.388.388 0 0 0 .006.061c.005.044.01.094-.021.14a.187.187 0 0 0-.015.098l.001.027a.22.22 0 0 1-.01.072.242.242 0 0 1-.05.083c-.01.012-.011.03-.009.052.002.02.008.042.014.065l.002.008a.373.373 0 0 1 .013.076c0 .024-.004.047-.02.063h-.001v.001c-.013.01-.02.027-.025.051a.462.462 0 0 0-.005.11v.05a.188.188 0 0 1-.004.03.043.043 0 0 1-.01.022v.001c-.01.006-.014.017-.018.034a.456.456 0 0 0-.004.027v.003a.572.572 0 0 1-.005.027.161.161 0 0 1-.021.06.097.097 0 0 1-.058.04l-.017.006.01-.016c.016-.028.01-.051.001-.079a.438.438 0 0 1-.004-.014.126.126 0 0 1-.005-.057.148.148 0 0 1 .037-.071c.042-.049.039-.097.032-.144l-.003-.014c-.003-.019-.006-.038-.006-.056 0-.022.005-.044.021-.064.027-.034.02-.074.013-.121-.007-.046-.015-.096.016-.143a.094.094 0 0 0 .024-.06.223.223 0 0 0-.007-.055l-.002-.005a.211.211 0 0 1-.006-.068.138.138 0 0 1 .035-.076.118.118 0 0 0 .024-.068.234.234 0 0 0-.01-.063v-.002a.23.23 0 0 1-.011-.063.1.1 0 0 1 .027-.068c.025-.031.018-.059.01-.094l-.003-.008a.173.173 0 0 1 .021-.147.102.102 0 0 0 .023-.065.207.207 0 0 0-.014-.06.18.18 0 0 1-.012-.065.123.123 0 0 1 .034-.074.125.125 0 0 0 .031-.071.239.239 0 0 0-.007-.075c-.009-.046-.018-.095.02-.147a.125.125 0 0 0 .025-.062.135.135 0 0 0-.008-.053c-.004-.015-.009-.031-.009-.05 0-.02.005-.042.02-.069l.002-.004Zm.009.015a.116.116 0 0 0-.016.058c0 .016.004.03.008.046l.001.004a.15.15 0 0 1 .008.054.14.14 0 0 1-.029.07c-.034.046-.025.09-.016.136v.005a.253.253 0 0 1 .007.073.14.14 0 0 1-.035.08.108.108 0 0 0-.03.065.164.164 0 0 0 .01.06l.002.003a.218.218 0 0 1 .013.06.118.118 0 0 1-.024.074.16.16 0 0 0-.026.075.2.2 0 0 0 .007.06l.002.01c.008.034.017.068-.013.105a.093.093 0 0 0-.023.06c0 .02.004.038.01.06.005.021.011.044.01.068a.129.129 0 0 1-.026.076.124.124 0 0 0-.032.068.191.191 0 0 0 .006.063l.001.006a.24.24 0 0 1 .008.059.109.109 0 0 1-.027.068c-.027.04-.02.085-.013.132v.002c.007.044.015.09-.017.13a.084.084 0 0 0-.017.055c0 .017.003.034.006.053l.002.014c.007.049.011.103-.035.156a.135.135 0 0 0-.034.064.113.113 0 0 0 .005.05l.004.014c.007.023.014.047.005.075a.08.08 0 0 0 .033-.03.15.15 0 0 0 .019-.054l.004-.026V15.3l.005-.027a.071.071 0 0 1 .022-.043.031.031 0 0 0 .006-.013.18.18 0 0 0 .003-.029v-.078c0-.029 0-.058.005-.083s.014-.047.03-.06c.013-.013.017-.03.016-.052a.36.36 0 0 0-.012-.073l-.003-.008a.524.524 0 0 1-.013-.067c-.003-.024-.002-.046.011-.063a.228.228 0 0 0 .048-.079.206.206 0 0 0 .01-.067l-.001-.025a.206.206 0 0 1 .016-.106v-.001c.028-.042.025-.087.02-.13l-.002-.01a.389.389 0 0 1-.005-.054c0-.02.004-.04.017-.056.034-.048.028-.093.017-.137l-.004-.014a.37.37 0 0 1-.01-.05.095.095 0 0 1 .011-.062.175.175 0 0 0 .032-.131l-.001-.014c-.004-.035-.008-.07.013-.104a.181.181 0 0 0 .028-.144l-.007-.039a1.346 1.346 0 0 1-.005-.024.13.13 0 0 1-.002-.055V13.4l.002-.002a.16.16 0 0 0 .029-.06.45.45 0 0 0 .018-.095.268.268 0 0 0-.006-.091c-.007-.025-.02-.042-.037-.049h-.01Zm.383.172a.039.039 0 0 0 0 .015.08.08 0 0 0 .005.025l.01.03.001.002.01.03c.015.046.027.1.003.147-.028.042-.025.095-.02.152l.002.01c.005.053.01.11-.01.16h-.001v.001a.122.122 0 0 0-.013.078.487.487 0 0 0 .023.088v.004c.02.06.042.128.02.195v.001c-.029.056-.022.124-.011.192l.004.026a.68.68 0 0 1 .011.073.242.242 0 0 1-.004.088.553.553 0 0 0 .002.108l.006.06.007.06a.708.708 0 0 1 .002.112.165.165 0 0 1-.033.088.056.056 0 0 0-.007.045.168.168 0 0 0 .008.023c0 .003.002.005.003.008l.008.02a.213.213 0 0 1 .014.078.32.32 0 0 1-.025.118.276.276 0 0 1-.048.095c-.007.007-.015.011-.023.01-.008-.001-.014-.008-.017-.014a.13.13 0 0 1-.01-.059c0-.022.003-.047.011-.067v-.001a.117.117 0 0 0 .024-.08.2.2 0 0 0-.024-.067c-.01-.022-.022-.045-.025-.07a.132.132 0 0 1 .026-.09c.035-.064.024-.12.01-.184a.428.428 0 0 1-.011-.225.301.301 0 0 0-.004-.174l-.002-.006a.283.283 0 0 1 .006-.187.325.325 0 0 0 .003-.21.3.3 0 0 1-.003-.171.28.28 0 0 0 .005-.158l-.002-.01a.35.35 0 0 1-.003-.154v-.001c.02-.053.009-.09-.003-.13a.281.281 0 0 1-.016-.082c0-.027.004-.058.019-.096a.186.186 0 0 1 .017-.041c.006-.01.012-.016.02-.018.009-.002.016.003.02.009.006.005.01.014.014.023a.216.216 0 0 1 .01.096.068.068 0 0 1-.009.025Zm-.065-.091.007.002a.166.166 0 0 1 .015-.039c.006-.008.01-.01.011-.01a.01.01 0 0 1 .007.003.06.06 0 0 1 .01.019.201.201 0 0 1 .009.089.052.052 0 0 1-.007.02v.001a.054.054 0 0 0-.002.023.624.624 0 0 0 .016.057l.001.003.01.03c.015.046.025.094.004.135-.03.047-.026.104-.02.16v.01a.313.313 0 0 1-.01.153.136.136 0 0 0-.014.086.5.5 0 0 0 .024.092v.002c.02.062.04.125.02.187-.03.061-.022.133-.011.2l.004.027c.004.024.008.048.01.071a.224.224 0 0 1-.003.084v.001a.564.564 0 0 0 .001.111l.007.06.006.06c.004.04.006.077.002.11a.15.15 0 0 1-.03.08v.001a.07.07 0 0 0-.01.056.19.19 0 0 0 .01.026l.003.008a.202.202 0 0 1 .021.092c0 .03-.007.066-.025.113a.264.264 0 0 1-.045.09c-.005.005-.008.006-.01.005-.001 0-.004-.001-.007-.006a.116.116 0 0 1-.008-.052.18.18 0 0 1 .01-.06.132.132 0 0 0 .026-.09c-.003-.026-.015-.049-.025-.07v-.001a.2.2 0 0 1-.025-.066.118.118 0 0 1 .024-.08v-.001c.038-.069.027-.13.012-.194a.415.415 0 0 1-.011-.218.316.316 0 0 0-.006-.187.269.269 0 0 1 .006-.18.339.339 0 0 0 .003-.216.289.289 0 0 1-.003-.165.293.293 0 0 0 .004-.174.338.338 0 0 1-.004-.148c.021-.057.009-.098-.003-.139 0-.003-.002-.006-.003-.008a.223.223 0 0 1 .005-.16l-.006-.003Z" clip-rule="evenodd"/><path fill="#EF072D" d="M19.754 12.656c0-.923-.147-1.246-.616-1.246-.484 0-.616.323-.616 1.246h1.232Z"/><path fill="currentColor" fill-rule="evenodd" d="M18.834 11.468a.616.616 0 0 1 .304-.066.59.59 0 0 1 .297.066.47.47 0 0 1 .193.215c.096.198.133.511.133.973h-.008v.007h-1.238v-.007c0-.462.032-.775.127-.973a.457.457 0 0 1 .192-.215Zm.912 1.18c0-.457-.037-.765-.131-.958a.456.456 0 0 0-.187-.21.584.584 0 0 0-.29-.063c-.12 0-.218.02-.297.064a.446.446 0 0 0-.186.209c-.092.193-.125.5-.126.959h1.217Z" clip-rule="evenodd"/><path fill="currentColor" fill-rule="evenodd" d="m18.711 12.559-.042.159a.182.182 0 0 1-.033.126l-.046.17a.163.163 0 0 1-.021.083l-.036.132v.001l.001.004a.17.17 0 0 1 .001.06.152.152 0 0 1-.037.07l-.001.002-.026.098.002.024v.009a.176.176 0 0 1-.003.065.135.135 0 0 1-.042.064l-.038.141a.212.212 0 0 1-.001.056.126.126 0 0 1-.03.06l-.042.159a.178.178 0 0 1-.001.047.122.122 0 0 1-.025.053l-.046.173a.163.163 0 0 1-.027.103l-.047.176c.002.043.001.089-.034.128l-.05.186c.003.037.002.076-.029.113l-.001.002-.031.118c.001.027.001.054-.022.08l-.05.191-.01-.009a.062.062 0 0 1-.015-.036.138.138 0 0 1 .003-.048.215.215 0 0 1 .056-.102l.003-.003.02-.074v-.01a.15.15 0 0 1 .033-.115l.029-.11-.001-.013-.001-.011a.196.196 0 0 1 .05-.163.03.03 0 0 0 .002-.004l.033-.122-.001-.016c-.004-.051-.008-.105.038-.152a.172.172 0 0 0 .011-.013l.026-.098-.002-.028c-.002-.023-.004-.046 0-.07a.13.13 0 0 1 .039-.07.16.16 0 0 0 .01-.011l.026-.095-.001-.014a.245.245 0 0 1 0-.067.157.157 0 0 1 .038-.076.112.112 0 0 0 .006-.007l.03-.11-.001-.01a.258.258 0 0 1 0-.068.13.13 0 0 1 .039-.07h.001l.041-.156a.158.158 0 0 1 .027-.102l.035-.132a.146.146 0 0 1 .026-.122.2.2 0 0 0 .01-.015l.022-.078-.001-.029v-.005a.217.217 0 0 1 .004-.064.175.175 0 0 1 .04-.073c0-.002.002-.003.003-.005l.032-.12v-.014a.201.201 0 0 1 0-.06.129.129 0 0 1 .038-.065l.02-.02Zm-.045.114.015-.059a.098.098 0 0 0-.015.058Zm-.054.202a.144.144 0 0 0-.023.088l.023-.088Zm-.07.265a.118.118 0 0 0-.012.04v.005l.012-.045Zm-.02.129-.014.057a.113.113 0 0 0 .015-.057Zm-.062.237-.024.09a.109.109 0 0 0 .02-.038.148.148 0 0 0 .004-.052Zm-.054.145a.108.108 0 0 0-.016.04.158.158 0 0 0-.003.03l.02-.07Zm-.069.26a.133.133 0 0 0-.023.086l.023-.086Zm-.067.254a.112.112 0 0 0-.027.054.203.203 0 0 0-.001.05l.027-.104Zm-.102.383c-.002-.037.002-.072.027-.103l-.027.103Zm-.054.202a.166.166 0 0 0-.03.113l.03-.113Zm-.131.496a.199.199 0 0 0-.037.076.126.126 0 0 0-.003.043l.004.015.036-.134Zm1.58-2.687.019.019a.115.115 0 0 1 .036.066c.003.019 0 .038-.002.056v.001l.036.137.004.004c.022.027.034.05.04.073a.22.22 0 0 1 .003.07v.028l.02.078.01.016c.02.026.027.05.03.07a.172.172 0 0 1-.004.048l.045.17a.16.16 0 0 1 .017.063l.047.179a.128.128 0 0 1 .028.051.192.192 0 0 1 .004.067l.038.144c.017.02.026.04.032.059a.215.215 0 0 1 .005.072v.006l.026.099a.138.138 0 0 0 .01.011.118.118 0 0 1 .036.07.249.249 0 0 1-.002.065v.005l-.002.01.032.119a.22.22 0 0 0 .01.01c.046.046.042.1.038.151v.017l.032.122a.179.179 0 0 1 .047.09.254.254 0 0 1 0 .077v.006l-.001.002.033.125a.119.119 0 0 1 .03.055.175.175 0 0 1 .004.055v.015l.02.075a.215.215 0 0 1 .06.105.138.138 0 0 1 .001.048.061.061 0 0 1-.015.036l-.01.009-.05-.19c-.022-.026-.023-.054-.022-.082l-.03-.118h-.001a.119.119 0 0 1-.037-.07.25.25 0 0 1 .002-.061l-.045-.169c-.035-.04-.036-.085-.034-.128l-.045-.172a.142.142 0 0 1-.032-.065.198.198 0 0 1-.002-.06l-.04-.155a.125.125 0 0 1-.026-.053.21.21 0 0 1-.002-.051l-.035-.132a.219.219 0 0 0-.012-.013c-.037-.043-.032-.087-.029-.128v-.008l-.029-.113a.178.178 0 0 0-.015-.014v-.001c-.038-.045-.036-.086-.034-.126a2.29 2.29 0 0 1 0-.042l-.015-.06a.184.184 0 0 0-.025-.036.143.143 0 0 1-.03-.072.2.2 0 0 1 .006-.059l.002-.008-.034-.13a.165.165 0 0 1-.022-.081l-.045-.17a.172.172 0 0 1-.038-.075.193.193 0 0 1 0-.067v-.001l-.038-.143Zm.042.1-.001-.013a.085.085 0 0 0-.011-.03l.012.044Zm.007.086a.127.127 0 0 0 .015.056l-.015-.056Zm.05.13.024.088a.17.17 0 0 0-.005-.044.144.144 0 0 0-.02-.044Zm.07.265.012.043v-.004a.112.112 0 0 0-.012-.04Zm.017.118a.14.14 0 0 0-.002.034.129.129 0 0 0 .028.066l-.026-.1Zm.095.358c-.028-.035-.03-.068-.028-.103l.027.103Zm.068.257a.118.118 0 0 1-.02-.073l.02.073Zm.035.075.008.03a.159.159 0 0 0-.008-.03Zm.058.217.024.092a.165.165 0 0 0 0-.038.1.1 0 0 0-.024-.053Zm.101.383-.027-.103c.025.031.029.066.027.103Zm.054.203.026.098c0-.014 0-.027-.002-.041a.152.152 0 0 0-.024-.057Zm.034.184v.014a.1.1 0 0 0 .014.038l-.014-.052Zm.048.124.006.024a.122.122 0 0 0-.006-.024Zm.05.187.035.134a.064.064 0 0 0 .004-.015.124.124 0 0 0-.003-.043.198.198 0 0 0-.036-.076Zm-1.408-2.66-.022.16a.16.16 0 0 1 .012.05.11.11 0 0 1-.024.07.203.203 0 0 0-.005.006l-.013.098a.197.197 0 0 1 .009.052.164.164 0 0 1-.02.077.21.21 0 0 0-.01.025l-.008.053a.194.194 0 0 0 .009.038v.002c.005.015.01.032.008.05a.136.136 0 0 1-.029.068.14.14 0 0 0-.012.02l-.01.078a.491.491 0 0 0 .006.038l.001.005a.253.253 0 0 1 .006.074.14.14 0 0 1-.035.079.183.183 0 0 0-.006.007l-.015.11.002.008.001.004c.006.018.013.038.013.06a.117.117 0 0 1-.024.074.191.191 0 0 0-.017.033l-.009.066a.266.266 0 0 0 .007.036l.002.009c.008.034.017.069-.013.106a.093.093 0 0 0-.023.06c-.001.017.003.035.007.055l.001.005a.206.206 0 0 1 .007.068.138.138 0 0 1-.035.075.15.15 0 0 0-.012.019l-.01.076a.403.403 0 0 0 .008.037v.001c.006.02.011.042.01.063a.107.107 0 0 1-.026.068c-.027.041-.02.086-.013.132v.002c.007.045.015.091-.016.13a.084.084 0 0 0-.018.056c0 .016.003.034.006.053l.002.014c.008.048.012.102-.034.156a.19.19 0 0 0-.02.027l-.011.082.001.005.004.014c.009.027.018.057-.003.09a.973.973 0 0 0-.023.04l-.021.16-.01-.006a.049.049 0 0 1-.021-.037.129.129 0 0 1 .007-.05.427.427 0 0 1 .031-.071l.02-.144a.117.117 0 0 1-.003-.049.124.124 0 0 1 .015-.039l.1-.734a.162.162 0 0 1-.002-.027c0-.017.004-.035.013-.053l.059-.43a.172.172 0 0 1 .009-.069l.024-.174a.156.156 0 0 1-.008-.053.115.115 0 0 1 .024-.064l.027-.197a.149.149 0 0 1 .01-.082l.025-.174a.134.134 0 0 1 .008-.057l.02-.15a.14.14 0 0 1-.008-.052.104.104 0 0 1 .022-.052l.016-.118v-.003a.143.143 0 0 1-.013-.06.143.143 0 0 1 .033-.077l.017-.023Zm-.032.128.01-.07a.094.094 0 0 0-.01.07Zm.006.066-.008.058a.083.083 0 0 0 .008-.058Zm-.032.233-.008.056a.136.136 0 0 0 .008-.056Zm-.028.206-.014.1a.114.114 0 0 0 .021-.052.117.117 0 0 0-.007-.046v-.002Zm-.036.262-.017.127a.12.12 0 0 0 .023-.06.233.233 0 0 0-.006-.067Zm-.041.192a.09.09 0 0 0-.004.021v.007l.004-.028Zm0 .107-.014.102a.102.102 0 0 0 .02-.064.152.152 0 0 0-.006-.038Zm-.035.257-.014.101a.092.092 0 0 1 .005-.006c.025-.03.018-.058.01-.094v-.002Zm-.03.216-.018.137a.12.12 0 0 0 .027-.062.195.195 0 0 0-.008-.074Zm-.039.288-.017.124a.13.13 0 0 1 .003-.004.092.092 0 0 0 .024-.06.215.215 0 0 0-.01-.06Zm-.033.241-.022.162a.092.092 0 0 1 .012-.02c.027-.034.02-.074.013-.12 0-.008-.002-.014-.003-.022Zm-.03.221-.028.205a.194.194 0 0 1 .005-.005c.041-.05.038-.098.03-.145l-.001-.014a.276.276 0 0 1-.006-.04Zm-.048.354-.01.075.005-.009c.014-.024.011-.044.005-.066Zm-.036.155a.268.268 0 0 0-.011.03.114.114 0 0 0-.007.043.04.04 0 0 0 .005.017l.013-.09Zm.949-2.825a.136.136 0 0 0-.024-.07l.012-.009a.15.15 0 0 1 .026.078.175.175 0 0 1-.01.059.153.153 0 0 0-.01.05c0 .018.006.037.023.062a.112.112 0 0 1 .029.061.142.142 0 0 1-.008.052v.001a.19.19 0 0 0-.01.052.16.16 0 0 0 .019.07c.015.026.02.049.02.069a.165.165 0 0 1-.01.05v.003a.134.134 0 0 0-.007.05.125.125 0 0 0 .026.061c.037.053.027.101.019.147l-.001.006a.238.238 0 0 0-.007.07.129.129 0 0 0 .032.07.123.123 0 0 1 .034.075.18.18 0 0 1-.013.068.207.207 0 0 0-.013.056c0 .02.005.041.022.066a.174.174 0 0 1 .021.147l-.001.007c-.009.036-.016.063.01.094a.112.112 0 0 1 .026.069c0 .021-.005.042-.01.063v.001a.235.235 0 0 0-.011.064c0 .02.006.043.024.067a.138.138 0 0 1 .035.076.21.21 0 0 1-.006.068l-.002.005a.222.222 0 0 0-.007.056c0 .019.006.038.023.06.032.046.024.097.017.142-.008.047-.014.087.013.121.016.02.02.042.02.065a.354.354 0 0 1-.005.055l-.003.014c-.007.047-.01.096.032.145a.154.154 0 0 1 .037.07c.004.022 0 .04-.005.057a.385.385 0 0 1-.004.015c-.008.027-.015.05.002.078a.572.572 0 0 1 .055.114.127.127 0 0 1 .008.05.048.048 0 0 1-.022.037l-.008-.012a.034.034 0 0 0 .015-.027.113.113 0 0 0-.007-.044.563.563 0 0 0-.054-.11c-.02-.034-.011-.064-.003-.091l.004-.014a.113.113 0 0 0 .004-.05.135.135 0 0 0-.033-.064c-.047-.054-.043-.108-.035-.156l.002-.014a.333.333 0 0 0 .006-.053.084.084 0 0 0-.018-.056c-.03-.039-.023-.085-.016-.13v-.002c.008-.046.014-.09-.013-.132a.109.109 0 0 1-.027-.068c0-.02.004-.04.008-.059l.001-.005a.192.192 0 0 0 .006-.063.124.124 0 0 0-.032-.068.132.132 0 0 1-.027-.077c0-.024.006-.046.011-.067v-.001a.215.215 0 0 0 .01-.06.093.093 0 0 0-.023-.06c-.03-.036-.021-.07-.013-.105l.002-.009a.2.2 0 0 0 .007-.06.16.16 0 0 0-.026-.075.118.118 0 0 1-.024-.074.22.22 0 0 1 .014-.064.164.164 0 0 0 .01-.06.107.107 0 0 0-.029-.065.14.14 0 0 1-.035-.079.25.25 0 0 1 .006-.074l.001-.005c.009-.046.017-.09-.016-.136a.14.14 0 0 1-.029-.07.15.15 0 0 1 .008-.054v-.003a.176.176 0 0 0 .01-.046.117.117 0 0 0-.019-.062.166.166 0 0 1-.02-.078c0-.02.005-.038.01-.054v-.002a.124.124 0 0 0 .007-.046.097.097 0 0 0-.025-.054.123.123 0 0 1-.027-.07c0-.02.005-.037.01-.054v-.002a.163.163 0 0 0 .01-.053Zm-.29.24a.52.52 0 0 1 .001-.214l.014.002v.212a2.312 2.312 0 0 0 .006.032.412.412 0 0 1-.006.226v.182a.185.185 0 0 1 0 .126v.129l.004.02.002.01a.295.295 0 0 1-.006.164v.152l.003.014.003.01a.339.339 0 0 1-.006.205v.203a.3.3 0 0 1 0 .163v.154l.013.05.004.015c.016.064.028.125-.017.193v.156a.2.2 0 0 1 .019.057.16.16 0 0 1-.019.094v.196a.276.276 0 0 1 0 .156l-.014-.002v-.153l-.004-.014-.002-.007a.262.262 0 0 1 .006-.179v-.145l-.004-.008-.001-.002a.187.187 0 0 1-.022-.068.137.137 0 0 1 .027-.085v-.253a.341.341 0 0 1 0-.157v-.16a.666.666 0 0 0-.004-.014l-.002-.006a.282.282 0 0 1 .006-.187v-.224a.283.283 0 0 1 0-.157v-.19a.313.313 0 0 1 0-.132v-.122l-.003-.01a.282.282 0 0 1-.016-.082.24.24 0 0 1 .019-.094v-.255Zm.015.204v-.109a.377.377 0 0 1 0 .109Zm-.014.102a.206.206 0 0 0 0 .079v-.079Zm.014.907v-.097a.302.302 0 0 1 0 .097Zm-.014.197a.244.244 0 0 1 0-.087v.087Zm.014.44v.168c.026-.054.017-.103.003-.16l-.003-.007ZM19.13 15a.108.108 0 0 0 0 .1V15Zm.014.171v.07a.128.128 0 0 0 0-.07Zm-.014.243a.227.227 0 0 1 0-.084v.084Z" clip-rule="evenodd"/><path fill="currentColor" d="M18.523 12.656c0-.923.146-1.246.615-1.246-.22 0-.352.176-.396.293-.044.118-.014.103.03.059s.029.059 0 .103c-.044.058-.088.205-.03.146.059-.03.103.015.03.103-.074.088-.103.293-.044.22.058-.074.073.044.029.102-.03.059-.03.103 0 .088.044-.029.03.088 0 .147h-.235v-.015Zm1.128-.044c0-.733-.088-.953-.264-1.026-.102-.044-.102-.03-.058.044.044.073.044.147 0 .088s-.059-.073-.088-.044l.117.293c.044.088 0 .147-.059.044-.058-.102-.058-.014 0 .074.074.102.059.425.059.557l.293-.03Z"/><path fill="currentColor" fill-rule="evenodd" d="M18.66 11.69c-.094.194-.13.504-.13.966v.007h.222a.3.3 0 0 0 .024-.12.036.036 0 0 0-.003-.013c-.002-.003-.003-.003-.004-.003 0 0-.004 0-.008.003h-.001c-.009.005-.018.006-.025 0-.006-.005-.008-.014-.008-.023a.18.18 0 0 1 .023-.074v-.001a.125.125 0 0 0 .022-.049.12.12 0 0 0 .001-.046.039.039 0 0 0-.005-.015c-.002-.003-.005-.004-.007-.005-.002 0-.005 0-.01.003a.078.078 0 0 0-.018.018.074.074 0 0 1-.011.012.03.03 0 0 1-.01.006.015.015 0 0 1-.013-.002.019.019 0 0 1-.007-.009.067.067 0 0 1-.003-.026.407.407 0 0 1 .077-.21.176.176 0 0 0 .033-.055c.005-.015.004-.026 0-.033-.003-.006-.01-.01-.018-.012a.063.063 0 0 0-.035.008.058.058 0 0 1-.02.014.016.016 0 0 1-.01 0 .014.014 0 0 1-.007-.007.036.036 0 0 1-.003-.019l.005-.025a.385.385 0 0 1 .054-.12.191.191 0 0 0 .026-.08v-.016c0-.004-.002-.005-.002-.006h-.002a.035.035 0 0 0-.01.009.242.242 0 0 1-.031.026.044.044 0 0 1-.013.007.015.015 0 0 1-.014-.002.016.016 0 0 1-.006-.013c0-.005 0-.011.002-.019a.48.48 0 0 1 .279-.337.479.479 0 0 0-.147.052.456.456 0 0 0-.187.209Zm.478-.288a.598.598 0 0 0-.298.066.47.47 0 0 0-.193.215c-.096.198-.132.511-.132.973v.022h.246l.002-.004a.312.312 0 0 0 .028-.133.05.05 0 0 0-.005-.018.02.02 0 0 0-.015-.01.027.027 0 0 0-.018.005c-.006.002-.008.001-.008 0-.001 0-.003-.003-.003-.01a.17.17 0 0 1 .02-.068.14.14 0 0 0 .024-.054.136.136 0 0 0 .002-.052.054.054 0 0 0-.008-.02.025.025 0 0 0-.016-.011.03.03 0 0 0-.02.005.091.091 0 0 0-.023.02.071.071 0 0 1-.009.01.015.015 0 0 1-.005.004l-.001-.003a.055.055 0 0 1-.003-.02c0-.01.002-.02.004-.034a.393.393 0 0 1 .07-.167.19.19 0 0 0 .036-.06.063.063 0 0 0 0-.043.037.037 0 0 0-.03-.02.078.078 0 0 0-.044.01h-.002a.05.05 0 0 1-.015.012.029.029 0 0 1 0-.01c0-.007 0-.015.003-.024a.373.373 0 0 1 .052-.115.207.207 0 0 0 .029-.088v-.018a.026.026 0 0 0-.007-.014.015.015 0 0 0-.016-.003.048.048 0 0 0-.017.011.228.228 0 0 1-.028.025.033.033 0 0 1-.01.005v-.017a.426.426 0 0 1 .02-.063c.044-.116.174-.289.39-.289v-.015Zm-.41.385Zm.602-.23a.48.48 0 0 1 .06.022c.09.038.157.113.202.27.044.157.066.396.066.763h-.007v.007l-.3.03v-.067c0-.065.001-.148-.003-.23a1.173 1.173 0 0 0-.016-.155.287.287 0 0 0-.04-.109.332.332 0 0 1-.033-.064.146.146 0 0 1-.011-.048.03.03 0 0 1 0-.008c.001-.003.002-.006.005-.008a.011.011 0 0 1 .009-.003c.003 0 .005.002.008.003a.07.07 0 0 1 .015.016.295.295 0 0 1 .02.031c.015.025.028.04.038.046a.02.02 0 0 0 .012.005c.003 0 .005-.001.006-.003.005-.004.008-.014.007-.03a.152.152 0 0 0-.017-.055l-.12-.298.004-.004a.056.056 0 0 1 .023-.015.03.03 0 0 1 .024.003.097.097 0 0 1 .023.021.63.63 0 0 1 .042.051.018.018 0 0 0 .006.003v-.008a.205.205 0 0 0-.031-.09.37.37 0 0 1-.024-.045.054.054 0 0 1-.005-.015c0-.005 0-.01.004-.015a.02.02 0 0 1 .015-.005l.018.003Zm.313 1.048c0-.363-.022-.598-.065-.752-.044-.154-.109-.225-.194-.26a.476.476 0 0 0-.072-.025h-.004v.003c0 .003 0 .007.003.012l.023.043a.219.219 0 0 1 .035.097l-.003.015a.017.017 0 0 1-.005.006.013.013 0 0 1-.008.002.026.026 0 0 1-.015-.007.103.103 0 0 1-.016-.017.7.7 0 0 0-.027-.035.086.086 0 0 0-.02-.018.016.016 0 0 0-.013-.002.039.039 0 0 0-.013.008l.115.289a.168.168 0 0 1 .018.06c.002.018-.002.033-.01.041a.023.023 0 0 1-.017.007.037.037 0 0 1-.02-.006.15.15 0 0 1-.043-.052.27.27 0 0 0-.018-.029.062.062 0 0 0-.012-.012v.003c0 .009.003.024.01.042.008.019.019.04.033.062.02.027.032.068.041.114.01.048.014.102.017.157.004.083.003.167.002.232v.05l.278-.028Zm-.335-1.036Z" clip-rule="evenodd"/><path fill="#EF072D" d="M19.138 12.787c.19 0 .396-.03.542-.088.162-.059.176-.117.118-.19-.044-.06-.132-.03-.22.014-.288.08-.592.08-.88 0-.088-.03-.176-.073-.22-.015-.058.074-.058.132.118.191.146.059.352.088.542.088Z"/><path fill="currentColor" fill-rule="evenodd" d="M19.803 12.504c-.024-.032-.06-.04-.1-.034a.45.45 0 0 0-.128.047c-.287.08-.589.08-.875 0l-.037-.013c-.031-.011-.062-.023-.09-.028-.04-.008-.076-.004-.1.028-.03.037-.048.073-.031.109a.123.123 0 0 0 .049.049.46.46 0 0 0 .102.044c.147.06.354.089.545.089.19 0 .397-.03.545-.089a.483.483 0 0 0 .096-.045.135.135 0 0 0 .049-.048c.018-.035.005-.071-.025-.109Zm-.098-.019a.438.438 0 0 0-.124.045h-.001c-.29.081-.595.081-.884 0l-.04-.013a.61.61 0 0 0-.086-.026c-.038-.008-.067-.004-.086.022-.03.037-.041.067-.029.094.007.013.02.028.043.042a.476.476 0 0 0 .1.044c.145.058.35.087.54.087.19 0 .394-.03.54-.087a.476.476 0 0 0 .093-.044.124.124 0 0 0 .044-.043c.014-.027.005-.056-.024-.092-.02-.027-.05-.034-.086-.029Z" clip-rule="evenodd"/><path fill="#B95A1E" fill-rule="evenodd" d="m20.997 11.569.218.376c.093.158.168.194.234.147.067-.047.01-.176-.043-.237a14.92 14.92 0 0 0-.348-.349l-.06.063Z" clip-rule="evenodd"/><path fill="currentColor" fill-rule="evenodd" d="m21.063 11.5-.006.006.006-.006.012.013.034.033.107.106c.08.08.168.167.195.197a.36.36 0 0 1 .068.127c.013.047.012.096-.026.122a.104.104 0 0 1-.056.02.107.107 0 0 1-.06-.016.425.425 0 0 1-.129-.153l-.218-.376.007-.004-.006-.006.066-.068.006.005Zm-.057.07.215.37a.41.41 0 0 0 .124.149c.018.01.036.015.052.014a.09.09 0 0 0 .048-.018c.029-.02.032-.059.02-.104a.333.333 0 0 0-.065-.12 6.477 6.477 0 0 0-.194-.198l-.107-.105a9.935 9.935 0 0 0-.034-.034l-.008-.007-.05.053Z" clip-rule="evenodd"/><path fill="#B95A1E" fill-rule="evenodd" d="m20.968 11.584.087.431c.036.182.095.242.173.221.078-.02.066-.162.035-.238a17.861 17.861 0 0 0-.218-.452l-.077.038Z" clip-rule="evenodd"/><path fill="currentColor" fill-rule="evenodd" d="m21.052 11.542-.006.004.006-.004.008.017a11.793 11.793 0 0 1 .09.18c.05.103.105.216.12.255a.36.36 0 0 1 .024.144c-.002.048-.019.094-.063.105a.102.102 0 0 1-.06 0 .11.11 0 0 1-.05-.037.443.443 0 0 1-.073-.19l-.087-.43.007-.002-.003-.007.084-.041.003.006Zm-.075.046.085.425c.019.09.043.15.07.183a.095.095 0 0 0 .044.033.087.087 0 0 0 .051 0c.034-.01.05-.045.052-.092a.343.343 0 0 0-.023-.137 6.666 6.666 0 0 0-.12-.254l-.068-.137-.021-.043-.005-.01-.065.032Z" clip-rule="evenodd"/><path fill="#B95A1E" fill-rule="evenodd" d="M20.915 11.591v.44c0 .187.046.259.127.256.08-.004.095-.145.08-.227a15.563 15.563 0 0 0-.124-.489l-.083.02Z" clip-rule="evenodd"/><path fill="currentColor" fill-rule="evenodd" d="m21.005 11.57-.007.002.007-.002.005.017a17.5 17.5 0 0 1 .12.473.36.36 0 0 1-.005.145c-.012.047-.038.088-.083.09a.104.104 0 0 1-.058-.014.115.115 0 0 1-.043-.047.452.452 0 0 1-.034-.202v-.44h.008l-.002-.008.09-.021.002.007Zm-.082.028v.434c0 .093.011.156.032.195a.087.087 0 0 0 .086.052c.035-.001.057-.032.069-.078a.344.344 0 0 0 .004-.139 32.705 32.705 0 0 0-.107-.424l-.012-.047-.003-.01-.07.017Z" clip-rule="evenodd"/><path fill="#B95A1E" fill-rule="evenodd" d="M20.916 11.588c.23-.004.256-.087.256-.087s.052-.175.026-.218c-.026-.044-.282-.044-.282-.044v.348Z" clip-rule="evenodd"/><path fill="currentColor" fill-rule="evenodd" d="M20.915 11.231v.008-.008h.011a2.964 2.964 0 0 1 .12.006.753.753 0 0 1 .098.013.207.207 0 0 1 .036.011.05.05 0 0 1 .023.018.066.066 0 0 1 .008.024v.032a1.222 1.222 0 0 1-.03.16l-.002.005v.002l-.008-.002.008.003-.001.001s0 .002-.002.003a.07.07 0 0 1-.006.011.127.127 0 0 1-.037.031.435.435 0 0 1-.218.046h-.008v-.364h.008Zm.256.27.008.002-.008-.003Zm-.007-.003v-.002l.002-.005.005-.02a1.165 1.165 0 0 0 .025-.136v-.03a.05.05 0 0 0-.006-.018c-.002-.004-.007-.008-.016-.012a.187.187 0 0 0-.034-.01.74.74 0 0 0-.094-.013 1.79 1.79 0 0 0-.12-.005h-.003v.333a.413.413 0 0 0 .203-.044.113.113 0 0 0 .031-.027.057.057 0 0 0 .007-.01Z" clip-rule="evenodd"/><path fill="#B95A1E" fill-rule="evenodd" d="M20.915 11.415c.248 0 .29-.087.29-.087s.082-.175.04-.218c-.04-.044-.33-.044-.33-.044v.348Z" clip-rule="evenodd"/><path fill="currentColor" fill-rule="evenodd" d="M20.915 11.06v.007-.007h.046a1.455 1.455 0 0 1 .217.018.3.3 0 0 1 .044.011c.012.004.022.01.029.016.013.014.015.036.013.059a.365.365 0 0 1-.017.074.813.813 0 0 1-.033.086l-.002.006v.001h-.001v.001l-.001.001-.002.004a.166.166 0 0 1-.052.042.52.52 0 0 1-.241.044h-.008v-.363h.008Zm.284.266Zm-.002 0v-.003c.002 0 .002-.003.003-.005a.663.663 0 0 0 .049-.155c.002-.023-.001-.039-.01-.047a.06.06 0 0 0-.022-.012 1.04 1.04 0 0 0-.153-.023 2.215 2.215 0 0 0-.104-.005l-.033-.001h-.005v.333a.497.497 0 0 0 .227-.043.149.149 0 0 0 .046-.037l.002-.002Z" clip-rule="evenodd"/><path fill="#B95A1E" fill-rule="evenodd" d="M20.915 11.24c.207 0 .33-.087.33-.087s.083-.174.042-.218c-.041-.043-.372-.043-.372-.043v.348Z" clip-rule="evenodd"/><path fill="currentColor" fill-rule="evenodd" d="M20.915 10.883v.008-.008h.014a4.954 4.954 0 0 1 .157.005c.044.003.09.007.127.013a.364.364 0 0 1 .048.011.07.07 0 0 1 .031.017c.013.013.015.035.013.058a.362.362 0 0 1-.016.075.838.838 0 0 1-.033.085l-.003.006v.002l-.008-.003.005.006-.002.001a.686.686 0 0 1-.333.087v-.007h-.008v-.356h.008Zm.008.348a.67.67 0 0 0 .313-.082l.003-.002.003-.006a.587.587 0 0 0 .032-.084.343.343 0 0 0 .016-.071c.002-.023-.001-.039-.009-.047a.061.061 0 0 0-.024-.012 1.271 1.271 0 0 0-.172-.023 2.88 2.88 0 0 0-.156-.006h-.006v.333Zm.322-.08.005.007.002-.001v-.002l-.007-.003Z" clip-rule="evenodd"/><path fill="#B95A1E" fill-rule="evenodd" d="M21.054 9.634s.205-.218.564-.436c.358-.218.618-.385.666-.348 0 .043-.308.261-.564.435-.256.174-.564.436-.564.436l-.102-.087Z" clip-rule="evenodd"/><path fill="currentColor" fill-rule="evenodd" d="m21.745 9.13-.124.075a3.244 3.244 0 0 0-.553.425l-.004.004.092.078.009-.008a8.046 8.046 0 0 1 .55-.424c.128-.087.27-.185.378-.267.054-.04.1-.077.133-.106a.412.412 0 0 0 .047-.05l.002-.003a.042.042 0 0 0-.018 0 .198.198 0 0 0-.045.012 1.173 1.173 0 0 0-.142.07c-.087.049-.198.116-.325.194Zm-.59.592.006.005-.005.004-.107-.09.004-.007-.005-.005.002-.002a.575.575 0 0 1 .036-.035 3.263 3.263 0 0 1 .528-.4l.123-.075c.127-.078.238-.145.326-.194.058-.033.107-.057.144-.071a.213.213 0 0 1 .048-.014c.013-.001.025 0 .033.007l.003.002v.004a.03.03 0 0 1-.005.014.432.432 0 0 1-.05.054c-.033.029-.08.066-.134.106-.109.082-.25.18-.378.267a6.416 6.416 0 0 0-.55.424l-.01.008-.002.003h-.001l-.005-.005Z" clip-rule="evenodd"/><path fill="#B95A1E" fill-rule="evenodd" d="M21.08 9.807s.202-.127.59-.304c.383-.158.923-.131.923-.088-.051.044-.512.044-.82.175-.293.124-.591.304-.591.304l-.103-.087Z" clip-rule="evenodd"/><path fill="currentColor" fill-rule="evenodd" d="M21.674 9.508a6.91 6.91 0 0 0-.581.299l.09.077.008-.005a3.564 3.564 0 0 1 .173-.098c.111-.06.26-.137.406-.2a2.12 2.12 0 0 1 .508-.12l.101-.013a5.19 5.19 0 0 0 .175-.027.185.185 0 0 0 .028-.009.395.395 0 0 0-.08-.017 1.589 1.589 0 0 0-.226-.005c-.183.008-.412.04-.602.118Zm-.488.392.003-.002.01-.006a5.059 5.059 0 0 1 .172-.098c.111-.06.259-.136.405-.199a2.06 2.06 0 0 1 .504-.119 10.843 10.843 0 0 1 .208-.027.811.811 0 0 0 .094-.02.059.059 0 0 0 .016-.01l.003-.001v-.004c0-.007-.005-.011-.01-.014a.082.082 0 0 0-.02-.008.408.408 0 0 0-.067-.012 1.605 1.605 0 0 0-.229-.005c-.183.007-.415.04-.607.12a6.899 6.899 0 0 0-.59.303h-.02l.123.105.005-.003Z" clip-rule="evenodd"/><path fill="#B95A1E" fill-rule="evenodd" d="M21.083 10.106s.178-.086.591-.218c.41-.13.954-.043.954 0-.05.044-.493.017-.8.087-.318.069-.642.218-.642.218l-.103-.087Z" clip-rule="evenodd"/><path fill="currentColor" fill-rule="evenodd" d="M22.305 9.831c-.187-.01-.424 0-.628.065a7.175 7.175 0 0 0-.556.202l-.024.01.09.077.01-.005a4.41 4.41 0 0 1 .188-.076c.12-.046.282-.101.441-.135a3.054 3.054 0 0 1 .532-.056c.064-.003.121-.005.166-.01a.627.627 0 0 0 .094-.016.428.428 0 0 0-.082-.027 1.603 1.603 0 0 0-.231-.029Zm-1.116.37h.001l.003-.002.01-.005a2.632 2.632 0 0 1 .187-.076c.12-.046.281-.1.44-.135a3.04 3.04 0 0 1 .528-.054c.064-.003.122-.006.168-.01a.638.638 0 0 0 .091-.015.054.054 0 0 0 .016-.01l.003-.001v-.004c0-.007-.005-.011-.01-.015a.44.44 0 0 0-.088-.03 1.616 1.616 0 0 0-.232-.028 1.85 1.85 0 0 0-.634.066 7.147 7.147 0 0 0-.584.214l-.006.003h-.002v.001l.003.007-.003-.007-.01.005.115.098.004-.002Z" clip-rule="evenodd"/><path fill="#B95A1E" fill-rule="evenodd" d="M21.099 10.414s.205-.175.643-.218c.44-.043.8.218.8.262-.052.043-.462-.192-.77-.159-.325.034-.57.202-.57.202l-.103-.087Z" clip-rule="evenodd"/><path fill="currentColor" fill-rule="evenodd" d="M22.303 10.302a1.113 1.113 0 0 0-.56-.097 1.498 1.498 0 0 0-.484.124.937.937 0 0 0-.149.086l.091.077.007-.004a1.355 1.355 0 0 1 .153-.081 1.35 1.35 0 0 1 .41-.114c.156-.017.337.034.484.083a6.772 6.772 0 0 1 .19.064.406.406 0 0 0 .081.016.03.03 0 0 0 .006-.001l-.002-.003a.373.373 0 0 0-.057-.053.952.952 0 0 0-.17-.097Zm-1.098.206-.005.003-.123-.104h.018l.008-.006a.94.94 0 0 1 .15-.086c.106-.05.268-.104.488-.125a1.13 1.13 0 0 1 .741.197.377.377 0 0 1 .061.057c.003.004.005.01.005.014v.004l-.002.002a.033.033 0 0 1-.018.007h-.023a.423.423 0 0 1-.065-.017 1.605 1.605 0 0 1-.105-.035 6.72 6.72 0 0 0-.085-.029c-.147-.049-.325-.099-.477-.082a1.336 1.336 0 0 0-.565.198l-.002.002h-.001Z" clip-rule="evenodd"/><path fill="#B95A1E" fill-rule="evenodd" d="M20.915 11.022c.372-.003.372-.111.372-.111s.082-.175.041-.218c-.041-.044-.413-.019-.413-.019v.348Z" clip-rule="evenodd"/><path fill="currentColor" fill-rule="evenodd" d="M21.3 10.67a.07.07 0 0 1 .034.016c.012.014.015.036.012.059a.362.362 0 0 1-.016.074.813.813 0 0 1-.033.086l-.003.006v.005a.06.06 0 0 1-.006.014.116.116 0 0 1-.044.04c-.048.03-.142.057-.329.059h-.008v-.363h.007v.007-.008h.016a3.248 3.248 0 0 1 .317-.002.38.38 0 0 1 .053.008Zm-.378.01v.334c.18-.003.27-.03.314-.057a.1.1 0 0 0 .038-.034.036.036 0 0 0 .005-.01v-.007h.001v-.002l.003-.005a.355.355 0 0 0 .048-.155c.002-.023 0-.039-.009-.047-.003-.004-.011-.008-.025-.011a.376.376 0 0 0-.052-.008 1.48 1.48 0 0 0-.139-.004 3.424 3.424 0 0 0-.175.006h-.009Z" clip-rule="evenodd"/><path fill="#B95A1E" fill-rule="evenodd" d="M20.915 10.85c.372-.003.413-.087.413-.087s.083-.174.041-.217c-.04-.044-.454-.044-.454-.044v.348Z" clip-rule="evenodd"/><path fill="currentColor" fill-rule="evenodd" d="M20.915 10.493v.008-.008h.018a7.754 7.754 0 0 1 .194.006c.054.002.11.006.155.013a.476.476 0 0 1 .078.018.03.03 0 0 1 .015.01c.012.013.015.035.013.057a.363.363 0 0 1-.017.075.82.82 0 0 1-.033.086l-.002.005v.002h-.001l-.007-.003.007.003-.007-.003.007.003v.001l-.001.001-.003.004a.072.072 0 0 1-.01.01.204.204 0 0 1-.057.03 1.057 1.057 0 0 1-.349.046h-.008v-.364h.008Zm.406.266v-.002c.002-.001.002-.003.003-.006a.663.663 0 0 0 .048-.155c.002-.022 0-.038-.008-.046a.03.03 0 0 0-.01-.006.44.44 0 0 0-.074-.017c-.044-.006-.1-.01-.154-.013a4.365 4.365 0 0 0-.146-.005h-.057v.332c.18-.002.28-.023.335-.044a.188.188 0 0 0 .053-.028.057.057 0 0 0 .01-.01Z" clip-rule="evenodd"/><path fill="#B95A1E" fill-rule="evenodd" d="M20.915 10.632c.372-.004.455-.088.455-.088s.082-.174.04-.217c-.04-.044-.495-.044-.495-.044v.348Z" clip-rule="evenodd"/><path fill="currentColor" fill-rule="evenodd" d="M20.915 10.276v.008-.008h.019a4.165 4.165 0 0 1 .383.019.54.54 0 0 1 .084.018.045.045 0 0 1 .015.01c.013.013.015.035.013.058a.363.363 0 0 1-.016.074.82.82 0 0 1-.024.065l-.01.02-.002.007v.001l-.008-.003.006.006-.002.001-.003.003a.355.355 0 0 1-.086.04 1.28 1.28 0 0 1-.369.045h-.008v-.364h.008Zm.454.27.006.005v-.001l.001-.001-.007-.004Zm-.006-.005.003-.006a.347.347 0 0 0 .048-.155c.002-.023-.001-.039-.01-.047a.032.032 0 0 0-.009-.006.505.505 0 0 0-.08-.017 2.214 2.214 0 0 0-.168-.013 5.235 5.235 0 0 0-.16-.005h-.065v.333c.181-.003.292-.024.357-.045a.34.34 0 0 0 .081-.037l.003-.002Zm.001-.001Z" clip-rule="evenodd"/><path fill="#B95A1E" fill-rule="evenodd" d="M20.915 10.415c.372-.004.496-.087.496-.087s.04-.175 0-.218c-.042-.044-.496-.044-.496-.044v.348Z" clip-rule="evenodd"/><path fill="currentColor" fill-rule="evenodd" d="M20.915 10.058v.007-.007h.019a9.235 9.235 0 0 1 .213.005c.06.003.12.007.17.013a.54.54 0 0 1 .084.018.044.044 0 0 1 .015.01c.012.012.017.034.02.057a.844.844 0 0 1-.017.166h-.001v.001l-.008-.001.005.006-.002.001a1.538 1.538 0 0 1-.498.087h-.008v-.363h.008Zm.495.269.005.006.002-.002v-.003l-.007-.001Zm-.006-.005v-.005a1.066 1.066 0 0 0 .014-.084.384.384 0 0 0 .002-.071c-.002-.022-.007-.04-.015-.048a.03.03 0 0 0-.01-.006.55.55 0 0 0-.08-.017 2.277 2.277 0 0 0-.168-.013 5.614 5.614 0 0 0-.213-.005h-.012v.333a1.51 1.51 0 0 0 .378-.045.565.565 0 0 0 .1-.038l.004-.001Z" clip-rule="evenodd"/><path fill="#B95A1E" fill-rule="evenodd" d="M20.997 9.454s.33-.217.33-.392c0-.174-.145-.348-.186-.435.082 0 .269.261.269.435 0 .19-.31.48-.31.48l-.103-.088Z" clip-rule="evenodd"/><path fill="currentColor" fill-rule="evenodd" d="M21.13 8.62h.012c.012 0 .025.004.038.012a.24.24 0 0 1 .044.033c.03.027.06.066.09.11a.582.582 0 0 1 .104.287c0 .05-.02.105-.049.159-.03.054-.069.109-.107.157a1.81 1.81 0 0 1-.143.156l-.01.01-.003.002-.006-.005.006.006-.005.005-.116-.099.009-.005a.625.625 0 0 1 .014-.01 1.522 1.522 0 0 0 .15-.12.786.786 0 0 0 .112-.125.242.242 0 0 0 .05-.13.534.534 0 0 0-.076-.248 1.97 1.97 0 0 0-.063-.104.92.92 0 0 1-.046-.081l-.006-.01Zm-.12.835.09.076.008-.008a1.606 1.606 0 0 0 .248-.31.336.336 0 0 0 .047-.15.567.567 0 0 0-.102-.28.601.601 0 0 0-.088-.107.222.222 0 0 0-.04-.031.095.095 0 0 0-.018-.008c.01.019.024.04.04.066l.001.003c.02.03.04.065.061.102a.55.55 0 0 1 .079.254.256.256 0 0 1-.053.14.798.798 0 0 1-.115.127 1.435 1.435 0 0 1-.157.126Z" clip-rule="evenodd"/><path fill="#B95A1E" fill-rule="evenodd" d="M20.996 9.455s-.04-.13-.04-.392a.8.8 0 0 1 .247-.566c.017.067-.165.305-.165.566 0 .19.06.48.06.48l-.102-.088Z" clip-rule="evenodd"/><path fill="currentColor" fill-rule="evenodd" d="m21.208 8.481.003.013a.077.077 0 0 1-.002.037.352.352 0 0 1-.017.048 2.016 2.016 0 0 1-.058.13.909.909 0 0 0-.088.354c0 .094.015.214.03.31l.021.12.007.035.002.01v.002h.001l.005.022-.122-.104v-.003l-.002-.005-.005-.018a1.902 1.902 0 0 1-.035-.37c0-.21.09-.412.25-.571l.01-.01Zm-.12 1.04-.005-.026a4.026 4.026 0 0 1-.021-.12 2.161 2.161 0 0 1-.031-.312c0-.133.046-.259.09-.36a4.237 4.237 0 0 1 .057-.13.35.35 0 0 0 .019-.059.79.79 0 0 0-.234.548 1.897 1.897 0 0 0 .035.366.741.741 0 0 0 .005.018v.004l.085.072Z" clip-rule="evenodd"/><path fill="#B95A1E" fill-rule="evenodd" d="M20.915 10.196c.372-.003.496-.087.496-.087s0-.174-.042-.218c-.04-.043-.454-.043-.454-.043v.348Z" clip-rule="evenodd"/><path fill="currentColor" fill-rule="evenodd" d="M20.915 9.84v.008-.007h.005a2.4 2.4 0 0 1 .06 0l.147.005a1.9 1.9 0 0 1 .155.013.474.474 0 0 1 .078.018.056.056 0 0 1 .015.01.13.13 0 0 1 .025.055.516.516 0 0 1 .017.14l.001.02v.007h-.008l.005.007-.002.001a1.538 1.538 0 0 1-.498.087v-.007h-.008V9.84h.008Zm.008.35a1.51 1.51 0 0 0 .377-.045.555.555 0 0 0 .1-.038l.003-.002v-.003a1.43 1.43 0 0 0-.005-.084.497.497 0 0 0-.012-.072.118.118 0 0 0-.022-.049.031.031 0 0 0-.01-.006.458.458 0 0 0-.074-.017 4.585 4.585 0 0 0-.357-.018v.333Zm.487-.08.005.006.003-.002v-.004h-.008Z" clip-rule="evenodd"/><path fill="#B95A1E" fill-rule="evenodd" d="M20.915 9.975c.372-.003.455-.087.455-.087s0-.174-.042-.218c-.041-.043-.413-.043-.413-.043v.348Z" clip-rule="evenodd"/><path fill="currentColor" fill-rule="evenodd" d="M20.915 9.62v.008-.008h.004a2.904 2.904 0 0 1 .328.019.46.46 0 0 1 .053.01.09.09 0 0 1 .034.017.13.13 0 0 1 .025.056.516.516 0 0 1 .017.139l.001.02v.008h-.008l.006.005-.002.002-.003.003a.355.355 0 0 1-.086.04 1.284 1.284 0 0 1-.369.045h-.008V9.62h.008Zm.454.27.006.004.002-.002V9.89h-.008Zm-.007-.004v-.024a.925.925 0 0 0-.017-.136.118.118 0 0 0-.023-.05.064.064 0 0 0-.026-.012.402.402 0 0 0-.051-.01 1.68 1.68 0 0 0-.14-.013 3.72 3.72 0 0 0-.174-.005h-.009v.332a1.24 1.24 0 0 0 .357-.044.34.34 0 0 0 .083-.038Zm.002-.002Z" clip-rule="evenodd"/><path fill="#B95A1E" fill-rule="evenodd" d="M21.988 12.589c-.128-.3-.165-.828-.165-.915 0-.245.077-1.438.083-1.916.006-.478-.29-.74-.578-.74-.248 0-.413.174-.413.435h.123a.31.31 0 0 1 .083-.218.281.281 0 0 1 .206-.087c.248 0 .439.206.455.61.017.467-.05 1.679-.041 2.003.008.325.119.614.247.828Z" clip-rule="evenodd"/><path fill="#FDC301" fill-rule="evenodd" d="M21.328 9.037c.276 0 .564.251.559.72-.003.239-.024.656-.044 1.045l-.006.115c-.017.343-.033.646-.033.757a3.507 3.507 0 0 0 .094.697 1.649 1.649 0 0 1-.138-.61c-.004-.14.007-.446.019-.787l.005-.16c.014-.402.026-.823.018-1.057-.009-.205-.061-.361-.145-.468a.408.408 0 0 0-.33-.16.288.288 0 0 0-.22.093.318.318 0 0 0-.087.212h-.086a.423.423 0 0 1 .108-.284.382.382 0 0 1 .286-.113Zm.677 3.542.003.004v.005l-.03.007-.006.003a1.733 1.733 0 0 1-.25-.836 18.584 18.584 0 0 1 .024-.95c.013-.402.026-.82.017-1.054-.008-.199-.059-.347-.136-.445a.37.37 0 0 0-.3-.146.25.25 0 0 0-.192.081.28.28 0 0 0-.077.204v.02h-.162v-.02c0-.134.042-.248.118-.328a.42.42 0 0 1 .314-.126c.302 0 .603.274.597.76-.003.24-.023.658-.043 1.046l-.006.114c-.018.344-.034.646-.034.756 0 .042.01.195.035.375.025.178.066.382.128.53Z" clip-rule="evenodd"/><path fill="#B95A1E" fill-rule="evenodd" d="m20.834 11.569-.218.376c-.093.158-.168.194-.234.147-.067-.047-.01-.176.043-.237.054-.061.348-.349.348-.349l.06.063Z" clip-rule="evenodd"/><path fill="currentColor" fill-rule="evenodd" d="m20.767 11.5.006.006-.006-.006-.012.013-.034.033-.107.106c-.08.08-.168.167-.195.197a.347.347 0 0 0-.068.127c-.013.047-.012.096.026.122.018.013.036.02.056.02.02.002.04-.004.06-.016a.426.426 0 0 0 .129-.153l.218-.376-.006-.004.005-.006-.066-.068-.006.005Zm.057.07-.215.37a.409.409 0 0 1-.124.149.092.092 0 0 1-.052.014.09.09 0 0 1-.048-.018c-.029-.02-.032-.059-.02-.104a.333.333 0 0 1 .065-.12c.027-.031.114-.118.194-.198l.107-.105.034-.034.008-.007.051.053Z" clip-rule="evenodd"/><path fill="#B95A1E" fill-rule="evenodd" d="M20.915 9.43c.29 0 .415.251.414.246l-.083.082c-.045.044-.331.044-.327.044l-.004-.372Z" clip-rule="evenodd"/><path fill="currentColor" fill-rule="evenodd" d="m20.923 9.436.003.357a2.378 2.378 0 0 1 .036 0 2.237 2.237 0 0 0 .212-.018.302.302 0 0 0 .042-.01.067.067 0 0 0 .024-.013l.079-.078a.45.45 0 0 0-.396-.238Zm.407.227v-.001a.55.55 0 0 0-.094-.114.465.465 0 0 0-.321-.127v.008h-.008l.004.372h.002c0 .003.002.006.003.007h.005a1.133 1.133 0 0 0 .041 0 2.242 2.242 0 0 0 .215-.018.317.317 0 0 0 .044-.011.08.08 0 0 0 .03-.017l-.006-.005.006.005m.082-.08V9.68a.007.007 0 0 0 .003-.005v-.002l-.002-.015-.004.004" clip-rule="evenodd"/><path fill="#B95A1E" fill-rule="evenodd" d="m20.862 11.584-.086.431c-.037.182-.096.242-.174.221-.078-.02-.065-.162-.035-.238.032-.077.218-.452.218-.452l.077.038Z" clip-rule="evenodd"/><path fill="currentColor" fill-rule="evenodd" d="m20.778 11.542.007.004-.007-.004-.008.017-.022.043a26.352 26.352 0 0 0-.188.392.358.358 0 0 0-.024.144c.002.048.02.094.063.105.021.006.04.006.06 0a.111.111 0 0 0 .05-.037.443.443 0 0 0 .073-.19l.087-.43-.007-.002.003-.007-.084-.041-.003.006Zm.075.046-.085.425a.43.43 0 0 1-.07.183.096.096 0 0 1-.044.033.087.087 0 0 1-.051 0c-.034-.01-.05-.045-.052-.092a.343.343 0 0 1 .023-.137c.015-.038.07-.15.12-.254a25.89 25.89 0 0 1 .09-.18l.004-.01.065.032Z" clip-rule="evenodd"/><path fill="#B95A1E" fill-rule="evenodd" d="M20.915 11.591v.44c0 .187-.046.259-.127.256-.08-.004-.095-.145-.08-.227.015-.081.124-.489.124-.489l.083.02Z" clip-rule="evenodd"/><path fill="currentColor" fill-rule="evenodd" d="m20.825 11.57.007.002-.007-.002-.005.017a17.5 17.5 0 0 0-.12.473.36.36 0 0 0 .005.145c.012.047.038.088.083.09a.11.11 0 0 0 .058-.014.115.115 0 0 0 .043-.047.453.453 0 0 0 .034-.202v-.44h-.008l.002-.008-.09-.021-.002.007Zm.082.028v.434a.437.437 0 0 1-.032.195.1.1 0 0 1-.037.041.087.087 0 0 1-.049.011c-.035-.001-.057-.032-.069-.078a.344.344 0 0 1-.004-.139c.007-.04.038-.162.067-.274l.04-.15.012-.047.003-.01.07.017Z" clip-rule="evenodd"/><path fill="#B95A1E" fill-rule="evenodd" d="M20.914 11.588c-.23-.004-.256-.087-.256-.087s-.052-.175-.026-.218c.026-.044.282-.044.282-.044v.348Z" clip-rule="evenodd"/><path fill="currentColor" fill-rule="evenodd" d="M20.915 11.231v.008-.008h-.011a2.964 2.964 0 0 0-.12.006.752.752 0 0 0-.098.013.207.207 0 0 0-.036.011.05.05 0 0 0-.023.018.066.066 0 0 0-.008.024.556.556 0 0 0 .01.106 1.222 1.222 0 0 0 .02.086l.002.006v.001l.008-.002-.007.003v.001l.002.003a.07.07 0 0 0 .006.011c.007.009.018.02.037.031a.436.436 0 0 0 .218.046h.008v-.364h-.008Zm-.256.27-.007.002.007-.003Zm.007-.003v-.002l-.002-.005-.005-.02a1.165 1.165 0 0 1-.025-.136v-.03a.05.05 0 0 1 .006-.018c.002-.004.007-.008.016-.012a.184.184 0 0 1 .034-.01.737.737 0 0 1 .095-.013 1.779 1.779 0 0 1 .12-.005h.003v.333a.413.413 0 0 1-.204-.044.112.112 0 0 1-.031-.027.057.057 0 0 1-.007-.01Z" clip-rule="evenodd"/><path fill="#B95A1E" fill-rule="evenodd" d="M20.915 11.415c-.248 0-.289-.087-.289-.087s-.083-.175-.042-.218c.042-.044.331-.044.331-.044v.348Z" clip-rule="evenodd"/><path fill="currentColor" fill-rule="evenodd" d="M20.915 11.06v.007-.007h-.046a1.455 1.455 0 0 0-.217.018.3.3 0 0 0-.044.011.074.074 0 0 0-.029.016c-.013.014-.015.036-.013.059s.009.05.017.074a.81.81 0 0 0 .033.086l.002.006.001.001v.001l.001.001a.326.326 0 0 0 .01.014.2.2 0 0 0 .044.032.52.52 0 0 0 .241.044h.008v-.363h-.008Zm-.284.266Zm.002 0v-.003l-.003-.005a.977.977 0 0 1-.033-.084.356.356 0 0 1-.016-.072c-.002-.022.001-.038.01-.046a.061.061 0 0 1 .022-.012 1.042 1.042 0 0 1 .153-.023 1.43 1.43 0 0 1 .103-.005l.034-.001h.005v.333a.497.497 0 0 1-.227-.043.152.152 0 0 1-.039-.028.073.073 0 0 1-.007-.009l-.002-.002Z" clip-rule="evenodd"/><path fill="#B95A1E" fill-rule="evenodd" d="M20.915 11.24c-.206 0-.33-.087-.33-.087s-.083-.174-.042-.218c.041-.043.372-.043.372-.043v.348Z" clip-rule="evenodd"/><path fill="currentColor" fill-rule="evenodd" d="M20.915 10.883v.008-.008H20.9a5.116 5.116 0 0 0-.157.005c-.044.003-.09.007-.126.013a.363.363 0 0 0-.05.011.075.075 0 0 0-.03.017c-.013.013-.015.035-.013.058s.009.05.016.075a.763.763 0 0 0 .033.085l.003.006v.002l.008-.003-.005.006.002.001.004.003a.377.377 0 0 0 .084.04.685.685 0 0 0 .245.044v-.007h.008v-.356h-.008Zm-.008.348a.67.67 0 0 1-.313-.082l-.003-.002-.003-.006-.009-.02a.786.786 0 0 1-.023-.064.35.35 0 0 1-.016-.071c-.002-.023.001-.039.009-.047a.06.06 0 0 1 .025-.012 1.273 1.273 0 0 1 .172-.023 2.869 2.869 0 0 1 .155-.006h.006v.333Zm-.322-.08-.005.007-.001-.001-.001-.002.007-.003Z" clip-rule="evenodd"/><path fill="#B95A1E" fill-rule="evenodd" d="M20.777 9.634s-.204-.218-.564-.436c-.358-.218-.618-.385-.666-.348 0 .043.308.261.564.435.256.174.564.436.564.436l.102-.087Z" clip-rule="evenodd"/><path fill="currentColor" fill-rule="evenodd" d="m20.085 9.13.124.075a3.246 3.246 0 0 1 .553.425l.004.004-.092.078-.008-.008-.039-.032-.134-.109a6.457 6.457 0 0 0-.378-.283 10.74 10.74 0 0 1-.378-.267 2.14 2.14 0 0 1-.133-.106.4.4 0 0 1-.049-.053.042.042 0 0 1 .018 0 .198.198 0 0 1 .045.012c.036.014.084.038.142.07.087.049.198.116.325.194Zm.59.592-.006.005.005.004.108-.09-.005-.007.005-.005-.002-.002a.575.575 0 0 0-.036-.035 3.26 3.26 0 0 0-.527-.4 10.493 10.493 0 0 0-.45-.27 1.192 1.192 0 0 0-.144-.07.214.214 0 0 0-.048-.014c-.013-.001-.025 0-.033.007l-.003.002v.004c0 .004.002.01.005.014l.01.015.04.038c.033.03.08.067.134.107.109.082.25.18.378.267a6.416 6.416 0 0 1 .55.424l.01.008.003.003.005-.005Z" clip-rule="evenodd"/><path fill="#B95A1E" fill-rule="evenodd" d="M20.75 9.807s-.202-.127-.59-.304c-.383-.158-.923-.131-.923-.088.051.044.513.044.82.175.294.124.592.304.592.304l.102-.087Z" clip-rule="evenodd"/><path fill="currentColor" fill-rule="evenodd" d="M20.156 9.508a6.875 6.875 0 0 1 .581.299l-.09.077-.008-.005a3.564 3.564 0 0 0-.173-.098 4.81 4.81 0 0 0-.406-.2 2.073 2.073 0 0 0-.508-.12l-.101-.013a5.19 5.19 0 0 1-.175-.027.185.185 0 0 1-.028-.009.394.394 0 0 1 .08-.017 1.59 1.59 0 0 1 .226-.005c.183.008.412.04.602.118Zm.489.392h-.001l-.003-.002-.01-.006a5.059 5.059 0 0 0-.172-.098 4.788 4.788 0 0 0-.405-.199 2.061 2.061 0 0 0-.504-.119 10.843 10.843 0 0 0-.208-.027.804.804 0 0 1-.094-.02.059.059 0 0 1-.016-.01l-.003-.001v-.004c0-.007.005-.011.01-.014a.08.08 0 0 1 .02-.008.408.408 0 0 1 .067-.012 1.877 1.877 0 0 1 .836.115 6.926 6.926 0 0 1 .59.303h.02l-.123.105-.005-.003Z" clip-rule="evenodd"/><path fill="#B95A1E" fill-rule="evenodd" d="M20.75 10.106s-.178-.086-.591-.218c-.41-.13-.954-.043-.954 0 .05.044.493.017.8.087.318.069.642.218.642.218l.103-.087Z" clip-rule="evenodd"/><path fill="currentColor" fill-rule="evenodd" d="M19.53 9.831c.186-.01.423 0 .627.065a7.175 7.175 0 0 1 .58.213l-.09.076a3.153 3.153 0 0 0-.64-.216 3.055 3.055 0 0 0-.53-.056c-.065-.003-.122-.005-.167-.01a.627.627 0 0 1-.094-.016.428.428 0 0 1 .082-.027c.057-.012.138-.023.231-.029Zm1.115.37h-.001l-.003-.002-.01-.005a2.731 2.731 0 0 0-.187-.076 3.21 3.21 0 0 0-.44-.135 3.038 3.038 0 0 0-.528-.054 4.537 4.537 0 0 1-.168-.01.638.638 0 0 1-.091-.015.054.054 0 0 1-.016-.01l-.003-.001v-.004c0-.007.005-.011.01-.015a.441.441 0 0 1 .088-.03c.057-.011.138-.022.232-.028.188-.01.428 0 .634.066a7.155 7.155 0 0 1 .584.214l.006.003h.002v.001l-.003.007.003-.007.01.005-.115.098-.004-.002Z" clip-rule="evenodd"/><path fill="#B95A1E" fill-rule="evenodd" d="M20.728 10.414s-.205-.175-.643-.218c-.44-.043-.8.218-.8.262.052.043.462-.192.77-.159.325.034.57.202.57.202l.104-.087Z" clip-rule="evenodd"/><path fill="currentColor" fill-rule="evenodd" d="M19.523 10.302c.144-.065.342-.119.56-.097.219.021.379.075.484.124a.927.927 0 0 1 .15.086l-.092.077c-.002 0-.004-.002-.006-.004a1.042 1.042 0 0 0-.154-.081 1.35 1.35 0 0 0-.41-.114c-.156-.017-.336.034-.484.083a6.273 6.273 0 0 0-.19.064.408.408 0 0 1-.081.016l-.006-.001.002-.003a.366.366 0 0 1 .057-.053.949.949 0 0 1 .17-.097Zm1.098.206.005.003.123-.104h-.018a1.516 1.516 0 0 0-.645-.217 1.13 1.13 0 0 0-.742.197.382.382 0 0 0-.06.057.028.028 0 0 0-.006.014v.004l.003.002a.033.033 0 0 0 .017.007h.024a.42.42 0 0 0 .064-.017 7.269 7.269 0 0 1 .19-.064c.148-.049.325-.099.477-.082a1.336 1.336 0 0 1 .557.193l.009.005.002.002Z" clip-rule="evenodd"/><path fill="#B95A1E" fill-rule="evenodd" d="M20.915 11.022c-.372-.003-.372-.111-.372-.111s-.082-.175-.041-.218c.041-.044.413-.019.413-.019v.348Z" clip-rule="evenodd"/><path fill="currentColor" fill-rule="evenodd" d="M20.53 10.67a.07.07 0 0 0-.033.016c-.013.014-.015.036-.014.059a.37.37 0 0 0 .017.074.776.776 0 0 0 .024.065l.009.021.002.006.002.005a.06.06 0 0 0 .006.014.105.105 0 0 0 .043.04c.048.03.143.057.33.059h.007v-.363h-.007v.007-.008H20.9a3.248 3.248 0 0 0-.317-.002.378.378 0 0 0-.053.008Zm.377.01v.334c-.18-.003-.27-.03-.313-.057a.1.1 0 0 1-.038-.034.038.038 0 0 1-.004-.01v-.005l-.002-.002v-.002l-.003-.005-.009-.02a.786.786 0 0 1-.023-.064.348.348 0 0 1-.016-.072c-.002-.022 0-.038.009-.046.003-.004.012-.008.026-.011a.373.373 0 0 1 .05-.008c.041-.004.091-.005.14-.004a3.424 3.424 0 0 1 .175.006h.008Z" clip-rule="evenodd"/><path fill="#B95A1E" fill-rule="evenodd" d="M20.915 10.85c-.372-.003-.413-.087-.413-.087s-.082-.174-.041-.217c.041-.044.454-.044.454-.044v.348Z" clip-rule="evenodd"/><path fill="currentColor" fill-rule="evenodd" d="M20.915 10.493v.008-.008h-.018a7.754 7.754 0 0 0-.194.006c-.054.002-.11.006-.155.013a.476.476 0 0 0-.078.018.047.047 0 0 0-.015.01c-.012.013-.015.035-.013.057.002.024.009.05.017.075a.857.857 0 0 0 .033.086l.002.005.001.002.007-.003-.007.003.007-.003-.007.003v.001l.001.001.003.004a.072.072 0 0 0 .01.01c.01.009.029.02.058.03.057.022.162.044.348.046h.008v-.364h-.008Zm-.406.266v-.002a.663.663 0 0 1-.05-.16c-.003-.023 0-.04.007-.047a.03.03 0 0 1 .01-.006.44.44 0 0 1 .074-.017c.044-.006.1-.01.154-.013.054-.003.107-.004.146-.005h.057v.332a1.028 1.028 0 0 1-.335-.044.188.188 0 0 1-.053-.028.057.057 0 0 1-.01-.01Z" clip-rule="evenodd"/><path fill="#B95A1E" fill-rule="evenodd" d="M20.915 10.632c-.372-.004-.454-.088-.454-.088s-.083-.174-.041-.217c.04-.044.495-.044.495-.044v.348Z" clip-rule="evenodd"/><path fill="currentColor" fill-rule="evenodd" d="M20.915 10.276v.008-.008h-.02a4.2 4.2 0 0 0-.381.019.54.54 0 0 0-.085.018.044.044 0 0 0-.015.01c-.013.013-.015.035-.013.058s.009.05.016.074a.82.82 0 0 0 .033.086l.003.006v.001l.008-.003-.006.006.002.001.003.003a.355.355 0 0 0 .086.04c.068.022.183.043.37.045h.007v-.364h-.008Zm-.454.27-.006.005v-.001l-.001-.001.007-.004Zm.006-.005-.003-.006-.008-.02a.779.779 0 0 1-.024-.065.347.347 0 0 1-.016-.07c-.002-.023.001-.039.01-.047a.032.032 0 0 1 .009-.006.507.507 0 0 1 .08-.017c.049-.006.109-.01.168-.013a5.25 5.25 0 0 1 .16-.005h.064v.333a1.251 1.251 0 0 1-.356-.045.336.336 0 0 1-.084-.04Zm0-.001Z" clip-rule="evenodd"/><path fill="#B95A1E" fill-rule="evenodd" d="M20.915 10.415c-.372-.004-.495-.087-.495-.087s-.042-.175 0-.218c.04-.044.495-.044.495-.044v.348Z" clip-rule="evenodd"/><path fill="currentColor" fill-rule="evenodd" d="M20.915 10.058v.007-.007h-.02a9.454 9.454 0 0 0-.212.005c-.06.003-.12.007-.17.013a.54.54 0 0 0-.084.018.044.044 0 0 0-.015.01c-.012.012-.018.034-.02.057a.793.793 0 0 0 .012.14l.004.02.002.005v.002l.008-.001-.005.006.002.001.005.003.02.01a.587.587 0 0 0 .084.03c.078.02.203.042.39.044h.007v-.363h-.008Zm-.495.269-.005.006-.002-.002v-.003l.007-.001Zm.006-.005v-.005l-.005-.02a.78.78 0 0 1-.011-.135c.002-.022.007-.04.015-.048a.03.03 0 0 1 .01-.006.557.557 0 0 1 .08-.017c.049-.006.109-.01.168-.013a5.63 5.63 0 0 1 .213-.005h.011v.333a1.51 1.51 0 0 1-.377-.045.567.567 0 0 1-.1-.038l-.004-.001Z" clip-rule="evenodd"/><path fill="#B95A1E" fill-rule="evenodd" d="M20.834 9.454s-.33-.217-.33-.392c0-.174.145-.348.186-.435-.082 0-.269.261-.269.435 0 .19.31.48.31.48l.103-.088Z" clip-rule="evenodd"/><path fill="currentColor" fill-rule="evenodd" d="M20.702 8.62h-.012a.08.08 0 0 0-.04.012.243.243 0 0 0-.042.033.617.617 0 0 0-.09.11.58.58 0 0 0-.105.287c0 .05.02.105.05.159a.967.967 0 0 0 .107.157 1.811 1.811 0 0 0 .142.156l.01.01a.28.28 0 0 1 .003.002l.006-.005-.006.006.005.005.116-.099-.009-.005a.625.625 0 0 0-.014-.01 1.553 1.553 0 0 1-.15-.12.785.785 0 0 1-.112-.125.242.242 0 0 1-.05-.13.54.54 0 0 1 .076-.248c.02-.036.042-.07.06-.101l.003-.003a.9.9 0 0 0 .047-.081l.005-.01Zm.118.835-.09.076-.007-.008a1.87 1.87 0 0 1-.142-.155 1.041 1.041 0 0 1-.105-.154.336.336 0 0 1-.048-.152c0-.085.046-.192.102-.279a.601.601 0 0 1 .088-.107.23.23 0 0 1 .04-.031.095.095 0 0 1 .018-.008 1.224 1.224 0 0 1-.041.069c-.02.03-.04.065-.06.102a.549.549 0 0 0-.08.254c0 .046.022.094.053.14a.81.81 0 0 0 .115.127 1.471 1.471 0 0 0 .157.126Z" clip-rule="evenodd"/><path fill="#B95A1E" fill-rule="evenodd" d="M20.834 9.455s.041-.13.041-.392a.8.8 0 0 0-.248-.566c-.017.067.165.305.165.566 0 .19-.06.48-.06.48l.102-.088Z" clip-rule="evenodd"/><path fill="currentColor" fill-rule="evenodd" d="m20.622 8.481-.003.013a.078.078 0 0 0 .002.037l.017.048c.008.02.018.043.03.067l.027.064c.044.1.089.223.089.353 0 .094-.015.214-.03.31a3.999 3.999 0 0 1-.028.155l-.002.01v.002h-.001l-.005.022.122-.104v-.003l.002-.005.005-.018a1.904 1.904 0 0 0 .035-.37c0-.21-.09-.412-.25-.571l-.01-.01Zm.12 1.04.005-.026a4.38 4.38 0 0 0 .021-.12c.016-.096.031-.217.031-.312a.923.923 0 0 0-.09-.36 4.237 4.237 0 0 0-.057-.13.35.35 0 0 1-.019-.059.79.79 0 0 1 .234.548 1.884 1.884 0 0 1-.035.366.496.496 0 0 1-.006.022l-.084.072Z" clip-rule="evenodd"/><path fill="#B95A1E" fill-rule="evenodd" d="M20.915 10.196c-.372-.003-.495-.087-.495-.087s0-.174.04-.218c.042-.043.455-.043.455-.043v.348Z" clip-rule="evenodd"/><path fill="currentColor" fill-rule="evenodd" d="M20.915 9.84v.008-.007h-.005a2.4 2.4 0 0 0-.06 0l-.147.005c-.054.003-.11.007-.155.013a.474.474 0 0 0-.078.018.046.046 0 0 0-.015.01.131.131 0 0 0-.025.055.53.53 0 0 0-.017.14l-.001.02v.007h.008l-.005.007.002.001.005.003.02.01a.585.585 0 0 0 .084.03c.078.02.203.043.39.044v-.007h.007V9.84h-.008Zm-.008.35a1.51 1.51 0 0 1-.377-.045.555.555 0 0 1-.103-.04v-.003a1.43 1.43 0 0 1 .005-.084.511.511 0 0 1 .012-.072.118.118 0 0 1 .022-.049.031.031 0 0 1 .01-.006.461.461 0 0 1 .074-.017 4.58 4.58 0 0 1 .357-.018v.333Zm-.487-.08-.005.006-.003-.002v-.004h.008Z" clip-rule="evenodd"/><path fill="#B95A1E" fill-rule="evenodd" d="M20.915 9.975c-.372-.003-.454-.087-.454-.087s0-.174.041-.218c.041-.043.413-.043.413-.043v.348Z" clip-rule="evenodd"/><path fill="currentColor" fill-rule="evenodd" d="M20.915 9.62v.008-.008h-.004a2.806 2.806 0 0 0-.187.006c-.05.002-.1.006-.141.013a.413.413 0 0 0-.053.01.077.077 0 0 0-.033.017.131.131 0 0 0-.026.056.53.53 0 0 0-.017.139v.02l-.001.006v.002h.008l-.006.005.002.002.003.003a.355.355 0 0 0 .086.04c.068.021.183.043.37.045h.007V9.62h-.008Zm-.454.27-.006.004-.002-.002V9.89h.008Zm.007-.004v-.024l.005-.065a.51.51 0 0 1 .013-.071.115.115 0 0 1 .022-.05.064.064 0 0 1 .026-.012.398.398 0 0 1 .051-.01c.04-.006.09-.01.14-.013a3.72 3.72 0 0 1 .174-.005h.008v.332a1.255 1.255 0 0 1-.356-.044.338.338 0 0 1-.081-.037l-.002-.001Zm-.002-.002Z" clip-rule="evenodd"/><path fill="#B95A1E" fill-rule="evenodd" d="M19.842 12.589c.128-.3.165-.828.165-.915 0-.245-.077-1.438-.083-1.916-.005-.478.29-.74.578-.74.248 0 .413.174.413.435h-.123a.313.313 0 0 0-.083-.218.28.28 0 0 0-.206-.087c-.248 0-.439.206-.455.61-.017.467.05 1.679.042 2.003-.009.325-.12.614-.248.828Z" clip-rule="evenodd"/><path fill="#FDC301" fill-rule="evenodd" d="M20.502 9.037c-.276 0-.564.251-.559.72a33.296 33.296 0 0 0 .05 1.16c.017.343.033.646.033.757a3.49 3.49 0 0 1-.094.697 1.65 1.65 0 0 0 .138-.61c.004-.14-.007-.446-.019-.787l-.005-.16a18.667 18.667 0 0 1-.017-1.057c.008-.205.06-.361.144-.468a.41.41 0 0 1 .33-.16.288.288 0 0 1 .22.093.32.32 0 0 1 .088.212h.085a.423.423 0 0 0-.108-.284.382.382 0 0 0-.286-.113Zm-.677 3.542-.003.004v.005l.03.007.006.003c.13-.215.242-.508.25-.836.004-.142-.006-.45-.018-.79l-.006-.16a18.698 18.698 0 0 1-.017-1.054c.008-.199.06-.347.136-.445a.37.37 0 0 1 .3-.146.25.25 0 0 1 .192.081.28.28 0 0 1 .077.204v.02h.163v-.02a.468.468 0 0 0-.12-.328.42.42 0 0 0-.313-.126c-.302 0-.603.274-.597.76.003.24.023.658.043 1.046l.006.114c.018.344.034.646.034.756 0 .042-.01.195-.035.375a2.277 2.277 0 0 1-.128.53Z" clip-rule="evenodd"/><path fill="#B95A1E" fill-rule="evenodd" d="M20.915 9.43c-.29 0-.414.251-.414.246l.083.082c.045.044.331.044.327.044l.004-.372Z" clip-rule="evenodd"/><path fill="currentColor" fill-rule="evenodd" d="m20.907 9.436-.003.357H20.9a2.064 2.064 0 0 1-.244-.018.3.3 0 0 1-.042-.01.065.065 0 0 1-.024-.013l-.079-.078a.45.45 0 0 1 .396-.238Zm-.407.227v-.001a.583.583 0 0 1 .094-.114.464.464 0 0 1 .321-.127v.008h.008l-.004.372h-.002a.011.011 0 0 1-.003.007h-.005a1.155 1.155 0 0 1-.041 0 2.245 2.245 0 0 1-.214-.018.312.312 0 0 1-.045-.011.08.08 0 0 1-.03-.017l.006-.005-.006.005m-.082-.08V9.68c-.003-.002-.003-.005-.003-.005v-.002l.002-.015.004.004" clip-rule="evenodd"/></g><defs><clipPath id="a"><path fill="#fff" d="M0 0h24v18H0z"/></clipPath></defs></svg>