<svg xmlns="http://www.w3.org/2000/svg" width="24" height="18" fill="none"><g clip-path="url(#a)"><path fill="#002395" d="M0 0h24v18H0V0Z"/><path fill="#fff" d="M0 0h10.98v7.38H0V0Z"/><path fill="#002395" d="M0 0h3.6v7.2H0V0Z"/><path fill="#ED2939" d="M7.2 0h3.6v7.2H7.2V0Z"/><path fill="#fff" d="m15.975 8.235.577.923h1.65v3.217l-1.237-1.935-1.665 2.655h.81l.855-1.53 1.755 3.15 1.755-3.15.855 1.53h.81l-1.665-2.655-1.238 1.935v-1.777h.743l.551-.878h-1.294v-.562h1.65l.578-.923h-5.49Zm1.935 3.938h-1.8v.63h1.8v-.63Zm3.42 0h-1.8v.63h1.8v-.63Zm-2.61 3.173.553 1.71-1.453-1.058h1.8l-1.454 1.058.554-1.71Zm-2.025-1.531.553 1.71-1.453-1.058h1.8l-1.454 1.057.554-1.71Zm4.05 0 .553 1.71-1.453-1.058h1.8l-1.454 1.057.554-1.71Z"/><path fill="#fff" d="m14.985 9.27.554 1.71-1.454-1.057h1.8l-1.453 1.057.553-1.71Zm7.47 0 .554 1.71-1.454-1.057h1.8l-1.453 1.057.553-1.71Z"/></g><defs><clipPath id="a"><path fill="#fff" d="M0 0h24v18H0z"/></clipPath></defs></svg>