<svg xmlns="http://www.w3.org/2000/svg" width="24" height="18" fill="none"><g fill-rule="evenodd" clip-path="url(#a)" clip-rule="evenodd"><path fill="#FFE300" d="M0 0h26.986v18H0V0Z"/><path fill="#118600" d="M0 7.316h26.986v3.617H0V7.316Zm0-7.31h26.986v3.618H0V.007Z"/><path fill="#D80000" d="M0 .01h10.775v10.92H0V.01Z"/><path fill="#fff" d="M4.725 4.514c0-.028.665-1.864.665-1.864l.597 1.836s2.018.06 2.018.028S6.413 5.72 6.413 5.72s.752 2.109.72 2.046C7.105 7.706 5.39 6.5 5.39 6.5S3.642 7.706 3.674 7.706c.028 0 .661-1.986.661-1.986L2.771 4.545l1.954-.031Z"/><path fill="#118600" d="M0 14.386h26.986V18H0v-3.614Z"/></g><defs><clipPath id="a"><path fill="#fff" d="M0 0h24v18H0z"/></clipPath></defs></svg>