<svg xmlns="http://www.w3.org/2000/svg" width="24" height="18" fill="none"><g clip-path="url(#a)"><path fill="#060" d="M0 0h24v18H0V0Z"/><path fill="#fff" d="M0 0h24v12.859H0V0Z"/><path fill="#C00" d="M0 0h24v5.141H0V0Z"/><path fill="#F8C300" d="M11.28 8.76a.322.322 0 0 1 .6.15v1.29h.24V8.915a.322.322 0 0 1 .6-.15.758.758 0 1 0-1.44 0"/><path fill="#fff" d="M11.452 8.427a.514.514 0 0 1 .548.244.514.514 0 0 1 .547-.244.55.55 0 0 0-1.095 0Z"/><path fill="#F8C300" d="M11.88 9.686a.975.975 0 0 1-1.642.622 1.012 1.012 0 0 1-1.538.45c.094.938 1.5.746 1.605-.165.439.776 1.41.551 1.695-.398l-.12-.51Z"/><path fill="#F8C300" d="M10.943 11.348c-.2.424-.59.495-.93.154 0 0 .135-.098.285-.124-.03-.116.026-.281.108-.367.11.071.19.179.23.304.205-.027.307.037.307.037v-.004Z"/><path fill="#F8C300" fill-rule="evenodd" d="M14.435 12.49a8.536 8.536 0 0 0-4.87 0l-.117-.396a8.947 8.947 0 0 1 5.105 0l-.118.396Z" clip-rule="evenodd"/><path fill="#F8C300" d="m12.388 6.707-1.016-.738h1.256l-1.016.738L12 5.513l.388 1.194Z"/></g><defs><clipPath id="a"><path fill="#fff" d="M0 0h24v18H0z"/></clipPath></defs></svg>