<svg xmlns="http://www.w3.org/2000/svg" width="24" height="18" fill="none"><g clip-path="url(#a)"><path fill="#00247D" d="M0 0h24v18H0V0Z"/><path fill="#FED100" d="M4.054 13.297c-.252-.004 2.355-1.388 4.533-3.165 2.858-2.329 9.012-6.053 10.823-6.66.187-.064-.386.322-.461.446-1.932 2.288-.39 6.6 2.025 8.771.727.555.69.585 2.036.638v.127l-18.956-.157Zm-.158.251s-.184.131-.184.229c0 .109.207.251.207.251l18.693.206.345-.228-.48-.297-18.58-.16Z"/><path fill="#fff" d="m4.005 4.091-.15.458.39-.281.386.28-.146-.457.386-.281h-.48l-.146-.457-.15.457h-.48l.39.281Zm2.929 2.153.322-.236h-.401l-.124-.38-.124.38H6.21l.322.236-.123.379.322-.237.326.237-.123-.38Zm-5.445.487-.15-.457-.147.457h-.48l.387.282-.147.457.387-.281.39.281-.15-.457.39-.282h-.48Zm2.928 4.587-.172-.533-.173.533H3.51l.454.326-.173.536.454-.33.454.33-.177-.536.454-.326h-.559Z"/></g><defs><clipPath id="a"><path fill="#fff" d="M0 0h24v18H0z"/></clipPath></defs></svg>