<svg xmlns="http://www.w3.org/2000/svg" width="24" height="18" fill="none"><g clip-path="url(#a)"><path fill="#28AE66" fill-rule="evenodd" d="M-1.5 0h27v18h-27V0Z" clip-rule="evenodd"/><path fill="#fff" fill-rule="evenodd" d="M7.756 4.834c.98.47 2.148 0 2.57-.654.436-.612.489-1.635-.26-2.574 1.16.964 1.42 2.057.84 2.957-.774 1.03-2.482.999-3.15.27Z" clip-rule="evenodd"/><path fill="#fff" fill-rule="evenodd" d="m9.496 2.44.197.003-.154.123.06.197-.166-.116-.158.116.053-.193-.158-.123.196-.004.067-.193.063.19Zm-.973 1.223h.197l-.155.127.06.193-.166-.116-.161.12.056-.197-.158-.12.197-.007.063-.193.067.193Zm.063-.963h.2l-.158.127.06.193-.162-.116-.162.12.057-.197-.159-.123.197-.004.064-.193.063.193Zm0-.967h.2l-.161.13.06.194-.162-.113-.162.116.056-.193-.158-.123.197-.004.063-.193.067.186Zm-1.08 1.224h.198l-.159.126.06.194-.162-.116-.161.12.056-.198-.158-.12.197-.006.063-.194.067.194Z" clip-rule="evenodd"/><path fill="#CA3745" fill-rule="evenodd" d="M.17 0h5.787v18H.17V0Z" clip-rule="evenodd"/><path fill="#FAAE29" fill-rule="evenodd" d="M.17 4.693v-.13l.239-.32-.046-.066.14-.19-.045-.067-.095.13-.049-.063.338-.45L.7 3.6l-.05.063.099.134.24-.324-.244-.312-.094.12.049.066-.05.063-.337-.45.05-.063.094.126.05-.063-.145-.193.046-.063-.24-.324v-.13l.338.45-.049.063.144.194-.095.13.095.126.148-.19.341.457-.341.443-.14-.193-.1.13.096.13-.14.19.045.067-.338.45-.003-.004Z" clip-rule="evenodd"/><path fill="#FAAE29" fill-rule="evenodd" d="m.17 3.087.05.126v.197h.143l.099.064-.099.066h-.14v.19l-.05.13v-.773H.17Zm0 4.693v-.13l.239-.32-.046-.067.14-.193-.045-.064-.095.13-.049-.066.338-.45.049.067-.05.063.099.13.24-.324-.244-.312-.094.12.049.066-.05.063-.337-.45.05-.067.094.127.05-.063-.145-.194.046-.063-.24-.323v-.127l.338.45-.049.063.144.194-.095.126.095.13.144-.193.341.457-.34.443-.141-.193-.099.13.095.126-.14.194.045.066-.337.45v.004Z" clip-rule="evenodd"/><path fill="#FAAE29" fill-rule="evenodd" d="m.17 6.17.05.13v.193h.143l.099.064-.099.063h-.14v.193l-.05.13V6.17H.17Zm0 4.693v-.126l.239-.324-.046-.063.14-.193-.045-.064-.095.127-.049-.063.338-.45.049.063-.05.067.099.13.24-.324-.244-.316-.094.123.049.063-.05.064-.337-.45.05-.064.094.13.05-.066-.145-.19.046-.067-.24-.32v-.13l.338.45-.049.067.144.19-.095.13.095.13.148-.194.337.457-.34.443L.605 9.9l-.099.127.095.13-.14.193.045.063-.337.45Z" clip-rule="evenodd"/><path fill="#FAAE29" fill-rule="evenodd" d="m.17 9.256.053.13v.194h.14l.099.063-.099.06h-.14v.193l-.05.13v-.773l-.003.003Zm0 4.501v-.13l.239-.32-.046-.063.14-.194-.045-.063-.095.127-.049-.064.338-.45.049.064-.05.063.099.13.24-.32-.244-.317-.094.124.049.063-.05.063-.337-.45.05-.063.094.13.05-.067-.145-.193.046-.063-.24-.32v-.13l.338.45-.049.063.144.193-.095.13.095.127.148-.19.337.457-.34.443-.141-.193-.099.126.095.13-.14.194.045.063-.337.45Z" clip-rule="evenodd"/><path fill="#FAAE29" fill-rule="evenodd" d="m.17 12.15.05.127v.193h.143l.099.067-.099.063h-.14v.193l-.05.127v-.774l-.003.004Zm5.787-7.457v-.13l-.24-.32.05-.066-.144-.19.045-.067.099.13.049-.063-.337-.45-.05.063.05.063-.102.13-.236-.323.24-.313.098.12-.05.066.046.064.338-.45-.046-.064-.099.127-.045-.063.14-.194-.045-.063.239-.323V2.25l-.334.45.045.063-.14.194.095.13-.099.126-.144-.193-.34.457.34.443.144-.193.099.13-.099.13.144.19-.045.066.334.45Z" clip-rule="evenodd"/><path fill="#FAAE29" fill-rule="evenodd" d="m5.956 3.087-.049.126v.197h-.14l-.099.064.095.066h.144v.19l.05.13v-.773Zm.018 4.693v-.13l-.239-.32.046-.067-.14-.193.045-.063.095.13.05-.067-.338-.45-.05.067.05.063-.099.13-.239-.323.243-.313.095.12-.05.063.05.067.337-.45-.05-.067-.094.13-.05-.063.145-.194-.046-.063.24-.324v-.126l-.338.45.049.063-.144.194.095.126-.095.13-.144-.193-.341.457.34.443.141-.194.099.13-.095.127.14.193-.045.064.337.45v.003Z" clip-rule="evenodd"/><path fill="#FAAE29" fill-rule="evenodd" d="m5.974 6.17-.05.13v.193h-.147l-.098.064.098.063h.14v.193l.054.13V6.17h.003Zm-.017 4.693v-.126l-.24-.324.05-.063-.144-.193.045-.064.099.127.049-.063-.337-.45-.05.063.05.067-.102.13-.236-.324.24-.316.098.123-.05.063.046.064.338-.45-.046-.064-.099.13-.045-.066.14-.19-.045-.067.239-.32v-.13l-.334.45.045.067-.14.19.095.13-.099.13-.144-.194-.34.457.34.443.144-.193.099.127-.099.13.144.193-.045.063.33.45h.004Z" clip-rule="evenodd"/><path fill="#FAAE29" fill-rule="evenodd" d="m5.956 9.257-.049.13v.193h-.14l-.099.064.095.063h.144V9.9l.05.13v-.773Zm.001 4.499v-.13l-.24-.32.05-.063-.144-.193.045-.064.099.127.049-.063-.337-.45-.05.063.05.063-.102.13-.236-.32.24-.316.098.123-.05.063.046.063.338-.446-.046-.063-.099.13-.045-.067.14-.193-.045-.064.239-.32v-.13l-.334.45.045.064-.14.193.095.13-.099.127-.144-.19-.34.457.34.443.144-.194.099.127-.099.13.144.193-.045.064.334.45v-.004Z" clip-rule="evenodd"/><path fill="#FAAE29" fill-rule="evenodd" d="m5.956 12.15-.049.127v.193h-.14l-.099.067.095.063h.144v.193l.05.127v-.774.004ZM.17 1.22v-.127L.409.77.363.707l.14-.194L.459.45.363.58.313.513l.338-.45.05.067-.05.063.099.13L.989 0h.098L.75.45.602.257l-.095.13.095.126-.14.194.042.066-.334.45V1.22ZM.17 0h.29L.363.063h-.14v.194l-.057.13V0H.17Zm5.786 1.22v-.127L5.717.77l.05-.063-.145-.194.046-.063.098.13.046-.067-.337-.45-.046.067.046.063-.099.13L5.137 0H5.04l.34.45.145-.193.098.13-.098.126.144.194-.046.063.334.45Zm0-1.22h-.288l.095.063h.144v.194l.05.13V0ZM2.582 17.744s.211-.366.731-.475c.524-.112.616.243.914.243.3 0 .774-.246.774-.246s-.475.467-.844.457c-.362-.01-.485-.246-.861-.211-.373.035-.714.242-.714.232Z" clip-rule="evenodd"/><path fill="#FAAE29" fill-rule="evenodd" d="M3.591 17.744s-.207-.366-.728-.475c-.527-.112-.615.243-.914.243-.299 0-.773-.246-.773-.246s.474.467.84.457c.366-.01.492-.246.861-.211.377.035.714.242.714.232Z" clip-rule="evenodd"/><path fill="#FAAE29" fill-rule="evenodd" d="M1.882 17.138c-.046-.095-.162-.517-.102-.57.095-.035.34.398.316.78-.162.089-.703-.034-.7-.147.04-.158.349-.105.486-.063Z" clip-rule="evenodd"/><path fill="#FAAE29" fill-rule="evenodd" d="M1.55 16.77c-.027-.106-.076-.55-.006-.584.095-.007.267.481.186.85-.172.043-.685-.228-.66-.337.063-.14.35-.007.48.07Z" clip-rule="evenodd"/><path fill="#FAAE29" fill-rule="evenodd" d="M1.284 16.362c-.02-.113-.028-.563.043-.584.095.007.225.52.112.876-.176.014-.66-.338-.626-.44.07-.133.352.046.471.148Z" clip-rule="evenodd"/><path fill="#FAAE29" fill-rule="evenodd" d="M1.073 15.926c-.007-.116.036-.563.11-.57.094.025.161.56.006.886-.172-.02-.611-.467-.562-.562.084-.116.34.12.446.246Z" clip-rule="evenodd"/><path fill="#FAAE29" fill-rule="evenodd" d="M.926 15.465c.007-.116.098-.545.172-.541.088.046.099.583-.088.879-.169-.057-.559-.58-.503-.668.102-.099.327.186.422.33H.926Z" clip-rule="evenodd"/><path fill="#FAAE29" fill-rule="evenodd" d="M.968 14.942c-.01.457-.095.464-.246.126-.07-.13-.077-.657-.018-.678.088 0 .26.376.264.552Zm3.298 2.25c.045-.098.161-.52.101-.573-.094-.035-.337.394-.316.78.162.089.707-.035.7-.147-.039-.158-.345-.105-.485-.063v.003Z" clip-rule="evenodd"/><path fill="#FAAE29" fill-rule="evenodd" d="M4.596 16.818c.032-.105.078-.548.011-.584-.095-.007-.27.479-.186.851.168.042.685-.228.657-.337-.06-.144-.351-.007-.482.07Z" clip-rule="evenodd"/><path fill="#FAAE29" fill-rule="evenodd" d="M4.863 16.41c.021-.112.028-.562-.042-.583-.095.007-.225.517-.11.872.177.014.662-.334.627-.44-.078-.133-.352.05-.475.152Z" clip-rule="evenodd"/><path fill="#FAAE29" fill-rule="evenodd" d="M5.074 15.971c.007-.112-.035-.559-.109-.566-.095.025-.161.56-.007.886.176-.02.612-.467.566-.562-.088-.12-.34.12-.45.242Z" clip-rule="evenodd"/><path fill="#FAAE29" fill-rule="evenodd" d="M5.222 15.51c-.004-.112-.099-.544-.17-.537-.09.042-.101.583.089.879.168-.057.555-.58.499-.668-.102-.099-.327.186-.422.327h.004Z" clip-rule="evenodd"/><path fill="#FAAE29" fill-rule="evenodd" d="M5.18 14.99c.014.457.095.461.246.123.07-.126.077-.657.017-.675-.088 0-.26.377-.263.552Z" clip-rule="evenodd"/><path fill="#CA3745" fill-rule="evenodd" d="M5.06 11.562h-.288v.193h-.277v.193h-1.11l-.188.199.095.099h.465l.09-.1h-.461l.089-.099h.648l-.277.293h-.643l-.183-.094-.189.094h-.649l-.277-.293h.649l.094.1h-.466l.095.099h.465l.09-.1-.184-.198h-1.02v-.193H1.35v-.193h-.278v-.882h.278v-.193h.277v-.199h1.02l.183-.193-.089-.1h-.465l-.095.1h.466l-.094.094h-.649l.277-.293h.654l.189.1.183-.1h.649l.277.293h-.649l-.089-.094h.46l-.094-.1h-.46l-.1.1.189.193H4.5v.199h.276v.193h.283v.882Z" clip-rule="evenodd"/><path fill="currentColor" fill-rule="evenodd" d="M2.181 9.895h.656l.187.098.183-.098h.65l.283.297h-.656l-.094-.099h.46L3.761 10h-.458l-.097.097.186.19h1.11v.199h.278v.193h.282v.885H5.06v.002h-.285v.194h-.278v.193h-1.11l-.186.195.091.097h.464l.084-.094h-.46l.093-.104h.656l-.282.297h-.645l-.183-.093-.187.093H2.18l-.282-.297h.656l.099.104h-.466l.09.094h.463l.086-.096-.18-.196H1.625v-.194h-.277v-.192H1.07v-.888h.278v-.193h.277v-.199h1.022l.18-.19L2.741 10h-.464l-.089.094h.466l-.1.1H1.9l.282-.298Zm2.876 1.665v-.877h-.283v-.193h-.277v-.199H3.39l-.191-.195.102-.102h.462l.1.104h-.46l.083.089h.641L3.855 9.9h-.647l-.183.1-.19-.1h-.652l-.272.287h.642l.088-.088h-.465l.1-.105h.467l.092.102-.186.195H1.63v.199h-.277v.193h-.277v.877h.277v.193h.277v.193h1.02l.186.201-.092.102h-.468l-.1-.104h.467l-.09-.094h-.64l.271.287h.647l.19-.094.183.094h.642l.272-.287h-.641l-.084.094h.46l-.094.104H3.29l-.097-.102.191-.2h1.108v-.194h.277v-.193h.288Z" clip-rule="evenodd"/><path fill="#28AE66" fill-rule="evenodd" d="M1.166 10.783v.684h.277v.193h.278v.193h.928l.372.295.369-.292h1.02v-.193l.277-.003v-.193h.283v-.686h-.28v-.194h-.278v-.198h-1.02l-.369-.292-.371.292h-.929v.199h-.277v.193h-.277l-.003.002Z" clip-rule="evenodd"/><path fill="#FAAE29" fill-rule="evenodd" d="m3.024 10.073.375.298H4.43v.198h.278v.193h.28v.724h-.283v.193l-.277.003v.193H3.396l-.375.298-.378-.3h-.941v-.193h-.277v-.194h-.278v-.71l.014-.014h.266v-.193h.278v-.198h.94l.379-.298Zm0 .048-.365.287h-.917v.199h-.277v.193h-.28v.649h.277v.193h.278v.193h.916l.365.29.362-.287h1.008v-.193l.277-.003v-.193h.283v-.65h-.28v-.192h-.277v-.199H3.386l-.362-.287Z" clip-rule="evenodd"/><path fill="#CA3745" fill-rule="evenodd" d="m2.463 10.484-.556.49v-.49h.556Zm1.11 0 .56.49v-.49h-.56Zm-1.11 1.272-.556-.489v.49h.556Zm1.11 0 .56-.489v.49h-.56Zm.187-.978-.187.196h.373l-.186-.196Zm-1.484 0-.182.196h.369l-.187-.196Zm0 .685-.182-.196h.369l-.187.196Zm1.484 0-.187-.196h.373l-.186.196Z" clip-rule="evenodd"/><path fill="#FAAE29" fill-rule="evenodd" d="m3.017 11.953-.186-.196h.373l-.187.196Zm0-.979-.186-.196h.373l-.187.196Zm0-.685-.186.2h.373l-.187-.2Zm0 .979-.186.195h.373l-.187-.195Zm.558-.292h.374v.096h-.371l-.003-.096Z" clip-rule="evenodd"/><path fill="currentColor" fill-rule="evenodd" d="M3.574 10.974h.377v.099h-.374l-.003-.1Zm.003.002.003.094h.368v-.094h-.371Z" clip-rule="evenodd"/><path fill="#C00" fill-rule="evenodd" d="M2.186 11.072h.183v.1h-.183v-.1Zm1.483 0h.183v.1h-.183v-.1Z" clip-rule="evenodd"/><path fill="currentColor" fill-rule="evenodd" d="M2.185 11.072h.185v.102h-.185v-.102Zm.002.003v.097h.18v-.097h-.18Zm1.48-.003h.187v.102h-.186v-.102Zm.003.003v.097h.18v-.097h-.18Z" clip-rule="evenodd"/><path fill="#900" fill-rule="evenodd" d="M2.835 10.487h.369v.097h-.369v-.097Zm0 .193h.369v.1h-.369v-.1Z" clip-rule="evenodd"/><path fill="currentColor" fill-rule="evenodd" d="M2.834 10.487h.372v.1h-.372v-.1Zm.003.003v.094h.366v-.094h-.366Zm-.003.19h.372v.102h-.372v-.102Zm.003.003v.097h.366v-.097h-.366Z" clip-rule="evenodd"/><path fill="#900" fill-rule="evenodd" d="M2.741 10.585h.557v.1h-.557v-.1Zm.094.882h.37v.094h-.37v-.094Zm0 .193h.37v.097h-.37v-.097Zm-.094-.096h.557v.096h-.557v-.096Z" clip-rule="evenodd"/><path fill="currentColor" fill-rule="evenodd" d="M2.74 10.583h.56v.102h-.56v-.102Zm.002.003v.096h.554v-.096h-.554Zm.091.88h.372v.096h-.372v-.096Zm.003.002v.091h.366v-.09h-.366Zm-.097.094h.56v.1h-.094v.096h-.372v-.097H2.74v-.099Zm.557.097v-.094h-.554v.094h.554Zm-.46.002v.094h.366v-.094h-.366Z" clip-rule="evenodd"/><path fill="#FAAE29" fill-rule="evenodd" d="M3.576 11.171h.374v.097h-.372l-.002-.097Zm-1.483-.195h.371v.096h-.371v-.096Zm0 .193h.371v.099h-.371v-.1ZM2 11.072h.183v.1H2v-.1Zm.371 0h.184v.1h-.184v-.1Zm1.112 0h.183v.1h-.183v-.1Zm.372 0h.183v.1h-.183v-.1Z" clip-rule="evenodd"/><path fill="currentColor" fill-rule="evenodd" d="M2.09 10.974h.375v.096h.091v.102h-.091v.097H2.09v-.097h-.092v-.102h.092v-.096Zm.003.096h.369v-.094h-.369v.094Zm.277.003h-.185v.094h.185v-.094Zm0 .096h-.185v.003h-.092v.094h.369v-.094H2.37v-.003Zm.095 0v-.002h-.092v-.094h.18v.096h-.088Zm-.003 0h-.089.089Zm-.369 0h.09-.09Zm.09-.002v-.094h-.181v.096h.089v-.002h.091Zm1.3-.097h.185v.1h.186v-.1h.186v.102h-.09v.097h-.374l-.002-.097h-.092v-.102Zm.182.1v-.097h-.18v.096h.18Zm-.088.002.002.094h.369v-.094h-.371Zm.46-.003v-.096h-.18v.096h.18Z" clip-rule="evenodd"/><path fill="#fff" d="M2.792 11.632a.024.024 0 0 0 .024-.025.024.024 0 0 0-.024-.025.024.024 0 0 0-.023.025c0 .014.01.025.023.025Zm.228 0a.024.024 0 0 0 .024-.025.024.024 0 0 0-.023-.025.024.024 0 0 0-.024.025c0 .014.01.025.024.025Zm.232 0a.024.024 0 0 0 .024-.025.024.024 0 0 0-.024-.025.024.024 0 0 0-.023.025c0 .014.01.025.023.025Zm-.369-.092a.024.024 0 0 0 .023-.025.024.024 0 0 0-.023-.025.024.024 0 0 0-.024.025c0 .014.01.025.024.025Zm.274 0a.024.024 0 0 0 .024-.025.024.024 0 0 0-.024-.025.024.024 0 0 0-.023.025c0 .014.01.025.023.025Zm-.277.19a.024.024 0 0 0 .024-.026.024.024 0 0 0-.024-.024.024.024 0 0 0-.024.024c0 .014.011.025.024.025Zm.277.005a.024.024 0 0 0 .024-.025.025.025 0 0 0-.024-.025c-.013 0-.023.012-.023.025 0 .014.01.025.023.025Zm.369-.593a.024.024 0 0 0 .024-.024.024.024 0 0 0-.024-.025.024.024 0 0 0-.023.025c0 .013.01.024.023.024Zm.233 0a.024.024 0 0 0 .023-.024.024.024 0 0 0-.023-.025.024.024 0 0 0-.024.025c0 .013.01.024.024.024Zm.232 0a.024.024 0 0 0 .024-.024.024.024 0 0 0-.024-.025.024.024 0 0 0-.023.025c0 .013.01.024.023.024Zm-.37-.097a.025.025 0 0 0 .024-.025.024.024 0 0 0-.024-.025.024.024 0 0 0-.023.025c0 .014.01.025.023.025Zm.275 0a.024.024 0 0 0 .023-.025.024.024 0 0 0-.023-.025.024.024 0 0 0-.024.025c0 .014.01.025.024.025Zm-.278.191a.025.025 0 0 0 .024-.025.024.024 0 0 0-.024-.024.024.024 0 0 0-.023.024c0 .014.01.025.023.025Zm.278.004a.024.024 0 0 0 .023-.025.024.024 0 0 0-.023-.025.024.024 0 0 0-.024.025c0 .014.01.025.024.025Zm-1.108-.583a.025.025 0 0 0 .024-.025.024.024 0 0 0-.024-.025.024.024 0 0 0-.023.025c0 .014.01.025.023.025Zm.232 0a.024.024 0 0 0 .024-.025.024.024 0 0 0-.023-.025.024.024 0 0 0-.024.025c0 .014.01.025.024.025Zm.232-.004a.025.025 0 0 0 .024-.025.024.024 0 0 0-.024-.024.024.024 0 0 0-.023.024c0 .014.01.025.023.025Zm-.372-.092c.013 0 .024-.01.024-.024a.024.024 0 0 0-.024-.025.024.024 0 0 0-.024.024c0 .014.011.025.024.025Zm.277 0c.013 0 .024-.01.024-.024a.024.024 0 0 0-.024-.025.024.024 0 0 0-.023.024c0 .014.01.025.023.025Zm-.277.189a.024.024 0 0 0 .024-.024.024.024 0 0 0-.024-.025.024.024 0 0 0-.024.025c0 .014.011.025.024.025Zm.277.007a.024.024 0 0 0 .024-.025.024.024 0 0 0-.024-.025.024.024 0 0 0-.023.025c0 .014.01.025.023.025Zm-1.11.395a.024.024 0 0 0 .024-.025c0-.013-.011-.025-.024-.025-.013 0-.024.012-.024.025 0 .014.011.025.024.025Zm.231 0a.024.024 0 0 0 .024-.025.025.025 0 0 0-.024-.025.024.024 0 0 0-.023.025c0 .014.01.025.023.025Zm.232-.006a.024.024 0 0 0 .023-.025.024.024 0 0 0-.023-.024.024.024 0 0 0-.024.024c0 .014.01.025.024.025Zm-.368-.091a.024.024 0 0 0 .023-.025.024.024 0 0 0-.023-.025.024.024 0 0 0-.024.025c0 .013.01.025.024.025Zm.273 0a.024.024 0 0 0 .024-.025.024.024 0 0 0-.024-.025.024.024 0 0 0-.023.025c0 .013.01.025.023.025Zm-.277.191a.024.024 0 0 0 .023-.025.024.024 0 0 0-.023-.025.024.024 0 0 0-.024.025c0 .014.01.025.024.025Zm.277.004a.024.024 0 0 0 .024-.025.024.024 0 0 0-.024-.025.024.024 0 0 0-.023.025c0 .014.01.025.023.025Z"/><path fill="#fff" fill-rule="evenodd" d="m3.383 8.993.158-.077.162.077h-.32Zm-.478 0 .158-.077.162.077h-.32Zm-.478 0 .158-.077.162.077h-.32Zm.956-1.722.158.077.162-.074h-.32v-.003Zm-.478 0 .158.077.162-.074h-.32v-.003Zm-.478 0 .158.077.162-.074h-.32v-.003Z" clip-rule="evenodd"/><path fill="#28AE66" fill-rule="evenodd" d="m3.25 9.214-.187.152-.186-.152-.186.152-.187-.152v.078l.127.07-.063.077v.074h.063l.06-.07.063.07h.063v-.07l-.063-.077.123-.074.127.07-.064.077v.074h.064l.06-.07.063.07h.06v-.07l-.06-.077.123-.074.123.07-.06.077v.074h.06l.063-.07.063.07h.06v-.07l-.06-.077.123-.074V9.21l-.186.151-.186-.151v.003Zm0-2.165-.187-.151-.186.15-.186-.15-.187.15v-.073l.127-.077-.063-.07V6.75h.063l.06.074.063-.074h.063v.074l-.063.077.123.07.127-.07-.064-.077V6.75h.064l.06.074.063-.074h.06v.074l-.06.077.123.07.123-.07-.06-.077V6.75h.06l.063.074.063-.074h.06v.074l-.06.077.123.07v.078l-.186-.151-.186.15Zm1.406 1.244.204-.161-.2-.162.2-.162-.2-.162h.098l.102.106.098-.053h.099v.056l-.099.053.099.053v.056h-.099l-.098-.056-.102.109.102.105.098-.049h.099v.053l-.099.053.099.052v.057h-.099l-.098-.057-.102.11.102.105.098-.053h.099v.056l-.099.053.099.056v.053h-.099l-.098-.053-.102.106h-.099l.2-.162-.2-.162h-.003Zm-3.185 0-.2-.161.2-.162-.2-.162.2-.162h-.102l-.099.106-.098-.053h-.106v.056l.106.05-.102.052v.057h.102l.098-.057.099.11-.099.105-.098-.05h-.106v.053l.102.053-.102.053v.056h.106l.098-.056.099.109-.099.109-.098-.053h-.106V8.4l.102.053-.102.056v.053h.106l.098-.053.099.105h.102l-.2-.161.2-.162v.003Zm3.264.552h.081v.072h-.08v-.072Zm-.08.072h.08v.076H4.66l-.005-.076Zm-.397.375h.081v.076h-.08v-.076Zm.081-.075h.077v.075h-.077v-.075Zm-2.632 0h.081v.075h-.085l.004-.075Zm-.4-.372h.08v.072h-.08v-.072Zm.08.072h.082v.076h-.081v-.076Zm0-1.645h.082v.076h-.081v-.076Zm-.08.076h.08v.076h-.08v-.076Zm.481-.447h.077v.076h-.072l-.005-.076Zm-.08.076h.08v.076h-.085l.004-.076Zm2.55-.076h.081v.076h-.08v-.076Zm.081.076h.077v.076h-.077v-.076Zm.315.295h.081v.076H4.66l-.005-.076Zm.081.08h.081v.072h-.08v-.071Zm-2.942 1.94h.076v.076h-.076v-.076Z" clip-rule="evenodd"/><path fill="currentColor" fill-rule="evenodd" d="M1.78 6.895h.09v.089h-.076v.075h-.099l.006-.089h.084l-.004-.075Zm.018.075h.06v-.062h-.063l.003.062Zm-.017.014h-.068l-.004.062h.072v-.062Zm2.47-.09h.094v.076h.077v.09h-.09v-.076h-.08v-.09Zm.094.09v.062h.064v-.062h-.064Zm-.013-.014v-.062h-.068v.062h.068Zm-2.951.296h.094v.089h-.081v.076H1.3v-.09h.08v-.075Zm0 .089h-.068v.062h.068v-.062Zm.013-.013h.068v-.063h-.068v.063Zm3.253-.076h.094v.08h.081v.085h-.094v-.076h-.076l-.005-.09Zm.094.093v.058h.068V7.36h-.068Zm-.013-.017v-.063h-.067l.003.063h.064ZM1.3 8.839h.094v.071h.08V9h-.093v-.077H1.3V8.84Zm.094.084v.063h.068v-.063h-.068ZM1.38 8.91v-.058h-.068v.058h.068Zm3.347-.071h.094v.084h-.08V9h-.09l-.005-.089h.081V8.84Zm0 .084H4.66l.003.063h.064v-.063Zm.013-.013h.068v-.058H4.74v.058Zm-3.04.3h.093v.076h.081v.089h-.09v-.076h-.09l.006-.09Zm.098.089v.062h.063V9.3H1.8Zm-.018-.013v-.063h-.068l-.004.063h.072Zm2.551-.076h.09v.089h-.077v.076H4.25v-.09h.081V9.21Zm0 .089h-.068v.062h.068V9.3Zm.013-.013h.064v-.063h-.064v.063Z" clip-rule="evenodd"/><path fill="#fff" fill-rule="evenodd" d="M2.82 8.132h-.235v-.148h.158v-.137h.155v-.126h.158v.158c-.13 0-.235.105-.235.253Z" clip-rule="evenodd"/><path fill="#FAAE29" fill-rule="evenodd" d="M3.292 8.132h.236v-.148H3.37v-.137h-.16v-.126h-.154v.158c.13 0 .235.105.235.253Z" clip-rule="evenodd"/><path fill="#fff" fill-rule="evenodd" d="M3.292 8.132h.236v.147H3.37v.138h-.16v.126h-.154v-.158c.13 0 .235-.106.235-.253Z" clip-rule="evenodd"/><path fill="#FAAE29" fill-rule="evenodd" d="M2.82 8.132h-.235v.147h.158v.138h.155v.126h.158v-.158c-.13 0-.235-.106-.235-.253Z" clip-rule="evenodd"/><path fill="#28AE66" fill-rule="evenodd" d="M3.292 8.132h-.235v-.253c.13 0 .235.116.235.253Z" clip-rule="evenodd"/><path fill="#CA3745" fill-rule="evenodd" d="M3.292 8.132h-.235v.253c.13 0 .235-.113.235-.253Z" clip-rule="evenodd"/><path fill="#28AE66" fill-rule="evenodd" d="M2.82 8.132h.236v.253c-.13 0-.236-.113-.236-.253Z" clip-rule="evenodd"/><path fill="#CA3745" fill-rule="evenodd" d="M2.82 8.132h.236v-.253c-.13 0-.236.116-.236.253Z" clip-rule="evenodd"/><path fill="#28AE66" fill-rule="evenodd" d="m3.302 9.067-.24-.152-.238.152-.24-.152-.238.152v-.074l.158-.078-.077-.073v-.074h.077l.08.074.082-.074h.08v.074l-.08.073.158.078.162-.078-.081-.073v-.074h.08l.078.074.08-.074h.082v.074l-.081.073.158.078.162-.078-.081-.073v-.074h.08l.078.074.08-.074h.082v.074l-.081.073.158.078v.07l-.239-.148-.239.152Zm0-1.867-.24.147-.238-.147-.24.147-.238-.147v.07l.158.077-.077.074V7.5h.077l.08-.078.082.078h.08v-.081l-.08-.07.158-.078.162.074-.081.074v.077h.08l.078-.077.08.077h.082v-.077l-.081-.07.158-.078.162.074-.081.074v.077h.08l.078-.077.08.077h.082v-.077l-.081-.07.158-.078v-.074l-.239.148-.239-.148V7.2Zm.879 1.118-.12-.187.12-.186-.12-.186.12-.187h-.06l-.06.124-.06-.064h-.06v.064l.06.063-.06.063v.06h.06l.06-.06.06.123-.06.123-.06-.06h-.06v.06l.06.063-.06.064v.063h.06l.06-.063.06.123-.06.126-.06-.063h-.06v.063l.06.06-.06.063v.064h.06l.06-.064.06.127h.06l-.12-.19.12-.186Z" clip-rule="evenodd"/><path fill="#28AE66" fill-rule="evenodd" d="m2.347 7.275-.315.295v1.12l.315.3h1.44l.315-.295V7.574l-.32-.3H2.347Zm-.08-.228-.797.75v.675l.8.742h1.593l.797-.746v-.675l-.797-.746H2.266Z" clip-rule="evenodd"/><path fill="currentColor" fill-rule="evenodd" d="M2.263 7.038h1.604l.801.751v.683l-.801.751h-1.6l-.806-.747v-.682l.802-.756Zm.006.018-.79.745v.667l.795.738H3.86l.79-.742v-.667l-.79-.741H2.27Zm.075.21h1.442l.324.304V8.7l-.32.3H2.344l-.32-.305v-1.13l.32-.3Zm.006.017-.31.29v1.115l.31.294h1.433l.31-.29V7.578l-.314-.295H2.35Z" clip-rule="evenodd"/><path fill="#FAAE29" fill-rule="evenodd" d="m2.678 9.065.126.152.13-.152h-.26.004Z" clip-rule="evenodd"/><path fill="currentColor" fill-rule="evenodd" d="m2.944 9.06-.14.164-.128-.155h-.001V9.06h.27Zm-.255.01h.235l-.12.139-.115-.14Z" clip-rule="evenodd"/><path fill="#FAAE29" fill-rule="evenodd" d="m2.678 7.198.126-.152.13.152h-.26.004Z" clip-rule="evenodd"/><path fill="currentColor" fill-rule="evenodd" d="m2.944 7.203-.14-.164-.128.155h-.001v.009h.27Zm-.255-.01h.235l-.12-.139-.115.14Z" clip-rule="evenodd"/><path fill="#FAAE29" fill-rule="evenodd" d="m3.192 7.198.126-.152.13.152h-.26.004Z" clip-rule="evenodd"/><path fill="currentColor" fill-rule="evenodd" d="m3.458 7.203-.14-.164-.128.155h-.001v.009h.27Zm-.256-.01h.235l-.119-.139-.116.14Z" clip-rule="evenodd"/><path fill="#FAAE29" fill-rule="evenodd" d="m3.192 9.065.126.152.13-.152h-.26.004Z" clip-rule="evenodd"/><path fill="currentColor" fill-rule="evenodd" d="m3.458 9.06-.14.164-.128-.155h-.001V9.06h.27Zm-.256.01h.235l-.119.139-.116-.14Z" clip-rule="evenodd"/><path fill="#CA3745" fill-rule="evenodd" d="m2.425 7.198.126-.152.13.152h-.26.004Z" clip-rule="evenodd"/><path fill="currentColor" fill-rule="evenodd" d="m2.691 7.203-.14-.164-.128.155h-.001v.009h.27Zm-.255-.01h.235l-.12-.139-.115.14Z" clip-rule="evenodd"/><path fill="#CA3745" fill-rule="evenodd" d="m2.935 7.198.126-.152.13.152h-.26.004Z" clip-rule="evenodd"/><path fill="currentColor" fill-rule="evenodd" d="m3.201 7.203-.14-.164-.128.155h-.001v.009h.27Zm-.256-.01h.236l-.12-.139-.116.14Z" clip-rule="evenodd"/><path fill="#CA3745" fill-rule="evenodd" d="m3.445 7.198.126-.152.13.152h-.26.004Z" clip-rule="evenodd"/><path fill="currentColor" fill-rule="evenodd" d="m3.711 7.203-.14-.164-.128.155H3.44v.009h.27Zm-.256-.01h.235l-.119-.139-.116.14Z" clip-rule="evenodd"/><path fill="#CA3745" fill-rule="evenodd" d="m2.11 8.841.237.222H2.11V8.84Z" clip-rule="evenodd"/><path fill="currentColor" fill-rule="evenodd" d="M2.1 9.072h.271l-.27-.254v.254Zm.02-.02v-.188l.202.189H2.12Z" clip-rule="evenodd"/><path fill="#28AE66" fill-rule="evenodd" d="m1.945 8.318.123-.187-.123-.186.12-.186-.12-.187h.06l.06.123.06-.063h.06v.063l-.06.064.06.063v.06h-.06l-.06-.06-.06.123.06.123.06-.06h.06v.06l-.06.063.06.064v.063h-.06l-.06-.063-.06.123.06.126.06-.063h.06v.063l-.06.06.06.063v.063h-.06l-.06-.063-.06.127h-.06l.12-.19-.12-.186Z" clip-rule="evenodd"/><path fill="#CA3745" fill-rule="evenodd" d="M4.258 7.93h.32l.08.068-.08.068h-.316v-.14l-.004.004Z" clip-rule="evenodd"/><path fill="currentColor" fill-rule="evenodd" d="M4.256 7.937h-.015l.028-.023v.011h.31L4.67 8l-.09.074h-.323v-.137Zm.013 0h.306L4.65 8l-.074.062H4.27v-.125Z" clip-rule="evenodd"/><path fill="#CA3745" fill-rule="evenodd" d="m2.109 7.423-.162.152v1.117l.162.152H1.87V7.423h.239Z" clip-rule="evenodd"/><path fill="currentColor" fill-rule="evenodd" d="M1.861 7.414h.27l-.176.164v1.11l.176.165h-.27V7.414Zm.018.017v1.404h.207l-.148-.14V7.572l.148-.14H1.88Z" clip-rule="evenodd"/><path fill="#CA3745" fill-rule="evenodd" d="m2.425 9.065.126.152.13-.152h-.26.004Z" clip-rule="evenodd"/><path fill="currentColor" fill-rule="evenodd" d="m2.691 9.06-.14.164-.128-.155h-.001V9.06h.27Zm-.255.01h.235l-.12.139-.115-.14Z" clip-rule="evenodd"/><path fill="#CA3745" fill-rule="evenodd" d="m2.935 9.065.126.152.13-.152h-.26.004Z" clip-rule="evenodd"/><path fill="currentColor" fill-rule="evenodd" d="m3.201 9.06-.14.164-.128-.155h-.001V9.06h.27Zm-.256.01h.236l-.12.139-.116-.14Z" clip-rule="evenodd"/><path fill="#CA3745" fill-rule="evenodd" d="m3.445 9.065.126.152.13-.152h-.26.004Z" clip-rule="evenodd"/><path fill="currentColor" fill-rule="evenodd" d="m3.711 9.06-.14.164-.128-.155H3.44V9.06h.27Zm-.256.01h.235l-.119.139-.116-.14Z" clip-rule="evenodd"/><path fill="#CA3745" fill-rule="evenodd" d="m4.017 7.423.162.152v1.117l-.162.152h.239V7.423h-.239Z" clip-rule="evenodd"/><path fill="currentColor" fill-rule="evenodd" d="M4.266 7.414h-.27l.176.164v1.11l-.176.165h.27V7.414Zm-.018.017v1.404H4.04l.15-.14V7.572l-.15-.14h.208Z" clip-rule="evenodd"/><path fill="#CA3745" fill-rule="evenodd" d="m4.02 8.841-.237.222h.237V8.84Z" clip-rule="evenodd"/><path fill="currentColor" fill-rule="evenodd" d="M4.03 9.072h-.271l.27-.254v.254Zm-.02-.02v-.188l-.202.189h.202Z" clip-rule="evenodd"/><path fill="#CA3745" fill-rule="evenodd" d="M4.02 7.422 3.783 7.2h.237v.222Z" clip-rule="evenodd"/><path fill="currentColor" fill-rule="evenodd" d="M4.03 7.191h-.271l.27.254v-.254Zm-.02.02V7.4l-.202-.189h.202Z" clip-rule="evenodd"/><path fill="#CA3745" fill-rule="evenodd" d="m2.11 7.422.237-.222H2.11v.222Z" clip-rule="evenodd"/><path fill="currentColor" fill-rule="evenodd" d="M2.1 7.191h.271l-.27.254v-.254Zm.02.02V7.4l.202-.189H2.12Z" clip-rule="evenodd"/><path fill="#28AE66" fill-rule="evenodd" d="m2.347 7.276-.315.295v1.122l.315.3h1.44l.315-.296V7.576l-.32-.3H2.347Zm0-.076-.396.371v1.122l.396.375h1.44l.396-.375V7.571l-.4-.37H2.346Z" clip-rule="evenodd"/><path fill="currentColor" fill-rule="evenodd" d="M2.344 7.191h1.442l.405.376v1.13l-.4.38H2.343l-.402-.38v-1.13l.402-.376Zm.006.018-.39.366v1.114l.39.37h1.433l.391-.37V7.575l-.395-.366H2.35Zm-.006.058h1.442l.324.305V8.7l-.32.3H2.344l-.32-.304v-1.13l.32-.3Zm.006.018-.31.29v1.114l.31.295h1.433l.31-.29V7.578l-.314-.294H2.35Z" clip-rule="evenodd"/><path fill="#FAAE29" fill-rule="evenodd" d="M4.258 8.063h.32l.08.069-.08.068h-.316v-.14l-.004.003Z" clip-rule="evenodd"/><path fill="currentColor" fill-rule="evenodd" d="M4.256 8.07h-.015l.028-.024v.01h.31l.09.075-.09.075h-.323v-.137Zm.013 0h.306l.074.061-.074.062H4.27V8.07Z" clip-rule="evenodd"/><path fill="#CA3745" fill-rule="evenodd" d="M4.258 8.196h.32l.08.069-.08.068h-.316v-.14l-.004.003Z" clip-rule="evenodd"/><path fill="currentColor" fill-rule="evenodd" d="M4.256 8.204h-.015l.028-.023v.01h.31l.09.075-.09.075h-.323v-.137Zm.013 0h.306l.074.062-.074.062H4.27v-.124Z" clip-rule="evenodd"/><path fill="#FAAE29" fill-rule="evenodd" d="M4.258 8.33h.32l.08.07-.08.068h-.316v-.14l-.004.003Z" clip-rule="evenodd"/><path fill="currentColor" fill-rule="evenodd" d="M4.256 8.337h-.015l.028-.024v.011h.31l.09.075-.09.074h-.323v-.136Zm.013 0h.306l.074.062-.074.062H4.27v-.124Z" clip-rule="evenodd"/><path fill="#FAAE29" fill-rule="evenodd" d="M4.258 7.793h.32l.08.068-.08.069h-.316v-.14l-.004.003Z" clip-rule="evenodd"/><path fill="currentColor" fill-rule="evenodd" d="M4.256 7.799h-.015l.028-.024v.011h.31l.09.075-.09.074h-.323V7.8Zm.013 0h.306l.074.062-.074.062H4.27v-.124Z" clip-rule="evenodd"/><path fill="#CA3745" fill-rule="evenodd" d="M1.868 7.93h-.32l-.08.068.08.068h.316v-.14l.004.004Z" clip-rule="evenodd"/><path fill="currentColor" fill-rule="evenodd" d="M1.87 7.937h.016l-.028-.023v.011h-.31L1.457 8l.09.074h.322v-.137Zm-.012 0h-.306L1.478 8l.074.062h.306v-.125Z" clip-rule="evenodd"/><path fill="#FAAE29" fill-rule="evenodd" d="M1.868 8.063h-.32l-.08.069.08.068h.316v-.14l.004.003Z" clip-rule="evenodd"/><path fill="currentColor" fill-rule="evenodd" d="M1.87 8.07h.016l-.028-.024v.01h-.31l-.09.075.09.075h.322v-.137Zm-.012 0h-.306l-.074.061.074.062h.306V8.07Z" clip-rule="evenodd"/><path fill="#CA3745" fill-rule="evenodd" d="M1.868 8.196h-.32l-.08.069.08.068h.316v-.14l.004.003Z" clip-rule="evenodd"/><path fill="currentColor" fill-rule="evenodd" d="M1.87 8.204h.016l-.028-.023v.01h-.31l-.09.075.09.075h.322v-.137Zm-.012 0h-.306l-.074.062.074.062h.306v-.124Z" clip-rule="evenodd"/><path fill="#FAAE29" fill-rule="evenodd" d="M1.868 8.33h-.32l-.08.07.08.068h.316v-.14l.004.003Z" clip-rule="evenodd"/><path fill="currentColor" fill-rule="evenodd" d="M1.87 8.337h.016l-.028-.024v.011h-.31l-.09.075.09.074h.322v-.136Zm-.012 0h-.306l-.074.062.074.062h.306v-.124Z" clip-rule="evenodd"/><path fill="#FAAE29" fill-rule="evenodd" d="M1.868 7.793h-.32l-.08.068.08.069h.316v-.14l.004.003Z" clip-rule="evenodd"/><path fill="currentColor" fill-rule="evenodd" d="M1.87 7.799h.016l-.028-.024v.011h-.31l-.09.075.09.074h.322V7.8Zm-.012 0h-.306l-.074.062.074.062h.306v-.124Z" clip-rule="evenodd"/><path fill="#970000" fill-rule="evenodd" d="M1.388 7.353v1.56h.4v.375H4.34v-.375h.396v-1.56H4.34V6.98H1.79v.372h-.401Zm.08.071v1.421h.397v.371h2.393v-.37h.4V7.423h-.4v-.367H1.865v.371h-.396v-.004Z" clip-rule="evenodd"/><path fill="currentColor" fill-rule="evenodd" d="M1.782 6.975h2.564v.37h.396V8.92h-.396v.375H1.782V8.92h-.4V7.346h.4v-.371Zm.013.013v.37h-.4v1.548h.4v.375h2.538v-.375h.396V7.359h-.396v-.371H1.795Zm.064.063h2.406v.366h.4v1.435h-.4v.37H1.86v-.37h-.396V7.424h.006v-.002h.39V7.05Zm-.383.384v1.404h.396v.37h2.38v-.37h.4V7.43h-.4v-.366h-2.38v.37h-.396Z" clip-rule="evenodd"/><path fill="#CA3745" fill-rule="evenodd" d="m5.055 1.512-.238-.288v-.215L4.578.794h-.477l-.4-.215H2.428l-.4.215H1.55l-.238.215v.215l-.239.284v.58l.239.284v.219l.238.214h.477l.4.215h1.274l.4-.215h.477l.243-.214v-.215l.239-.288v-.58l-.005.004Z" clip-rule="evenodd"/><path fill="currentColor" fill-rule="evenodd" d="M2.425.573h1.277l.4.215h.478l.243.219v.215l.232.281.01-.01v.598l-.238.287v.216l-.247.218h-.478l-.4.215H2.425l-.4-.215h-.478l-.242-.218v-.22l-.239-.283v-.585l.239-.284v-.215l.242-.219h.478l.4-.215Zm2.628.947-.243-.293v-.215L4.575.801H4.1L3.7.586H2.43l-.4.215h-.477l-.234.211v.215l-.239.284v.575l.239.284v.218l.234.212h.476l.4.215h1.27L4.1 2.8h.476l.24-.212v-.214l.238-.288V1.52Z" clip-rule="evenodd"/><path fill="#FAAE29" fill-rule="evenodd" d="M1.15 1.8v.214l.24.289v.214l.239.218h.478l.4.21h.556V1.804H1.15V1.8Z" clip-rule="evenodd"/><path fill="#CA3745" fill-rule="evenodd" d="m2.392 2.303-.292.186h-.176l.06.06-.116.123.06.063.176-.063.056.063.025-.165.323-.197-.116-.07Z" clip-rule="evenodd"/><path fill="#CA3745" fill-rule="evenodd" d="m2.072 2.158-.292.187h-.172l.056.06-.113.123.057.063.175-.063.057.063.028-.165.32-.194-.116-.07v-.004Zm-.159-.288-.291.186h-.176l.06.064-.116.123.06.06.175-.064.056.064.025-.166.323-.193-.116-.07V1.87Z" clip-rule="evenodd"/><path fill="#FAAE29" fill-rule="evenodd" d="M4.976 1.8v-.214l-.24-.289v-.214L4.499.865H4.02L3.622.65h-.559V1.8h1.913Z" clip-rule="evenodd"/><path fill="#CA3745" fill-rule="evenodd" d="M3.063 2.95h-.147l-.169-.144h-.274l-.148-.07.074-.07.148.07h.147l.148-.218.221.07v.148h-.221l.221.21v.004Z" clip-rule="evenodd"/><path fill="#fff" fill-rule="evenodd" d="M1.15 1.8v-.214l.24-.289v-.214l.239-.218h.478l.4-.215h.556V1.8H1.15Z" clip-rule="evenodd"/><path fill="#CA3745" fill-rule="evenodd" d="M3.063.65h-.147l-.169.141h-.274l-.148.074.074.07.148-.07h.147l.148.218.221-.07V.864h-.221L3.063.65Zm0 0h.148l.172.141h.271l.148.074-.07.07-.152-.07h-.147l-.148.218-.222-.07V.864h.222L3.063.65Z" clip-rule="evenodd"/><path fill="#fff" fill-rule="evenodd" d="M4.976 1.8v.214l-.24.289v.214l-.238.218H4.02l-.398.21h-.559V1.804h1.913V1.8Z" clip-rule="evenodd"/><path fill="#CA3745" fill-rule="evenodd" d="M3.063 2.95h.148l.172-.144h.271l.148-.07-.07-.07-.152.07h-.147l-.148-.218-.222.07v.148h.222l-.222.21v.004Zm-.99-1.512-.293-.183h-.172l.056-.06-.112-.122.056-.064.176.064.056-.064.028.166.32.193-.116.07Zm1.665-.14.289-.187h.176l-.06-.06.116-.122-.056-.064-.176.064L3.97.865l-.029.165-.32.197.116.07Z" clip-rule="evenodd"/><path fill="#CA3745" fill-rule="evenodd" d="M2.392 1.298 2.1 1.11h-.175l.06-.06-.118-.12.06-.064.176.064.056-.064.025.165.323.194-.116.07v.004Zm-.481.432-.292-.186h-.176l.06-.064-.116-.123.067-.056.175.063.057-.063.024.165.324.194-.116.07H1.91Z" clip-rule="evenodd"/><path fill="#fff" fill-rule="evenodd" d="M1.295 1.8h.07l.074.07.074-.07h1.55v1.005h-.07l.07.07v.078l-.221-.215v-.07h.074v.07h.073v-.07l-.597-.316h-.506v-.317l-.222-.158h-.148l-.073.07.07.07h-.07l-.148-.21V1.8Z" clip-rule="evenodd"/><path fill="#FAAE29" fill-rule="evenodd" d="M1.295 1.8h.07l.074-.07.074.07h1.55V.795h-.07l.07-.07V.65l-.221.215v.07h.074v-.07h.073v.07l-.597.32h-.506v.313l-.222.162h-.148l-.073-.07.07-.074h-.07l-.148.214Z" clip-rule="evenodd"/><path fill="#28AE66" fill-rule="evenodd" d="M1.629 1.8h1.434v.861l-.636-.358h-.478v-.289L1.632 1.8H1.63Z" clip-rule="evenodd"/><path fill="#CA3745" fill-rule="evenodd" d="m4.055 1.441.292-.186h.175l-.06-.06.117-.123-.057-.063-.175.063-.057-.063-.028.165-.32.193.113.07v.004Zm.162.288.291-.186h.173l-.06-.063.116-.123-.056-.06-.176.063-.056-.063-.028.165-.32.194.116.07v.003Z" clip-rule="evenodd"/><path fill="#fff" fill-rule="evenodd" d="M4.835 1.8h-.073l-.074-.07-.074.07h-1.55V.795h.073l-.074-.07V.65l.222.215v.07h-.074v-.07h-.074v.07l.598.32h.506v.313l.225.162h.148l.07-.07-.07-.074h.07l.151.214Z" clip-rule="evenodd"/><path fill="#28AE66" fill-rule="evenodd" d="M4.498 1.8H3.063V.938l.64.36h.478v.287l.32.215h-.003Z" clip-rule="evenodd"/><path fill="#CA3745" fill-rule="evenodd" d="m3.738 2.303.288.186h.176l-.06.06.116.123-.056.063-.176-.063-.056.063-.028-.165-.32-.197.116-.07Z" clip-rule="evenodd"/><path fill="#CA3745" fill-rule="evenodd" d="m4.055 2.158.292.187h.175l-.06.06.117.123-.057.063-.175-.063-.057.063-.028-.165-.32-.194.113-.07v-.004Zm.162-.288.291.186h.173l-.06.06.116.123-.056.064-.176-.064-.056.064-.028-.166-.32-.193.116-.07V1.87Z" clip-rule="evenodd"/><path fill="#FAAE29" fill-rule="evenodd" d="M4.835 1.8h-.073l-.074.07-.074-.07h-1.55v1.005h.073l-.074.07v.078l.222-.215v-.07h-.074v.07h-.074v-.07l.598-.316h.506v-.317l.225-.158h.148l.07.07-.07.07h.07l.151-.21V1.8Z" clip-rule="evenodd"/><path fill="#CA3745" fill-rule="evenodd" d="M4.498 1.8H3.063v.861l.64-.358h.478v-.289l.32-.214h-.003Zm-2.87 0h1.435V.938l-.636.36h-.478v.287l-.317.215H1.63Z" clip-rule="evenodd"/><path fill="#CA3745" fill-rule="evenodd" d="m3.221 1.8.4-.215h.24l-.08-.07.16-.148-.08-.07-.24.07-.08-.07-.035.193-.443.225.158.085Zm-.316 0-.398.214h-.239l.078.07-.159.148.081.07.24-.07.077.07.035-.193.443-.225-.158-.084Z" clip-rule="evenodd"/><path fill="#28AE66" fill-rule="evenodd" d="m2.905 1.8-.397-.215h-.24l.082-.07-.159-.148.081-.07.24.07.077-.07.035.193.443.225-.158.085h-.004Zm.316 0 .401.214h.24l-.082.07.162.148-.08.07-.24-.07-.08.07-.036-.193-.443-.225.158-.084Z" clip-rule="evenodd"/><path fill="#fff" fill-rule="evenodd" d="m2.585 1.8.478-.359.478.359-.478.359-.478-.359Z" clip-rule="evenodd"/><path fill="#CA3745" fill-rule="evenodd" d="m1.513 1.944.074.07-.07.07h-.078L1.218 1.8h.074l.147.214h.074l-.07-.07.07-.07h.151v.07h-.151Zm0-.288.074-.07-.07-.07h-.078l-.221.284h.074l.147-.214h.074l-.07.07.07.07h.151v-.07h-.151Zm3.1.289-.07.07.07.07h.075l.221-.285h-.07l-.151.215h-.07l.07-.07-.07-.07h-.152v.07h.148Z" clip-rule="evenodd"/><path fill="#CA3745" fill-rule="evenodd" d="m4.617 1.656-.077-.07.073-.07h.074l.222.284h-.07l-.152-.214h-.07l.07.07-.07.07h-.151v-.07h.151Zm-1.628-.14h.148v.573h-.148v-.573Z" clip-rule="evenodd"/><path fill="#CA3745" fill-rule="evenodd" d="M2.768 1.656h.59v.289h-.59v-.289Z" clip-rule="evenodd"/><path fill="#28AE66" fill-rule="evenodd" d="m2.388 12.72-1.325.73v1.19l1.338.73h1.325l1.324-.73v-1.19l-1.324-.717H2.4l-.013-.013Z" clip-rule="evenodd"/><path fill="currentColor" fill-rule="evenodd" d="m2.39 12.71.014.016h1.324l1.33.72v1.197l-1.33.733H2.4l-1.342-.733v-1.197l1.332-.735Zm-1.32.743v1.183l1.333.727h1.322l1.32-.727v-1.183l-1.32-.714H2.399l-.011-.012-1.317.726Z" clip-rule="evenodd"/><path fill="#C00" fill-rule="evenodd" d="M1.565 13.932h.078v-.15h.161v.147h.081v-.345h-.08v.148h-.159v-.148h-.08v.348Zm2.036 1.146h.08v-.147h.159v.147h.08v-.348h-.076v.148h-.162v-.148h-.078v.345l-.003.003Zm-1.287-1.722h.081v-.145h.162v.148h.077v-.344h-.077v.147h-.162v-.147h-.08v.344-.003Zm1.178 0h.08v-.145h.163v.148h.08v-.344h-.08v.147h-.162v-.147h-.081v.344-.003Zm.752.576h.078v-.15h.161v.147h.081v-.345h-.08v.148h-.162v-.148h-.078v.348Zm0 .573h.078v-.147h.161v.147h.081v-.344h-.08v.147h-.162v-.147h-.078v.344Z" clip-rule="evenodd"/><path fill="#FAAE29" fill-rule="evenodd" d="M3.063 15.307v-1.262h1.93v.573l-1.29.689H3.06h.003Zm0-2.52v1.258H1.137v-.573l1.283-.686h.643Z" clip-rule="evenodd"/><path fill="#fff" fill-rule="evenodd" d="M3.063 12.786v1.259h1.93v-.573l-1.29-.686H3.06h.003Zm0 2.52v-1.261H1.137v.573l1.283.689h.643Z" clip-rule="evenodd"/><path fill="#FAAE29" fill-rule="evenodd" d="M4.094 13.532h.773l-.773-.343v.343Zm.9-.058v.572h-1.22v-.456h-.257l-.323-.171v-.401l.196-.175h-.257v.576h-.066v-.63h.643l1.284.685Z" clip-rule="evenodd"/><path fill="currentColor" fill-rule="evenodd" d="M3.064 12.787h.645l1.285.686-.001.002h.002v.574H3.772v-.456h-.256l-.325-.172v-.403l.194-.173h-.252v.576h-.069v-.634Zm1.927.688-1.283-.684h-.64v.627h.062v-.576h.264l-.2.177v.4l.323.17h.258v.456h1.216v-.57Zm-.9-.288.776.344-.001.003H4.09v-.347Zm.004.006v.338h.763l-.763-.338Z" clip-rule="evenodd"/><path fill="#CA3745" fill-rule="evenodd" d="M2.42 13.644v.805h.193l.45.232.45-.232h.194v-.801h-.194l-.45-.23-.45.23H2.42v-.004Z" clip-rule="evenodd"/><path fill="#FAAE29" fill-rule="evenodd" d="M2.036 14.562h-.773l.773.343v-.343Zm-.9.058v-.572h1.219v.456h.258l.323.171v.401l-.196.175h.257v-.576h.066v.63H2.42l-1.284-.685Z" clip-rule="evenodd"/><path fill="currentColor" fill-rule="evenodd" d="M3.065 15.306h-.644l-1.285-.686.001-.002h-.002v-.574h1.223v.456h.256l.324.172v.403l-.193.172h.252v-.575h.068v.634Zm-1.926-.689 1.283.685h.64v-.627H3v.576h-.264l.199-.178v-.399l-.322-.17h-.259v-.457H1.14v.57Zm.9.288-.776-.343.001-.004h.775v.348Zm-.004-.005v-.338h-.763l.763.338Z" clip-rule="evenodd"/><path fill="#fff" fill-rule="evenodd" d="M2.036 13.532h-.773l.773-.343v.343Zm-.9-.058v.572h1.219v-.456h.258l.323-.171v-.401l-.196-.175h.257v.576h.066v-.63H2.42l-1.284.685Z" clip-rule="evenodd"/><path fill="currentColor" fill-rule="evenodd" d="M3.065 12.787h-.644l-1.285.686.001.002h-.002v.574h1.223v-.456h.256l.324-.172v-.403l-.193-.173h.252v.576h.068v-.634Zm-1.926.688 1.283-.684h.64v.627H3v-.576h-.264l.199.177v.4l-.322.17h-.259v.456H1.14v-.57Zm.9-.288-.776.344.001.003h.775v-.347Zm-.004.006v.338h-.763l.763-.338Z" clip-rule="evenodd"/><path fill="#fff" fill-rule="evenodd" d="M4.094 14.562h.773l-.773.343v-.343Zm.9.058v-.572h-1.22v.456h-.257l-.323.171v.401l.196.175h-.257v-.576h-.066v.63h.643l1.284-.685Z" clip-rule="evenodd"/><path fill="currentColor" fill-rule="evenodd" d="M3.064 15.306h.645l1.285-.686-.001-.002h.002v-.574H3.772v.456h-.256l-.325.172v.403l.194.172h-.252v-.575h-.069v.634Zm1.927-.689-1.283.685h-.64v-.627h.062v.576h.264l-.2-.178v-.399l.323-.17h.258v-.457h1.216v.57Zm-.9.288.776-.343-.001-.004H4.09v.348Zm.004-.005v-.338h.763l-.763.338Z" clip-rule="evenodd"/><path fill="#CA3745" fill-rule="evenodd" d="M1.523 14.506H1.6v-.176h.162v.176h.081v-.4h-.08v.171H1.6v-.175h-.077v.404Zm.77.573h.08v-.176h.159v.176h.08v-.4h-.08v.171h-.158v-.175h-.081v.407-.003Zm-.773-1.49h.08v.171h.162v-.175h.081v.408h-.08v-.176H1.6v.172h-.077v-.4H1.52Zm.773-.574h.08v.172h.159v-.175h.08v.404h-.08v-.172h-.158v.175h-.081v-.404Zm1.22 2.064h.08v-.176h.162v.176h.081v-.4h-.08v.171h-.162v-.175h-.081v.407-.003Zm.773-1.09h.081v-.172h.158v.176h.081v-.405h-.08v.173H4.37v-.176h-.08v.408l-.004-.004Z" clip-rule="evenodd"/><path fill="#CA3745" fill-rule="evenodd" d="M3.514 15.078h.08v-.176h.162v.176h.081v-.4h-.08v.172h-.162v-.176h-.081v.408-.004Z" clip-rule="evenodd"/><path fill="#CA3745" fill-rule="evenodd" d="M3.514 15.079h.08v-.176h.162v.176h.081v-.4h-.08v.171h-.162v-.175h-.081v.407-.003Zm.773-.573h.081v-.176h.158v.176h.081v-.4h-.08v.168H4.37v-.172h-.08v.404h-.004Zm-.773-1.09h.08v-.172h.162v.175h.081v-.404h-.08v.172h-.162v-.175h-.081v.404Z" clip-rule="evenodd"/><path fill="#fff" fill-rule="evenodd" d="m3.13 14.045.257-.21h.126v.105h-.126v.053h.193v-.208h-.193v-.158H3.13v.158h.063v-.105h.127v.105l-.257.211-.257-.21v-.106h.13v.105H3v-.158h-.257v.158H2.55v.211h.193v-.053h-.13v-.105h.13l.257.21-.257.208h-.13v-.105h.13v-.053H2.55v.211h.193v.155H3v-.155h-.063v.106h-.13v-.106l.256-.211.257.211v.106h-.127v-.106H3.13v.155h.257v-.155h.193v-.211h-.193v.053h.126v.105h-.126l-.257-.21Z" clip-rule="evenodd"/><path fill="#CA3745" fill-rule="evenodd" d="m1.262 5.164.124-.128h.747l.559-.562h.747L4 5.04h.747l.123.124-.123.125h-.751l-.56.566h-.747l-.555-.566h-.75l-.124-.125h.003Z" clip-rule="evenodd"/><path fill="#CA3745" fill-rule="evenodd" d="m1.326 5.175.068-.061h.77l.578-.594h.642l.58.597h.77l.065.061-.064.058h-.77l-.517.536h-.77l-.514-.536H1.39l-.064-.061Z" clip-rule="evenodd"/><path fill="currentColor" fill-rule="evenodd" d="M2.739 4.515h.646l.581.597h.77l.07.066-.07.063h-.77l-.517.536h-.774l-.514-.536h-.773l-.066-.063.004-.003-.004-.004.07-.062h.77l.577-.594Zm-1.406.66.059.056h.773l.514.536h.766l.517-.536h.77l.06-.053-.06-.056h-.77l-.581-.598h-.638l-.578.595h-.77l-.062.056Z" clip-rule="evenodd"/><path fill="#FAAE29" fill-rule="evenodd" d="m3.378 5.229.247.25-.124.124-.065-.06h-.058v.06l.062.064h.127l.123-.125v-.128l-.25-.25.25-.252v-.125l-.123-.124H3.44l-.062.06v.064h.062l.065-.064.123.129-.25.249-.247-.25.247-.252v-.064h-.062l-.246.252-.25-.252h-.062v.064l.246.253-.246.249-.25-.25.126-.128.062.064h.062v-.064l-.062-.06h-.127l-.123.124v.125l.25.253-.25.25v.127l.123.125h.127l.062-.064v-.06h-.07l-.061.06-.127-.125.25-.25.247.25-.247.253v.06h.062l.25-.249.247.25h.062V5.73l-.247-.253.247-.25h.007Zm-.312-.317-.25.253.25.25.247-.25-.247-.253Zm-.374.944v.505l.062-.067.062.067.061-.067.062.067.065-.067.062.067.062-.067.061.067.062-.067.062.067.061-.067.066.067v-.505h-.751.003Zm.748-1.382V3.97l-.066.067-.061-.067-.062.067-.062-.067-.061.067-.062-.067-.065.067-.062-.067-.062.067-.061-.067-.062.067-.062-.067v.505h.748Zm1.052.566v-.505l-.058.067-.062-.067-.061.067-.066-.067-.061.067-.062-.067-.062.067L4 4.535v.505h.497-.004Zm-2.358 0v-.505l-.066.067-.061-.067-.062.067-.062-.067-.062.067-.061-.067-.066.067-.061-.067v.505h.501Zm2.362.25v.505l-.062-.067-.062.067-.061-.067-.066.067-.061-.067-.062.067-.062-.067-.06.067V5.29h.497Zm-2.366 0v.505l-.062-.067-.061.067-.062-.067-.062.067-.062-.067-.061.067-.066-.067-.061.067V5.29h.497Z" clip-rule="evenodd"/><path fill="#28AE66" fill-rule="evenodd" d="M3.436 5.854v.313l.066-.064.061.068.062-.068.062.068.061-.068.062.068.065-.068.062.068.062-.068v-.815l-.563.566Zm-.744 0v.313l-.065-.064-.062.068-.061-.068-.062.068-.062-.068-.061.068-.062-.068-.062.068-.065-.068v-.815l.562.566Zm0-1.381v-.314l-.065.06-.062-.06-.061.06-.062-.06-.062.06-.061-.06-.062.06-.062-.06-.065.06v.82l.562-.566Zm.744 0v-.314l.066.06.061-.06.062.06.062-.06.061.06.062-.06.062.06.065-.06.062.06v.82l-.563-.566ZM1.633 5.665l-.062-.064-.062.068-.061-.068-.062.068-.062-.068-.065.068-.062-.068-.061.068V4.658l.061.067.062-.067.065.067.062-.067.062.067.061-.067.062.067.062-.067v.38h-.247l-.127.125.127.125h.247v.377Zm2.863 0 .061-.064.062.068.062-.068.065.068.062-.068.061.068.062-.068.062.068V4.658l-.062.067-.062-.067-.061.067-.062-.067-.065.067-.062-.067-.062.067-.061-.067v.38h.25l.123.125-.123.125h-.25v.377Z" clip-rule="evenodd"/><path fill="#fff" fill-rule="evenodd" d="M2.383 5.895s-.05.047-.05.074c0 .024.054.075.08.075.028 0 .076-.051.076-.075 0-.023-.051-.074-.051-.074v-.1s.109.171.109.097c0-.054-.11-.145-.11-.145h-.054s-.109.108-.109.145c0 .074.11-.098.11-.098v.101Z" clip-rule="evenodd"/><path fill="#CA3745" fill-rule="evenodd" d="M3.033 6.087s-.061.067-.061.1c0 .035.065.109.094.109.036 0 .09-.071.09-.105 0-.033-.06-.104-.06-.104v-.142s.108.23.108.125c0-.067-.109-.192-.109-.192h-.062s-.127.155-.108.192c0 .104.108-.125.108-.125v.142Z" clip-rule="evenodd"/><path fill="#28AE66" d="M2.379 5.225c.068 0 .123-.028.123-.064 0-.035-.055-.063-.123-.063s-.123.028-.123.063c0 .036.055.064.123.064Zm.686 0c.068 0 .123-.028.123-.064 0-.035-.055-.063-.123-.063s-.123.028-.123.063c0 .036.055.064.123.064Zm.683 0c.068 0 .123-.028.123-.064 0-.035-.055-.063-.123-.063s-.123.028-.123.063c0 .036.055.064.123.064Z"/><path fill="#fff" fill-rule="evenodd" d="M2.373 4.44s-.05-.05-.05-.074c0-.024.054-.078.076-.078.029 0 .076.05.076.074 0 .027-.051.078-.051.078v.1s.113-.174.113-.1c0 .054-.11.148-.11.148h-.054s-.112-.108-.112-.145c0-.074.109.094.109.094v-.1l.003.003Z" clip-rule="evenodd"/><path fill="#CA3745" fill-rule="evenodd" d="M3.019 4.246s-.062-.068-.062-.102c0-.033.069-.104.094-.104.036 0 .095.067.095.101s-.062.108-.062.108v.135s.109-.226.109-.122c0 .068-.11.196-.11.196h-.068s-.127-.159-.109-.196c0-.1.109.125.109.125v-.141h.004Z" clip-rule="evenodd"/><path fill="#fff" fill-rule="evenodd" d="M3.708 5.895s-.05.047-.05.074c0 .024.054.074.08.074.028 0 .076-.05.076-.074 0-.023-.051-.074-.051-.074v-.1s.109.171.109.097c0-.054-.11-.145-.11-.145h-.057s-.11.108-.11.145c0 .074.11-.098.11-.098v.101h.003Zm-.01-1.455s-.051-.05-.051-.078c0-.02.054-.074.076-.074.029 0 .076.05.076.074 0 .027-.05.078-.05.078v.1s.112-.174.112-.1c0 .054-.11.148-.11.148h-.054s-.112-.108-.112-.145c0-.074.109.094.109.094v-.1l.003.003Z" clip-rule="evenodd"/><path fill="#CA3745" fill-rule="evenodd" d="M1.844 5.545s-.07.047-.07.067c0 .024.073.074.106.07.036 0 .101-.043.101-.067 0-.023-.069-.07-.069-.07V5.45s.124.152.124.085c0-.048-.123-.132-.123-.132h-.07s-.14.108-.12.132c0 .067.12-.085.12-.085v.095Zm-.015-.711s-.069-.047-.069-.071c0-.024.073-.07.105-.067.037 0 .102.043.102.067 0 .024-.069.067-.069.067v.095s.123-.152.123-.081c0 .044-.123.128-.123.128h-.069s-.141-.105-.12-.128c0-.068.12.08.12.08v-.09Zm2.406.694s-.073.047-.073.07c0 .024.076.071.109.071.036 0 .102-.047.102-.067 0-.027-.073-.074-.073-.074v-.091s.123.151.123.08c0-.043-.12-.127-.12-.127h-.072s-.138.104-.12.128c0 .07.124-.081.124-.081v.094-.003ZM4.22 4.82s-.072-.047-.072-.07c0-.024.076-.071.109-.071.036 0 .101.047.101.067 0 .027-.072.07-.072.07v.095s.123-.151.123-.084c0 .047-.12.131-.12.131h-.072s-.138-.104-.12-.128c0-.07.123.081.123.081v-.094.003Z" clip-rule="evenodd"/><path fill="#fff" fill-rule="evenodd" d="M1.335 5.539c-.022-.044-.014-.064-.014-.088 0-.023.061-.067.083-.067.029 0 .076.047.076.074 0 .023 0 .044-.01.087l-.03-.07c-.04.1-.043.1-.065-.004l-.036.068h-.004Zm0-.725c-.018.044-.014.064-.014.088 0 .024.061.067.087.067.029 0 .076-.047.076-.074 0-.023 0-.044-.011-.087l-.033.07c-.036-.1-.04-.1-.065.004l-.036-.068h-.004Zm3.356.715c-.021-.044-.018-.064-.018-.088 0-.024.066-.067.087-.067.03 0 .076.05.076.074 0 .023 0 .047-.01.087l-.033-.07c-.036.1-.04.104-.065 0l-.037.064Zm0-.721c-.021.04-.014.06-.014.087 0 .02.062.068.083.068.03 0 .08-.051.08-.075 0-.027 0-.047-.01-.09l-.037.074c-.036-.105-.036-.108-.062 0l-.036-.068-.004.004Z" clip-rule="evenodd"/><path fill="#CA3745" fill-rule="evenodd" d="M2.682 6.374v-.182h-.58v-.357h-.516v-.118h-.45V4.64h.45v-.118H2.1v-.357h.58v-.179h.77v.179h.58v.357h.512v.121h.454v1.075h-.45v.118h-.512v.357h-.58v.179h-.77l-.003.003Zm-.066.058v-.179h-.58v-.357h-.512v-.121h-.45V4.582h.45v-.118h.512v-.36h.58v-.18h.9v.18h.58v.36h.512v.118h.45v1.193h-.45v.12h-.515v.358h-.58v.179h-.897Z" clip-rule="evenodd"/><path fill="currentColor" fill-rule="evenodd" d="M2.614 3.923h.904V4.1h.58v.36h.512v.119h.45v1.196h-.45v.121h-.515v.358h-.58v.178h-.899V6.43h-.002v-.176h-.58v-.358h-.512v-.12h-.45V4.58h.45v-.118h.512v-.36h.58v-.18Zm.004 2.507h.893v-.18h.58v-.357h.515v-.121h.45v-1.19h-.45v-.118h-.511v-.36h-.58v-.179h-.897v.179h-.58v.36h-.512v.118h-.45v1.19h.45v.12h.511v.358h.58v.179Zm.062-2.446h.772v.178h.581v.357h.512v.122h.453v1.078h-.45v.118h-.511v.357h-.581v.178h-.77l-.006.006v-.184H2.1v-.357h-.516v-.118h-.45V4.637h.45V4.52h.515v-.357h.58v-.179Zm.003.003v.179h-.58v.357h-.516v.118h-.45v1.074h.45v.118h.516v.357h.58v.18l.001-.001h.769V6.19h.58v-.357h.512v-.118h.45V4.644H4.54v-.121h-.51v-.357h-.58v-.179h-.766Z" clip-rule="evenodd"/></g><defs><clipPath id="a"><path fill="#fff" d="M0 0h24v18H0z"/></clipPath></defs></svg>