<svg xmlns="http://www.w3.org/2000/svg" width="24" height="18" fill="none"><g fill-rule="evenodd" clip-path="url(#a)" clip-rule="evenodd"><path fill="#E70013" d="M-1.5 0h27v18h-27V0Z"/><path fill="#fff" d="M16.564 8.993a4.539 4.539 0 1 1-9.078 0 4.539 4.539 0 0 1 9.078 0Z"/><path fill="#E70013" d="M12.024 12.003a3.012 3.012 0 0 1 0-6.023c.415 0 .89.099 1.21.334-2.201.081-2.76 1.952-2.76 2.704 0 .752.355 2.43 2.76 2.679-.275.176-.795.306-1.21.306Z"/><path fill="#E70013" d="m14.675 10.259-1.367-.5-.904 1.14.053-1.453-1.364-.51 1.399-.4.06-1.452.815 1.206 1.4-.387-.897 1.143.805 1.213Z"/></g><defs><clipPath id="a"><path fill="#fff" d="M0 0h24v18H0z"/></clipPath></defs></svg>