<svg xmlns="http://www.w3.org/2000/svg" width="24" height="18" fill="none"><g fill-rule="evenodd" clip-path="url(#a)" clip-rule="evenodd"><path fill="#E30A17" d="M0 0h24v18H0V0Z"/><path fill="#fff" d="M15.262 9.281c0 2.483-2.047 4.497-4.575 4.497-2.527 0-4.575-2.014-4.575-4.5 0-2.487 2.048-4.493 4.575-4.493 2.528 0 4.575 2.014 4.575 4.496Z"/><path fill="#E30A17" d="M15.488 9.282c0 1.987-1.635 3.596-3.657 3.596-2.02 0-3.66-1.613-3.66-3.6s1.64-3.592 3.66-3.592c2.022 0 3.66 1.608 3.66 3.596h-.003Z"/><path fill="#fff" d="m16.15 7.18-.037 1.662-1.548.42 1.53.544-.038 1.526.994-1.193 1.507.525-.87-1.278 1.062-1.272-1.632.45-.967-1.387v.004Z"/></g><defs><clipPath id="a"><path fill="#fff" d="M0 0h24v18H0z"/></clipPath></defs></svg>