<svg xmlns="http://www.w3.org/2000/svg" width="24" height="18" fill="none"><g clip-path="url(#a)"><path fill="#009FCA" d="M0 0h24v18H0V0Z"/><path fill="#FFF40D" fill-rule="evenodd" d="M22.249 4.601h1.038l-.836.57.319.926-.836-.573-.833.573.319-.926-.836-.57h1.03l.32-.926.315.926Zm-2.595 7.38h1.035l-.837.57.32.926-.837-.573-.836.573.322-.926-.836-.57h1.027l.32-.926.322.926Zm2.595-1.672h1.038l-.836.57.319.926-.836-.574-.833.574.319-.926-.836-.57h1.03l.32-.927.315.927Zm-11.157 5.355h1.035l-.84.566.323.922-.836-.57-.837.57.323-.922-.84-.574h1.035l.319-.922.318.93Zm2.348-2.87h-1.035l.836-.573-.319-.922.837.57.836-.57-.323.922.837.574h-1.032l-.318.922-.32-.922Zm3.049-4.218h-1.04l.837-.57-.319-.926.837.574.836-.574-.323.926.837.57h-1.032l-.318.926-.315-.926Zm2.56-.874h-1.034l.84-.573-.323-.923.837.57.836-.57-.323.923.84.573h-1.035l-.318.923-.32-.923ZM16.49 15h-1.04l.837-.57-.311-.93.836.57.836-.57-.322.926.836.57H17.13l-.319.926L16.49 15Zm-3.05.746h-1.034l.836-.57-.319-.926.837.57.836-.57-.323.922.84.578h-1.03l-.32.926-.322-.93Z" clip-rule="evenodd"/><path fill="#012169" d="M0 0h12v9H0V0Z"/><path fill="#fff" d="m1.406 0 4.575 3.394L10.537 0H12v1.163L7.5 4.518 12 7.856V9h-1.5L6 5.644 1.519 9H0V7.875l4.481-3.338L0 1.2V0h1.406Z"/><path fill="#C8102E" d="M7.95 5.269 12 8.25V9L6.919 5.269H7.95Zm-3.45.375.112.656-3.6 2.7H0l4.5-3.356ZM12 0v.056L7.331 3.581l.038-.825L11.063 0H12ZM0 0l4.481 3.3H3.356L0 .788V0Z"/><path fill="#fff" d="M4.519 0v9h3V0h-3ZM0 3v3h12V3H0Z"/><path fill="#C8102E" d="M0 3.619v1.8h12v-1.8H0ZM5.119 0v9h1.8V0h-1.8Z"/></g><defs><clipPath id="a"><path fill="#fff" d="M0 0h24v18H0z"/></clipPath></defs></svg>