<svg xmlns="http://www.w3.org/2000/svg" width="24" height="18" fill="none"><g fill-rule="evenodd" clip-path="url(#a)" clip-rule="evenodd"><path fill="#FE0000" d="M0 0h27v18H0V0Z"/><path fill="#000095" d="M0 0h13.56v9H0V0Z"/><path fill="#fff" d="m9.917 6.28-1.662-.345.351 1.663L7.34 6.469l-.527 1.617-.534-1.613-1.266 1.139.345-1.667-1.66.355 1.125-1.269-1.617-.527 1.617-.534-1.139-1.26 1.663.342-.351-1.663L6.26 2.518 6.788.9l.535 1.614 1.262-1.139-.341 1.666 1.66-.355-1.126 1.27 1.614.527-1.614.534 1.14 1.262Z"/><path fill="#000095" d="m8.385 6.152-.527.278-.51.302-.598-.02-.594.006-.503-.316-.52-.285-.281-.527-.303-.51.021-.59-.007-.598.317-.5.292-.52.523-.278.514-.302.594.021.597-.007.503.316.517.289.281.524.303.51-.021.593.007.595-.317.502-.288.517Z"/><path fill="#fff" d="M8.6 4.511a1.825 1.825 0 1 1-3.647.16 1.825 1.825 0 0 1 3.646-.16Z"/></g><defs><clipPath id="a"><path fill="#fff" d="M0 0h24v18H0z"/></clipPath></defs></svg>