<svg xmlns="http://www.w3.org/2000/svg" width="24" height="18" fill="none"><g fill-rule="evenodd" clip-path="url(#a)" clip-rule="evenodd"><path fill="#FFE700" d="M-1.5 12.002h27v2.999h-27v-2.999Z"/><path fill="currentColor" d="M-1.5 9h27v2.999h-27V9Z"/><path fill="#DE3908" d="M-1.5 6.001h27V9h-27V6Z"/><path fill="#FFE700" d="M-1.5 3.002h27V6h-27V3Z"/><path fill="currentColor" d="M-1.5 0h27v2.999h-27V0Z"/><path fill="#FFFDFF" d="M14.802 9a2.802 2.802 0 1 1-5.604 0 2.802 2.802 0 0 1 5.604 0Z"/><path fill="currentColor" d="M12 6.216a2.784 2.784 0 1 0 0 5.569 2.784 2.784 0 0 0 0-5.57Zm-1.993.79a2.82 2.82 0 1 1 3.987 3.988 2.82 2.82 0 0 1-3.987-3.988Z"/><path fill="#DE3108" d="m11.508 6.852-.183-.334c.07-.07.187-.126.376-.126l-.02.369-.176.091h.003Z"/><path fill="currentColor" d="m11.347 6.522.168.305.149-.077.019-.34c-.167.003-.27.051-.336.112Zm.184.336.166-.086.023-.398h-.018c-.194 0-.315.057-.389.132l-.01.009.19.346.008-.005.004.014h.033l-.007-.012Z"/><path fill="#FFE700" d="m11.683 6.76.025-.369s.376-.021.58.225l-.2.288-.408-.14.003-.004Z"/><path fill="currentColor" d="m11.724 6.408-.023.345.38.13.185-.266a.632.632 0 0 0-.348-.189.942.942 0 0 0-.193-.02Zm-.058.344.025-.378h.016v.017-.017h.005a.509.509 0 0 1 .059 0 .985.985 0 0 1 .154.02.66.66 0 0 1 .377.21l.008.011-.216.31-.446-.154.018-.019Z"/><path fill="#DE3108" d="m12.092 6.902.186-.289c.123.13.176.222.194.362a3.92 3.92 0 0 1-.292.07l-.088-.143Z"/><path fill="currentColor" d="m12.275 6.585.015.016c.125.132.18.226.198.371v.008a.017.017 0 0 1-.005.008l-.005.004a6.484 6.484 0 0 1-.298.072h-.003l-.006-.003a.018.018 0 0 1-.007-.007l-.088-.143.015-.01-.015-.009.199-.307Zm-.163.317.076.125.033-.007a6.547 6.547 0 0 0 .23-.056c-.017-.123-.065-.207-.17-.322l-.17.26Zm.082.135Z"/><path fill="currentColor" d="M11.6 11.64s.347-.398 1.022-.314c-.101-.165-.432-.144-.432-.144s-.098-.773-.021-.815c.077-.043.422.003.422.003.042 0 .12-.12.056-.197-.06-.077-.239-.369-.165-.429.074-.056.47.036.47.036l-1.124-1.442s-.116-.545.116-.808c.278-.229.246-.479.239-.475-.039-.253-.422-.432-.682-.2-.151.182-.05.323-.05.323s-.404.109-.418.18c-.017.07.454-.011.454-.011l-.046.32s-.914.83-.21 1.547l.02-.029s.246.303.503.37c.246.246.222.21.222.21s.045.39 0 .468c-.06-.018-.679-.042-.77-.007-.085.028-.401.01-.324.53l.116-.263s-.01.187.067.253a.571.571 0 0 1 .074-.33s.014.218.063.246c.05.035.05-.352.316-.316.26.031.454.02.454.02s.088.753.06.823c-.19-.045-.647.018-.675.134.267-.018.39.014.39.014s-.214.193-.148.302Z"/><path fill="currentColor" d="M12.197 7.049c-.022-.132-.132-.243-.267-.29a.431.431 0 0 0-.442.086.319.319 0 0 0-.085.242.248.248 0 0 0 .024.081 3.359 3.359 0 0 0-.185.059 1.285 1.285 0 0 0-.145.059.323.323 0 0 0-.052.031c-.013.01-.025.022-.028.037a.028.028 0 0 0 .005.025c.005.006.012.01.02.013a.179.179 0 0 0 .053.01c.043.002.101-.002.16-.008a3.503 3.503 0 0 0 .212-.028l-.042.293-.006.006a1.291 1.291 0 0 0-.123.133 1.78 1.78 0 0 0-.24.367c-.07.15-.12.323-.106.506.014.182.09.372.268.554a.016.016 0 0 0 .024-.002l.01-.012.03.034c.027.03.066.07.113.112.093.083.22.177.35.212a6.056 6.056 0 0 0 .215.207v.008l.005.045c.004.038.008.089.011.142.003.054.004.11.002.156a.49.49 0 0 1-.012.088 6.506 6.506 0 0 0-.61-.021 1.423 1.423 0 0 0-.096.006.268.268 0 0 0-.06.011.333.333 0 0 1-.04.01h-.001a.914.914 0 0 0-.055.011.345.345 0 0 0-.131.063c-.087.069-.146.201-.107.464a.016.016 0 0 0 .013.014.016.016 0 0 0 .017-.01l.087-.197a.545.545 0 0 0 .023.118.18.18 0 0 0 .048.075.016.016 0 0 0 .017.002.016.016 0 0 0 .009-.016.58.58 0 0 1 .047-.274 1.1 1.1 0 0 0 .029.146.134.134 0 0 0 .015.034c.005.01.013.019.022.024a.025.025 0 0 0 .022.004.033.033 0 0 0 .016-.012.162.162 0 0 0 .018-.039l.01-.03.033-.088a.3.3 0 0 1 .08-.112.18.18 0 0 1 .144-.037 3.148 3.148 0 0 0 .421.023h.02l.002.017a13.472 13.472 0 0 1 .062.733c0 .013 0 .024-.002.033v.004a1.196 1.196 0 0 0-.579.061.277.277 0 0 0-.065.038.095.095 0 0 0-.034.05.016.016 0 0 0 .016.019 1.913 1.913 0 0 1 .356.008l-.01.011a.804.804 0 0 0-.068.08.38.38 0 0 0-.057.103c-.011.036-.013.074.007.107l.014-.008.011.01.001-.001.003-.003a1.062 1.062 0 0 1 .25-.18c.17-.088.422-.165.756-.124a.016.016 0 0 0 .015-.024c-.055-.089-.17-.126-.265-.141a.923.923 0 0 0-.167-.01l-.002-.02a10.452 10.452 0 0 1-.036-.358 3.13 3.13 0 0 1-.01-.277c0-.039.003-.071.007-.095a.123.123 0 0 1 .008-.028c.003-.006.005-.008.006-.008a.118.118 0 0 1 .035-.01 1.42 1.42 0 0 1 .196-.002 2.908 2.908 0 0 1 .166.015l.011.002h.006c.017 0 .034-.011.047-.024a.178.178 0 0 0 .035-.055c.018-.042.023-.098-.013-.143a1.413 1.413 0 0 1-.131-.218.56.56 0 0 1-.045-.123.131.131 0 0 1-.003-.044.045.045 0 0 1 .01-.022.08.08 0 0 1 .035-.011.361.361 0 0 1 .06-.004c.047 0 .103.007.157.015a2.85 2.85 0 0 1 .202.037h.003l.001.001a.016.016 0 0 0 .018-.007.016.016 0 0 0-.001-.018l-1.123-1.438v-.003a1.188 1.188 0 0 1-.014-.082 1.666 1.666 0 0 1-.014-.214c0-.168.029-.365.14-.492a.673.673 0 0 0 .23-.331.442.442 0 0 0 .017-.147.078.078 0 0 0-.004-.014Zm-.37 1.29-.015.003V8.34l-.002-.005a1.592 1.592 0 0 1-.028-.302c0-.17.03-.377.15-.514l.001-.001a.643.643 0 0 0 .221-.317.408.408 0 0 0 .015-.137.016.016 0 0 1-.003-.006c-.018-.12-.118-.224-.247-.27a.4.4 0 0 0-.407.078c-.073.088-.084.164-.077.217a.212.212 0 0 0 .025.08l.003.005c.004.005.005.01.003.015a.016.016 0 0 1-.011.01h-.001l-.003.002a1.28 1.28 0 0 0-.059.016 3.1 3.1 0 0 0-.14.045 1.24 1.24 0 0 0-.141.058.296.296 0 0 0-.047.028c-.011.009-.015.015-.016.018.002 0 .003.002.005.003a.152.152 0 0 0 .044.007c.04.002.097-.001.154-.007a3.444 3.444 0 0 0 .212-.028l.015-.003h.005a.016.016 0 0 1 .019.017l-.046.32a.016.016 0 0 1-.005.01l-.002.002a.372.372 0 0 0-.035.034 1.785 1.785 0 0 0-.329.463.984.984 0 0 0-.104.49c.013.17.083.349.247.521l.01-.013a.016.016 0 0 1 .025 0l.002.002a.497.497 0 0 0 .04.045 1.7 1.7 0 0 0 .111.11.893.893 0 0 0 .348.21 6.193 6.193 0 0 0 .214.207c.004 0 .007.003.01.007l-.013.009-.015.001.015-.001.013-.01v.001a.021.021 0 0 1 .003.008v.004l.001.012.005.045c.004.038.008.09.01.144.004.053.005.11.003.158a.532.532 0 0 1-.006.066.145.145 0 0 1-.016.047.016.016 0 0 1-.018.007 2.295 2.295 0 0 0-.13-.013 6.225 6.225 0 0 0-.484-.01 1.404 1.404 0 0 0-.093.006.238.238 0 0 0-.053.01.345.345 0 0 1-.043.01h-.002a.787.787 0 0 0-.053.012.312.312 0 0 0-.12.056c-.068.055-.124.16-.102.38l.093-.212a.016.016 0 0 1 .03.007m0 0v.008a.682.682 0 0 0 .005.09.368.368 0 0 0 .029.106.612.612 0 0 1 .074-.284c0-.002.002-.004.003-.005v-.001l.014.008-.013-.009a.016.016 0 0 1 .017-.006.016.016 0 0 1 .012.014v.01l.003.025a1.3 1.3 0 0 0 .01.077.54.54 0 0 0 .031.11.043.043 0 0 0 .008.01.172.172 0 0 0 .013-.029l.01-.027c.009-.027.02-.06.034-.092a.33.33 0 0 1 .09-.125.211.211 0 0 1 .167-.043 3.128 3.128 0 0 0 .417.022h.033v-.001c.009 0 .016.006.017.014l-.016.002.016-.002v.008c.002.006.002.014.004.025l.01.086a18.04 18.04 0 0 1 .048.546 1.662 1.662 0 0 1 .002.14l-.005.025a.016.016 0 0 1-.019.01 1.118 1.118 0 0 0-.391.006.841.841 0 0 0-.183.05.245.245 0 0 0-.07.045 1.884 1.884 0 0 1 .343.01.422.422 0 0 1 .018.004l.004.001h.002l-.004.016.004-.015c.006.001.01.006.012.011a.016.016 0 0 1-.005.016l-.002.002a.605.605 0 0 0-.03.029.775.775 0 0 0-.065.077.353.353 0 0 0-.052.094.112.112 0 0 0-.004.06 1.096 1.096 0 0 1 .246-.174c.167-.086.414-.163.737-.13a.388.388 0 0 0-.222-.099.893.893 0 0 0-.161-.01h-.013a.016.016 0 0 1-.018-.014l.016-.002-.015.002v-.002l-.002-.006-.003-.025-.01-.088a8.35 8.35 0 0 1-.025-.271 2.847 2.847 0 0 1-.011-.28.64.64 0 0 1 .008-.1.156.156 0 0 1 .01-.035.048.048 0 0 1 .02-.024.146.146 0 0 1 .045-.014.471.471 0 0 1 .06-.005c.044-.002.095 0 .143.003a3.094 3.094 0 0 1 .168.016h.007a.07.07 0 0 1 .004.001h.003c.004 0 .013-.004.023-.015a.145.145 0 0 0 .03-.044c.014-.037.017-.08-.01-.111a1.58 1.58 0 0 1-.135-.225.583.583 0 0 1-.047-.13.162.162 0 0 1-.003-.054.065.065 0 0 1 .022-.043.11.11 0 0 1 .049-.018.395.395 0 0 1 .066-.003c.049 0 .106.006.16.014a2.852 2.852 0 0 1 .167.03l-1.098-1.407a.017.017 0 0 1-.003-.006l.015-.004m.342-1.276Z"/><path fill="#9CA69C" d="M11.704 7.551s-.664.732-.376 1.29c.014-.077.007-.126.018-.122-.018-.011.08.066.074.052a.627.627 0 0 0-.028-.13l.088.025-.053-.099.13.014s-.046-.12-.032-.12l.106.008c-.19-.338-.01-.619.073-.921v.003Z"/><path fill="#9CA69C" d="M11.707 7.532a.016.016 0 0 1 .014.016v.004a.016.016 0 0 1-.003.009c-.018.06-.039.12-.06.18a3.02 3.02 0 0 0-.077.258.626.626 0 0 0 .064.462.016.016 0 0 1-.015.024l-.09-.006a.431.431 0 0 0 .025.079l.005.013.001.004v.001a.016.016 0 0 1-.016.021l-.1-.01.039.072a.016.016 0 0 1-.018.022l-.06-.017a.728.728 0 0 1 .02.105v.002a.016.016 0 0 1-.019.018l-.005-.001a.525.525 0 0 1-.058-.04v.005a.678.678 0 0 1-.01.092.016.016 0 0 1-.03.004c-.147-.287-.05-.615.08-.87a2.262 2.262 0 0 1 .27-.405l.021-.024.004-.005v-.001a.016.016 0 0 1 .018-.012Zm-.042.09a2.185 2.185 0 0 0-.242.372c-.122.237-.21.531-.103.792l.003-.035V8.75l.002-.026c.001-.003.002-.008.005-.012.004-.01.014-.01.015-.009l.005.001h.002l.002.002a.016.016 0 0 1 .006.006l.001.001a.811.811 0 0 0 .04.031.593.593 0 0 0-.02-.083l-.003-.01v-.003h-.001l.015-.006m.211-.19a.659.659 0 0 1-.053-.459 1.884 1.884 0 0 1 .079-.262c.012-.036.025-.071.036-.107m.272-.702s.035.253-.106.323c-.017.018-.105.046-.091.099.014.07.053.056.105.042.144-.025.313-.33.092-.464Z"/><path fill="#9CA69C" d="m11.914 6.888.032.019a.223.223 0 0 1 .107.136.271.271 0 0 1-.008.157.367.367 0 0 1-.08.134.22.22 0 0 1-.116.069l-.006.002-.031.007a.098.098 0 0 1-.037.002.055.055 0 0 1-.034-.021.109.109 0 0 1-.018-.045c-.01-.039.018-.065.04-.081a.395.395 0 0 1 .036-.022l.013-.008a.038.038 0 0 0 .007-.004l.002-.002.002-.002c.062-.03.088-.103.096-.174a.579.579 0 0 0 0-.128v-.002l-.005-.037Zm.043.07v.004a.609.609 0 0 1-.003.097c-.009.073-.036.16-.113.2a.38.38 0 0 0-.058.036c-.021.016-.03.03-.026.044v.001a.074.074 0 0 0 .012.031.02.02 0 0 0 .012.008c.006.001.014 0 .024-.001l.028-.007.008-.002h.001a.185.185 0 0 0 .097-.06.332.332 0 0 0 .072-.12.237.237 0 0 0 .008-.137.183.183 0 0 0-.062-.094Z"/><path fill="#fff" d="M11.69 7.137a.053.053 0 1 1-.105 0 .053.053 0 0 1 .105 0Z"/><path fill="#DE3108" d="M11.476 7.348c-.035.031-.218.221-.035.291.187-.049.134-.084.176-.126 0-.088-.091-.11-.14-.162v-.003Z"/><path fill="currentColor" d="M11.494 7.344V7.31l-.03.026a.479.479 0 0 0-.103.137.15.15 0 0 0-.013.102c.01.035.038.063.087.082l.005.002.006-.001c.093-.025.132-.047.151-.072a.113.113 0 0 0 .016-.031l.001-.004a.066.066 0 0 1 .015-.024l.006-.005v-.008c0-.051-.028-.083-.059-.108a.605.605 0 0 0-.047-.033.27.27 0 0 1-.035-.028Zm-.02.03a.428.428 0 0 0-.08.113c-.014.028-.019.055-.012.077.005.02.022.041.06.057.089-.024.116-.043.127-.058a.08.08 0 0 0 .011-.021l.002-.004a.102.102 0 0 1 .017-.031c-.002-.033-.02-.054-.045-.074l-.031-.023a1.713 1.713 0 0 1-.048-.036Z"/><path fill="#9CA69C" d="M11.88 9.158c-.01.042-.052.197.004.317.162-.07.236-.05.288-.014a1.262 1.262 0 0 1-.291-.303Z"/><path fill="#9CA69C" d="M11.894 9.148c.107.15.16.195.288.3a.016.016 0 0 1-.018.025.168.168 0 0 0-.095-.03.44.44 0 0 0-.178.046.016.016 0 0 1-.021-.008.389.389 0 0 1-.028-.195.762.762 0 0 1 .022-.127l.001-.005.016.004.013-.01Zm-.006.047c.076.102.126.153.203.218a.448.448 0 0 0-.198.04.372.372 0 0 1-.02-.165.667.667 0 0 1 .015-.093Z"/><path fill="#fff" d="m12.154 9.883.007.358s.127.021.183 0c.056-.02 0-.246-.19-.358Z"/><path fill="#fff" d="M12.146 9.868a.016.016 0 0 1 .017 0 .478.478 0 0 1 .193.221.284.284 0 0 1 .025.102.097.097 0 0 1-.006.039.044.044 0 0 1-.025.025.193.193 0 0 1-.057.01.51.51 0 0 1-.113-.006l-.015-.002h-.006l.002-.016-.002.015a.016.016 0 0 1-.013-.015l-.007-.359c0-.005.003-.01.008-.014Zm.031.359h.007a.842.842 0 0 0 .107.007.183.183 0 0 0 .048-.008c.002 0 .004-.003.006-.008a.068.068 0 0 0 .004-.026.251.251 0 0 0-.022-.09.447.447 0 0 0-.156-.19l.006.315Z"/><path fill="#9CA69C" d="M13.055 9.928s-.229-.556-.816-.696c-.587-.14-.51-.767-.464-.805.028-.053.046-.137.214-.057.17.081.95.471 1.062.493.113.02.014 1.079.007 1.065h-.003Z"/><path fill="currentColor" d="m11.8 8.417-.01.018-.001.003-.003.002-.004.008a.463.463 0 0 0-.02.103.736.736 0 0 0 .025.235c.047.174.17.36.456.429.298.071.505.248.638.406a1.41 1.41 0 0 1 .167.252 8.549 8.549 0 0 0 .034-.466c.006-.132.008-.265.001-.366a.69.69 0 0 0-.016-.122.12.12 0 0 0-.012-.032.025.025 0 0 0-.005-.006l-.002-.001a.481.481 0 0 1-.074-.025 13.506 13.506 0 0 1-.44-.2 44.918 44.918 0 0 1-.331-.16l-.07-.035-.151-.074c-.083-.04-.122-.035-.143-.023a.082.082 0 0 0-.027.03.347.347 0 0 0-.01.02l-.003.004Zm1.239 1.518-.001-.002-.002-.004a1.15 1.15 0 0 0-.182-.285 1.157 1.157 0 0 0-.619-.395.616.616 0 0 1-.482-.453.768.768 0 0 1-.012-.334.191.191 0 0 1 .01-.028.063.063 0 0 1 .01-.018l.007-.014.002-.004a.311.311 0 0 1 .011-.023.116.116 0 0 1 .04-.042c.036-.022.09-.02.176.022l.152.073.07.035.33.16a13.527 13.527 0 0 0 .438.2c.032.012.055.02.068.022a.047.047 0 0 1 .03.024.154.154 0 0 1 .016.042.714.714 0 0 1 .017.128c.007.103.005.237 0 .37a8.788 8.788 0 0 1-.042.521l-.002.006s0 .002-.002.003a.019.019 0 0 1-.008.006h-.022l-.004-.01Z"/><path fill="#DE3108" d="M12.5 9.229c-.01.007.784.47.544.868.226-.151.155-.411.155-.411s.183.481-.267.717c.05.042.08.035.08.035l-.076.074s-.036.06.267-.088c-.081.067-.088.116-.088.116s.02.063.218-.109c-.158.172-.194.26-.194.257.433-.036 1.372-1.442-.295-1.853l.074.077-.422.317h.004Z"/><path fill="currentColor" d="M12.83 8.827a.016.016 0 0 1 .017-.007c.419.103.677.27.82.464a.77.77 0 0 1 .127.622c-.041.207-.149.4-.273.546a.976.976 0 0 1-.194.176.415.415 0 0 1-.185.075.014.014 0 0 1-.011-.001.016.016 0 0 1-.008-.01v-.004c0-.004.001-.007.003-.01l.007-.012a1.247 1.247 0 0 1 .09-.131.22.22 0 0 1-.07.03c-.019.004-.032.002-.041-.004a.033.033 0 0 1-.01-.01l-.002-.003v-.002l.014-.006-.016-.002v-.001l.001-.003.002-.008a.223.223 0 0 1 .028-.05 1.73 1.73 0 0 1-.09.039.371.371 0 0 1-.082.024.056.056 0 0 1-.022 0 .024.024 0 0 1-.016-.014.023.023 0 0 1 .001-.019v-.001h.001l.014.007-.014-.008.003-.003.054-.052a.172.172 0 0 1-.057-.034.016.016 0 0 1 .003-.026.51.51 0 0 0 .294-.434.643.643 0 0 0 0-.094.374.374 0 0 1-.165.25.016.016 0 0 1-.023-.022.307.307 0 0 0 .013-.288.877.877 0 0 0-.197-.273 2.133 2.133 0 0 0-.32-.259l-.006-.004a.846.846 0 0 1-.04-.031.016.016 0 0 1 .006-.018l.407-.305-.061-.065a.016.016 0 0 1-.002-.019Zm-.307.401.015.011.006.004.079.056c.07.05.16.122.245.207a.907.907 0 0 1 .205.283.35.35 0 0 1 .014.253.344.344 0 0 0 .103-.21.43.43 0 0 0-.006-.14V9.69a.016.016 0 0 1 .03-.01l-.016.006.015-.006v.002l.002.004.006.017a.718.718 0 0 1 .028.254.538.538 0 0 1-.289.448c.014.01.026.014.034.016l.012.002h.003a.016.016 0 0 1 .014.027l-.059.056a.468.468 0 0 0 .063-.02c.039-.016.093-.04.168-.076a.016.016 0 0 1 .017.026.297.297 0 0 0-.07.08.127.127 0 0 0-.01.02l.014-.001c.026-.005.077-.03.176-.116a.016.016 0 0 1 .021.001.016.016 0 0 1 0 .022 1.586 1.586 0 0 0-.175.225.433.433 0 0 0 .142-.065.949.949 0 0 0 .187-.17 1.2 1.2 0 0 0 .266-.532.739.739 0 0 0-.122-.597c-.131-.179-.365-.336-.748-.439l.036.038a.016.016 0 0 1 .004.012.016.016 0 0 1-.006.011l-.404.303Zm.591 1.312-.016-.002.001.007.015-.005Z"/><path fill="#fff" d="M12.535 9.09c.105.078.144.106.158.141-.098-.02-.186-.014-.186-.014s-.215-.204-.253-.221c-.028 0-.197-.106-.197-.106-.081-.042-.158-.327.147-.246.118.061.239.115.363.162l.376.12.218.242s-.387-.19-.436-.193a.69.69 0 0 1 .165.204c-.123-.036-.229-.07-.355-.088Z"/><path fill="currentColor" d="M12.016 8.817a.127.127 0 0 0 .048.06l.002.001.006.004a7.247 7.247 0 0 1 .08.048 1.375 1.375 0 0 0 .098.05h.003c.002 0 .004 0 .006.002a.884.884 0 0 1 .06.044 3.461 3.461 0 0 1 .164.148l.025.023.004.004a.4.4 0 0 1 .05 0c.027 0 .06.003.097.008a2.114 2.114 0 0 0-.132-.104l-.002-.001.01-.013.001-.016c.106.015.197.042.294.07l.026.008a.734.734 0 0 0-.142-.166.016.016 0 0 1-.005-.018.016.016 0 0 1 .016-.01c.009 0 .022.005.037.01l.057.023a4.84 4.84 0 0 1 .275.127l-.16-.18-.373-.118a3.288 3.288 0 0 1-.363-.162c-.074-.019-.122-.015-.151-.002a.08.08 0 0 0-.046.066.181.181 0 0 0 .015.094Zm1.144.351-.007.014-.004-.002-.013-.006a20.306 20.306 0 0 0-.182-.087 4.848 4.848 0 0 0-.164-.073.719.719 0 0 1 .11.152l.003.004v.001l-.014.008.014-.007a.016.016 0 0 1-.018.022l-.065-.019c-.076-.022-.147-.043-.223-.058l.06.048a.16.16 0 0 1 .05.06.016.016 0 0 1-.018.021.702.702 0 0 0-.18-.013h-.002m-.001-.016-.01.012-.003-.002-.007-.007-.025-.023a7.32 7.32 0 0 0-.196-.174.164.164 0 0 0-.017-.012h.005v-.015l-.007.014.002.001a.352.352 0 0 1-.045-.018 1.39 1.39 0 0 1-.128-.072l-.02-.012-.005-.004h-.002a.157.157 0 0 1-.06-.076.213.213 0 0 1-.019-.11.112.112 0 0 1 .065-.09c.039-.019.096-.02.174 0l.003.001c.117.061.237.115.36.161l.376.12.007.004.218.243a.016.016 0 0 1-.02.024l.008-.014m-.653.065a.016.016 0 0 1-.012-.004l.011-.012"/><path fill="#fff" d="M11.033 7.394a.016.016 0 1 1-.007-.03l.004.015-.004-.016h.004a2.78 2.78 0 0 1 .054-.014 6.832 6.832 0 0 1 .274-.057.725.725 0 0 1 .074-.008c.006 0 .012 0 .017.002a.016.016 0 0 1 .01.02.016.016 0 0 1-.02.01h-.024a2.869 2.869 0 0 0-.323.064 5.907 5.907 0 0 0-.055.013l-.004.001Z"/><path fill="#DE3908" d="M-1.5 15.001h27V18h-27v-3Z"/></g><defs><clipPath id="a"><path fill="#fff" d="M0 0h24v18H0z"/></clipPath></defs></svg>