<svg xmlns="http://www.w3.org/2000/svg" width="24" height="18" fill="none"><g fill-rule="evenodd" clip-path="url(#a)" clip-rule="evenodd"><path fill="#BD3D44" d="M0 0h34.2v1.385H0V0Zm0 2.77h34.2v1.385H0V2.77Zm0 2.767h34.2v1.389H0V5.537Zm0 2.77h34.2v1.386H0V8.307Zm0 2.77h34.2v1.386H0v-1.385Zm0 2.768h34.2v1.385H0v-1.386Zm0 2.77h34.2V18H0v-1.385Z"/><path fill="#fff" d="M0 1.385h34.2V2.77H0V1.385Zm0 2.77h34.2v1.382H0V4.155Zm0 2.767h34.2v1.385H0V6.922Zm0 2.77h34.2v1.385H0V9.692Zm0 2.77h34.2v1.386H0v-1.386Zm0 2.767h34.2v1.386H0v-1.386Z"/><path fill="#192F5D" d="M0 0h13.68v9.693H0V0Z"/><path fill="#fff" d="m1.139.415.126.383h.401l-.323.236.123.387-.327-.24-.324.236.123-.383L.611.798h.408l.12-.383Zm2.281 0 .123.383h.405l-.327.236.123.387-.324-.24-.327.236.123-.383-.323-.236h.4L3.42.415Zm2.278 0 .127.383h.397l-.323.236.123.387-.327-.24-.324.236.124-.383-.327-.236h.404l.126-.383Zm2.282 0 .123.383h.404l-.327.236.127.387-.327-.24-.327.236.127-.383-.327-.236h.4L7.98.415Zm2.278 0 .127.383h.4l-.323.236.123.387-.327-.24-.323.236.123-.383-.324-.236h.401l.123-.383Zm2.282 0 .123.383h.404l-.327.236.127.387-.327-.24-.327.236.127-.383-.328-.236h.405l.123-.383Zm-10.259.97.123.384h.405l-.327.235.12.383-.317-.235-.327.235.116-.383-.317-.235h.401l.123-.384Zm2.278 0 .127.384h.4l-.326.235.126.383-.327-.235-.327.235.127-.383-.327-.235h.404l.123-.384Zm2.282 0 .123.384h.404l-.327.235.123.383-.323-.235-.327.235.123-.383-.323-.235h.4l.127-.384Zm2.278 0 .127.384h.4l-.326.235.126.383-.327-.235-.323.235.123-.383-.327-.235H9l.12-.384Zm2.282 0 .123.384h.404l-.327.235.123.383-.323-.235-.327.235.123-.383-.324-.235h.401l.127-.384Zm-10.262.967.126.39h.401l-.323.236.123.383-.327-.239-.324.24.123-.388-.327-.235h.408l.12-.387Zm2.281 0 .123.387h.405l-.327.235.123.384-.324-.24-.327.24.123-.387-.323-.236h.4l.127-.383Zm2.278 0 .127.387h.397l-.323.235.123.384-.327-.24-.324.24.124-.387-.327-.236h.404l.126-.383Zm2.282 0 .123.387h.404l-.327.235.127.384-.327-.24-.327.24.127-.387-.327-.236h.4l.127-.383Zm2.278 0 .127.387h.4l-.323.235.123.384-.327-.24-.323.24.123-.387-.324-.236h.401l.123-.383Zm2.282 0 .123.387h.404l-.327.235.127.384-.327-.24-.327.24.127-.387-.328-.236h.405l.123-.383Zm-10.259.97.123.384h.405l-.327.235.123.387-.324-.24-.327.236.123-.383-.323-.235h.4l.127-.384Zm2.278 0 .127.384h.4l-.326.235.126.387-.327-.24-.327.236.127-.383-.327-.235h.404l.123-.384Zm2.282 0 .123.384h.404l-.327.235.123.387-.323-.24-.327.236.123-.383-.323-.235h.4l.127-.384Zm2.278 0 .127.384h.4l-.323.235.123.387-.327-.24-.323.236.123-.383-.327-.235H9l.12-.384Zm2.282 0 .123.384h.404l-.327.235.123.387-.323-.24-.327.236.123-.383-.324-.235h.401l.127-.384Zm-10.262.97.126.384h.401l-.323.236.123.386-.327-.239-.324.236.123-.383-.327-.236h.408l.12-.383Zm2.281 0 .123.384h.405l-.327.236.123.383-.324-.236-.327.236.123-.383-.323-.236h.4l.127-.383Zm2.278 0 .127.384h.397l-.323.236.123.386-.327-.239-.324.236.124-.383-.327-.236h.404l.126-.383Zm2.282 0 .123.384h.404l-.327.236.127.386-.327-.239-.327.236.127-.383-.327-.236h.4l.127-.383Zm2.278 0 .127.384h.4l-.323.236.123.386-.327-.239-.323.236.123-.383-.324-.236h.401l.123-.383Zm2.282 0 .123.384h.404l-.327.236.127.386-.327-.239-.327.236.127-.383-.328-.236h.405l.123-.383Zm-10.26.972.123.383h.405l-.327.236.123.383-.324-.239-.327.239.123-.387-.323-.235h.4l.127-.38Zm2.278 0 .127.383h.4l-.326.236.126.383-.327-.239-.327.239.127-.387-.327-.235h.404l.123-.38Zm2.282 0 .123.383h.404l-.327.236.123.383-.323-.239-.327.239.123-.387-.323-.235h.4l.127-.38Zm2.278 0 .127.383h.4l-.323.236.123.383-.327-.239-.323.239.123-.387-.327-.235H9l.12-.38Zm2.282 0 .123.383h.404l-.327.236.123.383-.323-.239-.327.239.123-.387-.324-.235h.401l.127-.38ZM1.139 6.23l.126.387h.401l-.323.235.123.38-.327-.236-.324.236.123-.383-.327-.236h.408l.12-.383Zm2.281 0 .123.387h.405l-.327.235.126.38-.327-.236-.327.236.127-.383-.327-.236h.4l.127-.383Zm2.278 0 .127.387h.397l-.323.235.123.38-.327-.236-.324.236.124-.383-.327-.236h.404l.126-.383Zm2.282 0 .123.387h.404l-.327.235.127.38-.327-.236-.327.236.127-.383-.327-.236h.4l.127-.383Zm2.278 0 .127.387h.4l-.323.235.123.38-.327-.236-.323.236.123-.383-.324-.236h.401l.123-.383Zm2.282 0 .123.387h.404l-.327.235.127.38-.327-.236-.327.236.127-.383-.328-.236h.405l.123-.383ZM2.28 7.2l.123.383h.405l-.327.236.123.387-.324-.24-.327.236.123-.383-.323-.236h.4L2.28 7.2Zm2.278 0 .127.383h.4l-.326.236.126.387-.327-.24-.327.236.127-.383-.327-.236h.404L4.56 7.2Zm2.282 0 .123.383h.404l-.327.236.123.387-.323-.24-.327.236.123-.383-.323-.236h.4L6.84 7.2Zm2.278 0 .127.383h.4l-.323.236.123.387-.327-.24-.323.236.123-.383-.327-.236H9l.12-.383Zm2.282 0 .123.383h.404l-.327.236.123.387-.323-.24-.327.236.123-.383-.324-.236h.401L11.4 7.2Zm-10.262.97.126.384h.401l-.323.235.123.383-.327-.235-.324.235.123-.386L.61 8.55h.408l.12-.38Zm2.281 0 .123.384h.405l-.327.235.126.383-.327-.235-.327.235.127-.386-.327-.236h.4l.127-.38Zm2.278 0 .127.384h.397l-.316.235.123.383-.327-.235-.323.235.123-.386-.327-.236h.404l.12-.38Zm2.282 0 .123.384h.404l-.327.235.127.383-.327-.235-.327.235.127-.386-.327-.236h.4l.127-.38Zm2.278 0 .127.384h.4l-.323.235.123.383-.327-.235-.323.235.123-.386-.324-.236h.401l.123-.38Zm2.282 0 .123.384h.404l-.327.235.127.383-.327-.235-.327.235.127-.386-.328-.236h.405l.123-.38Z"/></g><defs><clipPath id="a"><path fill="#fff" d="M0 0h24v18H0z"/></clipPath></defs></svg>