<svg xmlns="http://www.w3.org/2000/svg" width="24" height="18" fill="none"><g clip-path="url(#a)"><path fill="#4B92DB" fill-rule="evenodd" d="M0 0h24v18H0V0Z" clip-rule="evenodd"/><path fill="#fff" d="M13.415 13.208c-.065.07-.137.135-.213.193-.477-.495-1.04-1.04-1.573-1.04-.331 0-.567.253-.846.428-.385.248-.914.387-1.366.205a1.49 1.49 0 0 1-.657-.45 1.432 1.432 0 0 0 1.294.113c.443-.185.897-.43 1.404-.43.747 0 1.458.506 1.957.98ZM7.89 11.655c.495.563 1.303.383 1.962.522.093.023.18.052.28.036-.08-.05-.185-.056-.275-.09-.513-.193-.592-.742-.873-1.118.36.239.655.563.99.87.236.196.522.322.825.365-.072.027-.166.023-.247.04-.54.136-1.138.347-1.714.158a1.697 1.697 0 0 1-.945-.783H7.89Zm-.792-1.305c.309.7 1.085.756 1.598 1.184.092.082.194.151.304.207l.006-.005a2.24 2.24 0 0 1-.34-.37c-.294-.428-.197-1.013-.425-1.468.211.235.386.5.52.785.191.455.257.975.686 1.321-.465-.153-1.001-.124-1.417-.396-.441-.288-.848-.742-.932-1.255v-.003Zm-.33-1.413c.045.617.697.945 1.012 1.452.068.108.135.22.232.306-.016-.066-.068-.124-.1-.187a1.413 1.413 0 0 1-.118-.727c.029-.315.16-.607.11-.938.27.583.182 1.31.337 1.937.036.14.12.261.171.394-.263-.203-.61-.383-.9-.608a1.924 1.924 0 0 1-.652-.82 1.91 1.91 0 0 1-.092-.809Zm.018-1.134c.031-.137.056-.279.114-.405-.112.58.275 1 .405 1.503.05.19.068.39.144.567.007.003.014-.004.018-.009-.191-.535.09-1.03.36-1.45a1.25 1.25 0 0 0 .14-.372c.029.243-.023.522-.068.772-.056.321-.166.623-.254.933a1.462 1.462 0 0 0-.011.617l-.03-.023c-.202-.373-.602-.666-.722-1.075a2.308 2.308 0 0 1-.096-1.058Zm.213-.625c.008-.413.159-.811.428-1.125.007-.005.013-.011.022-.01-.283.428-.024.973-.063 1.461l-.036.5c.005.004.005.02.018.013.018-.056.023-.115.032-.173.067-.405.423-.684.722-.968a.641.641 0 0 0 .158-.234 1.851 1.851 0 0 1-.171.59c-.232.468-.678.846-.759 1.38C7.311 8.1 7 7.72 7 7.177Zm.743-1.483c.13-.155.301-.27.495-.328-.371.254-.351.706-.464 1.084-.04.137-.101.268-.135.41l.012.009c.066-.17.17-.324.303-.448.259-.243.648-.392.777-.75-.007.498-.43.876-.817 1.168-.173.13-.313.298-.41.49a1.83 1.83 0 0 0 .01-.384c-.041-.434-.068-.922.231-1.25h-.002Zm1.496-.835c-.272.241-.454.55-.666.826-.173.232-.414.374-.619.567.113-.23.13-.495.273-.718.24-.382.64-.53 1.012-.675Zm6.1 4.964-.079-.045a3.632 3.632 0 0 1-.67.953l-.47-.473c.227-.234.413-.504.552-.799l-.079-.045a2.871 2.871 0 0 1-.54.78l-.428-.427a2.25 2.25 0 0 0 .435-.641l-.078-.045c-.103.23-.245.44-.42.622l-.469-.469c.129-.137.23-.297.3-.472l-.079-.045c-.065.167-.162.32-.285.45l-.431-.428a.795.795 0 0 0 .203-.487h.607a1.4 1.4 0 0 1-.094.465l.079.045c.065-.163.1-.335.105-.51h.668a2.156 2.156 0 0 1-.188.829l.082.045a2.25 2.25 0 0 0 .196-.874h.607a2.841 2.841 0 0 1-.27 1.162l.079.045c.177-.378.272-.79.277-1.207h.671a3.597 3.597 0 0 1-.36 1.526l.08.045a3.694 3.694 0 0 0 .104-3.004l-.082.038c.168.416.257.86.262 1.309h-.671a2.944 2.944 0 0 0-.206-1.05l-.083.037c.129.323.197.666.203 1.013h-.615a2.254 2.254 0 0 0-.15-.773l-.083.038c.09.235.138.483.143.735h-.66a1.5 1.5 0 0 0-.09-.473l-.083.038c.05.14.078.286.083.435h-.608a.796.796 0 0 0-.202-.488l.431-.431a1.4 1.4 0 0 1 .296.48l.083-.034a1.491 1.491 0 0 0-.315-.51l.472-.472c.2.207.355.452.458.72l.082-.038a2.247 2.247 0 0 0-.48-.746l.431-.428c.261.27.467.589.604.938l.083-.038a2.945 2.945 0 0 0-.627-.963l.473-.473c.33.337.592.736.769 1.174l.082-.038a3.702 3.702 0 0 0-.817-1.23 3.698 3.698 0 0 0-1.238-.82l-.03.085c.438.176.836.436 1.174.765l-.473.473a2.943 2.943 0 0 0-.944-.615l-.038.082c.342.14.654.343.919.6l-.428.428a2.25 2.25 0 0 0-.712-.465l-.03.082c.25.104.48.254.675.443l-.469.472a1.493 1.493 0 0 0-.45-.292l-.034.086c.155.064.297.156.42.27l-.435.428a.795.795 0 0 0-.487-.203v-.607a1.4 1.4 0 0 1 .498.108l.034-.082a1.493 1.493 0 0 0-.532-.116v-.668c.266.004.53.058.776.158l.034-.083a2.25 2.25 0 0 0-.81-.165v-.607c.354.005.703.076 1.031.21l.03-.083a2.944 2.944 0 0 0-1.061-.214v-.67a3.61 3.61 0 0 1 1.309.262l.03-.087A3.701 3.701 0 0 0 12 4.503a3.686 3.686 0 0 0-1.658.39l.038.075a3.6 3.6 0 0 1 1.575-.375v.667a2.95 2.95 0 0 0-1.264.304l.041.075c.38-.187.798-.287 1.223-.292v.607a2.239 2.239 0 0 0-.938.225l.038.079c.28-.136.588-.208.9-.214v.668a1.489 1.489 0 0 0-.589.142l.037.075c.174-.08.361-.123.552-.127v.607a.8.8 0 0 0-.263.06l.038.075a.713.713 0 0 1 .27-.049.708.708 0 0 1 .712.717.713.713 0 1 1-.982-.66l-.041-.079a.802.802 0 0 0-.226.142l-.427-.43a1.39 1.39 0 0 1 .371-.252l-.041-.075a1.502 1.502 0 0 0-.394.262l-.472-.472a2.17 2.17 0 0 1 .555-.386l-.038-.075a2.266 2.266 0 0 0-.577.401l-.432-.439c.214-.206.458-.378.724-.51l-.037-.075a2.963 2.963 0 0 0-.75.525l-.473-.476c.269-.26.576-.478.911-.645l-.04-.079a3.731 3.731 0 0 0-1.67 1.68l.075.038c.17-.343.393-.657.66-.93l.477.476c-.222.228-.406.49-.544.776l.075.041c.134-.279.313-.535.529-.757l.431.427c-.175.182-.318.39-.424.62l.075.04c.103-.22.243-.422.413-.596l.472.473a1.502 1.502 0 0 0-.292.442l.079.045a1.4 1.4 0 0 1 .273-.424l.431.428a.799.799 0 0 0-.202.491h-.607c.004-.17.04-.337.104-.495l-.075-.045a1.498 1.498 0 0 0-.12.54h-.667c.005-.296.072-.589.195-.859l-.075-.037a2.239 2.239 0 0 0-.21.896h-.608A2.85 2.85 0 0 1 9.42 6.97l-.079-.04a2.929 2.929 0 0 0-.289 1.23h-.671a3.6 3.6 0 0 1 .371-1.55l-.079-.04a3.686 3.686 0 0 0-.232 2.68l.086-.022a3.63 3.63 0 0 1-.146-.979h.671c.003.276.045.55.124.814l.086-.023a2.865 2.865 0 0 1-.124-.79h.612c.003.218.039.435.105.644l.09-.022a2.168 2.168 0 0 1-.105-.623h.66a1.5 1.5 0 0 0 .086.458l.086-.023a1.413 1.413 0 0 1-.082-.435h.607c.01.181.082.353.203.488l-.431.431a1.403 1.403 0 0 1-.297-.484l-.086.023c.07.195.18.374.322.525l-.476.472a2.157 2.157 0 0 1-.495-.832l-.09.022c.106.328.285.627.525.874l-.427.431a2.842 2.842 0 0 1-.679-1.155l-.086.023c.135.449.375.859.701 1.196l-.469.473a3.6 3.6 0 0 1-.881-1.504l-.09.022a3.68 3.68 0 0 0 .937 1.575c.298.3.644.545 1.024.728l.045-.079c-.36-.171-.69-.4-.975-.679l.473-.472c.242.233.522.423.829.562l.044-.075a2.862 2.862 0 0 1-.81-.551l.428-.428c.198.19.43.343.683.45l.045-.078a2.16 2.16 0 0 1-.664-.435l.472-.473c.151.142.33.25.525.319l.042-.079a1.402 1.402 0 0 1-.503-.304l.431-.43a.795.795 0 0 0 .488.202v.607a1.42 1.42 0 0 1-.413-.075l-.048.075c.148.054.303.085.46.09v.668a2.155 2.155 0 0 1-.79-.165l-.045.075c.264.113.548.174.836.18v.607a2.85 2.85 0 0 1-1.136-.255l-.046.075c.371.171.774.263 1.182.27v.668a3.6 3.6 0 0 1-1.508-.349l-.045.075a3.693 3.693 0 0 0 3.27-.034l-.045-.082c-.49.25-1.032.383-1.582.39v-.671a2.937 2.937 0 0 0 1.275-.312l-.038-.079a2.84 2.84 0 0 1-1.237.3v-.6c.334-.007.662-.089.96-.24l-.042-.078c-.285.142-.6.219-.918.225v-.668c.212-.006.42-.057.611-.15l-.037-.082a1.399 1.399 0 0 1-.574.142v-.607a.795.795 0 0 0 .487-.203l.431.431a1.415 1.415 0 0 1-.348.237l.041.082c.136-.066.261-.152.371-.255l.473.469c-.159.153-.34.28-.537.379l.038.079c.207-.102.396-.235.563-.394l.427.427c-.21.204-.45.375-.713.506l.046.08c.268-.136.515-.312.73-.522l.47.473a3.634 3.634 0 0 1-.897.64l.045.083a3.71 3.71 0 0 0 .949-.69c.293-.293.535-.632.716-1.005Z"/><path fill="#fff" d="M12.214 7.35h-.023v.025h.023V7.35Zm-.056-.038h.03v.022h-.03v-.022Zm-.053-.008.022.004.004-.023h-.026v.02Zm-.023-.007h-.026V7.27l.03.004-.004.023Zm-.217-.03h.03v.022h-.03v-.022Zm-.064.045.027.003v-.022h-.023l-.004.019Zm0 .037-.026-.011v-.023l.034.012-.008.022Zm-.052.026v-.022l.018-.004.004.023-.022.003ZM8.8 9.685v-.018h-.019v.037h.03v.049h.023v-.056L8.8 9.685Zm.281.338-.037-.038-.034-.04-.015-.038-.026-.068.056.03.019.053.026.018.026.057-.015.026Zm.777 1.016-.004-.034-.034-.045.049.008.045.041.022.049-.03.015-.01-.023-.038-.01Zm2.025-3.446h-.038l-.011-.083.022-.015v-.04h-.13v-.042l.014-.011-.03-.012-.022.03-.008.034-.037.008v.018h-.027v.05l-.105.085-.21-.007c-.01.037-.048 0-.048 0-.011-.026-.06 0-.06 0 0 .037-.075-.023-.075-.023l-.128-.093c-.075-.068-.187.018-.191.037 0 .053-.086.011-.086.011s-.075-.022-.087.008c-.01.03-.06.022-.06.022l-.007.015-.037.008-.008.022-.045.008h.112c.03-.008-.01.064-.03.06H10.5l-.019.022h-.049l-.022.03-.071-.003s-.038.033-.038.045c.004.01-.007.045-.018.045-.012 0-.034.037-.027.045.008.01-.022.048-.022.048l-.008.038-.022.011v.101l-.045.03v.045l-.068.075.008.057-.056.063.007.06-.034.012-.007.026-.015.079.037.003c.019-.007.015.05 0 .06-.015.008-.056.023-.034.038.023.015-.06.011-.06-.011 0-.027-.045-.045-.056-.038-.011.008-.03-.034-.03-.034-.037-.037-.165.004-.165.004l-.019.064c-.04.004-.067.075-.067.075-.038.011-.06.052-.049.064.011.01-.019.015-.019.015v.082l-.018.026v.094c.026 0 .022.038.022.038-.037.007-.03.056-.03.056l-.079.026-.015.023h-.097l-.026.022-.027-.026h-.187l-.008-.019-.037-.007v-.042h-.06l-.011.027-.06.003c.003.038-.06.094-.068.08-.007-.016-.049-.057-.03-.065a.488.488 0 0 1 .068-.015V9.03l-.139-.004-.015.023-.056.004v.06l-.027.007c-.018.011.004.053.004.053.026.026 0 .07 0 .07-.026.023.015.065.015.065.03.007-.019.03-.019.03.008.037.03.048.03.048-.022.038.015.057.015.057l.004.063.026.015v.045l.015.027h.06v-.098c-.056-.06.042-.075.045-.052.004.022.045.037.045.037.008.056.075.09.09.03.02-.056.038-.022.045.004.012.03.083.094.083.094h.056l.008.052c.063-.004.082 0 .108.09a.165.165 0 0 0 .098.113l.052-.004c0-.049.053.007.053.03 0 .022.101.109.101.109l.101.022.094.075.071-.007h.03c.02-.064.11.003.113.026.007.022.068.064.075.045.007-.019.049-.008.056.049.008.056.038.045.038.045l.21-.004.075-.064.191-.004c.098-.003.038-.138.019-.138-.034-.027.011-.135.011-.135l-.274-.255c-.063 0-.007-.09-.007-.09.049-.03-.011-.083-.011-.083.007-.045-.027-.097-.027-.097-.067-.045-.048-.132-.048-.132v-.063c-.057-.053.022-.06.022-.06.026-.045-.019-.08-.019-.08V9l-.063-.007-.008-.18-.135-.192c-.026-.007-.008-.056-.008-.056.038-.019-.007-.064-.007-.064v-.082l.075-.008.019-.03h.037v-.097c.015-.053.06-.026.06-.026l.053.003.03-.056.007-.045h-.037c-.049-.03-.026-.127-.026-.127.075-.11.153-.045.153-.045l.053-.004c.079.052.007.15.007.15-.015.022-.007.094-.007.094l.018.123-.048.038c-.038.026-.038.079.004.09.03.004.018.075-.027.026-.067 0 .038.06.008.045.067.038.052-.03.052-.03l.09-.071c.038-.026.094.056.094.067 0 .012.15.004.15.004.037.026.056.098.056.098.038-.057.128-.004.064.026.06.037.06.071.06.071.049-.015.049.023.049.034l.015-.056c-.056-.042.075-.057.037.018l-.022.034.037.03v.086c.087-.007.064-.108.064-.108l.037-.008c0-.037.027-.015.027-.015-.027-.127.06-.15.06-.15.049-.015.052-.116.052-.116-.037-.015-.015-.068.023-.023.037.045-.023-.09-.023-.09l-.03-.026-.041-.004-.004-.04h-.067l-.011.052-.027.007-.007-.015-.011.038H11.1l-.004-.042.038-.01.018-.023.012-.064h.049l.063-.019c0-.064.038-.049.038-.049l.022.02.034.025v.023l-.019.011-.004.03.012.045h.026c.011-.064.09-.064.113-.022l.022-.057c-.053-.026 0-.067.015-.048.015.018.049-.05.049-.05s.026.038 0-.01c-.027-.045.018-.068.018-.068-.007-.045.05-.037.05-.037l.003-.064h-.053c-.01.052-.056.004-.033-.008a.21.21 0 0 0 .045-.033v-.038l.022-.007.004-.038h.056l.049-.022.011-.02.053-.003.075-.067-.008-.03c-.045 0 0-.038 0-.038l.008-.056Z"/><path fill="#fff" d="m10.376 8.347-.067-.007.004.026h.018c.03.053.004.18.004.18s-.045.004-.053-.019c-.007-.022-.026.05-.01.064.014.011.067 0 .074.038 0 .045.03-.023.03-.023v-.262.003Z"/><path fill="#fff" d="m10.376 8.67.023-.004.003-.026-.056.037-.037-.022v.09l.06.078.022-.052.008-.034-.027-.011.004-.056Zm.03.24v-.038h-.026v.034l.026.004Zm-.034.18v-.027l-.03.004v.026l.03-.003Zm.045-.117a.017.017 0 0 0 .012-.005.017.017 0 0 0 0-.023.017.017 0 0 0-.018-.004.015.015 0 0 0-.006.004.015.015 0 0 0-.003.006v.007c0 .008.008.015.015.015Zm.027.079a.015.015 0 1 0 0-.03.015.015 0 0 0 0 .03Zm0-.434a.015.015 0 1 0 0-.03.015.015 0 0 0 0 .03Zm1.271-.574-.038-.004-.01.019h-.02v.03h.02l.003.022-.015.015-.008.019-.03.007-.067.064v.03l-.023.026-.022.06h-.075l-.019.072.011.056.068.026.007-.037.023-.012.004-.037.015-.026.022-.027.008-.03.037-.022.045-.011.019-.023.007-.045v-.034l.02-.022.044-.019v-.075h-.022l-.004-.022Zm.105.258v-.056l-.008-.049-.056-.026-.037.038-.012.052V8.3l-.037.007-.008.101-.03.012.004.037-.037.011-.045.012-.008.048-.03.02-.015.048-.019.109s.038.063.053.033a.087.087 0 0 1 .049-.037l.01-.023h.102c.008-.037.056-.022.056-.003 0 .018.038 0 .038 0l.026-.038h.041l.004-.049.019-.01v-.065c.06-.018.052-.075.052-.075l.015-.018-.007-.027c-.03-.01-.015-.037.004-.03.018.008-.027-.037-.027-.037-.022.022-.037-.019-.037-.019h-.06v-.004Zm.06.458c0 .045-.06.06-.06.06l-.038-.011-.026-.019v-.053l.03-.003.008.022.086.004Zm.202-.244c.008.038.008-.052.023-.049.015.004.004-.052.004-.052l-.068.049c.034.003.038.037.041.052Zm.2-.195c.014.034.01.083.067.12.018.011-.012.038-.03.026a.567.567 0 0 1-.075-.093v-.049c.015-.03.03-.019.037-.004Zm.01 1.163.012.018.026-.037-.023-.011-.026.018.011.012Zm-.105-.072v.045-.045Zm.54-.052.03-.019-.01-.022-.03.018.01.023Zm1.084.788.034.018v.064c.049.045.195.008.195-.004l-.008-.142-.018-.019-.004-.094c.015-.049-.075-.12-.079-.105-.007.015-.056 0-.056.019 0 .015-.03.09-.015.116.015.027-.011.027-.015.053s-.041.075-.038.097l.004-.003Zm-.082-.15c-.008.03-.038.045-.05.037-.014-.015.02.015.027.03.008.015.03.015.038 0 .007-.015 0-.049.01-.064.008-.015-.022-.019-.025 0v-.004Zm-.177-.698h.027v.075h-.027V9.3Zm.39-.728c-.018-.022.075-.063.09-.015.015.045 0 .038-.015.034-.015-.004-.052.011-.075-.019Zm.08-.51v.023l.037.007.003-.022-.04-.008Zm-.17.06.03.02h.012l.022-.016v.008l.023-.008-.008-.019v-.01l-.015.003-.026.019-.026-.019-.012.022Zm.21-.922h-.056s.019.007-.037-.041c-.05-.049-.083.011-.083.011l-.06.007v.06l-.03.012v.037h.045s0 .041.011.023c.012-.019.105.003.098.052-.004.019.094.068.082.128.05.007.038.056.038.056l.064.007.018-.037.02.004v-.023l-.042-.011-.008-.124-.026-.019.008-.03-.03-.01.015-.05-.027-.052Zm.162.386h-.03l-.068.008-.037.075s.018.011.037.037c.011.026.019.18-.026.206-.045.027.004.012.004.012l-.008.086c.011.037.03.019.041 0 .012-.019.023-.023.038-.041a.213.213 0 0 0 .041-.083c.004-.026.023-.067.011-.079-.01-.01.012-.063.012-.063s.015-.03 0-.06.003-.068.015-.083l-.03-.015Zm.045.158.003-.03h.023v.03h-.026Zm0 .105-.02-.012.012-.022.019.011-.011.023Zm-.034-.3-.015-.038s0-.03.007-.045c.008-.015-.015-.03-.026-.037-.011 0-.007-.03-.011-.045 0-.015-.03-.027-.03-.027l-.008-.07c0-.012-.033-.027-.022-.038l.03-.034c.011-.008-.011-.06.007-.049.02.011.02.03.027.045.007.015 0 .068.015.079.018.011 0 .052.026.052.03 0 .011.072.011.072s-.007.052.011.056c.02.004.008.094.008.094l-.03-.019v.004Zm-.24-.619c.011.015.034.026.034.041 0 .015-.008.026.015.03.022.004.037 0 .045.015a.104.104 0 0 1 0 .068c0 .015.007.037.026.037s.022 0 .022.015c0 .011.023-.041.023-.041a.203.203 0 0 1-.038-.049l-.015-.064c0-.007-.026-.015-.037-.018-.011 0-.03-.038-.03-.038l-.045.004Zm.037-.034a.107.107 0 0 0-.037-.034c-.015-.007-.026-.015-.041-.015a.026.026 0 0 1-.022-.012.026.026 0 0 1 0-.025c.007-.015-.012-.023-.012-.038s.011-.015.03-.003c.019.011.015.015.03.033.015.02.022.038.037.034.015-.004.027.034.038.023.019-.012.015.026.015.026l-.038.011Zm-.438.428c.018.022-.113.015-.113 0s.011-.068.045-.057c.034.012.038-.067.038-.067s-.03.004-.004-.011 0-.038-.011-.049l-.023-.03h.053c.022-.015.03-.086.03-.086a.057.057 0 0 0 .067-.019l.023.045c.015.019-.038.026-.02.037.02.012.027.045.02.057-.008.011-.05 0-.05-.012 0-.01-.014.02 0 .038.016.019-.018.045-.025.045-.008 0-.057.007-.015.03.037.022.086.011.086.011s.034 0 .045.015c.011.019-.004.023-.023.023l-.112-.008s-.023.026-.011.038Zm-.24.037c.018-.004.063-.007.075 0 .003.015-.03.03-.03.03l-.045.008c-.015-.019-.02-.038 0-.038Zm.483-.319c.03-.015.094-.015.09-.037-.003-.026.038-.034.038-.034l.011.045.034.026v.038l-.026.007c-.042.012-.015.03-.015.03h-.094l-.011-.037-.03-.038h.003Zm-.15-.206c.027 0-.003.086.057.079.06-.008 0 .026.048.03.045.004.034-.034.05-.06.014-.026.007-.041-.02-.049-.026-.007-.026-.007-.037-.037-.004-.03-.038-.038-.038-.038l-.007-.045-.049.03-.049.064c0 .049.027.026.05.026h-.005Zm.102.319.01-.023.023.012-.01.022-.023-.011Zm-.038-.038h.023v.03h-.023v-.03Zm.019-.502v.034h-.019l-.004-.03.023-.004Zm-.064.352h.023v.02h-.023v-.02Zm-.06 0v-.022h.038v.019l-.038.003Zm-.307.368-.023-.011.011-.027.023.012-.011.026Zm-.12-.071V7.24h.037v.019l-.037.004Zm-.65-.008-.082.004v.022h.087l-.004-.026Zm-.134.034-.008-.034.023-.004.007.034-.022.004Zm-.015.022-.008-.018.012-.004.007.019-.011.003Zm.187-.063-.003.026.037.004s.019.015.019.026.026.022.041.022c.015 0 .056-.03.056-.03s.02-.052.004-.048c-.015.003-.045.026-.049.003 0-.022-.048-.01-.048-.01l-.06.007h.003Zm.188-.038c0 .008-.011.023.011.026.023.004.064-.015.068.008.003.022.003.037.037.049a.193.193 0 0 0 .068.015l.075-.008s.048.011.06.019c.04.045.067.056.078.037.012-.018 0-.063-.007-.075 0-.018-.056-.09-.075-.075-.019.015-.023 0-.056.012-.034.011-.105.003-.11-.012 0-.015-.055-.022-.055-.037s-.038-.038-.034-.011c.004.022-.026.033-.034.026-.007-.008-.03.022-.03.022l.004.004Zm.859-.487.026-.087c-.038-.007-.03-.048-.03-.048-.004-.038-.056-.075-.075-.06-.019.011-.011-.079-.011-.079s.033-.023.048-.011c.015.011-.127-.192-.157-.173-.03.019-.098-.019-.094-.052.004-.038-.135-.15-.135-.15s-.045-.03-.052-.008c-.008.023-.023.038 0 .053.022.011.018-.019.045.007.026.026.075.06.056.083-.019.022-.038.03-.038.03l.023.03h.041l.008.063s.045.023.056.05c.011.025.011.04 0 .06-.011.014-.034.037-.03.067.004.026.037.037.037.037h.027l.022.015V6.6c.03-.008.079.037.075.06 0 .026.008.011.045.037.038.027.026.03.053.053.026.019.048.007.06-.03v.004Z"/><path fill="#fff" d="M13.031 6.21c0-.014-.01-.067.012-.063.022 0 .007 0 .037.011s.026-.019.026-.019h.042l.052.038-.007.037h-.038c-.019-.026-.056-.015-.049.012.008.026-.018.075-.033.078-.015.004-.064.004-.06-.018l.018-.075Zm-.03-.1v-.034s0-.03-.022-.03c-.023 0-.053-.023-.045-.038.007-.015-.064-.03-.064-.03s-.064-.06-.037-.052c.018.007.007-.027.007-.027s-.045.008-.056 0c-.011 0-.008-.037-.008-.037s-.045-.008-.045 0c0 .007.015.015.023.037.007.023.004.06.037.068.038.007.042.015.045.03.004.015.045.019.045.019l.03.015.09.075v.003Zm-.4-.39-.012-.03-.03-.008v.037h.041Zm-.012-.158c-.038-.03.052.022.052.022.03 0 .05.023.05.034 0 .011.037.008.037.008l.003-.027-.03-.037-.026-.019s-.037-.004-.037-.015-.038.045-.053.034h.004Zm.686.022c-.011.034-.015.08-.034.08-.018 0-.01.048-.01.048l.063.004c.015.003.015.04.015.04.056 0 .079.076.075.095-.011.018.019.018.019.018s0 .06-.008.075c-.007.015.049.027.064.05.015.022-.008.097-.019.1-.011.008.03.02.026.038-.003.019.012 0 .015.03l.012.094.052.003c.008-.048.105-.052.12-.045.064.023.113.12.113.143 0 .022-.042.026-.042.026l.008.113c.064.018.112.112.109.123-.008.015.045.012.045.012.007-.068.07-.045.075-.023 0 .023.015.075.015.075l.018.03.027.026h.037l.015.023.045.007s.041.045.045.057c.004.011.06.007.075.011.015 0 .038.015.041.034a.174.174 0 0 0 .027.048s.045.012.048.027l.023.048.037.03.004.038h.041l.012.049.067-.004.038-.026a.225.225 0 0 0 .086-.075c.004-.02.011-.075.049-.064.037.011.01-.083.01-.083s-.052-.037-.048-.056c.004-.019-.052-.056-.049-.075.004-.011-.048-.045-.045-.06.004-.015-.026-.056-.026-.056l-.052-.049-.008-.037h-.045l-.09-.113.004-.03h-.026v-.045l-.027-.015h-.037l-.086-.094-.008-.04h-.037l.007-.08c.026-.037.011-.1.011-.1s-.052.025-.078.014c-.027-.011.01-.037.01-.037v-.03l-.022-.023s-.063.008-.067-.004l-.015-.06-.004-.063-.026-.012-.004-.026-.041.004v-.045l-.023-.008-.022-.01-.004-.046-.082-.004-.027-.037-.03-.045-.093-.008-.023-.022-.037-.008-.027-.01-.01.018h-.076v.026c-.037.019-.187 0-.187.015l-.008-.004Zm.394-.1c-.008-.027.075-.057.094-.035.018.023.07.027.075.143.003.037-.064-.041-.064-.041l-.056-.02c-.03-.007-.045-.025-.05-.044v-.004Zm-1.099.048-.019-.011.015-.034.02.011-.016.034Zm-.191-.375-.049-.049v-.037l-.015-.02L12.3 5l-.049-.015-.048.02-.053.033-.056.007-.03.038.12.007.022.038.087.007.056.057c.049.018.06-.008.03-.034Zm-.008-.188c-.007-.03-.056.045-.007.06s.097 0 .097 0l.012-.022.187.004c.015-.015.023-.038.023-.038s.045-.015.063-.007c.02.007 0-.053-.015-.045-.018.007-.056 0-.056 0h-.067c-.004-.023-.064-.012-.068 0-.004.018-.026.022-.026.022l-.086.008c-.008.022-.053.037-.057.022V4.97Zm-.37.645c.055.02.078 0 .082-.01.003-.016.007-.02.03-.023.022-.004-.004-.05-.027-.045-.022 0-.045-.008-.048-.027-.004-.022-.042-.07-.045-.033-.004.037-.027.037-.023.067.004.026.015.064.03.071Zm-.432.042c0-.015.075-.015.086-.004.011.011.004.03.038.03.033 0 .018.022.015.037 0 .008-.038.004-.045-.007 0-.011-.06-.015-.06-.015s-.03-.023-.034-.041Zm1.275-.814-.03.022-.019-.018-.019.018.027.027.007.007.008-.007.037-.03-.011-.02Zm-.206-.068-.027-.015-.01.02.03.018h.01l.042-.026-.012-.02-.033.023Zm-.124.78h-.004l-.037-.003v.022h.03l.022.038.019-.012-.026-.037-.004-.008Zm-1.238 1.058.004.041h.056c.023 0-.018-.026-.018-.026s-.045.004-.038-.015h-.004Zm.075 0 .012-.015.022.019-.015.015-.019-.02Zm-.682-.709.015-.015.022.023-.015.015-.022-.023Zm1.087 4.886-.037-.018-.011.018.022.012-.007.007.015.019.018-.019.012-.011-.012-.008Zm-.292-.273-.015-.02-.023.02-.01.01.014.008.026.02.012-.02-.015-.01.01-.008Zm2.782-.72c-.003-.02-.026-.027-.03-.03l-.007.022.007.004.004.019-.004.007.015.015c.015-.011.02-.026.015-.037Zm.038-.075h-.038v-.034l.038.007v.027Zm.862-.293c.02-.011.038-.03.038.015-.004.041-.023.026-.038.041-.01.015-.022-.04 0-.056Zm.192-.161v-.004a.06.06 0 0 0-.008-.026l-.019.011.004.015c0 .008 0 .015.008.019.003.004.007.004.015 0l-.004-.019.004.004Zm-.05.019.016.045.019-.008a.464.464 0 0 1-.012-.045l-.022.008Zm-.082.09h-.022c0 .015 0 .037.019.037l.007-.019-.004-.018Zm-.097-.45a.022.022 0 0 0-.015-.02c-.015-.007-.041.005-.056.016l.01.019a.082.082 0 0 1 .038-.015l.023-.004v.004ZM14.07 7.71a.123.123 0 0 1-.049.022l-.01.038-.016.018v.038c0 .026-.037.041-.037.041l-.015.019h-.102c-.037-.015-.01-.06.012-.056.022.003-.004-.064-.004-.064l.03-.004s0-.067.015-.067c.011 0-.004-.023-.019-.038-.015-.011-.037-.049-.049-.045h-.075l-.01.023-.042.007-.004.038c-.022.03-.112.086-.075-.008l.015-.026v-.034h-.067s-.038-.015-.038-.03V7.55l-.079-.086-.093-.011-.008-.019-.056-.007c-.068-.038-.128-.004-.113.052.008.056.027.079-.01.079-.038 0-.046-.03-.046-.03s-.03-.011-.03.004-.011.045 0 .06-.015.037-.026.026-.038-.045-.034-.056c.008-.012-.052-.083.008-.094.06-.011 0-.045.018-.053l.03-.015h.03l.02-.015-.05-.007-.03-.004-.056-.004a.157.157 0 0 0-.067.083c-.03.056-.102-.023-.075-.053.026-.03-.083-.003-.102.012-.018.015-.075.007-.075.007-.01.034-.063-.004-.048-.026.015-.023.015-.038.015-.038l-.02-.007-.022.045c-.048 0-.063.03-.056.049.011.018-.015-.004-.022.022-.004.026.007.026.026.038.022.01-.011.01.004.03.015.018.06 0 .037.026-.03.026-.079.015-.079.015-.003.037-.075.026-.082.015l-.064-.079-.075-.004c-.004-.052.038-.026.053-.067.015-.041.022-.113.022-.113s-.06 0-.064.015c-.003.02-.04.034-.04.034s-.03.011-.02.026c.012.015-.022.023-.022.023s.004.022-.004.034c-.03.03-.105 0-.116-.008l-.045-.019-.045-.03-.053.023-.015.015h-.056l-.004.045.102.011.007.094-.041-.015h-.026l-.012-.023H11.9v.08l.022.018.02.019.037.003.007.05h.094l.011.022h.056l.11.112-.008.038-.02.007c.008.026-.048.011-.048.011v.023l.026.004.027.015.037-.064c.038-.026.06.011.064.037 0 .02-.019.015-.019.015v.057l.023.007c.037.045-.015.071-.015.071l-.012.038c-.01.034-.052.026-.052.026l-.015.023-.045.01.09.012c.007-.03.03-.037.037-.022.015.015.015.04.015.04l.023.005-.004.04.023.008v.124l.026.03c.045-.019.045.011.022.026-.022.015-.007.083-.007.083l-.019.019v.03l-.022.015v.045c-.038-.02-.083-.012-.094 0-.038-.023-.105-.015-.105 0 .022.033-.026.037-.026.037l-.027.034c.02.037-.018.041-.018.041v.075l-.045.038v.1c0 .027.06.03.07.016.012-.015.057.03.057.03h.034l.007-.068-.022-.01v-.113l.037-.038c.045-.019.03.094.03.105 0 .045.023.038.038.03.037-.015.011.045-.019.038-.03 0-.011.037-.011.037l.019.011-.038.027-.026.033-.038-.01-.045-.005-.015-.026-.026-.004-.004.053-.018.022-.045.045c.06 0-.008.042-.023.042.034.01-.004.045-.09.018v.027l-.03.003.026.034h.03l-.01.068c0 .048-.125.015-.136 0v.075h-.026l.004.045V9.5l.037-.007v.026l.101.004.147-.154.086-.019c.007-.037.045.008.045.008.037-.004.045.022.045.022l.049.008c.037.011.015.015.018.03 0 .022.023.015.023.015l.007-.049.023.004-.023-.026-.04-.02-.046-.018c-.03-.041.008-.037.038-.03h.048s.057.075.057.094c0 .019.026.022.026.022h.034l.01.023h.035l.01.022h.068v-.033l-.06-.012-.003-.037-.045-.011c-.015-.064.01-.083.03-.053h.022l-.007-.052.026-.008-.008-.082-.022-.008v-.026l.094.004c-.008-.05 0-.072 0-.072h.03v.02l.116.01.082-.093c-.003-.008.008-.012 0-.02-.015-.01-.03 0-.048-.01-.02-.012 0-.075 0-.094-.008-.015.06-.038.048 0-.01.03 0 .049 0 .049.05-.05.09 0 .087.015 0 .01.026.022.045.01.018-.01.04.035.037.057-.011.023-.075.019-.082-.004 0-.022-.015-.015-.023-.003-.007.01-.037.018-.06.007a.02.02 0 0 1-.004-.007l-.082.093h.004c.045.027.022.06.007.068-.015.007-.037.007-.037.007l-.012.015-.097.008-.008.037c-.045-.003-.063.05-.052.075.011.027 0 .05 0 .05l.037.018.057-.015c.007-.038.037-.045.067-.068.03-.022.079.038.064.072-.015.03-.015.04-.015.04l.004.038-.038.012-.03.015v.018h-.105l-.015.02-.049.003-.015.026H12.5s-.053.03-.03.06c.022.03-.094.026-.12-.015-.008.038-.049 0-.049 0l-.041-.007-.004-.057c-.007-.037-.079-.037-.075-.01 0 .025-.135.01-.135.01l-.045.02-.041.025-.004.02-.067.007-.03.015-.012-.023h-.03l-.03.038c-.075.007-.15.052-.146.075.008.015-.03.037-.03.037l-.034.008-.022.037-.045.011-.008.083-.022.015v.034l-.026.007v.019h-.038l.023.06.03.015c.052.007.03.075.03.075h.03l.015.041.03.064c.01.045.045.034.06.03.015-.004.03.045.03.045l.15.004s-.008.015.018.022a.769.769 0 0 0 .207.004c-.008-.034.093-.041.135-.011.037.03.097.01.097.01l.056.068.038.087.064.018.045.012.015.063h.033l.012.045c.037.03-.012.094-.012.094v.086l.03.015-.003.03.048.05h.057l.138.153.113.037.019.06.03-.003.022-.02.09-.003.045-.045.049-.007.412-.353-.037-.022v-.083c.071-.049.075-.139.011-.146-.049-.004-.026-.056.019-.064l.026-.011v-.034l.086-.079v-.06l-.187-.157c-.083-.03 0-.214.056-.21.056.004-.004-.278-.004-.278l-.03-.015.008-.093h-.041l-.068.09-.019.06c-.007.078-.24.063-.25.052-.012-.011-.09-.045-.09-.045s-.06-.049-.072-.037c-.011.018-.064-.015-.064-.004s-.049-.03-.049-.03l-.075-.026.057-.012-.012-.045.098.05c.011.014.06.01.06.01l.015.02s.03 0 .049.018c.018.026.116.007.116.007l.026.023.041.015h.117l.003-.071.023-.023v-.045l.022-.022v-.038l.023-.007.004-.083.018-.004v-.183l-.056-.053c-.004.019-.064.019-.064.019s-.015.026-.026.026.015.038.008.056c-.008.023-.038.023-.038.023l-.056.015-.015.019h-.06l-.008-.05.068-.018.037-.019.02-.037c.003-.038.048-.034.048-.034s.086-.075.09-.105c.004-.037.034-.131.086-.131h.098c.037-.015.026-.064.026-.064l.049-.007.007.026s.068.007.075 0c.008-.015.023-.038.038-.03.022.011.082-.026.082-.026 0-.027.098-.015.098-.015l.01-.038s-.063-.086-.074-.086c-.011 0-.075-.053-.079-.034-.06-.015-.056-.097-.056-.097l-.023-.053c0-.03-.056-.094-.067-.086a.057.057 0 0 1-.028-.049.057.057 0 0 1 .028-.049c.015 0 .052-.056.052-.056l.02-.052.063-.02.007-.048-.037-.004s.037-.07.06-.07c.022 0 .142 0 .15-.008.015-.008.037-.068.037-.075 0-.015.03-.02.038-.023.015 0 .037-.034.049-.049.007-.015-.02-.112-.038-.093Z"/><path fill="#fff" d="M12 9.076c.004 0 .011.018.023.015.01 0 .018.022.003.022-.007 0-.007.011-.007.019 0 .004 0 .019-.011.03-.008.007-.015 0-.027-.004-.011-.007-.018-.007-.034-.007-.01 0 0 .022 0 .022s-.06 0-.048-.011c.011-.008.022-.011.015-.015-.008-.008 0-.011 0-.023 0-.011.026-.007.018-.015-.007-.007 0-.041.015-.022l.008-.019c-.008-.011 0-.011-.019-.019-.018-.007-.004-.037-.004-.037v-.026c.008-.027.064-.03.068-.004v.041l.019.008s-.004.015-.019.015 0 .007-.008.018L12 9.08v-.003Zm-.188.03c.012-.015.03-.09.053-.068.022.023.037 0 .037 0s.012.011.004.038c-.004.018-.011.04-.022.045-.015 0-.027.01-.045.015-.015 0-.023-.03-.023-.03h-.004Z"/></g><defs><clipPath id="a"><path fill="#fff" d="M0 0h24v18H0z"/></clipPath></defs></svg>