<svg xmlns="http://www.w3.org/2000/svg" width="24" height="18" fill="none"><g clip-path="url(#a)"><path fill="#fff" d="M0 0h24v18H0V0Z"/><path fill="#0038A8" d="M9.975 1.998H24v2.003H9.975V1.998Zm0 4.001H24v2H9.975v-2ZM0 10.001h24v1.998H0v-1.998Zm0 3.997h24V16H0v-2.002Z"/><path fill="#FCD116" d="m4.772 5.976.331.494c-1.36.984-.53 1.566-1.493 1.881.6-.585-.095-.634.41-1.853"/><path fill="currentColor" fill-rule="evenodd" d="m4.781 5.928.367.548-.026.019c-.337.244-.537.462-.663.656a1.699 1.699 0 0 0-.233.568c-.035.132-.067.254-.14.361-.085.122-.221.22-.466.301l-.135.044.101-.099c.148-.144.212-.252.237-.35a.762.762 0 0 0-.006-.31v-.001c-.017-.12-.038-.261-.023-.45a2.43 2.43 0 0 1 .196-.732l.012-.03.061.025-.012.03a2.358 2.358 0 0 0-.191.712 1.74 1.74 0 0 0 .023.436v.003a.815.815 0 0 1 .004.334.688.688 0 0 1-.156.276.662.662 0 0 0 .3-.227 1.05 1.05 0 0 0 .131-.34l.014-.05c.042-.156.096-.335.228-.537.128-.197.327-.414.654-.655l-.332-.495.055-.037Z" clip-rule="evenodd"/><path fill="currentColor" fill-rule="evenodd" d="M4.012 7.546c.054-.362.125-.839.495-1.45l.057.035c-.364.599-.433 1.065-.486 1.425l-.004.025c-.027.181-.052.34-.114.473a.657.657 0 0 1-.337.325l-.028-.06a.591.591 0 0 0 .305-.293c.057-.123.081-.271.109-.455l.003-.025Z" clip-rule="evenodd"/><path fill="#FCD116" d="M4.998 4.996h.66l-.66 3.63-.66-3.63h.66v3.63-3.63Z"/><path fill="currentColor" fill-rule="evenodd" d="M4.3 4.964h1.398l-.7 3.847L4.3 4.964Zm.078.066.588 3.23V5.03h-.588Zm.654 0v3.23l.587-3.23h-.587Z" clip-rule="evenodd"/><path fill="#FCD116" d="M4.999 6.207a1.21 1.21 0 1 0 0-2.42 1.21 1.21 0 0 0 0 2.42Z"/><path fill="currentColor" fill-rule="evenodd" d="M4.999 3.82a1.177 1.177 0 1 0 0 2.355 1.177 1.177 0 0 0 0-2.354ZM3.756 4.999a1.243 1.243 0 1 1 2.486 0 1.243 1.243 0 0 1-2.486 0Z" clip-rule="evenodd"/><path fill="currentColor" d="M5.89 4.514c-.078.088-.122-.066-.397-.066s-.319.165-.363.132c-.044-.033.231-.231.32-.242.087-.011.34.077.44.176Zm-.32.099c.077.066.011.209-.066.209s-.22-.132-.154-.22"/><path fill="currentColor" d="M5.207 4.713c.011-.132.121-.154.297-.154s.253.132.319.165c-.077 0-.143-.11-.319-.11-.176 0-.176 0-.297.11v-.011Zm.033.033c.044-.066.099.066.22.066a.401.401 0 0 0 .264-.088c.077-.055-.11.132-.231.132-.121 0-.286-.066-.253-.11Z"/><path fill="currentColor" d="M5.614 4.812c.143-.077.055-.187 0-.21.022.023.11.133 0 .21Zm-.616.66c.066 0 .088-.022.176-.022s.297.12.418.077c-.253.099-.154.033-.594.033h-.055l.055-.088Zm.638.154c-.044-.077-.033-.055-.12-.176.087.066.11.099.12.176Zm-.638.11c.275 0 .231-.055.594-.21-.264.034-.319.122-.594.122h-.055l.055.088Zm0-.407c.077 0 .1-.055.187-.055.088 0 .21.033.264.077.011.01-.033-.088-.12-.1-.089-.01-.056-.153-.155-.175 0 .044.033.033.044.099 0 .055-.099.055-.12 0 .021.088-.045.088-.1.088m.001.571c-.055 0-.198.033 0 .033s.055-.033 0-.033Z"/></g><defs><clipPath id="a"><path fill="#fff" d="M0 0h24v18H0z"/></clipPath></defs></svg>