<svg xmlns="http://www.w3.org/2000/svg" width="24" height="18" fill="none"><g clip-path="url(#a)"><path fill="#1EB53A" d="M0 12h24v6H0v-6Z"/><path fill="#0099B5" d="M0 0h24v6H0V0Z"/><path fill="#CE1126" d="M0 5.76h24v6.48H0V5.76Z"/><path fill="#fff" d="M0 6.121h24v5.76H0v-5.76ZM5.04 5.04a2.16 2.16 0 1 0 0-4.32 2.16 2.16 0 0 0 0 4.32Z"/><path fill="#0099B5" d="M5.76 5.04a2.16 2.16 0 1 0 0-4.32 2.16 2.16 0 0 0 0 4.32Z"/><path fill="#fff" d="m9.791 4.176-.137.41.21.072"/></g><defs><clipPath id="a"><path fill="#fff" d="M0 0h24v18H0z"/></clipPath></defs></svg>