<svg xmlns="http://www.w3.org/2000/svg" width="24" height="18" fill="none"><g fill-rule="evenodd" clip-path="url(#a)" clip-rule="evenodd"><path fill="currentColor" d="m0 0 12.213 7.713H27v2.574H12.213L0 18V0Z"/><path fill="#FF0" d="m0 17.357 12.47-7.97H27v-.774H12.47L0 .643V1.8L11.7 9 0 16.2v1.157Z"/><path fill="#40AA40" d="m0 18 12.47-7.97H27V18H0Z"/><path fill="#CE0000" d="m0 0 12.47 7.97H27V0H0Z"/><path fill="#FF0" d="M3.368 9.372c.042.01.056.021.098-.038.007-.036.035-.078.06-.116.028-.053.042-.07.07-.036.021.025.099-.017.127.004.05.035.021.028.06-.007.031-.063.003-.056-.036-.084-.035-.022-.109.02-.14 0 .01-.064.031-.07.07-.085.028.018.11-.014.134-.014.035.007.07.01.08-.042.018-.035.011-.01-.006-.035-.029-.025-.106.017-.138 0-.035-.032-.031-.042-.007-.092.029-.017.053-.01.092.014.035.029.098-.024.133-.028.032-.035.067-.045.043-.088-.01-.035-.021-.035-.064-.045-.042-.028-.098.024-.116-.018.035-.05.046-.039.088-.01.028.007.106-.04.134-.043.038-.01.02.036.049-.063-.01-.042-.08.025-.12.014-.035.007-.07-.007-.07-.049 0-.053.028-.056.067-.05.035.008.109-.034.14-.034.036.02.053.014.085-.036.021-.06-.004-.035-.046-.07-.028-.017-.105.025-.137.004.007-.021.018-.05.035-.06.032.007.057.007.095.028.035.018.099-.053.13-.077-.007-.036-.07.014-.105-.01-.021-.018-.053-.036-.06-.054.021-.06.01-.056.07-.035.029-.01.081-.01.046-.067-.007-.007-.035-.007-.063-.017-.032-.021-.06-.046-.095-.053-.025-.003-.06-.014-.077-.007 0 .035.007.056.003.099.018.024.046.024.053.035-.032.028-.05.014-.081.014-.042-.025-.018-.11-.067-.092.01.025.007.12.028.141.021.014.05.028.053.046-.035.052-.046.049-.088.024-.035-.02-.021-.098-.053-.095-.035.028-.035.025-.028.064 0 .049-.017.12.025.147.046.035.053.028.014.095-.025.032-.039.025-.07.01-.032-.02-.025-.105-.05-.13-.049-.027-.02-.027-.06.008-.01.045 0 .056.018.095.014.024.014.105.042.112.043.025.046.021-.007.07-.035 0-.056.011-.084-.024-.035-.028-.014-.113-.06-.113-.042.004-.053.004-.049.064.01.052-.01.133.032.165.038.017.063.014.077.039-.014.01-.035.045-.05.052-.027 0-.055-.017-.087-.024-.035-.018-.018-.05-.05-.07-.034.01-.034-.036-.052.01.007.042-.007.091.035.12.028.017.053.06.084.08.036.042.022.05 0 .106-.031.003-.063-.018-.094-.035-.032-.025-.025-.106-.057-.123-.024-.029-.017-.05-.06.007 0 .035.004.042.015.07 0 .035-.007.112.028.137.035.007.077.025.105.035.028.035.004.028-.028.077-.018.05-.018.06-.05.085-.027.035-.034.053-.013.098Z"/><path fill="#FF0" d="M4.254 9.419c.025-.043.039-.05 0-.12-.028-.025-.056-.07-.084-.109-.036-.056-.046-.077 0-.095.028-.01.02-.105.052-.13.05-.039.035-.01.018-.067-.05-.06-.053-.028-.095.007-.035.025-.025.123-.053.148-.056-.035-.056-.063-.053-.106.032-.024.032-.126.043-.15.02-.036.035-.071-.007-.103-.029-.035-.007-.014-.036-.01-.035.024-.024.123-.056.147-.042.029-.049.018-.084-.028-.004-.035.01-.06.049-.091.039-.028.018-.116.028-.151-.02-.05-.017-.092-.063-.085-.035 0-.042.01-.07.053-.043.035-.014.113-.064.113-.031-.057-.014-.064.028-.099.018-.024.007-.13.014-.158.008-.042.036-.007-.038-.07-.042-.01-.007.091-.035.126-.01.042-.036.07-.07.056-.053-.02-.043-.052-.022-.087.021-.036.01-.134.025-.166.035-.035.035-.049 0-.105-.046-.05-.035-.01-.077.02-.036.026-.025.124-.057.149-.017-.018-.035-.036-.038-.064.017-.028.024-.056.063-.088.028-.031-.014-.123-.021-.168-.035-.007-.014.077-.053.105-.025.018-.05.042-.07.042-.046-.045-.05-.035-.007-.088.003-.035.024-.087-.042-.07-.011 0-.018.035-.04.056-.034.025-.066.046-.087.078-.014.024-.035.06-.035.08.028.018.053.018.091.036.028-.007.042-.035.053-.039.01.042-.007.056-.018.091-.042.036-.112-.024-.112.036.028-.004.112.035.14.024.022-.017.046-.042.064-.035.035.053.028.067-.01.099-.036.028-.106-.015-.11.017.01.05.007.05.046.056.046.018.102.067.14.035.053-.035.053-.045.095.022.022.038.011.052-.017.077-.032.028-.106-.014-.14 0-.043.042-.032.014-.015.07.035.028.05.025.095.018.028-.007.106.028.12 0 .038-.035.035-.039.06.035-.015.042-.011.063-.057.08-.038.029-.105-.03-.126.018-.014.05-.018.06.038.078.053.01.12.063.166.035.031-.035.035-.063.066-.07.004.02.025.056.025.073-.007.032-.035.053-.056.085-.028.031-.053 0-.081.024-.004.04-.05.022-.01.06.034.007.08.042.119.014.031-.024.08-.035.109-.06.053-.02.053 0 .098.043-.01.035-.042.06-.07.084-.035.025-.106-.014-.137.01-.035.018-.05 0-.018.067.035.018.042.01.07.01.036.019.099.057.138.03.02-.036.056-.071.077-.1.039-.013.025.008.056.06.039.043.05.046.06.088.021.042.035.06.084.053l.004.004Z"/><path fill="#FF0" d="M3.445 11.057c0-.187-.028-.373 0-.373 1.645 0 2.057-1.125 2.057-1.87 0-.746-.57-1.502-1.646-1.502-1.23 0-1.645.732-1.645 1.498a1.3 1.3 0 0 0 1.234 1.311c.823 0 1.03-.186 1.645-.935-.203.935-1.23 1.308-1.645 1.308-.823 0-1.645-.562-1.645-1.68 0-.935.615-1.87 2.056-1.87 1.234 0 2.057.935 2.057 1.87 0 1.307-1.026 2.243-2.468 2.243Z"/></g><defs><clipPath id="a"><path fill="#fff" d="M0 0h24v18H0z"/></clipPath></defs></svg>