<svg xmlns="http://www.w3.org/2000/svg" width="24" height="18" fill="none"><g fill-rule="evenodd" clip-path="url(#a)" clip-rule="evenodd"><path fill="#CE1126" d="M0 0h24v18H0V0Z"/><path fill="#002B7F" d="M0 0h12v9H0V0Z"/><path fill="#fff" d="m6.75 8.599-.776-.525-.746.528.244-.933-.713-.57.919-.057.304-.885.33.9.9.027-.713.61.251.905Zm-.135-6.21-.622-.402-.6.39.165-.75-.548-.476.728-.06.27-.697.277.7.717.065-.552.502.165.728Zm-2.737 2.23-.6-.412-.626.413.195-.728-.567-.48.72-.037.263-.713.255.709.735.041-.563.47.188.738Zm5.497-.494-.577-.375-.563.375.165-.686-.525-.443.687-.056.236-.645.262.652.664.038-.514.461.165.679ZM7.76 5.752l-.386-.24-.386.248.1-.461-.344-.312.45-.037.172-.435.184.435.446.037-.341.312.105.453Z"/></g><defs><clipPath id="a"><path fill="#fff" d="M0 0h24v18H0z"/></clipPath></defs></svg>