<svg xmlns="http://www.w3.org/2000/svg" width="24" height="18" fill="none"><g clip-path="url(#a)"><path fill="#244AA5" d="M0 0h24v18H0V0Z"/><path fill="#D0A650" d="M9.487 8.43s.045-.03.06-.033c.019 0 .075-.023.075-.023s.038-.019.056-.019c.023 0 .06.023.075.042a.307.307 0 0 0 .075.052s.045.015.057 0c.007-.015.026-.026.048-.026.02 0 .023-.019.023-.034a.09.09 0 0 1 .022-.052c.02-.02.05-.03.05-.03s.044-.02.048-.045c.008-.027.049-.045.075-.05.026 0 0-.014.068-.007.063.008.075-.015.075-.033.003-.02 0-.038.04-.038.042.008.06.008.06-.015 0-.022.038-.037-.026-.052-.067-.02-.06-.004-.067-.038 0-.026 0-.022-.041-.026-.045-.004-.023-.026-.027-.049-.003-.022-.014-.037-.022-.049-.011-.015-.034-.015-.034-.037 0-.023-.003-.038-.026-.038-.026 0-.037 0-.037-.018 0-.023.007-.038.03-.038.026 0 .037-.022.037-.045-.007-.022-.007-.071-.007-.071l.033-.038s.098-.078.105-.093c.008-.015.042-.027.056.003a.16.16 0 0 0 .038.053c.011.015.049.004.056-.011.008-.015.011-.072.034-.102.022-.026.037-.04.041-.067.004-.026.019-.045.045-.045.023 0 .038-.034.038-.053 0-.018.015-.037.045-.045.03-.003.049-.022.06.008.011.03.022.026.041.037.023.012.053.023.068.012.018-.015.026-.038.048-.027.023.015.038 0 .045-.026l.011-.071s.004-.019.042-.019c.037 0 .011-.022.03-.037.022-.015.022-.03.049-.023.026.011.067-.011.048-.037-.022-.023-.067-.06-.041-.09.026-.03.037-.075.011-.083-.026-.004-.067.004-.071-.022-.004-.03-.015-.053.019-.057.03-.003.082-.003.101-.018.015-.015.068-.027.068-.068 0-.045.014-.049.022-.075.004-.022.004-.075-.019-.097-.022-.027-.052-.06-.056-.075a.103.103 0 0 0-.06-.05c-.03-.007-.06-.014-.06-.037 0-.026.022.004.022-.06 0-.063-.04-.075-.04-.075l-.065-.037s-.112-.03-.142-.03c-.03 0-.067-.03-.034-.053a.063.063 0 0 0 .034-.082c-.015-.026-.022-.049-.071-.06-.049-.011-.06-.023-.038-.053.019-.026.027-.048.053-.026a.106.106 0 0 0 .101.011c.038-.015.049-.03.068-.01.014.014.037.03.063.007a.097.097 0 0 1 .098-.02c.018.016.075.012.09 0 .015-.007.052-.037.052-.048 0-.011.023-.045.042-.056.022-.015.048-.053.07-.053.023 0 .03-.026.03-.037 0-.019.02-.053.023-.064 0-.011.045-.03.075 0 .034.019.075.03.075.03s.038.008.064 0a.075.075 0 0 1 .079 0c.034.023.075.023.075.023l.011-.05c0-.014.008-.044-.011-.055-.015-.012-.038-.027-.004-.053.037-.022.037-.019.071-.019l.083.004c.026 0 .067.026.067.049 0 .022.019.037.038.052.022.012.049.023.037.045-.004.02-.004.038.023.03.026-.003.034.012.034.034 0 .019.007.03.037.038.022.007.037.026.037.045 0 .018-.007.033 0 .052l.038.053s.049.056-.015.026c-.06-.026-.075-.038-.094-.038l-.037.02-.049.007c-.022 0-.045.045-.007.052.033.008.045.015.045.045s-.012.019-.03.038c-.015.022-.03.007-.06.007s-.038.026-.038.049c0 .022.011.022.023.037.014.023.037.027.06.008.018-.019.037-.034.048.004.015.037.034.037.056.037.027 0 .038 0 .06-.015.02-.011.046 0 .05.034.007.03.025.037.048.049.023.01.037.018.037.037.008.023.02.03.042.019.022-.015.056-.023.071-.004l.034.045v.041l.086.03.008.038c0 .011.014.022.037.015h.06s.03-.011.03-.038c0-.022.011-.03.038-.03.018 0 .067.02.078-.007.015-.023.053-.03.083-.019l.112.045s-.011 0 .015.041a.095.095 0 0 0 .075.042s0 .037.012.052c.007.015.048.023.067.008.023-.015.053-.038.079-.038.026 0 .045 0 .045-.015s-.027-.026-.027-.052c0-.027.027-.023.03-.05.004-.022.03 0 .05.016.018.015.037.03.037.045 0 .019.037.075.056.082.023.008.079.012.098-.007.014-.023.06-.03.056.019-.004.048-.015.052.015.067.03.015.037.075.011.09s-.038.019-.038.045-.007.06.015.075c.023.019.038.03.038.045 0 .019.023.09.023.09s.014.071.007.086c0 .02-.011.045.026.042.038-.004.049-.004.049.026s.015.045-.008.056c-.022.015-.037.053-.014.06a.077.077 0 0 1 .044.038c.004.015.038.045.06.026.023-.015.027-.023.045-.026.015-.004.03-.015.012-.038-.015-.019-.023-.037-.004-.052.019-.012.026-.05.026-.05s.027-.037.056 0c.03.038.038.023.057.023.019 0 .03.02.03.038 0 .022.045.019.045.049l.007.112s0 .041.027.056c.026.02.022.023.007.038-.011.022-.008.056-.008.075 0 .019.008.019-.01.037-.023.015-.034.038-.02.06.012.023.008.038.042.068.037.026.034.037.034.06 0 .019.033.049.033.067 0 .02.027.045.049.05.023.003.045.037.045.06l.004.07s0 .012.022.012c.027 0 .045.03.053 0 .007-.038.037-.038.052-.05.015-.01.053-.022.072-.01a.11.11 0 0 0 .056.01l.097.005s.023 0 .038.03c.011.03.049.067.03.082-.023.019-.023.049 0 .049.022 0 .056 0 .056.019 0 .022 0 .037.026.026.019-.011.034-.015.041 0 .012.015.027.015.05.026.022.015.03.004.044-.011.011-.015.064-.03.064-.03s.068-.019.094-.011l.064.026s.014.037.007.064c-.008.022-.019.018-.008.056.008.037-.01.037-.026.037-.018-.007-.037-.007-.037.027 0 .03-.015.037-.015.067 0 .03 0 .023-.019.038-.015.01-.023.03.004.037.026 0 .018.03.018.045l-.003.053s0 .018-.027.018c-.026 0-.056 0-.06.02-.007.018-.037.048-.01.07.03.02.022.03.003.038-.015.011-.03.049.008.06.033.015.03.026.007.041-.022.015-.064.03-.064.053 0 .022-.011.022-.037.026-.027.004-.038.037-.008.075.03.041.038.037.06.037.023 0 .023-.037.023-.037l.094.007c.022 0 .052 0 .07-.01.02-.016.065-.035.065 0 0 .037.01.037.03.048.022.019.026.004.044.03.02.022.023 0 .038-.026.011-.027.038-.053.06-.023.019.034.019.023.045.023s.037.015.037.033c0 .02.023.02.057.015.03 0 .034.02.045.038.011.019.019.015.037.015.015 0 .034 0 .045-.015.015-.015.03-.038.049-.011.019.022.053.018.06-.008.011-.03.049-.052.071-.022.023.033.038.033.06.037.023 0 .053 0 .064.023.015.022.056.052.026.075-.03.026-.063.056-.037.067a.112.112 0 0 1 .06.038.29.29 0 0 0 .101.03c.026 0 .045.007.075-.02.034-.022.064-.022.06.012-.004.03.011.068.011.068s.023.052.023.07c0 .02-.004.023.037.05.038.022.03.037.064.015.03-.023.038-.038.038-.057v-.063s.044-.008.06-.02c.018-.014.086-.048.105-.033.018.015.037.011.056.004.018-.008.052-.008.071-.008.015 0 .045.004.083-.022.033-.03.033-.023.056 0a.046.046 0 0 1 .007.06c-.015.015 0 .049.03.049s.038.018.038.037l.011.064c0 .015 0 .026.052.037.046.012.038.038.046.06.01.02.01.038-.015.038-.027 0-.038.011-.038.03-.008.019-.045.026-.045.026l-.038-.007s-.03 0-.04.015c-.016.018-.038.048-.023.075.018.03.018.045 0 .06-.015.01-.027.07-.041.06-.02-.015-.038 0-.057.01-.019.008-.015.065.019.083.038.023.045.05.045.05l.038.06s-.012.01-.02.033c-.01.019-.037.06-.01.067.026.008.014.053-.012.053-.026 0-.056-.015-.06.019-.004.033-.019.022-.045.018-.026 0-.09-.018-.108.012-.02.033-.023.045-.053.04-.03 0-.019.05-.008.068l.038.05s.026.018.026.06c0 .037-.018.037-.037.007-.015-.027-.049-.023-.053.007-.003.034-.011.083-.037.083-.034 0-.045.007-.06.022-.011.015-.034.045-.034.06s-.004.034-.026.038c-.023.003-.026.045-.026.045s-.053.01-.057.03c-.004.018.004.052-.037.056a.113.113 0 0 0-.083.052c-.015.02-.018.038 0 .057.019.018.03.082.053.093.018.012.037.02.034.05-.004.033-.03.055.003.055.038 0 .056.008.045.038-.015.026-.015.03-.037.041-.03.015-.041.015-.041.045s.007.034-.015.045c-.023.011-.023.026-.023.053 0 .026-.008.015-.034.04a.075.075 0 0 1-.082.023c-.023-.007-.026-.007-.03-.033-.004-.023-.041-.023-.064-.02-.022 0-.053.027-.053.027s-.037.026-.022.045c.019.019.008.053-.023.049-.03-.004-.097.03-.12-.004-.022-.037-.082-.06-.093-.011-.008.045.026.041.022.09 0 .049-.011.049-.03.064-.015.015-.015.03-.022.048 0 .02-.008.064.022.08a.11.11 0 0 1 .045.085c0 .023 0 .05.03.05s.056-.008.06-.035c.004-.026.064-.045.072.012 0 .056 0 .086.026.108.019.023.037.057.056.068a.498.498 0 0 1 .045.112c-.041.012-.053.068-.079.075-.015.008-.034 0-.048.012-.008.01-.008.026-.023.03-.034.015-.026-.034-.067-.015-.034.015-.038.056-.087.037-.026-.007-.041-.112-.049-.135l-.04-.067c-.03-.045-.087 0-.106-.015-.03-.02-.018-.053-.063-.057-.09-.007-.027.057-.064.068-.075.026-.075-.068-.128-.023-.019.015.038.027.023.053-.011.022-.064.06-.064.086.008.038.045.049.056.075.038.086-.018.143-.101.075-.045-.034-.056-.101-.124-.094-.018 0-.022.015-.037.02-.019 0-.03-.016-.049-.012-.026.011 0 .03-.008.045 0 0-.037.026-.037.037-.022.023-.015.045-.045.068-.022.019-.041.007-.067.037-.027.027-.03.072-.064.098-.019.015-.03-.041-.053-.004l-.007.015c-.008.011-.008.015 0 .026.045.09-.053.12-.083.184-.011.026.023.049.011.071l-.056.064a.08.08 0 0 1-.015.038c-.007.007-.037 0-.037.015s.03.026.037.033c.008.012-.007.027 0 .03.045.05.019.034.041.075.004.008.02-.003.027.012.004.015-.015.015-.008.03 0 .007.038.052.038.052 0 .015-.068.045-.083.045-.041 0 .038-.082-.03-.082-.03 0-.034.063-.037.075h-.038c-.045 0-.075.052-.09.056-.011.004-.037-.008-.056 0-.015 0-.037.019-.052.019-.012 0-.015-.008-.027-.015-.019-.012-.056-.015-.075-.023-.015 0-.037.015-.045.011-.011-.007.011-.037-.022-.052l-.026-.064c.01-.037.022-.075.018-.116-.007-.041-.075-.075-.09-.113-.011-.022-.022-.09-.049-.105a.233.233 0 0 1-.067-.082c0-.008.011-.023 0-.038-.011-.01-.03-.018-.038-.037-.003-.015 0-.068-.018-.079a1.127 1.127 0 0 0-.188-.034c-.015 0-.026 0-.037-.01l-.023-.027-.037.007c-.011 0-.03-.007-.038 0-.041.027-.052.064-.093.098-.042.03-.087.03-.128.064-.026.022-.045.078-.071.105-.011.01-.026 0-.03.003-.023.027-.053.045-.075.068-.004.007 0 .015-.008.019l-.049.015h-.045c-.018.007-.018.03-.093.045l-.019.01-.023.02h-.033c-.019 0-.03.018-.045.018-.038.008-.105-.018-.135-.003-.019.003-.068.063-.086.067-.012.004-.023 0-.038-.004l-.022.083-.09.079c-.012.01-.016.026-.03.037a.046.046 0 0 1-.038.019c-.015 0-.041-.015-.06-.015a.506.506 0 0 0-.15-.004c-.034.004-.023.09-.098.098l-.123.015c-.004 0-.03-.015-.056-.012a.118.118 0 0 0-.042.045v.02l.008.014c-.015.019-.053.049-.064.075l-.015.015c-.008.008-.06.026-.064.034-.011.03.038.06.03.071-.011.038-.064.075-.082.113-.004.015.018.063.018.078-.007.05-.022.11-.018.154l.007.064.027.019.067.135c.011.082-.112.052-.037.135a.095.095 0 0 0 .03.037l.104.086c0 .015-.075.027-.086.038-.037.037-.063.097-.097.135-.023.019-.038-.004-.068.049-.007.018 0 .06-.011.075-.019.015-.03-.008-.049 0-.007 0-.011.026-.019.03-.018.018-.194.112-.21.1-.007-.003-.018-.033-.018-.04 0-.012-.015-.034-.023-.038-.045-.037-.112-.049-.157 0-.011.011-.011.03-.026.038l-.075.06-.02.018c-.018 0-.06-.048-.074-.063-.015-.023-.075-.075-.079-.102 0-.09-.071-.183-.098-.27h.042c.049-.033.037-.112.124-.082.01-.015.01-.03.03-.038.007-.007.022-.01.026-.018.03-.045.063-.218.034-.263-.027-.037-.057-.037-.075-.101-.008-.019 0-.038 0-.06l-.038-.116c-.008-.012-.026-.02-.026-.027l-.008-.116c-.026-.082-.127-.131-.131-.142l-.038-.064c-.014-.026-.014-.038-.022-.06-.004-.011-.023-.023-.023-.034 0-.022.06-.064.057-.101 0-.011-.038-.049-.03-.068.007-.022.045-.067.045-.093 0-.03-.06-.098-.068-.128-.004-.019.023-.03.015-.041-.007-.015-.067-.071-.075-.086-.011-.012.019-.027 0-.05-.022-.018-.003-.014-.011-.03-.008-.018-.026-.037-.037-.055a1.872 1.872 0 0 1-.057-.218c-.011-.011-.026-.022-.034-.037l-.014-.045s-.06-.02-.072-.038c-.007-.011-.011-.06-.026-.082-.008-.012-.019-.008-.026-.015-.008-.008-.008-.02-.011-.027-.02-.022-.053 0-.075-.09-.038-.022-.064-.037-.09-.067l-.016-.015c-.022-.008-.056-.011-.075-.026-.01 0-.067 0-.075-.008l-.015-.03c-.03-.004-.082 0-.108-.022-.019-.02-.023-.105-.06-.094a.026.026 0 0 0-.015 0c-.027-.038-.109-.038-.143-.06-.007-.004-.037 0-.037-.008l.003-.048-.04-.053c-.035-.007-.023-.011-.038-.022-.057 0-.064.007-.098.037-.007.008-.026.011-.037.015-.019.011-.023.045-.049.03l-.023-.019c-.015-.015-.022-.007-.03-.03-.045-.026-.168.057-.195 0-.022-.01-.037 0-.056-.015-.007-.007.026-.112-.064-.15l.06-.04c.008-.012 0-.03 0-.038 0-.02.012-.053.008-.064 0-.011-.015-.023-.019-.038-.007-.01 0-.03-.007-.045l-.03-.015c-.023-.018-.045-.03-.064-.052l-.015-.019c-.015-.011-.068-.03-.068-.052 0-.008.015-.012.015-.02.004-.01 0-.022.012-.03.022-.037.078-.018.071-.082-.004-.03-.026-.052-.03-.082-.011-.008-.011-.019-.019-.026-.056-.004-.049-.06-.067-.075-.057-.038-.102-.015-.038-.09.008-.027-.056-.068-.067-.08-.023-.022-.012-.07-.023-.093 0-.011-.041-.034-.052-.049l-.019-.037v-.004c.011-.011.007-.03 0-.037-.004-.012-.023-.008-.026-.015a.566.566 0 0 0-.184-.094c-.019-.008-.011-.023-.03-.03l-.113-.045c-.007 0-.015-.041-.022-.056l-.034-.038c0-.037-.022-.037-.052-.06v-.022l.022-.08c.004-.014.023-.03.019-.044l-.015-.086c-.03-.075-.064-.068-.045-.17 0-.022-.004-.033.011-.052l.008-.01.045-.035c.015-.022.026-.07.045-.086l.067-.045c.008-.007.015-.034.011-.045-.015-.007-.03-.004-.045-.007-.007 0-.026-.015-.04-.015-.005-.008-.012-.012-.012-.02L8.088 9.6a.12.12 0 0 1-.052-.018c-.019-.008-.045-.008-.064-.02-.037-.018-.075-.074-.109-.082-.045-.01-.075.004-.12.008-.026 0-.026-.015-.048-.023-.03-.01-.008.015-.075-.007-.012-.008 0-.03 0-.038h-.038c-.052-.015-.034-.067-.049-.1-.003-.008-.03-.008-.037-.008-.008 0-.008-.008-.008-.008l.008-.004c.007-.015-.026-.052-.026-.06.003-.01.075-.022.082-.022.004-.011-.004-.019-.007-.026 0-.02.011-.045.018-.064V9.12c-.022-.01-.026-.026-.045-.037 0-.011.012-.015.015-.026.034-.094.087-.02.132-.105.003-.008.018-.027.022-.042h.008c.007 0 .022.008.03 0 .007-.007.018-.007.03-.01h.018c.083-.016.064-.046.113-.08.015-.01.052-.015.067-.022.02.011.045.037.08.052.025.008.112.027.127.038.018.007.022.03.037.037.049.03.019-.015.068-.007.048.011.086.052.131.071l.037-.004a.442.442 0 0 1 .094-.015l.03.012c.011.003.019-.02.03-.02.03.008.03.02.075.016 0 0 .023-.124.045-.128.011-.003.045.027.053.03.015.004 0-.026 0-.026a.323.323 0 0 1-.027-.094s.02.008.03.004c.023-.007.057-.015.075-.034l.038-.056c.004-.007-.008-.03 0-.037l.034-.023c.015-.015.015-.037.037-.049.075-.007.101-.067.173-.075h.022l.015.023c0 .004.049.034.056.03.008 0 .012-.011.02-.015.01.004.052-.019.055-.034 0 0-.007-.011-.003-.022a.45.45 0 0 1 .06-.045h.052c.008.007.008.022.019.022h.045c.007 0 .011-.019.026-.019Z"/><path fill="#fff" d="m13.197 2.752.603 1.86-1.582-1.151h1.957l-1.582 1.151.6-1.86h.004Zm2.355.417.6 1.86-1.58-1.151h1.954l-1.582 1.151.607-1.86Zm2.246.816.6 1.86-1.58-1.15h1.955L17.19 5.848l.608-1.86v-.004Zm-6.995-1.233-.603 1.86 1.582-1.151H9.825l1.582 1.151-.6-1.86h-.004Zm-2.354.417-.6 1.86 1.578-1.151H7.474l1.582 1.151-.607-1.86Zm-2.235.816.607 1.86-1.582-1.15h1.953L5.61 5.844l.604-1.86Z"/></g><defs><clipPath id="a"><path fill="#fff" d="M0 0h24v18H0z"/></clipPath></defs></svg>