<svg xmlns="http://www.w3.org/2000/svg" width="24" height="18" fill="none"><g fill-rule="evenodd" clip-path="url(#a)" clip-rule="evenodd"><path fill="currentColor" d="M0 14.337V3.671l7.942 5.333-7.945 5.333H0Z"/><path fill="#00C" d="m5.417 18.004 8.916-5.997h12.663V18H5.417v.003Z"/><path fill="red" d="M4.848 0h22.148v6.005H14.33S4.964-.059 4.848 0Z"/><path fill="#FC0" d="M0 2.251v1.42l7.942 5.33-7.945 5.336v1.417l10.001-6.75L-.003 2.251H0Z"/><path fill="#093" d="M0 2.25V0h3.34l10.589 7.172h13.07v3.663H13.93L3.336 18H0v-2.247l9.998-6.75L.004 2.25H0Z"/><path fill="#fff" d="M3.336 0h2.082l8.915 6.001h12.663v1.17H13.93L3.336.005V0Zm0 18.003h2.082l8.915-5.997h12.663v-1.168H13.93L3.336 18v.003Z"/></g><defs><clipPath id="a"><path fill="#fff" d="M0 0h24v18H0z"/></clipPath></defs></svg>