<svg xmlns="http://www.w3.org/2000/svg" width="24" height="18" fill="none"><g fill-rule="evenodd" clip-path="url(#a)" clip-rule="evenodd"><path fill="#198A00" d="M-3 0h27v18H-3V0Z"/><path fill="#EF7D00" d="M20.832 6.469H24V18h-3.168V6.469Z"/><path fill="currentColor" d="M17.668 6.462h3.164v11.531h-3.164V6.462Z"/><path fill="#DE2010" d="M14.437 6.469h3.231V18h-3.234l.003-11.531Z"/><path fill="#EF7D00" d="M21.877 2.307s1.195-.51 1.308-.616c.052.064-.479.704-1.509.94.935-.219 1.734-.915 1.899-.894.045.01.035.679-2.11 1.259 1.484-.387 2.345-1.104 2.335-1.027.01.018-.148.563-1.445.988.362-.084 1.346-.682 1.336-.566.031.046-.95 1.308-2.728.897 1.42.369 2.337-.52 2.467-.503.029.003-.26.773-2.046.822.855-.087.609-.003.609-.003s-.503.394-1.115.126c.478.13.531.138.542.176-.032.056-.422.134-.806-.07.306.127.58.148.584.193a.393.393 0 0 1-.372.046c-.173-.077-1.769-1.058-1.769-1.058l2.721-.749.099.035v.004Zm-3.2 2.657c-.239 0-.246.211-.246.211s-.017.018-.007.12l.06-.091c.028.003.137.035.31-.099-.159.165-.064.225-.064.225s-.035.13.084.155c-.035-.053-.014-.099-.014-.099s.17-.017.159-.221c.003.186.105.232.105.232s0 .102.11.112c-.057-.052-.047-.133-.047-.133s.141-.106.025-.281c.07-.043.13-.159.13-.159s-.098-.042-.144-.077c-.021-.046 0-.299 0-.299l-.063-.327-.17.51c.008-.07.011.221-.228.221Z"/><path fill="currentColor" d="M23.186 1.674c.004 0 .009.002.012.006.008.01.008.022.007.032a.13.13 0 0 1-.012.036.515.515 0 0 1-.063.095c-.06.074-.154.168-.283.267l-.014.011a9.51 9.51 0 0 0 .306-.183l.008-.005c.068-.042.13-.08.184-.111a1.47 1.47 0 0 1 .146-.078.38.38 0 0 1 .055-.02.12.12 0 0 1 .047-.004.025.025 0 0 1 .014.01.04.04 0 0 1 .006.011.09.09 0 0 1 .004.03.27.27 0 0 1-.02.092.836.836 0 0 1-.23.303 1.74 1.74 0 0 1-.126.104c.163-.09.293-.17.386-.227l.026-.015c.05-.032.09-.055.116-.068a.135.135 0 0 1 .033-.014.026.026 0 0 1 .02.004.02.02 0 0 1 .01.017v.006l-.001.009a.455.455 0 0 1-.04.098 1.063 1.063 0 0 1-.197.243 1.68 1.68 0 0 1-.141.12l.091-.04a.686.686 0 0 1 .118-.042.084.084 0 0 1 .038 0 .03.03 0 0 1 .017.011.03.03 0 0 1 .005.016l.001.006-.001.01a.386.386 0 0 1-.038.066 1.358 1.358 0 0 1-.13.15 2.24 2.24 0 0 1-.19.174.415.415 0 0 1 .04-.019.09.09 0 0 1 .043-.008m.24-.373c-.003 0-.01 0-.018.002a.658.658 0 0 0-.11.039 6 6 0 0 0-.297.14 3.726 3.726 0 0 1-.662.32 1.513 1.513 0 0 1-.227.08.018.018 0 0 1-.021-.013.018.018 0 0 1 .011-.022c.079-.025.153-.052.224-.078.043-.018.09-.04.137-.061a14.875 14.875 0 0 0 .445-.218l.075-.038c.14-.087.246-.172.325-.248a.981.981 0 0 0 .19-.234.43.43 0 0 0 .034-.076 2.041 2.041 0 0 0-.122.07l-.025.016a7.874 7.874 0 0 1-.804.442 5.97 5.97 0 0 1-.918.368c-.14.046-.287.09-.44.13a.018.018 0 0 1-.01-.034 7.595 7.595 0 0 0 1.352-.495c.239-.124.404-.24.518-.344a.802.802 0 0 0 .22-.29.238.238 0 0 0 .018-.08l-.002-.016a.107.107 0 0 0-.025.004.349.349 0 0 0-.05.019 1.532 1.532 0 0 0-.142.075l-.183.11-.009.006-.234.141a6.25 6.25 0 0 1-.503.27 3.169 3.169 0 0 1-.74.268.018.018 0 0 1-.008-.034 3.64 3.64 0 0 0 .732-.265c.167-.085.308-.178.422-.266.126-.098.219-.19.276-.261a.486.486 0 0 0 .06-.088v-.004l-.057.035a3.91 3.91 0 0 1-.165.084 17.43 17.43 0 0 1-.444.207 38.555 38.555 0 0 1-.599.262l-.013.006-.007-.016.007.016a.018.018 0 0 1-.022-.006l-.084-.03-2.677.736a12.522 12.522 0 0 0 .217.133 171.427 171.427 0 0 0 1.167.706c.175.103.306.178.348.197.083.038.17.03.239.012a.43.43 0 0 0 .102-.044.177.177 0 0 0-.031-.013 1.79 1.79 0 0 0-.12-.032l-.008-.002a1.156 1.156 0 0 1-.41-.129.018.018 0 0 1 .016-.031c.146.06.286.096.392.123.048.006.094.008.136.008a.773.773 0 0 0 .181-.02.283.283 0 0 0 .069-.028.042.042 0 0 0-.01-.007.363.363 0 0 0-.07-.027l-.124-.035a1.116 1.116 0 0 1-.324-.087.018.018 0 0 1 .012-.033 79.883 79.883 0 0 0 .319.086c.174.019.33-.009.457-.05a1.23 1.23 0 0 0 .322-.159.019.019 0 0 1 .006-.004.67.67 0 0 0-.069-.002c-.16.02-.338.035-.533.04a.018.018 0 0 1-.002-.035 8.525 8.525 0 0 1 .533-.04m.085.07-.004.002a.775.775 0 0 1-.084.054 1.19 1.19 0 0 1-.568.165.33.33 0 0 1 .062.025c.008.004.015.01.02.016a.052.052 0 0 1 .01.02c0 .004 0 .009-.002.013a.08.08 0 0 1-.036.029.32.32 0 0 1-.06.02.786.786 0 0 1-.17.022l.025.012c.01.006.02.015.022.03v.006a.023.023 0 0 1-.005.008.465.465 0 0 1-.13.063.382.382 0 0 1-.263-.014 6.072 6.072 0 0 1-.35-.199 70.034 70.034 0 0 1-1.168-.706l-.183-.112-.051-.031-.018-.011.01-.015-.01.015A.018.018 0 0 1 19.053 3l2.72-.749a.018.018 0 0 1 .011 0l.097.035.002-.001.038-.017a39.953 39.953 0 0 0 .56-.245c.156-.07.316-.144.444-.207.064-.031.12-.06.162-.083a.514.514 0 0 0 .085-.054.018.018 0 0 1 .014-.005m.61.307h-.001Zm-4.72 2.235c.008 0 .014.006.016.014l.063.327a.02.02 0 0 1 0 .005v.01l-.003.03a3.348 3.348 0 0 0-.005.19.447.447 0 0 0 .006.056.611.611 0 0 0 .12.065l.012.005.003.002h.001a.018.018 0 0 1 .009.024l-.016-.008.016.008-.001.002-.002.004a.543.543 0 0 1-.12.15c.052.086.046.157.024.208a.221.221 0 0 1-.054.076.176.176 0 0 0 .002.035.133.133 0 0 0 .038.078.018.018 0 0 1-.014.03.129.129 0 0 1-.122-.111.23.23 0 0 1-.002-.008.196.196 0 0 1-.049-.046.265.265 0 0 1-.039-.08.193.193 0 0 1-.127.115.196.196 0 0 1-.018.005.096.096 0 0 0 .015.073.017.017 0 0 1-.018.027.127.127 0 0 1-.073-.04.123.123 0 0 1-.028-.06.188.188 0 0 1 0-.065.093.093 0 0 1-.026-.055.167.167 0 0 1 .03-.103.4.4 0 0 1-.127.044.286.286 0 0 1-.095 0l-.053.082a.018.018 0 0 1-.032-.008.384.384 0 0 1 0-.103.093.093 0 0 1 .006-.022l.001-.002v-.006l.005-.025a.265.265 0 0 1 .03-.078c.035-.058.102-.114.228-.114.11 0 .164-.066.19-.127a.29.29 0 0 0 .022-.072V4.73l.003-.007.003-.004.163-.492a.018.018 0 0 1 .018-.012Zm-.15.524a.328.328 0 0 1-.025.094.231.231 0 0 1-.224.148c-.113 0-.169.05-.197.097a.228.228 0 0 0-.03.09l-.001.005v.002a.018.018 0 0 1-.004.01v.001a.063.063 0 0 0-.004.013.23.23 0 0 0-.002.041l.03-.047a.018.018 0 0 1 .017-.008l.01.001a.251.251 0 0 0 .086.001.446.446 0 0 0 .2-.097.018.018 0 0 1 .024.026c-.078.081-.09.133-.086.16a.058.058 0 0 0 .018.037l.002.001c.006.004.01.012.007.02l-.017-.005.01-.015-.01.015m.05.123a.075.075 0 0 1-.016-.014.089.089 0 0 1-.02-.044.153.153 0 0 1 .003-.06m.034.118c.003.013.01.027.019.042l.014-.01.004-.017a.107.107 0 0 1-.037-.015Zm0 0a.125.125 0 0 1 .002-.07l.001-.003v-.001l.016.007-.001-.017.005-.001a.168.168 0 0 0 .07-.03c.034-.025.069-.071.068-.159v-.014c-.001-.01.006-.017.016-.018.01 0 .018.007.018.017v.014a.286.286 0 0 0 .05.162.159.159 0 0 0 .043.04h.002l-.007.017h.018V5.4l.001.01c.002.008.005.02.01.031a.087.087 0 0 0 .035.037.186.186 0 0 1-.018-.103v-.001l.017.002-.017-.002c0-.005.003-.01.007-.012V5.36a.151.151 0 0 0 .017-.016.184.184 0 0 0 .033-.05c.018-.044.025-.108-.03-.19a.018.018 0 0 1 .006-.026.321.321 0 0 0 .086-.09.708.708 0 0 0 .028-.044.605.605 0 0 1-.135-.078.11.11 0 0 1-.008-.032 1.463 1.463 0 0 1 .003-.236l.003-.03v-.007l-.05-.26-.145.438m.157.657a.018.018 0 0 0-.01-.016m-.273-.012a.018.018 0 0 0-.014.01l.015.007m0-.015Z"/><path fill="#EF7D00" d="M19.859 4.23c.007.003.179.196.348.186.063-.053-.13-.166-.13-.194.07.064.355.31.541.222.07-.106-.134-.088-.359-.373.159.106.552.334.739.246.073-.084-.412-.348-.577-.552L20 3.551l-.57.467.433.211h-.003Z"/><path fill="currentColor" d="M19.988 3.537a.018.018 0 0 1 .02-.002l.421.215a.212.212 0 0 1 .588.521c.008.02.01.04-.006.058a.018.018 0 0 1-.006.004.312.312 0 0 1-.182.015.968.968 0 0 1-.212-.065 2.127 2.127 0 0 1-.257-.132c.078.079.15.124.202.157l.003.002a.894.894 0 0 1 .046.03c.013.01.024.02.032.03a.06.06 0 0 1 .012.04.09.09 0 0 1-.016.043.018.018 0 0 1-.008.007.255.255 0 0 1-.164.012.608.608 0 0 1-.166-.067 1.032 1.032 0 0 1-.063-.039.06.06 0 0 1 .005.029.05.05 0 0 1-.02.034.018.018 0 0 1-.01.004c-.09.006-.18-.043-.245-.091a.884.884 0 0 1-.082-.068l-.024-.023-.006-.006-.002-.001a.017.017 0 0 1-.003-.003l-.423-.207a.018.018 0 0 1-.003-.03l.57-.467Zm-.11.687.002.002a1.42 1.42 0 0 0 .102.088c.063.045.141.087.217.084a.012.012 0 0 0 .003-.006c0-.004 0-.01-.005-.017a.214.214 0 0 0-.044-.053l-.038-.034-.02-.018a.269.269 0 0 1-.031-.033.03.03 0 0 1-.005-.015.018.018 0 0 1 .03-.013c.034.032.122.108.223.165.051.03.105.053.156.064.05.01.097.01.138-.008a.049.049 0 0 0 .008-.022.024.024 0 0 0-.005-.017.113.113 0 0 0-.025-.022.828.828 0 0 0-.044-.03l-.003-.001c-.07-.045-.178-.113-.291-.256a.018.018 0 0 1 .023-.026c.079.053.216.136.356.194.07.03.14.053.204.063.062.01.116.008.157-.01.002-.004.003-.01-.001-.019a.179.179 0 0 0-.036-.048 1.497 1.497 0 0 0-.16-.136l-.06-.045a6.12 6.12 0 0 1-.149-.116 1.228 1.228 0 0 1-.17-.16L20 3.572l-.539.443.408.199a.017.017 0 0 1 .009.01Zm.217-.004Z"/><path fill="#EF7D00" d="M19.216 2.63s.193-.113.97-.057c.084.01.527-.151.672-.2.225-.042.949-.197 1.139-.345.14-.017-.035.25-.211.317-.183.08-.848.312-1.087.28.285.004.127.236-.344.127.225.127.14.148.14.148s-.397.021-.502-.07c.267.102.155.14.155.14s-.271.025-.398-.035c.194.06.095.095.095.095s-.158.028-.288-.021c-.134-.046-.33-.376-.341-.376v-.004Z"/><path fill="currentColor" d="M22.003 2.045a.95.95 0 0 1-.227.11 4.38 4.38 0 0 1-.331.102c-.233.062-.47.111-.583.133l-.079.027c-.077.027-.18.063-.278.095a3.573 3.573 0 0 1-.269.075.198.198 0 0 1-.052.004 3.688 3.688 0 0 0-.772.007.937.937 0 0 0-.17.039l.025.036.002.002c.022.032.052.074.085.118.034.044.07.089.107.126a.301.301 0 0 0 .102.073.518.518 0 0 0 .253.024.54.54 0 0 0 .026-.003.04.04 0 0 0 .006-.004.015.015 0 0 0 .005-.004c0-.002-.003-.007-.016-.015a.235.235 0 0 0-.04-.02.32.32 0 0 1-.054-.019.018.018 0 0 1 .012-.033c.021.007.039.013.054.02a.942.942 0 0 0 .188.02 1.63 1.63 0 0 0 .146-.005h.001a.028.028 0 0 0 .006-.004c.004-.003.004-.005.003-.007 0-.004-.007-.015-.033-.033a.34.34 0 0 0-.031-.018.265.265 0 0 1-.108-.048.018.018 0 0 1 .018-.03.998.998 0 0 1 .102.045 1.14 1.14 0 0 0 .183.024 2.184 2.184 0 0 0 .206 0h.003v-.003c-.002-.006-.01-.017-.032-.037a.788.788 0 0 0-.115-.074.017.017 0 0 1-.008-.022.017.017 0 0 1 .02-.01.94.94 0 0 0 .288.026.323.323 0 0 0 .154-.045.07.07 0 0 0 .023-.026c.002-.006 0-.011-.004-.017a.08.08 0 0 0-.038-.02.235.235 0 0 0-.037-.008.391.391 0 0 1-.047-.003.018.018 0 0 1 .003-.035c.017 0 .032.001.047.003.052 0 .119-.008.194-.022a5.004 5.004 0 0 0 .838-.26.509.509 0 0 0 .243-.233.092.092 0 0 0 .008-.035c0-.008-.002-.01-.005-.013-.003-.002-.009-.004-.022-.003Zm-1.168.596a.077.077 0 0 1 .01.01.052.052 0 0 1 .012.05.09.09 0 0 1-.036.045.356.356 0 0 1-.172.05.877.877 0 0 1-.203-.008l.037.027a.13.13 0 0 1 .043.053.04.04 0 0 1 .001.024.035.035 0 0 1-.01.016.042.042 0 0 1-.015.008H20.5v.001l-.005-.017.001.018h-.004a1.769 1.769 0 0 1-.21-.001 1.414 1.414 0 0 1-.11-.01.061.061 0 0 1 .015.027.041.041 0 0 1-.015.042.062.062 0 0 1-.017.01h-.001v.001l-.006-.017.001.018h-.003a.88.88 0 0 1-.042.003 1.67 1.67 0 0 1-.221-.005.037.037 0 0 1 .005.02c0 .017-.014.027-.02.032a.078.078 0 0 1-.016.008l-.007-.016.003.017h-.002a.287.287 0 0 1-.026.004.553.553 0 0 1-.27-.026.334.334 0 0 1-.114-.082 1.296 1.296 0 0 1-.11-.129 2.645 2.645 0 0 1-.086-.119l-.001-.002a1.935 1.935 0 0 0-.04-.06v-.004c0-.006.003-.012.008-.015l.009.015-.009-.015h.001l.002-.002a.971.971 0 0 1 .197-.05 3.721 3.721 0 0 1 .781-.006c.008 0 .022 0 .042-.004a3.524 3.524 0 0 0 .264-.074c.098-.031.2-.067.277-.094a13.996 13.996 0 0 1 .083-.029 8.56 8.56 0 0 0 .582-.132c.116-.031.23-.065.328-.101a.892.892 0 0 0 .23-.111.07.07 0 0 1 .051.009c.014.01.02.025.02.04a.125.125 0 0 1-.01.05.543.543 0 0 1-.262.251 5.044 5.044 0 0 1-.845.263c-.04.007-.078.013-.113.017Zm-.99.39.003.016h.003l-.006-.017Zm.303-.06.001.017.004-.001-.005-.017Zm.348-.071v.018h.004l-.005-.018Z"/><path fill="#EF7D00" d="m19.525 4.338.028.513-.028.042c-.01.014-.362-.056-.317.211 0 .113 0 .14.078.2-.018-.07-.015-.122-.015-.122s.102.06.197-.106c-.066.162-.02.222-.003.225.014.028-.028.158.105.155-.052-.05-.028-.12-.028-.12s.14-.02.092-.27c.049-.05.07 0 .07 0s.014.147.137.116c.053.031-.01.112-.01.112s.087 0 .116-.07c.024-.078.056-.211-.088-.267-.018-.053.056-.057.056-.057s.091.032.12.078c.027.045.017-.12-.1-.14-.14 0-.147-.033-.147-.036l-.035-.482-.228.018Z"/><path fill="currentColor" d="M19.766 4.307a.018.018 0 0 1 .006.012l.035.48a.035.035 0 0 0 .01.006.325.325 0 0 0 .123.015c.067.012.102.065.117.107.007.02.01.04.009.053a.033.033 0 0 1-.004.012.02.02 0 0 1-.017.011.023.023 0 0 1-.017-.006.167.167 0 0 0-.071-.06.41.41 0 0 0-.043-.019.091.091 0 0 0-.026.007.026.026 0 0 0-.012.01.015.015 0 0 0-.001.009.19.19 0 0 1 .076.056c.02.025.03.052.033.08a.347.347 0 0 1-.02.15.126.126 0 0 1-.08.072.186.186 0 0 1-.048.01h-.004v-.018.018a.018.018 0 0 1-.014-.029m0 0 .002-.003.006-.008a.17.17 0 0 0 .014-.029.065.065 0 0 0 .005-.028.022.022 0 0 0-.007-.014.116.116 0 0 1-.077-.008.118.118 0 0 1-.049-.049.2.2 0 0 1-.024-.07v-.003l-.002-.002a.02.02 0 0 0-.006-.006.012.012 0 0 0-.01-.001.045.045 0 0 0-.016.01c.022.122 0 .193-.033.234a.14.14 0 0 1-.063.045.12.12 0 0 0-.003.026c0 .02.006.046.028.066a.017.017 0 0 1 .005.02.017.017 0 0 1-.016.01.122.122 0 0 1-.083-.022.097.097 0 0 1-.032-.057c-.005-.02-.005-.04-.005-.056v-.021l-.001-.003a.059.059 0 0 1-.016-.017.114.114 0 0 1-.016-.046.251.251 0 0 1 .004-.086.162.162 0 0 1-.085.043.127.127 0 0 1-.048-.001v.009a.47.47 0 0 0 .014.084.018.018 0 0 1-.028.019c-.04-.031-.063-.056-.074-.09-.01-.03-.01-.068-.01-.121v-.002c-.012-.07.002-.121.032-.157a.208.208 0 0 1 .119-.062.57.57 0 0 1 .146-.01h.026l.02-.03-.027-.508.018-.001-.002-.018.229-.017c.004 0 .009 0 .013.004m-.222.047.027.496c0 .004 0 .008-.003.01l-.028.043a.022.022 0 0 1-.011.008 1.153 1.153 0 0 1-.041.001h-.023c-.033 0-.075 0-.115.01a.174.174 0 0 0-.099.05c-.022.026-.035.066-.024.13v.002c0 .058 0 .09.008.115a.103.103 0 0 0 .024.038.474.474 0 0 1-.004-.074v-.002h.018-.018a.018.018 0 0 1 .026-.015m0 0 .003.002a.092.092 0 0 0 .049.006c.03-.005.075-.027.121-.107a.018.018 0 0 1 .032.016.321.321 0 0 0-.033.162.082.082 0 0 0 .011.033l.006.006c.005.001.01.004.012.01a.055.055 0 0 1 .004.02l.001.022v.002c0 .016 0 .033.004.049.003.015.01.028.02.036a.06.06 0 0 0 .022.011.13.13 0 0 1-.013-.056.151.151 0 0 1 .005-.043l.001-.003V5.33l.017.005-.016-.005a.017.017 0 0 1 .013-.012h.001l.003-.001a.104.104 0 0 0 .05-.034c.024-.031.047-.093.023-.215a.018.018 0 0 1 .005-.016.09.09 0 0 1 .04-.025.047.047 0 0 1 .035.004.055.055 0 0 1 .022.023l.002.003-.016.008.016-.007.001.005v.001l.001.004a.2.2 0 0 0 .02.058.08.08 0 0 0 .034.034c.014.007.033.01.06.004.005-.002.01 0 .014.002a.06.06 0 0 1 .03.043.098.098 0 0 1-.008.046.181.181 0 0 1-.007.015.09.09 0 0 0 .065-.053.314.314 0 0 0 .018-.133.13.13 0 0 0-.025-.063.16.16 0 0 0-.07-.049.018.018 0 0 1-.011-.01.054.054 0 0 1 .003-.046.06.06 0 0 1 .028-.024.114.114 0 0 1 .037-.01h.004V4.9l.007-.016.004.001a.416.416 0 0 1 .098.054c-.013-.036-.04-.075-.089-.084a.351.351 0 0 1-.132-.018c-.022-.01-.03-.023-.031-.034l-.034-.464-.194.015m.487.623Zm-.115-.077.006-.016a.018.018 0 0 0-.007-.001V4.9Zm-.227.173Zm-.148.246Zm.265-.522Z"/><path fill="#EF7D00" d="M20.014 4.775c0-.024-.239-.348-.176-.386.06.01.159.158.243.109-.025-.057-.099-.025-.18-.173-.084-.168-.094-.418-.386-.689.19.289.611.457.633.373.02-.084-.377-.4-.355-.478.077.154.47.506.759.478.021-.07-.236-.204-.302-.33-.187-.127-.682-.552-.69-.65a1.17 1.17 0 0 0-.348-.374.177.177 0 0 1-.028-.06c-.112-.263.035-.35.123-.361.07-.011.092 0 .141-.025l-.18-.07c.082.06.282.007.24.175.088-.035.277-.26-.215-.309-.161-.183-.819-.288-.984.513.014.01.021.021.063.05-.21-.099-.77-.176-.97-.211-.549-.155-1.114-.535-1.167-.49-.07.036.33.409.31.416a9.246 9.246 0 0 0-.968-.478c-.21-.078-.418-.26-.44-.225-.077.158.335.559.412.604.078.046.679.327.668.33-.907-.41-1.054-.488-1.104-.534-.08-.017-.274-.28-.327-.263-.031.028.028.443.46.633.071.049.929.355.922.38 0 .006-.984-.405-1.02-.423-.19-.07-.421-.33-.464-.302-.042.028.106.31.296.397.102.042.485.232.83.352.02.01-.623-.243-.932-.37-.14-.077-.204-.175-.225-.154-.036.021.049.436 1.044.668.024.014.351-.074.334-.063a3.983 3.983 0 0 1-.556.098c-.01.028.064.176.577.148.063-.004.422-.13.39-.106-.17.066-.344.123-.52.173-.032 0-.197.02-.204.035-.007.028.123.133.397.147.246.014.71-.147.703-.137-.014.01-.45.162-.46.17-.018.01-.176.017-.183.03-.014.032.232.26.953.015-.07.098-.422.165-.422.183 0 .014.077.087.2.116.06.014.144.01.222 0a.897.897 0 0 0 .467-.254c.021.053-.46.3-.44.32.106.099.454-.01.475-.024.025-.01.668-.376.668-.422.011.056-.833.517-.822.534.053.085.34-.003.351-.014l.38-.204c.01-.003-.415.246-.38.289-.017.165.668-.113.721-.148.025-.018-.33.155-.33.235.116.194.481.134.537.092.029-.021-.035.14-.014.126a.563.563 0 0 0 .106-.15c-.007.056-.05.14-.07.238-.025.095-.032.208-.064.324-.007.049.225-.102.19-.464.021.19-.07.541-.046.562.046.035.183-.176.197-.32.039.07.123.222.197.257-.007-.109 0-.106-.035-.211a4.82 4.82 0 0 0 .028-.566c.197.376.278.538.222.826.06.025.15-.204.144-.316a.468.468 0 0 0 .404.358Z"/><path fill="currentColor" d="M15.296 1.632a1.598 1.598 0 0 0 .289.154c.3.127.594.27.88.429l-.025-.027-.084-.09c-.044-.05-.088-.1-.116-.142a.228.228 0 0 1-.03-.056.056.056 0 0 1-.002-.027.033.033 0 0 1 .016-.023.043.043 0 0 1 .027-.006.1.1 0 0 1 .032.006.692.692 0 0 1 .087.034 6.019 6.019 0 0 1 .27.135c.217.108.494.24.766.317l.128.022c.1.016.226.036.353.06.145.028.293.06.403.096.084-.407.294-.588.508-.641a.611.611 0 0 1 .301.002.438.438 0 0 1 .203.11.67.67 0 0 1 .254.066c.054.031.08.07.081.112a.16.16 0 0 1-.042.106.222.222 0 0 1-.08.062.02.02 0 0 1-.02-.003.02.02 0 0 1-.006-.02c.01-.039.004-.06-.005-.074a.063.063 0 0 0-.02-.017.02.02 0 0 1-.008.008.176.176 0 0 1-.069.02.686.686 0 0 1-.02 0l-.057.006a.168.168 0 0 0-.123.077c-.03.05-.04.13.015.259v.003a.155.155 0 0 0 .024.05 1.19 1.19 0 0 1 .354.385c0 .003.001.008.005.016a.73.73 0 0 0 .075.099 4.521 4.521 0 0 0 .607.529.397.397 0 0 0 .074.09c.03.027.062.054.094.08l.01.01a.958.958 0 0 1 .092.082.172.172 0 0 1 .028.04c.006.012.01.027.005.042a.02.02 0 0 1-.016.014c-.152.015-.327-.07-.472-.174a2.626 2.626 0 0 1-.015-.01c.017.018.032.036.046.053a.405.405 0 0 1 .041.061c.01.018.017.037.012.055-.005.021-.022.031-.04.035a.17.17 0 0 1-.063-.002.689.689 0 0 1-.177-.067 1.155 1.155 0 0 1-.14-.084c.057.1.088.193.116.275.019.054.035.104.056.146a.257.257 0 0 0 .123.123h.002a.27.27 0 0 1 .02.012.08.08 0 0 1 .035.039.02.02 0 0 1-.008.024.096.096 0 0 1-.08.007.251.251 0 0 1-.072-.04.96.96 0 0 1-.031-.026l-.03-.023a.198.198 0 0 0-.03-.02v.002c0 .01.003.023.01.04a.868.868 0 0 0 .062.123c.02.036.043.072.063.103l.012.02a1.548 1.548 0 0 1 .038.066.03.03 0 0 1 .001.01h-.02l-.001.018a.487.487 0 0 1-.392-.286.662.662 0 0 1-.04.126.357.357 0 0 1-.051.088.123.123 0 0 1-.031.026.047.047 0 0 1-.04.003.02.02 0 0 1-.012-.022.715.715 0 0 0-.015-.37 2.36 2.36 0 0 0-.169-.376c-.003.191-.008.36-.026.488a.57.57 0 0 1 .031.162l.003.05a.02.02 0 0 1-.027.018.22.22 0 0 1-.063-.05.647.647 0 0 1-.057-.071 1.387 1.387 0 0 1-.06-.097.666.666 0 0 1-.08.182.383.383 0 0 1-.065.082.103.103 0 0 1-.034.02.04.04 0 0 1-.039-.005.032.032 0 0 1-.01-.02.468.468 0 0 1 .003-.068l.014-.1.005-.028a.464.464 0 0 1-.023.036.3.3 0 0 1-.079.082.071.071 0 0 1-.034.013.027.027 0 0 1-.021-.009.027.027 0 0 1-.006-.022v-.003a1.602 1.602 0 0 0 .036-.18c.008-.05.016-.098.027-.142a.98.98 0 0 1 .03-.107.57.57 0 0 1-.035.04c-.002 0-.012.007-.023 0a.02.02 0 0 1-.01-.01l-.001-.007a.067.067 0 0 1 .001-.02.772.772 0 0 1 .013-.05l.007-.026a.725.725 0 0 1-.23.032c-.116-.004-.245-.038-.308-.144a.02.02 0 0 1-.003-.01c0-.016.009-.032.02-.046a.285.285 0 0 1 .065-.06 2.86 2.86 0 0 1-.116.038 1.125 1.125 0 0 1-.241.051.179.179 0 0 1-.083-.01.06.06 0 0 1-.028-.025.059.059 0 0 1-.008-.031.032.032 0 0 1 0-.02.063.063 0 0 1 .011-.021.286.286 0 0 1 .043-.042l.008-.006-.031.016a.492.492 0 0 1-.288.052c-.037-.003-.073-.015-.09-.044h-.001a.02.02 0 0 1 0-.02.029.029 0 0 1 .004-.006.407.407 0 0 1 .062-.043c-.03.007-.063.015-.097.02a.705.705 0 0 1-.158.01.207.207 0 0 1-.128-.045.022.022 0 0 1-.006-.021.03.03 0 0 1 .006-.011.609.609 0 0 1 .061-.046 1.042 1.042 0 0 1-.073.017.685.685 0 0 1-.228 0 .453.453 0 0 1-.196-.102.12.12 0 0 1-.017-.022.027.027 0 0 1-.003-.012c0-.008.005-.014.007-.015a.033.033 0 0 1 .007-.005.703.703 0 0 1 .056-.02l.033-.01c.028-.008.061-.018.095-.03a1.06 1.06 0 0 0 .12-.043c-.292.083-.497.084-.632.057a.459.459 0 0 1-.166-.064.169.169 0 0 1-.04-.035.063.063 0 0 1-.009-.017.03.03 0 0 1 0-.023.025.025 0 0 1 .012-.011 1.09 1.09 0 0 1 .091-.017l.014-.001.046-.006a.356.356 0 0 0 .021-.003l.007-.002.01.017-.011-.016a.787.787 0 0 1 .079-.03l.007-.003a1.305 1.305 0 0 1-.319.037.825.825 0 0 1-.312-.07.328.328 0 0 1-.077-.05.11.11 0 0 1-.02-.024.038.038 0 0 1-.006-.028l.001-.004a.027.027 0 0 1 .011-.01.888.888 0 0 1 .096-.023c.044-.007.092-.012.112-.013l.09-.026c-.232.009-.37-.02-.45-.057a.224.224 0 0 1-.086-.061.093.093 0 0 1-.016-.03.045.045 0 0 1 0-.028.02.02 0 0 1 .016-.012c.046-.005.092-.01.138-.017-.448-.115-.7-.268-.836-.398a.547.547 0 0 1-.132-.181.202.202 0 0 1-.016-.062c0-.008 0-.016.002-.022a.033.033 0 0 1 .011-.02.03.03 0 0 1 .026-.006.062.062 0 0 1 .022.01l.04.034.005.004a.845.845 0 0 0 .153.111h.001a.737.737 0 0 1-.22-.294.167.167 0 0 1-.01-.046c0-.012.002-.029.016-.038a.034.034 0 0 1 .023-.005.07.07 0 0 1 .02.005.252.252 0 0 1 .043.025c.027.02.06.046.095.075l.019.015.084.066a.791.791 0 0 1-.132-.19.665.665 0 0 1-.06-.176.303.303 0 0 1-.005-.06c0-.009 0-.016.003-.023a.039.039 0 0 1 .01-.019.02.02 0 0 1 .007-.004c.015-.005.03.001.041.007a.24.24 0 0 1 .04.028c.027.023.06.056.092.089l.004.004c.032.032.063.064.091.089a.392.392 0 0 0 .04.032.09.09 0 0 0 .03.014 1.478 1.478 0 0 1 .31.145 2.023 2.023 0 0 1-.158-.17 1.014 1.014 0 0 1-.129-.193c-.03-.062-.044-.124-.02-.172v-.002c.01-.016.028-.014.037-.012.01.002.023.008.037.015.024.013.056.033.093.056l.008.005Zm.25.821a73.469 73.469 0 0 1-.292-.122.781.781 0 0 1-.394-.368.617.617 0 0 1-.057-.167.256.256 0 0 1-.004-.06l.004.002a.22.22 0 0 1 .033.024c.026.021.057.053.09.086l.004.005c.031.031.063.064.092.09.016.013.031.026.045.035a.141.141 0 0 0 .037.019c.028.024.082.057.23.13.158.076.421.199.875.404a.02.02 0 0 0 .027-.015.019.019 0 0 0-.003-.014.022.022 0 0 0-.005-.005l-.006-.004a3.478 3.478 0 0 0-.086-.044l-.212-.102c-.159-.077-.327-.158-.365-.18a.78.78 0 0 1-.104-.09 1.984 1.984 0 0 1-.155-.166.976.976 0 0 1-.124-.186c-.027-.055-.035-.1-.024-.13a.143.143 0 0 1 .025.01c.023.012.054.032.09.055l.009.005c.08.05.187.117.294.156.33.14.652.3.964.477a.02.02 0 0 0 .016.002.02.02 0 0 0 .014-.023.031.031 0 0 0-.004-.01.964.964 0 0 0-.051-.061l-.041-.045a2.6 2.6 0 0 1-.083-.09 1.48 1.48 0 0 1-.113-.137.195.195 0 0 1-.026-.051h.004c.004 0 .012 0 .022.004a.63.63 0 0 1 .082.033c.05.023.114.055.188.092l.082.041a4.565 4.565 0 0 0 .774.321l.131.022c.1.016.224.036.35.06.192.036.382.08.485.128a.02.02 0 0 0 .025-.008.02.02 0 0 0-.006-.026.412.412 0 0 1-.048-.036l-.005-.004c.083-.387.282-.552.477-.6a.559.559 0 0 1 .282.003.391.391 0 0 1 .19.104.02.02 0 0 0 .012.006.64.64 0 0 1 .246.062c.046.026.06.055.062.08a.122.122 0 0 1-.034.08.208.208 0 0 1-.032.031.102.102 0 0 0-.018-.064.133.133 0 0 0-.076-.046.529.529 0 0 0-.06-.013 1.233 1.233 0 0 1-.03-.006h-.005l-.068-.028a.02.02 0 0 0-.019.034.2.2 0 0 0 .075.03l.057.022a.258.258 0 0 1-.023.002c-.016.001-.036.002-.061.006a.207.207 0 0 0-.151.095c-.038.064-.045.158.012.293a.196.196 0 0 0 .03.065 1.15 1.15 0 0 1 .345.368.09.09 0 0 0 .009.023c.004.01.01.02.018.032a.758.758 0 0 0 .062.076 4.603 4.603 0 0 0 .604.525.429.429 0 0 0 .08.096c.03.029.064.057.096.083l.011.01a.926.926 0 0 1 .087.078.133.133 0 0 1 .023.033c-.133.005-.29-.07-.427-.168a1.403 1.403 0 0 1-.187-.162.636.636 0 0 1-.107-.14.02.02 0 0 0-.036.005.051.051 0 0 0 0 .027.124.124 0 0 0 .011.026c.01.018.025.038.042.06.033.04.079.088.124.136l.005.005c.047.05.093.1.127.141.016.021.03.04.037.055.009.016.01.025.009.028 0 0-.001.004-.011.006a.133.133 0 0 1-.048-.002.655.655 0 0 1-.167-.063 1.124 1.124 0 0 1-.22-.15 1.178 1.178 0 0 0-.155-.173.02.02 0 0 0-.03.025.886.886 0 0 0 .157.176c.092.128.132.247.167.352.02.057.038.11.062.159a.294.294 0 0 0 .119.128l.023.012a.225.225 0 0 1 .023.014c-.009 0-.018 0-.028-.004a.217.217 0 0 1-.06-.034 1.072 1.072 0 0 1-.03-.024l-.003-.003a1.019 1.019 0 0 0-.027-.022.152.152 0 0 0-.06-.032.02.02 0 0 0-.013.003c-.017.01-.02.028-.02.044 0 .016.006.034.013.052a.906.906 0 0 0 .064.129l.064.103a1.744 1.744 0 0 1 .03.05.449.449 0 0 1-.35-.338.02.02 0 0 0-.022-.015.02.02 0 0 0-.017.02.504.504 0 0 1-.1.29.74.74 0 0 0-.022-.36 2.838 2.838 0 0 0-.207-.45.02.02 0 0 0-.036.01 4.906 4.906 0 0 1-.028.572.54.54 0 0 1 .032.154v.013a.604.604 0 0 1-.074-.088 1.657 1.657 0 0 1-.084-.14.02.02 0 0 0-.036.007.558.558 0 0 1-.143.293.067.067 0 0 1-.02.013v-.006l.004-.046.014-.098.008-.05c.01-.062.02-.133.024-.2a.732.732 0 0 0 0-.149.02.02 0 0 0-.038.004.764.764 0 0 1 0 .141.504.504 0 0 1-.081.233.275.275 0 0 1-.065.069 1.854 1.854 0 0 0 .03-.16 1.549 1.549 0 0 1 .067-.273l.001-.003a.564.564 0 0 0 .03-.105.02.02 0 0 0-.037-.01.542.542 0 0 1-.059.096.453.453 0 0 0 .012-.058c0-.003 0-.008-.002-.013a.022.022 0 0 0-.02-.014.027.027 0 0 0-.016.006.113.113 0 0 1-.03.013.687.687 0 0 1-.205.026c-.108-.004-.218-.035-.272-.119a.062.062 0 0 1 .01-.018.243.243 0 0 1 .038-.036.963.963 0 0 1 .117-.08 1.897 1.897 0 0 1 .107-.056.427.427 0 0 0 .05-.025.022.022 0 0 0 .005-.005s.003-.003.004-.007a.02.02 0 0 0-.018-.024h-.006a1.09 1.09 0 0 1-.62.2.143.143 0 0 1-.065-.008.022.022 0 0 1-.01-.008c-.002-.003-.003-.007-.003-.015a.02.02 0 0 0 0-.009l.003-.006a.252.252 0 0 1 .037-.035c.033-.029.082-.063.133-.097l.138-.089.026-.016.003-.002.016-.01.012-.008a.04.04 0 0 0 .005-.003l.004-.004.002-.004a.036.036 0 0 0 .001-.01.035.035 0 0 0-.008-.013.035.035 0 0 0-.009-.003h-.008l-.003.002-.38.204-.003.001v.001a.454.454 0 0 1-.26.045.11.11 0 0 1-.052-.015 3.216 3.216 0 0 1 .108-.067l.14-.084.146-.086c.104-.062.208-.126.286-.177.04-.026.072-.05.095-.068a.234.234 0 0 0 .027-.026.067.067 0 0 0 .009-.012.03.03 0 0 0 .003-.019.02.02 0 0 0-.038 0l-.002.003a1.052 1.052 0 0 1-.09.069c-.06.04-.142.09-.223.14a12.752 12.752 0 0 1-.339.194l-.002.001a.02.02 0 0 0-.004.002l-.004.002a.667.667 0 0 1-.343.06.2.2 0 0 1-.09-.024.65.65 0 0 1 .047-.032l.1-.062.056-.034c.058-.036.116-.073.159-.104a.4.4 0 0 0 .052-.043.092.092 0 0 0 .015-.021.034.034 0 0 0 .002-.028.02.02 0 0 0-.031-.007.878.878 0 0 1-.458.248.648.648 0 0 1-.214 0 .415.415 0 0 1-.176-.09.837.837 0 0 1 .033-.01l.032-.01c.029-.008.063-.018.097-.03.049-.015.1-.033.144-.054a.27.27 0 0 0 .103-.074.02.02 0 0 0-.022-.03c-.358.123-.596.126-.742.097a.422.422 0 0 1-.152-.058.145.145 0 0 1-.027-.024.38.38 0 0 0 .167-.026l.005-.001a4.737 4.737 0 0 1 .067-.025l.11-.04.044-.015a19.725 19.725 0 0 0 .231-.085l.006-.003a.02.02 0 0 0-.012-.035h-.008a2.876 2.876 0 0 0-.064.018l-.006.001a5.84 5.84 0 0 1-.183.051 1.636 1.636 0 0 1-.44.067h-.001a.786.786 0 0 1-.297-.067.288.288 0 0 1-.076-.052 6.133 6.133 0 0 0 .711-.202c.001 0 .005-.003.007-.008a.02.02 0 0 0 .001-.015.02.02 0 0 0-.01-.012c-.005-.003-.01-.002-.012-.002h-.006a.372.372 0 0 0-.036.01c-.03.007-.07.02-.115.034l-.006.002a6.59 6.59 0 0 1-.194.056.223.223 0 0 1-.032.006c-.255.014-.399-.016-.476-.05a.185.185 0 0 1-.071-.051.062.062 0 0 1-.007-.01 3.991 3.991 0 0 0 .544-.099l.004-.004a.02.02 0 0 0 .005-.008.02.02 0 0 0-.016-.025h-.005l-.01.002a.983.983 0 0 0-.079.018h-.005l-.06.015a2.985 2.985 0 0 1-.158.03.096.096 0 0 1-.013 0H15.7c-.495-.116-.761-.276-.9-.408a.51.51 0 0 1-.122-.168.165.165 0 0 1-.013-.05V2.25c.01.006.021.017.038.032l.003.003a.878.878 0 0 0 .163.117 61.55 61.55 0 0 0 .929.369l.005.001.002.001h.005a.035.035 0 0 0 .01-.003.034.034 0 0 0 .008-.02.034.034 0 0 0-.005-.01.04.04 0 0 0-.002-.001l-.003-.002h-.001l-.002-.002a1.414 1.414 0 0 1-.014-.005l-.007-.002a11.523 11.523 0 0 1-.315-.123c-.139-.06-.267-.118-.361-.161l-.132-.06a.601.601 0 0 1-.226-.214.528.528 0 0 1-.057-.11.123.123 0 0 1-.008-.034v-.003a.213.213 0 0 1 .04.023 1.901 1.901 0 0 1 .113.088 1.193 1.193 0 0 0 .39.233.516.516 0 0 0 .06.03 4.283 4.283 0 0 0 .233.093 164.04 164.04 0 0 0 .586.242 1.624 1.624 0 0 0 .041.015l.004.001h.005a.02.02 0 0 0 .008-.002.033.033 0 0 0 .008-.006l.002-.006a.02.02 0 0 0-.002-.016.029.029 0 0 0-.005-.006 2.181 2.181 0 0 0-.135-.063c-.08-.034-.19-.076-.3-.119l-.036-.013-.162-.063Zm-.85-.435Zm-.03.223Zm1.037.638Zm.034.304Zm-.006.013Zm.462.198Zm1.623.436Zm1.057.906Zm-3.726-3.143Zm-.346.135Zm2.776 1.726Zm1.19.671Zm-2.24-1.839Z"/><path fill="#EF7D00" d="M16.737 2.38s-.137.102-.302.095c.042.169.386.038.386.038s-.165.187-.285.215c.07.06.373.039.422.01.05-.031.141-.147.141-.147s-.31.358-.352.355c-.01.042.32.028.387-.035.07-.064.246-.155.246-.155s-.457.316-.474.316c.168.043.51-.056.727-.19-.323.215-.351.254-.516.328.147.031.221.13.713-.085a1.19 1.19 0 0 0 .443-.38 2.873 2.873 0 0 1-.76.633c-.017.035.331.183.77-.277"/><path fill="currentColor" d="M16.725 2.364a.02.02 0 0 1 .023.031l-.01-.014.01.014-.002.002-.005.003a.464.464 0 0 1-.086.047.514.514 0 0 1-.192.047c.012.02.03.032.055.04a.31.31 0 0 0 .123.004.8.8 0 0 0 .159-.038l.01-.003.003-.001h.001a.02.02 0 0 1 .022.03l-.015-.013.015.013h-.001l-.001.002a1.672 1.672 0 0 0-.027.028 1.35 1.35 0 0 1-.165.142.436.436 0 0 1-.056.032.793.793 0 0 0 .169.016 1.054 1.054 0 0 0 .17-.016.11.11 0 0 0 .023-.008.252.252 0 0 0 .036-.03 8.217 8.217 0 0 0 .087-.099l.01-.011.003-.004.015.013.015.012-.001.001-.003.004-.011.014a1.613 1.613 0 0 1-.087.097 6.144 6.144 0 0 1-.179.187.615.615 0 0 1-.046.04l.01.002a.825.825 0 0 0 .294-.034.102.102 0 0 0 .03-.017.928.928 0 0 1 .153-.104 2.567 2.567 0 0 1 .09-.05l.005-.003.002-.001.01.017.01.016-.02.013-.052.036a30.023 30.023 0 0 1-.356.24.896.896 0 0 0 .283-.036 1.5 1.5 0 0 0 .377-.16.02.02 0 0 1 .02.034l-.233.158a1.668 1.668 0 0 1-.237.147l.021.007.032.01a.43.43 0 0 0 .118.02c.095 0 .233-.027.478-.134a1.04 1.04 0 0 0 .188-.116c.088-.08.17-.167.248-.258a.02.02 0 0 1 .031.023l-.016-.01.016.01-.002.003a2.892 2.892 0 0 1-.745.625.15.15 0 0 0 .029.012c.034.01.086.018.154.01.134-.016.327-.091.545-.319a.02.02 0 1 1 .028.027c-.223.233-.423.313-.568.33a.42.42 0 0 1-.171-.011.159.159 0 0 1-.047-.022.053.053 0 0 1-.014-.015.027.027 0 0 1-.002-.027.02.02 0 0 1 .008-.008 2.85 2.85 0 0 0 .316-.21c-.236.1-.376.13-.476.128a.468.468 0 0 1-.164-.032.716.716 0 0 0-.068-.019.02.02 0 0 1-.004-.037 1.4 1.4 0 0 0 .277-.164l.02-.013c-.05.018-.1.035-.15.048a.776.776 0 0 1-.354.029.02.02 0 0 1 0-.038l.003-.001a2.256 2.256 0 0 0 .125-.08.906.906 0 0 1-.237.014.155.155 0 0 1-.042-.01.043.043 0 0 1-.016-.01.027.027 0 0 1-.006-.025.02.02 0 0 1 .019-.015h.002a.555.555 0 0 0 .058-.048c.03-.03.067-.067.103-.106a1.091 1.091 0 0 1-.288.006.206.206 0 0 1-.098-.036.02.02 0 0 1 .008-.033.292.292 0 0 0 .089-.043.832.832 0 0 0 .134-.112.808.808 0 0 1-.109.022.348.348 0 0 1-.139-.006.125.125 0 0 1-.091-.09.02.02 0 0 1 .003-.018.02.02 0 0 1 .016-.007.46.46 0 0 0 .268-.076.42.42 0 0 0 .017-.01l.004-.004h.001Zm0 0Zm.655.392.011.016a.02.02 0 0 0-.02-.033l.01.017Zm-.28-.166.015.012a.02.02 0 0 0-.03-.025l.015.013Z"/><path fill="#EF7D00" d="M19.128 3.375s.031.14.15.246c.12.106.127.211.127.211l-.277-.457Zm-.057-.914s.039.13.162.21c.127.078.316.331.327.377.014.053.088.443.08.485l-.569-1.072Zm-.76.193c.008.053-.175.292.078.577-.232.281-.232.316-.232.316s.13.07.359-.126c.38.464.253.675.253.675"/><path fill="currentColor" d="m19.053 2.467.035-.015.06.114a.38.38 0 0 0 .095.09c.066.04.147.125.212.204a1.58 1.58 0 0 1 .11.153.13.13 0 0 1 .013.03 5.07 5.07 0 0 1 .081.458.163.163 0 0 1 0 .036l-.009.056-.534-1.007a.447.447 0 0 1-.061-.113l-.002-.004v-.002l.018-.006-.018.006Zm.156.212.403.76a5.115 5.115 0 0 0-.07-.386h-.001a.578.578 0 0 0-.035-.06c-.02-.032-.05-.07-.081-.109a.975.975 0 0 0-.202-.195.422.422 0 0 1-.014-.01Zm-.9-.044a.02.02 0 0 1 .022.017.091.091 0 0 1-.006.037.751.751 0 0 1-.01.03l-.006.014a.592.592 0 0 0-.032.125.438.438 0 0 0 .127.36l.01.013-.01.012a3.347 3.347 0 0 0-.22.293h.001a.191.191 0 0 0 .063.003.49.49 0 0 0 .255-.133l.015-.013.013.016c.19.234.256.406.273.52a.365.365 0 0 1-.013.164.195.195 0 0 1-.004.01l-.001.002-.017-.009.016.01a.02.02 0 0 1-.033-.02v-.001l.004-.006a.328.328 0 0 0 .01-.143c-.015-.105-.074-.265-.253-.488a.51.51 0 0 1-.26.13.23.23 0 0 1-.097-.01.097.097 0 0 1-.006-.002l-.001-.001h-.001l.009-.017h-.02v-.002l.001-.002.001-.004c0-.003.002-.006.004-.01a.37.37 0 0 1 .027-.046c.029-.043.084-.12.194-.253a.47.47 0 0 1-.091-.51 3.19 3.19 0 0 1 .005-.016l.01-.028a.064.064 0 0 0 .005-.02.02.02 0 0 1 .016-.022Zm-.152.913h-.02v.011l.01.006.01-.017Zm.951-.168.036-.015.146.24.001.002c.062.055.096.11.113.152a.293.293 0 0 1 .02.066v.006l-.019.001.02-.001-.036.011-.13-.211a.527.527 0 0 1-.149-.244l-.001-.005V3.38l.018-.005-.018.005Z"/><path fill="#EF7D00" d="M18.737 3.769s-.035-.05.028-.236c.057.07.12.081.145.106.028.031.316.07.33.263"/><path fill="currentColor" d="M18.762 3.514a.02.02 0 0 1 .018.007.256.256 0 0 0 .1.076l.014.007a.126.126 0 0 1 .03.022l.003.002a.753.753 0 0 0 .05.02h.002c.03.011.07.025.11.044.078.039.162.101.17.209a.02.02 0 1 1-.038.003c-.007-.086-.074-.14-.15-.177a1.029 1.029 0 0 0-.106-.043l-.041-.015a.148.148 0 0 1-.016-.008.054.054 0 0 1-.013-.01.81.81 0 0 0-.056-.032.304.304 0 0 1-.066-.048.489.489 0 0 0-.026.15.117.117 0 0 0 .006.037.02.02 0 0 1-.032.022l.016-.011-.016.01v-.001a.07.07 0 0 1-.006-.014.16.16 0 0 1-.007-.043.58.58 0 0 1 .039-.194.02.02 0 0 1 .015-.013Z"/><path fill="#EF7D00" d="M19.075 2.022c0-.014-.06-.14-.274.014.116.007.228.074.274-.014Z"/><path fill="currentColor" d="M19.09 2.004a.047.047 0 0 1 .004.018v.005l-.002.004a.096.096 0 0 1-.057.05.168.168 0 0 1-.074.003l-.063-.012a1.557 1.557 0 0 0-.099-.017l-.054-.003.044-.032c.11-.079.185-.09.235-.073a.113.113 0 0 1 .065.057Zm-.235.02c.079-.049.128-.05.157-.04a.074.074 0 0 1 .042.035.055.055 0 0 1-.031.025.132.132 0 0 1-.057.001.784.784 0 0 1-.059-.011l-.017-.004a1.05 1.05 0 0 0-.035-.007Z"/><path fill="#EF7D00" d="M21.122 2.584c.01.007.64.14.85.074-.267.358-.805.116-.805.116.264.077.274.07.359.147.028.07-.485.036-.65-.06.467.148.477.141.492.194.02.08-.767-.021-.834-.123.211.162.324.193.44.267-.14.064-.404.127-.886-.214.633.576 1.206.541 1.297.643-.221.327-1.08-.193-1.473-.457-.394-.264.861.636.978.622-.057.088-.472.01-.5-.035"/><path fill="currentColor" d="M21.116 2.603 21.11 2.6l.021-.032-.002-.001h-.001l.006.001a2.81 2.81 0 0 0 .617.088.695.695 0 0 0 .214-.016.02.02 0 0 1 .022.03c-.132.176-.326.212-.49.202a.622.622 0 0 1 .046.042c.003.01.003.02-.003.03a.047.047 0 0 1-.02.017.195.195 0 0 1-.06.014 1.008 1.008 0 0 1-.166 0l.003.001a.21.21 0 0 1 .065.033c.015.013.02.027.023.041a.03.03 0 0 1-.001.02.034.034 0 0 1-.01.013.077.077 0 0 1-.03.013.416.416 0 0 1-.09.008 2.495 2.495 0 0 1-.548-.075 1.813 1.813 0 0 0 .154.086c.043.022.083.043.123.068a.02.02 0 0 1 .009.018.02.02 0 0 1-.011.016.578.578 0 0 1-.326.046 1.034 1.034 0 0 1-.331-.11c.23.165.445.256.62.313.092.03.172.05.24.068l.053.013c.038.01.071.02.098.03a.16.16 0 0 1 .063.038.02.02 0 0 1 .002.024c-.06.09-.164.12-.285.112a1.322 1.322 0 0 1-.41-.112 3.563 3.563 0 0 1-.328-.16c.092.061.184.12.264.17.064.039.12.071.165.094a.548.548 0 0 0 .072.03.027.027 0 0 0 .008.001.02.02 0 0 1 .019.03.09.09 0 0 1-.046.033.265.265 0 0 1-.067.014 1.122 1.122 0 0 1-.326-.037.43.43 0 0 1-.078-.03.05.05 0 0 1-.015-.016l.033-.02.003.003a.391.391 0 0 0 .067.026 1.08 1.08 0 0 0 .313.035.24.24 0 0 0 .053-.01 2.568 2.568 0 0 1-.22-.12 13.03 13.03 0 0 1-.798-.542l-.005-.006a.02.02 0 0 1 0-.02.02.02 0 0 1 .02-.01l.007.002.005.003a1.286 1.286 0 0 0 1.266.603c.107.007.19-.017.24-.08a.186.186 0 0 0-.036-.019.932.932 0 0 0-.094-.028l-.052-.014a3.71 3.71 0 0 1-.243-.068 2.305 2.305 0 0 1-.858-.504.02.02 0 0 1 .024-.03c.239.17.422.237.562.256a.542.542 0 0 0 .27-.029l-.086-.046a1.815 1.815 0 0 1-.28-.17.216.216 0 0 1-.021-.013.093.093 0 0 1-.026-.024.02.02 0 0 1 .003-.025.02.02 0 0 1 .025-.001l.04.03a2.388 2.388 0 0 0 .67.118.38.38 0 0 0 .091-.01.026.026 0 0 0-.01-.017.178.178 0 0 0-.052-.026 4.8 4.8 0 0 0-.199-.064.675.675 0 0 1-.22-.07.02.02 0 0 1 .015-.035l.206.065.009.003c.058.01.12.019.178.023.073.006.138.007.183.002a.174.174 0 0 0 .045-.01.269.269 0 0 0-.116-.068 1.121 1.121 0 0 1-.225-.066h-.001l.007-.018-.008.018a.02.02 0 0 1 .014-.037l.106.031c.05.015.087.025.116.035.024.004.05.008.076.01.15.014.324-.008.45-.142a.981.981 0 0 1-.17.006 2.85 2.85 0 0 1-.282-.027 4.713 4.713 0 0 1-.353-.065Z"/><path fill="#EF7D00" d="M21.282 3.188c-.07.011-.291.011-.323.004l.323-.004Z"/><path fill="currentColor" d="M21.301 3.185a.02.02 0 0 1-.016.022 2.601 2.601 0 0 1-.33.003.02.02 0 0 1 .008-.037 2.538 2.538 0 0 0 .316-.004.02.02 0 0 1 .022.016Z"/><path fill="#EF7D00" d="M16.55 2.285s.479.253.683.236a.351.351 0 0 1-.134.07c.05.021.19.095.401.05l-.116.105s.183.07.387-.035a1.615 1.615 0 0 0-.099.13l.144.01"/><path fill="currentColor" d="M16.534 2.276a.02.02 0 0 1 .026-.008l-.01.017-.009.017a.02.02 0 0 1-.008-.026Zm.618.317a.371.371 0 0 0 .093-.058.02.02 0 0 0-.014-.034.557.557 0 0 1-.186-.028 2.094 2.094 0 0 1-.222-.081 3.755 3.755 0 0 1-.243-.113.056.056 0 0 0-.015-.008l-.004-.002-.001-.001-.01.017-.009.017h.002l.004.003.016.008a3.758 3.758 0 0 0 .245.114c.073.03.152.061.227.083a.8.8 0 0 0 .138.029.331.331 0 0 1-.08.033.02.02 0 0 0-.013.018.02.02 0 0 0 .011.019.61.61 0 0 0 .347.061l-.067.061a.02.02 0 0 0 .006.033l.007-.018-.007.018h.003l.006.003a.508.508 0 0 0 .113.02.534.534 0 0 0 .208-.028 1.61 1.61 0 0 0-.05.07.02.02 0 0 0 .014.03l.144.011a.02.02 0 1 0 .003-.038l-.11-.008a1.28 1.28 0 0 1 .077-.101.02.02 0 0 0-.024-.03.495.495 0 0 1-.339.044l.09-.083a.02.02 0 0 0-.016-.033.567.567 0 0 1-.344-.028Z"/></g><defs><clipPath id="a"><path fill="#fff" d="M0 0h24v18H0z"/></clipPath></defs></svg>