<svg xmlns="http://www.w3.org/2000/svg" width="24" height="18" fill="none"><g clip-path="url(#a)"><path fill="#006400" d="M-.087-.004h36.924v17.996H-.087V-.004Z"/><path fill="#FFD200" d="M-.087 2.568h36.924v12.855H-.087V2.568Z"/><path fill="#D40000" d="M-.087 5.139h36.924v7.712H-.087V5.14Z"/><path fill="currentColor" d="M-.087 7.709h36.924v2.57H-.087V7.71Z"/><path fill="currentColor" d="M-.087-.004v17.996l12.308-8.998L-.087-.004Z"/><path fill="currentColor" fill-rule="evenodd" d="m-.52-.858 13.477 9.852-13.478 9.853V-.858ZM.346.852v16.285l11.14-8.143L.346.851Z" clip-rule="evenodd"/><path fill="#fff" d="M-.087-.004v17.996l12.308-8.998L-.087-.004Z"/><path fill="#D40000" d="m4.595 4.47 2.44 7.314-6.383-4.52h7.89l-6.386 4.52 2.44-7.314Z"/><path fill="#FC0" d="m3.552 10.868.431-.078.796-.03.294.026.66.107.048-.064v-.463l.08-.398.131-.403.145-.321.185-.335.299.073H6.7l.008-.055-.632-.527-.66-.493-.954-.694-.088-.022-.1-.728-.075-.219-.102-.085-.189-.06-.21.008-.097.052-.203.042-.105.018-.07.081-.01.103.295.008.075.03-.009.03-.167.022-.079.026.092.068.097.034.123.043.027.086.008 1.105-.066.172-.021.321.096.386-.246.274-.14.244-.027.15-.075.15-.009.094.049.103.189.609.097.501.03.009Z"/><path fill="currentColor" d="M3.781 6.08a.336.336 0 0 0-.189.048.484.484 0 0 1-.202.06c-.11 0-.198.077-.198.176v.064l.159-.004c.466.012.044.055.008.06-.114.021.027.11.163.158.145.043.136.017.136.643 0 .51 0 .583-.044.698a1.07 1.07 0 0 0 0 .6.766.766 0 0 1 .044.141c0 .009-.07.09-.154.185-.153.171-.246.347-.246.471a.253.253 0 0 1-.044.111c-.057.073-.057.198-.004.245.057.051.29.934.294 1.1 0 .06.01.06.365-.008.29-.055.972-.068 1.319-.025.158.021.343.055.409.068.21.056.202.064.202-.184a3.1 3.1 0 0 1 .224-1.144c.084-.208.186-.409.304-.6 0 0 .079.009.175.034.18.043.233.039.233-.043 0-.042-.189-.197-1.116-.9a19.32 19.32 0 0 0-1.156-.852c-.027 0-.053-.013-.057-.03l-.066-.407a3.381 3.381 0 0 0-.093-.459c-.061-.128-.18-.192-.378-.205h-.088Zm.005.044h.088c.29.017.343.094.422.6.021.133.039.268.052.402 0 .035-.04.077-.14.142a1.98 1.98 0 0 0-.44.407l-.057.077-.013-.18v-.506c.013-.373 0-.407-.123-.45-.101-.034-.233-.068-.198-.09.044-.025.088-.008.193-.038.044-.009.04-.004.031-.039-.009-.055-.07-.085-.233-.077-.132.009-.145.004-.136-.03.017-.068.088-.111.198-.124a.6.6 0 0 0 .193-.056.314.314 0 0 1 .163-.043v.005Zm.655 1.105h.017c.075.013 2.233 1.658 2.233 1.705 0 .018-.017.03-.044.03-.017 0-.567-.15-1.217-.334-1.038-.3-1.187-.343-1.231-.398a.215.215 0 0 1-.004-.266.212.212 0 0 0 .044-.086c0-.051-.11.077-.132.15-.022.086.022.232.088.279.026.021.224.086.44.15.368.103.395.115.412.175.044.142-.11.309-.33.356a.65.65 0 0 0-.228.103 3.014 3.014 0 0 1-.756.446c-.018.012-.04.081-.053.145-.026.142-.035.163-.079.163-.022 0-.026-.013-.009-.06.031-.086.027-.188-.004-.188-.022 0-.03.03-.03.077 0 .043-.014.094-.032.107-.022.026-.026.008-.017-.099.009-.073.004-.128-.005-.128-.022 0-.061.107-.074.201-.01.056-.01.056-.027-.013-.013-.051-.008-.085.031-.15a.378.378 0 0 0 .044-.15c0-.055.044-.111.25-.312.132-.133.295-.3.352-.373.101-.12.106-.129.101-.253a.384.384 0 0 0-.017-.141c-.027-.026-.062.11-.044.184.009.068 0 .09-.145.257a4.912 4.912 0 0 1-.33.334c-.171.154-.233.24-.233.317a.437.437 0 0 1-.044.142c-.026.055-.035.11-.026.124.009.013 0 .013-.013 0-.022-.022-.022-.056-.005-.129a.293.293 0 0 0 .009-.111c-.022-.043-.053.008-.066.116-.009.06-.022.107-.035.098-.03-.017-.022-.128.017-.188a.523.523 0 0 0 .058-.155c.03-.158.1-.287.255-.458.049-.052.096-.107.14-.163l-.044-.141a1.045 1.045 0 0 1-.008-.587c.057-.163.17-.326.351-.502.176-.167.347-.27.44-.274Zm.66 1.38a.06.06 0 0 1 .016 0l.014.006a.03.03 0 0 1 .01.009.018.018 0 0 1 .003.01.03.03 0 0 1-.014.013.055.055 0 0 1-.023.005.055.055 0 0 1-.023-.005.03.03 0 0 1-.015-.013c0-.005.003-.011.009-.016a.046.046 0 0 1 .022-.01Zm.109.013a.06.06 0 0 1 .016 0l.015.006a.03.03 0 0 1 .01.009.018.018 0 0 1 .003.01.03.03 0 0 1-.014.013.055.055 0 0 1-.023.005.055.055 0 0 1-.023-.005.03.03 0 0 1-.015-.013c0-.006.003-.011.009-.016a.046.046 0 0 1 .022-.01Zm.114.021a.06.06 0 0 1 .017.001l.014.005a.03.03 0 0 1 .01.01.018.018 0 0 1 .003.01.03.03 0 0 1-.014.012.055.055 0 0 1-.023.005.055.055 0 0 1-.023-.005.03.03 0 0 1-.014-.012c0-.006.002-.012.008-.017a.046.046 0 0 1 .022-.009Zm.106.021a.06.06 0 0 1 .016.002c.006 0 .01.002.015.005a.03.03 0 0 1 .01.009.018.018 0 0 1 .003.01.03.03 0 0 1-.015.013.055.055 0 0 1-.023.004.055.055 0 0 1-.023-.004.03.03 0 0 1-.014-.013.02.02 0 0 1 .008-.016.046.046 0 0 1 .023-.01Zm-.277.026a.06.06 0 0 1 .016.001.04.04 0 0 1 .015.006.03.03 0 0 1 .01.008.018.018 0 0 1 .003.01.03.03 0 0 1-.015.013.055.055 0 0 1-.023.005.055.055 0 0 1-.022-.005.03.03 0 0 1-.015-.012c0-.006.003-.012.008-.017a.046.046 0 0 1 .023-.009Zm.105.017a.06.06 0 0 1 .017.001c.005.002.01.003.014.006a.03.03 0 0 1 .01.008.018.018 0 0 1 .003.011.03.03 0 0 1-.014.013.055.055 0 0 1-.023.004.055.055 0 0 1-.023-.004.03.03 0 0 1-.014-.013c0-.006.002-.012.008-.016a.046.046 0 0 1 .022-.01Zm.229.009a.06.06 0 0 1 .016.001l.015.005a.03.03 0 0 1 .01.01.018.018 0 0 1 .003.01.03.03 0 0 1-.015.012.055.055 0 0 1-.022.005.055.055 0 0 1-.023-.005.03.03 0 0 1-.015-.012c0-.006.003-.012.008-.017a.046.046 0 0 1 .023-.01Zm-.119 0a.06.06 0 0 1 .017.001l.014.005a.03.03 0 0 1 .01.01.018.018 0 0 1 .003.01.03.03 0 0 1-.014.012.055.055 0 0 1-.023.005.055.055 0 0 1-.023-.005.03.03 0 0 1-.015-.012c0-.006.003-.012.009-.017a.046.046 0 0 1 .022-.01Zm.22.026c.004 0 .163.034.352.085l.347.099-.066.116a4.098 4.098 0 0 0-.105.188c-.044.086-.053.086-.264.039a7.722 7.722 0 0 0-.958-.129l-.352-.03.132-.047c.08-.03.157-.064.233-.103.088-.047.123-.056.259-.043.198.013.33-.025.382-.103l.044-.072h-.004Zm-.387.025a.06.06 0 0 1 .017.001c.005.001.01.003.014.006a.03.03 0 0 1 .01.008.018.018 0 0 1 .003.011.03.03 0 0 1-.014.013.055.055 0 0 1-.023.004.055.055 0 0 1-.023-.004.03.03 0 0 1-.015-.013.02.02 0 0 1 .009-.016.046.046 0 0 1 .022-.01Zm.246 0a.06.06 0 0 1 .017.001c.005.001.01.003.014.006a.03.03 0 0 1 .01.008.018.018 0 0 1 .003.011.035.035 0 0 1-.014.01.056.056 0 0 1-.041 0 .035.035 0 0 1-.015-.01.02.02 0 0 1 .008-.016.046.046 0 0 1 .023-.01h-.005Zm-.351 0a.06.06 0 0 1 .016.001.04.04 0 0 1 .015.006.03.03 0 0 1 .01.008.018.018 0 0 1 .003.011.03.03 0 0 1-.015.013.055.055 0 0 1-.023.004.055.055 0 0 1-.023-.004.03.03 0 0 1-.014-.013.024.024 0 0 1 .01-.014.048.048 0 0 1 .02-.007v-.005Zm.233.009c.01 0 .02 0 .028.005.009.004.014.01.016.016a.03.03 0 0 1-.015.013.055.055 0 0 1-.023.005.055.055 0 0 1-.023-.005.03.03 0 0 1-.014-.013.024.024 0 0 1 .01-.014.048.048 0 0 1 .02-.007Zm-.29.047a.06.06 0 0 1 .016.001l.014.005a.03.03 0 0 1 .01.01.018.018 0 0 1 .004.01.03.03 0 0 1-.015.012.055.055 0 0 1-.023.005.055.055 0 0 1-.023-.005.03.03 0 0 1-.014-.012c0-.006.003-.012.008-.017a.046.046 0 0 1 .023-.009Zm.11 0a.06.06 0 0 1 .018.001.046.046 0 0 1 .015.007.026.026 0 0 1 .01.01.017.017 0 0 1 0 .012.03.03 0 0 1-.014.013.055.055 0 0 1-.023.004.055.055 0 0 1-.023-.004.03.03 0 0 1-.014-.013c0-.006.002-.012.008-.016a.046.046 0 0 1 .022-.01v-.004Zm.114.009c.01-.001.02 0 .028.005.009.004.014.01.016.016a.03.03 0 0 1-.015.013.055.055 0 0 1-.023.004.055.055 0 0 1-.023-.004.03.03 0 0 1-.014-.013.024.024 0 0 1 .01-.014.048.048 0 0 1 .02-.007Zm.123 0a.06.06 0 0 1 .016 0l.015.006a.03.03 0 0 1 .01.009.018.018 0 0 1 .003.01.03.03 0 0 1-.015.013.055.055 0 0 1-.023.005.055.055 0 0 1-.022-.005.03.03 0 0 1-.015-.013c0-.006.003-.011.008-.016a.046.046 0 0 1 .023-.01Zm-.893.347a8.612 8.612 0 0 1 1.543.18c.005.004-.026.107-.074.231l-.088.257c-.005.021-.035.021-.11.013-.365-.056-1.42-.051-1.824.008-.233.035-.264.03-.247-.017l.044-.15.027-.115.237-.12c.158-.079.309-.172.449-.279h.04l.003-.008Zm-1.186.608c.013 0 .04.013.07.034a.337.337 0 0 0 .119.047c.114 0 .175.159.272.686l.035.189c.01.042 0 .051-.1.072-.124.026-.155.03-.155.013 0-.043-.123-.587-.175-.78a4.057 4.057 0 0 1-.069-.257h.003v-.004Zm1.257.086h.127l-.044.043c-.074.085-.11.09-.162.034a.214.214 0 0 1-.044-.064c0-.009.057-.018.123-.018v.005Zm.268 0h.237l-.052.051c-.062.069-.066.069-.132 0l-.053-.056v.005Zm.36 0h.058c.03 0 .087 0 .123.008l.066.013-.062.056c-.035.03-.066.056-.07.051l-.062-.068-.053-.065v.005Zm.374.013.053.012c.03.01.097.013.145.018h.088l-.066.055a.392.392 0 0 1-.08.056.353.353 0 0 1-.074-.073l-.066-.068Zm-1.327.004h.008c.005.008-.013.043-.044.073l-.044.06-.066-.052-.065-.055.105-.013.106-.013Zm.1.008.071.06.07.065-.132.008-.131.005.061-.065.062-.073Zm.792 0c.013 0 .022.005.035.013a.284.284 0 0 1 .057.073c.018.034.013.043-.044.043l-.11-.021-.052-.013.057-.056c.026-.026.044-.043.061-.043l-.004.004Zm-.365 0c.022 0 .044.013.07.056.031.047.031.047-.088.047H4.63l.061-.055c.031-.03.057-.043.075-.043v-.005Zm.747.01.053.05c.062.056.07.09.026.086l-.123-.013-.096-.008.07-.056.07-.06Zm-1.547.029c.009 0 .044.021.07.051l.053.056-.11.017-.154.022c-.03.008-.022-.013.044-.069a.396.396 0 0 1 .097-.077Zm-.163 0h.018c.035.009.035.017-.026.077l-.066.064-.022-.055c-.018-.043-.014-.056.026-.073a.216.216 0 0 1 .07-.013Zm2.022.077c.01 0 .01.009 0 .026-.008.034-.048.043-.048.008 0-.008.013-.021.03-.03h.014l.004-.004Zm-.94.069c.338 0 .681.008.765.017.136.017.149.021.149.073 0 .06-.018.064-.202.034-.053-.013-.277-.03-.493-.047a6.751 6.751 0 0 0-1.252.043c-.084.008-.106 0-.106-.026 0-.056.449-.094 1.139-.094Zm-.453.124h.237l-.052.056c-.066.068-.07.068-.132 0l-.053-.056Zm.308 0 .061.06.062.069-.128.004h-.127l.066-.069.061-.064h.005Zm.092 0h.237l-.052.056c-.062.068-.066.068-.132 0l-.053-.056Zm-.563 0c.01 0 0 .021-.03.064a.342.342 0 0 1-.066.069c-.01 0-.04-.026-.066-.056l-.053-.056h.079c.04 0 .08-.005.119-.017a.043.043 0 0 1 .017 0v-.004Zm.088.021.057.052.066.056-.114.008-.127.009.061-.065.057-.06Zm.765 0 .062.069c.07.073.066.077-.093.047l-.074-.013.052-.051.053-.052Zm.088 0h.106c.114 0 .127.018.061.078-.053.042-.053.042-.114-.022l-.053-.056Zm-1.345.022c.053 0 .048.004-.018.068-.048.048-.052.048-.07.013-.013-.043.026-.077.088-.081Zm1.705.008c.018 0 .053 0 .088.009l.101.017-.057.051-.052.052-.049-.06-.044-.069h.013Zm-1.582.022c.013 0 .026.008.048.03.044.043.044.043.01.06a.36.36 0 0 1-.106.017h-.07l.056-.06c.031-.03.044-.043.058-.047h.004Zm1.499.013c.018 0 .03.008.053.043l.04.05h-.093c-.062 0-.088-.008-.088-.025a.14.14 0 0 1 .057-.056l.03-.012Zm.281.055c.01 0 .01.009.01.022 0 .043-.04.073-.058.043-.004-.013.004-.035.022-.047l.026-.018ZM4.63 10.4c.382 0 .804.025 1.055.068l.07.013v.189c0 .141-.009.188-.03.188l-.22-.043a5.68 5.68 0 0 0-1.539-.042l-.101.012-.026-.158a.88.88 0 0 1-.018-.163s.101-.021.22-.034c.145-.022.36-.03.589-.03Z"/><path fill="currentColor" d="M5.399 9.33c-.132 0-.224.09-.224.222 0 .206.237.308.378.163.14-.146.044-.386-.154-.386Zm0 .05a.18.18 0 0 1 .124.05.171.171 0 0 1 .052.122c0 .128-.145.214-.264.158-.119-.064-.11-.26.018-.312a.193.193 0 0 1 .066-.017h.004ZM3.781 6.223a.074.074 0 0 0-.048.023.078.078 0 0 0-.022.05.08.08 0 0 0 .022.056.076.076 0 0 0 .11 0 .08.08 0 0 0 .022-.056.08.08 0 0 0-.027-.055.074.074 0 0 0-.057-.018Zm.005.026c.014 0 .027.005.037.014.01.009.015.02.015.033a.045.045 0 0 1-.015.033.056.056 0 0 1-.037.014.056.056 0 0 1-.038-.014.045.045 0 0 1-.015-.033.04.04 0 0 1 .004-.018.047.047 0 0 1 .011-.015.058.058 0 0 1 .037-.014Z"/></g><defs><clipPath id="a"><path fill="#fff" d="M0 0h24v18H0z"/></clipPath></defs></svg>