<svg xmlns="http://www.w3.org/2000/svg" width="24" height="24" fill="none"><path fill="#34A853" d="M4.278 17.075c-.706 0-1.278-.57-1.278-1.272V9.917c0-.702.572-1.271 1.278-1.271.705 0 1.278.569 1.278 1.271v5.886c0 .702-.573 1.271-1.278 1.271Zm15.444 0c-.706 0-1.277-.57-1.277-1.272V9.917c0-.702.572-1.271 1.277-1.271.706 0 1.278.569 1.278 1.271v5.886c0 .702-.572 1.271-1.278 1.271Z"/><path fill="#34A853" fill-rule="evenodd" d="M12.88 18.371h-1.76v-2.528c0-.703-.573-1.272-1.278-1.272-.706 0-1.278.57-1.278 1.272v2.517a2.174 2.174 0 0 1-1.95-2.158V9.119c0-.262.212-.473.475-.473h9.821c.263 0 .476.212.476.473v7.083a2.173 2.173 0 0 1-1.95 2.157v-2.516c0-.703-.572-1.272-1.277-1.272-.706 0-1.278.57-1.278 1.272v2.528Zm0 0v3.357c0 .703.573 1.272 1.278 1.272.706 0 1.278-.57 1.278-1.272V18.36a2.206 2.206 0 0 1-.23.012h-2.325Zm-4.316-.011v3.368c0 .703.572 1.272 1.278 1.272.705 0 1.277-.57 1.277-1.272v-3.357H8.793a2.2 2.2 0 0 1-.23-.011Z" clip-rule="evenodd"/><path fill="#34A853" d="M9.842 14.57c-.706 0-1.278.57-1.278 1.273v2.517a2.2 2.2 0 0 0 .23.011h2.325v-2.528c0-.703-.572-1.272-1.277-1.272Zm4.317 0c-.706 0-1.278.57-1.278 1.273v2.528h2.326c.077 0 .154-.004.23-.011v-2.517c0-.703-.573-1.272-1.278-1.272Z"/><path fill="#34A853" fill-rule="evenodd" d="M17.275 6.647a5.254 5.254 0 0 0-2.478-3.396l.986-1.71a.36.36 0 0 0-.134-.493.364.364 0 0 0-.495.133l-1.007 1.746A5.566 5.566 0 0 0 12 2.503a5.57 5.57 0 0 0-2.147.424L8.846 1.181a.364.364 0 0 0-.495-.133.36.36 0 0 0-.134.493l.986 1.71a5.255 5.255 0 0 0-2.478 3.397c-.084.375.21.73.596.73h9.358c.386 0 .68-.355.596-.73Zm-2.796-.797a.448.448 0 1 1-.002-.895.448.448 0 0 1 .002.895Zm-5.407-.446a.448.448 0 1 0 .895-.003.448.448 0 0 0-.895.003Z" clip-rule="evenodd"/></svg>