<svg xmlns="http://www.w3.org/2000/svg" width="24" height="24" fill="none"><path fill="#34A853" d="m22.939 17.83-.022-.135a10.932 10.932 0 0 0-1.1-3.29 11.15 11.15 0 0 0-2.015-2.738 11.099 11.099 0 0 0-1.952-1.547c.005-.007.008-.015.012-.022l.667-1.15.65-1.123c.157-.268.313-.538.468-.806a1.012 1.012 0 0 0-1.749-1.015l-.467.806-.651 1.123-.667 1.15-.072.126-.101-.04A11.032 11.032 0 0 0 12 8.448h-.113a11.038 11.038 0 0 0-3.905.753l-.068-.117-.666-1.15a27999.56 27999.56 0 0 1-1.119-1.93 1.009 1.009 0 0 0-1.392-.361 1.007 1.007 0 0 0-.445 1.179c.022.068.05.133.088.197l.467.807.652 1.123.666 1.15.005.01a11.11 11.11 0 0 0-4.484 5.395 11.007 11.007 0 0 0-.601 2.192l-.022.134c-.024.16-.045.322-.063.485h22a11.179 11.179 0 0 0-.063-.485h.002Z"/><path fill="#202124" d="M17.723 15.272c.44-.293.504-.97.142-1.514-.36-.543-1.01-.746-1.45-.453-.44.293-.505.97-.143 1.514.36.543 1.01.746 1.45.453Zm-9.975-.451c.361-.543.297-1.221-.143-1.514-.44-.293-1.09-.09-1.451.453-.362.543-.297 1.22.142 1.514.44.293 1.09.09 1.452-.453Z"/></svg>