<svg xmlns="http://www.w3.org/2000/svg" width="24" height="24" fill="none"><path fill="currentColor" fill-rule="evenodd" d="M19.5 7a1 1 0 1 1 0 2H8.975l-.123.007a5.504 5.504 0 0 0-.478.054c-.408.064-.934.19-1.448.432-.512.24-.984.583-1.329 1.07C5.26 11.041 5 11.717 5 12.706c0 1.16.272 1.963.627 2.528.359.568.839.955 1.34 1.22a4.898 4.898 0 0 0 1.426.479 4.816 4.816 0 0 0 .586.066l.024.001h.002-.002 8.711a1 1 0 1 1 0 2H9v-1l.001-1L9 18l-.001 1h-.031a3.35 3.35 0 0 1-.258-.013 6.813 6.813 0 0 1-.665-.085 6.899 6.899 0 0 1-2.013-.68 5.467 5.467 0 0 1-2.097-1.923C3.353 15.376 3 14.193 3 12.706c0-1.364.366-2.453.965-3.299.593-.836 1.37-1.376 2.11-1.724a7.424 7.424 0 0 1 1.989-.597A7.505 7.505 0 0 1 8.97 7H9v1l-.001-1H19.5Z" clip-rule="evenodd"/><path fill="currentColor" fill-rule="evenodd" d="M15.793 3.793a1 1 0 0 1 1.414 0l3.5 3.5a1 1 0 0 1 0 1.414l-3.5 3.5a1 1 0 0 1-1.414-1.414L18.586 8l-2.793-2.793a1 1 0 0 1 0-1.414Z" clip-rule="evenodd"/></svg>