<svg xmlns="http://www.w3.org/2000/svg" width="24" height="24" fill="none"><path fill="currentColor" fill-rule="evenodd" d="M3.5 8a1 1 0 0 1 1-1H15v1-1h.03a3.556 3.556 0 0 1 .252.011 7.5 7.5 0 0 1 .654.075 7.43 7.43 0 0 1 1.99.597c.738.348 1.516.888 2.109 1.724.599.846.965 1.934.965 3.299 0 1.487-.353 2.67-.935 3.593a5.468 5.468 0 0 1-2.097 1.923 6.9 6.9 0 0 1-2.013.68 6.815 6.815 0 0 1-.924.098h-.029S15 19 15 18v1H6.286a1 1 0 1 1 0-2h8.734c.024-.002.064-.003.118-.008.109-.008.271-.025.469-.06a4.87 4.87 0 0 0 1.424-.478 3.467 3.467 0 0 0 1.34-1.22c.356-.565.628-1.368.628-2.528 0-.989-.259-1.665-.597-2.143-.345-.487-.817-.83-1.329-1.07a5.427 5.427 0 0 0-1.448-.432 5.505 5.505 0 0 0-.601-.06L14.999 9H4.5a1 1 0 0 1-1-1Z" clip-rule="evenodd"/><path fill="currentColor" fill-rule="evenodd" d="M8.207 3.793a1 1 0 0 1 0 1.414L5.414 8l2.793 2.793a1 1 0 1 1-1.414 1.414l-3.5-3.5a1 1 0 0 1 0-1.414l3.5-3.5a1 1 0 0 1 1.414 0Z" clip-rule="evenodd"/></svg>