<svg xmlns="http://www.w3.org/2000/svg" width="24" height="24" fill="none"><path fill="currentColor" fill-rule="evenodd" d="M16.05 4a2.5 2.5 0 0 0-1.768.731l-8.038 8.026a4.24 4.24 0 0 0 0 6 4.254 4.254 0 0 0 6.012 0l5.464-5.464a1 1 0 0 1 1.414 1.414l-5.464 5.465a6.256 6.256 0 0 1-8.839 0 6.24 6.24 0 0 1 0-8.83l8.037-8.026a4.502 4.502 0 0 1 7.682 3.18 4.493 4.493 0 0 1-1.318 3.178L11.186 17.7a2.752 2.752 0 0 1-3.889 0 2.746 2.746 0 0 1 0-3.886l5.572-5.557a1 1 0 1 1 1.412 1.416l-5.57 5.556a.748.748 0 1 0 1.061 1.056l8.046-8.026A2.493 2.493 0 0 0 16.05 4Z" clip-rule="evenodd"/></svg>