<svg xmlns="http://www.w3.org/2000/svg" width="24" height="24" fill="none"><path fill="currentColor" d="M12 2a2 2 0 0 0-2 2v1a1 1 0 0 0 1 1h1c2.502 0 5 2.105 5 5v1.344a1 1 0 1 0 2 0V11c0-3.313-2.281-5.838-5-6.689V4a2 2 0 0 0-2-2Z"/><path fill="currentColor" fill-rule="evenodd" d="m6.004 7.418-3.711-3.71a1 1 0 0 1 1.414-1.415l15.996 15.995.009.01 1.995 1.995a1 1 0 0 1-1.414 1.414L18.586 20H4a1 1 0 0 1-.707-1.707C4.558 17.028 5 15.31 5 14v-3a6.83 6.83 0 0 1 1.004-3.582Zm1.473 1.473A4.834 4.834 0 0 0 7 11v3c0 1.174-.27 2.635-1.017 4h10.603l-9.11-9.11Z" clip-rule="evenodd"/><path fill="currentColor" d="M14 21a2 2 0 1 1-4 0h4Z"/></svg>