<svg xmlns="http://www.w3.org/2000/svg" width="24" height="24" fill="none"><path fill="currentColor" fill-rule="evenodd" d="M10 4a2 2 0 0 1 4 0v.311c2.719.851 5 3.376 5 6.689v3c0 1.31.442 3.028 1.707 4.293A1 1 0 0 1 20 20H4a1 1 0 0 1-.707-1.707C4.558 17.028 5 15.31 5 14v-3c0-3.313 2.281-5.838 5-6.689V4Zm-3 7c0-2.895 2.498-5 5-5s5 2.105 5 5v3c0 1.174.27 2.635 1.017 4H5.983A8.473 8.473 0 0 0 7 14v-3Z" clip-rule="evenodd"/><path fill="currentColor" d="M12 23a2 2 0 0 0 2-2h-4a2 2 0 0 0 2 2Z"/></svg>