<svg xmlns="http://www.w3.org/2000/svg" width="24" height="24" fill="none"><path fill="currentColor" d="m2.695 7.185 9 4 .61-1.37-9-4-.61 1.37ZM12.75 21.5v-11h-1.5v11h1.5Zm-.445-10.315 9-4-.61-1.37-9 4 .61 1.37Z"/><path fill="currentColor" fill-rule="evenodd" d="M12 3.594 4 7.15v9.7l8 3.556 8-3.556v-9.7l-8-3.556Zm-8.238 13.15Zm7.588-15.05a1.6 1.6 0 0 1 1.3 0l8.4 3.734c.578.257.95.83.95 1.462v10.22a1.6 1.6 0 0 1-.95 1.462l-8.4 3.734a1.601 1.601 0 0 1-1.3 0l-8.4-3.734A1.6 1.6 0 0 1 2 17.11V6.89a1.6 1.6 0 0 1 .95-1.462l8.4-3.734Z" clip-rule="evenodd"/><path fill="currentColor" fill-rule="evenodd" d="M6.586 4.094a1 1 0 0 1 1.32-.508l8.644 3.842c.578.257.95.83.95 1.462v3.61a1 1 0 0 1-2 0V9.15L7.094 5.414a1 1 0 0 1-.508-1.32Z" clip-rule="evenodd"/></svg>