<svg xmlns="http://www.w3.org/2000/svg" width="24" height="24" fill="none"><path fill="currentColor" fill-rule="evenodd" d="M8.828 7H5a1 1 0 0 0-1 1v10a1 1 0 0 0 1 1h14a1 1 0 0 0 1-1V8a1 1 0 0 0-1-1h-3.828L14 5.828l1.414-1.414L16 5h3a3 3 0 0 1 3 3v10a3 3 0 0 1-3 3H5a3 3 0 0 1-3-3V8a3 3 0 0 1 3-3h3l.586-.586a4.828 4.828 0 0 1 6.828 0L14 5.828a2.828 2.828 0 0 0-4 0L8.828 7Z" clip-rule="evenodd"/><path fill="currentColor" fill-rule="evenodd" d="M12 16a3 3 0 1 0 0-6 3 3 0 0 0 0 6Zm0 2a5 5 0 1 0 0-10 5 5 0 0 0 0 10Z" clip-rule="evenodd"/></svg>