<svg xmlns="http://www.w3.org/2000/svg" width="24" height="24" fill="none"><path fill="currentColor" fill-rule="evenodd" d="M19 6a3 3 0 0 0-3-3H4a3 3 0 0 0-3 3v8a3 3 0 0 0 3 3h9.675a1 1 0 0 0 1.618 1.121l1.414-1.414a1 1 0 0 0 0-1.414l-1.414-1.414A1 1 0 0 0 13.675 15H4a1 1 0 0 1-1-1V6a1 1 0 0 1 1-1h12a1 1 0 0 1 1 1 1 1 0 1 0 2 0ZM8 8a3 3 0 0 0-3 3v2a1 1 0 1 0 2 0v-2a1 1 0 0 1 1-1h12a1 1 0 0 1 1 1v8a1 1 0 0 1-1 1H8a1 1 0 0 1-1-1 1 1 0 1 0-2 0 3 3 0 0 0 3 3h12a3 3 0 0 0 3-3v-8a3 3 0 0 0-3-3H8Z" clip-rule="evenodd"/></svg>