<svg xmlns="http://www.w3.org/2000/svg" width="24" height="24" fill="none"><path fill="currentColor" fill-rule="evenodd" d="M3.336 2.253a1 1 0 0 1 1.411.083l16 18a1 1 0 0 1-1.494 1.328l-16-18a1 1 0 0 1 .083-1.411Z" clip-rule="evenodd"/><path fill="currentColor" fill-rule="evenodd" d="M4.8 6c-.345 0-.8.346-.8 1v10c0 .654.455 1 .8 1h14.4c.345 0 .8-.346.8-1h2c0 1.555-1.157 3-2.8 3H4.8C3.157 20 2 18.555 2 17V7c0-1.555 1.157-3 2.8-3h.9a1 1 0 0 1 0 2h-.9ZM20 10v7h2V7c0-1.555-1.157-3-2.8-3h-9a1 1 0 0 0 0 2h9c.345 0 .8.346.8 1v1H3.8a1 1 0 0 0 0 2H20Z" clip-rule="evenodd"/><path fill="currentColor" d="M3.8 8a1 1 0 0 0 0 2V8Zm.2 2V8h-.2v2H4Z"/></svg>