<svg xmlns="http://www.w3.org/2000/svg" width="24" height="24" fill="none"><path fill="currentColor" fill-rule="evenodd" d="M9.293 11.464a1 1 0 0 1 1.497 1.32l-.083.095-.121.121H15a1 1 0 0 1 .117 1.993L15 15h-4.414l.12.121a1 1 0 0 1-1.32 1.498l-.093-.084-1.829-1.828a1 1 0 0 1-.083-1.32l.083-.094 1.829-1.829Z" clip-rule="evenodd"/><path fill="currentColor" fill-rule="evenodd" d="M21.058 4.817A3 3 0 0 0 19 4H5l-.176.005A3 3 0 0 0 2 7v10l.005.176A3 3 0 0 0 5 20h14l.176-.005A3 3 0 0 0 22 17V7l-.005-.176a3 3 0 0 0-.937-2.007ZM4.253 17.664A1 1 0 0 1 4 17V7a1 1 0 0 1 1-1h14a1 1 0 0 1 1 1v10l-.007.117A1 1 0 0 1 19 18H5l-.117-.007a1 1 0 0 1-.63-.329Z" clip-rule="evenodd"/><path fill="currentColor" fill-rule="evenodd" d="M2.6 9a1 1 0 0 1 1-1H21a1 1 0 1 1 0 2H3.6a1 1 0 0 1-1-1Z" clip-rule="evenodd"/></svg>