<svg xmlns="http://www.w3.org/2000/svg" width="24" height="24" fill="none"><path fill="currentColor" fill-rule="evenodd" d="M7 5a3 3 0 0 1 3-3h4a3 3 0 0 1 3 3v1h2a3 3 0 0 1 3 3v9a3 3 0 0 1-3 3H5a3 3 0 0 1-3-3V9a3 3 0 0 1 3-3h2V5Zm8 0v1H9V5a1 1 0 0 1 1-1h4a1 1 0 0 1 1 1ZM4 9a1 1 0 0 1 1-1h14a1 1 0 0 1 1 1v1a2 2 0 0 1-2 2H6a2 2 0 0 1-2-2V9Zm6 5H6a3.982 3.982 0 0 1-2-.535V18a1 1 0 0 0 1 1h14a1 1 0 0 0 1-1v-4.535A3.982 3.982 0 0 1 18 14h-4a1 1 0 0 1-1 1h-2a1 1 0 0 1-1-1Z" clip-rule="evenodd"/></svg>