<svg xmlns="http://www.w3.org/2000/svg" width="24" height="24" fill="none"><path fill="currentColor" fill-rule="evenodd" d="M2.293 2.293a1 1 0 0 1 1.414 0l18 18a1 1 0 0 1-1.414 1.414l-.755-.755A3.014 3.014 0 0 1 19 21H5a3 3 0 0 1-3-3v-6a3 3 0 0 1 3-3h2.586L6.582 7.997A1.013 1.013 0 0 1 6.5 8H4a1 1 0 0 1 0-2h.586L2.293 3.707a1 1 0 0 1 0-1.414ZM9.586 11H6a2 2 0 0 1-2 2v4a2 2 0 0 1 2 2h11.586l-3.622-3.621a2 2 0 1 1-2.343-2.343L9.586 11Z" clip-rule="evenodd"/><path fill="currentColor" d="M9.629 3a1 1 0 0 0 0 2H19a1 1 0 1 0 0-2H9.629Zm2.001 4a1 1 0 0 1 1-1H20a1 1 0 1 1 0 2h-7.37a1 1 0 0 1-1-1ZM22 12a3 3 0 0 0-3-3h-3.371a1 1 0 1 0 0 2H18a2 2 0 0 0 2 2v2.371a1 1 0 1 0 2 0V12Z"/></svg>