<svg xmlns="http://www.w3.org/2000/svg" width="24" height="24" fill="none"><path fill="currentColor" fill-rule="evenodd" d="m8.076 7.26.095.083 8.486 8.485a1 1 0 0 1-.246 1.595l-.116.05L5.91 21.3c-1.952.72-3.853-1.115-3.26-3.064l.05-.146L6.526 7.705a1 1 0 0 1 1.447-.516l.103.07Zm-.214 2.602-3.285 8.92a.5.5 0 0 0 .562.664l.08-.023 8.918-3.286-6.275-6.275Zm9.245 1.742c.911.048 2.16.24 3.246.892a1 1 0 0 1-.925 1.77l-.104-.055c-.682-.41-1.554-.57-2.322-.61a7.682 7.682 0 0 0-.95.004l-.316.03a1 1 0 0 1-.281-1.98 8.59 8.59 0 0 1 1.652-.052m2.025-2.786a1 1 0 0 1 .116 1.993l-.116.007h-.708a1 1 0 0 1-.116-1.993l.116-.007h.708ZM15.95 8.05a1 1 0 0 1 .083 1.32l-.083.094-1.06 1.06a1 1 0 0 1-1.498-1.32l.083-.093 1.06-1.06a1 1 0 0 1 1.415-.001Zm-2.587-5.265c.448 1.346.208 2.82-.072 3.85-.168.642-.4 1.266-.69 1.863a1 1 0 1 1-1.79-.893 8.13 8.13 0 0 0 .55-1.496c.227-.832.341-1.735.166-2.475l-.061-.216a.998.998 0 0 1 1.018-1.326 1 1 0 0 1 .879.693Zm5.415 2.438a1 1 0 0 1 0 1.414l-.707.707a1 1 0 1 1-1.414-1.414l.707-.707a1 1 0 0 1 1.414 0Z" clip-rule="evenodd"/></svg>