<svg xmlns="http://www.w3.org/2000/svg" width="24" height="24" fill="none"><path fill="currentColor" fill-rule="evenodd" d="M6.852 5.277C7.7 3.895 9.312 3 12 3c2.688 0 4.3.895 5.148 2.277.536.874.695 1.847.742 2.618a5.52 5.52 0 0 1 2.152.887C21.152 9.564 22 10.864 22 12.8c0 1.28-.371 2.304-.979 3.087-.598.771-1.38 1.25-2.118 1.533a1 1 0 0 1-.715-1.868c.483-.185.93-.474 1.253-.89.314-.406.559-.99.559-1.862 0-1.264-.515-1.964-1.11-2.382-.646-.456-1.455-.618-1.98-.618a1 1 0 0 1-1-1c0-.837-.022-1.752-.467-2.477C15.063 5.705 14.221 5 12 5c-2.22 0-3.064.705-3.443 1.323-.445.725-.466 1.64-.466 2.477a1 1 0 0 1-1 1c-.526 0-1.335.162-1.981.618C4.515 10.836 4 11.536 4 12.8c0 .871.245 1.456.56 1.861.322.417.769.706 1.252.891a1 1 0 0 1-.715 1.868c-.739-.283-1.52-.762-2.118-1.533C2.37 15.104 2 14.08 2 12.8c0-1.936.849-3.236 1.958-4.018a5.52 5.52 0 0 1 2.152-.887c.047-.771.206-1.744.742-2.618Zm1.585 9.608 2.864-2.8a1 1 0 0 1 1.398 0l2.864 2.8a1 1 0 0 1-1.399 1.43L13 15.176V20a1 1 0 1 1-2 0v-4.824l-1.165 1.139a1 1 0 0 1-1.398-1.43Z" clip-rule="evenodd"/></svg>