<svg xmlns="http://www.w3.org/2000/svg" width="24" height="24" fill="none"><path fill="currentColor" fill-rule="evenodd" d="M12 12a1 1 0 0 1 1 1v4.742l1.328-1.205a1 1 0 0 1 1.344 1.481l-3 2.723a1 1 0 0 1-1.344 0l-3-2.723a1 1 0 1 1 1.344-1.48L11 17.741V13a1 1 0 0 1 1-1Z" clip-rule="evenodd"/><path fill="currentColor" fill-rule="evenodd" d="M6.843 5.366C7.683 3.941 9.294 3 12 3s4.317.941 5.157 2.366c.538.913.691 1.928.735 2.73.69.134 1.468.417 2.165.928 1.11.813 1.943 2.154 1.943 4.138 0 1.315-.366 2.367-.967 3.174-.594.797-1.374 1.297-2.117 1.593a1 1 0 1 1-.741-1.858c.479-.19.927-.49 1.254-.93.32-.43.571-1.053.571-1.979 0-1.347-.53-2.089-1.125-2.525-.645-.473-1.448-.64-1.966-.64a1 1 0 0 1-1-1c0-.87-.02-1.843-.475-2.615C15.047 5.725 14.204 5 12 5c-2.203 0-3.047.725-3.434 1.382-.455.772-.475 1.746-.475 2.616a1 1 0 0 1-1 1c-.518 0-1.32.166-1.966.64C4.53 11.072 4 11.814 4 13.161c0 .926.25 1.549.57 1.979.328.44.776.74 1.255.93a1 1 0 1 1-.74 1.858c-.744-.296-1.524-.796-2.118-1.593-.601-.807-.967-1.86-.967-3.174 0-1.984.834-3.325 1.943-4.138a5.423 5.423 0 0 1 2.165-.928c.044-.802.197-1.817.735-2.73Z" clip-rule="evenodd"/></svg>