<svg xmlns="http://www.w3.org/2000/svg" width="24" height="24" fill="none"><path fill="currentColor" fill-rule="evenodd" d="M7.157 8.002a5 5 0 1 0 1.7 9.64A6.972 6.972 0 0 0 13 19.001a6.972 6.972 0 0 0 3.866-1.163 4.002 4.002 0 0 0 2.96-7.397A7.002 7.002 0 0 0 7.25 8.006a5.09 5.09 0 0 0-.094-.004Zm-.055 2a2.984 2.984 0 0 1 1.882.748 1 1 0 1 0 1.324-1.5 5.013 5.013 0 0 0-.96-.665 5.001 5.001 0 0 1 8.602 2.706 1 1 0 0 0 .677.809 2.001 2.001 0 1 1-1.483 3.708 1 1 0 0 0-1.048.119A4.975 4.975 0 0 1 13 17a4.978 4.978 0 0 1-3.337-1.277 1 1 0 0 0-1.167-.122 3 3 0 1 1-1.393-5.6Z" clip-rule="evenodd"/></svg>