<svg xmlns="http://www.w3.org/2000/svg" width="24" height="24" fill="none"><path fill="currentColor" fill-rule="evenodd" d="m3.39 12 3.32 3.313a.987.987 0 0 1 0 1.398.991.991 0 0 1-1.4 0l-4.02-4.012a.987.987 0 0 1 0-1.398l.005-.004L5.31 7.289a.991.991 0 0 1 1.4 0 .987.987 0 0 1 0 1.398L3.39 12Zm17.22 0-3.32 3.313a.987.987 0 0 0 0 1.398.991.991 0 0 0 1.4 0l4.02-4.012a.987.987 0 0 0-.005-1.402L18.69 7.289a.991.991 0 0 0-1.4 0 .987.987 0 0 0 0 1.398L20.61 12Z" clip-rule="evenodd"/><path fill="currentColor" d="M13.487 3.05a1 1 0 0 1 1.918.567L10.278 20.95a1 1 0 1 1-1.917-.567L13.487 3.05Z"/></svg>