<svg xmlns="http://www.w3.org/2000/svg" width="24" height="24" fill="none"><path fill="currentColor" fill-rule="evenodd" d="M12.912 9.627c-.799.399-.912.765-.912.873 0 .107.113.474.912.873.738.37 1.829.627 3.088.627 1.26 0 2.35-.257 3.088-.627.799-.399.912-.765.912-.873 0-.107-.113-.474-.912-.873C18.35 9.257 17.26 9 16 9s-2.35.257-3.088.627Zm-.895-1.79C13.088 7.303 14.497 7 16 7c1.502 0 2.912.302 3.983.838C20.993 8.343 22 9.227 22 10.5s-1.006 2.157-2.017 2.662c-1.071.536-2.48.838-3.983.838-1.502 0-2.912-.302-3.983-.838C11.007 12.657 10 11.773 10 10.5s1.006-2.157 2.017-2.662Z" clip-rule="evenodd"/><path fill="currentColor" fill-rule="evenodd" d="M11 13.5a1 1 0 0 1 1 1c0 .107.113.474.912.873.738.37 1.829.627 3.088.627 1.26 0 2.35-.257 3.088-.627.799-.399.912-.765.912-.873a1 1 0 1 1 2 0c0 1.273-1.006 2.157-2.017 2.662-1.071.536-2.48.838-3.983.838-1.502 0-2.912-.302-3.983-.838C11.007 16.657 10 15.773 10 14.5a1 1 0 0 1 1-1Zm-8-5a1 1 0 0 1 1 1c0 .108.113.474.912.873C5.65 10.743 6.74 11 8 11c1.022 0 1.94-.17 2.649-.436a1 1 0 0 1 .703 1.872C10.39 12.798 9.23 13 8 13c-1.502 0-2.912-.302-3.983-.838C3.007 11.657 2 10.773 2 9.5a1 1 0 0 1 1-1Z" clip-rule="evenodd"/><path fill="currentColor" fill-rule="evenodd" d="M3 12a1 1 0 0 1 1 1c0 .107.113.474.912.873.738.37 1.829.627 3.088.627 1.021 0 1.94-.17 2.649-.436a1 1 0 0 1 .703 1.872c-.963.362-2.122.564-3.352.564-1.502 0-2.912-.302-3.983-.838C3.007 15.157 2 14.273 2 13a1 1 0 0 1 1-1Z" clip-rule="evenodd"/><path fill="currentColor" fill-rule="evenodd" d="M3 4.5a1 1 0 0 1 1 1v11c0 .108.113.474.912.873C5.65 17.743 6.74 18 8 18c1.021 0 1.94-.17 2.648-.436a1 1 0 1 1 .704 1.872C10.389 19.797 9.23 20 8 20c-1.502 0-2.912-.302-3.983-.838C3.007 18.657 2 17.773 2 16.5v-11a1 1 0 0 1 1-1Zm10 0a1 1 0 0 1 1 1v3a1 1 0 1 1-2 0v-3a1 1 0 0 1 1-1Z" clip-rule="evenodd"/><path fill="currentColor" fill-rule="evenodd" d="M11 9.5a1 1 0 0 1 1 1v8c0 .108.113.474.912.873.738.37 1.829.627 3.088.627 1.26 0 2.35-.257 3.088-.627.799-.399.912-.765.912-.873v-8a1 1 0 1 1 2 0v8c0 1.273-1.006 2.157-2.017 2.662-1.071.536-2.48.838-3.983.838-1.502 0-2.912-.302-3.983-.838C11.007 20.657 10 19.773 10 18.5v-8a1 1 0 0 1 1-1ZM4.912 4.627C4.113 5.026 4 5.392 4 5.5c0 .108.113.474.912.873C5.65 6.743 6.74 7 8 7s2.35-.257 3.088-.627c.799-.399.912-.765.912-.873 0-.108-.113-.474-.912-.873C10.35 4.257 9.26 4 8 4s-2.35.257-3.088.627Zm-.895-1.79C5.088 2.303 6.497 2 8 2c1.502 0 2.912.302 3.983.838C12.993 3.343 14 4.227 14 5.5s-1.006 2.157-2.017 2.662C10.912 8.698 9.503 9 8 9c-1.502 0-2.912-.302-3.983-.838C3.007 7.657 2 6.773 2 5.5s1.006-2.157 2.017-2.662Z" clip-rule="evenodd"/></svg>