<svg xmlns="http://www.w3.org/2000/svg" width="24" height="24" fill="none"><path fill="currentColor" d="M4 12a8 8 0 0 1 13.292-6H17a1 1 0 1 0 0 2h2.5a1 1 0 0 0 1-1V4.5a1 1 0 0 0-1.995-.096A9.963 9.963 0 0 0 12 2C6.477 2 2 6.477 2 12a1 1 0 1 0 2 0Zm18 0a1 1 0 1 0-2 0 8 8 0 0 1-13.292 6H7a1 1 0 1 0 0-2H4.5a1 1 0 0 0-1 1v2.5a1 1 0 0 0 1.995.096A9.963 9.963 0 0 0 12 22c5.523 0 10-4.477 10-10Z"/><path fill="currentColor" fill-rule="evenodd" d="M12 7a5 5 0 1 0 0 10 5 5 0 0 0 0-10Zm-3 5a3 3 0 1 1 6 0 3 3 0 0 1-6 0Z" clip-rule="evenodd"/></svg>