<svg xmlns="http://www.w3.org/2000/svg" width="24" height="24" fill="none"><path fill="currentColor" fill-rule="evenodd" d="M12 22c5.523 0 10-4.477 10-10S17.523 2 12 2 2 6.477 2 12s4.477 10 10 10Zm7.454-7.09A7.98 7.98 0 0 0 20 12a7.98 7.98 0 0 0-.581-3H16.04l3.413 5.91ZM10.268 9l-1.732 3 1.732 3h3.464l1.732-3-1.732-3h-3.464ZM7.38 10 5.694 7.077a7.994 7.994 0 0 1 5.1-2.987L7.38 10Zm5.73-5.924A7.991 7.991 0 0 1 18.245 7h-6.822l1.688-2.924ZM4 12a7.98 7.98 0 0 1 .546-2.91L7.959 15H4.582A7.977 7.977 0 0 1 4 12Zm8.577 5H5.755a7.991 7.991 0 0 0 5.135 2.924L12.576 17Zm5.73-.077a7.994 7.994 0 0 1-5.1 2.987L16.619 14l1.687 2.923Z" clip-rule="evenodd"/></svg>