<svg xmlns="http://www.w3.org/2000/svg" width="24" height="24" fill="none"><path fill="currentColor" fill-rule="evenodd" d="M7 4a1 1 0 0 0-1 1v14a1 1 0 0 0 1 1h10a1 1 0 0 0 1-1V7.828a1 1 0 0 0-.293-.707L14.88 4.293A1 1 0 0 0 14.172 4H7ZM4 5a3 3 0 0 1 3-3h7.172a3 3 0 0 1 2.12.879l2.83 2.828A3 3 0 0 1 20 7.828V19a3 3 0 0 1-3 3H7a3 3 0 0 1-3-3V5Z" clip-rule="evenodd"/><path fill="currentColor" d="M13 2v4a3 3 0 0 0 3 3h4l-2-2h-2a1 1 0 0 1-1-1V4l-2-2ZM8 17a1 1 0 0 1 1-1h6a1 1 0 1 1 0 2H9a1 1 0 0 1-1-1Zm0-3a1 1 0 0 1 1-1h6a1 1 0 1 1 0 2H9a1 1 0 0 1-1-1Zm0-3a1 1 0 0 1 1-1h6a1 1 0 1 1 0 2H9a1 1 0 0 1-1-1Zm0-3a1 1 0 0 1 1-1h2a1 1 0 1 1 0 2H9a1 1 0 0 1-1-1Z"/></svg>