<svg xmlns="http://www.w3.org/2000/svg" width="24" height="24" fill="none"><path fill="currentColor" d="M11 6a1 1 0 1 1 2 0v1c1.056 0 1.984.545 2.519 1.37a1 1 0 1 1-1.642 1.142.036.036 0 0 1-.01-.012A1 1 0 0 0 13 9h-2a1 1 0 1 0 0 2h2a3 3 0 1 1 0 6v1a1 1 0 1 1-2 0v-1c-1.064 0-2-.554-2.532-1.39a1 1 0 1 1 1.666-1.11A1 1 0 0 0 11 15h2a1 1 0 1 0 0-2h-2a3 3 0 1 1 0-6V6Z"/><path fill="currentColor" fill-rule="evenodd" d="M12 2C6.477 2 2 6.477 2 12s4.477 10 10 10 10-4.477 10-10S17.523 2 12 2ZM4 12a8 8 0 1 1 16 0 8 8 0 0 1-16 0Z" clip-rule="evenodd"/></svg>