<svg xmlns="http://www.w3.org/2000/svg" width="24" height="24" fill="none"><path fill="currentColor" d="M12.77 6.028a1.03 1.03 0 0 1 .949.261.925.925 0 0 1 .148 1.143l1.256 1.61V4.866l-3.622-.464 1.269 1.627Z"/><path fill="currentColor" fill-rule="evenodd" d="M12.77 6.028 11.5 4.4l3.623.464v4.178l-1.257-1.61a.956.956 0 0 1-.147.186c-.303.299-.593.592-.878.88-.446.452-.88.89-1.332 1.32l-2.228-2.2a.927.927 0 0 1 0-1.33 1.022 1.022 0 0 1 1.424 0l.092.092a1 1 0 0 0 1.405 0l.093-.092a.999.999 0 0 1 .475-.261Zm2.353 3.015c.56-.552.877-1.303.877-2.089 0-.785-.317-1.536-.877-2.089a3.024 3.024 0 0 0-3.623-.464 3.024 3.024 0 0 0-3.624.465 2.927 2.927 0 0 0 0 4.177l2.554 2.52a1.53 1.53 0 0 0 2.093.045l.005-.004c.61-.56 1.207-1.164 1.782-1.746.277-.28.548-.553.813-.815ZM17 10.364C17 8.97 18.211 8 19.5 8s2.5.97 2.5 2.364v4.774c0 .442-.194.844-.503 1.125l-3.824 3.477a1 1 0 0 1-1.346-1.48L20 14.921v-4.557c0-.114-.132-.364-.5-.364s-.5.25-.5.364v4.09a1 1 0 1 1-2 0v-4.09Z" clip-rule="evenodd"/><path fill="currentColor" fill-rule="evenodd" d="m17.789 13.267.393.182a1.382 1.382 0 0 1 .372 2.28l-.763.707a1 1 0 0 1-1.41-1.415.823.823 0 0 0-.385.195l-.795.738a.591.591 0 0 0-.201.432V19a1 1 0 1 1-2 0v-2.614c0-.728.313-1.409.84-1.899l.796-.738c.848-.785 2.111-.965 3.153-.482ZM4.5 10c-.368 0-.5.25-.5.364v4.557l3.673 3.34a1 1 0 1 1-1.346 1.479l-3.824-3.477A1.522 1.522 0 0 1 2 15.138v-4.774C2 8.97 3.211 8 4.5 8S7 8.97 7 10.364v4.09a1 1 0 1 1-2 0v-4.09C5 10.25 4.868 10 4.5 10Z" clip-rule="evenodd"/><path fill="currentColor" fill-rule="evenodd" d="M7.62 15.02a1 1 0 0 1-1.411 1.416l-.763-.707A1.386 1.386 0 0 1 5 14.714c0-.572.347-1.046.817-1.265l.394-.182c1.042-.483 2.305-.303 3.153.482l.795.738c.528.49.841 1.171.841 1.899V19a1 1 0 1 1-2 0v-2.614a.59.59 0 0 0-.2-.432m0 0-.796-.738a.823.823 0 0 0-.384-.195" clip-rule="evenodd"/></svg>