<svg xmlns="http://www.w3.org/2000/svg" width="24" height="24" fill="none"><path fill="currentColor" d="M8 10a3 3 0 0 1 3-3h2c1.056 0 1.984.545 2.519 1.37a1 1 0 1 1-1.642 1.142.036.036 0 0 1-.01-.012A1 1 0 0 0 13 9h-2a1 1 0 0 0-1 1v1h2a1 1 0 1 1 0 2h-2v1a1 1 0 0 0 1 1h2a1 1 0 0 0 .859-.486 1 1 0 1 1 1.683 1.08A2.998 2.998 0 0 1 13 17h-2a3 3 0 0 1-3-3v-1a1 1 0 1 1 0-2v-1Z"/><path fill="currentColor" fill-rule="evenodd" d="M2 12C2 6.477 6.477 2 12 2s10 4.477 10 10-4.477 10-10 10S2 17.523 2 12Zm10-8a8 8 0 1 0 0 16 8 8 0 0 0 0-16Z" clip-rule="evenodd"/></svg>