<svg xmlns="http://www.w3.org/2000/svg" width="24" height="24" fill="none"><path fill="currentColor" fill-rule="evenodd" d="M4.395 12.383A11.467 11.467 0 0 1 4.15 12a12.678 12.678 0 0 1 1.807-2.293C7.348 8.317 9.36 7 12 7s4.652 1.316 6.043 2.707A12.677 12.677 0 0 1 19.85 12a12.677 12.677 0 0 1-1.807 2.293C16.652 15.683 14.64 17 12 17s-4.652-1.316-6.043-2.707a12.679 12.679 0 0 1-1.562-1.91ZM21 12l.894-.448L21 12Zm.894.448c.14-.282.14-.614 0-.896l-.002-.003-.003-.006-.01-.019a2.938 2.938 0 0 0-.032-.062 12.651 12.651 0 0 0-.578-.954 14.675 14.675 0 0 0-1.812-2.215C17.848 6.683 15.36 5 12 5S6.152 6.684 4.543 8.293a14.675 14.675 0 0 0-1.813 2.215 12.72 12.72 0 0 0-.577.954 6.44 6.44 0 0 0-.033.062l-.01.019-.002.006-.002.002v.001c-.14.282-.141.614 0 .895v.002l.002.002.003.006.01.019a6.44 6.44 0 0 0 .151.278c.104.182.257.436.458.738a14.672 14.672 0 0 0 1.813 2.215C6.152 17.317 8.64 19 12 19s5.848-1.684 7.457-3.293a14.672 14.672 0 0 0 1.813-2.215 12.651 12.651 0 0 0 .61-1.016l.01-.019.002-.006.002-.003Zm0 0L21 12l.894.448ZM3 12l-.894-.448L3 12Zm-.001 0-.893.447.893-.446ZM16 12a4 4 0 1 1-8 0 4 4 0 0 1 8 0Zm-2 0a2 2 0 1 1-4 0 2 2 0 0 1 4 0Z" clip-rule="evenodd"/></svg>