<svg xmlns="http://www.w3.org/2000/svg" width="24" height="24" fill="none"><path fill="currentColor" fill-rule="evenodd" d="M3.707 2.293a1 1 0 0 0-1.414 1.414l3.491 3.491a13.852 13.852 0 0 0-2.561 2.616c-.365.484-.64.91-.825 1.217a10.265 10.265 0 0 0-.269.475l-.016.031-.005.01-.001.003-.001.002c-.14.282-.14.614 0 .896l.002.003.003.006.01.019a5.008 5.008 0 0 0 .151.278c.104.182.257.436.458.738a14.677 14.677 0 0 0 1.813 2.215C6.152 17.317 8.64 19 12 19a9.725 9.725 0 0 0 4.49-1.096l3.803 3.803a1 1 0 0 0 1.414-1.414l-4.273-4.274a.999.999 0 0 0-.131-.13L3.707 2.293ZM2.106 12.448 3 12l-.894.448ZM3 12l-.894-.448L3 12Zm1.82-.982c.562-.745 1.362-1.638 2.392-2.391l1.342 1.341a4 4 0 0 0 5.478 5.478l.954.954c-.884.37-1.878.6-2.986.6-2.641 0-4.652-1.316-6.043-2.707A12.678 12.678 0 0 1 4.15 12c.155-.253.378-.595.67-.982Zm7.698 2.914-2.45-2.45a2 2 0 0 0 2.45 2.45Zm-.9-6.923c.126-.006.254-.009.384-.009 2.641 0 4.652 1.316 6.043 2.707A12.67 12.67 0 0 1 19.852 12l-.037.06c-.206.333-.518.796-.936 1.308a1 1 0 1 0 1.55 1.264 14.47 14.47 0 0 0 1.086-1.518 11.243 11.243 0 0 0 .351-.608l.02-.04.007-.012.002-.004.001-.002c.141-.282.14-.614 0-.896l-.001-.003-.003-.006-.01-.019a12.651 12.651 0 0 0-.61-1.016 14.675 14.675 0 0 0-1.813-2.215C17.85 6.683 15.361 5 12.002 5a9.6 9.6 0 0 0-.482.012 1 1 0 1 0 .098 1.997ZM21.002 12l.894.447-.894-.447Zm.894-.448-.894.448.894-.448Z" clip-rule="evenodd"/></svg>