<svg xmlns="http://www.w3.org/2000/svg" width="24" height="24" fill="none"><path fill="currentColor" d="M15 13a1 1 0 1 0 0 2 1 1 0 0 0 0-2Zm-7 1a1 1 0 1 1 2 0 1 1 0 0 1-2 0Zm5.932 4.402a1 1 0 1 0-.864-1.804c-.528.254-.828.323-1.069.324-.24 0-.54-.07-1.066-.323a1 1 0 0 0-.866 1.802c.643.31 1.258.52 1.933.52.674 0 1.29-.21 1.932-.52Z"/><path fill="currentColor" fill-rule="evenodd" d="M13.012 1h-.024c-.76 0-1.999 0-3.255.28-1.178.264-2.477.796-3.428 1.905-2.456.858-4.844 4.24-3.796 8.933-.554.774-.611 1.806-.376 2.615.258.89.936 1.759 2.02 2.028C5.741 20.608 8.458 23 11.991 23h.016c3.533 0 6.25-2.392 7.84-6.239 1.083-.27 1.76-1.138 2.02-2.028.235-.812.177-1.848-.382-2.623.404-1.897.516-4.46-.456-6.676-.545-1.24-1.43-2.368-2.775-3.177C16.918 1.452 15.19 1 13.012 1ZM5.05 11.151a3.159 3.159 0 0 0-.699-.037C3.766 7.429 5.867 5.343 7.137 5.02a1 1 0 0 0 .556-.372c.566-.759 1.45-1.187 2.476-1.417C11.195 3.003 12.24 3 13.012 3c1.903 0 3.254.394 4.212.97.951.573 1.577 1.363 1.974 2.268.66 1.504.688 3.328.44 4.875a3.04 3.04 0 0 0-.452.008l-.691-1.367a1 1 0 0 0-1.119-.523c-1.01.234-2.704.427-4.413.225-1.722-.204-3.3-.788-4.29-1.95A1 1 0 1 0 7.15 8.802c1.457 1.709 3.62 2.407 5.578 2.639a15.9 15.9 0 0 0 4.323-.11l.696 1.376a1 1 0 0 0 1.21.497c.554-.186.764-.057.822-.012.143.11.312.485.168.982-.125.43-.405.671-.815.671a1 1 0 0 0-.937.652C16.806 19.237 14.559 21 12.008 21h-.016c-2.55 0-4.798-1.763-6.187-5.502a1 1 0 0 0-.937-.652c-.41 0-.69-.24-.815-.67-.144-.498.025-.873.168-.983.058-.045.268-.174.822.012a1 1 0 0 0 1.027-.243l1.02-1.026a1 1 0 0 0-1.418-1.41l-.622.625Z" clip-rule="evenodd"/></svg>