<svg xmlns="http://www.w3.org/2000/svg" width="24" height="24" fill="none"><path fill="currentColor" fill-rule="evenodd" d="M13 4h2a2 2 0 1 1 0 4h-2V4Zm2-2a4 4 0 0 1 0 8h-4V2h4Z" clip-rule="evenodd"/><path fill="currentColor" fill-rule="evenodd" d="M11 4H9a2 2 0 1 0 0 4h2V4ZM9 2a4 4 0 1 0 0 8h4V2H9Z" clip-rule="evenodd"/><path fill="currentColor" fill-rule="evenodd" d="M11 10H9a2 2 0 1 0 0 4h2v-4ZM9 8a4 4 0 1 0 0 8h4V8H9Z" clip-rule="evenodd"/><path fill="currentColor" fill-rule="evenodd" d="M13 12a2 2 0 1 0 4 0 2 2 0 0 0-4 0Zm2-4a4 4 0 1 0 0 8 4 4 0 0 0 0-8Z" clip-rule="evenodd"/><path fill="currentColor" fill-rule="evenodd" d="M11 16H9a2 2 0 1 0 2 2v-2Zm-2-2a4 4 0 1 0 4 4v-4H9Z" clip-rule="evenodd"/></svg>