<svg xmlns="http://www.w3.org/2000/svg" width="24" height="24" fill="none"><path fill="currentColor" fill-rule="evenodd" d="M12 2.764A3 3 0 0 0 7.17 6H5a3 3 0 0 0-1.615 5.529A2.987 2.987 0 0 0 3 13v6a3 3 0 0 0 3 3h12a3 3 0 0 0 3-3v-6c0-.535-.14-1.037-.385-1.471A3 3 0 0 0 19 6h-2.17A3 3 0 0 0 12 2.764ZM10 4a1 1 0 1 0 0 2 1 1 0 0 0 0-2Zm3 1a1 1 0 1 1 2 0 1 1 0 0 1-2 0Zm0 3v2h6a1 1 0 1 0 0-2h-6ZM5 8h6v2H5a1 1 0 1 1 0-2Zm6 4H6a1 1 0 0 0-1 1v6a1 1 0 0 0 1 1h5v-8Zm2 8v-8h5a1 1 0 0 1 1 1v6a1 1 0 0 1-1 1h-5Z" clip-rule="evenodd"/></svg>