<svg xmlns="http://www.w3.org/2000/svg" width="24" height="24" fill="none"><path fill="currentColor" fill-rule="evenodd" d="M15 4a1 1 0 0 1 1 1v5c.701 0 1.374.12 2 .341V5a3 3 0 0 0-3-3H8.828a3 3 0 0 0-2.12.879l-3.83 3.828A3 3 0 0 0 2 8.828V19a3 3 0 0 0 3 3h10c.14 0 .278-.01.414-.028A5.986 5.986 0 0 1 11.528 20H5a1 1 0 0 1-1-1v-9h3a3 3 0 0 0 3-3V4h5ZM4.414 8 8 4.414V7a1 1 0 0 1-1 1H4.414Z" clip-rule="evenodd"/><path fill="currentColor" fill-rule="evenodd" d="M16 12a4 4 0 1 0 0 8 4 4 0 0 0 0-8Zm-6 4a6 6 0 1 1 12 0 6 6 0 0 1-12 0Z" clip-rule="evenodd"/><path fill="currentColor" fill-rule="evenodd" d="M16 13.5a1 1 0 0 1 1 1v.965l1.055.703a1 1 0 0 1-1.11 1.664l-1.5-1A1 1 0 0 1 15 16v-1.5a1 1 0 0 1 1-1Z" clip-rule="evenodd"/></svg>