<svg xmlns="http://www.w3.org/2000/svg" width="24" height="24" fill="none"><path fill="currentColor" d="M7.5 12a1 1 0 0 1 1-1h3.232c.802-.47 1.18-.768 1.298-1.243.175-.699-.01-1.108-.22-1.348C12.56 8.122 12.207 8 12 8c-.73 0-1.386.335-1.71.752a1 1 0 1 1-1.58-1.227C9.46 6.562 10.73 6 12 6c.792 0 1.69.378 2.315 1.091.665.76.98 1.85.655 3.151-.07.28-.173.531-.3.758h.83a1 1 0 1 1 0 2h-3.232c-.802.47-1.18.768-1.298 1.242-.175.7.01 1.11.22 1.35.25.286.602.408.81.408.73 0 1.386-.335 1.71-.752a1 1 0 0 1 1.58 1.227C14.54 17.438 13.27 18 12 18c-.793 0-1.69-.378-2.315-1.091-.665-.76-.98-1.85-.655-3.151.07-.28.173-.531.3-.758H8.5a1 1 0 0 1-1-1Z"/><path fill="currentColor" fill-rule="evenodd" d="M2 12C2 6.477 6.477 2 12 2s10 4.477 10 10-4.477 10-10 10S2 17.523 2 12Zm10-8a8 8 0 1 0 0 16 8 8 0 0 0 0-16Z" clip-rule="evenodd"/></svg>