<svg xmlns="http://www.w3.org/2000/svg" width="24" height="24" fill="none"><path fill="currentColor" d="M6.267 8.495a1.6 1.6 0 0 1 0-2.262L10.37 2.13a1.6 1.6 0 0 1 2.262 0 .4.4 0 0 1 0 .566L6.833 8.495a.4.4 0 0 1-.566 0Z"/><path fill="currentColor" fill-rule="evenodd" d="M2.293 21.136a1 1 0 0 1 0-1.414l7.456-7.456c-.465-.565-.88-1.16-1.162-1.586a1.958 1.958 0 0 1 .258-2.47l3.845-3.846a1.958 1.958 0 0 1 2.47-.258c.622.413 1.603 1.106 2.325 1.827.722.722 1.415 1.704 1.828 2.325.53.798.386 1.826-.258 2.47l-3.846 3.846a1.958 1.958 0 0 1-2.47.258 19.746 19.746 0 0 1-1.574-1.153l-7.458 7.457a1 1 0 0 1-1.414 0ZM14.089 5.795l-3.814 3.813c.4.598.99 1.42 1.553 1.982.563.563 1.384 1.154 1.983 1.553l3.813-3.813c-.4-.598-.99-1.42-1.553-1.982-.563-.563-1.384-1.154-1.983-1.553Z" clip-rule="evenodd"/><path fill="currentColor" d="M17.41 16.852a1.6 1.6 0 0 1-2.263 0 .4.4 0 0 1 0-.565l5.798-5.799a.4.4 0 0 1 .566 0 1.6 1.6 0 0 1 0 2.263l-4.101 4.101Zm-4.632 3.132a1 1 0 1 0 0 2h8a1 1 0 1 0 0-2h-8Z"/></svg>