<svg xmlns="http://www.w3.org/2000/svg" width="24" height="24" fill="none"><path fill="currentColor" fill-rule="evenodd" d="M14 6a3 3 0 1 0 0 6 3 3 0 0 0 0-6Zm-1 3a1 1 0 1 1 2 0 1 1 0 0 1-2 0Z" clip-rule="evenodd"/><path fill="currentColor" fill-rule="evenodd" d="M2 5a3 3 0 0 1 3-3h14a3 3 0 0 1 3 3v14a3 3 0 0 1-3 3H5a3 3 0 0 1-3-3V5Zm3-1a1 1 0 0 0-1 1v10.238l3.232-3.878a1 1 0 0 1 1.393-.14l4.429 3.542 2.391-1.594a1 1 0 0 1 1.262.125L20 16.586V5a1 1 0 0 0-1-1H5ZM4 19v-.638l4.14-4.969 4.235 3.388a1 1 0 0 0 1.18.051l2.318-1.545 4.064 4.064A1 1 0 0 1 19 20H5a1 1 0 0 1-1-1Z" clip-rule="evenodd"/></svg>