<svg xmlns="http://www.w3.org/2000/svg" width="24" height="24" fill="none"><path fill="currentColor" d="M12 3.802c2.67 0 2.986.01 4.04.058.976.044 1.506.207 1.858.344.467.182.8.398 1.15.748.35.35.567.683.748 1.15.137.352.3.882.344 1.857.048 1.054.058 1.37.058 4.04s-.01 2.987-.058 4.042c-.045.975-.207 1.504-.344 1.856-.182.467-.398.8-.748 1.15-.35.35-.683.567-1.15.748-.352.137-.882.3-1.857.345-1.055.048-1.37.058-4.041.058-2.67 0-2.986-.01-4.04-.058-.976-.045-1.505-.208-1.858-.345a3.1 3.1 0 0 1-1.15-.748 3.094 3.094 0 0 1-.748-1.15c-.137-.352-.3-.881-.344-1.856-.048-1.055-.058-1.371-.058-4.041 0-2.67.01-2.987.058-4.041.045-.975.207-1.505.344-1.857.182-.467.398-.8.748-1.15.35-.35.683-.567 1.15-.748.353-.137.882-.3 1.857-.344 1.055-.048 1.37-.058 4.041-.058ZM12 2c-2.716 0-3.057.012-4.123.06-1.065.049-1.791.218-2.427.465a4.904 4.904 0 0 0-1.772 1.154 4.9 4.9 0 0 0-1.153 1.77c-.247.637-.416 1.364-.465 2.428C2.012 8.944 2 9.284 2 12s.012 3.056.06 4.123c.049 1.065.218 1.791.465 2.427a4.903 4.903 0 0 0 1.154 1.771 4.905 4.905 0 0 0 1.77 1.154c.637.247 1.364.416 2.428.465 1.066.048 1.407.06 4.123.06s3.056-.012 4.123-.06c1.065-.049 1.791-.218 2.427-.465a4.903 4.903 0 0 0 1.771-1.154 4.905 4.905 0 0 0 1.154-1.77c.247-.637.416-1.364.465-2.428.048-1.067.06-1.407.06-4.123s-.012-3.057-.06-4.123c-.049-1.065-.218-1.791-.465-2.427a4.903 4.903 0 0 0-1.154-1.772 4.907 4.907 0 0 0-1.77-1.153c-.637-.247-1.364-.416-2.428-.465C15.056 2.012 14.716 2 12 2Zm0 4.865a5.135 5.135 0 1 0 0 10.27 5.135 5.135 0 0 0 0-10.27Zm0 8.468a3.333 3.333 0 1 1 0-6.666 3.333 3.333 0 0 1 0 6.667Zm5.338-9.87a1.2 1.2 0 1 0 0 2.399 1.2 1.2 0 0 0 0-2.4Z"/></svg>