<svg xmlns="http://www.w3.org/2000/svg" width="24" height="24" fill="none"><path fill="currentColor" fill-rule="evenodd" d="M12 17.004a4.97 4.97 0 0 0-.83-2.759l.83-.83L17.587 19A1 1 0 0 0 19 17.586l-6.276-6.276a.797.797 0 0 0-.032-.032L6.414 5A1 1 0 1 0 5 6.414l5.587 5.587-.83.83A5 5 0 1 0 12 17.004Zm-2 0a3 3 0 1 0-6 0 3 3 0 0 0 6 0Zm4.123-8.538a1 1 0 0 0 1.378 1.45l2.124 2.124a1 1 0 0 0 1.414-1.415l-2.123-2.123 1.26-1.259 2.121 2.122a1 1 0 1 0 1.414-1.414L19.59 5.829l1.122-1.122a1 1 0 0 0-1.414-1.414l-5.174 5.173Z" clip-rule="evenodd"/></svg>