<svg xmlns="http://www.w3.org/2000/svg" width="24" height="24" fill="none"><path fill="currentColor" fill-rule="evenodd" d="M11.75 2.531c.695 0 1.263.549 1.263 1.22v4.531c0 .671-.568 1.22-1.262 1.22-.695 0-1.263-.549-1.263-1.22V3.75c0-.67.568-1.219 1.263-1.219ZM2.218 9.22c.214-.638.93-.99 1.59-.783l4.464 1.4c.66.208 1.025.899.81 1.537-.214.637-.93.99-1.59.782l-4.464-1.4c-.66-.207-1.025-.899-.81-1.536Zm3.641 10.821a1.196 1.196 0 0 1-.28-1.702l2.759-3.667a1.295 1.295 0 0 1 1.763-.27c.562.395.688 1.16.28 1.703l-2.759 3.667a1.295 1.295 0 0 1-1.763.27Zm11.783 0a1.296 1.296 0 0 1-1.763-.27l-2.758-3.666a1.196 1.196 0 0 1 .279-1.703 1.296 1.296 0 0 1 1.763.27l2.759 3.666a1.196 1.196 0 0 1-.28 1.703ZM21.283 9.22c.215.637-.15 1.329-.81 1.536l-4.463 1.4c-.66.207-1.376-.145-1.591-.783-.215-.637.15-1.329.81-1.536l4.464-1.4c.66-.207 1.376.145 1.59.783Z" clip-rule="evenodd"/></svg>