<svg xmlns="http://www.w3.org/2000/svg" width="24" height="24" fill="none"><path fill="currentColor" d="M13.333 5.227a1 1 0 0 0-.667 1.886c.568.2 1.02.652 1.22 1.22a1 1 0 0 0 1.886-.667 4.008 4.008 0 0 0-2.439-2.439Z"/><path fill="currentColor" fill-rule="evenodd" d="M5 9a7 7 0 0 1 14 0 7.082 7.082 0 0 1-1.778 4.662l-.018.02-.018.018c-.376.383-.63.643-.815.853-.184.207-.255.317-.29.387-.06.124-.081.235-.081 1.06v1a2 2 0 0 1-2 2h-4a2 2 0 0 1-2-2v-1c0-.825-.021-.936-.082-1.06-.034-.07-.105-.18-.289-.387-.185-.21-.44-.47-.815-.853l-.02-.02-.019-.021C5.706 12.437 5 10.775 5 9Zm7-5a5 5 0 0 0-5 5c0 1.24.495 2.434 1.262 3.32.352.359.642.655.866.909.231.26.436.526.586.83.288.589.287 1.188.286 1.818V17h4v-1.123c-.001-.63-.002-1.229.286-1.818.15-.304.355-.57.586-.83.224-.254.515-.551.867-.91A5.082 5.082 0 0 0 17 9a5 5 0 0 0-5-5Z" clip-rule="evenodd"/><path fill="currentColor" d="M9 21a1 1 0 0 1 1-1h4a1 1 0 1 1 0 2h-4a1 1 0 0 1-1-1Z"/></svg>