<svg xmlns="http://www.w3.org/2000/svg" width="24" height="24" fill="none"><path fill="currentColor" fill-rule="evenodd" d="M2 3a1 1 0 0 1 1-1h5a1 1 0 0 1 0 2H5.414l4.293 4.293a1 1 0 0 1-1.414 1.414L4 5.414V8a1 1 0 0 1-2 0V3Zm16.586 1H16a1 1 0 1 1 0-2h5a1 1 0 0 1 1 1v5a1 1 0 1 1-2 0V5.414l-4.293 4.293a1 1 0 0 1-1.414-1.414L18.586 4ZM9.707 14.293a1 1 0 0 1 0 1.414L5.414 20H8a1 1 0 1 1 0 2H3a1 1 0 0 1-1-1v-5a1 1 0 1 1 2 0v2.586l4.293-4.293a1 1 0 0 1 1.414 0Zm4.586 0a1 1 0 0 1 1.414 0L20 18.586V16a1 1 0 1 1 2 0v5a1 1 0 0 1-1 1h-5a1 1 0 1 1 0-2h2.586l-4.293-4.293a1 1 0 0 1 0-1.414Z" clip-rule="evenodd"/></svg>