<svg xmlns="http://www.w3.org/2000/svg" width="24" height="24" fill="none"><path fill="currentColor" fill-rule="evenodd" d="M2.293 2.293a1 1 0 0 1 1.414 0L8 6.586V4a1 1 0 0 1 2 0v5a1 1 0 0 1-1 1H4a1 1 0 0 1 0-2h2.586L2.293 3.707a1 1 0 0 1 0-1.414Zm18 0a1 1 0 1 1 1.414 1.414L17.414 8H20a1 1 0 1 1 0 2h-5a1 1 0 0 1-1-1V4a1 1 0 1 1 2 0v2.586l4.293-4.293ZM3 15a1 1 0 0 1 1-1h5a1 1 0 0 1 1 1v5a1 1 0 1 1-2 0v-2.586l-4.293 4.293a1 1 0 0 1-1.414-1.414L6.586 16H4a1 1 0 0 1-1-1Zm12-1h5a1 1 0 1 1 0 2h-2.586l4.293 4.293a1 1 0 0 1-1.414 1.414L16 17.414V20a1 1 0 1 1-2 0v-5a1 1 0 0 1 1-1Z" clip-rule="evenodd"/></svg>