<svg xmlns="http://www.w3.org/2000/svg" width="24" height="24" fill="none"><path fill="currentColor" fill-rule="evenodd" d="M12 9c-3.989 0-6 2.626-6 5.067V15.8c0 .312-.013.593-.037.85a6.62 6.62 0 0 0 .09-.044 1 1 0 1 1 .894 1.788c-.17.085-.328.16-.477.23-.384.182-.704.333-.995.551-.232.174-.371.34-.434.539.295.073.74.135 1.347.18C7.778 20 9.734 20 12 20s4.221 0 5.612-.105c.607-.046 1.052-.108 1.347-.181-.063-.199-.202-.365-.434-.539-.29-.218-.611-.37-.994-.55-.15-.07-.308-.145-.478-.23a1 1 0 1 1 .894-1.79c.028.014.058.03.09.044A9.251 9.251 0 0 1 18 15.8v-1.733C18 11.626 15.989 9 12 9Zm8.954 10.465c-.09-.629-.298-1.067-.473-1.438l-.073-.154c-.2-.434-.408-.941-.408-2.073v-1.733C20 10.44 17.011 7 12 7s-8 3.44-8 7.067V15.8c0 1.132-.208 1.639-.408 2.073l-.073.154c-.175.37-.383.809-.473 1.438a3.055 3.055 0 0 0-.045.576L3 20.133c0 .5.27.857.537 1.07.247.195.537.311.788.388.51.156 1.18.243 1.912.298C7.712 22 9.742 22 11.96 22h.08c2.218 0 4.248 0 5.723-.111.732-.055 1.403-.142 1.912-.298.25-.077.541-.193.787-.388.268-.213.538-.57.538-1.07A5.636 5.636 0 0 0 21 20c0-.189-.016-.367-.046-.535Z" clip-rule="evenodd"/><path fill="currentColor" fill-rule="evenodd" d="M9.352 4.225 10.535 6h2.93l1.183-1.775a2.563 2.563 0 0 0-.14-.075C14.293 4.043 14.12 4 14 4c-.324 0-.452.047-.64.115l-.018.007c-.303.11-.677.242-1.342.242s-1.04-.133-1.342-.242l-.018-.007C10.452 4.047 10.324 4 10 4c-.12 0-.292.043-.509.15a2.544 2.544 0 0 0-.14.075Zm6.335 2.048.918-1.377c.387-.581.347-1.44-.291-1.948C15.926 2.64 15.029 2 14 2a3.5 3.5 0 0 0-1.342.242l-.018.007c-.188.068-.316.115-.64.115s-.452-.047-.64-.115l-.018-.007A3.502 3.502 0 0 0 10 2c-1.03 0-1.926.64-2.313.948-.64.508-.68 1.366-.292 1.948l.918 1.377A1 1 0 0 0 9 8h1.229c-1.473 2.05-2.052 4.529-2.225 6.408a1 1 0 1 0 1.992.184c.162-1.76.713-3.936 1.996-5.612.41.541.72.983 1.004 1.515.345.647.668 1.463 1.042 2.779a1 1 0 1 0 1.924-.548c-.397-1.394-.767-2.356-1.2-3.171A11.998 11.998 0 0 0 13.756 8H15a1 1 0 0 0 .687-1.727Z" clip-rule="evenodd"/></svg>