<svg xmlns="http://www.w3.org/2000/svg" width="24" height="24" fill="none"><path fill="#ED1C24" fill-rule="evenodd" d="M18.628 7.513c.067-.02.154.022.242.138l3.957 3.909c.23.233.23.587 0 .76l-3.957 3.969c-.088.116-.175.145-.242.11-.066-.036-.108-.139-.108-.287V7.768c0-.145.042-.233.108-.255ZM11.86 1h.28l.27.113L16.482 5.2c.175.233.116.41-.175.41h-1.688a.521.521 0 0 0-.522.526v3.032c0 .294-.234.527-.584.527h-2.966a.524.524 0 0 1-.525-.527V6.135a.522.522 0 0 0-.526-.526H7.693c-.29 0-.35-.177-.175-.41l4.076-4.086L11.86 1ZM5.48 7.425c.074.035.12.138.12.286v8.518c0 .148-.046.236-.12.265-.07.028-.171 0-.29-.089L1.173 12.32c-.23-.173-.23-.527 0-.76L5.19 7.535c.119-.117.22-.145.29-.11Zm5.067 6.705h2.966c.35 0 .584.233.584.526v3.209c0 .35.232.583.522.583h1.572c.29 0 .407.173.175.35l-3.956 4.025A.583.583 0 0 1 12 23a.575.575 0 0 1-.406-.177l-3.957-4.025c-.234-.177-.119-.35.172-.35h1.687c.295 0 .526-.233.526-.583v-3.21c0-.292.234-.526.525-.526Z" clip-rule="evenodd"/></svg>