<svg xmlns="http://www.w3.org/2000/svg" width="24" height="24" fill="none"><path fill="currentColor" fill-rule="evenodd" d="M6 5a3 3 0 0 1 3-3h6a3 3 0 0 1 3 3v2a3 3 0 0 1-3 3h-2v2h2.5a2.5 2.5 0 0 1 2.322 1.57A.996.996 0 0 0 18 13v-3a1 1 0 0 1 1-1h1a1 1 0 0 1 1 1v1a1 1 0 0 1-1 1v1a3 3 0 0 1-2.465 2.952A2.497 2.497 0 0 1 15.5 17H13v2h.333a1 1 0 0 1 .284.04c.349.022.643.054.9.102.898.168 1.397.543 2.031 1.019l.052.039a1 1 0 0 1-1.2 1.6c-.674-.505-.839-.615-1.251-.692-.27-.05-.62-.078-1.15-.092a1 1 0 0 1-1.999 0c-.53.014-.879.041-1.149.092-.412.077-.577.187-1.251.692a1 1 0 1 1-1.2-1.6l.052-.039c.634-.476 1.133-.85 2.03-1.019a7.31 7.31 0 0 1 .9-.101 1 1 0 0 1 .285-.041H11v-2H8.5c-.84 0-1.582-.413-2.035-1.048A3 3 0 0 1 4 13v-1a1 1 0 0 1-1-1v-1a1 1 0 0 1 1-1h1a1 1 0 0 1 1 1v3a.99.99 0 0 0 .179.57A2.5 2.5 0 0 1 8.5 12H11v-2H9a3 3 0 0 1-3-3V5Zm2.5 9a.5.5 0 0 0 0 1h7a.5.5 0 0 0 0-1h-7ZM9 4a1 1 0 0 0-1 1v2a1 1 0 0 0 1 1h6a1 1 0 0 0 1-1V5a1 1 0 0 0-1-1H9Z" clip-rule="evenodd"/></svg>