<svg xmlns="http://www.w3.org/2000/svg" width="24" height="24" fill="none"><path fill="currentColor" fill-rule="evenodd" d="M8 4a4 4 0 0 0-.25 7.992l-.043-.042a3 3 0 0 1 4.243-4.243l.042.043A4 4 0 0 0 8 4Zm0 10a6.01 6.01 0 0 0 1.554-.203l2.628 2.628A.995.995 0 0 0 12 17v4a1 1 0 0 0 1 1h8a1 1 0 0 0 1-1v-4a1 1 0 0 0-.718-.96c.03-.166.051-.335.065-.507l.465-6.047a4 4 0 0 0-2.84-4.138L14.617 4.04a3.98 3.98 0 0 0-2.146-.044A6 6 0 1 0 8 14Zm5.936-6.88a5.964 5.964 0 0 0-.323-1.244c.142.011.285.037.428.08l4.357 1.307a2 2 0 0 1 1.42 2.07l-.466 6.046a3.027 3.027 0 0 1-.113.62H18V16h-3.414L9.12 10.536a1 1 0 1 1 1.415-1.415l3.585 3.586a1 1 0 0 0 1.415-1.414l-1.74-1.739A5.964 5.964 0 0 0 14 8c0-.3-.022-.593-.064-.88ZM14 20v-2h6v2h-6Z" clip-rule="evenodd"/></svg>