<svg xmlns="http://www.w3.org/2000/svg" width="24" height="24" fill="none"><path fill="currentColor" fill-rule="evenodd" d="M5 4c-.586 0-.943.455-.895.885a17 17 0 0 0 10.39 13.821l-.383.924.382-.924a17.001 17.001 0 0 0 4.621 1.19c.43.047.885-.31.885-.896v-2.48c0-.518-.447-1.063-1.163-1.188-.9-.158-1.78-.414-2.628-.765-.282-.117-.524.005-.606.147l-.032.055c-.651 1.129-2.17 1.604-3.337.775a16.004 16.004 0 0 1-3.778-3.778c-.83-1.168-.354-2.686.775-3.337l.055-.032c.142-.082.264-.324.147-.606a12.52 12.52 0 0 1-.765-2.628C8.543 4.446 7.998 4 7.48 4H5ZM2.117 5.107C1.92 3.342 3.377 2 5 2h2.48c1.691 0 2.902 1.358 3.158 2.817.133.756.348 1.497.643 2.209.445 1.076.136 2.45-.995 3.103l-.055.032a.38.38 0 0 0-.182.232.247.247 0 0 0 .037.214 14.002 14.002 0 0 0 3.307 3.307.248.248 0 0 0 .214.037.38.38 0 0 0 .232-.182l.032-.055c.653-1.13 2.027-1.44 3.103-.995.712.295 1.453.51 2.209.643 1.46.256 2.817 1.467 2.817 3.158V19c0 1.623-1.342 3.08-3.107 2.883A18.999 18.999 0 0 1 2.117 5.107Z" clip-rule="evenodd"/></svg>