<svg xmlns="http://www.w3.org/2000/svg" width="24" height="24" fill="none"><path fill="currentColor" d="M14.5 5a.5.5 0 0 0-.5.5v1a.5.5 0 0 0 .5.5h1a.5.5 0 0 0 .5-.5v-1a.5.5 0 0 0-.5-.5h-1ZM14 8.5a.5.5 0 0 1 .5-.5h1a.5.5 0 0 1 .5.5v1a.5.5 0 0 1-.5.5h-1a.5.5 0 0 1-.5-.5v-1Zm3 0a.5.5 0 0 1 .5-.5h1a.5.5 0 0 1 .5.5v1a.5.5 0 0 1-.5.5h-1a.5.5 0 0 1-.5-.5v-1Z"/><path fill="currentColor" fill-rule="evenodd" d="M12 2C6.477 2 2 6.477 2 12a9.971 9.971 0 0 0 2.902 7.044A9.972 9.972 0 0 0 12 22a9.972 9.972 0 0 0 7.099-2.956A9.972 9.972 0 0 0 22 12c0-5.523-4.477-10-10-10ZM4 12a8.001 8.001 0 0 1 7-7.938v7.522L5.661 16.88A7.962 7.962 0 0 1 4 12Zm9-1V4.062a7.962 7.962 0 0 1 4 1.693V6.5a.5.5 0 0 0 .5.5h.745a7.964 7.964 0 0 1 1.693 4H13Zm5.845 2h1.093a7.94 7.94 0 0 1-.17.92l-.923-.92Zm-2.831 0 2.949 2.943a8.02 8.02 0 0 1-.624.938L14.428 13h1.586ZM12 13.409l4.93 4.892a8.017 8.017 0 0 1-1.028.685l-4.74-4.745.838-.832Zm-2.258 2.24 4.126 4.132a8.008 8.008 0 0 1-1.464.209L8.9 16.485l.843-.836ZM7.48 17.894l1.528 1.528A7.989 7.989 0 0 1 7.07 18.3l.41-.407Z" clip-rule="evenodd"/></svg>