<svg xmlns="http://www.w3.org/2000/svg" width="24" height="24" fill="none"><path fill="currentColor" d="M10 11a1 1 0 1 1-2 0 1 1 0 0 1 2 0Z"/><path fill="currentColor" fill-rule="evenodd" d="M6.782 2.047a5.5 5.5 0 0 1 5.013 2.018A11.16 11.16 0 0 1 13 4c2.723 0 5.24.994 7.067 2.63.167-.116.294-.236.383-.355.167-.223.253-.503.101-.959a1 1 0 0 1 1.898-.632c.348 1.044.184 2.014-.399 2.791a3.49 3.49 0 0 1-.639.647A8.3 8.3 0 0 1 23 13c0 2.979-1.6 5.58-4 7.202V22a1 1 0 0 1-1 1h-3a1 1 0 0 1-1-1v-.044a11.238 11.238 0 0 1-2 0V22a1 1 0 0 1-1 1H8a1 1 0 0 1-1-1v-1.798C5.451 19.156 4.237 17.704 3.569 16H3a2 2 0 0 1-2-2v-2a2 2 0 0 1 2-2h.569a8.919 8.919 0 0 1 2.305-3.316l-1.49-2.581a1 1 0 0 1 .366-1.366 5.5 5.5 0 0 1 2.032-.69ZM10 21v-.198a1 1 0 0 1 1.198-.98A9.115 9.115 0 0 0 13 20c.62 0 1.224-.062 1.802-.178a1 1 0 0 1 1.198.98V21h1v-1.347a1 1 0 0 1 .489-.86C19.643 17.512 21 15.372 21 13c0-3.759-3.468-7-8-7a9.16 9.16 0 0 0-1.505.124 1 1 0 0 1-1.016-.462 3.499 3.499 0 0 0-3.79-1.567l1.338 2.317a1 1 0 0 1-.262 1.297c-1.231.934-2.118 2.178-2.52 3.57a1 1 0 0 1-.961.721H3v2h1.284a1 1 0 0 1 .96.722c.48 1.659 1.65 3.11 3.267 4.072a1 1 0 0 1 .489.859V21h1Z" clip-rule="evenodd"/></svg>