<svg xmlns="http://www.w3.org/2000/svg" width="24" height="24" fill="none"><path fill="currentColor" fill-rule="evenodd" d="M10.207 13.793a1 1 0 0 1 0 1.414l-6.5 6.5a1 1 0 0 1-1.414-1.414l6.5-6.5a1 1 0 0 1 1.414 0Z" clip-rule="evenodd"/><path fill="currentColor" fill-rule="evenodd" d="M15.116 1.672a1 1 0 0 1 .748.292l5.85 5.85a1 1 0 0 1-.06 1.47l-5.108 4.332.338 3.262a1 1 0 0 1-.287.81L14.9 19.385a1 1 0 0 1-1.415 0l-9.192-9.193a1 1 0 0 1 0-1.414L5.99 7.081a1 1 0 0 1 .81-.287l3.262.337 4.332-5.107a1 1 0 0 1 .722-.352Zm.101 2.474-3.971 4.681a1 1 0 0 1-.866.348l-3.312-.343-.654.653 7.779 7.778.653-.653-.343-3.313a1 1 0 0 1 .348-.865l4.68-3.971-4.314-4.315Z" clip-rule="evenodd"/></svg>