<svg xmlns="http://www.w3.org/2000/svg" width="24" height="24" fill="none"><path fill="currentColor" fill-rule="evenodd" d="M10.207 13.793a1 1 0 0 1 0 1.414l-6.5 6.5a1 1 0 0 1-1.414-1.414l6.5-6.5a1 1 0 0 1 1.414 0Z" clip-rule="evenodd"/><path fill="currentColor" fill-rule="evenodd" d="M15.116 1.672a1 1 0 0 1 .748.292l5.85 5.85a1 1 0 0 1-.06 1.47l-4.308 3.654a1 1 0 0 1-1.294-1.526l3.48-2.951-4.315-4.315-2.97 3.5a1 1 0 0 1-1.525-1.293l3.672-4.329a1 1 0 0 1 .722-.352ZM5.99 7.082a1 1 0 0 1 .81-.288l.979.1a1 1 0 1 1-.206 1.99l-.505-.052-.654.653 7.779 7.778.653-.653-.053-.507a1 1 0 0 1 1.99-.206l.101.98a1 1 0 0 1-.287.81L14.9 19.386a1 1 0 0 1-1.415 0l-9.192-9.193a1 1 0 0 1 0-1.414L5.99 7.081Z" clip-rule="evenodd"/><path fill="currentColor" fill-rule="evenodd" d="M2.293 2.293a1 1 0 0 1 1.414 0l18 18a1 1 0 0 1-1.414 1.414l-18-18a1 1 0 0 1 0-1.414Z" clip-rule="evenodd"/></svg>