<svg xmlns="http://www.w3.org/2000/svg" width="24" height="24" fill="none"><path fill="currentColor" fill-rule="evenodd" d="M4 12a8 8 0 1 1 16 0 8 8 0 0 1-16 0Zm8-10C6.477 2 2 6.477 2 12s4.477 10 10 10 10-4.477 10-10S17.523 2 12 2Zm-.447 11.895a1 1 0 0 1-.447-1.342c.326-.653.674-1 1.006-1.298l.101-.09c.236-.21.434-.385.676-.707a1 1 0 0 0-1.755-.958 1 1 0 0 1-1.732-1 3 3 0 1 1 5.196 3 1.021 1.021 0 0 1-.059.09c-.39.534-.742.845-1 1.073h-.001a14.42 14.42 0 0 0-.092.082c-.226.202-.378.355-.552.702a1 1 0 0 1-1.341.448ZM13 16a1 1 0 1 1-2 0 1 1 0 0 1 2 0Z" clip-rule="evenodd"/></svg>