<svg xmlns="http://www.w3.org/2000/svg" width="24" height="24" fill="none"><path fill="currentColor" d="M7 10a1 1 0 1 0 0 2h6a1 1 0 1 0 0-2H7ZM6 8a1 1 0 0 1 1-1h6a1 1 0 1 1 0 2H7a1 1 0 0 1-1-1Zm1 5a1 1 0 1 0 0 2h6a1 1 0 1 0 0-2H7Z"/><path fill="currentColor" fill-rule="evenodd" d="M2 5a3 3 0 0 1 3-3h14a3 3 0 0 1 3 3v6a1 1 0 0 1-1 1h-3v8.6a1 1 0 0 1-1.625.78L15 20.28l-1.875 1.5a1 1 0 0 1-1.25 0L10 20.28l-1.875 1.5a1 1 0 0 1-1.25 0L5 20.28l-1.375 1.1A1 1 0 0 1 2 20.6V5Zm16 0a1 1 0 1 1 2 0v5h-2V5ZM5 4h11.17c-.11.313-.17.65-.17 1v13.52l-.375-.3a1 1 0 0 0-1.25 0l-1.875 1.5-1.875-1.5a1 1 0 0 0-1.25 0L7.5 19.72l-1.875-1.5a1 1 0 0 0-1.25 0l-.375.3V5a1 1 0 0 1 1-1Z" clip-rule="evenodd"/></svg>