<svg xmlns="http://www.w3.org/2000/svg" width="24" height="24" fill="none"><path fill="currentColor" d="M12.707 3.707a1 1 0 0 0-1.414-1.414l-2 2a1 1 0 0 0 0 1.414l2 2a1 1 0 1 0 1.414-1.414L12.414 6H13a7 7 0 1 1-1.812 13.762 1 1 0 1 0-.517 1.931A9 9 0 1 0 13 4h-.586l.293-.293Z"/><path fill="currentColor" fill-rule="evenodd" d="M2 14.364a2 2 0 0 1 0-2.829L5.536 8a2 2 0 0 1 2.828 0l3.535 3.536a2 2 0 0 1 0 2.828l-3.535 3.535a2 2 0 0 1-2.828 0L2 14.364Zm4.95-4.95L3.414 12.95l3.536 3.535 3.535-3.535L6.95 9.414Z" clip-rule="evenodd"/></svg>