<svg xmlns="http://www.w3.org/2000/svg" width="24" height="24" fill="none"><path fill="currentColor" fill-rule="evenodd" d="M12 7a1 1 0 0 0-1 1v1c0 .057.005.112.014.166a3 3 0 0 0-.975.563 1.01 1.01 0 0 0-.137-.095l-.866-.5a1 1 0 0 0-1 1.732l.866.5c.049.028.1.052.15.071a3.016 3.016 0 0 0 0 1.126 1.2 1.2 0 0 0-.15.071l-.866.5a1 1 0 0 0 1 1.732l.866-.5a.953.953 0 0 0 .137-.095 3 3 0 0 0 .975.563A.915.915 0 0 0 11 15v1a1 1 0 1 0 2 0v-1c0-.056-.005-.112-.014-.166.361-.126.691-.318.974-.563.043.035.089.067.138.095l.866.5a1 1 0 0 0 1-1.732l-.866-.5a1.006 1.006 0 0 0-.15-.071 3.018 3.018 0 0 0 0-1.126.997.997 0 0 0 .15-.07l.866-.5a1 1 0 0 0-1-1.733l-.866.5a.963.963 0 0 0-.138.095 2.998 2.998 0 0 0-.974-.563A.915.915 0 0 0 13 9V8a1 1 0 0 0-1-1Zm-1 5a1 1 0 1 1 2 0 1 1 0 0 1-2 0Z" clip-rule="evenodd"/><path fill="currentColor" fill-rule="evenodd" d="M5 3a3 3 0 0 0-3 3v1a1 1 0 0 0-1 1v1a1 1 0 0 0 1 1v4a1 1 0 0 0-1 1v1a1 1 0 0 0 1 1v1a3 3 0 0 0 3 3h1a1 1 0 0 0 1 1h1a1 1 0 0 0 1-1h6a1 1 0 0 0 1 1h1a1 1 0 0 0 1-1h1a3 3 0 0 0 3-3V6a3 3 0 0 0-3-3H5Zm0 13a1 1 0 0 1-1 1v1a1 1 0 0 0 1 1h14a1 1 0 0 0 1-1V6a1 1 0 0 0-1-1H5a1 1 0 0 0-1 1v1a1 1 0 0 1 1 1v1a1 1 0 0 1-1 1v4a1 1 0 0 1 1 1v1Z" clip-rule="evenodd"/></svg>