<svg xmlns="http://www.w3.org/2000/svg" width="24" height="24" fill="none"><path fill="currentColor" fill-rule="evenodd" d="M5 2a3 3 0 0 0-3 3v14a3 3 0 0 0 3 3h14a3 3 0 0 0 3-3V7.828a3 3 0 0 0-.879-2.12l-2.828-2.83A3 3 0 0 0 16.172 2H5Zm0 2a1 1 0 0 0-1 1v14a1 1 0 0 0 1 1h1v-5a3 3 0 0 1 3-3h6a3 3 0 0 1 3 3v5h1a1 1 0 0 0 1-1V7.828a1 1 0 0 0-.293-.707L16.88 4.293A1 1 0 0 0 16.172 4H16v1a3 3 0 0 1-3 3H9a3 3 0 0 1-3-3V4H5Zm3 0v1a1 1 0 0 0 1 1h4a1 1 0 0 0 1-1V4H8Zm8 16H8v-5a1 1 0 0 1 1-1h6a1 1 0 0 1 1 1v5Z" clip-rule="evenodd"/></svg>