<svg xmlns="http://www.w3.org/2000/svg" width="24" height="24" fill="none"><path fill="currentColor" fill-rule="evenodd" d="M9.885 13.535 6.887 7.538 11 5.956V20H9a1 1 0 1 0 0 2h6a1 1 0 1 0 0-2h-2V5.187l3.453-1.328-2.338 4.676A.995.995 0 0 0 14 9a4.501 4.501 0 0 0 9 .003v-.018a.996.996 0 0 0-.115-.45l-3.487-6.976a1 1 0 0 0-1.264-.49L5.148 6.064a.992.992 0 0 0-.545.493l-3.488 6.978A.995.995 0 0 0 1 14a4.5 4.5 0 0 0 9 .003v-.018a.995.995 0 0 0-.115-.45ZM7.382 13 5.5 9.236 3.618 13h3.764Zm.41 2H3.208a2.5 2.5 0 0 0 4.582 0ZM18.5 4.236 20.382 8h-3.764L18.5 4.236ZM20.791 10a2.5 2.5 0 0 1-4.582 0h4.582Z" clip-rule="evenodd"/></svg>