<svg xmlns="http://www.w3.org/2000/svg" width="24" height="24" fill="none"><path fill="currentColor" fill-rule="evenodd" d="M2 5a3 3 0 0 1 3-3h2a1 1 0 0 1 0 2H5a1 1 0 0 0-1 1v2a1 1 0 0 1-2 0V5Zm14-2a1 1 0 0 1 1-1h2a3 3 0 0 1 3 3v2a1 1 0 1 1-2 0V5a1 1 0 0 0-1-1h-2a1 1 0 0 1-1-1ZM3 16a1 1 0 0 1 1 1v2a1 1 0 0 0 1 1h2a1 1 0 1 1 0 2H5a3 3 0 0 1-3-3v-2a1 1 0 0 1 1-1Zm18 0a1 1 0 0 1 1 1v2a3 3 0 0 1-3 3h-2a1 1 0 1 1 0-2h2a1 1 0 0 0 1-1v-2a1 1 0 0 1 1-1ZM6 9a3 3 0 0 1 3-3h6a3 3 0 0 1 3 3v1a1 1 0 1 1-2 0V9a1 1 0 0 0-1-1H9a1 1 0 0 0-1 1v1a1 1 0 1 1-2 0V9Zm-3 3a1 1 0 1 0 0 2h3v1a3 3 0 0 0 3 3h6a3 3 0 0 0 3-3v-1h3a1 1 0 1 0 0-2H3Zm5 2v1a1 1 0 0 0 1 1h6a1 1 0 0 0 1-1v-1H8Z" clip-rule="evenodd"/></svg>