<svg xmlns="http://www.w3.org/2000/svg" width="24" height="24" fill="none"><path fill="currentColor" d="M2 5a3 3 0 0 1 3-3h3a1 1 0 0 1 0 2H5a1 1 0 0 0-1 1v3a1 1 0 0 1-2 0V5Zm13-2a1 1 0 0 1 1-1h3a3 3 0 0 1 3 3v3a1 1 0 1 1-2 0V5a1 1 0 0 0-1-1h-3a1 1 0 0 1-1-1ZM3 15a1 1 0 0 1 1 1v3a1 1 0 0 0 1 1h3a1 1 0 1 1 0 2H5a3 3 0 0 1-3-3v-3a1 1 0 0 1 1-1Zm18 0a1 1 0 0 1 1 1v3a3 3 0 0 1-3 3h-3a1 1 0 1 1 0-2h3a1 1 0 0 0 1-1v-3a1 1 0 0 1 1-1Zm-6-6a1 1 0 1 1 2 0v2a1 1 0 1 1-2 0V9ZM8 8a1 1 0 0 0-1 1v2a1 1 0 1 0 2 0V9a1 1 0 0 0-1-1Zm4 1a1 1 0 0 1 1 1v3c0 1.3-1.233 2-2.5 2a1 1 0 1 1 0-2c.288 0 .438-.061.5-.096V10a1 1 0 0 1 1-1Zm-2.553 7.106a1 1 0 1 0-.894 1.788c2.281 1.141 4.613 1.141 6.894 0a1 1 0 1 0-.894-1.788c-1.719.859-3.387.859-5.106 0Z"/></svg>