<svg xmlns="http://www.w3.org/2000/svg" width="24" height="24" fill="none"><path fill="currentColor" fill-rule="evenodd" d="M2 5a3 3 0 0 1 3-3h2a1 1 0 0 1 0 2H5a1 1 0 0 0-1 1v2a1 1 0 0 1-2 0V5Zm14-2a1 1 0 0 1 1-1h2a3 3 0 0 1 3 3v2a1 1 0 1 1-2 0V5a1 1 0 0 0-1-1h-2a1 1 0 0 1-1-1ZM3 16a1 1 0 0 1 1 1v2a1 1 0 0 0 1 1h2a1 1 0 1 1 0 2H5a3 3 0 0 1-3-3v-2a1 1 0 0 1 1-1Zm18 0a1 1 0 0 1 1 1v2a3 3 0 0 1-3 3h-2a1 1 0 1 1 0-2h2a1 1 0 0 0 1-1v-2a1 1 0 0 1 1-1ZM12 5a4 4 0 0 0-2.906 6.75A5.998 5.998 0 0 0 6 17a1 1 0 1 0 2 0 4 4 0 0 1 8 0 1 1 0 1 0 2 0c0-2.26-1.25-4.227-3.095-5.25A4 4 0 0 0 12 5Zm0 6c1.054 0 2.045.272 2.905.75A3.988 3.988 0 0 1 12 13a3.989 3.989 0 0 1-2.906-1.25A5.973 5.973 0 0 1 12 11Zm0 0a2 2 0 1 1 0-4 2 2 0 0 1 0 4Z" clip-rule="evenodd"/><path fill="currentColor" d="M14.905 11.75A5.972 5.972 0 0 0 12 11a5.973 5.973 0 0 0-2.906.75C9.824 12.52 10.856 13 12 13c1.144 0 2.177-.48 2.905-1.25Z"/></svg>