<svg xmlns="http://www.w3.org/2000/svg" width="24" height="24" fill="none"><path fill="currentColor" fill-rule="evenodd" d="M12 2c-.683 0-1.35.069-1.997.2a1 1 0 0 0-.755 1.278.8.8 0 0 1-1.466.623 1 1 0 0 0-1.444-.345 10.05 10.05 0 0 0-2.582 2.582 1 1 0 0 0 .345 1.444.8.8 0 0 1-.623 1.466 1 1 0 0 0-1.278.755 10.04 10.04 0 0 0 0 3.994 1 1 0 0 0 1.278.755.8.8 0 0 1 .623 1.466 1 1 0 0 0-.345 1.444 10.052 10.052 0 0 0 2.582 2.582 1 1 0 0 0 1.444-.345.8.8 0 0 1 1.466.623 1 1 0 0 0 .755 1.278 10.04 10.04 0 0 0 3.994 0 1 1 0 0 0 .755-1.279.8.8 0 0 1 1.466-.622 1 1 0 0 0 1.444.345 10.048 10.048 0 0 0 2.582-2.582 1 1 0 0 0-.345-1.444.8.8 0 0 1 .623-1.466 1 1 0 0 0 1.278-.755 10.04 10.04 0 0 0 0-3.994 1 1 0 0 0-1.278-.755.8.8 0 0 1-.623-1.466 1 1 0 0 0 .345-1.444 10.052 10.052 0 0 0-2.582-2.582 1 1 0 0 0-1.444.345.8.8 0 0 1-1.466-.623 1 1 0 0 0-.755-1.278A10.05 10.05 0 0 0 12 2ZM9.578 6.293a2.798 2.798 0 0 0 1.688-2.26 8.11 8.11 0 0 1 1.468 0 2.798 2.798 0 0 0 1.689 2.26 2.798 2.798 0 0 0 2.797-.355c.301.26.583.54.842.842a2.798 2.798 0 0 0-.355 2.797 2.798 2.798 0 0 0 2.26 1.689 8.1 8.1 0 0 1 0 1.468 2.798 2.798 0 0 0-2.26 1.688 2.798 2.798 0 0 0 .355 2.798c-.26.301-.54.583-.842.842a2.798 2.798 0 0 0-2.797-.355 2.798 2.798 0 0 0-1.689 2.26 8.1 8.1 0 0 1-1.468 0 2.798 2.798 0 0 0-1.688-2.26 2.798 2.798 0 0 0-2.798.355 8.058 8.058 0 0 1-.842-.842 2.798 2.798 0 0 0 .355-2.797 2.798 2.798 0 0 0-2.26-1.689 8.11 8.11 0 0 1 0-1.468 2.798 2.798 0 0 0 2.26-1.689 2.798 2.798 0 0 0-.355-2.797c.26-.301.54-.583.842-.842a2.798 2.798 0 0 0 2.798.355ZM16 12a4 4 0 1 1-8 0 4 4 0 0 1 8 0Zm-2 0a2 2 0 1 1-4 0 2 2 0 0 1 4 0Z" clip-rule="evenodd"/></svg>