<svg xmlns="http://www.w3.org/2000/svg" width="24" height="24" fill="none"><path fill="currentColor" fill-rule="evenodd" d="M5.17 7a3.001 3.001 0 1 0 0-2H4a1 1 0 0 0 0 2h1.17ZM7 6a1 1 0 1 1 2 0 1 1 0 0 1-2 0Z" clip-rule="evenodd"/><path fill="currentColor" d="M3 12a1 1 0 0 1 1-1h7a1 1 0 1 1 0 2H4a1 1 0 0 1-1-1Z"/><path fill="currentColor" fill-rule="evenodd" d="M4 17a1 1 0 1 0 0 2h3.17a3.001 3.001 0 0 0 5.66 0H20a1 1 0 1 0 0-2h-7.17a3.001 3.001 0 0 0-5.66 0H4Zm7 1a1 1 0 1 0-2 0 1 1 0 0 0 2 0Z" clip-rule="evenodd"/><path fill="currentColor" d="M12 6a1 1 0 0 1 1-1h7a1 1 0 1 1 0 2h-7a1 1 0 0 1-1-1Z"/><path fill="currentColor" fill-rule="evenodd" d="M16 9c1.306 0 2.418.835 2.83 2H20a1 1 0 1 1 0 2h-1.17A3.001 3.001 0 1 1 16 9Zm0 2a1 1 0 1 1 0 2 1 1 0 0 1 0-2Z" clip-rule="evenodd"/></svg>