<svg xmlns="http://www.w3.org/2000/svg" width="24" height="24" fill="none"><path fill="currentColor" d="M16.293 8.535a1 1 0 0 1 0 1.415l-4.336 4.336a.997.997 0 0 1-1.421.007l-.007-.007-2.822-2.822a1 1 0 0 1 1.414-1.414l2.122 2.121 3.636-3.636a1 1 0 0 1 1.414 0Z"/><path fill="currentColor" fill-rule="evenodd" d="M11.515 2.09a2 2 0 0 1 .97 0l7 1.75A2 2 0 0 1 21 5.78V11c0 3.137-1.02 5.347-2.61 7.02-1.544 1.623-3.585 2.691-5.494 3.65a1.996 1.996 0 0 1-1.792 0c-1.909-.959-3.95-2.027-5.494-3.65C4.02 16.346 3 14.136 3 11V5.78a2 2 0 0 1 1.515-1.94l7-1.75ZM19 5.78l-7-1.75-7 1.75V11c0 2.64.834 4.352 2.06 5.641 1.27 1.337 3.004 2.269 4.94 3.24 1.936-.971 3.67-1.903 4.94-3.24C18.167 15.351 19 13.64 19 11V5.78Z" clip-rule="evenodd"/></svg>