<svg xmlns="http://www.w3.org/2000/svg" width="24" height="24" fill="none"><path fill="currentColor" fill-rule="evenodd" d="M5.843 5.409c-.622.518-1.361 1.358-2.066 2.228A1 1 0 0 1 2.223 6.38c.712-.88 1.556-1.853 2.34-2.507.382-.318.833-.633 1.31-.781.249-.077.554-.125.881-.061.346.067.646.246.875.508.41.471.532 1.138.56 1.771.03.68-.043 1.55-.217 2.631-.034.211-.072.432-.115.662.478-.763.942-1.408 1.367-1.857.217-.23.466-.453.74-.612.265-.153.678-.317 1.154-.203.506.12.809.485.972.809.159.313.24.68.284 1.05.123 1.025.023 2.68-.333 5.096.319-.535.68-1.156 1.09-1.873.512-.895 1.004-1.67 1.46-2.278.433-.576.913-1.112 1.422-1.395.265-.148.652-.292 1.095-.207.477.091.796.402.984.717.178.296.271.64.326.973.057.344.082.741.082 1.186 0 .166-.006.346-.01.509l-.004.12c-.006.19-.008.358-.004.508.388-.205.984-.623 1.86-1.39a1 1 0 0 1 1.317 1.505c-1.018.89-1.825 1.471-2.477 1.77-.615.28-1.483.47-2.137-.18a1.811 1.811 0 0 1-.46-.842 3.571 3.571 0 0 1-.1-.748 9.56 9.56 0 0 1 .002-.679l.004-.143c.005-.159.009-.297.009-.43 0-.167-.004-.316-.012-.447a7.62 7.62 0 0 0-.298.374c-.387.516-.833 1.213-1.322 2.069-1.6 2.8-2.566 4.31-3.136 4.965-.138.159-.322.35-.543.479a1.2 1.2 0 0 1-.578.17 1.082 1.082 0 0 1-.821-.348 1.176 1.176 0 0 1-.277-.523 1.63 1.63 0 0 1-.042-.342 3.335 3.335 0 0 1 .046-.58c.718-3.862.954-6.181.902-7.408-.608.752-1.392 2.055-2.24 3.668-.954 1.816-1.935 3.92-2.762 5.822a1 1 0 0 1-1.873-.691c1.37-4.486 2.125-7.56 2.453-9.594.164-1.02.215-1.74.193-2.226a3.44 3.44 0 0 0-.018-.237 4.016 4.016 0 0 0-.329.25Zm17.138 9.403a1 1 0 0 1-.785 1.176c-1.492.299-5.417 1.774-8.449 5.184a1 1 0 1 1-1.494-1.329c3.368-3.79 7.71-5.447 9.55-5.816a1 1 0 0 1 1.178.785Z" clip-rule="evenodd"/></svg>