<svg xmlns="http://www.w3.org/2000/svg" width="24" height="24" fill="none"><path fill="currentColor" d="M11 3a1 1 0 1 1 2 0v2a1 1 0 1 1-2 0V3Z"/><path fill="currentColor" fill-rule="evenodd" d="M12 17a5 5 0 1 0 0-10 5 5 0 0 0 0 10Zm.025-2a3 3 0 1 0 0-6 3 3 0 0 0 0 6Z" clip-rule="evenodd"/><path fill="currentColor" d="M11 19a1 1 0 1 1 2 0v2a1 1 0 1 1-2 0v-2Zm-5-7a1 1 0 0 0-1-1H3a1 1 0 1 0 0 2h2a1 1 0 0 0 1-1Zm16 0a1 1 0 0 0-1-1h-2a1 1 0 1 0 0 2h2a1 1 0 0 0 1-1ZM6.121 4.929a1 1 0 1 0-1.414 1.414l1.414 1.414a1 1 0 0 0 1.415-1.414L6.12 4.93Zm13.172 0a1 1 0 0 0-1.414 0l-1.415 1.414a1 1 0 0 0 1.415 1.414l1.414-1.414a1 1 0 0 0 0-1.414ZM4.707 17.657a1 1 0 1 0 1.414 1.414l1.415-1.414a1 1 0 1 0-1.415-1.414l-1.414 1.414Zm14.586 1.414a1 1 0 0 0 0-1.414l-1.414-1.414a1 1 0 0 0-1.415 1.414l1.415 1.414a1 1 0 0 0 1.414 0Z"/></svg>