<svg xmlns="http://www.w3.org/2000/svg" width="24" height="24" fill="none"><path fill="currentColor" d="M9 17a1 1 0 1 0 0 2h6a1 1 0 1 0 0-2H9Zm-1-2a1 1 0 0 1 1-1h6a1 1 0 1 1 0 2H9a1 1 0 0 1-1-1Z"/><path fill="currentColor" fill-rule="evenodd" d="M5 5a3 3 0 0 1 3-3h8a3 3 0 0 1 3 3v14a3 3 0 0 1-3 3H8a3 3 0 0 1-3-3V5Zm12 0v5a1 1 0 0 1-1 1H8a1 1 0 0 1-1-1V5a1 1 0 0 1 1-1h1a1 1 0 0 0 1 1h4a1 1 0 0 0 1-1h1a1 1 0 0 1 1 1Zm-9 8c-.35 0-.687-.06-1-.17V19a1 1 0 0 0 1 1h8a1 1 0 0 0 1-1v-6.17c-.313.11-.65.17-1 .17H8Z" clip-rule="evenodd"/></svg>