<svg xmlns="http://www.w3.org/2000/svg" width="24" height="24" fill="none"><path fill="currentColor" d="m18.347 13.63-7.229-1.649c-2.155-.491-3.506-2.65-3.019-4.82.488-2.171 2.63-3.533 4.785-3.042 2.154.491 3.506 2.65 3.018 4.82a4.016 4.016 0 0 1-1.77 2.521l-.004.002a.101.101 0 0 0 .035.18l3.216.733a.199.199 0 0 0 .203-.075A7.067 7.067 0 0 0 19 8.051c0-3.754-2.91-6.821-6.582-7.04-.033-.001-.232-.009-.299-.01a7.917 7.917 0 0 0-4.707 1.455c-3.62 2.554-4.499 7.58-1.965 11.227l6.432 9.255a.15.15 0 0 0 .243 0l6.316-9.077a.152.152 0 0 0-.09-.231Z"/></svg>