<svg xmlns="http://www.w3.org/2000/svg" width="24" height="24" fill="none"><path fill="currentColor" fill-rule="evenodd" d="M16 2a4 4 0 1 0 0 8 4 4 0 0 0 0-8Zm-2 4a2 2 0 1 1 4 0 2 2 0 0 1-4 0Z" clip-rule="evenodd"/><path fill="currentColor" d="M15 11a1 1 0 1 0 0 2h2a3 3 0 0 1 3 3v1a1 1 0 1 0 2 0v-1a5 5 0 0 0-5-5h-2Z"/><path fill="currentColor" fill-rule="evenodd" d="M4 11a4 4 0 1 1 8 0 4 4 0 0 1-8 0Zm4-2a2 2 0 1 0 0 4 2 2 0 0 0 0-4Z" clip-rule="evenodd"/><path fill="currentColor" d="M7 16a5 5 0 0 0-5 5v1a1 1 0 1 0 2 0v-1a3 3 0 0 1 3-3h2a3 3 0 0 1 3 3v1a1 1 0 1 0 2 0v-1a5 5 0 0 0-5-5H7Z"/></svg>