<svg xmlns="http://www.w3.org/2000/svg" width="24" height="24" fill="none"><path fill="currentColor" d="M12.464 8.82a.266.266 0 0 1 .28-.252c.551.029 1.01.195 1.335.53.325.336.485.803.513 1.365a.266.266 0 0 1-.533.027c-.024-.481-.157-.809-.363-1.021-.205-.212-.518-.346-.979-.37a.266.266 0 0 1-.253-.28Z"/><path fill="currentColor" d="M12.346 7.142a.266.266 0 1 0-.04.53c1.016.074 1.78.413 2.325 1.006.547.597.816 1.34.796 2.25a.266.266 0 0 0 .534.011c.022-1.032-.287-1.912-.936-2.62-.657-.714-1.56-1.096-2.68-1.177Z"/><path fill="currentColor" d="M11.59 6.026a.266.266 0 0 1 .268-.264c1.548.01 2.857.524 3.907 1.545 1.06 1.03 1.584 2.43 1.597 4.17a.266.266 0 0 1-.534.005c-.012-1.63-.499-2.885-1.435-3.794-.945-.918-2.119-1.385-3.539-1.394a.266.266 0 0 1-.265-.268Zm1.77 7.794c-.201.249-.576.217-.576.217-2.741-.697-3.475-3.464-3.475-3.464s-.033-.373.217-.575l.496-.392c.245-.189.402-.646.152-1.093a11.55 11.55 0 0 0-.625-.976 26.427 26.427 0 0 0-.728-.906c-.245-.288-.605-.355-.985-.158l-.004.001-.003.001a4.096 4.096 0 0 0-1.01.816l-.002.004-.003.003c-.235.283-.369.56-.403.83a1.1 1.1 0 0 0 .047.474l.013.009c.118.418.414 1.116 1.058 2.28.368.672.793 1.312 1.27 1.914.238.301.494.589.766.861l.01.01.02.019.086.087c.274.27.562.526.865.764a13.61 13.61 0 0 0 1.921 1.265c1.167.641 1.868.936 2.287 1.054l.01.013a1.112 1.112 0 0 0 .475.047c.272-.032.55-.166.831-.4l.004-.003c0-.002.002-.002.004-.003.325-.29.601-.63.82-1.006v-.008c.198-.378.131-.737-.16-.982l-.063-.052c-.165-.135-.606-.497-.846-.673a11.62 11.62 0 0 0-.978-.622c-.449-.25-.907-.093-1.097.151l-.393.494Z"/><path fill="currentColor" fill-rule="evenodd" d="M19.742 4.05c-.524-.482-2.641-2.014-7.359-2.035 0 0-5.562-.334-8.274 2.145-1.51 1.504-2.04 3.706-2.097 6.436-.056 2.73-.128 7.844 4.82 9.231h.004l-.003 2.117s-.031.857.535 1.031c.571.177.946-.247 1.434-.8.097-.11.198-.225.306-.341.36-.385.855-.951 1.228-1.384 3.384.284 5.987-.365 6.282-.46.061-.02.148-.042.255-.07 1.093-.277 4.35-1.102 4.924-5.76.649-5.272-.314-8.607-2.055-10.11Zm.574 9.732c-.478 3.845-3.068 4.446-4.001 4.662-.103.024-.186.043-.244.062-.246.078-2.532.645-5.406.458 0 0-2.142 2.575-2.81 3.245-.105.104-.228.147-.31.126-.115-.028-.147-.164-.146-.363l.019-3.517c-4.047-1.12-3.953-5.227-3.9-7.559l.006-.232C3.57 8.384 4 6.516 5.278 5.26 7.57 3.19 12.296 3.5 12.296 3.5c3.99.016 5.903 1.214 6.346 1.615 1.472 1.256 2.222 4.262 1.674 8.665v.002Z" clip-rule="evenodd"/></svg>