<svg xmlns="http://www.w3.org/2000/svg" width="24" height="24" fill="none"><path fill="#fff" d="M19.741 4.059c-.524-.484-2.642-2.021-7.359-2.042 0 0-5.563-.336-8.274 2.152-1.51 1.51-2.04 3.719-2.097 6.458-.056 2.739-.128 7.872 4.82 9.264h.004l-.003 2.123s-.032.86.535 1.035c.684.213 1.086-.44 1.74-1.145.359-.387.855-.954 1.228-1.389 3.384.285 5.986-.366 6.282-.462.683-.222 4.55-.717 5.178-5.85.65-5.29-.314-8.636-2.054-10.144Z"/><path fill="#7360F2" d="M18.64 5.127c-.442-.402-2.355-1.604-6.345-1.621 0 0-4.725-.31-7.019 1.767C4 6.533 3.57 8.408 3.523 10.695c-.048 2.287-.292 6.657 3.892 7.82l-.018 3.529c0 .2.031.336.145.364.082.02.205-.023.31-.127.668-.672 2.81-3.256 2.81-3.256 2.874.188 5.16-.38 5.406-.46.58-.186 3.716-.456 4.247-4.742.548-4.419-.202-7.435-1.674-8.696Z"/><path fill="#fff" fill-rule="evenodd" d="M12.463 8.845a.267.267 0 0 1 .28-.253c.551.029 1.01.196 1.335.533.325.336.485.805.513 1.369a.267.267 0 0 1-.533.026c-.024-.482-.157-.81-.363-1.024-.206-.212-.519-.347-.98-.37a.267.267 0 0 1-.252-.281Z" clip-rule="evenodd"/><path fill="#fff" fill-rule="evenodd" d="M12.059 7.408a.267.267 0 0 1 .285-.247c1.12.082 2.023.465 2.68 1.182.65.71.958 1.593.935 2.629a.267.267 0 1 1-.533-.012c.02-.913-.249-1.659-.796-2.257-.546-.596-1.309-.936-2.325-1.01a.267.267 0 0 1-.246-.285Z" clip-rule="evenodd"/><path fill="#fff" fill-rule="evenodd" d="M11.588 6.041a.267.267 0 0 1 .269-.265c1.548.011 2.856.527 3.907 1.55 1.06 1.034 1.584 2.44 1.597 4.186a.267.267 0 1 1-.534.004c-.012-1.636-.499-2.894-1.435-3.807-.945-.921-2.119-1.39-3.54-1.399a.267.267 0 0 1-.264-.269Z" clip-rule="evenodd"/><path fill="#fff" d="M12.783 14.08s.375.032.577-.217l.393-.495c.19-.246.648-.402 1.097-.152.336.192.663.4.978.625.298.219.908.727.91.727.29.246.357.606.16.986l-.002.007a4.108 4.108 0 0 1-.82 1.01l-.007.005c-.282.236-.56.37-.832.402a1.11 1.11 0 0 1-.475-.047l-.009-.013c-.42-.118-1.12-.414-2.287-1.058a13.624 13.624 0 0 1-1.921-1.27 10.069 10.069 0 0 1-.865-.766l-.087-.087-.03-.03a10.078 10.078 0 0 1-.766-.863 13.64 13.64 0 0 1-1.269-1.922c-.644-1.167-.94-1.867-1.058-2.287l-.013-.009a1.108 1.108 0 0 1-.047-.475c.034-.272.168-.55.403-.833.002-.003.004-.003.006-.007a4.1 4.1 0 0 1 1.008-.82l.008-.001c.38-.198.74-.13.985.158.002.002.51.612.728.91.224.316.433.642.625.979.25.448.093.908-.152 1.097l-.496.393c-.25.202-.217.577-.217.577s.734 2.777 3.475 3.476Z"/></svg>