<svg xmlns="http://www.w3.org/2000/svg" width="24" height="24" fill="none"><path fill="#E60000" d="M8.314 2.699c2.515-1 5.444-.93 7.892.23-.697-.105-1.407-.026-2.097.09-1.875.354-3.657 1.233-5.05 2.54-1.336 1.31-2.272 3.046-2.536 4.904-.175 1.317-.013 2.698.58 3.896a5.816 5.816 0 0 0 2.98 2.821c1.249.527 2.697.521 3.961.05 1.897-.693 3.26-2.568 3.416-4.57.098-1.313-.222-2.71-1.106-3.716-.845-.985-2.08-1.528-3.315-1.837-.066-1.215.508-2.415 1.418-3.206.506-.454 1.134-.744 1.782-.93l.05-.016a10.117 10.117 0 0 1 4.441 4.15 9.86 9.86 0 0 1 1.267 5.054c-.009 2.272-.86 4.522-2.32 6.26a9.992 9.992 0 0 1-5.418 3.326 10.07 10.07 0 0 1-6.358-.618 10.036 10.036 0 0 1-4.612-4.198 9.883 9.883 0 0 1-1.287-5.052c.004-2.193.785-4.368 2.148-6.082a10.043 10.043 0 0 1 4.164-3.096Z"/></svg>