<svg xmlns="http://www.w3.org/2000/svg" width="24" height="24" fill="none"><path fill="currentColor" fill-rule="evenodd" d="M12.129 10.457a5 5 0 0 0-6.7.336L2.6 13.62a2 2 0 0 0 0 2.829l1.41 1.41.004.004.003.003L7.55 21.4a2 2 0 0 0 2.829 0l2.828-2.828a5 5 0 0 0 .336-6.7l8.15-8.15a1 1 0 1 0-1.414-1.415l-8.15 8.15Zm-.697 2.097.007.007.007.006.347.347a3 3 0 0 1 0 4.243l-2.829 2.828-.707-.707 1.415-1.414a1 1 0 0 0-1.415-1.414l-1.414 1.414-.707-.707 1.414-1.414a1 1 0 1 0-1.414-1.415l-1.414 1.415-.707-.707 2.828-2.829a3 3 0 0 1 4.243 0l.346.347Z" clip-rule="evenodd"/><path fill="currentColor" d="M14 21a1 1 0 0 1 1-1h6a1 1 0 1 1 0 2h-6a1 1 0 0 1-1-1Z"/></svg>