<svg width="118" height="40" viewBox="0 0 118 40" fill="none" xmlns="http://www.w3.org/2000/svg">
  <g clip-path="url(#clip0_16369_30025)">
    <rect x="0.333496" width="118" height="40" rx="8" fill="#00000D"/>
    <path d="M24.4236 20.3013C24.4342 19.4666 24.6528 18.6483 25.0591 17.9223C25.4654 17.1964 26.0462 16.5864 26.7474 16.1492C26.3019 15.5041 25.7142 14.9731 25.0311 14.5986C24.3479 14.224 23.588 14.0162 22.8117 13.9916C21.1558 13.8153 19.5505 14.9964 18.7067 14.9964C17.8465 14.9964 16.5474 14.0091 15.1484 14.0383C14.2435 14.0679 13.3615 14.3348 12.5886 14.8128C11.8156 15.2909 11.1779 15.9638 10.7377 16.7661C8.83055 20.1145 10.2531 25.0356 12.0799 27.7422C12.9939 29.0676 14.0621 30.548 15.4599 30.4955C16.8277 30.438 17.3385 29.611 18.9895 29.611C20.6252 29.611 21.1045 30.4955 22.5306 30.4621C23.9983 30.438 24.923 29.1309 25.8049 27.793C26.4616 26.8486 26.967 25.8049 27.3022 24.7005C26.4495 24.3347 25.7219 23.7226 25.21 22.9403C24.6981 22.158 24.4246 21.2402 24.4236 20.3013Z" fill="white"/>
    <path d="M21.7307 12.2113C22.531 11.2371 22.9252 9.98494 22.8297 8.7207C21.6071 8.85092 20.4778 9.44348 19.6668 10.3803C19.2702 10.838 18.9665 11.3704 18.773 11.9472C18.5795 12.524 18.4999 13.1337 18.5389 13.7417C19.1505 13.7481 19.7554 13.6137 20.3083 13.3486C20.8612 13.0835 21.3475 12.6946 21.7307 12.2113Z" fill="white"/>
    <path d="M41.7127 27.1397H37.0452L35.9243 30.4961H33.9473L38.3683 18.0781H40.4224L44.8434 30.4961H42.8327L41.7127 27.1397ZM37.5286 25.5908H41.2284L39.4045 20.1436H39.3535L37.5286 25.5908Z" fill="white"/>
    <path d="M54.3902 25.9695C54.3902 28.7829 52.9053 30.5905 50.6644 30.5905C50.0968 30.6207 49.5323 30.488 49.0355 30.2079C48.5387 29.9278 48.1297 29.5114 47.8554 29.0065H47.813V33.4909H45.9805V21.4421H47.7543V22.948H47.788C48.0749 22.4455 48.4908 22.0313 48.9914 21.7495C49.4919 21.4676 50.0585 21.3287 50.6307 21.3474C52.8966 21.3474 54.3902 23.1638 54.3902 25.9695ZM52.5066 25.9695C52.5066 24.1365 51.5725 22.9314 50.1473 22.9314C48.7471 22.9314 47.8053 24.1618 47.8053 25.9695C47.8053 27.7937 48.7471 29.0154 50.1473 29.0154C51.5725 29.0154 52.5066 27.8191 52.5066 25.9695Z" fill="white"/>
    <path d="M64.2183 25.9694C64.2183 28.7829 62.7334 30.5905 60.4926 30.5905C59.9249 30.6206 59.3604 30.488 58.8636 30.2079C58.3668 29.9278 57.9579 29.5114 57.6836 29.0065H57.6412V33.4909H55.8086V21.4421H57.5824V22.948H57.6161C57.903 22.4455 58.3189 22.0313 58.8195 21.7495C59.32 21.4676 59.8866 21.3287 60.4588 21.3474C62.7248 21.3474 64.2183 23.1638 64.2183 25.9694ZM62.3348 25.9694C62.3348 24.1364 61.4007 22.9314 59.9754 22.9314C58.5753 22.9314 57.6335 24.1618 57.6335 25.9694C57.6335 27.7937 58.5753 29.0153 59.9754 29.0153C61.4007 29.0153 62.3348 27.8191 62.3348 25.9694H62.3348Z" fill="white"/>
    <path d="M70.7121 27.0362C70.8479 28.2676 72.0276 29.0762 73.6396 29.0762C75.1842 29.0762 76.2955 28.2676 76.2955 27.1572C76.2955 26.1934 75.6252 25.6162 74.0382 25.2207L72.4513 24.833C70.2027 24.2822 69.1588 23.2158 69.1588 21.4854C69.1588 19.3428 71 17.8711 73.6145 17.8711C76.202 17.8711 77.9759 19.3428 78.0356 21.4854H76.1857C76.0749 20.2461 75.0648 19.4981 73.5885 19.4981C72.1123 19.4981 71.1021 20.2549 71.1021 21.3565C71.1021 22.2344 71.7473 22.751 73.3256 23.1465L74.6747 23.4824C77.1872 24.0849 78.231 25.1084 78.231 26.9248C78.231 29.248 76.4062 30.7031 73.5038 30.7031C70.7881 30.7031 68.9546 29.2822 68.8362 27.0361L70.7121 27.0362Z" fill="white"/>
    <path d="M82.1862 19.2998V21.4424H83.8839V22.9141H82.1862V27.9053C82.1862 28.6807 82.5261 29.042 83.2724 29.042C83.474 29.0384 83.6752 29.0241 83.8753 28.999V30.4619C83.5397 30.5255 83.1987 30.5543 82.8574 30.5478C81.0499 30.5478 80.345 29.8593 80.345 28.1035V22.9141H79.0469V21.4424H80.3449V19.2998H82.1862Z" fill="white"/>
    <path d="M84.8672 25.9697C84.8672 23.1211 86.5216 21.3311 89.1014 21.3311C91.6899 21.3311 93.3366 23.1211 93.3366 25.9697C93.3366 28.8262 91.6986 30.6084 89.1014 30.6084C86.5052 30.6084 84.8672 28.8262 84.8672 25.9697ZM91.4694 25.9697C91.4694 24.0156 90.5863 22.8623 89.1014 22.8623C87.6165 22.8623 86.7344 24.0244 86.7344 25.9697C86.7344 27.9316 87.6165 29.0762 89.1014 29.0762C90.5863 29.0762 91.4693 27.9316 91.4693 25.9697H91.4694Z" fill="white"/>
    <path d="M94.8477 21.442H96.5955V22.983H96.6379C96.7561 22.5017 97.0342 22.0764 97.4252 21.7785C97.8163 21.4806 98.2966 21.3284 98.7853 21.3473C98.9965 21.3465 99.2071 21.3698 99.4132 21.4166V23.1549C99.1466 23.0723 98.8685 23.0343 98.5898 23.0426C98.3236 23.0316 98.0582 23.0792 97.8118 23.1821C97.5654 23.285 97.3439 23.4408 97.1625 23.6386C96.9811 23.8365 96.8441 24.0719 96.7608 24.3286C96.6776 24.5852 96.6501 24.8571 96.6802 25.1256V30.4957H94.8477L94.8477 21.442Z" fill="white"/>
    <path d="M107.862 27.8369C107.615 29.4805 106.037 30.6084 104.018 30.6084C101.421 30.6084 99.8086 28.8437 99.8086 26.0127C99.8086 23.1729 101.429 21.3311 103.941 21.3311C106.411 21.3311 107.964 23.0518 107.964 25.7969V26.4336H101.658V26.5459C101.629 26.8791 101.671 27.2148 101.779 27.5306C101.888 27.8464 102.061 28.1352 102.289 28.3778C102.516 28.6203 102.791 28.8111 103.097 28.9374C103.402 29.0637 103.731 29.1226 104.06 29.1103C104.493 29.1515 104.928 29.0498 105.299 28.8203C105.671 28.5909 105.959 28.246 106.122 27.8369L107.862 27.8369ZM101.667 25.1348H106.131C106.147 24.8352 106.102 24.5354 105.999 24.2541C105.896 23.9729 105.736 23.7164 105.531 23.5006C105.325 23.2849 105.078 23.1145 104.804 23.0003C104.531 22.8861 104.237 22.8305 103.941 22.8369C103.642 22.8351 103.347 22.8933 103.07 23.008C102.794 23.1227 102.543 23.2918 102.332 23.5054C102.12 23.7191 101.953 23.973 101.839 24.2527C101.725 24.5323 101.666 24.8321 101.667 25.1348V25.1348Z" fill="white"/>
    <path d="M38.3098 10.3457C38.3098 10.0586 38.2029 9.83008 37.9891 9.66016C37.7754 9.49023 37.485 9.40527 37.1181 9.40527C36.8032 9.40527 36.5403 9.49023 36.3294 9.66016C36.1185 9.82715 36.0131 10.0439 36.0131 10.3105H34.9211C34.9211 9.96191 35.0164 9.65137 35.2071 9.37891C35.3978 9.10645 35.6621 8.89551 36.0001 8.74609C36.3381 8.59375 36.7108 8.51758 37.1181 8.51758C37.8404 8.51758 38.4008 8.67725 38.7995 8.99658C39.2011 9.31592 39.4018 9.7627 39.4018 10.3369C39.4018 10.627 39.3152 10.8936 39.1418 11.1367C38.9685 11.3799 38.7258 11.5718 38.4138 11.7124C38.7663 11.8354 39.0349 12.0229 39.2198 12.2749C39.4076 12.5239 39.5015 12.8345 39.5015 13.2065C39.5015 13.7808 39.2848 14.2378 38.8515 14.5776C38.4181 14.9146 37.8404 15.083 37.1181 15.083C36.6732 15.083 36.2702 15.0024 35.9091 14.8413C35.5509 14.6802 35.2808 14.4604 35.0988 14.1821C34.9196 13.9038 34.8301 13.5845 34.8301 13.2241H35.9221C35.9221 13.4995 36.0348 13.7324 36.2601 13.9229C36.4854 14.1104 36.7714 14.2041 37.1181 14.2041C37.5052 14.2041 37.8158 14.1118 38.0498 13.9272C38.2867 13.7427 38.4051 13.5024 38.4051 13.2065C38.4051 12.8462 38.3011 12.5854 38.0931 12.4243C37.888 12.2603 37.5861 12.1782 37.1875 12.1782H36.4464V11.2993H37.1485C37.9227 11.2993 38.3098 10.9814 38.3098 10.3457Z" fill="white"/>
    <path d="M43.4168 14.9995C43.3706 14.9087 43.3301 14.7607 43.2955 14.5557C42.9603 14.9102 42.5501 15.0874 42.0648 15.0874C41.5939 15.0874 41.2096 14.9512 40.9121 14.6787C40.6145 14.4062 40.4657 14.0693 40.4657 13.668C40.4657 13.1611 40.6506 12.7729 41.0204 12.5034C41.3931 12.231 41.9247 12.0947 42.6151 12.0947H43.2608V11.7827C43.2608 11.5366 43.1929 11.3403 43.0571 11.1938C42.9213 11.0444 42.7148 10.9697 42.4374 10.9697C42.1977 10.9697 42.0012 11.0312 41.8481 11.1543C41.695 11.2744 41.6184 11.4282 41.6184 11.6157H40.5654C40.5654 11.355 40.6506 11.1118 40.8211 10.8862C40.9915 10.6577 41.2226 10.479 41.5144 10.3501C41.8091 10.2212 42.137 10.1567 42.4981 10.1567C43.047 10.1567 43.4847 10.2974 43.8111 10.5786C44.1376 10.8569 44.3051 11.2495 44.3138 11.7563V13.9009C44.3138 14.3286 44.373 14.6699 44.4915 14.9248V14.9995H43.4168ZM42.2598 14.2305C42.4678 14.2305 42.6628 14.1792 42.8448 14.0767C43.0297 13.9741 43.1683 13.8364 43.2608 13.6636V12.7671H42.6931C42.3031 12.7671 42.0099 12.8359 41.8134 12.9736C41.617 13.1113 41.5188 13.3062 41.5188 13.5581C41.5188 13.7632 41.5852 13.9272 41.7181 14.0503C41.8539 14.1704 42.0344 14.2305 42.2598 14.2305Z" fill="white"/>
    <path d="M45.6941 14.9995V10.2446H47.5964C48.2378 10.2446 48.726 10.3589 49.0611 10.5874C49.3962 10.813 49.5638 11.1382 49.5638 11.563C49.5638 11.7827 49.4959 11.9805 49.3601 12.1562C49.2272 12.3291 49.0293 12.4624 48.7664 12.5562C49.0727 12.6206 49.3153 12.751 49.4945 12.9473C49.6736 13.1436 49.7631 13.375 49.7631 13.6416C49.7631 14.084 49.6014 14.4209 49.2778 14.6523C48.9571 14.8838 48.4949 14.9995 47.8911 14.9995H45.6941ZM46.7471 12.9736V14.1558H47.8998C48.44 14.1558 48.7101 13.9595 48.7101 13.5669C48.7101 13.1714 48.4357 12.9736 47.8868 12.9736H46.7471ZM46.7471 12.209H47.6138C48.2118 12.209 48.5108 12.0303 48.5108 11.6729C48.5108 11.2979 48.2277 11.1045 47.6614 11.0928H46.7471V12.209Z" fill="white"/>
    <path d="M53.6741 14.9995C53.6279 14.9087 53.5874 14.7607 53.5528 14.5557C53.2176 14.9102 52.8074 15.0874 52.3221 15.0874C51.8512 15.0874 51.4669 14.9512 51.1694 14.6787C50.8718 14.4062 50.723 14.0693 50.723 13.668C50.723 13.1611 50.9079 12.7729 51.2777 12.5034C51.6504 12.231 52.182 12.0947 52.8724 12.0947H53.5181V11.7827C53.5181 11.5366 53.4502 11.3403 53.3144 11.1938C53.1786 11.0444 52.9721 10.9697 52.6947 10.9697C52.455 10.9697 52.2585 11.0312 52.1054 11.1543C51.9523 11.2744 51.8757 11.4282 51.8757 11.6157H50.8227C50.8227 11.355 50.9079 11.1118 51.0784 10.8862C51.2488 10.6577 51.4799 10.479 51.7717 10.3501C52.0664 10.2212 52.3943 10.1567 52.7554 10.1567C53.3043 10.1567 53.742 10.2974 54.0684 10.5786C54.3949 10.8569 54.5624 11.2495 54.5711 11.7563V13.9009C54.5711 14.3286 54.6303 14.6699 54.7488 14.9248V14.9995H53.6741ZM52.5171 14.2305C52.7251 14.2305 52.9201 14.1792 53.1021 14.0767C53.287 13.9741 53.4256 13.8364 53.5181 13.6636V12.7671H52.9504C52.5604 12.7671 52.2672 12.8359 52.0707 12.9736C51.8743 13.1113 51.7761 13.3062 51.7761 13.5581C51.7761 13.7632 51.8425 13.9272 51.9754 14.0503C52.1112 14.1704 52.2917 14.2305 52.5171 14.2305Z" fill="white"/>
    <path d="M59.8428 14.9995H58.7897V13.0791H56.9654V14.9995H55.9124V10.2446H56.9654V12.2266H58.7897V10.2446H59.8428V14.9995Z" fill="white"/>
    <path d="M64.8544 11.0928H63.3334V14.9995H62.2804V11.0928H60.7767V10.2446H64.8544V11.0928Z" fill="white"/>
    <path d="M68.488 14.9995C68.4418 14.9087 68.4014 14.7607 68.3667 14.5557C68.0316 14.9102 67.6213 15.0874 67.136 15.0874C66.6651 15.0874 66.2809 14.9512 65.9833 14.6787C65.6858 14.4062 65.537 14.0693 65.537 13.668C65.537 13.1611 65.7219 12.7729 66.0917 12.5034C66.4643 12.231 66.9959 12.0947 67.6864 12.0947H68.332V11.7827C68.332 11.5366 68.2641 11.3403 68.1284 11.1938C67.9926 11.0444 67.786 10.9697 67.5087 10.9697C67.2689 10.9697 67.0724 11.0312 66.9193 11.1543C66.7662 11.2744 66.6897 11.4282 66.6897 11.6157H65.6366C65.6366 11.355 65.7219 11.1118 65.8923 10.8862C66.0628 10.6577 66.2939 10.479 66.5857 10.3501C66.8803 10.2212 67.2082 10.1567 67.5693 10.1567C68.1182 10.1567 68.5559 10.2974 68.8824 10.5786C69.2088 10.8569 69.3764 11.2495 69.3851 11.7563V13.9009C69.3851 14.3286 69.4443 14.6699 69.5627 14.9248V14.9995H68.488ZM67.331 14.2305C67.539 14.2305 67.734 14.1792 67.916 14.0767C68.1009 13.9741 68.2396 13.8364 68.332 13.6636V12.7671H67.7644C67.3743 12.7671 67.0811 12.8359 66.8847 12.9736C66.6882 13.1113 66.59 13.3062 66.59 13.5581C66.59 13.7632 66.6564 13.9272 66.7893 14.0503C66.9251 14.1704 67.1057 14.2305 67.331 14.2305Z" fill="white"/>
    <path d="M74.8127 13.0879H74.2537V14.9995H73.2007V13.0879H72.646L71.567 14.9995H70.2756L71.8313 12.5254L70.358 10.2446H71.645L72.7067 12.1123H73.2007V10.2446H74.2537V12.1123H74.752L75.8181 10.2446H77.1051L75.6361 12.5122L77.2004 14.9995H75.8917L74.8127 13.0879Z" fill="white"/>
    <path d="M80.977 10.2446H82.0257V14.9995H80.977V11.8267L79.1397 14.9995H78.091V10.2446H79.1397V13.4175L80.977 10.2446Z" fill="white"/>
    <path d="M87.033 11.0928H85.512V14.9995H84.459V11.0928H82.9553V10.2446H87.033V11.0928Z" fill="white"/>
    <path d="M90.8617 10.2446H91.9104V14.9995H90.8617V11.8267L89.0243 14.9995H87.9756V10.2446H89.0243V13.4175L90.8617 10.2446Z" fill="white"/>
    <path d="M99.1863 11.5454C99.1863 11.7563 99.1227 11.9512 98.9956 12.1299C98.8714 12.3057 98.6951 12.4463 98.4669 12.5518C99.0043 12.7422 99.2729 13.1099 99.2729 13.6548C99.2729 14.0913 99.0982 14.4399 98.7486 14.7007C98.399 14.9585 97.931 15.0874 97.3446 15.0874C96.9863 15.0874 96.6599 15.0273 96.3652 14.9072C96.0705 14.7842 95.8409 14.6113 95.6762 14.3887C95.5115 14.1631 95.4292 13.8965 95.4292 13.5889H96.4779C96.4779 13.7822 96.5631 13.9448 96.7335 14.0767C96.904 14.2056 97.1192 14.27 97.3792 14.27C97.6363 14.27 97.84 14.21 97.9902 14.0898C98.1434 13.9668 98.2199 13.8071 98.2199 13.6108C98.2199 13.3794 98.1535 13.2124 98.0206 13.1099C97.8877 13.0073 97.6826 12.9561 97.4052 12.9561H96.6512V12.187H97.4312C97.9021 12.1812 98.1376 11.9849 98.1376 11.5981C98.1376 11.4048 98.0697 11.2539 97.9339 11.1455C97.7981 11.0371 97.6118 10.9829 97.3749 10.9829C97.1438 10.9829 96.9488 11.0415 96.7899 11.1587C96.631 11.2729 96.5515 11.418 96.5515 11.5938H95.5029C95.5029 11.1748 95.6762 10.832 96.0229 10.5654C96.3695 10.2959 96.8101 10.1611 97.3446 10.1611C97.9252 10.1611 98.3774 10.2812 98.7009 10.5215C99.0245 10.7617 99.1863 11.103 99.1863 11.5454Z" fill="white"/>
  </g>
  <defs>
    <clipPath id="clip0_16369_30025">
      <rect width="118" height="40" fill="white"/>
    </clipPath>
  </defs>
</svg>
