<svg width="136" height="40" viewBox="0 0 136 40" fill="none" xmlns="http://www.w3.org/2000/svg">
  <g clip-path="url(#clip0_16369_30045)">
    <rect width="136" height="40" rx="6" fill="#00000D"/>
    <path d="M106.935 30H108.801V17.4988H106.935V30ZM123.742 22.002L121.603 27.4219H121.539L119.319 22.002H117.309L120.638 29.5773L118.74 33.791H120.687L125.817 22.002H123.742ZM113.16 28.5801C112.548 28.5801 111.696 28.2746 111.696 27.5184C111.696 26.5535 112.758 26.1836 113.674 26.1836C114.495 26.1836 114.88 26.3605 115.379 26.602C115.234 27.7598 114.237 28.5801 113.16 28.5801ZM113.385 21.7285C112.034 21.7285 110.635 22.3238 110.056 23.6426L111.712 24.334C112.066 23.6426 112.725 23.4172 113.417 23.4172C114.382 23.4172 115.363 23.9965 115.379 25.0258V25.1543C115.041 24.9613 114.318 24.6719 113.433 24.6719C111.648 24.6719 109.83 25.6527 109.83 27.4863C109.83 29.159 111.294 30.2367 112.934 30.2367C114.189 30.2367 114.88 29.6738 115.315 29.0145H115.379V29.9793H117.18V25.1863C117.18 22.9672 115.524 21.7285 113.385 21.7285ZM101.853 23.5238H99.1992V19.2387H101.853C103.248 19.2387 104.04 20.3937 104.04 21.3812C104.04 22.35 103.248 23.5238 101.853 23.5238ZM101.805 17.4988H97.3342V30H99.1992V25.2637H101.805C103.873 25.2637 105.906 23.7664 105.906 21.3812C105.906 18.9961 103.873 17.4988 101.805 17.4988ZM77.4242 28.5824C76.1351 28.5824 75.0558 27.5031 75.0558 26.0207C75.0558 24.5227 76.1351 23.427 77.4242 23.427C78.6969 23.427 79.6957 24.5227 79.6957 26.0207C79.6957 27.5031 78.6969 28.5824 77.4242 28.5824ZM79.5668 22.702H79.5023C79.0836 22.2027 78.2777 21.7516 77.2629 21.7516C75.1363 21.7516 73.1871 23.6203 73.1871 26.0207C73.1871 28.4051 75.1363 30.2578 77.2629 30.2578C78.2777 30.2578 79.0836 29.8066 79.5023 29.2914H79.5668V29.9035C79.5668 31.5309 78.6969 32.4008 77.2953 32.4008C76.1515 32.4008 75.4426 31.5789 75.1523 30.8863L73.5254 31.5629C73.9926 32.6906 75.2332 34.0762 77.2953 34.0762C79.4863 34.0762 81.339 32.7871 81.339 29.6457V22.0094H79.5668V22.702ZM82.6277 30H84.4965V17.4984H82.6277V30ZM87.2515 25.8758C87.2031 24.2324 88.5242 23.3949 89.4746 23.3949C90.2162 23.3949 90.8442 23.7652 91.0532 24.2973L87.2515 25.8758ZM93.0512 24.4582C92.6972 23.5074 91.6172 21.7516 89.4101 21.7516C87.2191 21.7516 85.3988 23.4754 85.3988 26.0047C85.3988 28.3891 87.2031 30.2578 89.6195 30.2578C91.5692 30.2578 92.6972 29.0656 93.1642 28.373L91.7142 27.4062C91.2312 28.1152 90.5702 28.5824 89.6195 28.5824C88.6691 28.5824 87.9926 28.1473 87.5574 27.2937L93.2442 24.9414L93.0512 24.4582ZM47.743 23.0566V24.8609H52.0605C51.9316 25.8758 51.5933 26.6168 51.0777 27.1324C50.4496 27.7609 49.4668 28.4535 47.743 28.4535C45.0847 28.4535 43.0066 26.3109 43.0066 23.6527C43.0066 20.9945 45.0847 18.8516 47.743 18.8516C49.1769 18.8516 50.2238 19.4156 50.9972 20.1406L52.2699 18.868C51.1906 17.8367 49.7566 17.0473 47.743 17.0473C44.1019 17.0473 41.041 20.0117 41.041 23.6527C41.041 27.2937 44.1019 30.2578 47.743 30.2578C49.7086 30.2578 51.1906 29.6137 52.3504 28.4051C53.5426 27.2129 53.9133 25.5375 53.9133 24.1844C53.9133 23.7652 53.8812 23.3789 53.8164 23.0566H47.743ZM58.8219 28.5824C57.5328 28.5824 56.4211 27.5191 56.4211 26.0047C56.4211 24.4742 57.5328 23.427 58.8219 23.427C60.1105 23.427 61.2222 24.4742 61.2222 26.0047C61.2222 27.5191 60.1105 28.5824 58.8219 28.5824ZM58.8219 21.7516C56.4695 21.7516 54.5523 23.5398 54.5523 26.0047C54.5523 28.4535 56.4695 30.2578 58.8219 30.2578C61.1738 30.2578 63.091 28.4535 63.091 26.0047C63.091 23.5398 61.1738 21.7516 58.8219 21.7516ZM68.1351 28.5824C66.8465 28.5824 65.7347 27.5191 65.7347 26.0047C65.7347 24.4742 66.8465 23.427 68.1351 23.427C69.4238 23.427 70.5355 24.4742 70.5355 26.0047C70.5355 27.5191 69.4238 28.5824 68.1351 28.5824ZM68.1351 21.7516C65.7828 21.7516 63.866 23.5398 63.866 26.0047C63.866 28.4535 65.7828 30.2578 68.1351 30.2578C70.4871 30.2578 72.4043 28.4535 72.4043 26.0047C72.4043 23.5398 70.4871 21.7516 68.1351 21.7516Z" fill="white"/>
    <path d="M10.5098 32.3896L10.4355 32.3185C10.1445 32.0106 9.97266 31.5325 9.97266 30.9134V31.0591V8.94315C9.97266 8.94115 9.97266 8.93965 9.97266 8.93805C9.97266 8.93995 9.97266 8.94155 9.97266 8.94355V9.08965C9.97266 8.41925 10.173 7.91425 10.5086 7.61145L22.8984 20.0009L10.5098 32.3896ZM9.97266 8.93685C9.97266 8.88175 9.97416 8.82825 9.97696 8.77555C9.97416 8.82785 9.97266 8.88175 9.97266 8.93685ZM9.97696 8.77315C9.97696 8.77245 9.97696 8.77165 9.97726 8.77085C9.97696 8.77165 9.97696 8.77245 9.97696 8.77315ZM9.97726 8.76615C9.97726 8.76575 9.97726 8.76535 9.97726 8.76495C9.97726 8.76535 9.97726 8.76575 9.97726 8.76615Z" fill="url(#paint0_linear_16369_30045)"/>
    <path d="M27.0277 24.2783L27.1219 24.2248L32.0148 21.4447C32.4813 21.1795 32.7922 20.858 32.9473 20.5178C32.7926 20.858 32.4816 21.1799 32.0148 21.4451L27.1219 24.2252L27.0277 24.2783ZM27.0289 24.1318L22.8984 20.0006L27.0285 15.8701L32.0148 18.7029C32.648 19.0627 33.0035 19.5264 33.0629 20.0002C33.0629 20.0006 33.0629 20.0014 33.0629 20.0021C33.0035 20.4748 32.648 20.9389 32.0148 21.2986L27.0289 24.1318Z" fill="url(#paint1_linear_16369_30045)"/>
    <path d="M11.3926 32.8613C11.0465 32.8613 10.7445 32.7488 10.509 32.5363L10.5094 32.5359C10.7449 32.7484 11.0473 32.8613 11.3934 32.8613C11.4234 32.8613 11.4539 32.8605 11.4848 32.859C11.4535 32.8605 11.4226 32.8613 11.3926 32.8613ZM11.393 32.7148C11.0469 32.7152 10.7449 32.6023 10.5094 32.3898V32.3895L22.898 20.0008L27.0285 24.132L12.5133 32.3793C12.1117 32.607 11.7312 32.7148 11.393 32.7148ZM10.5059 32.5336C10.484 32.5137 10.4625 32.4926 10.4414 32.4707L10.5059 32.5336Z" fill="url(#paint2_linear_16369_30045)"/>
    <path d="M22.8976 20.001L10.5078 7.61148C10.7433 7.39938 11.0449 7.28688 11.3906 7.28688C11.7297 7.28688 12.1105 7.39508 12.5129 7.62318L27.0277 15.8705L22.8976 20.001ZM27.1211 15.7772L12.5129 7.47717C12.1105 7.24897 11.7297 7.14078 11.3906 7.14078C11.389 7.14078 11.3879 7.14078 11.3863 7.14078C11.3883 7.14078 11.3898 7.14078 11.3922 7.14078C11.7305 7.14078 12.1109 7.24858 12.5129 7.47678L27.1211 15.7772Z" fill="url(#paint3_linear_16369_30045)"/>
    <path d="M11.4852 32.8594C11.7996 32.8414 12.1477 32.7332 12.5137 32.5258L27.0277 24.2789L12.5137 32.5258C12.148 32.7336 11.7996 32.8414 11.4852 32.8594ZM10.5094 32.5367L10.5063 32.534C10.5074 32.5348 10.5086 32.5359 10.5094 32.5367ZM10.4418 32.4711L10.4355 32.4649V32.4645C10.4379 32.4668 10.4398 32.4691 10.4418 32.4711Z" fill="black"/>
    <path d="M27.0273 24.2783L27.1213 24.225L27.0273 24.2783Z" fill="url(#paint4_linear_16369_30045)"/>
    <path d="M11.3938 32.8613C11.0477 32.8613 10.7453 32.7484 10.5098 32.5359L10.5094 32.5363C10.5086 32.5355 10.5074 32.5344 10.5063 32.5336L10.4418 32.4707C10.4398 32.4687 10.4379 32.4664 10.4355 32.4641L10.5098 32.3898C10.7453 32.6023 11.0473 32.7152 11.3934 32.7148C11.7316 32.7148 12.1121 32.607 12.5137 32.3793L27.0289 24.132L27.1219 24.225L27.0277 24.2785L12.5137 32.5254C12.1477 32.7328 11.7996 32.841 11.4852 32.859C11.4543 32.8605 11.4238 32.8613 11.3938 32.8613Z" fill="url(#paint5_linear_16369_30045)"/>
    <path d="M10.434 32.4648C10.1439 32.1569 9.97266 31.6788 9.97266 31.0597V31.0593C9.97266 31.6788 10.1439 32.1565 10.434 32.4644V32.4648Z" fill="black"/>
    <path d="M10.4349 32.4639C10.1443 32.156 9.97266 31.6783 9.97266 31.0588V30.9131C9.97266 31.5322 10.1443 32.0103 10.4349 32.3182L10.5092 32.3893L10.4349 32.4639Z" fill="url(#paint6_linear_16369_30045)"/>
    <path d="M10.4355 32.4639L10.5096 32.3895V32.3898L10.4355 32.4639Z" fill="url(#paint7_linear_16369_30045)"/>
    <path d="M32.9473 20.5176C33.0239 20.3485 33.0625 20.1748 33.0625 20.001C33.0625 20.0007 33.0625 20.0003 33.0625 20.0003C33.0625 20.1744 33.0239 20.3481 32.9473 20.5176Z" fill="black"/>
    <path d="M27.1223 24.2246L27.0293 24.1316L32.0152 21.2984C32.6484 20.9387 33.0039 20.4746 33.0633 20.0019C33.0633 20.1754 33.0246 20.3488 32.9477 20.5176C32.7926 20.8578 32.4817 21.1793 32.0152 21.4445L27.1223 24.2246Z" fill="url(#paint8_linear_16369_30045)"/>
    <path d="M33.0625 20.001V20.0006C33.0621 19.4775 32.7125 18.9545 32.0144 18.5576L27.1215 15.7775H27.1211L27.1215 15.7772L32.0144 18.5572C32.7133 18.9541 33.0633 19.4779 33.0625 20.001Z" fill="#404040"/>
    <path d="M33.0617 20C33.0023 19.5262 32.6468 19.0625 32.0136 18.7027L27.0273 15.8699L27.1203 15.7769H27.1207L32.0136 18.557C32.7117 18.9539 33.0613 19.4769 33.0617 20Z" fill="url(#paint9_linear_16369_30045)"/>
    <path d="M9.97266 8.9375C9.97266 8.9371 9.97266 8.9367 9.97266 8.9363C9.97266 8.9367 9.97266 8.9371 9.97266 8.9375ZM9.97696 8.775C9.97696 8.7742 9.97696 8.7734 9.97696 8.7726C9.97696 8.7734 9.97696 8.7742 9.97696 8.775ZM9.97726 8.7703C9.97726 8.7687 9.97726 8.7672 9.97726 8.7656C9.97726 8.7672 9.97726 8.7687 9.97726 8.7703ZM9.97726 8.7644C10.0352 7.7371 10.5938 7.1437 11.384 7.1402C11.0414 7.1422 10.743 7.2547 10.5094 7.4652V7.4648L10.5066 7.4676C10.482 7.4898 10.4586 7.5133 10.4355 7.5375C10.173 7.8152 10.0074 8.2312 9.97726 8.7644Z" fill="#404040"/>
    <path d="M9.97266 9.08984V8.94374C9.97266 8.94174 9.97266 8.94014 9.97266 8.93824C9.97266 8.93784 9.97266 8.93745 9.97266 8.93705C9.97266 8.88195 9.97415 8.82804 9.97695 8.77574C9.97695 8.77494 9.97695 8.77415 9.97695 8.77335C9.97695 8.77265 9.97695 8.77184 9.97725 8.77104C9.97725 8.76944 9.97725 8.76795 9.97725 8.76635C9.97725 8.76595 9.97725 8.76555 9.97725 8.76515C10.0073 8.23195 10.1727 7.81594 10.4349 7.53824L10.508 7.61165C10.1727 7.91445 9.97266 8.41944 9.97266 9.08984ZM10.506 7.46834L10.5088 7.46555C10.508 7.46675 10.5068 7.46754 10.506 7.46834Z" fill="url(#paint10_linear_16369_30045)"/>
    <path d="M27.0285 15.8701L12.5137 7.62282C12.1113 7.39472 11.7305 7.28652 11.3914 7.28652C11.0457 7.28652 10.7441 7.39902 10.5086 7.61112L10.4355 7.53771C10.4586 7.51352 10.482 7.49002 10.5066 7.46781C10.5074 7.46701 10.5086 7.46622 10.5094 7.46542C10.743 7.25492 11.0414 7.14242 11.384 7.14042C11.3848 7.14042 11.3859 7.14042 11.3871 7.14042C11.3887 7.14042 11.3898 7.14042 11.3914 7.14042C11.7305 7.14042 12.1113 7.24861 12.5137 7.47681L27.1219 15.7768L27.1215 15.7771L27.0285 15.8701Z" fill="url(#paint11_linear_16369_30045)"/>
    <path d="M43.3176 13.166C42.9141 13.166 42.5234 13.0398 42.1445 12.7895C41.7656 12.5391 41.5027 12.1656 41.3574 11.6699L42.0918 11.3633C42.1855 11.6902 42.3398 11.9437 42.5559 12.1246C42.7715 12.3059 43.0254 12.3961 43.3176 12.3961C43.6438 12.3961 43.9246 12.2937 44.1609 12.0898C44.3977 11.8855 44.5156 11.6316 44.5156 11.3281C44.5156 11.0309 44.3945 10.7805 44.1523 10.5762C43.9102 10.3723 43.6199 10.2695 43.282 10.2695H42.7656V9.51722H43.2207C43.5359 9.51722 43.7969 9.42972 44.0039 9.25512C44.2109 9.07972 44.3145 8.84692 44.3145 8.55472C44.3145 8.28052 44.2141 8.06452 44.0129 7.90702C43.8113 7.74962 43.5613 7.67072 43.2645 7.67072C42.7512 7.67072 42.4043 7.93092 42.2234 8.44962L41.4797 8.13482C41.5957 7.81412 41.8035 7.52812 42.1008 7.27732C42.3984 7.02662 42.7859 6.90082 43.2645 6.90082C43.8008 6.90082 44.2473 7.05702 44.6035 7.36912C44.959 7.68122 45.1367 8.07622 45.1367 8.55472C45.1367 9.13162 44.8684 9.56052 44.332 9.84062V9.87621C44.6238 9.99801 44.8645 10.1852 45.0535 10.4355C45.2434 10.6863 45.3379 10.9844 45.3379 11.3281C45.3379 11.8594 45.1426 12.2984 44.752 12.6453C44.3613 12.9922 43.8828 13.166 43.3176 13.166Z" fill="white"/>
    <path d="M43.3176 13.1656V13.0656C42.9352 13.0652 42.5652 12.9473 42.1996 12.7058C41.8418 12.4687 41.5941 12.1191 41.4535 11.6414L41.3574 11.6695L41.3961 11.7617L42.1305 11.4551L42.0918 11.3629L41.9957 11.3902C42.0934 11.732 42.2578 12.0055 42.4914 12.2008L42.4922 12.2016L42.4914 12.2008C42.7238 12.3969 43.0051 12.4961 43.3176 12.4957C43.6645 12.4965 43.973 12.3848 44.2266 12.1652C44.4824 11.9461 44.6172 11.6578 44.6156 11.3277C44.6172 11.0027 44.4781 10.7176 44.2168 10.4992C43.9574 10.2801 43.6402 10.1683 43.282 10.1691H42.8656V9.61682H43.2207C43.5543 9.61722 43.8422 9.52262 44.0684 9.33082C44.2977 9.13872 44.416 8.86952 44.4145 8.55432C44.416 8.25582 44.2992 8.00192 44.0742 7.82812C43.8543 7.65512 43.5789 7.56992 43.2645 7.57032C42.7152 7.56482 42.3137 7.86832 42.1293 8.41642L42.2234 8.44922L42.2625 8.35702L41.5184 8.04222L41.4797 8.13442L41.5734 8.16832C41.6832 7.86602 41.8793 7.59532 42.1652 7.35312L42.1648 7.35352C42.4426 7.12032 42.8031 7.00122 43.2645 7.00042C43.7816 7.00122 44.2 7.14922 44.5375 7.44412V7.44372C44.873 7.74022 45.0352 8.10082 45.0367 8.55432C45.0332 9.09922 44.7953 9.48122 44.2855 9.75192L44.232 9.78012V9.87582V9.94222L44.2934 9.96802C44.5699 10.0836 44.7945 10.2586 44.9738 10.4953C45.1496 10.7289 45.2375 11.0019 45.2379 11.3277C45.2363 11.8344 45.0563 12.2391 44.6855 12.5703C44.3129 12.9004 43.8625 13.0648 43.3176 13.0656V13.1656V13.2656C43.9031 13.2664 44.4102 13.0832 44.8184 12.7199C45.2289 12.3566 45.4391 11.8836 45.4379 11.3277C45.4383 10.9656 45.3367 10.6433 45.1336 10.375C44.934 10.1109 44.6781 9.91172 44.3707 9.78322L44.332 9.87582H44.432V9.84022H44.332L44.3785 9.92892C44.941 9.63912 45.2402 9.16372 45.2367 8.55432C45.2383 8.05122 45.0449 7.62152 44.6695 7.29372L44.668 7.29262L44.6695 7.29332C44.2941 6.96442 43.8199 6.80002 43.2645 6.80042C42.7691 6.80002 42.3547 6.93162 42.0359 7.20042V7.20082C41.7281 7.46052 41.5082 7.76132 41.3855 8.10042L41.3531 8.18942L42.1848 8.54142L42.2828 8.58322L42.318 8.48202C42.4949 7.99222 42.7867 7.77622 43.2645 7.77072C43.5441 7.77112 43.7691 7.84332 43.9512 7.98552C44.1285 8.12622 44.2129 8.30392 44.2145 8.55432C44.2129 8.82302 44.1242 9.01992 43.9395 9.17812C43.7516 9.33592 43.518 9.41602 43.2207 9.41682H42.7656H42.6656V10.2691V10.3691H43.282C43.6 10.3699 43.8629 10.4637 44.0879 10.6523C44.3109 10.8422 44.4141 11.0582 44.4156 11.3277C44.4141 11.6051 44.3125 11.8246 44.0957 12.0137C43.8766 12.2023 43.6227 12.2949 43.3176 12.2957C43.0461 12.2949 42.8191 12.2137 42.6199 12.0476V12.0473C42.4219 11.8812 42.2777 11.648 42.1879 11.3351L42.157 11.2273L41.3188 11.5773L41.2363 11.6117L41.2613 11.6976C41.4117 12.2113 41.6895 12.6086 42.0895 12.8726C42.4816 13.132 42.893 13.266 43.3176 13.2656V13.1656Z" fill="white"/>
    <path d="M47.6133 10.5758H49.6965L48.673 7.74919H48.6379L47.6133 10.5758ZM45.8379 13.0254L48.2004 6.76009H49.1105L51.4727 13.0254H50.5801L49.9766 11.3277H47.343L46.7297 13.0254H45.8379Z" fill="white"/>
    <path d="M47.6133 10.5764V10.6764H49.8391L48.743 7.64978H48.6379H48.5676L47.4707 10.6764H47.6133V10.5764L47.7074 10.6104L48.7316 7.78378L48.6379 7.74978V7.84978H48.673V7.74978L48.5789 7.78378L49.5535 10.4764H47.6133V10.5764L47.7074 10.6104L47.6133 10.5764ZM45.8379 13.026L45.9316 13.0615L48.2695 6.86068H49.041L51.3281 12.926H50.6508L50.0473 11.2283H47.2727L46.6594 12.926H45.8379V13.026L45.9316 13.0615L45.8379 13.026V13.126H46.7297H46.7996L47.4129 11.4283H49.9059L50.5094 13.126H51.4727H51.6172L49.1797 6.66068H48.2004H48.1309L45.6934 13.126H45.8379V13.026Z" fill="white"/>
    <path d="M53.086 12.2555H54.7051C55.0145 12.2555 55.2645 12.1476 55.4578 11.9316C55.65 11.716 55.7457 11.4801 55.7457 11.223C55.7457 10.9664 55.6473 10.7316 55.4488 10.5187C55.2508 10.3058 54.991 10.1992 54.6696 10.1992H53.086V12.2555ZM53.086 9.44689H54.5477C54.8504 9.44689 55.0946 9.34649 55.2781 9.14489C55.4617 8.94369 55.5535 8.72299 55.5535 8.48399C55.5535 8.24529 55.4649 8.02659 55.2867 7.82769C55.1094 7.62969 54.8738 7.53049 54.5828 7.53049H53.086V9.44689ZM52.2812 13.0254V6.76009H54.5477C55.0379 6.76009 55.4617 6.92259 55.8199 7.24609C56.1793 7.56989 56.3582 7.97659 56.3582 8.46639C56.3582 8.76409 56.2813 9.02689 56.127 9.25469C55.9727 9.48199 55.7664 9.65389 55.5098 9.77069V9.80549C55.8192 9.91049 56.0731 10.0914 56.2711 10.348C56.4696 10.6051 56.5692 10.9019 56.5692 11.2406C56.5692 11.7535 56.3809 12.1797 56.0047 12.5183C55.6278 12.8558 55.1832 13.0254 54.6696 13.0254H52.2812Z" fill="white"/>
    <path d="M53.0844 12.2561V12.3561H54.7035C55.0359 12.3572 55.3203 12.2357 55.5308 11.999C55.7367 11.7689 55.8449 11.5061 55.8441 11.2236C55.8449 10.9408 55.7328 10.6779 55.5207 10.451C55.3043 10.2174 55.0109 10.0986 54.668 10.0998H52.9844V12.3561H53.0844V12.2561H53.1844V10.2998H54.668C54.968 10.301 55.1941 10.3955 55.3742 10.5873C55.5586 10.7865 55.6437 10.9932 55.6441 11.2236C55.6437 11.4553 55.5605 11.6639 55.3816 11.8658V11.8654C55.2055 12.0607 54.9898 12.1549 54.7035 12.1561H53.0844V12.2561H53.1844H53.0844ZM53.0844 9.44747V9.54747H54.5461C54.8703 9.54857 55.1484 9.43567 55.3504 9.21307C55.5476 8.99817 55.6527 8.74977 55.6519 8.48457C55.6527 8.22047 55.5512 7.97438 55.3597 7.76148C55.164 7.54158 54.8945 7.42987 54.5812 7.43107H52.9844V9.54747H53.0844V9.44747H53.1844V7.63107H54.5812C54.85 7.63217 55.0512 7.71858 55.2109 7.89508C55.375 8.07947 55.4512 8.27127 55.4519 8.48457C55.4512 8.69747 55.3726 8.89078 55.2027 9.07828C55.0375 9.25758 54.8273 9.34627 54.5461 9.34747H53.0844V9.44747H53.1844H53.0844ZM52.2797 13.026H52.3797V6.86068H54.5461C55.0144 6.86148 55.4094 7.01307 55.7515 7.32087C56.0914 7.62867 56.2555 8.00177 56.2566 8.46697C56.2562 8.74787 56.1851 8.98808 56.0426 9.19898C55.898 9.41148 55.7082 9.57007 55.4668 9.68027L55.4082 9.70678V9.80607V9.87748L55.4758 9.90057C55.768 10.0006 56.0035 10.1682 56.1906 10.41C56.3754 10.6502 56.4672 10.9221 56.4676 11.2412C56.4664 11.7295 56.2926 12.1221 55.9363 12.4443L55.9344 12.4459L55.9363 12.4443C55.5758 12.7666 55.1597 12.9252 54.668 12.926H52.2797V13.026H52.3797H52.2797V13.126H54.668C55.2039 13.1268 55.6765 12.9467 56.0699 12.5932C56.4656 12.2389 56.6687 11.7787 56.6676 11.2412C56.668 10.883 56.5605 10.5611 56.3488 10.2877C56.1394 10.0158 55.8672 9.82208 55.5402 9.71108L55.5082 9.80607H55.6082V9.77127H55.5082L55.5496 9.86227C55.8215 9.73887 56.0437 9.55368 56.2078 9.31108C56.3742 9.06698 56.457 8.78177 56.4566 8.46697C56.4578 7.95287 56.2644 7.51227 55.8855 7.17247C55.5109 6.83297 55.0586 6.66038 54.5461 6.66068H52.1797V13.126H52.2797V13.026Z" fill="white"/>
    <path d="M58.744 10.5758H60.827L59.8034 7.74919H59.7687L58.744 10.5758ZM56.9688 13.0254L59.3312 6.76009H60.2409L62.6034 13.0254H61.7108L61.1073 11.3277H58.4734L57.8604 13.0254H56.9688Z" fill="white"/>
    <path d="M58.7441 10.5764V10.6764H60.9695L59.8738 7.64978H59.7688H59.6984L58.6016 10.6764H58.7441V10.5764L58.8383 10.6104L59.8625 7.78378L59.7688 7.74978V7.84978H59.8035V7.74978L59.7098 7.78378L60.6848 10.4764H58.7441V10.5764L58.8383 10.6104L58.7441 10.5764ZM56.9688 13.026L57.0625 13.0615L59.4004 6.86068H60.1719L62.459 12.926H61.7816L61.1781 11.2283H58.4035L57.7902 12.926H56.9688V13.026L57.0625 13.0615L56.9688 13.026V13.126H57.8605H57.9305L58.5438 11.4283H61.0367L61.6402 13.126H62.6035H62.748L60.3105 6.66068H59.3313H59.2617L56.8242 13.126H56.9688V13.026Z" fill="white"/>
    <path d="M63.4121 13.0254V6.76009H64.2168V9.44689H67.3496V6.76009H68.1543V13.0254H67.3496V10.1992H64.2168V13.0254H63.4121Z" fill="white"/>
    <path d="M63.4125 13.026H63.5125V6.86068H64.1172V9.54748H67.45V6.86068H68.0547V12.926H67.45V10.0998H64.1172V12.926H63.4125V13.026H63.5125H63.4125V13.126H64.2172H64.3172V10.2998H67.25V13.126H68.1547H68.2547V6.66068H67.35H67.25V9.34748H64.3172V6.66068H63.4125H63.3125V13.126H63.4125V13.026Z" fill="white"/>
    <path d="M71.5723 13.0254H70.7676V7.53049H69.0176V6.76009H73.3223V7.53049H71.5723V13.0254Z" fill="white"/>
    <path d="M71.5727 13.026V12.926H70.868V7.43108H69.118V6.86068H73.2227V7.43108H71.4727V13.026H71.5727V12.926V13.026H71.6727V7.63108H73.4227V6.76068V6.66068H68.918V7.53108V7.63108H70.668V13.126H71.5727H71.6727V13.026H71.5727Z" fill="white"/>
    <path d="M74.8848 10.5758H76.968L75.9441 7.74919H75.9094L74.8848 10.5758ZM73.1094 13.0254L75.4719 6.76009H76.3816L78.7441 13.0254H77.8516L77.248 11.3277H74.6145L74.0012 13.0254H73.1094Z" fill="white"/>
    <path d="M74.8849 10.5764V10.6764H77.1103L76.0146 7.64978H75.9095H75.8392L74.7422 10.6764H74.8849V10.5764L74.979 10.6104L76.0032 7.78378L75.9095 7.74978V7.84978H75.9442V7.74978L75.8505 7.78378L76.8255 10.4764H74.8849V10.5764L74.979 10.6104L74.8849 10.5764ZM73.1094 13.026L73.2027 13.0615L75.5407 6.86068H76.313L78.5997 12.926H77.9224L77.3189 11.2283H74.5441L73.9309 12.926H73.1094V13.026L73.2027 13.0615L73.1094 13.026V13.126H74.0012H74.0711L74.6844 11.4283H77.1774L77.781 13.126H78.7442H78.8888L76.4513 6.66068H75.472H75.4024L72.9648 13.126H73.1094V13.026Z" fill="white"/>
    <path d="M83.5528 10.1555V13.0254H82.7481V10.1555H82.7125L80.2801 13.0254H79.2305V12.9906L81.8731 9.96289L79.3348 6.79529V6.76009H80.3153L82.7125 9.80549H82.7481V6.76009H83.5528V9.80549H83.5875L85.9852 6.76009H86.9656V6.79529L84.4278 9.96289L87.0699 12.9906V13.0254H86.0203L83.5875 10.1555H83.5528Z" fill="white"/>
    <path d="M83.5512 10.1561H83.4512V12.926H82.8465V10.0561H82.7109H82.6648L80.232 12.926H79.2289V13.026H79.3289V12.9912H79.2289L79.3039 13.0572L82.0015 9.96618L79.4332 6.76108V6.76068H79.3332V6.86068H80.2652L82.6625 9.90608H82.7465H82.8465V6.86068H83.4512V9.90608H83.5859H83.6347L86.032 6.86068H86.964V6.76068H86.864V6.76108L84.2957 9.96618L86.9933 13.0572L87.0683 12.9912H86.9683V13.026H87.0683V12.926H86.0648L83.6324 10.0561H83.5512H83.4512V10.1561H83.5512V10.2561H83.5859V10.1561L83.5097 10.2205L85.9722 13.126H87.0683H87.1683V12.9912V12.9537L84.5562 9.96068L87.064 6.83108V6.76068V6.66068H85.9836H85.9351L83.5074 9.74388L83.5859 9.80608V9.70608H83.5512V9.80608H83.6512V6.66068H82.7465H82.6465V9.80608H82.7465V9.70608H82.7109V9.80608L82.7898 9.74388L80.3621 6.66068H79.3332H79.2332V6.79588V6.83108L81.741 9.96068L79.1289 12.9537V13.026V13.126H80.2785H80.325L82.7875 10.2205L82.7109 10.1561V10.2561H82.7465V10.1561H82.6465V13.126H83.5512H83.6512V10.1561H83.5512V10.2561V10.1561Z" fill="white"/>
    <path d="M92.666 6.76009V13.0254H91.861V9.12259L91.896 7.91559H91.861L88.6758 13.0254H87.8359V6.76009H88.6406V10.4269L88.6063 11.6344H88.6406L91.687 6.76009H92.666Z" fill="white"/>
    <path d="M92.6645 6.76068H92.5645V12.926H91.9595V9.12438L91.9945 7.91888L91.9975 7.81618H91.8595H91.8045L88.6188 12.926H87.9344V6.86068H88.5391V10.4268L88.5051 11.6322L88.502 11.735H88.6391H88.6946L91.7405 6.86068H92.6645V6.76068H92.5645H92.6645V6.66068H91.6855H91.6295L88.5544 11.5818L88.6391 11.635V11.535H88.6048V11.635L88.7048 11.6377L88.7391 10.4303V10.4287V6.66068H87.8344H87.7344V13.126H88.6743H88.7298L91.9445 7.96888L91.8595 7.91618V8.01618H91.8945V7.91618L91.7955 7.91348L91.7595 9.12008V9.12208V13.126H92.6645H92.7645V6.66068H92.6645V6.76068Z" fill="white"/>
    <path d="M96.0843 13.0254H95.2793V7.53049H93.5293V6.76009H97.8343V7.53049H96.0843V13.0254Z" fill="white"/>
    <path d="M96.0847 13.026V12.926H95.3797V7.43108H93.6297V6.86068H97.7347V7.43108H95.9847V13.026H96.0847V12.926V13.026H96.1847V7.63108H97.9347V6.76068V6.66068H93.4297V7.53108V7.63108H95.1797V13.126H96.0847H96.1847V13.026H96.0847Z" fill="white"/>
    <path d="M103.557 6.76009V13.0254H102.752V9.12259L102.787 7.91559H102.752L99.5656 13.0254H98.7266V6.76009H99.5306V10.4269L99.4966 11.6344H99.5306L102.577 6.76009H103.557Z" fill="white"/>
    <path d="M103.557 6.76068H103.457V12.926H102.852V9.12438L102.887 7.91888L102.89 7.81618H102.752H102.696L99.5109 12.926H98.827V6.86068H99.431V10.4268L99.3969 11.6322L99.3939 11.735H99.531H99.587L102.633 6.86068H103.557V6.76068H103.457H103.557V6.66068H102.577H102.522L99.4459 11.5818L99.531 11.635V11.535H99.4969V11.635L99.5969 11.6377L99.631 10.4303V10.4287V6.66068H98.727H98.627V13.126H99.566H99.6219L102.837 7.96888L102.752 7.91618V8.01618H102.787V7.91618L102.687 7.91348L102.652 9.12008V9.12208V13.126H103.557H103.657V6.66068H103.557V6.76068Z" fill="white"/>
    <path d="M108.388 13.166C107.984 13.166 107.594 13.0398 107.215 12.7895C106.836 12.5391 106.573 12.1656 106.428 11.6699L107.162 11.3633C107.256 11.6902 107.41 11.9437 107.626 12.1246C107.842 12.3059 108.096 12.3961 108.388 12.3961C108.714 12.3961 108.995 12.2937 109.231 12.0898C109.468 11.8855 109.586 11.6316 109.586 11.3281C109.586 11.0309 109.465 10.7805 109.223 10.5762C108.98 10.3723 108.69 10.2695 108.353 10.2695H107.836V9.51722H108.291C108.606 9.51722 108.867 9.42972 109.074 9.25512C109.281 9.07972 109.385 8.84692 109.385 8.55472C109.385 8.28052 109.284 8.06452 109.083 7.90702C108.882 7.74962 108.632 7.67072 108.335 7.67072C107.821 7.67072 107.475 7.93092 107.294 8.44962L106.55 8.13482C106.666 7.81412 106.874 7.52812 107.171 7.27732C107.469 7.02662 107.856 6.90082 108.335 6.90082C108.871 6.90082 109.317 7.05702 109.674 7.36912C110.029 7.68122 110.207 8.07622 110.207 8.55472C110.207 9.13162 109.939 9.56052 109.402 9.84062V9.87621C109.694 9.99801 109.935 10.1852 110.124 10.4355C110.314 10.6863 110.408 10.9844 110.408 11.3281C110.408 11.8594 110.213 12.2984 109.822 12.6453C109.432 12.9922 108.953 13.166 108.388 13.166Z" fill="white"/>
    <path d="M108.386 13.1656V13.0656C108.004 13.0652 107.634 12.9473 107.268 12.7058C106.91 12.4687 106.663 12.1191 106.522 11.6414L106.426 11.6695L106.464 11.7617L107.199 11.4551L107.16 11.3629L107.064 11.3902C107.162 11.732 107.326 12.0055 107.56 12.2008C107.792 12.3969 108.073 12.4961 108.386 12.4957C108.733 12.4965 109.042 12.3848 109.295 12.1652C109.551 11.9461 109.685 11.6578 109.684 11.3277C109.685 11.0027 109.546 10.7176 109.285 10.4992C109.026 10.2801 108.709 10.1683 108.351 10.1691H107.934V9.61682H108.289C108.622 9.61722 108.91 9.52262 109.137 9.33082C109.366 9.13872 109.484 8.86952 109.483 8.55432C109.485 8.25582 109.368 8.00192 109.143 7.82812L109.14 7.82622L109.143 7.82812C108.922 7.65512 108.647 7.56992 108.333 7.57032C107.783 7.56482 107.382 7.86832 107.198 8.41642L107.292 8.44922L107.331 8.35702L106.587 8.04222L106.548 8.13442L106.642 8.16832C106.752 7.86602 106.948 7.59532 107.233 7.35312V7.35352C107.511 7.12032 107.871 7.00122 108.333 7.00042C108.85 7.00122 109.268 7.14922 109.606 7.44412V7.44372C109.941 7.74022 110.104 8.10082 110.105 8.55432C110.102 9.09922 109.864 9.48122 109.354 9.75192L109.3 9.78012V9.87582V9.94222L109.362 9.96802C109.638 10.0836 109.863 10.2586 110.042 10.4953C110.218 10.7289 110.306 11.0019 110.306 11.3277C110.305 11.8344 110.125 12.2391 109.754 12.5703C109.381 12.9004 108.931 13.0648 108.386 13.0656V13.1656V13.2656C108.971 13.2664 109.478 13.0832 109.887 12.7199C110.297 12.3566 110.508 11.8836 110.506 11.3277C110.507 10.9656 110.405 10.6433 110.202 10.375C110.002 10.1109 109.747 9.91172 109.439 9.78322L109.4 9.87582H109.5V9.84022H109.4L109.447 9.92892C110.009 9.63912 110.309 9.16372 110.305 8.55432C110.306 8.05122 110.113 7.62152 109.738 7.29372V7.29332C109.363 6.96442 108.888 6.80002 108.333 6.80042C107.838 6.80002 107.423 6.93162 107.104 7.20042V7.20082C106.797 7.46052 106.577 7.76132 106.454 8.10042L106.421 8.18942L107.253 8.54142L107.351 8.58322L107.386 8.48202C107.563 7.99222 107.855 7.77622 108.333 7.77072C108.613 7.77112 108.837 7.84332 109.019 7.98552C109.197 8.12622 109.281 8.30392 109.283 8.55432C109.281 8.82302 109.192 9.01992 109.008 9.17812C108.82 9.33592 108.586 9.41602 108.289 9.41682H107.834H107.734V10.2691V10.3691H108.351C108.668 10.3699 108.931 10.4637 109.156 10.6523C109.379 10.8422 109.483 11.0582 109.484 11.3277C109.483 11.6051 109.381 11.8246 109.164 12.0137C108.945 12.2023 108.691 12.2949 108.386 12.2957C108.114 12.2949 107.887 12.2137 107.688 12.0476V12.0473C107.49 11.8812 107.346 11.648 107.256 11.3351L107.225 11.2273L106.387 11.5773L106.305 11.6117L106.33 11.6976C106.48 12.2113 106.758 12.6086 107.158 12.8726C107.55 13.132 107.961 13.266 108.386 13.2656V13.1656Z" fill="white"/>
  </g>
  <defs>
    <linearGradient id="paint0_linear_16369_30045" x1="21.7998" y1="8.70985" x2="5.01726" y2="25.4923" gradientUnits="userSpaceOnUse">
      <stop stop-color="#00A0FF"/>
      <stop offset="0.00657445" stop-color="#00A1FF"/>
      <stop offset="0.2601" stop-color="#00BEFF"/>
      <stop offset="0.5122" stop-color="#00D2FF"/>
      <stop offset="0.7604" stop-color="#00DFFF"/>
      <stop offset="1" stop-color="#00E3FF"/>
    </linearGradient>
    <linearGradient id="paint1_linear_16369_30045" x1="33.8344" y1="20.0012" x2="9.63744" y2="20.0012" gradientUnits="userSpaceOnUse">
      <stop stop-color="#FFE000"/>
      <stop offset="0.4087" stop-color="#FFBD00"/>
      <stop offset="0.7754" stop-color="#FFA500"/>
      <stop offset="1" stop-color="#FF9C00"/>
    </linearGradient>
    <linearGradient id="paint2_linear_16369_30045" x1="24.8266" y1="22.2961" x2="2.0683" y2="45.0544" gradientUnits="userSpaceOnUse">
      <stop stop-color="#FF3A44"/>
      <stop offset="1" stop-color="#C31162"/>
    </linearGradient>
    <linearGradient id="paint3_linear_16369_30045" x1="7.29651" y1="0.176376" x2="17.459" y2="10.3389" gradientUnits="userSpaceOnUse">
      <stop stop-color="#32A071"/>
      <stop offset="0.0685" stop-color="#2DA771"/>
      <stop offset="0.4762" stop-color="#15CF74"/>
      <stop offset="0.8009" stop-color="#06E775"/>
      <stop offset="1" stop-color="#00F076"/>
    </linearGradient>
    <linearGradient id="paint4_linear_16369_30045" x1="33.813" y1="20.0143" x2="9.69075" y2="20.0143" gradientUnits="userSpaceOnUse">
      <stop stop-color="#CCB300"/>
      <stop offset="0.4087" stop-color="#CC9700"/>
      <stop offset="0.7754" stop-color="#CC8400"/>
      <stop offset="1" stop-color="#CC7D00"/>
    </linearGradient>
    <linearGradient id="paint5_linear_16369_30045" x1="24.827" y1="22.2961" x2="2.06874" y2="45.0544" gradientUnits="userSpaceOnUse">
      <stop stop-color="#CC2E36"/>
      <stop offset="1" stop-color="#9C0E4E"/>
    </linearGradient>
    <linearGradient id="paint6_linear_16369_30045" x1="21.7867" y1="8.70945" x2="5.00417" y2="25.4734" gradientUnits="userSpaceOnUse">
      <stop stop-color="#008DE0"/>
      <stop offset="0.00657445" stop-color="#008DE0"/>
      <stop offset="0.2601" stop-color="#00A7E0"/>
      <stop offset="0.5122" stop-color="#00B8E0"/>
      <stop offset="0.7604" stop-color="#00C4E0"/>
      <stop offset="1" stop-color="#00C7E0"/>
    </linearGradient>
    <linearGradient id="paint7_linear_16369_30045" x1="24.7834" y1="22.3269" x2="2.09458" y2="45.0162" gradientUnits="userSpaceOnUse">
      <stop stop-color="#E0333C"/>
      <stop offset="1" stop-color="#AB0F56"/>
    </linearGradient>
    <linearGradient id="paint8_linear_16369_30045" x1="33.8348" y1="20.001" x2="9.6378" y2="20.001" gradientUnits="userSpaceOnUse">
      <stop stop-color="#E0C500"/>
      <stop offset="0.4087" stop-color="#E0A600"/>
      <stop offset="0.7754" stop-color="#E09100"/>
      <stop offset="1" stop-color="#E08900"/>
    </linearGradient>
    <linearGradient id="paint9_linear_16369_30045" x1="33.8332" y1="20.001" x2="9.63626" y2="20.001" gradientUnits="userSpaceOnUse">
      <stop stop-color="#FFE840"/>
      <stop offset="0.4087" stop-color="#FFCE40"/>
      <stop offset="0.7754" stop-color="#FFBC40"/>
      <stop offset="1" stop-color="#FFB540"/>
    </linearGradient>
    <linearGradient id="paint10_linear_16369_30045" x1="21.7866" y1="8.71004" x2="5.00415" y2="25.4739" gradientUnits="userSpaceOnUse">
      <stop stop-color="#40B8FF"/>
      <stop offset="0.00657445" stop-color="#40B9FF"/>
      <stop offset="0.2601" stop-color="#40CEFF"/>
      <stop offset="0.5122" stop-color="#40DDFF"/>
      <stop offset="0.7604" stop-color="#40E7FF"/>
      <stop offset="1" stop-color="#40EAFF"/>
    </linearGradient>
    <linearGradient id="paint11_linear_16369_30045" x1="7.29735" y1="0.176015" x2="17.4598" y2="10.3385" gradientUnits="userSpaceOnUse">
      <stop stop-color="#65B895"/>
      <stop offset="0.0685" stop-color="#62BD95"/>
      <stop offset="0.4762" stop-color="#50DB97"/>
      <stop offset="0.8009" stop-color="#44ED98"/>
      <stop offset="1" stop-color="#40F498"/>
    </linearGradient>
    <clipPath id="clip0_16369_30045">
      <rect width="136" height="40" fill="white"/>
    </clipPath>
  </defs>
</svg>
