<svg width="52" height="57" fill="none" xmlns="http://www.w3.org/2000/svg"><path d="M35.317 47.992c.216 0 .433.108.65.216l7.908 5.525-2.275-8.775c-.108-.433 0-.758.325-1.083 5.092-4.55 8.017-11.158 8.017-17.983 0-13.109-10.725-23.725-23.834-23.725H26c-6.392 0-12.35 2.491-16.792 7.041-4.441 4.55-6.933 10.509-6.933 16.9 0 6.392 2.492 12.35 7.042 16.792 4.441 4.442 10.4 6.933 16.791 6.933h.109c3.033 0 5.958-.541 8.775-1.733 0-.108.216-.108.325-.108zm8.883 8.233c-.542 0-.975-.217-1.408-.542l-7.584-5.308a25.995 25.995 0 0 1-9.1 1.625H26c-6.933 0-13.433-2.708-18.308-7.583S0 33.042 0 26.108c0-6.933 2.6-13.433 7.583-18.416C12.567 2.708 18.958 0 25.892 0H26c14.3 0 25.892 11.592 26 25.892 0 7.258-3.033 14.083-8.233 19.066l2.383 8.992v.325c0 .542-.325 1.083-.65 1.408-.433.325-.867.542-1.3.542z" fill="#4D4D5C"/><path d="M35.858 20.692v-1.734a.971.971 0 0 0-.975-.975c-3.359 0-5.959-.975-8.125-3.033-.434-.433-.975-.433-1.409 0-2.166 2.058-4.766 3.033-8.125 3.033a.971.971 0 0 0-.975.975v1.734c-.108 5.85-.216 13.866 9.534 17.333.108 0 .216.108.325.108.108 0 .216 0 .325-.108 9.75-3.358 9.533-11.483 9.425-17.333zm-9.859 15.275c-8.125-2.925-7.908-9.425-7.8-15.167v-.867c3.142-.216 5.634-1.083 7.8-2.925 2.167 1.842 4.659 2.817 7.8 2.925v.867c.109 5.633.217 12.133-7.8 15.167z" fill="#F91F2B"/><path d="M29.359 23.074c-.325 0-.542.109-.759.325l-3.791 3.792-1.517-1.517c-.433-.433-1.083-.433-1.408 0-.434.434-.434 1.084 0 1.409l2.275 2.275c.216.216.433.325.758.325s.542-.109.758-.325l4.442-4.442c.217-.217.325-.433.325-.758s-.108-.542-.325-.759a1.17 1.17 0 0 0-.758-.325z" fill="#F91F2B"/></svg>