<svg width="52" height="57" fill="none" xmlns="http://www.w3.org/2000/svg"><path d="M35.317 47.992c.216 0 .433.108.65.216l7.908 5.525-2.275-8.775c-.108-.433 0-.758.325-1.083 5.092-4.55 8.017-11.158 8.017-17.983C49.725 12.783 39.108 2.167 26 2.167h-.108c-6.392 0-12.35 2.491-16.792 7.041-4.55 4.55-6.933 10.509-6.933 16.9 0 6.392 2.491 12.35 7.041 16.792 4.442 4.442 10.4 6.933 16.792 6.933h.108c3.034 0 5.959-.541 8.775-1.733.109-.108.325-.108.434-.108zm8.883 8.233c-.542 0-.975-.217-1.408-.542l-7.584-5.308a25.995 25.995 0 0 1-9.1 1.625H26c-6.933 0-13.433-2.708-18.308-7.583C2.708 39.542 0 33.042 0 26.108c0-6.933 2.6-13.433 7.583-18.416C12.567 2.708 18.958 0 25.892 0H26c14.3 0 25.892 11.592 26 25.892 0 7.258-3.033 14.083-8.233 19.066l2.383 8.992v.325c0 .542-.325 1.083-.65 1.408-.433.325-.867.542-1.3.542z" fill="#4D4D5C"/><path d="M34.017 27.95H25.46c.433-.216.975-.433 1.408-.65 1.625-.758 3.358-1.625 4.658-2.708h2.492c.542 0 1.083-.433 1.083-1.083 0-.65-.433-1.084-1.083-1.084h-.867c.867-1.733.867-3.683-.108-5.416-1.192-2.276-3.792-3.792-6.608-3.792-2.492 0-4.442.758-5.959 2.166-.216.217-.325.434-.325.759s.109.541.325.758a1.047 1.047 0 0 0 1.517 0c1.083-1.083 2.6-1.516 4.55-1.516 2.058 0 3.9.974 4.767 2.6.65 1.3.65 2.816-.217 4.116l-.325.325H17.984c-.542 0-1.084.433-1.084 1.084 0 .541.434 1.083 1.084 1.083h9.533c-.542.325-1.083.542-1.625.758-1.408.65-3.25 1.517-4.55 2.6h-3.358c-.542 0-1.084.434-1.084 1.084 0 .65.434 1.083 1.084 1.083h1.408c-.867 1.517-1.083 3.358-.542 4.983.975 2.709 3.684 4.225 7.367 4.225h.325c2.275 0 4.117-.65 5.525-1.842.217-.216.325-.433.325-.758s-.108-.541-.217-.758c-.216-.217-.433-.325-.758-.325s-.542.108-.758.216c-1.084.867-2.492 1.3-4.225 1.409-2.925 0-4.984-1.084-5.634-2.817-.541-1.517-.108-3.033 1.192-4.225H33.91c.541 0 1.083-.433 1.083-1.083 0-.325-.108-.542-.325-.758-.108-.326-.433-.434-.65-.434z" fill="#F91F2B"/></svg>