<svg width="52" height="57" fill="none" xmlns="http://www.w3.org/2000/svg"><path d="M35.317 47.992c.216 0 .433.108.65.216l7.908 5.525-2.275-8.775c-.108-.433 0-.758.325-1.083 5.092-4.55 8.017-11.158 8.017-17.983 0-13.109-10.725-23.725-23.834-23.725H26c-6.392 0-12.35 2.491-16.792 7.041-4.441 4.55-6.933 10.509-6.933 16.9 0 6.392 2.492 12.35 7.042 16.792 4.441 4.442 10.4 6.933 16.791 6.933h.109c3.033 0 5.958-.541 8.775-1.733.108-.108.216-.108.325-.108zm8.883 8.233c-.542 0-.975-.217-1.408-.542l-7.584-5.308a25.995 25.995 0 0 1-9.1 1.625H26c-6.933 0-13.433-2.708-18.308-7.583S0 33.042 0 26.108c0-6.933 2.6-13.433 7.583-18.416C12.567 2.708 18.958 0 25.892 0H26c14.3 0 25.892 11.592 26 25.892 0 7.258-3.033 14.083-8.233 19.066l2.383 8.992v.325c0 .542-.325 1.083-.65 1.408a1.999 1.999 0 0 1-1.3.542z" fill="#4D4D5C"/><path d="M30.224 20.259h5.092a1.04 1.04 0 0 0 .758-.975c0-.434-.325-.867-.867-.975h-4.983c-.433 0-.867.216-.975.65-.108.325-.108.65.108.866.109.217.434.434.867.434zm-9.315 12.025c.325-.325.325-.65.216-1.083-.108-.325-.433-.542-.866-.65-.325 0-.542.108-.759.325l-.866.866-.217.217-.108-.108-.325-.325-.65-.65c-.217-.217-.65-.325-.975-.217a.977.977 0 0 0-.65.65c-.109.325 0 .65.325.975.216.217.541.542.866.758l.217.217-.217.217-.866.866c-.325.325-.325.65-.217.975.108.325.433.542.758.65h.109c.216 0 .541-.108.758-.325l.975-1.083.325.325.758.758c.217.217.542.325.867.325.433 0 .65-.216.758-.65.109-.433.109-.758-.216-1.083l-.759-.758-.325-.217.325-.325c.217-.217.542-.433.759-.65zM15.816 20.15h1.842v1.408c0 .541.433.975.975.975a.971.971 0 0 0 .975-.975V20.04h1.516c.217 0 .542-.108.759-.325.216-.216.325-.65.108-.975-.108-.325-.433-.541-.867-.541h-1.516v-1.517c0-.325-.217-.65-.434-.867-.216-.216-.541-.216-.866-.108-.434.108-.65.542-.65.975v1.408H16.14c-.433 0-.867.325-.867.758-.216.759 0 1.192.542 1.3zm19.177 10.618h-4.875c-.325 0-.65.108-.759.325-.216.216-.216.433-.216.758 0 .542.433.867 1.083.867H35.1a.971.971 0 0 0 .975-.975c0-.217-.108-.542-.217-.65-.325-.217-.541-.325-.866-.325zm0 3.25h-4.767c-.216 0-.433.108-.65.216-.325.217-.541.65-.325 1.084.109.433.434.65.867.65h4.875c.65 0 1.083-.434 1.083-.975-.108-.542-.541-.975-1.083-.975z" fill="#F91F2B"/><path d="M35.966 25.35h-9.425V15.6a.97.97 0 0 0-.975-.975.97.97 0 0 0-.975.975v9.75h-9.425a.97.97 0 0 0-.975.975.97.97 0 0 0 .975.975h9.425v9.75a.97.97 0 0 0 .975.975.97.97 0 0 0 .975-.975V27.3h9.425a.97.97 0 0 0 .975-.975c0-.542-.541-.975-.975-.975z" fill="#F91F2B"/></svg>