<svg width="44" height="44" viewBox="0 0 44 44" fill="none" xmlns="http://www.w3.org/2000/svg">
<g clip-path="url(#clip0_14297_6264)">
<path d="M0 16.6117C0 10.7938 -4.17978e-06 7.88906 1.13437 5.67188C2.12266 3.7125 3.7125 2.12266 5.67188 1.13437C7.88906 0 10.7938 0 16.6117 0H27.3969C33.2062 0 36.1109 0 38.3281 1.13437C40.2789 2.13125 41.8687 3.72109 42.8656 5.67188C44 7.88906 44 10.7938 44 16.6117V27.3969C44 33.2062 44 36.1195 42.8656 38.3367C41.8687 40.2875 40.2789 41.8773 38.3281 42.8742C36.1109 44 33.2062 44 27.3883 44H16.6117C10.8023 44 7.88906 44 5.67188 42.8656C3.72109 41.8687 2.13125 40.2789 1.13437 38.3281C-4.17978e-06 36.1109 0 33.2062 0 27.3883V16.6117Z" fill="#400020"/>
<path d="M35.3463 24.7224C34.242 24.7224 33.1654 24.3251 32.3927 23.6326C31.5043 22.8361 31.0345 21.6987 31.0345 20.344C31.0345 18.9893 31.2894 17.9403 31.8359 17.0908C32.4204 16.1825 33.339 15.473 34.7258 14.8574C34.9315 14.7533 35.0963 14.6731 35.2417 14.6026C35.7052 14.3774 35.9167 14.2748 36.2882 13.9544C36.489 13.7808 36.6995 13.5036 36.8144 13.3066L38.7356 14.4854C38.2965 15.6238 37.1912 16.0648 36.1214 16.4912C35.1158 16.8925 34.1661 17.2712 33.7853 18.1888L33.8442 18.2316C34.4107 17.7434 35.1387 17.5051 35.8963 17.5051C36.8303 17.5051 37.7412 17.8936 38.3952 18.5715C39.0113 19.2095 39.3332 20.0551 39.3021 20.9523C39.2647 23.5432 37.2257 24.7228 35.3468 24.7228L35.3463 24.7224ZM35.1858 19.2747C34.718 19.2747 34.2828 19.4347 33.9594 19.725C33.6385 19.9856 33.4498 20.4043 33.4435 20.8721C33.4367 21.3641 33.6331 21.8305 33.9687 22.1188C34.2964 22.4291 34.7452 22.6008 35.231 22.6008C35.7528 22.6008 36.243 22.4053 36.5766 22.0639C36.8664 21.7673 37.0147 21.3826 37.0045 20.9523C37.0167 20.5234 36.8673 20.1354 36.5731 19.8324C36.2338 19.4833 35.7149 19.2747 35.1858 19.2747Z" fill="#FFF0EA"/>
<path d="M10.3474 24.3438V18.5659H7.50808V24.3438H5.21143V16.4292H12.6445V24.3438H10.3474Z" fill="#FFF0EA"/>
<path d="M28.0316 24.3438V20.0802L26.0351 22.9948L24.0369 20.0802V24.3438H21.8361V16.4292H24.0623L26.0341 19.5097L28.0064 16.4292H30.2321V24.3438H28.0316Z" fill="#FFF0EA"/>
<path d="M14.5145 24.4876C15.6669 24.4764 16.3016 24.1545 16.5106 23.373L16.516 23.3527L13.0552 16.4286H15.5002L17.6164 20.6247L17.6961 20.4394L18.9444 16.4286H21.3933L18.9245 23.2588C18.4887 24.5051 17.9597 25.3459 17.259 25.9055C16.5578 26.4652 15.6596 26.7425 14.514 26.7507V24.4876H14.5145Z" fill="#FFF0EA"/>
<path d="M20.5436 31.144C20.0331 31.144 19.62 30.9796 19.3043 30.6509C18.9928 30.3221 18.837 29.9047 18.837 29.3986C18.837 28.8492 18.9193 28.4231 19.0836 28.1204C19.2437 27.8175 19.5746 27.5429 20.0764 27.2963C20.0894 27.2876 20.1131 27.2747 20.1478 27.2574C20.1867 27.24 20.2256 27.2228 20.2645 27.2055C20.3078 27.1881 20.3489 27.1709 20.3879 27.1535L20.6604 27.0173C20.7253 26.987 20.7944 26.9481 20.868 26.9005C20.9761 26.8356 21.0562 26.7686 21.1081 26.6993C21.16 26.6301 21.2162 26.5263 21.2768 26.3879L21.9646 26.7837C21.9084 27.0475 21.7807 27.253 21.5817 27.4001C21.3785 27.5472 21.0843 27.6942 20.6993 27.8413C20.4311 27.9452 20.2321 28.0511 20.1024 28.1593C19.9725 28.2674 19.8795 28.3993 19.8233 28.5551C20.0612 28.3085 20.3857 28.1853 20.7966 28.1853C21.16 28.1853 21.48 28.3172 21.7569 28.581C22.0381 28.8405 22.1787 29.1866 22.1787 29.6192C22.1787 30.0647 22.0273 30.4303 21.7244 30.7158C21.426 31.0013 21.0324 31.144 20.5436 31.144ZM20.5306 28.8535C20.3143 28.8535 20.1239 28.9206 19.9596 29.0547C19.7952 29.1931 19.713 29.3727 19.713 29.5933C19.713 29.8225 19.7909 30.0107 19.9466 30.1578C20.1067 30.3048 20.3035 30.3784 20.5371 30.3784C20.775 30.3784 20.9675 30.307 21.1146 30.1642C21.266 30.0215 21.3417 29.8398 21.3417 29.6192C21.3417 29.3986 21.266 29.2169 21.1146 29.0742C20.9631 28.9271 20.7685 28.8535 20.5306 28.8535Z" fill="#FFF0EA"/>
<path d="M23.2323 27.4196C23.0939 27.4196 22.9728 27.3698 22.869 27.2704C22.7695 27.1665 22.7197 27.0454 22.7197 26.9069C22.7197 26.7686 22.7695 26.6474 22.869 26.5436C22.9728 26.4398 23.0939 26.3879 23.2323 26.3879C23.3751 26.3879 23.4963 26.4398 23.5957 26.5436C23.6995 26.6474 23.7514 26.7686 23.7514 26.9069C23.7514 27.0454 23.6995 27.1665 23.5957 27.2704C23.4963 27.3698 23.3751 27.4196 23.2323 27.4196ZM23.6541 31.0532H22.8171V27.8089H23.6541V31.0532Z" fill="#FFF0EA"/>
<path d="M26.3862 29.3986C26.715 29.5586 26.8793 29.816 26.8793 30.1708C26.8793 30.4562 26.7625 30.6898 26.5289 30.8715C26.2954 31.0532 25.9752 31.144 25.5687 31.144C24.9112 31.144 24.4634 30.8845 24.2255 30.3654L24.9068 29.9631C25.0106 30.2572 25.2334 30.4043 25.5751 30.4043C25.7308 30.4043 25.8498 30.374 25.932 30.3135C26.0185 30.2529 26.0618 30.1708 26.0618 30.0669C26.0618 29.8679 25.9342 29.7684 25.6789 29.7684H25.2182V29.0547H25.5687C25.8195 29.0547 25.945 28.9552 25.945 28.7562C25.945 28.661 25.9082 28.5854 25.8346 28.5291C25.7612 28.4729 25.6638 28.4448 25.5427 28.4448C25.2658 28.4448 25.0647 28.581 24.9393 28.8535L24.2644 28.4642C24.511 27.9668 24.9327 27.718 25.5297 27.718C25.9018 27.718 26.1958 27.8132 26.4121 28.0035C26.6327 28.1939 26.7431 28.421 26.7431 28.6848C26.7431 29.0006 26.6242 29.2385 26.3862 29.3986Z" fill="#FFF0EA"/>
<path d="M29.7502 29.0353V27.8088H30.5872V31.0532H29.7502V29.8203H28.459V31.0532H27.6219V27.8088H28.459V29.0353H29.7502Z" fill="#FFF0EA"/>
<path d="M34.5935 29.7749H32.1473C32.2554 30.1815 32.5604 30.3848 33.0622 30.3848C33.3823 30.3848 33.6246 30.2767 33.7889 30.0604L34.4638 30.4497C34.1436 30.9126 33.6721 31.144 33.0492 31.144C32.5128 31.144 32.0824 30.9818 31.758 30.6573C31.4336 30.3329 31.2714 29.9241 31.2714 29.431C31.2714 28.9466 31.4315 28.5399 31.7515 28.2112C32.0673 27.8824 32.4783 27.718 32.9844 27.718C33.4645 27.718 33.856 27.8824 34.1588 28.2112C34.4702 28.5399 34.6259 28.9466 34.6259 29.431C34.6259 29.5218 34.6152 29.6365 34.5935 29.7749ZM32.1343 29.1261H33.7889C33.7414 28.9141 33.644 28.7519 33.497 28.6394C33.3542 28.5269 33.1833 28.4707 32.9844 28.4707C32.7595 28.4707 32.5734 28.5291 32.4264 28.6459C32.2792 28.7584 32.182 28.9184 32.1343 29.1261Z" fill="#FFF0EA"/>
<path d="M36.9449 31.144C36.4561 31.144 36.0473 30.9796 35.7186 30.6509C35.3941 30.3221 35.2319 29.9155 35.2319 29.431C35.2319 28.9466 35.3941 28.5399 35.7186 28.2112C36.0473 27.8824 36.4561 27.718 36.9449 27.718C37.2607 27.718 37.5484 27.7937 37.8079 27.9452C38.0674 28.0966 38.2642 28.2998 38.3984 28.5551L37.6781 28.9768C37.6133 28.8428 37.5137 28.7367 37.3797 28.6589C37.2498 28.581 37.1028 28.5421 36.9384 28.5421C36.6875 28.5421 36.4799 28.6265 36.3155 28.7952C36.1511 28.9596 36.069 29.1715 36.069 29.431C36.069 29.6819 36.1511 29.8939 36.3155 30.0669C36.4799 30.2313 36.6875 30.3135 36.9384 30.3135C37.1071 30.3135 37.2564 30.2767 37.3861 30.2032C37.5202 30.1253 37.6197 30.0193 37.6846 29.8852L38.4114 30.3005C38.2686 30.5601 38.0653 30.7655 37.8014 30.917C37.5418 31.0683 37.2564 31.144 36.9449 31.144Z" fill="#FFF0EA"/>
</g>
<defs>
<clipPath id="clip0_14297_6264">
<rect width="44" height="44" fill="white"/>
</clipPath>
</defs>
</svg>
