<svg width="56" height="56" viewBox="0 0 56 56" fill="none" xmlns="http://www.w3.org/2000/svg">
<rect width="56" height="56" rx="12" fill="#605CE7"/>
<path d="M12.9219 21.6406C11.875 21.6406 11.2812 20.875 11.2812 20.1094C11.2812 19.5469 11.5781 19.0312 12.2656 18.6406L25.9844 10.7344C26.6406 10.3438 27.375 10.125 28.0781 10.125C28.7812 10.125 29.5156 10.3438 30.1719 10.7344L43.8906 18.6406C44.5625 19.0312 44.8906 19.5469 44.8906 20.1094C44.8906 20.875 44.2812 21.6406 43.25 21.6406H12.9219ZM13.75 41.0312C13.0469 41.0312 12.6406 40.625 12.6406 39.9219V39.6875C12.6406 39 13.0469 38.5938 13.75 38.5938H14.5V25.2656H13.75C13.0469 25.2656 12.6406 24.875 12.6406 24.1719V23.9531C12.6406 23.25 13.0469 22.8438 13.75 22.8438H18.0469C18.75 22.8438 19.1562 23.25 19.1562 23.9531V24.1719C19.1562 24.875 18.7344 25.2656 18.0469 25.2656H17.2812V38.5938H18.0469C18.7344 38.5938 19.1562 39 19.1562 39.6875V39.9219C19.1562 40.625 18.75 41.0312 18.0469 41.0312H13.75ZM21.8594 41.0312C21.1719 41.0312 20.7656 40.625 20.7656 39.9219V39.6875C20.7656 39 21.1719 38.5938 21.8594 38.5938H22.625V25.2656H21.8594C21.1719 25.2656 20.7656 24.875 20.7656 24.1719V23.9531C20.7656 23.25 21.1719 22.8438 21.8594 22.8438H26.1719C26.875 22.8438 27.2812 23.25 27.2812 23.9531V24.1719C27.2812 24.875 26.8594 25.2656 26.1719 25.2656H25.4062V38.5938H26.1719C26.8594 38.5938 27.2812 39 27.2812 39.6875V39.9219C27.2812 40.625 26.875 41.0312 26.1719 41.0312H21.8594ZM30 41.0312C29.2969 41.0312 28.875 40.625 28.875 39.9219V39.6875C28.875 39 29.2969 38.5938 30 38.5938H30.7656V25.2656H30C29.2969 25.2656 28.875 24.875 28.875 24.1719V23.9531C28.875 23.25 29.2969 22.8438 30 22.8438H34.2969C34.9844 22.8438 35.4062 23.25 35.4062 23.9531V24.1719C35.4062 24.875 34.9844 25.2656 34.2969 25.2656H33.5469V38.5938H34.2969C34.9844 38.5938 35.4062 39 35.4062 39.6875V39.9219C35.4062 40.625 34.9844 41.0312 34.2969 41.0312H30ZM38.1094 41.0312C37.4062 41.0312 37 40.625 37 39.9219V39.6875C37 39 37.4219 38.5938 38.1094 38.5938H38.875V25.2656H38.1094C37.4219 25.2656 37 24.875 37 24.1719V23.9531C37 23.25 37.4062 22.8438 38.1094 22.8438H42.4062C43.1094 22.8438 43.5312 23.25 43.5312 23.9531V24.1719C43.5312 24.875 43.1094 25.2656 42.4062 25.2656H41.6562V38.5938H42.4062C43.1094 38.5938 43.5312 39 43.5312 39.6875V39.9219C43.5312 40.625 43.1094 41.0312 42.4062 41.0312H38.1094ZM11.2656 45.2969C10.4375 45.2969 9.73438 44.6094 9.73438 43.7656C9.73438 42.9219 10.4375 42.2344 11.2656 42.2344H44.7344C45.5625 42.2344 46.2656 42.9219 46.2656 43.7656C46.2656 44.6094 45.5625 45.2969 44.7344 45.2969H11.2656Z" fill="white"/>
</svg>
