<svg width="56" height="56" viewBox="0 0 56 56" fill="none" xmlns="http://www.w3.org/2000/svg">
<rect width="56" height="56" rx="12" fill="#28AADA"/>
<path d="M10.125 24.5625H12C13.4688 17.0781 20.0781 11.4219 28 11.4219C37 11.4219 44.2969 18.7188 44.2969 27.7188C44.2969 36.7188 37 44.0156 28 44.0156C23.0625 44.0156 18.2188 41.6406 15.4375 37.9688C14.6562 37.0156 14.7656 35.8906 15.5469 35.2969C16.3906 34.6406 17.4375 34.8906 18.1719 35.6875C20.4844 38.5938 24 40.4375 28 40.4375C35.0312 40.4375 40.7188 34.75 40.7188 27.7188C40.7188 20.6875 35.0312 15 28 15C22.0625 15 17.0781 19.0625 15.6719 24.5625H17.6719C18.8594 24.5625 19.1719 25.5156 18.5312 26.3906L14.7969 31.5C14.3125 32.1719 13.5 32.1875 13 31.5L9.28125 26.3906C8.625 25.5156 8.92188 24.5625 10.125 24.5625ZM22.1875 26.2812C22.1875 26 22.3906 25.7969 22.6562 25.7969H29.3906C30.0469 25.4844 30.3281 24.8906 30.3281 24.3594C30.3281 23.1875 29.1562 22.6406 27.9531 22.6406C26.9844 22.6406 26.125 23 25.5781 23.9062C25.3125 24.2656 25.0312 24.4688 24.5625 24.4688C23.9844 24.4688 23.5781 24.1094 23.5781 23.5469C23.5781 23.125 23.6875 22.8281 23.8906 22.5C24.8594 21.0625 26.5625 20.6875 27.9688 20.6875C30.3438 20.6875 32.6875 21.7969 32.6875 24.1719C32.6875 24.8125 32.4219 25.375 32.0156 25.7969H33.4062C33.6719 25.7969 33.875 26 33.875 26.2812C33.875 26.5625 33.6719 26.7656 33.4062 26.7656H22.6562C22.3906 26.7656 22.1875 26.5625 22.1875 26.2812ZM22.1875 28.6875C22.1875 28.4062 22.3906 28.2031 22.6562 28.2031H33.4062C33.6719 28.2031 33.875 28.4062 33.875 28.6875C33.875 28.9531 33.6719 29.1719 33.4062 29.1719H26.625C25.9375 29.5 25.5781 30.0938 25.5781 30.7969C25.5781 31.9688 26.7812 32.5938 28.0938 32.5938C29.2656 32.5938 30.1719 32.1562 30.6875 31.1875C30.9688 30.7969 31.25 30.5938 31.7188 30.5938C32.2969 30.5938 32.75 30.9688 32.75 31.5312C32.75 31.8125 32.625 32.1406 32.4688 32.4375C31.6875 33.9531 29.8906 34.5469 28.0469 34.5469C25.7031 34.5469 23.2031 33.3906 23.2031 31.0312C23.2031 30.3281 23.5156 29.6406 24.0469 29.1719H22.6562C22.3906 29.1719 22.1875 28.9531 22.1875 28.6875Z" fill="white"/>
</svg>
