<svg width="56" height="56" viewBox="0 0 56 56" fill="none" xmlns="http://www.w3.org/2000/svg">
<rect width="56" height="56" rx="12" fill="#3AC45C"/>
<path d="M28.3281 27.3125C24.875 27.3125 22 24.25 22 20.3281C22 16.5156 24.8906 13.5312 28.3281 13.5312C31.7656 13.5312 34.6719 16.5625 34.6719 20.3594C34.6719 24.25 31.7812 27.3125 28.3281 27.3125ZM28.3438 30.0625C30.8125 30.0625 33.0156 30.5938 34.8438 31.4531C32.6094 33.3594 31.1875 36.1875 31.1875 39.3281C31.1875 40.2031 31.3125 41.0625 31.5312 41.8906H18.6562C16 41.8906 15.0938 41.0625 15.0938 39.5781C15.0938 35.5625 20.2344 30.0625 28.3438 30.0625ZM41.6094 47.4531C37.1562 47.4531 33.4844 43.7812 33.4844 39.3281C33.4844 34.875 37.1562 31.2031 41.6094 31.2031C46.0625 31.2031 49.7188 34.875 49.7188 39.3281C49.7188 43.75 46.0156 47.4531 41.6094 47.4531ZM41.6094 44.5156C42.2969 44.5156 42.75 44.0625 42.75 43.375V40.4688H45.6406C46.3281 40.4688 46.7812 40.0156 46.7812 39.3281C46.7812 38.6406 46.3281 38.1875 45.6406 38.1875H42.75V35.2969C42.75 34.6094 42.2969 34.1562 41.6094 34.1562C40.9062 34.1562 40.4531 34.625 40.4531 35.2969V38.1875H37.5625C36.875 38.1875 36.4219 38.6406 36.4219 39.3281C36.4219 40.0156 36.8906 40.4688 37.5625 40.4688H40.4531V43.375C40.4531 44.0625 40.9062 44.5156 41.6094 44.5156Z" fill="white"/>
</svg>
