<svg width="56" height="56" viewBox="0 0 56 56" fill="none" xmlns="http://www.w3.org/2000/svg">
<rect width="56" height="56" rx="12" fill="#F91F2B"/>
<path d="M12.5625 25.4688V22.2031C12.5625 20.0938 13.8125 19.0938 15.8281 19.0938H18.5625C17.6719 18.2031 17.125 17 17.125 15.6094C17.125 12.4531 19.6562 10.1719 22.8125 10.1719C25.2031 10.1719 27.25 11.5469 28 13.9688C28.75 11.5469 30.7969 10.1719 33.1875 10.1719C36.3438 10.1719 38.875 12.4531 38.875 15.6094C38.875 17 38.3281 18.2031 37.4375 19.0938H40.1719C42.2656 19.0938 43.4375 20.0938 43.4375 22.2031V25.4688C43.4375 27.2656 42.4062 28.125 40.625 28.125H29.625V19.0938H26.375V16.9531C26.375 14.8125 24.9375 13.375 23.1719 13.375C21.5 13.375 20.3906 14.3906 20.3906 16.0156C20.3906 17.6875 21.7344 19.0938 24.0938 19.0938H26.375V28.125H15.375C13.6094 28.125 12.5625 27.2656 12.5625 25.4688ZM32.8281 13.375C31.0625 13.375 29.625 14.8125 29.625 16.9531V19.0938H31.9062C34.25 19.0938 35.6094 17.6875 35.6094 16.0156C35.6094 14.3906 34.5 13.375 32.8281 13.375ZM14.6719 39.4844V30.1719H26.375V43.6875H19C16.2656 43.6875 14.6719 42.1875 14.6719 39.4844ZM29.625 43.6875V30.1719H41.3281V39.4844C41.3281 42.1875 39.7188 43.6875 37 43.6875H29.625Z" fill="white"/>
</svg>
