<svg width="200" height="200" viewBox="0 0 200 200" fill="none" xmlns="http://www.w3.org/2000/svg">
  <g filter="url(#filter0_d_21193_8044)">
    <circle cx="100" cy="100" r="54" fill="white"/>
  </g>
  <g clip-path="url(#clip0_21193_8044)">
    <path fill-rule="evenodd" clip-rule="evenodd" d="M125.698 106.055C123.465 106.055 121.302 105.259 119.744 103.857C117.962 102.247 117.01 99.9623 117.01 97.2277C117.01 94.4931 117.529 92.3816 118.619 90.6681C119.796 88.8335 121.648 87.4143 124.435 86.1681C124.582 86.0947 124.718 86.0277 124.845 85.965L124.846 85.9646L124.847 85.9643C125.079 85.8499 125.283 85.7494 125.473 85.6489L125.479 85.6458C126.41 85.1979 126.842 84.9897 127.585 84.3508C127.983 84.0047 128.415 83.4508 128.64 83.0527L132.517 85.4239C131.635 87.7085 129.402 88.6085 127.256 89.4566L127.216 89.4725C125.206 90.28 123.305 91.0437 122.548 92.8835L122.669 92.97C123.812 91.9835 125.283 91.4989 126.806 91.4989C128.692 91.4989 130.527 92.2777 131.842 93.645C133.088 94.9258 133.729 96.6393 133.677 98.4393C133.59 103.684 129.488 106.055 125.698 106.055ZM125.369 95.0816C124.435 95.0816 123.552 95.4104 122.894 95.9816C122.254 96.5008 121.873 97.3489 121.856 98.2835C121.838 99.27 122.237 100.222 122.912 100.793C123.569 101.416 124.469 101.762 125.456 101.762C126.512 101.762 127.498 101.364 128.173 100.689C128.762 100.084 129.056 99.322 129.038 98.4566C129.056 97.5912 128.762 96.8123 128.173 96.2066C127.481 95.497 126.442 95.0816 125.369 95.0816Z" fill="#F91F2B"/>
    <path d="M75.35 105.293V93.6623H69.6385V105.293H65V89.3527H79.9712V105.293H75.35Z" fill="#F91F2B"/>
    <path d="M110.969 105.293V96.7085L106.954 102.576L102.921 96.7085V105.293H98.4904V89.3527H102.973L106.937 95.5489L110.917 89.3527H115.4V105.293H110.969Z" fill="#F91F2B"/>
    <path d="M83.7442 105.587C86.0635 105.57 87.3442 104.912 87.7596 103.337L87.7769 103.303L80.8019 89.3528H85.7346L89.9923 97.7989L90.1481 97.4181L92.6577 89.3354H97.5904L92.6231 103.095C91.7404 105.605 90.6846 107.301 89.2654 108.426C87.8462 109.551 86.0462 110.105 83.7442 110.122V105.587Z" fill="#F91F2B"/>
    <path fill-rule="evenodd" clip-rule="evenodd" d="M93.4019 117.997C94.0423 118.655 94.8731 118.983 95.8942 118.983C96.8634 118.983 97.6596 118.707 98.3 118.118C98.9057 117.53 99.2173 116.803 99.2173 115.903C99.2173 115.02 98.9404 114.328 98.3692 113.808C97.8154 113.272 97.1577 113.012 96.4307 113.012C95.6 113.012 94.9596 113.255 94.475 113.757C94.5788 113.445 94.7692 113.185 95.0288 112.96C95.2884 112.735 95.6865 112.528 96.2231 112.32C97.0019 112.026 97.5904 111.732 98.0057 111.437C98.4211 111.143 98.6634 110.728 98.7846 110.191L97.4 109.395C97.2788 109.672 97.1577 109.88 97.0538 110.018C96.95 110.157 96.7942 110.278 96.5692 110.416C96.4307 110.52 96.2923 110.589 96.1538 110.658L95.6 110.935C95.5307 110.97 95.4442 111.005 95.3577 111.039C95.3144 111.057 95.2755 111.074 95.2365 111.091C95.1976 111.108 95.1586 111.126 95.1154 111.143C95.0748 111.163 95.0461 111.184 95.0224 111.2C95.0056 111.212 94.9912 111.222 94.9769 111.23C93.9557 111.732 93.2981 112.285 92.9692 112.891C92.6404 113.497 92.4673 114.362 92.4673 115.47C92.4673 116.491 92.7788 117.339 93.4019 117.997ZM94.7173 114.778C95.0461 114.518 95.4269 114.38 95.8596 114.38C96.3442 114.38 96.725 114.518 97.0365 114.847C97.3307 115.124 97.4865 115.487 97.4865 115.937C97.4865 116.37 97.3481 116.733 97.0365 117.028C96.7423 117.322 96.3615 117.46 95.8769 117.46C95.4096 117.46 95.0115 117.305 94.6827 117.01C94.3711 116.716 94.2154 116.335 94.2154 115.868C94.2154 115.418 94.3884 115.055 94.7173 114.778Z" fill="#F91F2B"/>
    <path d="M100.567 111.195C100.775 111.385 101.017 111.489 101.294 111.489C101.588 111.489 101.831 111.385 102.021 111.195C102.229 110.987 102.333 110.745 102.333 110.468C102.333 110.191 102.229 109.949 102.021 109.741C101.831 109.533 101.588 109.43 101.294 109.43C101.017 109.43 100.775 109.533 100.567 109.741C100.377 109.949 100.273 110.191 100.273 110.468C100.273 110.745 100.36 110.987 100.567 111.195Z" fill="#F91F2B"/>
    <path d="M102.16 118.81H100.481V112.268H102.16V118.81Z" fill="#F91F2B"/>
    <path d="M107.646 115.47C108.304 115.799 108.633 116.318 108.633 117.028C108.633 117.599 108.39 118.066 107.923 118.447C107.456 118.81 106.815 119.001 105.985 119.001C104.652 119.001 103.752 118.482 103.285 117.426L104.652 116.612C104.86 117.201 105.31 117.495 106.002 117.495C106.313 117.495 106.556 117.426 106.729 117.305C106.902 117.183 106.988 117.01 106.988 116.803C106.988 116.405 106.729 116.197 106.21 116.197H105.275V114.76H105.985C106.487 114.76 106.746 114.553 106.746 114.155C106.746 113.964 106.677 113.809 106.521 113.705C106.365 113.583 106.175 113.532 105.933 113.532C105.379 113.532 104.963 113.809 104.721 114.362L103.354 113.583C103.856 112.58 104.704 112.078 105.898 112.078C106.642 112.078 107.248 112.268 107.681 112.649C108.131 113.03 108.356 113.497 108.356 114.016C108.373 114.674 108.131 115.159 107.646 115.47Z" fill="#F91F2B"/>
    <path d="M114.431 114.743V112.268H116.11V118.81H114.431V116.335H111.835V118.81H110.156V112.268H111.835V114.743H114.431Z" fill="#F91F2B"/>
    <path fill-rule="evenodd" clip-rule="evenodd" d="M124.175 116.232H119.242C119.467 117.045 120.073 117.46 121.077 117.46C121.717 117.46 122.202 117.235 122.548 116.803L123.915 117.582C123.275 118.516 122.323 118.984 121.06 118.984C119.987 118.984 119.121 118.655 118.463 117.997C117.806 117.339 117.477 116.526 117.477 115.522C117.477 114.553 117.806 113.722 118.446 113.064C119.087 112.407 119.917 112.078 120.921 112.078C121.89 112.078 122.669 112.407 123.292 113.064C123.915 113.722 124.227 114.553 124.227 115.522C124.244 115.712 124.227 115.955 124.175 116.232ZM119.225 114.916H122.565C122.462 114.483 122.271 114.155 121.977 113.93C121.683 113.705 121.354 113.583 120.938 113.583C120.488 113.583 120.108 113.705 119.813 113.93C119.519 114.189 119.329 114.501 119.225 114.916Z" fill="#F91F2B"/>
    <path d="M128.917 118.983C127.931 118.983 127.117 118.655 126.442 117.997C125.785 117.339 125.456 116.508 125.456 115.539C125.456 114.57 125.785 113.739 126.442 113.082C127.1 112.424 127.931 112.095 128.917 112.095C129.558 112.095 130.129 112.251 130.648 112.545C131.167 112.857 131.565 113.255 131.842 113.774L130.388 114.622C130.25 114.345 130.06 114.137 129.783 113.982C129.523 113.826 129.229 113.739 128.9 113.739C128.398 113.739 127.983 113.912 127.654 114.241C127.325 114.57 127.152 115.003 127.152 115.522C127.152 116.024 127.325 116.457 127.654 116.803C127.983 117.132 128.398 117.305 128.9 117.305C129.246 117.305 129.54 117.235 129.8 117.08C130.077 116.924 130.267 116.716 130.406 116.439L131.877 117.27C131.583 117.789 131.185 118.205 130.648 118.516C130.129 118.828 129.54 118.983 128.917 118.983Z" fill="#F91F2B"/>
  </g>
  <defs>
    <filter id="filter0_d_21193_8044" x="0" y="0" width="200" height="200" filterUnits="userSpaceOnUse" color-interpolation-filters="sRGB">
      <feFlood flood-opacity="0" result="BackgroundImageFix"/>
      <feColorMatrix in="SourceAlpha" type="matrix" values="0 0 0 0 0 0 0 0 0 0 0 0 0 0 0 0 0 0 127 0" result="hardAlpha"/>
      <feOffset/>
      <feGaussianBlur stdDeviation="23"/>
      <feComposite in2="hardAlpha" operator="out"/>
      <feColorMatrix type="matrix" values="0 0 0 0 0 0 0 0 0 0 0 0 0 0 0 0 0 0 0.25 0"/>
      <feBlend mode="normal" in2="BackgroundImageFix" result="effect1_dropShadow_21193_8044"/>
      <feBlend mode="normal" in="SourceGraphic" in2="effect1_dropShadow_21193_8044" result="shape"/>
    </filter>
    <clipPath id="clip0_21193_8044">
      <rect width="69" height="36" fill="white" transform="translate(65 83)"/>
    </clipPath>
  </defs>
</svg>
