<svg width="32" height="32" viewBox="0 0 32 32" fill="none" xmlns="http://www.w3.org/2000/svg">
<g clip-path="url(#clip0_14481_4083)">
<rect width="32" height="32" rx="8" fill="#F91F2B"/>
<path d="M7.34229 16.0068C7.34229 11.2671 11.252 7.34912 15.9917 7.34912C20.7397 7.34912 24.6577 11.2671 24.6577 16.0068C24.6577 16.6045 24.2261 16.9863 23.7363 16.9863C23.23 16.9863 22.7568 16.6128 22.7568 16.0068C22.7568 12.2632 19.7437 9.25 15.9917 9.25C12.248 9.25 9.25146 12.2632 9.25146 16.0068C9.25146 18.5386 10.6377 20.7383 12.5801 21.8423C13.7588 22.5312 12.8291 24.1333 11.6587 23.4775C9.20166 22.1245 7.34229 19.2607 7.34229 16.0068ZM10.9531 16.0068C10.9531 13.2344 13.2358 10.9517 16 10.9517C18.7642 10.9517 21.0552 13.2344 21.0552 15.9321C21.0552 16.4468 20.6484 16.8037 20.1836 16.8037C19.7271 16.8037 19.3286 16.4717 19.3037 15.9404C19.229 14.1641 17.8262 12.7031 16 12.7031C14.1655 12.7031 12.6963 14.1724 12.6963 16.0068C12.6963 17.144 13.269 18.1318 14.1406 18.7295C15.0205 19.3936 14.0742 20.7632 13.0698 20.0991C11.9326 19.3687 10.9531 17.8247 10.9531 16.0068ZM15.8008 22.3569L15.8921 15.8823C15.9004 15.5171 16.2822 15.3677 16.5396 15.625L21.0137 20.1904C21.2876 20.4727 21.0967 20.8545 20.7231 20.8545L19.0796 20.8877L20.4492 24.042C20.5239 24.2163 20.5073 24.4736 20.2666 24.5732L19.4365 24.8887C19.1958 24.98 18.9966 24.8472 18.9136 24.6396L17.627 21.4604L16.498 22.6226C16.2407 22.8882 15.7925 22.7471 15.8008 22.3569Z" fill="white"/>
</g>
<defs>
<clipPath id="clip0_14481_4083">
<rect width="32" height="32" rx="8" fill="white"/>
</clipPath>
</defs>
</svg>
