<svg width="67" height="81" viewBox="0 0 67 81" fill="none" xmlns="http://www.w3.org/2000/svg">
  <g filter="url(#filter0_d_21096_8043)">
    <mask id="path-1-outside-1_21096_8043" maskUnits="userSpaceOnUse" x="13" y="9" width="41" height="55" fill="black">
      <rect fill="white" x="13" y="9" width="41" height="55"/>
      <path d="M33.5216 58.9415C33.5216 58.9372 33.5232 58.9331 33.526 58.9299L43.2021 47.9104C44.0357 46.9611 43.7913 45.4864 42.696 44.8568L40.8661 43.8049C39.8022 43.1934 39.5348 41.7767 40.3028 40.8195L48.0077 31.215C48.7956 30.2329 48.4908 28.7758 47.3754 28.1917L45.4824 27.2005C44.511 26.6918 44.1303 25.4958 44.6289 24.5192L48.5144 16.9095C49.1939 15.5788 48.2273 14 46.7332 14L20.2668 14C18.7727 14 17.8061 15.5788 18.4856 16.9095L22.3711 24.5192C22.8698 25.4958 22.489 26.6918 21.5176 27.2005L19.6246 28.1917C18.5092 28.7758 18.2044 30.2329 18.9923 31.215L26.7497 40.8849C27.4994 41.8194 27.2649 43.1988 26.2486 43.8331L24.6128 44.854C23.5805 45.4982 23.3579 46.9073 24.1413 47.8384L33.4742 58.9299C33.4769 58.9331 33.4784 58.9371 33.4784 58.9413L33.4784 58.9731C33.4784 58.9811 33.4888 58.9843 33.4932 58.9776C33.4964 58.9728 33.5035 58.9728 33.5068 58.9776C33.5112 58.9843 33.5216 58.9811 33.5216 58.9731L33.5216 58.9415Z"/>
    </mask>
    <path d="M33.5216 58.9415C33.5216 58.9372 33.5232 58.9331 33.526 58.9299L43.2021 47.9104C44.0357 46.9611 43.7913 45.4864 42.696 44.8568L40.8661 43.8049C39.8022 43.1934 39.5348 41.7767 40.3028 40.8195L48.0077 31.215C48.7956 30.2329 48.4908 28.7758 47.3754 28.1917L45.4824 27.2005C44.511 26.6918 44.1303 25.4958 44.6289 24.5192L48.5144 16.9095C49.1939 15.5788 48.2273 14 46.7332 14L20.2668 14C18.7727 14 17.8061 15.5788 18.4856 16.9095L22.3711 24.5192C22.8698 25.4958 22.489 26.6918 21.5176 27.2005L19.6246 28.1917C18.5092 28.7758 18.2044 30.2329 18.9923 31.215L26.7497 40.8849C27.4994 41.8194 27.2649 43.1988 26.2486 43.8331L24.6128 44.854C23.5805 45.4982 23.3579 46.9073 24.1413 47.8384L33.4742 58.9299C33.4769 58.9331 33.4784 58.9371 33.4784 58.9413L33.4784 58.9731C33.4784 58.9811 33.4888 58.9843 33.4932 58.9776C33.4964 58.9728 33.5035 58.9728 33.5068 58.9776C33.5112 58.9843 33.5216 58.9811 33.5216 58.9731L33.5216 58.9415Z" fill="#2B6D73"/>
    <path d="M33.4742 58.9299L29.6484 62.1491L33.4742 58.9299ZM24.1413 47.8384L27.9672 44.6192L24.1413 47.8384ZM26.7497 40.8849L22.8496 44.0137L26.7497 40.8849ZM26.2486 43.8331L28.8958 48.0749L26.2486 43.8331ZM19.6246 28.1917L21.944 32.6212L19.6246 28.1917ZM21.5176 27.2005L23.837 31.63L21.5176 27.2005ZM18.4856 16.9095L14.0325 19.1832L18.4856 16.9095ZM48.5144 16.9095L52.9675 19.1833L48.5144 16.9095ZM45.4824 27.2005L43.163 31.63L45.4824 27.2005ZM44.6289 24.5192L49.082 26.7929L44.6289 24.5192ZM48.0077 31.215L51.9078 34.3438L48.0077 31.215ZM33.526 58.9299L37.2831 62.229L33.526 58.9299ZM43.2021 47.9104L46.9593 51.2095L43.2021 47.9104ZM39.445 44.6113L29.7689 55.6307L37.2831 62.229L46.9593 51.2095L39.445 44.6113ZM38.3743 48.1398L40.2042 49.1917L45.1878 40.522L43.3579 39.4701L38.3743 48.1398ZM44.1076 28.0862L36.4026 37.6907L44.2029 43.9483L51.9078 34.3438L44.1076 28.0862ZM43.163 31.63L45.056 32.6212L49.6948 23.7622L47.8018 22.771L43.163 31.63ZM44.0613 14.6358L40.1758 22.2454L49.082 26.7929L52.9675 19.1833L44.0613 14.6358ZM14.0325 19.1832L17.918 26.7929L26.8242 22.2454L22.9387 14.6358L14.0325 19.1832ZM19.1982 22.771L17.3052 23.7622L21.944 32.6212L23.837 31.63L19.1982 22.771ZM15.0922 34.3438L22.8496 44.0137L30.6498 37.7562L22.8924 28.0862L15.0922 34.3438ZM23.6014 39.5914L21.9656 40.6122L27.26 49.0957L28.8958 48.0749L23.6014 39.5914ZM20.3155 51.0575L29.6484 62.1491L37.3 55.7107L27.9672 44.6192L20.3155 51.0575ZM38.4784 58.9731L38.4784 58.9413L28.4784 58.9413L28.4784 58.9731L38.4784 58.9731ZM38.5216 58.9731L38.5216 58.9415L28.5216 58.9415L28.5216 58.9731L38.5216 58.9731ZM20.2668 19L46.7332 19L46.7332 9L20.2668 9L20.2668 19ZM29.3411 61.743C32.0845 65.8754 38.5216 63.9332 38.5216 58.9731L28.5216 58.9731C28.5216 54.0291 34.9379 52.0932 37.6724 56.2122L29.3411 61.743ZM37.6589 61.743C35.6841 64.7176 31.3159 64.7176 29.3411 61.743L37.6724 56.2122C35.6912 53.2279 31.3088 53.2279 29.3276 56.2122L37.6589 61.743ZM28.4784 58.9731C28.4784 63.9332 34.9155 65.8754 37.6589 61.743L29.3276 56.2122C32.0621 52.0932 38.4784 54.0291 38.4784 58.9731L28.4784 58.9731ZM29.6484 62.1491C28.8927 61.251 28.4784 60.1149 28.4784 58.9413L38.4784 58.9413C38.4784 57.7594 38.0611 56.6152 37.3 55.7107L29.6484 62.1491ZM21.9656 40.6122C18.3526 42.8671 17.5735 47.7988 20.3155 51.0575L27.9672 44.6192C29.1423 46.0158 28.8084 48.1294 27.26 49.0957L21.9656 40.6122ZM22.8496 44.0137C21.7251 42.612 22.0769 40.5428 23.6014 39.5914L28.8958 48.0749C32.453 45.8549 33.2737 41.0269 30.6498 37.7562L22.8496 44.0137ZM17.3052 23.7622C13.4012 25.8064 12.3346 30.9063 15.0922 34.3438L22.8924 28.0862C24.0743 29.5594 23.6171 31.7451 21.944 32.6212L17.3052 23.7622ZM17.918 26.7929C17.17 25.328 17.7411 23.534 19.1982 22.771L23.837 31.63C27.237 29.8497 28.5695 25.6636 26.8242 22.2454L17.918 26.7929ZM22.9387 14.6358C23.9579 16.6318 22.5081 19 20.2668 19L20.2668 9C15.0373 9 11.6544 14.5257 14.0325 19.1832L22.9387 14.6358ZM52.9675 19.1833C55.3456 14.5257 51.9627 9 46.7332 9L46.7332 19C44.4919 19 43.0421 16.6318 44.0613 14.6358L52.9675 19.1833ZM47.8018 22.771C49.2589 23.534 49.83 25.328 49.082 26.7929L40.1758 22.2454C38.4305 25.6636 39.763 29.8497 43.163 31.63L47.8018 22.771ZM51.9078 34.3438C54.6654 30.9063 53.5988 25.8064 49.6948 23.7622L45.056 32.6212C43.3828 31.7451 42.9257 29.5594 44.1076 28.0862L51.9078 34.3438ZM43.3579 39.4701C44.9538 40.3874 45.3547 42.5124 44.2029 43.9483L36.4026 37.6907C33.715 41.041 34.6505 45.9993 38.3743 48.1398L43.3579 39.4701ZM29.7689 55.6307C28.9649 56.5464 28.5216 57.7232 28.5216 58.9415L38.5216 58.9415C38.5216 60.1512 38.0815 61.3198 37.2831 62.229L29.7689 55.6307ZM46.9593 51.2095C49.8767 47.8871 49.0212 42.7255 45.1878 40.522L40.2042 49.1917C38.5614 48.2473 38.1947 46.0352 39.445 44.6113L46.9593 51.2095Z" fill="white" mask="url(#path-1-outside-1_21096_8043)"/>
  </g>
  <defs>
    <filter id="filter0_d_21096_8043" x="0.257812" y="0" width="66.4844" height="80.9902" filterUnits="userSpaceOnUse" color-interpolation-filters="sRGB">
      <feFlood flood-opacity="0" result="BackgroundImageFix"/>
      <feColorMatrix in="SourceAlpha" type="matrix" values="0 0 0 0 0 0 0 0 0 0 0 0 0 0 0 0 0 0 127 0" result="hardAlpha"/>
      <feOffset dy="4"/>
      <feGaussianBlur stdDeviation="6.5"/>
      <feComposite in2="hardAlpha" operator="out"/>
      <feColorMatrix type="matrix" values="0 0 0 0 0 0 0 0 0 0 0 0 0 0 0 0 0 0 0.25 0"/>
      <feBlend mode="normal" in2="BackgroundImageFix" result="effect1_dropShadow_21096_8043"/>
      <feBlend mode="normal" in="SourceGraphic" in2="effect1_dropShadow_21096_8043" result="shape"/>
    </filter>
  </defs>
</svg>
