<svg width="489" height="490" viewBox="0 0 489 490" fill="none" xmlns="http://www.w3.org/2000/svg">
  <circle cx="245" cy="246" r="224.5" fill="white" stroke="#00132A" stroke-width="21"/>
  <path fill-rule="evenodd" clip-rule="evenodd" d="M245.758 32.0013V246.757L78.9131 111.04C118.152 62.8103 177.978 32 245 32C245.253 32 245.505 32.0004 245.758 32.0013Z" fill="#E1E1E8"/>
  <path fill-rule="evenodd" clip-rule="evenodd" d="M37.822 299.808C33.3692 282.615 31 264.583 31 245.998C31 194.832 48.957 147.859 78.9127 111.039L245.758 246.757L37.822 299.808Z" fill="#D0D0D9"/>
  <path fill-rule="evenodd" clip-rule="evenodd" d="M148.685 437.15C94.405 409.746 53.387 359.902 37.8232 299.809L245.76 246.758L148.685 437.15Z" fill="#E1E1E8"/>
  <path fill-rule="evenodd" clip-rule="evenodd" d="M148.685 437.15L245.759 246.758L339.217 438.196C310.789 452.158 278.811 459.998 245.001 459.998C210.356 459.998 177.634 451.765 148.685 437.15Z" fill="#F5F5FA"/>
  <path fill-rule="evenodd" clip-rule="evenodd" d="M338.665 438.464L245.757 246.758L453.985 292.253C439.785 356.7 396.535 410.247 338.665 438.464Z" fill="#D0D0D9"/>
  <path fill-rule="evenodd" clip-rule="evenodd" d="M453.985 292.254C457.267 277.359 458.997 261.881 458.997 246C458.997 195.736 441.669 149.52 412.66 113L245.757 246.759L453.985 292.254Z" fill="#E1E1E8"/>
  <path fill-rule="evenodd" clip-rule="evenodd" d="M412.66 113.002C373.604 63.832 313.375 32.237 245.757 32.002V246.762L412.66 113.002Z" fill="#F5F5FA"/>
  <g filter="url(#filter0_i_17465_27536)">
    <ellipse cx="245" cy="245.5" rx="212" ry="211.5" fill="white" fill-opacity="0.01"/>
  </g>
  <path d="M245 465C366.485 465 465 366.744 465 245.5C465 124.256 366.485 26 245 26C123.515 26 25 124.256 25 245.5C25 366.744 123.515 465 245 465Z" stroke="#04152C" stroke-width="16"/>
  <circle cx="244.5" cy="245.5" r="236.5" fill="white" fill-opacity="0.01" stroke="url(#paint0_linear_17465_27536)" stroke-width="8"/>
  <path d="M168.447 122.198L167.008 119.267C166.078 117.373 166.759 115.925 168.569 115.037L171.023 113.832C169.831 113.425 168.81 112.586 168.197 111.337C166.806 108.504 168.073 105.341 170.906 103.95C173.052 102.896 175.495 103.228 177.236 105.072C176.842 102.567 178.073 100.431 180.219 99.3774C183.052 97.9864 186.33 98.9186 187.721 101.752C188.334 103 188.373 104.321 187.966 105.513L190.421 104.308C192.3 103.385 193.793 103.766 194.722 105.66L196.162 108.591C196.954 110.204 196.407 111.43 194.808 112.215L184.934 117.063L180.953 108.956L178.036 110.388L177.093 108.467C176.149 106.545 174.225 105.889 172.64 106.667C171.14 107.403 170.591 108.804 171.308 110.263C172.044 111.764 173.87 112.434 175.988 111.394L178.036 110.388L182.016 118.495L172.142 123.343C170.557 124.121 169.239 123.811 168.447 122.198ZM181.308 102.411C179.723 103.189 179.067 105.113 180.01 107.035L180.953 108.956L183.001 107.951C185.105 106.918 185.705 105.056 184.969 103.556C184.252 102.097 182.809 101.674 181.308 102.411ZM176.517 133.85L172.413 125.49L182.918 120.333L188.875 132.465L182.255 135.715C179.8 136.92 177.708 136.276 176.517 133.85ZM191.792 131.033L185.836 118.9L196.341 113.743L200.445 122.102C201.636 124.528 200.853 126.584 198.412 127.782L191.792 131.033Z" fill="#93939E"/>
  <path d="M144.306 344.444L141.695 346.406C140.009 347.673 138.458 347.274 137.248 345.662L135.606 343.476C135.428 344.723 134.795 345.883 133.683 346.718C131.16 348.614 127.815 347.96 125.92 345.437C124.484 343.525 124.354 341.063 125.84 339.009C123.453 339.864 121.124 339.053 119.688 337.142C117.792 334.618 118.096 331.224 120.619 329.328C121.731 328.493 123.022 328.208 124.269 328.385L122.626 326.199C121.369 324.525 121.465 322.987 123.151 321.72L125.762 319.759C127.199 318.68 128.505 318.988 129.575 320.412L136.182 329.207L128.961 334.631L130.913 337.23L129.202 338.515C127.49 339.801 127.204 341.814 128.265 343.226C129.269 344.562 130.747 344.839 132.046 343.863C133.383 342.859 133.7 340.94 132.283 339.054L130.913 337.23L138.134 331.805L144.741 340.6C145.801 342.012 145.743 343.365 144.306 344.444ZM122.465 335.505C123.525 336.917 125.538 337.203 127.25 335.917L128.961 334.631L127.591 332.807C126.183 330.933 124.242 330.691 122.906 331.695C121.606 332.671 121.461 334.168 122.465 335.505ZM154.245 334.34L146.8 339.933L139.77 330.576L150.577 322.458L155.006 328.355C156.649 330.541 156.407 332.716 154.245 334.34ZM148.625 319.86L137.818 327.977L130.789 318.62L138.235 313.027C140.396 311.404 142.562 311.789 144.195 313.963L148.625 319.86Z" fill="#3E3E4C"/>
  <path d="M259.962 391.975L259.962 395.24C259.962 397.35 258.712 398.35 256.696 398.35L253.962 398.35C254.853 399.24 255.4 400.443 255.4 401.834C255.4 404.99 252.868 407.271 249.712 407.271C247.321 407.271 245.275 405.896 244.525 403.475C243.775 405.896 241.728 407.271 239.337 407.271C236.181 407.271 233.65 404.99 233.65 401.834C233.65 400.443 234.196 399.24 235.087 398.35L232.353 398.35C230.259 398.35 229.087 397.35 229.087 395.24L229.087 391.975C229.087 390.178 230.118 389.318 231.9 389.318L242.9 389.318L242.9 398.35L246.15 398.35L246.15 400.49C246.15 402.631 247.587 404.068 249.353 404.068C251.025 404.068 252.134 403.053 252.134 401.428C252.134 399.756 250.79 398.35 248.431 398.35L246.15 398.35L246.15 389.318L257.15 389.318C258.915 389.318 259.962 390.178 259.962 391.975ZM239.696 404.068C241.462 404.068 242.9 402.631 242.9 400.49L242.9 398.35L240.618 398.35C238.275 398.35 236.915 399.756 236.915 401.428C236.915 403.053 238.025 404.068 239.696 404.068ZM257.853 377.959L257.853 387.271L246.15 387.271L246.15 373.756L253.525 373.756C256.259 373.756 257.853 375.256 257.853 377.959ZM242.9 373.756L242.9 387.271L231.196 387.271L231.196 377.959C231.196 375.256 232.806 373.756 235.525 373.756L242.9 373.756Z" fill="#93939E"/>
  <path d="M366.622 324.59L368.931 326.9C370.422 328.391 370.246 329.982 368.82 331.407L366.887 333.341C368.146 333.341 369.384 333.805 370.367 334.788C372.599 337.02 372.422 340.423 370.19 342.655C368.5 344.345 366.08 344.82 363.837 343.638C365.02 345.881 364.545 348.301 362.854 349.991C360.622 352.223 357.219 352.4 354.988 350.168C354.004 349.184 353.54 347.947 353.54 346.688L351.607 348.621C350.126 350.102 348.59 350.223 347.099 348.731L344.79 346.422C343.519 345.152 343.641 343.815 344.9 342.555L352.678 334.777L359.064 341.163L361.363 338.865L362.876 340.379C364.39 341.892 366.423 341.892 367.671 340.644C368.853 339.462 368.92 337.959 367.771 336.81C366.589 335.628 364.644 335.584 362.976 337.252L361.363 338.865L354.976 332.479L362.755 324.701C364.003 323.452 365.351 323.32 366.622 324.59ZM360.843 347.472C362.092 346.223 362.092 344.191 360.578 342.677L359.064 341.163L357.451 342.776C355.794 344.434 355.827 346.389 357.009 347.571C358.158 348.72 359.661 348.654 360.843 347.472ZM355.22 316.171L361.804 322.756L353.529 331.032L343.972 321.475L349.187 316.26C351.121 314.326 353.308 314.26 355.22 316.171ZM341.674 323.773L351.231 333.33L342.956 341.605L336.371 335.02C334.459 333.109 334.537 330.91 336.459 328.988L341.674 323.773Z" fill="#F5F5FA"/>
  <path d="M92.6181 226.835L89.4637 225.99C87.4262 225.444 86.7838 223.977 87.3055 222.03L88.0132 219.389C86.9224 220.019 85.6188 220.236 84.2755 219.876C81.2268 219.059 79.6784 216.024 80.4953 212.975C81.1141 210.666 82.972 209.044 85.5055 208.947C83.3602 207.596 82.5618 205.263 83.1806 202.953C83.9975 199.905 86.8561 198.05 89.9048 198.867C91.2481 199.227 92.2687 200.067 92.8984 201.157L93.6061 198.516C94.148 196.494 95.4173 195.621 97.4548 196.167L100.609 197.012C102.345 197.477 102.908 198.695 102.447 200.416L99.5999 211.041L90.8764 208.704L90.0352 211.843L87.9676 211.289C85.8999 210.735 84.1393 211.751 83.6823 213.457C83.2496 215.072 83.9435 216.406 85.5131 216.827C87.128 217.259 88.8342 216.325 89.4448 214.046L90.0352 211.843L98.7588 214.18L95.9117 224.806C95.4548 226.511 94.3537 227.3 92.6181 226.835ZM86.1815 204.13C85.7246 205.835 86.741 207.596 88.8087 208.15L90.8764 208.704L91.4668 206.5C92.0734 204.236 91.0669 202.559 89.452 202.126C87.8824 201.706 86.6143 202.515 86.1815 204.13ZM106.702 228.425L97.7069 226.014L100.736 214.71L113.791 218.208L111.882 225.332C111.174 227.973 109.313 229.124 106.702 228.425ZM114.632 215.069L101.577 211.571L104.606 200.267L113.601 202.677C116.212 203.376 117.245 205.319 116.541 207.945L114.632 215.069Z" fill="#F5F5FA"/>
  <path d="M387.893 196.958L391.048 196.112C393.085 195.566 394.375 196.515 394.896 198.462L395.604 201.103C396.234 200.012 397.254 199.173 398.598 198.813C401.646 197.996 404.505 199.85 405.322 202.899C405.941 205.208 405.142 207.541 402.997 208.893C405.531 208.99 407.388 210.611 408.007 212.921C408.824 215.969 407.276 219.005 404.227 219.822C402.884 220.182 401.58 219.965 400.489 219.335L401.197 221.976C401.739 223.999 401.076 225.389 399.039 225.935L395.884 226.78C394.149 227.246 393.052 226.472 392.591 224.751L389.744 214.126L398.467 211.789L397.626 208.649L399.694 208.095C401.761 207.541 402.778 205.781 402.321 204.075C401.888 202.46 400.62 201.652 399.05 202.072C397.436 202.505 396.425 204.167 397.036 206.446L397.626 208.649L388.903 210.987L386.056 200.362C385.599 198.656 386.158 197.423 387.893 196.958ZM404.82 213.403C404.363 211.697 402.603 210.681 400.535 211.235L398.467 211.789L399.058 213.992C399.664 216.256 401.374 217.205 402.989 216.772C404.559 216.352 405.253 215.017 404.82 213.403ZM374.901 202.623L383.896 200.212L386.925 211.517L373.87 215.015L371.962 207.891C371.254 205.25 372.29 203.322 374.901 202.623ZM374.712 218.154L387.767 214.656L390.796 225.96L381.8 228.371C379.189 229.07 377.324 227.904 376.62 225.278L374.712 218.154Z" fill="#93939E"/>
  <path d="M296.811 105.805L298.444 102.977C299.499 101.15 301.081 100.909 302.827 101.917L305.195 103.284C304.869 102.068 304.997 100.752 305.692 99.5481C307.27 96.8147 310.603 96.1047 313.336 97.6829C315.407 98.8782 316.492 101.092 315.93 103.565C317.791 101.842 320.251 101.675 322.321 102.87C325.055 104.448 326.106 107.69 324.528 110.423C323.833 111.627 322.758 112.396 321.541 112.722L323.909 114.089C325.722 115.136 326.237 116.588 325.183 118.415L323.55 121.243C322.651 122.799 321.329 123.028 319.786 122.137L310.26 116.637L314.775 108.816L311.961 107.191L313.031 105.337C314.101 103.483 313.575 101.519 312.046 100.637C310.598 99.8006 309.13 100.125 308.317 101.533C307.481 102.981 307.942 104.87 309.985 106.05L311.961 107.191L307.445 115.012L297.919 109.512C296.39 108.629 295.913 107.361 296.811 105.805ZM320.409 105.465C318.88 104.582 316.916 105.108 315.846 106.962L314.775 108.816L316.751 109.956C318.781 111.128 320.661 110.59 321.497 109.142C322.309 107.735 321.856 106.301 320.409 105.465ZM291.63 118.998L296.286 110.933L306.422 116.785L299.664 128.489L293.277 124.802C290.909 123.435 290.279 121.339 291.63 118.998ZM302.478 130.114L309.236 118.41L319.371 124.261L314.715 132.326C313.364 134.667 311.22 135.161 308.865 133.802L302.478 130.114Z" fill="#3E3E4C"/>
  <circle cx="244.5" cy="245.5" r="239.5" stroke="url(#paint1_linear_17465_27536)" stroke-width="4"/>
  <circle cx="245" cy="246" r="231.5" stroke="url(#paint2_linear_17465_27536)" stroke-width="3"/>
  <circle cx="245.563" cy="22.4866" r="6.38305" fill="#F5F5FA"/>
  <circle cx="245.563" cy="22.9775" r="3.68253" fill="#4D4D5C"/>
  <circle cx="245.563" cy="22.4853" r="3.68253" fill="#FFC800"/>
  <g filter="url(#filter1_f_17465_27536)">
    <circle cx="245.563" cy="22.4859" r="9.08357" fill="#FFC800"/>
  </g>
  <circle cx="244.826" cy="21.2589" r="1.96402" fill="white"/>
  <circle cx="245.563" cy="467.582" r="6.38305" fill="#F5F5FA"/>
  <circle cx="245.563" cy="468.073" r="3.68253" fill="#4D4D5C"/>
  <circle cx="245.563" cy="467.581" r="3.68253" fill="#43C64A"/>
  <g filter="url(#filter2_f_17465_27536)">
    <circle cx="245.563" cy="467.582" r="9.08357" fill="#43C64A"/>
  </g>
  <circle cx="244.826" cy="466.355" r="1.96402" fill="white"/>
  <circle cx="466.597" cy="245.539" r="6.38305" fill="#F5F5FA"/>
  <circle cx="466.598" cy="246.03" r="3.68253" fill="#4D4D5C"/>
  <circle cx="466.598" cy="245.538" r="3.68253" fill="#3594FF"/>
  <g filter="url(#filter3_f_17465_27536)">
    <circle cx="466.597" cy="245.539" r="9.08357" fill="#3594FF"/>
  </g>
  <circle cx="465.861" cy="244.312" r="1.96402" fill="white"/>
  <circle cx="22.511" cy="245.539" r="6.38305" fill="#F5F5FA"/>
  <circle cx="22.5116" cy="246.03" r="3.68253" fill="#4D4D5C"/>
  <circle cx="22.5116" cy="245.538" r="3.68253" fill="#FF0004"/>
  <g filter="url(#filter4_f_17465_27536)">
    <circle cx="22.5113" cy="245.539" r="9.08357" fill="#FF0004"/>
  </g>
  <circle cx="21.7746" cy="244.312" r="1.96402" fill="white"/>
  <circle cx="357.089" cy="54.3889" r="6.38305" fill="#F5F5FA"/>
  <circle cx="357.09" cy="54.8798" r="3.68253" fill="#4D4D5C"/>
  <circle cx="357.09" cy="54.3876" r="3.68253" fill="#FF0004"/>
  <g filter="url(#filter5_f_17465_27536)">
    <circle cx="357.089" cy="54.3883" r="9.08357" fill="#FF0004"/>
  </g>
  <circle cx="356.353" cy="53.1613" r="1.96402" fill="white"/>
  <circle cx="134.037" cy="438.707" r="6.38305" fill="#F5F5FA"/>
  <circle cx="134.038" cy="439.198" r="3.68253" fill="#4D4D5C"/>
  <circle cx="134.038" cy="438.706" r="3.68253" fill="#3594FF"/>
  <g filter="url(#filter6_f_17465_27536)">
    <circle cx="134.038" cy="438.707" r="9.08357" fill="#3594FF"/>
  </g>
  <circle cx="133.301" cy="437.48" r="1.96402" fill="white"/>
  <circle cx="436.713" cy="134.014" r="6.38305" fill="#F5F5FA"/>
  <circle cx="436.714" cy="134.505" r="3.68253" fill="#4D4D5C"/>
  <circle cx="436.714" cy="134.013" r="3.68253" fill="#43C64A"/>
  <g filter="url(#filter7_f_17465_27536)">
    <circle cx="436.713" cy="134.013" r="9.08357" fill="#43C64A"/>
  </g>
  <circle cx="435.977" cy="132.786" r="1.96402" fill="white"/>
  <circle cx="52.3938" cy="357.065" r="6.38305" fill="#F5F5FA"/>
  <circle cx="52.3944" cy="357.556" r="3.68253" fill="#4D4D5C"/>
  <circle cx="52.3944" cy="357.063" r="3.68253" fill="#FFC800"/>
  <g filter="url(#filter8_f_17465_27536)">
    <circle cx="52.3941" cy="357.064" r="9.08357" fill="#FFC800"/>
  </g>
  <circle cx="51.6574" cy="355.837" r="1.96402" fill="white"/>
  <circle cx="436.713" cy="356.057" r="6.38305" fill="#F5F5FA"/>
  <circle cx="436.714" cy="356.548" r="3.68253" fill="#4D4D5C"/>
  <circle cx="436.714" cy="356.056" r="3.68253" fill="#FFC800"/>
  <g filter="url(#filter9_f_17465_27536)">
    <circle cx="436.713" cy="356.056" r="9.08357" fill="#FFC800"/>
  </g>
  <circle cx="435.977" cy="354.829" r="1.96402" fill="white"/>
  <circle cx="52.3938" cy="134.014" r="6.38305" fill="#F5F5FA"/>
  <circle cx="52.3944" cy="134.505" r="3.68253" fill="#4D4D5C"/>
  <circle cx="52.3944" cy="134.013" r="3.68253" fill="#43C64A"/>
  <g filter="url(#filter10_f_17465_27536)">
    <circle cx="52.3941" cy="134.013" r="9.08357" fill="#43C64A"/>
  </g>
  <circle cx="51.6574" cy="132.786" r="1.96402" fill="white"/>
  <circle cx="356.079" cy="436.69" r="6.38305" fill="#F5F5FA"/>
  <circle cx="356.08" cy="437.181" r="3.68253" fill="#4D4D5C"/>
  <circle cx="356.08" cy="436.688" r="3.68253" fill="#FF0004"/>
  <g filter="url(#filter11_f_17465_27536)">
    <circle cx="356.08" cy="436.689" r="9.08357" fill="#FF0004"/>
  </g>
  <circle cx="355.343" cy="435.462" r="1.96402" fill="white"/>
  <circle cx="134.037" cy="52.3709" r="6.38305" transform="rotate(-15 134.037 52.3709)" fill="#F5F5FA"/>
  <circle cx="134.164" cy="52.8442" r="3.68253" transform="rotate(-15 134.164 52.8442)" fill="#4D4D5C"/>
  <circle cx="134.038" cy="52.3696" r="3.68253" transform="rotate(-15 134.038 52.3696)" fill="#336EC2"/>
  <g filter="url(#filter12_f_17465_27536)">
    <circle cx="134.037" cy="52.3703" r="9.08357" transform="rotate(-15 134.037 52.3703)" fill="#336EC2"/>
  </g>
  <circle cx="133.008" cy="51.3751" r="1.96402" transform="rotate(-15 133.008 51.3751)" fill="white"/>
  <defs>
    <filter id="filter0_i_17465_27536" x="17" y="18" width="456" height="459" filterUnits="userSpaceOnUse" color-interpolation-filters="sRGB">
      <feFlood flood-opacity="0" result="BackgroundImageFix"/>
      <feBlend mode="normal" in="SourceGraphic" in2="BackgroundImageFix" result="shape"/>
      <feColorMatrix in="SourceAlpha" type="matrix" values="0 0 0 0 0 0 0 0 0 0 0 0 0 0 0 0 0 0 127 0" result="hardAlpha"/>
      <feOffset dy="4"/>
      <feGaussianBlur stdDeviation="36"/>
      <feComposite in2="hardAlpha" operator="arithmetic" k2="-1" k3="1"/>
      <feColorMatrix type="matrix" values="0 0 0 0 0.027451 0 0 0 0 0.0901961 0 0 0 0 0.180392 0 0 0 1 0"/>
      <feBlend mode="normal" in2="shape" result="effect1_innerShadow_17465_27536"/>
    </filter>
    <filter id="filter1_f_17465_27536" x="223.479" y="0.402344" width="44.167" height="44.168" filterUnits="userSpaceOnUse" color-interpolation-filters="sRGB">
      <feFlood flood-opacity="0" result="BackgroundImageFix"/>
      <feBlend mode="normal" in="SourceGraphic" in2="BackgroundImageFix" result="shape"/>
      <feGaussianBlur stdDeviation="6.5" result="effect1_foregroundBlur_17465_27536"/>
    </filter>
    <filter id="filter2_f_17465_27536" x="223.479" y="445.498" width="44.167" height="44.168" filterUnits="userSpaceOnUse" color-interpolation-filters="sRGB">
      <feFlood flood-opacity="0" result="BackgroundImageFix"/>
      <feBlend mode="normal" in="SourceGraphic" in2="BackgroundImageFix" result="shape"/>
      <feGaussianBlur stdDeviation="6.5" result="effect1_foregroundBlur_17465_27536"/>
    </filter>
    <filter id="filter3_f_17465_27536" x="444.514" y="223.455" width="44.167" height="44.168" filterUnits="userSpaceOnUse" color-interpolation-filters="sRGB">
      <feFlood flood-opacity="0" result="BackgroundImageFix"/>
      <feBlend mode="normal" in="SourceGraphic" in2="BackgroundImageFix" result="shape"/>
      <feGaussianBlur stdDeviation="6.5" result="effect1_foregroundBlur_17465_27536"/>
    </filter>
    <filter id="filter4_f_17465_27536" x="0.427734" y="223.455" width="44.167" height="44.168" filterUnits="userSpaceOnUse" color-interpolation-filters="sRGB">
      <feFlood flood-opacity="0" result="BackgroundImageFix"/>
      <feBlend mode="normal" in="SourceGraphic" in2="BackgroundImageFix" result="shape"/>
      <feGaussianBlur stdDeviation="6.5" result="effect1_foregroundBlur_17465_27536"/>
    </filter>
    <filter id="filter5_f_17465_27536" x="335.006" y="32.3047" width="44.167" height="44.168" filterUnits="userSpaceOnUse" color-interpolation-filters="sRGB">
      <feFlood flood-opacity="0" result="BackgroundImageFix"/>
      <feBlend mode="normal" in="SourceGraphic" in2="BackgroundImageFix" result="shape"/>
      <feGaussianBlur stdDeviation="6.5" result="effect1_foregroundBlur_17465_27536"/>
    </filter>
    <filter id="filter6_f_17465_27536" x="111.954" y="416.623" width="44.167" height="44.168" filterUnits="userSpaceOnUse" color-interpolation-filters="sRGB">
      <feFlood flood-opacity="0" result="BackgroundImageFix"/>
      <feBlend mode="normal" in="SourceGraphic" in2="BackgroundImageFix" result="shape"/>
      <feGaussianBlur stdDeviation="6.5" result="effect1_foregroundBlur_17465_27536"/>
    </filter>
    <filter id="filter7_f_17465_27536" x="414.63" y="111.93" width="44.167" height="44.168" filterUnits="userSpaceOnUse" color-interpolation-filters="sRGB">
      <feFlood flood-opacity="0" result="BackgroundImageFix"/>
      <feBlend mode="normal" in="SourceGraphic" in2="BackgroundImageFix" result="shape"/>
      <feGaussianBlur stdDeviation="6.5" result="effect1_foregroundBlur_17465_27536"/>
    </filter>
    <filter id="filter8_f_17465_27536" x="30.3105" y="334.98" width="44.167" height="44.168" filterUnits="userSpaceOnUse" color-interpolation-filters="sRGB">
      <feFlood flood-opacity="0" result="BackgroundImageFix"/>
      <feBlend mode="normal" in="SourceGraphic" in2="BackgroundImageFix" result="shape"/>
      <feGaussianBlur stdDeviation="6.5" result="effect1_foregroundBlur_17465_27536"/>
    </filter>
    <filter id="filter9_f_17465_27536" x="414.63" y="333.973" width="44.167" height="44.168" filterUnits="userSpaceOnUse" color-interpolation-filters="sRGB">
      <feFlood flood-opacity="0" result="BackgroundImageFix"/>
      <feBlend mode="normal" in="SourceGraphic" in2="BackgroundImageFix" result="shape"/>
      <feGaussianBlur stdDeviation="6.5" result="effect1_foregroundBlur_17465_27536"/>
    </filter>
    <filter id="filter10_f_17465_27536" x="30.3105" y="111.93" width="44.167" height="44.168" filterUnits="userSpaceOnUse" color-interpolation-filters="sRGB">
      <feFlood flood-opacity="0" result="BackgroundImageFix"/>
      <feBlend mode="normal" in="SourceGraphic" in2="BackgroundImageFix" result="shape"/>
      <feGaussianBlur stdDeviation="6.5" result="effect1_foregroundBlur_17465_27536"/>
    </filter>
    <filter id="filter11_f_17465_27536" x="333.996" y="414.605" width="44.167" height="44.168" filterUnits="userSpaceOnUse" color-interpolation-filters="sRGB">
      <feFlood flood-opacity="0" result="BackgroundImageFix"/>
      <feBlend mode="normal" in="SourceGraphic" in2="BackgroundImageFix" result="shape"/>
      <feGaussianBlur stdDeviation="6.5" result="effect1_foregroundBlur_17465_27536"/>
    </filter>
    <filter id="filter12_f_17465_27536" x="111.951" y="30.2852" width="44.1719" height="44.1719" filterUnits="userSpaceOnUse" color-interpolation-filters="sRGB">
      <feFlood flood-opacity="0" result="BackgroundImageFix"/>
      <feBlend mode="normal" in="SourceGraphic" in2="BackgroundImageFix" result="shape"/>
      <feGaussianBlur stdDeviation="6.5" result="effect1_foregroundBlur_17465_27536"/>
    </filter>
    <filter id="filter13_d_17465_27536" x="145" y="146" width="200" height="200" filterUnits="userSpaceOnUse" color-interpolation-filters="sRGB">
      <feFlood flood-opacity="0" result="BackgroundImageFix"/>
      <feColorMatrix in="SourceAlpha" type="matrix" values="0 0 0 0 0 0 0 0 0 0 0 0 0 0 0 0 0 0 127 0" result="hardAlpha"/>
      <feOffset/>
      <feGaussianBlur stdDeviation="23"/>
      <feComposite in2="hardAlpha" operator="out"/>
      <feColorMatrix type="matrix" values="0 0 0 0 0 0 0 0 0 0 0 0 0 0 0 0 0 0 0.25 0"/>
      <feBlend mode="normal" in2="BackgroundImageFix" result="effect1_dropShadow_17465_27536"/>
      <feBlend mode="normal" in="SourceGraphic" in2="effect1_dropShadow_17465_27536" result="shape"/>
    </filter>
    <linearGradient id="paint0_linear_17465_27536" x1="477" y1="198.5" x2="5.00001" y2="206" gradientUnits="userSpaceOnUse">
      <stop stop-color="#F5F5FA"/>
      <stop offset="1" stop-color="#C6C6C6"/>
    </linearGradient>
    <linearGradient id="paint1_linear_17465_27536" x1="482" y1="197.489" x2="-0.150526" y2="205.151" gradientUnits="userSpaceOnUse">
      <stop stop-color="#C6C6C6"/>
      <stop offset="1" stop-color="#F5F5FA"/>
    </linearGradient>
    <linearGradient id="paint2_linear_17465_27536" x1="475" y1="216" x2="19.5" y2="216" gradientUnits="userSpaceOnUse">
      <stop stop-color="#2C3D55"/>
      <stop offset="1" stop-color="#314A6F"/>
    </linearGradient>
    <clipPath id="clip0_17465_27536">
      <rect width="69" height="36" fill="white" transform="translate(210 229)"/>
    </clipPath>
  </defs>
</svg>
