<svg width="32" height="32" viewBox="0 0 32 32" fill="none" xmlns="http://www.w3.org/2000/svg">
<g clip-path="url(#clip0_14481_4075)">
<rect width="32" height="32" rx="8" fill="#F91F2B"/>
<path d="M10.1313 22.9131V9.08398C10.1313 7.65625 11.1357 6.69336 12.6216 6.69336H19.4282C20.8809 6.69336 21.8521 7.65625 21.8521 9.08398V22.9048C21.8521 24.3408 20.8809 25.3037 19.4282 25.3037H12.6216C11.1357 25.3037 10.1313 24.3408 10.1313 22.9131ZM11.9824 22.415C11.9824 23.0293 12.3477 23.3696 12.9785 23.3696H19.0132C19.6357 23.3696 20.0093 23.021 20.0093 22.415V9.58203C20.0093 8.97607 19.6357 8.62744 19.0132 8.62744H12.9785C12.3477 8.62744 11.9824 8.96777 11.9824 9.58203V22.415ZM15.9917 19.1279C14.2651 19.1279 12.8623 17.7251 12.8623 15.9902C12.8623 14.2637 14.2651 12.8608 15.9917 12.8608C17.7183 12.8608 19.1294 14.2637 19.1294 15.9902C19.1294 17.7251 17.7183 19.1279 15.9917 19.1279Z" fill="white"/>
</g>
<defs>
<clipPath id="clip0_14481_4075">
<rect width="32" height="32" rx="8" fill="white"/>
</clipPath>
</defs>
</svg>
