<svg width="120" height="120" viewBox="0 0 120 120" fill="none" xmlns="http://www.w3.org/2000/svg">
<g opacity="0.3" filter="url(#filter0_f_2671_8337)">
<ellipse cx="58.8535" cy="100.98" rx="28.1707" ry="4.39024" fill="black" fill-opacity="0.42"/>
</g>
<path d="M110.741 33.2198H110.721C110.555 33.2188 110.393 33.1688 110.256 33.076C110.119 32.9832 110.012 32.8519 109.949 32.6985C109.949 32.6966 109.948 32.6949 109.947 32.6936C109.946 32.6923 109.944 32.6915 109.942 32.6915C109.88 32.5386 109.864 32.371 109.897 32.2092C109.929 32.0475 110.007 31.8986 110.123 31.7809L110.144 31.7601C110.361 31.5422 110.482 31.2473 110.482 30.9398C110.482 30.6323 110.361 30.3374 110.144 30.1196L109.595 29.5774C109.377 29.3604 109.082 29.2385 108.774 29.2385C108.467 29.2385 108.172 29.3604 107.954 29.5774L107.947 29.5913C107.827 29.7072 107.675 29.7855 107.511 29.8163C107.347 29.8472 107.177 29.8294 107.023 29.7651C106.867 29.7046 106.733 29.5986 106.639 29.4609C106.545 29.3232 106.494 29.1603 106.494 28.9935V28.9726C106.495 28.8206 106.465 28.67 106.408 28.5293C106.35 28.3887 106.265 28.2608 106.158 28.153C106.051 28.0452 105.923 27.9596 105.783 27.901C105.643 27.8425 105.492 27.8121 105.34 27.8118H104.562C104.41 27.8121 104.259 27.8425 104.119 27.901C103.979 27.9596 103.851 28.0452 103.744 28.153C103.637 28.2608 103.552 28.3887 103.495 28.5293C103.437 28.67 103.407 28.8206 103.408 28.9726V28.9935C103.408 29.1593 103.358 29.3213 103.265 29.4588C103.172 29.5962 103.04 29.7029 102.887 29.7651C102.782 29.812 102.668 29.8357 102.553 29.8346C102.443 29.8348 102.335 29.8135 102.233 29.7717C102.132 29.73 102.04 29.6687 101.962 29.5913L101.948 29.5774C101.73 29.3604 101.435 29.2385 101.128 29.2385C100.82 29.2385 100.526 29.3604 100.308 29.5774L99.7585 30.1196C99.5415 30.3374 99.4197 30.6323 99.4197 30.9398C99.4197 31.2473 99.5415 31.5422 99.7585 31.7601L99.7794 31.7809C99.8959 31.8995 99.9749 32.0497 100.007 32.2129C100.038 32.3761 100.021 32.5449 99.9572 32.6984C99.8935 32.8519 99.7859 32.9832 99.648 33.076C99.51 33.1687 99.3478 33.2187 99.1816 33.2198H99.1607C98.853 33.2204 98.5581 33.3428 98.3405 33.5604C98.1229 33.778 98.0004 34.073 97.9999 34.3807V35.1523C98.0004 35.46 98.1229 35.7549 98.3405 35.9725C98.5581 36.1901 98.853 36.3126 99.1607 36.3131H99.1816C99.3478 36.3117 99.5106 36.3608 99.6484 36.4539C99.7861 36.547 99.8924 36.6797 99.9532 36.8344C100.016 36.9889 100.033 37.1583 100.002 37.3223C99.9716 37.4863 99.8942 37.6379 99.7794 37.759L99.7655 37.7659C99.5484 37.9851 99.4266 38.2811 99.4266 38.5896C99.4266 38.8981 99.5484 39.1942 99.7655 39.4134L100.308 39.9555C100.526 40.1725 100.82 40.2944 101.128 40.2944C101.435 40.2944 101.73 40.1725 101.948 39.9555L101.962 39.9416C102.078 39.8236 102.227 39.7432 102.39 39.7109C102.552 39.6787 102.72 39.6961 102.873 39.7609C103.029 39.8225 103.164 39.9295 103.259 40.0683C103.355 40.207 103.407 40.3711 103.408 40.5394V40.5603C103.408 40.7119 103.437 40.8622 103.495 41.0023C103.553 41.1425 103.638 41.2698 103.745 41.3771C103.852 41.4843 103.98 41.5693 104.12 41.6271C104.26 41.685 104.41 41.7146 104.562 41.7142H105.34C105.492 41.7146 105.642 41.685 105.782 41.6271C105.923 41.5693 106.05 41.4843 106.157 41.3771C106.264 41.2698 106.349 41.1425 106.407 41.0023C106.465 40.8622 106.495 40.7119 106.494 40.5603V40.5394C106.496 40.3711 106.547 40.207 106.643 40.0683C106.738 39.9295 106.873 39.8225 107.03 39.7609C107.182 39.6961 107.35 39.6787 107.513 39.7109C107.675 39.7432 107.824 39.8236 107.94 39.9416L107.954 39.9555C108.172 40.1725 108.467 40.2944 108.774 40.2944C109.082 40.2944 109.377 40.1725 109.595 39.9555L110.137 39.4134C110.354 39.1942 110.476 38.8981 110.476 38.5896C110.476 38.2811 110.354 37.9851 110.137 37.7659L110.123 37.759C110.008 37.6379 109.931 37.4863 109.9 37.3223C109.869 37.1583 109.886 36.9889 109.949 36.8344C110.01 36.6797 110.116 36.547 110.254 36.4539C110.392 36.3608 110.554 36.3117 110.721 36.3131H110.741C111.049 36.3126 111.344 36.1901 111.562 35.9725C111.779 35.7549 111.902 35.46 111.902 35.1523V34.3807C111.902 34.073 111.779 33.778 111.562 33.5604C111.344 33.3428 111.049 33.2204 110.741 33.2198ZM104.951 37.1959C104.47 37.1959 104 37.0532 103.599 36.7859C103.199 36.5186 102.888 36.1386 102.703 35.694C102.519 35.2495 102.471 34.7603 102.565 34.2883C102.659 33.8164 102.891 33.3829 103.231 33.0426C103.571 32.7024 104.005 32.4707 104.476 32.3768C104.948 32.2829 105.438 32.3311 105.882 32.5153C106.327 32.6994 106.707 33.0112 106.974 33.4113C107.241 33.8114 107.384 34.2818 107.384 34.763C107.384 35.4082 107.128 36.0271 106.671 36.4833C106.215 36.9396 105.596 37.1959 104.951 37.1959Z" fill="#10101F" fill-opacity="0.16"/>
<g opacity="0.76" filter="url(#filter1_f_2671_8337)">
<path d="M102.265 48.3807H102.236C102.01 48.3794 101.788 48.3109 101.6 48.1839C101.413 48.057 101.266 47.8772 101.181 47.6673C101.181 47.6648 101.18 47.6624 101.178 47.6606C101.176 47.6588 101.174 47.6578 101.171 47.6578C101.086 47.4486 101.065 47.2192 101.109 46.9978C101.153 46.7764 101.26 46.5727 101.418 46.4117L101.447 46.3831C101.744 46.0851 101.911 45.6815 101.911 45.2607C101.911 44.84 101.744 44.4364 101.447 44.1383L100.695 43.3963C100.397 43.0994 99.9938 42.9327 99.573 42.9327C99.1523 42.9327 98.7487 43.0994 98.4506 43.3963L98.4411 43.4153C98.2763 43.574 98.0688 43.6811 97.844 43.7233C97.6193 43.7656 97.387 43.7412 97.1759 43.6532C96.9631 43.5704 96.7803 43.4253 96.6513 43.237C96.5223 43.0486 96.4532 42.8256 96.453 42.5973V42.5688C96.4538 42.3607 96.4135 42.1546 96.3345 41.9622C96.2556 41.7697 96.1394 41.5947 95.9928 41.4472C95.8461 41.2997 95.6718 41.1825 95.4799 41.1023C95.2879 41.0222 95.082 40.9807 94.874 40.9802H93.8086C93.6006 40.9807 93.3947 41.0222 93.2027 41.1023C93.0108 41.1825 92.8365 41.2997 92.6898 41.4472C92.5432 41.5947 92.427 41.7697 92.3481 41.9622C92.2691 42.1546 92.2288 42.3607 92.2296 42.5688V42.5973C92.2291 42.8243 92.161 43.046 92.0339 43.234C91.9069 43.4221 91.7266 43.568 91.5162 43.6532C91.3726 43.7173 91.2169 43.7498 91.0596 43.7483C90.9096 43.7486 90.7609 43.7194 90.6222 43.6623C90.4834 43.6052 90.3573 43.5213 90.2511 43.4153L90.232 43.3963C89.9339 43.0994 89.5303 42.9327 89.1096 42.9327C88.6888 42.9327 88.2852 43.0994 87.9872 43.3963L87.2357 44.1383C86.9387 44.4364 86.772 44.84 86.772 45.2607C86.772 45.6815 86.9387 46.0851 87.2357 46.3831L87.2642 46.4117C87.4237 46.5739 87.5318 46.7795 87.575 47.0028C87.6183 47.2261 87.5949 47.4572 87.5076 47.6672C87.4203 47.8773 87.2731 48.057 87.0844 48.1839C86.8956 48.3107 86.6736 48.3792 86.4462 48.3807H86.4176C85.9966 48.3815 85.593 48.5491 85.2952 48.8468C84.9975 49.1446 84.8299 49.5482 84.8291 49.9692V51.0251C84.8299 51.4462 84.9975 51.8498 85.2952 52.1475C85.593 52.4453 85.9966 52.6129 86.4176 52.6136H86.4462C86.6737 52.6118 86.8964 52.6789 87.0849 52.8063C87.2734 52.9337 87.4189 53.1153 87.502 53.327C87.5882 53.5385 87.6117 53.7703 87.5695 53.9946C87.5273 54.219 87.4213 54.4265 87.2642 54.5922L87.2452 54.6017C86.9481 54.9016 86.7815 55.3067 86.7815 55.7289C86.7815 56.151 86.9481 56.5561 87.2452 56.8561L87.9872 57.598C88.2852 57.895 88.6888 58.0617 89.1096 58.0617C89.5303 58.0617 89.9339 57.895 90.232 57.598L90.2511 57.579C90.4099 57.4174 90.6137 57.3074 90.836 57.2633C91.0582 57.2192 91.2886 57.243 91.4971 57.3317C91.7116 57.4159 91.8959 57.5624 92.0264 57.7523C92.157 57.9421 92.2277 58.1667 92.2296 58.397V58.4256C92.2291 58.6331 92.2696 58.8386 92.3488 59.0304C92.4279 59.2222 92.5442 59.3965 92.691 59.5432C92.8377 59.69 93.012 59.8063 93.2038 59.8854C93.3956 59.9646 93.6011 60.0051 93.8086 60.0046H94.874C95.0815 60.0051 95.287 59.9646 95.4788 59.8854C95.6706 59.8063 95.8449 59.69 95.9916 59.5432C96.1384 59.3965 96.2547 59.2222 96.3338 59.0304C96.413 58.8386 96.4535 58.6331 96.453 58.4256V58.397C96.4549 58.1667 96.5256 57.9421 96.6562 57.7523C96.7867 57.5624 96.971 57.4159 97.1854 57.3317C97.394 57.243 97.6244 57.2192 97.8466 57.2633C98.0689 57.3074 98.2727 57.4174 98.4315 57.579L98.4506 57.598C98.7487 57.895 99.1523 58.0617 99.573 58.0617C99.9938 58.0617 100.397 57.895 100.695 57.598L101.437 56.8561C101.734 56.5561 101.901 56.151 101.901 55.7289C101.901 55.3067 101.734 54.9016 101.437 54.6017L101.418 54.5922C101.261 54.4265 101.155 54.219 101.113 53.9946C101.071 53.7703 101.094 53.5385 101.181 53.327C101.264 53.1153 101.409 52.9337 101.598 52.8063C101.786 52.6789 102.009 52.6118 102.236 52.6136H102.265C102.686 52.6129 103.09 52.4453 103.387 52.1475C103.685 51.8498 103.853 51.4462 103.853 51.0251V49.9692C103.853 49.5482 103.685 49.1446 103.387 48.8468C103.09 48.5491 102.686 48.3815 102.265 48.3807ZM94.3413 53.8217C93.6828 53.8217 93.0391 53.6264 92.4917 53.2606C91.9442 52.8948 91.5174 52.3748 91.2655 51.7665C91.0135 51.1581 90.9475 50.4887 91.076 49.8429C91.2045 49.1971 91.5215 48.6039 91.9871 48.1383C92.4528 47.6727 93.046 47.3556 93.6918 47.2271C94.3376 47.0987 95.007 47.1646 95.6154 47.4166C96.2237 47.6686 96.7437 48.0953 97.1095 48.6428C97.4753 49.1903 97.6706 49.834 97.6706 50.4924C97.6706 51.3754 97.3198 52.2222 96.6954 52.8466C96.0711 53.4709 95.2243 53.8217 94.3413 53.8217Z" fill="url(#paint0_linear_2671_8337)"/>
</g>
<g filter="url(#filter2_d_2671_8337)">
<path d="M95.2517 24.0326H95.2155C94.9277 24.0309 94.6468 23.944 94.4083 23.7828C94.1698 23.6217 93.9843 23.3935 93.8754 23.1271C93.8754 23.1239 93.8741 23.1208 93.8718 23.1185C93.8696 23.1163 93.8665 23.115 93.8633 23.115C93.7559 22.8495 93.7284 22.5583 93.7841 22.2774C93.8399 21.9964 93.9765 21.7378 94.1772 21.5334L94.2134 21.4972C94.5903 21.1189 94.8019 20.6066 94.8019 20.0726C94.8019 19.5385 94.5903 19.0263 94.2134 18.6479L93.2596 17.7062C92.8813 17.3293 92.369 17.1177 91.835 17.1177C91.301 17.1177 90.7887 17.3293 90.4104 17.7062L90.3983 17.7304C90.1892 17.9318 89.9258 18.0676 89.6405 18.1213C89.3552 18.1749 89.0605 18.1439 88.7926 18.0322C88.5225 17.9272 88.2904 17.7431 88.1267 17.504C87.9629 17.2648 87.8752 16.9819 87.875 16.6921V16.6559C87.8759 16.3918 87.8248 16.1302 87.7246 15.886C87.6244 15.6417 87.477 15.4196 87.2909 15.2323C87.1047 15.0451 86.8835 14.8963 86.6398 14.7946C86.3962 14.693 86.1349 14.6403 85.8709 14.6396H84.5187C84.2546 14.6403 83.9933 14.693 83.7497 14.7946C83.506 14.8963 83.2848 15.0451 83.0987 15.2323C82.9125 15.4196 82.7651 15.6417 82.6649 15.886C82.5647 16.1302 82.5136 16.3918 82.5145 16.6559V16.6921C82.5139 16.9802 82.4275 17.2616 82.2662 17.5003C82.1049 17.739 81.8761 17.9242 81.609 18.0322C81.4268 18.1137 81.2291 18.1549 81.0295 18.1529C80.8391 18.1534 80.6504 18.1163 80.4743 18.0438C80.2982 17.9713 80.1382 17.8648 80.0033 17.7304L79.9791 17.7062C79.6008 17.3293 79.0885 17.1177 78.5545 17.1177C78.0205 17.1177 77.5082 17.3293 77.1299 17.7062L76.1761 18.6479C75.7992 19.0263 75.5876 19.5385 75.5876 20.0726C75.5876 20.6066 75.7992 21.1189 76.1761 21.4972L76.2123 21.5334C76.4147 21.7393 76.5519 22.0003 76.6068 22.2837C76.6617 22.5671 76.632 22.8604 76.5212 23.127C76.4105 23.3936 76.2236 23.6217 75.984 23.7827C75.7444 23.9438 75.4627 24.0307 75.174 24.0326H75.1378C74.6034 24.0335 74.0911 24.2463 73.7132 24.6242C73.3353 25.0021 73.1225 25.5144 73.1216 26.0488V27.3889C73.1225 27.9234 73.3353 28.4356 73.7132 28.8135C74.0911 29.1914 74.6034 29.4042 75.1378 29.4051H75.174C75.4628 29.4027 75.7455 29.488 75.9847 29.6497C76.224 29.8114 76.4086 30.0418 76.5141 30.3106C76.6236 30.579 76.6533 30.8731 76.5998 31.1579C76.5462 31.4427 76.4117 31.7061 76.2123 31.9164L76.1882 31.9284C75.8111 32.3091 75.5996 32.8233 75.5996 33.3591C75.5996 33.8949 75.8111 34.4091 76.1882 34.7898L77.1299 35.7315C77.5082 36.1084 78.0205 36.32 78.5545 36.32C79.0885 36.32 79.6008 36.1084 79.9791 35.7315L80.0033 35.7073C80.2049 35.5022 80.4636 35.3626 80.7457 35.3066C81.0278 35.2506 81.3202 35.2809 81.5849 35.3934C81.857 35.5004 82.091 35.6863 82.2567 35.9272C82.4223 36.1682 82.5121 36.4532 82.5145 36.7456V36.7818C82.5139 37.0452 82.5653 37.3061 82.6658 37.5495C82.7663 37.793 82.9139 38.0142 83.1001 38.2004C83.2863 38.3866 83.5075 38.5342 83.7509 38.6347C83.9944 38.7352 84.2553 38.7866 84.5187 38.786H85.8709C86.1342 38.7866 86.3951 38.7352 86.6386 38.6347C86.882 38.5342 87.1032 38.3866 87.2894 38.2004C87.4756 38.0142 87.6232 37.793 87.7237 37.5495C87.8242 37.3061 87.8756 37.0452 87.875 36.7818V36.7456C87.8774 36.4532 87.9672 36.1682 88.1328 35.9272C88.2985 35.6863 88.5325 35.5004 88.8046 35.3934C89.0693 35.2809 89.3617 35.2506 89.6438 35.3066C89.9259 35.3626 90.1846 35.5022 90.3862 35.7073L90.4104 35.7315C90.7887 36.1084 91.301 36.32 91.835 36.32C92.369 36.32 92.8813 36.1084 93.2596 35.7315L94.2013 34.7898C94.5784 34.4091 94.7899 33.8949 94.7899 33.3591C94.7899 32.8233 94.5784 32.3091 94.2013 31.9284L94.1772 31.9164C93.9778 31.7061 93.8433 31.4427 93.7897 31.1579C93.7362 30.8731 93.7659 30.579 93.8754 30.3106C93.9809 30.0418 94.1655 29.8114 94.4048 29.6497C94.644 29.488 94.9267 29.4027 95.2155 29.4051H95.2517C95.7861 29.4042 96.2984 29.1914 96.6763 28.8135C97.0542 28.4356 97.267 27.9234 97.2679 27.3889V26.0488C97.267 25.5144 97.0542 25.0021 96.6763 24.6242C96.2984 24.2463 95.7861 24.0335 95.2517 24.0326ZM85.1948 30.9384C84.359 30.9384 83.542 30.6906 82.8471 30.2263C82.1522 29.762 81.6106 29.102 81.2908 28.3299C80.971 27.5578 80.8873 26.7081 81.0503 25.8884C81.2134 25.0688 81.6158 24.3158 82.2068 23.7249C82.7978 23.1339 83.5507 22.7314 84.3704 22.5684C85.1901 22.4054 86.0397 22.489 86.8118 22.8089C87.584 23.1287 88.2439 23.6703 88.7082 24.3652C89.1725 25.0601 89.4204 25.8771 89.4204 26.7128C89.4204 27.8335 88.9752 28.9083 88.1827 29.7008C87.3903 30.4932 86.3155 30.9384 85.1948 30.9384Z" fill="url(#paint1_linear_2671_8337)"/>
</g>
<path d="M31.4725 47.5268H31.4472C31.2466 47.5256 31.0509 47.465 30.8846 47.3527C30.7184 47.2404 30.5892 47.0814 30.5132 46.8957C30.5132 46.8935 30.5123 46.8913 30.5108 46.8898C30.5092 46.8882 30.507 46.8873 30.5048 46.8873C30.4299 46.7022 30.4108 46.4993 30.4496 46.3035C30.4885 46.1077 30.5837 45.9274 30.7236 45.785L30.7488 45.7597C31.0115 45.496 31.159 45.139 31.159 44.7668C31.159 44.3946 31.0115 44.0376 30.7488 43.7739L30.0841 43.1175C29.8204 42.8549 29.4633 42.7074 29.0911 42.7074C28.7189 42.7074 28.3619 42.8549 28.0982 43.1175L28.0898 43.1344C27.9441 43.2747 27.7605 43.3694 27.5617 43.4068C27.3628 43.4442 27.1574 43.4226 26.9707 43.3447C26.7824 43.2715 26.6207 43.1432 26.5065 42.9766C26.3924 42.8099 26.3313 42.6127 26.3311 42.4107V42.3855C26.3318 42.2015 26.2962 42.0191 26.2263 41.8489C26.1565 41.6786 26.0537 41.5238 25.924 41.3933C25.7943 41.2628 25.6401 41.1591 25.4703 41.0883C25.3005 41.0174 25.1183 40.9807 24.9343 40.9802H23.9919C23.8079 40.9807 23.6257 41.0174 23.4559 41.0883C23.2861 41.1591 23.1319 41.2628 23.0022 41.3933C22.8724 41.5238 22.7697 41.6786 22.6999 41.8489C22.63 42.0191 22.5944 42.2015 22.595 42.3855V42.4107C22.5946 42.6115 22.5344 42.8076 22.422 42.974C22.3096 43.1404 22.1501 43.2694 21.9639 43.3447C21.8369 43.4015 21.6992 43.4302 21.56 43.4289C21.4273 43.4292 21.2958 43.4034 21.1731 43.3528C21.0504 43.3023 20.9388 43.2281 20.8448 43.1344L20.828 43.1175C20.5643 42.8549 20.2072 42.7074 19.835 42.7074C19.4628 42.7074 19.1058 42.8549 18.8421 43.1175L18.1774 43.7739C17.9147 44.0376 17.7672 44.3946 17.7672 44.7668C17.7672 45.139 17.9147 45.496 18.1774 45.7597L18.2026 45.785C18.3436 45.9285 18.4393 46.1104 18.4776 46.3079C18.5158 46.5054 18.4951 46.7099 18.4179 46.8957C18.3407 47.0815 18.2105 47.2404 18.0435 47.3527C17.8765 47.4649 17.6802 47.5255 17.4789 47.5268H17.4537C17.0812 47.5275 16.7242 47.6757 16.4608 47.9391C16.1974 48.2025 16.0491 48.5596 16.0485 48.9321V49.8661C16.0491 50.2386 16.1974 50.5956 16.4608 50.859C16.7242 51.1224 17.0812 51.2707 17.4537 51.2713H17.4789C17.6802 51.2697 17.8772 51.3291 18.044 51.4418C18.2108 51.5545 18.3394 51.7151 18.413 51.9024C18.4892 52.0894 18.51 52.2945 18.4727 52.493C18.4353 52.6915 18.3416 52.875 18.2026 53.0216L18.1858 53.03C17.923 53.2953 17.7756 53.6537 17.7756 54.0271C17.7756 54.4006 17.923 54.7589 18.1858 55.0242L18.8421 55.6806C19.1058 55.9433 19.4628 56.0907 19.835 56.0907C20.2072 56.0907 20.5643 55.9433 20.828 55.6806L20.8448 55.6638C20.9853 55.5208 21.1656 55.4235 21.3622 55.3845C21.5589 55.3454 21.7627 55.3665 21.9471 55.445C22.1368 55.5195 22.2999 55.6491 22.4153 55.817C22.5308 55.985 22.5934 56.1836 22.595 56.3874V56.4127C22.5946 56.5962 22.6304 56.7781 22.7005 56.9477C22.7705 57.1174 22.8734 57.2716 23.0032 57.4014C23.133 57.5312 23.2871 57.634 23.4568 57.7041C23.6265 57.7741 23.8083 57.8099 23.9919 57.8095H24.9343C25.1179 57.8099 25.2997 57.7741 25.4694 57.7041C25.6391 57.634 25.7932 57.5312 25.923 57.4014C26.0528 57.2716 26.1557 57.1174 26.2257 56.9477C26.2958 56.7781 26.3316 56.5962 26.3311 56.4127V56.3874C26.3328 56.1836 26.3954 55.985 26.5109 55.817C26.6263 55.6491 26.7894 55.5195 26.9791 55.445C27.1635 55.3665 27.3673 55.3454 27.564 55.3845C27.7606 55.4235 27.9409 55.5208 28.0814 55.6638L28.0982 55.6806C28.3619 55.9433 28.7189 56.0907 29.0911 56.0907C29.4633 56.0907 29.8204 55.9433 30.0841 55.6806L30.7404 55.0242C31.0032 54.7589 31.1506 54.4006 31.1506 54.0271C31.1506 53.6537 31.0032 53.2953 30.7404 53.03L30.7236 53.0216C30.5846 52.875 30.4908 52.6915 30.4535 52.493C30.4162 52.2945 30.4369 52.0894 30.5132 51.9024C30.5868 51.7151 30.7154 51.5545 30.8822 51.4418C31.049 51.3291 31.246 51.2697 31.4472 51.2713H31.4725C31.845 51.2707 32.202 51.1224 32.4654 50.859C32.7288 50.5956 32.8771 50.2386 32.8777 49.8661V48.9321C32.8771 48.5596 32.7288 48.2025 32.4654 47.9391C32.202 47.6757 31.845 47.5275 31.4725 47.5268ZM24.4631 52.34C23.8806 52.34 23.3112 52.1672 22.8269 51.8436C22.3426 51.52 21.9651 51.0601 21.7422 50.5219C21.5192 49.9838 21.4609 49.3916 21.5746 48.8203C21.6882 48.249 21.9687 47.7242 22.3806 47.3123C22.7925 46.9005 23.3172 46.62 23.8885 46.5063C24.4598 46.3927 25.052 46.451 25.5901 46.6739C26.1283 46.8968 26.5883 47.2743 26.9119 47.7586C27.2355 48.243 27.4082 48.8124 27.4082 49.3949C27.4082 50.176 27.0979 50.9251 26.5456 51.4774C25.9933 52.0297 25.2442 52.34 24.4631 52.34Z" fill="#10101F" fill-opacity="0.16"/>
<g opacity="0.8" filter="url(#filter3_f_2671_8337)">
<path d="M20.0707 69.52H20.051C19.894 69.519 19.7408 69.4716 19.6107 69.3837C19.4806 69.2958 19.3794 69.1714 19.32 69.0261C19.32 69.0243 19.3193 69.0226 19.3181 69.0214C19.3168 69.0202 19.3152 69.0195 19.3134 69.0195C19.2548 68.8746 19.2398 68.7158 19.2702 68.5626C19.3007 68.4093 19.3752 68.2683 19.4846 68.1568L19.5044 68.137C19.71 67.9307 19.8254 67.6512 19.8254 67.36C19.8254 67.0687 19.71 66.7893 19.5044 66.5829L18.9841 66.0692C18.7778 65.8637 18.4984 65.7482 18.2071 65.7482C17.9158 65.7482 17.6364 65.8637 17.43 66.0692L17.4234 66.0824C17.3094 66.1923 17.1657 66.2664 17.0101 66.2956C16.8545 66.3249 16.6937 66.308 16.5476 66.247C16.4002 66.1897 16.2736 66.0893 16.1843 65.9589C16.095 65.8285 16.0472 65.6741 16.0471 65.5161V65.4963C16.0476 65.3523 16.0197 65.2096 15.965 65.0763C15.9104 64.9431 15.83 64.822 15.7285 64.7198C15.6269 64.6177 15.5063 64.5366 15.3734 64.4811C15.2405 64.4256 15.0979 64.3969 14.9539 64.3965H14.2163C14.0723 64.3969 13.9298 64.4256 13.7969 64.4811C13.664 64.5366 13.5433 64.6177 13.4418 64.7198C13.3403 64.822 13.2599 64.9431 13.2052 65.0763C13.1505 65.2096 13.1227 65.3523 13.1232 65.4963V65.5161C13.1229 65.6732 13.0757 65.8267 12.9877 65.9569C12.8997 66.0871 12.7749 66.1881 12.6293 66.247C12.5299 66.2915 12.422 66.3139 12.3132 66.3129C12.2093 66.3131 12.1064 66.2929 12.0103 66.2534C11.9143 66.2138 11.827 66.1557 11.7534 66.0824L11.7402 66.0692C11.5339 65.8637 11.2545 65.7482 10.9632 65.7482C10.6719 65.7482 10.3925 65.8637 10.1861 66.0692L9.66585 66.5829C9.46028 66.7893 9.34486 67.0687 9.34486 67.36C9.34486 67.6512 9.46028 67.9307 9.66585 68.137L9.68561 68.1568C9.79598 68.2691 9.87082 68.4114 9.90079 68.566C9.93076 68.7206 9.91452 68.8806 9.8541 69.026C9.79369 69.1714 9.69177 69.2958 9.56109 69.3837C9.4304 69.4715 9.27673 69.5189 9.11927 69.52H9.09951C8.808 69.5205 8.52858 69.6365 8.32244 69.8426C8.11631 70.0488 8.00028 70.3282 7.99976 70.6197V71.3507C8.00028 71.6422 8.11631 71.9216 8.32244 72.1278C8.52858 72.3339 8.808 72.4499 9.09951 72.4504H9.11927C9.27677 72.4491 9.43097 72.4957 9.56148 72.5838C9.69199 72.672 9.79268 72.7977 9.85024 72.9443C9.90993 73.0907 9.92615 73.2512 9.89695 73.4065C9.86775 73.5619 9.79437 73.7055 9.68561 73.8202L9.67244 73.8268C9.46678 74.0344 9.35141 74.3149 9.35141 74.6072C9.35141 74.8994 9.46678 75.1799 9.67244 75.3875L10.1861 75.9012C10.3925 76.1067 10.6719 76.2222 10.9632 76.2222C11.2545 76.2222 11.5339 76.1067 11.7402 75.9012L11.7534 75.888C11.8634 75.7761 12.0045 75.7 12.1584 75.6694C12.3122 75.6389 12.4717 75.6554 12.6161 75.7168C12.7646 75.7751 12.8922 75.8765 12.9825 76.008C13.0729 76.1394 13.1219 76.2949 13.1232 76.4543V76.4741C13.1228 76.6178 13.1509 76.7601 13.2057 76.8929C13.2605 77.0256 13.341 77.1463 13.4426 77.2479C13.5442 77.3494 13.6648 77.43 13.7976 77.4848C13.9304 77.5396 14.0727 77.5676 14.2163 77.5673H14.9539C15.0976 77.5676 15.2399 77.5396 15.3727 77.4848C15.5054 77.43 15.6261 77.3494 15.7277 77.2479C15.8292 77.1463 15.9098 77.0256 15.9646 76.8929C16.0194 76.7601 16.0474 76.6178 16.0471 76.4741V76.4543C16.0484 76.2949 16.0974 76.1394 16.1877 76.008C16.2781 75.8765 16.4057 75.7751 16.5541 75.7168C16.6985 75.6554 16.858 75.6389 17.0119 75.6694C17.1658 75.7 17.3069 75.7761 17.4168 75.888L17.43 75.9012C17.6364 76.1067 17.9158 76.2222 18.2071 76.2222C18.4984 76.2222 18.7778 76.1067 18.9841 75.9012L19.4978 75.3875C19.7035 75.1799 19.8188 74.8994 19.8188 74.6072C19.8188 74.3149 19.7035 74.0344 19.4978 73.8268L19.4846 73.8202C19.3759 73.7055 19.3025 73.5619 19.2733 73.4065C19.2441 73.2512 19.2603 73.0907 19.32 72.9443C19.3776 72.7977 19.4783 72.672 19.6088 72.5838C19.7393 72.4957 19.8935 72.4491 20.051 72.4504H20.0707C20.3622 72.4499 20.6417 72.3339 20.8478 72.1278C21.0539 71.9216 21.17 71.6422 21.1705 71.3507V70.6197C21.17 70.3282 21.0539 70.0488 20.8478 69.8426C20.6417 69.6365 20.3622 69.5205 20.0707 69.52ZM14.5851 73.2868C14.1293 73.2868 13.6836 73.1516 13.3046 72.8983C12.9256 72.6451 12.6301 72.2851 12.4557 71.8639C12.2812 71.4428 12.2356 70.9794 12.3245 70.5322C12.4135 70.0851 12.633 69.6745 12.9553 69.3521C13.2777 69.0298 13.6884 68.8103 14.1355 68.7213C14.5826 68.6324 15.046 68.678 15.4672 68.8525C15.8883 69.0269 16.2483 69.3224 16.5016 69.7014C16.7548 70.0804 16.89 70.526 16.89 70.9819C16.89 71.5932 16.6472 72.1795 16.2149 72.6117C15.7827 73.044 15.1964 73.2868 14.5851 73.2868Z" fill="#10101F" fill-opacity="0.16"/>
</g>
<g filter="url(#filter4_d_2671_8337)">
<rect x="24.8284" y="20.4955" width="68.7805" height="68.7805" rx="27.6923" fill="url(#paint2_linear_2671_8337)"/>
<rect x="24.8282" y="18.2996" width="68.7805" height="67.3171" rx="26.1538" fill="url(#paint3_linear_2671_8337)"/>
<rect opacity="0.59" x="24.8282" y="18.2996" width="68.7805" height="67.3171" rx="26.1538" fill="url(#paint4_linear_2671_8337)"/>
<path d="M79.0332 61.1463H79.0079C78.8073 61.1452 78.6115 61.0873 78.4453 60.9798C78.2791 60.8724 78.1498 60.7203 78.0739 60.5427C78.0739 60.5406 78.073 60.5385 78.0714 60.537C78.0698 60.5355 78.0677 60.5346 78.0655 60.5346C77.9906 60.3576 77.9714 60.1635 78.0103 59.9762C78.0492 59.7889 78.1444 59.6165 78.2843 59.4803L78.3095 59.4561C78.5722 59.2039 78.7197 58.8624 78.7197 58.5063C78.7197 58.1503 78.5722 57.8088 78.3095 57.5566L77.6447 56.9288C77.381 56.6775 77.024 56.5365 76.6518 56.5365C76.2796 56.5365 75.9226 56.6775 75.6589 56.9288L75.6505 56.9449C75.5048 57.0791 75.3212 57.1697 75.1223 57.2055C74.9235 57.2412 74.7181 57.2206 74.5313 57.1461C74.3431 57.0761 74.1813 56.9533 74.0672 56.7939C73.9531 56.6345 73.892 56.4459 73.8918 56.2527V56.2285C73.8925 56.0525 73.8569 55.8781 73.787 55.7153C73.7171 55.5524 73.6144 55.4044 73.4847 55.2795C73.355 55.1547 73.2008 55.0555 73.031 54.9877C72.8611 54.9199 72.679 54.8848 72.495 54.8844H71.5525C71.3685 54.8848 71.1864 54.9199 71.0166 54.9877C70.8468 55.0555 70.6926 55.1547 70.5628 55.2795C70.4331 55.4044 70.3304 55.5524 70.2605 55.7153C70.1907 55.8781 70.1551 56.0525 70.1557 56.2285V56.2527C70.1553 56.4448 70.0951 56.6323 69.9826 56.7915C69.8702 56.9506 69.7108 57.0741 69.5246 57.1461C69.3976 57.2004 69.2598 57.2279 69.1207 57.2266C68.988 57.2269 68.8565 57.2022 68.7338 57.1538C68.611 57.1055 68.4995 57.0345 68.4055 56.9449L68.3886 56.9288C68.125 56.6775 67.7679 56.5365 67.3957 56.5365C67.0235 56.5365 66.6665 56.6775 66.4028 56.9288L65.738 57.5566C65.4754 57.8088 65.3279 58.1503 65.3279 58.5063C65.3279 58.8624 65.4754 59.2039 65.738 59.4561L65.7633 59.4803C65.9043 59.6175 65.9999 59.7915 66.0382 59.9804C66.0765 60.1694 66.0558 60.3649 65.9786 60.5426C65.9014 60.7204 65.7712 60.8724 65.6042 60.9798C65.4372 61.0871 65.2408 61.1451 65.0396 61.1463H65.0144C64.6419 61.147 64.2848 61.2888 64.0215 61.5407C63.7581 61.7927 63.6098 62.1342 63.6091 62.4905V63.3839C63.6098 63.7402 63.7581 64.0817 64.0215 64.3337C64.2848 64.5856 64.6419 64.7274 65.0144 64.7281H65.0396C65.2409 64.7265 65.4379 64.7833 65.6047 64.8911C65.7714 64.9989 65.9001 65.1525 65.9736 65.3317C66.0499 65.5106 66.0706 65.7067 66.0333 65.8966C65.996 66.0865 65.9023 66.262 65.7633 66.4022L65.7464 66.4102C65.4837 66.6641 65.3362 67.0068 65.3362 67.364C65.3362 67.7212 65.4837 68.064 65.7464 68.3178L66.4028 68.9456C66.6665 69.1969 67.0235 69.3379 67.3957 69.3379C67.7679 69.3379 68.125 69.1969 68.3886 68.9456L68.4055 68.9295C68.546 68.7928 68.7263 68.6997 68.9229 68.6624C69.1195 68.625 69.3233 68.6452 69.5078 68.7202C69.6975 68.7915 69.8605 68.9155 69.976 69.0761C70.0915 69.2368 70.1541 69.4268 70.1557 69.6217V69.6459C70.1553 69.8214 70.1911 69.9954 70.2611 70.1577C70.3312 70.32 70.4341 70.4674 70.5638 70.5916C70.6936 70.7157 70.8478 70.8141 71.0175 70.8811C71.1871 70.9481 71.369 70.9824 71.5525 70.982H72.495C72.6785 70.9824 72.8604 70.9481 73.0301 70.8811C73.1997 70.8141 73.3539 70.7157 73.4837 70.5916C73.6135 70.4674 73.7164 70.32 73.7864 70.1577C73.8564 69.9954 73.8923 69.8214 73.8918 69.6459V69.6217C73.8935 69.4268 73.9561 69.2368 74.0715 69.0761C74.187 68.9155 74.3501 68.7915 74.5397 68.7202C74.7242 68.6452 74.928 68.625 75.1246 68.6624C75.3212 68.6997 75.5015 68.7928 75.6421 68.9295L75.6589 68.9456C75.9226 69.1969 76.2796 69.3379 76.6518 69.3379C77.024 69.3379 77.381 69.1969 77.6447 68.9456L78.3011 68.3178C78.5639 68.064 78.7113 67.7212 78.7113 67.364C78.7113 67.0068 78.5639 66.6641 78.3011 66.4102L78.2843 66.4022C78.1453 66.262 78.0515 66.0865 78.0142 65.8966C77.9769 65.7067 77.9976 65.5106 78.0739 65.3317C78.1474 65.1525 78.2761 64.9989 78.4429 64.8911C78.6096 64.7833 78.8067 64.7265 79.0079 64.7281H79.0332C79.4056 64.7274 79.7627 64.5856 80.0261 64.3337C80.2895 64.0817 80.4377 63.7402 80.4384 63.3839V62.4905C80.4377 62.1342 80.2895 61.7927 80.0261 61.5407C79.7627 61.2888 79.4056 61.147 79.0332 61.1463ZM72.0238 65.7502C71.4413 65.7502 70.8719 65.585 70.3875 65.2755C69.9032 64.9659 69.5257 64.526 69.3028 64.0112C69.0799 63.4965 69.0216 62.9301 69.1352 62.3836C69.2489 61.8371 69.5294 61.3352 69.9413 60.9412C70.3531 60.5472 70.8779 60.2789 71.4492 60.1702C72.0205 60.0615 72.6127 60.1173 73.1508 60.3305C73.689 60.5438 74.1489 60.9048 74.4725 61.3681C74.7962 61.8314 74.9689 62.376 74.9689 62.9332C74.9689 63.6803 74.6586 64.3968 74.1063 64.9251C73.554 65.4535 72.8049 65.7502 72.0238 65.7502Z" fill="#F5F5FA" fill-opacity="0.58"/>
<g filter="url(#filter5_d_2671_8337)">
<path d="M64.1533 47.6927H64.1105C63.7703 47.6907 63.4384 47.588 63.1565 47.3975C62.8746 47.2071 62.6555 46.9374 62.5267 46.6226C62.5267 46.6188 62.5252 46.6152 62.5225 46.6125C62.5199 46.6098 62.5162 46.6083 62.5124 46.6083C62.3855 46.2945 62.353 45.9504 62.4189 45.6184C62.4848 45.2863 62.6462 44.9807 62.8834 44.7392L62.9262 44.6964C63.3716 44.2492 63.6217 43.6438 63.6217 43.0127C63.6217 42.3816 63.3716 41.7762 62.9262 41.3291L61.799 40.2161C61.3519 39.7707 60.7465 39.5206 60.1154 39.5206C59.4842 39.5206 58.8788 39.7707 58.4317 40.2161L58.4174 40.2447C58.1704 40.4827 57.8591 40.6433 57.5219 40.7066C57.1847 40.77 56.8364 40.7334 56.5198 40.6014C56.2006 40.4772 55.9263 40.2597 55.7328 39.9771C55.5393 39.6945 55.4356 39.3601 55.4354 39.0176V38.9748C55.4365 38.6628 55.3761 38.3536 55.2576 38.0649C55.1392 37.7762 54.965 37.5137 54.745 37.2924C54.525 37.0711 54.2636 36.8954 53.9756 36.7752C53.6877 36.655 53.3789 36.5927 53.0668 36.592H51.4688C51.1567 36.5927 50.8479 36.655 50.56 36.7752C50.272 36.8954 50.0106 37.0711 49.7906 37.2924C49.5706 37.5137 49.3964 37.7762 49.278 38.0649C49.1595 38.3536 49.0991 38.6628 49.1002 38.9748V39.0176C49.0996 39.3581 48.9974 39.6906 48.8068 39.9727C48.6161 40.2548 48.3457 40.4737 48.0301 40.6014C47.8148 40.6977 47.5811 40.7463 47.3452 40.7441C47.1202 40.7446 46.8972 40.7008 46.6891 40.6151C46.481 40.5294 46.2919 40.4035 46.1324 40.2447L46.1039 40.2161C45.6568 39.7707 45.0514 39.5206 44.4202 39.5206C43.7891 39.5206 43.1837 39.7707 42.7366 40.2161L41.6094 41.3291C41.164 41.7762 40.9139 42.3816 40.9139 43.0127C40.9139 43.6438 41.164 44.2492 41.6094 44.6964L41.6522 44.7392C41.8913 44.9825 42.0535 45.2909 42.1184 45.6259C42.1833 45.9608 42.1482 46.3074 42.0173 46.6225C41.8864 46.9376 41.6656 47.2071 41.3824 47.3974C41.0992 47.5878 40.7663 47.6905 40.4251 47.6927H40.3823C39.7507 47.6938 39.1453 47.9452 38.6987 48.3919C38.2521 48.8385 38.0006 49.4439 37.9995 50.0755V51.6593C38.0006 52.2909 38.2521 52.8963 38.6987 53.3429C39.1453 53.7896 39.7507 54.041 40.3823 54.0421H40.4251C40.7664 54.0393 41.1005 54.1401 41.3832 54.3311C41.666 54.5222 41.8842 54.7945 42.0089 55.1122C42.1382 55.4293 42.1734 55.777 42.1101 56.1136C42.0468 56.4502 41.8878 56.7614 41.6522 57.0099L41.6237 57.0242C41.1781 57.4741 40.9281 58.0817 40.9281 58.715C40.9281 59.3482 41.1781 59.9558 41.6237 60.4058L42.7366 61.5187C43.1837 61.9641 43.7891 62.2142 44.4202 62.2142C45.0514 62.2142 45.6568 61.9641 46.1039 61.5187L46.1324 61.4901C46.3707 61.2477 46.6764 61.0827 47.0098 61.0165C47.3432 60.9504 47.6888 60.9861 48.0016 61.1192C48.3232 61.2456 48.5997 61.4653 48.7955 61.75C48.9913 62.0348 49.0974 62.3716 49.1002 62.7172V62.76C49.0995 63.0713 49.1602 63.3796 49.279 63.6673C49.3978 63.955 49.5722 64.2164 49.7923 64.4365C50.0124 64.6566 50.2738 64.831 50.5615 64.9498C50.8492 65.0686 51.1575 65.1293 51.4688 65.1286H53.0668C53.3781 65.1293 53.6864 65.0686 53.9741 64.9498C54.2618 64.831 54.5232 64.6566 54.7433 64.4365C54.9634 64.2164 55.1378 63.955 55.2566 63.6673C55.3754 63.3796 55.4361 63.0713 55.4354 62.76V62.7172C55.4382 62.3716 55.5443 62.0348 55.7401 61.75C55.9359 61.4653 56.2124 61.2456 56.534 61.1192C56.8468 60.9861 57.1924 60.9504 57.5258 61.0165C57.8592 61.0827 58.1649 61.2477 58.4032 61.4901L58.4317 61.5187C58.8788 61.9641 59.4842 62.2142 60.1154 62.2142C60.7465 62.2142 61.3519 61.9641 61.799 61.5187L62.9119 60.4058C63.3575 59.9558 63.6075 59.3482 63.6075 58.715C63.6075 58.0817 63.3575 57.4741 62.9119 57.0242L62.8834 57.0099C62.6478 56.7614 62.4888 56.4502 62.4255 56.1136C62.3622 55.777 62.3974 55.4293 62.5267 55.1122C62.6514 54.7945 62.8696 54.5222 63.1524 54.3311C63.4351 54.1401 63.7692 54.0393 64.1105 54.0421H64.1533C64.7849 54.041 65.3903 53.7896 65.8369 53.3429C66.2836 52.8963 66.535 52.2909 66.5361 51.6593V50.0755C66.535 49.4439 66.2836 48.8385 65.8369 48.3919C65.3903 47.9452 64.7849 47.6938 64.1533 47.6927ZM52.2678 55.8542C51.2801 55.8542 50.3146 55.5613 49.4933 55.0125C48.6721 54.4638 48.032 53.6839 47.654 52.7714C47.2761 51.8588 47.1772 50.8547 47.3699 49.886C47.5625 48.9173 48.0382 48.0275 48.7366 47.329C49.435 46.6306 50.3248 46.155 51.2935 45.9623C52.2623 45.7696 53.2664 45.8685 54.1789 46.2465C55.0914 46.6245 55.8713 47.2646 56.4201 48.0858C56.9688 48.907 57.2617 49.8726 57.2617 50.8603C57.2617 52.1847 56.7356 53.455 55.799 54.3915C54.8625 55.328 53.5923 55.8542 52.2678 55.8542Z" fill="white"/>
</g>
</g>
<defs>
<filter id="filter0_f_2671_8337" x="19.1443" y="85.051" width="79.4184" height="31.8574" filterUnits="userSpaceOnUse" color-interpolation-filters="sRGB">
<feFlood flood-opacity="0" result="BackgroundImageFix"/>
<feBlend mode="normal" in="SourceGraphic" in2="BackgroundImageFix" result="shape"/>
<feGaussianBlur stdDeviation="5.76923" result="effect1_foregroundBlur_2671_8337"/>
</filter>
<filter id="filter1_f_2671_8337" x="83.2906" y="39.4418" width="22.1013" height="22.1013" filterUnits="userSpaceOnUse" color-interpolation-filters="sRGB">
<feFlood flood-opacity="0" result="BackgroundImageFix"/>
<feBlend mode="normal" in="SourceGraphic" in2="BackgroundImageFix" result="shape"/>
<feGaussianBlur stdDeviation="0.769231" result="effect1_foregroundBlur_2671_8337"/>
</filter>
<filter id="filter2_d_2671_8337" x="69.2754" y="12.332" width="31.8387" height="31.8387" filterUnits="userSpaceOnUse" color-interpolation-filters="sRGB">
<feFlood flood-opacity="0" result="BackgroundImageFix"/>
<feColorMatrix in="SourceAlpha" type="matrix" values="0 0 0 0 0 0 0 0 0 0 0 0 0 0 0 0 0 0 127 0" result="hardAlpha"/>
<feOffset dy="1.53846"/>
<feGaussianBlur stdDeviation="1.92308"/>
<feComposite in2="hardAlpha" operator="out"/>
<feColorMatrix type="matrix" values="0 0 0 0 0 0 0 0 0 0 0 0 0 0 0 0 0 0 0.15 0"/>
<feBlend mode="normal" in2="BackgroundImageFix" result="effect1_dropShadow_2671_8337"/>
<feBlend mode="normal" in="SourceGraphic" in2="effect1_dropShadow_2671_8337" result="shape"/>
</filter>
<filter id="filter3_f_2671_8337" x="6.46129" y="62.8581" width="16.2477" height="16.2476" filterUnits="userSpaceOnUse" color-interpolation-filters="sRGB">
<feFlood flood-opacity="0" result="BackgroundImageFix"/>
<feBlend mode="normal" in="SourceGraphic" in2="BackgroundImageFix" result="shape"/>
<feGaussianBlur stdDeviation="0.769231" result="effect1_foregroundBlur_2671_8337"/>
</filter>
<filter id="filter4_d_2671_8337" x="17.9052" y="12.9149" width="82.6268" height="84.8226" filterUnits="userSpaceOnUse" color-interpolation-filters="sRGB">
<feFlood flood-opacity="0" result="BackgroundImageFix"/>
<feColorMatrix in="SourceAlpha" type="matrix" values="0 0 0 0 0 0 0 0 0 0 0 0 0 0 0 0 0 0 127 0" result="hardAlpha"/>
<feOffset dy="1.53846"/>
<feGaussianBlur stdDeviation="3.46154"/>
<feComposite in2="hardAlpha" operator="out"/>
<feColorMatrix type="matrix" values="0 0 0 0 0 0 0 0 0 0 0 0 0 0 0 0 0 0 0.15 0"/>
<feBlend mode="normal" in2="BackgroundImageFix" result="effect1_dropShadow_2671_8337"/>
<feBlend mode="normal" in="SourceGraphic" in2="effect1_dropShadow_2671_8337" result="shape"/>
</filter>
<filter id="filter5_d_2671_8337" x="33.3841" y="33.5151" width="37.7674" height="37.7673" filterUnits="userSpaceOnUse" color-interpolation-filters="sRGB">
<feFlood flood-opacity="0" result="BackgroundImageFix"/>
<feColorMatrix in="SourceAlpha" type="matrix" values="0 0 0 0 0 0 0 0 0 0 0 0 0 0 0 0 0 0 127 0" result="hardAlpha"/>
<feOffset dy="1.53846"/>
<feGaussianBlur stdDeviation="2.30769"/>
<feComposite in2="hardAlpha" operator="out"/>
<feColorMatrix type="matrix" values="0 0 0 0 1 0 0 0 0 0.223529 0 0 0 0 0.219608 0 0 0 0.65 0"/>
<feBlend mode="normal" in2="BackgroundImageFix" result="effect1_dropShadow_2671_8337"/>
<feBlend mode="normal" in="SourceGraphic" in2="effect1_dropShadow_2671_8337" result="shape"/>
</filter>
<linearGradient id="paint0_linear_2671_8337" x1="84.8291" y1="42.9828" x2="105.524" y2="55.4875" gradientUnits="userSpaceOnUse">
<stop stop-color="#C660F6"/>
<stop offset="1" stop-color="#7B69EC"/>
</linearGradient>
<linearGradient id="paint1_linear_2671_8337" x1="73.1216" y1="17.1814" x2="99.3884" y2="33.0527" gradientUnits="userSpaceOnUse">
<stop stop-color="#C660F6"/>
<stop offset="1" stop-color="#7B69EC"/>
</linearGradient>
<linearGradient id="paint2_linear_2671_8337" x1="59.2186" y1="95.4301" x2="61.2181" y2="60.7933" gradientUnits="userSpaceOnUse">
<stop stop-color="#FF292E"/>
<stop offset="1" stop-color="#FF775F"/>
</linearGradient>
<linearGradient id="paint3_linear_2671_8337" x1="62.877" y1="85.6166" x2="82.8921" y2="36.1212" gradientUnits="userSpaceOnUse">
<stop stop-color="#FF5F4F"/>
<stop offset="1" stop-color="#FF8C67"/>
</linearGradient>
<linearGradient id="paint4_linear_2671_8337" x1="53.7307" y1="85.6166" x2="54.1406" y2="18.3199" gradientUnits="userSpaceOnUse">
<stop stop-color="#FF5F4F"/>
<stop offset="0.90347" stop-color="#FF7661"/>
<stop offset="0.961557" stop-color="#FF9A95" stop-opacity="0.95"/>
<stop offset="0.984965" stop-color="#FF7661"/>
<stop offset="1" stop-color="#FF6150"/>
</linearGradient>
</defs>
</svg>
