<svg width="56" height="56" viewBox="0 0 56 56" fill="none" xmlns="http://www.w3.org/2000/svg">
<rect width="56" height="56" rx="12" fill="black"/>
<path d="M14.1094 22.9062C15.25 22.9062 15.8594 22.2812 15.8594 21.1406V17.7344C15.8594 16.2969 16.5938 15.6094 17.9688 15.6094H21.4375C22.5781 15.6094 23.2031 14.9844 23.2031 13.8594C23.2031 12.7344 22.5781 12.125 21.4375 12.125H17.6719C14.2188 12.125 12.375 13.9375 12.375 17.375V21.1406C12.375 22.2812 13 22.9062 14.1094 22.9062ZM41.875 22.9062C43 22.9062 43.6094 22.2812 43.6094 21.1406V17.375C43.6094 13.9531 41.7812 12.125 38.3125 12.125H34.5469C33.4062 12.125 32.7812 12.7344 32.7812 13.8594C32.7812 14.9844 33.4062 15.6094 34.5469 15.6094H38.0156C39.375 15.6094 40.125 16.2969 40.125 17.7344V21.1406C40.125 22.2812 40.75 22.9062 41.875 22.9062ZM21.3281 34.6875H34.6875C36.3438 34.6875 37.25 33.8125 37.25 32.1562V24.1562C37.25 22.5 36.3438 21.6094 34.6875 21.6094H32.9219C32.3281 21.6094 32.125 21.5312 31.75 21.125L31.1562 20.5C30.7344 20.0938 30.3438 19.8906 29.5781 19.8906H26.3906C25.625 19.8906 25.2188 20.0938 24.8125 20.5L24.2188 21.125C23.8281 21.5156 23.6406 21.6094 23.0469 21.6094H21.3281C19.6562 21.6094 18.75 22.5 18.75 24.1562V32.1562C18.75 33.8125 19.6562 34.6875 21.3281 34.6875ZM28.0156 32.5469C25.5469 32.5469 23.5625 30.5781 23.5625 28.0781C23.5625 25.6094 25.5469 23.6406 28.0156 23.6406C30.4844 23.6406 32.4531 25.6094 32.4531 28.0781C32.4531 30.6094 30.4844 32.5469 28.0156 32.5469ZM34.0781 26.1406C33.4844 26.1406 33 25.6719 33 25.0625C33 24.4688 33.4844 23.9844 34.0781 23.9844C34.6875 23.9844 35.1562 24.4688 35.1562 25.0625C35.1562 25.6719 34.6875 26.1406 34.0781 26.1406ZM28 30.8906C29.5469 30.8906 30.8125 29.6562 30.8125 28.0781C30.8125 26.5312 29.5469 25.2812 28 25.2812C26.4531 25.2812 25.2031 26.5312 25.2031 28.0781C25.2031 29.6562 26.4531 30.8906 28 30.8906ZM17.6719 43.3594H21.4375C22.5781 43.3594 23.2031 42.7344 23.2031 41.6094C23.2031 40.5 22.5781 39.875 21.4375 39.875H17.9688C16.5938 39.875 15.8594 39.1875 15.8594 37.75V34.3281C15.8594 33.2031 15.2344 32.5781 14.1094 32.5781C12.9844 32.5781 12.375 33.2031 12.375 34.3281V38.1094C12.375 41.5312 14.2188 43.3594 17.6719 43.3594ZM34.5469 43.3594H38.3125C41.7812 43.3594 43.6094 41.5312 43.6094 38.1094V34.3281C43.6094 33.2031 42.9844 32.5781 41.875 32.5781C40.7344 32.5781 40.125 33.2031 40.125 34.3281V37.75C40.125 39.1875 39.375 39.875 38.0156 39.875H34.5469C33.4062 39.875 32.7812 40.5 32.7812 41.6094C32.7812 42.7344 33.4062 43.3594 34.5469 43.3594Z" fill="white"/>
</svg>
