<svg width="60" height="60" fill="none" xmlns="http://www.w3.org/2000/svg"><g clip-path="url(#a)"><path d="M30 60.002c-16.8 0-21.32-.852-25.235-4.766C.826 51.298 0 46.8 0 30.001 0 13.203.85 8.706 4.765 4.767 8.68.853 13.201.002 30 .002c16.8 0 21.322.85 25.235 4.765C59.173 8.706 60 13.203 60 30.001c0 16.8-.826 21.297-4.765 25.235C51.321 59.15 46.8 60.002 30 60.002Z" fill="#000"/><path d="M32.577 21.76c1.24 0 1.75-.463 1.75-1.557 0-1.143-.535-1.604-1.75-1.604-1.216 0-1.75.461-1.75 1.604 0 1.094.51 1.556 1.75 1.556ZM30.875 34.4l-.219-.145 2.893-10.162H27.69l-.632 2.26 3.404-.024-2.213 7.756c-.389 1.41.56 2.722 2.115 2.722.486 0 .973-.121 1.508-.462l3.986-2.698-1.215-1.8-3.768 2.553Zm-7.488-13.2h-9.919v6.247c0 3.185-.559 5.665-1.313 6.783h-1.19v5.665h2.455V36.54h9.287v3.355h2.455V34.23h-1.775V21.2Zm-7.439 6.15v-3.744h4.862V34.23h-6.102c.656-1.142 1.24-3.792 1.24-6.88Zm31.312-3.257h-5.786c-2.455 0-4.133 1.605-4.133 3.914 0 1.823 1.046 3.21 2.7 3.695l-3.161 4.814h2.795l2.845-4.376h2.236v4.376h2.504V24.093Zm-5.494 5.883c-1.142 0-1.896-.754-1.896-1.872 0-1.094.754-1.848 1.896-1.848h2.99v3.72" fill="#fff"/></g><defs><clipPath id="a"><path fill="#fff" d="M0 0h60v60H0z"/></clipPath></defs></svg>