<svg width="60" height="60" fill="none" xmlns="http://www.w3.org/2000/svg"><path fill-rule="evenodd" clip-rule="evenodd" d="M30.053 0C46.525 0 60 13.465 60 29.946 59.893 46.535 46.524 60 30.053 60 13.476 59.892 0 46.535 0 29.946 0 13.465 13.476 0 30.053 0Z" fill="#F91F2B"/><path fill-rule="evenodd" clip-rule="evenodd" d="M52.942 19.559h.323c0 .77-.431 1.431-1.079 1.871-.755.441-1.726.661-2.59.661h-1.079c-3.885-.22-4.748 3.964-4.316 7.047a10.766 10.766 0 0 0 2.158 5.396c.971 1.101 2.482 1.762 3.777.66 1.079-.881 1.403-2.973 1.403-4.184 0-2.092-.756-5.395-3.346-5.395-.863 0-1.618.44-2.05 1.1a6.07 6.07 0 0 0-.647 2.754h-.432c-.324-2.533.863-4.625 3.561-4.735 3.13 0 5.072 2.532 5.072 5.726 0 3.193-1.943 6.166-5.18 6.166-1.51.11-3.021-.662-3.992-1.872-.972-1.211-1.403-3.194-1.403-5.726 0-3.193.431-5.065 1.403-6.606.97-1.432 2.481-2.313 4.208-2.203h1.51c.648.11 1.404 0 2.051-.11.324 0 .54-.22.648-.55ZM30.82 24.954l3.885 8.699 3.56-7.928.324-.66h2.914v.44h-.324c-.431 0-.755.44-.755.88v9.14c0 .44.324.88.755.88h.324v.331H37.51v-.33h.324c.432 0 .755-.44.755-.881v-8.479l-4.316 9.69h-.216l-4.209-9.91v8.589c0 .44.324.88.756.88h.324v.33h-2.914v-.33h.216c.431 0 .755-.44.755-.88v-9.14c0-.44-.323-.88-.755-.88h-.216a1.77 1.77 0 0 0-1.403 1.21l-4.1 9.03c-.216.66-.864.99-1.511.99h-.971l-.216-1.21c.216.22.54.44.863.55.324.22.755.11.971-.33v-.11l.54-1.101-3.67-7.708c-.43-.771-.755-1.211-1.294-1.322v-.44h3.669v.44h-.324c-.324 0-.431.44-.216.881l2.806 5.946 2.59-5.725c.324-.551.108-.991-.432-1.102v-.44h5.504Zm-16.727.77v9.581c0 .44-.323.88-.755.88h-.324v.33h3.993v-.33h-.324c-.431 0-.755-.44-.755-.88v-9.14c0-.44.324-.88.755-.88h.324v-.441H6v.44h.324c.431 0 .755.44.755.881v9.14c0 .44-.324.88-.755.88H6v.33h3.993v-.33h-.324c-.432 0-.755-.44-.755-.88v-9.58h5.18Z" fill="#fff"/></svg>