<svg width="30" height="32" fill="none" xmlns="http://www.w3.org/2000/svg"><path fill-rule="evenodd" clip-rule="evenodd" d="M0 15.966C0 7.622 6.717.856 15 .856c8.283 0 15 6.766 15 15.11 0 8.345-6.717 15.111-15 15.111-8.283 0-15-6.767-15-15.11zm23.161 5.684c.213-.552.359-1.183.4-2.106.042-.926.052-1.221.052-3.578 0-2.356-.01-2.652-.051-3.577-.042-.924-.188-1.554-.401-2.106a4.256 4.256 0 0 0-.993-1.537 4.22 4.22 0 0 0-1.526-1.001c-.548-.214-1.174-.361-2.09-.403-.92-.042-1.213-.053-3.552-.053-2.34 0-2.633.01-3.551.053-.917.042-1.543.189-2.09.403a4.216 4.216 0 0 0-1.526 1 4.254 4.254 0 0 0-.994 1.538c-.213.552-.359 1.182-.4 2.106-.042.925-.052 1.22-.052 3.577s.01 2.652.052 3.578c.042.923.187 1.554.4 2.106.217.579.555 1.104.994 1.537.43.441.95.783 1.525 1 .548.215 1.174.362 2.09.404.92.042 1.213.052 3.552.052 2.34 0 2.633-.01 3.551-.052.917-.042 1.543-.189 2.09-.403a4.42 4.42 0 0 0 2.52-2.538zm-1.446-10.801a2.69 2.69 0 0 0-.645-.998 2.666 2.666 0 0 0-.99-.649c-.303-.118-.76-.26-1.6-.298-.908-.042-1.18-.051-3.48-.051s-2.572.009-3.48.05c-.84.04-1.296.18-1.6.3-.374.138-.712.36-.99.648-.286.28-.506.621-.645.998-.117.306-.258.765-.296 1.611-.041.915-.05 1.19-.05 3.506 0 2.317.009 2.592.05 3.507.038.846.179 1.305.296 1.61.139.378.359.718.645.998.278.288.616.51.99.65.304.118.76.26 1.6.298.908.042 1.18.05 3.48.05s2.573-.008 3.48-.05c.84-.038 1.296-.18 1.6-.299a2.863 2.863 0 0 0 1.635-1.646c.118-.306.258-.765.296-1.611.042-.915.05-1.19.05-3.507 0-2.316-.008-2.59-.05-3.506-.038-.846-.178-1.305-.296-1.611zM15 20.422c-2.443 0-4.423-1.995-4.423-4.456 0-2.46 1.98-4.455 4.423-4.455s4.423 1.994 4.423 4.455c0 2.461-1.98 4.456-4.423 4.456zm4.598-8.046c-.57 0-1.034-.466-1.034-1.041s.463-1.042 1.034-1.042c.57 0 1.034.467 1.034 1.042s-.463 1.04-1.034 1.04zm-1.727 3.59A2.882 2.882 0 0 1 15 18.858a2.882 2.882 0 0 1-2.871-2.892A2.882 2.882 0 0 1 15 13.074a2.882 2.882 0 0 1 2.871 2.892z" fill="#fff"/></svg>