<svg width="30" height="31" fill="none" xmlns="http://www.w3.org/2000/svg"><path d="M17.61 13.728c1.58 0 2.765 1.04 2.766 3.275v4.173h-2.402v-3.894c0-.979-.347-1.646-1.216-1.646-.664 0-1.058.45-1.232.886-.065.155-.079.373-.079.59v4.066h-2.401s.031-6.596 0-7.278h2.401v1.03c.319-.496.888-1.202 2.163-1.202zm-8.296.172h2.401v7.278H9.314V13.9zM14.896.855c8.214 0 14.895 6.732 14.895 15.006 0 8.273-6.683 15.005-14.895 15.005C6.682 30.866 0 24.134 0 15.861 0 7.587 6.682.855 14.896.855zm7.899 21.793V8.84c0-.637-.527-1.154-1.176-1.154H8.071c-.648 0-1.175.517-1.175 1.154v13.808c0 .638.527 1.154 1.175 1.154h13.548c.65 0 1.176-.516 1.176-1.154zM10.53 10.39c.822 0 1.326.544 1.342 1.258 0 .698-.521 1.257-1.359 1.257H10.5c-.805 0-1.327-.56-1.327-1.257 0-.715.538-1.258 1.359-1.258z" fill="#fff"/></svg>