<svg width="30" height="32" fill="none" xmlns="http://www.w3.org/2000/svg"><path fill-rule="evenodd" clip-rule="evenodd" d="M0 15.945C0 7.598 6.715.834 15 .834s15 6.764 15 15.11c0 8.347-6.715 15.111-15 15.111S0 24.291 0 15.945zm19.365 1.544c.507-2.441 1.014-4.883 1.509-7.325l.018-.082c.119-.52.237-1.041.143-1.562-.062-.486-.347-.847-.817-.996-.123-.038-.247-.063-.37-.088h-9.584a4.122 4.122 0 0 1-.145.035c-.14.033-.283.066-.412.14-.544.299-.791.785-.791 1.395v14.6c.037.398.198.697.581.847.359.137.841.025 1.088-.262.507-.583 1.008-1.171 1.51-1.761l.815-.954c.322-.38.646-.76.97-1.14.325-.38.65-.76.972-1.14a.467.467 0 0 1 .383-.175h2.56c.754-.012 1.212-.348 1.447-1.07.04-.126.073-.26.105-.387l.018-.075zm-7.951-8.172h7.06c.446 0 .62.212.533.66-.075.408-.16.815-.245 1.222-.043.203-.085.406-.126.61-.062.299-.248.436-.557.436h-3.326c-.57.013-.866.299-.866.872v.274c0 .449.322.773.767.773h2.856c.112 0 .235 0 .334.074.173.113.223.287.186.474l-.408 2.018c-.038.224-.223.349-.47.349h-1.843c-.285 0-.56.011-.844.023l-.034.002a.638.638 0 0 0-.494.224c-.256.299-.5.609-.745.92-.123.154-.245.31-.369.463l-.952 1.202-.952 1.202c-.006.013-.015.022-.026.033a.282.282 0 0 0-.036.042.256.256 0 0 1-.037-.168V9.915c0-.448.149-.598.594-.598z" fill="#fff"/></svg>