<svg width="30" height="32" fill="none" xmlns="http://www.w3.org/2000/svg"><path d="M15 .855C6.715.855 0 7.62 0 15.966c0 8.347 6.715 15.111 15 15.111s15-6.764 15-15.11C30 7.62 23.285.854 15 .854zm7.934 17.49-.006.018c-.012.059-.03.112-.047.171-.48 1.582-2.22 3.229-3.82 3.577l-.018.006a21.267 21.267 0 0 1-5.238.348l-1.834 1.919c-.451.478-1.254.153-1.254-.508v-1.824l-.059-.018c-.03-.012-.064-.017-.093-.03a.403.403 0 0 1-.077-.029c-.029-.012-.053-.018-.082-.03-.023-.011-.053-.017-.076-.029l-.082-.035a.942.942 0 0 0-.076-.036.359.359 0 0 1-.082-.04 15.39 15.39 0 0 0-.07-.036.54.54 0 0 1-.088-.048.638.638 0 0 1-.065-.035l-.094-.053c-.017-.012-.04-.024-.058-.035-.035-.018-.065-.042-.1-.06l-.053-.035c-.035-.024-.076-.047-.11-.07-.013-.007-.024-.018-.042-.024-.047-.03-.094-.065-.14-.095-.006 0-.006-.006-.012-.006a7.648 7.648 0 0 1-.598-.484l-.006-.006a1.394 1.394 0 0 1-.134-.13l-.012-.011a2.624 2.624 0 0 0-.13-.124l-.01-.012a2.63 2.63 0 0 1-.124-.13l-.006-.006c-.574-.626-1.008-1.358-1.183-2.06l-.006-.018a15.984 15.984 0 0 1 0-6.87l.006-.018c.398-1.635 2.209-3.382 3.867-3.748l.018-.006a21.412 21.412 0 0 1 8.085 0l.018.006c.785.17 1.605.655 2.291 1.287l.03.03c.04.034.075.07.116.111l.041.042.1.1.041.041c.03.036.065.065.094.1.012.018.03.03.04.048l.089.106c.011.018.023.03.04.047.03.036.06.077.089.112.011.012.023.03.035.042.035.041.064.088.1.13.005.005.011.017.017.023.076.106.146.213.217.319.012.018.017.03.03.047.023.036.046.077.07.112.011.018.023.042.035.06.017.035.04.07.058.106.012.023.024.04.035.064.018.036.035.065.047.1.012.024.024.042.03.066a.695.695 0 0 1 .04.1l.03.065c.012.036.03.065.04.1.007.024.018.042.024.065.012.036.024.071.035.112l.018.054c.018.053.03.106.047.165l.006.018a16.044 16.044 0 0 1 .006 6.882z" fill="#fff"/><path d="M21.48 11.794c-.005-.036-.017-.065-.029-.1a.11.11 0 0 1-.012-.042c-.005-.023-.017-.047-.023-.07l-.018-.048c-.011-.024-.017-.047-.029-.07-.006-.018-.012-.03-.017-.048-.012-.03-.03-.053-.041-.083l-.018-.035c-.018-.041-.041-.077-.064-.118-.006-.012-.012-.018-.018-.03a1.58 1.58 0 0 1-.053-.094c-.006-.012-.017-.024-.023-.035l-.053-.083c-.006-.012-.018-.024-.023-.036-.024-.029-.041-.058-.065-.088-.006-.006-.012-.018-.017-.024a3.888 3.888 0 0 0-.188-.236l-.012-.012c-.029-.035-.058-.07-.093-.106l-.018-.018a1.833 1.833 0 0 0-.094-.1l-.011-.012a4.674 4.674 0 0 0-.352-.33l-.117-.1c-.428-.349-.897-.609-1.324-.703a19.849 19.849 0 0 0-7.512 0c-1.09.242-2.461 1.57-2.73 2.633a14.599 14.599 0 0 0 0 6.21c.117.46.439.967.855 1.416.1.112.21.218.322.319.035.03.07.064.106.094.005.006.011.006.017.012.03.03.065.053.094.082.006.006.012.012.023.018.03.024.065.047.094.071.006.006.018.012.023.018.036.023.065.047.1.07.006.006.012.012.018.012.035.03.076.053.111.077.076.053.158.1.234.148.012.005.018.011.03.017.029.018.058.03.082.048.011.006.03.011.04.017l.077.036c.018.006.03.012.047.017a.351.351 0 0 0 .07.03l.047.018a.33.33 0 0 0 .07.023l.047.018c.024.006.047.018.076.023.012.006.024.006.041.012a.65.65 0 0 0 .106.024h.006a.106.106 0 0 1 .082.1v3.017c0 .076.047.13.105.153a.156.156 0 0 0 .182-.041l1.424-1.47 1.336-1.381c.017-.024.046-.03.076-.03.058 0 .123 0 .181.006a20.168 20.168 0 0 0 4.12-.354c1.09-.242 2.46-1.57 2.73-2.633a14.61 14.61 0 0 0 0-6.21c-.012.013-.018.007-.018 0zm-2.689 6.375c-.217.466-.533.855-.99 1.103-.13.071-.281.095-.428.136-.17-.053-.328-.088-.475-.147-1.535-.644-2.953-1.47-4.072-2.74-.639-.72-1.136-1.54-1.558-2.402-.2-.407-.37-.832-.54-1.257-.158-.383.077-.785.317-1.074a2.62 2.62 0 0 1 .838-.638c.246-.118.492-.053.674.16.392.46.75.938 1.043 1.47.181.324.129.726-.194.944-.076.053-.152.118-.222.177a.81.81 0 0 0-.17.177.505.505 0 0 0-.035.431c.398 1.11 1.072 1.971 2.18 2.432.175.077.357.16.556.136.34-.042.451-.42.691-.614.235-.195.534-.195.785-.036.252.16.498.33.739.508.24.171.474.337.697.531.21.2.287.449.164.703zm-1.98-3.607h-.024c-.152-.006-.24-.094-.252-.242-.012-.106-.023-.218-.047-.325a.9.9 0 0 0-.334-.525.812.812 0 0 0-.27-.13c-.122-.035-.251-.023-.374-.059-.135-.035-.205-.141-.188-.265a.238.238 0 0 1 .252-.195c.78.059 1.336.46 1.418 1.387a.726.726 0 0 1 0 .195.205.205 0 0 1-.17.165c.006-.006.006-.006-.011-.006zm-.487-2.113a2.853 2.853 0 0 0-.762-.236c-.117-.018-.228-.03-.345-.047-.14-.018-.217-.107-.205-.248.006-.13.1-.224.24-.213.463.024.908.13 1.318.348.832.443 1.313 1.146 1.448 2.084.005.041.017.083.017.13.006.106.012.213.024.348-.006.024-.006.083-.018.142-.053.2-.357.23-.428.024-.023-.06-.023-.13-.023-.195a2.43 2.43 0 0 0-.31-1.228 2.257 2.257 0 0 0-.956-.909zm2.578 2.898c-.164 0-.234-.136-.246-.277-.023-.29-.035-.579-.076-.862-.21-1.511-1.4-2.757-2.894-3.022-.223-.041-.452-.053-.68-.077-.147-.018-.334-.024-.363-.207-.03-.153.1-.271.24-.277H15c1.928.053.123.006.006 0 2.01.06 3.656 1.405 4.008 3.4.058.342.082.69.111 1.039.012.142-.07.277-.223.283z" fill="#fff"/></svg>