<svg width="30" height="31" fill="none" xmlns="http://www.w3.org/2000/svg"><path fill-rule="evenodd" clip-rule="evenodd" d="M7.86 17.04v-1.06h3.517v1.06h-1.209v6.468H9.046V17.04H7.86zm9.49.79c.4 0 .67.214.805.634.068.226.102.596.102 1.127v2.234c0 .519-.034.892-.102 1.13-.135.417-.405.63-.806.63-.359 0-.705-.2-1.043-.62v.543h-1.008V15.98h1.008v2.458c.326-.404.672-.608 1.043-.608zm-.102 4.074v-2.393c0-.506-.148-.766-.439-.766-.165 0-.334.08-.503.248v3.418c.169.17.338.25.503.25.292 0 .44-.25.44-.757zm-3.833.282v-4.287h1.01v5.61h-1.01v-.613c-.4.463-.781.69-1.153.69-.324 0-.548-.134-.65-.418-.055-.17-.089-.438-.089-.834v-4.435h1.01v4.13c0 .238 0 .361.008.394.025.158.102.238.236.238.203 0 .415-.157.639-.476zm.867-9.468c-.33 0-.487-.262-.487-.787V9.547c0-.524.158-.786.486-.786.329 0 .487.261.487.786v2.384c0 .524-.158.787-.487.787zm.68-11.863c8.263 0 14.962 6.749 14.962 15.073 0 8.324-6.7 15.072-14.962 15.072C6.699 31 0 24.252 0 15.928 0 7.604 6.699.855 14.962.855zm1.664 7.05v4.482c0 .4.034.671.09.843.102.287.329.42.657.42.372 0 .759-.226 1.165-.695v.618h1.02V7.905h-1.02v4.332c-.226.322-.44.481-.644.481-.137 0-.217-.081-.24-.24-.012-.034-.012-.159-.012-.4V7.905h-1.016zm-3.85 1.848v1.985c0 .602.102 1.05.318 1.333.282.387.68.58 1.188.58.51 0 .907-.193 1.189-.58.213-.284.316-.73.316-1.333V9.753c0-.606-.103-1.049-.316-1.335-.282-.388-.679-.581-1.19-.581-.508 0-.905.193-1.187.581-.216.286-.319.73-.319 1.335zm-2.727-3.786H8.86c.239.706.487 1.414.725 2.12.363 1.06.59 1.86.692 2.406v3.08h1.13v-3.08l1.36-4.526h-1.143l-.771 2.987-.803-2.987zm12.967 18.036c.291-1.273.293-2.664.293-3.975s.001-2.701-.289-3.975c-.205-.894-.93-1.554-1.805-1.652-2.07-.233-4.165-.234-6.25-.233-2.087-.001-4.182 0-6.252.233-.874.098-1.6.758-1.804 1.652-.29 1.274-.294 2.664-.294 3.975s0 2.702.291 3.975c.204.894.93 1.554 1.804 1.652 2.07.233 4.165.235 6.25.233 2.087.002 4.181 0 6.252-.233.874-.098 1.6-.758 1.804-1.652zm-2.454-6.172c.507 0 .908.191 1.19.574.211.284.312.722.312 1.321v1.162h-2.018v.995c0 .519.17.778.516.778.248 0 .394-.136.451-.408.009-.055.022-.28.022-.688h1.03v.148c0 .328-.013.553-.022.655a1.452 1.452 0 0 1-.236.609c-.28.407-.693.608-1.22.608s-.93-.192-1.22-.575c-.215-.28-.325-.722-.325-1.318v-1.965c0-.6.098-1.038.312-1.321.291-.384.692-.575 1.208-.575zm.494 2.212v-.52c0-.518-.17-.778-.503-.778-.337 0-.506.26-.506.778v.52h1.009z" fill="#fff"/></svg>