<svg width="30" height="32" fill="none" xmlns="http://www.w3.org/2000/svg"><path fill-rule="evenodd" clip-rule="evenodd" d="M0 15.966C0 7.634 6.729.856 15 .856c8.272 0 15 6.778 15 15.11s-6.73 15.111-15 15.111c-8.271 0-15-6.78-15-15.11zm21.702-3.007c0-.15-.004-.301-.01-.451a6.976 6.976 0 0 0 1.72-1.798 6.827 6.827 0 0 1-1.983.547 3.489 3.489 0 0 0 1.52-1.925 6.86 6.86 0 0 1-2.193.845 3.439 3.439 0 0 0-2.52-1.098c-1.906 0-3.452 1.557-3.452 3.477 0 .274.03.539.09.794a9.78 9.78 0 0 1-7.117-3.635 3.482 3.482 0 0 0-.467 1.749c0 1.206.61 2.271 1.536 2.894a3.42 3.42 0 0 1-1.563-.434l-.001.043a3.472 3.472 0 0 0 2.769 3.41 3.426 3.426 0 0 1-1.559.059 3.46 3.46 0 0 0 3.225 2.416 6.898 6.898 0 0 1-5.111 1.44 9.713 9.713 0 0 0 5.292 1.561c6.352 0 9.824-5.298 9.824-9.894z" fill="#fff"/></svg>