<svg xmlns="http://www.w3.org/2000/svg" width="12" height="12" fill="none"><g fill="currentColor" clip-path="url(#a)"><path d="M6 1a1 1 0 0 1-1 1H3a1 1 0 0 0-1 1v6a1 1 0 0 0 1 1h2a1 1 0 1 1 0 2H3a3 3 0 0 1-3-3V3a3 3 0 0 1 3-3h2a1 1 0 0 1 1 1Z"/><path d="M7.464 3.828 8.636 5H5a1 1 0 1 0 0 2h3.536L7.464 8.071A1 1 0 1 0 8.88 9.485l2.616-2.616A1 1 0 0 0 12 6v-.089a.996.996 0 0 0-.293-.668L8.88 2.414a1 1 0 1 0-1.415 1.414Z"/></g><defs><clipPath id="a"><path fill="#fff" d="M0 0h12v12H0z"/></clipPath></defs></svg>