<svg width="120" height="120" viewBox="0 0 120 120" fill="none" xmlns="http://www.w3.org/2000/svg">
<path fill-rule="evenodd" clip-rule="evenodd" d="M60 0C26.8631 0 0 26.8631 0 60C0 93.1369 26.8631 120 60 120C93.1369 120 120 93.1369 120 60C120 26.8631 93.1369 0 60 0M60 2.38125C91.7719 2.38125 117.619 28.2281 117.619 60C117.619 91.7719 91.7719 117.619 60 117.619C28.2281 117.619 2.38125 91.7719 2.38125 60C2.38125 28.2281 28.2281 2.38125 60 2.38125" fill="#013D58"/>
<path fill-rule="evenodd" clip-rule="evenodd" d="M60.0009 41.3772C58.814 41.3772 57.8502 42.3429 57.8502 43.5279V61.1547C57.8502 62.3397 58.814 63.3054 60.0009 63.3054C61.1877 63.3054 62.1515 62.3397 62.1515 61.1547V43.5279C62.1515 42.3429 61.1877 41.3772 60.0009 41.3772V41.3772ZM60.0009 65.7147C57.4865 65.7147 55.4409 63.6691 55.4409 61.1547V43.5278C55.4409 41.0153 57.4865 38.9678 60.0009 38.9678C62.5152 38.9678 64.5609 41.0153 64.5609 43.5278V61.1547C64.5609 63.6691 62.5152 65.7147 60.0009 65.7147V65.7147ZM60.0009 71.0622C58.814 71.0622 57.8502 72.1085 57.8502 73.3985C57.8502 74.6866 58.814 75.7329 60.0009 75.7329C61.1877 75.7329 62.1515 74.6866 62.1515 73.3985C62.1515 72.1085 61.1877 71.0622 60.0009 71.0622V71.0622ZM60.0009 78.1422C57.4865 78.1422 55.4409 76.0141 55.4409 73.3985C55.4409 70.781 57.4865 68.6529 60.0009 68.6529C62.5152 68.6529 64.5609 70.781 64.5609 73.3985C64.5609 76.0141 62.5152 78.1422 60.0009 78.1422V78.1422ZM26.8377 81.7366H93.0196L60.0009 27.4254L26.8377 81.7366ZM93.3027 84.2135H26.4759C25.6865 84.2135 24.9815 83.7953 24.5877 83.096C24.1865 82.3797 24.2015 81.4985 24.6271 80.801L58.154 25.826C58.9546 24.5116 61.049 24.5135 61.8477 25.826L95.1496 80.7353C95.5752 81.4347 95.5902 82.3141 95.189 83.0303C94.7971 83.7278 94.0921 84.2135 93.3027 84.2135V84.2135ZM60.0009 19.6741C57.5877 19.6741 55.364 20.9622 54.0496 23.1185L20.969 77.4129C19.4859 79.8466 19.4334 82.9085 20.834 85.4004C22.1259 87.701 24.4002 89.0716 26.9202 89.0716H93.0834C95.6015 89.0716 97.8759 87.701 99.1677 85.4004C100.568 82.9085 100.516 79.8466 99.0346 77.4129L65.9521 23.1185C64.6396 20.9622 62.414 19.6741 60.0009 19.6741V19.6741ZM93.0796 91.4847H26.9165C23.5152 91.4847 20.4571 89.6491 18.734 86.5797C16.9077 83.3285 16.9752 79.3366 18.9102 76.1604L51.9927 21.8641C53.7477 18.986 56.7402 17.2666 60.0009 17.2666C63.2615 17.2666 66.2559 18.986 68.009 21.8641L101.091 76.1604C103.026 79.3366 103.094 83.3303 101.268 86.5797C99.5446 89.651 96.4827 91.4847 93.0796 91.4847V91.4847Z" fill="#013D58"/>
</svg>
