<svg width="20" height="20" viewBox="0 0 20 20" fill="none" xmlns="http://www.w3.org/2000/svg">
<path d="M16.4167 12.4294H7.34167C7.19167 12.4294 7.05833 12.321 7.025 12.1752L6.84583 11.346H14.0708C14.6875 11.346 15.2292 10.9294 15.3875 10.3377L16.7583 5.25853C16.8 5.10436 16.7667 4.93353 16.6708 4.80436C16.575 4.6752 16.4167 4.6002 16.2583 4.6002H5.39583L5.14583 3.44186C5.05417 3.0127 4.66667 2.7002 4.225 2.7002H3.58333C3.29583 2.7002 3.0625 2.93353 3.0625 3.22103C3.0625 3.50853 3.29583 3.74186 3.58333 3.74186H4.14583L6.00833 12.396C6.14167 13.021 6.70417 13.4752 7.34167 13.4752H16.4167C16.7042 13.4752 16.9375 13.2419 16.9375 12.9544C16.9375 12.6669 16.7042 12.4335 16.4167 12.4335V12.4294ZM14.0708 10.3044H6.625L5.62083 5.64186H15.5792L14.3833 10.0669C14.3458 10.2085 14.2167 10.3044 14.0708 10.3044Z" fill="white"/>
<path d="M12.4073 7.5625H8.03646C7.74896 7.5625 7.51562 7.79583 7.51562 8.08333C7.51562 8.37083 7.74896 8.60417 8.03646 8.60417H12.4073C12.6948 8.60417 12.9281 8.37083 12.9281 8.08333C12.9281 7.79583 12.6948 7.5625 12.4073 7.5625Z" fill="white"/>
<path d="M7.67812 13.7246C6.69063 13.7246 5.89062 14.5288 5.89062 15.5121C5.89062 16.4954 6.69479 17.2996 7.67812 17.2996C8.66146 17.2996 9.46562 16.4954 9.46562 15.5121C9.46562 14.5288 8.66146 13.7246 7.67812 13.7246ZM8.42396 15.5121C8.42396 15.9246 8.09063 16.2579 7.67812 16.2579C7.26562 16.2579 6.93229 15.9246 6.93229 15.5121C6.93229 15.0996 7.26562 14.7663 7.67812 14.7663C8.09063 14.7663 8.42396 15.0996 8.42396 15.5121Z" fill="white"/>
<path d="M14.018 13.7246C13.0305 13.7246 12.2305 14.5288 12.2305 15.5121C12.2305 16.4954 13.0346 17.2996 14.018 17.2996C15.0013 17.2996 15.8055 16.4954 15.8055 15.5121C15.8055 14.5288 15.0013 13.7246 14.018 13.7246ZM14.7638 15.5121C14.7638 15.9246 14.4305 16.2579 14.018 16.2579C13.6055 16.2579 13.2721 15.9246 13.2721 15.5121C13.2721 15.0996 13.6055 14.7663 14.018 14.7663C14.4305 14.7663 14.7638 15.0996 14.7638 15.5121Z" fill="white"/>
</svg>
