<svg width="20" height="20" viewBox="0 0 20 20" fill="none" xmlns="http://www.w3.org/2000/svg">
<path d="M10.7378 10.0003L16.9294 3.80859C17.1336 3.60443 17.1336 3.27526 16.9294 3.07109C16.7253 2.86693 16.3961 2.86693 16.1919 3.07109L10.0003 9.26276L3.80859 3.07526C3.60443 2.87109 3.27526 2.87109 3.07109 3.07526C2.86693 3.27943 2.86693 3.60859 3.07109 3.81276L9.26276 10.0044L3.07109 16.1961C2.86693 16.4003 2.86693 16.7294 3.07109 16.9336C3.27526 17.1378 3.60859 17.1294 3.80859 16.9336L10.0003 10.7419L16.1919 16.9336C16.2919 17.0336 16.4211 17.0878 16.5586 17.0878C16.6961 17.0878 16.8294 17.0336 16.9253 16.9336C17.1294 16.7294 17.1294 16.4003 16.9253 16.1961L10.7336 10.0044L10.7378 10.0003Z" fill="#2E2E2E"/>
</svg>
