<svg width="12" height="12" viewBox="0 0 12 12" fill="none" xmlns="http://www.w3.org/2000/svg">
<path d="M5.99977 10.8023C8.65227 10.8023 10.8023 8.65227 10.8023 5.99977C10.8023 3.34727 8.65227 1.19727 5.99977 1.19727C3.34727 1.19727 1.19727 3.34727 1.19727 5.99977C1.19727 8.65227 3.34727 10.8023 5.99977 10.8023ZM5.49977 2.90977C5.49977 2.63477 5.72477 2.40977 5.99977 2.40977C6.27477 2.40977 6.49977 2.63477 6.49977 2.90977V7.14477C6.49977 7.41977 6.27477 7.64477 5.99977 7.64477C5.72477 7.64477 5.49977 7.41977 5.49977 7.14477V2.90977ZM5.38727 8.83977C5.39477 8.79977 5.40727 8.75977 5.42227 8.72227C5.43727 8.68477 5.45727 8.64977 5.47977 8.61477C5.50227 8.58227 5.52977 8.54977 5.55727 8.51977C5.67477 8.40477 5.83477 8.33727 5.99977 8.33727C6.16477 8.33727 6.32477 8.40477 6.44227 8.51977C6.55727 8.63727 6.62477 8.79727 6.62477 8.96227C6.62477 9.00226 6.61977 9.04477 6.61227 9.08477C6.60477 9.12477 6.59227 9.16477 6.57727 9.20227C6.56227 9.23977 6.54227 9.27477 6.51977 9.30977C6.49727 9.34227 6.46977 9.37477 6.44227 9.40477C6.41227 9.43227 6.37977 9.45977 6.34727 9.48227C6.31227 9.50477 6.27727 9.52477 6.23977 9.53977C6.19977 9.55477 6.16227 9.56727 6.12227 9.57477C6.04227 9.59227 5.95977 9.59227 5.87727 9.57477C5.83727 9.56727 5.79727 9.55477 5.75977 9.53977C5.72227 9.52477 5.68727 9.50477 5.65227 9.48227C5.61977 9.45977 5.58727 9.43227 5.55727 9.40477C5.52977 9.37477 5.50227 9.34477 5.47977 9.30977C5.45727 9.27477 5.43727 9.23977 5.42227 9.20227C5.40727 9.16477 5.39477 9.12477 5.38727 9.08477C5.37977 9.04477 5.37477 9.00226 5.37477 8.96227C5.37477 8.92227 5.37977 8.87977 5.38727 8.83977Z" fill="#BF2155"/>
</svg>
