<svg width="21" height="20" viewBox="0 0 21 20" fill="none" xmlns="http://www.w3.org/2000/svg">
<path d="M8.83437 1.97949H3.83854C3.09271 1.97949 2.48438 2.58783 2.48438 3.33366V8.32949C2.48438 9.07533 3.09271 9.68366 3.83854 9.68366H8.83437C9.58021 9.68366 10.1885 9.07533 10.1885 8.32949V3.33366C10.1885 2.58783 9.58021 1.97949 8.83437 1.97949ZM9.14687 8.33366C9.14687 8.50866 9.00521 8.64616 8.83437 8.64616H3.83854C3.66354 8.64616 3.52604 8.50449 3.52604 8.33366V3.33783C3.52604 3.16283 3.66771 3.02533 3.83854 3.02533H8.83437C9.00937 3.02533 9.14687 3.16699 9.14687 3.33783V8.33366Z" fill="#2E2E2E"/>
<path d="M17.1664 1.97949H12.1706C11.4247 1.97949 10.8164 2.58783 10.8164 3.33366V8.32949C10.8164 9.07533 11.4247 9.68366 12.1706 9.68366H17.1664C17.9122 9.68366 18.5206 9.07533 18.5206 8.32949V3.33366C18.5206 2.58783 17.9122 1.97949 17.1664 1.97949ZM17.4789 8.33366C17.4789 8.50866 17.3372 8.64616 17.1664 8.64616H12.1706C11.9956 8.64616 11.8581 8.50449 11.8581 8.33366V3.33783C11.8581 3.16283 11.9997 3.02533 12.1706 3.02533H17.1664C17.3414 3.02533 17.4789 3.16699 17.4789 3.33783V8.33366Z" fill="#2E2E2E"/>
<path d="M8.83437 10.3125H3.83854C3.09271 10.3125 2.48438 10.9208 2.48438 11.6667V16.6625C2.48438 17.4083 3.09271 18.0167 3.83854 18.0167H8.83437C9.58021 18.0167 10.1885 17.4083 10.1885 16.6625V11.6667C10.1885 10.9208 9.58021 10.3125 8.83437 10.3125ZM9.14687 16.6667C9.14687 16.8417 9.00521 16.9792 8.83437 16.9792H3.83854C3.66354 16.9792 3.52604 16.8375 3.52604 16.6667V11.6708C3.52604 11.4958 3.66771 11.3583 3.83854 11.3583H8.83437C9.00937 11.3583 9.14687 11.5 9.14687 11.6708V16.6667Z" fill="#2E2E2E"/>
<path d="M17.1664 10.3125H12.1706C11.4247 10.3125 10.8164 10.9208 10.8164 11.6667V16.6625C10.8164 17.4083 11.4247 18.0167 12.1706 18.0167H17.1664C17.9122 18.0167 18.5206 17.4083 18.5206 16.6625V11.6667C18.5206 10.9208 17.9122 10.3125 17.1664 10.3125ZM17.4789 16.6667C17.4789 16.8417 17.3372 16.9792 17.1664 16.9792H12.1706C11.9956 16.9792 11.8581 16.8375 11.8581 16.6667V11.6708C11.8581 11.4958 11.9997 11.3583 12.1706 11.3583H17.1664C17.3414 11.3583 17.4789 11.5 17.4789 11.6708V16.6667Z" fill="#2E2E2E"/>
</svg>
