<svg width="16" height="16" viewBox="0 0 16 16" fill="none" xmlns="http://www.w3.org/2000/svg">
<path d="M14.6216 7.8399C14.6016 7.7899 14.5716 7.74323 14.5316 7.70656L10.1116 3.28656C9.94823 3.12323 9.68489 3.12323 9.52156 3.28656C9.44156 3.36656 9.39823 3.4699 9.39823 3.5799C9.39823 3.6899 9.44156 3.79656 9.52156 3.87323L13.2316 7.58323H1.76823C1.53823 7.58323 1.35156 7.7699 1.35156 7.9999C1.35156 8.2299 1.53823 8.41656 1.76823 8.41656H13.2316L9.52156 12.1266C9.44156 12.2066 9.39823 12.3099 9.39823 12.4199C9.39823 12.5299 9.44156 12.6366 9.52156 12.7132C9.60156 12.7899 9.7049 12.8366 9.81489 12.8366C9.9249 12.8366 10.0316 12.7932 10.1082 12.7132L14.5282 8.29323C14.5649 8.25323 14.5982 8.2099 14.6182 8.1599C14.6382 8.1099 14.6516 8.05323 14.6516 7.9999C14.6516 7.94656 14.6416 7.8899 14.6182 7.8399H14.6216Z" fill="#2E2E2E"/>
</svg>
