<svg width="20" height="20" viewBox="0 0 20 20" fill="none" xmlns="http://www.w3.org/2000/svg">
<path d="M15.6034 9.28751C15.3159 9.28751 15.0826 9.52084 15.0826 9.80834V16.4167C15.0826 16.5875 14.9409 16.7292 14.7701 16.7292H3.61589C3.44505 16.7292 3.30339 16.5917 3.30339 16.4167V5.25834C3.30339 5.08751 3.44505 4.94584 3.61589 4.94584H10.1492C10.4367 4.94584 10.6701 4.71251 10.6701 4.42501C10.6701 4.13751 10.4367 3.90417 10.1492 3.90417H3.61589C2.87005 3.90417 2.26172 4.51251 2.26172 5.25834V16.4167C2.26172 17.1625 2.87005 17.7708 3.61589 17.7708H14.7742C15.5201 17.7708 16.1284 17.1625 16.1284 16.4167V9.80834C16.1284 9.52084 15.8951 9.28751 15.6076 9.28751H15.6034Z" fill="#2E2E2E"/>
<path d="M17.3109 3.17502L16.7942 2.65835C16.2234 2.08752 15.2984 2.08752 14.7276 2.65835L7.0234 10.3625C6.9234 10.4625 6.8609 10.5917 6.84423 10.7292L6.60673 12.6625C6.58173 12.8542 6.6484 13.0458 6.7859 13.1792C6.9234 13.3125 7.1109 13.3792 7.30256 13.3583L9.2359 13.1208C9.3734 13.1042 9.50256 13.0417 9.60256 12.9417L17.3067 5.23752C17.8776 4.66668 17.8776 3.74168 17.3067 3.17085L17.3109 3.17502ZM15.9109 3.54168L16.4276 4.05835C16.5109 4.14168 16.5109 4.27502 16.4276 4.35418L15.7734 5.00835L14.9609 4.19585L15.6151 3.54168C15.6984 3.45835 15.8317 3.45835 15.9109 3.54168ZM7.9484 12.0208L8.0609 11.0958L14.0734 5.08335L14.8859 5.89585L8.8734 11.9083L7.9484 12.0208Z" fill="#2E2E2E"/>
</svg>
