<svg width="21" height="20" viewBox="0 0 21 20" fill="none" xmlns="http://www.w3.org/2000/svg">
<path d="M17.9878 3.90048C17.9544 3.18381 17.3419 2.56714 16.6211 2.52964L12.7003 2.32964C12.0919 2.29631 11.3128 2.60048 10.8836 3.02964L3.22109 10.688C2.69193 11.2171 2.69193 12.0755 3.22109 12.6046L7.89609 17.2796C8.15859 17.5421 8.50859 17.6755 8.85443 17.6755C9.20026 17.6755 9.54609 17.5421 9.81276 17.2796L17.4711 9.62131C17.9003 9.19214 18.2003 8.41298 18.1711 7.80881L17.9836 3.90464L17.9878 3.90048ZM12.6086 3.37131C12.6086 3.37131 12.6336 3.37131 12.6461 3.37131L16.5669 3.57131C16.6586 3.57548 16.7503 3.62131 16.8253 3.69214C16.9003 3.76714 16.9419 3.85881 16.9461 3.95048L17.1336 7.85464C17.1503 8.16298 16.9544 8.66298 16.7336 8.88381L9.07526 16.5421C8.95859 16.6588 8.75026 16.6588 8.63359 16.5421L3.95859 11.8713C3.90026 11.813 3.86693 11.7338 3.86693 11.6505C3.86693 11.5671 3.90026 11.488 3.95859 11.4296L11.6211 3.76714C11.8294 3.55881 12.3003 3.37131 12.6128 3.37131H12.6086Z" fill="#2E2E2E"/>
<path d="M14.0115 8.48288C14.5448 8.48288 15.049 8.27454 15.424 7.89954C15.8031 7.52038 16.0073 7.02038 16.0073 6.48704C16.0073 5.95371 15.799 5.44954 15.424 5.07454C15.049 4.69954 14.5448 4.49121 14.0115 4.49121C13.4781 4.49121 12.974 4.69954 12.599 5.07454C12.224 5.44954 12.0156 5.95371 12.0156 6.48704C12.0156 7.02038 12.224 7.52454 12.599 7.89954C12.974 8.27454 13.4781 8.48288 14.0115 8.48288ZM13.3323 5.80371C13.5198 5.61621 13.7656 5.52454 14.0115 5.52454C14.2573 5.52454 14.5031 5.61621 14.6906 5.80371C15.0656 6.17871 15.0656 6.78704 14.6906 7.15788C14.3156 7.53288 13.7073 7.53288 13.3365 7.15788C12.9615 6.78288 12.9615 6.17454 13.3365 5.80371H13.3323Z" fill="#2E2E2E"/>
</svg>
