<svg width="20" height="20" viewBox="0 0 20 20" fill="none" xmlns="http://www.w3.org/2000/svg">
<path d="M16.7115 7.63372H15.2906V4.54622C15.2906 3.74206 14.6365 3.08789 13.8323 3.08789H3.28646C2.48229 3.08789 1.82812 3.74206 1.82812 4.54622V10.9087C1.82812 11.7129 2.48229 12.3671 3.28646 12.3671H4.70729V15.4546C4.70729 16.2587 5.36146 16.9129 6.16562 16.9129H16.7073C17.5115 16.9129 18.1656 16.2587 18.1656 15.4546V9.09206C18.1656 8.28789 17.5115 7.63372 16.7073 7.63372H16.7115ZM3.28646 4.33372H13.8281C13.9448 4.33372 14.0365 4.42956 14.0365 4.54206V5.70039H3.07812V4.54206C3.07812 4.42539 3.17396 4.33372 3.28646 4.33372ZM3.28646 11.1171C3.16979 11.1171 3.07812 11.0212 3.07812 10.9087V6.95456H14.0406V7.63372H6.16562C5.36146 7.63372 4.70729 8.28789 4.70729 9.09206V11.1171H3.28646ZM16.9198 15.4546C16.9198 15.5712 16.824 15.6629 16.7115 15.6629H6.16562C6.04896 15.6629 5.95729 15.5671 5.95729 15.4546V9.09206C5.95729 8.97539 6.05312 8.88372 6.16562 8.88372H16.7073C16.824 8.88372 16.9156 8.97956 16.9156 9.09206V15.4546H16.9198Z" fill="white"/>
<path d="M9.87188 10.4248H7.42188C7.07604 10.4248 6.79688 10.704 6.79688 11.0498C6.79688 11.3956 7.07604 11.6748 7.42188 11.6748H9.87188C10.2177 11.6748 10.4969 11.3956 10.4969 11.0498C10.4969 10.704 10.2177 10.4248 9.87188 10.4248Z" fill="white"/>
</svg>
