<svg width="20" height="20" viewBox="0 0 20 20" fill="none" xmlns="http://www.w3.org/2000/svg">
<path d="M18.3083 6.75416C18.1917 5.5875 17.6375 4.6625 17.2 4.22083C16.1167 3.1375 14.925 2.63333 13.6708 2.72083C12.0042 2.84166 10.6833 3.975 10 4.7C9.32083 3.975 8 2.84166 6.3375 2.72083C5.08333 2.63333 3.89583 3.1375 2.80833 4.22083C2.36666 4.6625 1.8125 5.5875 1.7 6.75416C1.6 7.77083 1.81666 9.31666 3.425 10.925L9.64166 17.1417C9.74166 17.2417 9.87083 17.2958 10.0083 17.2958C10.1458 17.2958 10.2792 17.2417 10.375 17.1417L16.5917 10.925C18.1958 9.32083 18.4167 7.77083 18.3167 6.75416H18.3083Z" fill="#2E2E2E"/>
</svg>
