<svg width="16" height="16" viewBox="0 0 16 16" fill="none" xmlns="http://www.w3.org/2000/svg">
<path d="M8.00099 1.59668C4.46432 1.59668 1.59766 4.46335 1.59766 8.00001C1.59766 11.5367 4.46432 14.4033 8.00099 14.4033C11.5377 14.4033 14.4043 11.5367 14.4043 8.00001C14.4043 4.46335 11.5377 1.59668 8.00099 1.59668ZM8.66766 12.12C8.66766 12.4867 8.36766 12.7867 8.00099 12.7867C7.63432 12.7867 7.33432 12.4867 7.33432 12.12V6.47335C7.33432 6.10668 7.63432 5.80668 8.00099 5.80668C8.36766 5.80668 8.66766 6.10668 8.66766 6.47335V12.12ZM8.81766 4.21335C8.80766 4.26668 8.79099 4.32001 8.77099 4.37001C8.75099 4.42001 8.72432 4.46668 8.69432 4.51335C8.66432 4.55668 8.62766 4.60001 8.59099 4.64001C8.43432 4.79335 8.22099 4.88335 8.00099 4.88335C7.78099 4.88335 7.56766 4.79335 7.41099 4.64001C7.25766 4.48335 7.16766 4.27001 7.16766 4.05001C7.16766 3.99668 7.17432 3.94001 7.18432 3.88668C7.19432 3.83335 7.21099 3.78001 7.23099 3.73001C7.25099 3.68001 7.27766 3.63335 7.30766 3.58668C7.33766 3.54335 7.37432 3.50001 7.41099 3.46001C7.45099 3.42335 7.49432 3.38668 7.53766 3.35668C7.58432 3.32668 7.63099 3.30001 7.68099 3.28001C7.73432 3.26001 7.78432 3.24335 7.83766 3.23335C7.94432 3.21001 8.05432 3.21001 8.16432 3.23335C8.21766 3.24335 8.27099 3.26001 8.32099 3.28001C8.37099 3.30001 8.41766 3.32668 8.46432 3.35668C8.50766 3.38668 8.55099 3.42335 8.59099 3.46001C8.62766 3.50001 8.66432 3.54001 8.69432 3.58668C8.72432 3.63335 8.75099 3.68001 8.77099 3.73001C8.79099 3.78001 8.80766 3.83335 8.81766 3.88668C8.82766 3.94001 8.83432 3.99668 8.83432 4.05001C8.83432 4.10335 8.82766 4.16001 8.81766 4.21335Z" fill="#005EB8"/>
</svg>
