<svg width="20" height="20" viewBox="0 0 20 20" fill="none" xmlns="http://www.w3.org/2000/svg">
<path d="M10 1.99583C5.57917 1.99583 1.99583 5.57917 1.99583 10C1.99583 14.4208 5.57917 18.0042 10 18.0042C14.4208 18.0042 18.0042 14.4208 18.0042 10C18.0042 5.57917 14.4208 1.99583 10 1.99583ZM14.8167 7.95417L9.025 13.7458C8.90833 13.8625 8.75417 13.925 8.59167 13.925C8.42917 13.925 8.275 13.8625 8.15833 13.7458L5.19167 10.7792C4.95417 10.5417 4.95417 10.15 5.19167 9.9125C5.42917 9.675 5.81667 9.675 6.05833 9.9125L8.59167 12.4458L13.95 7.0875C14.1875 6.85 14.5792 6.85 14.8167 7.0875C15.0542 7.325 15.0542 7.71667 14.8167 7.95417Z" fill="#2E2E2E"/>
</svg>
