<svg width="20" height="20" viewBox="0 0 20 20" fill="none" xmlns="http://www.w3.org/2000/svg">
<path d="M16.5979 4.27086H13.4271V2.67086C13.4271 2.2917 13.1063 1.88336 12.4021 1.88336H7.60208C6.89792 1.88336 6.57708 2.2917 6.57708 2.67086V4.27086H3.40625C3.06042 4.27086 2.78125 4.55003 2.78125 4.89586C2.78125 5.2417 3.06042 5.52086 3.40625 5.52086H16.5979C16.9438 5.52086 17.2229 5.2417 17.2229 4.89586C17.2229 4.55003 16.9438 4.27086 16.5979 4.27086ZM7.82708 3.1292H12.1771V4.27086H7.82708V3.1292Z" fill="#2E2E2E"/>
<path d="M9.02344 14.4708V8.09583C9.02344 7.74999 8.74427 7.47083 8.39844 7.47083C8.0526 7.47083 7.77344 7.74999 7.77344 8.09583V14.4708C7.77344 14.8167 8.0526 15.0958 8.39844 15.0958C8.74427 15.0958 9.02344 14.8167 9.02344 14.4708Z" fill="#2E2E2E"/>
<path d="M12.2266 14.4708V8.09583C12.2266 7.74999 11.9474 7.47083 11.6016 7.47083C11.2557 7.47083 10.9766 7.74999 10.9766 8.09583V14.4708C10.9766 14.8167 11.2557 15.0958 11.6016 15.0958C11.9474 15.0958 12.2266 14.8167 12.2266 14.4708Z" fill="#2E2E2E"/>
<path d="M15.6021 6.12915C15.2563 6.12915 14.9771 6.40832 14.9771 6.75415V16.6958C14.9771 16.7917 14.8979 16.8708 14.8021 16.8708H5.20625C5.11042 16.8708 5.03125 16.7917 5.03125 16.6958V6.75415C5.03125 6.40832 4.75208 6.12915 4.40625 6.12915C4.06042 6.12915 3.78125 6.40832 3.78125 6.75415V16.6958C3.78125 17.4833 4.42292 18.1208 5.20625 18.1208H14.8021C15.5896 18.1208 16.2271 17.4792 16.2271 16.6958V6.75415C16.2271 6.40832 15.9479 6.12915 15.6021 6.12915Z" fill="#2E2E2E"/>
</svg>
