<svg width="48" height="48" viewBox="0 0 48 48" fill="none" xmlns="http://www.w3.org/2000/svg">
<path d="M23.9991 4.78998C13.3891 4.78998 4.78906 13.39 4.78906 24C4.78906 34.61 13.3891 43.21 23.9991 43.21C34.6091 43.21 43.2091 34.61 43.2091 24C43.2091 13.39 34.6091 4.78998 23.9991 4.78998ZM35.5591 19.09L21.6591 32.99C21.3791 33.27 21.0091 33.42 20.6191 33.42C20.2291 33.42 19.8591 33.27 19.5791 32.99L12.4591 25.87C11.8891 25.3 11.8891 24.36 12.4591 23.79C13.0291 23.22 13.9591 23.22 14.5391 23.79L20.6191 29.87L33.4791 17.01C34.0491 16.44 34.9891 16.44 35.5591 17.01C36.1291 17.58 36.1291 18.52 35.5591 19.09Z" fill="#398100"/>
</svg>
