<svg width="16" height="16" viewBox="0 0 16 16" fill="none" xmlns="http://www.w3.org/2000/svg">
<path d="M15.4932 14.8625L11.4141 10.7833C12.4516 9.62083 13.0182 8.13333 13.0182 6.58333C13.0182 3.09167 10.1766 0.25 6.6849 0.25C3.19323 0.25 0.351562 3.09167 0.351562 6.58333C0.351562 10.075 3.19323 12.9167 6.6849 12.9167C8.13073 12.9167 9.53906 12.4167 10.6641 11.5042L14.7557 15.5958C14.8557 15.6958 14.9849 15.75 15.1224 15.75C15.2599 15.75 15.3932 15.6958 15.4891 15.5958C15.6932 15.3917 15.6932 15.0625 15.4891 14.8583L15.4932 14.8625ZM11.9807 6.58333C11.9807 9.5 9.60573 11.875 6.68906 11.875C3.7724 11.875 1.3974 9.5 1.3974 6.58333C1.3974 3.66667 3.7724 1.29167 6.68906 1.29167C9.60573 1.29167 11.9807 3.66667 11.9807 6.58333Z" fill="#2E2E2E"/>
</svg>
