<svg width="20" height="20" viewBox="0 0 20 20" fill="none" xmlns="http://www.w3.org/2000/svg">
<path d="M17.5 9.375H10.625V2.5C10.625 2.15417 10.3458 1.875 10 1.875C9.65417 1.875 9.375 2.15417 9.375 2.5V9.375H2.5C2.15417 9.375 1.875 9.65417 1.875 10C1.875 10.3458 2.15417 10.625 2.5 10.625H9.375V17.5C9.375 17.8458 9.65417 18.125 10 18.125C10.3458 18.125 10.625 17.8458 10.625 17.5V10.625H17.5C17.8458 10.625 18.125 10.3458 18.125 10C18.125 9.65417 17.8458 9.375 17.5 9.375Z" fill="#2E2E2E"/>
</svg>
