<svg width="48" height="48" viewBox="0 0 48 48" fill="none" xmlns="http://www.w3.org/2000/svg">
<path d="M39.4016 32.25H17.6216C17.2616 32.25 16.9416 31.99 16.8616 31.64L16.4316 29.65H33.7716C35.2516 29.65 36.5516 28.65 36.9316 27.23L40.2216 15.04C40.3216 14.67 40.2416 14.26 40.0116 13.95C39.7816 13.64 39.4016 13.46 39.0216 13.46H12.9516L12.3516 10.68C12.1316 9.65003 11.2016 8.90002 10.1416 8.90002H8.60156C7.91156 8.90002 7.35156 9.46002 7.35156 10.15C7.35156 10.84 7.91156 11.4 8.60156 11.4H9.95156L14.4216 32.17C14.7416 33.67 16.0916 34.76 17.6216 34.76H39.4016C40.0916 34.76 40.6516 34.2 40.6516 33.51C40.6516 32.82 40.0916 32.26 39.4016 32.26V32.25ZM13.4916 15.96H37.3916L34.5216 26.58C34.4316 26.92 34.1216 27.15 33.7716 27.15H15.9016L13.4916 15.96Z" fill="#2E2E2E"/>
<path d="M18.4306 35.37C16.0606 35.37 14.1406 37.3 14.1406 39.66C14.1406 42.02 16.0706 43.95 18.4306 43.95C20.7906 43.95 22.7206 42.02 22.7206 39.66C22.7206 37.3 20.7906 35.37 18.4306 35.37ZM18.4306 41.45C17.4406 41.45 16.6406 40.65 16.6406 39.66C16.6406 38.67 17.4406 37.87 18.4306 37.87C19.4206 37.87 20.2206 38.67 20.2206 39.66C20.2206 40.65 19.4206 41.45 18.4306 41.45Z" fill="#2E2E2E"/>
<path d="M33.6416 35.37C31.2716 35.37 29.3516 37.3 29.3516 39.66C29.3516 42.02 31.2816 43.95 33.6416 43.95C36.0016 43.95 37.9316 42.02 37.9316 39.66C37.9316 37.3 36.0016 35.37 33.6416 35.37ZM33.6416 41.45C32.6516 41.45 31.8516 40.65 31.8516 39.66C31.8516 38.67 32.6516 37.87 33.6416 37.87C34.6316 37.87 35.4316 38.67 35.4316 39.66C35.4316 40.65 34.6316 41.45 33.6416 41.45Z" fill="#2E2E2E"/>
<path d="M25.8398 11.8C26.6698 11.8 27.3398 11.13 27.3398 10.3V5.54999C27.3398 4.71999 26.6698 4.04999 25.8398 4.04999C25.0098 4.04999 24.3398 4.71999 24.3398 5.54999V10.3C24.3398 11.13 25.0098 11.8 25.8398 11.8Z" fill="#2E2E2E"/>
<path d="M32.19 11.8C32.57 11.8 32.96 11.65 33.25 11.36L36.23 8.38C36.82 7.79 36.82 6.84 36.23 6.26C35.64 5.67 34.69 5.67 34.11 6.26L31.13 9.24C30.54 9.83 30.54 10.78 31.13 11.36C31.42 11.65 31.81 11.8 32.19 11.8Z" fill="#2E2E2E"/>
<path d="M18.4303 11.36C18.7203 11.65 19.1103 11.8 19.4903 11.8C19.8703 11.8 20.2603 11.65 20.5503 11.36C21.1403 10.77 21.1403 9.82 20.5503 9.24L17.5703 6.26C16.9803 5.67 16.0303 5.67 15.4503 6.26C14.8603 6.85 14.8603 7.8 15.4503 8.38L18.4303 11.36Z" fill="#2E2E2E"/>
</svg>
