<svg width="20" height="20" viewBox="0 0 20 20" fill="none" xmlns="http://www.w3.org/2000/svg">
<path d="M18.3086 6.75398C18.1919 5.58731 17.6378 4.66231 17.2003 4.22065C16.1169 3.13731 14.9253 2.63315 13.6711 2.72065C12.0044 2.84148 10.6836 3.97481 10.0003 4.69981C9.3211 3.97481 8.00027 2.84148 6.33777 2.72065C5.0836 2.63315 3.8961 3.13731 2.8086 4.22065C2.36694 4.66231 1.81277 5.58731 1.70027 6.75398C1.60027 7.77065 1.81694 9.31648 3.42527 10.9248L9.64194 17.1415C9.74194 17.2415 9.87111 17.2956 10.0086 17.2956C10.1461 17.2956 10.2794 17.2415 10.3753 17.1415L16.5919 10.9248C18.1961 9.32065 18.4169 7.77065 18.3169 6.75398H18.3086ZM16.4628 4.95815C16.4836 4.98315 18.6919 7.34565 15.8503 10.1873L10.0044 16.0331L4.1586 10.1873C1.31694 7.34565 3.52527 4.97898 3.5461 4.95815C4.3461 4.15815 5.19194 3.74981 6.06277 3.74981C6.12944 3.74981 6.1961 3.74981 6.26277 3.75815C8.1211 3.88731 9.57527 5.78731 9.58777 5.80815C9.68361 5.93731 9.84194 6.01648 10.0044 6.01648C10.1669 6.01648 10.3211 5.93731 10.4211 5.80815C10.4336 5.78731 11.8878 3.89148 13.7544 3.75815C14.6919 3.68731 15.6044 4.09565 16.4711 4.95815H16.4628Z" fill="white"/>
</svg>
