<svg width="20" height="20" viewBox="0 0 20 20" fill="none" xmlns="http://www.w3.org/2000/svg">
<path d="M1.725 10.1999C1.75 10.2624 1.7875 10.3208 1.8375 10.3666L7.3625 15.8916C7.56667 16.0958 7.89583 16.0958 8.1 15.8916C8.2 15.7916 8.25417 15.6624 8.25417 15.5249C8.25417 15.3874 8.2 15.2541 8.1 15.1583L3.4625 10.5208H17.7917C18.0792 10.5208 18.3125 10.2874 18.3125 9.99993C18.3125 9.71243 18.0792 9.4791 17.7917 9.4791H3.4625L8.1 4.8416C8.2 4.7416 8.25417 4.61243 8.25417 4.47493C8.25417 4.33743 8.2 4.2041 8.1 4.10827C8 4.01243 7.87083 3.9541 7.73333 3.9541C7.59583 3.9541 7.4625 4.00827 7.36667 4.10827L1.84167 9.63327C1.79583 9.68327 1.75417 9.73743 1.72917 9.79993C1.70417 9.86243 1.6875 9.93327 1.6875 9.99993C1.6875 10.0666 1.7 10.1374 1.72917 10.1999H1.725Z" fill="#2E2E2E"/>
</svg>
