<svg width="21" height="20" viewBox="0 0 21 20" fill="none" xmlns="http://www.w3.org/2000/svg">
<path d="M17.9913 16.8625L13.9121 12.7833C14.9496 11.6208 15.5163 10.1333 15.5163 8.58333C15.5163 5.09167 12.6746 2.25 9.18294 2.25C5.69128 2.25 2.84961 5.09167 2.84961 8.58333C2.84961 12.075 5.69128 14.9167 9.18294 14.9167C10.6288 14.9167 12.0371 14.4167 13.1621 13.5042L17.2538 17.5958C17.3538 17.6958 17.4829 17.75 17.6204 17.75C17.7579 17.75 17.8913 17.6958 17.9871 17.5958C18.1913 17.3917 18.1913 17.0625 17.9871 16.8583L17.9913 16.8625ZM14.4788 8.58333C14.4788 11.5 12.1038 13.875 9.18711 13.875C6.27044 13.875 3.89544 11.5 3.89544 8.58333C3.89544 5.66667 6.27044 3.29167 9.18711 3.29167C12.1038 3.29167 14.4788 5.66667 14.4788 8.58333Z" fill="#2E2E2E"/>
</svg>
