<svg width="20" height="20" viewBox="0 0 20 20" fill="none" xmlns="http://www.w3.org/2000/svg">
<path d="M17.6483 16.1836C17.2608 13.2253 15.2025 10.8378 12.5067 9.90443C13.5733 9.12526 14.2692 7.87109 14.2692 6.45443C14.2692 4.10026 12.3525 2.18359 9.99832 2.18359C7.64416 2.18359 5.72749 4.10026 5.72749 6.45443C5.72749 7.87109 6.42332 9.12526 7.48999 9.90443C4.78999 10.8378 2.73166 13.2253 2.34832 16.1836C2.29416 16.6003 2.41916 17.0169 2.69416 17.3294C2.96499 17.6378 3.35666 17.8169 3.76916 17.8169H16.2233C16.6358 17.8169 17.0275 17.6378 17.2983 17.3294C17.5733 17.0169 17.6983 16.6003 17.6442 16.1836H17.6483ZM6.97749 6.45443C6.97749 4.78776 8.33166 3.43359 9.99832 3.43359C11.665 3.43359 13.0192 4.78776 13.0192 6.45443C13.0192 8.12109 11.665 9.47526 9.99832 9.47526C8.33166 9.47526 6.97749 8.12109 6.97749 6.45443ZM16.3608 16.5044C16.3358 16.5336 16.29 16.5669 16.2233 16.5669H3.76916C3.70249 16.5669 3.65666 16.5336 3.63166 16.5044C3.61082 16.4794 3.57332 16.4253 3.58582 16.3461C4.00249 13.1419 6.76082 10.7253 9.99832 10.7253C13.2358 10.7253 15.99 13.1419 16.4108 16.3461C16.4192 16.4253 16.3858 16.4794 16.365 16.5044H16.3608Z" fill="white"/>
</svg>
