<svg width="20" height="20" viewBox="0 0 20 20" fill="none" xmlns="http://www.w3.org/2000/svg">
<path d="M19.0002 5.1C19.0002 4.8 18.9002 4.5 18.8002 4.3C18.6002 4.1 18.3002 4 18.0002 4H14.0002C14.0002 1.8 12.2002 0 10.0002 0C7.80017 0 6.00017 1.8 6.00017 4H2.00017C1.70017 4 1.40017 4.1 1.30017 4.3C1.10017 4.5 1.00017 4.8 1.00017 5.1L2.00017 14L1.00017 18.8C0.900168 19.1 1.00017 19.4 1.20017 19.6C1.40017 19.8 1.70017 20 2.00017 20H18.0002C18.3002 20 18.6002 19.9 18.8002 19.6C19.0002 19.3 19.1002 19.1 19.0002 18.8L18.0002 14L19.0002 5.1ZM10.0002 2C11.1002 2 12.0002 2.9 12.0002 4H8.00017C8.00017 2.9 8.90017 2 10.0002 2ZM16.0002 14.2L16.8002 18H3.20017L4.00017 14.2C4.00017 14.1 4.00017 14 4.00017 13.9L3.10017 6H16.9002L16.0002 13.9C16.0002 14 16.0002 14.1 16.0002 14.2Z" fill="#121212"/>
<path d="M7.00024 10C7.55253 10 8.00024 9.55228 8.00024 9C8.00024 8.44771 7.55253 8 7.00024 8C6.44796 8 6.00024 8.44771 6.00024 9C6.00024 9.55228 6.44796 10 7.00024 10Z" fill="#121212"/>
<path d="M13.0002 10C13.5525 10 14.0002 9.55228 14.0002 9C14.0002 8.44771 13.5525 8 13.0002 8C12.448 8 12.0002 8.44771 12.0002 9C12.0002 9.55228 12.448 10 13.0002 10Z" fill="#121212"/>
</svg>
