<svg xmlns="http://www.w3.org/2000/svg" width="30" height="24" fill="none"><g clip-path="url(#a)"><path fill="#FF5F00" d="M18.25 17.477h-6.49V5.61h6.49v11.868Z"/><path fill="#EB001B" d="M12.167 11.5A7.518 7.518 0 0 1 15 5.604 7.333 7.333 0 0 0 10.416 4C6.32 4 3 7.358 3 11.5c0 4.142 3.32 7.5 7.416 7.5 1.73 0 3.322-.6 4.584-1.604a7.518 7.518 0 0 1-2.833-5.896Z"/><path fill="#F79E1B" d="M27 11.5c0 4.142-3.32 7.5-7.416 7.5-1.73 0-3.322-.6-4.584-1.604a7.517 7.517 0 0 0 2.833-5.896A7.517 7.517 0 0 0 15 5.604 7.336 7.336 0 0 1 19.584 4C23.68 4 27 7.358 27 11.5Z"/></g><defs><clipPath id="a"><path fill="#fff" d="M3 4h24v15H3z"/></clipPath></defs></svg>