<svg xmlns="http://www.w3.org/2000/svg" width="30" height="24" fill="none"><g clip-path="url(#a)"><path fill="#10357F" d="m11.389 7.18-3.924 9.677h-2.57L2.952 9.115c-.104-.466-.208-.645-.555-.825C1.806 7.968.833 7.645 0 7.466l.07-.287h4.097c.52 0 1.007.359 1.11 1.004l1.008 5.591L8.819 7.18h2.57Zm10.035 6.523c0-2.545-3.438-2.689-3.403-3.836 0-.358.312-.716 1.041-.824a4.709 4.709 0 0 1 2.396.43l.417-2.043c-.59-.215-1.32-.43-2.257-.43-2.396 0-4.097 1.326-4.097 3.19 0 1.398 1.215 2.186 2.118 2.617.937.465 1.25.788 1.25 1.218 0 .645-.764.932-1.458.932-1.216.036-1.91-.323-2.5-.61l-.452 2.115c.556.287 1.597.502 2.709.502 2.569.036 4.236-1.254 4.236-3.261Zm6.32 3.154H30l-1.944-9.678h-2.084c-.451 0-.868.287-1.041.717l-3.646 8.96h2.534l.521-1.433h3.125l.278 1.434Zm-2.675-3.441 1.285-3.62.73 3.62h-2.015ZM14.861 7.179l-2.014 9.678h-2.43l2.014-9.678h2.43Z"/></g><defs><clipPath id="a"><path fill="#fff" d="M0 7h30v10H0z"/></clipPath></defs></svg>