<svg width="69" height="110" viewBox="0 0 69 110" fill="none" xmlns="http://www.w3.org/2000/svg">
<g clip-path="url(#clip0_12371_12027)">
<mask id="mask0_12371_12027" style="mask-type:luminance" maskUnits="userSpaceOnUse" x="0" y="0" width="69" height="110">
<path d="M69 0H0V110H69V0Z" fill="white"/>
</mask>
<g mask="url(#mask0_12371_12027)">
<path d="M0.400733 47.2002C0.400733 47.2002 0.600734 49.5002 8.10073 54.0002C17.8007 59.8002 63.0007 83.4002 63.0007 83.4002C63.0007 83.4002 68.6007 85.9002 68.6007 90.8002C68.6007 92.9002 68.5007 109.9 68.5007 109.9L3.50073 73.6001C3.50073 73.6001 0.300733 72.3001 0.400733 69.1001C0.500733 65.9001 0.400733 47.2002 0.400733 47.2002Z" fill="#A45611"/>
<path d="M0.400733 70.0007C0.400733 70.0007 0.600734 67.7008 8.10073 63.2008C17.8007 57.4008 63.0007 33.8007 63.0007 33.8007C63.0007 33.8007 68.6007 31.3007 68.6007 26.4007C68.6007 24.3007 68.5007 7.30078 68.5007 7.30078L3.50073 43.6007C3.50073 43.6007 0.300733 44.9007 0.400733 48.1007C0.500733 51.3007 0.400733 70.0007 0.400733 70.0007Z" fill="#DD8A3E"/>
<path d="M11 71.5008L15.7 63.3008L18.6 64.9009C19.6 65.5009 20.2 66.1009 20.5 66.8009C20.8 67.5009 20.7 68.2009 20.3 68.9009C20.1 69.3009 19.8 69.6009 19.4 69.8009C19 70.0009 18.6 70.0008 18.1 70.0008C18.5 70.3008 18.7 70.7008 18.7 71.2008C18.7 71.7008 18.7 72.1008 18.4 72.6008C18 73.4008 17.4 73.8008 16.6 74.0008C15.9 74.1008 15 73.9009 14.1 73.4009L11 71.5008ZM15.4 67.7008L16.6 68.4009C17.5 68.9009 18.1 68.8008 18.5 68.1008C18.7 67.7008 18.8 67.4008 18.6 67.1008C18.5 66.8008 18.2 66.5009 17.7 66.3009L16.5 65.6008L15.4 67.7008ZM14.7 68.9009L13.4 71.1008L14.8 71.9009C15.2 72.1009 15.6 72.2008 15.9 72.1008C16.2 72.0008 16.5 71.8008 16.7 71.5008C17.1 70.8008 17 70.2008 16.2 69.7008L14.7 68.9009Z" fill="white"/>
<path d="M23.8 74.8008L22.4 74.0008L20.7 77.0008L19 76.0008L23.7 67.8008L26.7 69.5008C27.7 70.0008 28.3 70.7008 28.6 71.4008C28.9 72.1008 28.8 72.9008 28.3 73.7008C28 74.3008 27.6 74.7008 27.1 74.9008C26.6 75.1008 26.1 75.2008 25.5 75.2008L25.4 79.5008V79.6008L23.6 78.6008L23.8 74.8008ZM23.2 72.7008L24.6 73.5008C25 73.7008 25.4 73.8008 25.8 73.7008C26.2 73.6008 26.4 73.4008 26.7 73.0008C26.9 72.6008 27 72.2008 26.9 71.9008C26.8 71.6008 26.5 71.3008 26.1 71.0008L24.7 70.2008L23.2 72.7008Z" fill="white"/>
<path d="M36.001 80.5002C35.501 81.3002 35.001 81.9002 34.401 82.4002C33.801 82.9002 33.101 83.1002 32.401 83.1002C31.701 83.1002 31.001 82.9002 30.301 82.6002C29.601 82.2002 29.101 81.7002 28.801 81.1002C28.501 80.5002 28.301 79.8002 28.401 79.0002C28.501 78.2002 28.701 77.4002 29.101 76.7002L29.301 76.3002C29.801 75.5002 30.301 74.9002 30.901 74.4002C31.501 74.0002 32.201 73.7002 32.901 73.7002C33.601 73.7002 34.301 73.9002 35.001 74.2002C35.701 74.6002 36.201 75.1002 36.501 75.7002C36.801 76.3002 37.001 77.0002 36.901 77.8002C36.801 78.6002 36.601 79.4002 36.101 80.2002L36.001 80.5002ZM34.501 79.2002C35.001 78.3002 35.201 77.6002 35.201 77.0002C35.101 76.4002 34.801 75.9002 34.301 75.6002C33.701 75.3002 33.201 75.3002 32.601 75.5002C32.001 75.7002 31.501 76.3002 31.001 77.2002L30.801 77.6002C30.301 78.4002 30.101 79.2002 30.201 79.8002C30.201 80.4002 30.601 80.9002 31.101 81.2002C31.701 81.5002 32.201 81.5002 32.801 81.3002C33.401 81.1002 33.901 80.5002 34.401 79.6002L34.501 79.2002Z" fill="white"/>
<path d="M42.3016 89.3008L40.6016 88.3008L40.4016 81.1008L37.3016 86.5008L35.6016 85.5008L40.3016 77.3008L42.0016 78.3008L42.2016 85.6008L45.3016 80.2008L47.0016 81.2008L42.3016 89.3008Z" fill="white"/>
<path d="M47.1012 90.2002L51.2012 92.5002L50.4012 93.9002L44.2012 90.4002L44.8012 89.4002L52.2012 85.9002L48.2012 83.6002L49.0012 82.2002L55.1012 85.7002L54.6012 86.7002L47.1012 90.2002Z" fill="white"/>
<path d="M59.1012 94.1002L55.9012 92.3002L54.6012 94.5002L58.4012 96.7002L57.7012 98.0002L52.2012 94.9002L56.9012 86.7002L62.4012 89.8002L61.6012 91.2002L57.8012 89.0002L56.6012 91.0002L59.8012 92.8002L59.1012 94.1002Z" fill="white"/>
<path d="M61.2012 51.1004C61.3012 51.0004 61.3012 51.0004 61.2012 51.1004V51.1004Z" fill="#CC7F32"/>
<path d="M52.2912 49.0313C53.8893 49.0313 55.1843 47.8465 55.4047 46.3311C55.1843 44.8157 53.8617 43.6309 52.2912 43.6309C50.7207 43.6309 49.3981 44.8157 49.1777 46.3311C49.3981 47.8465 50.7207 49.0313 52.2912 49.0313Z" fill="#DD8A3E"/>
<path d="M52.2915 49.0313C50.6934 49.0313 49.3984 47.8465 49.178 46.3311C49.1504 46.4688 49.1504 46.6341 49.1504 46.7719C49.1504 48.5077 50.5556 49.9405 52.2915 49.9405C54.0273 49.9405 55.4601 48.5353 55.4601 46.7719C55.4601 46.6066 55.4601 46.4688 55.4325 46.3311C55.2121 47.8465 53.8895 49.0313 52.2915 49.0313Z" fill="#A45611"/>
<path d="M53.1743 60.9074C54.1112 58.6205 55.1582 56.4162 56.4256 54.3773C57.7206 52.2833 61.4127 49.4728 61.4679 49.528C59.4289 47.9574 57.4451 49.7208 56.0399 50.9607C54.6622 52.1455 53.257 53.5232 51.5212 53.0823C50.1435 52.7241 48.9863 51.374 47.7739 50.4648C45.8452 48.9769 44.5502 48.5911 42.5664 49.5004C43.393 49.5004 44.4125 50.327 44.8809 51.0158C45.8452 52.3935 46.3136 53.3578 48.7107 54.9284C49.62 55.507 50.5017 55.4243 51.4109 55.3141C52.7335 55.1764 54.8551 54.3497 55.7368 53.2752C54.056 56.058 51.7967 58.5103 51.3559 61.8717C51.163 63.2218 51.163 64.5444 51.6038 65.8395C51.8518 66.556 52.0171 67.5476 52.4029 68.1538C52.3478 65.6742 52.458 63.1943 53.1743 60.9074Z" fill="#DD8A3E"/>
<path d="M52.842 54.9281C50.9408 55.7547 49.1498 55.0383 49.1498 55.0383C49.1498 55.0383 47.3038 54.2392 45.5404 51.7319C43.9147 49.4174 42.7024 49.4725 42.5371 49.5001C42.7575 49.6379 45.8435 53.9086 47.1384 55.2587C48.3783 56.5812 49.5356 56.8292 51.4368 56.3608C51.7123 56.2506 51.9878 56.1404 52.2909 55.9751C53.2277 55.4516 53.8614 55.0658 54.3298 54.6801C54.7707 54.2668 55.1564 53.8811 55.4044 53.6331C55.4595 53.578 55.4871 53.5229 55.5422 53.4677C55.5422 53.4677 55.5146 53.4953 55.4871 53.5504C55.5697 53.4677 55.6248 53.4127 55.6524 53.3575C55.3493 53.6331 54.5227 54.2117 52.842 54.9281Z" fill="#A45611"/>
<path d="M59.4826 50.8226C58.8765 51.291 58.2428 51.8145 57.8019 52.3656C56.5896 53.8534 53.972 58.3721 53.173 60.8795C52.3739 63.3868 52.2086 66.4177 52.3464 68.1258C52.3464 68.1258 54.4129 59.612 57.3059 55.2862C60.199 50.9604 59.5377 51.8145 61.4665 49.5C61.4665 49.5276 60.5021 50.0787 59.4826 50.8226Z" fill="#A45611"/>
<path d="M42.1849 62.2347C43.2776 61.3574 43.708 59.9003 43.2444 58.5758C43.1782 58.4103 42.9961 58.3109 42.814 58.3772C41.9862 58.6586 41.3239 59.2546 40.9266 60.0494C40.91 59.7182 40.9266 59.3871 40.9762 59.0394C40.9928 58.8573 40.8603 58.6917 40.6782 58.6752C40.4961 58.6586 40.3305 58.7911 40.314 58.9732C40.2809 59.2216 40.2809 59.4533 40.2643 59.7017C39.602 58.9235 38.6086 58.5096 37.5821 58.5593C37.4 58.5758 37.2676 58.7248 37.2676 58.907C37.3669 60.6454 38.8073 62.003 40.5457 62.0195C40.6285 62.2845 40.7113 62.5495 40.8106 62.7977C40.6782 62.7314 40.5126 62.6652 40.3636 62.6157C39.5358 62.3343 38.6252 62.3837 37.847 62.7812C37.6815 62.8639 37.6153 63.0627 37.698 63.2281C38.4596 64.7844 40.314 65.4799 41.9199 64.8177C42.1352 65.0992 42.3669 65.3638 42.6153 65.6123C42.4994 65.6123 42.4001 65.6123 42.3007 65.6123C41.4232 65.6453 40.612 66.0263 40.0159 66.672C39.9001 66.8045 39.9001 67.0197 40.0325 67.1357C41.2246 68.2283 43.0458 68.2945 44.3206 67.2847C44.4034 67.2184 44.4862 67.1522 44.569 67.0695C44.867 67.2349 45.1816 67.3839 45.5127 67.4999C44.4697 67.897 43.6915 68.7912 43.4597 69.9006C43.4266 70.0825 43.5425 70.2483 43.708 70.2978C44.569 70.48 45.4465 70.3142 46.1915 69.8344C46.2909 69.7681 46.3736 69.7183 46.4564 69.6356C46.9862 69.2052 47.367 68.6258 47.5491 67.9798C48.079 68.046 48.5922 68.046 49.122 67.9966C49.1883 67.9966 49.2545 67.9633 49.3041 67.9303C49.3869 67.8641 49.4366 67.7645 49.42 67.6489C49.4035 67.4666 49.2379 67.3176 49.0558 67.3341C48.5425 67.3839 48.0458 67.3839 47.5491 67.3176C46.4564 67.2016 45.4134 66.8374 44.4862 66.258C45.3471 64.7844 44.9167 62.8804 43.5259 61.9038C43.3769 61.7878 43.1782 61.8376 43.0623 61.9866C42.5491 62.6985 42.3669 63.5923 42.516 64.4535C42.516 64.4865 42.516 64.503 42.5325 64.5362C42.1021 63.9733 41.7378 63.3606 41.4564 62.6985C41.7378 62.566 41.9696 62.417 42.1849 62.2347ZM41.4895 64.2548C40.3636 64.619 39.155 64.205 38.4928 63.2281C39.0391 63.0462 39.6186 63.0462 40.1649 63.2449C40.7113 63.4269 41.1749 63.791 41.4895 64.2548ZM40.7775 66.8707L40.8106 66.8374C41.7213 66.109 42.9961 66.0593 43.9564 66.7217C43.0458 67.4831 41.7544 67.5493 40.7775 66.8707ZM45.8604 69.2546C45.3802 69.5694 44.8008 69.7183 44.2379 69.6686C44.6352 68.5595 45.7279 67.8476 46.9035 67.9303C46.7048 68.4765 46.3405 68.9402 45.8604 69.2546ZM43.4432 62.6487C44.3041 63.4601 44.5359 64.735 44.0061 65.7778C43.1286 64.9832 42.9133 63.7083 43.4432 62.6487ZM41.5391 60.3639C41.7875 59.8507 42.2014 59.4202 42.7147 59.1719C42.9464 60.3308 42.3835 61.4899 41.3405 62.036C41.208 61.4566 41.2742 60.8772 41.5391 60.3639ZM38.8239 60.6785C38.3934 60.2977 38.0954 59.7845 37.996 59.2216C39.1716 59.3209 40.1318 60.1818 40.3636 61.3409C39.8007 61.2911 39.2543 61.0594 38.8239 60.6785Z" fill="#A45611"/>
<path d="M62.8107 62.6984C62.5292 63.3605 62.1815 63.9733 61.7342 64.5362C61.751 64.5032 61.751 64.4864 61.751 64.4535C61.9 63.5926 61.7013 62.6984 61.2046 61.9865C61.0886 61.8375 60.8902 61.8042 60.7408 61.9038C59.3503 62.8972 58.9198 64.7847 59.7807 66.258C58.8536 66.8377 57.7939 67.1851 56.7178 67.3176C56.221 67.3838 55.7078 67.3838 55.2111 67.3344C55.029 67.3176 54.8634 67.4501 54.8469 67.6488C54.8303 67.7648 54.88 67.864 54.9627 67.9303C55.0124 67.9801 55.0787 67.9965 55.1449 67.9965C55.6747 68.0463 56.188 68.0463 56.7178 67.9801C56.8999 68.6257 57.2807 69.2051 57.8105 69.6356C57.8933 69.7018 57.9926 69.7681 58.0754 69.8343C58.8039 70.3145 59.6979 70.48 60.5589 70.2977C60.7408 70.2483 60.8569 70.0825 60.8071 69.9006C60.5754 68.8076 59.7973 67.8973 58.7542 67.4998C59.0853 67.3838 59.3999 67.2349 59.6979 67.0694C59.7807 67.1521 59.8635 67.2184 59.9463 67.2846C61.2211 68.2945 63.0259 68.2282 64.2345 67.1356C64.367 67.0196 64.367 66.8044 64.251 66.6719C63.6551 66.0263 62.8436 65.6456 61.9663 65.6123C61.8667 65.6123 61.7675 65.6123 61.6515 65.6123C61.9 65.3641 62.1317 65.0991 62.3469 64.8177C63.953 65.4966 65.8073 64.8012 66.5689 63.2284C66.6517 63.0626 66.5854 62.8639 66.42 62.7811C65.6418 62.4005 64.7312 62.3342 63.9032 62.6157C63.7543 62.6655 63.6053 62.7314 63.4563 62.7976C63.5555 62.5494 63.6382 62.2844 63.7213 62.0195C65.4596 62.0195 66.9002 60.6454 66.9994 58.907C67.0159 58.7249 66.8834 58.5593 66.6846 58.5593C65.6583 58.4931 64.6649 58.9235 64.0028 59.7017C64.0028 59.4699 63.986 59.2216 63.953 58.9732C63.9365 58.7911 63.7707 58.6586 63.5888 58.6752C63.4066 58.6917 63.2741 58.8573 63.2905 59.0394C63.3238 59.3706 63.3403 59.7017 63.3403 60.0494C62.9596 59.2712 62.2807 58.6752 61.4528 58.3772C61.2873 58.3109 61.0886 58.4103 61.0223 58.5758C60.5589 59.9004 60.9894 61.3573 62.0819 62.2347C62.314 62.4334 62.5457 62.5824 62.8107 62.6984ZM64.1349 63.2613C64.6814 63.0791 65.2608 63.0791 65.8073 63.2449C65.1451 64.2218 63.9197 64.6354 62.8107 64.2712C63.1086 63.8078 63.5888 63.4436 64.1349 63.2613ZM60.3271 66.7546C61.2873 66.0925 62.5621 66.1423 63.4728 66.8707L63.5061 66.9036C62.5292 67.5661 61.2375 67.4998 60.3271 66.7546ZM57.3966 67.9632C58.5721 67.8805 59.6648 68.5924 60.0622 69.7018C59.4993 69.7351 58.9198 69.5858 58.4396 69.2879C57.9429 68.957 57.5787 68.4932 57.3966 67.9632ZM60.294 65.7946C59.7476 64.7514 59.9794 63.4766 60.8404 62.6655C61.3868 63.7251 61.1548 64.9999 60.294 65.7946ZM62.9596 62.0363C61.9165 61.4898 61.3536 60.3308 61.5852 59.1719C62.0988 59.4368 62.5124 59.8507 62.7609 60.3639C63.0094 60.8939 63.0753 61.4733 62.9596 62.0363ZM63.9197 61.3573C64.1518 60.1984 65.1118 59.3374 66.2875 59.2381C66.1715 59.801 65.89 60.3143 65.4596 60.6951C65.0456 61.0758 64.4995 61.3075 63.9197 61.3573Z" fill="#A45611"/>
<path d="M5.36558 56.2197L4.96818 55.1483L7.90956 53.5241L8.6046 54.4312L5.36558 56.2197ZM5.44976 52.5863L5.69553 55.2036L5.87647 55.4692L6.03786 57.6647L4.62845 58.443L4.1543 50.2402L10.8439 55.011L9.42569 55.7941L7.70007 54.5308L7.54356 54.206L5.44976 52.5863Z" fill="white"/>
<path d="M14.9743 49.7026L14.1847 45.1695L15.6554 44.3574L16.6452 52.2526L12.4957 49.2892L12.7846 54.3843L6.63867 49.3362L8.10936 48.5241L11.5427 51.5974L10.9779 46.5404L14.9743 49.7026Z" fill="white"/>
<path d="M18.9574 48.7139L18.56 47.6425L21.5014 46.0183L22.1964 46.9253L18.9574 48.7139ZM19.0416 45.0805L19.2873 47.6978L19.4683 47.9634L19.6297 50.1589L18.2203 50.9372L17.7461 42.7344L24.4357 47.5052L23.0175 48.2882L21.2919 47.025L21.1354 46.7002L19.0416 45.0805Z" fill="white"/>
<path d="M24.9165 43.5163L26.2384 42.7864L29.8102 44.5381L28.3307 45.355L24.9165 43.5163ZM21.7168 41.0108L22.9686 40.3196L26.3523 46.4475L25.1004 47.1387L21.7168 41.0108ZM23.0681 41.6583L22.4784 40.5903L23.774 39.8749C24.2584 39.6074 24.7149 39.4619 25.1437 39.4384C25.5724 39.4149 25.9578 39.4991 26.2998 39.691C26.6419 39.8829 26.9208 40.1744 27.1368 40.5654C27.3494 40.9506 27.4475 41.342 27.4309 41.7395C27.4111 42.1312 27.2771 42.5022 27.0289 42.8525C26.7806 43.2029 26.4143 43.5117 25.9299 43.7792L24.6343 44.4946L24.0832 43.4966L25.3 42.8248C25.5218 42.7023 25.6921 42.5625 25.811 42.4055C25.9326 42.2394 26 42.0651 26.0135 41.8825C26.0237 41.6941 25.9756 41.5036 25.8692 41.311C25.7629 41.1184 25.6289 40.9792 25.4672 40.8933C25.3023 40.8016 25.1189 40.7658 24.9168 40.786C24.7173 40.7971 24.5067 40.8639 24.2849 40.9864L23.0681 41.6583Z" fill="white"/>
<path d="M27.1465 38.0129L28.4245 37.3072L31.8082 43.435L30.5301 44.1408L27.1465 38.0129ZM32.6136 42.9903L31.3355 43.6961L30.7071 42.558L31.9414 41.8765C32.2099 41.7282 32.4444 41.553 32.645 41.3509C32.8424 41.1429 32.9881 40.9102 33.082 40.6527C33.1759 40.3952 33.2064 40.1194 33.1735 39.8254C33.1432 39.5223 33.0346 39.2015 32.8477 38.863C32.6608 38.5245 32.4487 38.2646 32.2115 38.0833C31.977 37.893 31.7257 37.769 31.4578 37.7113C31.1899 37.6536 30.9169 37.6558 30.639 37.7179C30.3578 37.7742 30.083 37.8764 29.8146 38.0247L28.5802 38.7062L27.9518 37.5682L29.2299 36.8625C29.8719 36.508 30.5014 36.3241 31.1186 36.3108C31.7415 36.2943 32.3145 36.4424 32.8376 36.7552C33.3574 37.0622 33.7897 37.5279 34.1345 38.1524C34.4793 38.7768 34.6448 39.3937 34.6309 40.003C34.6138 40.6065 34.4324 41.1674 34.0865 41.6858C33.7465 42.201 33.2556 42.6359 32.6136 42.9903Z" fill="white"/>
<path d="M36.1938 38.3286C36.4479 38.4853 36.6974 38.6064 36.9426 38.6918C37.1937 38.7741 37.4383 38.8103 37.6766 38.8006C37.915 38.7908 38.1421 38.7263 38.358 38.6071C38.609 38.4685 38.7778 38.2915 38.8645 38.0761C38.9511 37.8607 38.9334 37.6422 38.8109 37.4204C38.7046 37.2278 38.5695 37.1005 38.4059 37.0386C38.2481 36.9734 38.0486 36.9502 37.8076 36.9691C37.5693 36.9788 37.284 37.0069 36.9517 37.0533C36.7768 37.0813 36.569 37.1047 36.3281 37.1235C36.0898 37.1333 35.8472 37.1149 35.6006 37.0682C35.3508 37.0158 35.1142 36.9181 34.8905 36.775C34.6636 36.6261 34.4696 36.4058 34.3085 36.114C34.1151 35.7638 34.0366 35.4149 34.0731 35.0673C34.1122 34.7106 34.2466 34.3814 34.4759 34.0796C34.7079 33.7687 35.0136 33.5086 35.3929 33.2991C35.7839 33.0832 36.1565 32.965 36.5107 32.9446C36.8676 32.915 37.1958 32.9509 37.4953 33.052C37.7975 33.1441 38.0608 33.2691 38.2851 33.427L37.6042 34.5112C37.4419 34.4104 37.2702 34.3338 37.089 34.2816C36.9105 34.2202 36.729 34.1948 36.5445 34.2054C36.3567 34.2101 36.1693 34.264 35.9825 34.3671C35.7374 34.5024 35.5859 34.6623 35.5278 34.8467C35.4664 35.0253 35.4776 35.1904 35.5614 35.3422C35.6452 35.4939 35.7689 35.6007 35.9326 35.6627C36.093 35.7188 36.3043 35.743 36.5666 35.7352C36.8257 35.7216 37.1389 35.682 37.5063 35.6162C37.7434 35.5767 37.9814 35.5595 38.2203 35.5647C38.4651 35.5666 38.7022 35.6031 38.9319 35.6743C39.1642 35.7364 39.3776 35.8471 39.5721 36.0062C39.7692 36.1563 39.9402 36.3627 40.0852 36.6253C40.2496 36.9229 40.3379 37.2207 40.35 37.5186C40.3622 37.8165 40.3114 38.1035 40.1974 38.3797C40.0801 38.6501 39.9156 38.897 39.704 39.1205C39.5014 39.3466 39.2599 39.537 38.9798 39.6917C38.6062 39.8979 38.2174 40.0213 37.8132 40.0616C37.4117 40.093 37.0236 40.0522 36.649 39.9392C36.2744 39.8262 35.9411 39.6638 35.649 39.4519L36.1938 38.3286Z" fill="white"/>
<path d="M44.1868 36.5989L45.3657 32.1554C45.4299 31.8992 45.4771 31.6675 45.5074 31.4603C45.5377 31.2532 45.5418 31.0606 45.5196 30.8824C45.4974 30.7043 45.4428 30.5365 45.3558 30.3789C45.2945 30.268 45.2145 30.1713 45.1156 30.0888C45.0168 30.0063 44.9039 29.9468 44.7771 29.9102C44.6503 29.8736 44.5156 29.8642 44.3731 29.882C44.2274 29.8939 44.0787 29.9418 43.9269 30.0255C43.711 30.1448 43.5533 30.3004 43.4537 30.4925C43.3567 30.6755 43.316 30.8845 43.3316 31.1196C43.353 31.3515 43.4314 31.59 43.5668 31.8351L42.3412 32.5118C42.0995 32.0741 41.9695 31.6318 41.9513 31.185C41.933 30.7382 42.0367 30.3192 42.2624 29.928C42.4907 29.5278 42.8529 29.1907 43.349 28.9168C43.7167 28.7138 44.0699 28.5949 44.4086 28.5601C44.75 28.5163 45.0627 28.5379 45.3467 28.6247C45.6334 28.7025 45.8817 28.8281 46.0917 29.0016C46.3075 29.1718 46.4767 29.3678 46.5991 29.5895C46.7796 29.9164 46.87 30.2663 46.8703 30.6392C46.8706 31.0122 46.8069 31.3863 46.679 31.7616L45.9171 34.147L48.4821 32.7307L49.1153 33.8775L44.1868 36.5989Z" fill="white"/>
<path d="M49.3936 29.7268C49.5644 30.0361 49.7499 30.3031 49.9501 30.5276C50.147 30.7463 50.3525 30.9185 50.5665 31.044C50.7773 31.1637 50.9859 31.2312 51.1924 31.2467C51.3989 31.2621 51.5956 31.2182 51.7823 31.1151C51.9749 31.0088 52.1197 30.8641 52.2167 30.6811C52.3136 30.4981 52.3676 30.2855 52.3786 30.0434C52.3863 29.7954 52.3501 29.5298 52.2699 29.2467C52.1865 28.9576 52.0594 28.6585 51.8886 28.3492C51.7178 28.0399 51.5339 27.7758 51.337 27.5571C51.1368 27.3326 50.9314 27.1604 50.7206 27.0407C50.5066 26.9152 50.2963 26.8447 50.0898 26.8293C49.8833 26.8139 49.6837 26.8593 49.4911 26.9657C49.3044 27.0688 49.1625 27.2119 49.0656 27.3949C48.9686 27.5779 48.9162 27.7933 48.9085 28.0413C48.8975 28.2835 48.9337 28.5491 49.0171 28.8381C49.0973 29.1212 49.2229 29.4175 49.3936 29.7268ZM48.1768 30.3987C47.8191 29.7509 47.6119 29.1342 47.5551 28.5487C47.5042 27.96 47.5917 27.4357 47.8176 26.9759C48.0461 26.5071 48.4025 26.1389 48.8869 25.8714C49.3888 25.5943 49.8961 25.4855 50.4088 25.5451C50.9182 25.5989 51.4056 25.8057 51.8709 26.1657C52.3362 26.5256 52.7477 27.0295 53.1054 27.6773C53.4631 28.3251 53.6703 28.9417 53.7271 29.5272C53.7838 30.1128 53.7009 30.6383 53.4782 31.104C53.2524 31.5638 52.8885 31.9323 52.3866 32.2094C51.9022 32.4769 51.4023 32.5853 50.887 32.5348C50.3743 32.4752 49.8824 32.267 49.4113 31.9103C48.946 31.5504 48.5345 31.0465 48.1768 30.3987Z" fill="white"/>
<path d="M55.3176 30.4534L56.4966 26.0099C56.5607 25.7537 56.6079 25.522 56.6382 25.3148C56.6685 25.1077 56.6726 24.9151 56.6504 24.7369C56.6282 24.5588 56.5736 24.391 56.4866 24.2334C56.4253 24.1225 56.3453 24.0258 56.2464 23.9433C56.1476 23.8608 56.0347 23.8013 55.9079 23.7647C55.7811 23.7281 55.6464 23.7187 55.5039 23.7365C55.3582 23.7484 55.2095 23.7962 55.0578 23.88C54.8418 23.9993 54.6841 24.1549 54.5845 24.347C54.4875 24.53 54.4469 24.739 54.4624 24.9741C54.4839 25.206 54.5622 25.4445 54.6976 25.6896L53.472 26.3663C53.2303 25.9286 53.1003 25.4863 53.0821 25.0395C53.0638 24.5927 53.1675 24.1737 53.3932 23.7825C53.6215 23.3823 53.9837 23.0452 54.4798 22.7713C54.8475 22.5682 55.2007 22.4494 55.5394 22.4146C55.8808 22.3708 56.1935 22.3924 56.4775 22.4792C56.7642 22.557 57.0125 22.6826 57.2225 22.8561C57.4383 23.0263 57.6075 23.2223 57.7299 23.444C57.9104 23.7709 58.0008 24.1208 58.0011 24.4937C58.0014 24.8667 57.9377 25.2408 57.8098 25.616L57.048 28.0015L59.6129 26.5852L60.2461 27.732L55.3176 30.4534Z" fill="white"/>
<path d="M61.3457 23.2288L61.0121 22.6247C61.1931 22.5248 61.3407 22.4129 61.4549 22.2889C61.5751 22.1616 61.6622 22.0297 61.7163 21.8932C61.7671 21.7509 61.7898 21.6127 61.7844 21.4787C61.7815 21.3356 61.7478 21.2056 61.6834 21.0889C61.6028 20.943 61.5027 20.8307 61.3832 20.7521C61.2636 20.6734 61.1322 20.6355 60.9891 20.6384C60.846 20.6413 60.6869 20.691 60.5118 20.7877C60.2667 20.9231 60.1014 21.1133 60.016 21.3585C59.9331 21.5947 59.9545 21.8265 60.0802 22.0541L58.9159 22.697C58.7226 22.3469 58.6364 21.9908 58.6574 21.6289C58.681 21.2579 58.8011 20.9099 59.0175 20.5847C59.234 20.2596 59.5436 19.9858 59.9463 19.7635C60.3723 19.5282 60.776 19.4043 61.1575 19.3917C61.5447 19.3759 61.8864 19.4499 62.1826 19.6139C62.4787 19.7778 62.7122 20.0144 62.883 20.3237C63.0666 20.6564 63.1195 21.0004 63.0415 21.3557C62.9603 21.7051 62.7727 22.041 62.4785 22.3634C62.1843 22.6857 61.8067 22.9742 61.3457 23.2288ZM63.4031 26.148C63.0529 26.3413 62.7117 26.4612 62.3794 26.5076C62.0471 26.554 61.7347 26.5399 61.4422 26.4654C61.1465 26.3849 60.8817 26.257 60.6477 26.0816C60.4105 25.9003 60.2194 25.6784 60.0744 25.4157L61.3175 24.7293C61.4271 24.9278 61.5672 25.0712 61.7379 25.1597C61.9087 25.2482 62.0937 25.2869 62.2932 25.2758C62.4895 25.2588 62.681 25.1988 62.8677 25.0956C63.0603 24.9893 63.2089 24.8654 63.3135 24.7238C63.4208 24.5732 63.4798 24.4112 63.4906 24.2377C63.5014 24.0642 63.4536 23.8811 63.3473 23.6885C63.2699 23.5484 63.1699 23.4362 63.0471 23.3517C62.921 23.2613 62.7771 23.2075 62.6152 23.1903C62.4592 23.1698 62.2853 23.1859 62.0935 23.2385C61.9043 23.282 61.7018 23.3634 61.4859 23.4826L61.1185 22.8173C61.492 22.6111 61.8511 22.4547 62.1959 22.3481C62.5465 22.2383 62.8788 22.1918 63.1928 22.2088C63.5036 22.22 63.7844 22.301 64.0352 22.4519C64.2829 22.5969 64.4921 22.8241 64.6629 23.1334C64.8562 23.4836 64.9336 23.8445 64.8951 24.216C64.8624 24.5844 64.7187 24.9379 64.464 25.2765C64.2119 25.6061 63.8583 25.8966 63.4031 26.148Z" fill="white"/>
<path d="M3.47117 40.7767L0.931641 36.1776L2.79046 35.1512C2.83518 35.1265 2.89171 35.0981 2.96007 35.0659C3.02725 35.0315 3.09359 35.0033 3.15909 34.981C3.43693 34.8803 3.69806 34.8501 3.94247 34.8902C4.189 34.9291 4.41129 35.0272 4.60933 35.1846C4.80737 35.342 4.97458 35.5442 5.11096 35.7911C5.24852 36.0403 5.33114 36.2905 5.35884 36.542C5.38654 36.7934 5.35119 37.0338 5.25279 37.2632C5.15653 37.4914 4.99181 37.6963 4.75864 37.8778C4.70372 37.9192 4.64337 37.9609 4.57759 38.0028C4.51393 38.0435 4.46081 38.0756 4.41823 38.0991L3.22693 38.7569L4.13869 40.4081L3.47117 40.7767ZM2.87774 38.1245L4.04349 37.4808C4.08608 37.4573 4.13175 37.4293 4.1805 37.3968C4.23138 37.3632 4.2773 37.3281 4.31826 37.2916C4.4369 37.1844 4.51422 37.0653 4.55023 36.9343C4.58507 36.8011 4.58943 36.6681 4.56331 36.5353C4.5372 36.4025 4.49298 36.2796 4.43067 36.1668C4.36836 36.0539 4.28853 35.9521 4.1912 35.8614C4.09269 35.7685 3.9784 35.7025 3.84833 35.6631C3.71709 35.6217 3.57451 35.6226 3.42061 35.6659C3.36671 35.679 3.31197 35.6981 3.25639 35.7233C3.20294 35.7472 3.15492 35.771 3.11233 35.7945L1.94658 36.4382L2.87774 38.1245Z" fill="#DD8A3E"/>
<path d="M6.83778 38.9172L5.79297 33.4927L6.75432 32.9619L10.7886 36.7357L10.0955 37.1184L6.40164 33.6817L6.5741 33.5865L7.53085 38.5345L6.83778 38.9172ZM7.04073 37.4506L6.69507 36.8247L9.09684 35.4985L9.4425 36.1244L7.04073 37.4506Z" fill="#DD8A3E"/>
<path d="M12.089 36.0173L11.0397 34.117L7.99414 32.277L8.77344 31.8467L10.955 33.1635L11.0027 30.6158L11.782 30.1855L11.7168 33.7431L12.7661 35.6435L12.089 36.0173Z" fill="#DD8A3E"/>
<path d="M16.2938 33.8211C15.9638 34.0033 15.6346 34.1115 15.3061 34.1456C14.9786 34.1764 14.6704 34.1341 14.3815 34.0185C14.0936 33.8996 13.8436 33.7085 13.6314 33.445L14.2695 32.9551C14.4949 33.1974 14.7629 33.3356 15.0735 33.3697C15.3829 33.4017 15.6867 33.3354 15.9847 33.1708C16.17 33.0685 16.3245 32.9457 16.4481 32.8024C16.5707 32.6569 16.6488 32.504 16.6825 32.3437C16.7172 32.1801 16.6922 32.0216 16.6075 31.8683C16.5617 31.7853 16.5062 31.72 16.4411 31.6726C16.3782 31.624 16.3082 31.5904 16.2313 31.5718C16.1553 31.5499 16.0716 31.5419 15.9804 31.5478C15.8902 31.5504 15.7954 31.5624 15.6961 31.5839L14.3254 31.8865C14.1916 31.9159 14.0504 31.9369 13.9018 31.9495C13.752 31.96 13.6029 31.9492 13.4546 31.9172C13.3073 31.8819 13.1669 31.8163 13.0335 31.7205C12.8988 31.6226 12.7798 31.4799 12.6763 31.2926C12.5199 31.0094 12.4601 30.7299 12.4967 30.454C12.5343 30.1749 12.65 29.9165 12.8438 29.6789C13.0365 29.4391 13.2872 29.234 13.596 29.0635C13.9092 28.8961 14.2176 28.7981 14.5213 28.7693C14.827 28.7394 15.1161 28.7798 15.3884 28.8906C15.6617 28.9981 15.9074 29.1764 16.1255 29.4255L15.4771 29.9419C15.35 29.7871 15.2001 29.6767 15.0276 29.6108C14.8539 29.5428 14.6732 29.5175 14.4856 29.535C14.2968 29.5503 14.1135 29.6057 13.9356 29.7012C13.7629 29.791 13.6205 29.903 13.5084 30.0371C13.3984 30.17 13.3285 30.3101 13.2986 30.4572C13.2708 30.6031 13.2928 30.741 13.3645 30.8709C13.435 30.9986 13.5293 31.0813 13.6473 31.119C13.7654 31.1566 13.8916 31.1689 14.0261 31.1557C14.1615 31.1393 14.2917 31.116 14.4168 31.0859L15.3986 30.8563C15.5215 30.8273 15.6642 30.8014 15.8265 30.7784C15.9898 30.7521 16.159 30.749 16.334 30.7691C16.5111 30.788 16.6824 30.849 16.8477 30.9522C17.0119 31.0533 17.1557 31.2156 17.2791 31.4391C17.4073 31.6712 17.4733 31.9015 17.4772 32.13C17.4799 32.3563 17.4322 32.5743 17.3341 32.7841C17.2369 32.9906 17.0984 33.1824 16.9184 33.3596C16.7384 33.5368 16.5302 33.6906 16.2938 33.8211Z" fill="#DD8A3E"/>
<path d="M18.6861 32.3764L16.1465 27.7772L18.0054 26.7509C18.0501 26.7262 18.1066 26.6977 18.175 26.6655C18.2421 26.6312 18.3085 26.6029 18.374 26.5806C18.6518 26.48 18.913 26.4497 19.1574 26.4898C19.4039 26.5287 19.6262 26.6269 19.8242 26.7843C20.0223 26.9416 20.1895 27.1438 20.3259 27.3908C20.4634 27.6399 20.546 27.8902 20.5737 28.1416C20.6014 28.3931 20.5661 28.6335 20.4677 28.8629C20.3714 29.0911 20.2067 29.2959 19.9735 29.4775C19.9186 29.5189 19.8583 29.5606 19.7925 29.6024C19.7288 29.6431 19.6757 29.6753 19.6331 29.6988L18.4418 30.3566L19.3536 32.0078L18.6861 32.3764ZM18.0926 29.7242L19.2584 29.0805C19.301 29.057 19.3466 29.029 19.3954 28.9965C19.4463 28.9629 19.4922 28.9278 19.5332 28.8913C19.6518 28.7841 19.7291 28.665 19.7651 28.534C19.8 28.4008 19.8043 28.2678 19.7782 28.135C19.7521 28.0021 19.7079 27.8793 19.6456 27.7664C19.5833 27.6536 19.5034 27.5518 19.4061 27.4611C19.3076 27.3682 19.1933 27.3021 19.0632 27.2628C18.932 27.2214 18.7894 27.2223 18.6355 27.2656C18.5816 27.2787 18.5269 27.2978 18.4713 27.3229C18.4178 27.3469 18.3698 27.3706 18.3272 27.3941L17.1615 28.0378L18.0926 29.7242Z" fill="#DD8A3E"/>
<path d="M22.0526 30.5169L21.0078 25.0924L21.9692 24.5615L26.0034 28.3353L25.3104 28.718L21.6165 25.2814L21.789 25.1862L22.7457 30.1342L22.0526 30.5169ZM22.2556 29.0503L21.9099 28.4243L24.3117 27.0981L24.6573 27.7241L22.2556 29.0503Z" fill="#DD8A3E"/>
<path d="M28.4242 27.1231C27.9642 27.3771 27.5172 27.4934 27.083 27.4719C26.6477 27.4483 26.2445 27.3043 25.8733 27.0396C25.5043 26.7739 25.1887 26.4036 24.9265 25.9287C24.6643 25.4539 24.519 24.9896 24.4907 24.5357C24.4644 24.0806 24.5579 23.6636 24.771 23.2848C24.983 22.9038 25.3189 22.5863 25.7788 22.3324C26.309 22.0396 26.8217 21.9316 27.3169 22.0082C27.8142 22.0837 28.2562 22.3106 28.6429 22.6888L28.0664 23.2448C27.7994 22.9726 27.5004 22.8085 27.1693 22.7524C26.8404 22.695 26.4939 22.7669 26.1298 22.968C25.804 23.1478 25.5731 23.3712 25.437 23.638C25.301 23.9049 25.2505 24.2009 25.2855 24.526C25.3227 24.85 25.4383 25.1877 25.6323 25.539C25.8242 25.8915 26.0473 26.1698 26.3017 26.3738C26.5582 26.5767 26.8356 26.6917 27.1339 26.7187C27.4343 26.7445 27.7474 26.6674 28.0732 26.4876C28.4373 26.2865 28.6827 26.0315 28.8094 25.7226C28.9371 25.4104 28.9575 25.0699 28.8705 24.7012L29.6482 24.5093C29.7623 25.0381 29.7189 25.533 29.5178 25.9941C29.3189 26.4541 28.9543 26.8304 28.4242 27.1231Z" fill="#DD8A3E"/>
<path d="M31.1177 25.5107L28.5781 20.9115L31.5165 19.2891L31.8639 19.9182L29.5931 21.1721L30.3055 22.4625L32.1931 21.4202L32.5405 22.0494L30.653 23.0916L31.4377 24.5129L33.7086 23.259L34.056 23.8882L31.1177 25.5107Z" fill="#DD8A3E"/>
<path d="M36.102 22.7585L33.5625 18.1593L34.1661 17.826L37.7432 20.3644L37.4909 15.9901L38.1009 15.6533L40.6387 20.2492L40.0063 20.5984L38.2692 17.4525L38.5229 21.4217L38.2195 21.5892L34.9923 19.2619L36.7312 22.411L36.102 22.7585Z" fill="#DD8A3E"/>
<path d="M41.2167 19.9348L40.1719 14.5103L41.1332 13.9795L45.1675 17.7533L44.4744 18.1359L40.7805 14.6993L40.953 14.6041L41.9098 19.5521L41.2167 19.9348ZM41.4196 18.4682L41.074 17.8422L43.4757 16.516L43.8214 17.142L41.4196 18.4682Z" fill="#DD8A3E"/>
<path d="M47.5494 16.5628C47.2406 16.7333 46.927 16.837 46.6085 16.874C46.2887 16.9089 45.976 16.8759 45.6704 16.7752C45.3647 16.6745 45.0769 16.5055 44.807 16.2683C44.5371 16.0312 44.2981 15.7241 44.09 15.3473C43.8161 14.8512 43.6714 14.3753 43.6561 13.9198C43.6396 13.4622 43.7391 13.0488 43.9548 12.6796C44.1694 12.3083 44.4864 12.0069 44.9058 11.7753C45.4466 11.4766 45.9472 11.3642 46.4074 11.4379C46.8698 11.5104 47.2818 11.7358 47.6435 12.114L47.0334 12.6093C46.788 12.3863 46.5158 12.2505 46.2166 12.2018C45.9174 12.153 45.6096 12.2146 45.2933 12.3865C44.9664 12.5642 44.7349 12.7865 44.5988 13.0534C44.4649 13.319 44.4171 13.6149 44.4555 13.941C44.4927 14.265 44.6072 14.6033 44.7991 14.9558C44.9909 15.3083 45.2141 15.5865 45.4684 15.7906C45.7216 15.9925 45.9974 16.107 46.2957 16.134C46.5961 16.1598 46.9098 16.0838 47.2368 15.9061C47.501 15.7657 47.6992 15.5938 47.8313 15.3903C47.9644 15.1834 48.0322 14.9515 48.0347 14.6945C48.0373 14.4374 47.9758 14.1574 47.8502 13.8545L46.9559 14.3483L46.6596 13.8117L48.2629 12.9264C48.2883 12.9624 48.3197 13.0117 48.3572 13.0744C48.3934 13.135 48.4162 13.1738 48.4256 13.1908C48.6607 13.6167 48.7886 14.042 48.8093 14.4668C48.8299 14.8917 48.7366 15.2863 48.5294 15.6507C48.3211 16.0131 47.9944 16.3171 47.5494 16.5628Z" fill="#DD8A3E"/>
<path d="M49.787 15.2024L48.7422 9.7779L49.7035 9.24707L53.7377 13.0209L53.0447 13.4036L49.3508 9.96693L49.5233 9.8717L50.48 14.8197L49.787 15.2024ZM49.9899 13.7359L49.6443 13.1099L52.046 11.7837L52.3917 12.4097L49.9899 13.7359Z" fill="#DD8A3E"/>
<path d="M54.1833 12.7745L54.1251 12.6691L54.3387 7.5084L52.1189 8.73407L51.7715 8.10489L55.1378 6.24609L55.1978 6.35468L54.9935 11.502L57.2866 10.2357L57.6358 10.8681L54.1833 12.7745Z" fill="#DD8A3E"/>
<path d="M58.5102 10.3857L55.9707 5.78656L56.6382 5.41797L59.1777 10.0171L58.5102 10.3857Z" fill="#DD8A3E"/>
<path d="M60.1372 9.48787L57.5977 4.88874L58.2748 4.51487L62.4262 6.68191L60.5392 3.26449L61.2163 2.89062L63.7558 7.48975L63.0787 7.86364L58.9255 5.69339L60.8143 9.11399L60.1372 9.48787Z" fill="#DD8A3E"/>
<path d="M64.647 6.997L62.1074 2.39787L65.0458 0.775391L65.3932 1.40458L63.1224 2.65847L63.8349 3.94878L65.7224 2.90652L66.0698 3.53571L64.1823 4.57797L64.9671 5.99923L67.2379 4.74534L67.5853 5.37453L64.647 6.997Z" fill="#DD8A3E"/>
</g>
</g>
<defs>
<clipPath id="clip0_12371_12027">
<rect width="69" height="110" fill="white"/>
</clipPath>
</defs>
</svg>
