<svg width="50" height="48" viewBox="0 0 50 48" fill="none" xmlns="http://www.w3.org/2000/svg">
<path d="M47.5 43.2496H2.5L7.32143 38.9639H43.2143L47.5 43.2496Z" stroke="#4D4D5C" stroke-width="2" stroke-linecap="round" stroke-linejoin="round"/>
<path d="M35.7146 33.6071H10.3064C8.95386 33.6071 7.85742 32.3599 7.85742 30.8214V8.53571C7.85742 6.99721 8.95386 5.75 10.3064 5.75H39.6942C41.0467 5.75 42.1432 6.99721 42.1432 8.53571V19.1429" stroke="#4D4D5C" stroke-width="2" stroke-linecap="round" stroke-linejoin="round"/>
<path d="M38.9277 25.0361L45.3562 31.4647" stroke="#93939E" stroke-width="2" stroke-linecap="round" stroke-linejoin="round"/>
<path d="M44.2848 25.0361H38.9277V30.3933" stroke="#93939E" stroke-width="2" stroke-linecap="round" stroke-linejoin="round"/>
<path d="M21.7852 19.7503L23.9281 21.8931L28.2138 17.6074" stroke="#F91F2B" stroke-width="2" stroke-linecap="round" stroke-linejoin="round"/>
<path d="M24.9992 28.2503C29.733 28.2503 33.5706 24.4127 33.5706 19.6789C33.5706 14.945 29.733 11.1074 24.9992 11.1074C20.2653 11.1074 16.4277 14.945 16.4277 19.6789C16.4277 24.4127 20.2653 28.2503 24.9992 28.2503Z" stroke="#F91F2B" stroke-width="2"/>
</svg>
