<svg width="60" height="48" fill="none" xmlns="http://www.w3.org/2000/svg"><rect x="1" y="1" width="58" height="46" rx="5" stroke="#6D6D7A" stroke-width="2"/><path fill="#6D6D7A" d="M2 8h56v2H2zm0 5h56v2H2z"/><path d="M47.43 29c-.841 0-1.67.19-2.427.552a5.633 5.633 0 0 0-5.389.287 5.53 5.53 0 0 0-1.917 1.997 5.445 5.445 0 0 0 0 5.328 5.53 5.53 0 0 0 1.917 1.997 5.633 5.633 0 0 0 5.389.286 5.628 5.628 0 0 0 4.836.01 5.557 5.557 0 0 0 1.941-1.524 5.47 5.47 0 0 0 1.08-2.205 5.432 5.432 0 0 0 .001-2.449 5.472 5.472 0 0 0-1.075-2.207 5.56 5.56 0 0 0-1.938-1.527A5.629 5.629 0 0 0 47.43 29Zm-8.243 5.5c0-.662.199-1.309.571-1.86a3.38 3.38 0 0 1 1.521-1.232 3.43 3.43 0 0 1 1.959-.19 3.403 3.403 0 0 1 1.735.916 3.307 3.307 0 0 1 .735 3.647 3.357 3.357 0 0 1-1.249 1.501 3.42 3.42 0 0 1-4.278-.417 3.329 3.329 0 0 1-.994-2.365Zm8.243 3.346c-.138 0-.276-.01-.413-.026a5.45 5.45 0 0 0 1.13-3.32 5.45 5.45 0 0 0-1.13-3.32 3.43 3.43 0 0 1 2.58.747c.356.292.648.653.857 1.06a3.312 3.312 0 0 1-.555 3.806c-.317.333-.7.598-1.124.779a3.427 3.427 0 0 1-1.345.274Z" fill="#F91F2B"/></svg>