<svg width="24" height="24" viewBox="0 0 24 24" fill="none" xmlns="http://www.w3.org/2000/svg">
<mask id="mask0_22455_207" style="mask-type:alpha" maskUnits="userSpaceOnUse" x="0" y="0" width="24" height="24">
<path d="M6 10C6 9.44772 6.44772 9 7 9H17C17.5523 9 18 9.44772 18 10C18 10.5523 17.5523 11 17 11H7C6.44771 11 6 10.5523 6 10Z" fill="#F91F2B"/>
<path d="M7 13C6.44772 13 6 13.4477 6 14C6 14.5523 6.44772 15 7 15H13C13.5523 15 14 14.5523 14 14C14 13.4477 13.5523 13 13 13H7Z" fill="#F91F2B"/>
<path fill-rule="evenodd" clip-rule="evenodd" d="M2 8C2 5.79086 3.79086 4 6 4H18C20.2091 4 22 5.79086 22 8V16C22 18.2091 20.2091 20 18 20H5.6302L3.66436 21.7474C3.37004 22.009 2.94958 22.0736 2.59034 21.9122C2.23111 21.7509 2 21.3938 2 21V8ZM6 6C4.89543 6 4 6.89543 4 8V18.7732L4.58564 18.2526C4.76869 18.0899 5.00509 18 5.25 18H18C19.1046 18 20 17.1046 20 16V8C20 6.89543 19.1046 6 18 6H6Z" fill="#F91F2B"/>
</mask>
<g mask="url(#mask0_22455_207)">
<rect width="24" height="24" fill="#F91F2B"/>
</g>
</svg>
