<svg width="32" height="32" viewBox="0 0 32 32" fill="none" xmlns="http://www.w3.org/2000/svg">
<mask id="mask0_22455_196" style="mask-type:alpha" maskUnits="userSpaceOnUse" x="4" y="4" width="24" height="24">
<path fill-rule="evenodd" clip-rule="evenodd" d="M9.63606 9.63603C9.24554 10.0266 9.24554 10.6597 9.63606 11.0502L14.5858 16L9.63606 20.9498C9.24554 21.3403 9.24554 21.9734 9.63606 22.364C10.0266 22.7545 10.6598 22.7545 11.0503 22.364L16 17.4142L20.9498 22.364C21.3403 22.7545 21.9735 22.7545 22.364 22.364C22.7545 21.9734 22.7545 21.3403 22.364 20.9497L17.4142 16L22.364 11.0503C22.7545 10.6597 22.7545 10.0266 22.364 9.63605C21.9735 9.24552 21.3403 9.24552 20.9498 9.63605L16 14.5858L11.0503 9.63603C10.6598 9.24551 10.0266 9.24551 9.63606 9.63603Z" fill="#93939E"/>
</mask>
<g mask="url(#mask0_22455_196)">
<rect x="4" y="4" width="24" height="24" fill="#93939E"/>
</g>
</svg>
