<svg width="24" height="24" fill="none" xmlns="http://www.w3.org/2000/svg"><mask id="a" style="mask-type:alpha" maskUnits="userSpaceOnUse" x="0" y="0" width="24" height="24"><path fill-rule="evenodd" clip-rule="evenodd" d="M11 4a1 1 0 1 1 2 0v8.586l3.243-3.243a1 1 0 1 1 1.414 1.414l-4.95 4.95a.998.998 0 0 1-1.414 0l-4.95-4.95a1 1 0 0 1 1.414-1.414L11 12.586V4ZM4 14a1 1 0 0 1 1 1v3a1 1 0 0 0 1 1h12a1 1 0 0 0 1-1v-3a1 1 0 1 1 2 0v3a3 3 0 0 1-3 3H6a3 3 0 0 1-3-3v-3a1 1 0 0 1 1-1Z" fill="#000"/></mask><g mask="url(#a)"><path fill="#F91F2B" d="M0 0h24v24H0z"/></g></svg>