<svg width="56" height="56" viewBox="0 0 56 56" fill="none" xmlns="http://www.w3.org/2000/svg">
<rect width="56" height="56" rx="14" fill="#F91F2B"/>
<path d="M15.3621 39.4358C15.3621 42.6461 17.0471 44.3602 20.2429 44.3602H35.7571C38.9384 44.3602 40.6379 42.6461 40.6379 39.4358V17.6027C40.6379 14.3923 38.9384 12.6927 35.7571 12.6927H20.2429C17.0471 12.6927 15.3621 14.3923 15.3621 17.6027V39.4358ZM21.5648 21.1035C20.7804 21.1035 20.1412 20.4644 20.1412 19.6799C20.1412 18.91 20.7804 18.2563 21.5648 18.2563C22.3347 18.2563 22.9884 18.91 22.9884 19.6799C22.9884 20.4644 22.3347 21.1035 21.5648 21.1035ZM25.8501 20.7258C25.2836 20.7258 24.8187 20.261 24.8187 19.6799C24.8187 19.1279 25.2836 18.6486 25.8501 18.6486H34.8419C35.4084 18.6486 35.8588 19.1279 35.8588 19.6799C35.8588 20.261 35.3939 20.7258 34.8419 20.7258H25.8501ZM21.5648 25.5341C20.7659 25.5341 20.1412 24.8949 20.1412 24.125C20.1412 23.3406 20.7659 22.7159 21.5648 22.7159C22.3492 22.7159 22.9884 23.3406 22.9884 24.125C22.9884 24.8949 22.3347 25.5341 21.5648 25.5341ZM25.8501 25.1418C25.269 25.1418 24.8187 24.6915 24.8187 24.125C24.8187 23.5439 25.269 23.1082 25.8501 23.1082H34.8419C35.4084 23.1082 35.8588 23.5439 35.8588 24.125C35.8588 24.6915 35.4084 25.1418 34.8419 25.1418H25.8501ZM21.5648 30.197C20.7804 30.197 20.1412 29.5433 20.1412 28.7734C20.1412 28.0035 20.7804 27.3644 21.5648 27.3644C22.3347 27.3644 22.9884 27.989 22.9884 28.7734C22.9884 29.5579 22.3347 30.197 21.5648 30.197ZM25.8501 29.8048C25.2836 29.8048 24.8187 29.34 24.8187 28.7734C24.8187 28.2069 25.269 27.7566 25.8501 27.7566H34.8419C35.4084 27.7566 35.8588 28.2069 35.8588 28.7734C35.8588 29.34 35.3939 29.8048 34.8419 29.8048H25.8501Z" fill="white"/>
</svg>
