<svg width="32" height="32" viewBox="0 0 32 32" fill="none" xmlns="http://www.w3.org/2000/svg">
<rect width="32" height="32" rx="8.72727" fill="#00000D"/>
<path d="M15.9996 25.0449C11.2516 25.0449 7.34193 21.127 7.34193 16.3872C7.34193 11.6392 11.2516 7.72119 15.9913 7.72119C20.7394 7.72119 24.6574 11.6392 24.6574 16.3872C24.6574 21.127 20.7477 25.0449 15.9996 25.0449ZM15.9996 23.1357C16.7467 23.1357 17.4606 23.0195 18.1329 22.7954V13.6729C18.1329 13.0503 17.7843 12.6602 17.1867 12.6602H11.9406C11.3429 12.6602 10.986 13.0503 10.986 13.6729V20.9194C12.2228 22.2808 13.9992 23.1357 15.9996 23.1357ZM12.9201 15.3662C12.8121 15.3662 12.7374 15.2832 12.7374 15.1753V14.2954C12.7374 14.1792 12.8121 14.1045 12.9201 14.1045H13.8165C13.9327 14.1045 14.0158 14.1792 14.0158 14.2954V15.1753C14.0158 15.2832 13.9327 15.3662 13.8165 15.3662H12.9201ZM15.3356 15.3662C15.2277 15.3662 15.1447 15.2832 15.1447 15.1753V14.2954C15.1447 14.1792 15.2277 14.1045 15.3356 14.1045H16.2404C16.34 14.1045 16.423 14.1792 16.423 14.2954V15.1753C16.423 15.2832 16.34 15.3662 16.2404 15.3662H15.3356ZM18.7804 22.5464C19.9259 22.04 21.0631 21.0854 21.7521 19.9233V15.7231C21.7521 15.1006 21.4035 14.7188 20.8058 14.7188H18.7804V22.5464ZM19.9259 17.0762C19.8346 17.0762 19.7599 17.0098 19.7599 16.9185V16.2378C19.7599 16.1548 19.8346 16.0801 19.9259 16.0801H20.6232C20.7145 16.0801 20.7809 16.1465 20.7809 16.2378V16.9185C20.7809 17.0098 20.7145 17.0762 20.6232 17.0762H19.9259ZM12.9201 17.4248C12.8121 17.4248 12.7374 17.3418 12.7374 17.2339V16.354C12.7374 16.2461 12.8121 16.1548 12.9201 16.1548H13.8165C13.9327 16.1548 14.0158 16.2461 14.0158 16.354V17.2339C14.0158 17.3418 13.9327 17.4248 13.8165 17.4248H12.9201ZM15.3356 17.4248C15.2277 17.4248 15.1447 17.3418 15.1447 17.2339V16.354C15.1447 16.2461 15.2277 16.1548 15.3356 16.1548H16.2404C16.34 16.1548 16.423 16.2461 16.423 16.354V17.2339C16.423 17.3418 16.34 17.4248 16.2404 17.4248H15.3356ZM19.9259 18.8359C19.8346 18.8359 19.7599 18.7695 19.7599 18.6782V18.0059C19.7599 17.9146 19.8346 17.8481 19.9259 17.8481H20.6232C20.7145 17.8481 20.7809 17.9062 20.7809 18.0059V18.6782C20.7809 18.7695 20.7145 18.8359 20.6232 18.8359H19.9259ZM12.9201 19.5C12.8121 19.5 12.7374 19.417 12.7374 19.3091V18.4292C12.7374 18.3213 12.8121 18.23 12.9201 18.23H13.8165C13.9327 18.23 14.0158 18.3213 14.0158 18.4292V19.3091C14.0158 19.417 13.9327 19.5 13.8165 19.5H12.9201ZM15.3356 19.5C15.2277 19.5 15.1447 19.417 15.1447 19.3091V18.4292C15.1447 18.3213 15.2277 18.23 15.3356 18.23H16.2404C16.34 18.23 16.423 18.3213 16.423 18.4292V19.3091C16.423 19.417 16.34 19.5 16.2404 19.5H15.3356ZM19.9259 20.604C19.8346 20.604 19.7599 20.5376 19.7599 20.4463V19.7656C19.7599 19.6826 19.8346 19.6079 19.9259 19.6079H20.6232C20.7145 19.6079 20.7809 19.6826 20.7809 19.7656V20.4463C20.7809 20.5376 20.7145 20.604 20.6232 20.604H19.9259ZM12.9201 21.5669C12.8121 21.5669 12.7374 21.4839 12.7374 21.3677V20.4961C12.7374 20.3882 12.8121 20.3052 12.9201 20.3052H13.8165C13.9327 20.3052 14.0158 20.3882 14.0158 20.4961V21.3677C14.0158 21.4839 13.9327 21.5669 13.8165 21.5669H12.9201ZM15.3356 21.5669C15.2277 21.5669 15.1447 21.4839 15.1447 21.3677V20.4961C15.1447 20.3882 15.2277 20.3052 15.3356 20.3052H16.2404C16.34 20.3052 16.423 20.3882 16.423 20.4961V21.3677C16.423 21.4839 16.34 21.5669 16.2404 21.5669H15.3356Z" fill="white"/>
</svg>
