<svg width="24" height="24" viewBox="0 0 24 24" fill="none" xmlns="http://www.w3.org/2000/svg">
<mask id="mask0_6481_868" style="mask-type:alpha" maskUnits="userSpaceOnUse" x="0" y="0" width="24" height="24">
<path fill-rule="evenodd" clip-rule="evenodd" d="M9 4C8.44772 4 8 4.44772 8 5V10C7.29873 10 6.62556 10.1203 6 10.3414V5C6 3.34315 7.34315 2 9 2H14H15.1716C15.9672 2 16.7303 2.31607 17.2929 2.87868L21.1213 6.70711C21.6839 7.26972 22 8.03278 22 8.82843V10V19C22 20.6569 20.6569 22 19 22H9C8.85966 22 8.72156 21.9904 8.58635 21.9717C10.1263 21.8224 11.4959 21.0908 12.4722 20H19C19.5523 20 20 19.5523 20 19V10H17C15.3431 10 14 8.65685 14 7V4H9ZM19.5858 8L16 4.41421V7C16 7.55228 16.4477 8 17 8H19.5858Z" fill="black"/>
<path fill-rule="evenodd" clip-rule="evenodd" d="M8 12C10.2091 12 12 13.7909 12 16C12 18.2091 10.2091 20 8 20C5.79086 20 4 18.2091 4 16C4 13.7909 5.79086 12 8 12ZM14 16C14 12.6863 11.3137 10 8 10C4.68629 10 2 12.6863 2 16C2 19.3137 4.68629 22 8 22C11.3137 22 14 19.3137 14 16Z" fill="black"/>
<path fill-rule="evenodd" clip-rule="evenodd" d="M8 13.5C7.44772 13.5 7 13.9477 7 14.5V15.4648L5.9453 16.1679C5.48577 16.4743 5.3616 17.0952 5.66795 17.5547C5.9743 18.0142 6.59517 18.1384 7.0547 17.8321L8.5547 16.8321C8.8329 16.6466 9 16.3344 9 16V14.5C9 13.9477 8.55228 13.5 8 13.5Z" fill="black"/>
</mask>
<g mask="url(#mask0_6481_868)">
<rect width="24" height="24" fill="#F91F2B"/>
</g>
</svg>
