<svg width="56" height="56" fill="none" xmlns="http://www.w3.org/2000/svg"><rect width="56" height="56" rx="12" fill="#66BB6A"/><path d="M28 44.016c8.938 0 16.297-7.36 16.297-16.297 0-8.922-7.375-16.297-16.313-16.297-8.922 0-16.28 7.375-16.28 16.297 0 8.937 7.358 16.297 16.296 16.297Zm-1.734-8.532c-.641 0-1.141-.28-1.61-.859l-3.765-4.531c-.313-.39-.453-.766-.453-1.188A1.56 1.56 0 0 1 22 27.328c.516 0 .922.203 1.328.703l2.89 3.625 6.298-10.062c.375-.578.843-.89 1.39-.89.844 0 1.625.608 1.625 1.483 0 .375-.187.797-.422 1.157l-7.297 11.265c-.375.563-.921.875-1.546.875Z" fill="#fff"/></svg>