<svg width="52" height="65" fill="none" xmlns="http://www.w3.org/2000/svg"><path d="M47.167 64.63H4.833C2.126 64.63 0 62.503 0 59.797V5.087C0 2.38 2.126.254 4.833.254h30.735c.58 0 .967.387.967.967s-.387.966-.967.966H4.833c-1.547 0-2.9 1.353-2.9 2.9v54.71c0 1.546 1.353 2.9 2.9 2.9h42.334c1.546 0 2.9-1.354 2.9-2.9V17.073c0-.58.386-.967.966-.967s.966.387.966.967v42.724c0 2.706-2.32 4.833-4.832 4.833z" fill="#6D6D7A"/><path d="M51.033 18.04H35.568c-.58 0-.966-.387-.966-.967V1.607c0-.58.386-.966.966-.966s.967.386.967.966v14.5h14.498c.58 0 .966.386.966.966s-.58.967-.966.967z" fill="#6D6D7A"/><path d="M51.032 18.04c-.194 0-.58-.194-.774-.388L34.794 1.8a.935.935 0 0 1 0-1.354.934.934 0 0 1 1.353 0L51.612 16.3a.935.935 0 0 1 0 1.353c-.194.387-.387.387-.58.387z" fill="#6D6D7A"/><path d="M25.905 19.2c-7.346 0-13.339 5.992-13.339 13.338 0 7.347 5.993 13.34 13.339 13.34 7.345 0 13.338-5.993 13.338-13.34 0-7.346-5.993-13.339-13.338-13.339zm0 24.55c-6.186 0-11.406-5.025-11.406-11.405 0-6.38 5.026-11.406 11.406-11.406 6.379 0 11.405 5.026 11.405 11.406 0 6.38-5.026 11.406-11.405 11.406z" fill="#F91F2B"/><path d="m29.078 26.215-7.613 11.422 1.608 1.072 7.613-11.421-1.608-1.073zm1.657 6.129c-1.546 0-2.9 1.353-2.9 2.9s1.354 2.9 2.9 2.9c1.547 0 2.9-1.353 2.9-2.9s-1.353-2.9-2.9-2.9zm0 3.867c-.58 0-.966-.387-.966-.967s.387-.967.966-.967c.58 0 .967.387.967.967s-.58.967-.967.967zm-9.472-9.473c-1.547 0-2.9 1.354-2.9 2.9 0 1.547 1.353 2.9 2.9 2.9 1.546 0 2.9-1.353 2.9-2.9 0-1.546-1.354-2.9-2.9-2.9zm0 3.867c-.58 0-.967-.387-.967-.967s.387-.966.967-.966.966.386.966.966c0 .387-.386.967-.966.967z" fill="#F91F2B"/></svg>