<svg width="56" height="56" viewBox="0 0 56 56" fill="none" xmlns="http://www.w3.org/2000/svg">
<rect width="56" height="56" rx="12" fill="#F57F17"/>
<path d="M28 44.0312C19.0625 44.0312 11.7031 36.6562 11.7031 27.7344C11.7031 18.7969 19.0625 11.4375 27.9844 11.4375C36.9219 11.4375 44.2969 18.7969 44.2969 27.7344C44.2969 36.6562 36.9375 44.0312 28 44.0312ZM28.0312 18.9531C26.125 18.9531 24.3125 19.5625 23.0312 20.5781C22.1719 21.2188 22 22.1094 22.5156 22.7656C23.0469 23.4219 23.8594 23.5156 24.6406 22.9688C25.6875 22.2188 26.7031 21.8125 28.0312 21.8125C30.8438 21.8125 33.1719 23.6406 33.8906 26.125H32.4062C31.5781 26.125 31.3438 26.9531 31.8281 27.5938L34.4062 31.0938C34.875 31.7188 35.6875 31.75 36.1875 31.0938L38.7188 27.5938C39.2031 26.9375 38.9844 26.125 38.1562 26.125H36.7344C35.9531 21.8906 32.4531 18.9531 28.0312 18.9531ZM28.0469 36.4688C29.9688 36.4688 31.7656 35.8594 33.0625 34.8438C33.9219 34.2031 34.0938 33.2969 33.5625 32.6562C33.0312 31.9844 32.2344 31.9062 31.4375 32.4375C30.4062 33.2031 29.375 33.6094 28.0469 33.6094C25.2344 33.6094 22.9062 31.7656 22.1875 29.2812H23.6094C24.4375 29.2812 24.6719 28.4688 24.1875 27.8281L21.6094 24.3281C21.1406 23.6875 20.3281 23.6562 19.8438 24.3281L17.2969 27.8281C16.8125 28.4688 17.0469 29.2812 17.8594 29.2812H19.3438C20.1406 33.5156 23.6406 36.4688 28.0469 36.4688Z" fill="white"/>
</svg>
