<svg width="73" height="72" fill="none" xmlns="http://www.w3.org/2000/svg"><g clip-path="url(#a)"><path d="M36.5 59.984c13.078 0 23.906-10.851 23.906-23.906 0-13.078-10.851-23.906-23.93-23.906-13.054 0-23.882 10.828-23.882 23.906 0 13.055 10.851 23.906 23.906 23.906Zm0-3.984c-11.063 0-19.898-8.86-19.898-19.922 0-11.062 8.812-19.922 19.875-19.922 11.062 0 19.921 8.86 19.945 19.922C56.445 47.141 47.562 56 36.5 56Zm-.023-15.703c1.101 0 1.757-.633 1.78-1.852l.352-12.375c.024-1.195-.914-2.086-2.156-2.086-1.266 0-2.156.868-2.133 2.063l.305 12.398c.023 1.196.68 1.852 1.852 1.852Zm0 7.617c1.336 0 2.507-1.078 2.507-2.437 0-1.36-1.148-2.438-2.507-2.438-1.383 0-2.532 1.102-2.532 2.438s1.172 2.437 2.532 2.437Z" fill="#FF951F"/><rect opacity=".24" x=".5" y="49" width="3" height="3" rx="1.5" fill="#10101F" fill-opacity=".24"/><rect opacity=".24" x="5.5" y="49" width="12" height="3" rx="1.5" fill="#10101F" fill-opacity=".24"/><rect opacity=".24" x="17.5" y="2" width="3" height="3" rx="1.5" fill="#10101F" fill-opacity=".24"/><rect opacity=".24" x="22.5" y="2" width="12" height="3" rx="1.5" fill="#10101F" fill-opacity=".24"/><rect opacity=".24" x="11.5" y="44" width="6" height="3" rx="1.5" fill="#10101F" fill-opacity=".24"/><rect opacity=".24" x="60.5" y="24" width="12" height="3" rx="1.5" fill="#10101F" fill-opacity=".24"/><rect opacity=".24" x="60.5" y="19" width="6" height="3" rx="1.5" fill="#10101F" fill-opacity=".24"/></g><defs><clipPath id="a"><path fill="#fff" transform="translate(.5)" d="M0 0h72v72H0z"/></clipPath></defs></svg>