<svg width="60" height="62" fill="none" xmlns="http://www.w3.org/2000/svg"><path d="M55.45 16.71H3.95C1.77 16.71 0 15.02 0 12.95V3.77C0 1.69 1.77 0 3.95 0h22.8c.55 0 1 .45 1 1s-.45 1-1 1H3.95C2.87 2 2 2.79 2 3.77v9.18c0 .98.87 1.77 1.95 1.77h51.51c1.07 0 1.95-.79 1.95-1.77V3.77C57.4 2.79 56.53 2 55.45 2H32.74c-.55 0-1-.45-1-1s.45-1 1-1h22.71c2.18 0 3.95 1.69 3.95 3.77v9.18c0 2.07-1.77 3.76-3.95 3.76z" fill="#6D6D7A"/><path d="M41.29 9.47H8.11a1.114 1.114 0 1 1 .01-2.23H41.3c.62 0 1.12.5 1.12 1.12-.02.61-.52 1.11-1.13 1.11z" fill="#F91F2B"/><path d="M55.45 38.96H3.95C1.77 38.96 0 37.27 0 35.19v-9.18c0-2.08 1.77-3.77 3.95-3.77h22.8c.55 0 1 .45 1 1s-.45 1-1 1H3.95c-1.08 0-1.95.79-1.95 1.77v9.18c0 .98.87 1.77 1.95 1.77h51.51c1.07 0 1.95-.79 1.95-1.77v-9.18c0-.97-.87-1.77-1.95-1.77H32.74c-.55 0-1-.45-1-1s.45-1 1-1h22.71c2.18 0 3.95 1.69 3.95 3.77v9.18c0 2.08-1.77 3.77-3.95 3.77z" fill="#6D6D7A"/><path d="M51.29 31.71H18.11a1.114 1.114 0 1 1 .01-2.23H51.3c.62 0 1.12.5 1.12 1.12-.02.61-.52 1.11-1.13 1.11z" fill="#F91F2B"/><path d="M3.95 44.88h51.51c2.18 0 3.95 1.69 3.95 3.77v9.18c0 2.08-1.77 3.77-3.95 3.77h-22.8c-.55 0-1-.45-1-1s.45-1 1-1h22.8c1.07 0 1.95-.79 1.95-1.77v-9.18c0-.98-.87-1.77-1.95-1.77H3.95c-1.08 0-1.95.8-1.95 1.77v9.18c0 .97.87 1.77 1.95 1.77h22.71c.55 0 1 .45 1 1s-.45 1-1 1H3.95C1.77 61.6 0 59.91 0 57.83v-9.18c0-2.08 1.77-3.77 3.95-3.77z" fill="#6D6D7A"/><path d="M8.11 52.12h43.18c.62 0 1.12.5 1.12 1.12 0 .62-.5 1.12-1.12 1.12H8.11c-.61 0-1.11-.5-1.11-1.12 0-.62.5-1.12 1.11-1.12z" fill="#F91F2B"/></svg>