<svg width="54" height="54" viewBox="0 0 54 54" fill="none" xmlns="http://www.w3.org/2000/svg">
<path fill-rule="evenodd" clip-rule="evenodd" d="M27 53.6666C12.2724 53.6666 0.333289 41.7276 0.33329 27C0.333291 12.2724 12.2724 0.333311 27 0.333312C41.7276 0.333312 53.6666 12.2724 53.6666 27C53.6666 41.7276 41.7276 53.6666 27 53.6666ZM27 48.3333C15.2179 48.3333 5.66662 38.7821 5.66662 27C5.66662 15.2179 15.2179 5.66664 27 5.66665C38.782 5.66665 48.3333 15.2179 48.3333 27C48.3333 38.7821 38.782 48.3333 27 48.3333ZM27 13.6666C28.4727 13.6666 29.6666 14.8606 29.6666 16.3333L29.6666 27C29.6666 28.4727 28.4727 29.6666 27 29.6666C25.5272 29.6666 24.3333 28.4727 24.3333 27L24.3333 16.3333C24.3333 14.8606 25.5272 13.6666 27 13.6666ZM27 35C28.4727 35 29.6666 36.1939 29.6666 37.6666C29.6666 39.1394 28.4727 40.3333 27 40.3333C25.5272 40.3333 24.3333 39.1394 24.3333 37.6666C24.3333 36.1939 25.5272 35 27 35Z" fill="#F57F17"/>
</svg>
