<svg width="25" height="24" viewBox="0 0 25 24" fill="none" xmlns="http://www.w3.org/2000/svg">
<path fill-rule="evenodd" clip-rule="evenodd" d="M7.14746 4C7.14746 2.34315 8.49061 1 10.1475 1H14.1475C15.8043 1 17.1475 2.34315 17.1475 4V5H21.1475C21.6997 5 22.1475 5.44772 22.1475 6C22.1475 6.55228 21.6997 7 21.1475 7H20.1475V20C20.1475 21.6569 18.8043 23 17.1475 23H7.14746C5.49061 23 4.14746 21.6569 4.14746 20V7H3.14746C2.59518 7 2.14746 6.55228 2.14746 6C2.14746 5.44772 2.59518 5 3.14746 5H7.14746V4ZM15.1475 4V5H9.14746V4C9.14746 3.44772 9.59518 3 10.1475 3H14.1475C14.6997 3 15.1475 3.44772 15.1475 4ZM6.14746 7H18.1475V20C18.1475 20.5523 17.6997 21 17.1475 21H7.14746C6.59518 21 6.14746 20.5523 6.14746 20V7ZM9.14746 11C9.14746 10.4477 9.59518 10 10.1475 10C10.6997 10 11.1475 10.4477 11.1475 11V17C11.1475 17.5523 10.6997 18 10.1475 18C9.59518 18 9.14746 17.5523 9.14746 17V11ZM13.1475 11C13.1475 10.4477 13.5952 10 14.1475 10C14.6997 10 15.1475 10.4477 15.1475 11V17C15.1475 17.5523 14.6997 18 14.1475 18C13.5952 18 13.1475 17.5523 13.1475 17V11Z" fill="#f57f17"/>
</svg>
