<svg width="24" height="24" viewBox="0 0 24 24" fill="none" xmlns="http://www.w3.org/2000/svg">
<path fill-rule="evenodd" clip-rule="evenodd" d="M8.82843 7H5C4.44772 7 4 7.44772 4 8V18C4 18.5523 4.44772 19 5 19H19C19.5523 19 20 18.5523 20 18V8C20 7.44772 19.5523 7 19 7H15.1716L14 5.82843L15.4142 4.41421L16 5H19C20.6569 5 22 6.34315 22 8V18C22 19.6569 20.6569 21 19 21H5C3.34315 21 2 19.6569 2 18V8C2 6.34315 3.34315 5 5 5H8L8.58579 4.41421C9.49129 3.50871 10.7194 3 12 3C13.2806 3 14.5087 3.50871 15.4142 4.41421L14 5.82843C13.4696 5.29799 12.7501 5 12 5C11.2499 5 10.5304 5.29799 10 5.82843L8.82843 7Z" fill="#F91F2B"/>
<path fill-rule="evenodd" clip-rule="evenodd" d="M12 16C13.6569 16 15 14.6569 15 13C15 11.3431 13.6569 10 12 10C10.3431 10 9 11.3431 9 13C9 14.6569 10.3431 16 12 16ZM12 18C14.7614 18 17 15.7614 17 13C17 10.2386 14.7614 8 12 8C9.23858 8 7 10.2386 7 13C7 15.7614 9.23858 18 12 18Z" fill="#F91F2B"/>
</svg>
