<svg width="24" height="24" viewBox="0 0 24 24" fill="none" xmlns="http://www.w3.org/2000/svg">
  <path fill-rule="evenodd" clip-rule="evenodd" d="M5.00036 4C4.41408 4 4.05717 4.45459 4.10519 4.88502C4.28207 6.47036 4.68157 8.02609 5.29441 9.50562C6.14874 11.5682 7.40095 13.4422 8.97954 15.0208C10.5581 16.5994 12.4322 17.8516 14.4947 18.706L14.1121 19.6298L14.4947 18.706C15.9743 19.3188 17.53 19.7183 19.1153 19.8952C19.5458 19.9432 20.0004 19.5863 20.0004 19V16.52C20.0004 16.0019 19.5539 15.4574 18.8376 15.3318C17.9383 15.1741 17.0567 14.9181 16.2092 14.567C15.9269 14.4501 15.6853 14.572 15.6031 14.7143C15.6031 14.7143 15.6031 14.7143 15.6031 14.7143L15.5716 14.769L15.5716 14.769C14.92 15.8975 13.4019 16.3731 12.2348 15.5441C10.7724 14.5053 9.49501 13.2279 8.45625 11.7656C7.62726 10.5985 8.10284 9.08036 9.23137 8.4288L9.28607 8.39722C9.42832 8.31509 9.55031 8.07347 9.43339 7.7912C9.08231 6.94361 8.8263 6.06207 8.66857 5.16272C8.54296 4.44647 7.99851 4 7.48036 4H5.00036ZM2.11752 5.10679C1.92059 3.34169 3.37751 2 5.00036 2H7.48036C9.17135 2 10.3825 3.35756 10.6385 4.81724C10.771 5.57292 10.9861 6.31364 11.2811 7.02583C11.7269 8.10189 11.4171 9.47628 10.2861 10.1293L10.2314 10.1608C10.1302 10.2193 10.0704 10.3082 10.0489 10.3933C10.0288 10.4729 10.0417 10.544 10.0868 10.6074C10.9957 11.8869 12.1134 13.0047 13.393 13.9136C13.4564 13.9586 13.5274 13.9715 13.6071 13.9514C13.6921 13.93 13.7811 13.8702 13.8395 13.769C13.8395 13.769 13.8395 13.769 13.8395 13.769L13.8711 13.7143L13.8711 13.7143C14.5241 12.5833 15.8985 12.2735 16.9745 12.7192C17.6867 13.0142 18.4274 13.2293 19.1831 13.3619C20.6428 13.6179 22.0004 14.829 22.0004 16.52V19C22.0004 20.6229 20.6587 22.0798 18.8936 21.8828C17.1217 21.6851 15.383 21.2387 13.7294 20.5537C11.4242 19.5989 9.32964 18.1993 7.56533 16.435C5.80102 14.6707 4.40149 12.5762 3.44665 10.271C2.76171 8.61739 2.31521 6.87863 2.11752 5.10679Z" fill="currentColor"/>
</svg>
