<svg width="63" height="69" fill="none" xmlns="http://www.w3.org/2000/svg"><path d="M30.038 9.422c-.275 0-.54.106-.734.295a.992.992 0 0 0-.304.712c0 .267.11.524.304.713.195.188.459.295.734.295h1.924c.275 0 .54-.107.734-.295a.992.992 0 0 0 .304-.713.992.992 0 0 0-.304-.712 1.055 1.055 0 0 0-.734-.295h-1.924zM20 58.783c-.593 0-1.173.177-1.667.51a3.017 3.017 0 0 0-1.105 1.356 3.043 3.043 0 0 0 .65 3.293 2.98 2.98 0 0 0 3.27.655 3.005 3.005 0 0 0 1.346-1.113 3.038 3.038 0 0 0-.374-3.815 2.993 2.993 0 0 0-2.12-.886zm0 4.318a1.28 1.28 0 0 1-1.188-.8 1.303 1.303 0 0 1 .279-1.412 1.283 1.283 0 0 1 1.401-.28 1.302 1.302 0 0 1 .417 2.112 1.28 1.28 0 0 1-.909.38zm-1.96-31.517h-7.08a.992.992 0 0 0-.679.264.873.873 0 0 0-.281.636.87.87 0 0 0 .281.636c.18.17.424.264.678.264h7.082a.992.992 0 0 0 .678-.264.873.873 0 0 0 .281-.636.873.873 0 0 0-.281-.636.992.992 0 0 0-.678-.264zm-12.228 1.8h1.376a.773.773 0 0 0 .574-.264.952.952 0 0 0 .238-.636.952.952 0 0 0-.238-.636.773.773 0 0 0-.574-.264H5.812a.773.773 0 0 0-.574.264.952.952 0 0 0-.238.636.95.95 0 0 0 .238.636.773.773 0 0 0 .574.264zM5.96 39.8h7.08a.992.992 0 0 0 .679-.263.873.873 0 0 0 .281-.636.873.873 0 0 0-.281-.637.992.992 0 0 0-.678-.263H5.959a.992.992 0 0 0-.678.263.873.873 0 0 0-.281.637c0 .238.101.467.281.636.18.169.424.264.678.264z" fill="#6D6D7A"/><path d="M18.188 38h-1.376a.774.774 0 0 0-.574.264.952.952 0 0 0-.238.637.95.95 0 0 0 .238.636.774.774 0 0 0 .574.264h1.376a.774.774 0 0 0 .574-.264.952.952 0 0 0 .238-.636.952.952 0 0 0-.238-.637.774.774 0 0 0-.574-.263z" fill="#4D4D5C"/><path d="M18.188 38h-1.376a.774.774 0 0 0-.574.264.952.952 0 0 0-.238.637.95.95 0 0 0 .238.636.774.774 0 0 0 .574.264h1.376a.774.774 0 0 0 .574-.264.952.952 0 0 0 .238-.636.952.952 0 0 0-.238-.637.774.774 0 0 0-.574-.263zM5.96 26.8h7.08a.992.992 0 0 0 .679-.263.873.873 0 0 0 .281-.636.873.873 0 0 0-.281-.637.992.992 0 0 0-.678-.263H5.959a.992.992 0 0 0-.678.263.873.873 0 0 0-.281.637c0 .239.101.467.281.636.18.169.424.264.678.264zM18.188 25h-1.376a.774.774 0 0 0-.574.264.952.952 0 0 0-.238.637c0 .239.085.467.238.636a.774.774 0 0 0 .574.264h1.376a.774.774 0 0 0 .574-.264.952.952 0 0 0 .238-.636.952.952 0 0 0-.238-.637.774.774 0 0 0-.574-.263z" fill="#6D6D7A"/><path d="M39 61.728V48.4h-1.857v7.44H1.857V11.513h25.226a.928.928 0 0 0 .929-.93.93.93 0 0 0-.929-.93H1.857v-2.17A5.28 5.28 0 0 1 3.4 3.76a5.264 5.264 0 0 1 3.719-1.545h24.762A5.264 5.264 0 0 1 35.6 3.76a5.28 5.28 0 0 1 1.543 3.725v2.17h-2.167a.928.928 0 0 0-.928.93.93.93 0 0 0 .928.93h2.167v9.608H39V7.485a7.143 7.143 0 0 0-2.087-5.039A7.122 7.122 0 0 0 31.88.356H7.119a7.122 7.122 0 0 0-5.031 2.09A7.143 7.143 0 0 0 0 7.485v54.243a7.143 7.143 0 0 0 2.088 5.04 7.122 7.122 0 0 0 5.031 2.09h24.762a7.122 7.122 0 0 0 5.032-2.09A7.143 7.143 0 0 0 39 61.727zm-37.143 0v-4.03h35.286v4.03a5.28 5.28 0 0 1-1.543 3.725 5.264 5.264 0 0 1-3.719 1.545H7.119A5.264 5.264 0 0 1 3.4 65.453a5.28 5.28 0 0 1-1.543-3.725zm52.269-26.115c-.736 0-1.462.156-2.123.455a5.19 5.19 0 0 0-2.39-.448 5.135 5.135 0 0 0-2.326.684c-.7.408-1.277.975-1.677 1.647-.4.672-.61 1.427-.61 2.196 0 .768.21 1.523.61 2.195a4.69 4.69 0 0 0 1.677 1.647c.7.407 1.5.643 2.325.684a5.188 5.188 0 0 0 2.39-.448c.66.297 1.383.451 2.115.453a5.181 5.181 0 0 0 2.117-.446 4.832 4.832 0 0 0 1.699-1.256c.457-.532.78-1.153.944-1.817a4.223 4.223 0 0 0 .002-2.019 4.407 4.407 0 0 0-.94-1.819 4.83 4.83 0 0 0-1.697-1.259 5.18 5.18 0 0 0-2.116-.449zm-7.212 4.533c0-.545.174-1.078.5-1.532a2.929 2.929 0 0 1 1.33-1.016 3.173 3.173 0 0 1 1.714-.157 3.04 3.04 0 0 1 1.518.755c.415.386.697.877.812 1.412a2.58 2.58 0 0 1-.169 1.594 2.811 2.811 0 0 1-1.092 1.238 3.126 3.126 0 0 1-1.648.465 3.084 3.084 0 0 1-2.096-.81 2.667 2.667 0 0 1-.87-1.949zm7.212 2.759c-.12 0-.241-.008-.361-.022.642-.788.989-1.749.989-2.737s-.347-1.949-.99-2.736a3.18 3.18 0 0 1 1.198.09c.389.106.75.285 1.06.526.312.24.567.538.75.874a2.58 2.58 0 0 1 .144 2.185 2.733 2.733 0 0 1-.63.951 2.976 2.976 0 0 1-.983.642c-.372.15-.772.226-1.177.226z" fill="#6D6D7A"/><path d="M58.985 19.496h-31.97a3.962 3.962 0 0 0-2.838 1.213A4.204 4.204 0 0 0 23 23.632v21.95a4.204 4.204 0 0 0 1.177 2.923 3.962 3.962 0 0 0 2.838 1.213h31.97a3.962 3.962 0 0 0 2.837-1.213A4.204 4.204 0 0 0 63 45.582v-21.95a4.204 4.204 0 0 0-1.178-2.923 3.962 3.962 0 0 0-2.837-1.213zM24.853 27.29h36.294v2.863H24.853V27.29zm2.162-5.885h31.97a2.13 2.13 0 0 1 1.528.653c.405.417.633.983.634 1.574v1.75H24.853v-1.75c0-.59.229-1.157.634-1.574a2.134 2.134 0 0 1 1.528-.653zm31.97 26.404h-31.97a2.133 2.133 0 0 1-1.528-.653 2.264 2.264 0 0 1-.634-1.574v-13.52h36.294v13.52c0 .59-.229 1.157-.634 1.574a2.133 2.133 0 0 1-1.528.653z" fill="#F91F2B"/></svg>