<svg width="48" height="48" fill="none" xmlns="http://www.w3.org/2000/svg"><path fill-rule="evenodd" clip-rule="evenodd" d="M38.637 29.272c5.163 0 9.364 4.202 9.364 9.365s-4.201 9.364-9.364 9.364c-5.163 0-9.364-4.201-9.364-9.364 0-5.163 4.2-9.365 9.364-9.365zm0 16.729c4.06 0 7.364-3.304 7.364-7.364 0-4.061-3.303-7.365-7.364-7.365s-7.364 3.304-7.364 7.365c0 4.06 3.303 7.364 7.364 7.364zM9.364 18.728C4.201 18.728 0 14.527 0 9.364 0 4.201 4.201 0 9.364 0c5.164 0 9.364 4.201 9.364 9.364 0 5.163-4.2 9.364-9.364 9.364zM9.364 2C5.303 2 2 5.303 2 9.364c0 4.06 3.303 7.364 7.364 7.364s7.364-3.304 7.364-7.364C16.728 5.303 13.425 2 9.364 2z" fill="#4D4D5C"/><path fill-rule="evenodd" clip-rule="evenodd" d="M45.89 15.746V3.414L1.706 47.597a.997.997 0 0 1-1.413 0 1 1 0 0 1 0-1.414L44.474 2h-12.33a1 1 0 1 1 0-2h14.745a1 1 0 0 1 1 1v14.746a1 1 0 1 1-2 0z" fill="#F91F2B"/></svg>