<svg width="24" height="24" viewBox="0 0 24 24" fill="none" xmlns="http://www.w3.org/2000/svg">
<path fill-rule="evenodd" clip-rule="evenodd" d="M13.0118 1H12.9875H12.9875C12.2273 0.999969 10.9891 0.999917 9.73341 1.28048C8.55539 1.54368 7.25626 2.07646 6.30476 3.18465C3.84864 4.04286 1.46102 7.42478 2.50873 12.1177C1.95478 12.8917 1.89758 13.9241 2.13269 14.7334C2.39116 15.623 3.06948 16.4916 4.15247 16.761C5.74187 20.6077 8.45939 23 11.9916 23L12.0001 23L12.0085 23C15.5408 23 18.2583 20.6077 19.8477 16.761C20.9307 16.4916 21.609 15.623 21.8675 14.7334C22.1033 13.9215 22.045 12.8851 21.4861 12.1102C21.8901 10.2134 22.0025 7.6494 21.0298 5.43435C20.4853 4.19442 19.6 3.06617 18.2555 2.25686C16.9178 1.45162 15.1891 1 13.0118 1ZM5.04991 11.1511C4.81073 11.1125 4.57695 11.0997 4.35122 11.1137C3.76618 7.42858 5.86673 5.34255 7.13685 5.02063C7.35926 4.96426 7.55553 4.83312 7.69272 4.6492C8.25871 3.89046 9.14379 3.46153 10.1695 3.23235C11.1956 3.00309 12.2396 3 13.0118 3C14.9148 3 16.2662 3.39379 17.2241 3.97037C18.1752 4.54286 18.8009 5.33282 19.1986 6.23848C19.8589 7.74217 19.8864 9.5659 19.6384 11.1131C19.4907 11.1045 19.3396 11.1073 19.1858 11.1213L18.4946 9.75398C18.2868 9.34283 17.825 9.12688 17.3762 9.23101C16.3656 9.46548 14.6722 9.658 12.9636 9.45566C11.2411 9.25168 9.66331 8.6676 8.67226 7.50509C8.31396 7.08481 7.68279 7.03455 7.26251 7.39285C6.84222 7.75115 6.79197 8.38232 7.15027 8.80261C8.60745 10.5119 10.77 11.2099 12.7284 11.4418C14.3173 11.6299 15.8775 11.5252 17.0512 11.3318L17.7467 12.7076C17.9707 13.1507 18.4861 13.3624 18.9569 13.2046C19.5115 13.0187 19.721 13.1479 19.7795 13.193C19.9224 13.3034 20.0915 13.6777 19.9469 14.1754C19.8219 14.6057 19.5422 14.8462 19.1323 14.8462C18.7143 14.8462 18.3404 15.1062 18.1949 15.498C16.8065 19.2367 14.5588 21 12.0085 21L12.0001 21L11.9916 21C9.4414 21 7.19368 19.2367 5.80526 15.498C5.65973 15.1062 5.28583 14.8462 4.86782 14.8462C4.45798 14.8462 4.1783 14.6057 4.05327 14.1754C3.90867 13.6777 4.07771 13.3034 4.22067 13.193C4.27915 13.1479 4.48868 13.0187 5.04323 13.2046C5.40385 13.3254 5.80182 13.2313 6.07002 12.9616L7.09012 11.936C7.47959 11.5444 7.47787 10.9112 7.08629 10.5218C6.69471 10.1323 6.06155 10.134 5.67208 10.5256L5.04991 11.1511ZM15.0001 13C14.4478 13 14.0001 13.4477 14.0001 14C14.0001 14.5523 14.4478 15 15.0001 15C15.5524 15 16.0001 14.5523 16.0001 14C16.0001 13.4477 15.5524 13 15.0001 13ZM8.00008 14C8.00008 13.4477 8.44779 13 9.00008 13C9.55236 13 10.0001 13.4477 10.0001 14C10.0001 14.5523 9.55236 15 9.00008 15C8.44779 15 8.00008 14.5523 8.00008 14ZM13.9324 18.4017C14.4304 18.1629 14.6406 17.5656 14.4018 17.0676C14.163 16.5697 13.5657 16.3595 13.0677 16.5983C12.5397 16.8515 12.2401 16.9214 11.9993 16.9215C11.7589 16.9216 11.46 16.8519 10.9334 16.5987C10.4356 16.3594 9.83811 16.569 9.59882 17.0667C9.35953 17.5645 9.56905 18.162 10.0668 18.4013C10.71 18.7105 11.3255 18.9216 11.9998 18.9215C12.6737 18.9213 13.2893 18.7101 13.9324 18.4017Z" fill="#4D4D5C"/>
</svg>
