<svg width="14" height="14" fill="none" xmlns="http://www.w3.org/2000/svg"><path d="M4.42.49c1.76-.7 3.81-.652 5.524.16C9.456.577 8.96.632 8.476.714a7.116 7.116 0 0 0-3.535 1.778c-.935.916-1.59 2.132-1.775 3.432-.122.922-.009 1.889.406 2.728a4.071 4.071 0 0 0 2.086 1.974c.874.369 1.888.365 2.773.036 1.328-.486 2.282-1.798 2.391-3.2.069-.919-.155-1.896-.774-2.601-.591-.69-1.456-1.07-2.32-1.286-.047-.85.355-1.69.992-2.244.354-.318.793-.521 1.248-.65l.034-.013a7.082 7.082 0 0 1 3.11 2.906 6.901 6.901 0 0 1 .886 3.537 6.922 6.922 0 0 1-1.625 4.382 6.994 6.994 0 0 1-3.792 2.329 7.047 7.047 0 0 1-4.45-.433A7.026 7.026 0 0 1 .902 10.45a6.919 6.919 0 0 1-.9-3.536 6.927 6.927 0 0 1 1.503-4.258A7.03 7.03 0 0 1 4.42.49Z" fill="#F91600"/></svg>