<svg width="52" height="65" fill="none" xmlns="http://www.w3.org/2000/svg"><path d="M26.001 48.156a.968.968 0 0 1-.968-.968l.002-21.843a.968.968 0 0 1 1.936 0l-.002 21.843a.968.968 0 0 1-.968.968z" fill="#F91F2B"/><path d="M34.348 34.664a.972.972 0 0 1-.686-.283L26 26.715l-7.664 7.666a.968.968 0 0 1-1.368-1.369l8.349-8.352a.968.968 0 0 1 1.368 0l8.349 8.352a.97.97 0 0 1-.685 1.652z" fill="#F91F2B"/><path d="M47.16 64.629H4.84A4.846 4.846 0 0 1 0 59.788V4.998A4.846 4.846 0 0 1 4.84.156h30.733a.968.968 0 0 1 0 1.937H4.84a2.908 2.908 0 0 0-2.903 2.905v54.79a2.908 2.908 0 0 0 2.903 2.904h42.322c1.6 0 2.903-1.303 2.903-2.904V17.012a.968.968 0 0 1 1.936 0V59.79a4.844 4.844 0 0 1-4.84 4.839z" fill="#6D6D7A"/><path d="M51.032 17.98H35.573a.968.968 0 0 1-.968-.969V1.544a.968.968 0 0 1 1.936 0v14.497h14.491a.968.968 0 0 1 0 1.939z" fill="#6D6D7A"/><path d="M51.03 17.98a.97.97 0 0 1-.692-.293L34.879 1.802a.97.97 0 0 1 .02-1.37.967.967 0 0 1 1.368.02l15.459 15.885a.97.97 0 0 1-.695 1.643z" fill="#6D6D7A"/></svg>