<svg width="24" height="24" viewBox="0 0 24 24" fill="none" xmlns="http://www.w3.org/2000/svg">
<mask id="mask0_1972_27753" style="mask-type:alpha" maskUnits="userSpaceOnUse" x="0" y="0" width="24" height="24">
<path fill-rule="evenodd" clip-rule="evenodd" d="M11.8088 16.9817C11.6197 16.9451 11.4391 16.8536 11.2927 16.7071L4.2216 9.63606C3.83108 9.24554 3.83108 8.61237 4.2216 8.22185C4.61213 7.83133 5.24529 7.83133 5.63582 8.22185L11.9998 14.5858L18.3638 8.22185C18.7543 7.83132 19.3875 7.83132 19.778 8.22185C20.1685 8.61237 20.1685 9.24554 19.778 9.63606L12.7069 16.7071C12.5837 16.8303 12.4364 16.9146 12.2802 16.9601C12.1268 17.0047 11.9649 17.0119 11.8088 16.9817Z" fill="black"/>
</mask>
<g mask="url(#mask0_1972_27753)">
<rect width="24" height="24" fill="#B6B6BF"/>
</g>
</svg>
