<svg width="81" height="80" viewBox="0 0 81 80" fill="none" xmlns="http://www.w3.org/2000/svg">
<path fill-rule="evenodd" clip-rule="evenodd" d="M73.8334 39.9998C73.8334 58.4093 58.9095 73.3332 40.5 73.3332C22.0905 73.3332 7.16669 58.4093 7.16669 39.9998C7.16669 21.5903 22.0905 6.6665 40.5 6.6665C58.9095 6.6665 73.8334 21.5903 73.8334 39.9998ZM41.6945 31.2747C38.4523 32.6232 31.9726 35.4143 22.2552 39.648C20.6773 40.2755 19.8507 40.8893 19.7755 41.4896C19.6483 42.504 20.9186 42.9035 22.6485 43.4474C22.8838 43.5214 23.1276 43.5981 23.3776 43.6793C25.0795 44.2326 27.3689 44.8798 28.5591 44.9055C29.6387 44.9288 30.8437 44.4837 32.174 43.5703C41.2532 37.4415 45.9399 34.3438 46.2342 34.277C46.4418 34.2299 46.7294 34.1706 46.9243 34.3439C47.1192 34.5171 47.1001 34.8452 47.0794 34.9332C46.9536 35.4697 41.9669 40.1057 39.3864 42.5048C38.5819 43.2527 38.0113 43.7833 37.8946 43.9044C37.6333 44.1758 37.367 44.4326 37.111 44.6793C35.5299 46.2036 34.3442 47.3466 37.1767 49.2132C38.5379 50.1102 39.6271 50.8519 40.7137 51.5919C41.9005 52.4001 43.0841 53.2062 44.6156 54.2101C45.0058 54.4658 45.3784 54.7315 45.7413 54.9902C47.1224 55.9748 48.3632 56.8594 49.8961 56.7183C50.7868 56.6363 51.7068 55.7988 52.1741 53.3009C53.2784 47.3975 55.449 34.6067 55.9506 29.3359C55.9945 28.8741 55.9393 28.2831 55.8949 28.0237C55.8505 27.7642 55.7577 27.3946 55.4205 27.121C55.0211 26.7969 54.4045 26.7285 54.1288 26.7334C52.8751 26.7555 50.9515 27.4243 41.6945 31.2747Z" fill="url(#paint0_linear_24566_235)"/>
<defs>
<linearGradient id="paint0_linear_24566_235" x1="3340.5" y1="6.6665" x2="3340.5" y2="6623.89" gradientUnits="userSpaceOnUse">
<stop stop-color="#2AABEE"/>
<stop offset="1" stop-color="#229ED9"/>
</linearGradient>
</defs>
</svg>
