<svg width="57" height="56" fill="none" xmlns="http://www.w3.org/2000/svg"><rect x=".5" width="56" height="56" rx="12" fill="#F57F17"/><path d="M28.5 44.016c8.938 0 16.297-7.36 16.297-16.297 0-8.922-7.375-16.297-16.313-16.297-8.922 0-16.28 7.375-16.28 16.297 0 8.937 7.358 16.297 16.296 16.297Zm-5.047-9.641c-.89 0-1.594-.703-1.594-1.625 0-.406.172-.813.47-1.11l3.89-3.89-3.89-3.906a1.589 1.589 0 0 1-.47-1.11c0-.906.703-1.609 1.594-1.609.485 0 .844.156 1.156.469l3.891 3.875 3.922-3.89c.328-.329.687-.47 1.156-.47.89 0 1.594.703 1.594 1.594 0 .438-.14.813-.469 1.14l-3.906 3.907 3.89 3.875c.313.297.47.703.47 1.125 0 .922-.704 1.625-1.61 1.625-.469 0-.875-.156-1.172-.469L28.5 30.031l-3.86 3.875c-.312.313-.703.469-1.187.469Z" fill="#fff"/></svg>