<svg width="56" height="56" fill="none" xmlns="http://www.w3.org/2000/svg"><rect width="56" height="56" rx="12" fill="#F91F2B"/><path d="M11.703 27.719c0 8.937 7.36 16.297 16.297 16.297 8.938 0 16.297-7.36 16.297-16.297 0-4.907-2.422-9.75-6.063-12.547-.953-.781-2.062-.688-2.656.11-.672.843-.406 1.874.39 2.609 2.907 2.343 4.735 5.828 4.75 9.828.016 7.047-5.671 12.718-12.718 12.718A12.677 12.677 0 0 1 15.297 27.72c0-5.89 3.937-10.797 9.344-12.235v2.22c0 1.25.984 1.608 2.015.858l5.453-3.906c.844-.594.844-1.547 0-2.156l-5.437-3.906c-1.047-.75-2.031-.406-2.031.86v2.327c-7.344 1.563-12.938 8.156-12.938 15.938Z" fill="#fff"/></svg>