<svg width="14" height="14" fill="none" xmlns="http://www.w3.org/2000/svg"><path fill-rule="evenodd" clip-rule="evenodd" d="M6.825.372c.487 0 .884.384.884.853v3.173c0 .47-.397.853-.883.853-.487 0-.884-.384-.884-.853V1.225c0-.47.397-.853.883-.853ZM.153 5.054c.15-.447.651-.693 1.113-.548l3.125.98a.85.85 0 0 1 .567 1.076c-.15.446-.651.693-1.113.547L.72 6.13a.85.85 0 0 1-.567-1.075Zm2.549 7.575a.837.837 0 0 1-.196-1.192L4.437 8.87a.907.907 0 0 1 1.234-.188.837.837 0 0 1 .196 1.192l-1.93 2.566a.907.907 0 0 1-1.235.189Zm8.248 0a.907.907 0 0 1-1.235-.189l-1.93-2.566a.837.837 0 0 1 .195-1.192.907.907 0 0 1 1.234.188l1.931 2.567a.837.837 0 0 1-.195 1.192Zm2.548-7.575a.85.85 0 0 1-.567 1.075l-3.124.98c-.463.145-.964-.101-1.114-.548a.85.85 0 0 1 .567-1.075l3.125-.98c.462-.145.963.101 1.113.548Z" fill="#00A1E4"/></svg>