<svg width="24" height="40" viewBox="0 0 24 40" fill="none" xmlns="http://www.w3.org/2000/svg">
<g clip-path="url(#clip0_4985_73948)">
<path fill-rule="evenodd" clip-rule="evenodd" d="M11.6072 35.9194C11.5033 35.8749 11.4055 35.8121 11.3186 35.7308C11.3085 35.7213 11.2985 35.7116 11.2887 35.7017L4.22302 28.636C3.8325 28.2455 3.8325 27.6123 4.22302 27.2218C4.61355 26.8313 5.24671 26.8313 5.63724 27.2218L11.0012 32.5857L11.0012 5C11.0012 4.44771 11.4489 4 12.0012 4C12.5535 4 13.0012 4.44771 13.0012 5L13.0012 32.5858L18.3652 27.2218C18.7557 26.8313 19.3888 26.8313 19.7794 27.2218C20.1699 27.6123 20.1699 28.2455 19.7794 28.636L12.711 35.7044C12.7021 35.7134 12.693 35.7222 12.6838 35.7308C12.5966 35.8123 12.4985 35.8753 12.3943 35.9198C12.2736 35.9714 12.1408 36 12.0012 36C11.8613 36 11.7281 35.9713 11.6072 35.9194Z" fill="#B6B6BF"/>
</g>
<defs>
<clipPath id="clip0_4985_73948">
<rect width="40" height="24" fill="white" transform="translate(24) rotate(90)"/>
</clipPath>
</defs>
</svg>
