<svg width="46" height="51" fill="none" xmlns="http://www.w3.org/2000/svg"><path fill-rule="evenodd" clip-rule="evenodd" d="M28.173 5.857c9.894 2.452 17.25 11.403 17.25 22.044 0 12.524-10.188 22.712-22.711 22.712C10.189 50.613 0 40.425 0 27.9 0 17.26 7.356 8.31 17.249 5.857V1.484a1 1 0 0 1 .786-.977 22.415 22.415 0 0 1 5.054-.505 23.49 23.49 0 0 1 4.292.504 1 1 0 0 1 .792.978v4.373zm-5.461 42.756c11.42 0 20.711-9.291 20.711-20.712S34.132 7.189 22.712 7.189C11.291 7.189 2 16.479 2 27.9c0 11.42 9.291 20.712 20.712 20.712zM19.249 2.306v3.146a22.858 22.858 0 0 1 6.924 0V2.31A21.522 21.522 0 0 0 23.049 2a19.814 19.814 0 0 0-3.8.306z" fill="#4D4D5C"/><path fill-rule="evenodd" clip-rule="evenodd" d="M43.112 13.865a21.114 21.114 0 0 0-3.686-4.146 1 1 0 1 1 1.307-1.513 23.122 23.122 0 0 1 4.035 4.538 1 1 0 1 1-1.656 1.121zm-21.4-3.334v14.456c-1.798.45-3.138 2.067-3.138 4 0 1.935 1.34 3.55 3.137 4h.002v2.391a1 1 0 0 0 2 0v-2.393c1.795-.45 3.133-2.065 3.133-3.998 0-1.933-1.339-3.55-3.135-4V10.531a1 1 0 0 0-2 0zm3.134 18.456a2.138 2.138 0 0 1-2.136 2.136 2.138 2.138 0 0 1-2.136-2.136c0-1.177.958-2.135 2.136-2.135 1.178 0 2.136.958 2.136 2.135z" fill="#F91F2B"/></svg>