<svg width="48" height="48" fill="none" xmlns="http://www.w3.org/2000/svg"><path d="M43.207 13.02H3.077C1.38 13.02 0 11.705 0 10.09V2.939C0 1.317 1.38 0 3.078 0h17.766c.428 0 .78.35.78.78a.782.782 0 0 1-.78.778H3.078c-.842 0-1.52.616-1.52 1.38v7.153c0 .763.678 1.379 1.52 1.379h40.137c.834 0 1.52-.616 1.52-1.38V2.939c-.008-.764-.686-1.38-1.528-1.38H25.511a.782.782 0 0 1-.779-.779c0-.428.35-.779.78-.779h17.695c1.699 0 3.078 1.317 3.078 2.938v7.153c0 1.613-1.38 2.93-3.078 2.93Z" fill="#6D6D7A"/><path d="M32.174 7.38H6.319a.868.868 0 1 1 .008-1.738h25.854c.483 0 .873.39.873.872a.892.892 0 0 1-.88.865Z" fill="#F91F2B"/><path d="M43.207 30.358H3.077C1.38 30.358 0 29.041 0 27.42v-7.153c0-1.62 1.38-2.937 3.078-2.937h17.766c.428 0 .78.35.78.779a.783.783 0 0 1-.78.779H3.078c-.842 0-1.52.616-1.52 1.38v7.152c0 .764.678 1.38 1.52 1.38h40.137c.834 0 1.52-.616 1.52-1.38v-7.153c0-.756-.678-1.379-1.52-1.379H25.511a.782.782 0 0 1-.779-.78.78.78 0 0 1 .78-.778h17.695c1.699 0 3.078 1.317 3.078 2.937v7.153c0 1.621-1.38 2.938-3.078 2.938Z" fill="#6D6D7A"/><path d="M39.966 24.709H14.11a.868.868 0 1 1 .008-1.738h25.855c.483 0 .872.39.872.873a.892.892 0 0 1-.88.865Z" fill="#F91F2B"/><path d="M3.078 34.972h40.137c1.699 0 3.078 1.316 3.078 2.937v7.153c0 1.621-1.38 2.938-3.078 2.938H25.449a.782.782 0 0 1-.78-.78c0-.428.351-.778.78-.778h17.766c.834 0 1.52-.616 1.52-1.38V37.91c0-.763-.678-1.379-1.52-1.379H3.078c-.842 0-1.52.623-1.52 1.38v7.152c0 .756.678 1.38 1.52 1.38h17.696c.428 0 .779.35.779.779 0 .428-.35.78-.78.78H3.079C1.379 48 0 46.682 0 45.061V37.91c0-1.62 1.38-2.937 3.078-2.937Z" fill="#6D6D7A"/><path d="M6.32 40.612h33.646a.871.871 0 1 1 0 1.745H6.319a.87.87 0 0 1-.865-.873.87.87 0 0 1 .865-.872Z" fill="#F91F2B"/></svg>