<svg width="81" height="80" viewBox="0 0 81 80" fill="none" xmlns="http://www.w3.org/2000/svg">
<path d="M66.5541 13.5288C64.8072 11.917 57.748 6.79244 42.0241 6.72282C42.0241 6.72282 23.4816 5.60466 14.4424 13.8959C9.41065 18.9287 7.64058 26.2928 7.45387 35.4227C7.26715 44.5526 7.02559 61.6626 23.5185 66.3019H23.5343L23.5238 73.3812C23.5238 73.3812 23.4183 76.2473 25.3054 76.8317C27.5882 77.5405 28.9279 75.3622 31.1072 73.0141C32.3035 71.725 33.9554 69.8315 35.2001 68.3843C46.4799 69.3336 55.1551 67.1638 56.1404 66.8431C58.4179 66.1047 71.3052 64.4538 73.4012 47.3449C75.5648 29.7106 72.3548 18.5564 66.5541 13.5288Z" fill="white"/>
<path d="M62.8863 17.0911C61.4095 15.7494 55.0349 11.744 41.734 11.686C41.734 11.686 25.9837 10.6512 18.338 17.5764C14.0827 21.7779 12.6491 28.0259 12.4919 35.6506C12.3348 43.2752 11.5204 57.8408 25.4668 61.7154C25.4668 61.7154 25.412 72.5289 25.4057 73.4793C25.4057 74.1439 25.5112 74.5985 25.8909 74.6924C26.1641 74.7589 26.5734 74.6175 26.9215 74.2704C29.1515 72.031 36.2909 63.4179 36.2909 63.4179C45.8702 64.0435 53.4916 62.1521 54.3112 61.8841C56.2438 61.2628 66.6965 60.3651 68.4655 46.0758C70.2936 31.3467 67.7936 21.2927 62.8863 17.0911Z" fill="#7360F2"/>
<path fill-rule="evenodd" clip-rule="evenodd" d="M42.2943 29.4828C42.3199 28.9923 42.7382 28.6155 43.2287 28.6411C45.0637 28.7368 46.5903 29.2923 47.6776 30.4165C48.7608 31.5364 49.2918 33.1009 49.385 34.9799C49.4093 35.4704 49.0314 35.8878 48.5409 35.9121C48.0503 35.9365 47.633 35.5585 47.6086 35.068C47.5288 33.4596 47.0876 32.3646 46.3992 31.6529C45.7151 30.9455 44.671 30.4973 43.136 30.4172C42.6456 30.3916 42.2687 29.9733 42.2943 29.4828Z" fill="white"/>
<path fill-rule="evenodd" clip-rule="evenodd" d="M40.9463 24.692C40.9821 24.2022 41.4083 23.8342 41.8981 23.87C45.6324 24.1433 48.6382 25.4193 50.8276 27.8092L50.8279 27.8096C52.9936 30.176 54.0229 33.1198 53.9482 36.5728C53.9375 37.0638 53.5309 37.4532 53.0399 37.4426C52.5489 37.4319 52.1594 37.0253 52.1701 36.5343C52.236 33.4892 51.3405 31.004 49.5159 29.0103C47.6969 27.0248 45.1541 25.8916 41.7683 25.6438C41.2785 25.6079 40.9104 25.1818 40.9463 24.692Z" fill="white"/>
<path fill-rule="evenodd" clip-rule="evenodd" d="M39.3764 20.1378C39.3798 19.6466 39.7807 19.2513 40.2718 19.2547C45.4325 19.2907 49.7946 21.0087 53.2969 24.4229C56.8285 27.8656 58.575 32.5526 58.6193 38.3738C58.6231 38.8649 58.228 39.2661 57.7369 39.2698C57.2457 39.2735 56.8446 38.8784 56.8409 38.3873C56.7994 32.9326 55.1766 28.739 52.0555 25.6964C48.9051 22.6253 44.9935 21.0662 40.2594 21.0332C39.7683 21.0298 39.373 20.6289 39.3764 20.1378Z" fill="white"/>
<path d="M43.3585 46.9345C43.3585 46.9345 44.6085 47.04 45.2815 46.2109L46.5938 44.56C47.2267 43.7414 48.7542 43.2192 50.25 44.0526C51.3709 44.6919 52.4591 45.3869 53.5106 46.1349C54.5032 46.8649 56.536 48.5611 56.5423 48.5611C57.5107 49.3786 57.7343 50.5791 57.075 51.8449C57.075 51.8523 57.0697 51.865 57.0697 51.8713C56.3436 53.1301 55.4217 54.2653 54.3387 55.2342C54.326 55.2406 54.326 55.2469 54.3144 55.2532C53.3735 56.0395 52.449 56.4864 51.5412 56.594C51.4075 56.6174 51.2716 56.6259 51.1361 56.6193C50.7357 56.6231 50.3374 56.5619 49.9567 56.4378L49.9272 56.3946C48.5284 56.0001 46.193 55.0127 42.3036 52.8671C40.053 51.6401 37.9103 50.2247 35.8985 48.636C34.8901 47.8402 33.9282 46.9872 33.0176 46.0811L32.7265 45.79C32.6938 45.7583 32.6621 45.7256 32.6294 45.6929C31.7234 44.7823 30.8703 43.8204 30.0745 42.8121C28.4861 40.8005 27.0707 38.6582 25.8434 36.408C23.6978 32.5176 22.7105 30.1842 22.3159 28.7833L22.2727 28.7538C22.149 28.3731 22.0881 27.9748 22.0923 27.5745C22.0849 27.439 22.0931 27.303 22.1166 27.1694C22.2298 26.2629 22.6774 25.3378 23.4594 24.394C23.4658 24.3824 23.4721 24.3824 23.4784 24.3698C24.4471 23.2867 25.5823 22.3652 26.8413 21.6398C26.8477 21.6398 26.8603 21.6334 26.8677 21.6334C28.1336 20.9741 29.334 21.1978 30.1505 22.1609C30.1568 22.1672 31.8499 24.1999 32.5767 25.1926C33.3248 26.245 34.0198 27.3343 34.659 28.4563C35.4923 29.9511 34.9702 31.4817 34.1516 32.1125L32.5007 33.4248C31.6674 34.0978 31.7771 35.3478 31.7771 35.3478C31.7771 35.3478 34.2223 44.6022 43.3585 46.9345Z" fill="white"/>
</svg>
