<svg width="25" height="24" viewBox="0 0 25 24" fill="none" xmlns="http://www.w3.org/2000/svg">
<mask id="mask0_12411_512" style="mask-type:alpha" maskUnits="userSpaceOnUse" x="0" y="0" width="25" height="24">
<path fill-rule="evenodd" clip-rule="evenodd" d="M7.9048 9.65686L11.1475 6.41419V15C11.1475 15.5523 11.5952 16 12.1475 16C12.6997 16 13.1475 15.5523 13.1475 15V6.41421L16.3901 9.65685C16.7806 10.0474 17.4138 10.0474 17.8043 9.65685C18.1948 9.26633 18.1948 8.63316 17.8043 8.24264L12.8546 3.29289C12.758 3.19631 12.6466 3.12362 12.5277 3.07481C12.4104 3.02659 12.2821 3 12.1475 3C12.0145 3 11.8876 3.02596 11.7715 3.07309C11.651 3.1219 11.5381 3.19517 11.4403 3.29289L6.49059 8.24264C6.10006 8.63317 6.10006 9.26633 6.49059 9.65686C6.88111 10.0474 7.51428 10.0474 7.9048 9.65686ZM4.14746 14C4.69975 14 5.14746 14.4477 5.14746 15V18C5.14746 18.5523 5.59518 19 6.14746 19H18.1475C18.6997 19 19.1475 18.5523 19.1475 18V15C19.1475 14.4477 19.5952 14 20.1475 14C20.6997 14 21.1475 14.4477 21.1475 15V18C21.1475 19.6569 19.8043 21 18.1475 21H6.14746C4.49061 21 3.14746 19.6569 3.14746 18V15C3.14746 14.4477 3.59518 14 4.14746 14Z" fill="black"/>
</mask>
<g mask="url(#mask0_12411_512)">
<rect x="0.147461" width="24" height="24" fill="#F91F2B"/>
</g>
</svg>
