<svg width="52" height="65" fill="none" xmlns="http://www.w3.org/2000/svg"><path d="M47.167 64.474H4.833C2.126 64.474 0 62.347 0 59.64V4.93C0 2.224 2.126.098 4.833.098h30.735c.58 0 .967.386.967.966s-.387.967-.967.967H4.833c-1.547 0-2.9 1.353-2.9 2.9v54.71c0 1.546 1.353 2.9 2.9 2.9h42.334c1.546 0 2.9-1.354 2.9-2.9V16.917c0-.58.386-.967.966-.967s.966.387.966.967V59.64c0 2.706-2.32 4.833-4.832 4.833z" fill="#6D6D7A"/><path d="M51.033 17.884H35.568c-.58 0-.966-.387-.966-.967V1.451c0-.58.386-.967.966-.967s.967.387.967.967v14.5h14.498c.58 0 .966.386.966.966s-.58.967-.966.967z" fill="#6D6D7A"/><path d="M51.032 17.883c-.194 0-.58-.194-.774-.387L34.794 1.643a.935.935 0 0 1 0-1.353.934.934 0 0 1 1.353 0l15.465 15.853a.935.935 0 0 1 0 1.353c-.194.387-.387.387-.58.387z" fill="#6D6D7A"/><path d="m20.683 55.58 4.64 3.286c.386.194.772.194.966 0l4.639-3.286c1.546-1.16 2.9-3.48 2.9-5.413v-6.574c0-.386-.194-.58-.58-.773l-7.153-3.48c-.193-.193-.58-.193-.773 0l-7.152 3.48c-.387.194-.58.387-.58.773v6.574c.193 1.933 1.546 4.446 3.093 5.413zm-.967-11.407 6.186-3.093 6.186 3.093v5.994c0 1.353-.967 3.093-2.127 3.866l-4.252 2.9-3.866-2.707c-1.16-.773-2.127-2.513-2.127-3.866v-6.187z" fill="#F91F2B"/><path d="M24.354 51.52c.193.193.387.193.58.193.193 0 .386-.193.58-.193l3.673-3.674a.935.935 0 0 0 0-1.353.934.934 0 0 0-1.354 0l-2.706 3.093-1.353-1.16a.934.934 0 0 0-1.353 0 .934.934 0 0 0 0 1.354l1.933 1.74z" fill="#F91F2B"/><path d="M41.173 30.254H8.89c-.58 0-.966.387-.966.967s.386.966.966.966h32.283c.58 0 .966-.386.966-.966s-.387-.967-.966-.967zm0-6.768H8.89c-.58 0-.966.387-.966.967s.386.966.966.966h32.283c.58 0 .966-.386.966-.966s-.387-.967-.966-.967zm-17.978-7.732H8.31c-.193 0-.386.386-.386.967 0 .58.193.966.386.966h14.885c.193 0 .387-.387.387-.966 0-.387-.194-.967-.387-.967z" fill="#6D6D7A"/></svg>