<svg width="25" height="24" viewBox="0 0 25 24" fill="none" xmlns="http://www.w3.org/2000/svg">
<path fill-rule="evenodd" clip-rule="evenodd" d="M20.5 19C20.5 20.6569 19.1569 22 17.5 22H7.5C5.84315 22 4.5 20.6569 4.5 19V5C4.5 3.34315 5.84315 2 7.5 2H13.6716C14.4672 2 15.2303 2.31607 15.7929 2.87868L19.6213 6.70711C20.1839 7.26972 20.5 8.03278 20.5 8.82843V19ZM6.5 5C6.5 4.44772 6.94772 4 7.5 4H12.5V7C12.5 8.65685 13.8431 10 15.5 10H18.5V19C18.5 19.5523 18.0523 20 17.5 20H7.5C6.94772 20 6.5 19.5523 6.5 19V5ZM14.5 4.41421L18.0858 8H15.5C14.9477 8 14.5 7.55228 14.5 7V4.41421Z" fill="#F91F2B"/>
</svg>
