<svg width="38" height="48" fill="none" xmlns="http://www.w3.org/2000/svg"><path opacity=".15" fill-rule="evenodd" clip-rule="evenodd" d="M27.272.586A2 2 0 0025.858 0H2a2 2 0 00-2 2v44a2 2 0 002 2h34a2 2 0 002-2V12.142a2 2 0 00-.586-1.414L27.272.586zM27 3.15V10a1 1 0 001 1h6.662L27 3.15zM36 13h-9a2 2 0 01-2-2V2H3a1 1 0 00-1 1v33h34V13zM2 45v-7h34v7a1 1 0 01-1 1H3a1 1 0 01-1-1zM6 7a1 1 0 011-1h11a1 1 0 110 2H7a1 1 0 01-1-1zm0 5a1 1 0 011-1h11a1 1 0 110 2H7a1 1 0 01-1-1zm15 0a1 1 0 112 0 1 1 0 01-2 0zM7 16a1 1 0 100 2h4a1 1 0 100-2H7zm7 1a1 1 0 011-1h14a1 1 0 110 2H15a1 1 0 01-1-1zm-7 4a1 1 0 100 2h14a1 1 0 100-2H7zm17 1a1 1 0 011-1h6a1 1 0 110 2h-6a1 1 0 01-1-1zM7 26a1 1 0 100 2h24a1 1 0 100-2H7zm-1 6a1 1 0 011-1h10a1 1 0 110 2H7a1 1 0 01-1-1zm15-1a1 1 0 100 2h2a1 1 0 100-2h-2z" fill="#78858C"/></svg>
