<svg width="16" height="16" viewBox="0 0 16 16" fill="none" xmlns="http://www.w3.org/2000/svg">
<path fill-rule="evenodd" clip-rule="evenodd" d="M2.66659 8.00004C2.66659 5.05452 5.0544 2.66671 7.99992 2.66671C10.9454 2.66671 13.3333 5.05452 13.3333 8.00004C13.3333 10.9456 10.9454 13.3334 7.99992 13.3334C5.0544 13.3334 2.66659 10.9456 2.66659 8.00004ZM7.99992 1.33337C4.31802 1.33337 1.33325 4.31814 1.33325 8.00004C1.33325 11.6819 4.31802 14.6667 7.99992 14.6667C11.6818 14.6667 14.6666 11.6819 14.6666 8.00004C14.6666 4.31814 11.6818 1.33337 7.99992 1.33337ZM7.70178 9.26299C7.37246 9.09833 7.23897 8.69788 7.40363 8.36857C7.62129 7.93326 7.85307 7.70183 8.07436 7.50354L8.14252 7.44286L8.14252 7.44285C8.29934 7.30368 8.43126 7.18662 8.59243 6.97226C8.64109 6.87791 8.66659 6.77315 8.66659 6.66669C8.66659 6.54966 8.63578 6.4347 8.57727 6.33335C8.51876 6.23201 8.4346 6.14785 8.33325 6.08934C8.23191 6.03082 8.11694 6.00002 7.99992 6.00002C7.88289 6.00002 7.76793 6.03082 7.66659 6.08934C7.56524 6.14785 7.48108 6.23201 7.42257 6.33335C7.23847 6.65221 6.83075 6.76146 6.51189 6.57737C6.19302 6.39327 6.08377 5.98555 6.26787 5.66669C6.44341 5.36265 6.69588 5.11017 6.99992 4.93463C7.30396 4.7591 7.64885 4.66669 7.99992 4.66669C8.35099 4.66669 8.69588 4.7591 8.99992 4.93464C9.30396 5.11017 9.55643 5.36265 9.73197 5.66669C9.90751 5.97072 9.99992 6.31561 9.99992 6.66669C9.99992 7.01776 9.90751 7.36265 9.73197 7.66669C9.71993 7.68753 9.70678 7.70771 9.69256 7.72714C9.43241 8.08251 9.19761 8.29 9.02535 8.44222L9.02532 8.44224C9.00394 8.46114 8.98353 8.47918 8.96415 8.49654C8.81344 8.63159 8.71188 8.73349 8.5962 8.96485C8.43154 9.29417 8.0311 9.42765 7.70178 9.26299ZM8.66659 10.6667C8.66659 11.0349 8.36811 11.3334 7.99992 11.3334C7.63173 11.3334 7.33325 11.0349 7.33325 10.6667C7.33325 10.2985 7.63173 10 7.99992 10C8.36811 10 8.66659 10.2985 8.66659 10.6667Z" fill="#6D6D7A"/>
</svg>
