<svg width="24" height="24" viewBox="0 0 24 24" fill="none" xmlns="http://www.w3.org/2000/svg">
<path fill-rule="evenodd" clip-rule="evenodd" d="M5.84334 5.40889C5.22142 5.92716 4.482 6.76652 3.77728 7.63705C3.42978 8.06631 2.8001 8.1326 2.37084 7.7851C1.94157 7.4376 1.87529 6.80792 2.22279 6.37866C2.93473 5.4992 3.77865 4.52605 4.56297 3.87245C4.94473 3.55432 5.39634 3.23926 5.87304 3.09104C6.12179 3.01369 6.4274 2.96587 6.75451 3.02961C7.09998 3.09692 7.39999 3.27575 7.62881 3.53822C8.03954 4.00936 8.16095 4.67556 8.18854 5.30907C8.21813 5.9885 8.14593 6.85862 7.97168 7.94033C7.93771 8.15123 7.8996 8.37165 7.85722 8.60189C8.33528 7.83922 8.79882 7.19426 9.22388 6.74532C9.44147 6.51551 9.6898 6.29226 9.96392 6.13347C10.2287 5.9801 10.6425 5.81627 11.1184 5.92958C11.6244 6.05006 11.9267 6.41513 12.0903 6.73904C12.2487 7.05249 12.3298 7.41986 12.3741 7.78845C12.4974 8.81367 12.3971 10.4696 12.0413 12.8851C12.3598 12.3503 12.7217 11.7294 13.1318 11.0117C13.6428 10.1174 14.1347 9.34138 14.5911 8.7338C15.0237 8.15785 15.5042 7.62234 16.0129 7.33861C16.2777 7.19089 16.6646 7.04719 17.1079 7.132C17.585 7.22328 17.9039 7.534 18.0923 7.84863C18.2695 8.14453 18.3636 8.48919 18.4184 8.82186C18.475 9.16561 18.5 9.5632 18.5 10.0079C18.5 10.1743 18.4946 10.3535 18.4896 10.5166C18.4883 10.5582 18.4871 10.5988 18.486 10.6379C18.4806 10.8274 18.4777 10.9948 18.4824 11.1451C18.8701 10.9402 19.4657 10.5216 20.3415 9.75528C20.7572 9.3916 21.3889 9.43372 21.7526 9.84935C22.1163 10.265 22.0742 10.8968 21.6585 11.2604C20.6413 12.1505 19.8338 12.731 19.1818 13.0294C18.5671 13.3108 17.6989 13.4992 17.0454 12.8502C16.776 12.5826 16.65 12.2593 16.5848 12.0084C16.5183 11.752 16.4943 11.4883 16.4852 11.2596C16.4759 11.0271 16.4808 10.7899 16.4868 10.5811C16.4882 10.5315 16.4896 10.4839 16.491 10.4379C16.4958 10.2794 16.5 10.1407 16.5 10.0079C16.5 9.84064 16.4957 9.69225 16.4881 9.56129C16.399 9.66563 16.2996 9.78933 16.1902 9.93496C15.8028 10.4507 15.3572 11.1483 14.8683 12.004C13.2683 14.804 12.3025 16.3141 11.7321 16.9687C11.5936 17.1277 11.4096 17.3186 11.1892 17.4477C11.0775 17.5131 10.8751 17.6116 10.611 17.6176C10.2986 17.6246 10.0018 17.4991 9.78988 17.2705C9.61081 17.0775 9.54245 16.8658 9.51335 16.7467C9.48168 16.617 9.47281 16.4963 9.4706 16.4052C9.46618 16.2232 9.48638 16.0323 9.51008 15.8664C9.51207 15.8526 9.51434 15.8387 9.5169 15.8249C10.2355 11.9626 10.4707 9.64377 10.4186 8.41711C9.81094 9.16929 9.02659 10.4724 8.17903 12.0855C7.22496 13.9013 6.24391 16.0049 5.4171 17.9066C5.20568 18.3928 4.65148 18.6296 4.154 18.4461C3.65652 18.2626 3.38874 17.7227 3.54368 17.2156C4.91427 12.7301 5.66947 9.65629 5.99714 7.62225C6.16142 6.60241 6.21163 5.88268 6.19043 5.39609C6.18643 5.30406 6.18005 5.22566 6.17253 5.15927C6.08075 5.22084 5.97106 5.30246 5.84334 5.40889ZM22.9806 14.8117C23.0889 15.3533 22.7377 15.8801 22.1961 15.9884C20.7038 16.2869 16.7786 17.7621 13.7474 21.1722C13.3805 21.585 12.7485 21.6222 12.3357 21.2553C11.9229 20.8883 11.8857 20.2563 12.2526 19.8435C15.6214 16.0536 19.9629 14.3955 21.8039 14.0273C22.3455 13.919 22.8723 14.2702 22.9806 14.8117Z" fill="#F91F2B"/>
</svg>
