<svg width="14" height="14" fill="none" xmlns="http://www.w3.org/2000/svg"><path fill-rule="evenodd" clip-rule="evenodd" d="M0 6.632C0 2.984 3.097 0 6.958 0c3.86 0 6.957 2.984 6.957 6.632 0 3.647-3.097 6.631-6.957 6.631a7.376 7.376 0 0 1-2.164-.331c.509-2.736 2.29-4.974 4.709-5.927.297.331.721.497 1.188.497.848 0 1.527-.663 1.527-1.492 0-.83-.679-1.492-1.527-1.492-.849 0-1.527.663-1.527 1.492-3.055.87-5.516 2.901-6.788 5.512-.382-.331-.764-.704-1.06-1.16a7.69 7.69 0 0 1 3.35-6.093c.298.332.722.497 1.146.497.849 0 1.527-.663 1.527-1.492s-.678-1.492-1.527-1.492c-.848 0-1.527.663-1.527 1.492V3.4C2.46 4.02.933 5.222.042 6.797 0 6.797 0 6.714 0 6.632Z" fill="#FFCB08"/></svg>