<svg width="38" height="48" fill="none" xmlns="http://www.w3.org/2000/svg"><path opacity=".15" fill-rule="evenodd" clip-rule="evenodd" d="M0 2a2 2 0 012-2h34a2 2 0 012 2v44a2 2 0 01-2 2H2a2 2 0 01-2-2V2zm2 1a1 1 0 011-1h32a1 1 0 011 1v42a1 1 0 01-1 1H3a1 1 0 01-1-1V3zm2 2a1 1 0 011-1h28a1 1 0 011 1v28a1 1 0 01-1 1H5a1 1 0 01-1-1V5zm28 1v13.586l-4.293-4.293a1 1 0 00-1.414 0L18.5 23.086l-4.293-4.293a1 1 0 00-1.414 0L6 25.586V6h26zM6 32v-3.586l7.5-7.5 4.293 4.293 2 2a1 1 0 001.414-1.414L19.914 24.5 27 17.414l5 5V32H6zm10-20a4 4 0 11-8 0 4 4 0 018 0zm-2 0a2 2 0 11-4 0 2 2 0 014 0z" fill="#78858C"/></svg>
