<svg width="24" height="24" fill="none" xmlns="http://www.w3.org/2000/svg"><path d="m9.653 4.99-.985.173.985-.173Zm-6.542.006.994-.111-.994.11Zm1.26 4.892.923-.382-.924.382Zm3.901 5.84.707-.707-.707.707Zm5.84 3.902.383-.924-.383.924Zm4.892 1.259-.11.994.11-.994Zm.006-6.542.173-.985-.173.985Zm-4.273-.133-.866-.5.866.5Zm-6.28-2.448a16.004 16.004 0 0 0 3.778 3.778l1.158-1.63a14.002 14.002 0 0 1-3.306-3.307l-1.63 1.159Zm.829-3.369-.055.032 1 1.732.055-.032-1-1.732Zm-.618-3.234c.158.9.414 1.78.765 2.628l1.848-.765a10.518 10.518 0 0 1-.643-2.209l-1.97.346ZM7.48 4c.518 0 1.063.446 1.188 1.163l1.97-.346C10.382 3.357 9.171 2 7.48 2v2ZM5 4h2.48V2H5v2Zm-.895.885C4.057 4.455 4.414 4 5 4V2C3.377 2 1.92 3.342 2.117 5.107l1.988-.222Zm1.19 4.62a17 17 0 0 1-1.19-4.62l-1.988.222a19 19 0 0 0 1.33 5.164l1.847-.765Zm3.684 5.516a17 17 0 0 1-3.685-5.515l-1.847.765a19 19 0 0 0 4.118 6.164l1.414-1.414Zm5.516 3.685a17.002 17.002 0 0 1-5.516-3.685l-1.414 1.414a19 19 0 0 0 6.164 4.119l.766-1.848Zm4.62 1.19a17.002 17.002 0 0 1-4.62-1.19l-.766 1.848a18.999 18.999 0 0 0 5.164 1.329l.222-1.988ZM20 19c0 .586-.454.943-.885.895l-.222 1.988C20.658 22.08 22 20.623 22 19h-2Zm0-2.48V19h2v-2.48h-2Zm-1.163-1.188c.717.125 1.163.67 1.163 1.188h2c0-1.691-1.357-2.902-2.817-3.158l-.346 1.97Zm-2.628-.765c.848.351 1.73.607 2.628.765l.346-1.97a10.524 10.524 0 0 1-2.209-.643l-.765 1.848Zm-.638.202.032-.055-1.732-1-.032.055 1.732 1Zm-5.285-4.64c1.13-.653 1.44-2.027.995-3.103l-1.848.765c.117.282-.005.524-.147.606l1 1.732Zm6.688 2.59c-1.076-.445-2.45-.136-3.103.995l1.732 1c.082-.142.324-.264.606-.147l.765-1.848Zm-4.74 2.825c1.168.83 2.686.354 3.337-.775l-1.732-1a.38.38 0 0 1-.232.182.248.248 0 0 1-.214-.037l-1.158 1.63Zm-2.147-4.937a.248.248 0 0 1-.038-.214.381.381 0 0 1 .182-.232l-1-1.732c-1.128.651-1.604 2.17-.775 3.337l1.63-1.159Z" fill="#F91F2B"/></svg>