<svg width="59" height="52" fill="none" xmlns="http://www.w3.org/2000/svg"><path fill-rule="evenodd" clip-rule="evenodd" d="M52.225 9.418a6.52 6.52 0 0 1 6.513 6.513v29.058a6.521 6.521 0 0 1-6.513 6.513H6.513l-.114.001a6.364 6.364 0 0 1-4.438-1.799A6.373 6.373 0 0 1 .001 45.2L0 15.931a6.52 6.52 0 0 1 6.513-6.513H20.3a1 1 0 0 1 0 2H6.513A4.519 4.519 0 0 0 2 15.931v29.173c.044 2.496 2.067 4.488 4.496 4.398h45.729a4.52 4.52 0 0 0 4.513-4.513V15.931a4.519 4.519 0 0 0-4.513-4.513H38.442a1 1 0 1 1 0-2h13.783z" fill="#4D4D5C"/><path fill-rule="evenodd" clip-rule="evenodd" d="m19.164 18.669 9.204 9.204V1a1 1 0 0 1 2.001 0v26.872l9.203-9.203a.999.999 0 1 1 1.414 1.414L30.078 30.992a1.027 1.027 0 0 1-.327.219c-.008.003-.019.002-.027.005a.979.979 0 0 1-.356.072.983.983 0 0 1-.356-.072c-.008-.003-.018-.002-.027-.005a.998.998 0 0 1-.326-.22L17.75 20.083a.999.999 0 1 1 1.414-1.414z" fill="#F91F2B"/></svg>