<svg width="56" height="56" viewBox="0 0 56 56" fill="none" xmlns="http://www.w3.org/2000/svg">
<rect width="56" height="56" rx="12" fill="#F57F17"/>
<path d="M28 44.0156C19.0625 44.0156 11.7031 36.6562 11.7031 27.7188C11.7031 18.7969 19.0625 11.4219 27.9844 11.4219C36.9219 11.4219 44.2969 18.7969 44.2969 27.7188C44.2969 36.6562 36.9375 44.0156 28 44.0156ZM20.3125 29.8594H27.9844C28.75 29.8594 29.3438 29.25 29.3438 28.5V18.4844C29.3438 17.7188 28.75 17.125 27.9844 17.125C27.2344 17.125 26.6406 17.7188 26.6406 18.4844V27.1406H20.3125C19.5469 27.1406 18.9531 27.7344 18.9531 28.5C18.9531 29.25 19.5469 29.8594 20.3125 29.8594Z" fill="white"/>
</svg>
