<svg width="24" height="24" viewBox="0 0 24 24" fill="none" xmlns="http://www.w3.org/2000/svg">
<mask id="mask0_22455_190" style="mask-type:alpha" maskUnits="userSpaceOnUse" x="0" y="0" width="24" height="24">
<path fill-rule="evenodd" clip-rule="evenodd" d="M4 12C4 7.58172 7.58172 4 12 4C16.4183 4 20 7.58172 20 12C20 16.4183 16.4183 20 12 20C7.58172 20 4 16.4183 4 12ZM12 2C6.47715 2 2 6.47715 2 12C2 17.5228 6.47715 22 12 22C17.5228 22 22 17.5228 22 12C22 6.47715 17.5228 2 12 2ZM11.5528 13.8945C11.0588 13.6475 10.8586 13.0468 11.1056 12.5528C11.4321 11.8999 11.7797 11.5527 12.1117 11.2553C12.1465 11.2241 12.1803 11.1941 12.2134 11.1647L12.2139 11.1643C12.4491 10.9555 12.647 10.7799 12.8888 10.4584C12.9618 10.3168 13 10.1597 13 10C13 9.82446 12.9538 9.65202 12.866 9.5C12.7783 9.34798 12.652 9.22174 12.5 9.13397C12.348 9.0462 12.1755 9 12 9C11.8245 9 11.652 9.0462 11.5 9.13397C11.348 9.22174 11.2217 9.34798 11.134 9.5C10.8578 9.97829 10.2462 10.1422 9.76795 9.86602C9.28966 9.58988 9.12578 8.97829 9.40192 8.5C9.66523 8.04394 10.0439 7.66523 10.5 7.40192C10.9561 7.13862 11.4734 7 12 7C12.5266 7 13.0439 7.13862 13.5 7.40192C13.9561 7.66523 14.3348 8.04394 14.5981 8.5C14.8614 8.95606 15 9.47339 15 10C15 10.5266 14.8614 11.0439 14.5981 11.5C14.58 11.5313 14.5603 11.5615 14.539 11.5907C14.1487 12.1237 13.7965 12.435 13.5381 12.6633L13.5378 12.6636C13.5058 12.6918 13.4753 12.7188 13.4463 12.7448C13.2203 12.9473 13.0679 13.1002 12.8944 13.4472C12.6474 13.9412 12.0468 14.1414 11.5528 13.8945ZM13 16C13 16.5523 12.5523 17 12 17C11.4477 17 11 16.5523 11 16C11 15.4477 11.4477 15 12 15C12.5523 15 13 15.4477 13 16Z" fill="#93939E"/>
</mask>
<g mask="url(#mask0_22455_190)">
<rect width="24" height="24" fill="#93939E"/>
</g>
</svg>
