<svg width="14" height="14" viewBox="0 0 14 14" fill="none" xmlns="http://www.w3.org/2000/svg">
<path fill-rule="evenodd" clip-rule="evenodd" d="M6.71563 0.790344C7.2017 0.790344 7.5993 1.17447 7.5993 1.64372V4.81613C7.5993 5.28559 7.2017 5.66961 6.71563 5.66961C6.22956 5.66961 5.83196 5.28559 5.83196 4.81613V1.64372C5.83196 1.17447 6.22956 0.790344 6.71563 0.790344Z" fill="#00A1E4"/>
<path fill-rule="evenodd" clip-rule="evenodd" d="M0.043119 5.47232C0.193296 5.0259 0.69428 4.77937 1.15655 4.9244L4.28076 5.90476C4.74308 6.04978 4.99831 6.53364 4.84813 6.98006C4.69796 7.42648 4.19686 7.67302 3.73465 7.52794L0.610388 6.54768C0.148173 6.40255 -0.107166 5.91874 0.043119 5.47232Z" fill="#00A1E4"/>
<path fill-rule="evenodd" clip-rule="evenodd" d="M2.59188 13.0475C2.19869 12.7716 2.11076 12.2352 2.39641 11.8555L4.32728 9.28903C4.61288 8.90922 5.16836 8.82425 5.5616 9.10022C5.95484 9.37613 6.04277 9.91246 5.75711 10.2922L3.82619 12.8587C3.54054 13.2385 2.98511 13.3235 2.59188 13.0475Z" fill="#00A1E4"/>
<path fill-rule="evenodd" clip-rule="evenodd" d="M10.8398 13.0474C10.4465 13.3233 9.89115 13.2383 9.60539 12.8586L7.67458 10.2921C7.38882 9.91226 7.4768 9.37593 7.86999 9.10002C8.26322 8.82416 8.8187 8.90913 9.10435 9.28878L11.0352 11.8553C11.3209 12.235 11.2329 12.7715 10.8398 13.0474Z" fill="#00A1E4"/>
<path fill-rule="evenodd" clip-rule="evenodd" d="M13.3884 5.47207C13.5386 5.91849 13.2833 6.4024 12.8209 6.54743L9.69677 7.52768C9.2345 7.67276 8.73352 7.42623 8.58323 6.97981C8.43306 6.53344 8.68829 6.04953 9.15061 5.9045L12.2748 4.92414C12.737 4.77911 13.2381 5.0257 13.3884 5.47207Z" fill="#00A1E4"/>
</svg>
