<svg width="14" height="14" viewBox="0 0 14 14" fill="none" xmlns="http://www.w3.org/2000/svg">
<g clip-path="url(#clip0_18238_28096)">
<path fill-rule="evenodd" clip-rule="evenodd" d="M0 6.63158C0 2.98421 3.09697 0 6.95758 0C10.8182 0 13.9152 2.98421 13.9152 6.63158C13.9152 10.2789 10.8182 13.2632 6.95758 13.2632C6.19394 13.2632 5.47273 13.1388 4.79394 12.9316C5.30303 10.1961 7.08485 7.95789 9.50303 7.00461C9.8 7.33618 10.2242 7.50197 10.6909 7.50197C11.5394 7.50197 12.2182 6.83882 12.2182 6.00987C12.2182 5.18092 11.5394 4.51776 10.6909 4.51776C9.84243 4.51776 9.16364 5.18092 9.16364 6.00987C6.10909 6.88026 3.64849 8.91118 2.37576 11.5224C1.99394 11.1908 1.61212 10.8178 1.31515 10.3618C1.4 7.83355 2.71515 5.59539 4.66667 4.26908C4.96364 4.60066 5.38788 4.76645 5.81212 4.76645C6.66061 4.76645 7.33939 4.10329 7.33939 3.27434C7.33939 2.44539 6.66061 1.78224 5.81212 1.78224C4.96364 1.78224 4.28485 2.44539 4.28485 3.27434C4.28485 3.31579 4.28485 3.35724 4.28485 3.39868C2.46061 4.02039 0.933333 5.22237 0.0424242 6.79737C0 6.79737 0 6.71447 0 6.63158Z" fill="#FFCB08"/>
</g>
<defs>
<clipPath id="clip0_18238_28096">
<rect width="14" height="14" fill="white"/>
</clipPath>
</defs>
</svg>
