<svg width="31" height="37" viewBox="0 0 31 37" fill="none" xmlns="http://www.w3.org/2000/svg">
<path d="M6.14062 34.1719H15.1719C14.1719 33.2188 13.4062 32.0156 13 30.6875H6.5C5.07812 30.6875 4.375 29.9688 4.375 28.6094V5.70312C4.375 4.34375 5.0625 3.59375 6.5 3.59375H22.4688C23.8594 3.59375 24.6094 4.32812 24.6094 5.70312V19.0781C25.9219 19.4844 27.125 20.2344 28.0781 21.2344V5.40625C28.0781 1.9375 26.2656 0.109375 22.8281 0.109375H6.14062C2.71875 0.109375 0.890625 1.95312 0.890625 5.40625V28.875C0.890625 32.3438 2.71875 34.1719 6.14062 34.1719ZM8.9375 9.9375H20.0625C20.6406 9.9375 21.0781 9.48438 21.0781 8.90625C21.0781 8.35938 20.6406 7.92188 20.0625 7.92188H8.9375C8.34375 7.92188 7.90625 8.35938 7.90625 8.90625C7.90625 9.48438 8.34375 9.9375 8.9375 9.9375ZM8.9375 15.1875H20.0625C20.6406 15.1875 21.0781 14.75 21.0781 14.1719C21.0781 13.6094 20.6406 13.1719 20.0625 13.1719H8.9375C8.34375 13.1719 7.90625 13.6094 7.90625 14.1719C7.90625 14.75 8.34375 15.1875 8.9375 15.1875ZM21.2969 34.1719C22.5625 34.1719 23.75 33.8281 24.7656 33.2188L27.9844 36.4375C28.3594 36.8125 28.7656 36.9688 29.2344 36.9688C30.0938 36.9688 30.7344 36.3125 30.7344 35.3906C30.7344 34.9844 30.5625 34.5938 30.25 34.2812L27.0156 31.0312C27.6875 29.9844 28.0938 28.7188 28.0938 27.375C28.0938 23.625 25.0469 20.5781 21.2969 20.5781C17.5625 20.5781 14.5 23.6562 14.5 27.375C14.5 31.125 17.5625 34.1719 21.2969 34.1719ZM21.2969 31.6875C18.9062 31.6875 16.9688 29.7656 16.9688 27.375C16.9688 25.0156 18.9062 23.0781 21.2969 23.0781C23.6562 23.0781 25.5938 25.0156 25.5938 27.375C25.5938 29.7656 23.6562 31.6875 21.2969 31.6875Z" fill="#93939E"/>
</svg>
