<svg width="24" height="24" viewBox="0 0 24 24" fill="none" xmlns="http://www.w3.org/2000/svg">
<path fill-rule="evenodd" clip-rule="evenodd" d="M12 1.33333C12 2.06971 11.403 2.66667 10.6667 2.66667L4 2.66667C3.26362 2.66667 2.66667 3.26362 2.66667 4L2.66667 20C2.66667 20.7364 3.26362 21.3333 4 21.3333H10.6667C11.403 21.3333 12 21.9303 12 22.6667C12 23.403 11.403 24 10.6667 24H4C1.79086 24 0 22.2091 0 20V4C0 1.79086 1.79086 0 4 0H10.6667C11.403 0 12 0.596954 12 1.33333ZM15.1242 6.3432L19.4477 10.6667H8C7.26362 10.6667 6.66667 11.2637 6.66667 12.0001C6.66667 12.7365 7.26362 13.3334 8 13.3334H19.4478L15.1242 17.657C14.6035 18.1777 14.6035 19.0219 15.1242 19.5426C15.6449 20.0633 16.4891 20.0633 17.0098 19.5426L23.6095 12.943C23.7466 12.8058 23.8476 12.6462 23.9125 12.476C23.969 12.3282 24 12.1678 24 12.0001C24 11.823 23.9655 11.6539 23.9028 11.4993C23.8377 11.3384 23.7399 11.1877 23.6095 11.0572L17.0098 4.45758C16.4891 3.93688 15.6449 3.93688 15.1242 4.45758C14.6035 4.97828 14.6035 5.8225 15.1242 6.3432Z" fill="#F5F5FA"/>
</svg>
