<svg width="72" height="72" fill="none" xmlns="http://www.w3.org/2000/svg"><path d="M36 59.984c13.078 0 23.906-10.851 23.906-23.906 0-13.078-10.851-23.906-23.93-23.906-13.054 0-23.882 10.828-23.882 23.906 0 13.055 10.851 23.906 23.906 23.906ZM36 56c-11.063 0-19.898-8.86-19.898-19.922 0-11.062 8.812-19.922 19.875-19.922 11.062 0 19.921 8.86 19.945 19.922C55.945 47.141 47.062 56 36 56Zm-2.578-8.79c.773 0 1.43-.374 1.898-1.1l10.711-16.852c.258-.469.563-.985.563-1.5 0-1.055-.938-1.735-1.922-1.735-.586 0-1.172.375-1.617 1.055l-9.727 15.61-4.617-5.977c-.563-.75-1.078-.938-1.734-.938-1.008 0-1.805.82-1.805 1.852 0 .516.21 1.008.539 1.453l5.719 7.031c.586.774 1.218 1.102 1.992 1.102Z" fill="#3AC45C"/><rect opacity=".24" y="5" width="3" height="3" rx="1.5" fill="#10101F" fill-opacity=".5"/><rect opacity=".24" x="5" y="5" width="12" height="3" rx="1.5" fill="#10101F" fill-opacity=".5"/><rect opacity=".24" x="11" width="6" height="3" rx="1.5" fill="#10101F" fill-opacity=".5"/><rect opacity=".24" x="56" y="5" width="12" height="3" rx="1.5" fill="#10101F" fill-opacity=".5"/><rect opacity=".24" x="62" y="10" width="6" height="3" rx="1.5" fill="#10101F" fill-opacity=".5"/><rect opacity=".24" x="39" y="65" width="3" height="3" rx="1.5" fill="#10101F" fill-opacity=".5"/><rect opacity=".24" x="44" y="65" width="12" height="3" rx="1.5" fill="#10101F" fill-opacity=".5"/></svg>