<svg width="72" height="72" fill="none" xmlns="http://www.w3.org/2000/svg"><path d="M36 59.984c13.078 0 23.906-10.851 23.906-23.906 0-13.078-10.851-23.906-23.93-23.906-13.054 0-23.882 10.828-23.882 23.906 0 13.055 10.851 23.906 23.906 23.906ZM36 56c-11.063 0-19.898-8.86-19.898-19.922 0-11.062 8.812-19.922 19.875-19.922 11.062 0 19.921 8.86 19.945 19.922C55.945 47.141 47.062 56 36 56Zm-8.016-10.008c.54 0 1.008-.21 1.36-.586l6.633-6.656 6.68 6.656c.35.352.796.586 1.335.586a1.886 1.886 0 0 0 1.875-1.898c0-.54-.187-.961-.562-1.336l-6.657-6.656 6.68-6.704c.399-.398.563-.796.563-1.312a1.88 1.88 0 0 0-1.875-1.875c-.493 0-.891.187-1.29.586l-6.75 6.68-6.68-6.657a1.702 1.702 0 0 0-1.312-.562 1.86 1.86 0 0 0-1.875 1.851c0 .516.211.961.563 1.313l6.656 6.68-6.656 6.68a1.825 1.825 0 0 0-.563 1.312c0 1.054.844 1.898 1.875 1.898Z" fill="#FF951F"/><rect opacity=".24" y="5" width="3" height="3" rx="1.5" fill="#10101F" fill-opacity=".5"/><rect opacity=".24" x="5" y="5" width="12" height="3" rx="1.5" fill="#10101F" fill-opacity=".5"/><rect opacity=".24" x="11" width="6" height="3" rx="1.5" fill="#10101F" fill-opacity=".5"/><rect opacity=".24" x="56" y="5" width="12" height="3" rx="1.5" fill="#10101F" fill-opacity=".5"/><rect opacity=".24" x="62" y="10" width="6" height="3" rx="1.5" fill="#10101F" fill-opacity=".5"/><rect opacity=".24" x="39" y="65" width="3" height="3" rx="1.5" fill="#10101F" fill-opacity=".5"/><rect opacity=".24" x="44" y="65" width="12" height="3" rx="1.5" fill="#10101F" fill-opacity=".5"/></svg>