<svg width="44" height="44" viewBox="0 0 44 44" fill="none" xmlns="http://www.w3.org/2000/svg">
<rect width="44" height="44" rx="12" fill="#00000D"/>
<path d="M28.1523 22.2344C25.5625 22.2344 23.4062 19.9375 23.4062 17.0195C23.4062 14.1719 25.5742 11.8984 28.1523 11.8984C30.7305 11.8984 32.9102 14.1367 32.9102 16.9961C32.9102 19.9375 30.7422 22.2344 28.1523 22.2344ZM14.5703 22.4922C12.3203 22.4922 10.4336 20.4883 10.4336 17.957C10.4336 15.4727 12.332 13.5039 14.5703 13.5039C16.8086 13.5039 18.7188 15.4375 18.7188 17.9453C18.7188 20.4883 16.8203 22.4922 14.5703 22.4922ZM8.16016 33.168C6.51953 33.168 5.92188 32.4648 5.92188 31.2344C5.92188 28.1055 9.36719 24.2734 14.5703 24.2734C16.6328 24.2734 18.3203 24.8711 19.5977 25.6797C16.8789 27.8359 15.5898 31.3633 16.8555 33.168H8.16016ZM20.8867 33.168C18.8945 33.168 18.2266 32.5469 18.2266 31.4336C18.2266 28.4219 22.0703 24.2969 28.1523 24.2969C34.2227 24.2969 38.0781 28.4219 38.0781 31.4336C38.0781 32.5469 37.3984 33.168 35.418 33.168H20.8867Z" fill="white"/>
</svg>
