<svg width="44" height="44" viewBox="0 0 44 44" fill="none" xmlns="http://www.w3.org/2000/svg">
<rect width="44" height="44" rx="12" fill="#00000D"/>
<path d="M7.5625 32.6172V12.4844C7.5625 10.8203 8.48828 9.82422 10.0352 9.82422H23.9336C25.4922 9.82422 26.4062 10.8203 26.4062 12.4844V32.6172C26.4062 34.2812 25.4922 35.2773 23.9336 35.2773H10.0352C8.48828 35.2773 7.5625 34.2812 7.5625 32.6172ZM12.4961 16.4102C12.4961 16.7148 12.6836 16.9023 12.9648 16.9023H15.3438C15.6367 16.9023 15.8242 16.7148 15.8242 16.4102V14.1836C15.8242 13.8906 15.6367 13.6914 15.3438 13.6914H12.9648C12.6836 13.6914 12.4961 13.8906 12.4961 14.1836V16.4102ZM18.2148 16.4102C18.2148 16.7148 18.4023 16.9023 18.6836 16.9023H21.0625C21.3555 16.9023 21.543 16.7148 21.543 16.4102V14.1836C21.543 13.8906 21.3555 13.6914 21.0625 13.6914H18.6836C18.4023 13.6914 18.2148 13.8906 18.2148 14.1836V16.4102ZM27.4609 35.2773C27.9531 34.4922 28.1992 33.6016 28.1992 32.6172V15.7305H33.9531C35.5 15.7305 36.4258 16.7383 36.4258 18.3906V32.6172C36.4258 34.2812 35.5 35.2773 33.9531 35.2773H27.4609ZM12.4961 21.2031C12.4961 21.4961 12.6836 21.6953 12.9648 21.6953H15.3438C15.6367 21.6953 15.8242 21.4961 15.8242 21.2031V18.9766C15.8242 18.6719 15.6367 18.4727 15.3438 18.4727H12.9648C12.6836 18.4727 12.4961 18.6719 12.4961 18.9766V21.2031ZM18.2148 21.2031C18.2148 21.4961 18.4023 21.6953 18.6836 21.6953H21.0625C21.3555 21.6953 21.543 21.4961 21.543 21.2031V18.9766C21.543 18.6719 21.3555 18.4727 21.0625 18.4727H18.6836C18.4023 18.4727 18.2148 18.6719 18.2148 18.9766V21.2031ZM30.9648 21.8477C30.9648 22.0938 31.1055 22.2578 31.3516 22.2578H33.2617C33.4961 22.2578 33.6602 22.0938 33.6602 21.8477V19.9961C33.6602 19.7617 33.4961 19.5977 33.2617 19.5977H31.3516C31.1055 19.5977 30.9648 19.7617 30.9648 19.9961V21.8477ZM12.4961 25.9844C12.4961 26.2773 12.6836 26.4766 12.9648 26.4766H15.3438C15.6367 26.4766 15.8242 26.2773 15.8242 25.9844V23.7578C15.8242 23.4648 15.6367 23.2656 15.3438 23.2656H12.9648C12.6836 23.2656 12.4961 23.4648 12.4961 23.7578V25.9844ZM18.2148 25.9844C18.2148 26.2773 18.4023 26.4766 18.6836 26.4766H21.0625C21.3555 26.4766 21.543 26.2773 21.543 25.9844V23.7578C21.543 23.4648 21.3555 23.2656 21.0625 23.2656H18.6836C18.4023 23.2656 18.2148 23.4648 18.2148 23.7578V25.9844ZM30.9648 26.4297C30.9648 26.6758 31.1055 26.8398 31.3516 26.8398H33.2617C33.4961 26.8398 33.6602 26.6758 33.6602 26.4297V24.5781C33.6602 24.332 33.4961 24.1797 33.2617 24.1797H31.3516C31.1055 24.1797 30.9648 24.332 30.9648 24.5781V26.4297ZM12.7656 33.0508H21.2734V29.4531C21.2734 28.9023 20.9219 28.5391 20.2773 28.5391H13.6914C13.1406 28.5391 12.7656 28.9023 12.7656 29.4531V33.0508ZM30.9648 31.0117C30.9648 31.2578 31.1055 31.4102 31.3516 31.4102H33.2617C33.4961 31.4102 33.6602 31.2578 33.6602 31.0117V29.1602C33.6602 28.9141 33.4961 28.75 33.2617 28.75H31.3516C31.1055 28.75 30.9648 28.9141 30.9648 29.1602V31.0117Z" fill="white"/>
</svg>
