<svg width="44" height="44" viewBox="0 0 44 44" fill="none" xmlns="http://www.w3.org/2000/svg">
<rect width="44" height="44" rx="12" fill="#00000D"/>
<path d="M6.53125 31.3281V13.7617C6.53125 13.1289 6.95312 12.707 7.58594 12.707H36.4023C37.0469 12.707 37.4688 13.1289 37.4688 13.7617V31.3281C37.4688 31.9609 37.0469 32.3828 36.4023 32.3828H7.58594C6.95312 32.3828 6.53125 31.9609 6.53125 31.3281ZM9.19141 29.1133C9.19141 29.5234 9.40234 29.7227 9.78906 29.7227H34.2109C34.5977 29.7227 34.8086 29.5234 34.8086 29.1133V15.9766C34.8086 15.5664 34.5977 15.3555 34.2109 15.3555H9.78906C9.40234 15.3555 9.19141 15.5664 9.19141 15.9766V29.1133ZM10.5273 28.1289V16.9609C10.5273 16.7969 10.6211 16.7148 10.7734 16.7148H19.2461C18.1797 17.9219 17.5469 19.9609 17.5469 22.5273C17.5469 25.1172 18.1797 27.168 19.2578 28.375H10.7734C10.6211 28.375 10.5273 28.293 10.5273 28.1289ZM24.707 28.375C25.8086 27.168 26.4648 25.1172 26.4648 22.5273C26.4648 19.9609 25.8203 17.9219 24.7305 16.7148H33.2148C33.3672 16.7148 33.4609 16.7969 33.4609 16.9609V28.1289C33.4609 28.293 33.3672 28.375 33.2148 28.375H24.707ZM19.082 22.5273C19.082 19.1289 20.2539 16.9844 21.9531 16.9844C23.7109 16.9844 24.9297 19.1289 24.9297 22.5273C24.9297 25.9375 23.7109 28.0938 21.9531 28.0938C20.2539 28.0938 19.082 25.9375 19.082 22.5273Z" fill="white"/>
</svg>
