<svg width="128" height="128" viewBox="0 0 128 128" fill="none" xmlns="http://www.w3.org/2000/svg">
  <path d="M64.2582 114.882C90.1215 114.882 111.088 93.9153 111.088 68.052C111.088 42.1888 90.1215 21.2225 64.2582 21.2225C38.395 21.2225 17.4287 42.1888 17.4287 68.052C17.4287 93.9153 38.395 114.882 64.2582 114.882Z" fill="#E0E0E7"/>
  <path d="M100.047 98.2556C91.4569 108.424 78.6117 114.882 64.2582 114.882C52.1977 114.882 41.202 110.322 32.9007 102.834C32.6538 102.611 32.3759 102.366 32.3759 102.366C32.3759 102.366 31.3386 94.9512 31.3859 91.1245C31.4793 83.5565 35.3408 69.694 36.0346 68.1722C38.5573 63.8743 49.1151 62.5663 57.1503 62.0991C65.1855 61.632 84.6194 65.743 84.6194 65.743L89.7582 74.6191C89.7582 74.6191 100.45 93.6247 100.917 95.4934C101.02 95.906 100.725 96.9047 100.047 98.2556Z" fill="url(#paint0_radial_3940_79254)"/>
  <path d="M75.7469 64.6161C75.7469 64.6161 94.1251 56.437 93.9114 50.0264C93.6977 43.6158 89.1638 27.9044 86.2789 24.5886C83.7497 21.6816 80.4483 19.1615 72.8619 18.0562C65.2756 16.9509 58.3838 17.918 56.9947 18.8023C55.6057 19.6865 49.5419 23.8313 47.6186 26.2629C45.6953 28.6945 39.7384 35.1328 41.448 39.4434C43.1576 43.754 42.3028 43.3947 43.0508 49.4738C43.7987 55.5528 54.9111 65.6109 75.7469 64.6161Z" fill="url(#paint1_radial_3940_79254)"/>
  <path d="M34.4392 74.3814C34.4392 74.3814 40.2452 66.6628 49.5589 65.3434C57.9678 64.1521 64.0642 65.7639 71.2118 71.6501C78.3594 77.5363 81.5828 79.0079 85.5069 79.5685C89.4311 80.1291 91.8136 79.7086 91.8136 79.7086C91.8136 79.7086 95.3173 85.3871 97.4196 88.9609C99.5218 92.5347 99.9422 95.618 100.012 96.7392C100.082 97.8604 100.853 100.453 101.834 101.364C102.815 102.275 103.096 101.925 103.096 101.925C103.096 101.925 103.236 104.167 104.567 105.569C105.899 106.97 107.3 108.021 108.211 107.601C109.122 107.18 109.192 106.69 109.192 106.69C109.192 106.69 111.715 107.671 112.486 107.18C113.256 106.69 115.148 104.027 115.429 103.396C115.709 102.766 115.779 102.415 115.779 102.415C115.779 102.415 118.372 101.154 118.722 99.7524C119.072 98.3509 119.563 93.726 118.792 90.7128C118.021 87.6996 118.091 88.05 118.091 88.05C118.091 88.05 120.754 88.7507 121.665 87.6295C122.576 86.5083 123.487 84.4762 122.856 83.1448C122.226 81.8134 120.684 82.444 120.124 82.1637C119.563 81.8834 113.627 78.2611 113.627 78.2611C113.627 78.2611 110.453 71.5125 105.828 68.289C101.204 65.0656 100.082 61.5619 99.5218 60.5108C98.9612 59.4597 97.4196 51.9618 96.2984 45.0244C95.1772 38.0871 92.696 35.0268 92.2055 34.4662C91.715 33.9056 92.1869 33.4639 91.2058 33.3237C90.2248 33.1836 90.2062 32.5621 90.2062 32.5621L90.825 34.5614C90.825 34.5614 91.6198 38.7996 92.1103 40.131C92.6008 41.4624 93.3718 48.771 90.587 53.1742C87.5207 58.0226 81.9232 58.9342 81.9232 58.9342C81.9232 58.9342 72.8613 63.1768 63.2152 60.9335C55.0275 59.0294 52.6733 55.5059 50.8622 53.5075C46.7208 48.9376 43.9804 42.1121 43.7218 37.37C43.5076 33.4428 45.5069 29.4441 45.5069 29.4441C45.5069 29.4441 42.7221 29.6583 37.2492 43.2258C30.9002 58.9653 28.9337 61.5386 28.9337 61.5386C28.9337 61.5386 26.9249 62.543 22.5103 66.4671C18.0956 70.3913 18.8664 71.7928 14.9423 72.4234C11.0181 73.0541 7.58446 72.3533 6.25306 73.4745C4.92165 74.5957 4.36105 76.4877 5.90268 77.6089C7.44432 78.7301 8.49543 79.1505 9.75676 79.1505C11.0181 79.1505 11.9291 79.0805 11.9291 79.0805C11.9291 79.0805 8.77573 83.2148 8.21513 87.2091C7.65454 91.2033 6.9538 93.5858 8.98595 95.4778C11.0181 97.3698 13.0503 97.0195 13.0503 97.0195C13.0503 97.0195 13.8211 99.8925 15.7831 100.243C17.7452 100.593 17.9554 100.593 18.7263 99.9626C19.4971 99.3319 20.1978 98.7713 20.1978 98.7713C20.1978 98.7713 21.3891 100.313 22.7906 99.8224C24.192 99.3319 25.2432 97.0895 25.2432 97.0895C25.2432 97.0895 26.5746 97.5801 27.1352 96.9494C27.6957 96.3187 28.7469 94.9172 28.9571 91.1332C29.1673 87.3492 29.2374 86.158 30.2184 85.3171C31.1995 84.4762 32.0403 83.7754 32.0403 83.7754L34.4392 74.3814Z" fill="url(#paint2_linear_3940_79254)"/>
  <path opacity="0.4" d="M33.2135 78.8561C33.2135 78.8561 32.1184 80.0524 29.8574 81.9979C26.787 84.6399 27.3583 91.6375 26.6442 93.7082C25.9302 95.779 24.6449 95.6362 24.6449 95.6362L23.5738 91.8517C23.5738 91.8517 24.2165 95.6362 22.36 96.9214C20.5034 98.2067 18.8611 97.2071 18.8611 97.2071L17.2188 94.0653C17.2188 94.0653 18.8611 97.7783 16.0764 98.2781C13.2916 98.778 12.3633 90.3522 12.3633 90.3522C12.3633 90.3522 12.6489 93.8511 10.7924 94.3509C8.93589 94.8507 8.43605 94.3509 8.43605 94.3509C8.43605 94.3509 8.22184 96.493 10.2212 96.6358C12.2205 96.7786 12.5775 97.3499 12.7917 97.2785C13.006 97.2071 13.7763 99.994 15.7832 100.243C17.7901 100.492 20.1464 99.135 20.1464 99.135C20.1464 99.135 22.3086 100.193 24.2622 98.7713C26.2158 97.3499 25.5018 97.3499 25.5018 97.3499C25.5018 97.3499 26.9299 97.7069 28.0009 95.4934C29.072 93.2798 28.4294 88.2815 30.0717 86.0679C31.714 83.8544 31.9996 83.9972 31.9996 83.9972L33.2135 78.8561Z" fill="url(#paint3_linear_3940_79254)"/>
  <path d="M58.8834 18.4716C58.8834 18.4716 58.9606 14.0512 53.9669 13.3528C48.9732 12.6544 45.7082 13.3626 43.8057 18.3231C41.9033 23.2835 46.8838 27.0722 46.8838 27.0722C46.8838 27.0722 50.6537 22.846 53.409 21.185C56.8466 19.1128 58.8834 18.4716 58.8834 18.4716Z" fill="url(#paint4_linear_3940_79254)"/>
  <path d="M111.461 91.5662C111.461 91.5662 110.199 92.6134 108.605 92.5658C107.01 92.5182 105.82 91.3996 106.677 89.1146C107.534 86.8297 109.319 85.2112 110.628 85.0445C111.937 84.8779 115.126 85.83 115.103 88.0673C115.079 90.3047 114.246 91.2806 111.461 91.5662Z" fill="url(#paint5_linear_3940_79254)"/>
  <path d="M104.558 100.587C104.558 100.587 103.13 101.801 102.464 100.611C101.798 99.4206 102.393 96.9453 102.94 96.1598C103.487 95.3744 104.201 94.5651 104.582 94.4461C104.963 94.3271 105.344 93.9463 105.677 95.0173C106.01 96.0884 106.034 99.373 104.558 100.587Z" fill="url(#paint6_linear_3940_79254)"/>
  <path d="M106.915 101.801C106.915 101.801 107.891 99.0161 109.271 97.8974C110.652 96.7787 111.009 96.8263 111.461 97.7784C111.913 98.7305 110.842 103.681 110.485 104.276C110.128 104.871 108.605 108.108 107.51 107.727C106.415 107.347 105.772 104.157 106.915 101.801Z" fill="url(#paint7_linear_3940_79254)"/>
  <path d="M111.937 103.61C111.937 103.61 112.413 99.9681 113.579 98.8256C114.746 97.6831 115.127 97.6355 115.46 98.0163C115.793 98.3972 116.269 100.658 115.626 102.467C114.984 104.276 114.055 106.085 113.46 106.49C112.865 106.894 112.389 106.847 112.151 105.918C111.913 104.99 111.866 104.014 111.937 103.61Z" fill="url(#paint8_linear_3940_79254)"/>
  <path d="M116.459 97.3976C116.459 97.3976 116.721 94.5176 117.435 93.8988C118.149 93.28 118.625 92.9229 119.078 94.232C119.53 95.5411 119.006 99.6112 117.911 100.801C116.816 101.991 115.983 102.396 115.983 102.396L116.459 97.3976Z" fill="url(#paint9_linear_3940_79254)"/>
  <path d="M14.6601 81.5457C14.6601 81.5457 14.0412 83.307 15.0885 84.1639C16.1358 85.0207 16.945 84.9731 16.945 84.9731L17.6591 85.0207C17.6591 85.0207 19.0396 86.8296 20.5153 86.8296C21.991 86.8296 23.181 86.4488 23.2762 84.1639C23.3715 81.8789 21.8005 80.4984 20.1344 80.1652C18.4683 79.832 15.4217 79.4035 14.6601 81.5457Z" fill="url(#paint10_linear_3940_79254)"/>
  <path d="M17.1593 92.3635C17.1593 92.3635 17.5877 90.5426 19.1944 91.0068C20.801 91.4709 22.7289 94.4342 22.4076 97.3618C22.0862 100.289 20.9081 99.4325 20.6224 99.4325C20.3368 99.4325 16.8023 96.1122 17.1593 92.3635Z" fill="url(#paint11_linear_3940_79254)"/>
  <path d="M24.6211 96.612C24.6211 96.612 25.2995 97.2904 25.6922 96.3264C26.0849 95.3624 26.3705 92.7562 25.5137 91.3638C24.6568 89.9714 23.5858 90.1499 23.3001 91.3281C23.0145 92.5063 23.3358 95.5409 24.6211 96.612Z" fill="url(#paint12_linear_3940_79254)"/>
  <path d="M12.2324 90.5426C12.2324 90.5426 12.8393 88.3648 14.0889 89.293C15.3385 90.2213 16.3024 93.613 16.3739 95.648C16.4453 97.6831 15.9454 99.968 14.7315 99.5039C13.5177 99.0398 10.9828 93.5416 12.2324 90.5426Z" fill="url(#paint13_linear_3940_79254)"/>
  <path d="M7.94807 88.7219C7.94807 88.7219 8.23369 85.1874 10.1259 85.6515C12.0181 86.1156 10.6257 93.8987 10.5186 94.113C10.4115 94.3272 8.87633 96.9334 8.19798 94.9341C7.51964 92.9348 7.51964 90.5427 7.94807 88.7219Z" fill="url(#paint14_linear_3940_79254)"/>
  <path d="M29.0969 61.6733C29.0373 61.6733 28.977 61.6568 28.9232 61.6221C28.7738 61.526 28.7306 61.327 28.8268 61.1776C28.8464 61.1469 30.8377 58.0283 33.872 51.2234C35.1051 48.459 35.6751 46.5888 36.2265 44.7804C37.0289 42.148 37.7871 39.6616 40.5215 34.936C42.8074 30.9853 45.0756 29.2584 45.171 29.1869C45.3132 29.0806 45.5145 29.1092 45.621 29.251C45.7276 29.3929 45.6992 29.5945 45.5571 29.7013C45.5347 29.7181 43.2925 31.4313 41.0781 35.2583C38.3808 39.9198 37.6677 42.2592 36.8418 44.968C36.2847 46.7952 35.7087 48.6846 34.4594 51.4854C31.4017 58.3426 29.3875 61.4948 29.3675 61.5258C29.3061 61.6213 29.2026 61.6733 29.0969 61.6733Z" fill="#2D2D2D"/>
  <path d="M33.6444 59.3381C33.235 59.4841 32.824 59.6679 32.4239 59.8576C32.022 60.0473 31.6217 60.2414 31.2312 60.4552C30.4495 60.8796 29.6726 61.3151 28.9275 61.8037C27.4221 62.7556 25.9967 63.8339 24.6405 64.991C23.2878 66.1538 21.9807 67.3774 20.7672 68.6814C20.1551 69.3312 19.5844 70.0108 18.9704 70.6853C18.6574 71.0172 18.3341 71.358 17.9403 71.6358C17.5509 71.9155 17.1184 72.1308 16.6795 72.2947C15.7994 72.6036 14.91 72.8036 13.9953 72.9209C13.0835 73.0361 12.1664 73.0445 11.272 73.0487C10.3747 73.0514 9.50032 73.0806 8.62662 73.2047C7.75986 73.3259 6.87896 73.493 6.17423 73.8927C5.82606 74.0931 5.5559 74.3682 5.44053 74.7052C5.31616 75.0412 5.36174 75.4437 5.46835 75.8329L5.55775 76.1272L5.68512 76.4168C5.76716 76.6143 5.85976 76.7936 5.97466 76.9616C6.19988 77.2995 6.48965 77.5936 6.82772 77.8301C7.50806 78.3025 8.34428 78.5592 9.19658 78.6799C10.0474 78.7988 10.9438 78.7994 11.7867 78.6926L11.8034 78.6905C11.9796 78.6682 12.1405 78.7929 12.1628 78.9691C12.1851 79.1452 12.0607 79.3061 11.8845 79.3284C10.9476 79.448 10.0329 79.4459 9.10578 79.3207C8.1876 79.1906 7.25652 78.917 6.45432 78.3633C6.05653 78.0863 5.70381 77.7321 5.43132 77.3237C5.29271 77.1214 5.17852 76.8998 5.08804 76.6835L4.94492 76.3568L4.8372 76.0076C4.71052 75.5426 4.6354 75.0086 4.82106 74.4868C5.00018 73.964 5.41735 73.5725 5.84352 73.3318C6.71397 72.8494 7.64185 72.6992 8.54254 72.5726C9.44785 72.4481 10.3719 72.4223 11.2688 72.4245C12.1684 72.4249 13.0504 72.4202 13.9214 72.3146C14.7868 72.2095 15.6596 72.0155 16.4741 71.7339C16.8765 71.5853 17.2533 71.3987 17.595 71.1567C17.9385 70.9186 18.2401 70.606 18.5429 70.2878C19.1405 69.6381 19.7286 68.9457 20.3507 68.2917C21.5898 66.9739 22.914 65.7468 24.2886 64.577C25.6693 63.4132 27.1164 62.3224 28.655 61.3699C29.4242 60.8946 30.2147 60.4511 31.0308 60.0588C31.8484 59.6661 32.6803 59.3159 33.5663 59.0676C33.6411 59.0467 33.7187 59.0903 33.7397 59.1651C33.7597 59.2366 33.7207 59.3107 33.652 59.3354L33.6444 59.3381Z" fill="#2D2D2D"/>
  <path d="M13.5391 77.6749C13.1843 77.9839 12.839 78.3534 12.5283 78.7314C12.2103 79.1079 11.916 79.5052 11.6427 79.9165C11.0893 80.7344 10.6094 81.6029 10.201 82.5045C9.36801 84.3046 8.83412 86.2289 8.48371 88.1918C8.31128 89.1715 8.17633 90.1577 8.1371 91.1403C8.10399 92.1181 8.15044 93.1103 8.44611 94.0039C8.59243 94.4493 8.8069 94.8616 9.09934 95.2064C9.38886 95.5544 9.76154 95.8264 10.1847 96.0605C10.6004 96.2964 11.0393 96.4874 11.4919 96.5994C11.718 96.6552 11.9471 96.689 12.1738 96.6999C12.2872 96.7063 12.3998 96.7035 12.5095 96.6945C12.6126 96.6868 12.7403 96.6645 12.8024 96.6463L12.8313 96.6378C13.0015 96.5879 13.1799 96.6853 13.2299 96.8555C13.2793 97.0237 13.1843 97.2001 13.0178 97.2524C12.839 97.3084 12.7161 97.3226 12.569 97.3392C12.428 97.3525 12.2882 97.357 12.1501 97.3512C11.8738 97.3412 11.6023 97.3032 11.3386 97.2414C10.8113 97.1171 10.3161 96.9063 9.85407 96.651C9.39516 96.4044 8.93256 96.0814 8.57161 95.6565C8.20701 95.2352 7.9529 94.7345 7.78375 94.2251C7.44503 93.1985 7.403 92.1415 7.43402 91.1138C7.47079 90.0826 7.61322 89.0679 7.79855 88.0663C8.16797 86.0684 8.73102 84.0819 9.60419 82.2271C10.0399 81.3 10.5594 80.41 11.162 79.5783C11.7781 78.7535 12.4494 77.9779 13.3089 77.356C13.3967 77.2925 13.5194 77.3121 13.5829 77.3999C13.6428 77.4827 13.6287 77.5964 13.5534 77.6624L13.5391 77.6749Z" fill="#2D2D2D"/>
  <path d="M12.7328 86.5257C12.5335 88.1033 12.3767 89.6837 12.3651 91.2622C12.3652 92.052 12.423 92.8387 12.5187 93.6188C12.64 94.3937 12.7763 95.1694 13.0204 95.9116C13.1207 96.2906 13.2766 96.646 13.4066 97.0122C13.4794 97.1913 13.5683 97.3612 13.648 97.5364C13.7235 97.7148 13.8224 97.8766 13.9206 98.0388C14.305 98.6906 14.8107 99.2599 15.4391 99.6018C15.7584 99.7585 16.0966 99.8742 16.4551 99.9176C16.8138 99.9588 17.1828 99.9424 17.5594 99.8855C17.7457 99.859 17.9435 99.8191 18.1434 99.7829C18.3187 99.7519 18.4901 99.702 18.656 99.6371C18.8215 99.5714 18.9822 99.4911 19.1327 99.3947C19.2787 99.3028 19.4351 99.1784 19.5332 99.0758L19.5501 99.0581C19.6727 98.9299 19.8761 98.9253 20.0043 99.0479C20.1299 99.168 20.1365 99.3659 20.0215 99.4944C19.8479 99.6882 19.6868 99.815 19.4993 99.9462C19.3151 100.072 19.1189 100.18 18.9123 100.266C18.7059 100.351 18.491 100.418 18.2712 100.461C18.0766 100.5 17.8811 100.544 17.6703 100.578C17.2543 100.65 16.815 100.681 16.3738 100.638C15.9306 100.595 15.4978 100.451 15.0975 100.254C14.3041 99.829 13.7118 99.1476 13.2797 98.4252C13.1689 98.2441 13.0585 98.0628 12.9753 97.871C12.8873 97.6813 12.7895 97.4943 12.7102 97.302C12.5661 96.9132 12.4038 96.5284 12.3023 96.1282C12.0525 95.3391 11.9167 94.5242 11.7986 93.7121C11.7063 92.8964 11.6549 92.0776 11.6629 91.2598C11.6796 89.6265 11.869 87.9893 12.4334 86.4441C12.4628 86.3633 12.5522 86.3218 12.6329 86.3513C12.7024 86.3767 12.7429 86.4464 12.7339 86.5169L12.7328 86.5257Z" fill="#2D2D2D"/>
  <path d="M17.6227 89.4439C17.4689 90.0952 17.4024 90.7975 17.4021 91.4806C17.4074 92.1671 17.4547 92.8549 17.6001 93.5257C17.855 94.873 18.4053 96.1553 19.151 97.3072C19.5321 97.8674 19.9496 98.4073 20.4695 98.7964C20.9832 99.1933 21.6 99.3894 22.2161 99.3434C22.8334 99.2931 23.4376 98.9999 23.9496 98.5948C24.4246 98.2272 24.7479 97.5909 24.9859 96.9843L24.9922 96.9683C25.057 96.8031 25.2435 96.7217 25.4088 96.7865C25.5711 96.8502 25.6523 97.0317 25.5938 97.1947C25.4629 97.5576 25.3116 97.8855 25.1202 98.2151C25.0252 98.3786 24.9187 98.5386 24.7947 98.6926C24.7348 98.7703 24.6652 98.8446 24.5942 98.9179C24.5176 98.9929 24.4432 99.0587 24.3727 99.1159C23.7893 99.5931 23.0718 99.9619 22.2725 100.027C21.4752 100.094 20.6631 99.8185 20.0586 99.3477C19.4382 98.8861 18.99 98.2806 18.5846 97.6733C17.8097 96.4466 17.2304 95.0774 16.9836 93.6392C16.857 92.922 16.809 92.19 16.8523 91.4641C16.8943 90.7357 17.0057 90.0224 17.2603 89.3188C17.2963 89.2194 17.406 89.168 17.5054 89.204C17.5977 89.2374 17.6487 89.3345 17.6265 89.4279L17.6227 89.4439Z" fill="#2D2D2D"/>
  <path d="M23.9557 89.4526C23.7464 90.4367 23.632 91.4536 23.6358 92.4478C23.6446 93.443 23.7837 94.431 24.1755 95.322C24.368 95.7652 24.6148 96.1823 24.9365 96.4941C25.2529 96.8085 25.6549 96.9983 26.0479 96.9717C26.2425 96.9606 26.4337 96.8978 26.5866 96.7927C26.721 96.7044 26.8874 96.5013 27.0232 96.3173C27.3041 95.9364 27.5247 95.495 27.7103 95.041C28.0773 94.1266 28.2999 93.1418 28.4301 92.144C28.4978 91.6447 28.536 91.1416 28.5658 90.6349C28.5941 90.1179 28.6216 89.6006 28.6695 89.079C28.7136 88.5587 28.7766 88.0324 28.8935 87.5061C29.0082 86.9814 29.1811 86.4499 29.4553 85.963C29.7271 85.4751 30.0911 85.0473 30.4865 84.6813C30.8848 84.3171 31.3095 84.0013 31.7384 83.6992C31.8836 83.5969 32.0842 83.6317 32.1865 83.7769C32.2878 83.9207 32.2546 84.1189 32.113 84.222L32.1086 84.2252C31.2934 84.8181 30.5057 85.4587 30.0645 86.2981C29.6156 87.1327 29.4911 88.1361 29.4011 89.1431C29.3567 89.6477 29.3314 90.1596 29.3054 90.6713C29.2769 91.1932 29.2391 91.7181 29.1705 92.2401C29.0347 93.2832 28.8171 94.3294 28.4038 95.325C28.1962 95.8213 27.9508 96.3085 27.6171 96.7559C27.4422 96.9789 27.2893 97.1935 26.998 97.399C26.7241 97.5834 26.4063 97.6814 26.0873 97.6978C25.4388 97.7355 24.8401 97.416 24.4358 97.0061C24.0197 96.5939 23.7422 96.1001 23.5278 95.6005C23.095 94.5965 22.9433 93.4963 22.9889 92.4365C23.0358 91.3712 23.2511 90.3332 23.6439 89.3476C23.6776 89.2631 23.7733 89.222 23.8577 89.2556C23.9334 89.2858 23.9743 89.3657 23.9578 89.4427L23.9557 89.4526Z" fill="#2D2D2D"/>
  <path fill-rule="evenodd" clip-rule="evenodd" d="M32.7168 102.667C32.2151 100.204 31.9169 97.6995 31.7565 95.1887C31.3771 89.913 32.0798 84.6163 33.2735 79.4631C33.8711 76.8827 34.5833 74.3274 35.3653 71.7917C35.7545 70.5245 36.1533 69.2535 36.5836 68.008C36.7192 67.6045 36.8692 67.2053 37.0193 66.8062C37.102 66.5861 37.1847 66.366 37.265 66.1451L37.9971 64.2986C39.0011 61.846 40.1041 59.4308 41.2584 57.0404C42.4141 54.6512 43.624 52.2839 44.8902 49.9528L44.8915 49.9506C44.9411 49.8591 44.9082 49.7443 44.8171 49.6932C44.7252 49.6416 44.6088 49.6742 44.5572 49.7661C43.2524 52.0895 42.0084 54.4412 40.8148 56.822C39.6234 59.2031 38.4821 61.6112 37.4367 64.0654C37.1788 64.6804 36.9258 65.298 36.679 65.918C36.5972 66.1396 36.5131 66.3603 36.4291 66.581C36.2754 66.9844 36.1217 67.3878 35.982 67.7971C35.5361 69.0618 35.1426 70.3292 34.7503 71.6031C33.9654 74.1483 33.2489 76.7183 32.6467 79.3184C32.0401 81.9169 31.5698 84.552 31.2866 87.2118C30.9925 89.8688 30.9333 92.5612 31.1145 95.229C31.2577 97.4704 31.5097 99.7083 31.9169 101.92C32.1806 102.172 32.4473 102.421 32.7168 102.667Z" fill="#2D2D2D"/>
  <path d="M17.5701 83.8317C17.6089 84.3144 17.8329 84.8216 18.1584 85.2101C18.4788 85.6131 18.9124 85.9233 19.3822 86.1636C19.854 86.4062 20.3626 86.5772 20.8712 86.5998C21.3784 86.6284 21.8789 86.482 22.2669 86.1731C22.6558 85.8668 22.9304 85.4103 23.0404 84.9229C23.0927 84.6866 23.1058 84.4109 23.1087 84.148C23.109 83.8829 23.0884 83.6184 23.0461 83.3587C22.9617 82.8396 22.7828 82.3394 22.4997 81.9068C22.2206 81.4708 21.8319 81.1137 21.3874 80.8404C20.4864 80.2982 19.3924 80.1027 18.315 80.0607C17.7754 80.0406 17.2354 80.0683 16.7236 80.1822C16.2139 80.2936 15.7288 80.5044 15.3789 80.8504C14.6591 81.5342 14.6316 82.7551 15.0245 83.67C15.0491 83.725 15.0773 83.7762 15.1036 83.8166C15.1374 83.8643 15.1773 83.9209 15.2165 83.9696C15.2951 84.0707 15.3804 84.1641 15.4706 84.2507C15.651 84.4241 15.8595 84.5591 16.0865 84.6552C16.5421 84.8498 17.072 84.8609 17.591 84.7879L17.5948 84.7874C17.7324 84.768 17.8597 84.8639 17.8791 85.0015C17.8984 85.1392 17.8034 85.2664 17.6658 85.2857C17.0911 85.3686 16.4668 85.367 15.8902 85.1257C15.605 85.007 15.3394 84.8346 15.1183 84.6236C15.0076 84.5183 14.9049 84.4061 14.8124 84.2882C14.7645 84.2287 14.7238 84.1718 14.6774 84.1063C14.6272 84.0307 14.5893 83.9591 14.5565 83.8878C14.3082 83.3228 14.2182 82.7321 14.2636 82.127C14.3076 81.5272 14.5594 80.9097 15.0107 80.4757C15.4579 80.0374 16.0404 79.7975 16.6097 79.6736C17.1842 79.5475 17.764 79.5218 18.3339 79.5439C19.4643 79.5926 20.6352 79.7932 21.6526 80.4059C22.1537 80.7146 22.6028 81.1286 22.9232 81.6316C23.2482 82.1311 23.4484 82.7014 23.5405 83.2784C23.5869 83.5673 23.6087 83.8588 23.6076 84.1495C23.6026 84.4413 23.592 84.7247 23.5251 85.0321C23.3886 85.627 23.058 86.1773 22.5719 86.5602C22.0878 86.9464 21.4502 87.1251 20.849 87.088C20.2435 87.0586 19.6755 86.86 19.162 86.5954C18.6441 86.3334 18.1544 85.9761 17.7936 85.4959C17.6085 85.2615 17.4636 84.9938 17.3624 84.7114C17.2607 84.4252 17.2038 84.139 17.2195 83.8127C17.2242 83.7164 17.306 83.642 17.4024 83.6466C17.4912 83.6509 17.5613 83.7208 17.5681 83.8071L17.5701 83.8317Z" fill="#2D2D2D"/>
  <path d="M9.31529 95.5613C9.2664 95.5613 9.21737 95.5575 9.16835 95.5499C8.70119 95.4758 8.43026 95.076 8.4009 95.0307C8.32539 94.9138 8.35884 94.7581 8.4756 94.6824C8.59194 94.6071 8.74735 94.6401 8.82286 94.7559C8.82751 94.7627 8.9997 95.0151 9.24974 95.0531C9.39381 95.0746 9.55098 95.0186 9.71485 94.8854C10.3176 94.3957 10.7898 91.9371 10.7898 89.2879C10.7898 86.7619 10.3315 86.101 10.1346 85.9341C10.0397 85.8541 9.94044 85.8254 9.8215 85.8456C9.15237 85.957 8.67101 86.5426 8.53391 87.4119C8.5122 87.549 8.38356 87.6446 8.24605 87.6211C8.10867 87.5995 8.01499 87.4706 8.03657 87.3332C8.20672 86.2561 8.85891 85.4957 9.73875 85.3491C10.0031 85.3043 10.2527 85.3747 10.46 85.5501C11.0128 86.0185 11.2932 87.2762 11.2932 89.2879C11.2932 91.6787 10.8987 94.5724 10.0322 95.2759C9.7987 95.4657 9.55822 95.5613 9.31529 95.5613Z" fill="#2D2D2D"/>
  <path d="M15.0867 99.615C14.4074 99.615 13.7827 98.9729 13.7563 98.9454C13.6601 98.8454 13.6633 98.6865 13.7633 98.59C13.8633 98.4936 14.0225 98.4966 14.119 98.5963C14.258 98.7403 14.7019 99.1117 15.0867 99.1117C15.0883 99.1117 15.0897 99.1117 15.0913 99.1117C15.2429 99.1106 15.3726 99.0502 15.4881 98.9271C16.0819 98.2934 16.3326 95.9072 15.9844 94.1987C15.5176 91.9083 14.5555 89.4924 13.6842 89.4924C13.6785 89.4924 13.6728 89.4924 13.6669 89.4926C12.6775 89.5292 12.4663 90.1992 12.367 91.6871C12.3579 91.8258 12.2396 91.9291 12.0991 91.9217C11.9605 91.9124 11.8555 91.7922 11.8648 91.6538C11.9381 90.5545 12.0386 89.0491 13.6483 88.9896C13.6605 88.989 13.6726 88.989 13.6846 88.989C15.3516 88.989 16.3028 93.2403 16.4776 94.0981C16.8341 95.8466 16.6434 98.4305 15.8552 99.2712C15.643 99.4976 15.3866 99.6134 15.0932 99.615C15.091 99.615 15.0889 99.615 15.0867 99.615Z" fill="#2D2D2D"/>
  <path d="M21.1836 99.7004C20.8815 99.7004 20.6772 99.5512 20.6516 99.5316C20.5415 99.4466 20.5207 99.2888 20.6054 99.1784C20.6898 99.0695 20.8455 99.0476 20.9555 99.1304C20.9656 99.1372 21.0905 99.2219 21.2631 99.1896C21.446 99.155 21.6345 98.9952 21.8085 98.7275C22.3315 97.9232 22.1365 95.0279 21.4663 93.6493C20.71 92.092 19.3166 90.8846 18.5415 91.1175C17.7792 91.3461 17.4824 91.8656 17.4824 92.9703C17.4824 93.1093 17.3696 93.2221 17.2305 93.2221C17.0915 93.2221 16.9787 93.1093 16.9787 92.9703C16.9787 92.0811 17.1401 91.0121 18.3967 90.6352C19.5648 90.2867 21.1339 91.8131 21.9191 93.4291C22.6229 94.8775 22.911 97.9554 22.2307 99.0017C21.9721 99.3997 21.6727 99.6302 21.3404 99.687C21.2857 99.6965 21.2333 99.7004 21.1836 99.7004Z" fill="#2D2D2D"/>
  <path d="M101.811 64.8499C101.705 64.8499 101.602 64.7978 101.54 64.7022C99.0546 60.8357 97.7832 57.7943 96.8199 49.9923C95.9187 42.6921 94.7956 39.5653 93.0381 36.3492C91.595 33.7084 90.2223 33.2552 90.2087 33.2508C90.0402 33.1984 89.944 33.0195 89.9948 32.8507C90.0456 32.6819 90.221 32.5848 90.3908 32.634C90.4564 32.653 92.0134 33.1331 93.6024 36.0408C95.3981 39.3268 96.5444 42.5107 97.4585 49.9133C98.4062 57.5908 99.6505 60.5732 102.081 64.3544C102.177 64.5039 102.134 64.7027 101.985 64.7988C101.931 64.8335 101.871 64.8499 101.811 64.8499Z" fill="#2D2D2D"/>
  <path d="M84.1607 22.3275C84.1607 22.3275 86.398 19.6141 90.5352 21.074C95.1337 22.6967 96.4967 26.7731 95.1467 29.7126C93.7966 32.6521 90.0359 33.7284 90.0359 33.7284C90.0359 33.7284 89.9063 26.717 85.1128 23.5176" fill="url(#paint15_linear_3940_79254)"/>
  <path d="M25.0053 97.1519C24.6994 97.1519 24.4525 96.9558 24.3482 96.8291C24.2597 96.7217 24.275 96.5631 24.3823 96.4748C24.4894 96.3864 24.6467 96.4019 24.7352 96.5073C24.7409 96.5136 24.8775 96.6707 25.0359 96.6464C25.2063 96.6215 25.4024 96.388 25.5739 96.0054C26.151 94.7184 25.7856 92.574 25.3945 91.8349C25.0149 91.118 24.5675 90.6545 24.2545 90.654C24.2542 90.654 24.2542 90.654 24.254 90.654C24.077 90.654 23.9027 90.8127 23.7361 91.1251C23.6711 91.2477 23.519 91.295 23.3958 91.2289C23.2732 91.1636 23.2265 91.0112 23.2921 90.8886C23.5526 90.3989 23.8762 90.1506 24.254 90.1506C24.2542 90.1506 24.2548 90.1506 24.2551 90.1506C24.9668 90.1517 25.5532 91.0587 25.8394 91.5995C26.2551 92.3844 26.7002 94.7239 26.0333 96.2113C25.7774 96.7824 25.4636 97.0967 25.1006 97.1456C25.0684 97.15 25.0364 97.1519 25.0053 97.1519Z" fill="#2D2D2D"/>
  <path d="M85.8501 59.6241C86.4093 60.672 86.8315 61.7654 87.2362 62.8643L87.5483 63.6849L87.8527 64.5054C88.0591 65.0483 88.2851 65.5826 88.5077 66.131C88.7308 66.6782 88.9431 67.2435 89.1096 67.8206C89.2787 68.397 89.4114 68.9798 89.5253 69.5626C89.6427 70.1478 89.7226 70.7312 89.8403 71.2951C89.9532 71.8644 90.0863 72.4309 90.2294 72.9947C90.8059 75.2501 91.5839 77.4558 92.519 79.5901C93.4528 81.7243 94.5748 83.7774 95.7659 85.7896C96.362 86.7958 96.9843 87.7871 97.5977 88.7929C98.2037 89.8021 98.8139 90.8288 99.2648 91.9474C99.4992 92.5006 99.6762 93.0837 99.825 93.6627C99.9725 94.2381 100.092 94.8208 100.2 95.4037C100.422 96.5691 100.527 97.7465 100.844 98.8273C101.004 99.3674 101.232 99.8823 101.508 100.375C101.647 100.619 101.797 100.854 101.967 101.055C102.134 101.257 102.328 101.422 102.514 101.484C102.864 101.624 103.334 101.292 103.733 100.907C103.834 100.812 103.938 100.709 104.032 100.608C104.124 100.508 104.215 100.407 104.297 100.297C104.466 100.082 104.618 99.8486 104.75 99.6041C105.018 99.117 105.218 98.5887 105.349 98.0452C105.487 97.5029 105.551 96.9431 105.541 96.3873C105.53 95.8212 105.454 95.2997 105.228 94.7847C105.121 94.5269 104.979 94.2215 104.956 93.878C104.924 93.5377 105.011 93.2199 105.121 92.9366C105.152 92.8577 105.241 92.8186 105.319 92.8492C105.389 92.876 105.427 92.9475 105.415 93.0179L105.415 93.0205C105.367 93.3 105.349 93.5738 105.401 93.8175C105.447 94.0621 105.587 94.2867 105.72 94.5606C105.855 94.8308 105.982 95.1321 106.05 95.442C106.116 95.754 106.155 96.0589 106.165 96.368C106.198 96.9856 106.122 97.6023 105.98 98.1992C105.836 98.7967 105.614 99.3744 105.316 99.9155C105.168 100.187 104.999 100.448 104.805 100.694C104.711 100.818 104.606 100.936 104.498 101.052C104.392 101.164 104.287 101.268 104.175 101.374C103.951 101.584 103.714 101.793 103.412 101.959C103.261 102.041 103.089 102.111 102.897 102.141C102.706 102.173 102.495 102.158 102.31 102.094C101.937 101.963 101.682 101.713 101.475 101.469C101.266 101.221 101.101 100.958 100.949 100.693C100.651 100.162 100.401 99.5975 100.227 99.0116C99.8852 97.834 99.7867 96.6577 99.5677 95.5192C99.4618 94.9483 99.3451 94.3807 99.201 93.8191C99.0575 93.262 98.8931 92.7188 98.6693 92.1905C98.2422 91.1289 97.6492 90.1275 97.0479 89.1269C96.4391 88.1286 95.8133 87.1316 95.2128 86.1181C94.0134 84.0918 92.8789 82.0168 91.93 79.8486C90.9815 77.6835 90.1924 75.4472 89.6061 73.1535C89.4605 72.5798 89.325 72.0033 89.2095 71.4212C89.0904 70.8354 89.0049 70.2558 88.8833 69.6916C88.6536 68.5507 88.3291 67.4617 87.8645 66.396C87.405 65.3222 86.9535 64.2112 86.5822 63.101C86.1888 61.9924 85.8347 60.8704 85.6366 59.6964C85.6261 59.6342 85.668 59.5753 85.7302 59.5648C85.7798 59.5564 85.8276 59.582 85.8501 59.6241Z" fill="#2D2D2D"/>
  <path d="M103.366 101.706C103.558 102.561 103.849 103.433 104.228 104.235C104.605 105.043 105.091 105.793 105.694 106.41C105.839 106.57 106.012 106.698 106.17 106.841C106.343 106.952 106.508 107.095 106.689 107.169C107.043 107.353 107.406 107.417 107.734 107.31C108.066 107.208 108.376 106.944 108.642 106.622C108.909 106.297 109.146 105.922 109.371 105.533L109.709 104.935L109.793 104.784L109.861 104.645C109.908 104.556 109.952 104.46 109.991 104.356C110.159 103.956 110.286 103.519 110.414 103.088C110.657 102.216 110.85 101.324 111.011 100.427C111.168 99.5288 111.288 98.625 111.394 97.7219C111.491 96.8181 111.578 95.9141 111.571 95.0065L111.57 95.0017C111.57 94.921 111.635 94.855 111.715 94.8543C111.785 94.8536 111.844 94.9024 111.859 94.968C112.069 95.893 112.093 96.8413 112.053 97.7735C112.014 98.7082 111.891 99.6337 111.737 100.552C111.581 101.471 111.391 102.384 111.147 103.291C111.017 103.744 110.891 104.195 110.706 104.648C110.665 104.76 110.614 104.874 110.555 104.99C110.499 105.108 110.443 105.219 110.389 105.314L110.052 105.922C109.819 106.331 109.57 106.744 109.246 107.128C108.926 107.506 108.517 107.883 107.961 108.055C107.827 108.107 107.682 108.119 107.538 108.133C107.392 108.158 107.253 108.126 107.11 108.115C106.965 108.109 106.842 108.05 106.709 108.015C106.572 107.98 106.46 107.915 106.342 107.856C106.097 107.747 105.909 107.584 105.698 107.443C105.514 107.278 105.316 107.125 105.152 106.944C104.465 106.24 103.963 105.402 103.577 104.534C103.188 103.661 102.907 102.767 102.732 101.817C102.7 101.642 102.815 101.474 102.99 101.442C103.16 101.411 103.324 101.52 103.362 101.687L103.366 101.706Z" fill="#2D2D2D"/>
  <path d="M109.378 106.423C110.01 106.683 110.728 106.85 111.407 106.868C112.086 106.868 112.751 106.704 113.219 106.271C113.276 106.217 113.34 106.169 113.394 106.11L113.542 105.92C113.644 105.806 113.739 105.636 113.837 105.487C114.029 105.181 114.205 104.865 114.373 104.545C114.7 103.901 114.981 103.233 115.214 102.547C115.677 101.174 115.926 99.7272 116.029 98.2668C116.084 97.5375 116.109 96.8075 116.099 96.0783C116.085 95.3525 116.047 94.6119 115.908 93.9081L115.905 93.8941C115.893 93.833 115.932 93.7735 115.994 93.7614C116.046 93.7512 116.096 93.7783 116.118 93.824C116.453 94.5331 116.594 95.2849 116.684 96.04C116.769 96.7959 116.781 97.5569 116.739 98.3123C116.653 99.8198 116.414 101.333 115.945 102.788C115.713 103.516 115.42 104.226 115.063 104.904C114.882 105.241 114.694 105.574 114.488 105.896C114.38 106.058 114.294 106.215 114.151 106.383L113.953 106.629C113.881 106.706 113.796 106.774 113.718 106.846C113.566 106.998 113.376 107.099 113.195 107.212C113.105 107.271 113.002 107.3 112.905 107.344C112.807 107.384 112.71 107.431 112.607 107.45C112.203 107.573 111.789 107.592 111.387 107.587C110.579 107.54 109.827 107.346 109.1 107.003C108.939 106.927 108.871 106.736 108.946 106.575C109.02 106.42 109.201 106.351 109.359 106.415L109.378 106.423Z" fill="#2D2D2D"/>
  <path d="M115.614 102.121C115.761 102.096 115.962 102.02 116.132 101.948L116.391 101.817L116.639 101.664C116.721 101.611 116.795 101.546 116.874 101.488C116.954 101.432 117.027 101.367 117.097 101.297L117.311 101.093L117.5 100.864C118.001 100.248 118.331 99.4937 118.541 98.7095C118.962 97.1288 118.951 95.4383 118.734 93.7749C118.625 92.9443 118.512 92.1174 118.389 91.2901C118.261 90.4638 118.092 89.6431 117.884 88.8313C117.487 87.2013 116.923 85.6126 116.354 84.0136C116.329 83.9427 116.366 83.8648 116.436 83.8396C116.503 83.816 116.576 83.8487 116.606 83.9109C117.329 85.4437 117.999 87.02 118.497 88.6617C118.745 89.4821 118.953 90.3159 119.121 91.1582C119.211 91.5782 119.279 92.0027 119.342 92.4275C119.392 92.8541 119.431 93.282 119.45 93.7108C119.475 94.1392 119.486 94.5676 119.504 94.9954C119.518 95.4243 119.511 95.8592 119.515 96.2908C119.511 96.5071 119.486 96.7239 119.472 96.9405C119.45 97.1568 119.452 97.3743 119.409 97.5895L119.303 98.2362C119.276 98.4529 119.198 98.6625 119.148 98.8759C118.918 99.7213 118.554 100.555 117.981 101.255L117.764 101.515L117.521 101.753C117.441 101.834 117.357 101.91 117.265 101.978C117.174 102.046 117.088 102.121 116.993 102.185L116.703 102.368L116.396 102.527C116.176 102.619 115.982 102.705 115.711 102.756C115.537 102.79 115.368 102.675 115.335 102.5C115.302 102.326 115.417 102.158 115.591 102.124C115.593 102.124 115.594 102.124 115.596 102.124L115.614 102.121Z" fill="#2D2D2D"/>
  <path d="M119.577 88.6447C118.734 88.6447 118.077 88.4664 118.029 88.453C117.858 88.4055 117.758 88.2285 117.805 88.0573C117.852 87.8863 118.03 87.7863 118.201 87.8333C118.348 87.8743 121.824 88.799 122.617 85.9322C123.03 84.438 122.855 83.2303 122.15 82.7012C121.855 82.4803 121.68 82.5002 121.361 82.5368C121.039 82.574 120.638 82.6199 120.045 82.4221C118.873 82.0313 117.468 81.0972 116.513 80.4287C115.607 79.795 113.713 78.8187 113.694 78.8088C113.536 78.7277 113.474 78.5338 113.555 78.3757C113.637 78.2178 113.829 78.1553 113.988 78.2369C114.068 78.2776 115.94 79.2428 116.882 79.9016C117.413 80.2735 119.03 81.4056 120.249 81.812C120.707 81.9647 121.003 81.9308 121.288 81.8977C121.656 81.8565 122.036 81.8117 122.536 82.1867C123.474 82.8908 123.73 84.3183 123.237 86.1037C122.981 87.0301 122.467 87.7167 121.711 88.1444C121.022 88.5341 120.242 88.6447 119.577 88.6447Z" fill="#2D2D2D"/>
  <path d="M114.841 80.948C114.115 79.9972 113.604 78.9371 112.987 77.9332C112.38 76.9249 111.753 75.9284 111.092 74.9575C109.778 73.0062 108.334 71.1612 106.644 69.5313C104.966 67.8814 103.179 66.3428 101.356 64.842L98.6129 62.5838C98.3835 62.3926 98.1602 62.1961 97.9372 61.9903C97.717 61.7895 97.4956 61.5559 97.3038 61.3326C97.1078 61.104 96.9189 60.8683 96.7436 60.6198C96.657 60.4948 96.5751 60.3657 96.4977 60.2323C96.4196 60.0931 96.348 59.9757 96.2994 59.7864C96.2867 59.7372 96.3164 59.687 96.3657 59.6743C96.4042 59.6644 96.4433 59.6804 96.4646 59.7114L96.4842 59.7402C96.5437 59.8274 96.6497 59.9519 96.7428 60.053C96.8401 60.1588 96.9448 60.2598 97.0499 60.3604C97.2581 60.5633 97.4733 60.761 97.6891 60.958C98.1158 61.3514 98.5695 61.6961 99.035 62.0646C99.9602 62.7944 100.911 63.5062 101.836 64.2521C103.693 65.7347 105.484 67.3111 107.184 68.9834C108.903 70.6496 110.413 72.5415 111.738 74.5223C112.402 75.5143 113.031 76.5291 113.612 77.5697C114.185 78.6141 114.808 79.6357 115.129 80.8101C115.152 80.8965 115.101 80.9857 115.015 81.0093C114.949 81.0273 114.882 81.0023 114.843 80.9514L114.841 80.948Z" fill="#2D2D2D"/>
  <path d="M46.5618 27.2402C46.4938 27.2402 46.4255 27.2187 46.367 27.1745C43.8399 25.2493 43.2885 23.5588 43.1549 21.1126C43.0585 19.3504 43.6536 16.7972 45.6124 14.9162C47.3251 13.2717 49.7315 12.5463 52.5675 12.8164C58.4832 13.3811 59.149 18.2404 59.155 18.2894C59.1766 18.4657 59.0512 18.6263 58.8751 18.648C58.6954 18.6711 58.5386 18.5444 58.5165 18.3685C58.4933 18.1863 57.8932 13.971 52.5064 13.4568C49.8621 13.2043 47.6315 13.8692 46.0579 15.3802C44.2542 17.1122 43.7129 19.5318 43.7973 21.0775C43.9229 23.3825 44.4151 24.8791 46.757 26.6627C46.8982 26.7704 46.9255 26.9721 46.8179 27.1135C46.7546 27.1965 46.6587 27.2402 46.5618 27.2402Z" fill="#2D2D2D"/>
  <path fill-rule="evenodd" clip-rule="evenodd" d="M100.482 97.7337C99.9497 95.3601 98.5775 90.4678 95.6687 86.5202C94.7054 85.2128 90.956 76.595 90.956 76.595L86.3147 61.7428C86.3147 61.7428 87.4096 72.8819 89.5993 82.0217C90.5436 85.9628 91.8285 88.5895 93.0307 91.0468C94.5794 94.2126 95.9905 97.0973 96.3582 102.149C97.825 100.768 99.2027 99.2927 100.482 97.7337Z" fill="black" fill-opacity="0.1"/>
  <path d="M65.7369 54.8914C66.2131 54.2201 66.7985 53.6458 67.4682 53.171C67.8044 52.9365 68.1589 52.7243 68.519 52.5213C68.8807 52.3214 69.2577 52.1396 69.6732 52.0165C69.8814 51.9558 70.0995 51.9075 70.3361 51.9006C70.5696 51.8947 70.836 51.9312 71.0727 52.0796C71.3116 52.2244 71.4708 52.4699 71.5493 52.699C71.6313 52.9319 71.6601 53.1612 71.664 53.3814C71.6637 53.6082 71.6515 53.7962 71.6354 54.0022C71.6204 54.2043 71.6012 54.4065 71.5708 54.6085C71.5022 55.0132 71.4306 55.4126 71.191 55.804C71.1681 55.8414 71.1192 55.8532 71.0817 55.8303C71.0573 55.8153 71.0438 55.7892 71.0437 55.7625L71.0438 55.7332L71.046 54.5652C71.0502 54.1782 71.0674 53.7624 71.0653 53.3955C71.0597 53.0369 70.9664 52.7027 70.757 52.5786C70.5515 52.435 70.1753 52.4586 69.8275 52.5555C69.1168 52.7646 68.4262 53.1703 67.8176 53.65C67.1976 54.122 66.5742 54.6043 65.93 55.0749L65.9259 55.0779C65.8659 55.1217 65.7818 55.1086 65.738 55.0486C65.703 55.0007 65.7044 54.9373 65.7369 54.8914Z" fill="#757582"/>
  <path d="M70.7413 52.2934C70.6856 52.2934 70.6294 52.2763 70.581 52.2411C70.4589 52.1523 70.4319 51.9815 70.5207 51.8594C71.1453 51.0007 71.19 50.314 71.1903 50.3071C71.1991 50.1565 71.3302 50.0447 71.4782 50.0495C71.6289 50.0578 71.7442 50.1867 71.736 50.3375C71.7341 50.3719 71.6808 51.1933 70.9625 52.1808C70.909 52.2543 70.8257 52.2934 70.7413 52.2934Z" fill="#757582"/>
  <path d="M69.8334 44.8005C69.6221 44.8923 69.4938 45.8758 69.5504 46.6964C69.601 47.4304 69.7475 49.5888 71.418 50.658C72.1254 51.1107 74.214 49.3215 75.1389 48.3365C75.3554 48.106 75.952 47.0001 75.4928 46.6115C75.1249 46.3002 74.5685 46.4621 73.783 46.8191C73.0845 47.1366 72.8467 47.476 72.5929 47.6046C72.5325 47.6353 72.3801 46.4983 71.3897 45.4796C71.01 45.089 70.4842 44.5175 69.8334 44.8005Z" fill="url(#paint16_linear_3940_79254)"/>
  <path d="M112.03 90.9689C111.674 91.4299 111.251 91.814 110.766 92.1336C110.283 92.4495 109.732 92.6865 109.143 92.7757C108.557 92.8538 107.946 92.824 107.371 92.5582C107.086 92.4262 106.83 92.2154 106.637 91.9629C106.448 91.7059 106.319 91.4122 106.253 91.1141C106.116 90.5152 106.168 89.9135 106.299 89.3463C106.427 88.7819 106.671 88.2241 106.969 87.7433C107.556 86.771 108.31 85.8552 109.337 85.2639C109.847 84.9724 110.43 84.7832 111.027 84.7493C111.625 84.7105 112.222 84.8357 112.763 85.0473C113.306 85.2568 113.824 85.5599 114.256 85.9665C114.689 86.3704 115.033 86.877 115.238 87.4379C115.444 87.9975 115.514 88.611 115.408 89.2101C115.354 89.5093 115.252 89.8057 115.083 90.0765C114.903 90.3401 114.705 90.5555 114.475 90.7482C114.022 91.1348 113.498 91.4099 112.952 91.6093C112.403 91.8002 111.833 91.9328 111.226 91.9188C111.087 91.9156 110.977 91.8004 110.98 91.6614C110.984 91.5224 111.099 91.4124 111.238 91.4156L111.239 91.4156L111.244 91.4157C111.751 91.429 112.285 91.3102 112.782 91.1357C113.279 90.9542 113.754 90.7024 114.148 90.3655C114.346 90.203 114.524 90.0015 114.658 89.8069C114.784 89.6051 114.868 89.3678 114.912 89.1201C115.001 88.6236 114.943 88.0929 114.765 87.6108C114.414 86.6323 113.569 85.8853 112.581 85.5165C112.089 85.3247 111.572 85.2186 111.057 85.2519C110.542 85.2815 110.04 85.4428 109.585 85.7017C108.672 86.2245 107.955 87.0791 107.401 88.0012C107.115 88.4663 106.911 88.9413 106.789 89.4616C106.67 89.9728 106.629 90.5107 106.743 90.9992C106.797 91.2438 106.9 91.4684 107.039 91.6605C107.185 91.8472 107.368 92.0024 107.589 92.1045C108.027 92.3069 108.571 92.3538 109.082 92.3018C110.115 92.1979 111.107 91.6003 111.82 90.807L111.827 90.7991C111.876 90.7446 111.96 90.74 112.014 90.789C112.066 90.8356 112.072 90.9144 112.03 90.9689Z" fill="#2D2D2D"/>
  <path d="M103.232 101.434C103.082 101.434 102.931 101.408 102.788 101.344C102.375 101.159 102.13 100.717 102.059 100.03C101.837 97.8817 102.164 96.4811 103.151 95.3475C103.98 94.3965 104.571 93.9767 105.042 94.0128C105.203 94.0218 105.433 94.0887 105.615 94.3541C105.694 94.4686 105.665 94.6253 105.551 94.704C105.436 94.7827 105.279 94.754 105.201 94.6393C105.129 94.5347 105.063 94.518 105.013 94.5153C104.85 94.5044 104.432 94.6439 103.531 95.6779C102.632 96.71 102.351 97.9557 102.56 99.9778C102.611 100.473 102.757 100.778 102.994 100.885C103.371 101.054 103.979 100.717 104.162 100.585C104.274 100.504 104.432 100.53 104.513 100.642C104.594 100.755 104.569 100.912 104.456 100.994C104.425 101.016 103.835 101.434 103.232 101.434Z" fill="#2D2D2D"/>
  <path d="M107.706 107.826C107.506 107.826 107.252 107.78 107.002 107.608C106.42 107.207 106.117 106.309 106.102 104.941C106.069 101.914 107.472 99.1831 108.877 97.82C109.74 96.9818 110.444 96.659 110.969 96.8608C111.435 97.0394 111.693 97.5785 111.756 98.509C111.765 98.6478 111.66 98.7677 111.522 98.777C111.384 98.7917 111.263 98.6816 111.254 98.5429C111.207 97.8582 111.042 97.4278 110.789 97.3305C110.475 97.2115 109.907 97.5209 109.227 98.181C108.237 99.1424 106.57 101.647 106.606 104.935C106.622 106.416 106.982 106.977 107.281 107.188C107.587 107.404 107.903 107.298 107.916 107.293C108.046 107.249 108.19 107.316 108.236 107.446C108.283 107.576 108.217 107.719 108.088 107.766C108.076 107.771 107.924 107.826 107.706 107.826Z" fill="#2D2D2D"/>
  <path d="M112.898 107.008C112.815 107.008 112.732 106.997 112.649 106.97C112.278 106.853 112.032 106.483 111.916 105.87C111.46 103.462 111.92 100.873 113.115 99.1126C113.861 98.0142 114.451 97.5223 114.99 97.5616C115.333 97.5876 115.617 97.832 115.835 98.2884C116.251 99.1572 116.242 100.204 116.17 101.207C116.16 101.345 116.045 101.452 115.901 101.44C115.763 101.43 115.658 101.31 115.668 101.171C115.735 100.238 115.746 99.2686 115.381 98.5058C115.246 98.2237 115.102 98.0751 114.952 98.0636C114.772 98.0494 114.341 98.204 113.531 99.3956C112.408 101.05 111.979 103.495 112.411 105.777C112.487 106.182 112.626 106.435 112.8 106.49C113.046 106.569 113.426 106.3 113.571 106.159C113.671 106.062 113.83 106.064 113.928 106.164C114.024 106.263 114.022 106.423 113.923 106.52C113.864 106.576 113.404 107.008 112.898 107.008Z" fill="#2D2D2D"/>
  <path d="M116.555 97.1816C116.553 97.1816 116.551 97.1816 116.549 97.1816C116.412 97.1786 116.303 97.0702 116.303 96.9334C116.303 96.8148 116.588 94.7138 117.276 93.7194C117.606 93.2433 117.957 93.0207 118.313 93.0557C118.724 93.0961 119.07 93.4558 119.374 94.1552C119.429 94.2828 119.371 94.4311 119.243 94.4865C119.116 94.5406 118.968 94.4833 118.912 94.3557C118.7 93.8677 118.464 93.5762 118.264 93.5566C118.101 93.5369 117.901 93.7008 117.69 94.0061C117.098 94.8607 116.812 96.8004 116.806 96.9372C116.8 97.0724 116.689 97.1816 116.555 97.1816Z" fill="#2D2D2D"/>
  <path d="M53.046 37.5545C52.7751 38.9092 52.7128 40.4583 54.6169 41.696C56.0679 42.6391 58.2348 42.7909 60.6625 41.6484C62.628 40.7234 63.6504 40.0927 65.944 37.3163C68.1015 34.7045 68.8026 29.6524 65.3752 27.3675C62.8863 25.7082 59.7315 25.4569 56.9495 27.1533C54.0219 28.9384 54.1032 31.5955 53.8077 33.2703C53.6373 34.2355 53.3316 36.1264 53.046 37.5545Z" fill="url(#paint17_radial_3940_79254)"/>
  <path d="M81.7805 31.4435C79.9587 31.6788 77.5014 33.2219 77.9246 38.5125C78.0675 40.2976 78.8792 41.9722 80.1382 45.2246C80.995 47.4381 84.1389 47.7961 85.922 46.367C87.705 44.938 87.3119 42.3775 88.0284 39.6907C89.1709 35.4064 87.4929 30.7056 81.7805 31.4435Z" fill="url(#paint18_radial_3940_79254)"/>
  <path d="M90.5395 33.8359C90.4021 33.8359 90.2748 33.7472 90.2322 33.6092C90.1798 33.4394 90.2748 33.2593 90.4444 33.2069C93.4757 32.2693 94.6359 31.0593 95.0428 28.4111C95.2897 26.8041 94.7673 24.9911 93.6459 23.5615C92.4698 22.0625 90.7943 21.1463 88.9284 20.9816C85.5147 20.68 84.2024 22.571 84.1893 22.5901C84.0902 22.7374 83.89 22.777 83.743 22.6775C83.5956 22.5784 83.5565 22.3786 83.6556 22.2313C83.7168 22.1403 85.196 20.0054 88.9849 20.3409C91.03 20.5213 92.865 21.524 94.152 23.1644C95.3812 24.7314 95.9518 26.7293 95.6787 28.5088C95.2318 31.4176 93.9119 32.8077 90.6345 33.8214C90.6028 33.8312 90.5709 33.8359 90.5395 33.8359Z" fill="#2D2D2D"/>
  <path d="M45.3302 44.3814C44.7916 43.3612 44.3811 42.2905 44.0519 41.189C43.7263 40.0875 43.4971 38.9545 43.3738 37.8059C43.1182 35.4934 43.5038 33.1329 44.3111 30.9731C44.7182 29.8906 45.2232 28.845 45.8338 27.8598C46.1443 27.3704 46.472 26.8906 46.8382 26.4369C47.2035 25.9864 47.5847 25.5534 47.9842 25.14C49.5782 23.4829 51.3518 22.0169 53.2566 20.7373C54.2105 20.1 55.2006 19.5133 56.2307 18.9982C56.4857 18.8645 56.7482 18.7452 57.011 18.6265C57.2702 18.5031 57.5395 18.3915 57.8122 18.2841C58.358 18.078 58.9123 17.9026 59.4726 17.7576C61.7177 17.1883 64.0209 16.9967 66.3105 16.9926C68.6021 16.9974 70.8911 17.2029 73.1459 17.6236C74.2735 17.832 75.3912 18.1028 76.4916 18.4412C77.5956 18.7697 78.6685 19.2198 79.706 19.6885C81.7862 20.6341 83.8294 21.7447 85.5944 23.2704C86.4722 24.0325 87.2702 24.9058 87.9118 25.8878C88.5587 26.8663 89.0455 27.9386 89.4317 29.023C90.1778 31.1935 90.7976 33.38 91.3061 35.608L92.0422 38.9289C92.1703 39.4786 92.3009 40.0274 92.4416 40.5735C92.5849 41.1243 92.7113 41.7026 92.7961 42.2733C93.1348 44.5671 93.0393 46.9132 92.5051 49.1693C92.2332 50.2955 91.8443 51.4003 91.2991 52.4354C91.0264 52.9524 90.7139 53.451 90.3566 53.919C90.1803 54.1531 89.9867 54.3818 89.7905 54.5918L89.4964 54.9122L89.1893 55.2197C87.5416 56.8545 85.5641 58.1129 83.4757 59.068C81.3722 59.994 79.1565 60.6701 76.8641 60.8818C76.7834 60.8892 76.712 60.8299 76.7045 60.7492C76.6976 60.6744 76.7481 60.6076 76.8198 60.5923L76.8274 60.5907C77.3718 60.4738 77.9226 60.3417 78.462 60.1863C79.0043 60.0386 79.5424 59.8767 80.0738 59.6963C81.1373 59.3389 82.1869 58.9417 83.1964 58.4596C85.2222 57.5205 87.1275 56.2969 88.698 54.725L88.991 54.4298L89.2708 54.1223C89.4605 53.9172 89.6336 53.712 89.7979 53.493C90.128 53.0589 90.419 52.5929 90.6743 52.1065C91.1848 51.1329 91.5539 50.0813 91.8115 49.0034C92.3192 46.8447 92.4067 44.5751 92.0774 42.3836C91.9938 41.8325 91.8771 41.3018 91.7339 40.7552C91.5903 40.2035 91.4569 39.6492 91.3263 39.0948L90.5814 35.7743C90.0761 33.5809 89.449 31.3985 88.7173 29.2806C88.341 28.2308 87.8793 27.224 87.2725 26.3095C86.6707 25.3922 85.923 24.576 85.0882 23.8536C83.4107 22.4088 81.424 21.3268 79.3857 20.3936C78.3578 19.9277 77.3351 19.4957 76.264 19.1745C75.1971 18.8441 74.1074 18.5773 73.0051 18.3713C70.8011 17.9552 68.5537 17.7486 66.3092 17.7394C64.0677 17.7381 61.8133 17.9242 59.6557 18.4672C59.1177 18.6053 58.5893 18.7717 58.0737 18.965C57.8185 19.0651 57.5637 19.1696 57.3104 19.2896C57.0561 19.4037 56.802 19.5182 56.5543 19.6475C55.5545 20.1444 54.588 20.7137 53.6548 21.3341C51.7918 22.5786 50.0453 24.016 48.4908 25.6249C48.1012 26.026 47.7314 26.4445 47.3816 26.8738C47.0344 27.3023 46.7208 27.7598 46.423 28.2272C45.8369 29.1692 45.349 30.1747 44.9561 31.2139C44.1756 33.2952 43.8091 35.5321 44.0457 37.7392C44.2703 39.9534 44.8192 42.1498 45.5883 44.2587L45.5909 44.2657C45.618 44.3399 45.5798 44.422 45.5056 44.449C45.4376 44.4738 45.363 44.4438 45.3302 44.3814Z" fill="#2D2D2D"/>
  <path d="M63.7581 34.8109C63.3576 37.0995 61.345 38.1111 59.8688 37.8698C58.447 37.6374 57.781 36.6865 57.7856 34.4898C57.7874 33.6598 57.8608 32.5809 58.7813 31.6735C59.4978 30.9672 60.5591 30.7088 61.4866 30.8166C63.4916 31.0497 64.1595 32.5168 63.7581 34.8109Z" fill="white"/>
  <path d="M61.1991 36.2125C62.254 36.2125 63.1092 35.3351 63.1092 34.2528C63.1092 33.1705 62.254 32.2931 61.1991 32.2931C60.1441 32.2931 59.2889 33.1705 59.2889 34.2528C59.2889 35.3351 60.1441 36.2125 61.1991 36.2125Z" fill="#4C629B"/>
  <path d="M61.2573 35.1808C61.7626 35.1808 62.1722 34.7786 62.1722 34.2825C62.1722 33.7864 61.7626 33.3843 61.2573 33.3843C60.752 33.3843 60.3424 33.7864 60.3424 34.2825C60.3424 34.7786 60.752 35.1808 61.2573 35.1808Z" fill="#363638"/>
  <path d="M85.0978 39.2367C84.7878 41.2853 83.1886 42.0679 81.9254 41.9195C80.7944 41.7866 80.1361 40.8122 80.2788 38.967C80.3361 38.2267 80.4241 37.3447 81.1506 36.5329C81.7162 35.9011 82.5725 35.7798 83.3045 35.8762C84.887 36.0847 85.3448 37.6045 85.0978 39.2367Z" fill="white"/>
  <path d="M82.7795 40.5026C83.6121 40.5026 84.2871 39.8113 84.2871 38.9586C84.2871 38.1058 83.6121 37.4146 82.7795 37.4146C81.9469 37.4146 81.2719 38.1058 81.2719 38.9586C81.2719 39.8113 81.9469 40.5026 82.7795 40.5026Z" fill="#4C629B"/>
  <path d="M82.7793 39.6807C83.1881 39.6807 83.5194 39.3565 83.5194 38.9566C83.5194 38.5566 83.1881 38.2324 82.7793 38.2324C82.3706 38.2324 82.0392 38.5566 82.0392 38.9566C82.0392 39.3565 82.3706 39.6807 82.7793 39.6807Z" fill="#363638"/>
  <path d="M58.2365 32.0761C58.1751 32.0761 58.1131 32.0567 58.0606 32.0166C57.9328 31.9193 57.9077 31.7375 58.0044 31.6095C58.0489 31.5508 59.1165 30.1722 61.2888 30.1722C61.2924 30.1722 61.2957 30.1722 61.2992 30.1722C62.5517 30.175 63.2763 30.8262 63.3063 30.8539C63.4248 30.9626 63.433 31.147 63.3241 31.2655C63.2156 31.384 63.0321 31.3922 62.9136 31.2844C62.9029 31.2749 62.3103 30.7573 61.2981 30.7551C61.2948 30.7551 61.2918 30.7551 61.2888 30.7551C59.4169 30.7551 58.5063 31.9125 58.4687 31.9618C58.411 32.0366 58.3242 32.0761 58.2365 32.0761Z" fill="#363638"/>
  <path d="M85.2271 38.2905C85.1016 37.9792 85.0425 37.6533 84.9091 37.3619C84.7767 37.0717 84.6038 36.8 84.3659 36.5845C84.1336 36.3635 83.8499 36.2169 83.5267 36.111C83.2112 36.0067 82.8535 35.9457 82.5296 35.9511L82.5183 35.9513C82.357 35.954 82.224 35.8254 82.2213 35.6641C82.2186 35.5028 82.3472 35.3698 82.5085 35.3671C82.5198 35.3669 82.5311 35.3674 82.5421 35.3685C82.9453 35.4083 83.3116 35.4697 83.692 35.5794C83.8794 35.6368 84.0661 35.7061 84.2479 35.7963C84.4305 35.8864 84.6039 36.0085 84.7597 36.136C85.0747 36.3966 85.325 36.7393 85.4872 37.1133C85.6339 37.4929 85.7386 37.8918 85.6075 38.3095C85.5752 38.4122 85.4658 38.4693 85.3631 38.4371C85.3055 38.419 85.2622 38.3767 85.241 38.3249L85.2271 38.2905Z" fill="#363638"/>
  <path d="M76.9468 33.3924C75.9359 33.4718 75.2833 33.4558 74.8726 33.4163C74.8297 33.4122 74.7903 33.4066 74.7478 33.3994C74.5894 33.3725 74.3945 33.3385 74.2351 33.3105C74.0784 33.2774 73.8843 33.2362 73.7265 33.2019C73.6841 33.1927 73.6453 33.1831 73.6038 33.1709C73.2088 33.0545 72.5984 32.8262 71.6852 32.3748C71.6852 32.3748 63.1984 27.7997 51.1638 27.3628C50.0956 27.324 49.2093 28.2226 49.2374 29.3172L49.2408 29.4489C49.2558 30.0353 49.5232 30.5983 50.0002 30.9185C50.2906 31.1134 50.5685 31.452 50.6192 32.0389C50.6192 32.0389 50.7069 37.2372 51.2825 39.6456C51.2825 39.6456 51.7662 41.98 54.5596 43.4291C54.5596 43.4291 59.7862 45.9879 64.6124 44.4644C64.6124 44.4644 66.6678 44.3289 70.1125 39.4412C70.1125 39.4412 71.3392 37.6238 71.7749 36.9726C72.2347 36.2856 72.2263 35.9413 73.5316 36.0566C73.5481 36.0577 73.6145 36.0684 73.6988 36.0836C73.7828 36.1009 74.0593 36.2082 74.0776 36.2121C75.0502 36.4187 75.0628 37.0259 75.1964 37.4667C75.381 38.0763 75.7265 39.6678 75.7265 39.6678C76.7872 43.4702 77.4005 44.8635 78.776 46.0917C81.1925 48.2495 85.1773 48.1099 85.1773 48.1099C88.3075 47.8063 89.575 46.4002 90.3012 45.3177C91.6815 43.2603 92.142 40.0244 92.142 40.0244C92.4072 39.4994 92.5311 39.2194 92.8727 39.1465C93.4351 39.0266 93.6339 38.5345 93.8662 37.9953L93.9185 37.8739C94.3515 36.869 94.1234 35.7751 93.1185 35.413C81.788 31.3306 76.9468 33.3924 76.9468 33.3924ZM69.4875 35.9502C68.8128 38.1168 67.6823 40.5418 65.9617 42.0571C64.09 43.7071 61.69 43.7525 59.3603 43.4142C57.3267 43.1224 54.9553 42.5364 53.5178 40.9242C52.0263 39.2539 51.8032 31.8404 53.8634 30.217C54.7923 29.4877 55.876 29.4048 56.9956 29.4789C59.0555 29.6192 61.4431 29.9201 63.4195 30.5021C69.7601 32.376 70.0305 34.1976 69.4875 35.9502ZM87.8998 46.1772C86.4174 46.9299 85.1019 47.3739 82.7348 46.9105C80.5565 46.484 79.431 45.505 78.5856 43.5513C77.6729 41.4423 77.4784 39.7927 77.6572 37.5302C77.8067 35.7015 78.7101 34.2562 84.2342 34.8696C86.284 35.0971 86.4385 35.0855 88.4 35.7228C89.4665 36.0715 89.7378 36.2406 90.3312 37.2632C91.6374 39.5376 90.2611 44.9781 87.8998 46.1772Z" fill="#CD3536"/>
  <path d="M85.0061 48.3912C84.1483 48.3912 80.7835 48.2594 78.5896 46.3003C77.1162 44.9845 76.4877 43.4382 75.457 39.7429C75.4496 39.7112 75.108 38.1396 74.9288 37.5477C74.91 37.485 74.893 37.4194 74.8758 37.3519C74.7775 36.9638 74.6923 36.6286 74.0193 36.4856C74.01 36.4835 73.9644 36.4693 73.903 36.4468C73.8432 36.425 73.684 36.3668 73.6419 36.3574C73.5818 36.3467 73.5272 36.3374 73.5062 36.335C72.556 36.2507 72.4675 36.3907 72.1813 36.8546C72.1294 36.9388 72.0729 37.03 72.0073 37.1281C71.5717 37.7796 70.3443 39.5977 70.3443 39.5977C67.0768 44.234 64.9924 44.6948 64.6715 44.7391C59.803 46.2628 54.6537 43.7867 54.4366 43.6802C51.5522 42.1841 51.0295 39.8028 51.0084 39.7022C50.4344 37.3001 50.3431 32.2571 50.3396 32.0437C50.3054 31.6552 50.1383 31.3482 49.8442 31.1506C49.3094 30.7916 48.9792 30.1581 48.9612 29.4561L48.9576 29.3247C48.9421 28.717 49.1797 28.1248 49.6093 27.6995C50.0326 27.2807 50.5881 27.0617 51.1739 27.0832C63.1352 27.5175 71.7326 32.0826 71.818 32.1286C72.5612 32.4959 73.1915 32.7579 73.6826 32.9025C73.7178 32.9129 73.75 32.9208 73.7853 32.9284L74.293 33.0368C74.4424 33.0629 74.6366 33.0968 74.7944 33.1237C74.8305 33.1298 74.8638 33.1345 74.9001 33.138C75.4027 33.1865 76.0696 33.1797 76.8824 33.1169C77.4286 32.9045 82.3509 31.2362 93.2132 35.1499C93.6944 35.3232 94.0517 35.6523 94.2464 36.1015C94.4824 36.6459 94.4564 37.3322 94.1751 37.9846L94.1057 38.1458C93.8673 38.7 93.6207 39.273 92.9311 39.4201C92.7481 39.459 92.6601 39.617 92.4332 40.0682L92.4122 40.1101C92.348 40.5318 91.8597 43.4971 90.5334 45.4735C89.7324 46.6675 88.4026 48.078 85.2042 48.3881C85.1834 48.389 85.1148 48.3912 85.0061 48.3912ZM73.1041 35.7558C73.2385 35.7558 73.3882 35.7631 73.5561 35.7779C73.5695 35.7788 73.6487 35.7904 73.7484 35.8083C73.8208 35.8231 73.9254 35.8595 74.0953 35.9216L74.1589 35.9445C75.1489 36.1538 75.3109 36.792 75.4179 37.2144C75.433 37.2732 75.4474 37.3307 75.4641 37.3855C75.6498 37.9989 75.9855 39.5431 75.9997 39.6085C77.0703 43.4451 77.6804 44.7384 78.9621 45.883C81.268 47.9423 85.1288 47.8317 85.1673 47.8303C88.1155 47.544 89.3366 46.2538 90.0691 45.1619C91.3984 43.1806 91.8607 40.0168 91.8651 39.985L91.8717 39.9395L91.9337 39.8166C92.1811 39.325 92.3597 38.9698 92.8145 38.873C93.2023 38.7903 93.3552 38.4749 93.592 37.9246L93.6614 37.7633C93.8818 37.2519 93.908 36.7273 93.7332 36.3239C93.5994 36.0156 93.3607 35.7976 93.0237 35.6762C81.9642 31.6913 77.1033 33.6303 77.0558 33.65L77.0143 33.6675L76.9687 33.6713C76.1048 33.7393 75.3901 33.7471 74.8458 33.6948C74.7955 33.6897 74.7502 33.6834 74.701 33.6751C74.5421 33.6482 74.3468 33.6141 74.1868 33.5859L73.667 33.4751C73.6179 33.4645 73.5728 33.4533 73.5242 33.439C73.0028 33.2852 72.3421 33.0116 71.5613 32.6255C71.4682 32.5756 62.9782 28.0715 51.1537 27.6423C50.7258 27.6263 50.315 27.788 50.0028 28.097C49.6822 28.4141 49.5052 28.8563 49.517 29.3099L49.5205 29.4414C49.5339 29.9628 49.7712 30.4281 50.1561 30.6863C50.5914 30.9788 50.8478 31.4382 50.8978 32.0147C50.8997 32.0859 50.9926 37.2297 51.5544 39.5805C51.5607 39.6101 52.0569 41.8158 54.6884 43.1808C54.7337 43.2029 59.8682 45.6683 64.5284 44.1978L64.5942 44.1853C64.6098 44.1838 66.5967 43.9443 69.8839 39.2801C69.8836 39.2802 71.1074 37.4673 71.5425 36.817C71.6039 36.7251 71.6566 36.6396 71.7055 36.5607C72.0201 36.0511 72.2479 35.7558 73.1041 35.7558ZM84.5219 47.3827C83.9719 47.3827 83.3696 47.3197 82.6809 47.1849C80.4577 46.7496 79.2374 45.762 78.3288 43.6623C77.4431 41.6158 77.1855 39.9478 77.3784 37.5081C77.4343 36.8251 77.5958 35.9615 78.3558 35.335C79.3767 34.4935 81.2547 34.2568 84.2652 34.5917L84.6336 34.6322C86.3572 34.8219 86.6222 34.8511 88.4862 35.4568C89.6067 35.8233 89.9337 36.0207 90.5733 37.1228C91.2555 38.3111 91.2932 40.4292 90.6697 42.52C90.1052 44.4123 89.1171 45.8726 88.0265 46.4265C86.8527 47.0224 85.838 47.3827 84.5219 47.3827ZM81.9295 35.0059C80.3894 35.0059 79.3284 35.2581 78.7114 35.7666C78.2384 36.1566 78.0062 36.6908 77.9361 37.5529C77.7512 39.8908 77.9967 41.4867 78.8422 43.4403C79.6774 45.3701 80.7469 46.2363 82.7885 46.636C85.1839 47.1045 86.4635 46.5927 87.7731 45.9278C88.7298 45.4419 89.6122 44.1083 90.1336 42.3601C90.7156 40.4091 90.6978 38.4632 90.0888 37.4024C89.5325 36.4441 89.329 36.3209 88.313 35.9887C86.5039 35.4008 86.284 35.3766 84.5724 35.1883L84.2035 35.1475C83.3538 35.0532 82.5967 35.0059 81.9295 35.0059ZM61.4597 43.865C60.7127 43.865 59.987 43.7878 59.3201 43.691C57.4941 43.429 54.8834 42.8762 53.3091 41.1104C52.2992 39.9793 51.9217 36.7164 52.1405 34.2155C52.2456 33.0134 52.587 30.8667 53.6901 29.9972C54.7438 29.17 55.9616 29.1301 57.0142 29.1997C58.7791 29.32 61.3362 29.5971 63.4985 30.2337C66.9949 31.2671 68.9495 32.3579 69.6501 33.6665C70.1204 34.5451 69.9529 35.3927 69.7547 36.0329V36.0333C69.156 37.9545 68.0444 40.5957 66.1466 42.267C64.7291 43.5165 63.0465 43.865 61.4597 43.865ZM56.3833 29.7363C55.594 29.7363 54.7564 29.8715 54.0359 30.4369C53.3512 30.9765 52.8634 32.3717 52.6979 34.2642C52.4639 36.9368 52.9254 39.8409 53.7265 40.738C55.1792 42.3674 57.6601 42.8876 59.3998 43.1374C61.3646 43.4224 63.8639 43.5337 65.7768 41.8474C67.5774 40.2615 68.6434 37.7199 69.2205 35.867C69.4706 35.0599 69.4515 34.4807 69.1571 33.9306C68.5401 32.7785 66.6376 31.7447 63.3403 30.7703C61.2267 30.148 58.7132 29.8762 56.9765 29.7578C56.784 29.7451 56.5851 29.7363 56.3833 29.7363Z" fill="#8F282D"/>
  <defs>
    <radialGradient id="paint0_radial_3940_79254" cx="0" cy="0" r="1" gradientUnits="userSpaceOnUse" gradientTransform="translate(56.9117 86.6343) rotate(26.1351) scale(51.3686 67.3934)">
      <stop stop-color="white"/>
      <stop offset="0.202717" stop-color="#F1F1F4"/>
      <stop offset="0.597312" stop-color="#B9BDCD"/>
      <stop offset="1" stop-color="#D6D9E2"/>
    </radialGradient>
    <radialGradient id="paint1_radial_3940_79254" cx="0" cy="0" r="1" gradientUnits="userSpaceOnUse" gradientTransform="translate(63.4469 38.1073) scale(35.7267 36.9565)">
      <stop offset="0.428465" stop-color="#F1F1F4"/>
      <stop offset="0.830486" stop-color="#CDD3DD"/>
      <stop offset="0.956186" stop-color="#E1E3EA"/>
    </radialGradient>
    <linearGradient id="paint2_linear_3940_79254" x1="66.5412" y1="6.1397" x2="62.6618" y2="119.835" gradientUnits="userSpaceOnUse">
      <stop offset="0.458058" stop-color="#3D3D48"/>
      <stop offset="0.825318" stop-color="#666573"/>
    </linearGradient>
    <linearGradient id="paint3_linear_3940_79254" x1="21.3387" y1="71.5096" x2="20.2177" y2="104.363" gradientUnits="userSpaceOnUse">
      <stop offset="0.114281" stop-color="#46464F"/>
      <stop offset="0.774302" stop-color="#404049"/>
    </linearGradient>
    <linearGradient id="paint4_linear_3940_79254" x1="55.8249" y1="22.3155" x2="41.6415" y2="16.4487" gradientUnits="userSpaceOnUse">
      <stop offset="0.217877" stop-color="#3F3E49"/>
      <stop offset="0.995531" stop-color="#5C5B68"/>
    </linearGradient>
    <linearGradient id="paint5_linear_3940_79254" x1="106.391" y1="88.7967" x2="115.103" y2="88.7967" gradientUnits="userSpaceOnUse">
      <stop offset="0.114281" stop-color="#46464F"/>
      <stop offset="0.774302" stop-color="#404049"/>
    </linearGradient>
    <linearGradient id="paint6_linear_3940_79254" x1="102.169" y1="97.708" x2="105.863" y2="97.708" gradientUnits="userSpaceOnUse">
      <stop offset="0.114281" stop-color="#46464F"/>
      <stop offset="0.774302" stop-color="#404049"/>
    </linearGradient>
    <linearGradient id="paint7_linear_3940_79254" x1="106.312" y1="102.41" x2="111.57" y2="102.41" gradientUnits="userSpaceOnUse">
      <stop offset="0.114281" stop-color="#46464F"/>
      <stop offset="0.774302" stop-color="#404049"/>
    </linearGradient>
    <linearGradient id="paint8_linear_3940_79254" x1="111.907" y1="102.267" x2="115.944" y2="102.267" gradientUnits="userSpaceOnUse">
      <stop offset="0.114281" stop-color="#46464F"/>
      <stop offset="0.774302" stop-color="#404049"/>
    </linearGradient>
    <linearGradient id="paint9_linear_3940_79254" x1="115.983" y1="97.8692" x2="119.24" y2="97.8692" gradientUnits="userSpaceOnUse">
      <stop offset="0.114281" stop-color="#46464F"/>
      <stop offset="0.774302" stop-color="#404049"/>
    </linearGradient>
    <linearGradient id="paint10_linear_3940_79254" x1="14.4785" y1="83.3598" x2="23.2804" y2="83.3598" gradientUnits="userSpaceOnUse">
      <stop offset="0.114281" stop-color="#46464F"/>
      <stop offset="0.774302" stop-color="#404049"/>
    </linearGradient>
    <linearGradient id="paint11_linear_3940_79254" x1="17.134" y1="95.2402" x2="22.443" y2="95.2402" gradientUnits="userSpaceOnUse">
      <stop offset="0.114281" stop-color="#46464F"/>
      <stop offset="0.774302" stop-color="#404049"/>
    </linearGradient>
    <linearGradient id="paint12_linear_3940_79254" x1="23.2036" y1="93.6125" x2="26.0724" y2="93.6125" gradientUnits="userSpaceOnUse">
      <stop offset="0.114281" stop-color="#46464F"/>
      <stop offset="0.774302" stop-color="#404049"/>
    </linearGradient>
    <linearGradient id="paint13_linear_3940_79254" x1="11.895" y1="94.3137" x2="16.3805" y2="94.3137" gradientUnits="userSpaceOnUse">
      <stop offset="0.114281" stop-color="#46464F"/>
      <stop offset="0.774302" stop-color="#404049"/>
    </linearGradient>
    <linearGradient id="paint14_linear_3940_79254" x1="7.65265" y1="90.6468" x2="11.1124" y2="90.6468" gradientUnits="userSpaceOnUse">
      <stop offset="0.114281" stop-color="#46464F"/>
      <stop offset="0.774302" stop-color="#404049"/>
    </linearGradient>
    <linearGradient id="paint15_linear_3940_79254" x1="91.2682" y1="30.9704" x2="88.9263" y2="20.0004" gradientUnits="userSpaceOnUse">
      <stop offset="0.217877" stop-color="#3F3E49"/>
      <stop offset="0.995531" stop-color="#5C5B68"/>
    </linearGradient>
    <linearGradient id="paint16_linear_3940_79254" x1="71.0179" y1="51.1306" x2="72.6886" y2="46.1022" gradientUnits="userSpaceOnUse">
      <stop stop-color="#3D3D48"/>
      <stop offset="1" stop-color="#555361"/>
    </linearGradient>
    <radialGradient id="paint17_radial_3940_79254" cx="0" cy="0" r="1" gradientUnits="userSpaceOnUse" gradientTransform="translate(60.33 34.2254) scale(8.95956 7.18086)">
      <stop offset="0.276536" stop-color="#403F4B"/>
      <stop offset="1" stop-color="#555361"/>
    </radialGradient>
    <radialGradient id="paint18_radial_3940_79254" cx="0" cy="0" r="1" gradientUnits="userSpaceOnUse" gradientTransform="translate(83.1213 39.2931) scale(7.91587 6.34436)">
      <stop offset="0.276536" stop-color="#403F4B"/>
      <stop offset="1" stop-color="#555361"/>
    </radialGradient>
  </defs>
</svg>
