<svg width="48" height="48" viewBox="0 0 48 48" fill="none" xmlns="http://www.w3.org/2000/svg">
<rect x="13" y="11" width="22" height="30" rx="3" stroke="#4D4D5C" stroke-width="2"/>
<path d="M17 8C17 7.44772 17.4477 7 18 7H30C30.5523 7 31 7.44772 31 8V11H17V8Z" stroke="#4D4D5C" stroke-width="2" stroke-linejoin="round"/>
<mask id="path-3-inside-1_12891_11924" fill="white">
<rect x="16" y="14" width="16" height="10" rx="1"/>
</mask>
<rect x="16" y="14" width="16" height="10" rx="1" stroke="#4D4D5C" stroke-width="4" mask="url(#path-3-inside-1_12891_11924)"/>
<path d="M19 28H19.5" stroke="#F91F2B" stroke-width="2" stroke-linecap="round"/>
<path d="M24 28H24.5" stroke="#F91F2B" stroke-width="2" stroke-linecap="round"/>
<path d="M29 28H29.5" stroke="#F91F2B" stroke-width="2" stroke-linecap="round"/>
<path d="M19 32H19.5" stroke="#F91F2B" stroke-width="2" stroke-linecap="round"/>
<path d="M19 36H19.5" stroke="#F91F2B" stroke-width="2" stroke-linecap="round"/>
<path d="M24 32H24.5" stroke="#F91F2B" stroke-width="2" stroke-linecap="round"/>
<path d="M24 36H24.5" stroke="#F91F2B" stroke-width="2" stroke-linecap="round"/>
<path d="M29 32H29.5" stroke="#F91F2B" stroke-width="2" stroke-linecap="round"/>
<path d="M29 36H29.5" stroke="#F91F2B" stroke-width="2" stroke-linecap="round"/>
</svg>
