<?xml version="1.0" encoding="UTF-8" standalone="no"?>
<!-- Generator: Adobe Illustrator 19.2.0, SVG Export Plug-In . SVG Version: 6.00 Build 0)  -->

<svg
   xmlns:dc="http://purl.org/dc/elements/1.1/"
   xmlns:cc="http://creativecommons.org/ns#"
   xmlns:rdf="http://www.w3.org/1999/02/22-rdf-syntax-ns#"
   xmlns:svg="http://www.w3.org/2000/svg"
   xmlns="http://www.w3.org/2000/svg"
   xmlns:sodipodi="http://sodipodi.sourceforge.net/DTD/sodipodi-0.dtd"
   xmlns:inkscape="http://www.inkscape.org/namespaces/inkscape"
   version="1.1"
   id="Layer_1"
   x="0px"
   y="0px"
   viewBox="0 0 425 425"
   xml:space="preserve"
   inkscape:version="0.91 r13725"
   sodipodi:docname="pumb-logo_small.svg"
   width="425"
   height="425"><metadata
     id="metadata21"><rdf:RDF><cc:Work
         rdf:about=""><dc:format>image/svg+xml</dc:format><dc:type
           rdf:resource="http://purl.org/dc/dcmitype/StillImage" /><dc:title></dc:title></cc:Work></rdf:RDF></metadata><defs
     id="defs19" /><sodipodi:namedview
     pagecolor="#ffffff"
     bordercolor="#666666"
     borderopacity="1"
     objecttolerance="10"
     gridtolerance="10"
     guidetolerance="10"
     inkscape:pageopacity="0"
     inkscape:pageshadow="2"
     inkscape:window-width="1228"
     inkscape:window-height="686"
     id="namedview17"
     showgrid="false"
     inkscape:zoom="0.48833333"
     inkscape:cx="1016.6615"
     inkscape:cy="380.58157"
     inkscape:window-x="0"
     inkscape:window-y="25"
     inkscape:window-maximized="0"
     inkscape:current-layer="Layer_1" /><style
     type="text/css"
     id="style3">
	.st0{fill:#FFFFFF;}
	.st1{fill-rule:evenodd;clip-rule:evenodd;fill:#D13239;}
	.st2{fill-rule:evenodd;clip-rule:evenodd;fill:#FFFFFF;}
</style><g
     id="g5"
     transform="matrix(1.9184652,0,0,1.9221528,-1577.5269,-397.83809)"><g
       id="g7"><path
         class="st1"
         d="m 934.6,214.2 c 57.3,0 104.1,46.9 104.1,104 0,57.6 -46.9,104.1 -104.1,104.1 -57.5,0 -104.4,-46.6 -104.4,-104.1 0,-57.1 47,-104 104.4,-104"
         id="path9"
         inkscape:connector-curvature="0"
         style="clip-rule:evenodd;fill:#d13239;fill-rule:evenodd" /><path
         class="st2"
         d="m 1013.9,281.8 1,0 c -0.3,3.1 -1.6,5.1 -3.7,6.4 -2.4,1.3 -5,2.1 -9,2.1 l -3.7,0 c -13.5,-0.8 -16.3,13.4 -14.8,23.9 1,6.4 3.4,13.4 7.4,18.2 3.4,3.7 8.7,6 13.1,2.3 3.7,-2.9 4.7,-10 4.7,-14.1 0,-7.1 -2.6,-18.2 -11.4,-18.2 -2.6,0 -5,1 -7,3.7 -1.4,2 -2.1,5.7 -2.1,9.4 l -1.6,0 c -1.1,-8.7 2.9,-15.8 12.1,-16.1 10.8,0 17.4,8.7 17.4,19.5 0,10.8 -6.7,20.9 -17.8,20.9 -5.8,0 -10.5,-2.1 -13.8,-6.4 -3.4,-4 -5,-10.8 -5,-19.5 0,-10.8 1.6,-17.2 5,-22.2 3.4,-5 8.1,-7.4 14.5,-7.4 l 5.3,0 c 3.4,0.3 5.8,0 7.1,-0.3 0.8,-0.4 1.9,-1.1 2.3,-2.2"
         id="path11"
         inkscape:connector-curvature="0"
         style="clip-rule:evenodd;fill:#ffffff;fill-rule:evenodd" /><path
         class="st2"
         d="m 937.6,300 13.2,29.3 12.1,-26.9 1.1,-2.4 10,0 0,1.3 -1,0 c -1.3,0 -2.7,1.4 -2.7,3 l 0,22.2 0,8.8 c 0,1.6 1.4,2.9 2.7,2.9 l 1,0 0,1.1 -6.7,0 -7,0 0,-1.1 1,0 c 1.3,0 2.7,-1.3 2.7,-2.9 l 0,-8.8 0,-19.8 -14.8,33 -0.8,0 -14.5,-33.7 0,29.3 c 0,1.6 1.3,2.9 2.6,2.9 l 1.1,0 0,1.1 -6.8,0 -3.4,0 0,-1.1 1,0 c 1.4,0 2.7,-1.3 2.7,-2.9 l 0,-31.1 c 0,-1.5 -0.9,-3 -3.1,-2.9 -1.6,0 -3.6,1.6 -4.7,4 l -14,30.7 c -1.2,2.5 -3,3.4 -5.3,3.4 l -3.2,-0.1 c 0,0 -0.8,-4.1 -0.7,-4.1 1.4,1.1 2.5,1.6 2.9,1.9 1.7,0.9 2.9,-0.2 3.5,-1.4 l 1.7,-3.9 -12.2,-26 c -1.4,-2.7 -2.5,-4.1 -4.5,-4.5 l 0,-1.3 7.1,0 5.4,0 0,1.3 -1,0 c -1,0 -1.4,1.5 -0.7,3 l 9.5,20.3 8.9,-19.6 c 1,-2 0.2,-3.5 -1.3,-3.6 l 0,-1.4 18.2,0 z"
         id="path13"
         inkscape:connector-curvature="0"
         style="clip-rule:evenodd;fill:#ffffff;fill-rule:evenodd" /><path
         class="st2"
         d="m 880.1,326.7 0,-22.2 0,-1.5 -17.9,0 0.1,1.5 0,22.2 0,8.8 c 0,1.6 1.3,2.9 2.6,2.9 l 1.1,0 0,1.1 -6.8,0 -7.1,0 0,-1.1 1,0 c 1.4,0 2.7,-1.3 2.7,-2.9 l 0,-8.8 0,-22.2 c 0,-1.6 -1.3,-3 -2.7,-3 l -1,0 0,-1.5 7.1,0 1,0 5.8,0 10.4,0 5.1,0 2,0 6.8,0 0,1.3 -1,0 c -1.4,0 -2.7,1.4 -2.7,3 l 0,22.2 0,8.8 c 0,1.6 1.3,2.9 2.7,2.9 l 1,0 0,1.1 -6.8,0 -7.1,0 0,-1.1 1.1,0 c 1.3,0 2.6,-1.3 2.6,-2.9 l 0,-8.6 z"
         id="path15"
         inkscape:connector-curvature="0"
         style="clip-rule:evenodd;fill:#ffffff;fill-rule:evenodd" /></g></g></svg>