<svg width="32" height="32" viewBox="0 0 32 32" fill="none" xmlns="http://www.w3.org/2000/svg">
<rect width="32" height="32" rx="8.72727" fill="#2C2C3B"/>
<path d="M16.0275 23.4072C15.8976 23.4072 15.713 23.3594 15.5353 23.2637C11.6525 21.1787 10.2785 20.1738 10.2785 17.7266V12.6885C10.2785 11.8203 10.5929 11.4854 11.338 11.1777C12.049 10.8838 14.5304 10.0088 15.2208 9.79004C15.4738 9.71484 15.7677 9.66016 16.0275 9.66016C16.2804 9.66016 16.5812 9.71484 16.8341 9.79004C17.5177 10.0156 20.006 10.8838 20.7169 11.1777C21.4552 11.4922 21.7697 11.8203 21.7697 12.6885V17.7266C21.7697 20.1738 20.4503 21.2676 16.5128 23.2637C16.3351 23.3525 16.1574 23.4072 16.0275 23.4072ZM15.2687 19.5996C15.5421 19.5996 15.7814 19.4629 15.9454 19.2168L19.1378 14.2881C19.2404 14.1309 19.3156 13.9531 19.3156 13.7891C19.3156 13.3994 18.9806 13.1396 18.6115 13.1396C18.3722 13.1396 18.1671 13.2695 18.0031 13.5293L15.2482 17.9248L13.9835 16.3389C13.8058 16.1201 13.6281 16.0312 13.4025 16.0312C13.0197 16.0312 12.7189 16.3389 12.7189 16.7217C12.7189 16.9062 12.7804 17.0703 12.9171 17.2412L14.5646 19.2236C14.7628 19.4766 14.9884 19.5996 15.2687 19.5996Z" fill="white"/>
</svg>
