<svg width="24" height="24" viewBox="0 0 24 24" fill="none" xmlns="http://www.w3.org/2000/svg">
  <mask id="mask0_16854_7747" style="mask-type:alpha" maskUnits="userSpaceOnUse" x="0" y="0" width="24" height="24">
    <path d="M4.55864 4.53739C4.93118 4.17925 5.41747 4 6.01764 4C6.61784 4 7.09893 4.17909 7.46037 4.53739C7.82186 4.89561 8.0064 5.3479 8.01362 5.89456C8.0208 6.43378 7.83823 6.88432 7.46584 7.24615C7.09346 7.60817 6.60344 7.78905 5.9959 7.78905H5.97421C5.38122 7.78905 4.90386 7.60801 4.54238 7.24615C4.18078 6.88432 4 6.43362 4 5.89456C4 5.34786 4.18614 4.89561 4.55864 4.53739Z" fill="#B6B6BF"/>
    <path d="M19.8718 10.0228C19.1198 9.18442 18.1253 8.76514 16.8887 8.76514C16.4331 8.76514 16.019 8.82238 15.6465 8.93694C15.2741 9.05142 14.9596 9.21205 14.7028 9.4189C14.4461 9.62574 14.2417 9.81776 14.0899 9.99496C13.9456 10.1633 13.8045 10.3593 13.6668 10.5811V9.01979H10.0978L10.1087 9.5517C10.1161 9.90636 10.1197 10.9995 10.1197 12.8313C10.1197 14.6632 10.1124 17.0527 10.0979 20H13.6668V13.8727C13.6668 13.4961 13.7064 13.197 13.7861 12.9752C13.9381 12.5983 14.1674 12.2827 14.475 12.028C14.7825 11.7729 15.1638 11.6455 15.6196 11.6455C16.2413 11.6455 16.6989 11.8653 16.9918 12.3048C17.2847 12.7442 17.4311 13.3518 17.4311 14.1274V19.9996H21V13.7067C20.9997 12.0888 20.6239 10.861 19.8718 10.0228Z" fill="#B6B6BF"/>
    <path d="M7.79676 9.02002H4.21704V20H7.79676V9.02002Z" fill="#B6B6BF"/>
  </mask>
  <g mask="url(#mask0_16854_7747)">
    <rect x="-16" width="56" height="24" fill="currentColor"/>
  </g>
</svg>
