<svg width="24" height="24" viewBox="0 0 24 24" fill="none" xmlns="http://www.w3.org/2000/svg">
  <mask id="mask0_16854_7548" style="mask-type:alpha" maskUnits="userSpaceOnUse" x="0" y="0" width="24" height="24">
    <path fill-rule="evenodd" clip-rule="evenodd" d="M11.104 3.00073H12.8977L14.2225 3.00809C14.8412 3.01573 15.174 3.02984 15.7119 3.05447C16.67 3.098 17.3242 3.25004 17.8968 3.4724C18.4974 3.69847 19.0415 4.05296 19.491 4.51086C19.9489 4.96053 20.3033 5.50455 20.5292 6.10515C20.7315 6.62556 20.8756 7.21362 20.9331 8.03608L20.9753 8.95195C20.9922 9.43994 20.9992 9.95289 21.0012 11.1042L20.9981 13.7426C20.9921 14.6987 20.9778 15.05 20.9477 15.712C20.9039 16.67 20.7519 17.3243 20.5292 17.8969C20.0617 19.106 19.1059 20.0617 17.8969 20.5292C17.3764 20.7316 16.7884 20.8757 15.966 20.9331L15.2045 20.9697C14.6985 20.9894 14.235 20.9979 13.1369 21.0007L10.1499 20.9974C9.27532 20.9911 8.9261 20.9768 8.28991 20.9477C7.3318 20.9039 6.6775 20.7519 6.10505 20.5292C5.50444 20.3033 4.96028 19.949 4.51076 19.4911C4.05285 19.0415 3.6985 18.4974 3.47257 17.8969C3.2703 17.3764 3.12615 16.7883 3.0688 15.9659L3.02645 15.0501C3.00946 14.5621 3.00249 14.0491 3.00049 12.8977L3.00354 10.2593C3.00954 9.30325 3.02391 8.95197 3.05422 8.28988C3.09776 7.33191 3.2498 6.6776 3.47216 6.10501C3.69823 5.50441 4.05272 4.96039 4.51062 4.51086C4.96028 4.05296 5.5043 3.69861 6.10491 3.47268C6.62544 3.27041 7.2134 3.12625 8.03584 3.0688L8.95173 3.02658C9.43974 3.00968 9.95273 3.00273 11.104 3.00073ZM13.674 4.62503H10.3276C9.36514 4.63049 9.02636 4.64409 8.36367 4.6743C7.48604 4.71441 7.00946 4.86095 6.69233 4.98429C6.30131 5.1285 5.94765 5.35855 5.6573 5.65755C5.35844 5.94789 5.12826 6.30155 4.98391 6.69257L4.92586 6.85114C4.82793 7.13722 4.728 7.53965 4.68514 8.16839L4.64288 9.1388C4.62766 9.63831 4.62259 10.2145 4.62173 11.5332L4.62479 13.6744C4.63025 14.6368 4.64385 14.9756 4.67406 15.6383C4.71403 16.5159 4.86071 16.9925 4.98391 17.3096C5.12826 17.7006 5.35831 18.0542 5.6573 18.3445C5.94765 18.6435 6.30131 18.8736 6.69219 19.0179L6.85081 19.076C7.13697 19.1739 7.53939 19.2739 8.16804 19.3167L9.01468 19.355C9.42409 19.3691 9.84833 19.3758 10.6726 19.3786L13.527 19.3778C14.604 19.3729 14.9427 19.3596 15.638 19.3278C16.5156 19.2878 16.9922 19.1411 17.3093 19.0179C18.0944 18.7151 18.7148 18.0947 19.0176 17.3096L19.0757 17.1511C19.1736 16.865 19.2736 16.4625 19.3164 15.8338L19.3588 14.8598C19.3731 14.3889 19.3784 13.8484 19.3796 12.682L19.3768 10.3417C19.3714 9.36865 19.3578 9.02981 19.3275 8.36391C19.2906 7.55379 19.1628 7.08539 19.0463 6.76869L19.0175 6.69257C18.8733 6.30155 18.6432 5.94789 18.3442 5.65755C18.0539 5.35869 17.7002 5.12863 17.3093 4.98429L17.1507 4.92623C16.8646 4.82828 16.4622 4.72828 15.8335 4.6855L14.956 4.64615C14.6174 4.63477 14.2621 4.62838 13.674 4.62503ZM12.0007 7.37888C14.5535 7.37888 16.6229 9.44838 16.6229 12.001C16.6229 14.5537 14.5535 16.623 12.0007 16.623C9.448 16.623 7.37864 14.5537 7.37864 12.001C7.37864 9.44838 9.448 7.37888 12.0007 7.37888ZM12.0008 9.00064C10.3438 9.00064 9.00053 10.344 9.00053 12.0009C9.00039 13.6579 10.3438 15.0012 12.0007 15.0013C13.6578 15.0013 15.0011 13.6579 15.0011 12.0009C15.0011 10.344 13.6579 9.00077 12.0008 9.00064ZM16.8056 6.11614C17.402 6.11614 17.8856 6.59973 17.8856 7.19635C17.8856 7.79283 17.402 8.27642 16.8056 8.27642C16.2089 8.27642 15.7253 7.79283 15.7253 7.19635C15.7253 6.59973 16.2089 6.11614 16.8056 6.11614Z" fill="#B6B6BF"/>
  </mask>
  <g mask="url(#mask0_16854_7548)">
    <rect x="-16" width="56" height="24" fill="currentColor"/>
  </g>
</svg>
