<svg width="24" height="24" viewBox="0 0 24 24" fill="none" xmlns="http://www.w3.org/2000/svg">
  <mask id="mask0_16854_7681" style="mask-type:alpha" maskUnits="userSpaceOnUse" x="0" y="0" width="24" height="24">
    <path fill-rule="evenodd" clip-rule="evenodd" d="M11.6927 5.00098H12.3086L13.5567 5.01391C15.5177 5.04359 18.7609 5.13663 19.8267 5.42826C20.6834 5.65894 21.359 6.33421 21.5895 7.19089C21.9489 8.50325 21.9953 11.0093 22.001 11.7835L21.9958 12.5149C21.9776 13.4854 21.9022 15.6399 21.5897 16.8272C21.359 17.6837 20.6835 18.3591 19.8267 18.5896C18.4354 18.9558 13.3341 18.9965 12.2177 19.001L10.4687 18.988C8.51364 18.9586 5.25565 18.866 4.17493 18.5733C3.31809 18.3426 2.64269 17.6672 2.41196 16.8107C2.05324 15.4621 2.00695 12.814 2.00098 12.153V11.8493L2.00918 11.3435C2.0325 10.3125 2.11562 8.31671 2.41196 7.19089C2.64253 6.33437 3.33457 5.64247 4.17478 5.41193C5.53129 5.05492 10.4146 5.00732 11.6927 5.00098ZM10.0073 9.00279V14.9988L15.2135 12.0008L10.0073 9.00279Z" fill="#B6B6BF"/>
  </mask>
  <g mask="url(#mask0_16854_7681)">
    <rect x="-16" width="56" height="24" fill="currentColor"/>
  </g>
</svg>
