<svg width="24" height="24" viewBox="0 0 24 24" fill="none" xmlns="http://www.w3.org/2000/svg">
  <mask id="mask0_16854_7695" style="mask-type:alpha" maskUnits="userSpaceOnUse" x="0" y="0" width="24" height="24">
    <path fill-rule="evenodd" clip-rule="evenodd" d="M4.11985 10.8417C8.49266 8.93653 11.4085 7.68053 12.8675 7.07369C17.0332 5.34105 17.8988 5.04007 18.4629 5.03014C18.587 5.02795 18.8645 5.0587 19.0442 5.20453C19.1959 5.32767 19.2377 5.494 19.2577 5.61075C19.2777 5.72749 19.3025 5.99344 19.2828 6.20125C19.057 8.5731 18.0803 14.329 17.5833 16.9855C17.3731 18.1096 16.959 18.4865 16.5582 18.5233C15.6871 18.6035 15.0257 17.9477 14.182 17.3946C12.8618 16.5292 12.116 15.9905 10.8345 15.146C9.35353 14.1701 10.3136 13.6337 11.1576 12.7571C11.3785 12.5277 15.2165 9.03672 15.2907 8.72004C15.3 8.68043 15.3086 8.5328 15.2209 8.45484C15.1332 8.37689 15.0038 8.40354 14.9104 8.42474C14.778 8.4548 12.6689 9.84879 8.58329 12.6067C7.98465 13.0178 7.44242 13.2181 6.9566 13.2076C6.42102 13.196 5.39078 12.9048 4.62491 12.6558C3.68553 12.3504 2.93893 12.189 3.00395 11.6704C3.03781 11.4003 3.40978 11.1241 4.11985 10.8417Z" fill="#B6B6BF"/>
  </mask>
  <g mask="url(#mask0_16854_7695)">
    <rect x="-16" width="56" height="24" fill="currentColor"/>
  </g>
</svg>
