<svg width="48" height="48" fill="none" xmlns="http://www.w3.org/2000/svg"><circle cx="26" cy="22" r="21" stroke="#6D6D7A" stroke-width="2"/><circle cx="22" cy="26" r="21" fill="#fff" stroke="#6D6D7A" stroke-width="2"/><path d="M30.117 27.733h-8.559c.434-.216.975-.433 1.409-.65 1.625-.758 3.358-1.625 4.658-2.708h2.492c.541 0 1.083-.433 1.083-1.083 0-.65-.433-1.084-1.083-1.084h-.867c.867-1.733.867-3.683-.108-5.416C27.95 14.517 25.35 13 22.533 13c-2.491 0-4.441.758-5.958 2.167-.217.216-.325.433-.325.758s.108.542.325.758a1.047 1.047 0 0 0 1.517 0c1.083-1.083 2.6-1.516 4.55-1.516 2.058 0 3.9.975 4.766 2.6.65 1.3.65 2.816-.216 4.116l-.325.325H14.083c-.541 0-1.083.434-1.083 1.084 0 .541.433 1.083 1.083 1.083h9.534c-.542.325-1.084.542-1.625.758-1.409.65-3.25 1.517-4.55 2.6h-3.359c-.541 0-1.083.434-1.083 1.084 0 .65.433 1.083 1.083 1.083h1.409c-.867 1.517-1.084 3.358-.542 4.983.975 2.709 3.683 4.225 7.367 4.225h.325c2.275 0 4.116-.65 5.525-1.841.216-.217.325-.434.325-.759s-.109-.541-.217-.758c-.217-.217-.433-.325-.758-.325s-.542.108-.759.217c-1.083.866-2.491 1.3-4.225 1.408-2.925 0-4.983-1.083-5.633-2.817-.542-1.516-.108-3.033 1.192-4.225h11.916c.542 0 1.084-.433 1.084-1.083 0-.325-.109-.542-.325-.758-.109-.325-.434-.434-.65-.434Z" fill="#F91F2B"/></svg>