<svg width="23" height="24" fill="none" xmlns="http://www.w3.org/2000/svg"><path d="M19.75 2.077c-.564-.51-2.989-2.034-8.05-2.056 0 0-5.993-.394-8.902 2.241C1.18 3.861.635 6.238.575 9.14c-.06 2.901-.37 8.443 4.937 9.917 0 0-.021 4.115-.024 4.476 0 .253.04.426.185.462.104.025.26-.029.392-.16.849-.853 3.565-4.13 3.565-4.13 3.645.238 6.545-.482 6.856-.583.736-.237 4.713-.578 5.386-6.015.695-5.605-.256-9.43-2.123-11.029Z" fill="#7360F2"/><path d="M14.275 8.9c-.065-1.326-.74-2.023-2.022-2.09" stroke="#fff" stroke-width=".973" stroke-linecap="round" stroke-linejoin="round"/><path d="M16.009 9.483c.026-1.237-.34-2.27-1.099-3.099-.762-.832-1.818-1.29-3.173-1.39" stroke="#fff" stroke-width=".973" stroke-linecap="round" stroke-linejoin="round"/><path d="M17.79 10.178c-.016-2.146-.657-3.835-1.923-5.069s-2.84-1.857-4.722-1.87" stroke="#fff" stroke-width=".973" stroke-linecap="round" stroke-linejoin="round"/><path d="M12.317 13.432s.476.04.732-.275l.5-.628c.24-.312.821-.51 1.39-.193.427.243.84.507 1.24.792.379.278 1.152.923 1.154.923.369.311.454.768.203 1.25l-.002.01c-.276.479-.627.91-1.04 1.28l-.008.006c-.358.3-.71.47-1.056.51a1.403 1.403 0 0 1-.603-.06l-.01-.015c-.533-.15-1.421-.526-2.901-1.343a17.27 17.27 0 0 1-2.437-1.61c-.384-.302-.75-.627-1.096-.972l-.037-.037-.037-.036-.037-.037-.037-.037c-.345-.347-.67-.713-.972-1.096a17.29 17.29 0 0 1-1.61-2.437C4.836 7.947 4.46 7.059 4.31 6.526l-.017-.011a1.405 1.405 0 0 1-.068-.45.677.677 0 0 1 .009-.153c.043-.345.213-.697.51-1.056.003-.005.006-.005.008-.01a5.2 5.2 0 0 1 1.28-1.038l.01-.003c.481-.25.938-.165 1.249.201.002.003.646.776.923 1.154.284.4.549.815.792 1.241.317.57.118 1.152-.193 1.392l-.628.499c-.317.256-.275.732-.275.732s.93 3.52 4.406 4.408Z" fill="#fff"/></svg>