<svg width="24" height="24" viewBox="0 0 24 24" fill="none" xmlns="http://www.w3.org/2000/svg">
<path d="M12.4644 8.81975C12.4721 8.67312 12.5976 8.56045 12.7448 8.5681C13.2953 8.59672 13.7533 8.76278 14.0795 9.09888C14.4044 9.4337 14.5637 9.90143 14.5917 10.4632C14.599 10.6098 14.4856 10.7346 14.3384 10.7419C14.1913 10.7492 14.0661 10.6362 14.0588 10.4895C14.0348 10.0087 13.9024 9.6813 13.6959 9.46853C13.4907 9.25705 13.1775 9.12303 12.717 9.09909C12.5698 9.09144 12.4568 8.96638 12.4644 8.81975Z" fill="#93939E"/>
<path d="M12.3456 7.14172C12.1987 7.131 12.0708 7.24103 12.0601 7.38746C12.0493 7.5339 12.1597 7.6613 12.3067 7.67202C13.3224 7.7461 14.0852 8.0849 14.631 8.67848C15.1783 9.27453 15.447 10.0175 15.4272 10.9279C15.424 11.0747 15.5408 11.1963 15.6881 11.1994C15.8354 11.2026 15.9574 11.0862 15.9606 10.9394C15.9831 9.90709 15.6743 9.02698 15.0246 8.31951C14.3677 7.605 13.4659 7.22343 12.3456 7.14172Z" fill="#93939E"/>
<path d="M11.5891 6.02591C11.5901 5.87908 11.7104 5.76089 11.8577 5.76191C13.4059 5.77266 14.7146 6.28628 15.7653 7.30701C16.8248 8.33627 17.3487 9.73751 17.362 11.4778C17.3631 11.6247 17.2446 11.7446 17.0972 11.7457C16.9499 11.7468 16.8296 11.6287 16.8284 11.4819C16.816 9.85111 16.3292 8.59737 15.3928 7.68774C14.4477 6.76958 13.2742 6.30347 11.854 6.29361C11.7067 6.29259 11.5881 6.17273 11.5891 6.02591Z" fill="#93939E"/>
<path d="M13.3606 13.8208C13.1587 14.0687 12.7837 14.0372 12.7837 14.0372C10.0428 13.3399 9.30926 10.5732 9.30926 10.5732C9.30926 10.5732 9.27634 10.1995 9.52635 9.99826L10.0216 9.60594C10.2672 9.41735 10.4238 8.95975 10.1738 8.51287C9.98208 8.17743 9.77358 7.85177 9.54914 7.53712C9.33109 7.24036 8.82317 6.63264 8.82127 6.63075C8.57633 6.34282 8.21619 6.27596 7.83644 6.47306C7.83529 6.47306 7.83371 6.47357 7.83219 6.47406C7.83079 6.47452 7.82944 6.47496 7.82853 6.47496C7.45082 6.69183 7.11025 6.96735 6.81964 7.29113C6.81865 7.29311 6.81766 7.29405 6.81667 7.29499C6.81576 7.29586 6.81485 7.29673 6.81394 7.29838C6.57934 7.58053 6.44505 7.85711 6.41109 8.12812C6.40403 8.16808 6.40159 8.20871 6.40381 8.24922C6.40255 8.36889 6.42082 8.48798 6.45792 8.6018L6.4709 8.61063C6.58926 9.02944 6.88547 9.72704 7.52915 10.8901C7.89733 11.5628 8.32195 12.2033 8.79849 12.8047C9.03723 13.1062 9.29315 13.3938 9.56496 13.666C9.56824 13.6693 9.57149 13.6725 9.57472 13.6758C9.58116 13.6823 9.58754 13.6887 9.59407 13.695L9.68142 13.7821C9.95461 14.0529 10.2432 14.308 10.5457 14.5459C11.1492 15.0208 11.792 15.444 12.4672 15.8108C13.634 16.4523 14.3347 16.7475 14.7543 16.8654L14.7632 16.8783C14.8774 16.9154 14.9969 16.9337 15.117 16.9326C15.1577 16.9346 15.1984 16.932 15.2385 16.925C15.5109 16.8929 15.7882 16.7592 16.0705 16.5242C16.0722 16.5233 16.073 16.5224 16.0739 16.5215C16.0748 16.5205 16.0758 16.5195 16.0778 16.5185C16.4027 16.2288 16.6793 15.8894 16.8971 15.5131C16.8971 15.5122 16.8975 15.5109 16.8978 15.5095C16.8983 15.5079 16.8987 15.5064 16.8987 15.5052C17.0965 15.1268 17.0294 14.7679 16.7389 14.5235C16.7385 14.5235 16.7148 14.504 16.6747 14.4711C16.51 14.3359 16.0688 13.9736 15.8293 13.7981C15.5139 13.5745 15.1874 13.3667 14.8512 13.1756C14.4024 12.9265 13.9442 13.0826 13.7543 13.3273L13.3606 13.8208Z" fill="#93939E"/>
<path fill-rule="evenodd" clip-rule="evenodd" d="M19.7424 4.05009C19.2184 3.5682 17.1006 2.03614 12.3834 2.01533C12.3834 2.01533 6.8206 1.68104 4.10883 4.15983C2.5993 5.66446 2.06827 7.86605 2.01226 10.5956C1.95624 13.3251 1.88377 18.4404 6.83168 19.8273H6.83642L6.83326 21.9438C6.83326 21.9438 6.80161 22.8006 7.36777 22.9754C7.9393 23.1522 8.31378 22.7279 8.80208 22.1746C8.89882 22.065 9.00022 21.9501 9.10831 21.834C9.46718 21.4487 9.96277 20.8826 10.3362 20.4499C13.7201 20.7337 16.3227 20.085 16.6183 19.9891C16.6793 19.9694 16.7657 19.9475 16.8728 19.9204C17.9661 19.6434 21.2239 18.8178 21.7966 14.1599C22.4457 8.88784 21.4827 5.55313 19.7424 4.05009ZM20.3159 13.7817C19.838 17.6271 17.2481 18.2277 16.3149 18.4441C16.2117 18.468 16.1287 18.4872 16.0711 18.5056C15.8252 18.5845 13.5394 19.1512 10.665 18.9642C10.665 18.9642 8.52317 21.5392 7.85417 22.2087C7.74974 22.3134 7.62695 22.3557 7.54499 22.3348C7.42979 22.3068 7.39815 22.1708 7.39941 21.9722C7.40131 21.6883 7.41777 18.4552 7.41777 18.4552C3.37054 17.3354 3.46493 13.2277 3.5185 10.8963C3.52033 10.8166 3.52212 10.739 3.52369 10.6637C3.57116 8.38388 4.00091 6.51627 5.27753 5.26016C7.57125 3.18976 12.2964 3.49914 12.2964 3.49914C16.2866 3.51648 18.1987 4.71394 18.6421 5.11509C20.1143 6.3712 20.8643 9.37698 20.3159 13.7805V13.7817Z" fill="#93939E"/>
</svg>
