<svg width="14" height="14" viewBox="0 0 14 14" fill="none" xmlns="http://www.w3.org/2000/svg">
<path d="M4.41975 0.489123C6.18024 -0.210481 8.23092 -0.16211 9.94449 0.65047C9.45619 0.576508 8.95956 0.632276 8.47623 0.713744C7.16358 0.960924 5.91612 1.57673 4.94106 2.4916C4.00612 3.40787 3.35096 4.62362 3.16592 5.92431C3.04352 6.84595 3.15698 7.81263 3.57176 8.6515C3.99919 9.53164 4.75156 10.2535 5.65838 10.6261C6.53219 10.9948 7.54579 10.9907 8.43087 10.6616C9.75889 10.1757 10.7131 8.86358 10.8222 7.46175C10.8908 6.543 10.6667 5.56563 10.0476 4.86096C9.45664 4.1712 8.59229 3.79125 7.72731 3.57499C7.68095 2.72443 8.08286 1.88415 8.72021 1.33099C9.07417 1.01277 9.51342 0.809932 9.96767 0.680129L10.0022 0.668258C11.3025 1.28998 12.4073 2.31535 13.1113 3.57414C13.7145 4.64584 14.029 5.88082 13.9979 7.11099C13.992 8.70176 13.3956 10.2768 12.3733 11.4931C11.4066 12.6531 10.0546 13.4875 8.58098 13.8216C7.10345 14.1615 5.5138 14.0149 4.13101 13.3888C2.77796 12.7863 1.63165 11.7388 0.902418 10.4504C0.295808 9.37969 -0.0250968 8.14516 0.00153398 6.91355C0.00442702 5.37899 0.550951 3.85627 1.50517 2.65627C2.26737 1.6981 3.27853 0.936221 4.41975 0.489123Z" fill="#F91600"/>
</svg>
