<svg width="56" height="56" viewBox="0 0 56 56" fill="none" xmlns="http://www.w3.org/2000/svg">
<rect width="56" height="56" rx="12" fill="#F57F17"/>
<path d="M15.9375 42.875C13.1562 42.875 11.375 40.8281 11.375 38.3125C11.375 37.5469 11.5781 36.75 12 36.0156L24.0781 14.9531C24.9375 13.4375 26.4531 12.6562 28 12.6562C29.5312 12.6562 31.0469 13.4219 31.9062 14.9531L43.9844 36C44.4062 36.75 44.6094 37.5469 44.6094 38.3125C44.6094 40.8281 42.8281 42.875 40.0469 42.875H15.9375ZM28.0156 31.9688C28.9844 31.9688 29.5469 31.4219 29.5781 30.3906L29.8281 23.0156C29.875 21.9688 29.0938 21.2344 28 21.2344C26.875 21.2344 26.125 21.9688 26.1719 23.0156L26.4062 30.4062C26.4375 31.4062 27.0156 31.9688 28.0156 31.9688ZM28.0156 37.4531C29.1406 37.4531 30.0469 36.7031 30.0469 35.5938C30.0469 34.5 29.1562 33.7188 28.0156 33.7188C26.875 33.7188 25.9688 34.5 25.9688 35.5938C25.9688 36.6875 26.875 37.4531 28.0156 37.4531Z" fill="white"/>
</svg>
