<svg width="128" height="32" viewBox="0 0 128 32" fill="none" xmlns="http://www.w3.org/2000/svg">
<path fill-rule="evenodd" clip-rule="evenodd" d="M8.26777 4.9873C7.83622 4.9873 7.49219 5.33719 7.49219 5.76729V11.2151H21.8312L15.2997 4.9873H8.26777Z" fill="white"/>
<path fill-rule="evenodd" clip-rule="evenodd" d="M22.3545 12.8693C22.3545 12.4364 22.0116 12.0898 21.5781 12.0898H16.1562V26.485L22.3545 19.9319V12.8693Z" fill="white"/>
<path fill-rule="evenodd" clip-rule="evenodd" d="M14.5067 27.0114C14.9314 27.0114 15.2827 26.6623 15.2827 26.2314V20.7852H0.945312L7.4715 27.0098L14.5067 27.0114Z" fill="white"/>
<path fill-rule="evenodd" clip-rule="evenodd" d="M0.648438 19.609C0.648438 20.0371 0.998495 20.3838 1.42562 20.3838H6.85187V5.9873L0.656069 12.5444L0.648438 19.609Z" fill="white"/>
<path d="M37.2601 24.7405C36.5401 24.7405 35.9241 24.6765 35.4121 24.5485C34.9161 24.4365 34.4841 24.3165 34.1161 24.1885C33.7481 24.0605 33.4121 23.9965 33.1081 23.9965C32.6281 23.9965 32.1961 24.2045 31.8121 24.6205H31.6201L31.1641 18.8365H31.4281C32.0681 20.5325 32.9001 21.8525 33.9241 22.7965C34.9641 23.7405 36.0841 24.2125 37.2841 24.2125C38.1161 24.2125 38.7641 23.9645 39.2281 23.4685C39.7081 22.9725 39.9481 22.3085 39.9481 21.4765C39.9481 20.8365 39.7961 20.3005 39.4921 19.8685C39.1881 19.4205 38.7881 19.0285 38.2921 18.6925C37.7961 18.3565 37.2521 18.0445 36.6601 17.7565C36.0681 17.4525 35.4681 17.1485 34.8601 16.8445C34.2681 16.5245 33.7241 16.1725 33.2281 15.7885C32.7321 15.3885 32.3321 14.9165 32.0281 14.3725C31.7241 13.8125 31.5721 13.1485 31.5721 12.3805C31.5721 11.5485 31.7481 10.8205 32.1001 10.1965C32.4681 9.55646 32.9721 9.06046 33.6121 8.70846C34.2681 8.35646 35.0281 8.18046 35.8921 8.18046C36.4041 8.18046 36.8681 8.22846 37.2841 8.32446C37.7161 8.42046 38.0921 8.51646 38.4121 8.61246C38.7481 8.70846 39.0361 8.75646 39.2761 8.75646C39.6441 8.75646 39.9721 8.60446 40.2601 8.30046H40.4521L40.6441 12.9565H40.3801C39.8201 11.5325 39.1561 10.4685 38.3881 9.76446C37.6361 9.06046 36.7961 8.70846 35.8681 8.70846C35.1641 8.70846 34.5961 8.92446 34.1641 9.35646C33.7481 9.78846 33.5401 10.3645 33.5401 11.0845C33.5401 11.6765 33.6921 12.1725 33.9961 12.5725C34.3161 12.9565 34.7161 13.3005 35.1961 13.6045C35.6921 13.9085 36.2361 14.1885 36.8281 14.4445C37.4361 14.7005 38.0361 14.9805 38.6281 15.2845C39.2361 15.5725 39.7801 15.9245 40.2601 16.3405C40.7561 16.7405 41.1561 17.2365 41.4601 17.8285C41.7801 18.4045 41.9401 19.1165 41.9401 19.9645C41.9401 20.9085 41.7401 21.7405 41.3401 22.4605C40.9561 23.1805 40.4121 23.7405 39.7081 24.1405C39.0201 24.5405 38.2041 24.7405 37.2601 24.7405ZM44.3104 10.1245C44.3104 9.51646 44.2464 9.07646 44.1184 8.80446C44.0064 8.53246 43.7904 8.31646 43.4704 8.15646V7.94046L47.0704 7.82046V22.9645C47.0704 23.3645 47.1344 23.6685 47.2624 23.8765C47.4064 24.0845 47.6224 24.2205 47.9104 24.2845V24.5005H43.4704V24.2845C43.7584 24.2205 43.9664 24.0845 44.0944 23.8765C44.2384 23.6685 44.3104 23.3645 44.3104 22.9645V10.1245ZM50.8144 24.5005V24.2845C51.1184 24.2205 51.3344 24.0685 51.4624 23.8285C51.5904 23.5885 51.6544 23.2285 51.6544 22.7485V16.6285C51.6544 14.4845 50.8624 13.4125 49.2784 13.4125C48.8464 13.4125 48.4304 13.5245 48.0304 13.7485C47.6304 13.9565 47.2704 14.2605 46.9504 14.6605L46.8784 14.5645C47.2304 13.7645 47.7504 13.1325 48.4384 12.6685C49.1264 12.1885 49.8784 11.9485 50.6944 11.9485C51.8784 11.9485 52.7904 12.3165 53.4304 13.0525C54.0864 13.7725 54.4144 14.7885 54.4144 16.1005V22.7485C54.4144 23.2285 54.4785 23.5885 54.6065 23.8285C54.7344 24.0685 54.9504 24.2205 55.2544 24.2845V24.5005H50.8144ZM62.5133 24.7405C61.3933 24.7405 60.3933 24.4685 59.5133 23.9245C58.6333 23.3645 57.9453 22.6045 57.4493 21.6445C56.9693 20.6845 56.7293 19.5805 56.7293 18.3325C56.7293 17.0845 56.9693 15.9805 57.4493 15.0205C57.9453 14.0605 58.6333 13.3085 59.5133 12.7645C60.3933 12.2205 61.3933 11.9485 62.5133 11.9485C63.6493 11.9485 64.6493 12.2205 65.5133 12.7645C66.3933 13.3085 67.0733 14.0605 67.5533 15.0205C68.0493 15.9805 68.2973 17.0845 68.2973 18.3325C68.2973 19.5805 68.0493 20.6845 67.5533 21.6445C67.0733 22.6045 66.3933 23.3645 65.5133 23.9245C64.6493 24.4685 63.6493 24.7405 62.5133 24.7405ZM62.5133 12.4525C61.6333 12.4525 60.9453 12.9645 60.4493 13.9885C59.9533 15.0125 59.7053 16.4605 59.7053 18.3325C59.7053 20.2045 59.9533 21.6605 60.4493 22.7005C60.9453 23.7245 61.6333 24.2365 62.5133 24.2365C63.3933 24.2365 64.0813 23.7245 64.5773 22.7005C65.0733 21.6605 65.3213 20.2045 65.3213 18.3325C65.3213 16.4605 65.0733 15.0125 64.5773 13.9885C64.0813 12.9645 63.3933 12.4525 62.5133 12.4525ZM69.6948 28.5805V28.3645C69.9988 28.3005 70.2148 28.1645 70.3428 27.9565C70.4708 27.7645 70.5348 27.4685 70.5348 27.0685V14.7085C70.5348 14.1005 70.4708 13.6605 70.3428 13.3885C70.2308 13.1165 70.0148 12.9005 69.6948 12.7405V12.5245L73.1028 12.0685L73.2228 14.2045V26.3965C73.2228 27.0205 73.3268 27.4685 73.5348 27.7405C73.7428 28.0285 74.1028 28.2365 74.6148 28.3645V28.5805H69.6948ZM76.5108 11.9485C77.5028 11.9485 78.3588 12.2205 79.0788 12.7645C79.8148 13.2925 80.3828 14.0365 80.7828 14.9965C81.1988 15.9565 81.4068 17.0845 81.4068 18.3805C81.4068 19.5645 81.1828 20.6445 80.7348 21.6205C80.2868 22.5805 79.6788 23.3405 78.9108 23.9005C78.1588 24.4605 77.2948 24.7405 76.3188 24.7405C75.4068 24.7405 74.5668 24.5325 73.7988 24.1165C73.0308 23.6845 72.3828 23.0525 71.8548 22.2205L73.2228 16.7245C73.2228 19.1405 73.5028 20.9965 74.0628 22.2925C74.6388 23.5725 75.4468 24.2125 76.4868 24.2125C77.2388 24.2125 77.8308 23.8765 78.2628 23.2045C78.7108 22.5325 78.9348 21.6205 78.9348 20.4685C78.9348 19.5565 78.8228 18.6685 78.5988 17.8045C78.3908 16.9405 78.0948 16.1645 77.7108 15.4765C77.3428 14.7885 76.9268 14.2445 76.4628 13.8445C75.9988 13.4445 75.5108 13.2445 74.9988 13.2445C74.6468 13.2445 74.3108 13.3405 73.9908 13.5325C73.6868 13.7245 73.4148 14.0045 73.1748 14.3725L73.0548 14.2525C73.3268 13.5645 73.7748 13.0125 74.3988 12.5965C75.0228 12.1645 75.7268 11.9485 76.5108 11.9485ZM82.7963 28.5805V28.3645C83.1003 28.3005 83.3163 28.1645 83.4443 27.9565C83.5723 27.7645 83.6363 27.4685 83.6363 27.0685V14.7085C83.6363 14.1005 83.5723 13.6605 83.4443 13.3885C83.3323 13.1165 83.1163 12.9005 82.7963 12.7405V12.5245L86.2043 12.0685L86.3243 14.2045V26.3965C86.3243 27.0205 86.4283 27.4685 86.6363 27.7405C86.8443 28.0285 87.2043 28.2365 87.7163 28.3645V28.5805H82.7963ZM89.6123 11.9485C90.6043 11.9485 91.4603 12.2205 92.1803 12.7645C92.9163 13.2925 93.4843 14.0365 93.8843 14.9965C94.3003 15.9565 94.5083 17.0845 94.5083 18.3805C94.5083 19.5645 94.2843 20.6445 93.8363 21.6205C93.3883 22.5805 92.7803 23.3405 92.0123 23.9005C91.2603 24.4605 90.3963 24.7405 89.4203 24.7405C88.5083 24.7405 87.6683 24.5325 86.9003 24.1165C86.1323 23.6845 85.4843 23.0525 84.9563 22.2205L86.3243 16.7245C86.3243 19.1405 86.6043 20.9965 87.1643 22.2925C87.7403 23.5725 88.5483 24.2125 89.5883 24.2125C90.3403 24.2125 90.9323 23.8765 91.3643 23.2045C91.8123 22.5325 92.0363 21.6205 92.0363 20.4685C92.0363 19.5565 91.9243 18.6685 91.7003 17.8045C91.4923 16.9405 91.1963 16.1645 90.8123 15.4765C90.4443 14.7885 90.0283 14.2445 89.5643 13.8445C89.1003 13.4445 88.6123 13.2445 88.1003 13.2445C87.7483 13.2445 87.4123 13.3405 87.0923 13.5325C86.7883 13.7245 86.5163 14.0045 86.2763 14.3725L86.1563 14.2525C86.4283 13.5645 86.8763 13.0125 87.5003 12.5965C88.1243 12.1645 88.8283 11.9485 89.6123 11.9485ZM96.0899 12.5485L99.6659 12.1885V22.7485C99.6659 23.2445 99.7299 23.6125 99.8579 23.8525C100.002 24.0765 100.218 24.2205 100.506 24.2845V24.5005H96.0899V24.2845C96.3779 24.2205 96.5859 24.0765 96.7139 23.8525C96.8579 23.6125 96.9299 23.2445 96.9299 22.7485V14.7805C96.9299 14.1565 96.8659 13.7005 96.7379 13.4125C96.6259 13.1245 96.4099 12.9085 96.0899 12.7645V12.5485ZM98.1299 7.77246C98.5939 7.77246 98.9699 7.92446 99.2579 8.22846C99.5619 8.51646 99.7139 8.86846 99.7139 9.28446C99.7139 9.68446 99.5619 10.0365 99.2579 10.3405C98.9699 10.6445 98.5939 10.7965 98.1299 10.7965C97.6659 10.7965 97.2819 10.6445 96.9779 10.3405C96.6739 10.0365 96.5219 9.68446 96.5219 9.28446C96.5219 8.86846 96.6739 8.51646 96.9779 8.22846C97.2819 7.92446 97.6659 7.77246 98.1299 7.77246ZM102.465 24.5005V24.2845C102.769 24.2205 102.985 24.0685 103.113 23.8285C103.241 23.5885 103.305 23.2285 103.305 22.7485V14.7565C103.305 14.1485 103.241 13.7005 103.113 13.4125C103.001 13.1245 102.785 12.9005 102.465 12.7405V12.5245L105.921 12.0685L106.041 14.4685V22.7485C106.041 23.2285 106.105 23.5885 106.233 23.8285C106.361 24.0685 106.577 24.2205 106.881 24.2845V24.5005H102.465ZM109.809 24.5005V24.2845C110.113 24.2205 110.329 24.0685 110.457 23.8285C110.585 23.5885 110.649 23.2285 110.649 22.7485V16.6285C110.649 14.4845 109.857 13.4125 108.273 13.4125C107.841 13.4125 107.417 13.5245 107.001 13.7485C106.601 13.9565 106.249 14.2605 105.945 14.6605L105.873 14.5645C106.225 13.7645 106.745 13.1325 107.433 12.6685C108.121 12.1885 108.873 11.9485 109.689 11.9485C110.873 11.9485 111.785 12.3165 112.425 13.0525C113.081 13.7725 113.409 14.7885 113.409 16.1005V22.7485C113.409 23.2285 113.473 23.5885 113.601 23.8285C113.729 24.0685 113.945 24.2205 114.249 24.2845V24.5005H109.809ZM121.122 28.8205C119.394 28.8205 118.026 28.5725 117.018 28.0765C116.01 27.5965 115.506 26.9405 115.506 26.1085C115.506 25.4845 115.786 24.9405 116.346 24.4765C116.906 23.9965 117.674 23.6685 118.65 23.4925L118.794 23.6365C118.442 23.8285 118.154 24.1165 117.93 24.5005C117.722 24.9005 117.618 25.3245 117.618 25.7725C117.618 26.5405 117.938 27.1485 118.578 27.5965C119.218 28.0605 120.09 28.2925 121.194 28.2925C122.314 28.2925 123.202 28.0925 123.858 27.6925C124.514 27.2925 124.842 26.7485 124.842 26.0605C124.842 25.6125 124.69 25.2525 124.386 24.9805C124.082 24.7245 123.594 24.5565 122.922 24.4765L119.274 23.9485C118.314 23.8205 117.594 23.5645 117.114 23.1805C116.634 22.7965 116.394 22.2925 116.394 21.6685C116.394 21.1245 116.618 20.6365 117.066 20.2045C117.514 19.7565 118.138 19.4445 118.938 19.2685L119.058 19.4365C118.754 19.5645 118.522 19.7325 118.362 19.9405C118.202 20.1485 118.122 20.3645 118.122 20.5885C118.122 20.8605 118.25 21.0765 118.506 21.2365C118.762 21.3805 119.218 21.4845 119.874 21.5485L123.546 21.9325C124.666 22.0605 125.49 22.3645 126.018 22.8445C126.562 23.3085 126.834 23.9565 126.834 24.7885C126.834 25.6045 126.594 26.3085 126.114 26.9005C125.65 27.5085 124.986 27.9805 124.122 28.3165C123.274 28.6525 122.274 28.8205 121.122 28.8205ZM120.978 11.9485H122.586C123.018 11.9485 123.338 11.8845 123.546 11.7565C123.754 11.6285 123.946 11.4045 124.122 11.0845C124.25 10.8285 124.386 10.6445 124.53 10.5325C124.674 10.4045 124.842 10.3405 125.034 10.3405C125.29 10.3405 125.498 10.4205 125.658 10.5805C125.834 10.7245 125.922 10.9165 125.922 11.1565C125.922 11.5725 125.73 11.8845 125.346 12.0925C124.978 12.2845 124.402 12.3805 123.618 12.3805H123.018V12.4525C123.898 12.6925 124.57 13.1085 125.034 13.7005C125.498 14.2925 125.73 15.0125 125.73 15.8605C125.73 16.6605 125.53 17.3565 125.13 17.9485C124.746 18.5245 124.194 18.9805 123.474 19.3165C122.77 19.6365 121.938 19.7965 120.978 19.7965C120.018 19.7965 119.178 19.6365 118.458 19.3165C117.754 18.9805 117.194 18.5165 116.778 17.9245C116.378 17.3325 116.178 16.6445 116.178 15.8605C116.178 15.0605 116.378 14.3725 116.778 13.7965C117.178 13.2045 117.738 12.7485 118.458 12.4285C119.178 12.1085 120.018 11.9485 120.978 11.9485ZM120.978 12.4285C120.338 12.4285 119.842 12.7245 119.49 13.3165C119.138 13.9085 118.962 14.7565 118.962 15.8605C118.962 16.9645 119.138 17.8205 119.49 18.4285C119.858 19.0205 120.354 19.3165 120.978 19.3165C121.602 19.3165 122.09 19.0125 122.442 18.4045C122.81 17.7965 122.994 16.9485 122.994 15.8605C122.994 14.7565 122.818 13.9085 122.466 13.3165C122.114 12.7245 121.618 12.4285 120.978 12.4285Z" fill="white"/>
</svg>
